<?xml version="1.0" encoding="utf-8"?>
<!-- Generator: Adobe Illustrator 26.0.3, SVG Export Plug-In . SVG Version: 6.00 Build 0)  -->
<svg version="1.1" id="圖層_1" xmlns="http://www.w3.org/2000/svg" xmlns:xlink="http://www.w3.org/1999/xlink" x="0px" y="0px"
	 viewBox="0 0 253 36" style="enable-background:new 0 0 253 36;" xml:space="preserve">
<style type="text/css">
	.st0{fill-rule:evenodd;clip-rule:evenodd;fill:#00E0B8;}
</style>
<path d="M25,15c0,1.9-0.3,3.7-1,5.3c-0.6,1.6-1.5,3-2.7,4.1c-1.2,1.2-2.5,2-4.2,2.7s-3.4,1-5.4,1H1.9V2h9.9c2,0,3.8,0.3,5.4,1
	c1.6,0.6,3,1.5,4.2,2.7c1.2,1.1,2,2.5,2.7,4.1C24.7,11.3,25,13.1,25,15z M20,15c0-1.4-0.2-2.7-0.6-3.8c-0.4-1.1-0.9-2.1-1.6-2.9
	c-0.7-0.8-1.6-1.4-2.6-1.8c-1-0.4-2.1-0.6-3.4-0.6H6.8v18.3h5.1c1.3,0,2.4-0.2,3.4-0.6c1-0.4,1.9-1,2.6-1.8c0.7-0.8,1.3-1.8,1.6-2.9
	C19.9,17.7,20,16.4,20,15z"/>
<path d="M36.5,9.5V28H32V9.5H36.5z M37.1,4.1c0,0.4-0.1,0.7-0.2,1.1c-0.2,0.3-0.4,0.6-0.6,0.9c-0.3,0.3-0.6,0.5-0.9,0.6
	c-0.3,0.1-0.7,0.2-1.1,0.2c-0.4,0-0.8-0.1-1.1-0.2c-0.3-0.2-0.6-0.4-0.9-0.6s-0.5-0.5-0.6-0.9c-0.1-0.3-0.2-0.7-0.2-1.1
	c0-0.4,0.1-0.8,0.2-1.1c0.2-0.3,0.4-0.6,0.6-0.9s0.5-0.5,0.9-0.6c0.3-0.2,0.7-0.2,1.1-0.2c0.4,0,0.8,0.1,1.1,0.2
	c0.3,0.1,0.6,0.3,0.9,0.6c0.3,0.3,0.5,0.6,0.6,0.9C37,3.4,37.1,3.8,37.1,4.1z"/>
<path d="M51.4,18.3c0.6,0,1-0.1,1.4-0.2c0.4-0.2,0.7-0.4,1-0.6c0.3-0.3,0.5-0.6,0.6-1c0.1-0.4,0.2-0.8,0.2-1.2
	c0-0.9-0.3-1.6-0.8-2.2c-0.5-0.5-1.4-0.8-2.4-0.8s-1.9,0.3-2.5,0.8c-0.5,0.5-0.8,1.2-0.8,2.2c0,0.4,0.1,0.8,0.2,1.2
	c0.1,0.4,0.3,0.7,0.6,1c0.3,0.3,0.6,0.5,1,0.6C50.3,18.2,50.8,18.3,51.4,18.3z M56.4,28.8c0-0.4-0.1-0.7-0.3-0.9
	c-0.2-0.2-0.5-0.4-0.9-0.5c-0.4-0.1-0.8-0.2-1.3-0.3c-0.5-0.1-1-0.1-1.6-0.1c-0.6,0-1.1-0.1-1.7-0.1c-0.6,0-1.2-0.1-1.7-0.1
	c-0.5,0.3-0.9,0.6-1.2,1c-0.3,0.4-0.5,0.8-0.5,1.3c0,0.3,0.1,0.6,0.2,0.9c0.2,0.3,0.4,0.5,0.8,0.7c0.4,0.2,0.8,0.4,1.4,0.5
	c0.6,0.1,1.3,0.2,2.1,0.2c0.8,0,1.5-0.1,2.1-0.2c0.6-0.1,1.1-0.3,1.5-0.5c0.4-0.2,0.7-0.5,0.9-0.8C56.3,29.5,56.4,29.2,56.4,28.8z
	 M60.8,10.2v1.7c0,0.5-0.3,0.9-1,1l-1.7,0.3c0.3,0.6,0.4,1.3,0.4,2.1c0,0.9-0.2,1.7-0.6,2.5c-0.4,0.7-0.9,1.4-1.5,1.9
	c-0.6,0.5-1.4,0.9-2.3,1.2c-0.9,0.3-1.8,0.4-2.8,0.4c-0.4,0-0.7,0-1-0.1c-0.3,0-0.7-0.1-1-0.1c-0.6,0.3-0.9,0.7-0.9,1.2
	c0,0.4,0.2,0.6,0.5,0.8c0.3,0.2,0.8,0.3,1.4,0.4c0.6,0.1,1.2,0.1,1.9,0.1c0.7,0,1.5,0,2.2,0.1c0.8,0.1,1.5,0.2,2.2,0.3
	c0.7,0.1,1.4,0.4,1.9,0.7c0.6,0.3,1,0.8,1.3,1.3c0.3,0.6,0.5,1.3,0.5,2.1c0,0.8-0.2,1.6-0.6,2.4c-0.4,0.8-1,1.5-1.7,2.1
	c-0.8,0.6-1.7,1.1-2.8,1.4c-1.1,0.4-2.4,0.6-3.8,0.6c-1.4,0-2.6-0.1-3.6-0.4c-1-0.3-1.9-0.6-2.6-1.1c-0.7-0.4-1.2-1-1.5-1.5
	c-0.3-0.6-0.5-1.2-0.5-1.8c0-0.9,0.3-1.6,0.8-2.2c0.5-0.6,1.2-1.1,2.2-1.4c-0.5-0.3-0.9-0.6-1.2-1s-0.4-1-0.4-1.7
	c0-0.3,0-0.6,0.1-0.8c0.1-0.3,0.3-0.6,0.4-0.9c0.2-0.3,0.5-0.6,0.8-0.8c0.3-0.3,0.7-0.5,1.1-0.7c-0.9-0.5-1.7-1.2-2.2-2
	c-0.5-0.8-0.8-1.8-0.8-3c0-0.9,0.2-1.7,0.5-2.5c0.4-0.7,0.9-1.4,1.5-1.9c0.7-0.5,1.4-0.9,2.3-1.2c0.9-0.3,1.9-0.4,2.9-0.4
	c0.8,0,1.5,0.1,2.2,0.3c0.7,0.2,1.3,0.4,1.9,0.7H60.8z"/>
<path d="M71.8,9.5V28h-4.5V9.5H71.8z M72.4,4.1c0,0.4-0.1,0.7-0.2,1.1s-0.4,0.6-0.6,0.9c-0.3,0.3-0.6,0.5-0.9,0.6
	c-0.3,0.1-0.7,0.2-1.1,0.2c-0.4,0-0.8-0.1-1.1-0.2c-0.3-0.2-0.6-0.4-0.9-0.6S67.1,5.6,67,5.2c-0.1-0.3-0.2-0.7-0.2-1.1
	c0-0.4,0.1-0.8,0.2-1.1c0.2-0.3,0.4-0.6,0.6-0.9s0.5-0.5,0.9-0.6c0.3-0.2,0.7-0.2,1.1-0.2c0.4,0,0.8,0.1,1.1,0.2
	c0.3,0.1,0.6,0.3,0.9,0.6c0.3,0.3,0.5,0.6,0.6,0.9S72.4,3.8,72.4,4.1z"/>
<path d="M86.1,28.3c-1.6,0-2.8-0.5-3.7-1.4c-0.9-0.9-1.3-2.2-1.3-3.8V12.9h-1.9c-0.2,0-0.4-0.1-0.6-0.2s-0.3-0.4-0.3-0.7v-1.8l3-0.5
	l0.9-5c0.1-0.2,0.2-0.4,0.3-0.6c0.2-0.1,0.4-0.2,0.6-0.2h2.3v5.8h4.9v3.2h-4.9v10c0,0.6,0.1,1,0.4,1.3c0.3,0.3,0.7,0.5,1.2,0.5
	c0.3,0,0.5,0,0.7-0.1c0.2-0.1,0.4-0.1,0.5-0.2c0.1-0.1,0.3-0.1,0.4-0.2c0.1-0.1,0.2-0.1,0.3-0.1c0.1,0,0.2,0,0.3,0.1
	c0.1,0.1,0.2,0.2,0.3,0.3l1.3,2.2c-0.6,0.5-1.4,0.9-2.2,1.2C87.9,28.1,87,28.3,86.1,28.3z"/>
<path d="M106.7,20.1c-1.3,0.1-2.4,0.2-3.2,0.3c-0.9,0.2-1.6,0.4-2.1,0.6c-0.5,0.3-0.9,0.5-1.1,0.9c-0.2,0.3-0.3,0.7-0.3,1.1
	c0,0.8,0.2,1.3,0.7,1.7c0.5,0.3,1.1,0.5,1.8,0.5c0.9,0,1.7-0.2,2.4-0.5c0.7-0.3,1.3-0.8,2-1.5V20.1z M96.5,12.1
	c2.1-1.9,4.7-2.9,7.7-2.9c1.1,0,2,0.2,2.9,0.5c0.9,0.3,1.6,0.8,2.2,1.5c0.6,0.6,1,1.4,1.3,2.2c0.3,0.9,0.5,1.8,0.5,2.9V28h-2
	c-0.4,0-0.7-0.1-1-0.2c-0.2-0.1-0.4-0.4-0.5-0.8l-0.4-1.3c-0.5,0.4-0.9,0.8-1.4,1.1c-0.4,0.3-0.9,0.6-1.4,0.8
	c-0.5,0.2-1,0.4-1.5,0.5c-0.5,0.1-1.1,0.2-1.8,0.2c-0.8,0-1.5-0.1-2.2-0.3c-0.7-0.2-1.2-0.5-1.7-1c-0.5-0.4-0.9-0.9-1.1-1.6
	s-0.4-1.4-0.4-2.2c0-0.5,0.1-0.9,0.2-1.4c0.2-0.5,0.4-0.9,0.8-1.3c0.4-0.4,0.8-0.8,1.4-1.2c0.6-0.4,1.3-0.7,2.1-1
	c0.8-0.3,1.8-0.5,2.9-0.7c1.1-0.2,2.3-0.3,3.7-0.3v-1.1c0-1.2-0.3-2.1-0.8-2.7c-0.5-0.6-1.3-0.9-2.3-0.9c-0.7,0-1.3,0.1-1.8,0.3
	c-0.5,0.2-0.9,0.4-1.2,0.6c-0.4,0.2-0.7,0.4-1,0.6c-0.3,0.2-0.6,0.3-1,0.3c-0.3,0-0.6-0.1-0.8-0.2c-0.2-0.2-0.4-0.4-0.5-0.6
	L96.5,12.1z"/>
<path d="M123.3,1.3V28h-4.4V1.3H123.3z"/>
<path d="M172.7,2v26h-4.3V11.2c0-0.7,0-1.4,0.1-2.2l-7.9,14.8c-0.4,0.7-0.9,1.1-1.7,1.1h-0.7c-0.8,0-1.3-0.4-1.7-1.1l-8-14.8
	c0,0.4,0.1,0.8,0.1,1.2c0,0.4,0,0.7,0,1.1V28h-4.3V2h3.7c0.2,0,0.4,0,0.6,0c0.2,0,0.3,0,0.4,0.1c0.1,0,0.2,0.1,0.3,0.2
	c0.1,0.1,0.2,0.3,0.3,0.4l7.8,14.5c0.2,0.4,0.4,0.8,0.6,1.2c0.2,0.4,0.4,0.8,0.5,1.3c0.2-0.4,0.3-0.9,0.5-1.3
	c0.2-0.4,0.4-0.8,0.6-1.2l7.7-14.4c0.1-0.2,0.2-0.3,0.3-0.4s0.2-0.2,0.3-0.2c0.1,0,0.3-0.1,0.4-0.1c0.2,0,0.3,0,0.6,0H172.7z"/>
<path d="M196.9,9.5V28h-2.7c-0.6,0-1-0.3-1.1-0.8l-0.3-1.5c-0.8,0.8-1.6,1.4-2.5,1.9c-0.9,0.5-2,0.7-3.2,0.7c-1,0-1.9-0.2-2.7-0.5
	c-0.8-0.3-1.4-0.8-1.9-1.5s-0.9-1.4-1.2-2.2c-0.3-0.9-0.4-1.8-0.4-2.8V9.5h4.4v11.7c0,1.1,0.3,2,0.8,2.6c0.5,0.6,1.3,0.9,2.4,0.9
	c0.8,0,1.5-0.2,2.2-0.5c0.7-0.3,1.3-0.8,1.9-1.4V9.5H196.9z"/>
<path d="M216.2,13.1c-0.1,0.2-0.2,0.3-0.4,0.4c-0.1,0.1-0.3,0.1-0.5,0.1c-0.2,0-0.4-0.1-0.7-0.2c-0.2-0.1-0.5-0.3-0.8-0.4
	c-0.3-0.2-0.7-0.3-1.1-0.4c-0.4-0.1-0.9-0.2-1.5-0.2c-0.9,0-1.6,0.2-2.1,0.6c-0.5,0.4-0.7,0.9-0.7,1.5c0,0.4,0.1,0.7,0.4,1
	c0.3,0.3,0.6,0.5,1,0.7c0.4,0.2,0.9,0.4,1.5,0.6c0.5,0.2,1.1,0.3,1.6,0.5c0.6,0.2,1.1,0.4,1.7,0.7c0.5,0.2,1,0.6,1.4,0.9
	c0.4,0.4,0.8,0.8,1,1.4c0.3,0.5,0.4,1.2,0.4,1.9c0,0.9-0.2,1.7-0.5,2.5c-0.3,0.7-0.8,1.4-1.4,1.9c-0.6,0.5-1.4,1-2.3,1.3
	c-0.9,0.3-2,0.5-3.2,0.5c-0.6,0-1.3-0.1-1.9-0.2c-0.6-0.1-1.2-0.3-1.7-0.5c-0.6-0.2-1.1-0.4-1.5-0.7c-0.5-0.3-0.9-0.6-1.2-0.9l1-1.7
	c0.1-0.2,0.3-0.4,0.5-0.5c0.2-0.1,0.4-0.2,0.7-0.2c0.3,0,0.5,0.1,0.8,0.2c0.3,0.2,0.5,0.3,0.9,0.5c0.3,0.2,0.7,0.3,1.1,0.5
	c0.4,0.2,1,0.2,1.7,0.2c0.5,0,1-0.1,1.4-0.2c0.4-0.1,0.7-0.3,0.9-0.5c0.3-0.2,0.4-0.4,0.5-0.7c0.1-0.3,0.2-0.6,0.2-0.8
	c0-0.4-0.1-0.8-0.4-1.1c-0.3-0.3-0.6-0.5-1-0.7c-0.4-0.2-0.9-0.4-1.5-0.5c-0.5-0.2-1.1-0.3-1.7-0.5c-0.6-0.2-1.1-0.4-1.7-0.7
	c-0.5-0.3-1-0.6-1.5-1c-0.4-0.4-0.8-0.9-1-1.5c-0.3-0.6-0.4-1.3-0.4-2.1c0-0.8,0.2-1.5,0.5-2.2c0.3-0.7,0.7-1.3,1.3-1.8
	c0.6-0.5,1.3-0.9,2.2-1.2c0.9-0.3,1.9-0.5,3-0.5c1.3,0,2.4,0.2,3.5,0.6c1,0.4,1.9,1,2.6,1.7L216.2,13.1z"/>
<path d="M229,9.5V28h-4.5V9.5H229z M229.6,4.1c0,0.4-0.1,0.7-0.2,1.1c-0.2,0.3-0.4,0.6-0.6,0.9c-0.3,0.3-0.6,0.5-0.9,0.6
	c-0.3,0.1-0.7,0.2-1.1,0.2c-0.4,0-0.8-0.1-1.1-0.2c-0.3-0.2-0.6-0.4-0.9-0.6s-0.5-0.5-0.6-0.9c-0.1-0.3-0.2-0.7-0.2-1.1
	c0-0.4,0.1-0.8,0.2-1.1c0.2-0.3,0.4-0.6,0.6-0.9s0.5-0.5,0.9-0.6c0.3-0.2,0.7-0.2,1.1-0.2c0.4,0,0.8,0.1,1.1,0.2
	c0.3,0.1,0.6,0.3,0.9,0.6c0.3,0.3,0.5,0.6,0.6,0.9C229.5,3.4,229.6,3.8,229.6,4.1z"/>
<path d="M250.3,13.4c-0.1,0.2-0.3,0.3-0.4,0.4c-0.1,0.1-0.3,0.1-0.5,0.1c-0.2,0-0.4-0.1-0.7-0.2c-0.2-0.1-0.5-0.3-0.8-0.5
	c-0.3-0.2-0.7-0.3-1.1-0.5c-0.4-0.1-0.9-0.2-1.5-0.2c-0.8,0-1.5,0.1-2.1,0.4c-0.6,0.3-1.1,0.7-1.5,1.2c-0.4,0.5-0.7,1.2-0.9,1.9
	c-0.2,0.7-0.3,1.6-0.3,2.5c0,1,0.1,1.9,0.3,2.6c0.2,0.8,0.5,1.4,0.9,1.9c0.4,0.5,0.9,0.9,1.4,1.2c0.6,0.3,1.2,0.4,1.9,0.4
	c0.7,0,1.3-0.1,1.7-0.3c0.4-0.2,0.8-0.4,1.1-0.6c0.3-0.2,0.6-0.4,0.8-0.6c0.2-0.2,0.5-0.3,0.8-0.3c0.4,0,0.6,0.1,0.8,0.4l1.3,1.6
	c-0.5,0.6-1,1.1-1.6,1.5c-0.6,0.4-1.2,0.7-1.8,0.9c-0.6,0.2-1.2,0.4-1.9,0.5c-0.6,0.1-1.3,0.1-1.9,0.1c-1.1,0-2.2-0.2-3.2-0.6
	c-1-0.4-1.9-1.1-2.6-1.9s-1.4-1.8-1.8-3c-0.4-1.2-0.6-2.5-0.6-4.1c0-1.4,0.2-2.6,0.6-3.8c0.4-1.2,1-2.2,1.7-3c0.8-0.9,1.7-1.5,2.8-2
	c1.1-0.5,2.4-0.7,3.9-0.7c1.4,0,2.6,0.2,3.6,0.7c1,0.4,2,1.1,2.8,1.9L250.3,13.4z"/>
<path class="st0" d="M0.9,29V1h10.9c2.1,0,4,0.3,5.8,1c1.7,0.7,3.2,1.6,4.5,2.9c1.3,1.2,2.2,2.7,2.9,4.4c0.7,1.7,1,3.6,1,5.6
	c0,2-0.3,3.9-1,5.6c-0.7,1.7-1.7,3.2-2.9,4.5c-1.3,1.3-2.8,2.2-4.5,2.9c-1.8,0.7-3.7,1-5.8,1H0.9z M21.4,5.6c-1.2-1.2-2.5-2-4.2-2.7
	c-1.6-0.6-3.4-1-5.4-1H1.9v26h9.9c2,0,3.8-0.3,5.4-1s3-1.5,4.2-2.7c1.2-1.2,2-2.5,2.7-4.1c0.6-1.6,1-3.3,1-5.3s-0.3-3.7-1-5.3
	C23.4,8.1,22.5,6.8,21.4,5.6z M18.5,11.5c-0.3-1-0.8-1.9-1.4-2.5l0,0l0,0c-0.6-0.7-1.3-1.2-2.2-1.6l0,0C14,7,13,6.8,11.8,6.8H7.8
	v16.3h4.1c1.2,0,2.2-0.2,3-0.6l0,0c0.9-0.4,1.6-0.9,2.2-1.5c0.6-0.7,1.1-1.5,1.4-2.5l0,0c0.3-1,0.5-2.2,0.5-3.5
	C19,13.6,18.9,12.5,18.5,11.5L18.5,11.5z M6.8,24.1V5.8h5.1c1.3,0,2.4,0.2,3.4,0.6c1,0.4,1.9,1,2.6,1.8c0.7,0.8,1.3,1.7,1.6,2.9
	c0.4,1.1,0.6,2.4,0.6,3.8s-0.2,2.7-0.6,3.9c-0.4,1.1-0.9,2.1-1.6,2.9c-0.7,0.8-1.6,1.4-2.6,1.8c-1,0.4-2.1,0.6-3.4,0.6H6.8z
	 M37.5,8.5V29H31V8.5H37.5z M35.7,7.6L35.7,7.6c-0.5,0.2-1,0.3-1.5,0.3c-0.5,0-1-0.1-1.5-0.3l0,0l0,0c-0.4-0.2-0.8-0.5-1.2-0.8
	c-0.3-0.3-0.6-0.7-0.8-1.2l0,0l0,0c-0.2-0.5-0.3-1-0.3-1.5c0-0.5,0.1-1,0.3-1.5l0,0l0,0c0.2-0.5,0.5-0.9,0.8-1.2
	c0.3-0.3,0.7-0.6,1.2-0.8c0.5-0.2,1-0.3,1.5-0.3c0.5,0,1,0.1,1.5,0.3c0.5,0.2,0.9,0.5,1.2,0.8c0.4,0.3,0.6,0.7,0.8,1.2
	c0.2,0.5,0.3,1,0.3,1.5c0,0.5-0.1,1-0.3,1.5c-0.2,0.4-0.5,0.8-0.8,1.2C36.6,7.2,36.2,7.4,35.7,7.6L35.7,7.6z M36.2,6.1
	c0.3-0.3,0.5-0.5,0.6-0.9c0.2-0.3,0.2-0.7,0.2-1.1c0-0.4-0.1-0.8-0.2-1.1c-0.2-0.3-0.4-0.6-0.6-0.9c-0.3-0.3-0.6-0.5-0.9-0.6
	c-0.3-0.2-0.7-0.2-1.1-0.2c-0.4,0-0.8,0.1-1.1,0.2c-0.3,0.1-0.6,0.3-0.9,0.6S31.8,2.7,31.6,3c-0.1,0.3-0.2,0.7-0.2,1.1
	c0,0.4,0.1,0.7,0.2,1.1c0.2,0.3,0.4,0.6,0.6,0.9s0.5,0.5,0.9,0.6c0.3,0.1,0.7,0.2,1.1,0.2c0.4,0,0.8-0.1,1.1-0.2
	C35.7,6.6,36,6.4,36.2,6.1z M53.1,16.8L53.1,16.8c0.2-0.2,0.3-0.3,0.4-0.6l0,0l0,0c0.1-0.2,0.1-0.5,0.1-0.9c0-0.7-0.2-1.1-0.5-1.4
	l0,0l0,0c-0.3-0.3-0.8-0.5-1.7-0.5c-0.9,0-1.5,0.2-1.8,0.5c-0.3,0.3-0.5,0.7-0.5,1.4c0,0.3,0,0.6,0.1,0.9c0.1,0.2,0.2,0.4,0.4,0.6
	c0.2,0.2,0.4,0.3,0.7,0.4c0.3,0.1,0.7,0.2,1.1,0.2c0.5,0,0.8-0.1,1.1-0.2C52.7,17,53,16.9,53.1,16.8L53.1,16.8z M52.8,18.1
	c-0.4,0.1-0.9,0.2-1.4,0.2c-0.5,0-1-0.1-1.4-0.2c-0.4-0.2-0.8-0.4-1-0.6c-0.3-0.3-0.5-0.6-0.6-1c-0.1-0.4-0.2-0.8-0.2-1.2
	c0-0.9,0.3-1.6,0.8-2.2c0.6-0.5,1.4-0.8,2.5-0.8s1.9,0.3,2.4,0.8c0.6,0.5,0.8,1.2,0.8,2.2c0,0.4-0.1,0.9-0.2,1.2
	c-0.1,0.4-0.3,0.7-0.6,1C53.5,17.7,53.2,17.9,52.8,18.1z M54.9,28.4L54.9,28.4c-0.3-0.1-0.7-0.2-1.1-0.2l0,0c-0.5-0.1-1-0.1-1.5-0.1
	l0,0l0,0c-0.5,0-1.1-0.1-1.7-0.1c-0.5,0-1-0.1-1.5-0.1c-0.3,0.2-0.5,0.4-0.7,0.6c-0.1,0.2-0.2,0.4-0.2,0.7c0,0.2,0,0.3,0.1,0.4
	c0.1,0.1,0.2,0.2,0.4,0.4c0.2,0.1,0.6,0.3,1.1,0.4l0,0l0,0c0.5,0.1,1.1,0.2,1.9,0.2c0.8,0,1.4-0.1,1.9-0.2l0,0l0,0
	c0.5-0.1,0.9-0.2,1.2-0.4l0,0l0,0c0.3-0.1,0.4-0.3,0.5-0.4l0,0l0,0c0.1-0.1,0.1-0.3,0.1-0.5c0-0.1,0-0.2,0-0.2l0,0
	C55.3,28.6,55.1,28.5,54.9,28.4L54.9,28.4z M48.2,30.7c-0.3-0.2-0.6-0.4-0.8-0.7c-0.2-0.3-0.2-0.6-0.2-0.9c0-0.5,0.2-0.9,0.5-1.3
	c0.3-0.4,0.7-0.7,1.2-1c0.6,0.1,1.1,0.1,1.7,0.1c0.6,0,1.2,0.1,1.7,0.1c0.6,0,1.1,0.1,1.6,0.1c0.5,0.1,0.9,0.2,1.3,0.3
	c0.4,0.1,0.7,0.3,0.9,0.5c0.2,0.2,0.3,0.5,0.3,0.9c0,0.4-0.1,0.7-0.3,1c-0.2,0.3-0.5,0.6-0.9,0.8c-0.4,0.2-0.9,0.4-1.5,0.5
	c-0.6,0.1-1.3,0.2-2.1,0.2c-0.8,0-1.5-0.1-2.1-0.2C49,31,48.5,30.9,48.2,30.7z M59.9,12.8l-1.7,0.3c0.1,0.3,0.2,0.6,0.3,1
	c0.1,0.4,0.1,0.7,0.1,1.1c0,0.9-0.2,1.7-0.6,2.5c-0.4,0.7-0.9,1.4-1.5,1.9c-0.6,0.5-1.4,0.9-2.3,1.2c-0.9,0.3-1.8,0.4-2.8,0.4
	c-0.4,0-0.7,0-1-0.1c-0.3,0-0.7-0.1-1-0.1c-0.6,0.3-0.9,0.7-0.9,1.2c0,0.4,0.2,0.6,0.5,0.8c0.3,0.2,0.8,0.3,1.4,0.4
	c0.6,0.1,1.2,0.1,1.9,0.1c0.7,0,1.5,0,2.2,0.1c0.8,0.1,1.5,0.2,2.2,0.3c0.7,0.1,1.4,0.4,1.9,0.7c0.6,0.3,1,0.8,1.3,1.3
	c0.3,0.6,0.5,1.3,0.5,2.1c0,0.8-0.2,1.6-0.6,2.4c-0.4,0.8-1,1.5-1.7,2.1c-0.8,0.6-1.7,1.1-2.8,1.4c-1.1,0.4-2.4,0.6-3.8,0.6
	c-1.4,0-2.6-0.1-3.6-0.4c-1-0.3-1.9-0.6-2.6-1.1c-0.7-0.4-1.2-1-1.5-1.5c-0.3-0.6-0.5-1.2-0.5-1.8c0-0.9,0.3-1.6,0.8-2.2
	c0.3-0.3,0.7-0.6,1.1-0.9c0.3-0.2,0.7-0.4,1.1-0.5c-0.4-0.2-0.7-0.4-0.9-0.7c-0.1-0.1-0.2-0.2-0.2-0.3c-0.3-0.4-0.4-1-0.4-1.7
	c0-0.3,0-0.6,0.1-0.8c0.1-0.3,0.3-0.6,0.4-0.9c0.2-0.3,0.5-0.6,0.8-0.8c0,0,0.1-0.1,0.1-0.1c0.3-0.2,0.6-0.4,0.9-0.6
	c-0.3-0.2-0.7-0.4-0.9-0.6c-0.5-0.4-0.9-0.9-1.3-1.4c-0.5-0.8-0.8-1.8-0.8-3c0-0.9,0.2-1.7,0.5-2.5c0.4-0.7,0.9-1.4,1.5-1.9
	c0.7-0.5,1.4-0.9,2.3-1.2c0.9-0.3,1.9-0.4,2.9-0.4c0.8,0,1.5,0.1,2.2,0.3c0.7,0.2,1.3,0.4,1.9,0.7h5.3v1.7
	C60.8,12.3,60.5,12.7,59.9,12.8z M55.7,9.2c-0.6-0.3-1.2-0.5-1.9-0.7c-0.8-0.2-1.6-0.3-2.5-0.3c-1.1,0-2.2,0.1-3.2,0.5l0,0
	c-1,0.3-1.9,0.8-2.6,1.4c-0.8,0.6-1.4,1.4-1.8,2.2l0,0c-0.4,0.9-0.6,1.9-0.6,2.9c0,1.3,0.3,2.5,0.9,3.5l0,0c0.4,0.6,0.8,1,1.3,1.5
	c-0.3,0.3-0.6,0.6-0.9,0.9l0,0l0,0c-0.2,0.3-0.4,0.7-0.6,1.1l0,0l0,0c-0.1,0.4-0.2,0.8-0.2,1.2c0,0.8,0.2,1.6,0.6,2.2
	c0.1,0.1,0.1,0.2,0.2,0.2c-0.4,0.3-0.8,0.6-1.1,0.9l0,0c-0.7,0.8-1,1.7-1,2.8c0,0.8,0.2,1.6,0.6,2.3c0.4,0.8,1.1,1.4,1.8,1.9
	c0.8,0.5,1.8,0.9,2.9,1.2c1.1,0.3,2.4,0.4,3.9,0.4c1.5,0,2.9-0.2,4.1-0.6c1.2-0.4,2.2-0.9,3.1-1.6c0.9-0.7,1.5-1.5,2-2.4
	c0.5-0.9,0.7-1.9,0.7-2.8c0-1-0.2-1.9-0.7-2.7c-0.4-0.7-1-1.3-1.7-1.7c-0.7-0.4-1.4-0.7-2.2-0.8c-0.8-0.2-1.5-0.3-2.3-0.3
	c-0.8-0.1-1.5-0.1-2.3-0.1c-0.7,0-1.3-0.1-1.8-0.1c-0.4-0.1-0.8-0.1-1-0.2c0,0,0,0,0.1-0.1c0.2,0,0.4,0.1,0.6,0.1
	c0.4,0,0.8,0.1,1.2,0.1c1.1,0,2.2-0.2,3.1-0.5l0,0c1-0.3,1.9-0.8,2.6-1.4c0.8-0.6,1.4-1.3,1.8-2.2c0.4-0.9,0.7-1.9,0.7-2.9
	c0-0.4,0-0.9-0.1-1.3l0.6-0.1l0,0c0.4-0.1,0.9-0.3,1.2-0.6c0.4-0.4,0.5-0.9,0.5-1.3V9.2H55.7z M72.8,8.5V29h-6.5V8.5H72.8z
	 M71.1,7.6L71.1,7.6c-0.5,0.2-1,0.3-1.5,0.3c-0.5,0-1-0.1-1.5-0.3l0,0l0,0c-0.4-0.2-0.8-0.5-1.2-0.8c-0.3-0.3-0.6-0.7-0.8-1.2l0,0
	l0,0c-0.2-0.5-0.3-1-0.3-1.5c0-0.5,0.1-1,0.3-1.5l0,0l0,0c0.2-0.5,0.5-0.9,0.8-1.2c0.3-0.3,0.7-0.6,1.2-0.8c0.5-0.2,1-0.3,1.5-0.3
	c0.5,0,1,0.1,1.5,0.3c0.5,0.2,0.9,0.5,1.2,0.8c0.4,0.3,0.6,0.7,0.8,1.2c0.2,0.5,0.3,1,0.3,1.5c0,0.5-0.1,1-0.3,1.5
	c-0.2,0.4-0.5,0.8-0.8,1.2C71.9,7.2,71.5,7.4,71.1,7.6L71.1,7.6z M71.6,6.1c0.3-0.3,0.5-0.5,0.6-0.9s0.2-0.7,0.2-1.1
	c0-0.4-0.1-0.8-0.2-1.1s-0.4-0.6-0.6-0.9c-0.3-0.3-0.6-0.5-0.9-0.6c-0.3-0.2-0.7-0.2-1.1-0.2c-0.4,0-0.8,0.1-1.1,0.2
	c-0.3,0.1-0.6,0.3-0.9,0.6S67.1,2.7,67,3c-0.1,0.3-0.2,0.7-0.2,1.1c0,0.4,0.1,0.7,0.2,1.1c0.2,0.3,0.4,0.6,0.6,0.9s0.5,0.5,0.9,0.6
	c0.3,0.1,0.7,0.2,1.1,0.2c0.4,0,0.8-0.1,1.1-0.2C71,6.6,71.3,6.4,71.6,6.1z M81.7,27.6c-1.1-1.1-1.5-2.7-1.5-4.4v-9.3h-0.9
	c-0.5,0-0.9-0.2-1.3-0.5c-0.4-0.4-0.6-0.9-0.6-1.4V9.3l3.1-0.5l0.8-4.4l0,0C81.4,4,81.6,3.6,82,3.3c0.4-0.3,0.8-0.4,1.3-0.4h3.3v5.8
	h4.9v5.2h-4.9v9c0,0.4,0.1,0.6,0.2,0.7c0.1,0.1,0.2,0.1,0.4,0.1c0.2,0,0.3,0,0.4,0c0.2-0.1,0.3-0.1,0.3-0.1l0,0l0,0
	c0.1-0.1,0.2-0.1,0.3-0.2c0.2-0.1,0.5-0.2,0.8-0.2c0.3,0,0.6,0.1,0.9,0.3c0.2,0.1,0.3,0.3,0.5,0.5l0,0l1.8,2.9l-0.7,0.6
	C90.9,28,90,28.5,89,28.8c-0.9,0.3-1.9,0.5-2.9,0.5C84.3,29.3,82.8,28.8,81.7,27.6L81.7,27.6z M89.4,24.2c-0.1-0.1-0.2-0.1-0.3-0.1
	c-0.1,0-0.2,0-0.3,0.1c-0.1,0.1-0.2,0.1-0.4,0.2c-0.1,0.1-0.3,0.1-0.5,0.2c-0.2,0.1-0.4,0.1-0.7,0.1c-0.5,0-0.9-0.2-1.2-0.5
	c-0.3-0.3-0.4-0.8-0.4-1.3v-10h4.9V9.7h-4.9V3.9h-2.3c-0.3,0-0.5,0.1-0.6,0.2c-0.2,0.1-0.3,0.3-0.3,0.6l-0.9,5l-3,0.5v1.8
	c0,0.3,0.1,0.5,0.3,0.7s0.4,0.2,0.6,0.2h1.9v10.3c0,1.6,0.4,2.8,1.3,3.8c0.9,0.9,2.1,1.4,3.7,1.4c0.9,0,1.8-0.1,2.6-0.4
	c0.8-0.3,1.6-0.7,2.2-1.2l-1.3-2.2C89.5,24.4,89.4,24.3,89.4,24.2z M103.7,21.4c-0.8,0.1-1.4,0.3-1.9,0.5c-0.4,0.2-0.6,0.4-0.7,0.5
	c-0.1,0.2-0.2,0.3-0.2,0.5c0,0.6,0.2,0.8,0.3,0.9c0.3,0.2,0.6,0.3,1.2,0.3c0.8,0,1.4-0.1,1.9-0.4c0.5-0.2,0.9-0.6,1.4-1v-1.6
	C104.9,21.2,104.2,21.3,103.7,21.4L103.7,21.4z M105.7,20.2c-0.9,0.1-1.6,0.2-2.2,0.3c-0.9,0.2-1.6,0.4-2.1,0.6
	c-0.5,0.3-0.9,0.5-1.1,0.9c-0.2,0.3-0.3,0.7-0.3,1.1c0,0.8,0.2,1.3,0.7,1.7c0.5,0.3,1.1,0.5,1.8,0.5c0.9,0,1.7-0.2,2.4-0.5
	c0.7-0.3,1.3-0.8,2-1.5v-3.1C106.4,20.1,106,20.2,105.7,20.2z M95.3,11.9l0.6-0.5c2.3-2.1,5.1-3.2,8.3-3.2c1.2,0,2.3,0.2,3.3,0.6
	c1,0.4,1.8,1,2.5,1.7c0.7,0.7,1.2,1.6,1.5,2.6c0.4,1,0.5,2.1,0.5,3.2V29h-3c-0.5,0-1-0.1-1.4-0.3l0,0l0,0c-0.5-0.3-0.8-0.8-1-1.2
	c-0.1,0.1-0.2,0.1-0.3,0.2l0,0l0,0c-0.5,0.3-1,0.6-1.6,0.9c-0.6,0.2-1.1,0.4-1.8,0.6c-0.6,0.1-1.3,0.2-2,0.2c-0.9,0-1.7-0.1-2.5-0.4
	l0,0l0,0c-0.8-0.3-1.5-0.6-2.1-1.2c-0.6-0.5-1.1-1.2-1.4-1.9c-0.3-0.8-0.5-1.6-0.5-2.6c0-0.6,0.1-1.2,0.3-1.7
	c0.2-0.6,0.5-1.1,0.9-1.6l0,0l0,0c0.4-0.5,1-1,1.6-1.4c0.7-0.4,1.4-0.8,2.3-1.1l0,0c0.9-0.3,1.9-0.5,3-0.7c0.9-0.1,1.8-0.2,2.9-0.3
	v-0.1c0-1.1-0.2-1.7-0.5-2.1l0,0c-0.3-0.3-0.8-0.6-1.5-0.6c-0.6,0-1.1,0.1-1.5,0.2c-0.4,0.1-0.8,0.3-1.1,0.5l0,0l0,0
	c-0.4,0.2-0.7,0.4-1,0.6c-0.5,0.3-0.9,0.4-1.5,0.4c-0.5,0-1-0.1-1.4-0.4l0,0l0,0c-0.3-0.2-0.6-0.5-0.8-0.8l0,0L95.3,11.9z
	 M99.6,14.1c0.3-0.2,0.6-0.4,1-0.6c0.4-0.2,0.8-0.4,1.2-0.6c0.5-0.2,1.1-0.3,1.8-0.3c1,0,1.8,0.3,2.3,0.9c0.5,0.6,0.8,1.5,0.8,2.7
	v1.1c-1.4,0-2.7,0.1-3.7,0.3c-1.1,0.2-2.1,0.4-2.9,0.7c-0.8,0.3-1.5,0.6-2.1,1c-0.6,0.4-1,0.8-1.4,1.2c-0.3,0.4-0.6,0.9-0.8,1.3
	c-0.2,0.5-0.2,0.9-0.2,1.4c0,0.8,0.1,1.6,0.4,2.2s0.6,1.1,1.1,1.6c0.5,0.4,1.1,0.7,1.7,1c0.7,0.2,1.4,0.3,2.2,0.3
	c0.7,0,1.3-0.1,1.8-0.2c0.6-0.1,1.1-0.3,1.5-0.5c0.5-0.2,0.9-0.5,1.4-0.8c0.2-0.1,0.4-0.3,0.5-0.4c0.3-0.2,0.6-0.5,0.8-0.7l0.4,1.3
	c0.1,0.4,0.3,0.6,0.5,0.8c0.2,0.1,0.6,0.2,1,0.2h2V16.3c0-1-0.2-2-0.5-2.9c-0.3-0.9-0.7-1.6-1.3-2.2c-0.6-0.6-1.3-1.1-2.2-1.5
	c-0.9-0.4-1.8-0.5-2.9-0.5c-3,0-5.5,1-7.7,2.9l0.8,1.4c0.1,0.2,0.3,0.4,0.5,0.6c0.2,0.2,0.5,0.2,0.8,0.2
	C99,14.3,99.3,14.3,99.6,14.1z M124.3,0.3V29h-6.4V0.3H124.3z M173.7,1v28h-6.3V13.2l-5.9,11c0,0,0,0,0,0c-0.3,0.5-0.6,0.9-1.1,1.2
	c-0.5,0.3-1,0.4-1.5,0.4h-0.7c-0.5,0-1.1-0.1-1.5-0.4c-0.5-0.3-0.8-0.7-1.1-1.2c0,0,0,0,0,0l-5.9-11.1V29h-6.3V1h4.7
	c0.2,0,0.4,0,0.6,0c0.2,0,0.5,0.1,0.7,0.2c0.3,0.1,0.5,0.3,0.7,0.5c0.2,0.2,0.3,0.4,0.5,0.6c0,0,0,0,0,0l7.8,14.5
	c0.1,0.1,0.1,0.3,0.2,0.4c0.1-0.1,0.1-0.3,0.2-0.4l0,0l7.7-14.4c0.1-0.2,0.3-0.5,0.5-0.7c0.2-0.2,0.4-0.3,0.7-0.5l0,0l0,0
	c0.2-0.1,0.5-0.1,0.7-0.1c0.2,0,0.4,0,0.6,0H173.7z M158,18.3c-0.2-0.4-0.3-0.8-0.5-1.1l-7.8-14.5c-0.1-0.2-0.2-0.3-0.3-0.4
	c-0.1-0.1-0.2-0.2-0.3-0.2c-0.1,0-0.3-0.1-0.4-0.1c-0.2,0-0.3,0-0.6,0h-3.7v26h4.3V11.2c0-0.3,0-0.7,0-1.1c0-0.4-0.1-0.8-0.1-1.2
	l8,14.8c0.4,0.7,0.9,1.1,1.7,1.1h0.7c0.8,0,1.3-0.4,1.7-1.1L168.5,9c-0.1,0.8-0.1,1.5-0.1,2.2V28h4.3V2H169c-0.2,0-0.4,0-0.6,0
	c-0.2,0-0.3,0-0.4,0.1c-0.1,0-0.2,0.1-0.3,0.2s-0.2,0.3-0.3,0.4l-7.7,14.4c-0.2,0.4-0.4,0.8-0.6,1.2c0,0,0,0,0,0
	c-0.2,0.4-0.4,0.8-0.5,1.3C158.4,19.2,158.2,18.8,158,18.3C158,18.4,158,18.3,158,18.3z M197.9,8.5V29h-3.7c-0.4,0-0.9-0.1-1.3-0.4
	c-0.4-0.3-0.6-0.6-0.7-1c-0.5,0.3-0.9,0.6-1.4,0.9l0,0c-1.1,0.6-2.3,0.8-3.7,0.8c-1.1,0-2.2-0.2-3.1-0.6l0,0l0,0
	c-0.9-0.4-1.7-1-2.3-1.7c-0.6-0.7-1.1-1.6-1.4-2.6l0,0l0,0c-0.3-1-0.4-2-0.4-3.1V8.5h6.4v12.7c0,1,0.2,1.6,0.5,2
	c0.3,0.3,0.8,0.6,1.6,0.6c0.6,0,1.2-0.1,1.7-0.4c0.5-0.2,0.9-0.6,1.4-1V8.5H197.9z M192.5,22.9c-0.6,0.6-1.2,1.1-1.9,1.4
	c-0.7,0.3-1.4,0.5-2.2,0.5c-1,0-1.8-0.3-2.4-0.9c-0.5-0.6-0.8-1.5-0.8-2.6V9.5h-4.4v11.7c0,1,0.1,2,0.4,2.8c0.3,0.9,0.7,1.6,1.2,2.2
	s1.2,1.1,1.9,1.5c0.8,0.3,1.7,0.5,2.7,0.5c1.2,0,2.3-0.2,3.2-0.7c0.6-0.3,1.1-0.7,1.6-1.1c0.3-0.2,0.6-0.5,0.9-0.8l0.3,1.5
	c0.2,0.5,0.5,0.8,1.1,0.8h2.7V9.5h-4.4V22.9z M216.3,14.4L216.3,14.4c-0.4,0.2-0.7,0.2-1,0.2c-0.4,0-0.8-0.1-1.1-0.3l0,0l0,0
	c-0.2-0.1-0.5-0.2-0.8-0.4l0,0l0,0c-0.3-0.1-0.6-0.2-1-0.4l0,0c-0.3-0.1-0.7-0.1-1.2-0.1c-0.7,0-1.2,0.2-1.5,0.4
	c-0.2,0.2-0.3,0.4-0.3,0.7c0,0.2,0,0.2,0.1,0.3c0.2,0.2,0.4,0.3,0.7,0.5c0.4,0.2,0.8,0.3,1.3,0.5c0.6,0.2,1.1,0.3,1.7,0.5
	c0.6,0.2,1.2,0.4,1.7,0.7c0.6,0.3,1.2,0.6,1.7,1.1c0.5,0.5,1,1,1.3,1.7c0.3,0.7,0.5,1.5,0.5,2.3c0,1-0.2,2-0.6,2.9
	c-0.4,0.9-0.9,1.7-1.7,2.3l0,0c-0.7,0.6-1.6,1.1-2.7,1.5l0,0c-1,0.3-2.2,0.5-3.5,0.5c-0.7,0-1.4-0.1-2.1-0.2
	c-0.7-0.1-1.3-0.3-1.9-0.5l0,0c-0.6-0.2-1.2-0.5-1.7-0.8l0,0c-0.5-0.3-1-0.6-1.4-1l-0.6-0.6l1.5-2.4l0,0c0.2-0.3,0.5-0.6,0.8-0.8
	c0.4-0.2,0.8-0.3,1.2-0.3c0.5,0,0.9,0.1,1.3,0.4c0.2,0.1,0.5,0.3,0.8,0.5c0.3,0.1,0.6,0.3,1,0.4c0.3,0.1,0.7,0.2,1.3,0.2
	c0.5,0,0.8-0.1,1-0.1c0.3-0.1,0.5-0.2,0.6-0.3l0,0l0,0c0.1-0.1,0.2-0.2,0.2-0.3l0,0l0,0c0.1-0.2,0.1-0.3,0.1-0.4
	c0-0.2-0.1-0.3-0.1-0.4l0,0l0,0c-0.1-0.2-0.4-0.3-0.7-0.5l0,0c-0.4-0.2-0.8-0.3-1.3-0.5l0,0l0,0c-0.5-0.2-1.1-0.4-1.7-0.5l0,0
	c-0.6-0.2-1.2-0.4-1.8-0.7l0,0l0,0c-0.6-0.3-1.2-0.7-1.7-1.2l0,0c-0.5-0.5-0.9-1.1-1.2-1.8l0,0l0,0c-0.3-0.7-0.5-1.6-0.5-2.5
	c0-0.9,0.2-1.7,0.5-2.6c0.4-0.8,0.9-1.5,1.6-2.1c0.7-0.6,1.5-1.1,2.5-1.4c1-0.4,2.1-0.5,3.4-0.5c1.4,0,2.7,0.2,3.8,0.7
	c1.1,0.5,2.1,1.1,2.9,1.9l0.6,0.6l-1.4,2.3c0,0,0,0,0,0 M217,13.7c-0.2,0.3-0.4,0.5-0.7,0.7l0,0 M208.1,9.7
	c-0.9,0.3-1.6,0.7-2.2,1.2c-0.6,0.5-1,1.1-1.3,1.8c-0.3,0.7-0.5,1.4-0.5,2.2c0,0.8,0.1,1.5,0.4,2.1c0.3,0.6,0.6,1.1,1,1.5
	c0.4,0.4,0.9,0.7,1.5,1c0.6,0.3,1.1,0.5,1.7,0.7c0.6,0.2,1.1,0.4,1.7,0.5c0.6,0.2,1,0.3,1.5,0.5c0.4,0.2,0.8,0.4,1,0.7
	c0.3,0.3,0.4,0.6,0.4,1.1c0,0.3-0.1,0.6-0.2,0.8c-0.1,0.3-0.3,0.5-0.5,0.7c-0.2,0.2-0.6,0.4-0.9,0.5c-0.4,0.1-0.8,0.2-1.4,0.2
	c-0.7,0-1.2-0.1-1.7-0.2c-0.4-0.2-0.8-0.3-1.1-0.5c-0.3-0.2-0.6-0.3-0.9-0.5c-0.2-0.2-0.5-0.2-0.8-0.2c-0.3,0-0.5,0.1-0.7,0.2
	c-0.2,0.1-0.3,0.3-0.5,0.5l-1,1.7c0.4,0.3,0.8,0.6,1.2,0.9c0.5,0.3,1,0.5,1.5,0.7c0.6,0.2,1.1,0.4,1.7,0.5c0.6,0.1,1.2,0.2,1.9,0.2
	c1.2,0,2.3-0.1,3.2-0.5c0.9-0.3,1.7-0.7,2.3-1.3c0.6-0.6,1.1-1.2,1.4-1.9c0.3-0.8,0.5-1.6,0.5-2.5c0-0.7-0.1-1.4-0.4-1.9
	c-0.3-0.5-0.6-1-1-1.4c-0.4-0.4-0.9-0.7-1.4-0.9c-0.5-0.3-1.1-0.5-1.7-0.7c-0.6-0.2-1.1-0.4-1.6-0.5c-0.5-0.2-1-0.4-1.5-0.6
	c-0.4-0.2-0.8-0.4-1-0.7c-0.3-0.3-0.4-0.6-0.4-1c0-0.6,0.2-1.1,0.7-1.5c0.5-0.4,1.2-0.6,2.1-0.6c0.6,0,1.1,0.1,1.5,0.2
	c0.4,0.1,0.8,0.3,1.1,0.4c0.3,0.1,0.6,0.3,0.8,0.4c0.3,0.1,0.5,0.2,0.7,0.2c0.2,0,0.4,0,0.5-0.1c0.1-0.1,0.3-0.2,0.4-0.4l1-1.6
	c-0.7-0.7-1.6-1.2-2.6-1.7c-1-0.4-2.2-0.6-3.5-0.6C210,9.2,209,9.4,208.1,9.7z M230,8.5V29h-6.5V8.5H230z M228.2,7.6L228.2,7.6
	c-0.5,0.2-1,0.3-1.5,0.3c-0.5,0-1-0.1-1.5-0.3l0,0l0,0c-0.4-0.2-0.8-0.5-1.2-0.8s-0.6-0.7-0.8-1.2l0,0l0,0c-0.2-0.5-0.3-1-0.3-1.5
	c0-0.5,0.1-1,0.3-1.5l0,0l0,0c0.2-0.5,0.5-0.9,0.8-1.2c0.3-0.3,0.7-0.6,1.2-0.8c0.5-0.2,1-0.3,1.5-0.3c0.5,0,1,0.1,1.5,0.3
	c0.5,0.2,0.9,0.5,1.2,0.8c0.4,0.3,0.6,0.7,0.8,1.2c0.2,0.5,0.3,1,0.3,1.5c0,0.5-0.1,1-0.3,1.5c-0.2,0.4-0.5,0.8-0.8,1.2
	C229.1,7.2,228.7,7.4,228.2,7.6L228.2,7.6z M228.7,6.1c0.3-0.3,0.5-0.5,0.6-0.9c0.2-0.3,0.2-0.7,0.2-1.1c0-0.4-0.1-0.8-0.2-1.1
	c-0.2-0.3-0.4-0.6-0.6-0.9c-0.3-0.3-0.6-0.5-0.9-0.6c-0.3-0.2-0.7-0.2-1.1-0.2c-0.4,0-0.8,0.1-1.1,0.2c-0.3,0.1-0.6,0.3-0.9,0.6
	s-0.5,0.6-0.6,0.9c-0.1,0.3-0.2,0.7-0.2,1.1c0,0.4,0.1,0.7,0.2,1.1c0.2,0.3,0.4,0.6,0.6,0.9s0.5,0.5,0.9,0.6
	c0.3,0.1,0.7,0.2,1.1,0.2c0.4,0,0.8-0.1,1.1-0.2C228.2,6.6,228.5,6.4,228.7,6.1z M251.1,14L251.1,14c-0.2,0.2-0.4,0.4-0.6,0.6
	c-0.4,0.3-0.8,0.3-1.1,0.3c-0.4,0-0.8-0.1-1.2-0.3l0,0l0,0c-0.2-0.1-0.4-0.3-0.7-0.4l0,0l0,0c-0.2-0.1-0.5-0.3-0.9-0.4l0,0l0,0
	c-0.3-0.1-0.7-0.2-1.2-0.2c-0.7,0-1.2,0.1-1.6,0.3l0,0l0,0c-0.4,0.2-0.8,0.5-1.1,0.9c-0.3,0.4-0.5,0.9-0.7,1.6l0,0
	c-0.2,0.6-0.3,1.4-0.3,2.3c0,0.9,0.1,1.7,0.3,2.4c0.2,0.7,0.4,1.2,0.8,1.6c0.3,0.4,0.7,0.7,1.1,0.9c0.4,0.2,0.9,0.3,1.5,0.3
	c0.6,0,1.1-0.1,1.3-0.2c0.4-0.2,0.7-0.3,0.9-0.5c0.3-0.2,0.5-0.4,0.7-0.5c0.4-0.3,0.9-0.5,1.4-0.5c0.6,0,1.2,0.3,1.6,0.8l1.8,2.2
	l-0.5,0.6c-0.5,0.6-1.1,1.2-1.8,1.6l0,0l0,0c-0.6,0.4-1.3,0.8-2,1l0,0c-0.7,0.3-1.4,0.4-2.1,0.5c-0.7,0.1-1.4,0.2-2.1,0.2
	c-1.3,0-2.5-0.2-3.6-0.7l0,0c-1.1-0.5-2.1-1.2-3-2.1c-0.9-0.9-1.5-2-2-3.3l0,0c-0.5-1.3-0.7-2.8-0.7-4.4c0-1.5,0.2-2.8,0.6-4.1l0,0
	c0.4-1.3,1.1-2.4,1.9-3.3c0.9-1,1.9-1.7,3.2-2.3c1.3-0.5,2.7-0.8,4.2-0.8c1.5,0,2.8,0.2,4,0.7c1.2,0.5,2.2,1.2,3.1,2.1l0.6,0.6
	L251.1,14z M248.7,9.9c-1-0.4-2.2-0.7-3.6-0.7c-1.5,0-2.7,0.2-3.9,0.7c-1.1,0.5-2.1,1.1-2.8,2c-0.8,0.8-1.3,1.8-1.7,3
	c-0.4,1.2-0.6,2.4-0.6,3.8c0,1.5,0.2,2.9,0.6,4.1c0.4,1.2,1,2.2,1.8,3s1.6,1.4,2.6,1.9c1,0.4,2.1,0.6,3.2,0.6c0.6,0,1.3,0,1.9-0.1
	c0.7-0.1,1.3-0.3,1.9-0.5c0.6-0.2,1.2-0.6,1.8-0.9c0.6-0.4,1.1-0.9,1.6-1.5l-1.3-1.6c-0.2-0.3-0.5-0.4-0.8-0.4
	c-0.3,0-0.5,0.1-0.8,0.3c-0.2,0.2-0.5,0.4-0.8,0.6c-0.3,0.2-0.7,0.4-1.1,0.6c-0.4,0.2-1,0.3-1.7,0.3c-0.7,0-1.3-0.1-1.9-0.4
	c-0.6-0.3-1-0.7-1.4-1.2c-0.4-0.5-0.7-1.2-0.9-1.9c-0.2-0.8-0.3-1.6-0.3-2.6c0-0.9,0.1-1.8,0.3-2.5c0.2-0.8,0.5-1.4,0.9-1.9
	c0.4-0.5,0.9-0.9,1.5-1.2c0.6-0.3,1.3-0.4,2.1-0.4c0.6,0,1.1,0.1,1.5,0.2c0.4,0.1,0.8,0.3,1.1,0.5c0.3,0.2,0.6,0.3,0.8,0.5
	c0.2,0.1,0.4,0.2,0.7,0.2c0.2,0,0.4,0,0.5-0.1c0.1-0.1,0.3-0.2,0.4-0.4l1.2-1.6C250.7,11,249.7,10.4,248.7,9.9z M36.5,9.5H32V28h4.5
	V9.5z M71.8,9.5h-4.5V28h4.5V9.5z M123.3,1.3h-4.4V28h4.4V1.3z M229,9.5h-4.5V28h4.5V9.5z"/>
</svg>
