<svg width="84" height="13" viewBox="0 0 84 13" fill="none" xmlns="http://www.w3.org/2000/svg">
<path d="M7.13016 0.0878906L8.73098 4.40102H13.9114L9.72035 7.06668L11.3212 11.3798L7.13016 8.71414L2.93916 11.3798L4.53998 7.06668L0.348975 4.40102H5.52934L7.13016 0.0878906Z" fill="url(#paint0_linear_117_48)"/>
<path d="M24.5594 0.0878906L26.1603 4.40102H31.3406L27.1496 7.06668L28.7504 11.3798L24.5594 8.71414L20.3684 11.3798L21.9693 7.06668L17.7783 4.40102H22.9586L24.5594 0.0878906Z" fill="url(#paint1_linear_117_48)"/>
<path d="M41.1965 0.0878906L42.7973 4.40102H47.9777L43.7867 7.06668L45.3875 11.3798L41.1965 8.71414L37.0055 11.3798L38.6063 7.06668L34.4153 4.40102H39.5957L41.1965 0.0878906Z" fill="url(#paint2_linear_117_48)"/>
<path d="M58.6258 0.0878906L60.2266 4.40102H65.407L61.216 7.06668L62.8168 11.3798L58.6258 8.71414L54.4348 11.3798L56.0356 7.06668L51.8446 4.40102H57.0249L58.6258 0.0878906Z" fill="url(#paint3_linear_117_48)"/>
<path d="M76.0551 0.0878906L77.6559 4.40102H82.8362L78.6452 7.06668L80.2461 11.3798L76.0551 8.71414L71.8641 11.3798L73.4649 7.06668L69.2739 4.40102H74.4542L76.0551 0.0878906Z" fill="url(#paint4_linear_117_48)"/>
<defs>
<linearGradient id="paint0_linear_117_48" x1="2.27947" y1="1.7413" x2="10.6247" y2="11.9986" gradientUnits="userSpaceOnUse">
<stop stop-color="#FFF176"/>
<stop offset="1" stop-color="#00E0B8"/>
</linearGradient>
<linearGradient id="paint1_linear_117_48" x1="19.7087" y1="1.7413" x2="28.054" y2="11.9986" gradientUnits="userSpaceOnUse">
<stop stop-color="#FFF176"/>
<stop offset="1" stop-color="#00E0B8"/>
</linearGradient>
<linearGradient id="paint2_linear_117_48" x1="36.3458" y1="1.7413" x2="44.6911" y2="11.9986" gradientUnits="userSpaceOnUse">
<stop stop-color="#FFF176"/>
<stop offset="1" stop-color="#00E0B8"/>
</linearGradient>
<linearGradient id="paint3_linear_117_48" x1="53.7751" y1="1.7413" x2="62.1203" y2="11.9986" gradientUnits="userSpaceOnUse">
<stop stop-color="#FFF176"/>
<stop offset="1" stop-color="#00E0B8"/>
</linearGradient>
<linearGradient id="paint4_linear_117_48" x1="71.2044" y1="1.7413" x2="79.5496" y2="11.9986" gradientUnits="userSpaceOnUse">
<stop stop-color="#FFF176"/>
<stop offset="1" stop-color="#00E0B8"/>
</linearGradient>
</defs>
</svg>
