<svg width="207" height="102" viewBox="0 0 207 102" fill="none" xmlns="http://www.w3.org/2000/svg">
<path opacity="0.8" d="M7.092 46.24V47.104H10.704V46.24H7.092ZM6.684 46.24V51.448C6.684 52.564 7.02 52.84 8.124 52.84C8.364 52.84 9.888 52.84 10.14 52.84C11.244 52.84 11.496 52.288 11.616 50.332C11.364 50.272 10.98 50.116 10.776 49.948C10.716 51.676 10.62 51.988 10.092 51.988C9.744 51.988 8.472 51.988 8.22 51.988C7.668 51.988 7.572 51.904 7.572 51.448V46.24H6.684ZM6.636 42.472V43.336H10.284V47.92H11.16V42.472H6.636ZM0.972 44.596V52.912H1.704V45.364H5.04V52.756H5.784V44.596H0.972ZM1.344 49.432V50.104H5.388V49.432H1.344ZM1.344 51.364V52.096H5.388V51.364H1.344ZM0.684 42.388V43.204H6.048V42.388H0.684ZM2.412 42.616V45.148H3.06V42.616H2.412ZM3.756 42.616V45.148H4.416V42.616H3.756ZM2.532 45.136V46.312C2.532 46.96 2.412 47.752 1.704 48.364C1.824 48.424 2.028 48.604 2.112 48.712C2.856 48.028 3.036 47.068 3.036 46.324V45.136H2.532ZM3.696 45.136V47.632C3.696 48.22 3.84 48.328 4.32 48.328C4.416 48.328 4.824 48.328 4.908 48.328C5.244 48.328 5.412 48.22 5.472 47.968C5.316 47.92 5.112 47.86 4.992 47.764C4.98 47.8 4.944 47.8 4.812 47.8C4.74 47.8 4.428 47.8 4.368 47.8C4.236 47.8 4.212 47.776 4.212 47.632V45.136H3.696ZM12.672 48.784V49.588H23.328V48.784H12.672ZM17.508 47.668V52.936H18.42V47.668H17.508ZM17.1 49.096C16.116 50.368 14.184 51.508 12.432 52.048C12.636 52.228 12.9 52.576 13.044 52.804C14.796 52.168 16.752 50.884 17.844 49.432L17.1 49.096ZM18.84 49.12L18.084 49.48C19.176 50.896 21.132 52.12 22.956 52.72C23.088 52.48 23.364 52.132 23.556 51.952C21.732 51.46 19.812 50.368 18.84 49.12ZM17.04 45.796H18.924V47.116H17.04V45.796ZM17.04 43.816H18.924V45.112H17.04V43.816ZM16.26 43.108V47.824H19.716V43.108H16.26ZM17.664 41.92C17.592 42.352 17.424 42.988 17.28 43.408L17.988 43.564C18.168 43.18 18.372 42.604 18.564 42.064L17.664 41.92ZM12.756 44.26C13.356 44.752 14.064 45.448 14.376 45.928L14.796 45.268C14.484 44.812 13.764 44.14 13.152 43.684L12.756 44.26ZM14.94 46.024C15.288 46.708 15.624 47.632 15.72 48.208L16.356 47.956C16.248 47.404 15.9 46.504 15.54 45.832L14.94 46.024ZM15.24 43.672C14.748 44.764 13.872 46.3 13.176 47.236L13.764 47.512C14.46 46.588 15.312 45.136 15.948 43.948L15.24 43.672ZM14.304 42.004C14.064 42.7 13.608 43.684 13.26 44.296L13.86 44.56C14.232 43.96 14.664 43.048 15.024 42.268L14.304 42.004ZM12.648 47.164L12.744 47.944C13.62 47.8 14.688 47.656 15.792 47.476L15.78 46.828C14.592 46.96 13.464 47.092 12.648 47.164ZM19.644 44.164C20.28 44.716 21 45.496 21.312 46.024L21.78 45.4C21.456 44.896 20.724 44.14 20.1 43.612L19.644 44.164ZM21.876 45.928C22.284 46.684 22.68 47.668 22.8 48.304L23.472 48.028C23.34 47.416 22.92 46.432 22.5 45.7L21.876 45.928ZM22.176 43.66C21.684 44.764 20.772 46.312 20.064 47.26L20.652 47.536C21.372 46.6 22.248 45.136 22.884 43.948L22.176 43.66ZM21.3 41.968C21.06 42.664 20.592 43.648 20.232 44.26L20.832 44.524C21.216 43.924 21.66 43.024 22.032 42.232L21.3 41.968ZM19.692 47.164L19.8 47.944C20.676 47.824 21.768 47.68 22.872 47.536L22.86 46.876C21.672 46.984 20.532 47.092 19.692 47.164ZM26.712 44.224V44.884H29.64V44.224H26.712ZM26.592 51.76V52.444H30.336V51.76H26.592ZM26.052 46.912V47.512H30.06V46.912H26.052ZM25.668 45.544V47.5C25.668 48.88 25.512 50.764 24.396 52.132C24.564 52.24 24.888 52.528 25.008 52.696C26.232 51.208 26.46 49.036 26.46 47.524V45.544H25.668ZM26.112 45.544V46.216H29.628V48.22H26.088V48.892H30.444V45.544H26.112ZM26.268 49.636V52.948H27.048V50.32H29.82V52.864H30.624V49.636H26.268ZM31.428 43.372V50.02H32.292V43.372H31.428ZM34.128 42.148V51.784C34.128 52 34.044 52.072 33.816 52.072C33.6 52.084 32.88 52.096 32.064 52.06C32.196 52.324 32.34 52.732 32.376 52.96C33.456 52.972 34.104 52.948 34.476 52.792C34.848 52.648 35.004 52.384 35.004 51.772V42.148H34.128ZM27.564 42.04C26.976 43.024 25.884 44.248 24.396 45.136C24.576 45.268 24.852 45.556 24.972 45.76C26.556 44.728 27.66 43.468 28.344 42.496V42.232H28.056V42.04H27.564ZM27.732 42.04V42.676H27.912C28.788 43.312 29.88 44.368 30.444 44.992L31.044 44.32C30.432 43.684 29.292 42.712 28.38 42.04H27.732ZM41.844 43.936L41.424 44.8H47.532V43.936H41.844ZM43.344 46.54V47.368H47.256V46.54H43.344ZM43.332 49.18V50.032H47.424V49.18H43.332ZM42.888 44.212V52.96H43.812V44.212H42.888ZM42.3 42.064C41.712 43.828 40.74 45.58 39.648 46.696C39.852 46.84 40.212 47.164 40.344 47.32C41.448 46.084 42.492 44.2 43.176 42.292L42.3 42.064ZM39.42 41.968C38.736 43.792 37.62 45.592 36.42 46.756C36.588 46.972 36.864 47.452 36.948 47.668C38.256 46.324 39.492 44.272 40.284 42.244L39.42 41.968ZM38.136 45.064V52.948H39.048V44.176L39.024 44.164L38.136 45.064ZM54.24 41.44H53.748V53.44H54.24V41.44ZM64.368 43.18V43.972H71.316V43.18H64.368ZM67.356 41.932V52.96H68.232V41.932H67.356ZM68.604 48.604L67.956 48.82C68.604 50.236 69.816 51.64 71.028 52.348C71.16 52.132 71.436 51.808 71.628 51.64C70.44 51.064 69.228 49.84 68.604 48.604ZM65.664 47.332H69.972V48.4H65.664V47.332ZM65.664 45.628H69.972V46.684H65.664V45.628ZM64.86 44.956V49.084H70.812V44.956H64.86ZM66.948 48.616C66.264 49.864 64.92 51.112 63.636 51.7C63.84 51.88 64.116 52.192 64.248 52.408C65.556 51.7 66.924 50.32 67.668 48.868L66.948 48.616ZM60.96 42.448V52.972H61.776V43.264H63.792V42.448H60.96ZM63.516 42.448V42.688C63.264 43.516 62.82 44.944 62.388 46.036C63.252 46.972 63.468 47.788 63.468 48.436C63.468 48.796 63.408 49.12 63.216 49.252C63.12 49.324 62.988 49.36 62.844 49.36C62.652 49.384 62.424 49.372 62.148 49.348C62.28 49.576 62.352 49.924 62.364 50.14C62.64 50.152 62.94 50.152 63.18 50.128C63.42 50.092 63.636 50.02 63.804 49.912C64.14 49.672 64.272 49.168 64.272 48.52C64.272 47.776 64.08 46.936 63.192 45.94C63.6 44.98 64.044 43.744 64.392 42.76L63.816 42.412L63.672 42.448H63.516ZM72.672 46.156V46.924H83.4V46.156H72.672ZM73.272 42.952V43.708H82.968V42.952H73.272ZM77.508 41.932V43.444H78.42V41.932H77.508ZM73.62 46.54V48.148C73.62 49.408 73.464 51.16 72.324 52.444C72.528 52.552 72.9 52.852 73.044 53.02C74.268 51.64 74.52 49.6 74.52 48.16V46.54H73.62ZM74.868 44.224C76.872 44.704 79.332 45.58 80.676 46.204L81.36 45.676C79.956 45.076 77.496 44.224 75.576 43.756L74.868 44.224ZM80.352 43.444C79.116 44.404 76.524 45.244 74.448 45.676C74.568 45.832 74.736 46.12 74.808 46.288C76.98 45.808 79.524 44.908 81.036 43.816L80.352 43.444ZM80.364 46.792C79.248 47.488 77.124 48.004 75.336 48.244C75.516 48.424 75.696 48.7 75.816 48.892C77.688 48.58 79.812 48.004 81.096 47.188L80.364 46.792ZM81.108 48.244C79.92 49.168 77.592 49.828 75.444 50.14C75.624 50.32 75.804 50.608 75.912 50.812C78.168 50.428 80.508 49.708 81.876 48.64L81.108 48.244ZM82.212 49.672C80.796 51.124 77.904 51.928 74.712 52.264C74.88 52.468 75.06 52.804 75.144 53.032C78.48 52.624 81.432 51.736 83.028 50.08L82.212 49.672ZM84.552 49.684V50.428H95.448V49.684H84.552ZM84.792 43.228V43.96H95.16V43.228H84.792ZM86.316 47.164V47.716H93.612V47.164H86.316ZM91.764 48.808V51.964C91.764 52.12 91.716 52.156 91.5 52.18C91.296 52.18 90.648 52.18 89.856 52.156C89.988 52.408 90.12 52.732 90.168 52.972C91.128 52.972 91.752 52.972 92.148 52.84C92.532 52.72 92.64 52.48 92.64 51.976V48.808H91.764ZM86.7 50.932C87.42 51.376 88.272 52.06 88.668 52.54L89.268 51.952C88.848 51.472 87.972 50.824 87.264 50.392L86.7 50.932ZM86.892 42.208C87.252 42.592 87.672 43.132 87.864 43.48L88.632 43.12C88.416 42.772 87.984 42.256 87.624 41.896L86.892 42.208ZM86.58 45.268H93.384V48.34H86.58V45.268ZM85.752 44.68V48.928H94.248V44.68H85.752ZM92.172 41.908C91.98 42.328 91.608 42.952 91.32 43.348L91.992 43.6C92.328 43.24 92.736 42.7 93.096 42.184L92.172 41.908ZM90.564 43.576V45.748C90.564 46.42 90.78 46.564 91.68 46.564C91.86 46.564 93.024 46.564 93.216 46.564C93.756 46.564 93.972 46.456 94.032 46.168C93.828 46.144 93.564 46.072 93.396 45.976C93.372 46.036 93.312 46.048 93.096 46.048C92.88 46.048 91.944 46.048 91.764 46.048C91.416 46.048 91.356 46 91.356 45.76V43.576H90.564ZM88.548 43.564V45.004C88.548 45.568 88.344 46.18 86.796 46.468C86.952 46.6 87.156 46.876 87.24 47.044C88.956 46.6 89.328 45.808 89.328 45.004V43.564H88.548ZM103.301 43.4688H104.396L107.191 50.4238L109.98 43.4688H111.082L107.613 52H106.758L103.301 43.4688ZM102.943 43.4688H103.91L104.068 48.6719V52H102.943V43.4688ZM110.467 43.4688H111.434V52H110.309V48.6719L110.467 43.4688ZM114.434 45.6602V52H113.344V45.6602H114.434ZM113.262 43.9785C113.262 43.8027 113.314 43.6543 113.42 43.5332C113.529 43.4121 113.689 43.3516 113.9 43.3516C114.107 43.3516 114.266 43.4121 114.375 43.5332C114.488 43.6543 114.545 43.8027 114.545 43.9785C114.545 44.1465 114.488 44.291 114.375 44.4121C114.266 44.5293 114.107 44.5879 113.9 44.5879C113.689 44.5879 113.529 44.5293 113.42 44.4121C113.314 44.291 113.262 44.1465 113.262 43.9785ZM117.264 43V52H116.174V43H117.264ZM121.137 45.6602L118.371 48.6191L116.824 50.2246L116.736 49.0703L117.844 47.7461L119.812 45.6602H121.137ZM120.146 52L117.885 48.9766L118.447 48.0098L121.424 52H120.146ZM124.77 52.1172C124.328 52.1172 123.928 52.043 123.568 51.8945C123.213 51.7422 122.906 51.5293 122.648 51.2559C122.395 50.9824 122.199 50.6582 122.062 50.2832C121.926 49.9082 121.857 49.498 121.857 49.0527V48.8066C121.857 48.291 121.934 47.832 122.086 47.4297C122.238 47.0234 122.445 46.6797 122.707 46.3984C122.969 46.1172 123.266 45.9043 123.598 45.7598C123.93 45.6152 124.273 45.543 124.629 45.543C125.082 45.543 125.473 45.6211 125.801 45.7773C126.133 45.9336 126.404 46.1523 126.615 46.4336C126.826 46.7109 126.982 47.0391 127.084 47.418C127.186 47.793 127.236 48.2031 127.236 48.6484V49.1348H122.502V48.25H126.152V48.168C126.137 47.8867 126.078 47.6133 125.977 47.3477C125.879 47.082 125.723 46.8633 125.508 46.6914C125.293 46.5195 125 46.4336 124.629 46.4336C124.383 46.4336 124.156 46.4863 123.949 46.5918C123.742 46.6934 123.564 46.8457 123.416 47.0488C123.268 47.252 123.152 47.5 123.07 47.793C122.988 48.0859 122.947 48.4238 122.947 48.8066V49.0527C122.947 49.3535 122.988 49.6367 123.07 49.9023C123.156 50.1641 123.279 50.3945 123.439 50.5938C123.604 50.793 123.801 50.9492 124.031 51.0625C124.266 51.1758 124.531 51.2324 124.828 51.2324C125.211 51.2324 125.535 51.1543 125.801 50.998C126.066 50.8418 126.299 50.6328 126.498 50.3711L127.154 50.8926C127.018 51.0996 126.844 51.2969 126.633 51.4844C126.422 51.6719 126.162 51.8242 125.854 51.9414C125.549 52.0586 125.188 52.1172 124.77 52.1172Z" fill="white"/>
<path d="M202.929 25.1299L0 25.1299L0 26.0199L202.929 26.0199V25.1299Z" fill="white"/>
<path d="M207 22L190 22V29H207V22Z" fill="#00E0B8"/>
<path d="M6.356 6.942H12.236V8.468H13.23V6.032H9.744L10.038 5.92C9.87 5.458 9.492 4.73 9.128 4.184L8.19 4.492C8.484 4.954 8.792 5.556 8.946 6.032H5.39V8.468H6.356V6.942ZM12.096 9.42V8.496H6.51V9.42H12.096ZM4.48 4.814L4.312 4.856H1.148V17.05H2.086V5.808H3.934C3.64 6.746 3.22 7.95 2.828 8.958C3.822 10.064 4.074 11.016 4.074 11.772C4.074 12.206 4.004 12.598 3.78 12.752C3.668 12.836 3.514 12.864 3.346 12.878C3.122 12.906 2.856 12.892 2.534 12.864C2.702 13.13 2.786 13.522 2.8 13.788C3.108 13.802 3.458 13.802 3.738 13.76C4.018 13.732 4.27 13.648 4.466 13.494C4.844 13.228 5.012 12.612 5.012 11.87C5.012 11.002 4.774 9.994 3.752 8.846C4.228 7.726 4.732 6.368 5.152 5.22L4.48 4.814ZM11.214 16C10.906 16 10.85 15.944 10.85 15.594V11.94H13.328V10.988H5.446V11.94H7.392C7.21 14.11 6.65 15.482 4.242 16.238C4.452 16.434 4.732 16.812 4.844 17.064C7.49 16.14 8.162 14.502 8.4 11.94H9.87V15.608C9.87 16.602 10.094 16.896 11.074 16.896H12.306C13.146 16.896 13.412 16.434 13.496 14.614C13.216 14.572 12.824 14.404 12.6 14.236C12.572 15.762 12.516 16 12.208 16H11.214ZM19.432 12.528C19.32 11.786 18.956 10.526 18.62 9.56L17.822 9.77C17.976 10.204 18.116 10.68 18.242 11.156L16.226 11.422C17.346 10.134 18.452 8.51 19.348 6.9L18.424 6.368C18.116 6.998 17.766 7.642 17.388 8.23L15.932 8.37C16.688 7.334 17.444 5.976 18.046 4.674L17.08 4.268C16.534 5.766 15.596 7.362 15.288 7.768C15.022 8.202 14.784 8.482 14.546 8.538C14.658 8.804 14.826 9.28 14.882 9.49C15.078 9.392 15.372 9.336 16.8 9.154C16.31 9.896 15.862 10.47 15.652 10.708C15.232 11.226 14.924 11.562 14.63 11.632C14.742 11.912 14.91 12.402 14.966 12.626C15.218 12.486 15.652 12.388 18.438 11.982C18.494 12.262 18.55 12.542 18.578 12.78L19.432 12.528ZM15.218 13.228C15.092 14.39 14.882 15.65 14.546 16.518C14.77 16.588 15.162 16.714 15.344 16.812C15.652 15.93 15.904 14.6 16.058 13.368L15.218 13.228ZM16.576 13.34C16.73 14.292 16.87 15.524 16.884 16.336L17.71 16.182C17.668 15.37 17.514 14.152 17.36 13.2L16.576 13.34ZM17.878 13.074C18.13 13.788 18.424 14.74 18.536 15.356L19.306 15.104C19.18 14.502 18.886 13.578 18.606 12.864L17.878 13.074ZM22.218 11.786L22.05 11.828H19.838V12.696H21.644C21.14 14.054 20.146 15.146 19.082 15.678C19.278 15.846 19.558 16.196 19.684 16.42C21.098 15.622 22.316 14.124 22.82 12.01L22.218 11.786ZM21.322 8.594H25.676V9.84H21.322V8.594ZM21.322 6.592H25.676V7.81H21.322V6.592ZM26.348 11.156C25.97 11.632 25.326 12.276 24.78 12.78C24.5 12.262 24.29 11.73 24.122 11.17V10.666H26.684V5.766H23.534C23.716 5.388 23.926 4.94 24.122 4.52L22.96 4.282C22.862 4.716 22.68 5.29 22.484 5.766H20.342V10.666H23.128V15.916C23.128 16.084 23.072 16.126 22.89 16.14C22.722 16.154 22.134 16.154 21.476 16.126C21.616 16.406 21.728 16.798 21.784 17.092C22.68 17.092 23.268 17.078 23.632 16.91C24.01 16.742 24.122 16.462 24.122 15.93V13.298C24.78 14.656 25.662 15.79 26.768 16.476C26.936 16.21 27.23 15.832 27.454 15.65C26.558 15.188 25.774 14.418 25.172 13.466C25.788 13.004 26.502 12.36 27.132 11.786L26.348 11.156ZM34.454 10.4H35.462V7.222H39.886V9.476H40.908V6.48H35.462V5.584H40.264V4.842H29.708V5.584H34.454V6.48H29.106V9.476H30.1V7.222H34.454V10.4ZM39.55 9.77C38.794 9.504 37.366 9.21 36.302 9.084L36.05 9.714C37.142 9.882 38.556 10.218 39.312 10.484L39.55 9.77ZM38.878 7.432C38.206 7.67 37.03 8.104 36.232 8.272L36.596 8.818C37.394 8.65 38.528 8.356 39.326 8.02L38.878 7.432ZM30.702 8.062C31.626 8.244 32.788 8.58 33.404 8.874L33.712 8.23C33.082 7.964 31.92 7.642 31.024 7.502L30.702 8.062ZM30.66 10.442C31.57 10.274 32.634 10.05 33.712 9.826L33.67 9.168C32.438 9.364 31.234 9.546 30.352 9.63L30.66 10.442ZM31.318 14.292V13.326H34.412V14.292H31.318ZM34.412 11.674V12.626H31.318V11.674H34.412ZM38.724 12.626H35.42V11.674H38.724V12.626ZM35.42 14.292V13.326H38.724V14.292H35.42ZM36.456 16.042C35.588 16.042 35.42 15.958 35.42 15.482V15.048H39.746V10.918H30.31V15.776H31.318V15.048H34.412V15.482C34.412 16.602 34.86 16.882 36.414 16.882H39.634C40.964 16.882 41.272 16.448 41.426 14.754C41.132 14.698 40.754 14.572 40.516 14.418C40.446 15.804 40.306 16.042 39.564 16.042H36.456ZM53.732 4.576C52.934 5.696 51.506 6.858 50.274 7.544C50.54 7.726 50.848 8.048 51.03 8.258C52.318 7.474 53.76 6.228 54.698 4.982L53.732 4.576ZM54.194 8.328C53.312 9.532 51.688 10.764 50.288 11.45C50.554 11.646 50.848 11.968 51.016 12.192C52.486 11.38 54.124 10.078 55.132 8.72L54.194 8.328ZM48.79 6.326H44.548V5.5H48.79V6.326ZM48.79 7.866H44.548V7.012H48.79V7.866ZM49.812 4.786H43.554V8.566H49.812V4.786ZM50.288 9.462H47.236C47.11 9.168 46.928 8.846 46.76 8.594L45.808 8.832C45.906 9.014 46.018 9.238 46.13 9.462H42.868V10.302H50.288V9.462ZM44.198 13.97C43.89 14.698 43.386 15.44 42.826 15.958C43.05 16.098 43.4 16.392 43.568 16.532C44.128 15.958 44.73 15.062 45.08 14.236L44.198 13.97ZM44.646 11.744H48.636V12.92H44.646V11.744ZM49.658 13.662V11.002H43.68V13.662H46.116V15.958C46.116 16.084 46.088 16.14 45.92 16.14C45.78 16.154 45.304 16.154 44.73 16.14C44.87 16.392 44.996 16.728 45.052 16.994C45.822 16.994 46.354 16.994 46.69 16.84C47.04 16.7 47.138 16.476 47.138 15.972V13.662H49.658ZM47.852 14.306C48.328 14.95 48.86 15.832 49.112 16.378L49.896 15.972C49.644 15.426 49.084 14.586 48.58 13.956L47.852 14.306ZM54.474 12.332C53.508 13.942 51.702 15.384 49.868 16.196C50.12 16.406 50.428 16.742 50.596 16.994C52.514 16.042 54.348 14.488 55.426 12.71L54.474 12.332ZM64.1709 7.81L63.9609 7.852H60.1809V8.888H63.5969C62.9249 11.646 61.5109 13.746 59.7329 14.908C59.9849 15.062 60.4049 15.468 60.5589 15.692C62.5329 14.306 64.1709 11.716 64.8429 8.076L64.1709 7.81ZM70.5269 6.9C69.8549 7.852 68.7629 9.084 67.8249 9.952C67.3909 9.224 67.0129 8.454 66.7049 7.684V4.324H65.6129V15.65C65.6129 15.888 65.5289 15.958 65.2909 15.972C65.0809 15.972 64.3529 15.972 63.5549 15.944C63.7229 16.252 63.9049 16.77 63.9469 17.078C65.0109 17.078 65.7109 17.05 66.1309 16.854C66.5369 16.672 66.7049 16.336 66.7049 15.65V9.742C67.9789 12.262 69.7849 14.474 71.9549 15.622C72.1369 15.314 72.4869 14.894 72.7249 14.684C71.0449 13.9 69.5329 12.444 68.3429 10.722C69.3229 9.896 70.5409 8.636 71.4649 7.572L70.5269 6.9ZM80.6349 11.506V7.796H84.6529V11.506H80.6349ZM75.5529 11.506V7.796H79.5569V11.506H75.5529ZM80.6349 6.774V4.282H79.5569V6.774H74.5309V13.396H75.5529V12.528H79.5569V17.064H80.6349V12.528H84.6529V13.326H85.7169V6.774H80.6349ZM95.7969 7.068H92.7589V7.838H99.9129V7.068H96.8189V6.186H100.375V5.402H96.8189V4.296H95.7969V5.402H92.3109V6.186H95.7969V7.068ZM90.9669 8.174C90.9529 9.546 90.8549 11.184 90.2389 12.78C89.8189 12.402 89.3709 11.996 88.9509 11.66C89.1889 10.68 89.4409 9.49 89.6789 8.258L90.9669 8.174ZM92.4929 8.048V7.166L91.8069 7.208V6.256H90.9669V7.264L89.8329 7.32C90.0009 6.298 90.1549 5.29 90.2389 4.38L89.3289 4.338C89.2449 5.262 89.1049 6.326 88.9509 7.362C88.4749 7.39 88.0549 7.404 87.6769 7.418L87.7889 8.384L88.7829 8.314C88.5309 9.7 88.2369 11.002 87.9569 11.968C88.5449 12.472 89.2029 13.074 89.8329 13.676C89.3289 14.642 88.6009 15.58 87.5509 16.434C87.7469 16.574 88.0689 16.854 88.2089 17.036C89.2169 16.196 89.9449 15.272 90.4769 14.306C91.0649 14.908 91.5689 15.496 91.9189 15.958L92.5349 15.16C92.1569 14.67 91.5689 14.054 90.9109 13.424C91.6809 11.576 91.8069 9.686 91.8069 8.104L92.4929 8.048ZM98.6529 14.53V15.902H94.0049V14.53H98.6529ZM93.0109 17.078H94.0049V16.672H98.6529V17.022H99.6749V13.774H93.0109V17.078ZM97.9809 10.988C97.8409 11.366 97.5469 11.94 97.3369 12.318L97.3929 12.332H94.9569L95.1669 12.262C95.0689 11.926 94.7889 11.394 94.5089 10.988H97.9809ZM94.0889 9.21H98.4569V10.274H94.0889V9.21ZM98.2469 12.332C98.4569 12.01 98.6949 11.618 98.9329 11.198L98.0229 10.988H99.4649V8.496H93.1229V10.988H94.3969L93.6829 11.184C93.9069 11.534 94.1449 11.982 94.2709 12.332H91.9749V13.13H100.585V12.332H98.2469ZM114.417 6.844C114.053 6.256 113.353 5.29 112.807 4.562L112.037 4.94C112.583 5.682 113.255 6.704 113.591 7.292L114.417 6.844ZM105.317 7.362V8.286L103.595 8.454L103.679 9.084L105.317 8.916V9.168C105.317 9.924 105.471 10.26 106.283 10.26H107.879C108.187 10.26 108.565 10.246 108.733 10.19C108.705 9.98 108.677 9.77 108.663 9.546C108.467 9.602 108.047 9.616 107.837 9.616H106.493C106.227 9.616 106.185 9.518 106.185 9.182V8.832L107.711 8.678L107.627 8.076L106.185 8.216V7.362H108.411C108.327 7.796 108.215 8.23 108.117 8.538L108.873 8.72C109.069 8.216 109.279 7.432 109.433 6.732L108.817 6.592L108.663 6.62H106.087V5.878H109.041V5.15H106.087V4.282H105.107V6.62H102.419V10.512C102.419 12.248 102.349 14.628 101.565 16.336C101.775 16.434 102.139 16.7 102.293 16.882C103.161 15.076 103.301 12.374 103.301 10.512V7.362H105.317ZM109.237 10.736H103.749V11.464H109.237V10.736ZM104.925 12.64H107.907V13.62H104.925V12.64ZM108.761 14.222V12.038H104.113V14.222H108.761ZM113.577 9.49C113.241 10.694 112.681 11.912 111.981 12.99C111.813 11.898 111.659 10.582 111.547 9.084L114.557 8.706L114.431 7.782L111.491 8.16C111.421 6.97 111.365 5.682 111.351 4.352H110.385C110.427 5.738 110.469 7.054 110.539 8.286L109.293 8.454L109.433 9.364L110.609 9.21C110.735 11.086 110.945 12.738 111.225 14.026C110.581 14.824 109.853 15.496 109.083 15.958V15.552L107.655 15.678C107.865 15.3 108.089 14.866 108.285 14.446L107.417 14.278C107.277 14.698 107.011 15.3 106.801 15.762L105.877 15.846C105.765 15.412 105.541 14.81 105.359 14.334L104.617 14.474C104.785 14.908 104.953 15.468 105.065 15.916C104.421 15.972 103.833 16.014 103.343 16.056L103.455 16.868C104.953 16.728 107.067 16.518 109.083 16.322V15.986C109.349 16.168 109.629 16.448 109.811 16.672C110.413 16.28 111.001 15.734 111.533 15.118C111.939 16.336 112.485 17.05 113.227 17.064C113.731 17.078 114.235 16.49 114.501 14.32C114.319 14.222 113.927 13.984 113.759 13.774C113.661 15.118 113.479 15.874 113.227 15.874C112.849 15.846 112.513 15.244 112.261 14.222C113.157 12.934 113.899 11.422 114.361 9.924L113.577 9.49ZM119.009 11.03C119.051 10.414 119.065 9.784 119.065 9.154V8.776H125.379V4.31H124.329V7.754H119.065V4.45H118.029V9.154C118.029 11.688 117.833 14.32 116.069 16.35C116.307 16.518 116.685 16.882 116.853 17.12C118.169 15.65 118.715 13.886 118.925 12.066H124.805V17.078H125.869V11.03H119.009ZM137.629 5.71H139.575V8.314C139.575 9.266 139.757 9.63 140.681 9.63H141.731C142.011 9.63 142.277 9.63 142.445 9.574C142.403 9.35 142.389 9 142.361 8.762C142.207 8.804 141.899 8.818 141.717 8.818H140.779C140.583 8.818 140.541 8.706 140.541 8.342V4.8H136.663V6.48C136.663 7.502 136.439 8.734 135.081 9.658C135.277 9.798 135.655 10.134 135.795 10.316C137.307 9.308 137.629 7.754 137.629 6.508V5.71ZM135.193 12.99C134.045 13.158 132.869 13.326 131.833 13.48V11.45H134.955V10.526H131.833V8.608H134.969V7.684H131.833V6.158C133.051 5.85 134.367 5.43 135.361 4.996L134.521 4.212C133.653 4.66 132.155 5.192 130.853 5.528V5.542L130.825 5.528V13.634C130.405 13.69 129.999 13.746 129.663 13.788L129.817 14.768L130.825 14.6V16.868H131.833V14.446C132.911 14.278 134.073 14.068 135.235 13.886L135.193 12.99ZM140.275 11.506C139.925 12.528 139.379 13.382 138.707 14.068C137.965 13.34 137.405 12.486 137.013 11.506H140.275ZM140.863 10.568L140.681 10.61H135.683V11.506H136.663L136.145 11.646C136.579 12.822 137.195 13.844 137.993 14.698C137.055 15.426 135.907 15.944 134.661 16.238C134.857 16.448 135.095 16.854 135.193 17.134C136.509 16.742 137.713 16.196 138.721 15.37C139.617 16.126 140.681 16.686 141.885 17.05C142.025 16.756 142.305 16.364 142.529 16.154C141.353 15.874 140.317 15.37 139.449 14.712C140.387 13.746 141.101 12.472 141.507 10.806L140.863 10.568Z" fill="#00E0B8"/>
</svg>
