<svg width="170" height="242" viewBox="0 0 170 242" fill="none" xmlns="http://www.w3.org/2000/svg">
<path d="M40.86 200.92V205.9C40.86 207.74 41.42 208.3 43.56 208.3C44 208.3 46.18 208.3 46.64 208.3C48.48 208.3 49 207.54 49.22 204.64C48.68 204.52 47.9 204.22 47.48 203.92C47.4 206.24 47.26 206.6 46.48 206.6C45.98 206.6 44.2 206.6 43.82 206.6C42.96 206.6 42.82 206.52 42.82 205.88V200.92H40.86ZM36.38 190.06C35.32 192.06 33.34 194.48 30.64 196.3C31.08 196.6 31.7 197.24 31.98 197.68C34.9 195.58 36.98 192.96 38.44 190.46L36.38 190.06ZM34.82 196.84H45.62V199.94H34.82V196.84ZM32.92 195.16V201.64H47.62V195.16H32.92ZM41.88 191.56V191.92C41.42 192.94 40.36 194.5 39.44 195.44C39.86 195.68 40.5 196.08 40.86 196.36C41.9 195.32 43.16 193.66 43.92 192.32L42.62 191.48L42.3 191.56H41.88ZM36.32 191.56L35.36 193.12H42.44V191.56H36.32ZM39.14 196.28C38.78 201.08 38.22 205.1 30.9 206.92C31.32 207.32 31.78 208.04 31.98 208.52C39.74 206.4 40.7 201.78 41.14 196.28H39.14ZM53.52 193.3V194.48H67.52V191.14H52.12V192.32H65.8V193.3H53.52ZM52.96 193.3C52.84 194.42 52.62 195.76 52.4 196.72H54.08C54.28 195.8 54.48 194.48 54.62 193.3H52.96ZM53.2 195.52L52.84 196.72H67.6V195.52H53.2ZM67.02 195.52V195.72C66.94 196.76 66.86 197.18 66.72 197.34C66.6 197.46 66.48 197.48 66.28 197.48C66.06 197.48 65.58 197.46 65 197.42C65.18 197.74 65.32 198.24 65.34 198.58C66.08 198.62 66.8 198.62 67.16 198.6C67.58 198.58 67.94 198.46 68.22 198.2C68.52 197.86 68.64 197.24 68.76 196.08C68.76 195.88 68.78 195.52 68.78 195.52H67.02ZM56.9 190.12V193.92C56.9 195.94 56.2 197.52 50.98 198.38C51.3 198.72 51.72 199.42 51.88 199.84C57.74 198.82 58.62 196.7 58.62 193.96V190.12H56.9ZM61.34 190.12V198.06H63.14V190.12H61.34ZM55.38 201.32H64.82V202.38H55.38V201.32ZM55.38 203.46H64.82V204.54H55.38V203.46ZM55.38 199.2H64.82V200.24H55.38V199.2ZM53.54 198.06V205.68H66.74V198.06H53.54ZM61.68 206.42C63.92 207.12 66.18 208 67.52 208.66L68.92 207.5C67.44 206.86 65 206 62.76 205.34L61.68 206.42ZM56.88 205.56C55.46 206.3 53.06 206.94 50.96 207.32C51.38 207.64 52.04 208.34 52.34 208.7C54.36 208.18 56.92 207.28 58.56 206.34L56.88 205.56ZM73.5 201.86V203.52H86.44V201.86H73.5ZM74.42 197.44V199.12H85.56V197.44H74.42ZM71.52 206.48V208.18H88.58V206.48H71.52ZM78.94 198.16V207.42H80.92V198.16H78.94ZM74.52 190.7V192.46H80.82V190.7H74.52ZM78.9 190.7V191.76H79.44C81.46 194.56 84.8 197.42 88.16 199C88.44 198.48 89.06 197.7 89.44 197.3C86.16 196 82.8 193.38 81 190.7H78.9ZM79.22 190.7C77.4 193.26 73.7 196.18 70.6 197.56C71.04 197.96 71.52 198.62 71.78 199.08C74.9 197.46 78.62 194.4 80.6 191.66L79.22 190.7ZM91.22 193.48V195.32H108.82V193.48H91.22ZM97.62 198.18V200.02H105.48V198.18H97.62ZM104.98 198.18V198.5C104.66 203.68 104.24 205.92 103.62 206.48C103.36 206.68 103.1 206.72 102.66 206.72C102.1 206.72 100.7 206.7 99.28 206.58C99.64 207.08 99.92 207.88 99.96 208.44C101.3 208.52 102.62 208.52 103.36 208.46C104.2 208.4 104.76 208.24 105.28 207.66C106.1 206.84 106.5 204.62 106.88 199.04C106.92 198.78 106.94 198.18 106.94 198.18H104.98ZM96.54 194.62C96.32 199.24 96.1 204.52 90.82 207.22C91.32 207.6 91.92 208.26 92.2 208.76C97.84 205.68 98.36 199.84 98.64 194.62H96.54ZM98.58 190.64C99.08 191.6 99.7 192.9 99.96 193.7L101.88 192.88C101.58 192.08 100.98 190.86 100.42 189.94L98.58 190.64ZM117.32 193.64V195.48H128.34V193.64H117.32ZM118.56 196.84C119.14 199.58 119.7 203.2 119.86 205.28L121.72 204.76C121.52 202.72 120.92 199.18 120.28 196.44L118.56 196.84ZM125.32 196.32C124.98 199.42 124.18 203.72 123.44 206.38L125.08 206.74C125.86 204.12 126.74 199.98 127.32 196.64L125.32 196.32ZM116.52 206.06V207.88H129.1V206.06H116.52ZM121.24 190.38C121.6 191.38 122.02 192.7 122.18 193.56L124.06 193.02C123.84 192.16 123.42 190.9 123.04 189.92L121.24 190.38ZM115.48 190.2C114.4 193.16 112.58 196.1 110.68 197.98C111 198.42 111.54 199.44 111.72 199.9C113.9 197.64 115.96 194.16 117.26 190.76L115.48 190.2ZM113.4 195.52V208.66H115.3V193.64L115.28 193.62L113.4 195.52ZM21.7 225.2V226.66H27.72V225.2H21.7ZM21.7 227.86V229.32H27.76V227.86H21.7ZM20.86 222.48V224.02H28.58V222.48H20.86ZM22.54 230.58V232.12H26.08V234.98H22.54V236.52H27.74V230.58H22.54ZM21.7 230.58V237.42H23.34V230.58H21.7ZM22.96 219.76C23.5 220.6 24.14 221.78 24.42 222.52L25.96 221.66C25.64 220.94 25 219.86 24.44 219.04L22.96 219.76ZM30.48 219.82V221.58H35.74V219.82H30.48ZM28.3 227.9V229.66H37.12V227.9H28.3ZM36.44 227.9V228.2C35.22 232.42 31.7 235.02 27.56 235.98C27.9 236.4 28.32 237.18 28.52 237.68C33.06 236.38 36.8 233.58 38.3 228.32L37.12 227.82L36.8 227.9H36.44ZM30.64 229.48L29.02 230.04C30.8 233.9 33.86 236.52 38.22 237.64C38.46 237.12 38.98 236.32 39.4 235.92C35.22 235.04 32.12 232.7 30.64 229.48ZM30.14 219.82V222C30.14 223.38 29.84 224.94 27.66 226.12C28 226.4 28.66 227.12 28.88 227.5C31.34 226.12 31.88 223.92 31.88 222.06V219.82H30.14ZM34.8 219.82V224.32C34.8 226.06 35.12 226.74 36.68 226.74C36.94 226.74 37.62 226.74 37.88 226.74C38.28 226.74 38.68 226.72 38.94 226.6C38.86 226.18 38.82 225.48 38.8 225.02C38.54 225.08 38.14 225.12 37.88 225.12C37.68 225.12 37.04 225.12 36.84 225.12C36.58 225.12 36.56 224.92 36.56 224.34V219.82H34.8ZM42.08 225.2V226.66H48.72V225.2H42.08ZM42.08 227.86V229.32H48.68V227.86H42.08ZM41.2 222.48V224.02H49.56V222.48H41.2ZM43.02 230.58V232.12H47.08V234.98H43.02V236.52H48.72V230.58H43.02ZM42.2 230.58V237.42H43.82V230.58H42.2ZM43.5 219.76C44.04 220.6 44.68 221.78 44.98 222.52L46.48 221.66C46.16 220.94 45.54 219.86 44.98 219.04L43.5 219.76ZM49.52 225.94V227.8H59.16V225.94H49.52ZM53.26 219.48V237.68H55.22V219.48H53.26ZM72.64 219.1C72.46 219.9 72.1 221.02 71.78 221.78L73.36 222.2C73.78 221.54 74.3 220.52 74.78 219.52L72.64 219.1ZM70.76 225.5H76.52V226.96H70.76V225.5ZM70.76 222.7H76.52V224.14H70.76V222.7ZM69 221.24V228.42H78.36V221.24H69ZM72.92 227.78V235.7C72.92 235.94 72.86 236 72.6 236C72.34 236.02 71.5 236.02 70.66 235.98C70.9 236.48 71.12 237.22 71.18 237.72C72.48 237.72 73.36 237.7 73.96 237.42C74.56 237.12 74.72 236.62 74.72 235.72V227.78H72.92ZM68.28 229.9V231.46H71.34V229.9H68.28ZM70.92 229.9V230.18C70.42 232.48 68.92 234.5 67.18 235.42C67.52 235.74 68.02 236.34 68.24 236.74C70.32 235.54 71.94 233.32 72.64 230.22L71.52 229.84L71.24 229.9H70.92ZM77.58 228.96C76.9 229.84 75.66 231.06 74.76 231.78L75.8 232.72C76.74 232.08 77.92 231.04 79 230.12L77.58 228.96ZM74.64 228.82L73.34 229.14C74.2 232.44 75.82 235.38 78.14 236.88C78.42 236.4 78.98 235.72 79.38 235.38C77.12 234.2 75.44 231.62 74.64 228.82ZM65.34 227.16C65.8 228.56 66.22 230.38 66.36 231.48L67.86 231.02C67.72 229.96 67.22 228.16 66.74 226.8L65.34 227.16ZM63.58 232.36C63.78 233.7 63.96 235.48 63.98 236.66L65.42 236.38C65.38 235.22 65.18 233.48 64.94 232.12L63.58 232.36ZM61.54 232.14C61.38 233.82 61.1 235.66 60.62 236.88C61.02 237 61.74 237.24 62.06 237.4C62.48 236.14 62.84 234.18 63.02 232.38L61.54 232.14ZM61.18 226.82C61.18 226.46 62.28 225.88 62.28 225.88V225.84C63.54 224.28 64.88 221.96 65.82 219.8L64.08 219.08C63.36 221.22 62.08 223.46 61.68 224.04C61.28 224.64 60.94 225.04 60.58 225.12C60.78 225.6 61.08 226.44 61.18 226.82ZM61.18 226.82C61.54 226.64 62.12 226.5 65.26 226.18C65.26 225.8 65.34 225.14 65.44 224.66L61.96 224.94L61.12 225.46L61.18 226.82ZM61.32 231.38C61.32 231.02 62.46 230.46 62.46 230.46V230.42C64.38 228.46 66.36 225.72 67.84 223.02L66.22 222.02C64.96 224.74 62.88 227.58 62.24 228.3C61.62 229.04 61.18 229.52 60.7 229.64C60.92 230.12 61.22 231 61.32 231.38ZM61.32 231.38C61.74 231.16 62.42 231 66.82 230.36C66.8 229.98 66.82 229.32 66.9 228.86L62.08 229.46L61.24 230L61.32 231.38ZM65.5 231.96C65.84 232.94 66.22 234.22 66.36 235.06L67.7 234.6C67.54 233.78 67.14 232.54 66.78 231.58L65.5 231.96ZM89.4 225.4V227.3H97.66V225.4H89.4ZM80.94 234.82V236.72H99.06V234.82H80.94ZM88.32 219.4V235.86H90.34V219.4H88.32ZM108.12 229.36V231.04H118.96V229.36H108.12ZM114.92 230.34L113.56 230.86C114.62 233.06 116.5 235.44 118.22 236.74C118.5 236.28 119.1 235.64 119.52 235.3C117.82 234.26 115.92 232.22 114.92 230.34ZM110.48 224.64H116.66V226.38H110.48V224.64ZM110.48 221.44H116.66V223.16H110.48V221.44ZM108.8 219.92V227.9H118.42V219.92H108.8ZM112.24 230.22C111.24 232.28 109.3 234.38 107.38 235.4C107.78 235.74 108.36 236.42 108.64 236.86C110.64 235.6 112.58 233.18 113.66 230.72L112.24 230.22ZM112.72 220.7V227.18H112.62V237.68H114.46V227.18H114.36V220.7H112.72ZM101.56 225.2V226.66H107.56V225.2H101.56ZM101.56 227.86V229.32H107.56V227.86H101.56ZM100.72 222.48V224.02H108.22V222.48H100.72ZM102.38 230.58V232.12H106.04V234.98H102.38V236.52H107.7V230.58H102.38ZM101.54 230.58V237.42H103.18V230.58H101.54ZM102.94 219.76C103.48 220.6 104.12 221.78 104.4 222.52L105.92 221.66C105.6 220.94 104.98 219.86 104.4 219.04L102.94 219.76ZM132.6 228.6V236.68H134.48V228.6H132.6ZM127.78 235.56V237.22H139.14V235.56H127.78ZM128.84 231.62V233.22H138.32V231.62H128.84ZM130.78 221.68H136.34V225.06H130.78V221.68ZM129.02 220.08V226.68H138.16V220.08H129.02ZM137.38 227.2C135.24 227.8 131.52 228.18 128.38 228.36C128.56 228.76 128.76 229.4 128.82 229.8C132.04 229.68 135.96 229.3 138.56 228.62L137.38 227.2ZM124 220.88V237.66H125.84V220.88H124ZM120.9 224.76V226.52H128.18V224.76H120.9ZM124.1 225.46C123.42 227.82 121.9 230.84 120.48 232.44C120.8 232.9 121.22 233.68 121.4 234.22C122.94 232.32 124.46 228.78 125.24 225.94L124.1 225.46ZM127.12 219.38C125.6 220.06 123 220.64 120.72 221.02C120.94 221.42 121.18 222.06 121.28 222.46C123.64 222.16 126.44 221.62 128.42 220.84L127.12 219.38ZM125.78 227.42L124.92 228.18C125.54 228.92 126.92 230.8 127.4 231.68L128.5 230.18C128.1 229.72 126.28 227.84 125.78 227.42Z" fill="url(#paint0_linear_105_1306)"/>
<path d="M159.035 170H120.739V164.556H31.3582C22.1054 164.556 16.4441 158.878 16.4441 149.597C16.4441 142.059 16.427 134.521 16.4613 126.984C16.4613 126.038 16.1906 125.514 15.3818 124.928C14.3016 124.196 13.4045 123.225 12.7602 122.091C8.5759 113.919 4.49442 105.693 0.423227 97.4664C0.143514 96.8503 0.00422192 96.1797 0.0154212 95.5032C-0.0051404 69.2354 -0.0051404 42.9675 0.0154212 16.6996C0.0154212 7.2809 7.21198 0.14404 16.6189 0.0583838C18.9013 0.0378263 21.2076 -0.10265 23.4728 0.14404C29.6173 0.829288 34.0723 4.02598 36.8378 9.56964C37.0674 10.0288 37.2765 10.4913 37.5232 11.0189H138.597C147.881 11.0189 153.552 16.6722 153.552 25.9334C153.552 42.8362 153.545 59.739 153.532 76.6417C153.532 77.8683 153.806 78.7729 154.731 79.6363C156.859 81.6235 158.888 83.7169 160.927 85.8035C168.213 93.2419 171.167 102.154 169.583 112.425C168.158 121.676 166.767 130.927 164.786 140.072C163.651 145.317 161.359 150.313 159.645 155.438C159.304 156.394 159.108 157.395 159.066 158.409C158.994 162.202 159.035 166.026 159.035 170ZM32.9003 126.089H115.548C115.647 124.938 115.753 123.859 115.839 122.78C116.387 115.78 116.867 108.773 117.498 101.777C117.902 97.1615 121.325 93.7216 125.722 93.3001C130.211 92.865 134.19 95.6711 135.465 100.201C135.955 101.938 136.38 103.692 136.836 105.439L137.014 105.405V38.5419H38.3799V40.6833C38.3799 55.6492 38.1058 70.6218 38.4965 85.5671C38.6918 93.1048 37.746 100.033 33.5445 106.371C33.1847 106.882 32.9713 107.482 32.9277 108.105C32.8797 114.049 32.9003 119.984 32.9003 126.089ZM38.4553 32.9435H135.616C140.756 32.9435 142.583 34.8005 142.583 39.9912C142.583 67.0037 142.599 94.0139 142.631 121.022C142.692 122.428 143.108 123.795 143.84 124.996C144.204 125.62 145.533 126.151 146.239 125.98C146.945 125.808 147.504 124.739 148.011 123.986C148.199 123.708 148.059 123.204 148.059 122.807C148.059 90.3719 148.059 57.9367 148.059 25.5017C148.059 19.8312 144.69 16.4975 138.971 16.4975H38.4553V32.9435ZM27.4103 119.549C25.9539 121.364 24.6482 123.293 23.0101 124.883C22.2836 125.592 21.9032 126.093 21.9067 127.086C21.9444 134.682 21.9067 142.278 21.9272 149.874C21.9272 155.798 25.2171 159.07 31.18 159.07H120.894C120.572 157.666 120.465 156.47 120.023 155.411C117.583 149.525 115.685 143.515 115.294 137.115C115.188 135.32 115.277 133.517 115.277 131.654H33.733C29.5385 131.654 27.4343 129.533 27.4275 125.322C27.4069 123.338 27.4103 121.358 27.4103 119.549ZM153.552 86.3928V87.9963C153.552 99.762 153.552 111.525 153.552 123.287C153.552 127.497 151.232 130.543 147.384 131.444C143.762 132.298 140.115 130.564 138.501 126.73C136.363 121.642 134.444 116.451 132.675 111.226C131.617 108.105 131.044 104.819 130.191 101.633C129.687 99.7552 128.172 98.6656 126.421 98.7616C124.591 98.8609 123.251 100.163 122.963 102.167C122.85 102.955 122.785 103.757 122.724 104.566C122.107 112.706 121.603 120.861 120.853 128.988C120.092 137.266 121.579 145.112 124.889 152.663C125.032 152.908 125.231 153.116 125.469 153.271C125.707 153.425 125.978 153.521 126.26 153.551C135.342 153.601 144.424 153.601 153.508 153.551C153.783 153.506 154.044 153.397 154.27 153.234C154.497 153.07 154.681 152.856 154.81 152.608C156.064 149.549 157.552 146.53 158.319 143.358C159.813 136.981 160.934 130.516 162.089 124.064C162.976 119.124 163.994 114.18 164.409 109.191C165.19 99.7209 160.872 92.4607 153.552 86.3928ZM5.35802 21.8596H32.8831C32.8831 19.8723 32.9311 17.9982 32.8831 16.124C32.7289 11.084 29.206 6.719 24.213 5.84531C21.6017 5.39647 18.8773 5.50268 16.2043 5.53695C13.7267 5.54654 11.3304 6.42161 9.4299 8.01078C7.52939 9.59995 6.24421 11.8033 5.79667 14.2396C5.35459 16.6928 5.48824 19.2316 5.35802 21.8596ZM10.8411 93.1836V27.5951H5.56021V93.1836H10.8411ZM16.5572 27.5506V93.1323H21.8416V27.5506H16.5572ZM32.7803 93.1905V27.5951H27.496V93.1836L32.7803 93.1905ZM7.27024 98.8164C7.51356 99.3543 7.66091 99.7106 7.83568 100.057C10.9645 106.33 14.0693 112.614 17.2666 118.853C17.6333 119.569 18.5586 120.535 19.1274 120.477C19.8608 120.398 20.7518 119.531 21.139 118.764C24.2952 112.634 27.3486 106.453 30.426 100.283C30.6488 99.8408 30.8167 99.3714 31.0566 98.7993L7.27024 98.8164ZM153.408 164.525V159.187H126.26V164.525H153.408Z" fill="url(#paint1_linear_105_1306)"/>
<path d="M69.7158 43.6543C71.2133 44.1442 72.824 44.4321 74.1948 45.1618C84.6709 50.7226 95.0991 56.3691 105.541 61.995C108.173 63.4134 109.653 65.6097 109.653 68.6179C109.653 71.6261 108.128 73.8052 105.5 75.2134C95.1093 80.8085 84.7429 86.4583 74.3147 91.978C67.5397 95.5653 60.3431 91.1386 60.326 83.4604C60.3031 73.4101 60.3031 63.3598 60.326 53.3094C60.35 48.0193 64.4828 43.901 69.7158 43.6543ZM65.7988 68.474C65.7988 73.3838 65.7988 78.297 65.7988 83.2068C65.7988 87.1162 68.5917 88.8567 71.9912 87.0339C82.1464 81.5862 92.2844 76.1042 102.405 70.588C103.145 70.1803 103.982 69.2518 104.04 68.5117C104.088 67.9018 103.169 66.9733 102.464 66.5861C92.3518 61.079 82.2149 55.605 72.0529 50.1642C68.626 48.3277 65.8193 50.0203 65.8056 53.8953C65.7885 58.7606 65.8022 63.6156 65.8022 68.4706L65.7988 68.474Z" fill="url(#paint2_linear_105_1306)"/>
<path d="M112.333 106.974V112.456H110.411C97.8444 112.456 85.2779 112.456 72.7147 112.429C71.4844 112.429 70.8573 112.672 70.3159 113.926C68.4653 118.284 65.0315 120.645 60.2989 120.638C55.5663 120.631 52.1497 118.239 50.2889 113.902C49.792 112.737 49.2402 112.405 48.0579 112.432C44.9223 112.504 41.7832 112.456 38.5105 112.456V106.974C41.6598 106.974 44.8366 106.94 48.0134 106.995C49.1477 107.015 49.7645 106.786 50.2717 105.573C52.1051 101.218 55.5081 98.8915 60.2475 98.7716C62.4392 98.7194 64.593 99.3486 66.4118 100.572C68.2305 101.796 69.6246 103.554 70.4015 105.603C70.8402 106.71 71.3645 107.005 72.5022 107.001C85.1236 106.96 97.7485 106.974 110.373 106.974H112.333ZM65.7957 109.715C65.786 108.271 65.2108 106.889 64.1935 105.864C63.1762 104.839 61.7978 104.254 60.3538 104.233C58.9106 104.23 57.5239 104.794 56.4926 105.803C55.4612 106.813 54.8677 108.187 54.8398 109.629C54.8353 110.358 54.975 111.08 55.2507 111.755C55.5265 112.429 55.9329 113.043 56.4467 113.559C56.9604 114.076 57.5713 114.486 58.2442 114.766C58.9171 115.046 59.6387 115.19 60.3675 115.19C61.8085 115.164 63.1825 114.577 64.1965 113.553C65.2105 112.529 65.7844 111.149 65.7957 109.708V109.715Z" fill="url(#paint3_linear_105_1306)"/>
<path d="M68.6877 22.0068H101.316V27.3449H68.6877V22.0068Z" fill="url(#paint4_linear_105_1306)"/>
<path d="M85.0889 137.139C91.2573 137.139 97.4258 137.139 103.594 137.139C107.864 137.139 110.315 140.137 109.54 144.358C108.536 149.84 104.177 153.554 98.6115 153.578C89.537 153.617 80.4614 153.617 71.3845 153.578C65.8363 153.551 61.4464 149.809 60.4663 144.327C59.6987 140.103 62.1455 137.132 66.4326 137.132C72.6468 137.128 78.8655 137.13 85.0889 137.139ZM65.898 142.679C66.0728 145.732 68.0947 148.034 70.9288 148.058C80.2957 148.145 89.6627 148.145 99.0296 148.058C101.963 148.034 104.129 145.568 104.047 142.672L65.898 142.679Z" fill="url(#paint5_linear_105_1306)"/>
<defs>
<linearGradient id="paint0_linear_105_1306" x1="39.1816" y1="191.682" x2="68.784" y2="257.584" gradientUnits="userSpaceOnUse">
<stop stop-color="#FFF176"/>
<stop offset="1" stop-color="#00E0B8"/>
</linearGradient>
<linearGradient id="paint1_linear_105_1306" x1="27.1738" y1="22.5151" x2="142.931" y2="147.071" gradientUnits="userSpaceOnUse">
<stop stop-color="#FFF176"/>
<stop offset="1" stop-color="#00E0B8"/>
</linearGradient>
<linearGradient id="paint2_linear_105_1306" x1="68.1964" y1="50.2218" x2="101.973" y2="86.3882" gradientUnits="userSpaceOnUse">
<stop stop-color="#FFF176"/>
<stop offset="1" stop-color="#00E0B8"/>
</linearGradient>
<linearGradient id="paint3_linear_105_1306" x1="50.3109" y1="101.665" x2="57.9531" y2="129.424" gradientUnits="userSpaceOnUse">
<stop stop-color="#FFF176"/>
<stop offset="1" stop-color="#00E0B8"/>
</linearGradient>
<linearGradient id="paint4_linear_105_1306" x1="73.9032" y1="22.7138" x2="74.9865" y2="29.8383" gradientUnits="userSpaceOnUse">
<stop stop-color="#FFF176"/>
<stop offset="1" stop-color="#00E0B8"/>
</linearGradient>
<linearGradient id="paint5_linear_105_1306" x1="68.2158" y1="139.312" x2="74.5837" y2="159.836" gradientUnits="userSpaceOnUse">
<stop stop-color="#FFF176"/>
<stop offset="1" stop-color="#00E0B8"/>
</linearGradient>
</defs>
</svg>
