<?xml version="1.0" encoding="utf-8"?>
<!-- Generator: Adobe Illustrator 26.0.3, SVG Export Plug-In . SVG Version: 6.00 Build 0)  -->
<svg version="1.1" id="圖層_1" xmlns="http://www.w3.org/2000/svg" xmlns:xlink="http://www.w3.org/1999/xlink" x="0px" y="0px"
	 viewBox="0 0 227 34" style="enable-background:new 0 0 227 34;" xml:space="preserve">
<style type="text/css">
	.st0{fill:#FFFFFF;filter:url(#Adobe_OpacityMaskFilter);}
	
		.st1{mask:url(#path-1-outside-1_324_623_00000080899863131410278090000011427109800262335645_);fill:none;stroke:url(#SVGID_1_);stroke-width:2;}
	.st2{fill:#FFFFFF;filter:url(#Adobe_OpacityMaskFilter_00000016758750805632571970000003666048154996722309_);}
	
		.st3{mask:url(#path-1-outside-1_324_623_00000067927212506857129850000012175719599196161939_);fill:none;stroke:url(#SVGID_00000079483703477946761230000000099700827668534697_);stroke-width:2;}
	.st4{fill:#FFFFFF;filter:url(#Adobe_OpacityMaskFilter_00000080886729789349728550000010938006477713106322_);}
	
		.st5{mask:url(#path-1-outside-1_324_623_00000118369470078804763590000010018941601241043342_);fill:none;stroke:url(#SVGID_00000018919655895407447370000000223155313617711774_);stroke-width:2;}
	.st6{fill:#FFFFFF;filter:url(#Adobe_OpacityMaskFilter_00000036230587109230869300000000182784174085576355_);}
	
		.st7{mask:url(#path-1-outside-1_324_623_00000175281977128820657120000001163455490454389176_);fill:none;stroke:url(#SVGID_00000116193303196364490100000000450700733080832919_);stroke-width:2;}
	.st8{fill:#FFFFFF;filter:url(#Adobe_OpacityMaskFilter_00000137816636398940770930000018252586629029062038_);}
	
		.st9{mask:url(#path-1-outside-1_324_623_00000064351651774715109240000007834857967321646268_);fill:none;stroke:url(#SVGID_00000102540034470021413560000000251519230554085285_);stroke-width:2;}
	.st10{fill:#FFFFFF;filter:url(#Adobe_OpacityMaskFilter_00000117667940998585426540000002048474977114515854_);}
	
		.st11{mask:url(#path-1-outside-1_324_623_00000177475142388747901810000003571893262618218417_);fill:none;stroke:url(#SVGID_00000020356438859334552290000014048235834776601020_);stroke-width:2;}
	.st12{fill:#FFFFFF;filter:url(#Adobe_OpacityMaskFilter_00000107561467442399516770000015086981677111247017_);}
	
		.st13{mask:url(#path-1-outside-1_324_623_00000175314437059053317700000005210025316721345173_);fill:none;stroke:url(#SVGID_00000096774548557231182440000013664711741849691556_);stroke-width:2;}
</style>
<path d="M15.8,3.4V6h15.8V3.4H15.8z M19.6,15.7h8.3v2.7h-8.3V15.7z M19.6,20.5h8.3v2.7h-8.3V20.5z M19.6,10.9h8.3v2.7h-8.3V10.9z
	 M16.9,8.6v16.8h13.8V8.6H16.9z M22.2,4.7c-0.2,1.5-0.6,3.7-0.9,5.2l2.6,0.5C24.4,9.1,25,7,25.6,5.1L22.2,4.7z M20.2,25.8
	c-1.2,1.4-3.8,3.1-6,4c0.6,0.5,1.5,1.4,2,2c2.3-1,5-2.7,6.6-4.4L20.2,25.8z M24.7,27.5c1.8,1.2,4,3.1,5.1,4.3l2.4-1.7
	C31,28.9,28.7,27.2,27,26L24.7,27.5z M4.3,24.6c2.3,1.9,5.2,4.8,6.6,6.8l2-1.9c-1.6-2-4.5-4.8-6.7-6.5L4.3,24.6z M3.4,17.1v2.5h10.1
	v-2.5H3.4z M9,1.8c-1.5,4-4.5,8.1-7.2,10.4c0.6,0.7,1.3,1.9,1.7,2.7c2.9-2.8,5.8-7.1,7.7-11.7L9,1.8z M13,17.1v0.6
	c-0.9,2.6-3.2,6.4-5,8.3c0.6,0.4,1.5,1.4,1.9,2.1c2-2.3,4.4-6.3,5.8-10l-1.9-1.2l-0.4,0.2H13z M8,5.8c2.3,2.3,5.1,5.5,6.4,7.5
	l1.5-2.4c-1.3-1.9-4.2-5-6.5-7.1L8,5.8z M5.6,11.8v2.6h7.5v-2.6H5.6z"/>
<path d="M49.4,6.3v2.9h11.4V6.3H49.4z M34.4,3.9v2.8h15.9V3.9H34.4z M38.4,10.5v2.7h8v-2.7H38.4z M38.4,17.1v2.7h8v-2.7H38.4z
	 M60,6.3V7c-1.2,10.9-5.6,18.6-12,21.9c0.7,0.6,1.5,1.7,2,2.5c7-4.2,11.6-11.8,13-24.7l-2-0.5l-0.5,0.1H60z M52.7,9.4l-2.9,0.5
	c2,9.9,5.6,17.5,12.4,21.5c0.5-0.8,1.4-2,2.1-2.5C58,25.5,54.4,18.2,52.7,9.4z M36.8,5v20.8h2.9V5H36.8z M45.2,5v26.6h2.9V5H45.2z
	 M33.7,24.9l0.6,3c3.3-0.5,7.9-1.2,12.2-2l-0.2-2.8C41.7,23.8,36.9,24.5,33.7,24.9z"/>
<path d="M82.4,19.3v8c0,2.9,0.9,3.8,4.3,3.8c0.7,0,4.2,0,4.9,0c2.9,0,3.8-1.2,4.1-5.9c-0.9-0.2-2.1-0.7-2.8-1.2
	c-0.1,3.7-0.4,4.3-1.6,4.3c-0.8,0-3.6,0-4.3,0c-1.4,0-1.6-0.1-1.6-1.2v-7.9H82.4z M75.2,1.9c-1.7,3.2-4.9,7.1-9.2,10
	c0.7,0.5,1.7,1.5,2.1,2.2c4.7-3.4,8-7.6,10.3-11.6L75.2,1.9z M72.7,12.7H90v5H72.7V12.7z M69.7,10.1v10.4h23.5V10.1H69.7z M84,4.3
	v0.6c-0.7,1.6-2.4,4.1-3.9,5.6c0.7,0.4,1.7,1,2.3,1.5c1.7-1.7,3.7-4.3,4.9-6.5l-2.1-1.3l-0.5,0.1H84z M75.1,4.3l-1.5,2.5h11.3V4.3
	H75.1z M79.6,11.8c-0.6,7.7-1.5,14.1-13.2,17c0.7,0.6,1.4,1.8,1.7,2.6c12.4-3.4,14-10.8,14.7-19.6H79.6z"/>
<path d="M102.6,7.1V9H125V3.6h-24.6v1.9h21.9v1.6H102.6z M101.7,7.1c-0.2,1.8-0.5,3.9-0.9,5.5h2.7c0.3-1.5,0.6-3.6,0.9-5.5H101.7z
	 M102.1,10.6l-0.6,1.9h23.6v-1.9H102.1z M124.2,10.6V11c-0.1,1.7-0.3,2.3-0.5,2.6c-0.2,0.2-0.4,0.2-0.7,0.2c-0.4,0-1.1,0-2-0.1
	c0.3,0.5,0.5,1.3,0.5,1.9c1.2,0.1,2.3,0.1,2.9,0c0.7,0,1.2-0.2,1.7-0.6c0.5-0.5,0.7-1.5,0.9-3.4c0-0.3,0-0.9,0-0.9H124.2z M108,2
	v6.1c0,3.2-1.1,5.8-9.5,7.1c0.5,0.5,1.2,1.7,1.4,2.3c9.4-1.6,10.8-5,10.8-9.4V2H108z M115.1,2v12.7h2.9V2H115.1z M105.6,19.9h15.1
	v1.7h-15.1V19.9z M105.6,23.3h15.1v1.7h-15.1V23.3z M105.6,16.5h15.1v1.7h-15.1V16.5z M102.7,14.7v12.2h21.1V14.7H102.7z
	 M115.7,28.1c3.6,1.1,7.2,2.5,9.3,3.6l2.2-1.9c-2.4-1-6.3-2.4-9.9-3.5L115.7,28.1z M108,26.7c-2.3,1.2-6.1,2.2-9.5,2.8
	c0.7,0.5,1.7,1.6,2.2,2.2c3.2-0.8,7.3-2.3,10-3.8L108,26.7z"/>
<path d="M142,18.4v2.7h17.3v-2.7H142z M152.9,19.9l-2.2,0.8c1.7,3.5,4.7,7.3,7.5,9.4c0.4-0.7,1.4-1.8,2.1-2.3
	C157.5,26.2,154.5,23,152.9,19.9z M145.8,10.8h9.9v2.8h-9.9V10.8z M145.8,5.7h9.9v2.8h-9.9V5.7z M143.1,3.3V16h15.4V3.3H143.1z
	 M148.6,19.8c-1.6,3.3-4.7,6.7-7.8,8.3c0.6,0.5,1.6,1.6,2,2.3c3.2-2,6.3-5.9,8-9.8L148.6,19.8z M149.4,4.5v10.4h-0.2v16.8h2.9V14.9
	H152V4.5H149.4z M131.5,11.7v2.3h9.6v-2.3H131.5z M131.5,16v2.3h9.6V16H131.5z M130.2,7.4v2.5h12V7.4H130.2z M132.8,20.3v2.5h5.9
	v4.6h-5.9v2.5h8.5v-9.5H132.8z M131.5,20.3v10.9h2.6V20.3H131.5z M133.7,3c0.9,1.3,1.9,3.2,2.3,4.4l2.4-1.4C138,4.9,137,3.2,136,1.9
	L133.7,3z"/>
<path d="M181.2,17.2v12.9h3V17.2H181.2z M173.4,28.3V31h18.2v-2.7H173.4z M175.1,22v2.6h15.2V22H175.1z M178.2,6.1h8.9v5.4h-8.9V6.1
	z M175.4,3.5v10.6h14.6V3.5H175.4z M188.8,14.9c-3.4,1-9.4,1.6-14.4,1.9c0.3,0.6,0.6,1.7,0.7,2.3c5.2-0.2,11.4-0.8,15.6-1.9
	L188.8,14.9z M167.4,4.8v26.8h2.9V4.8H167.4z M162.4,11v2.8h11.6V11H162.4z M167.6,12.1c-1.1,3.8-3.5,8.6-5.8,11.2
	c0.5,0.7,1.2,2,1.5,2.8c2.5-3,4.9-8.7,6.1-13.2L167.6,12.1z M172.4,2.4c-2.4,1.1-6.6,2-10.2,2.6c0.4,0.6,0.7,1.7,0.9,2.3
	c3.8-0.5,8.3-1.3,11.4-2.6L172.4,2.4z M170.2,15.3l-1.4,1.2c1,1.2,3.2,4.2,4,5.6l1.8-2.4C174,19,171,15.9,170.2,15.3z"/>
<path d="M202.8,18.4v2.6h11v-2.6H202.8z M200.8,18.4v8.7c0,3.3,1.3,4.1,5.8,4.1c1,0,7.5,0,8.5,0c3.9,0,4.8-1.1,5.3-5.5
	c-0.8-0.2-2.1-0.6-2.8-1.1c-0.3,3.4-0.6,3.9-2.7,3.9c-1.5,0-7.1,0-8.3,0c-2.5,0-3-0.2-3-1.4v-8.7H200.8z M212.8,18.4v0.4
	c-0.2,3.3-0.4,4.6-0.8,5c-0.3,0.2-0.5,0.3-1.1,0.3c-0.5,0-2,0-3.5-0.2c0.4,0.6,0.7,1.6,0.7,2.3c1.7,0.1,3.3,0.1,4.2,0
	c0.9-0.1,1.6-0.3,2.1-0.8c0.7-0.7,1-2.3,1.2-5.9c0.1-0.4,0.1-1.1,0.1-1.1H212.8z M194.9,12.8v2.7h28.3v-2.7H194.9z M196.8,7.1v2.6
	h24.2V7.1H196.8z M213.9,13l-2.6,0.9c2.3,4,6.4,7.3,11.1,8.9c0.4-0.8,1.3-1.9,2-2.5C219.8,19.1,215.8,16.3,213.9,13z M208.1,1.9
	c-0.9,7.1-4.9,14.5-14.2,18.4c0.7,0.5,1.5,1.7,1.9,2.5c9.8-4.4,14.1-12.4,15.5-20.6L208.1,1.9z M199.5,3.8c1,1.2,2.1,2.9,2.7,4
	l2.5-1.4c-0.5-1.1-1.8-2.7-2.8-3.8L199.5,3.8z M216.2,2.7c-0.7,1.5-2,3.7-3.1,5l2.3,0.8c1.1-1.2,2.4-3.1,3.6-4.9L216.2,2.7z"/>
<defs>
	<filter id="Adobe_OpacityMaskFilter" filterUnits="userSpaceOnUse" x="0.4" y="0.3" width="33.3" height="32.8">
		<feColorMatrix  type="matrix" values="1 0 0 0 0  0 1 0 0 0  0 0 1 0 0  0 0 0 1 0"/>
	</filter>
</defs>
<mask maskUnits="userSpaceOnUse" x="0.4" y="0.3" width="33.3" height="32.8" id="path-1-outside-1_324_623_00000080899863131410278090000011427109800262335645_">
	<rect x="-0.2" y="-0.2" class="st0" width="227" height="34"/>
	<path d="M15.8,3.4V6h15.8V3.4H15.8z M19.6,15.7h8.3v2.7h-8.3V15.7z M19.6,20.5h8.3v2.7h-8.3V20.5z M19.6,10.9h8.3v2.7h-8.3V10.9z
		 M16.9,8.6v16.8h13.8V8.6H16.9z M22.2,4.7c-0.2,1.5-0.6,3.7-0.9,5.2l2.6,0.5C24.4,9.1,25,7,25.6,5.1L22.2,4.7z M20.2,25.8
		c-1.2,1.4-3.8,3.1-6,4c0.6,0.5,1.5,1.4,2,2c2.3-1,5-2.7,6.6-4.4L20.2,25.8z M24.7,27.5c1.8,1.2,4,3.1,5.1,4.3l2.4-1.7
		C31,28.9,28.7,27.2,27,26L24.7,27.5z M4.3,24.6c2.3,1.9,5.2,4.8,6.6,6.8l2-1.9c-1.6-2-4.5-4.8-6.7-6.5L4.3,24.6z M3.4,17.1v2.5
		h10.1v-2.5H3.4z M9,1.8c-1.5,4-4.5,8.1-7.2,10.4c0.6,0.7,1.3,1.9,1.7,2.7c2.9-2.8,5.8-7.1,7.7-11.7L9,1.8z M13,17.1v0.6
		c-0.9,2.6-3.2,6.4-5,8.3c0.6,0.4,1.5,1.4,1.9,2.1c2-2.3,4.4-6.3,5.8-10l-1.9-1.2l-0.4,0.2H13z M8,5.8c2.3,2.3,5.1,5.5,6.4,7.5
		l1.5-2.4c-1.3-1.9-4.2-5-6.5-7.1L8,5.8z M5.6,11.8v2.6h7.5v-2.6H5.6z"/>
	<path d="M49.4,6.3v2.9h11.4V6.3H49.4z M34.4,3.9v2.8h15.9V3.9H34.4z M38.4,10.5v2.7h8v-2.7H38.4z M38.4,17.1v2.7h8v-2.7H38.4z
		 M60,6.3V7c-1.2,10.9-5.6,18.6-12,21.9c0.7,0.6,1.5,1.7,2,2.5c7-4.2,11.6-11.8,13-24.7l-2-0.5l-0.5,0.1H60z M52.7,9.4l-2.9,0.5
		c2,9.9,5.6,17.5,12.4,21.5c0.5-0.8,1.4-2,2.1-2.5C58,25.5,54.4,18.2,52.7,9.4z M36.8,5v20.8h2.9V5H36.8z M45.2,5v26.6h2.9V5H45.2z
		 M33.7,24.9l0.6,3c3.3-0.5,7.9-1.2,12.2-2l-0.2-2.8C41.7,23.8,36.9,24.5,33.7,24.9z"/>
	<path d="M82.4,19.3v8c0,2.9,0.9,3.8,4.3,3.8c0.7,0,4.2,0,4.9,0c2.9,0,3.8-1.2,4.1-5.9c-0.9-0.2-2.1-0.7-2.8-1.2
		c-0.1,3.7-0.4,4.3-1.6,4.3c-0.8,0-3.6,0-4.3,0c-1.4,0-1.6-0.1-1.6-1.2v-7.9H82.4z M75.2,1.9c-1.7,3.2-4.9,7.1-9.2,10
		c0.7,0.5,1.7,1.5,2.1,2.2c4.7-3.4,8-7.6,10.3-11.6L75.2,1.9z M72.7,12.7H90v5H72.7V12.7z M69.7,10.1v10.4h23.5V10.1H69.7z M84,4.3
		v0.6c-0.7,1.6-2.4,4.1-3.9,5.6c0.7,0.4,1.7,1,2.3,1.5c1.7-1.7,3.7-4.3,4.9-6.5l-2.1-1.3l-0.5,0.1H84z M75.1,4.3l-1.5,2.5h11.3V4.3
		H75.1z M79.6,11.8c-0.6,7.7-1.5,14.1-13.2,17c0.7,0.6,1.4,1.8,1.7,2.6c12.4-3.4,14-10.8,14.7-19.6H79.6z"/>
	<path d="M102.6,7.1V9H125V3.6h-24.6v1.9h21.9v1.6H102.6z M101.7,7.1c-0.2,1.8-0.5,3.9-0.9,5.5h2.7c0.3-1.5,0.6-3.6,0.9-5.5H101.7z
		 M102.1,10.6l-0.6,1.9h23.6v-1.9H102.1z M124.2,10.6V11c-0.1,1.7-0.3,2.3-0.5,2.6c-0.2,0.2-0.4,0.2-0.7,0.2c-0.4,0-1.1,0-2-0.1
		c0.3,0.5,0.5,1.3,0.5,1.9c1.2,0.1,2.3,0.1,2.9,0c0.7,0,1.2-0.2,1.7-0.6c0.5-0.5,0.7-1.5,0.9-3.4c0-0.3,0-0.9,0-0.9H124.2z M108,2
		v6.1c0,3.2-1.1,5.8-9.5,7.1c0.5,0.5,1.2,1.7,1.4,2.3c9.4-1.6,10.8-5,10.8-9.4V2H108z M115.1,2v12.7h2.9V2H115.1z M105.6,19.9h15.1
		v1.7h-15.1V19.9z M105.6,23.3h15.1v1.7h-15.1V23.3z M105.6,16.5h15.1v1.7h-15.1V16.5z M102.7,14.7v12.2h21.1V14.7H102.7z
		 M115.7,28.1c3.6,1.1,7.2,2.5,9.3,3.6l2.2-1.9c-2.4-1-6.3-2.4-9.9-3.5L115.7,28.1z M108,26.7c-2.3,1.2-6.1,2.2-9.5,2.8
		c0.7,0.5,1.7,1.6,2.2,2.2c3.2-0.8,7.3-2.3,10-3.8L108,26.7z"/>
	<path d="M142,18.4v2.7h17.3v-2.7H142z M152.9,19.9l-2.2,0.8c1.7,3.5,4.7,7.3,7.5,9.4c0.4-0.7,1.4-1.8,2.1-2.3
		C157.5,26.2,154.5,23,152.9,19.9z M145.8,10.8h9.9v2.8h-9.9V10.8z M145.8,5.7h9.9v2.8h-9.9V5.7z M143.1,3.3V16h15.4V3.3H143.1z
		 M148.6,19.8c-1.6,3.3-4.7,6.7-7.8,8.3c0.6,0.5,1.6,1.6,2,2.3c3.2-2,6.3-5.9,8-9.8L148.6,19.8z M149.4,4.5v10.4h-0.2v16.8h2.9V14.9
		H152V4.5H149.4z M131.5,11.7v2.3h9.6v-2.3H131.5z M131.5,16v2.3h9.6V16H131.5z M130.2,7.4v2.5h12V7.4H130.2z M132.8,20.3v2.5h5.9
		v4.6h-5.9v2.5h8.5v-9.5H132.8z M131.5,20.3v10.9h2.6V20.3H131.5z M133.7,3c0.9,1.3,1.9,3.2,2.3,4.4l2.4-1.4
		C138,4.9,137,3.2,136,1.9L133.7,3z"/>
	<path d="M181.2,17.2v12.9h3V17.2H181.2z M173.4,28.3V31h18.2v-2.7H173.4z M175.1,22v2.6h15.2V22H175.1z M178.2,6.1h8.9v5.4h-8.9
		V6.1z M175.4,3.5v10.6h14.6V3.5H175.4z M188.8,14.9c-3.4,1-9.4,1.6-14.4,1.9c0.3,0.6,0.6,1.7,0.7,2.3c5.2-0.2,11.4-0.8,15.6-1.9
		L188.8,14.9z M167.4,4.8v26.8h2.9V4.8H167.4z M162.4,11v2.8h11.6V11H162.4z M167.6,12.1c-1.1,3.8-3.5,8.6-5.8,11.2
		c0.5,0.7,1.2,2,1.5,2.8c2.5-3,4.9-8.7,6.1-13.2L167.6,12.1z M172.4,2.4c-2.4,1.1-6.6,2-10.2,2.6c0.4,0.6,0.7,1.7,0.9,2.3
		c3.8-0.5,8.3-1.3,11.4-2.6L172.4,2.4z M170.2,15.3l-1.4,1.2c1,1.2,3.2,4.2,4,5.6l1.8-2.4C174,19,171,15.9,170.2,15.3z"/>
	<path d="M202.8,18.4v2.6h11v-2.6H202.8z M200.8,18.4v8.7c0,3.3,1.3,4.1,5.8,4.1c1,0,7.5,0,8.5,0c3.9,0,4.8-1.1,5.3-5.5
		c-0.8-0.2-2.1-0.6-2.8-1.1c-0.3,3.4-0.6,3.9-2.7,3.9c-1.5,0-7.1,0-8.3,0c-2.5,0-3-0.2-3-1.4v-8.7H200.8z M212.8,18.4v0.4
		c-0.2,3.3-0.4,4.6-0.8,5c-0.3,0.2-0.5,0.3-1.1,0.3c-0.5,0-2,0-3.5-0.2c0.4,0.6,0.7,1.6,0.7,2.3c1.7,0.1,3.3,0.1,4.2,0
		c0.9-0.1,1.6-0.3,2.1-0.8c0.7-0.7,1-2.3,1.2-5.9c0.1-0.4,0.1-1.1,0.1-1.1H212.8z M194.9,12.8v2.7h28.3v-2.7H194.9z M196.8,7.1v2.6
		h24.2V7.1H196.8z M213.9,13l-2.6,0.9c2.3,4,6.4,7.3,11.1,8.9c0.4-0.8,1.3-1.9,2-2.5C219.8,19.1,215.8,16.3,213.9,13z M208.1,1.9
		c-0.9,7.1-4.9,14.5-14.2,18.4c0.7,0.5,1.5,1.7,1.9,2.5c9.8-4.4,14.1-12.4,15.5-20.6L208.1,1.9z M199.5,3.8c1,1.2,2.1,2.9,2.7,4
		l2.5-1.4c-0.5-1.1-1.8-2.7-2.8-3.8L199.5,3.8z M216.2,2.7c-0.7,1.5-2,3.7-3.1,5l2.3,0.8c1.1-1.2,2.4-3.1,3.6-4.9L216.2,2.7z"/>
</mask>
<linearGradient id="SVGID_1_" gradientUnits="userSpaceOnUse" x1="16.6385" y1="27.6554" x2="21.6977" y2="-12.6972" gradientTransform="matrix(1 0 0 -1 0 36)">
	<stop  offset="0" style="stop-color:#FFF176"/>
	<stop  offset="1" style="stop-color:#00E0B8"/>
</linearGradient>
<path class="st1" d="M15.8,3.4V6h15.8V3.4H15.8z M19.6,15.7h8.3v2.7h-8.3V15.7z M19.6,20.5h8.3v2.7h-8.3V20.5z M19.6,10.9h8.3v2.7
	h-8.3V10.9z M16.9,8.6v16.8h13.8V8.6H16.9z M22.2,4.7c-0.2,1.5-0.6,3.7-0.9,5.2l2.6,0.5C24.4,9.1,25,7,25.6,5.1L22.2,4.7z
	 M20.2,25.8c-1.2,1.4-3.8,3.1-6,4c0.6,0.5,1.5,1.4,2,2c2.3-1,5-2.7,6.6-4.4L20.2,25.8z M24.7,27.5c1.8,1.2,4,3.1,5.1,4.3l2.4-1.7
	C31,28.9,28.7,27.2,27,26L24.7,27.5z M4.3,24.6c2.3,1.9,5.2,4.8,6.6,6.8l2-1.9c-1.6-2-4.5-4.8-6.7-6.5L4.3,24.6z M3.4,17.1v2.5h10.1
	v-2.5H3.4z M9,1.8c-1.5,4-4.5,8.1-7.2,10.4c0.6,0.7,1.3,1.9,1.7,2.7c2.9-2.8,5.8-7.1,7.7-11.7L9,1.8z M13,17.1v0.6
	c-0.9,2.6-3.2,6.4-5,8.3c0.6,0.4,1.5,1.4,1.9,2.1c2-2.3,4.4-6.3,5.8-10l-1.9-1.2l-0.4,0.2H13z M8,5.8c2.3,2.3,5.1,5.5,6.4,7.5
	l1.5-2.4c-1.3-1.9-4.2-5-6.5-7.1L8,5.8z M5.6,11.8v2.6h7.5v-2.6H5.6z"/>
<defs>
	
		<filter id="Adobe_OpacityMaskFilter_00000122691033782649506250000004906745800866366594_" filterUnits="userSpaceOnUse" x="32.6" y="2.9" width="33.6" height="29.9">
		<feColorMatrix  type="matrix" values="1 0 0 0 0  0 1 0 0 0  0 0 1 0 0  0 0 0 1 0"/>
	</filter>
</defs>
<mask maskUnits="userSpaceOnUse" x="32.6" y="2.9" width="33.6" height="29.9" id="path-1-outside-1_324_623_00000067927212506857129850000012175719599196161939_">
	
		<rect x="-0.2" y="-0.2" style="fill:#FFFFFF;filter:url(#Adobe_OpacityMaskFilter_00000122691033782649506250000004906745800866366594_);" width="227" height="34"/>
	<path d="M15.8,3.4V6h15.8V3.4H15.8z M19.6,15.7h8.3v2.7h-8.3V15.7z M19.6,20.5h8.3v2.7h-8.3V20.5z M19.6,10.9h8.3v2.7h-8.3V10.9z
		 M16.9,8.6v16.8h13.8V8.6H16.9z M22.2,4.7c-0.2,1.5-0.6,3.7-0.9,5.2l2.6,0.5C24.4,9.1,25,7,25.6,5.1L22.2,4.7z M20.2,25.8
		c-1.2,1.4-3.8,3.1-6,4c0.6,0.5,1.5,1.4,2,2c2.3-1,5-2.7,6.6-4.4L20.2,25.8z M24.7,27.5c1.8,1.2,4,3.1,5.1,4.3l2.4-1.7
		C31,28.9,28.7,27.2,27,26L24.7,27.5z M4.3,24.6c2.3,1.9,5.2,4.8,6.6,6.8l2-1.9c-1.6-2-4.5-4.8-6.7-6.5L4.3,24.6z M3.4,17.1v2.5
		h10.1v-2.5H3.4z M9,1.8c-1.5,4-4.5,8.1-7.2,10.4c0.6,0.7,1.3,1.9,1.7,2.7c2.9-2.8,5.8-7.1,7.7-11.7L9,1.8z M13,17.1v0.6
		c-0.9,2.6-3.2,6.4-5,8.3c0.6,0.4,1.5,1.4,1.9,2.1c2-2.3,4.4-6.3,5.8-10l-1.9-1.2l-0.4,0.2H13z M8,5.8c2.3,2.3,5.1,5.5,6.4,7.5
		l1.5-2.4c-1.3-1.9-4.2-5-6.5-7.1L8,5.8z M5.6,11.8v2.6h7.5v-2.6H5.6z"/>
	<path d="M49.4,6.3v2.9h11.4V6.3H49.4z M34.4,3.9v2.8h15.9V3.9H34.4z M38.4,10.5v2.7h8v-2.7H38.4z M38.4,17.1v2.7h8v-2.7H38.4z
		 M60,6.3V7c-1.2,10.9-5.6,18.6-12,21.9c0.7,0.6,1.5,1.7,2,2.5c7-4.2,11.6-11.8,13-24.7l-2-0.5l-0.5,0.1H60z M52.7,9.4l-2.9,0.5
		c2,9.9,5.6,17.5,12.4,21.5c0.5-0.8,1.4-2,2.1-2.5C58,25.5,54.4,18.2,52.7,9.4z M36.8,5v20.8h2.9V5H36.8z M45.2,5v26.6h2.9V5H45.2z
		 M33.7,24.9l0.6,3c3.3-0.5,7.9-1.2,12.2-2l-0.2-2.8C41.7,23.8,36.9,24.5,33.7,24.9z"/>
	<path d="M82.4,19.3v8c0,2.9,0.9,3.8,4.3,3.8c0.7,0,4.2,0,4.9,0c2.9,0,3.8-1.2,4.1-5.9c-0.9-0.2-2.1-0.7-2.8-1.2
		c-0.1,3.7-0.4,4.3-1.6,4.3c-0.8,0-3.6,0-4.3,0c-1.4,0-1.6-0.1-1.6-1.2v-7.9H82.4z M75.2,1.9c-1.7,3.2-4.9,7.1-9.2,10
		c0.7,0.5,1.7,1.5,2.1,2.2c4.7-3.4,8-7.6,10.3-11.6L75.2,1.9z M72.7,12.7H90v5H72.7V12.7z M69.7,10.1v10.4h23.5V10.1H69.7z M84,4.3
		v0.6c-0.7,1.6-2.4,4.1-3.9,5.6c0.7,0.4,1.7,1,2.3,1.5c1.7-1.7,3.7-4.3,4.9-6.5l-2.1-1.3l-0.5,0.1H84z M75.1,4.3l-1.5,2.5h11.3V4.3
		H75.1z M79.6,11.8c-0.6,7.7-1.5,14.1-13.2,17c0.7,0.6,1.4,1.8,1.7,2.6c12.4-3.4,14-10.8,14.7-19.6H79.6z"/>
	<path d="M102.6,7.1V9H125V3.6h-24.6v1.9h21.9v1.6H102.6z M101.7,7.1c-0.2,1.8-0.5,3.9-0.9,5.5h2.7c0.3-1.5,0.6-3.6,0.9-5.5H101.7z
		 M102.1,10.6l-0.6,1.9h23.6v-1.9H102.1z M124.2,10.6V11c-0.1,1.7-0.3,2.3-0.5,2.6c-0.2,0.2-0.4,0.2-0.7,0.2c-0.4,0-1.1,0-2-0.1
		c0.3,0.5,0.5,1.3,0.5,1.9c1.2,0.1,2.3,0.1,2.9,0c0.7,0,1.2-0.2,1.7-0.6c0.5-0.5,0.7-1.5,0.9-3.4c0-0.3,0-0.9,0-0.9H124.2z M108,2
		v6.1c0,3.2-1.1,5.8-9.5,7.1c0.5,0.5,1.2,1.7,1.4,2.3c9.4-1.6,10.8-5,10.8-9.4V2H108z M115.1,2v12.7h2.9V2H115.1z M105.6,19.9h15.1
		v1.7h-15.1V19.9z M105.6,23.3h15.1v1.7h-15.1V23.3z M105.6,16.5h15.1v1.7h-15.1V16.5z M102.7,14.7v12.2h21.1V14.7H102.7z
		 M115.7,28.1c3.6,1.1,7.2,2.5,9.3,3.6l2.2-1.9c-2.4-1-6.3-2.4-9.9-3.5L115.7,28.1z M108,26.7c-2.3,1.2-6.1,2.2-9.5,2.8
		c0.7,0.5,1.7,1.6,2.2,2.2c3.2-0.8,7.3-2.3,10-3.8L108,26.7z"/>
	<path d="M142,18.4v2.7h17.3v-2.7H142z M152.9,19.9l-2.2,0.8c1.7,3.5,4.7,7.3,7.5,9.4c0.4-0.7,1.4-1.8,2.1-2.3
		C157.5,26.2,154.5,23,152.9,19.9z M145.8,10.8h9.9v2.8h-9.9V10.8z M145.8,5.7h9.9v2.8h-9.9V5.7z M143.1,3.3V16h15.4V3.3H143.1z
		 M148.6,19.8c-1.6,3.3-4.7,6.7-7.8,8.3c0.6,0.5,1.6,1.6,2,2.3c3.2-2,6.3-5.9,8-9.8L148.6,19.8z M149.4,4.5v10.4h-0.2v16.8h2.9V14.9
		H152V4.5H149.4z M131.5,11.7v2.3h9.6v-2.3H131.5z M131.5,16v2.3h9.6V16H131.5z M130.2,7.4v2.5h12V7.4H130.2z M132.8,20.3v2.5h5.9
		v4.6h-5.9v2.5h8.5v-9.5H132.8z M131.5,20.3v10.9h2.6V20.3H131.5z M133.7,3c0.9,1.3,1.9,3.2,2.3,4.4l2.4-1.4
		C138,4.9,137,3.2,136,1.9L133.7,3z"/>
	<path d="M181.2,17.2v12.9h3V17.2H181.2z M173.4,28.3V31h18.2v-2.7H173.4z M175.1,22v2.6h15.2V22H175.1z M178.2,6.1h8.9v5.4h-8.9
		V6.1z M175.4,3.5v10.6h14.6V3.5H175.4z M188.8,14.9c-3.4,1-9.4,1.6-14.4,1.9c0.3,0.6,0.6,1.7,0.7,2.3c5.2-0.2,11.4-0.8,15.6-1.9
		L188.8,14.9z M167.4,4.8v26.8h2.9V4.8H167.4z M162.4,11v2.8h11.6V11H162.4z M167.6,12.1c-1.1,3.8-3.5,8.6-5.8,11.2
		c0.5,0.7,1.2,2,1.5,2.8c2.5-3,4.9-8.7,6.1-13.2L167.6,12.1z M172.4,2.4c-2.4,1.1-6.6,2-10.2,2.6c0.4,0.6,0.7,1.7,0.9,2.3
		c3.8-0.5,8.3-1.3,11.4-2.6L172.4,2.4z M170.2,15.3l-1.4,1.2c1,1.2,3.2,4.2,4,5.6l1.8-2.4C174,19,171,15.9,170.2,15.3z"/>
	<path d="M202.8,18.4v2.6h11v-2.6H202.8z M200.8,18.4v8.7c0,3.3,1.3,4.1,5.8,4.1c1,0,7.5,0,8.5,0c3.9,0,4.8-1.1,5.3-5.5
		c-0.8-0.2-2.1-0.6-2.8-1.1c-0.3,3.4-0.6,3.9-2.7,3.9c-1.5,0-7.1,0-8.3,0c-2.5,0-3-0.2-3-1.4v-8.7H200.8z M212.8,18.4v0.4
		c-0.2,3.3-0.4,4.6-0.8,5c-0.3,0.2-0.5,0.3-1.1,0.3c-0.5,0-2,0-3.5-0.2c0.4,0.6,0.7,1.6,0.7,2.3c1.7,0.1,3.3,0.1,4.2,0
		c0.9-0.1,1.6-0.3,2.1-0.8c0.7-0.7,1-2.3,1.2-5.9c0.1-0.4,0.1-1.1,0.1-1.1H212.8z M194.9,12.8v2.7h28.3v-2.7H194.9z M196.8,7.1v2.6
		h24.2V7.1H196.8z M213.9,13l-2.6,0.9c2.3,4,6.4,7.3,11.1,8.9c0.4-0.8,1.3-1.9,2-2.5C219.8,19.1,215.8,16.3,213.9,13z M208.1,1.9
		c-0.9,7.1-4.9,14.5-14.2,18.4c0.7,0.5,1.5,1.7,1.9,2.5c9.8-4.4,14.1-12.4,15.5-20.6L208.1,1.9z M199.5,3.8c1,1.2,2.1,2.9,2.7,4
		l2.5-1.4c-0.5-1.1-1.8-2.7-2.8-3.8L199.5,3.8z M216.2,2.7c-0.7,1.5-2,3.7-3.1,5l2.3,0.8c1.1-1.2,2.4-3.1,3.6-4.9L216.2,2.7z"/>
</mask>
<linearGradient id="SVGID_00000166677779163848220470000001427831972710288289_" gradientUnits="userSpaceOnUse" x1="47.035" y1="31.4663" x2="52.0942" y2="-8.8863" gradientTransform="matrix(1 0 0 -1 0 36)">
	<stop  offset="0" style="stop-color:#FFF176"/>
	<stop  offset="1" style="stop-color:#00E0B8"/>
</linearGradient>
<path style="mask:url(#path-1-outside-1_324_623_00000067927212506857129850000012175719599196161939_);fill:none;stroke:url(#SVGID_00000166677779163848220470000001427831972710288289_);stroke-width:2;" d="
	M49.4,6.3v2.9h11.4V6.3H49.4z M34.4,3.9v2.8h15.9V3.9H34.4z M38.4,10.5v2.7h8v-2.7H38.4z M38.4,17.1v2.7h8v-2.7H38.4z M60,6.3V7
	c-1.2,10.9-5.6,18.6-12,21.9c0.7,0.6,1.5,1.7,2,2.5c7-4.2,11.6-11.8,13-24.7l-2-0.5l-0.5,0.1H60z M52.7,9.4l-2.9,0.5
	c2,9.9,5.6,17.5,12.4,21.5c0.5-0.8,1.4-2,2.1-2.5C58,25.5,54.4,18.2,52.7,9.4z M36.8,5v20.8h2.9V5H36.8z M45.2,5v26.6h2.9V5H45.2z
	 M33.7,24.9l0.6,3c3.3-0.5,7.9-1.2,12.2-2l-0.2-2.8C41.7,23.8,36.9,24.5,33.7,24.9z"/>
<defs>
	
		<filter id="Adobe_OpacityMaskFilter_00000122714830505050553830000017559377505258128828_" filterUnits="userSpaceOnUse" x="64.2" y="0.8" width="32.6" height="31.9">
		<feColorMatrix  type="matrix" values="1 0 0 0 0  0 1 0 0 0  0 0 1 0 0  0 0 0 1 0"/>
	</filter>
</defs>
<mask maskUnits="userSpaceOnUse" x="64.2" y="0.8" width="32.6" height="31.9" id="path-1-outside-1_324_623_00000118369470078804763590000010018941601241043342_">
	
		<rect x="-0.2" y="-0.2" style="fill:#FFFFFF;filter:url(#Adobe_OpacityMaskFilter_00000122714830505050553830000017559377505258128828_);" width="227" height="34"/>
	<path d="M15.8,3.4V6h15.8V3.4H15.8z M19.6,15.7h8.3v2.7h-8.3V15.7z M19.6,20.5h8.3v2.7h-8.3V20.5z M19.6,10.9h8.3v2.7h-8.3V10.9z
		 M16.9,8.6v16.8h13.8V8.6H16.9z M22.2,4.7c-0.2,1.5-0.6,3.7-0.9,5.2l2.6,0.5C24.4,9.1,25,7,25.6,5.1L22.2,4.7z M20.2,25.8
		c-1.2,1.4-3.8,3.1-6,4c0.6,0.5,1.5,1.4,2,2c2.3-1,5-2.7,6.6-4.4L20.2,25.8z M24.7,27.5c1.8,1.2,4,3.1,5.1,4.3l2.4-1.7
		C31,28.9,28.7,27.2,27,26L24.7,27.5z M4.3,24.6c2.3,1.9,5.2,4.8,6.6,6.8l2-1.9c-1.6-2-4.5-4.8-6.7-6.5L4.3,24.6z M3.4,17.1v2.5
		h10.1v-2.5H3.4z M9,1.8c-1.5,4-4.5,8.1-7.2,10.4c0.6,0.7,1.3,1.9,1.7,2.7c2.9-2.8,5.8-7.1,7.7-11.7L9,1.8z M13,17.1v0.6
		c-0.9,2.6-3.2,6.4-5,8.3c0.6,0.4,1.5,1.4,1.9,2.1c2-2.3,4.4-6.3,5.8-10l-1.9-1.2l-0.4,0.2H13z M8,5.8c2.3,2.3,5.1,5.5,6.4,7.5
		l1.5-2.4c-1.3-1.9-4.2-5-6.5-7.1L8,5.8z M5.6,11.8v2.6h7.5v-2.6H5.6z"/>
	<path d="M49.4,6.3v2.9h11.4V6.3H49.4z M34.4,3.9v2.8h15.9V3.9H34.4z M38.4,10.5v2.7h8v-2.7H38.4z M38.4,17.1v2.7h8v-2.7H38.4z
		 M60,6.3V7c-1.2,10.9-5.6,18.6-12,21.9c0.7,0.6,1.5,1.7,2,2.5c7-4.2,11.6-11.8,13-24.7l-2-0.5l-0.5,0.1H60z M52.7,9.4l-2.9,0.5
		c2,9.9,5.6,17.5,12.4,21.5c0.5-0.8,1.4-2,2.1-2.5C58,25.5,54.4,18.2,52.7,9.4z M36.8,5v20.8h2.9V5H36.8z M45.2,5v26.6h2.9V5H45.2z
		 M33.7,24.9l0.6,3c3.3-0.5,7.9-1.2,12.2-2l-0.2-2.8C41.7,23.8,36.9,24.5,33.7,24.9z"/>
	<path d="M82.4,19.3v8c0,2.9,0.9,3.8,4.3,3.8c0.7,0,4.2,0,4.9,0c2.9,0,3.8-1.2,4.1-5.9c-0.9-0.2-2.1-0.7-2.8-1.2
		c-0.1,3.7-0.4,4.3-1.6,4.3c-0.8,0-3.6,0-4.3,0c-1.4,0-1.6-0.1-1.6-1.2v-7.9H82.4z M75.2,1.9c-1.7,3.2-4.9,7.1-9.2,10
		c0.7,0.5,1.7,1.5,2.1,2.2c4.7-3.4,8-7.6,10.3-11.6L75.2,1.9z M72.7,12.7H90v5H72.7V12.7z M69.7,10.1v10.4h23.5V10.1H69.7z M84,4.3
		v0.6c-0.7,1.6-2.4,4.1-3.9,5.6c0.7,0.4,1.7,1,2.3,1.5c1.7-1.7,3.7-4.3,4.9-6.5l-2.1-1.3l-0.5,0.1H84z M75.1,4.3l-1.5,2.5h11.3V4.3
		H75.1z M79.6,11.8c-0.6,7.7-1.5,14.1-13.2,17c0.7,0.6,1.4,1.8,1.7,2.6c12.4-3.4,14-10.8,14.7-19.6H79.6z"/>
	<path d="M102.6,7.1V9H125V3.6h-24.6v1.9h21.9v1.6H102.6z M101.7,7.1c-0.2,1.8-0.5,3.9-0.9,5.5h2.7c0.3-1.5,0.6-3.6,0.9-5.5H101.7z
		 M102.1,10.6l-0.6,1.9h23.6v-1.9H102.1z M124.2,10.6V11c-0.1,1.7-0.3,2.3-0.5,2.6c-0.2,0.2-0.4,0.2-0.7,0.2c-0.4,0-1.1,0-2-0.1
		c0.3,0.5,0.5,1.3,0.5,1.9c1.2,0.1,2.3,0.1,2.9,0c0.7,0,1.2-0.2,1.7-0.6c0.5-0.5,0.7-1.5,0.9-3.4c0-0.3,0-0.9,0-0.9H124.2z M108,2
		v6.1c0,3.2-1.1,5.8-9.5,7.1c0.5,0.5,1.2,1.7,1.4,2.3c9.4-1.6,10.8-5,10.8-9.4V2H108z M115.1,2v12.7h2.9V2H115.1z M105.6,19.9h15.1
		v1.7h-15.1V19.9z M105.6,23.3h15.1v1.7h-15.1V23.3z M105.6,16.5h15.1v1.7h-15.1V16.5z M102.7,14.7v12.2h21.1V14.7H102.7z
		 M115.7,28.1c3.6,1.1,7.2,2.5,9.3,3.6l2.2-1.9c-2.4-1-6.3-2.4-9.9-3.5L115.7,28.1z M108,26.7c-2.3,1.2-6.1,2.2-9.5,2.8
		c0.7,0.5,1.7,1.6,2.2,2.2c3.2-0.8,7.3-2.3,10-3.8L108,26.7z"/>
	<path d="M142,18.4v2.7h17.3v-2.7H142z M152.9,19.9l-2.2,0.8c1.7,3.5,4.7,7.3,7.5,9.4c0.4-0.7,1.4-1.8,2.1-2.3
		C157.5,26.2,154.5,23,152.9,19.9z M145.8,10.8h9.9v2.8h-9.9V10.8z M145.8,5.7h9.9v2.8h-9.9V5.7z M143.1,3.3V16h15.4V3.3H143.1z
		 M148.6,19.8c-1.6,3.3-4.7,6.7-7.8,8.3c0.6,0.5,1.6,1.6,2,2.3c3.2-2,6.3-5.9,8-9.8L148.6,19.8z M149.4,4.5v10.4h-0.2v16.8h2.9V14.9
		H152V4.5H149.4z M131.5,11.7v2.3h9.6v-2.3H131.5z M131.5,16v2.3h9.6V16H131.5z M130.2,7.4v2.5h12V7.4H130.2z M132.8,20.3v2.5h5.9
		v4.6h-5.9v2.5h8.5v-9.5H132.8z M131.5,20.3v10.9h2.6V20.3H131.5z M133.7,3c0.9,1.3,1.9,3.2,2.3,4.4l2.4-1.4
		C138,4.9,137,3.2,136,1.9L133.7,3z"/>
	<path d="M181.2,17.2v12.9h3V17.2H181.2z M173.4,28.3V31h18.2v-2.7H173.4z M175.1,22v2.6h15.2V22H175.1z M178.2,6.1h8.9v5.4h-8.9
		V6.1z M175.4,3.5v10.6h14.6V3.5H175.4z M188.8,14.9c-3.4,1-9.4,1.6-14.4,1.9c0.3,0.6,0.6,1.7,0.7,2.3c5.2-0.2,11.4-0.8,15.6-1.9
		L188.8,14.9z M167.4,4.8v26.8h2.9V4.8H167.4z M162.4,11v2.8h11.6V11H162.4z M167.6,12.1c-1.1,3.8-3.5,8.6-5.8,11.2
		c0.5,0.7,1.2,2,1.5,2.8c2.5-3,4.9-8.7,6.1-13.2L167.6,12.1z M172.4,2.4c-2.4,1.1-6.6,2-10.2,2.6c0.4,0.6,0.7,1.7,0.9,2.3
		c3.8-0.5,8.3-1.3,11.4-2.6L172.4,2.4z M170.2,15.3l-1.4,1.2c1,1.2,3.2,4.2,4,5.6l1.8-2.4C174,19,171,15.9,170.2,15.3z"/>
	<path d="M202.8,18.4v2.6h11v-2.6H202.8z M200.8,18.4v8.7c0,3.3,1.3,4.1,5.8,4.1c1,0,7.5,0,8.5,0c3.9,0,4.8-1.1,5.3-5.5
		c-0.8-0.2-2.1-0.6-2.8-1.1c-0.3,3.4-0.6,3.9-2.7,3.9c-1.5,0-7.1,0-8.3,0c-2.5,0-3-0.2-3-1.4v-8.7H200.8z M212.8,18.4v0.4
		c-0.2,3.3-0.4,4.6-0.8,5c-0.3,0.2-0.5,0.3-1.1,0.3c-0.5,0-2,0-3.5-0.2c0.4,0.6,0.7,1.6,0.7,2.3c1.7,0.1,3.3,0.1,4.2,0
		c0.9-0.1,1.6-0.3,2.1-0.8c0.7-0.7,1-2.3,1.2-5.9c0.1-0.4,0.1-1.1,0.1-1.1H212.8z M194.9,12.8v2.7h28.3v-2.7H194.9z M196.8,7.1v2.6
		h24.2V7.1H196.8z M213.9,13l-2.6,0.9c2.3,4,6.4,7.3,11.1,8.9c0.4-0.8,1.3-1.9,2-2.5C219.8,19.1,215.8,16.3,213.9,13z M208.1,1.9
		c-0.9,7.1-4.9,14.5-14.2,18.4c0.7,0.5,1.5,1.7,1.9,2.5c9.8-4.4,14.1-12.4,15.5-20.6L208.1,1.9z M199.5,3.8c1,1.2,2.1,2.9,2.7,4
		l2.5-1.4c-0.5-1.1-1.8-2.7-2.8-3.8L199.5,3.8z M216.2,2.7c-0.7,1.5-2,3.7-3.1,5l2.3,0.8c1.1-1.2,2.4-3.1,3.6-4.9L216.2,2.7z"/>
</mask>
<linearGradient id="SVGID_00000131326686704585052970000013760031889516329375_" gradientUnits="userSpaceOnUse" x1="77.4062" y1="35.2741" x2="82.4654" y2="-5.0785" gradientTransform="matrix(1 0 0 -1 0 36)">
	<stop  offset="0" style="stop-color:#FFF176"/>
	<stop  offset="1" style="stop-color:#00E0B8"/>
</linearGradient>
<path style="mask:url(#path-1-outside-1_324_623_00000118369470078804763590000010018941601241043342_);fill:none;stroke:url(#SVGID_00000131326686704585052970000013760031889516329375_);stroke-width:2;" d="
	M82.4,19.3v8c0,2.9,0.9,3.8,4.3,3.8c0.7,0,4.2,0,4.9,0c2.9,0,3.8-1.2,4.1-5.9c-0.9-0.2-2.1-0.7-2.8-1.2c-0.1,3.7-0.4,4.3-1.6,4.3
	c-0.8,0-3.6,0-4.3,0c-1.4,0-1.6-0.1-1.6-1.2v-7.9H82.4z M75.2,1.9c-1.7,3.2-4.9,7.1-9.2,10c0.7,0.5,1.7,1.5,2.1,2.2
	c4.7-3.4,8-7.6,10.3-11.6L75.2,1.9z M72.7,12.7H90v5H72.7V12.7z M69.7,10.1v10.4h23.5V10.1H69.7z M84,4.3v0.6
	c-0.7,1.6-2.4,4.1-3.9,5.6c0.7,0.4,1.7,1,2.3,1.5c1.7-1.7,3.7-4.3,4.9-6.5l-2.1-1.3l-0.5,0.1H84z M75.1,4.3l-1.5,2.5h11.3V4.3H75.1z
	 M79.6,11.8c-0.6,7.7-1.5,14.1-13.2,17c0.7,0.6,1.4,1.8,1.7,2.6c12.4-3.4,14-10.8,14.7-19.6H79.6z"/>
<defs>
	
		<filter id="Adobe_OpacityMaskFilter_00000182497960884212187290000005868835414955240094_" filterUnits="userSpaceOnUse" x="96.1" y="1" width="33" height="31.9">
		<feColorMatrix  type="matrix" values="1 0 0 0 0  0 1 0 0 0  0 0 1 0 0  0 0 0 1 0"/>
	</filter>
</defs>
<mask maskUnits="userSpaceOnUse" x="96.1" y="1" width="33" height="31.9" id="path-1-outside-1_324_623_00000175281977128820657120000001163455490454389176_">
	
		<rect x="-0.2" y="-0.2" style="fill:#FFFFFF;filter:url(#Adobe_OpacityMaskFilter_00000182497960884212187290000005868835414955240094_);" width="227" height="34"/>
	<path d="M15.8,3.4V6h15.8V3.4H15.8z M19.6,15.7h8.3v2.7h-8.3V15.7z M19.6,20.5h8.3v2.7h-8.3V20.5z M19.6,10.9h8.3v2.7h-8.3V10.9z
		 M16.9,8.6v16.8h13.8V8.6H16.9z M22.2,4.7c-0.2,1.5-0.6,3.7-0.9,5.2l2.6,0.5C24.4,9.1,25,7,25.6,5.1L22.2,4.7z M20.2,25.8
		c-1.2,1.4-3.8,3.1-6,4c0.6,0.5,1.5,1.4,2,2c2.3-1,5-2.7,6.6-4.4L20.2,25.8z M24.7,27.5c1.8,1.2,4,3.1,5.1,4.3l2.4-1.7
		C31,28.9,28.7,27.2,27,26L24.7,27.5z M4.3,24.6c2.3,1.9,5.2,4.8,6.6,6.8l2-1.9c-1.6-2-4.5-4.8-6.7-6.5L4.3,24.6z M3.4,17.1v2.5
		h10.1v-2.5H3.4z M9,1.8c-1.5,4-4.5,8.1-7.2,10.4c0.6,0.7,1.3,1.9,1.7,2.7c2.9-2.8,5.8-7.1,7.7-11.7L9,1.8z M13,17.1v0.6
		c-0.9,2.6-3.2,6.4-5,8.3c0.6,0.4,1.5,1.4,1.9,2.1c2-2.3,4.4-6.3,5.8-10l-1.9-1.2l-0.4,0.2H13z M8,5.8c2.3,2.3,5.1,5.5,6.4,7.5
		l1.5-2.4c-1.3-1.9-4.2-5-6.5-7.1L8,5.8z M5.6,11.8v2.6h7.5v-2.6H5.6z"/>
	<path d="M49.4,6.3v2.9h11.4V6.3H49.4z M34.4,3.9v2.8h15.9V3.9H34.4z M38.4,10.5v2.7h8v-2.7H38.4z M38.4,17.1v2.7h8v-2.7H38.4z
		 M60,6.3V7c-1.2,10.9-5.6,18.6-12,21.9c0.7,0.6,1.5,1.7,2,2.5c7-4.2,11.6-11.8,13-24.7l-2-0.5l-0.5,0.1H60z M52.7,9.4l-2.9,0.5
		c2,9.9,5.6,17.5,12.4,21.5c0.5-0.8,1.4-2,2.1-2.5C58,25.5,54.4,18.2,52.7,9.4z M36.8,5v20.8h2.9V5H36.8z M45.2,5v26.6h2.9V5H45.2z
		 M33.7,24.9l0.6,3c3.3-0.5,7.9-1.2,12.2-2l-0.2-2.8C41.7,23.8,36.9,24.5,33.7,24.9z"/>
	<path d="M82.4,19.3v8c0,2.9,0.9,3.8,4.3,3.8c0.7,0,4.2,0,4.9,0c2.9,0,3.8-1.2,4.1-5.9c-0.9-0.2-2.1-0.7-2.8-1.2
		c-0.1,3.7-0.4,4.3-1.6,4.3c-0.8,0-3.6,0-4.3,0c-1.4,0-1.6-0.1-1.6-1.2v-7.9H82.4z M75.2,1.9c-1.7,3.2-4.9,7.1-9.2,10
		c0.7,0.5,1.7,1.5,2.1,2.2c4.7-3.4,8-7.6,10.3-11.6L75.2,1.9z M72.7,12.7H90v5H72.7V12.7z M69.7,10.1v10.4h23.5V10.1H69.7z M84,4.3
		v0.6c-0.7,1.6-2.4,4.1-3.9,5.6c0.7,0.4,1.7,1,2.3,1.5c1.7-1.7,3.7-4.3,4.9-6.5l-2.1-1.3l-0.5,0.1H84z M75.1,4.3l-1.5,2.5h11.3V4.3
		H75.1z M79.6,11.8c-0.6,7.7-1.5,14.1-13.2,17c0.7,0.6,1.4,1.8,1.7,2.6c12.4-3.4,14-10.8,14.7-19.6H79.6z"/>
	<path d="M102.6,7.1V9H125V3.6h-24.6v1.9h21.9v1.6H102.6z M101.7,7.1c-0.2,1.8-0.5,3.9-0.9,5.5h2.7c0.3-1.5,0.6-3.6,0.9-5.5H101.7z
		 M102.1,10.6l-0.6,1.9h23.6v-1.9H102.1z M124.2,10.6V11c-0.1,1.7-0.3,2.3-0.5,2.6c-0.2,0.2-0.4,0.2-0.7,0.2c-0.4,0-1.1,0-2-0.1
		c0.3,0.5,0.5,1.3,0.5,1.9c1.2,0.1,2.3,0.1,2.9,0c0.7,0,1.2-0.2,1.7-0.6c0.5-0.5,0.7-1.5,0.9-3.4c0-0.3,0-0.9,0-0.9H124.2z M108,2
		v6.1c0,3.2-1.1,5.8-9.5,7.1c0.5,0.5,1.2,1.7,1.4,2.3c9.4-1.6,10.8-5,10.8-9.4V2H108z M115.1,2v12.7h2.9V2H115.1z M105.6,19.9h15.1
		v1.7h-15.1V19.9z M105.6,23.3h15.1v1.7h-15.1V23.3z M105.6,16.5h15.1v1.7h-15.1V16.5z M102.7,14.7v12.2h21.1V14.7H102.7z
		 M115.7,28.1c3.6,1.1,7.2,2.5,9.3,3.6l2.2-1.9c-2.4-1-6.3-2.4-9.9-3.5L115.7,28.1z M108,26.7c-2.3,1.2-6.1,2.2-9.5,2.8
		c0.7,0.5,1.7,1.6,2.2,2.2c3.2-0.8,7.3-2.3,10-3.8L108,26.7z"/>
	<path d="M142,18.4v2.7h17.3v-2.7H142z M152.9,19.9l-2.2,0.8c1.7,3.5,4.7,7.3,7.5,9.4c0.4-0.7,1.4-1.8,2.1-2.3
		C157.5,26.2,154.5,23,152.9,19.9z M145.8,10.8h9.9v2.8h-9.9V10.8z M145.8,5.7h9.9v2.8h-9.9V5.7z M143.1,3.3V16h15.4V3.3H143.1z
		 M148.6,19.8c-1.6,3.3-4.7,6.7-7.8,8.3c0.6,0.5,1.6,1.6,2,2.3c3.2-2,6.3-5.9,8-9.8L148.6,19.8z M149.4,4.5v10.4h-0.2v16.8h2.9V14.9
		H152V4.5H149.4z M131.5,11.7v2.3h9.6v-2.3H131.5z M131.5,16v2.3h9.6V16H131.5z M130.2,7.4v2.5h12V7.4H130.2z M132.8,20.3v2.5h5.9
		v4.6h-5.9v2.5h8.5v-9.5H132.8z M131.5,20.3v10.9h2.6V20.3H131.5z M133.7,3c0.9,1.3,1.9,3.2,2.3,4.4l2.4-1.4
		C138,4.9,137,3.2,136,1.9L133.7,3z"/>
	<path d="M181.2,17.2v12.9h3V17.2H181.2z M173.4,28.3V31h18.2v-2.7H173.4z M175.1,22v2.6h15.2V22H175.1z M178.2,6.1h8.9v5.4h-8.9
		V6.1z M175.4,3.5v10.6h14.6V3.5H175.4z M188.8,14.9c-3.4,1-9.4,1.6-14.4,1.9c0.3,0.6,0.6,1.7,0.7,2.3c5.2-0.2,11.4-0.8,15.6-1.9
		L188.8,14.9z M167.4,4.8v26.8h2.9V4.8H167.4z M162.4,11v2.8h11.6V11H162.4z M167.6,12.1c-1.1,3.8-3.5,8.6-5.8,11.2
		c0.5,0.7,1.2,2,1.5,2.8c2.5-3,4.9-8.7,6.1-13.2L167.6,12.1z M172.4,2.4c-2.4,1.1-6.6,2-10.2,2.6c0.4,0.6,0.7,1.7,0.9,2.3
		c3.8-0.5,8.3-1.3,11.4-2.6L172.4,2.4z M170.2,15.3l-1.4,1.2c1,1.2,3.2,4.2,4,5.6l1.8-2.4C174,19,171,15.9,170.2,15.3z"/>
	<path d="M202.8,18.4v2.6h11v-2.6H202.8z M200.8,18.4v8.7c0,3.3,1.3,4.1,5.8,4.1c1,0,7.5,0,8.5,0c3.9,0,4.8-1.1,5.3-5.5
		c-0.8-0.2-2.1-0.6-2.8-1.1c-0.3,3.4-0.6,3.9-2.7,3.9c-1.5,0-7.1,0-8.3,0c-2.5,0-3-0.2-3-1.4v-8.7H200.8z M212.8,18.4v0.4
		c-0.2,3.3-0.4,4.6-0.8,5c-0.3,0.2-0.5,0.3-1.1,0.3c-0.5,0-2,0-3.5-0.2c0.4,0.6,0.7,1.6,0.7,2.3c1.7,0.1,3.3,0.1,4.2,0
		c0.9-0.1,1.6-0.3,2.1-0.8c0.7-0.7,1-2.3,1.2-5.9c0.1-0.4,0.1-1.1,0.1-1.1H212.8z M194.9,12.8v2.7h28.3v-2.7H194.9z M196.8,7.1v2.6
		h24.2V7.1H196.8z M213.9,13l-2.6,0.9c2.3,4,6.4,7.3,11.1,8.9c0.4-0.8,1.3-1.9,2-2.5C219.8,19.1,215.8,16.3,213.9,13z M208.1,1.9
		c-0.9,7.1-4.9,14.5-14.2,18.4c0.7,0.5,1.5,1.7,1.9,2.5c9.8-4.4,14.1-12.4,15.5-20.6L208.1,1.9z M199.5,3.8c1,1.2,2.1,2.9,2.7,4
		l2.5-1.4c-0.5-1.1-1.8-2.7-2.8-3.8L199.5,3.8z M216.2,2.7c-0.7,1.5-2,3.7-3.1,5l2.3,0.8c1.1-1.2,2.4-3.1,3.6-4.9L216.2,2.7z"/>
</mask>
<linearGradient id="SVGID_00000173849903100127773700000016440361799471002301_" gradientUnits="userSpaceOnUse" x1="109.2875" y1="39.2712" x2="114.3467" y2="-1.0814" gradientTransform="matrix(1 0 0 -1 0 36)">
	<stop  offset="0" style="stop-color:#FFF176"/>
	<stop  offset="1" style="stop-color:#00E0B8"/>
</linearGradient>
<path style="mask:url(#path-1-outside-1_324_623_00000175281977128820657120000001163455490454389176_);fill:none;stroke:url(#SVGID_00000173849903100127773700000016440361799471002301_);stroke-width:2;" d="
	M102.6,7.1V9H125V3.6h-24.6v1.9h21.9v1.6H102.6z M101.7,7.1c-0.2,1.8-0.5,3.9-0.9,5.5h2.7c0.3-1.5,0.6-3.6,0.9-5.5H101.7z
	 M102.1,10.6l-0.6,1.9h23.6v-1.9H102.1z M124.2,10.6V11c-0.1,1.7-0.3,2.3-0.5,2.6c-0.2,0.2-0.4,0.2-0.7,0.2c-0.4,0-1.1,0-2-0.1
	c0.3,0.5,0.5,1.3,0.5,1.9c1.2,0.1,2.3,0.1,2.9,0c0.7,0,1.2-0.2,1.7-0.6c0.5-0.5,0.7-1.5,0.9-3.4c0-0.3,0-0.9,0-0.9H124.2z M108,2
	v6.1c0,3.2-1.1,5.8-9.5,7.1c0.5,0.5,1.2,1.7,1.4,2.3c9.4-1.6,10.8-5,10.8-9.4V2H108z M115.1,2v12.7h2.9V2H115.1z M105.6,19.9h15.1
	v1.7h-15.1V19.9z M105.6,23.3h15.1v1.7h-15.1V23.3z M105.6,16.5h15.1v1.7h-15.1V16.5z M102.7,14.7v12.2h21.1V14.7H102.7z
	 M115.7,28.1c3.6,1.1,7.2,2.5,9.3,3.6l2.2-1.9c-2.4-1-6.3-2.4-9.9-3.5L115.7,28.1z M108,26.7c-2.3,1.2-6.1,2.2-9.5,2.8
	c0.7,0.5,1.7,1.6,2.2,2.2c3.2-0.8,7.3-2.3,10-3.8L108,26.7z"/>
<defs>
	
		<filter id="Adobe_OpacityMaskFilter_00000109024377079744067140000002594855695146678178_" filterUnits="userSpaceOnUse" x="129.2" y="0.6" width="32.8" height="32.1">
		<feColorMatrix  type="matrix" values="1 0 0 0 0  0 1 0 0 0  0 0 1 0 0  0 0 0 1 0"/>
	</filter>
</defs>
<mask maskUnits="userSpaceOnUse" x="129.2" y="0.6" width="32.8" height="32.1" id="path-1-outside-1_324_623_00000064351651774715109240000007834857967321646268_">
	
		<rect x="-0.2" y="-0.2" style="fill:#FFFFFF;filter:url(#Adobe_OpacityMaskFilter_00000109024377079744067140000002594855695146678178_);" width="227" height="34"/>
	<path d="M15.8,3.4V6h15.8V3.4H15.8z M19.6,15.7h8.3v2.7h-8.3V15.7z M19.6,20.5h8.3v2.7h-8.3V20.5z M19.6,10.9h8.3v2.7h-8.3V10.9z
		 M16.9,8.6v16.8h13.8V8.6H16.9z M22.2,4.7c-0.2,1.5-0.6,3.7-0.9,5.2l2.6,0.5C24.4,9.1,25,7,25.6,5.1L22.2,4.7z M20.2,25.8
		c-1.2,1.4-3.8,3.1-6,4c0.6,0.5,1.5,1.4,2,2c2.3-1,5-2.7,6.6-4.4L20.2,25.8z M24.7,27.5c1.8,1.2,4,3.1,5.1,4.3l2.4-1.7
		C31,28.9,28.7,27.2,27,26L24.7,27.5z M4.3,24.6c2.3,1.9,5.2,4.8,6.6,6.8l2-1.9c-1.6-2-4.5-4.8-6.7-6.5L4.3,24.6z M3.4,17.1v2.5
		h10.1v-2.5H3.4z M9,1.8c-1.5,4-4.5,8.1-7.2,10.4c0.6,0.7,1.3,1.9,1.7,2.7c2.9-2.8,5.8-7.1,7.7-11.7L9,1.8z M13,17.1v0.6
		c-0.9,2.6-3.2,6.4-5,8.3c0.6,0.4,1.5,1.4,1.9,2.1c2-2.3,4.4-6.3,5.8-10l-1.9-1.2l-0.4,0.2H13z M8,5.8c2.3,2.3,5.1,5.5,6.4,7.5
		l1.5-2.4c-1.3-1.9-4.2-5-6.5-7.1L8,5.8z M5.6,11.8v2.6h7.5v-2.6H5.6z"/>
	<path d="M49.4,6.3v2.9h11.4V6.3H49.4z M34.4,3.9v2.8h15.9V3.9H34.4z M38.4,10.5v2.7h8v-2.7H38.4z M38.4,17.1v2.7h8v-2.7H38.4z
		 M60,6.3V7c-1.2,10.9-5.6,18.6-12,21.9c0.7,0.6,1.5,1.7,2,2.5c7-4.2,11.6-11.8,13-24.7l-2-0.5l-0.5,0.1H60z M52.7,9.4l-2.9,0.5
		c2,9.9,5.6,17.5,12.4,21.5c0.5-0.8,1.4-2,2.1-2.5C58,25.5,54.4,18.2,52.7,9.4z M36.8,5v20.8h2.9V5H36.8z M45.2,5v26.6h2.9V5H45.2z
		 M33.7,24.9l0.6,3c3.3-0.5,7.9-1.2,12.2-2l-0.2-2.8C41.7,23.8,36.9,24.5,33.7,24.9z"/>
	<path d="M82.4,19.3v8c0,2.9,0.9,3.8,4.3,3.8c0.7,0,4.2,0,4.9,0c2.9,0,3.8-1.2,4.1-5.9c-0.9-0.2-2.1-0.7-2.8-1.2
		c-0.1,3.7-0.4,4.3-1.6,4.3c-0.8,0-3.6,0-4.3,0c-1.4,0-1.6-0.1-1.6-1.2v-7.9H82.4z M75.2,1.9c-1.7,3.2-4.9,7.1-9.2,10
		c0.7,0.5,1.7,1.5,2.1,2.2c4.7-3.4,8-7.6,10.3-11.6L75.2,1.9z M72.7,12.7H90v5H72.7V12.7z M69.7,10.1v10.4h23.5V10.1H69.7z M84,4.3
		v0.6c-0.7,1.6-2.4,4.1-3.9,5.6c0.7,0.4,1.7,1,2.3,1.5c1.7-1.7,3.7-4.3,4.9-6.5l-2.1-1.3l-0.5,0.1H84z M75.1,4.3l-1.5,2.5h11.3V4.3
		H75.1z M79.6,11.8c-0.6,7.7-1.5,14.1-13.2,17c0.7,0.6,1.4,1.8,1.7,2.6c12.4-3.4,14-10.8,14.7-19.6H79.6z"/>
	<path d="M102.6,7.1V9H125V3.6h-24.6v1.9h21.9v1.6H102.6z M101.7,7.1c-0.2,1.8-0.5,3.9-0.9,5.5h2.7c0.3-1.5,0.6-3.6,0.9-5.5H101.7z
		 M102.1,10.6l-0.6,1.9h23.6v-1.9H102.1z M124.2,10.6V11c-0.1,1.7-0.3,2.3-0.5,2.6c-0.2,0.2-0.4,0.2-0.7,0.2c-0.4,0-1.1,0-2-0.1
		c0.3,0.5,0.5,1.3,0.5,1.9c1.2,0.1,2.3,0.1,2.9,0c0.7,0,1.2-0.2,1.7-0.6c0.5-0.5,0.7-1.5,0.9-3.4c0-0.3,0-0.9,0-0.9H124.2z M108,2
		v6.1c0,3.2-1.1,5.8-9.5,7.1c0.5,0.5,1.2,1.7,1.4,2.3c9.4-1.6,10.8-5,10.8-9.4V2H108z M115.1,2v12.7h2.9V2H115.1z M105.6,19.9h15.1
		v1.7h-15.1V19.9z M105.6,23.3h15.1v1.7h-15.1V23.3z M105.6,16.5h15.1v1.7h-15.1V16.5z M102.7,14.7v12.2h21.1V14.7H102.7z
		 M115.7,28.1c3.6,1.1,7.2,2.5,9.3,3.6l2.2-1.9c-2.4-1-6.3-2.4-9.9-3.5L115.7,28.1z M108,26.7c-2.3,1.2-6.1,2.2-9.5,2.8
		c0.7,0.5,1.7,1.6,2.2,2.2c3.2-0.8,7.3-2.3,10-3.8L108,26.7z"/>
	<path d="M142,18.4v2.7h17.3v-2.7H142z M152.9,19.9l-2.2,0.8c1.7,3.5,4.7,7.3,7.5,9.4c0.4-0.7,1.4-1.8,2.1-2.3
		C157.5,26.2,154.5,23,152.9,19.9z M145.8,10.8h9.9v2.8h-9.9V10.8z M145.8,5.7h9.9v2.8h-9.9V5.7z M143.1,3.3V16h15.4V3.3H143.1z
		 M148.6,19.8c-1.6,3.3-4.7,6.7-7.8,8.3c0.6,0.5,1.6,1.6,2,2.3c3.2-2,6.3-5.9,8-9.8L148.6,19.8z M149.4,4.5v10.4h-0.2v16.8h2.9V14.9
		H152V4.5H149.4z M131.5,11.7v2.3h9.6v-2.3H131.5z M131.5,16v2.3h9.6V16H131.5z M130.2,7.4v2.5h12V7.4H130.2z M132.8,20.3v2.5h5.9
		v4.6h-5.9v2.5h8.5v-9.5H132.8z M131.5,20.3v10.9h2.6V20.3H131.5z M133.7,3c0.9,1.3,1.9,3.2,2.3,4.4l2.4-1.4
		C138,4.9,137,3.2,136,1.9L133.7,3z"/>
	<path d="M181.2,17.2v12.9h3V17.2H181.2z M173.4,28.3V31h18.2v-2.7H173.4z M175.1,22v2.6h15.2V22H175.1z M178.2,6.1h8.9v5.4h-8.9
		V6.1z M175.4,3.5v10.6h14.6V3.5H175.4z M188.8,14.9c-3.4,1-9.4,1.6-14.4,1.9c0.3,0.6,0.6,1.7,0.7,2.3c5.2-0.2,11.4-0.8,15.6-1.9
		L188.8,14.9z M167.4,4.8v26.8h2.9V4.8H167.4z M162.4,11v2.8h11.6V11H162.4z M167.6,12.1c-1.1,3.8-3.5,8.6-5.8,11.2
		c0.5,0.7,1.2,2,1.5,2.8c2.5-3,4.9-8.7,6.1-13.2L167.6,12.1z M172.4,2.4c-2.4,1.1-6.6,2-10.2,2.6c0.4,0.6,0.7,1.7,0.9,2.3
		c3.8-0.5,8.3-1.3,11.4-2.6L172.4,2.4z M170.2,15.3l-1.4,1.2c1,1.2,3.2,4.2,4,5.6l1.8-2.4C174,19,171,15.9,170.2,15.3z"/>
	<path d="M202.8,18.4v2.6h11v-2.6H202.8z M200.8,18.4v8.7c0,3.3,1.3,4.1,5.8,4.1c1,0,7.5,0,8.5,0c3.9,0,4.8-1.1,5.3-5.5
		c-0.8-0.2-2.1-0.6-2.8-1.1c-0.3,3.4-0.6,3.9-2.7,3.9c-1.5,0-7.1,0-8.3,0c-2.5,0-3-0.2-3-1.4v-8.7H200.8z M212.8,18.4v0.4
		c-0.2,3.3-0.4,4.6-0.8,5c-0.3,0.2-0.5,0.3-1.1,0.3c-0.5,0-2,0-3.5-0.2c0.4,0.6,0.7,1.6,0.7,2.3c1.7,0.1,3.3,0.1,4.2,0
		c0.9-0.1,1.6-0.3,2.1-0.8c0.7-0.7,1-2.3,1.2-5.9c0.1-0.4,0.1-1.1,0.1-1.1H212.8z M194.9,12.8v2.7h28.3v-2.7H194.9z M196.8,7.1v2.6
		h24.2V7.1H196.8z M213.9,13l-2.6,0.9c2.3,4,6.4,7.3,11.1,8.9c0.4-0.8,1.3-1.9,2-2.5C219.8,19.1,215.8,16.3,213.9,13z M208.1,1.9
		c-0.9,7.1-4.9,14.5-14.2,18.4c0.7,0.5,1.5,1.7,1.9,2.5c9.8-4.4,14.1-12.4,15.5-20.6L208.1,1.9z M199.5,3.8c1,1.2,2.1,2.9,2.7,4
		l2.5-1.4c-0.5-1.1-1.8-2.7-2.8-3.8L199.5,3.8z M216.2,2.7c-0.7,1.5-2,3.7-3.1,5l2.3,0.8c1.1-1.2,2.4-3.1,3.6-4.9L216.2,2.7z"/>
</mask>
<linearGradient id="SVGID_00000052089570616138143180000015000395216728557489_" gradientUnits="userSpaceOnUse" x1="141.8802" y1="43.3575" x2="146.9395" y2="3.0049" gradientTransform="matrix(1 0 0 -1 0 36)">
	<stop  offset="0" style="stop-color:#FFF176"/>
	<stop  offset="1" style="stop-color:#00E0B8"/>
</linearGradient>
<path style="mask:url(#path-1-outside-1_324_623_00000064351651774715109240000007834857967321646268_);fill:none;stroke:url(#SVGID_00000052089570616138143180000015000395216728557489_);stroke-width:2;" d="
	M142,18.4v2.7h17.3v-2.7H142z M152.9,19.9l-2.2,0.8c1.7,3.5,4.7,7.3,7.5,9.4c0.4-0.7,1.4-1.8,2.1-2.3
	C157.5,26.2,154.5,23,152.9,19.9z M145.8,10.8h9.9v2.8h-9.9V10.8z M145.8,5.7h9.9v2.8h-9.9V5.7z M143.1,3.3V16h15.4V3.3H143.1z
	 M148.6,19.8c-1.6,3.3-4.7,6.7-7.8,8.3c0.6,0.5,1.6,1.6,2,2.3c3.2-2,6.3-5.9,8-9.8L148.6,19.8z M149.4,4.5v10.4h-0.2v16.8h2.9V14.9
	H152V4.5H149.4z M131.5,11.7v2.3h9.6v-2.3H131.5z M131.5,16v2.3h9.6V16H131.5z M130.2,7.4v2.5h12V7.4H130.2z M132.8,20.3v2.5h5.9
	v4.6h-5.9v2.5h8.5v-9.5H132.8z M131.5,20.3v10.9h2.6V20.3H131.5z M133.7,3c0.9,1.3,1.9,3.2,2.3,4.4l2.4-1.4C138,4.9,137,3.2,136,1.9
	L133.7,3z"/>
<defs>
	
		<filter id="Adobe_OpacityMaskFilter_00000062169836951398311970000013870193314880393396_" filterUnits="userSpaceOnUse" x="160.5" y="1.2" width="32.1" height="31.5">
		<feColorMatrix  type="matrix" values="1 0 0 0 0  0 1 0 0 0  0 0 1 0 0  0 0 0 1 0"/>
	</filter>
</defs>
<mask maskUnits="userSpaceOnUse" x="160.5" y="1.2" width="32.1" height="31.5" id="path-1-outside-1_324_623_00000177475142388747901810000003571893262618218417_">
	
		<rect x="-0.2" y="-0.2" style="fill:#FFFFFF;filter:url(#Adobe_OpacityMaskFilter_00000062169836951398311970000013870193314880393396_);" width="227" height="34"/>
	<path d="M15.8,3.4V6h15.8V3.4H15.8z M19.6,15.7h8.3v2.7h-8.3V15.7z M19.6,20.5h8.3v2.7h-8.3V20.5z M19.6,10.9h8.3v2.7h-8.3V10.9z
		 M16.9,8.6v16.8h13.8V8.6H16.9z M22.2,4.7c-0.2,1.5-0.6,3.7-0.9,5.2l2.6,0.5C24.4,9.1,25,7,25.6,5.1L22.2,4.7z M20.2,25.8
		c-1.2,1.4-3.8,3.1-6,4c0.6,0.5,1.5,1.4,2,2c2.3-1,5-2.7,6.6-4.4L20.2,25.8z M24.7,27.5c1.8,1.2,4,3.1,5.1,4.3l2.4-1.7
		C31,28.9,28.7,27.2,27,26L24.7,27.5z M4.3,24.6c2.3,1.9,5.2,4.8,6.6,6.8l2-1.9c-1.6-2-4.5-4.8-6.7-6.5L4.3,24.6z M3.4,17.1v2.5
		h10.1v-2.5H3.4z M9,1.8c-1.5,4-4.5,8.1-7.2,10.4c0.6,0.7,1.3,1.9,1.7,2.7c2.9-2.8,5.8-7.1,7.7-11.7L9,1.8z M13,17.1v0.6
		c-0.9,2.6-3.2,6.4-5,8.3c0.6,0.4,1.5,1.4,1.9,2.1c2-2.3,4.4-6.3,5.8-10l-1.9-1.2l-0.4,0.2H13z M8,5.8c2.3,2.3,5.1,5.5,6.4,7.5
		l1.5-2.4c-1.3-1.9-4.2-5-6.5-7.1L8,5.8z M5.6,11.8v2.6h7.5v-2.6H5.6z"/>
	<path d="M49.4,6.3v2.9h11.4V6.3H49.4z M34.4,3.9v2.8h15.9V3.9H34.4z M38.4,10.5v2.7h8v-2.7H38.4z M38.4,17.1v2.7h8v-2.7H38.4z
		 M60,6.3V7c-1.2,10.9-5.6,18.6-12,21.9c0.7,0.6,1.5,1.7,2,2.5c7-4.2,11.6-11.8,13-24.7l-2-0.5l-0.5,0.1H60z M52.7,9.4l-2.9,0.5
		c2,9.9,5.6,17.5,12.4,21.5c0.5-0.8,1.4-2,2.1-2.5C58,25.5,54.4,18.2,52.7,9.4z M36.8,5v20.8h2.9V5H36.8z M45.2,5v26.6h2.9V5H45.2z
		 M33.7,24.9l0.6,3c3.3-0.5,7.9-1.2,12.2-2l-0.2-2.8C41.7,23.8,36.9,24.5,33.7,24.9z"/>
	<path d="M82.4,19.3v8c0,2.9,0.9,3.8,4.3,3.8c0.7,0,4.2,0,4.9,0c2.9,0,3.8-1.2,4.1-5.9c-0.9-0.2-2.1-0.7-2.8-1.2
		c-0.1,3.7-0.4,4.3-1.6,4.3c-0.8,0-3.6,0-4.3,0c-1.4,0-1.6-0.1-1.6-1.2v-7.9H82.4z M75.2,1.9c-1.7,3.2-4.9,7.1-9.2,10
		c0.7,0.5,1.7,1.5,2.1,2.2c4.7-3.4,8-7.6,10.3-11.6L75.2,1.9z M72.7,12.7H90v5H72.7V12.7z M69.7,10.1v10.4h23.5V10.1H69.7z M84,4.3
		v0.6c-0.7,1.6-2.4,4.1-3.9,5.6c0.7,0.4,1.7,1,2.3,1.5c1.7-1.7,3.7-4.3,4.9-6.5l-2.1-1.3l-0.5,0.1H84z M75.1,4.3l-1.5,2.5h11.3V4.3
		H75.1z M79.6,11.8c-0.6,7.7-1.5,14.1-13.2,17c0.7,0.6,1.4,1.8,1.7,2.6c12.4-3.4,14-10.8,14.7-19.6H79.6z"/>
	<path d="M102.6,7.1V9H125V3.6h-24.6v1.9h21.9v1.6H102.6z M101.7,7.1c-0.2,1.8-0.5,3.9-0.9,5.5h2.7c0.3-1.5,0.6-3.6,0.9-5.5H101.7z
		 M102.1,10.6l-0.6,1.9h23.6v-1.9H102.1z M124.2,10.6V11c-0.1,1.7-0.3,2.3-0.5,2.6c-0.2,0.2-0.4,0.2-0.7,0.2c-0.4,0-1.1,0-2-0.1
		c0.3,0.5,0.5,1.3,0.5,1.9c1.2,0.1,2.3,0.1,2.9,0c0.7,0,1.2-0.2,1.7-0.6c0.5-0.5,0.7-1.5,0.9-3.4c0-0.3,0-0.9,0-0.9H124.2z M108,2
		v6.1c0,3.2-1.1,5.8-9.5,7.1c0.5,0.5,1.2,1.7,1.4,2.3c9.4-1.6,10.8-5,10.8-9.4V2H108z M115.1,2v12.7h2.9V2H115.1z M105.6,19.9h15.1
		v1.7h-15.1V19.9z M105.6,23.3h15.1v1.7h-15.1V23.3z M105.6,16.5h15.1v1.7h-15.1V16.5z M102.7,14.7v12.2h21.1V14.7H102.7z
		 M115.7,28.1c3.6,1.1,7.2,2.5,9.3,3.6l2.2-1.9c-2.4-1-6.3-2.4-9.9-3.5L115.7,28.1z M108,26.7c-2.3,1.2-6.1,2.2-9.5,2.8
		c0.7,0.5,1.7,1.6,2.2,2.2c3.2-0.8,7.3-2.3,10-3.8L108,26.7z"/>
	<path d="M142,18.4v2.7h17.3v-2.7H142z M152.9,19.9l-2.2,0.8c1.7,3.5,4.7,7.3,7.5,9.4c0.4-0.7,1.4-1.8,2.1-2.3
		C157.5,26.2,154.5,23,152.9,19.9z M145.8,10.8h9.9v2.8h-9.9V10.8z M145.8,5.7h9.9v2.8h-9.9V5.7z M143.1,3.3V16h15.4V3.3H143.1z
		 M148.6,19.8c-1.6,3.3-4.7,6.7-7.8,8.3c0.6,0.5,1.6,1.6,2,2.3c3.2-2,6.3-5.9,8-9.8L148.6,19.8z M149.4,4.5v10.4h-0.2v16.8h2.9V14.9
		H152V4.5H149.4z M131.5,11.7v2.3h9.6v-2.3H131.5z M131.5,16v2.3h9.6V16H131.5z M130.2,7.4v2.5h12V7.4H130.2z M132.8,20.3v2.5h5.9
		v4.6h-5.9v2.5h8.5v-9.5H132.8z M131.5,20.3v10.9h2.6V20.3H131.5z M133.7,3c0.9,1.3,1.9,3.2,2.3,4.4l2.4-1.4
		C138,4.9,137,3.2,136,1.9L133.7,3z"/>
	<path d="M181.2,17.2v12.9h3V17.2H181.2z M173.4,28.3V31h18.2v-2.7H173.4z M175.1,22v2.6h15.2V22H175.1z M178.2,6.1h8.9v5.4h-8.9
		V6.1z M175.4,3.5v10.6h14.6V3.5H175.4z M188.8,14.9c-3.4,1-9.4,1.6-14.4,1.9c0.3,0.6,0.6,1.7,0.7,2.3c5.2-0.2,11.4-0.8,15.6-1.9
		L188.8,14.9z M167.4,4.8v26.8h2.9V4.8H167.4z M162.4,11v2.8h11.6V11H162.4z M167.6,12.1c-1.1,3.8-3.5,8.6-5.8,11.2
		c0.5,0.7,1.2,2,1.5,2.8c2.5-3,4.9-8.7,6.1-13.2L167.6,12.1z M172.4,2.4c-2.4,1.1-6.6,2-10.2,2.6c0.4,0.6,0.7,1.7,0.9,2.3
		c3.8-0.5,8.3-1.3,11.4-2.6L172.4,2.4z M170.2,15.3l-1.4,1.2c1,1.2,3.2,4.2,4,5.6l1.8-2.4C174,19,171,15.9,170.2,15.3z"/>
	<path d="M202.8,18.4v2.6h11v-2.6H202.8z M200.8,18.4v8.7c0,3.3,1.3,4.1,5.8,4.1c1,0,7.5,0,8.5,0c3.9,0,4.8-1.1,5.3-5.5
		c-0.8-0.2-2.1-0.6-2.8-1.1c-0.3,3.4-0.6,3.9-2.7,3.9c-1.5,0-7.1,0-8.3,0c-2.5,0-3-0.2-3-1.4v-8.7H200.8z M212.8,18.4v0.4
		c-0.2,3.3-0.4,4.6-0.8,5c-0.3,0.2-0.5,0.3-1.1,0.3c-0.5,0-2,0-3.5-0.2c0.4,0.6,0.7,1.6,0.7,2.3c1.7,0.1,3.3,0.1,4.2,0
		c0.9-0.1,1.6-0.3,2.1-0.8c0.7-0.7,1-2.3,1.2-5.9c0.1-0.4,0.1-1.1,0.1-1.1H212.8z M194.9,12.8v2.7h28.3v-2.7H194.9z M196.8,7.1v2.6
		h24.2V7.1H196.8z M213.9,13l-2.6,0.9c2.3,4,6.4,7.3,11.1,8.9c0.4-0.8,1.3-1.9,2-2.5C219.8,19.1,215.8,16.3,213.9,13z M208.1,1.9
		c-0.9,7.1-4.9,14.5-14.2,18.4c0.7,0.5,1.5,1.7,1.9,2.5c9.8-4.4,14.1-12.4,15.5-20.6L208.1,1.9z M199.5,3.8c1,1.2,2.1,2.9,2.7,4
		l2.5-1.4c-0.5-1.1-1.8-2.7-2.8-3.8L199.5,3.8z M216.2,2.7c-0.7,1.5-2,3.7-3.1,5l2.3,0.8c1.1-1.2,2.4-3.1,3.6-4.9L216.2,2.7z"/>
</mask>
<linearGradient id="SVGID_00000068655199998429911270000007919946544376022717_" gradientUnits="userSpaceOnUse" x1="172.7546" y1="47.2284" x2="177.8138" y2="6.8758" gradientTransform="matrix(1 0 0 -1 0 36)">
	<stop  offset="0" style="stop-color:#FFF176"/>
	<stop  offset="1" style="stop-color:#00E0B8"/>
</linearGradient>
<path style="mask:url(#path-1-outside-1_324_623_00000177475142388747901810000003571893262618218417_);fill:none;stroke:url(#SVGID_00000068655199998429911270000007919946544376022717_);stroke-width:2;" d="
	M181.2,17.2v12.9h3V17.2H181.2z M173.4,28.3V31h18.2v-2.7H173.4z M175.1,22v2.6h15.2V22H175.1z M178.2,6.1h8.9v5.4h-8.9V6.1z
	 M175.4,3.5v10.6h14.6V3.5H175.4z M188.8,14.9c-3.4,1-9.4,1.6-14.4,1.9c0.3,0.6,0.6,1.7,0.7,2.3c5.2-0.2,11.4-0.8,15.6-1.9
	L188.8,14.9z M167.4,4.8v26.8h2.9V4.8H167.4z M162.4,11v2.8h11.6V11H162.4z M167.6,12.1c-1.1,3.8-3.5,8.6-5.8,11.2
	c0.5,0.7,1.2,2,1.5,2.8c2.5-3,4.9-8.7,6.1-13.2L167.6,12.1z M172.4,2.4c-2.4,1.1-6.6,2-10.2,2.6c0.4,0.6,0.7,1.7,0.9,2.3
	c3.8-0.5,8.3-1.3,11.4-2.6L172.4,2.4z M170.2,15.3l-1.4,1.2c1,1.2,3.2,4.2,4,5.6l1.8-2.4C174,19,171,15.9,170.2,15.3z"/>
<defs>
	
		<filter id="Adobe_OpacityMaskFilter_00000152246476384813815060000014178714073065425026_" filterUnits="userSpaceOnUse" x="192" y="0.8" width="34.4" height="31.5">
		<feColorMatrix  type="matrix" values="1 0 0 0 0  0 1 0 0 0  0 0 1 0 0  0 0 0 1 0"/>
	</filter>
</defs>
<mask maskUnits="userSpaceOnUse" x="192" y="0.8" width="34.4" height="31.5" id="path-1-outside-1_324_623_00000175314437059053317700000005210025316721345173_">
	
		<rect x="-0.2" y="-0.2" style="fill:#FFFFFF;filter:url(#Adobe_OpacityMaskFilter_00000152246476384813815060000014178714073065425026_);" width="227" height="34"/>
	<path d="M15.8,3.4V6h15.8V3.4H15.8z M19.6,15.7h8.3v2.7h-8.3V15.7z M19.6,20.5h8.3v2.7h-8.3V20.5z M19.6,10.9h8.3v2.7h-8.3V10.9z
		 M16.9,8.6v16.8h13.8V8.6H16.9z M22.2,4.7c-0.2,1.5-0.6,3.7-0.9,5.2l2.6,0.5C24.4,9.1,25,7,25.6,5.1L22.2,4.7z M20.2,25.8
		c-1.2,1.4-3.8,3.1-6,4c0.6,0.5,1.5,1.4,2,2c2.3-1,5-2.7,6.6-4.4L20.2,25.8z M24.7,27.5c1.8,1.2,4,3.1,5.1,4.3l2.4-1.7
		C31,28.9,28.7,27.2,27,26L24.7,27.5z M4.3,24.6c2.3,1.9,5.2,4.8,6.6,6.8l2-1.9c-1.6-2-4.5-4.8-6.7-6.5L4.3,24.6z M3.4,17.1v2.5
		h10.1v-2.5H3.4z M9,1.8c-1.5,4-4.5,8.1-7.2,10.4c0.6,0.7,1.3,1.9,1.7,2.7c2.9-2.8,5.8-7.1,7.7-11.7L9,1.8z M13,17.1v0.6
		c-0.9,2.6-3.2,6.4-5,8.3c0.6,0.4,1.5,1.4,1.9,2.1c2-2.3,4.4-6.3,5.8-10l-1.9-1.2l-0.4,0.2H13z M8,5.8c2.3,2.3,5.1,5.5,6.4,7.5
		l1.5-2.4c-1.3-1.9-4.2-5-6.5-7.1L8,5.8z M5.6,11.8v2.6h7.5v-2.6H5.6z"/>
	<path d="M49.4,6.3v2.9h11.4V6.3H49.4z M34.4,3.9v2.8h15.9V3.9H34.4z M38.4,10.5v2.7h8v-2.7H38.4z M38.4,17.1v2.7h8v-2.7H38.4z
		 M60,6.3V7c-1.2,10.9-5.6,18.6-12,21.9c0.7,0.6,1.5,1.7,2,2.5c7-4.2,11.6-11.8,13-24.7l-2-0.5l-0.5,0.1H60z M52.7,9.4l-2.9,0.5
		c2,9.9,5.6,17.5,12.4,21.5c0.5-0.8,1.4-2,2.1-2.5C58,25.5,54.4,18.2,52.7,9.4z M36.8,5v20.8h2.9V5H36.8z M45.2,5v26.6h2.9V5H45.2z
		 M33.7,24.9l0.6,3c3.3-0.5,7.9-1.2,12.2-2l-0.2-2.8C41.7,23.8,36.9,24.5,33.7,24.9z"/>
	<path d="M82.4,19.3v8c0,2.9,0.9,3.8,4.3,3.8c0.7,0,4.2,0,4.9,0c2.9,0,3.8-1.2,4.1-5.9c-0.9-0.2-2.1-0.7-2.8-1.2
		c-0.1,3.7-0.4,4.3-1.6,4.3c-0.8,0-3.6,0-4.3,0c-1.4,0-1.6-0.1-1.6-1.2v-7.9H82.4z M75.2,1.9c-1.7,3.2-4.9,7.1-9.2,10
		c0.7,0.5,1.7,1.5,2.1,2.2c4.7-3.4,8-7.6,10.3-11.6L75.2,1.9z M72.7,12.7H90v5H72.7V12.7z M69.7,10.1v10.4h23.5V10.1H69.7z M84,4.3
		v0.6c-0.7,1.6-2.4,4.1-3.9,5.6c0.7,0.4,1.7,1,2.3,1.5c1.7-1.7,3.7-4.3,4.9-6.5l-2.1-1.3l-0.5,0.1H84z M75.1,4.3l-1.5,2.5h11.3V4.3
		H75.1z M79.6,11.8c-0.6,7.7-1.5,14.1-13.2,17c0.7,0.6,1.4,1.8,1.7,2.6c12.4-3.4,14-10.8,14.7-19.6H79.6z"/>
	<path d="M102.6,7.1V9H125V3.6h-24.6v1.9h21.9v1.6H102.6z M101.7,7.1c-0.2,1.8-0.5,3.9-0.9,5.5h2.7c0.3-1.5,0.6-3.6,0.9-5.5H101.7z
		 M102.1,10.6l-0.6,1.9h23.6v-1.9H102.1z M124.2,10.6V11c-0.1,1.7-0.3,2.3-0.5,2.6c-0.2,0.2-0.4,0.2-0.7,0.2c-0.4,0-1.1,0-2-0.1
		c0.3,0.5,0.5,1.3,0.5,1.9c1.2,0.1,2.3,0.1,2.9,0c0.7,0,1.2-0.2,1.7-0.6c0.5-0.5,0.7-1.5,0.9-3.4c0-0.3,0-0.9,0-0.9H124.2z M108,2
		v6.1c0,3.2-1.1,5.8-9.5,7.1c0.5,0.5,1.2,1.7,1.4,2.3c9.4-1.6,10.8-5,10.8-9.4V2H108z M115.1,2v12.7h2.9V2H115.1z M105.6,19.9h15.1
		v1.7h-15.1V19.9z M105.6,23.3h15.1v1.7h-15.1V23.3z M105.6,16.5h15.1v1.7h-15.1V16.5z M102.7,14.7v12.2h21.1V14.7H102.7z
		 M115.7,28.1c3.6,1.1,7.2,2.5,9.3,3.6l2.2-1.9c-2.4-1-6.3-2.4-9.9-3.5L115.7,28.1z M108,26.7c-2.3,1.2-6.1,2.2-9.5,2.8
		c0.7,0.5,1.7,1.6,2.2,2.2c3.2-0.8,7.3-2.3,10-3.8L108,26.7z"/>
	<path d="M142,18.4v2.7h17.3v-2.7H142z M152.9,19.9l-2.2,0.8c1.7,3.5,4.7,7.3,7.5,9.4c0.4-0.7,1.4-1.8,2.1-2.3
		C157.5,26.2,154.5,23,152.9,19.9z M145.8,10.8h9.9v2.8h-9.9V10.8z M145.8,5.7h9.9v2.8h-9.9V5.7z M143.1,3.3V16h15.4V3.3H143.1z
		 M148.6,19.8c-1.6,3.3-4.7,6.7-7.8,8.3c0.6,0.5,1.6,1.6,2,2.3c3.2-2,6.3-5.9,8-9.8L148.6,19.8z M149.4,4.5v10.4h-0.2v16.8h2.9V14.9
		H152V4.5H149.4z M131.5,11.7v2.3h9.6v-2.3H131.5z M131.5,16v2.3h9.6V16H131.5z M130.2,7.4v2.5h12V7.4H130.2z M132.8,20.3v2.5h5.9
		v4.6h-5.9v2.5h8.5v-9.5H132.8z M131.5,20.3v10.9h2.6V20.3H131.5z M133.7,3c0.9,1.3,1.9,3.2,2.3,4.4l2.4-1.4
		C138,4.9,137,3.2,136,1.9L133.7,3z"/>
	<path d="M181.2,17.2v12.9h3V17.2H181.2z M173.4,28.3V31h18.2v-2.7H173.4z M175.1,22v2.6h15.2V22H175.1z M178.2,6.1h8.9v5.4h-8.9
		V6.1z M175.4,3.5v10.6h14.6V3.5H175.4z M188.8,14.9c-3.4,1-9.4,1.6-14.4,1.9c0.3,0.6,0.6,1.7,0.7,2.3c5.2-0.2,11.4-0.8,15.6-1.9
		L188.8,14.9z M167.4,4.8v26.8h2.9V4.8H167.4z M162.4,11v2.8h11.6V11H162.4z M167.6,12.1c-1.1,3.8-3.5,8.6-5.8,11.2
		c0.5,0.7,1.2,2,1.5,2.8c2.5-3,4.9-8.7,6.1-13.2L167.6,12.1z M172.4,2.4c-2.4,1.1-6.6,2-10.2,2.6c0.4,0.6,0.7,1.7,0.9,2.3
		c3.8-0.5,8.3-1.3,11.4-2.6L172.4,2.4z M170.2,15.3l-1.4,1.2c1,1.2,3.2,4.2,4,5.6l1.8-2.4C174,19,171,15.9,170.2,15.3z"/>
	<path d="M202.8,18.4v2.6h11v-2.6H202.8z M200.8,18.4v8.7c0,3.3,1.3,4.1,5.8,4.1c1,0,7.5,0,8.5,0c3.9,0,4.8-1.1,5.3-5.5
		c-0.8-0.2-2.1-0.6-2.8-1.1c-0.3,3.4-0.6,3.9-2.7,3.9c-1.5,0-7.1,0-8.3,0c-2.5,0-3-0.2-3-1.4v-8.7H200.8z M212.8,18.4v0.4
		c-0.2,3.3-0.4,4.6-0.8,5c-0.3,0.2-0.5,0.3-1.1,0.3c-0.5,0-2,0-3.5-0.2c0.4,0.6,0.7,1.6,0.7,2.3c1.7,0.1,3.3,0.1,4.2,0
		c0.9-0.1,1.6-0.3,2.1-0.8c0.7-0.7,1-2.3,1.2-5.9c0.1-0.4,0.1-1.1,0.1-1.1H212.8z M194.9,12.8v2.7h28.3v-2.7H194.9z M196.8,7.1v2.6
		h24.2V7.1H196.8z M213.9,13l-2.6,0.9c2.3,4,6.4,7.3,11.1,8.9c0.4-0.8,1.3-1.9,2-2.5C219.8,19.1,215.8,16.3,213.9,13z M208.1,1.9
		c-0.9,7.1-4.9,14.5-14.2,18.4c0.7,0.5,1.5,1.7,1.9,2.5c9.8-4.4,14.1-12.4,15.5-20.6L208.1,1.9z M199.5,3.8c1,1.2,2.1,2.9,2.7,4
		l2.5-1.4c-0.5-1.1-1.8-2.7-2.8-3.8L199.5,3.8z M216.2,2.7c-0.7,1.5-2,3.7-3.1,5l2.3,0.8c1.1-1.2,2.4-3.1,3.6-4.9L216.2,2.7z"/>
</mask>
<linearGradient id="SVGID_00000055675777738541408910000003940001235889120164_" gradientUnits="userSpaceOnUse" x1="204.8144" y1="51.2479" x2="209.8736" y2="10.8953" gradientTransform="matrix(1 0 0 -1 0 36)">
	<stop  offset="0" style="stop-color:#FFF176"/>
	<stop  offset="1" style="stop-color:#00E0B8"/>
</linearGradient>
<path style="mask:url(#path-1-outside-1_324_623_00000175314437059053317700000005210025316721345173_);fill:none;stroke:url(#SVGID_00000055675777738541408910000003940001235889120164_);stroke-width:2;" d="
	M202.8,18.4v2.6h11v-2.6H202.8z M200.8,18.4v8.7c0,3.3,1.3,4.1,5.8,4.1c1,0,7.5,0,8.5,0c3.9,0,4.8-1.1,5.3-5.5
	c-0.8-0.2-2.1-0.6-2.8-1.1c-0.3,3.4-0.6,3.9-2.7,3.9c-1.5,0-7.1,0-8.3,0c-2.5,0-3-0.2-3-1.4v-8.7H200.8z M212.8,18.4v0.4
	c-0.2,3.3-0.4,4.6-0.8,5c-0.3,0.2-0.5,0.3-1.1,0.3c-0.5,0-2,0-3.5-0.2c0.4,0.6,0.7,1.6,0.7,2.3c1.7,0.1,3.3,0.1,4.2,0
	c0.9-0.1,1.6-0.3,2.1-0.8c0.7-0.7,1-2.3,1.2-5.9c0.1-0.4,0.1-1.1,0.1-1.1H212.8z M194.9,12.8v2.7h28.3v-2.7H194.9z M196.8,7.1v2.6
	h24.2V7.1H196.8z M213.9,13l-2.6,0.9c2.3,4,6.4,7.3,11.1,8.9c0.4-0.8,1.3-1.9,2-2.5C219.8,19.1,215.8,16.3,213.9,13z M208.1,1.9
	c-0.9,7.1-4.9,14.5-14.2,18.4c0.7,0.5,1.5,1.7,1.9,2.5c9.8-4.4,14.1-12.4,15.5-20.6L208.1,1.9z M199.5,3.8c1,1.2,2.1,2.9,2.7,4
	l2.5-1.4c-0.5-1.1-1.8-2.7-2.8-3.8L199.5,3.8z M216.2,2.7c-0.7,1.5-2,3.7-3.1,5l2.3,0.8c1.1-1.2,2.4-3.1,3.6-4.9L216.2,2.7z"/>
</svg>
