<svg width="207" height="102" viewBox="0 0 207 102" fill="none" xmlns="http://www.w3.org/2000/svg">
<path opacity="0.8" d="M5.544 47.764V48.904H6.444V47.764H5.544ZM5.532 48.748C4.44 49.672 2.304 50.44 0.456 50.776C0.624 50.944 0.852 51.244 0.96 51.448C2.832 51.052 5.028 50.152 6.24 49.084L5.532 48.748ZM6.54 48.712L5.796 48.892C6.66 51.1 8.388 52.456 11.016 52.996C11.136 52.768 11.352 52.432 11.532 52.264C9.024 51.844 7.296 50.62 6.54 48.712ZM10.092 49.324C9.468 49.78 8.4 50.38 7.62 50.74L8.184 51.196C8.976 50.848 9.984 50.332 10.752 49.792L10.092 49.324ZM2.112 52.12L2.268 52.876C3.54 52.672 5.328 52.384 7.032 52.108L6.996 51.376C5.184 51.664 3.324 51.952 2.112 52.12ZM0.66 48.484V49.216H11.34V48.484H0.66ZM7.308 42.388V46.444H8.124V42.388H7.308ZM10.044 42.04V47.044C10.044 47.188 10.008 47.236 9.828 47.248C9.648 47.26 9.06 47.26 8.4 47.236C8.52 47.452 8.652 47.764 8.688 47.992C9.54 47.992 10.092 47.98 10.44 47.86C10.776 47.728 10.884 47.512 10.884 47.056V42.04H10.044ZM3.312 41.92V48.016H4.104V41.92H3.312ZM5.568 45.448V46.924C5.568 47.02 5.532 47.044 5.424 47.056C5.328 47.068 5.016 47.068 4.62 47.056C4.716 47.224 4.836 47.44 4.872 47.632C5.4 47.632 5.76 47.632 6.012 47.524C6.264 47.416 6.324 47.248 6.324 46.912V45.448H5.568ZM1.212 45.448V47.704H1.932V46.06H5.916V45.448H1.212ZM0.612 44.152V44.812H6.672V44.152H0.612ZM1.86 42.784L1.596 43.42H6.252V42.784H1.86ZM1.752 41.968C1.536 42.616 1.2 43.3 0.78 43.792C0.96 43.876 1.284 44.032 1.428 44.14C1.812 43.636 2.208 42.856 2.46 42.136L1.752 41.968ZM3.36 50.452V52.432H4.224V50.128L3.816 49.984L3.36 50.452ZM17.844 43.936L17.424 44.8H23.532V43.936H17.844ZM19.344 46.54V47.368H23.256V46.54H19.344ZM19.332 49.18V50.032H23.424V49.18H19.332ZM18.888 44.212V52.96H19.812V44.212H18.888ZM18.3 42.064C17.712 43.828 16.74 45.58 15.648 46.696C15.852 46.84 16.212 47.164 16.344 47.32C17.448 46.084 18.492 44.2 19.176 42.292L18.3 42.064ZM15.42 41.968C14.736 43.792 13.62 45.592 12.42 46.756C12.588 46.972 12.864 47.452 12.948 47.668C14.256 46.324 15.492 44.272 16.284 42.244L15.42 41.968ZM14.136 45.064V52.948H15.048V44.176L15.024 44.164L14.136 45.064ZM29.376 42.292C29.292 43.888 29.292 49.66 24.396 52.156C24.672 52.36 24.972 52.636 25.128 52.864C30.096 50.164 30.276 44.176 30.372 42.292H29.376ZM30.336 42.532L29.472 42.616C29.556 43.72 29.892 50.428 34.98 52.864C35.124 52.612 35.4 52.312 35.664 52.108C30.72 49.84 30.372 43.468 30.336 42.532ZM40.5996 43.4688L37.043 52.7324H36.1113L39.6738 43.4688H40.5996ZM47.653 50.572V51.436H51.373V50.572H47.653ZM47.317 43.048V52.432H48.193V43.9H50.881V52.348H51.793V43.048H47.317ZM43.909 42.94V52.948H44.809V42.94H43.909ZM41.557 45.472V46.312H46.909V45.472H41.557ZM43.861 45.772C43.381 47.428 42.277 49.372 41.269 50.404C41.425 50.62 41.653 50.98 41.749 51.232C42.829 50.08 43.933 47.86 44.497 46L43.861 45.772ZM46.213 42.04C45.169 42.472 43.261 42.832 41.665 43.048C41.773 43.252 41.881 43.552 41.929 43.756C43.573 43.564 45.541 43.216 46.825 42.736L46.213 42.04ZM44.737 46.552L44.281 46.996C44.725 47.524 45.889 49.06 46.273 49.696L46.825 48.964C46.513 48.568 45.121 46.936 44.737 46.552ZM53.653 42.52V43.048H58.945V42.52H53.653ZM54.049 43.564V44.092H58.609V43.564H54.049ZM54.601 44.524V45.052H57.841V45.844H54.541V46.372H58.573V44.524H54.601ZM54.205 44.524V45.304C54.205 45.832 54.121 46.516 53.521 47.08C53.689 47.164 54.013 47.38 54.145 47.5C54.793 46.876 54.925 45.988 54.925 45.316V44.524H54.205ZM55.909 41.92V43.84H56.725V41.92H55.909ZM55.981 44.728V46.12H56.665V44.728H55.981ZM59.245 44.416V44.98H63.061V44.416H59.245ZM60.253 42.268V42.904H62.509V42.268H60.253ZM62.821 44.416V44.524C62.233 45.808 60.541 46.468 58.765 46.696C58.909 46.852 59.077 47.14 59.149 47.332C61.105 46.996 62.893 46.24 63.601 44.572L63.133 44.392L62.989 44.416H62.821ZM60.373 44.764L59.725 44.956C60.469 46.228 62.005 47.032 63.925 47.344C64.033 47.14 64.225 46.864 64.381 46.708C62.545 46.492 61.033 45.82 60.373 44.764ZM59.845 42.268V42.868C59.845 43.276 59.689 43.684 58.801 44.02C58.945 44.128 59.209 44.416 59.305 44.584C60.325 44.128 60.565 43.48 60.565 42.88V42.268H59.845ZM62.113 42.268V43.156C62.113 43.672 62.161 43.84 62.305 43.984C62.449 44.104 62.701 44.152 62.905 44.152C63.013 44.152 63.313 44.152 63.445 44.152C63.589 44.152 63.805 44.14 63.925 44.092C64.045 44.032 64.153 43.948 64.225 43.816C64.285 43.696 64.321 43.336 64.345 43.024C64.165 42.976 63.925 42.856 63.781 42.736C63.781 43.036 63.769 43.252 63.733 43.36C63.709 43.444 63.661 43.504 63.625 43.528C63.589 43.552 63.469 43.552 63.385 43.552C63.289 43.552 63.133 43.552 63.061 43.552C62.977 43.552 62.917 43.54 62.893 43.516C62.845 43.48 62.845 43.384 62.845 43.216V42.268H62.113ZM53.689 47.392V48.076H64.261V47.392H53.689ZM56.029 48.736V49.336H62.029V48.736H56.029ZM56.053 50.008V50.608H62.053V50.008H56.053ZM55.441 47.644V51.604H56.317V47.644H55.441ZM61.585 47.656V52.972H62.473V47.656H61.585ZM53.641 51.388L53.677 52.144C56.209 52.084 60.349 51.964 64.213 51.844L64.273 51.136C60.373 51.256 56.197 51.352 53.641 51.388ZM71.197 41.44H70.705V53.44H71.197V41.44ZM78.805 45.7V46.54H83.293V45.7H78.805ZM78.373 43.144V51.424H79.213V43.444L78.373 43.144ZM77.377 51.208L77.545 52.132C79.105 51.868 81.373 51.496 83.485 51.124L83.437 50.26C81.217 50.62 78.877 51.004 77.377 51.208ZM82.249 41.932C81.397 42.448 79.897 43.012 78.577 43.396C78.697 43.576 78.841 43.888 78.889 44.092C80.293 43.708 81.901 43.168 83.017 42.58L82.249 41.932ZM81.157 46.06V51.1L81.973 50.992V46.06H81.157ZM83.797 42.688V53.008H84.673V43.54H87.637V42.688H83.797ZM87.409 42.688V42.988C86.989 43.948 86.281 45.592 85.609 46.804C86.941 47.848 87.349 48.736 87.349 49.492C87.349 49.924 87.253 50.26 86.977 50.416C86.809 50.512 86.605 50.548 86.401 50.56C86.125 50.572 85.753 50.572 85.369 50.536C85.525 50.8 85.621 51.196 85.633 51.448C86.005 51.472 86.437 51.472 86.773 51.436C87.109 51.4 87.385 51.304 87.613 51.172C88.069 50.872 88.261 50.32 88.249 49.576C88.249 48.724 87.925 47.776 86.593 46.672C87.193 45.592 87.877 44.236 88.405 43.084L87.733 42.652L87.589 42.688H87.409ZM92.089 43.216H97.945V44.104H92.089V43.216ZM91.225 42.616V44.704H98.845V42.616H91.225ZM94.501 41.92V45.652H95.389V41.92H94.501ZM89.605 45.352V46.06H100.309V45.352H89.605ZM92.005 48.532H98.041V49.276H92.005V48.532ZM92.005 49.84H98.041V50.596H92.005V49.84ZM92.005 47.236H98.041V47.968H92.005V47.236ZM91.129 46.648V51.172H98.941V46.648H91.129ZM95.929 51.772C97.237 52.156 98.533 52.624 99.289 52.972L100.321 52.516C99.445 52.156 97.993 51.676 96.673 51.316L95.929 51.772ZM93.157 51.292C92.293 51.724 90.841 52.096 89.593 52.336C89.797 52.492 90.109 52.828 90.253 53.008C91.453 52.708 92.989 52.192 93.961 51.652L93.157 51.292ZM105.397 46.912V47.68H112.489V46.912H105.397ZM106.573 48.532V49.252H111.649V48.532H106.573ZM107.197 47.128C106.681 48.268 105.745 49.3 104.737 49.972C104.917 50.092 105.205 50.368 105.337 50.512C106.333 49.756 107.353 48.604 107.941 47.332L107.197 47.128ZM108.025 48.652C107.389 50.056 106.249 51.292 104.977 52.072C105.157 52.192 105.445 52.48 105.565 52.612C106.825 51.76 108.037 50.416 108.757 48.856L108.025 48.652ZM109.789 48.7C109.333 50.248 108.457 51.616 107.353 52.48C107.545 52.6 107.857 52.84 107.989 52.972C109.081 52.024 110.017 50.56 110.545 48.868L109.789 48.7ZM111.265 48.532V48.664C111.133 50.992 110.989 51.868 110.761 52.096C110.665 52.204 110.557 52.216 110.389 52.216C110.197 52.216 109.741 52.216 109.237 52.168C109.357 52.372 109.441 52.708 109.453 52.936C109.969 52.96 110.473 52.96 110.749 52.936C111.049 52.924 111.253 52.84 111.445 52.636C111.745 52.288 111.913 51.352 112.057 48.892C112.069 48.772 112.081 48.532 112.081 48.532H111.265ZM107.017 44.536H110.773V45.484H107.017V44.536ZM107.017 42.964H110.773V43.9H107.017V42.964ZM106.189 42.304V46.144H111.613V42.304H106.189ZM101.281 48.304L101.485 49.192C102.553 48.868 103.933 48.436 105.241 48.028L105.133 47.224C103.717 47.632 102.253 48.064 101.281 48.304ZM101.485 44.344V45.184H105.181V44.344H101.485ZM103.117 41.932V51.868C103.117 52.048 103.045 52.096 102.889 52.096C102.745 52.108 102.241 52.108 101.701 52.084C101.821 52.336 101.941 52.732 101.977 52.96C102.757 52.96 103.249 52.936 103.561 52.78C103.873 52.636 103.981 52.384 103.981 51.868V41.932H103.117ZM120.494 42.748V43.588H127.49V42.748H120.494ZM125.594 43.168V51.832C125.594 52.072 125.498 52.144 125.246 52.156C124.982 52.168 124.094 52.168 123.146 52.144C123.266 52.384 123.41 52.732 123.458 52.96C124.694 52.972 125.426 52.96 125.858 52.828C126.278 52.696 126.458 52.456 126.458 51.832V43.168H125.594ZM121.31 45.292V46.072H123.506V48.868H121.31V49.648H124.31V45.292H121.31ZM120.902 45.292V50.56H121.694V45.292H120.902ZM116.894 42.448V52.972H117.71V43.264H119.69V42.448H116.894ZM119.474 42.448V42.688C119.222 43.504 118.778 44.884 118.334 45.976C119.21 46.924 119.426 47.764 119.426 48.424C119.426 48.784 119.354 49.12 119.174 49.252C119.066 49.324 118.946 49.348 118.79 49.36C118.598 49.384 118.37 49.372 118.094 49.348C118.226 49.576 118.31 49.924 118.322 50.14C118.586 50.152 118.886 50.152 119.126 50.128C119.378 50.092 119.582 50.02 119.75 49.9C120.086 49.66 120.23 49.144 120.23 48.496C120.23 47.752 120.026 46.876 119.15 45.88C119.558 44.92 120.002 43.744 120.35 42.76L119.762 42.412L119.63 42.448H119.474ZM128.606 48.784V49.588H139.262V48.784H128.606ZM133.442 47.668V52.936H134.354V47.668H133.442ZM133.034 49.096C132.05 50.368 130.118 51.508 128.366 52.048C128.57 52.228 128.834 52.576 128.978 52.804C130.73 52.168 132.686 50.884 133.778 49.432L133.034 49.096ZM134.774 49.12L134.018 49.48C135.11 50.896 137.066 52.12 138.89 52.72C139.022 52.48 139.298 52.132 139.49 51.952C137.666 51.46 135.746 50.368 134.774 49.12ZM132.974 45.796H134.858V47.116H132.974V45.796ZM132.974 43.816H134.858V45.112H132.974V43.816ZM132.194 43.108V47.824H135.65V43.108H132.194ZM133.598 41.92C133.526 42.352 133.358 42.988 133.214 43.408L133.922 43.564C134.102 43.18 134.306 42.604 134.498 42.064L133.598 41.92ZM128.69 44.26C129.29 44.752 129.998 45.448 130.31 45.928L130.73 45.268C130.418 44.812 129.698 44.14 129.086 43.684L128.69 44.26ZM130.874 46.024C131.222 46.708 131.558 47.632 131.654 48.208L132.29 47.956C132.182 47.404 131.834 46.504 131.474 45.832L130.874 46.024ZM131.174 43.672C130.682 44.764 129.806 46.3 129.11 47.236L129.698 47.512C130.394 46.588 131.246 45.136 131.882 43.948L131.174 43.672ZM130.238 42.004C129.998 42.7 129.542 43.684 129.194 44.296L129.794 44.56C130.166 43.96 130.598 43.048 130.958 42.268L130.238 42.004ZM128.582 47.164L128.678 47.944C129.554 47.8 130.622 47.656 131.726 47.476L131.714 46.828C130.526 46.96 129.398 47.092 128.582 47.164ZM135.578 44.164C136.214 44.716 136.934 45.496 137.246 46.024L137.714 45.4C137.39 44.896 136.658 44.14 136.034 43.612L135.578 44.164ZM137.81 45.928C138.218 46.684 138.614 47.668 138.734 48.304L139.406 48.028C139.274 47.416 138.854 46.432 138.434 45.7L137.81 45.928ZM138.11 43.66C137.618 44.764 136.706 46.312 135.998 47.26L136.586 47.536C137.306 46.6 138.182 45.136 138.818 43.948L138.11 43.66ZM137.234 41.968C136.994 42.664 136.526 43.648 136.166 44.26L136.766 44.524C137.15 43.924 137.594 43.024 137.966 42.232L137.234 41.968ZM135.626 47.164L135.734 47.944C136.61 47.824 137.702 47.68 138.806 47.536L138.794 46.876C137.606 46.984 136.466 47.092 135.626 47.164ZM7.38 70.076V74.852H7.992V70.076H7.38ZM8.916 70.076V74.852H9.54V70.076H8.916ZM4.692 64.652V65.444H11.304V64.652H4.692ZM6.144 71.936V72.62H10.932V71.936H6.144ZM5.16 66.236V68.876C5.16 70.496 5.04 72.704 3.876 74.288C4.056 74.384 4.404 74.636 4.536 74.792C5.772 73.112 5.976 70.616 5.976 68.888V66.236H5.16ZM5.52 66.236V66.98H10.14V68.276H5.52V69.02H11.004V66.236H5.52ZM5.808 69.836V74.972H6.48V70.544H10.98V69.836H5.808ZM10.5 69.836V74.096C10.5 74.204 10.476 74.228 10.392 74.228C10.296 74.228 10.056 74.228 9.756 74.216C9.852 74.432 9.972 74.744 9.996 74.96C10.452 74.96 10.764 74.936 10.98 74.828C11.208 74.684 11.256 74.468 11.256 74.108V69.836H10.5ZM2.352 63.932C2.052 64.724 1.5 65.9 1.08 66.596L1.68 66.86C2.124 66.188 2.688 65.108 3.12 64.22L2.352 63.932ZM3.624 65.3C3 66.56 1.92 68.348 1.068 69.416L1.608 69.704C2.472 68.672 3.576 66.968 4.368 65.636L3.624 65.3ZM0.432 66.416C1.068 67.016 1.788 67.868 2.088 68.444L2.592 67.784C2.28 67.244 1.548 66.428 0.912 65.84L0.432 66.416ZM3.168 68.012C3.612 68.828 4.02 69.908 4.152 70.58L4.824 70.292C4.704 69.62 4.26 68.564 3.804 67.772L3.168 68.012ZM0.336 69.236L0.432 70.04C1.476 69.968 2.844 69.884 4.2 69.8V69.032C2.76 69.116 1.332 69.188 0.336 69.236ZM3.396 70.928C3.672 71.624 3.9 72.536 3.96 73.136L4.632 72.932C4.572 72.344 4.32 71.432 4.032 70.748L3.396 70.928ZM1.056 70.784C0.924 71.828 0.696 72.908 0.312 73.64C0.492 73.712 0.84 73.868 0.984 73.976C1.356 73.208 1.644 72.044 1.8 70.916L1.056 70.784ZM2.268 69.584V74.96H3.048V69.584H2.268ZM13.74 73.316V74.204H22.284V73.316H13.74ZM13.728 69.812V70.664H22.404V69.812H13.728ZM13.176 66.32V74.972H14.028V67.196H21.984V74.912H22.872V66.32H13.176ZM16.056 64.052V73.904H16.932V64.052H16.056ZM18.96 64.052V73.856H19.848V64.052H18.96ZM30.24 63.44H29.748V75.44H30.24V63.44ZM40.368 65.18V65.972H47.316V65.18H40.368ZM43.356 63.932V74.96H44.232V63.932H43.356ZM44.604 70.604L43.956 70.82C44.604 72.236 45.816 73.64 47.028 74.348C47.16 74.132 47.436 73.808 47.628 73.64C46.44 73.064 45.228 71.84 44.604 70.604ZM41.664 69.332H45.972V70.4H41.664V69.332ZM41.664 67.628H45.972V68.684H41.664V67.628ZM40.86 66.956V71.084H46.812V66.956H40.86ZM42.948 70.616C42.264 71.864 40.92 73.112 39.636 73.7C39.84 73.88 40.116 74.192 40.248 74.408C41.556 73.7 42.924 72.32 43.668 70.868L42.948 70.616ZM36.96 64.448V74.972H37.776V65.264H39.792V64.448H36.96ZM39.516 64.448V64.688C39.264 65.516 38.82 66.944 38.388 68.036C39.252 68.972 39.468 69.788 39.468 70.436C39.468 70.796 39.408 71.12 39.216 71.252C39.12 71.324 38.988 71.36 38.844 71.36C38.652 71.384 38.424 71.372 38.148 71.348C38.28 71.576 38.352 71.924 38.364 72.14C38.64 72.152 38.94 72.152 39.18 72.128C39.42 72.092 39.636 72.02 39.804 71.912C40.14 71.672 40.272 71.168 40.272 70.52C40.272 69.776 40.08 68.936 39.192 67.94C39.6 66.98 40.044 65.744 40.392 64.76L39.816 64.412L39.672 64.448H39.516ZM48.672 68.156V68.924H59.4V68.156H48.672ZM49.272 64.952V65.708H58.968V64.952H49.272ZM53.508 63.932V65.444H54.42V63.932H53.508ZM49.62 68.54V70.148C49.62 71.408 49.464 73.16 48.324 74.444C48.528 74.552 48.9 74.852 49.044 75.02C50.268 73.64 50.52 71.6 50.52 70.16V68.54H49.62ZM50.868 66.224C52.872 66.704 55.332 67.58 56.676 68.204L57.36 67.676C55.956 67.076 53.496 66.224 51.576 65.756L50.868 66.224ZM56.352 65.444C55.116 66.404 52.524 67.244 50.448 67.676C50.568 67.832 50.736 68.12 50.808 68.288C52.98 67.808 55.524 66.908 57.036 65.816L56.352 65.444ZM56.364 68.792C55.248 69.488 53.124 70.004 51.336 70.244C51.516 70.424 51.696 70.7 51.816 70.892C53.688 70.58 55.812 70.004 57.096 69.188L56.364 68.792ZM57.108 70.244C55.92 71.168 53.592 71.828 51.444 72.14C51.624 72.32 51.804 72.608 51.912 72.812C54.168 72.428 56.508 71.708 57.876 70.64L57.108 70.244ZM58.212 71.672C56.796 73.124 53.904 73.928 50.712 74.264C50.88 74.468 51.06 74.804 51.144 75.032C54.48 74.624 57.432 73.736 59.028 72.08L58.212 71.672ZM60.552 71.684V72.428H71.448V71.684H60.552ZM60.792 65.228V65.96H71.16V65.228H60.792ZM62.316 69.164V69.716H69.612V69.164H62.316ZM67.764 70.808V73.964C67.764 74.12 67.716 74.156 67.5 74.18C67.296 74.18 66.648 74.18 65.856 74.156C65.988 74.408 66.12 74.732 66.168 74.972C67.128 74.972 67.752 74.972 68.148 74.84C68.532 74.72 68.64 74.48 68.64 73.976V70.808H67.764ZM62.7 72.932C63.42 73.376 64.272 74.06 64.668 74.54L65.268 73.952C64.848 73.472 63.972 72.824 63.264 72.392L62.7 72.932ZM62.892 64.208C63.252 64.592 63.672 65.132 63.864 65.48L64.632 65.12C64.416 64.772 63.984 64.256 63.624 63.896L62.892 64.208ZM62.58 67.268H69.384V70.34H62.58V67.268ZM61.752 66.68V70.928H70.248V66.68H61.752ZM68.172 63.908C67.98 64.328 67.608 64.952 67.32 65.348L67.992 65.6C68.328 65.24 68.736 64.7 69.096 64.184L68.172 63.908ZM66.564 65.576V67.748C66.564 68.42 66.78 68.564 67.68 68.564C67.86 68.564 69.024 68.564 69.216 68.564C69.756 68.564 69.972 68.456 70.032 68.168C69.828 68.144 69.564 68.072 69.396 67.976C69.372 68.036 69.312 68.048 69.096 68.048C68.88 68.048 67.944 68.048 67.764 68.048C67.416 68.048 67.356 68 67.356 67.76V65.576H66.564ZM64.548 65.564V67.004C64.548 67.568 64.344 68.18 62.796 68.468C62.952 68.6 63.156 68.876 63.24 69.044C64.956 68.6 65.328 67.808 65.328 67.004V65.564H64.548ZM76.3242 65.4688H77.4199L80.2148 72.4238L83.0039 65.4688H84.1055L80.6367 74H79.7812L76.3242 65.4688ZM75.9668 65.4688H76.9336L77.0918 70.6719V74H75.9668V65.4688ZM83.4902 65.4688H84.457V74H83.332V70.6719L83.4902 65.4688ZM87.457 67.6602V74H86.3672V67.6602H87.457ZM86.2852 65.9785C86.2852 65.8027 86.3379 65.6543 86.4434 65.5332C86.5527 65.4121 86.7129 65.3516 86.9238 65.3516C87.1309 65.3516 87.2891 65.4121 87.3984 65.5332C87.5117 65.6543 87.5684 65.8027 87.5684 65.9785C87.5684 66.1465 87.5117 66.291 87.3984 66.4121C87.2891 66.5293 87.1309 66.5879 86.9238 66.5879C86.7129 66.5879 86.5527 66.5293 86.4434 66.4121C86.3379 66.291 86.2852 66.1465 86.2852 65.9785ZM90.2871 65V74H89.1973V65H90.2871ZM94.1602 67.6602L91.3945 70.6191L89.8477 72.2246L89.7598 71.0703L90.8672 69.7461L92.8359 67.6602H94.1602ZM93.1699 74L90.9082 70.9766L91.4707 70.0098L94.4473 74H93.1699ZM97.793 74.1172C97.3516 74.1172 96.9512 74.043 96.5918 73.8945C96.2363 73.7422 95.9297 73.5293 95.6719 73.2559C95.418 72.9824 95.2227 72.6582 95.0859 72.2832C94.9492 71.9082 94.8809 71.498 94.8809 71.0527V70.8066C94.8809 70.291 94.957 69.832 95.1094 69.4297C95.2617 69.0234 95.4688 68.6797 95.7305 68.3984C95.9922 68.1172 96.2891 67.9043 96.6211 67.7598C96.9531 67.6152 97.2969 67.543 97.6523 67.543C98.1055 67.543 98.4961 67.6211 98.8242 67.7773C99.1562 67.9336 99.4277 68.1523 99.6387 68.4336C99.8496 68.7109 100.006 69.0391 100.107 69.418C100.209 69.793 100.26 70.2031 100.26 70.6484V71.1348H95.5254V70.25H99.1758V70.168C99.1602 69.8867 99.1016 69.6133 99 69.3477C98.9023 69.082 98.7461 68.8633 98.5312 68.6914C98.3164 68.5195 98.0234 68.4336 97.6523 68.4336C97.4062 68.4336 97.1797 68.4863 96.9727 68.5918C96.7656 68.6934 96.5879 68.8457 96.4395 69.0488C96.291 69.252 96.1758 69.5 96.0938 69.793C96.0117 70.0859 95.9707 70.4238 95.9707 70.8066V71.0527C95.9707 71.3535 96.0117 71.6367 96.0938 71.9023C96.1797 72.1641 96.3027 72.3945 96.4629 72.5938C96.627 72.793 96.8242 72.9492 97.0547 73.0625C97.2891 73.1758 97.5547 73.2324 97.8516 73.2324C98.2344 73.2324 98.5586 73.1543 98.8242 72.998C99.0898 72.8418 99.3223 72.6328 99.5215 72.3711L100.178 72.8926C100.041 73.0996 99.8672 73.2969 99.6562 73.4844C99.4453 73.6719 99.1855 73.8242 98.877 73.9414C98.5723 74.0586 98.2109 74.1172 97.793 74.1172ZM106.078 69.2656L107.355 68.3574C107.602 68.1895 107.791 68.0215 107.924 67.8535C108.061 67.6816 108.129 67.4473 108.129 67.1504C108.129 66.9199 108.039 66.7109 107.859 66.5234C107.68 66.332 107.426 66.2363 107.098 66.2363C106.871 66.2363 106.68 66.2891 106.523 66.3945C106.367 66.5 106.25 66.6406 106.172 66.8164C106.094 66.9883 106.055 67.1777 106.055 67.3848C106.055 67.5605 106.098 67.7422 106.184 67.9297C106.27 68.1172 106.389 68.3125 106.541 68.5156C106.693 68.7188 106.867 68.9336 107.062 69.1602L111.1 74H109.799L106.488 70.0391C106.195 69.6953 105.934 69.3809 105.703 69.0957C105.473 68.8066 105.291 68.5273 105.158 68.2578C105.029 67.9883 104.965 67.709 104.965 67.4199C104.965 66.9746 105.053 66.5996 105.229 66.2949C105.408 65.9863 105.658 65.752 105.979 65.5918C106.299 65.4316 106.674 65.3516 107.104 65.3516C107.521 65.3516 107.881 65.4355 108.182 65.6035C108.486 65.7676 108.721 65.9863 108.885 66.2598C109.049 66.5293 109.131 66.8262 109.131 67.1504C109.131 67.4238 109.082 67.6699 108.984 67.8887C108.887 68.1035 108.75 68.3008 108.574 68.4805C108.402 68.6602 108.201 68.8359 107.971 69.0078L106.277 70.2676C105.996 70.4746 105.791 70.6719 105.662 70.8594C105.533 71.0469 105.449 71.2129 105.41 71.3574C105.375 71.502 105.357 71.6172 105.357 71.7031C105.357 71.9805 105.418 72.2344 105.539 72.4648C105.66 72.6953 105.844 72.8809 106.09 73.0215C106.34 73.1582 106.652 73.2266 107.027 73.2266C107.355 73.2266 107.674 73.1523 107.982 73.0039C108.295 72.8516 108.574 72.6367 108.82 72.3594C109.066 72.0781 109.262 71.7441 109.406 71.3574C109.555 70.9668 109.629 70.5352 109.629 70.0625H110.602C110.602 70.4492 110.564 70.8145 110.49 71.1582C110.416 71.502 110.301 71.8223 110.145 72.1191C109.992 72.4121 109.797 72.6797 109.559 72.9219C109.523 72.957 109.496 72.998 109.477 73.0449C109.457 73.0918 109.43 73.1328 109.395 73.168C109.102 73.4844 108.74 73.7227 108.311 73.8828C107.885 74.0391 107.457 74.1172 107.027 74.1172C106.461 74.1172 105.971 74.0137 105.557 73.8066C105.146 73.5996 104.83 73.3145 104.607 72.9512C104.385 72.5879 104.273 72.1719 104.273 71.7031C104.273 71.3438 104.35 71.0273 104.502 70.7539C104.658 70.4805 104.871 70.2246 105.141 69.9863C105.414 69.748 105.727 69.5078 106.078 69.2656ZM115.965 67.7V68.54H120.453V67.7H115.965ZM115.533 65.144V73.424H116.373V65.444L115.533 65.144ZM114.537 73.208L114.705 74.132C116.265 73.868 118.533 73.496 120.645 73.124L120.597 72.26C118.377 72.62 116.037 73.004 114.537 73.208ZM119.409 63.932C118.557 64.448 117.057 65.012 115.737 65.396C115.857 65.576 116.001 65.888 116.049 66.092C117.453 65.708 119.061 65.168 120.177 64.58L119.409 63.932ZM118.317 68.06V73.1L119.133 72.992V68.06H118.317ZM120.957 64.688V75.008H121.833V65.54H124.797V64.688H120.957ZM124.569 64.688V64.988C124.149 65.948 123.441 67.592 122.769 68.804C124.101 69.848 124.509 70.736 124.509 71.492C124.509 71.924 124.413 72.26 124.137 72.416C123.969 72.512 123.765 72.548 123.561 72.56C123.285 72.572 122.913 72.572 122.529 72.536C122.685 72.8 122.781 73.196 122.793 73.448C123.165 73.472 123.597 73.472 123.933 73.436C124.269 73.4 124.545 73.304 124.773 73.172C125.229 72.872 125.421 72.32 125.409 71.576C125.409 70.724 125.085 69.776 123.753 68.672C124.353 67.592 125.037 66.236 125.565 65.084L124.893 64.652L124.749 64.688H124.569ZM129.249 65.216H135.105V66.104H129.249V65.216ZM128.385 64.616V66.704H136.005V64.616H128.385ZM131.661 63.92V67.652H132.549V63.92H131.661ZM126.765 67.352V68.06H137.469V67.352H126.765ZM129.165 70.532H135.201V71.276H129.165V70.532ZM129.165 71.84H135.201V72.596H129.165V71.84ZM129.165 69.236H135.201V69.968H129.165V69.236ZM128.289 68.648V73.172H136.101V68.648H128.289ZM133.089 73.772C134.397 74.156 135.693 74.624 136.449 74.972L137.481 74.516C136.605 74.156 135.153 73.676 133.833 73.316L133.089 73.772ZM130.317 73.292C129.453 73.724 128.001 74.096 126.753 74.336C126.957 74.492 127.269 74.828 127.413 75.008C128.613 74.708 130.149 74.192 131.121 73.652L130.317 73.292ZM142.557 68.912V69.68H149.649V68.912H142.557ZM143.733 70.532V71.252H148.809V70.532H143.733ZM144.357 69.128C143.841 70.268 142.905 71.3 141.897 71.972C142.077 72.092 142.365 72.368 142.497 72.512C143.493 71.756 144.513 70.604 145.101 69.332L144.357 69.128ZM145.185 70.652C144.549 72.056 143.409 73.292 142.137 74.072C142.317 74.192 142.605 74.48 142.725 74.612C143.985 73.76 145.197 72.416 145.917 70.856L145.185 70.652ZM146.949 70.7C146.493 72.248 145.617 73.616 144.513 74.48C144.705 74.6 145.017 74.84 145.149 74.972C146.241 74.024 147.177 72.56 147.705 70.868L146.949 70.7ZM148.425 70.532V70.664C148.293 72.992 148.149 73.868 147.921 74.096C147.825 74.204 147.717 74.216 147.549 74.216C147.357 74.216 146.901 74.216 146.397 74.168C146.517 74.372 146.601 74.708 146.613 74.936C147.129 74.96 147.633 74.96 147.909 74.936C148.209 74.924 148.413 74.84 148.605 74.636C148.905 74.288 149.073 73.352 149.217 70.892C149.229 70.772 149.241 70.532 149.241 70.532H148.425ZM144.177 66.536H147.933V67.484H144.177V66.536ZM144.177 64.964H147.933V65.9H144.177V64.964ZM143.349 64.304V68.144H148.773V64.304H143.349ZM138.441 70.304L138.645 71.192C139.713 70.868 141.093 70.436 142.401 70.028L142.293 69.224C140.877 69.632 139.413 70.064 138.441 70.304ZM138.645 66.344V67.184H142.341V66.344H138.645ZM140.277 63.932V73.868C140.277 74.048 140.205 74.096 140.049 74.096C139.905 74.108 139.401 74.108 138.861 74.084C138.981 74.336 139.101 74.732 139.137 74.96C139.917 74.96 140.409 74.936 140.721 74.78C141.033 74.636 141.141 74.384 141.141 73.868V63.932H140.277ZM157.654 64.748V65.588H164.65V64.748H157.654ZM162.754 65.168V73.832C162.754 74.072 162.658 74.144 162.406 74.156C162.142 74.168 161.254 74.168 160.306 74.144C160.426 74.384 160.57 74.732 160.618 74.96C161.854 74.972 162.586 74.96 163.018 74.828C163.438 74.696 163.618 74.456 163.618 73.832V65.168H162.754ZM158.47 67.292V68.072H160.666V70.868H158.47V71.648H161.47V67.292H158.47ZM158.062 67.292V72.56H158.854V67.292H158.062ZM154.054 64.448V74.972H154.87V65.264H156.85V64.448H154.054ZM156.634 64.448V64.688C156.382 65.504 155.938 66.884 155.494 67.976C156.37 68.924 156.586 69.764 156.586 70.424C156.586 70.784 156.514 71.12 156.334 71.252C156.226 71.324 156.106 71.348 155.95 71.36C155.758 71.384 155.53 71.372 155.254 71.348C155.386 71.576 155.47 71.924 155.482 72.14C155.746 72.152 156.046 72.152 156.286 72.128C156.538 72.092 156.742 72.02 156.91 71.9C157.246 71.66 157.39 71.144 157.39 70.496C157.39 69.752 157.186 68.876 156.31 67.88C156.718 66.92 157.162 65.744 157.51 64.76L156.922 64.412L156.79 64.448H156.634ZM165.766 70.784V71.588H176.422V70.784H165.766ZM170.602 69.668V74.936H171.514V69.668H170.602ZM170.194 71.096C169.21 72.368 167.278 73.508 165.526 74.048C165.73 74.228 165.994 74.576 166.138 74.804C167.89 74.168 169.846 72.884 170.938 71.432L170.194 71.096ZM171.934 71.12L171.178 71.48C172.27 72.896 174.226 74.12 176.05 74.72C176.182 74.48 176.458 74.132 176.65 73.952C174.826 73.46 172.906 72.368 171.934 71.12ZM170.134 67.796H172.018V69.116H170.134V67.796ZM170.134 65.816H172.018V67.112H170.134V65.816ZM169.354 65.108V69.824H172.81V65.108H169.354ZM170.758 63.92C170.686 64.352 170.518 64.988 170.374 65.408L171.082 65.564C171.262 65.18 171.466 64.604 171.658 64.064L170.758 63.92ZM165.85 66.26C166.45 66.752 167.158 67.448 167.47 67.928L167.89 67.268C167.578 66.812 166.858 66.14 166.246 65.684L165.85 66.26ZM168.034 68.024C168.382 68.708 168.718 69.632 168.814 70.208L169.45 69.956C169.342 69.404 168.994 68.504 168.634 67.832L168.034 68.024ZM168.334 65.672C167.842 66.764 166.966 68.3 166.27 69.236L166.858 69.512C167.554 68.588 168.406 67.136 169.042 65.948L168.334 65.672ZM167.398 64.004C167.158 64.7 166.702 65.684 166.354 66.296L166.954 66.56C167.326 65.96 167.758 65.048 168.118 64.268L167.398 64.004ZM165.742 69.164L165.838 69.944C166.714 69.8 167.782 69.656 168.886 69.476L168.874 68.828C167.686 68.96 166.558 69.092 165.742 69.164ZM172.738 66.164C173.374 66.716 174.094 67.496 174.406 68.024L174.874 67.4C174.55 66.896 173.818 66.14 173.194 65.612L172.738 66.164ZM174.97 67.928C175.378 68.684 175.774 69.668 175.894 70.304L176.566 70.028C176.434 69.416 176.014 68.432 175.594 67.7L174.97 67.928ZM175.27 65.66C174.778 66.764 173.866 68.312 173.158 69.26L173.746 69.536C174.466 68.6 175.342 67.136 175.978 65.948L175.27 65.66ZM174.394 63.968C174.154 64.664 173.686 65.648 173.326 66.26L173.926 66.524C174.31 65.924 174.754 65.024 175.126 64.232L174.394 63.968ZM172.786 69.164L172.894 69.944C173.77 69.824 174.862 69.68 175.966 69.536L175.954 68.876C174.766 68.984 173.626 69.092 172.786 69.164ZM0.744 87.612V88.464H11.22V87.612H0.744ZM1.5 90.228V91.092H10.608V90.228H1.5ZM2.688 95.652V96.492H9.348V95.652H2.688ZM5.496 85.92V90.66H6.444V85.92H5.496ZM2.148 92.46V97.068H3.072V93.276H8.988V97.068H9.96V92.46H2.148ZM19.428 85.944V94.284H20.28V85.944H19.428ZM15.252 90.888L15.588 91.68L22.812 88.872L22.464 88.092L15.252 90.888ZM16.764 87.12V95.136C16.764 96.468 17.184 96.804 18.636 96.804C18.96 96.804 21.432 96.804 21.78 96.804C23.112 96.804 23.4 96.264 23.556 94.608C23.292 94.548 22.932 94.392 22.716 94.236C22.62 95.652 22.488 95.988 21.756 95.988C21.228 95.988 19.08 95.988 18.672 95.988C17.82 95.988 17.652 95.832 17.652 95.148V87.12H16.764ZM22.164 88.296C22.164 90.636 22.14 92.208 22.044 92.592C21.96 92.904 21.828 92.952 21.624 92.952C21.468 92.952 21.036 92.952 20.7 92.94C20.808 93.144 20.904 93.516 20.928 93.768C21.288 93.78 21.816 93.768 22.14 93.684C22.512 93.588 22.764 93.36 22.86 92.808C22.98 92.292 23.004 90.564 23.016 88.38L23.052 88.236L22.428 87.972L22.272 88.116L22.056 88.296H22.164ZM15.192 85.968C14.52 87.792 13.404 89.592 12.216 90.756C12.372 90.96 12.624 91.428 12.72 91.632C14.004 90.288 15.24 88.248 16.02 86.232L15.192 85.968ZM13.92 89.064V96.948H14.796V88.2L14.784 88.188L13.92 89.064ZM30.24 85.44H29.748V97.44H30.24V85.44ZM41.916 88.5V89.364H47.268V88.5H41.916ZM44.088 85.92V96.948H44.976V85.92H44.088ZM44.028 88.884C43.512 90.948 42.312 93.18 41.064 94.38C41.244 94.584 41.496 94.932 41.604 95.184C42.924 93.888 44.124 91.38 44.712 89.112L44.028 88.884ZM45.084 88.884L44.436 89.064C44.964 91.272 45.912 93.66 46.944 94.956C47.112 94.716 47.424 94.404 47.64 94.248C46.584 93.12 45.6 90.924 45.084 88.884ZM36.648 88.5V89.364H41.4V88.5H36.648ZM38.808 85.92V96.948H39.684V85.92H38.808ZM38.736 89.028C38.316 90.78 37.32 92.82 36.348 93.9C36.504 94.116 36.732 94.488 36.84 94.74C37.86 93.54 38.868 91.212 39.348 89.244L38.736 89.028ZM39.66 89.604L39.168 90.072C39.6 90.588 40.692 91.992 41.052 92.616L41.652 91.836C41.352 91.476 40.032 89.952 39.66 89.604ZM51.624 88.284V89.148H59.556V88.284H51.624ZM53.472 91.548V96.912H54.336V92.388H58.092V96.816H59.004V91.548H53.472ZM53.88 95.328V96.18H58.608V95.328H53.88ZM54.876 85.956C54.432 88.908 53.448 92.112 51.168 93.936C51.348 94.116 51.624 94.44 51.756 94.632C54.192 92.64 55.236 89.28 55.812 86.1L54.876 85.956ZM51.312 85.932C50.616 87.756 49.44 89.532 48.228 90.684C48.396 90.9 48.648 91.368 48.732 91.572C50.064 90.24 51.348 88.224 52.164 86.196L51.312 85.932ZM50.064 89.028V96.936H50.928V88.188L50.916 88.176L50.064 89.028ZM62.82 85.932V87.408H63.696V85.932H62.82ZM60.708 86.976V87.744H65.82V86.976H60.708ZM60.504 89.46V90.24H66.024V89.46H60.504ZM61.512 92.532V93.168H65.028V92.532H61.512ZM61.512 94.044V94.668H65.028V94.044H61.512ZM61.452 87.936C61.644 88.416 61.848 89.076 61.896 89.484L62.664 89.292C62.58 88.872 62.388 88.236 62.172 87.756L61.452 87.936ZM64.38 87.732C64.272 88.176 64.032 88.86 63.852 89.292L64.548 89.484C64.74 89.076 64.968 88.488 65.184 87.936L64.38 87.732ZM61.164 91.008V96.948H62.004V91.692H65.052V91.008H61.164ZM64.584 91.008V95.976C64.584 96.108 64.548 96.144 64.392 96.156C64.26 96.168 63.816 96.168 63.3 96.144C63.42 96.372 63.552 96.72 63.6 96.948C64.284 96.948 64.752 96.948 65.076 96.804C65.388 96.672 65.46 96.42 65.46 95.988V91.008H64.584ZM66.984 86.868V87.624H71.376V86.868H66.984ZM66.996 91.86V92.448H70.896V91.86H66.996ZM67.032 93.18V93.78H70.824V93.18H67.032ZM66.96 94.56V95.148H70.944V94.56H66.96ZM66.636 85.92V89.052H67.512V85.92H66.636ZM66.636 88.608V89.316H70.032V90.408H66.636V91.116H70.896V88.608H66.636ZM66.636 90.804V95.664C66.636 96.66 66.96 96.888 68.1 96.888C68.34 96.888 70.068 96.888 70.32 96.888C71.232 96.888 71.484 96.576 71.592 95.472C71.352 95.424 71.004 95.292 70.8 95.16C70.764 95.976 70.68 96.132 70.248 96.132C69.9 96.132 68.448 96.132 68.184 96.132C67.608 96.132 67.512 96.048 67.512 95.652V90.804H66.636Z" fill="white"/>
<path d="M202.929 25.1299L0 25.1299L0 26.0199L202.929 26.0199V25.1299Z" fill="white"/>
<path d="M207 22L190 22V29H207V22Z" fill="#00E0B8"/>
<path d="M7.504 11.506V7.796H11.522V11.506H7.504ZM2.422 11.506V7.796H6.426V11.506H2.422ZM7.504 6.774V4.282H6.426V6.774H1.4V13.396H2.422V12.528H6.426V17.064H7.504V12.528H11.522V13.326H12.586V6.774H7.504ZM24.738 7.012C24.416 6.69 23.772 6.312 23.226 6.06L22.736 6.578C23.282 6.816 23.926 7.25 24.234 7.558L24.738 7.012ZM21 12.668C19.432 12.948 17.878 13.228 16.814 13.396L16.954 14.18C18.102 13.97 19.586 13.676 21.042 13.396L21 12.668ZM19.782 11.436H18.172V10.036H19.782V11.436ZM17.444 9.378V12.094H20.538V9.378H17.444ZM23.66 9.14C23.422 10.092 23.072 10.96 22.624 11.716C22.386 10.82 22.218 9.7 22.106 8.496H25.088V7.712H22.036C22.008 7.222 21.98 6.732 21.952 6.228H21.056C21.084 6.732 21.126 7.222 21.168 7.712H16.954V8.496H21.238C21.406 10.078 21.63 11.52 22.008 12.626C21.42 13.368 20.72 13.984 19.894 14.46C20.076 14.614 20.384 14.95 20.51 15.118C21.196 14.67 21.812 14.138 22.358 13.508C22.736 14.25 23.198 14.74 23.814 14.866C24.542 15.146 25.018 14.586 25.2 13.06C25.004 12.976 24.696 12.766 24.528 12.598C24.43 13.494 24.29 14.096 24.094 14.04C23.632 13.97 23.254 13.494 22.96 12.752C23.632 11.786 24.164 10.638 24.514 9.322L23.66 9.14ZM16.184 15.524V5.878H25.788V15.524H16.184ZM15.19 4.926V17.106H16.184V16.462H25.788V17.106H26.81V4.926H15.19ZM32.676 8.272C32.648 9.63 32.466 11.254 31.696 12.85C31.164 12.388 30.604 11.954 30.072 11.548C30.31 10.638 30.576 9.518 30.8 8.384L32.676 8.272ZM34.468 8.16L34.482 7.208L33.67 7.25V6.284H32.69V7.306L30.982 7.404C31.164 6.368 31.332 5.318 31.444 4.38L30.422 4.324C30.324 5.276 30.17 6.382 29.974 7.446C29.456 7.46 28.98 7.488 28.574 7.502L28.686 8.496L29.792 8.44C29.512 9.742 29.218 10.988 28.938 11.898C29.652 12.444 30.45 13.088 31.192 13.746C30.604 14.67 29.778 15.58 28.63 16.392C28.84 16.546 29.204 16.882 29.358 17.106C30.492 16.28 31.346 15.37 31.962 14.432C32.606 15.034 33.18 15.608 33.572 16.084L34.244 15.216C33.824 14.726 33.194 14.138 32.494 13.522C33.418 11.674 33.628 9.784 33.67 8.216L34.468 8.16ZM41.384 10.19H38.304V8.846C39.284 7.992 40.278 6.816 40.964 5.78L40.25 5.262L40.012 5.318H34.636V6.284H39.298C38.724 7.096 37.968 8.006 37.254 8.594V10.19H34.02V11.184H37.254V15.832C37.254 16.028 37.17 16.098 36.946 16.098C36.736 16.112 35.966 16.112 35.14 16.084C35.294 16.378 35.462 16.784 35.518 17.078C36.61 17.092 37.282 17.064 37.716 16.91C38.15 16.742 38.304 16.448 38.304 15.832V11.184H41.384V10.19ZM45.472 6.214H43.316V6.83H48.608V6.214H46.424V5.584H48.986V4.968H46.424V4.282H45.472V4.968H42.868V5.584H45.472V6.214ZM45.948 15.104V14.39H52.052V15.104H45.948ZM52.052 11.478V12.206H45.948V11.478H52.052ZM45.57 7.908V8.916H44.282C44.324 8.622 44.338 8.356 44.338 8.104V7.908H45.57ZM47.712 8.916H46.354V7.908H47.712V8.916ZM45.948 12.892H52.052V13.69H45.948V12.892ZM53.074 11.478H54.824V10.694H43.554C43.848 10.344 44.03 9.924 44.142 9.518H48.566V7.306H43.512V8.09C43.512 8.748 43.386 9.644 42.686 10.358C42.84 10.442 43.106 10.61 43.288 10.764V11.478H44.94V15.104H42.84V15.888H52.052V17.106H53.074V15.888H55.104V15.104H53.074V11.478ZM53.186 7.824C52.864 8.244 52.43 8.594 51.926 8.888C51.394 8.594 50.96 8.23 50.638 7.824H53.186ZM53.844 7.152L53.676 7.18H49.784C50.624 6.69 50.848 6.046 50.862 5.444H52.668V6.004C52.668 6.704 52.808 7.026 53.55 7.026H54.516C54.74 7.026 55.034 7.012 55.174 6.97C55.16 6.76 55.132 6.522 55.118 6.298C54.95 6.354 54.642 6.368 54.488 6.368H53.746C53.564 6.368 53.536 6.284 53.536 6.018V4.702H50.022V5.388C50.022 5.864 49.84 6.326 48.818 6.732C48.972 6.83 49.21 7.082 49.35 7.292V7.824H49.742C50.092 8.384 50.554 8.86 51.128 9.266C50.4 9.546 49.574 9.742 48.748 9.854C48.902 10.036 49.084 10.358 49.168 10.582C50.148 10.414 51.114 10.162 51.954 9.756C52.724 10.148 53.606 10.4 54.6 10.568C54.726 10.33 54.95 10.008 55.146 9.826C54.264 9.728 53.48 9.532 52.78 9.28C53.494 8.804 54.054 8.16 54.39 7.376L53.844 7.152ZM68.502 5.556H63.798C63.672 5.122 63.406 4.576 63.112 4.184L62.09 4.38C62.3 4.73 62.496 5.164 62.636 5.556H57.61V6.494H68.502V5.556ZM66.332 11.87V13.326H59.752V11.87H66.332ZM59.752 15.678V14.152H66.332V15.678H59.752ZM58.73 17.092H59.752V16.574H66.332V17.064H67.396V10.974H58.73V17.092ZM65.674 8.818C65.996 8.23 66.374 7.474 66.682 6.802L65.562 6.536C65.338 7.194 64.918 8.174 64.568 8.818H60.942L61.39 8.706C61.278 8.118 60.9 7.236 60.48 6.592L59.5 6.816C59.85 7.418 60.172 8.23 60.298 8.818H56.812V9.77H69.188V8.818H65.674ZM76.2669 11.198C76.8409 10.848 77.3589 10.428 77.8349 10.008C78.5489 10.344 79.3329 10.792 79.9909 11.198H76.2669ZM78.0029 4.87V5.71H78.8849V5.752C78.8849 6.424 78.8009 7.334 78.0729 8.09C77.8489 7.502 77.3589 6.746 76.8689 6.158L76.2109 6.494C76.4209 6.76 76.6309 7.096 76.8269 7.418L75.2169 8.062V5.892C76.0989 5.626 77.0509 5.29 77.7789 4.912L77.0369 4.282C76.4069 4.674 75.3009 5.108 74.3209 5.388V7.866C74.3209 8.342 74.0689 8.538 73.9009 8.622C74.0269 8.846 74.2089 9.238 74.2929 9.448V9.476C74.5169 9.28 74.8809 9.084 77.2049 8.104C77.2889 8.286 77.3729 8.468 77.4289 8.622L77.6669 8.496C77.8629 8.622 78.1009 8.818 78.2409 8.972L77.9329 8.846C76.9809 9.952 75.2589 10.988 73.7049 11.576C73.9149 11.772 74.1389 12.066 74.2789 12.29C74.8249 12.052 75.3849 11.744 75.9309 11.422V11.926H77.4569V12.822H74.5589V13.578H77.4569V15.706C76.1269 15.79 74.9369 15.874 74.0129 15.916L74.1669 16.756C76.0989 16.63 78.9969 16.448 81.7269 16.224L81.7409 15.426L80.0469 15.538C80.2569 15.076 80.4809 14.53 80.6769 14.012L79.8369 13.774C79.6829 14.292 79.4169 15.048 79.1929 15.594L78.3809 15.65V13.578H81.2229V12.822H78.3809V11.926H80.0609V11.24C80.4809 11.506 80.8449 11.744 81.1109 11.968L81.6849 11.324C80.9569 10.722 79.5709 9.966 78.3949 9.448C78.4789 9.35 78.5629 9.252 78.6329 9.154L78.2969 9C79.5289 8.062 79.6689 6.774 79.6689 5.794V5.71H80.9569C80.8589 7.502 80.7609 8.174 80.6349 8.37C80.5509 8.482 80.4669 8.496 80.3129 8.496C80.1869 8.496 79.8929 8.496 79.5429 8.454C79.6549 8.678 79.7389 9.028 79.7529 9.294C80.1169 9.322 80.4949 9.308 80.7049 9.28C80.9849 9.252 81.1669 9.168 81.3349 8.958C81.6009 8.636 81.7129 7.712 81.8249 5.262C81.8389 5.122 81.8389 4.87 81.8389 4.87H78.0029ZM75.1609 14.054C75.4549 14.572 75.7209 15.258 75.8189 15.706L76.6309 15.44C76.5189 15.02 76.2249 14.348 75.9169 13.844L75.1609 14.054ZM83.4489 5.864H82.4829V13.466H83.4489V5.864ZM84.9609 4.548V15.762C84.9609 15.986 84.8629 16.056 84.6389 16.07C84.4289 16.07 83.7009 16.07 82.8889 16.056C83.0289 16.35 83.1689 16.784 83.2109 17.078C84.3309 17.078 84.9889 17.05 85.3949 16.882C85.7869 16.7 85.9549 16.406 85.9549 15.762V4.548H84.9609ZM90.6729 14.04V10.316H92.3529V9.35H90.6729V6.214H92.4789V5.234H87.9149V6.214H89.6229V9.35H88.0689V10.316H89.6229V14.334C88.9229 14.53 88.2789 14.698 87.7469 14.838L87.9709 15.818C89.3009 15.426 91.0649 14.894 92.7589 14.39L92.6189 13.48L90.6729 14.04ZM96.1049 8.916V12.276H94.0609V8.916H96.1049ZM97.0149 13.2V7.992H93.1649V14.11H94.0609V13.2H97.0149ZM100.487 5.192H92.6889V6.2H98.4009V15.678C98.4009 15.93 98.3169 16 98.0509 16.014C97.7569 16.028 96.8049 16.028 95.7829 16C95.9509 16.294 96.1049 16.77 96.1749 17.05C97.4489 17.064 98.3029 17.036 98.7789 16.868C99.2549 16.7 99.4369 16.378 99.4369 15.678V6.2H100.487V5.192ZM109.405 10.68L112.415 4.408L111.659 4.156L108.551 10.68L111.659 17.204L112.415 16.952L109.405 10.68ZM111.617 10.68L114.627 4.408L113.871 4.156L110.763 10.68L113.871 17.204L114.627 16.952L111.617 10.68ZM127.857 6.83V5.892H118.813C119.121 5.444 119.401 4.968 119.639 4.492L118.715 4.198C118.043 5.57 116.923 6.9 115.747 7.74C115.957 7.936 116.279 8.356 116.391 8.552C116.993 8.076 117.581 7.488 118.113 6.83H127.857ZM117.175 17.078C117.693 16.336 118.239 15.174 118.589 14.264L117.609 14.012C117.259 14.922 116.685 16.014 116.195 16.686L117.175 17.078ZM119.947 14.404C120.115 15.244 120.241 16.322 120.241 16.966L121.263 16.812C121.249 16.182 121.095 15.132 120.913 14.32L119.947 14.404ZM122.831 14.376C123.181 15.202 123.545 16.28 123.671 16.938L124.693 16.728C124.553 16.07 124.175 15.006 123.783 14.208L122.831 14.376ZM125.715 14.32C126.219 15.188 126.849 16.35 127.115 17.05L128.123 16.616C127.815 15.93 127.171 14.782 126.653 13.942L125.715 14.32ZM119.051 10.12H120.507V12.5H119.051V10.12ZM123.027 10.12V12.5H121.403V10.12H123.027ZM125.463 10.12V12.5H123.923V10.12H125.463ZM126.429 12.5V10.12H128.011V9.182H126.429V7.628H125.463V9.182H123.923V7.628H123.027V9.182H121.403V7.628H120.507V9.182H119.051V7.628H118.113V9.182H116.433V10.12H118.113V12.5H115.971V13.438H128.291V12.5H126.429ZM136.719 11.814V9.49H140.485V11.814H136.719ZM132.281 11.814C132.323 11.296 132.337 10.778 132.337 10.316V9.49H135.683V11.814H132.281ZM135.683 6.27V8.51H132.337V6.27H135.683ZM140.485 8.51H136.719V6.27H140.485V8.51ZM141.507 5.276H131.315V10.316C131.315 12.262 131.175 14.726 129.635 16.462C129.859 16.588 130.279 16.938 130.433 17.148C131.497 15.958 131.973 14.362 132.183 12.808H135.683V16.938H136.719V12.808H140.485V15.65C140.485 15.916 140.387 16 140.107 16.014C139.855 16.014 138.903 16.028 137.923 15.986C138.063 16.266 138.231 16.714 138.273 16.994C139.589 17.008 140.401 16.994 140.877 16.826C141.325 16.644 141.507 16.336 141.507 15.664V5.276ZM149.734 17.204L152.842 10.68L149.734 4.156L148.978 4.408L151.988 10.68L148.978 16.952L149.734 17.204ZM147.522 17.204L150.63 10.68L147.522 4.156L146.766 4.408L149.776 10.68L146.766 16.952L147.522 17.204Z" fill="#00E0B8"/>
</svg>
