<svg width="206" height="433" viewBox="0 0 206 433" fill="none" xmlns="http://www.w3.org/2000/svg">
<path d="M151.567 366.798C151.567 366.798 163.165 379.017 166.517 382.071C169.869 385.126 169.875 389.096 168.653 390.62C167.432 392.144 161.943 396.729 155.533 401.007C149.124 405.284 147.647 409.228 141.218 414.461C134.788 419.694 126.268 424.54 119.251 422.709C112.233 420.877 107.352 420.57 108.875 416.901C110.397 413.231 121.694 408.045 122.596 404.074C123.498 400.104 125.033 382.693 125.033 382.693C125.033 382.693 136.631 380.861 141.819 371.083C147.007 361.304 151.567 366.798 151.567 366.798Z" fill="white" stroke="#00E0B8" stroke-width="0.823325" stroke-linecap="round" stroke-linejoin="round"/>
<path d="M157.389 392.759C150.986 398.26 143.968 404.67 141.832 408.339C139.695 412.008 128.405 419.334 120.773 419.334C116.681 419.241 112.614 418.673 108.653 417.64C108.091 420.603 112.749 420.995 119.251 422.696C126.268 424.527 134.814 419.641 141.218 414.448C147.621 409.255 149.15 405.291 155.56 401.007C161.969 396.723 167.458 392.15 168.68 390.62C169.901 389.089 169.901 385.126 166.543 382.071C166.543 382.071 163.799 387.258 157.389 392.759Z" fill="white" stroke="#00E0B8" stroke-width="0.823325" stroke-linecap="round" stroke-linejoin="round"/>
<path d="M78.5313 223.333C78.5313 223.333 71.8144 268.236 71.8144 289.31C71.8144 310.384 76.3882 317.108 79.139 320.163C81.8897 323.217 127.353 377.277 127.353 377.277C127.353 377.277 124.909 389.802 127.96 389.802C131.012 389.802 139.859 389.495 142.609 387.356C145.36 385.217 154.507 376.361 156.03 374.53C157.552 372.698 158.474 372.391 155.422 367.197C152.371 362.004 150.234 360.788 149.32 358.341C148.405 355.895 132.233 324.133 124.909 312.831C117.584 301.528 116.369 283.508 116.369 283.508C116.369 283.508 136.199 231.581 132.841 225.165C129.483 218.748 78.5313 223.333 78.5313 223.333Z" fill="#FFF176" stroke="#00E0B8" stroke-width="0.823325" stroke-linecap="round" stroke-linejoin="round"/>
<path d="M96.8392 389.194C96.8392 389.194 95.3103 395.303 91.0436 399.574C86.777 403.845 77.917 413.015 70.599 415.769C63.2811 418.523 63.5816 422.179 64.4964 424.318C65.4111 426.456 71.5138 431.65 79.1389 431.957C86.7639 432.265 117.891 427.981 121.55 426.149C125.209 424.318 129.79 423.094 131.012 415.461C131.76 411.002 131.656 406.441 130.704 402.02L96.8392 389.194Z" fill="white" stroke="#00E0B8" stroke-width="0.823325" stroke-linecap="round" stroke-linejoin="round"/>
<path d="M131.155 414.461C128.816 416.018 125.719 418.17 122.472 420.682C115.755 425.875 86.7706 429.231 79.4461 429.231C73.7028 429.231 67.0317 423.049 64.4181 420.374C64.1465 421.003 64.0124 421.682 64.0248 422.367C64.0372 423.052 64.1958 423.726 64.49 424.344C65.4047 426.483 71.5074 431.677 79.1325 431.984C86.7575 432.292 117.885 428.007 121.544 426.176C125.203 424.345 129.783 423.121 131.005 415.488C131.07 415.115 131.11 414.775 131.155 414.461Z" fill="white" stroke="#00E0B8" stroke-width="0.823325" stroke-linecap="round" stroke-linejoin="round"/>
<path d="M112.096 229.136C112.096 229.136 87.3783 291.45 88.2931 295.727C89.2078 300.005 98.0612 378.2 98.0612 378.2C98.0612 378.2 93.788 382.778 93.788 383.694C93.788 384.609 94.0952 393.773 94.0952 393.773C99.3636 396.119 104.763 398.159 110.267 399.882C119.113 402.629 131.626 404.461 131.626 404.461C131.626 404.461 135.285 394.381 133.756 387.35C132.227 380.319 130.705 378.494 130.705 376.662C130.705 374.831 127.353 320.157 126.739 310.993C126.124 301.83 125.523 296.944 126.131 295.413C126.738 293.883 155.422 244.395 158.147 236.154C160.872 227.912 162.113 223.02 160.591 219.05" fill="#FFF176"/>
<path d="M112.096 229.136C112.096 229.136 87.3783 291.45 88.2931 295.727C89.2078 300.005 98.0612 378.2 98.0612 378.2C98.0612 378.2 93.788 382.778 93.788 383.694C93.788 384.609 94.0952 393.773 94.0952 393.773C99.3636 396.119 104.763 398.159 110.267 399.882C119.113 402.629 131.626 404.461 131.626 404.461C131.626 404.461 135.285 394.381 133.756 387.35C132.227 380.319 130.705 378.494 130.705 376.662C130.705 374.831 127.353 320.157 126.739 310.993C126.124 301.83 125.523 296.944 126.131 295.413C126.738 293.883 155.422 244.395 158.147 236.154C160.872 227.912 162.113 223.02 160.591 219.05" stroke="#00E0B8" stroke-width="0.823325" stroke-linecap="round" stroke-linejoin="round"/>
<path d="M122.91 327.73C124.968 349.354 128.182 378.617 128.574 380.946C129.182 384.608 126.131 387.663 127.96 389.802C129.79 391.941 131.012 392.549 129.79 394.688C129.076 395.896 128.659 397.257 128.574 398.658" stroke="#00E0B8" stroke-width="0.823325" stroke-linecap="round" stroke-linejoin="round"/>
<path d="M143.655 245.546C137.99 258.935 129.502 278.793 126.738 284.136C122.472 292.384 109.345 297.27 113.318 298.186C117.29 299.102 125.216 296.354 119.421 299.716C113.625 303.078 122.165 302.464 121.25 304.602C120.969 305.257 121.472 312.131 122.328 321.53" stroke="#00E0B8" stroke-width="0.823325" stroke-linecap="round" stroke-linejoin="round"/>
<path d="M149.012 232.805C149.012 232.805 147.745 235.84 145.804 240.458" stroke="#00E0B8" stroke-width="0.823325" stroke-linecap="round" stroke-linejoin="round"/>
<path d="M96.6825 233.563L107.699 240.653C107.699 240.653 121.675 234.347 124.621 232.771C127.568 231.195 107.699 232.967 102.583 231.594C99.4115 230.75 96.1934 230.095 92.9451 229.631L96.6825 233.563Z" fill="#00E0B8" stroke="#00E0B8" stroke-width="0.823325" stroke-linecap="round" stroke-linejoin="round"/>
<path d="M72.4286 150.025L84.3269 198.897C84.3269 198.897 81.8897 197.674 82.1903 200.12C82.6048 202.31 83.2171 204.458 84.0198 206.537L76.3947 225.505C76.3947 225.505 99.5836 239.555 116.062 235.277C132.541 230.999 152.371 226.12 156.03 225.198C159.689 224.276 166.105 223.975 166.105 223.975C166.105 223.975 166.406 203.515 160.917 183.657C155.429 163.8 122.165 88.3585 118.806 84.6956C115.448 81.0328 107.215 78.279 100.191 79.1947C93.1673 80.1104 78.5313 83.165 76.7019 90.8046C74.8724 98.4442 72.4286 150.025 72.4286 150.025Z" fill="white" stroke="#00E0B8" stroke-width="0.823325" stroke-linecap="round" stroke-linejoin="round"/>
<path d="M84.634 99.6274C84.634 99.6274 85.2416 106.037 95.3104 110.93" stroke="#00E0B8" stroke-width="0.823325" stroke-linecap="round" stroke-linejoin="round"/>
<path d="M85.5748 108.177C85.5748 108.177 92.2851 117.334 95.9506 118.871" stroke="#00E0B8" stroke-width="0.823325" stroke-linecap="round" stroke-linejoin="round"/>
<path d="M86.7705 201.343C86.7705 201.343 95.0097 208.061 102.942 211.115" stroke="#00E0B8" stroke-width="0.823325" stroke-linecap="round" stroke-linejoin="round"/>
<path d="M104.177 217.885C105.433 218.429 106.749 218.822 108.097 219.056" stroke="#00E0B8" stroke-width="0.823325" stroke-linecap="round" stroke-linejoin="round"/>
<path d="M88.2929 207.452C92.2095 210.803 96.4364 213.773 100.916 216.321" stroke="#00E0B8" stroke-width="0.823325" stroke-linecap="round" stroke-linejoin="round"/>
<path d="M85.5748 89.9463C85.5748 89.9463 76.1464 153.104 75.6236 171.189C75.1009 189.274 75.6236 210.761 75.6236 210.761C75.6236 210.761 62.2749 209.184 57.3287 205.783C52.3825 202.382 50.7948 201.061 50.7948 201.061L58.9099 141.573C58.9099 141.573 26.1881 164.374 23.568 164.897C20.9479 165.42 10.742 162.281 8.38322 158.611C6.02448 154.942 6.03105 119.301 8.90597 114.056C11.7809 108.81 21.7385 108.555 26.1881 110.654C30.6377 112.754 32.722 121.12 32.722 121.12C32.722 121.12 55.4992 94.6558 63.6143 90.9865C71.7294 87.3171 85.5748 89.9463 85.5748 89.9463Z" fill="#00E0B8" stroke="#00E0B8" stroke-width="0.823325" stroke-linecap="round" stroke-linejoin="round"/>
<path d="M75.6367 210.762L75.7217 216.649C70.7088 215.747 65.8377 214.183 61.236 211.998C53.8592 208.447 50.0303 205.163 50.0303 205.163L50.7687 201.069C50.7687 201.069 73.9183 210.9 75.6367 210.762Z" fill="#FFF176" stroke="#00E0B8" stroke-width="0.823325" stroke-linecap="round" stroke-linejoin="round"/>
<path d="M58.8838 141.581L62.8107 117.472L60.7198 111.441" stroke="white" stroke-width="0.823325" stroke-linecap="round" stroke-linejoin="round"/>
<path d="M32.7025 121.134C32.7025 121.134 35.584 135.523 34.0093 145.505" stroke="white" stroke-width="0.823325" stroke-linecap="round" stroke-linejoin="round"/>
<path d="M77.4728 88.1167L71.1871 116.157C71.1871 116.157 75.1075 114.849 77.9955 116.157C80.8835 117.465 81.5957 117.877 81.5957 117.877L85.5879 89.948C85.5879 89.948 82.7064 86.8086 77.4728 88.1167Z" fill="#FFF176" stroke="#00E0B8" stroke-width="0.823325" stroke-linecap="round" stroke-linejoin="round"/>
<path d="M104.693 118.264L133.272 218.272C133.272 218.272 148.692 213.91 161.427 201.96C172.018 192.018 177.723 186.916 176.873 183.102C176.024 179.289 148.725 126.532 149.568 126.316C150.411 126.1 180.473 138.606 180.473 138.606C180.473 138.606 188.967 135.218 191.267 129.285C193.567 123.353 194.018 116.786 191.692 114.032C189.366 111.279 171.162 105.13 160.153 96.2282C149.143 87.3262 147.033 85.2136 138.14 82.46C129.247 79.7063 111.475 77.3711 111.475 77.3711C111.475 77.3711 115.918 101.742 113.801 106.399C111.684 111.056 104.693 118.264 104.693 118.264Z" fill="#00E0B8" stroke="#00E0B8" stroke-width="0.823325" stroke-linecap="round" stroke-linejoin="round"/>
<path d="M133.272 218.271L135.572 222.392C135.572 222.392 153.064 216.367 161.806 209.807C170.548 203.247 178.748 192.847 179.023 190.656C179.297 188.465 176.873 183.101 176.873 183.101C176.873 183.101 163.76 208.427 133.272 218.271Z" fill="#FFF176" stroke="#00E0B8" stroke-width="0.823325" stroke-linecap="round" stroke-linejoin="round"/>
<path d="M62.1116 56.8969C62.1116 56.8969 60.7525 61.5212 61.5693 62.6069C62.386 63.6927 63.1962 65.053 63.1962 65.053C63.1962 65.053 57.4921 74.5765 59.3935 75.9369C61.2949 77.2974 64.8297 79.7436 64.8297 79.7436C64.8297 79.7436 68.6324 93.6167 71.625 93.3485C74.6175 93.0804 80.5895 91.1704 80.5895 91.1704C80.5895 91.1704 88.2014 99.6015 92.0042 100.419C95.8069 101.237 100.158 100.144 102.87 93.8784C105.582 87.6123 107.49 80.2736 107.49 77.0097C107.517 75.1415 107.147 73.2887 106.405 71.5743C106.405 71.5743 109.123 66.6753 108.306 62.3192C107.49 57.963 106.679 55.2485 101.772 54.9803C96.8654 54.7121 88.1884 55.7915 88.1884 55.7915C88.1884 55.7915 73.8138 56.8838 71.8536 56.6091C69.8935 56.3344 62.1116 56.8969 62.1116 56.8969Z" fill="white" stroke="#00E0B8" stroke-width="0.823325" stroke-linecap="round" stroke-linejoin="round"/>
<path d="M91.1874 55.8053C91.1874 55.8053 93.9056 63.968 95.539 62.8823C97.1725 61.7965 100.426 57.4405 102.328 57.4405C104.229 57.4405 106.405 62.3327 105.32 65.8713C104.674 67.9769 103.33 69.7996 101.511 71.0387C102.548 72.4827 104.111 73.4599 105.863 73.7595C108.849 74.3023 109.397 71.3133 110.482 69.4099C111.567 67.5066 116.461 64.511 112.926 55.8053C109.391 47.0995 91.1874 55.8053 91.1874 55.8053Z" fill="#00E0B8" stroke="#00E0B8" stroke-width="0.823325" stroke-linecap="round" stroke-linejoin="round"/>
<path d="M63.1962 46.0132C63.1962 46.0132 42.5491 49.8201 44.4505 50.9124C46.3519 52.0047 63.7451 60.1609 67.5478 61.7896C71.3506 63.4182 75.7021 62.8817 82.223 60.9784C87.4107 59.5927 92.6723 58.5009 97.9827 57.708C97.9827 57.708 74.611 48.1782 63.1962 46.0132Z" fill="#FFF176" stroke="#00E0B8" stroke-width="0.823325" stroke-linecap="round" stroke-linejoin="round"/>
<path d="M63.1962 46.0131C63.1962 46.0131 61.5693 31.0546 64.2874 28.8765C67.0055 26.6984 80.8639 20.9883 89.2861 20.9883C97.7083 20.9883 112.658 29.6939 113.2 33.7753C113.743 37.8568 114.559 54.4443 112.926 55.8048C111.292 57.1652 97.9827 57.7079 97.9827 57.7079L63.1962 46.0131Z" fill="#FFF176" stroke="#00E0B8" stroke-width="0.823325" stroke-linecap="round" stroke-linejoin="round"/>
<path d="M72.4352 78.1157C74.2679 78.0183 76.0539 77.5011 77.6556 76.6041C79.2573 75.7072 80.6321 74.4543 81.6741 72.9419C81.6741 72.9419 83.3076 79.2013 80.8639 80.5618C78.4203 81.9223 72.4352 78.1157 72.4352 78.1157Z" fill="#00E0B8" stroke="#00E0B8" stroke-width="0.823325" stroke-linecap="round" stroke-linejoin="round"/>
<path d="M72.7031 66.9635C72.7031 68.3109 72.1542 69.4096 71.4812 69.4096C70.8082 69.4096 70.2529 68.3109 70.2529 66.9635C70.2529 65.6161 70.8017 64.5107 71.4812 64.5107C72.1608 64.5107 72.7031 65.6096 72.7031 66.9635Z" fill="#00E0B8"/>
<path d="M67.5478 61.7903C67.5478 61.7903 72.1216 57.7611 75.7152 62.2873" stroke="#00E0B8" stroke-width="0.823325" stroke-linecap="round" stroke-linejoin="round"/>
<path d="M80.5894 91.177L89.1161 87.3965L85.5486 96.148L80.5894 91.177Z" fill="#00E0B8" stroke="#00E0B8" stroke-width="0.823325" stroke-linecap="round" stroke-linejoin="round"/>
<path d="M107.392 78.0824C107.392 78.0824 108.737 97.3122 106.81 106.535C104.882 115.757 104.693 118.262 104.693 118.262C104.693 118.262 109.92 117.111 112.971 116.725C115.469 116.492 117.979 116.428 120.485 116.535C120.485 116.535 121.067 98.6528 119.139 88.4623C117.212 78.2718 112.906 75.695 111.436 74.812C109.966 73.929 107.006 73.2749 107.392 78.0824Z" fill="#FFF176" stroke="#00E0B8" stroke-width="0.823325" stroke-linecap="round" stroke-linejoin="round"/>
<path d="M160.146 125.471C160.146 125.471 160.571 132.012 162.472 134.157C164.374 136.303 177.716 140.698 185.125 141.352C192.535 142.006 199.5 139.658 201.63 129.068C203.76 118.479 200.977 115.084 194.645 111.48C188.314 107.876 173.691 106.817 169.464 106.182C165.236 105.548 161.838 105.757 159.721 107.451C157.605 109.145 160.146 125.471 160.146 125.471Z" fill="#00E0B8" stroke="#00E0B8" stroke-width="0.823325" stroke-linecap="round" stroke-linejoin="round"/>
<path d="M151.044 106.392C151.192 105.951 151.477 105.568 151.859 105.302C152.24 105.036 152.697 104.9 153.161 104.914C154.854 104.914 162.688 102.579 165.648 108.302C168.608 114.025 166.955 120.592 165.23 124.189C163.505 127.787 161.42 127.368 159.512 127.159C157.605 126.95 155.069 125.465 155.069 125.465C155.069 125.465 155.069 116.138 154.011 112.75C153.275 110.521 152.279 108.387 151.044 106.392Z" fill="#FFF176" stroke="#00E0B8" stroke-width="0.823325" stroke-linecap="round" stroke-linejoin="round"/>
<path d="M149.352 106.189C149.352 106.189 146.177 105.535 142.577 104.704C138.976 103.873 134.958 103.01 131.149 101.106C127.339 99.2031 126.072 99.831 127.339 103.219C128.607 106.607 130.306 108.517 131.998 108.733C133.69 108.949 137.075 109.152 137.075 110.637C137.075 112.121 135.592 115.3 134.958 116.36C134.324 117.419 123.53 128.859 124.38 130.553L125.222 132.247C125.222 132.247 122.263 135.426 123.739 136.485C125.216 137.545 127.339 136.276 127.339 136.276C127.339 136.276 131.573 137.761 132.632 137.545C133.69 137.329 143.217 133.307 143.217 133.307C143.217 133.307 138.558 138.18 136.441 139.664C134.324 141.149 140.041 141.999 141.734 140.318C143.426 138.638 152.103 130.573 154.436 127.185C156.768 123.796 157.82 126.975 158.029 119.133C158.238 111.29 152.952 106.391 149.352 106.189Z" fill="white" stroke="#00E0B8" stroke-width="0.823325" stroke-linecap="round" stroke-linejoin="round"/>
<path d="M125.223 132.253L141.1 119.754" stroke="#00E0B8" stroke-width="0.823325" stroke-linecap="round" stroke-linejoin="round"/>
<path d="M127.34 136.276L141.734 126.53" stroke="#00E0B8" stroke-width="0.823325" stroke-linecap="round" stroke-linejoin="round"/>
<path d="M143.217 133.313L145.334 132.253" stroke="#00E0B8" stroke-width="0.823325" stroke-linecap="round" stroke-linejoin="round"/>
<path d="M16.2043 99.0195C16.2043 99.0195 11.0818 110.237 12.1664 112.409C13.251 114.58 24.0777 115.319 27.0571 113.958C30.0366 112.598 33.9766 105.403 35.1984 102.146C36.4203 98.8885 25.8418 97.9336 22.1763 97.9336C20.133 97.8902 18.1019 98.2596 16.2043 99.0195Z" fill="#FFF176" stroke="#00E0B8" stroke-width="0.823325" stroke-linecap="round" stroke-linejoin="round"/>
<path d="M40.2165 102.009C38.9332 103.223 37.4697 104.232 35.878 104.998C33.3036 106.221 29.3441 106.221 29.3441 106.221C29.3441 106.221 28.6907 107.575 25.2734 108.523C21.8562 109.472 17.4328 107.438 16.7271 104.455C16.0215 101.472 17.2694 99.425 19.308 98.3393C21.3466 97.2535 38.1649 92.6357 39.3867 93.8588C40.6086 95.0819 42.3923 99.2941 40.2165 102.009Z" fill="white" stroke="#00E0B8" stroke-width="0.823325" stroke-linecap="round" stroke-linejoin="round"/>
<path d="M57.3418 94.2454L53.0098 82.3804L59.3085 81.4189L62.7715 90.9161L57.3418 94.2454Z" fill="white" stroke="#00E0B8" stroke-width="0.823325" stroke-linecap="round" stroke-linejoin="round"/>
<path d="M55.3882 94.9582L51.0562 83.0933L45.6331 86.4225L49.096 95.9132L55.3882 94.9582Z" fill="white" stroke="#00E0B8" stroke-width="0.823325" stroke-linecap="round" stroke-linejoin="round"/>
<path d="M55.3579 95.0126L51.0281 83.1494L53.1393 82.3773L57.469 94.2405L55.3579 95.0126Z" fill="white" stroke="#00E0B8" stroke-width="0.823325" stroke-linecap="round" stroke-linejoin="round"/>
<path d="M11.879 109.249L8.39643 99.7062L45.6332 86.4219L49.1157 95.9583L11.879 109.249Z" fill="#252525" stroke="#00E0B8" stroke-width="0.823325" stroke-linecap="round" stroke-linejoin="round"/>
<path d="M3.7834 111.127L0.999951 103.494L8.28527 99.7524L11.7613 109.289L3.7834 111.127Z" fill="#252525" stroke="#00E0B8" stroke-width="0.823325" stroke-linecap="round" stroke-linejoin="round"/>
<path d="M34.3883 100.649C34.3883 100.649 34.7933 104.573 35.8779 104.999C36.9626 105.424 42.7974 103.501 44.1564 102.552C45.5155 101.604 44.5615 99.2821 43.882 97.5291C43.2024 95.7762 36.0152 97.3918 34.3883 100.649Z" fill="white" stroke="#00E0B8" stroke-width="0.823325" stroke-linecap="round" stroke-linejoin="round"/>
<path d="M33.1468 85.6835C33.1468 85.6835 35.7015 83.3617 38.2562 83.8261C40.811 84.2905 44.9927 92.1918 44.9927 94.5203C44.9927 96.8488 44.2936 98.0065 43.1306 98.4447C41.9327 98.8272 40.6744 98.9846 39.4193 98.9091C38.2563 98.9091 37.3285 97.0514 35.499 93.5586C33.6695 90.0659 31.2911 87.3122 33.1468 85.6835Z" fill="white" stroke="#00E0B8" stroke-width="0.823325" stroke-linecap="round" stroke-linejoin="round"/>
<path d="M28.4946 88.6719C28.4946 88.6719 32.9051 84.9502 34.0681 84.9502C35.2311 84.9502 39.4063 92.8577 40.1054 94.9507C40.8045 97.0438 39.4063 98.6659 37.5506 99.5947C35.695 100.524 33.8328 101.223 33.1337 99.3657C32.4346 97.5082 28.4946 88.6719 28.4946 88.6719Z" fill="white" stroke="#00E0B8" stroke-width="0.823325" stroke-linecap="round" stroke-linejoin="round"/>
<path d="M22.6533 92.4861C22.6533 92.4861 22.9342 90.8182 25.5217 88.8886C28.1091 86.9591 29.9517 86.7497 31.0886 88.4961C32.2255 90.2425 36.564 97.699 36.4856 99.1118C36.4072 100.525 35.5447 101.074 33.9831 101.728C32.4215 102.382 29.3636 102.251 28.2071 100.276C27.0506 98.3006 22.6533 92.4861 22.6533 92.4861Z" fill="white" stroke="#00E0B8" stroke-width="0.823325" stroke-linecap="round" stroke-linejoin="round"/>
<path d="M21.6993 92.2633C22.2817 92.0374 22.9051 91.9373 23.5289 91.9692C27.0114 91.9692 31.4218 99.1639 31.1931 100.806C30.9644 102.447 27.4753 104.292 26.0836 104.076C24.6918 103.86 20.2815 97.1035 19.5497 95.7103C19.5823 95.6907 18.2756 93.7938 21.6993 92.2633Z" fill="white" stroke="#00E0B8" stroke-width="0.823325" stroke-linecap="round" stroke-linejoin="round"/>
<path d="M169.575 72.1897C149.937 72.1897 134.017 56.2533 134.017 36.5948C134.017 16.9364 149.937 1 169.575 1C189.213 1 205.132 16.9364 205.132 36.5948C205.132 56.2533 189.213 72.1897 169.575 72.1897Z" fill="white" stroke="#00E0B8" stroke-width="0.823325" stroke-linecap="round" stroke-linejoin="round"/>
<path d="M141.433 53.0239C141.433 53.0239 139.76 61.8145 127.627 66.0071C127.627 66.0071 138.506 67.263 146.451 59.7215" fill="white"/>
<path d="M141.433 53.0239C141.433 53.0239 139.76 61.8145 127.627 66.0071C127.627 66.0071 138.506 67.263 146.451 59.7215" stroke="#00E0B8" stroke-width="0.823325" stroke-linecap="round" stroke-linejoin="round"/>
<path d="M183.789 17.1811C183.784 16.8816 183.711 16.5873 183.574 16.3207C183.438 16.054 183.242 15.8223 183.003 15.643C182.763 15.4637 182.486 15.3416 182.191 15.2862C181.897 15.2309 181.595 15.2437 181.306 15.3236L161.012 21.3607C160.616 21.4837 160.27 21.7292 160.022 22.0617C159.774 22.3943 159.638 22.797 159.633 23.2118V46.4839C158.464 46.0259 157.181 45.9477 155.965 46.2606C154.75 46.5736 153.663 47.2614 152.86 48.227C152.057 49.1926 151.578 50.387 151.49 51.6405C151.403 52.894 151.712 54.1432 152.373 55.2111C153.035 56.2789 154.016 57.1113 155.176 57.5901C156.337 58.0689 157.618 58.1699 158.839 57.8788C160.061 57.5877 161.159 56.9191 161.979 55.968C162.8 55.0169 163.3 53.8315 163.41 52.5798H163.495V34.8216L179.941 29.9423V40.2242C178.75 39.7766 177.448 39.7217 176.224 40.0674C175 40.413 173.918 41.1411 173.137 42.1455C172.355 43.1499 171.915 44.378 171.88 45.6506C171.845 46.9232 172.217 48.1737 172.942 49.2196C173.668 50.2655 174.708 51.0521 175.911 51.4645C177.114 51.8769 178.417 51.8935 179.631 51.5121C180.844 51.1307 181.904 50.3711 182.655 49.3442C183.407 48.3172 183.811 47.0767 183.809 45.8036C183.809 45.7709 183.809 45.7447 183.809 45.712L183.789 17.1811ZM179.928 25.9L163.482 30.773V24.6311L179.928 19.7581V25.9Z" fill="#00E0B8"/>
</svg>
