<svg width="798" height="72" viewBox="0 0 798 72" fill="none" xmlns="http://www.w3.org/2000/svg">
<mask id="path-1-outside-1_381_681" maskUnits="userSpaceOnUse" x="0.26001" y="0.714844" width="798" height="72" fill="black">
<rect fill="white" x="0.26001" y="0.714844" width="798" height="72"/>
<path d="M44.57 16.7548C44.12 17.4748 43.64 18.0148 43.13 18.3748C42.65 18.7348 42.02 18.9148 41.24 18.9148C40.55 18.9148 39.8 18.7048 38.99 18.2848C38.21 17.8348 37.31 17.3398 36.29 16.7998C35.3 16.2598 34.16 15.7798 32.87 15.3598C31.58 14.9098 30.11 14.6848 28.46 14.6848C25.61 14.6848 23.48 15.2998 22.07 16.5298C20.69 17.7298 20 19.3648 20 21.4348C20 22.7548 20.42 23.8498 21.26 24.7198C22.1 25.5898 23.195 26.3398 24.545 26.9698C25.925 27.5998 27.485 28.1848 29.225 28.7248C30.995 29.2348 32.795 29.8198 34.625 30.4798C36.455 31.1098 38.24 31.8598 39.98 32.7298C41.75 33.5998 43.31 34.7098 44.66 36.0598C46.04 37.4098 47.15 39.0598 47.99 41.0098C48.83 42.9298 49.25 45.2548 49.25 47.9848C49.25 51.0148 48.725 53.8498 47.675 56.4898C46.625 59.1298 45.095 61.4398 43.085 63.4198C41.105 65.3698 38.645 66.9148 35.705 68.0548C32.795 69.1648 29.48 69.7198 25.76 69.7198C23.72 69.7198 21.635 69.5098 19.505 69.0898C17.405 68.6698 15.365 68.0848 13.385 67.3348C11.405 66.5548 9.54501 65.6398 7.80501 64.5898C6.06501 63.5398 4.55001 62.3698 3.26001 61.0798L7.76001 53.9698C8.12001 53.4598 8.58501 53.0398 9.15501 52.7098C9.75501 52.3498 10.4 52.1698 11.09 52.1698C11.99 52.1698 12.89 52.4548 13.79 53.0248C14.72 53.5948 15.755 54.2248 16.895 54.9148C18.065 55.6048 19.4 56.2348 20.9 56.8048C22.4 57.3748 24.17 57.6598 26.21 57.6598C28.97 57.6598 31.115 57.0598 32.645 55.8598C34.175 54.6298 34.94 52.6948 34.94 50.0548C34.94 48.5248 34.52 47.2798 33.68 46.3198C32.84 45.3598 31.73 44.5648 30.35 43.9348C29 43.3048 27.455 42.7498 25.715 42.2698C23.975 41.7898 22.19 41.2648 20.36 40.6948C18.53 40.0948 16.745 39.3748 15.005 38.5348C13.265 37.6648 11.705 36.5398 10.325 35.1598C8.97501 33.7498 7.88001 32.0098 7.04001 29.9398C6.20001 27.8398 5.78001 25.2598 5.78001 22.1998C5.78001 19.7398 6.27501 17.3398 7.26501 14.9998C8.25501 12.6598 9.71001 10.5748 11.63 8.74484C13.55 6.91484 15.905 5.45984 18.695 4.37984C21.485 3.26984 24.68 2.71484 28.28 2.71484C30.29 2.71484 32.24 2.87984 34.13 3.20984C36.05 3.50984 37.865 3.97484 39.575 4.60484C41.285 5.20484 42.875 5.93984 44.345 6.80984C45.845 7.64984 47.18 8.60984 48.35 9.68984L44.57 16.7548Z"/>
<path d="M105.294 15.4948L86.844 15.4948L86.844 68.9998H71.634L71.634 15.4948L53.184 15.4948V3.43484L105.294 3.43484V15.4948Z"/>
<path d="M140.383 56.9848C142.423 56.9848 144.238 56.6548 145.828 55.9949C147.448 55.3049 148.813 54.3298 149.923 53.0698C151.033 51.8098 151.873 50.2798 152.443 48.4798C153.043 46.6498 153.343 44.5798 153.343 42.2698V3.43484L168.553 3.43484V42.2698C168.553 46.2898 167.893 49.9798 166.573 53.3398C165.283 56.6998 163.423 59.5948 160.993 62.0248C158.563 64.4548 155.608 66.3448 152.128 67.6948C148.648 69.0448 144.733 69.7198 140.383 69.7198C136.003 69.7198 132.073 69.0448 128.593 67.6948C125.113 66.3448 122.158 64.4548 119.728 62.0248C117.298 59.5948 115.438 56.6998 114.148 53.3398C112.858 49.9798 112.213 46.2898 112.213 42.2698V3.43484L127.423 3.43484V42.2248C127.423 44.5348 127.708 46.6048 128.278 48.4348C128.878 50.2348 129.733 51.7798 130.843 53.0698C131.953 54.3298 133.303 55.3049 134.893 55.9949C136.513 56.6548 138.343 56.9848 140.383 56.9848Z"/>
<path d="M239.925 36.1948C239.925 40.9348 239.1 45.3148 237.45 49.3348C235.83 53.3248 233.535 56.7898 230.565 59.7298C227.595 62.6398 224.01 64.9198 219.81 66.5698C215.64 68.1898 211.005 68.9998 205.905 68.9998H180.435V3.43484L205.905 3.43484C211.005 3.43484 215.64 4.25984 219.81 5.90984C224.01 7.55984 227.595 9.83984 230.565 12.7498C233.535 15.6598 235.83 19.1248 237.45 23.1448C239.1 27.1348 239.925 31.4848 239.925 36.1948ZM224.355 36.1948C224.355 32.9548 223.935 30.0298 223.095 27.4198C222.255 24.8098 221.04 22.6048 219.45 20.8048C217.89 18.9748 215.97 17.5798 213.69 16.6198C211.41 15.6298 208.815 15.1348 205.905 15.1348L195.735 15.1348V57.2998L205.905 57.2998C208.815 57.2998 211.41 56.8198 213.69 55.8598C215.97 54.8698 217.89 53.4748 219.45 51.6748C221.04 49.8448 222.255 47.6248 223.095 45.0148C223.935 42.4048 224.355 39.4648 224.355 36.1948Z"/>
<path d="M264.202 15.1348V30.4348L284.812 30.4348V41.6848H264.202V57.2998L291.112 57.2998V68.9998H248.902V3.43484L291.112 3.43484V15.1348L264.202 15.1348Z"/>
<path d="M357.733 3.43484V68.9998H349.813C348.643 68.9998 347.653 68.8198 346.843 68.4598C346.063 68.0698 345.283 67.4099 344.503 66.4799L313.588 27.3748C313.708 28.5448 313.783 29.6848 313.813 30.7948C313.873 31.8748 313.903 32.8948 313.903 33.8548V68.9998L300.493 68.9998V3.43484L308.503 3.43484C309.163 3.43484 309.718 3.46484 310.168 3.52484C310.618 3.58484 311.023 3.70484 311.383 3.88484C311.743 4.03484 312.088 4.25984 312.418 4.55984C312.748 4.85984 313.123 5.26484 313.543 5.77484L344.728 45.1498C344.578 43.8898 344.473 42.6748 344.413 41.5048C344.353 40.3048 344.323 39.1798 344.323 38.1298V3.43484L357.733 3.43484Z"/>
<path d="M417.569 15.4948L399.119 15.4948V68.9998H383.909V15.4948L365.459 15.4948V3.43484L417.569 3.43484V15.4948Z"/>
<path d="M553.559 3.43484L533.309 68.9998H519.539L507.209 28.3648C506.969 27.7348 506.744 27.0448 506.534 26.2948C506.324 25.5148 506.114 24.7048 505.904 23.8648C505.694 24.7048 505.484 25.5148 505.274 26.2948C505.064 27.0448 504.839 27.7348 504.599 28.3648L492.089 68.9998L478.319 68.9998L458.069 3.43484L470.849 3.43484C472.169 3.43484 473.264 3.73485 474.134 4.33484C475.034 4.93484 475.619 5.72984 475.889 6.71984L484.889 40.9198C485.159 41.9998 485.429 43.1848 485.699 44.4748C485.969 45.7348 486.239 47.0548 486.509 48.4348C487.049 45.6148 487.709 43.1098 488.489 40.9198L499.109 6.71984C499.379 5.87984 499.949 5.12984 500.819 4.46984C501.719 3.77984 502.799 3.43484 504.059 3.43484L508.559 3.43484C509.879 3.43484 510.944 3.74984 511.754 4.37984C512.564 4.97984 513.179 5.75984 513.599 6.71984L524.129 40.9198C524.909 43.0198 525.569 45.4048 526.109 48.0748C526.349 46.7248 526.589 45.4648 526.829 44.2948C527.099 43.0948 527.369 41.9698 527.639 40.9198L536.639 6.71984C536.879 5.84984 537.449 5.08484 538.349 4.42484C539.249 3.76484 540.329 3.43484 541.589 3.43484L553.559 3.43484Z"/>
<path d="M622.802 36.1948C622.802 40.9348 621.977 45.3448 620.327 49.4248C618.707 53.5048 616.412 57.0598 613.442 60.0898C610.472 63.0898 606.887 65.4448 602.687 67.1548C598.517 68.8648 593.882 69.7198 588.782 69.7198C583.682 69.7198 579.032 68.8648 574.832 67.1548C570.632 65.4448 567.032 63.0898 564.032 60.0898C561.062 57.0598 558.752 53.5048 557.102 49.4248C555.482 45.3448 554.672 40.9348 554.672 36.1948C554.672 31.4548 555.482 27.0448 557.102 22.9648C558.752 18.8848 561.062 15.3448 564.032 12.3448C567.032 9.34484 570.632 6.98984 574.832 5.27984C579.032 3.56984 583.682 2.71484 588.782 2.71484C593.882 2.71484 598.517 3.58484 602.687 5.32484C606.887 7.03484 610.472 9.38984 613.442 12.3898C616.412 15.3898 618.707 18.9298 620.327 23.0098C621.977 27.0898 622.802 31.4848 622.802 36.1948ZM607.232 36.1948C607.232 32.9548 606.812 30.0448 605.972 27.4648C605.132 24.8548 603.917 22.6498 602.327 20.8498C600.767 19.0498 598.847 17.6698 596.567 16.7098C594.287 15.7498 591.692 15.2698 588.782 15.2698C585.842 15.2698 583.217 15.7498 580.907 16.7098C578.627 17.6698 576.692 19.0498 575.102 20.8498C573.542 22.6498 572.342 24.8548 571.502 27.4648C570.662 30.0448 570.242 32.9548 570.242 36.1948C570.242 39.4648 570.662 42.4048 571.502 45.0148C572.342 47.5948 573.542 49.7848 575.102 51.5848C576.692 53.3848 578.627 54.7648 580.907 55.7248C583.217 56.6548 585.842 57.1199 588.782 57.1199C591.692 57.1199 594.287 56.6548 596.567 55.7248C598.847 54.7648 600.767 53.3848 602.327 51.5848C603.917 49.7848 605.132 47.5948 605.972 45.0148C606.812 42.4048 607.232 39.4648 607.232 36.1948Z"/>
<path d="M653.083 34.2598C655.153 34.2598 656.908 34.0048 658.348 33.4948C659.818 32.9548 661.018 32.2198 661.948 31.2898C662.878 30.3598 663.553 29.2798 663.973 28.0498C664.393 26.7898 664.603 25.4398 664.603 23.9998C664.603 21.1198 663.658 18.8698 661.768 17.2498C659.908 15.6298 657.013 14.8198 653.083 14.8198L646.963 14.8198V34.2598H653.083ZM685.393 68.9998H671.623C669.073 68.9998 667.243 68.0399 666.133 66.1199L655.243 47.0848C654.733 46.2748 654.163 45.6898 653.533 45.3298C652.903 44.9398 652.003 44.7448 650.833 44.7448H646.963V68.9998H631.753V3.43484L653.083 3.43484C657.823 3.43484 661.858 3.92984 665.188 4.91984C668.548 5.87984 671.278 7.22984 673.378 8.96984C675.508 10.7098 677.053 12.7648 678.013 15.1348C678.973 17.5048 679.453 20.0848 679.453 22.8748C679.453 25.0048 679.168 27.0148 678.598 28.9048C678.028 30.7948 677.188 32.5498 676.078 34.1698C674.968 35.7598 673.588 37.1848 671.938 38.4448C670.318 39.7048 668.443 40.7398 666.313 41.5498C667.303 42.0598 668.233 42.7048 669.103 43.4848C669.973 44.2348 670.753 45.1348 671.443 46.1848L685.393 68.9998Z"/>
<path d="M706.114 29.9848H708.544C710.794 29.9848 712.414 29.2798 713.404 27.8698L728.164 6.44984C729.034 5.30984 729.964 4.52984 730.954 4.10984C731.974 3.65984 733.234 3.43484 734.734 3.43484L747.964 3.43484L728.524 29.9398C727.144 31.7698 725.659 33.0898 724.069 33.8998C725.209 34.3198 726.244 34.9048 727.174 35.6548C728.104 36.4048 728.974 37.3798 729.784 38.5798L749.584 68.9998H735.994C735.124 68.9998 734.374 68.9398 733.744 68.8198C733.144 68.6998 732.619 68.5198 732.169 68.2798C731.719 68.0398 731.329 67.7549 730.999 67.4249C730.669 67.0649 730.354 66.6598 730.054 66.2098L715.204 43.3948C714.664 42.5548 713.974 41.9698 713.134 41.6398C712.324 41.2798 711.214 41.0998 709.804 41.0998H706.114V68.9998H690.904V3.43484L706.114 3.43484V29.9848Z"/>
<path d="M790.674 16.7548C790.224 17.4748 789.744 18.0148 789.234 18.3748C788.754 18.7348 788.124 18.9148 787.344 18.9148C786.654 18.9148 785.904 18.7048 785.094 18.2848C784.314 17.8348 783.413 17.3398 782.393 16.7998C781.403 16.2598 780.264 15.7798 778.974 15.3598C777.684 14.9098 776.214 14.6848 774.564 14.6848C771.714 14.6848 769.584 15.2998 768.174 16.5298C766.794 17.7298 766.104 19.3648 766.104 21.4348C766.104 22.7548 766.524 23.8498 767.364 24.7198C768.204 25.5898 769.298 26.3398 770.648 26.9698C772.028 27.5998 773.588 28.1848 775.328 28.7248C777.098 29.2348 778.899 29.8198 780.729 30.4798C782.559 31.1098 784.343 31.8598 786.083 32.7298C787.853 33.5998 789.413 34.7098 790.763 36.0598C792.143 37.4098 793.254 39.0598 794.094 41.0098C794.934 42.9298 795.354 45.2548 795.354 47.9848C795.354 51.0148 794.829 53.8498 793.779 56.4898C792.729 59.1298 791.199 61.4398 789.189 63.4198C787.209 65.3698 784.749 66.9148 781.809 68.0548C778.899 69.1648 775.584 69.7198 771.864 69.7198C769.824 69.7198 767.739 69.5098 765.609 69.0898C763.509 68.6698 761.469 68.0848 759.489 67.3348C757.509 66.5548 755.649 65.6398 753.909 64.5898C752.169 63.5398 750.654 62.3698 749.364 61.0798L753.864 53.9698C754.224 53.4598 754.689 53.0398 755.259 52.7098C755.859 52.3498 756.504 52.1698 757.194 52.1698C758.094 52.1698 758.993 52.4548 759.893 53.0248C760.823 53.5948 761.859 54.2248 762.999 54.9148C764.169 55.6048 765.504 56.2348 767.004 56.8048C768.504 57.3748 770.274 57.6598 772.314 57.6598C775.074 57.6598 777.219 57.0598 778.749 55.8598C780.279 54.6298 781.044 52.6948 781.044 50.0548C781.044 48.5248 780.624 47.2798 779.784 46.3198C778.944 45.3598 777.833 44.5648 776.453 43.9348C775.103 43.3048 773.559 42.7498 771.819 42.2698C770.079 41.7898 768.294 41.2648 766.464 40.6948C764.634 40.0948 762.849 39.3748 761.109 38.5348C759.369 37.6648 757.809 36.5398 756.429 35.1598C755.079 33.7498 753.983 32.0098 753.143 29.9398C752.303 27.8398 751.884 25.2598 751.884 22.1998C751.884 19.7398 752.379 17.3398 753.369 14.9998C754.359 12.6598 755.814 10.5748 757.734 8.74484C759.654 6.91484 762.009 5.45984 764.799 4.37984C767.589 3.26984 770.784 2.71484 774.384 2.71484C776.394 2.71484 778.344 2.87984 780.234 3.20984C782.154 3.50984 783.969 3.97484 785.679 4.60484C787.389 5.20484 788.979 5.93984 790.449 6.80984C791.949 7.64984 793.283 8.60984 794.453 9.68984L790.674 16.7548Z"/>
</mask>
<path d="M44.57 16.7548C44.12 17.4748 43.64 18.0148 43.13 18.3748C42.65 18.7348 42.02 18.9148 41.24 18.9148C40.55 18.9148 39.8 18.7048 38.99 18.2848C38.21 17.8348 37.31 17.3398 36.29 16.7998C35.3 16.2598 34.16 15.7798 32.87 15.3598C31.58 14.9098 30.11 14.6848 28.46 14.6848C25.61 14.6848 23.48 15.2998 22.07 16.5298C20.69 17.7298 20 19.3648 20 21.4348C20 22.7548 20.42 23.8498 21.26 24.7198C22.1 25.5898 23.195 26.3398 24.545 26.9698C25.925 27.5998 27.485 28.1848 29.225 28.7248C30.995 29.2348 32.795 29.8198 34.625 30.4798C36.455 31.1098 38.24 31.8598 39.98 32.7298C41.75 33.5998 43.31 34.7098 44.66 36.0598C46.04 37.4098 47.15 39.0598 47.99 41.0098C48.83 42.9298 49.25 45.2548 49.25 47.9848C49.25 51.0148 48.725 53.8498 47.675 56.4898C46.625 59.1298 45.095 61.4398 43.085 63.4198C41.105 65.3698 38.645 66.9148 35.705 68.0548C32.795 69.1648 29.48 69.7198 25.76 69.7198C23.72 69.7198 21.635 69.5098 19.505 69.0898C17.405 68.6698 15.365 68.0848 13.385 67.3348C11.405 66.5548 9.54501 65.6398 7.80501 64.5898C6.06501 63.5398 4.55001 62.3698 3.26001 61.0798L7.76001 53.9698C8.12001 53.4598 8.58501 53.0398 9.15501 52.7098C9.75501 52.3498 10.4 52.1698 11.09 52.1698C11.99 52.1698 12.89 52.4548 13.79 53.0248C14.72 53.5948 15.755 54.2248 16.895 54.9148C18.065 55.6048 19.4 56.2348 20.9 56.8048C22.4 57.3748 24.17 57.6598 26.21 57.6598C28.97 57.6598 31.115 57.0598 32.645 55.8598C34.175 54.6298 34.94 52.6948 34.94 50.0548C34.94 48.5248 34.52 47.2798 33.68 46.3198C32.84 45.3598 31.73 44.5648 30.35 43.9348C29 43.3048 27.455 42.7498 25.715 42.2698C23.975 41.7898 22.19 41.2648 20.36 40.6948C18.53 40.0948 16.745 39.3748 15.005 38.5348C13.265 37.6648 11.705 36.5398 10.325 35.1598C8.97501 33.7498 7.88001 32.0098 7.04001 29.9398C6.20001 27.8398 5.78001 25.2598 5.78001 22.1998C5.78001 19.7398 6.27501 17.3398 7.26501 14.9998C8.25501 12.6598 9.71001 10.5748 11.63 8.74484C13.55 6.91484 15.905 5.45984 18.695 4.37984C21.485 3.26984 24.68 2.71484 28.28 2.71484C30.29 2.71484 32.24 2.87984 34.13 3.20984C36.05 3.50984 37.865 3.97484 39.575 4.60484C41.285 5.20484 42.875 5.93984 44.345 6.80984C45.845 7.64984 47.18 8.60984 48.35 9.68984L44.57 16.7548Z" fill="#252525"/>
<path d="M105.294 15.4948L86.844 15.4948L86.844 68.9998H71.634L71.634 15.4948L53.184 15.4948V3.43484L105.294 3.43484V15.4948Z" fill="#252525"/>
<path d="M140.383 56.9848C142.423 56.9848 144.238 56.6548 145.828 55.9949C147.448 55.3049 148.813 54.3298 149.923 53.0698C151.033 51.8098 151.873 50.2798 152.443 48.4798C153.043 46.6498 153.343 44.5798 153.343 42.2698V3.43484L168.553 3.43484V42.2698C168.553 46.2898 167.893 49.9798 166.573 53.3398C165.283 56.6998 163.423 59.5948 160.993 62.0248C158.563 64.4548 155.608 66.3448 152.128 67.6948C148.648 69.0448 144.733 69.7198 140.383 69.7198C136.003 69.7198 132.073 69.0448 128.593 67.6948C125.113 66.3448 122.158 64.4548 119.728 62.0248C117.298 59.5948 115.438 56.6998 114.148 53.3398C112.858 49.9798 112.213 46.2898 112.213 42.2698V3.43484L127.423 3.43484V42.2248C127.423 44.5348 127.708 46.6048 128.278 48.4348C128.878 50.2348 129.733 51.7798 130.843 53.0698C131.953 54.3298 133.303 55.3049 134.893 55.9949C136.513 56.6548 138.343 56.9848 140.383 56.9848Z" fill="#252525"/>
<path d="M239.925 36.1948C239.925 40.9348 239.1 45.3148 237.45 49.3348C235.83 53.3248 233.535 56.7898 230.565 59.7298C227.595 62.6398 224.01 64.9198 219.81 66.5698C215.64 68.1898 211.005 68.9998 205.905 68.9998H180.435V3.43484L205.905 3.43484C211.005 3.43484 215.64 4.25984 219.81 5.90984C224.01 7.55984 227.595 9.83984 230.565 12.7498C233.535 15.6598 235.83 19.1248 237.45 23.1448C239.1 27.1348 239.925 31.4848 239.925 36.1948ZM224.355 36.1948C224.355 32.9548 223.935 30.0298 223.095 27.4198C222.255 24.8098 221.04 22.6048 219.45 20.8048C217.89 18.9748 215.97 17.5798 213.69 16.6198C211.41 15.6298 208.815 15.1348 205.905 15.1348L195.735 15.1348V57.2998L205.905 57.2998C208.815 57.2998 211.41 56.8198 213.69 55.8598C215.97 54.8698 217.89 53.4748 219.45 51.6748C221.04 49.8448 222.255 47.6248 223.095 45.0148C223.935 42.4048 224.355 39.4648 224.355 36.1948Z" fill="#252525"/>
<path d="M264.202 15.1348V30.4348L284.812 30.4348V41.6848H264.202V57.2998L291.112 57.2998V68.9998H248.902V3.43484L291.112 3.43484V15.1348L264.202 15.1348Z" fill="#252525"/>
<path d="M357.733 3.43484V68.9998H349.813C348.643 68.9998 347.653 68.8198 346.843 68.4598C346.063 68.0698 345.283 67.4099 344.503 66.4799L313.588 27.3748C313.708 28.5448 313.783 29.6848 313.813 30.7948C313.873 31.8748 313.903 32.8948 313.903 33.8548V68.9998L300.493 68.9998V3.43484L308.503 3.43484C309.163 3.43484 309.718 3.46484 310.168 3.52484C310.618 3.58484 311.023 3.70484 311.383 3.88484C311.743 4.03484 312.088 4.25984 312.418 4.55984C312.748 4.85984 313.123 5.26484 313.543 5.77484L344.728 45.1498C344.578 43.8898 344.473 42.6748 344.413 41.5048C344.353 40.3048 344.323 39.1798 344.323 38.1298V3.43484L357.733 3.43484Z" fill="#252525"/>
<path d="M417.569 15.4948L399.119 15.4948V68.9998H383.909V15.4948L365.459 15.4948V3.43484L417.569 3.43484V15.4948Z" fill="#252525"/>
<path d="M553.559 3.43484L533.309 68.9998H519.539L507.209 28.3648C506.969 27.7348 506.744 27.0448 506.534 26.2948C506.324 25.5148 506.114 24.7048 505.904 23.8648C505.694 24.7048 505.484 25.5148 505.274 26.2948C505.064 27.0448 504.839 27.7348 504.599 28.3648L492.089 68.9998L478.319 68.9998L458.069 3.43484L470.849 3.43484C472.169 3.43484 473.264 3.73485 474.134 4.33484C475.034 4.93484 475.619 5.72984 475.889 6.71984L484.889 40.9198C485.159 41.9998 485.429 43.1848 485.699 44.4748C485.969 45.7348 486.239 47.0548 486.509 48.4348C487.049 45.6148 487.709 43.1098 488.489 40.9198L499.109 6.71984C499.379 5.87984 499.949 5.12984 500.819 4.46984C501.719 3.77984 502.799 3.43484 504.059 3.43484L508.559 3.43484C509.879 3.43484 510.944 3.74984 511.754 4.37984C512.564 4.97984 513.179 5.75984 513.599 6.71984L524.129 40.9198C524.909 43.0198 525.569 45.4048 526.109 48.0748C526.349 46.7248 526.589 45.4648 526.829 44.2948C527.099 43.0948 527.369 41.9698 527.639 40.9198L536.639 6.71984C536.879 5.84984 537.449 5.08484 538.349 4.42484C539.249 3.76484 540.329 3.43484 541.589 3.43484L553.559 3.43484Z" fill="#252525"/>
<path d="M622.802 36.1948C622.802 40.9348 621.977 45.3448 620.327 49.4248C618.707 53.5048 616.412 57.0598 613.442 60.0898C610.472 63.0898 606.887 65.4448 602.687 67.1548C598.517 68.8648 593.882 69.7198 588.782 69.7198C583.682 69.7198 579.032 68.8648 574.832 67.1548C570.632 65.4448 567.032 63.0898 564.032 60.0898C561.062 57.0598 558.752 53.5048 557.102 49.4248C555.482 45.3448 554.672 40.9348 554.672 36.1948C554.672 31.4548 555.482 27.0448 557.102 22.9648C558.752 18.8848 561.062 15.3448 564.032 12.3448C567.032 9.34484 570.632 6.98984 574.832 5.27984C579.032 3.56984 583.682 2.71484 588.782 2.71484C593.882 2.71484 598.517 3.58484 602.687 5.32484C606.887 7.03484 610.472 9.38984 613.442 12.3898C616.412 15.3898 618.707 18.9298 620.327 23.0098C621.977 27.0898 622.802 31.4848 622.802 36.1948ZM607.232 36.1948C607.232 32.9548 606.812 30.0448 605.972 27.4648C605.132 24.8548 603.917 22.6498 602.327 20.8498C600.767 19.0498 598.847 17.6698 596.567 16.7098C594.287 15.7498 591.692 15.2698 588.782 15.2698C585.842 15.2698 583.217 15.7498 580.907 16.7098C578.627 17.6698 576.692 19.0498 575.102 20.8498C573.542 22.6498 572.342 24.8548 571.502 27.4648C570.662 30.0448 570.242 32.9548 570.242 36.1948C570.242 39.4648 570.662 42.4048 571.502 45.0148C572.342 47.5948 573.542 49.7848 575.102 51.5848C576.692 53.3848 578.627 54.7648 580.907 55.7248C583.217 56.6548 585.842 57.1199 588.782 57.1199C591.692 57.1199 594.287 56.6548 596.567 55.7248C598.847 54.7648 600.767 53.3848 602.327 51.5848C603.917 49.7848 605.132 47.5948 605.972 45.0148C606.812 42.4048 607.232 39.4648 607.232 36.1948Z" fill="#252525"/>
<path d="M653.083 34.2598C655.153 34.2598 656.908 34.0048 658.348 33.4948C659.818 32.9548 661.018 32.2198 661.948 31.2898C662.878 30.3598 663.553 29.2798 663.973 28.0498C664.393 26.7898 664.603 25.4398 664.603 23.9998C664.603 21.1198 663.658 18.8698 661.768 17.2498C659.908 15.6298 657.013 14.8198 653.083 14.8198L646.963 14.8198V34.2598H653.083ZM685.393 68.9998H671.623C669.073 68.9998 667.243 68.0399 666.133 66.1199L655.243 47.0848C654.733 46.2748 654.163 45.6898 653.533 45.3298C652.903 44.9398 652.003 44.7448 650.833 44.7448H646.963V68.9998H631.753V3.43484L653.083 3.43484C657.823 3.43484 661.858 3.92984 665.188 4.91984C668.548 5.87984 671.278 7.22984 673.378 8.96984C675.508 10.7098 677.053 12.7648 678.013 15.1348C678.973 17.5048 679.453 20.0848 679.453 22.8748C679.453 25.0048 679.168 27.0148 678.598 28.9048C678.028 30.7948 677.188 32.5498 676.078 34.1698C674.968 35.7598 673.588 37.1848 671.938 38.4448C670.318 39.7048 668.443 40.7398 666.313 41.5498C667.303 42.0598 668.233 42.7048 669.103 43.4848C669.973 44.2348 670.753 45.1348 671.443 46.1848L685.393 68.9998Z" fill="#252525"/>
<path d="M706.114 29.9848H708.544C710.794 29.9848 712.414 29.2798 713.404 27.8698L728.164 6.44984C729.034 5.30984 729.964 4.52984 730.954 4.10984C731.974 3.65984 733.234 3.43484 734.734 3.43484L747.964 3.43484L728.524 29.9398C727.144 31.7698 725.659 33.0898 724.069 33.8998C725.209 34.3198 726.244 34.9048 727.174 35.6548C728.104 36.4048 728.974 37.3798 729.784 38.5798L749.584 68.9998H735.994C735.124 68.9998 734.374 68.9398 733.744 68.8198C733.144 68.6998 732.619 68.5198 732.169 68.2798C731.719 68.0398 731.329 67.7549 730.999 67.4249C730.669 67.0649 730.354 66.6598 730.054 66.2098L715.204 43.3948C714.664 42.5548 713.974 41.9698 713.134 41.6398C712.324 41.2798 711.214 41.0998 709.804 41.0998H706.114V68.9998H690.904V3.43484L706.114 3.43484V29.9848Z" fill="#252525"/>
<path d="M790.674 16.7548C790.224 17.4748 789.744 18.0148 789.234 18.3748C788.754 18.7348 788.124 18.9148 787.344 18.9148C786.654 18.9148 785.904 18.7048 785.094 18.2848C784.314 17.8348 783.413 17.3398 782.393 16.7998C781.403 16.2598 780.264 15.7798 778.974 15.3598C777.684 14.9098 776.214 14.6848 774.564 14.6848C771.714 14.6848 769.584 15.2998 768.174 16.5298C766.794 17.7298 766.104 19.3648 766.104 21.4348C766.104 22.7548 766.524 23.8498 767.364 24.7198C768.204 25.5898 769.298 26.3398 770.648 26.9698C772.028 27.5998 773.588 28.1848 775.328 28.7248C777.098 29.2348 778.899 29.8198 780.729 30.4798C782.559 31.1098 784.343 31.8598 786.083 32.7298C787.853 33.5998 789.413 34.7098 790.763 36.0598C792.143 37.4098 793.254 39.0598 794.094 41.0098C794.934 42.9298 795.354 45.2548 795.354 47.9848C795.354 51.0148 794.829 53.8498 793.779 56.4898C792.729 59.1298 791.199 61.4398 789.189 63.4198C787.209 65.3698 784.749 66.9148 781.809 68.0548C778.899 69.1648 775.584 69.7198 771.864 69.7198C769.824 69.7198 767.739 69.5098 765.609 69.0898C763.509 68.6698 761.469 68.0848 759.489 67.3348C757.509 66.5548 755.649 65.6398 753.909 64.5898C752.169 63.5398 750.654 62.3698 749.364 61.0798L753.864 53.9698C754.224 53.4598 754.689 53.0398 755.259 52.7098C755.859 52.3498 756.504 52.1698 757.194 52.1698C758.094 52.1698 758.993 52.4548 759.893 53.0248C760.823 53.5948 761.859 54.2248 762.999 54.9148C764.169 55.6048 765.504 56.2348 767.004 56.8048C768.504 57.3748 770.274 57.6598 772.314 57.6598C775.074 57.6598 777.219 57.0598 778.749 55.8598C780.279 54.6298 781.044 52.6948 781.044 50.0548C781.044 48.5248 780.624 47.2798 779.784 46.3198C778.944 45.3598 777.833 44.5648 776.453 43.9348C775.103 43.3048 773.559 42.7498 771.819 42.2698C770.079 41.7898 768.294 41.2648 766.464 40.6948C764.634 40.0948 762.849 39.3748 761.109 38.5348C759.369 37.6648 757.809 36.5398 756.429 35.1598C755.079 33.7498 753.983 32.0098 753.143 29.9398C752.303 27.8398 751.884 25.2598 751.884 22.1998C751.884 19.7398 752.379 17.3398 753.369 14.9998C754.359 12.6598 755.814 10.5748 757.734 8.74484C759.654 6.91484 762.009 5.45984 764.799 4.37984C767.589 3.26984 770.784 2.71484 774.384 2.71484C776.394 2.71484 778.344 2.87984 780.234 3.20984C782.154 3.50984 783.969 3.97484 785.679 4.60484C787.389 5.20484 788.979 5.93984 790.449 6.80984C791.949 7.64984 793.283 8.60984 794.453 9.68984L790.674 16.7548Z" fill="#252525"/>
<path d="M44.57 16.7548C44.12 17.4748 43.64 18.0148 43.13 18.3748C42.65 18.7348 42.02 18.9148 41.24 18.9148C40.55 18.9148 39.8 18.7048 38.99 18.2848C38.21 17.8348 37.31 17.3398 36.29 16.7998C35.3 16.2598 34.16 15.7798 32.87 15.3598C31.58 14.9098 30.11 14.6848 28.46 14.6848C25.61 14.6848 23.48 15.2998 22.07 16.5298C20.69 17.7298 20 19.3648 20 21.4348C20 22.7548 20.42 23.8498 21.26 24.7198C22.1 25.5898 23.195 26.3398 24.545 26.9698C25.925 27.5998 27.485 28.1848 29.225 28.7248C30.995 29.2348 32.795 29.8198 34.625 30.4798C36.455 31.1098 38.24 31.8598 39.98 32.7298C41.75 33.5998 43.31 34.7098 44.66 36.0598C46.04 37.4098 47.15 39.0598 47.99 41.0098C48.83 42.9298 49.25 45.2548 49.25 47.9848C49.25 51.0148 48.725 53.8498 47.675 56.4898C46.625 59.1298 45.095 61.4398 43.085 63.4198C41.105 65.3698 38.645 66.9148 35.705 68.0548C32.795 69.1648 29.48 69.7198 25.76 69.7198C23.72 69.7198 21.635 69.5098 19.505 69.0898C17.405 68.6698 15.365 68.0848 13.385 67.3348C11.405 66.5548 9.54501 65.6398 7.80501 64.5898C6.06501 63.5398 4.55001 62.3698 3.26001 61.0798L7.76001 53.9698C8.12001 53.4598 8.58501 53.0398 9.15501 52.7098C9.75501 52.3498 10.4 52.1698 11.09 52.1698C11.99 52.1698 12.89 52.4548 13.79 53.0248C14.72 53.5948 15.755 54.2248 16.895 54.9148C18.065 55.6048 19.4 56.2348 20.9 56.8048C22.4 57.3748 24.17 57.6598 26.21 57.6598C28.97 57.6598 31.115 57.0598 32.645 55.8598C34.175 54.6298 34.94 52.6948 34.94 50.0548C34.94 48.5248 34.52 47.2798 33.68 46.3198C32.84 45.3598 31.73 44.5648 30.35 43.9348C29 43.3048 27.455 42.7498 25.715 42.2698C23.975 41.7898 22.19 41.2648 20.36 40.6948C18.53 40.0948 16.745 39.3748 15.005 38.5348C13.265 37.6648 11.705 36.5398 10.325 35.1598C8.97501 33.7498 7.88001 32.0098 7.04001 29.9398C6.20001 27.8398 5.78001 25.2598 5.78001 22.1998C5.78001 19.7398 6.27501 17.3398 7.26501 14.9998C8.25501 12.6598 9.71001 10.5748 11.63 8.74484C13.55 6.91484 15.905 5.45984 18.695 4.37984C21.485 3.26984 24.68 2.71484 28.28 2.71484C30.29 2.71484 32.24 2.87984 34.13 3.20984C36.05 3.50984 37.865 3.97484 39.575 4.60484C41.285 5.20484 42.875 5.93984 44.345 6.80984C45.845 7.64984 47.18 8.60984 48.35 9.68984L44.57 16.7548Z" stroke="url(#paint0_linear_381_681)" stroke-width="4" mask="url(#path-1-outside-1_381_681)"/>
<path d="M105.294 15.4948L86.844 15.4948L86.844 68.9998H71.634L71.634 15.4948L53.184 15.4948V3.43484L105.294 3.43484V15.4948Z" stroke="url(#paint1_linear_381_681)" stroke-width="4" mask="url(#path-1-outside-1_381_681)"/>
<path d="M140.383 56.9848C142.423 56.9848 144.238 56.6548 145.828 55.9949C147.448 55.3049 148.813 54.3298 149.923 53.0698C151.033 51.8098 151.873 50.2798 152.443 48.4798C153.043 46.6498 153.343 44.5798 153.343 42.2698V3.43484L168.553 3.43484V42.2698C168.553 46.2898 167.893 49.9798 166.573 53.3398C165.283 56.6998 163.423 59.5948 160.993 62.0248C158.563 64.4548 155.608 66.3448 152.128 67.6948C148.648 69.0448 144.733 69.7198 140.383 69.7198C136.003 69.7198 132.073 69.0448 128.593 67.6948C125.113 66.3448 122.158 64.4548 119.728 62.0248C117.298 59.5948 115.438 56.6998 114.148 53.3398C112.858 49.9798 112.213 46.2898 112.213 42.2698V3.43484L127.423 3.43484V42.2248C127.423 44.5348 127.708 46.6048 128.278 48.4348C128.878 50.2348 129.733 51.7798 130.843 53.0698C131.953 54.3298 133.303 55.3049 134.893 55.9949C136.513 56.6548 138.343 56.9848 140.383 56.9848Z" stroke="url(#paint2_linear_381_681)" stroke-width="4" mask="url(#path-1-outside-1_381_681)"/>
<path d="M239.925 36.1948C239.925 40.9348 239.1 45.3148 237.45 49.3348C235.83 53.3248 233.535 56.7898 230.565 59.7298C227.595 62.6398 224.01 64.9198 219.81 66.5698C215.64 68.1898 211.005 68.9998 205.905 68.9998H180.435V3.43484L205.905 3.43484C211.005 3.43484 215.64 4.25984 219.81 5.90984C224.01 7.55984 227.595 9.83984 230.565 12.7498C233.535 15.6598 235.83 19.1248 237.45 23.1448C239.1 27.1348 239.925 31.4848 239.925 36.1948ZM224.355 36.1948C224.355 32.9548 223.935 30.0298 223.095 27.4198C222.255 24.8098 221.04 22.6048 219.45 20.8048C217.89 18.9748 215.97 17.5798 213.69 16.6198C211.41 15.6298 208.815 15.1348 205.905 15.1348L195.735 15.1348V57.2998L205.905 57.2998C208.815 57.2998 211.41 56.8198 213.69 55.8598C215.97 54.8698 217.89 53.4748 219.45 51.6748C221.04 49.8448 222.255 47.6248 223.095 45.0148C223.935 42.4048 224.355 39.4648 224.355 36.1948Z" stroke="url(#paint3_linear_381_681)" stroke-width="4" mask="url(#path-1-outside-1_381_681)"/>
<path d="M264.202 15.1348V30.4348L284.812 30.4348V41.6848H264.202V57.2998L291.112 57.2998V68.9998H248.902V3.43484L291.112 3.43484V15.1348L264.202 15.1348Z" stroke="url(#paint4_linear_381_681)" stroke-width="4" mask="url(#path-1-outside-1_381_681)"/>
<path d="M357.733 3.43484V68.9998H349.813C348.643 68.9998 347.653 68.8198 346.843 68.4598C346.063 68.0698 345.283 67.4099 344.503 66.4799L313.588 27.3748C313.708 28.5448 313.783 29.6848 313.813 30.7948C313.873 31.8748 313.903 32.8948 313.903 33.8548V68.9998L300.493 68.9998V3.43484L308.503 3.43484C309.163 3.43484 309.718 3.46484 310.168 3.52484C310.618 3.58484 311.023 3.70484 311.383 3.88484C311.743 4.03484 312.088 4.25984 312.418 4.55984C312.748 4.85984 313.123 5.26484 313.543 5.77484L344.728 45.1498C344.578 43.8898 344.473 42.6748 344.413 41.5048C344.353 40.3048 344.323 39.1798 344.323 38.1298V3.43484L357.733 3.43484Z" stroke="url(#paint5_linear_381_681)" stroke-width="4" mask="url(#path-1-outside-1_381_681)"/>
<path d="M417.569 15.4948L399.119 15.4948V68.9998H383.909V15.4948L365.459 15.4948V3.43484L417.569 3.43484V15.4948Z" stroke="url(#paint6_linear_381_681)" stroke-width="4" mask="url(#path-1-outside-1_381_681)"/>
<path d="M553.559 3.43484L533.309 68.9998H519.539L507.209 28.3648C506.969 27.7348 506.744 27.0448 506.534 26.2948C506.324 25.5148 506.114 24.7048 505.904 23.8648C505.694 24.7048 505.484 25.5148 505.274 26.2948C505.064 27.0448 504.839 27.7348 504.599 28.3648L492.089 68.9998L478.319 68.9998L458.069 3.43484L470.849 3.43484C472.169 3.43484 473.264 3.73485 474.134 4.33484C475.034 4.93484 475.619 5.72984 475.889 6.71984L484.889 40.9198C485.159 41.9998 485.429 43.1848 485.699 44.4748C485.969 45.7348 486.239 47.0548 486.509 48.4348C487.049 45.6148 487.709 43.1098 488.489 40.9198L499.109 6.71984C499.379 5.87984 499.949 5.12984 500.819 4.46984C501.719 3.77984 502.799 3.43484 504.059 3.43484L508.559 3.43484C509.879 3.43484 510.944 3.74984 511.754 4.37984C512.564 4.97984 513.179 5.75984 513.599 6.71984L524.129 40.9198C524.909 43.0198 525.569 45.4048 526.109 48.0748C526.349 46.7248 526.589 45.4648 526.829 44.2948C527.099 43.0948 527.369 41.9698 527.639 40.9198L536.639 6.71984C536.879 5.84984 537.449 5.08484 538.349 4.42484C539.249 3.76484 540.329 3.43484 541.589 3.43484L553.559 3.43484Z" stroke="url(#paint7_linear_381_681)" stroke-width="4" mask="url(#path-1-outside-1_381_681)"/>
<path d="M622.802 36.1948C622.802 40.9348 621.977 45.3448 620.327 49.4248C618.707 53.5048 616.412 57.0598 613.442 60.0898C610.472 63.0898 606.887 65.4448 602.687 67.1548C598.517 68.8648 593.882 69.7198 588.782 69.7198C583.682 69.7198 579.032 68.8648 574.832 67.1548C570.632 65.4448 567.032 63.0898 564.032 60.0898C561.062 57.0598 558.752 53.5048 557.102 49.4248C555.482 45.3448 554.672 40.9348 554.672 36.1948C554.672 31.4548 555.482 27.0448 557.102 22.9648C558.752 18.8848 561.062 15.3448 564.032 12.3448C567.032 9.34484 570.632 6.98984 574.832 5.27984C579.032 3.56984 583.682 2.71484 588.782 2.71484C593.882 2.71484 598.517 3.58484 602.687 5.32484C606.887 7.03484 610.472 9.38984 613.442 12.3898C616.412 15.3898 618.707 18.9298 620.327 23.0098C621.977 27.0898 622.802 31.4848 622.802 36.1948ZM607.232 36.1948C607.232 32.9548 606.812 30.0448 605.972 27.4648C605.132 24.8548 603.917 22.6498 602.327 20.8498C600.767 19.0498 598.847 17.6698 596.567 16.7098C594.287 15.7498 591.692 15.2698 588.782 15.2698C585.842 15.2698 583.217 15.7498 580.907 16.7098C578.627 17.6698 576.692 19.0498 575.102 20.8498C573.542 22.6498 572.342 24.8548 571.502 27.4648C570.662 30.0448 570.242 32.9548 570.242 36.1948C570.242 39.4648 570.662 42.4048 571.502 45.0148C572.342 47.5948 573.542 49.7848 575.102 51.5848C576.692 53.3848 578.627 54.7648 580.907 55.7248C583.217 56.6548 585.842 57.1199 588.782 57.1199C591.692 57.1199 594.287 56.6548 596.567 55.7248C598.847 54.7648 600.767 53.3848 602.327 51.5848C603.917 49.7848 605.132 47.5948 605.972 45.0148C606.812 42.4048 607.232 39.4648 607.232 36.1948Z" stroke="url(#paint8_linear_381_681)" stroke-width="4" mask="url(#path-1-outside-1_381_681)"/>
<path d="M653.083 34.2598C655.153 34.2598 656.908 34.0048 658.348 33.4948C659.818 32.9548 661.018 32.2198 661.948 31.2898C662.878 30.3598 663.553 29.2798 663.973 28.0498C664.393 26.7898 664.603 25.4398 664.603 23.9998C664.603 21.1198 663.658 18.8698 661.768 17.2498C659.908 15.6298 657.013 14.8198 653.083 14.8198L646.963 14.8198V34.2598H653.083ZM685.393 68.9998H671.623C669.073 68.9998 667.243 68.0399 666.133 66.1199L655.243 47.0848C654.733 46.2748 654.163 45.6898 653.533 45.3298C652.903 44.9398 652.003 44.7448 650.833 44.7448H646.963V68.9998H631.753V3.43484L653.083 3.43484C657.823 3.43484 661.858 3.92984 665.188 4.91984C668.548 5.87984 671.278 7.22984 673.378 8.96984C675.508 10.7098 677.053 12.7648 678.013 15.1348C678.973 17.5048 679.453 20.0848 679.453 22.8748C679.453 25.0048 679.168 27.0148 678.598 28.9048C678.028 30.7948 677.188 32.5498 676.078 34.1698C674.968 35.7598 673.588 37.1848 671.938 38.4448C670.318 39.7048 668.443 40.7398 666.313 41.5498C667.303 42.0598 668.233 42.7048 669.103 43.4848C669.973 44.2348 670.753 45.1348 671.443 46.1848L685.393 68.9998Z" stroke="url(#paint9_linear_381_681)" stroke-width="4" mask="url(#path-1-outside-1_381_681)"/>
<path d="M706.114 29.9848H708.544C710.794 29.9848 712.414 29.2798 713.404 27.8698L728.164 6.44984C729.034 5.30984 729.964 4.52984 730.954 4.10984C731.974 3.65984 733.234 3.43484 734.734 3.43484L747.964 3.43484L728.524 29.9398C727.144 31.7698 725.659 33.0898 724.069 33.8998C725.209 34.3198 726.244 34.9048 727.174 35.6548C728.104 36.4048 728.974 37.3798 729.784 38.5798L749.584 68.9998H735.994C735.124 68.9998 734.374 68.9398 733.744 68.8198C733.144 68.6998 732.619 68.5198 732.169 68.2798C731.719 68.0398 731.329 67.7549 730.999 67.4249C730.669 67.0649 730.354 66.6598 730.054 66.2098L715.204 43.3948C714.664 42.5548 713.974 41.9698 713.134 41.6398C712.324 41.2798 711.214 41.0998 709.804 41.0998H706.114V68.9998H690.904V3.43484L706.114 3.43484V29.9848Z" stroke="url(#paint10_linear_381_681)" stroke-width="4" mask="url(#path-1-outside-1_381_681)"/>
<path d="M790.674 16.7548C790.224 17.4748 789.744 18.0148 789.234 18.3748C788.754 18.7348 788.124 18.9148 787.344 18.9148C786.654 18.9148 785.904 18.7048 785.094 18.2848C784.314 17.8348 783.413 17.3398 782.393 16.7998C781.403 16.2598 780.264 15.7798 778.974 15.3598C777.684 14.9098 776.214 14.6848 774.564 14.6848C771.714 14.6848 769.584 15.2998 768.174 16.5298C766.794 17.7298 766.104 19.3648 766.104 21.4348C766.104 22.7548 766.524 23.8498 767.364 24.7198C768.204 25.5898 769.298 26.3398 770.648 26.9698C772.028 27.5998 773.588 28.1848 775.328 28.7248C777.098 29.2348 778.899 29.8198 780.729 30.4798C782.559 31.1098 784.343 31.8598 786.083 32.7298C787.853 33.5998 789.413 34.7098 790.763 36.0598C792.143 37.4098 793.254 39.0598 794.094 41.0098C794.934 42.9298 795.354 45.2548 795.354 47.9848C795.354 51.0148 794.829 53.8498 793.779 56.4898C792.729 59.1298 791.199 61.4398 789.189 63.4198C787.209 65.3698 784.749 66.9148 781.809 68.0548C778.899 69.1648 775.584 69.7198 771.864 69.7198C769.824 69.7198 767.739 69.5098 765.609 69.0898C763.509 68.6698 761.469 68.0848 759.489 67.3348C757.509 66.5548 755.649 65.6398 753.909 64.5898C752.169 63.5398 750.654 62.3698 749.364 61.0798L753.864 53.9698C754.224 53.4598 754.689 53.0398 755.259 52.7098C755.859 52.3498 756.504 52.1698 757.194 52.1698C758.094 52.1698 758.993 52.4548 759.893 53.0248C760.823 53.5948 761.859 54.2248 762.999 54.9148C764.169 55.6048 765.504 56.2348 767.004 56.8048C768.504 57.3748 770.274 57.6598 772.314 57.6598C775.074 57.6598 777.219 57.0598 778.749 55.8598C780.279 54.6298 781.044 52.6948 781.044 50.0548C781.044 48.5248 780.624 47.2798 779.784 46.3198C778.944 45.3598 777.833 44.5648 776.453 43.9348C775.103 43.3048 773.559 42.7498 771.819 42.2698C770.079 41.7898 768.294 41.2648 766.464 40.6948C764.634 40.0948 762.849 39.3748 761.109 38.5348C759.369 37.6648 757.809 36.5398 756.429 35.1598C755.079 33.7498 753.983 32.0098 753.143 29.9398C752.303 27.8398 751.884 25.2598 751.884 22.1998C751.884 19.7398 752.379 17.3398 753.369 14.9998C754.359 12.6598 755.814 10.5748 757.734 8.74484C759.654 6.91484 762.009 5.45984 764.799 4.37984C767.589 3.26984 770.784 2.71484 774.384 2.71484C776.394 2.71484 778.344 2.87984 780.234 3.20984C782.154 3.50984 783.969 3.97484 785.679 4.60484C787.389 5.20484 788.979 5.93984 790.449 6.80984C791.949 7.64984 793.283 8.60984 794.453 9.68984L790.674 16.7548Z" stroke="url(#paint11_linear_381_681)" stroke-width="4" mask="url(#path-1-outside-1_381_681)"/>
<defs>
<linearGradient id="paint0_linear_381_681" x1="129.874" y1="11.5891" x2="137.023" y2="102.523" gradientUnits="userSpaceOnUse">
<stop stop-color="#FFF176"/>
<stop offset="1" stop-color="#00E0B8"/>
</linearGradient>
<linearGradient id="paint1_linear_381_681" x1="129.874" y1="11.5891" x2="137.023" y2="102.523" gradientUnits="userSpaceOnUse">
<stop stop-color="#FFF176"/>
<stop offset="1" stop-color="#00E0B8"/>
</linearGradient>
<linearGradient id="paint2_linear_381_681" x1="129.874" y1="11.5891" x2="137.023" y2="102.523" gradientUnits="userSpaceOnUse">
<stop stop-color="#FFF176"/>
<stop offset="1" stop-color="#00E0B8"/>
</linearGradient>
<linearGradient id="paint3_linear_381_681" x1="129.874" y1="11.5891" x2="137.023" y2="102.523" gradientUnits="userSpaceOnUse">
<stop stop-color="#FFF176"/>
<stop offset="1" stop-color="#00E0B8"/>
</linearGradient>
<linearGradient id="paint4_linear_381_681" x1="129.874" y1="11.5891" x2="137.023" y2="102.523" gradientUnits="userSpaceOnUse">
<stop stop-color="#FFF176"/>
<stop offset="1" stop-color="#00E0B8"/>
</linearGradient>
<linearGradient id="paint5_linear_381_681" x1="129.874" y1="11.5891" x2="137.023" y2="102.523" gradientUnits="userSpaceOnUse">
<stop stop-color="#FFF176"/>
<stop offset="1" stop-color="#00E0B8"/>
</linearGradient>
<linearGradient id="paint6_linear_381_681" x1="129.874" y1="11.5891" x2="137.023" y2="102.523" gradientUnits="userSpaceOnUse">
<stop stop-color="#FFF176"/>
<stop offset="1" stop-color="#00E0B8"/>
</linearGradient>
<linearGradient id="paint7_linear_381_681" x1="129.874" y1="11.5891" x2="137.023" y2="102.523" gradientUnits="userSpaceOnUse">
<stop stop-color="#FFF176"/>
<stop offset="1" stop-color="#00E0B8"/>
</linearGradient>
<linearGradient id="paint8_linear_381_681" x1="129.874" y1="11.5891" x2="137.023" y2="102.523" gradientUnits="userSpaceOnUse">
<stop stop-color="#FFF176"/>
<stop offset="1" stop-color="#00E0B8"/>
</linearGradient>
<linearGradient id="paint9_linear_381_681" x1="129.874" y1="11.5891" x2="137.023" y2="102.523" gradientUnits="userSpaceOnUse">
<stop stop-color="#FFF176"/>
<stop offset="1" stop-color="#00E0B8"/>
</linearGradient>
<linearGradient id="paint10_linear_381_681" x1="129.874" y1="11.5891" x2="137.023" y2="102.523" gradientUnits="userSpaceOnUse">
<stop stop-color="#FFF176"/>
<stop offset="1" stop-color="#00E0B8"/>
</linearGradient>
<linearGradient id="paint11_linear_381_681" x1="129.874" y1="11.5891" x2="137.023" y2="102.523" gradientUnits="userSpaceOnUse">
<stop stop-color="#FFF176"/>
<stop offset="1" stop-color="#00E0B8"/>
</linearGradient>
</defs>
</svg>
