<?xml version="1.0" encoding="utf-8"?>
<!-- Generator: Adobe Illustrator 26.0.3, SVG Export Plug-In . SVG Version: 6.00 Build 0)  -->
<svg version="1.1" id="圖層_1" xmlns="http://www.w3.org/2000/svg" xmlns:xlink="http://www.w3.org/1999/xlink" x="0px" y="0px"
	 viewBox="0 0 296 59" style="enable-background:new 0 0 296 59;" xml:space="preserve">
<style type="text/css">
	.st0{fill:#FFFFFF;filter:url(#Adobe_OpacityMaskFilter);}
	
		.st1{mask:url(#path-1-outside-1_317_617_00000083801865615604511760000000340412324962376870_);fill:none;stroke:#00E0B8;stroke-width:2;stroke-linejoin:round;}
	.st2{fill:#FFFFFF;filter:url(#Adobe_OpacityMaskFilter_00000079483926346324758040000016824588106544002445_);}
	
		.st3{mask:url(#path-1-outside-1_317_617_00000114760141538900075750000008406672887193955504_);fill:none;stroke:#00E0B8;stroke-width:2;stroke-linejoin:round;}
	.st4{fill:#FFFFFF;filter:url(#Adobe_OpacityMaskFilter_00000049190464133372922330000011824677621773845181_);}
	
		.st5{mask:url(#path-1-outside-1_317_617_00000016077062002980085120000014996925129984942228_);fill:none;stroke:#00E0B8;stroke-width:2;stroke-linejoin:round;}
	.st6{fill:#FFFFFF;filter:url(#Adobe_OpacityMaskFilter_00000110440965185512207510000011992849060506734210_);}
	
		.st7{mask:url(#path-1-outside-1_317_617_00000099635349905389950580000010627224570025606302_);fill:none;stroke:#00E0B8;stroke-width:2;stroke-linejoin:round;}
	.st8{fill:#FFFFFF;filter:url(#Adobe_OpacityMaskFilter_00000173139523616459228310000011036775253476227484_);}
	
		.st9{mask:url(#path-1-outside-1_317_617_00000137819299695036751290000013783778899559954824_);fill:none;stroke:#00E0B8;stroke-width:2;stroke-linejoin:round;}
	.st10{fill:#FFFFFF;filter:url(#Adobe_OpacityMaskFilter_00000121966364889974717490000016469454559369634719_);}
	
		.st11{mask:url(#path-1-outside-1_317_617_00000080909543158665152420000009057110848268150671_);fill:none;stroke:#00E0B8;stroke-width:2;stroke-linejoin:round;}
	.st12{fill:#FFFFFF;filter:url(#Adobe_OpacityMaskFilter_00000120526407586507087760000003463447498169847700_);}
	
		.st13{mask:url(#path-1-outside-1_317_617_00000146468525829009464890000012685974218769636765_);fill:none;stroke:#00E0B8;stroke-width:2;stroke-linejoin:round;}
	.st14{fill:#FFFFFF;filter:url(#Adobe_OpacityMaskFilter_00000049923895741801231270000004532836533400057004_);}
	
		.st15{mask:url(#path-1-outside-1_317_617_00000077294242739270902770000002198218997075932337_);fill:none;stroke:#00E0B8;stroke-width:2;stroke-linejoin:round;}
	.st16{fill:#FFFFFF;filter:url(#Adobe_OpacityMaskFilter_00000031169770021728052330000007976767930146844592_);}
	
		.st17{mask:url(#path-1-outside-1_317_617_00000164501029744926577050000001729862909735453345_);fill:none;stroke:#00E0B8;stroke-width:2;stroke-linejoin:round;}
	.st18{fill:#00E0B8;}
	.st19{fill-rule:evenodd;clip-rule:evenodd;fill:#00E0B8;}
</style>
<path d="M47.8,8.5l-0.4,0.1h-5.3V30h2.5V11.2h1.8c-0.4,1.6-1,3.5-1.5,5c1.5,1.7,1.9,3.2,1.9,4.4c0,0.7-0.1,1.2-0.4,1.4
	c-0.2,0.1-0.4,0.2-0.7,0.2c-0.3,0-0.6,0-1,0c0.4,0.7,0.6,1.8,0.6,2.4c0.5,0,1.1,0,1.5,0c0.6-0.1,1-0.2,1.4-0.5
	c0.8-0.6,1.1-1.6,1.1-3.1c0-1.4-0.3-3.1-1.9-5c0.7-1.8,1.6-4.2,2.3-6.2L47.8,8.5z M52.7,15.6v-2.7h3v-2.4h-3V7.8h-2.8v7.4
	c0,0.9-0.4,1.1-0.8,1.2c0.4,0.6,0.7,1.9,0.8,2.6c0.5-0.4,1.4-0.7,6-1.8c-0.1-0.6-0.3-1.5-0.4-2.2L52.7,15.6z M59.3,23.5h-6.1v-1.5
	h6.1V23.5z M53.2,27.1v-1.5h6.1v1.5H53.2z M54.5,17.9c-0.1,0.6-0.4,1.3-0.6,1.9h-3.5v10.3h2.9v-0.8h6.1V30h3V19.9h-5.5
	c0.3-0.4,0.6-0.9,0.9-1.3L54.5,17.9z M59.6,16.1c-0.4,0-0.5-0.1-0.5-0.9v-2.3h3.9v-2.4h-3.9V7.7h-2.8v7.5c0,2.4,0.5,3.2,2.8,3.2h1.9
	c1.7,0,2.4-0.8,2.7-3.7c-0.8-0.2-1.8-0.6-2.4-1c-0.1,1.9-0.2,2.3-0.6,2.3H59.6z"/>
<path d="M74.9,22.4c-1.7,0.2-3.5,0.5-5.1,0.7v-2.5h4.8v-2.5h-4.8v-2.4h4.8v-2.5h-4.8v-1.6c2-0.6,4.1-1.3,5.9-2.1l-2.3-2.2
	c-1.6,0.9-4.1,1.9-6.3,2.6l0,0L67,10v13.5c-0.7,0.1-1.3,0.2-1.9,0.2l0.4,2.7l1.5-0.2v3.5h2.7v-3.9c1.7-0.3,3.5-0.6,5.3-0.9
	L74.9,22.4z M83.1,20.8c-0.5,1.2-1.2,2.4-2.2,3.3c-0.9-1-1.7-2.1-2.2-3.3H83.1z M84.7,18.3l-0.5,0.1h-7.6c2.5-1.8,3-4.6,3-6.8V11H82
	v3.2c0,2.2,0.5,3.2,2.7,3.2h1.4c0.5,0,1,0,1.4-0.2c-0.1-0.6-0.2-1.5-0.2-2.2c-0.3,0.1-0.9,0.1-1.2,0.1H85c-0.3,0-0.4-0.2-0.4-0.9
	V8.6H82v0h-2.4v0H77v3c0,1.7-0.3,3.7-2.6,5.2c0.5,0.3,1.4,1.2,1.9,1.7h-0.8v2.4h2.3l-1.5,0.4c0.7,1.7,1.6,3.2,2.6,4.6
	c-1.4,0.9-3.1,1.6-5,2c0.6,0.6,1.2,1.7,1.4,2.4c2.1-0.6,4-1.4,5.6-2.5c1.4,1.1,3.1,1.9,5.1,2.4c0.4-0.7,1.2-1.9,1.8-2.4
	c-1.8-0.4-3.4-1-4.8-1.8c1.6-1.7,2.7-4,3.4-6.9L84.7,18.3z"/>
<path d="M105.9,26.6v-4.8h4.4v-2.7h-4.4v-3.9h4.9v-2.7h-4.9V7.8h-2.9v4.7h-1.9c0.2-1.1,0.4-2.2,0.6-3.3L99,8.8
	c-0.2,2-0.7,4.1-1.3,5.9c-0.3-0.9-0.8-2.1-1.3-3L95,12.2V7.7h-2.9v4.9l-2-0.3c-0.2,2-0.6,4.7-1.2,6.2l2.1,0.8
	c0.6-1.7,0.9-4.3,1.1-6.4v17.2H95V13.7c0.4,1,0.8,2,0.9,2.8l1.4-0.6c-0.2,0.5-0.5,1-0.7,1.4c0.7,0.3,2,0.9,2.5,1.3
	c0.5-0.9,1-2.1,1.3-3.3h2.6v3.9h-4.6v2.7h4.6v4.8h-6.4v2.7h14.9v-2.7H105.9z"/>
<path d="M127.3,10.6c-0.3-0.3-0.8-0.6-1.2-1c0.5-0.4,0.9-0.9,1.2-1.3l-1.9-0.6c-0.2,0.3-0.6,0.6-0.9,1c-0.5-0.3-1-0.6-1.5-0.8
	l-1.3,1.1c0.4,0.2,0.8,0.5,1.3,0.7c-0.6,0.4-1.2,0.7-1.8,0.9c0.5,0.3,1.2,0.9,1.5,1.3c0.6-0.3,1.3-0.7,1.9-1.2
	c0.5,0.4,0.9,0.7,1.2,1L127.3,10.6z M118.5,15.4h2.9v-0.3c0.4,0.3,0.8,0.8,1.1,1.1h-3.9L118.5,15.4z M116.8,18.3h15.4v2.9h2.8v-4.9
	h-1.8c0.2-2.2,0.4-5.3,0.5-7.8h-6v1.8h3.2l0,0.8h-3v1.8h2.9l0,0.8h-3v1.8h2.8l-0.1,0.8h-7.8c0.6-0.4,1.3-0.8,1.9-1.2
	c0.6,0.4,1,0.8,1.4,1.2l1.4-1.2c-0.4-0.4-0.9-0.7-1.4-1.1c0.5-0.5,0.9-0.9,1.3-1.4l-1.9-0.6c-0.3,0.3-0.6,0.7-1,1
	c-0.5-0.3-1-0.6-1.5-0.8l-1.3,1.1c0.4,0.2,0.9,0.5,1.3,0.8c-0.5,0.3-1.1,0.6-1.7,0.9v-1.2h-3l0-0.8h3v-1.8h-3l0-0.7
	c1.1-0.2,2.3-0.6,3.3-0.9l-1.2-1.7c-1.3,0.5-3.4,1.1-4.8,1.3l0.4,7.1h-1.8v4.9h2.7V18.3z M135.3,23.4h-9c1.6-0.8,3.3-1.8,4.6-2.8
	l-1.6-1.5l-0.6,0.1h-10.4v2h7.7c-0.9,0.5-1.8,1.1-2.6,1.4v0.7h-9.7v2.3h9.7v1.6c0,0.3-0.1,0.4-0.5,0.4c-0.4,0-1.8,0-2.9,0
	c0.3,0.7,0.7,1.6,0.9,2.4c1.8,0,3.1,0,4.1-0.4c1-0.4,1.3-1,1.3-2.3v-1.7h9.2V23.4z"/>
<path d="M144.5,13.4c-2.3,1.1-4.7,2.2-6.2,2.9l1,2.2c1.8-0.9,3.9-2.1,5.8-3.2L144.5,13.4z M153.7,23.6h-10.3v-1.4h10.3V23.6z
	 M143.5,27.1v-1.4h10.3v1.4H143.5z M157.9,8.6h-9.3v2.3h1.5l-1.1,1.5c1.1,0.5,2.6,1.2,3.5,1.7c-1.6,0.8-3.1,1.4-4.2,1.9l1,2.1
	l-1.7-0.3c0.3-0.3,0.3-0.9,0.3-1.6V8.6h-9.5v2.3h1.7l-1.1,1.5c1.2,0.5,2.8,1.3,3.6,1.8l1.3-1.9c-0.8-0.4-2.2-1-3.3-1.5h4.7v5.4
	c0,0.2-0.1,0.3-0.3,0.3c-0.3,0-1.1,0-1.8,0c0.3,0.6,0.5,1.6,0.6,2.3c1.3,0,2.4,0,3.1-0.3c-0.1,0.5-0.3,1-0.5,1.5h-5.6v10.1h2.8v-0.9
	h10.3v0.9h3V20.1h-7.6c0.3-0.6,0.6-1.2,0.9-1.8l-0.6-0.1c1.8-0.9,3.8-2.1,5.8-3.2l-0.6-1.9l-1.8,0.9l1.1-1.7c-0.8-0.4-2.2-1-3.3-1.5
	h4.7v5.4c0,0.2-0.1,0.3-0.3,0.3c-0.3,0-1.1,0-1.8,0c0.3,0.6,0.5,1.6,0.6,2.3c1.4,0,2.5,0,3.3-0.4c0.8-0.4,1-1,1-2.2V8.6z"/>
<path d="M177.5,21.5v1.6h-10v-1.6H177.5z M167.6,26.9v-1.7h10v1.7H167.6z M164.7,30.1h2.9v-0.8h10v0.8h3v-11h-15.8V30.1z
	 M176.1,12.1c-0.3,0.9-0.7,2.1-1.1,3h-4.9c-0.2-0.9-0.6-2-1.2-3H176.1z M178.2,15.1c0.4-0.7,0.8-1.6,1.2-2.5l-2.2-0.5h5V9.6h-7.7
	c-0.2-0.7-0.6-1.5-1-2.2l-3,0.5c0.3,0.5,0.6,1.1,0.7,1.7h-8.1v2.5h5.3l-2.3,0.5c0.4,0.7,0.7,1.7,1,2.5h-5.3v2.5h21.5v-2.5H178.2z"/>
<path d="M193,19.5c-0.1-1.2-0.5-2.9-0.9-4.3l-1.8,0.4c0.1,0.5,0.2,1,0.3,1.6l-1.9,0.2c1.5-1.7,3-3.7,4.2-5.6l-2-1.1
	c-0.3,0.7-0.7,1.4-1.1,2.1l-1.2,0.1c0.8-1.2,1.7-2.7,2.3-4.1L188.6,8c-0.5,1.8-1.6,3.7-1.9,4.2c-0.3,0.5-0.6,0.9-1,0.9
	c0.3,0.6,0.6,1.6,0.7,2.1c0.3-0.1,0.7-0.3,2.1-0.5c-0.6,0.8-1.1,1.5-1.4,1.8c-0.6,0.7-1.1,1.2-1.6,1.3c0.3,0.6,0.6,1.7,0.7,2.1
	c0.4-0.2,1.1-0.4,4.6-0.8c0,0.4,0.1,0.7,0.1,1L193,19.5z M191.9,23.9c-1.5,1.4-4.2,2.6-6.9,3.1c0.6,0.6,1.4,1.7,1.9,2.4
	c2.9-0.8,5.7-2.5,7.3-4.6L191.9,23.9z M207.3,23.2v-2.4H198v-1.2h-2.9v1.2h-9.5v2.4h9.5V30h2.9v-6.8H207.3z M199.2,25.4
	c2.1,1.2,5,3,6.3,4.2l1.8-2c-1.4-1.2-4.3-2.8-6.4-3.9L199.2,25.4z M197.4,13.5h-1.8v-1.6h1.8V13.5z M197.4,17.1h-1.8v-1.7h1.8V17.1z
	 M197.3,9.8l0.8-1.8l-2.6-0.4c0,0.6-0.2,1.5-0.4,2.3h-1.9v9.4h6.7V9.8H197.3z M204.8,16c0.1,0.5,0.2,1,0.4,1.5l-1.9,0.2
	c1.6-1.7,3.1-3.7,4.3-5.7l-2.1-1.2c-0.3,0.6-0.7,1.3-1,1.9l-1.6,0.1c0.8-1.2,1.7-2.8,2.3-4.2l-2.3-0.6c-0.5,1.8-1.6,3.8-1.9,4.3
	c-0.3,0.5-0.6,0.9-1,1c0.3,0.6,0.6,1.6,0.7,2.1c0.3-0.2,0.8-0.3,2.4-0.5c-0.6,0.9-1.2,1.6-1.4,1.8c-0.6,0.7-1.1,1.1-1.6,1.2
	c0.3,0.6,0.6,1.7,0.7,2.2c0.4-0.2,1.1-0.4,4.7-0.7c0,0.3,0.1,0.6,0.1,0.9l1.9-0.5c-0.2-1.1-0.6-2.9-1-4.2L204.8,16z"/>
<path d="M230.3,7.9h-2.6v9.5c0,0.3-0.1,0.4-0.5,0.4c-0.3,0-1.5,0-2.6,0c0.3,0.6,0.7,1.6,0.8,2.3c1.6,0,2.8,0,3.7-0.4
	c0.9-0.4,1.1-1,1.1-2.2V7.9z M225.6,8.8H223v7.9h2.5V8.8z M228,22.8c-0.9,0.6-2.1,1.4-3.2,1.9c-0.6-0.6-1.2-1.2-1.7-1.9H228z
	 M211.7,12c0.2-0.3,0.4-0.6,0.6-1h2.3v1H211.7z M228.9,22.8h2.4v-2.3h-8.8c-0.2-0.6-0.6-1.4-0.9-2l-0.6,0.1c0.2-0.3,0.3-0.7,0.3-1.3
	v-2.7h-4.2v-0.8h4.6V12h-4.6v-1h4V9.2h-4V7.7h-2.4v1.5h-1.4c0.1-0.3,0.3-0.6,0.4-1l-2.1-0.5c-0.4,1.2-1.1,2.5-1.9,3.4
	c0.4,0.2,1,0.6,1.5,0.8h-1.5v1.9h5v0.8h-4v4.7h2.2v-3h1.8V20h2.4v-3.5h2v1c0,0.2-0.1,0.3-0.3,0.3c-0.2,0-0.7,0-1.3,0
	c0.2,0.5,0.6,1.1,0.7,1.6c0.3,0,0.5,0,0.8,0h0c0.2,0.4,0.4,0.8,0.6,1.2h-9.7v2.3h7c-2.1,1-4.8,1.7-7.4,2c0.5,0.5,1.2,1.5,1.5,2.1
	c1.2-0.2,2.5-0.5,3.6-0.9v0.1c0,1.2-0.6,1.8-1.1,2.2c0.3,0.3,0.7,1.2,0.8,1.8l0,0.2c0.5-0.3,1.3-0.6,7-1.8c0-0.5,0.1-1.5,0.2-2.1
	l-4.5,0.9V25c1.3-0.6,2.5-1.2,3.5-2c1.8,3.7,4.8,5.9,9.6,6.8c0.3-0.7,1-1.7,1.5-2.3c-1.9-0.3-3.5-0.7-4.9-1.4
	c1.2-0.6,2.5-1.3,3.7-2.1L228.9,22.8z"/>
<path d="M238.5,7.8c-1.2,3.4-3.3,6.8-5.5,9c0.5,0.7,1.3,2.4,1.6,3c0.5-0.5,1-1.1,1.5-1.7v12h2.9V13.6c0.9-1.6,1.7-3.3,2.3-5
	L238.5,7.8z M255.8,14.3v-2.7h-9.3c0.5-1,0.8-2,1.2-3l-2.8-0.7c-1.1,3.4-3,6.9-5.1,9c0.6,0.5,1.7,1.5,2.2,2c1.1-1.2,2.2-2.9,3.1-4.7
	h0.9v15.8h2.9v-5.3h6.5v-2.6h-6.5v-2.7h6.2v-2.6h-6.2v-2.5H255.8z"/>
<defs>
	<filter id="Adobe_OpacityMaskFilter" filterUnits="userSpaceOnUse" x="41.1" y="6.7" width="23.6" height="24.4">
		<feColorMatrix  type="matrix" values="1 0 0 0 0  0 1 0 0 0  0 0 1 0 0  0 0 0 1 0"/>
	</filter>
</defs>
<mask maskUnits="userSpaceOnUse" x="41.1" y="6.7" width="23.6" height="24.4" id="path-1-outside-1_317_617_00000083801865615604511760000000340412324962376870_">
	<rect x="41.1" y="6.4" class="st0" width="216" height="25"/>
	<path d="M47.8,8.5l-0.4,0.1h-5.3V30h2.5V11.2h1.8c-0.4,1.6-1,3.5-1.5,5c1.5,1.7,1.9,3.2,1.9,4.4c0,0.7-0.1,1.2-0.4,1.4
		c-0.2,0.1-0.4,0.2-0.7,0.2c-0.3,0-0.6,0-1,0c0.4,0.7,0.6,1.8,0.6,2.4c0.5,0,1.1,0,1.5,0c0.6-0.1,1-0.2,1.4-0.5
		c0.8-0.6,1.1-1.6,1.1-3.1c0-1.4-0.3-3.1-1.9-5c0.7-1.8,1.6-4.2,2.3-6.2L47.8,8.5z M52.7,15.6v-2.7h3v-2.4h-3V7.8h-2.8v7.4
		c0,0.9-0.4,1.1-0.8,1.2c0.4,0.6,0.7,1.9,0.8,2.6c0.5-0.4,1.4-0.7,6-1.8c-0.1-0.6-0.3-1.5-0.4-2.2L52.7,15.6z M59.3,23.5h-6.1v-1.5
		h6.1V23.5z M53.2,27.1v-1.5h6.1v1.5H53.2z M54.5,17.9c-0.1,0.6-0.4,1.3-0.6,1.9h-3.5v10.3h2.9v-0.8h6.1V30h3V19.9h-5.5
		c0.3-0.4,0.6-0.9,0.9-1.3L54.5,17.9z M59.6,16.1c-0.4,0-0.5-0.1-0.5-0.9v-2.3h3.9v-2.4h-3.9V7.7h-2.8v7.5c0,2.4,0.5,3.2,2.8,3.2
		h1.9c1.7,0,2.4-0.8,2.7-3.7c-0.8-0.2-1.8-0.6-2.4-1c-0.1,1.9-0.2,2.3-0.6,2.3H59.6z"/>
	<path d="M74.9,22.4c-1.7,0.2-3.5,0.5-5.1,0.7v-2.5h4.8v-2.5h-4.8v-2.4h4.8v-2.5h-4.8v-1.6c2-0.6,4.1-1.3,5.9-2.1l-2.3-2.2
		c-1.6,0.9-4.1,1.9-6.3,2.6l0,0L67,10v13.5c-0.7,0.1-1.3,0.2-1.9,0.2l0.4,2.7l1.5-0.2v3.5h2.7v-3.9c1.7-0.3,3.5-0.6,5.3-0.9
		L74.9,22.4z M83.1,20.8c-0.5,1.2-1.2,2.4-2.2,3.3c-0.9-1-1.7-2.1-2.2-3.3H83.1z M84.7,18.3l-0.5,0.1h-7.6c2.5-1.8,3-4.6,3-6.8V11
		H82v3.2c0,2.2,0.5,3.2,2.7,3.2h1.4c0.5,0,1,0,1.4-0.2c-0.1-0.6-0.2-1.5-0.2-2.2c-0.3,0.1-0.9,0.1-1.2,0.1H85
		c-0.3,0-0.4-0.2-0.4-0.9V8.6H82v0h-2.4v0H77v3c0,1.7-0.3,3.7-2.6,5.2c0.5,0.3,1.4,1.2,1.9,1.7h-0.8v2.4h2.3l-1.5,0.4
		c0.7,1.7,1.6,3.2,2.6,4.6c-1.4,0.9-3.1,1.6-5,2c0.6,0.6,1.2,1.7,1.4,2.4c2.1-0.6,4-1.4,5.6-2.5c1.4,1.1,3.1,1.9,5.1,2.4
		c0.4-0.7,1.2-1.9,1.8-2.4c-1.8-0.4-3.4-1-4.8-1.8c1.6-1.7,2.7-4,3.4-6.9L84.7,18.3z"/>
	<path d="M105.9,26.6v-4.8h4.4v-2.7h-4.4v-3.9h4.9v-2.7h-4.9V7.8h-2.9v4.7h-1.9c0.2-1.1,0.4-2.2,0.6-3.3L99,8.8
		c-0.2,2-0.7,4.1-1.3,5.9c-0.3-0.9-0.8-2.1-1.3-3L95,12.2V7.7h-2.9v4.9l-2-0.3c-0.2,2-0.6,4.7-1.2,6.2l2.1,0.8
		c0.6-1.7,0.9-4.3,1.1-6.4v17.2H95V13.7c0.4,1,0.8,2,0.9,2.8l1.4-0.6c-0.2,0.5-0.5,1-0.7,1.4c0.7,0.3,2,0.9,2.5,1.3
		c0.5-0.9,1-2.1,1.3-3.3h2.6v3.9h-4.6v2.7h4.6v4.8h-6.4v2.7h14.9v-2.7H105.9z"/>
	<path d="M127.3,10.6c-0.3-0.3-0.8-0.6-1.2-1c0.5-0.4,0.9-0.9,1.2-1.3l-1.9-0.6c-0.2,0.3-0.6,0.6-0.9,1c-0.5-0.3-1-0.6-1.5-0.8
		l-1.3,1.1c0.4,0.2,0.8,0.5,1.3,0.7c-0.6,0.4-1.2,0.7-1.8,0.9c0.5,0.3,1.2,0.9,1.5,1.3c0.6-0.3,1.3-0.7,1.9-1.2
		c0.5,0.4,0.9,0.7,1.2,1L127.3,10.6z M118.5,15.4h2.9v-0.3c0.4,0.3,0.8,0.8,1.1,1.1h-3.9L118.5,15.4z M116.8,18.3h15.4v2.9h2.8v-4.9
		h-1.8c0.2-2.2,0.4-5.3,0.5-7.8h-6v1.8h3.2l0,0.8h-3v1.8h2.9l0,0.8h-3v1.8h2.8l-0.1,0.8h-7.8c0.6-0.4,1.3-0.8,1.9-1.2
		c0.6,0.4,1,0.8,1.4,1.2l1.4-1.2c-0.4-0.4-0.9-0.7-1.4-1.1c0.5-0.5,0.9-0.9,1.3-1.4l-1.9-0.6c-0.3,0.3-0.6,0.7-1,1
		c-0.5-0.3-1-0.6-1.5-0.8l-1.3,1.1c0.4,0.2,0.9,0.5,1.3,0.8c-0.5,0.3-1.1,0.6-1.7,0.9v-1.2h-3l0-0.8h3v-1.8h-3l0-0.7
		c1.1-0.2,2.3-0.6,3.3-0.9l-1.2-1.7c-1.3,0.5-3.4,1.1-4.8,1.3l0.4,7.1h-1.8v4.9h2.7V18.3z M135.3,23.4h-9c1.6-0.8,3.3-1.8,4.6-2.8
		l-1.6-1.5l-0.6,0.1h-10.4v2h7.7c-0.9,0.5-1.8,1.1-2.6,1.4v0.7h-9.7v2.3h9.7v1.6c0,0.3-0.1,0.4-0.5,0.4c-0.4,0-1.8,0-2.9,0
		c0.3,0.7,0.7,1.6,0.9,2.4c1.8,0,3.1,0,4.1-0.4c1-0.4,1.3-1,1.3-2.3v-1.7h9.2V23.4z"/>
	<path d="M144.5,13.4c-2.3,1.1-4.7,2.2-6.2,2.9l1,2.2c1.8-0.9,3.9-2.1,5.8-3.2L144.5,13.4z M153.7,23.6h-10.3v-1.4h10.3V23.6z
		 M143.5,27.1v-1.4h10.3v1.4H143.5z M157.9,8.6h-9.3v2.3h1.5l-1.1,1.5c1.1,0.5,2.6,1.2,3.5,1.7c-1.6,0.8-3.1,1.4-4.2,1.9l1,2.1
		l-1.7-0.3c0.3-0.3,0.3-0.9,0.3-1.6V8.6h-9.5v2.3h1.7l-1.1,1.5c1.2,0.5,2.8,1.3,3.6,1.8l1.3-1.9c-0.8-0.4-2.2-1-3.3-1.5h4.7v5.4
		c0,0.2-0.1,0.3-0.3,0.3c-0.3,0-1.1,0-1.8,0c0.3,0.6,0.5,1.6,0.6,2.3c1.3,0,2.4,0,3.1-0.3c-0.1,0.5-0.3,1-0.5,1.5h-5.6v10.1h2.8
		v-0.9h10.3v0.9h3V20.1h-7.6c0.3-0.6,0.6-1.2,0.9-1.8l-0.6-0.1c1.8-0.9,3.8-2.1,5.8-3.2l-0.6-1.9l-1.8,0.9l1.1-1.7
		c-0.8-0.4-2.2-1-3.3-1.5h4.7v5.4c0,0.2-0.1,0.3-0.3,0.3c-0.3,0-1.1,0-1.8,0c0.3,0.6,0.5,1.6,0.6,2.3c1.4,0,2.5,0,3.3-0.4
		c0.8-0.4,1-1,1-2.2V8.6z"/>
	<path d="M177.5,21.5v1.6h-10v-1.6H177.5z M167.6,26.9v-1.7h10v1.7H167.6z M164.7,30.1h2.9v-0.8h10v0.8h3v-11h-15.8V30.1z
		 M176.1,12.1c-0.3,0.9-0.7,2.1-1.1,3h-4.9c-0.2-0.9-0.6-2-1.2-3H176.1z M178.2,15.1c0.4-0.7,0.8-1.6,1.2-2.5l-2.2-0.5h5V9.6h-7.7
		c-0.2-0.7-0.6-1.5-1-2.2l-3,0.5c0.3,0.5,0.6,1.1,0.7,1.7h-8.1v2.5h5.3l-2.3,0.5c0.4,0.7,0.7,1.7,1,2.5h-5.3v2.5h21.5v-2.5H178.2z"
		/>
	<path d="M193,19.5c-0.1-1.2-0.5-2.9-0.9-4.3l-1.8,0.4c0.1,0.5,0.2,1,0.3,1.6l-1.9,0.2c1.5-1.7,3-3.7,4.2-5.6l-2-1.1
		c-0.3,0.7-0.7,1.4-1.1,2.1l-1.2,0.1c0.8-1.2,1.7-2.7,2.3-4.1L188.6,8c-0.5,1.8-1.6,3.7-1.9,4.2c-0.3,0.5-0.6,0.9-1,0.9
		c0.3,0.6,0.6,1.6,0.7,2.1c0.3-0.1,0.7-0.3,2.1-0.5c-0.6,0.8-1.1,1.5-1.4,1.8c-0.6,0.7-1.1,1.2-1.6,1.3c0.3,0.6,0.6,1.7,0.7,2.1
		c0.4-0.2,1.1-0.4,4.6-0.8c0,0.4,0.1,0.7,0.1,1L193,19.5z M191.9,23.9c-1.5,1.4-4.2,2.6-6.9,3.1c0.6,0.6,1.4,1.7,1.9,2.4
		c2.9-0.8,5.7-2.5,7.3-4.6L191.9,23.9z M207.3,23.2v-2.4H198v-1.2h-2.9v1.2h-9.5v2.4h9.5V30h2.9v-6.8H207.3z M199.2,25.4
		c2.1,1.2,5,3,6.3,4.2l1.8-2c-1.4-1.2-4.3-2.8-6.4-3.9L199.2,25.4z M197.4,13.5h-1.8v-1.6h1.8V13.5z M197.4,17.1h-1.8v-1.7h1.8V17.1
		z M197.3,9.8l0.8-1.8l-2.6-0.4c0,0.6-0.2,1.5-0.4,2.3h-1.9v9.4h6.7V9.8H197.3z M204.8,16c0.1,0.5,0.2,1,0.4,1.5l-1.9,0.2
		c1.6-1.7,3.1-3.7,4.3-5.7l-2.1-1.2c-0.3,0.6-0.7,1.3-1,1.9l-1.6,0.1c0.8-1.2,1.7-2.8,2.3-4.2l-2.3-0.6c-0.5,1.8-1.6,3.8-1.9,4.3
		c-0.3,0.5-0.6,0.9-1,1c0.3,0.6,0.6,1.6,0.7,2.1c0.3-0.2,0.8-0.3,2.4-0.5c-0.6,0.9-1.2,1.6-1.4,1.8c-0.6,0.7-1.1,1.1-1.6,1.2
		c0.3,0.6,0.6,1.7,0.7,2.2c0.4-0.2,1.1-0.4,4.7-0.7c0,0.3,0.1,0.6,0.1,0.9l1.9-0.5c-0.2-1.1-0.6-2.9-1-4.2L204.8,16z"/>
	<path d="M230.3,7.9h-2.6v9.5c0,0.3-0.1,0.4-0.5,0.4c-0.3,0-1.5,0-2.6,0c0.3,0.6,0.7,1.6,0.8,2.3c1.6,0,2.8,0,3.7-0.4
		c0.9-0.4,1.1-1,1.1-2.2V7.9z M225.6,8.8H223v7.9h2.5V8.8z M228,22.8c-0.9,0.6-2.1,1.4-3.2,1.9c-0.6-0.6-1.2-1.2-1.7-1.9H228z
		 M211.7,12c0.2-0.3,0.4-0.6,0.6-1h2.3v1H211.7z M228.9,22.8h2.4v-2.3h-8.8c-0.2-0.6-0.6-1.4-0.9-2l-0.6,0.1
		c0.2-0.3,0.3-0.7,0.3-1.3v-2.7h-4.2v-0.8h4.6V12h-4.6v-1h4V9.2h-4V7.7h-2.4v1.5h-1.4c0.1-0.3,0.3-0.6,0.4-1l-2.1-0.5
		c-0.4,1.2-1.1,2.5-1.9,3.4c0.4,0.2,1,0.6,1.5,0.8h-1.5v1.9h5v0.8h-4v4.7h2.2v-3h1.8V20h2.4v-3.5h2v1c0,0.2-0.1,0.3-0.3,0.3
		c-0.2,0-0.7,0-1.3,0c0.2,0.5,0.6,1.1,0.7,1.6c0.3,0,0.5,0,0.8,0h0c0.2,0.4,0.4,0.8,0.6,1.2h-9.7v2.3h7c-2.1,1-4.8,1.7-7.4,2
		c0.5,0.5,1.2,1.5,1.5,2.1c1.2-0.2,2.5-0.5,3.6-0.9v0.1c0,1.2-0.6,1.8-1.1,2.2c0.3,0.3,0.7,1.2,0.8,1.8l0,0.2c0.5-0.3,1.3-0.6,7-1.8
		c0-0.5,0.1-1.5,0.2-2.1l-4.5,0.9V25c1.3-0.6,2.5-1.2,3.5-2c1.8,3.7,4.8,5.9,9.6,6.8c0.3-0.7,1-1.7,1.5-2.3
		c-1.9-0.3-3.5-0.7-4.9-1.4c1.2-0.6,2.5-1.3,3.7-2.1L228.9,22.8z"/>
	<path d="M238.5,7.8c-1.2,3.4-3.3,6.8-5.5,9c0.5,0.7,1.3,2.4,1.6,3c0.5-0.5,1-1.1,1.5-1.7v12h2.9V13.6c0.9-1.6,1.7-3.3,2.3-5
		L238.5,7.8z M255.8,14.3v-2.7h-9.3c0.5-1,0.8-2,1.2-3l-2.8-0.7c-1.1,3.4-3,6.9-5.1,9c0.6,0.5,1.7,1.5,2.2,2
		c1.1-1.2,2.2-2.9,3.1-4.7h0.9v15.8h2.9v-5.3h6.5v-2.6h-6.5v-2.7h6.2v-2.6h-6.2v-2.5H255.8z"/>
</mask>
<path class="st1" d="M47.8,8.5l-0.4,0.1h-5.3V30h2.5V11.2h1.8c-0.4,1.6-1,3.5-1.5,5c1.5,1.7,1.9,3.2,1.9,4.4c0,0.7-0.1,1.2-0.4,1.4
	c-0.2,0.1-0.4,0.2-0.7,0.2c-0.3,0-0.6,0-1,0c0.4,0.7,0.6,1.8,0.6,2.4c0.5,0,1.1,0,1.5,0c0.6-0.1,1-0.2,1.4-0.5
	c0.8-0.6,1.1-1.6,1.1-3.1c0-1.4-0.3-3.1-1.9-5c0.7-1.8,1.6-4.2,2.3-6.2L47.8,8.5z M52.7,15.6v-2.7h3v-2.4h-3V7.8h-2.8v7.4
	c0,0.9-0.4,1.1-0.8,1.2c0.4,0.6,0.7,1.9,0.8,2.6c0.5-0.4,1.4-0.7,6-1.8c-0.1-0.6-0.3-1.5-0.4-2.2L52.7,15.6z M59.3,23.5h-6.1v-1.5
	h6.1V23.5z M53.2,27.1v-1.5h6.1v1.5H53.2z M54.5,17.9c-0.1,0.6-0.4,1.3-0.6,1.9h-3.5v10.3h2.9v-0.8h6.1V30h3V19.9h-5.5
	c0.3-0.4,0.6-0.9,0.9-1.3L54.5,17.9z M59.6,16.1c-0.4,0-0.5-0.1-0.5-0.9v-2.3h3.9v-2.4h-3.9V7.7h-2.8v7.5c0,2.4,0.5,3.2,2.8,3.2h1.9
	c1.7,0,2.4-0.8,2.7-3.7c-0.8-0.2-1.8-0.6-2.4-1c-0.1,1.9-0.2,2.3-0.6,2.3H59.6z"/>
<defs>
	
		<filter id="Adobe_OpacityMaskFilter_00000129205947881703203930000001674220476162714031_" filterUnits="userSpaceOnUse" x="64.1" y="6.4" width="24.7" height="24.8">
		<feColorMatrix  type="matrix" values="1 0 0 0 0  0 1 0 0 0  0 0 1 0 0  0 0 0 1 0"/>
	</filter>
</defs>
<mask maskUnits="userSpaceOnUse" x="64.1" y="6.4" width="24.7" height="24.8" id="path-1-outside-1_317_617_00000114760141538900075750000008406672887193955504_">
	
		<rect x="41.1" y="6.4" style="fill:#FFFFFF;filter:url(#Adobe_OpacityMaskFilter_00000129205947881703203930000001674220476162714031_);" width="216" height="25"/>
	<path d="M47.8,8.5l-0.4,0.1h-5.3V30h2.5V11.2h1.8c-0.4,1.6-1,3.5-1.5,5c1.5,1.7,1.9,3.2,1.9,4.4c0,0.7-0.1,1.2-0.4,1.4
		c-0.2,0.1-0.4,0.2-0.7,0.2c-0.3,0-0.6,0-1,0c0.4,0.7,0.6,1.8,0.6,2.4c0.5,0,1.1,0,1.5,0c0.6-0.1,1-0.2,1.4-0.5
		c0.8-0.6,1.1-1.6,1.1-3.1c0-1.4-0.3-3.1-1.9-5c0.7-1.8,1.6-4.2,2.3-6.2L47.8,8.5z M52.7,15.6v-2.7h3v-2.4h-3V7.8h-2.8v7.4
		c0,0.9-0.4,1.1-0.8,1.2c0.4,0.6,0.7,1.9,0.8,2.6c0.5-0.4,1.4-0.7,6-1.8c-0.1-0.6-0.3-1.5-0.4-2.2L52.7,15.6z M59.3,23.5h-6.1v-1.5
		h6.1V23.5z M53.2,27.1v-1.5h6.1v1.5H53.2z M54.5,17.9c-0.1,0.6-0.4,1.3-0.6,1.9h-3.5v10.3h2.9v-0.8h6.1V30h3V19.9h-5.5
		c0.3-0.4,0.6-0.9,0.9-1.3L54.5,17.9z M59.6,16.1c-0.4,0-0.5-0.1-0.5-0.9v-2.3h3.9v-2.4h-3.9V7.7h-2.8v7.5c0,2.4,0.5,3.2,2.8,3.2
		h1.9c1.7,0,2.4-0.8,2.7-3.7c-0.8-0.2-1.8-0.6-2.4-1c-0.1,1.9-0.2,2.3-0.6,2.3H59.6z"/>
	<path d="M74.9,22.4c-1.7,0.2-3.5,0.5-5.1,0.7v-2.5h4.8v-2.5h-4.8v-2.4h4.8v-2.5h-4.8v-1.6c2-0.6,4.1-1.3,5.9-2.1l-2.3-2.2
		c-1.6,0.9-4.1,1.9-6.3,2.6l0,0L67,10v13.5c-0.7,0.1-1.3,0.2-1.9,0.2l0.4,2.7l1.5-0.2v3.5h2.7v-3.9c1.7-0.3,3.5-0.6,5.3-0.9
		L74.9,22.4z M83.1,20.8c-0.5,1.2-1.2,2.4-2.2,3.3c-0.9-1-1.7-2.1-2.2-3.3H83.1z M84.7,18.3l-0.5,0.1h-7.6c2.5-1.8,3-4.6,3-6.8V11
		H82v3.2c0,2.2,0.5,3.2,2.7,3.2h1.4c0.5,0,1,0,1.4-0.2c-0.1-0.6-0.2-1.5-0.2-2.2c-0.3,0.1-0.9,0.1-1.2,0.1H85
		c-0.3,0-0.4-0.2-0.4-0.9V8.6H82v0h-2.4v0H77v3c0,1.7-0.3,3.7-2.6,5.2c0.5,0.3,1.4,1.2,1.9,1.7h-0.8v2.4h2.3l-1.5,0.4
		c0.7,1.7,1.6,3.2,2.6,4.6c-1.4,0.9-3.1,1.6-5,2c0.6,0.6,1.2,1.7,1.4,2.4c2.1-0.6,4-1.4,5.6-2.5c1.4,1.1,3.1,1.9,5.1,2.4
		c0.4-0.7,1.2-1.9,1.8-2.4c-1.8-0.4-3.4-1-4.8-1.8c1.6-1.7,2.7-4,3.4-6.9L84.7,18.3z"/>
	<path d="M105.9,26.6v-4.8h4.4v-2.7h-4.4v-3.9h4.9v-2.7h-4.9V7.8h-2.9v4.7h-1.9c0.2-1.1,0.4-2.2,0.6-3.3L99,8.8
		c-0.2,2-0.7,4.1-1.3,5.9c-0.3-0.9-0.8-2.1-1.3-3L95,12.2V7.7h-2.9v4.9l-2-0.3c-0.2,2-0.6,4.7-1.2,6.2l2.1,0.8
		c0.6-1.7,0.9-4.3,1.1-6.4v17.2H95V13.7c0.4,1,0.8,2,0.9,2.8l1.4-0.6c-0.2,0.5-0.5,1-0.7,1.4c0.7,0.3,2,0.9,2.5,1.3
		c0.5-0.9,1-2.1,1.3-3.3h2.6v3.9h-4.6v2.7h4.6v4.8h-6.4v2.7h14.9v-2.7H105.9z"/>
	<path d="M127.3,10.6c-0.3-0.3-0.8-0.6-1.2-1c0.5-0.4,0.9-0.9,1.2-1.3l-1.9-0.6c-0.2,0.3-0.6,0.6-0.9,1c-0.5-0.3-1-0.6-1.5-0.8
		l-1.3,1.1c0.4,0.2,0.8,0.5,1.3,0.7c-0.6,0.4-1.2,0.7-1.8,0.9c0.5,0.3,1.2,0.9,1.5,1.3c0.6-0.3,1.3-0.7,1.9-1.2
		c0.5,0.4,0.9,0.7,1.2,1L127.3,10.6z M118.5,15.4h2.9v-0.3c0.4,0.3,0.8,0.8,1.1,1.1h-3.9L118.5,15.4z M116.8,18.3h15.4v2.9h2.8v-4.9
		h-1.8c0.2-2.2,0.4-5.3,0.5-7.8h-6v1.8h3.2l0,0.8h-3v1.8h2.9l0,0.8h-3v1.8h2.8l-0.1,0.8h-7.8c0.6-0.4,1.3-0.8,1.9-1.2
		c0.6,0.4,1,0.8,1.4,1.2l1.4-1.2c-0.4-0.4-0.9-0.7-1.4-1.1c0.5-0.5,0.9-0.9,1.3-1.4l-1.9-0.6c-0.3,0.3-0.6,0.7-1,1
		c-0.5-0.3-1-0.6-1.5-0.8l-1.3,1.1c0.4,0.2,0.9,0.5,1.3,0.8c-0.5,0.3-1.1,0.6-1.7,0.9v-1.2h-3l0-0.8h3v-1.8h-3l0-0.7
		c1.1-0.2,2.3-0.6,3.3-0.9l-1.2-1.7c-1.3,0.5-3.4,1.1-4.8,1.3l0.4,7.1h-1.8v4.9h2.7V18.3z M135.3,23.4h-9c1.6-0.8,3.3-1.8,4.6-2.8
		l-1.6-1.5l-0.6,0.1h-10.4v2h7.7c-0.9,0.5-1.8,1.1-2.6,1.4v0.7h-9.7v2.3h9.7v1.6c0,0.3-0.1,0.4-0.5,0.4c-0.4,0-1.8,0-2.9,0
		c0.3,0.7,0.7,1.6,0.9,2.4c1.8,0,3.1,0,4.1-0.4c1-0.4,1.3-1,1.3-2.3v-1.7h9.2V23.4z"/>
	<path d="M144.5,13.4c-2.3,1.1-4.7,2.2-6.2,2.9l1,2.2c1.8-0.9,3.9-2.1,5.8-3.2L144.5,13.4z M153.7,23.6h-10.3v-1.4h10.3V23.6z
		 M143.5,27.1v-1.4h10.3v1.4H143.5z M157.9,8.6h-9.3v2.3h1.5l-1.1,1.5c1.1,0.5,2.6,1.2,3.5,1.7c-1.6,0.8-3.1,1.4-4.2,1.9l1,2.1
		l-1.7-0.3c0.3-0.3,0.3-0.9,0.3-1.6V8.6h-9.5v2.3h1.7l-1.1,1.5c1.2,0.5,2.8,1.3,3.6,1.8l1.3-1.9c-0.8-0.4-2.2-1-3.3-1.5h4.7v5.4
		c0,0.2-0.1,0.3-0.3,0.3c-0.3,0-1.1,0-1.8,0c0.3,0.6,0.5,1.6,0.6,2.3c1.3,0,2.4,0,3.1-0.3c-0.1,0.5-0.3,1-0.5,1.5h-5.6v10.1h2.8
		v-0.9h10.3v0.9h3V20.1h-7.6c0.3-0.6,0.6-1.2,0.9-1.8l-0.6-0.1c1.8-0.9,3.8-2.1,5.8-3.2l-0.6-1.9l-1.8,0.9l1.1-1.7
		c-0.8-0.4-2.2-1-3.3-1.5h4.7v5.4c0,0.2-0.1,0.3-0.3,0.3c-0.3,0-1.1,0-1.8,0c0.3,0.6,0.5,1.6,0.6,2.3c1.4,0,2.5,0,3.3-0.4
		c0.8-0.4,1-1,1-2.2V8.6z"/>
	<path d="M177.5,21.5v1.6h-10v-1.6H177.5z M167.6,26.9v-1.7h10v1.7H167.6z M164.7,30.1h2.9v-0.8h10v0.8h3v-11h-15.8V30.1z
		 M176.1,12.1c-0.3,0.9-0.7,2.1-1.1,3h-4.9c-0.2-0.9-0.6-2-1.2-3H176.1z M178.2,15.1c0.4-0.7,0.8-1.6,1.2-2.5l-2.2-0.5h5V9.6h-7.7
		c-0.2-0.7-0.6-1.5-1-2.2l-3,0.5c0.3,0.5,0.6,1.1,0.7,1.7h-8.1v2.5h5.3l-2.3,0.5c0.4,0.7,0.7,1.7,1,2.5h-5.3v2.5h21.5v-2.5H178.2z"
		/>
	<path d="M193,19.5c-0.1-1.2-0.5-2.9-0.9-4.3l-1.8,0.4c0.1,0.5,0.2,1,0.3,1.6l-1.9,0.2c1.5-1.7,3-3.7,4.2-5.6l-2-1.1
		c-0.3,0.7-0.7,1.4-1.1,2.1l-1.2,0.1c0.8-1.2,1.7-2.7,2.3-4.1L188.6,8c-0.5,1.8-1.6,3.7-1.9,4.2c-0.3,0.5-0.6,0.9-1,0.9
		c0.3,0.6,0.6,1.6,0.7,2.1c0.3-0.1,0.7-0.3,2.1-0.5c-0.6,0.8-1.1,1.5-1.4,1.8c-0.6,0.7-1.1,1.2-1.6,1.3c0.3,0.6,0.6,1.7,0.7,2.1
		c0.4-0.2,1.1-0.4,4.6-0.8c0,0.4,0.1,0.7,0.1,1L193,19.5z M191.9,23.9c-1.5,1.4-4.2,2.6-6.9,3.1c0.6,0.6,1.4,1.7,1.9,2.4
		c2.9-0.8,5.7-2.5,7.3-4.6L191.9,23.9z M207.3,23.2v-2.4H198v-1.2h-2.9v1.2h-9.5v2.4h9.5V30h2.9v-6.8H207.3z M199.2,25.4
		c2.1,1.2,5,3,6.3,4.2l1.8-2c-1.4-1.2-4.3-2.8-6.4-3.9L199.2,25.4z M197.4,13.5h-1.8v-1.6h1.8V13.5z M197.4,17.1h-1.8v-1.7h1.8V17.1
		z M197.3,9.8l0.8-1.8l-2.6-0.4c0,0.6-0.2,1.5-0.4,2.3h-1.9v9.4h6.7V9.8H197.3z M204.8,16c0.1,0.5,0.2,1,0.4,1.5l-1.9,0.2
		c1.6-1.7,3.1-3.7,4.3-5.7l-2.1-1.2c-0.3,0.6-0.7,1.3-1,1.9l-1.6,0.1c0.8-1.2,1.7-2.8,2.3-4.2l-2.3-0.6c-0.5,1.8-1.6,3.8-1.9,4.3
		c-0.3,0.5-0.6,0.9-1,1c0.3,0.6,0.6,1.6,0.7,2.1c0.3-0.2,0.8-0.3,2.4-0.5c-0.6,0.9-1.2,1.6-1.4,1.8c-0.6,0.7-1.1,1.1-1.6,1.2
		c0.3,0.6,0.6,1.7,0.7,2.2c0.4-0.2,1.1-0.4,4.7-0.7c0,0.3,0.1,0.6,0.1,0.9l1.9-0.5c-0.2-1.1-0.6-2.9-1-4.2L204.8,16z"/>
	<path d="M230.3,7.9h-2.6v9.5c0,0.3-0.1,0.4-0.5,0.4c-0.3,0-1.5,0-2.6,0c0.3,0.6,0.7,1.6,0.8,2.3c1.6,0,2.8,0,3.7-0.4
		c0.9-0.4,1.1-1,1.1-2.2V7.9z M225.6,8.8H223v7.9h2.5V8.8z M228,22.8c-0.9,0.6-2.1,1.4-3.2,1.9c-0.6-0.6-1.2-1.2-1.7-1.9H228z
		 M211.7,12c0.2-0.3,0.4-0.6,0.6-1h2.3v1H211.7z M228.9,22.8h2.4v-2.3h-8.8c-0.2-0.6-0.6-1.4-0.9-2l-0.6,0.1
		c0.2-0.3,0.3-0.7,0.3-1.3v-2.7h-4.2v-0.8h4.6V12h-4.6v-1h4V9.2h-4V7.7h-2.4v1.5h-1.4c0.1-0.3,0.3-0.6,0.4-1l-2.1-0.5
		c-0.4,1.2-1.1,2.5-1.9,3.4c0.4,0.2,1,0.6,1.5,0.8h-1.5v1.9h5v0.8h-4v4.7h2.2v-3h1.8V20h2.4v-3.5h2v1c0,0.2-0.1,0.3-0.3,0.3
		c-0.2,0-0.7,0-1.3,0c0.2,0.5,0.6,1.1,0.7,1.6c0.3,0,0.5,0,0.8,0h0c0.2,0.4,0.4,0.8,0.6,1.2h-9.7v2.3h7c-2.1,1-4.8,1.7-7.4,2
		c0.5,0.5,1.2,1.5,1.5,2.1c1.2-0.2,2.5-0.5,3.6-0.9v0.1c0,1.2-0.6,1.8-1.1,2.2c0.3,0.3,0.7,1.2,0.8,1.8l0,0.2c0.5-0.3,1.3-0.6,7-1.8
		c0-0.5,0.1-1.5,0.2-2.1l-4.5,0.9V25c1.3-0.6,2.5-1.2,3.5-2c1.8,3.7,4.8,5.9,9.6,6.8c0.3-0.7,1-1.7,1.5-2.3
		c-1.9-0.3-3.5-0.7-4.9-1.4c1.2-0.6,2.5-1.3,3.7-2.1L228.9,22.8z"/>
	<path d="M238.5,7.8c-1.2,3.4-3.3,6.8-5.5,9c0.5,0.7,1.3,2.4,1.6,3c0.5-0.5,1-1.1,1.5-1.7v12h2.9V13.6c0.9-1.6,1.7-3.3,2.3-5
		L238.5,7.8z M255.8,14.3v-2.7h-9.3c0.5-1,0.8-2,1.2-3l-2.8-0.7c-1.1,3.4-3,6.9-5.1,9c0.6,0.5,1.7,1.5,2.2,2
		c1.1-1.2,2.2-2.9,3.1-4.7h0.9v15.8h2.9v-5.3h6.5v-2.6h-6.5v-2.7h6.2v-2.6h-6.2v-2.5H255.8z"/>
</mask>
<path class="st3" d="M74.9,22.4c-1.7,0.2-3.5,0.5-5.1,0.7v-2.5h4.8v-2.5h-4.8v-2.4h4.8v-2.5h-4.8v-1.6c2-0.6,4.1-1.3,5.9-2.1
	l-2.3-2.2c-1.6,0.9-4.1,1.9-6.3,2.6l0,0L67,10v13.5c-0.7,0.1-1.3,0.2-1.9,0.2l0.4,2.7l1.5-0.2v3.5h2.7v-3.9c1.7-0.3,3.5-0.6,5.3-0.9
	L74.9,22.4z M83.1,20.8c-0.5,1.2-1.2,2.4-2.2,3.3c-0.9-1-1.7-2.1-2.2-3.3H83.1z M84.7,18.3l-0.5,0.1h-7.6c2.5-1.8,3-4.6,3-6.8V11H82
	v3.2c0,2.2,0.5,3.2,2.7,3.2h1.4c0.5,0,1,0,1.4-0.2c-0.1-0.6-0.2-1.5-0.2-2.2c-0.3,0.1-0.9,0.1-1.2,0.1H85c-0.3,0-0.4-0.2-0.4-0.9
	V8.6H82v0h-2.4v0H77v3c0,1.7-0.3,3.7-2.6,5.2c0.5,0.3,1.4,1.2,1.9,1.7h-0.8v2.4h2.3l-1.5,0.4c0.7,1.7,1.6,3.2,2.6,4.6
	c-1.4,0.9-3.1,1.6-5,2c0.6,0.6,1.2,1.7,1.4,2.4c2.1-0.6,4-1.4,5.6-2.5c1.4,1.1,3.1,1.9,5.1,2.4c0.4-0.7,1.2-1.9,1.8-2.4
	c-1.8-0.4-3.4-1-4.8-1.8c1.6-1.7,2.7-4,3.4-6.9L84.7,18.3z"/>
<defs>
	
		<filter id="Adobe_OpacityMaskFilter_00000077290135121402887860000015488056277166817449_" filterUnits="userSpaceOnUse" x="87.9" y="6.7" width="24.7" height="24.4">
		<feColorMatrix  type="matrix" values="1 0 0 0 0  0 1 0 0 0  0 0 1 0 0  0 0 0 1 0"/>
	</filter>
</defs>
<mask maskUnits="userSpaceOnUse" x="87.9" y="6.7" width="24.7" height="24.4" id="path-1-outside-1_317_617_00000016077062002980085120000014996925129984942228_">
	
		<rect x="41.1" y="6.4" style="fill:#FFFFFF;filter:url(#Adobe_OpacityMaskFilter_00000077290135121402887860000015488056277166817449_);" width="216" height="25"/>
	<path d="M47.8,8.5l-0.4,0.1h-5.3V30h2.5V11.2h1.8c-0.4,1.6-1,3.5-1.5,5c1.5,1.7,1.9,3.2,1.9,4.4c0,0.7-0.1,1.2-0.4,1.4
		c-0.2,0.1-0.4,0.2-0.7,0.2c-0.3,0-0.6,0-1,0c0.4,0.7,0.6,1.8,0.6,2.4c0.5,0,1.1,0,1.5,0c0.6-0.1,1-0.2,1.4-0.5
		c0.8-0.6,1.1-1.6,1.1-3.1c0-1.4-0.3-3.1-1.9-5c0.7-1.8,1.6-4.2,2.3-6.2L47.8,8.5z M52.7,15.6v-2.7h3v-2.4h-3V7.8h-2.8v7.4
		c0,0.9-0.4,1.1-0.8,1.2c0.4,0.6,0.7,1.9,0.8,2.6c0.5-0.4,1.4-0.7,6-1.8c-0.1-0.6-0.3-1.5-0.4-2.2L52.7,15.6z M59.3,23.5h-6.1v-1.5
		h6.1V23.5z M53.2,27.1v-1.5h6.1v1.5H53.2z M54.5,17.9c-0.1,0.6-0.4,1.3-0.6,1.9h-3.5v10.3h2.9v-0.8h6.1V30h3V19.9h-5.5
		c0.3-0.4,0.6-0.9,0.9-1.3L54.5,17.9z M59.6,16.1c-0.4,0-0.5-0.1-0.5-0.9v-2.3h3.9v-2.4h-3.9V7.7h-2.8v7.5c0,2.4,0.5,3.2,2.8,3.2
		h1.9c1.7,0,2.4-0.8,2.7-3.7c-0.8-0.2-1.8-0.6-2.4-1c-0.1,1.9-0.2,2.3-0.6,2.3H59.6z"/>
	<path d="M74.9,22.4c-1.7,0.2-3.5,0.5-5.1,0.7v-2.5h4.8v-2.5h-4.8v-2.4h4.8v-2.5h-4.8v-1.6c2-0.6,4.1-1.3,5.9-2.1l-2.3-2.2
		c-1.6,0.9-4.1,1.9-6.3,2.6l0,0L67,10v13.5c-0.7,0.1-1.3,0.2-1.9,0.2l0.4,2.7l1.5-0.2v3.5h2.7v-3.9c1.7-0.3,3.5-0.6,5.3-0.9
		L74.9,22.4z M83.1,20.8c-0.5,1.2-1.2,2.4-2.2,3.3c-0.9-1-1.7-2.1-2.2-3.3H83.1z M84.7,18.3l-0.5,0.1h-7.6c2.5-1.8,3-4.6,3-6.8V11
		H82v3.2c0,2.2,0.5,3.2,2.7,3.2h1.4c0.5,0,1,0,1.4-0.2c-0.1-0.6-0.2-1.5-0.2-2.2c-0.3,0.1-0.9,0.1-1.2,0.1H85
		c-0.3,0-0.4-0.2-0.4-0.9V8.6H82v0h-2.4v0H77v3c0,1.7-0.3,3.7-2.6,5.2c0.5,0.3,1.4,1.2,1.9,1.7h-0.8v2.4h2.3l-1.5,0.4
		c0.7,1.7,1.6,3.2,2.6,4.6c-1.4,0.9-3.1,1.6-5,2c0.6,0.6,1.2,1.7,1.4,2.4c2.1-0.6,4-1.4,5.6-2.5c1.4,1.1,3.1,1.9,5.1,2.4
		c0.4-0.7,1.2-1.9,1.8-2.4c-1.8-0.4-3.4-1-4.8-1.8c1.6-1.7,2.7-4,3.4-6.9L84.7,18.3z"/>
	<path d="M105.9,26.6v-4.8h4.4v-2.7h-4.4v-3.9h4.9v-2.7h-4.9V7.8h-2.9v4.7h-1.9c0.2-1.1,0.4-2.2,0.6-3.3L99,8.8
		c-0.2,2-0.7,4.1-1.3,5.9c-0.3-0.9-0.8-2.1-1.3-3L95,12.2V7.7h-2.9v4.9l-2-0.3c-0.2,2-0.6,4.7-1.2,6.2l2.1,0.8
		c0.6-1.7,0.9-4.3,1.1-6.4v17.2H95V13.7c0.4,1,0.8,2,0.9,2.8l1.4-0.6c-0.2,0.5-0.5,1-0.7,1.4c0.7,0.3,2,0.9,2.5,1.3
		c0.5-0.9,1-2.1,1.3-3.3h2.6v3.9h-4.6v2.7h4.6v4.8h-6.4v2.7h14.9v-2.7H105.9z"/>
	<path d="M127.3,10.6c-0.3-0.3-0.8-0.6-1.2-1c0.5-0.4,0.9-0.9,1.2-1.3l-1.9-0.6c-0.2,0.3-0.6,0.6-0.9,1c-0.5-0.3-1-0.6-1.5-0.8
		l-1.3,1.1c0.4,0.2,0.8,0.5,1.3,0.7c-0.6,0.4-1.2,0.7-1.8,0.9c0.5,0.3,1.2,0.9,1.5,1.3c0.6-0.3,1.3-0.7,1.9-1.2
		c0.5,0.4,0.9,0.7,1.2,1L127.3,10.6z M118.5,15.4h2.9v-0.3c0.4,0.3,0.8,0.8,1.1,1.1h-3.9L118.5,15.4z M116.8,18.3h15.4v2.9h2.8v-4.9
		h-1.8c0.2-2.2,0.4-5.3,0.5-7.8h-6v1.8h3.2l0,0.8h-3v1.8h2.9l0,0.8h-3v1.8h2.8l-0.1,0.8h-7.8c0.6-0.4,1.3-0.8,1.9-1.2
		c0.6,0.4,1,0.8,1.4,1.2l1.4-1.2c-0.4-0.4-0.9-0.7-1.4-1.1c0.5-0.5,0.9-0.9,1.3-1.4l-1.9-0.6c-0.3,0.3-0.6,0.7-1,1
		c-0.5-0.3-1-0.6-1.5-0.8l-1.3,1.1c0.4,0.2,0.9,0.5,1.3,0.8c-0.5,0.3-1.1,0.6-1.7,0.9v-1.2h-3l0-0.8h3v-1.8h-3l0-0.7
		c1.1-0.2,2.3-0.6,3.3-0.9l-1.2-1.7c-1.3,0.5-3.4,1.1-4.8,1.3l0.4,7.1h-1.8v4.9h2.7V18.3z M135.3,23.4h-9c1.6-0.8,3.3-1.8,4.6-2.8
		l-1.6-1.5l-0.6,0.1h-10.4v2h7.7c-0.9,0.5-1.8,1.1-2.6,1.4v0.7h-9.7v2.3h9.7v1.6c0,0.3-0.1,0.4-0.5,0.4c-0.4,0-1.8,0-2.9,0
		c0.3,0.7,0.7,1.6,0.9,2.4c1.8,0,3.1,0,4.1-0.4c1-0.4,1.3-1,1.3-2.3v-1.7h9.2V23.4z"/>
	<path d="M144.5,13.4c-2.3,1.1-4.7,2.2-6.2,2.9l1,2.2c1.8-0.9,3.9-2.1,5.8-3.2L144.5,13.4z M153.7,23.6h-10.3v-1.4h10.3V23.6z
		 M143.5,27.1v-1.4h10.3v1.4H143.5z M157.9,8.6h-9.3v2.3h1.5l-1.1,1.5c1.1,0.5,2.6,1.2,3.5,1.7c-1.6,0.8-3.1,1.4-4.2,1.9l1,2.1
		l-1.7-0.3c0.3-0.3,0.3-0.9,0.3-1.6V8.6h-9.5v2.3h1.7l-1.1,1.5c1.2,0.5,2.8,1.3,3.6,1.8l1.3-1.9c-0.8-0.4-2.2-1-3.3-1.5h4.7v5.4
		c0,0.2-0.1,0.3-0.3,0.3c-0.3,0-1.1,0-1.8,0c0.3,0.6,0.5,1.6,0.6,2.3c1.3,0,2.4,0,3.1-0.3c-0.1,0.5-0.3,1-0.5,1.5h-5.6v10.1h2.8
		v-0.9h10.3v0.9h3V20.1h-7.6c0.3-0.6,0.6-1.2,0.9-1.8l-0.6-0.1c1.8-0.9,3.8-2.1,5.8-3.2l-0.6-1.9l-1.8,0.9l1.1-1.7
		c-0.8-0.4-2.2-1-3.3-1.5h4.7v5.4c0,0.2-0.1,0.3-0.3,0.3c-0.3,0-1.1,0-1.8,0c0.3,0.6,0.5,1.6,0.6,2.3c1.4,0,2.5,0,3.3-0.4
		c0.8-0.4,1-1,1-2.2V8.6z"/>
	<path d="M177.5,21.5v1.6h-10v-1.6H177.5z M167.6,26.9v-1.7h10v1.7H167.6z M164.7,30.1h2.9v-0.8h10v0.8h3v-11h-15.8V30.1z
		 M176.1,12.1c-0.3,0.9-0.7,2.1-1.1,3h-4.9c-0.2-0.9-0.6-2-1.2-3H176.1z M178.2,15.1c0.4-0.7,0.8-1.6,1.2-2.5l-2.2-0.5h5V9.6h-7.7
		c-0.2-0.7-0.6-1.5-1-2.2l-3,0.5c0.3,0.5,0.6,1.1,0.7,1.7h-8.1v2.5h5.3l-2.3,0.5c0.4,0.7,0.7,1.7,1,2.5h-5.3v2.5h21.5v-2.5H178.2z"
		/>
	<path d="M193,19.5c-0.1-1.2-0.5-2.9-0.9-4.3l-1.8,0.4c0.1,0.5,0.2,1,0.3,1.6l-1.9,0.2c1.5-1.7,3-3.7,4.2-5.6l-2-1.1
		c-0.3,0.7-0.7,1.4-1.1,2.1l-1.2,0.1c0.8-1.2,1.7-2.7,2.3-4.1L188.6,8c-0.5,1.8-1.6,3.7-1.9,4.2c-0.3,0.5-0.6,0.9-1,0.9
		c0.3,0.6,0.6,1.6,0.7,2.1c0.3-0.1,0.7-0.3,2.1-0.5c-0.6,0.8-1.1,1.5-1.4,1.8c-0.6,0.7-1.1,1.2-1.6,1.3c0.3,0.6,0.6,1.7,0.7,2.1
		c0.4-0.2,1.1-0.4,4.6-0.8c0,0.4,0.1,0.7,0.1,1L193,19.5z M191.9,23.9c-1.5,1.4-4.2,2.6-6.9,3.1c0.6,0.6,1.4,1.7,1.9,2.4
		c2.9-0.8,5.7-2.5,7.3-4.6L191.9,23.9z M207.3,23.2v-2.4H198v-1.2h-2.9v1.2h-9.5v2.4h9.5V30h2.9v-6.8H207.3z M199.2,25.4
		c2.1,1.2,5,3,6.3,4.2l1.8-2c-1.4-1.2-4.3-2.8-6.4-3.9L199.2,25.4z M197.4,13.5h-1.8v-1.6h1.8V13.5z M197.4,17.1h-1.8v-1.7h1.8V17.1
		z M197.3,9.8l0.8-1.8l-2.6-0.4c0,0.6-0.2,1.5-0.4,2.3h-1.9v9.4h6.7V9.8H197.3z M204.8,16c0.1,0.5,0.2,1,0.4,1.5l-1.9,0.2
		c1.6-1.7,3.1-3.7,4.3-5.7l-2.1-1.2c-0.3,0.6-0.7,1.3-1,1.9l-1.6,0.1c0.8-1.2,1.7-2.8,2.3-4.2l-2.3-0.6c-0.5,1.8-1.6,3.8-1.9,4.3
		c-0.3,0.5-0.6,0.9-1,1c0.3,0.6,0.6,1.6,0.7,2.1c0.3-0.2,0.8-0.3,2.4-0.5c-0.6,0.9-1.2,1.6-1.4,1.8c-0.6,0.7-1.1,1.1-1.6,1.2
		c0.3,0.6,0.6,1.7,0.7,2.2c0.4-0.2,1.1-0.4,4.7-0.7c0,0.3,0.1,0.6,0.1,0.9l1.9-0.5c-0.2-1.1-0.6-2.9-1-4.2L204.8,16z"/>
	<path d="M230.3,7.9h-2.6v9.5c0,0.3-0.1,0.4-0.5,0.4c-0.3,0-1.5,0-2.6,0c0.3,0.6,0.7,1.6,0.8,2.3c1.6,0,2.8,0,3.7-0.4
		c0.9-0.4,1.1-1,1.1-2.2V7.9z M225.6,8.8H223v7.9h2.5V8.8z M228,22.8c-0.9,0.6-2.1,1.4-3.2,1.9c-0.6-0.6-1.2-1.2-1.7-1.9H228z
		 M211.7,12c0.2-0.3,0.4-0.6,0.6-1h2.3v1H211.7z M228.9,22.8h2.4v-2.3h-8.8c-0.2-0.6-0.6-1.4-0.9-2l-0.6,0.1
		c0.2-0.3,0.3-0.7,0.3-1.3v-2.7h-4.2v-0.8h4.6V12h-4.6v-1h4V9.2h-4V7.7h-2.4v1.5h-1.4c0.1-0.3,0.3-0.6,0.4-1l-2.1-0.5
		c-0.4,1.2-1.1,2.5-1.9,3.4c0.4,0.2,1,0.6,1.5,0.8h-1.5v1.9h5v0.8h-4v4.7h2.2v-3h1.8V20h2.4v-3.5h2v1c0,0.2-0.1,0.3-0.3,0.3
		c-0.2,0-0.7,0-1.3,0c0.2,0.5,0.6,1.1,0.7,1.6c0.3,0,0.5,0,0.8,0h0c0.2,0.4,0.4,0.8,0.6,1.2h-9.7v2.3h7c-2.1,1-4.8,1.7-7.4,2
		c0.5,0.5,1.2,1.5,1.5,2.1c1.2-0.2,2.5-0.5,3.6-0.9v0.1c0,1.2-0.6,1.8-1.1,2.2c0.3,0.3,0.7,1.2,0.8,1.8l0,0.2c0.5-0.3,1.3-0.6,7-1.8
		c0-0.5,0.1-1.5,0.2-2.1l-4.5,0.9V25c1.3-0.6,2.5-1.2,3.5-2c1.8,3.7,4.8,5.9,9.6,6.8c0.3-0.7,1-1.7,1.5-2.3
		c-1.9-0.3-3.5-0.7-4.9-1.4c1.2-0.6,2.5-1.3,3.7-2.1L228.9,22.8z"/>
	<path d="M238.5,7.8c-1.2,3.4-3.3,6.8-5.5,9c0.5,0.7,1.3,2.4,1.6,3c0.5-0.5,1-1.1,1.5-1.7v12h2.9V13.6c0.9-1.6,1.7-3.3,2.3-5
		L238.5,7.8z M255.8,14.3v-2.7h-9.3c0.5-1,0.8-2,1.2-3l-2.8-0.7c-1.1,3.4-3,6.9-5.1,9c0.6,0.5,1.7,1.5,2.2,2
		c1.1-1.2,2.2-2.9,3.1-4.7h0.9v15.8h2.9v-5.3h6.5v-2.6h-6.5v-2.7h6.2v-2.6h-6.2v-2.5H255.8z"/>
</mask>
<path class="st5" d="M105.9,26.6v-4.8h4.4v-2.7h-4.4v-3.9h4.9v-2.7h-4.9V7.8h-2.9v4.7h-1.9c0.2-1.1,0.4-2.2,0.6-3.3L99,8.8
	c-0.2,2-0.7,4.1-1.3,5.9c-0.3-0.9-0.8-2.1-1.3-3L95,12.2V7.7h-2.9v4.9l-2-0.3c-0.2,2-0.6,4.7-1.2,6.2l2.1,0.8
	c0.6-1.7,0.9-4.3,1.1-6.4v17.2H95V13.7c0.4,1,0.8,2,0.9,2.8l1.4-0.6c-0.2,0.5-0.5,1-0.7,1.4c0.7,0.3,2,0.9,2.5,1.3
	c0.5-0.9,1-2.1,1.3-3.3h2.6v3.9h-4.6v2.7h4.6v4.8h-6.4v2.7h14.9v-2.7H105.9z"/>
<defs>
	
		<filter id="Adobe_OpacityMaskFilter_00000182526594114366875460000017850418790925610175_" filterUnits="userSpaceOnUse" x="112.6" y="6.8" width="23.7" height="24.3">
		<feColorMatrix  type="matrix" values="1 0 0 0 0  0 1 0 0 0  0 0 1 0 0  0 0 0 1 0"/>
	</filter>
</defs>
<mask maskUnits="userSpaceOnUse" x="112.6" y="6.8" width="23.7" height="24.3" id="path-1-outside-1_317_617_00000099635349905389950580000010627224570025606302_">
	
		<rect x="41.1" y="6.4" style="fill:#FFFFFF;filter:url(#Adobe_OpacityMaskFilter_00000182526594114366875460000017850418790925610175_);" width="216" height="25"/>
	<path d="M47.8,8.5l-0.4,0.1h-5.3V30h2.5V11.2h1.8c-0.4,1.6-1,3.5-1.5,5c1.5,1.7,1.9,3.2,1.9,4.4c0,0.7-0.1,1.2-0.4,1.4
		c-0.2,0.1-0.4,0.2-0.7,0.2c-0.3,0-0.6,0-1,0c0.4,0.7,0.6,1.8,0.6,2.4c0.5,0,1.1,0,1.5,0c0.6-0.1,1-0.2,1.4-0.5
		c0.8-0.6,1.1-1.6,1.1-3.1c0-1.4-0.3-3.1-1.9-5c0.7-1.8,1.6-4.2,2.3-6.2L47.8,8.5z M52.7,15.6v-2.7h3v-2.4h-3V7.8h-2.8v7.4
		c0,0.9-0.4,1.1-0.8,1.2c0.4,0.6,0.7,1.9,0.8,2.6c0.5-0.4,1.4-0.7,6-1.8c-0.1-0.6-0.3-1.5-0.4-2.2L52.7,15.6z M59.3,23.5h-6.1v-1.5
		h6.1V23.5z M53.2,27.1v-1.5h6.1v1.5H53.2z M54.5,17.9c-0.1,0.6-0.4,1.3-0.6,1.9h-3.5v10.3h2.9v-0.8h6.1V30h3V19.9h-5.5
		c0.3-0.4,0.6-0.9,0.9-1.3L54.5,17.9z M59.6,16.1c-0.4,0-0.5-0.1-0.5-0.9v-2.3h3.9v-2.4h-3.9V7.7h-2.8v7.5c0,2.4,0.5,3.2,2.8,3.2
		h1.9c1.7,0,2.4-0.8,2.7-3.7c-0.8-0.2-1.8-0.6-2.4-1c-0.1,1.9-0.2,2.3-0.6,2.3H59.6z"/>
	<path d="M74.9,22.4c-1.7,0.2-3.5,0.5-5.1,0.7v-2.5h4.8v-2.5h-4.8v-2.4h4.8v-2.5h-4.8v-1.6c2-0.6,4.1-1.3,5.9-2.1l-2.3-2.2
		c-1.6,0.9-4.1,1.9-6.3,2.6l0,0L67,10v13.5c-0.7,0.1-1.3,0.2-1.9,0.2l0.4,2.7l1.5-0.2v3.5h2.7v-3.9c1.7-0.3,3.5-0.6,5.3-0.9
		L74.9,22.4z M83.1,20.8c-0.5,1.2-1.2,2.4-2.2,3.3c-0.9-1-1.7-2.1-2.2-3.3H83.1z M84.7,18.3l-0.5,0.1h-7.6c2.5-1.8,3-4.6,3-6.8V11
		H82v3.2c0,2.2,0.5,3.2,2.7,3.2h1.4c0.5,0,1,0,1.4-0.2c-0.1-0.6-0.2-1.5-0.2-2.2c-0.3,0.1-0.9,0.1-1.2,0.1H85
		c-0.3,0-0.4-0.2-0.4-0.9V8.6H82v0h-2.4v0H77v3c0,1.7-0.3,3.7-2.6,5.2c0.5,0.3,1.4,1.2,1.9,1.7h-0.8v2.4h2.3l-1.5,0.4
		c0.7,1.7,1.6,3.2,2.6,4.6c-1.4,0.9-3.1,1.6-5,2c0.6,0.6,1.2,1.7,1.4,2.4c2.1-0.6,4-1.4,5.6-2.5c1.4,1.1,3.1,1.9,5.1,2.4
		c0.4-0.7,1.2-1.9,1.8-2.4c-1.8-0.4-3.4-1-4.8-1.8c1.6-1.7,2.7-4,3.4-6.9L84.7,18.3z"/>
	<path d="M105.9,26.6v-4.8h4.4v-2.7h-4.4v-3.9h4.9v-2.7h-4.9V7.8h-2.9v4.7h-1.9c0.2-1.1,0.4-2.2,0.6-3.3L99,8.8
		c-0.2,2-0.7,4.1-1.3,5.9c-0.3-0.9-0.8-2.1-1.3-3L95,12.2V7.7h-2.9v4.9l-2-0.3c-0.2,2-0.6,4.7-1.2,6.2l2.1,0.8
		c0.6-1.7,0.9-4.3,1.1-6.4v17.2H95V13.7c0.4,1,0.8,2,0.9,2.8l1.4-0.6c-0.2,0.5-0.5,1-0.7,1.4c0.7,0.3,2,0.9,2.5,1.3
		c0.5-0.9,1-2.1,1.3-3.3h2.6v3.9h-4.6v2.7h4.6v4.8h-6.4v2.7h14.9v-2.7H105.9z"/>
	<path d="M127.3,10.6c-0.3-0.3-0.8-0.6-1.2-1c0.5-0.4,0.9-0.9,1.2-1.3l-1.9-0.6c-0.2,0.3-0.6,0.6-0.9,1c-0.5-0.3-1-0.6-1.5-0.8
		l-1.3,1.1c0.4,0.2,0.8,0.5,1.3,0.7c-0.6,0.4-1.2,0.7-1.8,0.9c0.5,0.3,1.2,0.9,1.5,1.3c0.6-0.3,1.3-0.7,1.9-1.2
		c0.5,0.4,0.9,0.7,1.2,1L127.3,10.6z M118.5,15.4h2.9v-0.3c0.4,0.3,0.8,0.8,1.1,1.1h-3.9L118.5,15.4z M116.8,18.3h15.4v2.9h2.8v-4.9
		h-1.8c0.2-2.2,0.4-5.3,0.5-7.8h-6v1.8h3.2l0,0.8h-3v1.8h2.9l0,0.8h-3v1.8h2.8l-0.1,0.8h-7.8c0.6-0.4,1.3-0.8,1.9-1.2
		c0.6,0.4,1,0.8,1.4,1.2l1.4-1.2c-0.4-0.4-0.9-0.7-1.4-1.1c0.5-0.5,0.9-0.9,1.3-1.4l-1.9-0.6c-0.3,0.3-0.6,0.7-1,1
		c-0.5-0.3-1-0.6-1.5-0.8l-1.3,1.1c0.4,0.2,0.9,0.5,1.3,0.8c-0.5,0.3-1.1,0.6-1.7,0.9v-1.2h-3l0-0.8h3v-1.8h-3l0-0.7
		c1.1-0.2,2.3-0.6,3.3-0.9l-1.2-1.7c-1.3,0.5-3.4,1.1-4.8,1.3l0.4,7.1h-1.8v4.9h2.7V18.3z M135.3,23.4h-9c1.6-0.8,3.3-1.8,4.6-2.8
		l-1.6-1.5l-0.6,0.1h-10.4v2h7.7c-0.9,0.5-1.8,1.1-2.6,1.4v0.7h-9.7v2.3h9.7v1.6c0,0.3-0.1,0.4-0.5,0.4c-0.4,0-1.8,0-2.9,0
		c0.3,0.7,0.7,1.6,0.9,2.4c1.8,0,3.1,0,4.1-0.4c1-0.4,1.3-1,1.3-2.3v-1.7h9.2V23.4z"/>
	<path d="M144.5,13.4c-2.3,1.1-4.7,2.2-6.2,2.9l1,2.2c1.8-0.9,3.9-2.1,5.8-3.2L144.5,13.4z M153.7,23.6h-10.3v-1.4h10.3V23.6z
		 M143.5,27.1v-1.4h10.3v1.4H143.5z M157.9,8.6h-9.3v2.3h1.5l-1.1,1.5c1.1,0.5,2.6,1.2,3.5,1.7c-1.6,0.8-3.1,1.4-4.2,1.9l1,2.1
		l-1.7-0.3c0.3-0.3,0.3-0.9,0.3-1.6V8.6h-9.5v2.3h1.7l-1.1,1.5c1.2,0.5,2.8,1.3,3.6,1.8l1.3-1.9c-0.8-0.4-2.2-1-3.3-1.5h4.7v5.4
		c0,0.2-0.1,0.3-0.3,0.3c-0.3,0-1.1,0-1.8,0c0.3,0.6,0.5,1.6,0.6,2.3c1.3,0,2.4,0,3.1-0.3c-0.1,0.5-0.3,1-0.5,1.5h-5.6v10.1h2.8
		v-0.9h10.3v0.9h3V20.1h-7.6c0.3-0.6,0.6-1.2,0.9-1.8l-0.6-0.1c1.8-0.9,3.8-2.1,5.8-3.2l-0.6-1.9l-1.8,0.9l1.1-1.7
		c-0.8-0.4-2.2-1-3.3-1.5h4.7v5.4c0,0.2-0.1,0.3-0.3,0.3c-0.3,0-1.1,0-1.8,0c0.3,0.6,0.5,1.6,0.6,2.3c1.4,0,2.5,0,3.3-0.4
		c0.8-0.4,1-1,1-2.2V8.6z"/>
	<path d="M177.5,21.5v1.6h-10v-1.6H177.5z M167.6,26.9v-1.7h10v1.7H167.6z M164.7,30.1h2.9v-0.8h10v0.8h3v-11h-15.8V30.1z
		 M176.1,12.1c-0.3,0.9-0.7,2.1-1.1,3h-4.9c-0.2-0.9-0.6-2-1.2-3H176.1z M178.2,15.1c0.4-0.7,0.8-1.6,1.2-2.5l-2.2-0.5h5V9.6h-7.7
		c-0.2-0.7-0.6-1.5-1-2.2l-3,0.5c0.3,0.5,0.6,1.1,0.7,1.7h-8.1v2.5h5.3l-2.3,0.5c0.4,0.7,0.7,1.7,1,2.5h-5.3v2.5h21.5v-2.5H178.2z"
		/>
	<path d="M193,19.5c-0.1-1.2-0.5-2.9-0.9-4.3l-1.8,0.4c0.1,0.5,0.2,1,0.3,1.6l-1.9,0.2c1.5-1.7,3-3.7,4.2-5.6l-2-1.1
		c-0.3,0.7-0.7,1.4-1.1,2.1l-1.2,0.1c0.8-1.2,1.7-2.7,2.3-4.1L188.6,8c-0.5,1.8-1.6,3.7-1.9,4.2c-0.3,0.5-0.6,0.9-1,0.9
		c0.3,0.6,0.6,1.6,0.7,2.1c0.3-0.1,0.7-0.3,2.1-0.5c-0.6,0.8-1.1,1.5-1.4,1.8c-0.6,0.7-1.1,1.2-1.6,1.3c0.3,0.6,0.6,1.7,0.7,2.1
		c0.4-0.2,1.1-0.4,4.6-0.8c0,0.4,0.1,0.7,0.1,1L193,19.5z M191.9,23.9c-1.5,1.4-4.2,2.6-6.9,3.1c0.6,0.6,1.4,1.7,1.9,2.4
		c2.9-0.8,5.7-2.5,7.3-4.6L191.9,23.9z M207.3,23.2v-2.4H198v-1.2h-2.9v1.2h-9.5v2.4h9.5V30h2.9v-6.8H207.3z M199.2,25.4
		c2.1,1.2,5,3,6.3,4.2l1.8-2c-1.4-1.2-4.3-2.8-6.4-3.9L199.2,25.4z M197.4,13.5h-1.8v-1.6h1.8V13.5z M197.4,17.1h-1.8v-1.7h1.8V17.1
		z M197.3,9.8l0.8-1.8l-2.6-0.4c0,0.6-0.2,1.5-0.4,2.3h-1.9v9.4h6.7V9.8H197.3z M204.8,16c0.1,0.5,0.2,1,0.4,1.5l-1.9,0.2
		c1.6-1.7,3.1-3.7,4.3-5.7l-2.1-1.2c-0.3,0.6-0.7,1.3-1,1.9l-1.6,0.1c0.8-1.2,1.7-2.8,2.3-4.2l-2.3-0.6c-0.5,1.8-1.6,3.8-1.9,4.3
		c-0.3,0.5-0.6,0.9-1,1c0.3,0.6,0.6,1.6,0.7,2.1c0.3-0.2,0.8-0.3,2.4-0.5c-0.6,0.9-1.2,1.6-1.4,1.8c-0.6,0.7-1.1,1.1-1.6,1.2
		c0.3,0.6,0.6,1.7,0.7,2.2c0.4-0.2,1.1-0.4,4.7-0.7c0,0.3,0.1,0.6,0.1,0.9l1.9-0.5c-0.2-1.1-0.6-2.9-1-4.2L204.8,16z"/>
	<path d="M230.3,7.9h-2.6v9.5c0,0.3-0.1,0.4-0.5,0.4c-0.3,0-1.5,0-2.6,0c0.3,0.6,0.7,1.6,0.8,2.3c1.6,0,2.8,0,3.7-0.4
		c0.9-0.4,1.1-1,1.1-2.2V7.9z M225.6,8.8H223v7.9h2.5V8.8z M228,22.8c-0.9,0.6-2.1,1.4-3.2,1.9c-0.6-0.6-1.2-1.2-1.7-1.9H228z
		 M211.7,12c0.2-0.3,0.4-0.6,0.6-1h2.3v1H211.7z M228.9,22.8h2.4v-2.3h-8.8c-0.2-0.6-0.6-1.4-0.9-2l-0.6,0.1
		c0.2-0.3,0.3-0.7,0.3-1.3v-2.7h-4.2v-0.8h4.6V12h-4.6v-1h4V9.2h-4V7.7h-2.4v1.5h-1.4c0.1-0.3,0.3-0.6,0.4-1l-2.1-0.5
		c-0.4,1.2-1.1,2.5-1.9,3.4c0.4,0.2,1,0.6,1.5,0.8h-1.5v1.9h5v0.8h-4v4.7h2.2v-3h1.8V20h2.4v-3.5h2v1c0,0.2-0.1,0.3-0.3,0.3
		c-0.2,0-0.7,0-1.3,0c0.2,0.5,0.6,1.1,0.7,1.6c0.3,0,0.5,0,0.8,0h0c0.2,0.4,0.4,0.8,0.6,1.2h-9.7v2.3h7c-2.1,1-4.8,1.7-7.4,2
		c0.5,0.5,1.2,1.5,1.5,2.1c1.2-0.2,2.5-0.5,3.6-0.9v0.1c0,1.2-0.6,1.8-1.1,2.2c0.3,0.3,0.7,1.2,0.8,1.8l0,0.2c0.5-0.3,1.3-0.6,7-1.8
		c0-0.5,0.1-1.5,0.2-2.1l-4.5,0.9V25c1.3-0.6,2.5-1.2,3.5-2c1.8,3.7,4.8,5.9,9.6,6.8c0.3-0.7,1-1.7,1.5-2.3
		c-1.9-0.3-3.5-0.7-4.9-1.4c1.2-0.6,2.5-1.3,3.7-2.1L228.9,22.8z"/>
	<path d="M238.5,7.8c-1.2,3.4-3.3,6.8-5.5,9c0.5,0.7,1.3,2.4,1.6,3c0.5-0.5,1-1.1,1.5-1.7v12h2.9V13.6c0.9-1.6,1.7-3.3,2.3-5
		L238.5,7.8z M255.8,14.3v-2.7h-9.3c0.5-1,0.8-2,1.2-3l-2.8-0.7c-1.1,3.4-3,6.9-5.1,9c0.6,0.5,1.7,1.5,2.2,2
		c1.1-1.2,2.2-2.9,3.1-4.7h0.9v15.8h2.9v-5.3h6.5v-2.6h-6.5v-2.7h6.2v-2.6h-6.2v-2.5H255.8z"/>
</mask>
<path class="st7" d="M127.3,10.6c-0.3-0.3-0.8-0.6-1.2-1c0.5-0.4,0.9-0.9,1.2-1.3l-1.9-0.6c-0.2,0.3-0.6,0.6-0.9,1
	c-0.5-0.3-1-0.6-1.5-0.8l-1.3,1.1c0.4,0.2,0.8,0.5,1.3,0.7c-0.6,0.4-1.2,0.7-1.8,0.9c0.5,0.3,1.2,0.9,1.5,1.3
	c0.6-0.3,1.3-0.7,1.9-1.2c0.5,0.4,0.9,0.7,1.2,1L127.3,10.6z M118.5,15.4h2.9v-0.3c0.4,0.3,0.8,0.8,1.1,1.1h-3.9L118.5,15.4z
	 M116.8,18.3h15.4v2.9h2.8v-4.9h-1.8c0.2-2.2,0.4-5.3,0.5-7.8h-6v1.8h3.2l0,0.8h-3v1.8h2.9l0,0.8h-3v1.8h2.8l-0.1,0.8h-7.8
	c0.6-0.4,1.3-0.8,1.9-1.2c0.6,0.4,1,0.8,1.4,1.2l1.4-1.2c-0.4-0.4-0.9-0.7-1.4-1.1c0.5-0.5,0.9-0.9,1.3-1.4l-1.9-0.6
	c-0.3,0.3-0.6,0.7-1,1c-0.5-0.3-1-0.6-1.5-0.8l-1.3,1.1c0.4,0.2,0.9,0.5,1.3,0.8c-0.5,0.3-1.1,0.6-1.7,0.9v-1.2h-3l0-0.8h3v-1.8h-3
	l0-0.7c1.1-0.2,2.3-0.6,3.3-0.9l-1.2-1.7c-1.3,0.5-3.4,1.1-4.8,1.3l0.4,7.1h-1.8v4.9h2.7V18.3z M135.3,23.4h-9
	c1.6-0.8,3.3-1.8,4.6-2.8l-1.6-1.5l-0.6,0.1h-10.4v2h7.7c-0.9,0.5-1.8,1.1-2.6,1.4v0.7h-9.7v2.3h9.7v1.6c0,0.3-0.1,0.4-0.5,0.4
	c-0.4,0-1.8,0-2.9,0c0.3,0.7,0.7,1.6,0.9,2.4c1.8,0,3.1,0,4.1-0.4c1-0.4,1.3-1,1.3-2.3v-1.7h9.2V23.4z"/>
<defs>
	
		<filter id="Adobe_OpacityMaskFilter_00000034797030058913989400000009562637189723345586_" filterUnits="userSpaceOnUse" x="137.3" y="7.6" width="21.6" height="23.6">
		<feColorMatrix  type="matrix" values="1 0 0 0 0  0 1 0 0 0  0 0 1 0 0  0 0 0 1 0"/>
	</filter>
</defs>
<mask maskUnits="userSpaceOnUse" x="137.3" y="7.6" width="21.6" height="23.6" id="path-1-outside-1_317_617_00000137819299695036751290000013783778899559954824_">
	
		<rect x="41.1" y="6.4" style="fill:#FFFFFF;filter:url(#Adobe_OpacityMaskFilter_00000034797030058913989400000009562637189723345586_);" width="216" height="25"/>
	<path d="M47.8,8.5l-0.4,0.1h-5.3V30h2.5V11.2h1.8c-0.4,1.6-1,3.5-1.5,5c1.5,1.7,1.9,3.2,1.9,4.4c0,0.7-0.1,1.2-0.4,1.4
		c-0.2,0.1-0.4,0.2-0.7,0.2c-0.3,0-0.6,0-1,0c0.4,0.7,0.6,1.8,0.6,2.4c0.5,0,1.1,0,1.5,0c0.6-0.1,1-0.2,1.4-0.5
		c0.8-0.6,1.1-1.6,1.1-3.1c0-1.4-0.3-3.1-1.9-5c0.7-1.8,1.6-4.2,2.3-6.2L47.8,8.5z M52.7,15.6v-2.7h3v-2.4h-3V7.8h-2.8v7.4
		c0,0.9-0.4,1.1-0.8,1.2c0.4,0.6,0.7,1.9,0.8,2.6c0.5-0.4,1.4-0.7,6-1.8c-0.1-0.6-0.3-1.5-0.4-2.2L52.7,15.6z M59.3,23.5h-6.1v-1.5
		h6.1V23.5z M53.2,27.1v-1.5h6.1v1.5H53.2z M54.5,17.9c-0.1,0.6-0.4,1.3-0.6,1.9h-3.5v10.3h2.9v-0.8h6.1V30h3V19.9h-5.5
		c0.3-0.4,0.6-0.9,0.9-1.3L54.5,17.9z M59.6,16.1c-0.4,0-0.5-0.1-0.5-0.9v-2.3h3.9v-2.4h-3.9V7.7h-2.8v7.5c0,2.4,0.5,3.2,2.8,3.2
		h1.9c1.7,0,2.4-0.8,2.7-3.7c-0.8-0.2-1.8-0.6-2.4-1c-0.1,1.9-0.2,2.3-0.6,2.3H59.6z"/>
	<path d="M74.9,22.4c-1.7,0.2-3.5,0.5-5.1,0.7v-2.5h4.8v-2.5h-4.8v-2.4h4.8v-2.5h-4.8v-1.6c2-0.6,4.1-1.3,5.9-2.1l-2.3-2.2
		c-1.6,0.9-4.1,1.9-6.3,2.6l0,0L67,10v13.5c-0.7,0.1-1.3,0.2-1.9,0.2l0.4,2.7l1.5-0.2v3.5h2.7v-3.9c1.7-0.3,3.5-0.6,5.3-0.9
		L74.9,22.4z M83.1,20.8c-0.5,1.2-1.2,2.4-2.2,3.3c-0.9-1-1.7-2.1-2.2-3.3H83.1z M84.7,18.3l-0.5,0.1h-7.6c2.5-1.8,3-4.6,3-6.8V11
		H82v3.2c0,2.2,0.5,3.2,2.7,3.2h1.4c0.5,0,1,0,1.4-0.2c-0.1-0.6-0.2-1.5-0.2-2.2c-0.3,0.1-0.9,0.1-1.2,0.1H85
		c-0.3,0-0.4-0.2-0.4-0.9V8.6H82v0h-2.4v0H77v3c0,1.7-0.3,3.7-2.6,5.2c0.5,0.3,1.4,1.2,1.9,1.7h-0.8v2.4h2.3l-1.5,0.4
		c0.7,1.7,1.6,3.2,2.6,4.6c-1.4,0.9-3.1,1.6-5,2c0.6,0.6,1.2,1.7,1.4,2.4c2.1-0.6,4-1.4,5.6-2.5c1.4,1.1,3.1,1.9,5.1,2.4
		c0.4-0.7,1.2-1.9,1.8-2.4c-1.8-0.4-3.4-1-4.8-1.8c1.6-1.7,2.7-4,3.4-6.9L84.7,18.3z"/>
	<path d="M105.9,26.6v-4.8h4.4v-2.7h-4.4v-3.9h4.9v-2.7h-4.9V7.8h-2.9v4.7h-1.9c0.2-1.1,0.4-2.2,0.6-3.3L99,8.8
		c-0.2,2-0.7,4.1-1.3,5.9c-0.3-0.9-0.8-2.1-1.3-3L95,12.2V7.7h-2.9v4.9l-2-0.3c-0.2,2-0.6,4.7-1.2,6.2l2.1,0.8
		c0.6-1.7,0.9-4.3,1.1-6.4v17.2H95V13.7c0.4,1,0.8,2,0.9,2.8l1.4-0.6c-0.2,0.5-0.5,1-0.7,1.4c0.7,0.3,2,0.9,2.5,1.3
		c0.5-0.9,1-2.1,1.3-3.3h2.6v3.9h-4.6v2.7h4.6v4.8h-6.4v2.7h14.9v-2.7H105.9z"/>
	<path d="M127.3,10.6c-0.3-0.3-0.8-0.6-1.2-1c0.5-0.4,0.9-0.9,1.2-1.3l-1.9-0.6c-0.2,0.3-0.6,0.6-0.9,1c-0.5-0.3-1-0.6-1.5-0.8
		l-1.3,1.1c0.4,0.2,0.8,0.5,1.3,0.7c-0.6,0.4-1.2,0.7-1.8,0.9c0.5,0.3,1.2,0.9,1.5,1.3c0.6-0.3,1.3-0.7,1.9-1.2
		c0.5,0.4,0.9,0.7,1.2,1L127.3,10.6z M118.5,15.4h2.9v-0.3c0.4,0.3,0.8,0.8,1.1,1.1h-3.9L118.5,15.4z M116.8,18.3h15.4v2.9h2.8v-4.9
		h-1.8c0.2-2.2,0.4-5.3,0.5-7.8h-6v1.8h3.2l0,0.8h-3v1.8h2.9l0,0.8h-3v1.8h2.8l-0.1,0.8h-7.8c0.6-0.4,1.3-0.8,1.9-1.2
		c0.6,0.4,1,0.8,1.4,1.2l1.4-1.2c-0.4-0.4-0.9-0.7-1.4-1.1c0.5-0.5,0.9-0.9,1.3-1.4l-1.9-0.6c-0.3,0.3-0.6,0.7-1,1
		c-0.5-0.3-1-0.6-1.5-0.8l-1.3,1.1c0.4,0.2,0.9,0.5,1.3,0.8c-0.5,0.3-1.1,0.6-1.7,0.9v-1.2h-3l0-0.8h3v-1.8h-3l0-0.7
		c1.1-0.2,2.3-0.6,3.3-0.9l-1.2-1.7c-1.3,0.5-3.4,1.1-4.8,1.3l0.4,7.1h-1.8v4.9h2.7V18.3z M135.3,23.4h-9c1.6-0.8,3.3-1.8,4.6-2.8
		l-1.6-1.5l-0.6,0.1h-10.4v2h7.7c-0.9,0.5-1.8,1.1-2.6,1.4v0.7h-9.7v2.3h9.7v1.6c0,0.3-0.1,0.4-0.5,0.4c-0.4,0-1.8,0-2.9,0
		c0.3,0.7,0.7,1.6,0.9,2.4c1.8,0,3.1,0,4.1-0.4c1-0.4,1.3-1,1.3-2.3v-1.7h9.2V23.4z"/>
	<path d="M144.5,13.4c-2.3,1.1-4.7,2.2-6.2,2.9l1,2.2c1.8-0.9,3.9-2.1,5.8-3.2L144.5,13.4z M153.7,23.6h-10.3v-1.4h10.3V23.6z
		 M143.5,27.1v-1.4h10.3v1.4H143.5z M157.9,8.6h-9.3v2.3h1.5l-1.1,1.5c1.1,0.5,2.6,1.2,3.5,1.7c-1.6,0.8-3.1,1.4-4.2,1.9l1,2.1
		l-1.7-0.3c0.3-0.3,0.3-0.9,0.3-1.6V8.6h-9.5v2.3h1.7l-1.1,1.5c1.2,0.5,2.8,1.3,3.6,1.8l1.3-1.9c-0.8-0.4-2.2-1-3.3-1.5h4.7v5.4
		c0,0.2-0.1,0.3-0.3,0.3c-0.3,0-1.1,0-1.8,0c0.3,0.6,0.5,1.6,0.6,2.3c1.3,0,2.4,0,3.1-0.3c-0.1,0.5-0.3,1-0.5,1.5h-5.6v10.1h2.8
		v-0.9h10.3v0.9h3V20.1h-7.6c0.3-0.6,0.6-1.2,0.9-1.8l-0.6-0.1c1.8-0.9,3.8-2.1,5.8-3.2l-0.6-1.9l-1.8,0.9l1.1-1.7
		c-0.8-0.4-2.2-1-3.3-1.5h4.7v5.4c0,0.2-0.1,0.3-0.3,0.3c-0.3,0-1.1,0-1.8,0c0.3,0.6,0.5,1.6,0.6,2.3c1.4,0,2.5,0,3.3-0.4
		c0.8-0.4,1-1,1-2.2V8.6z"/>
	<path d="M177.5,21.5v1.6h-10v-1.6H177.5z M167.6,26.9v-1.7h10v1.7H167.6z M164.7,30.1h2.9v-0.8h10v0.8h3v-11h-15.8V30.1z
		 M176.1,12.1c-0.3,0.9-0.7,2.1-1.1,3h-4.9c-0.2-0.9-0.6-2-1.2-3H176.1z M178.2,15.1c0.4-0.7,0.8-1.6,1.2-2.5l-2.2-0.5h5V9.6h-7.7
		c-0.2-0.7-0.6-1.5-1-2.2l-3,0.5c0.3,0.5,0.6,1.1,0.7,1.7h-8.1v2.5h5.3l-2.3,0.5c0.4,0.7,0.7,1.7,1,2.5h-5.3v2.5h21.5v-2.5H178.2z"
		/>
	<path d="M193,19.5c-0.1-1.2-0.5-2.9-0.9-4.3l-1.8,0.4c0.1,0.5,0.2,1,0.3,1.6l-1.9,0.2c1.5-1.7,3-3.7,4.2-5.6l-2-1.1
		c-0.3,0.7-0.7,1.4-1.1,2.1l-1.2,0.1c0.8-1.2,1.7-2.7,2.3-4.1L188.6,8c-0.5,1.8-1.6,3.7-1.9,4.2c-0.3,0.5-0.6,0.9-1,0.9
		c0.3,0.6,0.6,1.6,0.7,2.1c0.3-0.1,0.7-0.3,2.1-0.5c-0.6,0.8-1.1,1.5-1.4,1.8c-0.6,0.7-1.1,1.2-1.6,1.3c0.3,0.6,0.6,1.7,0.7,2.1
		c0.4-0.2,1.1-0.4,4.6-0.8c0,0.4,0.1,0.7,0.1,1L193,19.5z M191.9,23.9c-1.5,1.4-4.2,2.6-6.9,3.1c0.6,0.6,1.4,1.7,1.9,2.4
		c2.9-0.8,5.7-2.5,7.3-4.6L191.9,23.9z M207.3,23.2v-2.4H198v-1.2h-2.9v1.2h-9.5v2.4h9.5V30h2.9v-6.8H207.3z M199.2,25.4
		c2.1,1.2,5,3,6.3,4.2l1.8-2c-1.4-1.2-4.3-2.8-6.4-3.9L199.2,25.4z M197.4,13.5h-1.8v-1.6h1.8V13.5z M197.4,17.1h-1.8v-1.7h1.8V17.1
		z M197.3,9.8l0.8-1.8l-2.6-0.4c0,0.6-0.2,1.5-0.4,2.3h-1.9v9.4h6.7V9.8H197.3z M204.8,16c0.1,0.5,0.2,1,0.4,1.5l-1.9,0.2
		c1.6-1.7,3.1-3.7,4.3-5.7l-2.1-1.2c-0.3,0.6-0.7,1.3-1,1.9l-1.6,0.1c0.8-1.2,1.7-2.8,2.3-4.2l-2.3-0.6c-0.5,1.8-1.6,3.8-1.9,4.3
		c-0.3,0.5-0.6,0.9-1,1c0.3,0.6,0.6,1.6,0.7,2.1c0.3-0.2,0.8-0.3,2.4-0.5c-0.6,0.9-1.2,1.6-1.4,1.8c-0.6,0.7-1.1,1.1-1.6,1.2
		c0.3,0.6,0.6,1.7,0.7,2.2c0.4-0.2,1.1-0.4,4.7-0.7c0,0.3,0.1,0.6,0.1,0.9l1.9-0.5c-0.2-1.1-0.6-2.9-1-4.2L204.8,16z"/>
	<path d="M230.3,7.9h-2.6v9.5c0,0.3-0.1,0.4-0.5,0.4c-0.3,0-1.5,0-2.6,0c0.3,0.6,0.7,1.6,0.8,2.3c1.6,0,2.8,0,3.7-0.4
		c0.9-0.4,1.1-1,1.1-2.2V7.9z M225.6,8.8H223v7.9h2.5V8.8z M228,22.8c-0.9,0.6-2.1,1.4-3.2,1.9c-0.6-0.6-1.2-1.2-1.7-1.9H228z
		 M211.7,12c0.2-0.3,0.4-0.6,0.6-1h2.3v1H211.7z M228.9,22.8h2.4v-2.3h-8.8c-0.2-0.6-0.6-1.4-0.9-2l-0.6,0.1
		c0.2-0.3,0.3-0.7,0.3-1.3v-2.7h-4.2v-0.8h4.6V12h-4.6v-1h4V9.2h-4V7.7h-2.4v1.5h-1.4c0.1-0.3,0.3-0.6,0.4-1l-2.1-0.5
		c-0.4,1.2-1.1,2.5-1.9,3.4c0.4,0.2,1,0.6,1.5,0.8h-1.5v1.9h5v0.8h-4v4.7h2.2v-3h1.8V20h2.4v-3.5h2v1c0,0.2-0.1,0.3-0.3,0.3
		c-0.2,0-0.7,0-1.3,0c0.2,0.5,0.6,1.1,0.7,1.6c0.3,0,0.5,0,0.8,0h0c0.2,0.4,0.4,0.8,0.6,1.2h-9.7v2.3h7c-2.1,1-4.8,1.7-7.4,2
		c0.5,0.5,1.2,1.5,1.5,2.1c1.2-0.2,2.5-0.5,3.6-0.9v0.1c0,1.2-0.6,1.8-1.1,2.2c0.3,0.3,0.7,1.2,0.8,1.8l0,0.2c0.5-0.3,1.3-0.6,7-1.8
		c0-0.5,0.1-1.5,0.2-2.1l-4.5,0.9V25c1.3-0.6,2.5-1.2,3.5-2c1.8,3.7,4.8,5.9,9.6,6.8c0.3-0.7,1-1.7,1.5-2.3
		c-1.9-0.3-3.5-0.7-4.9-1.4c1.2-0.6,2.5-1.3,3.7-2.1L228.9,22.8z"/>
	<path d="M238.5,7.8c-1.2,3.4-3.3,6.8-5.5,9c0.5,0.7,1.3,2.4,1.6,3c0.5-0.5,1-1.1,1.5-1.7v12h2.9V13.6c0.9-1.6,1.7-3.3,2.3-5
		L238.5,7.8z M255.8,14.3v-2.7h-9.3c0.5-1,0.8-2,1.2-3l-2.8-0.7c-1.1,3.4-3,6.9-5.1,9c0.6,0.5,1.7,1.5,2.2,2
		c1.1-1.2,2.2-2.9,3.1-4.7h0.9v15.8h2.9v-5.3h6.5v-2.6h-6.5v-2.7h6.2v-2.6h-6.2v-2.5H255.8z"/>
</mask>
<path class="st9" d="M144.5,13.4c-2.3,1.1-4.7,2.2-6.2,2.9l1,2.2c1.8-0.9,3.9-2.1,5.8-3.2L144.5,13.4z M153.7,23.6h-10.3v-1.4h10.3
	V23.6z M143.5,27.1v-1.4h10.3v1.4H143.5z M157.9,8.6h-9.3v2.3h1.5l-1.1,1.5c1.1,0.5,2.6,1.2,3.5,1.7c-1.6,0.8-3.1,1.4-4.2,1.9l1,2.1
	l-1.7-0.3c0.3-0.3,0.3-0.9,0.3-1.6V8.6h-9.5v2.3h1.7l-1.1,1.5c1.2,0.5,2.8,1.3,3.6,1.8l1.3-1.9c-0.8-0.4-2.2-1-3.3-1.5h4.7v5.4
	c0,0.2-0.1,0.3-0.3,0.3c-0.3,0-1.1,0-1.8,0c0.3,0.6,0.5,1.6,0.6,2.3c1.3,0,2.4,0,3.1-0.3c-0.1,0.5-0.3,1-0.5,1.5h-5.6v10.1h2.8v-0.9
	h10.3v0.9h3V20.1h-7.6c0.3-0.6,0.6-1.2,0.9-1.8l-0.6-0.1c1.8-0.9,3.8-2.1,5.8-3.2l-0.6-1.9l-1.8,0.9l1.1-1.7c-0.8-0.4-2.2-1-3.3-1.5
	h4.7v5.4c0,0.2-0.1,0.3-0.3,0.3c-0.3,0-1.1,0-1.8,0c0.3,0.6,0.5,1.6,0.6,2.3c1.4,0,2.5,0,3.3-0.4c0.8-0.4,1-1,1-2.2V8.6z"/>
<defs>
	
		<filter id="Adobe_OpacityMaskFilter_00000182506118695053765130000003353597804718086568_" filterUnits="userSpaceOnUse" x="160.7" y="6.4" width="23.5" height="24.7">
		<feColorMatrix  type="matrix" values="1 0 0 0 0  0 1 0 0 0  0 0 1 0 0  0 0 0 1 0"/>
	</filter>
</defs>
<mask maskUnits="userSpaceOnUse" x="160.7" y="6.4" width="23.5" height="24.7" id="path-1-outside-1_317_617_00000080909543158665152420000009057110848268150671_">
	
		<rect x="41.1" y="6.4" style="fill:#FFFFFF;filter:url(#Adobe_OpacityMaskFilter_00000182506118695053765130000003353597804718086568_);" width="216" height="25"/>
	<path d="M47.8,8.5l-0.4,0.1h-5.3V30h2.5V11.2h1.8c-0.4,1.6-1,3.5-1.5,5c1.5,1.7,1.9,3.2,1.9,4.4c0,0.7-0.1,1.2-0.4,1.4
		c-0.2,0.1-0.4,0.2-0.7,0.2c-0.3,0-0.6,0-1,0c0.4,0.7,0.6,1.8,0.6,2.4c0.5,0,1.1,0,1.5,0c0.6-0.1,1-0.2,1.4-0.5
		c0.8-0.6,1.1-1.6,1.1-3.1c0-1.4-0.3-3.1-1.9-5c0.7-1.8,1.6-4.2,2.3-6.2L47.8,8.5z M52.7,15.6v-2.7h3v-2.4h-3V7.8h-2.8v7.4
		c0,0.9-0.4,1.1-0.8,1.2c0.4,0.6,0.7,1.9,0.8,2.6c0.5-0.4,1.4-0.7,6-1.8c-0.1-0.6-0.3-1.5-0.4-2.2L52.7,15.6z M59.3,23.5h-6.1v-1.5
		h6.1V23.5z M53.2,27.1v-1.5h6.1v1.5H53.2z M54.5,17.9c-0.1,0.6-0.4,1.3-0.6,1.9h-3.5v10.3h2.9v-0.8h6.1V30h3V19.9h-5.5
		c0.3-0.4,0.6-0.9,0.9-1.3L54.5,17.9z M59.6,16.1c-0.4,0-0.5-0.1-0.5-0.9v-2.3h3.9v-2.4h-3.9V7.7h-2.8v7.5c0,2.4,0.5,3.2,2.8,3.2
		h1.9c1.7,0,2.4-0.8,2.7-3.7c-0.8-0.2-1.8-0.6-2.4-1c-0.1,1.9-0.2,2.3-0.6,2.3H59.6z"/>
	<path d="M74.9,22.4c-1.7,0.2-3.5,0.5-5.1,0.7v-2.5h4.8v-2.5h-4.8v-2.4h4.8v-2.5h-4.8v-1.6c2-0.6,4.1-1.3,5.9-2.1l-2.3-2.2
		c-1.6,0.9-4.1,1.9-6.3,2.6l0,0L67,10v13.5c-0.7,0.1-1.3,0.2-1.9,0.2l0.4,2.7l1.5-0.2v3.5h2.7v-3.9c1.7-0.3,3.5-0.6,5.3-0.9
		L74.9,22.4z M83.1,20.8c-0.5,1.2-1.2,2.4-2.2,3.3c-0.9-1-1.7-2.1-2.2-3.3H83.1z M84.7,18.3l-0.5,0.1h-7.6c2.5-1.8,3-4.6,3-6.8V11
		H82v3.2c0,2.2,0.5,3.2,2.7,3.2h1.4c0.5,0,1,0,1.4-0.2c-0.1-0.6-0.2-1.5-0.2-2.2c-0.3,0.1-0.9,0.1-1.2,0.1H85
		c-0.3,0-0.4-0.2-0.4-0.9V8.6H82v0h-2.4v0H77v3c0,1.7-0.3,3.7-2.6,5.2c0.5,0.3,1.4,1.2,1.9,1.7h-0.8v2.4h2.3l-1.5,0.4
		c0.7,1.7,1.6,3.2,2.6,4.6c-1.4,0.9-3.1,1.6-5,2c0.6,0.6,1.2,1.7,1.4,2.4c2.1-0.6,4-1.4,5.6-2.5c1.4,1.1,3.1,1.9,5.1,2.4
		c0.4-0.7,1.2-1.9,1.8-2.4c-1.8-0.4-3.4-1-4.8-1.8c1.6-1.7,2.7-4,3.4-6.9L84.7,18.3z"/>
	<path d="M105.9,26.6v-4.8h4.4v-2.7h-4.4v-3.9h4.9v-2.7h-4.9V7.8h-2.9v4.7h-1.9c0.2-1.1,0.4-2.2,0.6-3.3L99,8.8
		c-0.2,2-0.7,4.1-1.3,5.9c-0.3-0.9-0.8-2.1-1.3-3L95,12.2V7.7h-2.9v4.9l-2-0.3c-0.2,2-0.6,4.7-1.2,6.2l2.1,0.8
		c0.6-1.7,0.9-4.3,1.1-6.4v17.2H95V13.7c0.4,1,0.8,2,0.9,2.8l1.4-0.6c-0.2,0.5-0.5,1-0.7,1.4c0.7,0.3,2,0.9,2.5,1.3
		c0.5-0.9,1-2.1,1.3-3.3h2.6v3.9h-4.6v2.7h4.6v4.8h-6.4v2.7h14.9v-2.7H105.9z"/>
	<path d="M127.3,10.6c-0.3-0.3-0.8-0.6-1.2-1c0.5-0.4,0.9-0.9,1.2-1.3l-1.9-0.6c-0.2,0.3-0.6,0.6-0.9,1c-0.5-0.3-1-0.6-1.5-0.8
		l-1.3,1.1c0.4,0.2,0.8,0.5,1.3,0.7c-0.6,0.4-1.2,0.7-1.8,0.9c0.5,0.3,1.2,0.9,1.5,1.3c0.6-0.3,1.3-0.7,1.9-1.2
		c0.5,0.4,0.9,0.7,1.2,1L127.3,10.6z M118.5,15.4h2.9v-0.3c0.4,0.3,0.8,0.8,1.1,1.1h-3.9L118.5,15.4z M116.8,18.3h15.4v2.9h2.8v-4.9
		h-1.8c0.2-2.2,0.4-5.3,0.5-7.8h-6v1.8h3.2l0,0.8h-3v1.8h2.9l0,0.8h-3v1.8h2.8l-0.1,0.8h-7.8c0.6-0.4,1.3-0.8,1.9-1.2
		c0.6,0.4,1,0.8,1.4,1.2l1.4-1.2c-0.4-0.4-0.9-0.7-1.4-1.1c0.5-0.5,0.9-0.9,1.3-1.4l-1.9-0.6c-0.3,0.3-0.6,0.7-1,1
		c-0.5-0.3-1-0.6-1.5-0.8l-1.3,1.1c0.4,0.2,0.9,0.5,1.3,0.8c-0.5,0.3-1.1,0.6-1.7,0.9v-1.2h-3l0-0.8h3v-1.8h-3l0-0.7
		c1.1-0.2,2.3-0.6,3.3-0.9l-1.2-1.7c-1.3,0.5-3.4,1.1-4.8,1.3l0.4,7.1h-1.8v4.9h2.7V18.3z M135.3,23.4h-9c1.6-0.8,3.3-1.8,4.6-2.8
		l-1.6-1.5l-0.6,0.1h-10.4v2h7.7c-0.9,0.5-1.8,1.1-2.6,1.4v0.7h-9.7v2.3h9.7v1.6c0,0.3-0.1,0.4-0.5,0.4c-0.4,0-1.8,0-2.9,0
		c0.3,0.7,0.7,1.6,0.9,2.4c1.8,0,3.1,0,4.1-0.4c1-0.4,1.3-1,1.3-2.3v-1.7h9.2V23.4z"/>
	<path d="M144.5,13.4c-2.3,1.1-4.7,2.2-6.2,2.9l1,2.2c1.8-0.9,3.9-2.1,5.8-3.2L144.5,13.4z M153.7,23.6h-10.3v-1.4h10.3V23.6z
		 M143.5,27.1v-1.4h10.3v1.4H143.5z M157.9,8.6h-9.3v2.3h1.5l-1.1,1.5c1.1,0.5,2.6,1.2,3.5,1.7c-1.6,0.8-3.1,1.4-4.2,1.9l1,2.1
		l-1.7-0.3c0.3-0.3,0.3-0.9,0.3-1.6V8.6h-9.5v2.3h1.7l-1.1,1.5c1.2,0.5,2.8,1.3,3.6,1.8l1.3-1.9c-0.8-0.4-2.2-1-3.3-1.5h4.7v5.4
		c0,0.2-0.1,0.3-0.3,0.3c-0.3,0-1.1,0-1.8,0c0.3,0.6,0.5,1.6,0.6,2.3c1.3,0,2.4,0,3.1-0.3c-0.1,0.5-0.3,1-0.5,1.5h-5.6v10.1h2.8
		v-0.9h10.3v0.9h3V20.1h-7.6c0.3-0.6,0.6-1.2,0.9-1.8l-0.6-0.1c1.8-0.9,3.8-2.1,5.8-3.2l-0.6-1.9l-1.8,0.9l1.1-1.7
		c-0.8-0.4-2.2-1-3.3-1.5h4.7v5.4c0,0.2-0.1,0.3-0.3,0.3c-0.3,0-1.1,0-1.8,0c0.3,0.6,0.5,1.6,0.6,2.3c1.4,0,2.5,0,3.3-0.4
		c0.8-0.4,1-1,1-2.2V8.6z"/>
	<path d="M177.5,21.5v1.6h-10v-1.6H177.5z M167.6,26.9v-1.7h10v1.7H167.6z M164.7,30.1h2.9v-0.8h10v0.8h3v-11h-15.8V30.1z
		 M176.1,12.1c-0.3,0.9-0.7,2.1-1.1,3h-4.9c-0.2-0.9-0.6-2-1.2-3H176.1z M178.2,15.1c0.4-0.7,0.8-1.6,1.2-2.5l-2.2-0.5h5V9.6h-7.7
		c-0.2-0.7-0.6-1.5-1-2.2l-3,0.5c0.3,0.5,0.6,1.1,0.7,1.7h-8.1v2.5h5.3l-2.3,0.5c0.4,0.7,0.7,1.7,1,2.5h-5.3v2.5h21.5v-2.5H178.2z"
		/>
	<path d="M193,19.5c-0.1-1.2-0.5-2.9-0.9-4.3l-1.8,0.4c0.1,0.5,0.2,1,0.3,1.6l-1.9,0.2c1.5-1.7,3-3.7,4.2-5.6l-2-1.1
		c-0.3,0.7-0.7,1.4-1.1,2.1l-1.2,0.1c0.8-1.2,1.7-2.7,2.3-4.1L188.6,8c-0.5,1.8-1.6,3.7-1.9,4.2c-0.3,0.5-0.6,0.9-1,0.9
		c0.3,0.6,0.6,1.6,0.7,2.1c0.3-0.1,0.7-0.3,2.1-0.5c-0.6,0.8-1.1,1.5-1.4,1.8c-0.6,0.7-1.1,1.2-1.6,1.3c0.3,0.6,0.6,1.7,0.7,2.1
		c0.4-0.2,1.1-0.4,4.6-0.8c0,0.4,0.1,0.7,0.1,1L193,19.5z M191.9,23.9c-1.5,1.4-4.2,2.6-6.9,3.1c0.6,0.6,1.4,1.7,1.9,2.4
		c2.9-0.8,5.7-2.5,7.3-4.6L191.9,23.9z M207.3,23.2v-2.4H198v-1.2h-2.9v1.2h-9.5v2.4h9.5V30h2.9v-6.8H207.3z M199.2,25.4
		c2.1,1.2,5,3,6.3,4.2l1.8-2c-1.4-1.2-4.3-2.8-6.4-3.9L199.2,25.4z M197.4,13.5h-1.8v-1.6h1.8V13.5z M197.4,17.1h-1.8v-1.7h1.8V17.1
		z M197.3,9.8l0.8-1.8l-2.6-0.4c0,0.6-0.2,1.5-0.4,2.3h-1.9v9.4h6.7V9.8H197.3z M204.8,16c0.1,0.5,0.2,1,0.4,1.5l-1.9,0.2
		c1.6-1.7,3.1-3.7,4.3-5.7l-2.1-1.2c-0.3,0.6-0.7,1.3-1,1.9l-1.6,0.1c0.8-1.2,1.7-2.8,2.3-4.2l-2.3-0.6c-0.5,1.8-1.6,3.8-1.9,4.3
		c-0.3,0.5-0.6,0.9-1,1c0.3,0.6,0.6,1.6,0.7,2.1c0.3-0.2,0.8-0.3,2.4-0.5c-0.6,0.9-1.2,1.6-1.4,1.8c-0.6,0.7-1.1,1.1-1.6,1.2
		c0.3,0.6,0.6,1.7,0.7,2.2c0.4-0.2,1.1-0.4,4.7-0.7c0,0.3,0.1,0.6,0.1,0.9l1.9-0.5c-0.2-1.1-0.6-2.9-1-4.2L204.8,16z"/>
	<path d="M230.3,7.9h-2.6v9.5c0,0.3-0.1,0.4-0.5,0.4c-0.3,0-1.5,0-2.6,0c0.3,0.6,0.7,1.6,0.8,2.3c1.6,0,2.8,0,3.7-0.4
		c0.9-0.4,1.1-1,1.1-2.2V7.9z M225.6,8.8H223v7.9h2.5V8.8z M228,22.8c-0.9,0.6-2.1,1.4-3.2,1.9c-0.6-0.6-1.2-1.2-1.7-1.9H228z
		 M211.7,12c0.2-0.3,0.4-0.6,0.6-1h2.3v1H211.7z M228.9,22.8h2.4v-2.3h-8.8c-0.2-0.6-0.6-1.4-0.9-2l-0.6,0.1
		c0.2-0.3,0.3-0.7,0.3-1.3v-2.7h-4.2v-0.8h4.6V12h-4.6v-1h4V9.2h-4V7.7h-2.4v1.5h-1.4c0.1-0.3,0.3-0.6,0.4-1l-2.1-0.5
		c-0.4,1.2-1.1,2.5-1.9,3.4c0.4,0.2,1,0.6,1.5,0.8h-1.5v1.9h5v0.8h-4v4.7h2.2v-3h1.8V20h2.4v-3.5h2v1c0,0.2-0.1,0.3-0.3,0.3
		c-0.2,0-0.7,0-1.3,0c0.2,0.5,0.6,1.1,0.7,1.6c0.3,0,0.5,0,0.8,0h0c0.2,0.4,0.4,0.8,0.6,1.2h-9.7v2.3h7c-2.1,1-4.8,1.7-7.4,2
		c0.5,0.5,1.2,1.5,1.5,2.1c1.2-0.2,2.5-0.5,3.6-0.9v0.1c0,1.2-0.6,1.8-1.1,2.2c0.3,0.3,0.7,1.2,0.8,1.8l0,0.2c0.5-0.3,1.3-0.6,7-1.8
		c0-0.5,0.1-1.5,0.2-2.1l-4.5,0.9V25c1.3-0.6,2.5-1.2,3.5-2c1.8,3.7,4.8,5.9,9.6,6.8c0.3-0.7,1-1.7,1.5-2.3
		c-1.9-0.3-3.5-0.7-4.9-1.4c1.2-0.6,2.5-1.3,3.7-2.1L228.9,22.8z"/>
	<path d="M238.5,7.8c-1.2,3.4-3.3,6.8-5.5,9c0.5,0.7,1.3,2.4,1.6,3c0.5-0.5,1-1.1,1.5-1.7v12h2.9V13.6c0.9-1.6,1.7-3.3,2.3-5
		L238.5,7.8z M255.8,14.3v-2.7h-9.3c0.5-1,0.8-2,1.2-3l-2.8-0.7c-1.1,3.4-3,6.9-5.1,9c0.6,0.5,1.7,1.5,2.2,2
		c1.1-1.2,2.2-2.9,3.1-4.7h0.9v15.8h2.9v-5.3h6.5v-2.6h-6.5v-2.7h6.2v-2.6h-6.2v-2.5H255.8z"/>
</mask>
<path class="st11" d="M177.5,21.5v1.6h-10v-1.6H177.5z M167.6,26.9v-1.7h10v1.7H167.6z M164.7,30.1h2.9v-0.8h10v0.8h3v-11h-15.8
	V30.1z M176.1,12.1c-0.3,0.9-0.7,2.1-1.1,3h-4.9c-0.2-0.9-0.6-2-1.2-3H176.1z M178.2,15.1c0.4-0.7,0.8-1.6,1.2-2.5l-2.2-0.5h5V9.6
	h-7.7c-0.2-0.7-0.6-1.5-1-2.2l-3,0.5c0.3,0.5,0.6,1.1,0.7,1.7h-8.1v2.5h5.3l-2.3,0.5c0.4,0.7,0.7,1.7,1,2.5h-5.3v2.5h21.5v-2.5
	H178.2z"/>
<defs>
	
		<filter id="Adobe_OpacityMaskFilter_00000137106885594386173120000015983233261097647494_" filterUnits="userSpaceOnUse" x="184" y="6.5" width="24.5" height="24.5">
		<feColorMatrix  type="matrix" values="1 0 0 0 0  0 1 0 0 0  0 0 1 0 0  0 0 0 1 0"/>
	</filter>
</defs>
<mask maskUnits="userSpaceOnUse" x="184" y="6.5" width="24.5" height="24.5" id="path-1-outside-1_317_617_00000146468525829009464890000012685974218769636765_">
	
		<rect x="41.1" y="6.4" style="fill:#FFFFFF;filter:url(#Adobe_OpacityMaskFilter_00000137106885594386173120000015983233261097647494_);" width="216" height="25"/>
	<path d="M47.8,8.5l-0.4,0.1h-5.3V30h2.5V11.2h1.8c-0.4,1.6-1,3.5-1.5,5c1.5,1.7,1.9,3.2,1.9,4.4c0,0.7-0.1,1.2-0.4,1.4
		c-0.2,0.1-0.4,0.2-0.7,0.2c-0.3,0-0.6,0-1,0c0.4,0.7,0.6,1.8,0.6,2.4c0.5,0,1.1,0,1.5,0c0.6-0.1,1-0.2,1.4-0.5
		c0.8-0.6,1.1-1.6,1.1-3.1c0-1.4-0.3-3.1-1.9-5c0.7-1.8,1.6-4.2,2.3-6.2L47.8,8.5z M52.7,15.6v-2.7h3v-2.4h-3V7.8h-2.8v7.4
		c0,0.9-0.4,1.1-0.8,1.2c0.4,0.6,0.7,1.9,0.8,2.6c0.5-0.4,1.4-0.7,6-1.8c-0.1-0.6-0.3-1.5-0.4-2.2L52.7,15.6z M59.3,23.5h-6.1v-1.5
		h6.1V23.5z M53.2,27.1v-1.5h6.1v1.5H53.2z M54.5,17.9c-0.1,0.6-0.4,1.3-0.6,1.9h-3.5v10.3h2.9v-0.8h6.1V30h3V19.9h-5.5
		c0.3-0.4,0.6-0.9,0.9-1.3L54.5,17.9z M59.6,16.1c-0.4,0-0.5-0.1-0.5-0.9v-2.3h3.9v-2.4h-3.9V7.7h-2.8v7.5c0,2.4,0.5,3.2,2.8,3.2
		h1.9c1.7,0,2.4-0.8,2.7-3.7c-0.8-0.2-1.8-0.6-2.4-1c-0.1,1.9-0.2,2.3-0.6,2.3H59.6z"/>
	<path d="M74.9,22.4c-1.7,0.2-3.5,0.5-5.1,0.7v-2.5h4.8v-2.5h-4.8v-2.4h4.8v-2.5h-4.8v-1.6c2-0.6,4.1-1.3,5.9-2.1l-2.3-2.2
		c-1.6,0.9-4.1,1.9-6.3,2.6l0,0L67,10v13.5c-0.7,0.1-1.3,0.2-1.9,0.2l0.4,2.7l1.5-0.2v3.5h2.7v-3.9c1.7-0.3,3.5-0.6,5.3-0.9
		L74.9,22.4z M83.1,20.8c-0.5,1.2-1.2,2.4-2.2,3.3c-0.9-1-1.7-2.1-2.2-3.3H83.1z M84.7,18.3l-0.5,0.1h-7.6c2.5-1.8,3-4.6,3-6.8V11
		H82v3.2c0,2.2,0.5,3.2,2.7,3.2h1.4c0.5,0,1,0,1.4-0.2c-0.1-0.6-0.2-1.5-0.2-2.2c-0.3,0.1-0.9,0.1-1.2,0.1H85
		c-0.3,0-0.4-0.2-0.4-0.9V8.6H82v0h-2.4v0H77v3c0,1.7-0.3,3.7-2.6,5.2c0.5,0.3,1.4,1.2,1.9,1.7h-0.8v2.4h2.3l-1.5,0.4
		c0.7,1.7,1.6,3.2,2.6,4.6c-1.4,0.9-3.1,1.6-5,2c0.6,0.6,1.2,1.7,1.4,2.4c2.1-0.6,4-1.4,5.6-2.5c1.4,1.1,3.1,1.9,5.1,2.4
		c0.4-0.7,1.2-1.9,1.8-2.4c-1.8-0.4-3.4-1-4.8-1.8c1.6-1.7,2.7-4,3.4-6.9L84.7,18.3z"/>
	<path d="M105.9,26.6v-4.8h4.4v-2.7h-4.4v-3.9h4.9v-2.7h-4.9V7.8h-2.9v4.7h-1.9c0.2-1.1,0.4-2.2,0.6-3.3L99,8.8
		c-0.2,2-0.7,4.1-1.3,5.9c-0.3-0.9-0.8-2.1-1.3-3L95,12.2V7.7h-2.9v4.9l-2-0.3c-0.2,2-0.6,4.7-1.2,6.2l2.1,0.8
		c0.6-1.7,0.9-4.3,1.1-6.4v17.2H95V13.7c0.4,1,0.8,2,0.9,2.8l1.4-0.6c-0.2,0.5-0.5,1-0.7,1.4c0.7,0.3,2,0.9,2.5,1.3
		c0.5-0.9,1-2.1,1.3-3.3h2.6v3.9h-4.6v2.7h4.6v4.8h-6.4v2.7h14.9v-2.7H105.9z"/>
	<path d="M127.3,10.6c-0.3-0.3-0.8-0.6-1.2-1c0.5-0.4,0.9-0.9,1.2-1.3l-1.9-0.6c-0.2,0.3-0.6,0.6-0.9,1c-0.5-0.3-1-0.6-1.5-0.8
		l-1.3,1.1c0.4,0.2,0.8,0.5,1.3,0.7c-0.6,0.4-1.2,0.7-1.8,0.9c0.5,0.3,1.2,0.9,1.5,1.3c0.6-0.3,1.3-0.7,1.9-1.2
		c0.5,0.4,0.9,0.7,1.2,1L127.3,10.6z M118.5,15.4h2.9v-0.3c0.4,0.3,0.8,0.8,1.1,1.1h-3.9L118.5,15.4z M116.8,18.3h15.4v2.9h2.8v-4.9
		h-1.8c0.2-2.2,0.4-5.3,0.5-7.8h-6v1.8h3.2l0,0.8h-3v1.8h2.9l0,0.8h-3v1.8h2.8l-0.1,0.8h-7.8c0.6-0.4,1.3-0.8,1.9-1.2
		c0.6,0.4,1,0.8,1.4,1.2l1.4-1.2c-0.4-0.4-0.9-0.7-1.4-1.1c0.5-0.5,0.9-0.9,1.3-1.4l-1.9-0.6c-0.3,0.3-0.6,0.7-1,1
		c-0.5-0.3-1-0.6-1.5-0.8l-1.3,1.1c0.4,0.2,0.9,0.5,1.3,0.8c-0.5,0.3-1.1,0.6-1.7,0.9v-1.2h-3l0-0.8h3v-1.8h-3l0-0.7
		c1.1-0.2,2.3-0.6,3.3-0.9l-1.2-1.7c-1.3,0.5-3.4,1.1-4.8,1.3l0.4,7.1h-1.8v4.9h2.7V18.3z M135.3,23.4h-9c1.6-0.8,3.3-1.8,4.6-2.8
		l-1.6-1.5l-0.6,0.1h-10.4v2h7.7c-0.9,0.5-1.8,1.1-2.6,1.4v0.7h-9.7v2.3h9.7v1.6c0,0.3-0.1,0.4-0.5,0.4c-0.4,0-1.8,0-2.9,0
		c0.3,0.7,0.7,1.6,0.9,2.4c1.8,0,3.1,0,4.1-0.4c1-0.4,1.3-1,1.3-2.3v-1.7h9.2V23.4z"/>
	<path d="M144.5,13.4c-2.3,1.1-4.7,2.2-6.2,2.9l1,2.2c1.8-0.9,3.9-2.1,5.8-3.2L144.5,13.4z M153.7,23.6h-10.3v-1.4h10.3V23.6z
		 M143.5,27.1v-1.4h10.3v1.4H143.5z M157.9,8.6h-9.3v2.3h1.5l-1.1,1.5c1.1,0.5,2.6,1.2,3.5,1.7c-1.6,0.8-3.1,1.4-4.2,1.9l1,2.1
		l-1.7-0.3c0.3-0.3,0.3-0.9,0.3-1.6V8.6h-9.5v2.3h1.7l-1.1,1.5c1.2,0.5,2.8,1.3,3.6,1.8l1.3-1.9c-0.8-0.4-2.2-1-3.3-1.5h4.7v5.4
		c0,0.2-0.1,0.3-0.3,0.3c-0.3,0-1.1,0-1.8,0c0.3,0.6,0.5,1.6,0.6,2.3c1.3,0,2.4,0,3.1-0.3c-0.1,0.5-0.3,1-0.5,1.5h-5.6v10.1h2.8
		v-0.9h10.3v0.9h3V20.1h-7.6c0.3-0.6,0.6-1.2,0.9-1.8l-0.6-0.1c1.8-0.9,3.8-2.1,5.8-3.2l-0.6-1.9l-1.8,0.9l1.1-1.7
		c-0.8-0.4-2.2-1-3.3-1.5h4.7v5.4c0,0.2-0.1,0.3-0.3,0.3c-0.3,0-1.1,0-1.8,0c0.3,0.6,0.5,1.6,0.6,2.3c1.4,0,2.5,0,3.3-0.4
		c0.8-0.4,1-1,1-2.2V8.6z"/>
	<path d="M177.5,21.5v1.6h-10v-1.6H177.5z M167.6,26.9v-1.7h10v1.7H167.6z M164.7,30.1h2.9v-0.8h10v0.8h3v-11h-15.8V30.1z
		 M176.1,12.1c-0.3,0.9-0.7,2.1-1.1,3h-4.9c-0.2-0.9-0.6-2-1.2-3H176.1z M178.2,15.1c0.4-0.7,0.8-1.6,1.2-2.5l-2.2-0.5h5V9.6h-7.7
		c-0.2-0.7-0.6-1.5-1-2.2l-3,0.5c0.3,0.5,0.6,1.1,0.7,1.7h-8.1v2.5h5.3l-2.3,0.5c0.4,0.7,0.7,1.7,1,2.5h-5.3v2.5h21.5v-2.5H178.2z"
		/>
	<path d="M193,19.5c-0.1-1.2-0.5-2.9-0.9-4.3l-1.8,0.4c0.1,0.5,0.2,1,0.3,1.6l-1.9,0.2c1.5-1.7,3-3.7,4.2-5.6l-2-1.1
		c-0.3,0.7-0.7,1.4-1.1,2.1l-1.2,0.1c0.8-1.2,1.7-2.7,2.3-4.1L188.6,8c-0.5,1.8-1.6,3.7-1.9,4.2c-0.3,0.5-0.6,0.9-1,0.9
		c0.3,0.6,0.6,1.6,0.7,2.1c0.3-0.1,0.7-0.3,2.1-0.5c-0.6,0.8-1.1,1.5-1.4,1.8c-0.6,0.7-1.1,1.2-1.6,1.3c0.3,0.6,0.6,1.7,0.7,2.1
		c0.4-0.2,1.1-0.4,4.6-0.8c0,0.4,0.1,0.7,0.1,1L193,19.5z M191.9,23.9c-1.5,1.4-4.2,2.6-6.9,3.1c0.6,0.6,1.4,1.7,1.9,2.4
		c2.9-0.8,5.7-2.5,7.3-4.6L191.9,23.9z M207.3,23.2v-2.4H198v-1.2h-2.9v1.2h-9.5v2.4h9.5V30h2.9v-6.8H207.3z M199.2,25.4
		c2.1,1.2,5,3,6.3,4.2l1.8-2c-1.4-1.2-4.3-2.8-6.4-3.9L199.2,25.4z M197.4,13.5h-1.8v-1.6h1.8V13.5z M197.4,17.1h-1.8v-1.7h1.8V17.1
		z M197.3,9.8l0.8-1.8l-2.6-0.4c0,0.6-0.2,1.5-0.4,2.3h-1.9v9.4h6.7V9.8H197.3z M204.8,16c0.1,0.5,0.2,1,0.4,1.5l-1.9,0.2
		c1.6-1.7,3.1-3.7,4.3-5.7l-2.1-1.2c-0.3,0.6-0.7,1.3-1,1.9l-1.6,0.1c0.8-1.2,1.7-2.8,2.3-4.2l-2.3-0.6c-0.5,1.8-1.6,3.8-1.9,4.3
		c-0.3,0.5-0.6,0.9-1,1c0.3,0.6,0.6,1.6,0.7,2.1c0.3-0.2,0.8-0.3,2.4-0.5c-0.6,0.9-1.2,1.6-1.4,1.8c-0.6,0.7-1.1,1.1-1.6,1.2
		c0.3,0.6,0.6,1.7,0.7,2.2c0.4-0.2,1.1-0.4,4.7-0.7c0,0.3,0.1,0.6,0.1,0.9l1.9-0.5c-0.2-1.1-0.6-2.9-1-4.2L204.8,16z"/>
	<path d="M230.3,7.9h-2.6v9.5c0,0.3-0.1,0.4-0.5,0.4c-0.3,0-1.5,0-2.6,0c0.3,0.6,0.7,1.6,0.8,2.3c1.6,0,2.8,0,3.7-0.4
		c0.9-0.4,1.1-1,1.1-2.2V7.9z M225.6,8.8H223v7.9h2.5V8.8z M228,22.8c-0.9,0.6-2.1,1.4-3.2,1.9c-0.6-0.6-1.2-1.2-1.7-1.9H228z
		 M211.7,12c0.2-0.3,0.4-0.6,0.6-1h2.3v1H211.7z M228.9,22.8h2.4v-2.3h-8.8c-0.2-0.6-0.6-1.4-0.9-2l-0.6,0.1
		c0.2-0.3,0.3-0.7,0.3-1.3v-2.7h-4.2v-0.8h4.6V12h-4.6v-1h4V9.2h-4V7.7h-2.4v1.5h-1.4c0.1-0.3,0.3-0.6,0.4-1l-2.1-0.5
		c-0.4,1.2-1.1,2.5-1.9,3.4c0.4,0.2,1,0.6,1.5,0.8h-1.5v1.9h5v0.8h-4v4.7h2.2v-3h1.8V20h2.4v-3.5h2v1c0,0.2-0.1,0.3-0.3,0.3
		c-0.2,0-0.7,0-1.3,0c0.2,0.5,0.6,1.1,0.7,1.6c0.3,0,0.5,0,0.8,0h0c0.2,0.4,0.4,0.8,0.6,1.2h-9.7v2.3h7c-2.1,1-4.8,1.7-7.4,2
		c0.5,0.5,1.2,1.5,1.5,2.1c1.2-0.2,2.5-0.5,3.6-0.9v0.1c0,1.2-0.6,1.8-1.1,2.2c0.3,0.3,0.7,1.2,0.8,1.8l0,0.2c0.5-0.3,1.3-0.6,7-1.8
		c0-0.5,0.1-1.5,0.2-2.1l-4.5,0.9V25c1.3-0.6,2.5-1.2,3.5-2c1.8,3.7,4.8,5.9,9.6,6.8c0.3-0.7,1-1.7,1.5-2.3
		c-1.9-0.3-3.5-0.7-4.9-1.4c1.2-0.6,2.5-1.3,3.7-2.1L228.9,22.8z"/>
	<path d="M238.5,7.8c-1.2,3.4-3.3,6.8-5.5,9c0.5,0.7,1.3,2.4,1.6,3c0.5-0.5,1-1.1,1.5-1.7v12h2.9V13.6c0.9-1.6,1.7-3.3,2.3-5
		L238.5,7.8z M255.8,14.3v-2.7h-9.3c0.5-1,0.8-2,1.2-3l-2.8-0.7c-1.1,3.4-3,6.9-5.1,9c0.6,0.5,1.7,1.5,2.2,2
		c1.1-1.2,2.2-2.9,3.1-4.7h0.9v15.8h2.9v-5.3h6.5v-2.6h-6.5v-2.7h6.2v-2.6h-6.2v-2.5H255.8z"/>
</mask>
<path class="st13" d="M193,19.5c-0.1-1.2-0.5-2.9-0.9-4.3l-1.8,0.4c0.1,0.5,0.2,1,0.3,1.6l-1.9,0.2c1.5-1.7,3-3.7,4.2-5.6l-2-1.1
	c-0.3,0.7-0.7,1.4-1.1,2.1l-1.2,0.1c0.8-1.2,1.7-2.7,2.3-4.1L188.6,8c-0.5,1.8-1.6,3.7-1.9,4.2c-0.3,0.5-0.6,0.9-1,0.9
	c0.3,0.6,0.6,1.6,0.7,2.1c0.3-0.1,0.7-0.3,2.1-0.5c-0.6,0.8-1.1,1.5-1.4,1.8c-0.6,0.7-1.1,1.2-1.6,1.3c0.3,0.6,0.6,1.7,0.7,2.1
	c0.4-0.2,1.1-0.4,4.6-0.8c0,0.4,0.1,0.7,0.1,1L193,19.5z M191.9,23.9c-1.5,1.4-4.2,2.6-6.9,3.1c0.6,0.6,1.4,1.7,1.9,2.4
	c2.9-0.8,5.7-2.5,7.3-4.6L191.9,23.9z M207.3,23.2v-2.4H198v-1.2h-2.9v1.2h-9.5v2.4h9.5V30h2.9v-6.8H207.3z M199.2,25.4
	c2.1,1.2,5,3,6.3,4.2l1.8-2c-1.4-1.2-4.3-2.8-6.4-3.9L199.2,25.4z M197.4,13.5h-1.8v-1.6h1.8V13.5z M197.4,17.1h-1.8v-1.7h1.8V17.1z
	 M197.3,9.8l0.8-1.8l-2.6-0.4c0,0.6-0.2,1.5-0.4,2.3h-1.9v9.4h6.7V9.8H197.3z M204.8,16c0.1,0.5,0.2,1,0.4,1.5l-1.9,0.2
	c1.6-1.7,3.1-3.7,4.3-5.7l-2.1-1.2c-0.3,0.6-0.7,1.3-1,1.9l-1.6,0.1c0.8-1.2,1.7-2.8,2.3-4.2l-2.3-0.6c-0.5,1.8-1.6,3.8-1.9,4.3
	c-0.3,0.5-0.6,0.9-1,1c0.3,0.6,0.6,1.6,0.7,2.1c0.3-0.2,0.8-0.3,2.4-0.5c-0.6,0.9-1.2,1.6-1.4,1.8c-0.6,0.7-1.1,1.1-1.6,1.2
	c0.3,0.6,0.6,1.7,0.7,2.2c0.4-0.2,1.1-0.4,4.7-0.7c0,0.3,0.1,0.6,0.1,0.9l1.9-0.5c-0.2-1.1-0.6-2.9-1-4.2L204.8,16z"/>
<defs>
	
		<filter id="Adobe_OpacityMaskFilter_00000048486322013629168070000016808510694887372677_" filterUnits="userSpaceOnUse" x="208.3" y="6.7" width="24.4" height="24.6">
		<feColorMatrix  type="matrix" values="1 0 0 0 0  0 1 0 0 0  0 0 1 0 0  0 0 0 1 0"/>
	</filter>
</defs>
<mask maskUnits="userSpaceOnUse" x="208.3" y="6.7" width="24.4" height="24.6" id="path-1-outside-1_317_617_00000077294242739270902770000002198218997075932337_">
	
		<rect x="41.1" y="6.4" style="fill:#FFFFFF;filter:url(#Adobe_OpacityMaskFilter_00000048486322013629168070000016808510694887372677_);" width="216" height="25"/>
	<path d="M47.8,8.5l-0.4,0.1h-5.3V30h2.5V11.2h1.8c-0.4,1.6-1,3.5-1.5,5c1.5,1.7,1.9,3.2,1.9,4.4c0,0.7-0.1,1.2-0.4,1.4
		c-0.2,0.1-0.4,0.2-0.7,0.2c-0.3,0-0.6,0-1,0c0.4,0.7,0.6,1.8,0.6,2.4c0.5,0,1.1,0,1.5,0c0.6-0.1,1-0.2,1.4-0.5
		c0.8-0.6,1.1-1.6,1.1-3.1c0-1.4-0.3-3.1-1.9-5c0.7-1.8,1.6-4.2,2.3-6.2L47.8,8.5z M52.7,15.6v-2.7h3v-2.4h-3V7.8h-2.8v7.4
		c0,0.9-0.4,1.1-0.8,1.2c0.4,0.6,0.7,1.9,0.8,2.6c0.5-0.4,1.4-0.7,6-1.8c-0.1-0.6-0.3-1.5-0.4-2.2L52.7,15.6z M59.3,23.5h-6.1v-1.5
		h6.1V23.5z M53.2,27.1v-1.5h6.1v1.5H53.2z M54.5,17.9c-0.1,0.6-0.4,1.3-0.6,1.9h-3.5v10.3h2.9v-0.8h6.1V30h3V19.9h-5.5
		c0.3-0.4,0.6-0.9,0.9-1.3L54.5,17.9z M59.6,16.1c-0.4,0-0.5-0.1-0.5-0.9v-2.3h3.9v-2.4h-3.9V7.7h-2.8v7.5c0,2.4,0.5,3.2,2.8,3.2
		h1.9c1.7,0,2.4-0.8,2.7-3.7c-0.8-0.2-1.8-0.6-2.4-1c-0.1,1.9-0.2,2.3-0.6,2.3H59.6z"/>
	<path d="M74.9,22.4c-1.7,0.2-3.5,0.5-5.1,0.7v-2.5h4.8v-2.5h-4.8v-2.4h4.8v-2.5h-4.8v-1.6c2-0.6,4.1-1.3,5.9-2.1l-2.3-2.2
		c-1.6,0.9-4.1,1.9-6.3,2.6l0,0L67,10v13.5c-0.7,0.1-1.3,0.2-1.9,0.2l0.4,2.7l1.5-0.2v3.5h2.7v-3.9c1.7-0.3,3.5-0.6,5.3-0.9
		L74.9,22.4z M83.1,20.8c-0.5,1.2-1.2,2.4-2.2,3.3c-0.9-1-1.7-2.1-2.2-3.3H83.1z M84.7,18.3l-0.5,0.1h-7.6c2.5-1.8,3-4.6,3-6.8V11
		H82v3.2c0,2.2,0.5,3.2,2.7,3.2h1.4c0.5,0,1,0,1.4-0.2c-0.1-0.6-0.2-1.5-0.2-2.2c-0.3,0.1-0.9,0.1-1.2,0.1H85
		c-0.3,0-0.4-0.2-0.4-0.9V8.6H82v0h-2.4v0H77v3c0,1.7-0.3,3.7-2.6,5.2c0.5,0.3,1.4,1.2,1.9,1.7h-0.8v2.4h2.3l-1.5,0.4
		c0.7,1.7,1.6,3.2,2.6,4.6c-1.4,0.9-3.1,1.6-5,2c0.6,0.6,1.2,1.7,1.4,2.4c2.1-0.6,4-1.4,5.6-2.5c1.4,1.1,3.1,1.9,5.1,2.4
		c0.4-0.7,1.2-1.9,1.8-2.4c-1.8-0.4-3.4-1-4.8-1.8c1.6-1.7,2.7-4,3.4-6.9L84.7,18.3z"/>
	<path d="M105.9,26.6v-4.8h4.4v-2.7h-4.4v-3.9h4.9v-2.7h-4.9V7.8h-2.9v4.7h-1.9c0.2-1.1,0.4-2.2,0.6-3.3L99,8.8
		c-0.2,2-0.7,4.1-1.3,5.9c-0.3-0.9-0.8-2.1-1.3-3L95,12.2V7.7h-2.9v4.9l-2-0.3c-0.2,2-0.6,4.7-1.2,6.2l2.1,0.8
		c0.6-1.7,0.9-4.3,1.1-6.4v17.2H95V13.7c0.4,1,0.8,2,0.9,2.8l1.4-0.6c-0.2,0.5-0.5,1-0.7,1.4c0.7,0.3,2,0.9,2.5,1.3
		c0.5-0.9,1-2.1,1.3-3.3h2.6v3.9h-4.6v2.7h4.6v4.8h-6.4v2.7h14.9v-2.7H105.9z"/>
	<path d="M127.3,10.6c-0.3-0.3-0.8-0.6-1.2-1c0.5-0.4,0.9-0.9,1.2-1.3l-1.9-0.6c-0.2,0.3-0.6,0.6-0.9,1c-0.5-0.3-1-0.6-1.5-0.8
		l-1.3,1.1c0.4,0.2,0.8,0.5,1.3,0.7c-0.6,0.4-1.2,0.7-1.8,0.9c0.5,0.3,1.2,0.9,1.5,1.3c0.6-0.3,1.3-0.7,1.9-1.2
		c0.5,0.4,0.9,0.7,1.2,1L127.3,10.6z M118.5,15.4h2.9v-0.3c0.4,0.3,0.8,0.8,1.1,1.1h-3.9L118.5,15.4z M116.8,18.3h15.4v2.9h2.8v-4.9
		h-1.8c0.2-2.2,0.4-5.3,0.5-7.8h-6v1.8h3.2l0,0.8h-3v1.8h2.9l0,0.8h-3v1.8h2.8l-0.1,0.8h-7.8c0.6-0.4,1.3-0.8,1.9-1.2
		c0.6,0.4,1,0.8,1.4,1.2l1.4-1.2c-0.4-0.4-0.9-0.7-1.4-1.1c0.5-0.5,0.9-0.9,1.3-1.4l-1.9-0.6c-0.3,0.3-0.6,0.7-1,1
		c-0.5-0.3-1-0.6-1.5-0.8l-1.3,1.1c0.4,0.2,0.9,0.5,1.3,0.8c-0.5,0.3-1.1,0.6-1.7,0.9v-1.2h-3l0-0.8h3v-1.8h-3l0-0.7
		c1.1-0.2,2.3-0.6,3.3-0.9l-1.2-1.7c-1.3,0.5-3.4,1.1-4.8,1.3l0.4,7.1h-1.8v4.9h2.7V18.3z M135.3,23.4h-9c1.6-0.8,3.3-1.8,4.6-2.8
		l-1.6-1.5l-0.6,0.1h-10.4v2h7.7c-0.9,0.5-1.8,1.1-2.6,1.4v0.7h-9.7v2.3h9.7v1.6c0,0.3-0.1,0.4-0.5,0.4c-0.4,0-1.8,0-2.9,0
		c0.3,0.7,0.7,1.6,0.9,2.4c1.8,0,3.1,0,4.1-0.4c1-0.4,1.3-1,1.3-2.3v-1.7h9.2V23.4z"/>
	<path d="M144.5,13.4c-2.3,1.1-4.7,2.2-6.2,2.9l1,2.2c1.8-0.9,3.9-2.1,5.8-3.2L144.5,13.4z M153.7,23.6h-10.3v-1.4h10.3V23.6z
		 M143.5,27.1v-1.4h10.3v1.4H143.5z M157.9,8.6h-9.3v2.3h1.5l-1.1,1.5c1.1,0.5,2.6,1.2,3.5,1.7c-1.6,0.8-3.1,1.4-4.2,1.9l1,2.1
		l-1.7-0.3c0.3-0.3,0.3-0.9,0.3-1.6V8.6h-9.5v2.3h1.7l-1.1,1.5c1.2,0.5,2.8,1.3,3.6,1.8l1.3-1.9c-0.8-0.4-2.2-1-3.3-1.5h4.7v5.4
		c0,0.2-0.1,0.3-0.3,0.3c-0.3,0-1.1,0-1.8,0c0.3,0.6,0.5,1.6,0.6,2.3c1.3,0,2.4,0,3.1-0.3c-0.1,0.5-0.3,1-0.5,1.5h-5.6v10.1h2.8
		v-0.9h10.3v0.9h3V20.1h-7.6c0.3-0.6,0.6-1.2,0.9-1.8l-0.6-0.1c1.8-0.9,3.8-2.1,5.8-3.2l-0.6-1.9l-1.8,0.9l1.1-1.7
		c-0.8-0.4-2.2-1-3.3-1.5h4.7v5.4c0,0.2-0.1,0.3-0.3,0.3c-0.3,0-1.1,0-1.8,0c0.3,0.6,0.5,1.6,0.6,2.3c1.4,0,2.5,0,3.3-0.4
		c0.8-0.4,1-1,1-2.2V8.6z"/>
	<path d="M177.5,21.5v1.6h-10v-1.6H177.5z M167.6,26.9v-1.7h10v1.7H167.6z M164.7,30.1h2.9v-0.8h10v0.8h3v-11h-15.8V30.1z
		 M176.1,12.1c-0.3,0.9-0.7,2.1-1.1,3h-4.9c-0.2-0.9-0.6-2-1.2-3H176.1z M178.2,15.1c0.4-0.7,0.8-1.6,1.2-2.5l-2.2-0.5h5V9.6h-7.7
		c-0.2-0.7-0.6-1.5-1-2.2l-3,0.5c0.3,0.5,0.6,1.1,0.7,1.7h-8.1v2.5h5.3l-2.3,0.5c0.4,0.7,0.7,1.7,1,2.5h-5.3v2.5h21.5v-2.5H178.2z"
		/>
	<path d="M193,19.5c-0.1-1.2-0.5-2.9-0.9-4.3l-1.8,0.4c0.1,0.5,0.2,1,0.3,1.6l-1.9,0.2c1.5-1.7,3-3.7,4.2-5.6l-2-1.1
		c-0.3,0.7-0.7,1.4-1.1,2.1l-1.2,0.1c0.8-1.2,1.7-2.7,2.3-4.1L188.6,8c-0.5,1.8-1.6,3.7-1.9,4.2c-0.3,0.5-0.6,0.9-1,0.9
		c0.3,0.6,0.6,1.6,0.7,2.1c0.3-0.1,0.7-0.3,2.1-0.5c-0.6,0.8-1.1,1.5-1.4,1.8c-0.6,0.7-1.1,1.2-1.6,1.3c0.3,0.6,0.6,1.7,0.7,2.1
		c0.4-0.2,1.1-0.4,4.6-0.8c0,0.4,0.1,0.7,0.1,1L193,19.5z M191.9,23.9c-1.5,1.4-4.2,2.6-6.9,3.1c0.6,0.6,1.4,1.7,1.9,2.4
		c2.9-0.8,5.7-2.5,7.3-4.6L191.9,23.9z M207.3,23.2v-2.4H198v-1.2h-2.9v1.2h-9.5v2.4h9.5V30h2.9v-6.8H207.3z M199.2,25.4
		c2.1,1.2,5,3,6.3,4.2l1.8-2c-1.4-1.2-4.3-2.8-6.4-3.9L199.2,25.4z M197.4,13.5h-1.8v-1.6h1.8V13.5z M197.4,17.1h-1.8v-1.7h1.8V17.1
		z M197.3,9.8l0.8-1.8l-2.6-0.4c0,0.6-0.2,1.5-0.4,2.3h-1.9v9.4h6.7V9.8H197.3z M204.8,16c0.1,0.5,0.2,1,0.4,1.5l-1.9,0.2
		c1.6-1.7,3.1-3.7,4.3-5.7l-2.1-1.2c-0.3,0.6-0.7,1.3-1,1.9l-1.6,0.1c0.8-1.2,1.7-2.8,2.3-4.2l-2.3-0.6c-0.5,1.8-1.6,3.8-1.9,4.3
		c-0.3,0.5-0.6,0.9-1,1c0.3,0.6,0.6,1.6,0.7,2.1c0.3-0.2,0.8-0.3,2.4-0.5c-0.6,0.9-1.2,1.6-1.4,1.8c-0.6,0.7-1.1,1.1-1.6,1.2
		c0.3,0.6,0.6,1.7,0.7,2.2c0.4-0.2,1.1-0.4,4.7-0.7c0,0.3,0.1,0.6,0.1,0.9l1.9-0.5c-0.2-1.1-0.6-2.9-1-4.2L204.8,16z"/>
	<path d="M230.3,7.9h-2.6v9.5c0,0.3-0.1,0.4-0.5,0.4c-0.3,0-1.5,0-2.6,0c0.3,0.6,0.7,1.6,0.8,2.3c1.6,0,2.8,0,3.7-0.4
		c0.9-0.4,1.1-1,1.1-2.2V7.9z M225.6,8.8H223v7.9h2.5V8.8z M228,22.8c-0.9,0.6-2.1,1.4-3.2,1.9c-0.6-0.6-1.2-1.2-1.7-1.9H228z
		 M211.7,12c0.2-0.3,0.4-0.6,0.6-1h2.3v1H211.7z M228.9,22.8h2.4v-2.3h-8.8c-0.2-0.6-0.6-1.4-0.9-2l-0.6,0.1
		c0.2-0.3,0.3-0.7,0.3-1.3v-2.7h-4.2v-0.8h4.6V12h-4.6v-1h4V9.2h-4V7.7h-2.4v1.5h-1.4c0.1-0.3,0.3-0.6,0.4-1l-2.1-0.5
		c-0.4,1.2-1.1,2.5-1.9,3.4c0.4,0.2,1,0.6,1.5,0.8h-1.5v1.9h5v0.8h-4v4.7h2.2v-3h1.8V20h2.4v-3.5h2v1c0,0.2-0.1,0.3-0.3,0.3
		c-0.2,0-0.7,0-1.3,0c0.2,0.5,0.6,1.1,0.7,1.6c0.3,0,0.5,0,0.8,0h0c0.2,0.4,0.4,0.8,0.6,1.2h-9.7v2.3h7c-2.1,1-4.8,1.7-7.4,2
		c0.5,0.5,1.2,1.5,1.5,2.1c1.2-0.2,2.5-0.5,3.6-0.9v0.1c0,1.2-0.6,1.8-1.1,2.2c0.3,0.3,0.7,1.2,0.8,1.8l0,0.2c0.5-0.3,1.3-0.6,7-1.8
		c0-0.5,0.1-1.5,0.2-2.1l-4.5,0.9V25c1.3-0.6,2.5-1.2,3.5-2c1.8,3.7,4.8,5.9,9.6,6.8c0.3-0.7,1-1.7,1.5-2.3
		c-1.9-0.3-3.5-0.7-4.9-1.4c1.2-0.6,2.5-1.3,3.7-2.1L228.9,22.8z"/>
	<path d="M238.5,7.8c-1.2,3.4-3.3,6.8-5.5,9c0.5,0.7,1.3,2.4,1.6,3c0.5-0.5,1-1.1,1.5-1.7v12h2.9V13.6c0.9-1.6,1.7-3.3,2.3-5
		L238.5,7.8z M255.8,14.3v-2.7h-9.3c0.5-1,0.8-2,1.2-3l-2.8-0.7c-1.1,3.4-3,6.9-5.1,9c0.6,0.5,1.7,1.5,2.2,2
		c1.1-1.2,2.2-2.9,3.1-4.7h0.9v15.8h2.9v-5.3h6.5v-2.6h-6.5v-2.7h6.2v-2.6h-6.2v-2.5H255.8z"/>
</mask>
<path class="st15" d="M230.3,7.9h-2.6v9.5c0,0.3-0.1,0.4-0.5,0.4c-0.3,0-1.5,0-2.6,0c0.3,0.6,0.7,1.6,0.8,2.3c1.6,0,2.8,0,3.7-0.4
	c0.9-0.4,1.1-1,1.1-2.2V7.9z M225.6,8.8H223v7.9h2.5V8.8z M228,22.8c-0.9,0.6-2.1,1.4-3.2,1.9c-0.6-0.6-1.2-1.2-1.7-1.9H228z
	 M211.7,12c0.2-0.3,0.4-0.6,0.6-1h2.3v1H211.7z M228.9,22.8h2.4v-2.3h-8.8c-0.2-0.6-0.6-1.4-0.9-2l-0.6,0.1c0.2-0.3,0.3-0.7,0.3-1.3
	v-2.7h-4.2v-0.8h4.6V12h-4.6v-1h4V9.2h-4V7.7h-2.4v1.5h-1.4c0.1-0.3,0.3-0.6,0.4-1l-2.1-0.5c-0.4,1.2-1.1,2.5-1.9,3.4
	c0.4,0.2,1,0.6,1.5,0.8h-1.5v1.9h5v0.8h-4v4.7h2.2v-3h1.8V20h2.4v-3.5h2v1c0,0.2-0.1,0.3-0.3,0.3c-0.2,0-0.7,0-1.3,0
	c0.2,0.5,0.6,1.1,0.7,1.6c0.3,0,0.5,0,0.8,0h0c0.2,0.4,0.4,0.8,0.6,1.2h-9.7v2.3h7c-2.1,1-4.8,1.7-7.4,2c0.5,0.5,1.2,1.5,1.5,2.1
	c1.2-0.2,2.5-0.5,3.6-0.9v0.1c0,1.2-0.6,1.8-1.1,2.2c0.3,0.3,0.7,1.2,0.8,1.8l0,0.2c0.5-0.3,1.3-0.6,7-1.8c0-0.5,0.1-1.5,0.2-2.1
	l-4.5,0.9V25c1.3-0.6,2.5-1.2,3.5-2c1.8,3.7,4.8,5.9,9.6,6.8c0.3-0.7,1-1.7,1.5-2.3c-1.9-0.3-3.5-0.7-4.9-1.4
	c1.2-0.6,2.5-1.3,3.7-2.1L228.9,22.8z"/>
<defs>
	
		<filter id="Adobe_OpacityMaskFilter_00000174593596735154666680000004269466200568596877_" filterUnits="userSpaceOnUse" x="232.1" y="6.8" width="24.7" height="24.3">
		<feColorMatrix  type="matrix" values="1 0 0 0 0  0 1 0 0 0  0 0 1 0 0  0 0 0 1 0"/>
	</filter>
</defs>
<mask maskUnits="userSpaceOnUse" x="232.1" y="6.8" width="24.7" height="24.3" id="path-1-outside-1_317_617_00000164501029744926577050000001729862909735453345_">
	
		<rect x="41.1" y="6.4" style="fill:#FFFFFF;filter:url(#Adobe_OpacityMaskFilter_00000174593596735154666680000004269466200568596877_);" width="216" height="25"/>
	<path d="M47.8,8.5l-0.4,0.1h-5.3V30h2.5V11.2h1.8c-0.4,1.6-1,3.5-1.5,5c1.5,1.7,1.9,3.2,1.9,4.4c0,0.7-0.1,1.2-0.4,1.4
		c-0.2,0.1-0.4,0.2-0.7,0.2c-0.3,0-0.6,0-1,0c0.4,0.7,0.6,1.8,0.6,2.4c0.5,0,1.1,0,1.5,0c0.6-0.1,1-0.2,1.4-0.5
		c0.8-0.6,1.1-1.6,1.1-3.1c0-1.4-0.3-3.1-1.9-5c0.7-1.8,1.6-4.2,2.3-6.2L47.8,8.5z M52.7,15.6v-2.7h3v-2.4h-3V7.8h-2.8v7.4
		c0,0.9-0.4,1.1-0.8,1.2c0.4,0.6,0.7,1.9,0.8,2.6c0.5-0.4,1.4-0.7,6-1.8c-0.1-0.6-0.3-1.5-0.4-2.2L52.7,15.6z M59.3,23.5h-6.1v-1.5
		h6.1V23.5z M53.2,27.1v-1.5h6.1v1.5H53.2z M54.5,17.9c-0.1,0.6-0.4,1.3-0.6,1.9h-3.5v10.3h2.9v-0.8h6.1V30h3V19.9h-5.5
		c0.3-0.4,0.6-0.9,0.9-1.3L54.5,17.9z M59.6,16.1c-0.4,0-0.5-0.1-0.5-0.9v-2.3h3.9v-2.4h-3.9V7.7h-2.8v7.5c0,2.4,0.5,3.2,2.8,3.2
		h1.9c1.7,0,2.4-0.8,2.7-3.7c-0.8-0.2-1.8-0.6-2.4-1c-0.1,1.9-0.2,2.3-0.6,2.3H59.6z"/>
	<path d="M74.9,22.4c-1.7,0.2-3.5,0.5-5.1,0.7v-2.5h4.8v-2.5h-4.8v-2.4h4.8v-2.5h-4.8v-1.6c2-0.6,4.1-1.3,5.9-2.1l-2.3-2.2
		c-1.6,0.9-4.1,1.9-6.3,2.6l0,0L67,10v13.5c-0.7,0.1-1.3,0.2-1.9,0.2l0.4,2.7l1.5-0.2v3.5h2.7v-3.9c1.7-0.3,3.5-0.6,5.3-0.9
		L74.9,22.4z M83.1,20.8c-0.5,1.2-1.2,2.4-2.2,3.3c-0.9-1-1.7-2.1-2.2-3.3H83.1z M84.7,18.3l-0.5,0.1h-7.6c2.5-1.8,3-4.6,3-6.8V11
		H82v3.2c0,2.2,0.5,3.2,2.7,3.2h1.4c0.5,0,1,0,1.4-0.2c-0.1-0.6-0.2-1.5-0.2-2.2c-0.3,0.1-0.9,0.1-1.2,0.1H85
		c-0.3,0-0.4-0.2-0.4-0.9V8.6H82v0h-2.4v0H77v3c0,1.7-0.3,3.7-2.6,5.2c0.5,0.3,1.4,1.2,1.9,1.7h-0.8v2.4h2.3l-1.5,0.4
		c0.7,1.7,1.6,3.2,2.6,4.6c-1.4,0.9-3.1,1.6-5,2c0.6,0.6,1.2,1.7,1.4,2.4c2.1-0.6,4-1.4,5.6-2.5c1.4,1.1,3.1,1.9,5.1,2.4
		c0.4-0.7,1.2-1.9,1.8-2.4c-1.8-0.4-3.4-1-4.8-1.8c1.6-1.7,2.7-4,3.4-6.9L84.7,18.3z"/>
	<path d="M105.9,26.6v-4.8h4.4v-2.7h-4.4v-3.9h4.9v-2.7h-4.9V7.8h-2.9v4.7h-1.9c0.2-1.1,0.4-2.2,0.6-3.3L99,8.8
		c-0.2,2-0.7,4.1-1.3,5.9c-0.3-0.9-0.8-2.1-1.3-3L95,12.2V7.7h-2.9v4.9l-2-0.3c-0.2,2-0.6,4.7-1.2,6.2l2.1,0.8
		c0.6-1.7,0.9-4.3,1.1-6.4v17.2H95V13.7c0.4,1,0.8,2,0.9,2.8l1.4-0.6c-0.2,0.5-0.5,1-0.7,1.4c0.7,0.3,2,0.9,2.5,1.3
		c0.5-0.9,1-2.1,1.3-3.3h2.6v3.9h-4.6v2.7h4.6v4.8h-6.4v2.7h14.9v-2.7H105.9z"/>
	<path d="M127.3,10.6c-0.3-0.3-0.8-0.6-1.2-1c0.5-0.4,0.9-0.9,1.2-1.3l-1.9-0.6c-0.2,0.3-0.6,0.6-0.9,1c-0.5-0.3-1-0.6-1.5-0.8
		l-1.3,1.1c0.4,0.2,0.8,0.5,1.3,0.7c-0.6,0.4-1.2,0.7-1.8,0.9c0.5,0.3,1.2,0.9,1.5,1.3c0.6-0.3,1.3-0.7,1.9-1.2
		c0.5,0.4,0.9,0.7,1.2,1L127.3,10.6z M118.5,15.4h2.9v-0.3c0.4,0.3,0.8,0.8,1.1,1.1h-3.9L118.5,15.4z M116.8,18.3h15.4v2.9h2.8v-4.9
		h-1.8c0.2-2.2,0.4-5.3,0.5-7.8h-6v1.8h3.2l0,0.8h-3v1.8h2.9l0,0.8h-3v1.8h2.8l-0.1,0.8h-7.8c0.6-0.4,1.3-0.8,1.9-1.2
		c0.6,0.4,1,0.8,1.4,1.2l1.4-1.2c-0.4-0.4-0.9-0.7-1.4-1.1c0.5-0.5,0.9-0.9,1.3-1.4l-1.9-0.6c-0.3,0.3-0.6,0.7-1,1
		c-0.5-0.3-1-0.6-1.5-0.8l-1.3,1.1c0.4,0.2,0.9,0.5,1.3,0.8c-0.5,0.3-1.1,0.6-1.7,0.9v-1.2h-3l0-0.8h3v-1.8h-3l0-0.7
		c1.1-0.2,2.3-0.6,3.3-0.9l-1.2-1.7c-1.3,0.5-3.4,1.1-4.8,1.3l0.4,7.1h-1.8v4.9h2.7V18.3z M135.3,23.4h-9c1.6-0.8,3.3-1.8,4.6-2.8
		l-1.6-1.5l-0.6,0.1h-10.4v2h7.7c-0.9,0.5-1.8,1.1-2.6,1.4v0.7h-9.7v2.3h9.7v1.6c0,0.3-0.1,0.4-0.5,0.4c-0.4,0-1.8,0-2.9,0
		c0.3,0.7,0.7,1.6,0.9,2.4c1.8,0,3.1,0,4.1-0.4c1-0.4,1.3-1,1.3-2.3v-1.7h9.2V23.4z"/>
	<path d="M144.5,13.4c-2.3,1.1-4.7,2.2-6.2,2.9l1,2.2c1.8-0.9,3.9-2.1,5.8-3.2L144.5,13.4z M153.7,23.6h-10.3v-1.4h10.3V23.6z
		 M143.5,27.1v-1.4h10.3v1.4H143.5z M157.9,8.6h-9.3v2.3h1.5l-1.1,1.5c1.1,0.5,2.6,1.2,3.5,1.7c-1.6,0.8-3.1,1.4-4.2,1.9l1,2.1
		l-1.7-0.3c0.3-0.3,0.3-0.9,0.3-1.6V8.6h-9.5v2.3h1.7l-1.1,1.5c1.2,0.5,2.8,1.3,3.6,1.8l1.3-1.9c-0.8-0.4-2.2-1-3.3-1.5h4.7v5.4
		c0,0.2-0.1,0.3-0.3,0.3c-0.3,0-1.1,0-1.8,0c0.3,0.6,0.5,1.6,0.6,2.3c1.3,0,2.4,0,3.1-0.3c-0.1,0.5-0.3,1-0.5,1.5h-5.6v10.1h2.8
		v-0.9h10.3v0.9h3V20.1h-7.6c0.3-0.6,0.6-1.2,0.9-1.8l-0.6-0.1c1.8-0.9,3.8-2.1,5.8-3.2l-0.6-1.9l-1.8,0.9l1.1-1.7
		c-0.8-0.4-2.2-1-3.3-1.5h4.7v5.4c0,0.2-0.1,0.3-0.3,0.3c-0.3,0-1.1,0-1.8,0c0.3,0.6,0.5,1.6,0.6,2.3c1.4,0,2.5,0,3.3-0.4
		c0.8-0.4,1-1,1-2.2V8.6z"/>
	<path d="M177.5,21.5v1.6h-10v-1.6H177.5z M167.6,26.9v-1.7h10v1.7H167.6z M164.7,30.1h2.9v-0.8h10v0.8h3v-11h-15.8V30.1z
		 M176.1,12.1c-0.3,0.9-0.7,2.1-1.1,3h-4.9c-0.2-0.9-0.6-2-1.2-3H176.1z M178.2,15.1c0.4-0.7,0.8-1.6,1.2-2.5l-2.2-0.5h5V9.6h-7.7
		c-0.2-0.7-0.6-1.5-1-2.2l-3,0.5c0.3,0.5,0.6,1.1,0.7,1.7h-8.1v2.5h5.3l-2.3,0.5c0.4,0.7,0.7,1.7,1,2.5h-5.3v2.5h21.5v-2.5H178.2z"
		/>
	<path d="M193,19.5c-0.1-1.2-0.5-2.9-0.9-4.3l-1.8,0.4c0.1,0.5,0.2,1,0.3,1.6l-1.9,0.2c1.5-1.7,3-3.7,4.2-5.6l-2-1.1
		c-0.3,0.7-0.7,1.4-1.1,2.1l-1.2,0.1c0.8-1.2,1.7-2.7,2.3-4.1L188.6,8c-0.5,1.8-1.6,3.7-1.9,4.2c-0.3,0.5-0.6,0.9-1,0.9
		c0.3,0.6,0.6,1.6,0.7,2.1c0.3-0.1,0.7-0.3,2.1-0.5c-0.6,0.8-1.1,1.5-1.4,1.8c-0.6,0.7-1.1,1.2-1.6,1.3c0.3,0.6,0.6,1.7,0.7,2.1
		c0.4-0.2,1.1-0.4,4.6-0.8c0,0.4,0.1,0.7,0.1,1L193,19.5z M191.9,23.9c-1.5,1.4-4.2,2.6-6.9,3.1c0.6,0.6,1.4,1.7,1.9,2.4
		c2.9-0.8,5.7-2.5,7.3-4.6L191.9,23.9z M207.3,23.2v-2.4H198v-1.2h-2.9v1.2h-9.5v2.4h9.5V30h2.9v-6.8H207.3z M199.2,25.4
		c2.1,1.2,5,3,6.3,4.2l1.8-2c-1.4-1.2-4.3-2.8-6.4-3.9L199.2,25.4z M197.4,13.5h-1.8v-1.6h1.8V13.5z M197.4,17.1h-1.8v-1.7h1.8V17.1
		z M197.3,9.8l0.8-1.8l-2.6-0.4c0,0.6-0.2,1.5-0.4,2.3h-1.9v9.4h6.7V9.8H197.3z M204.8,16c0.1,0.5,0.2,1,0.4,1.5l-1.9,0.2
		c1.6-1.7,3.1-3.7,4.3-5.7l-2.1-1.2c-0.3,0.6-0.7,1.3-1,1.9l-1.6,0.1c0.8-1.2,1.7-2.8,2.3-4.2l-2.3-0.6c-0.5,1.8-1.6,3.8-1.9,4.3
		c-0.3,0.5-0.6,0.9-1,1c0.3,0.6,0.6,1.6,0.7,2.1c0.3-0.2,0.8-0.3,2.4-0.5c-0.6,0.9-1.2,1.6-1.4,1.8c-0.6,0.7-1.1,1.1-1.6,1.2
		c0.3,0.6,0.6,1.7,0.7,2.2c0.4-0.2,1.1-0.4,4.7-0.7c0,0.3,0.1,0.6,0.1,0.9l1.9-0.5c-0.2-1.1-0.6-2.9-1-4.2L204.8,16z"/>
	<path d="M230.3,7.9h-2.6v9.5c0,0.3-0.1,0.4-0.5,0.4c-0.3,0-1.5,0-2.6,0c0.3,0.6,0.7,1.6,0.8,2.3c1.6,0,2.8,0,3.7-0.4
		c0.9-0.4,1.1-1,1.1-2.2V7.9z M225.6,8.8H223v7.9h2.5V8.8z M228,22.8c-0.9,0.6-2.1,1.4-3.2,1.9c-0.6-0.6-1.2-1.2-1.7-1.9H228z
		 M211.7,12c0.2-0.3,0.4-0.6,0.6-1h2.3v1H211.7z M228.9,22.8h2.4v-2.3h-8.8c-0.2-0.6-0.6-1.4-0.9-2l-0.6,0.1
		c0.2-0.3,0.3-0.7,0.3-1.3v-2.7h-4.2v-0.8h4.6V12h-4.6v-1h4V9.2h-4V7.7h-2.4v1.5h-1.4c0.1-0.3,0.3-0.6,0.4-1l-2.1-0.5
		c-0.4,1.2-1.1,2.5-1.9,3.4c0.4,0.2,1,0.6,1.5,0.8h-1.5v1.9h5v0.8h-4v4.7h2.2v-3h1.8V20h2.4v-3.5h2v1c0,0.2-0.1,0.3-0.3,0.3
		c-0.2,0-0.7,0-1.3,0c0.2,0.5,0.6,1.1,0.7,1.6c0.3,0,0.5,0,0.8,0h0c0.2,0.4,0.4,0.8,0.6,1.2h-9.7v2.3h7c-2.1,1-4.8,1.7-7.4,2
		c0.5,0.5,1.2,1.5,1.5,2.1c1.2-0.2,2.5-0.5,3.6-0.9v0.1c0,1.2-0.6,1.8-1.1,2.2c0.3,0.3,0.7,1.2,0.8,1.8l0,0.2c0.5-0.3,1.3-0.6,7-1.8
		c0-0.5,0.1-1.5,0.2-2.1l-4.5,0.9V25c1.3-0.6,2.5-1.2,3.5-2c1.8,3.7,4.8,5.9,9.6,6.8c0.3-0.7,1-1.7,1.5-2.3
		c-1.9-0.3-3.5-0.7-4.9-1.4c1.2-0.6,2.5-1.3,3.7-2.1L228.9,22.8z"/>
	<path d="M238.5,7.8c-1.2,3.4-3.3,6.8-5.5,9c0.5,0.7,1.3,2.4,1.6,3c0.5-0.5,1-1.1,1.5-1.7v12h2.9V13.6c0.9-1.6,1.7-3.3,2.3-5
		L238.5,7.8z M255.8,14.3v-2.7h-9.3c0.5-1,0.8-2,1.2-3l-2.8-0.7c-1.1,3.4-3,6.9-5.1,9c0.6,0.5,1.7,1.5,2.2,2
		c1.1-1.2,2.2-2.9,3.1-4.7h0.9v15.8h2.9v-5.3h6.5v-2.6h-6.5v-2.7h6.2v-2.6h-6.2v-2.5H255.8z"/>
</mask>
<path class="st17" d="M238.5,7.8c-1.2,3.4-3.3,6.8-5.5,9c0.5,0.7,1.3,2.4,1.6,3c0.5-0.5,1-1.1,1.5-1.7v12h2.9V13.6
	c0.9-1.6,1.7-3.3,2.3-5L238.5,7.8z M255.8,14.3v-2.7h-9.3c0.5-1,0.8-2,1.2-3l-2.8-0.7c-1.1,3.4-3,6.9-5.1,9c0.6,0.5,1.7,1.5,2.2,2
	c1.1-1.2,2.2-2.9,3.1-4.7h0.9v15.8h2.9v-5.3h6.5v-2.6h-6.5v-2.7h6.2v-2.6h-6.2v-2.5H255.8z"/>
<path class="st18" d="M18,53.5v5H0l0-5H18z"/>
<path class="st18" d="M296,53.5v5h-18v-5H296z"/>
<path class="st19" d="M296,56H0v-1h296V56z"/>
</svg>
