<?xml version="1.0" encoding="utf-8"?>
<!-- Generator: Adobe Illustrator 26.0.3, SVG Export Plug-In . SVG Version: 6.00 Build 0)  -->
<svg version="1.1" id="圖層_1" xmlns="http://www.w3.org/2000/svg" xmlns:xlink="http://www.w3.org/1999/xlink" x="0px" y="0px"
	 viewBox="0 0 379 95" style="enable-background:new 0 0 379 95;" xml:space="preserve">
<style type="text/css">
	.st0{fill-rule:evenodd;clip-rule:evenodd;fill:url(#SVGID_1_);}
</style>
<path d="M57.5,20.3c-0.6,1-1.3,1.8-2,2.3c-0.7,0.5-1.5,0.8-2.6,0.8c-1,0-2-0.3-3.1-0.9c-1.1-0.6-2.3-1.3-3.8-2.1
	c-1.4-0.8-3-1.4-4.8-2c-1.8-0.6-3.8-0.9-6.1-0.9c-4,0-6.9,0.9-8.9,2.6c-1.9,1.7-2.9,3.9-2.9,6.8c0,1.8,0.6,3.4,1.8,4.6
	c1.2,1.2,2.7,2.3,4.6,3.1c1.9,0.9,4.1,1.7,6.5,2.4c2.5,0.7,5,1.5,7.5,2.4c2.5,0.9,5,1.9,7.4,3.1c2.5,1.2,4.6,2.8,6.5,4.6
	c1.9,1.9,3.5,4.2,4.6,6.9c1.2,2.7,1.8,5.9,1.8,9.7c0,4.2-0.7,8.2-2.2,11.8c-1.5,3.7-3.6,6.9-6.4,9.6c-2.8,2.7-6.2,4.9-10.3,6.4
	c-4,1.5-8.7,2.3-13.8,2.3c-2.8,0-5.7-0.3-8.7-0.9c-2.9-0.6-5.8-1.4-8.5-2.4c-2.8-1.1-5.3-2.4-7.8-3.8C3.9,85.4,1.8,83.8,0,82
	l6.3-9.9c0.5-0.7,1.1-1.3,1.9-1.8c0.8-0.5,1.7-0.8,2.7-0.8c1.3,0,2.5,0.4,3.8,1.2c1.3,0.8,2.7,1.7,4.3,2.6c1.6,1,3.5,1.8,5.6,2.6
	s4.5,1.2,7.4,1.2c3.8,0,6.8-0.8,9-2.5c2.1-1.7,3.2-4.4,3.2-8.1c0-2.1-0.6-3.9-1.8-5.2c-1.2-1.3-2.7-2.4-4.6-3.3
	c-1.9-0.9-4-1.6-6.4-2.3c-2.4-0.7-4.9-1.4-7.4-2.2c-2.5-0.8-5-1.8-7.4-3c-2.4-1.2-4.6-2.8-6.5-4.7c-1.9-2-3.4-4.4-4.6-7.3
	c-1.2-2.9-1.8-6.5-1.8-10.8c0-3.4,0.7-6.8,2.1-10C7,14.6,9,11.7,11.7,9.2c2.7-2.5,5.9-4.6,9.8-6.1c3.9-1.5,8.3-2.3,13.3-2.3
	c2.8,0,5.5,0.2,8.1,0.7c2.7,0.4,5.2,1.1,7.6,1.9c2.4,0.8,4.6,1.9,6.6,3.1c2.1,1.2,3.9,2.5,5.6,4L57.5,20.3z"/>
<path d="M142,18.6h-25.7V93H95.2V18.6H69.5V1.8H142V18.6z"/>
<path d="M192,58.1l-8.4-25c-0.6-1.6-1.3-3.4-2-5.6c-0.7-2.2-1.4-4.5-2.1-7c-0.6,2.5-1.3,4.9-2,7.1c-0.7,2.2-1.4,4-2,5.6L167,58.1
	H192z M225.6,93h-16.4c-1.8,0-3.3-0.4-4.4-1.3c-1.1-0.9-2-2-2.6-3.3l-5.4-15.9h-34.7l-5.4,15.9c-0.5,1.2-1.3,2.2-2.5,3.2
	c-1.2,0.9-2.6,1.4-4.4,1.4h-16.5l35.3-91.2h21.7L225.6,93z"/>
<path d="M262.5,44.7c2.9,0,5.3-0.4,7.3-1.1c2-0.8,3.7-1.8,5-3.1c1.3-1.3,2.2-2.8,2.8-4.5c0.6-1.8,0.9-3.6,0.9-5.6
	c0-4-1.3-7.1-3.9-9.4c-2.6-2.3-6.6-3.4-12.1-3.4H254v27H262.5z M307.4,93h-19.2c-3.5,0-6.1-1.3-7.6-4l-15.1-26.5
	c-0.7-1.1-1.5-1.9-2.4-2.4c-0.9-0.5-2.1-0.8-3.8-0.8H254V93h-21.2V1.8h29.7c6.6,0,12.2,0.7,16.8,2.1c4.7,1.3,8.5,3.2,11.4,5.6
	c3,2.4,5.1,5.3,6.4,8.6c1.3,3.3,2,6.9,2,10.8c0,3-0.4,5.8-1.2,8.4s-2,5.1-3.5,7.3c-1.5,2.2-3.5,4.2-5.8,5.9
	c-2.3,1.8-4.9,3.2-7.8,4.3c1.4,0.7,2.7,1.6,3.9,2.7c1.2,1,2.3,2.3,3.3,3.8L307.4,93z"/>
<path d="M378.8,18.6h-25.7V93H332V18.6h-25.7V1.8h72.5V18.6z"/>
<linearGradient id="SVGID_1_" gradientUnits="userSpaceOnUse" x1="176.762" y1="109.428" x2="204.4223" y2="-11.516" gradientTransform="matrix(1 0 0 -1 0 96)">
	<stop  offset="0" style="stop-color:#FFF176"/>
	<stop  offset="1" style="stop-color:#00E0B8"/>
</linearGradient>
<path class="st0" d="M36.2,37c-2.4-0.8-4.6-1.6-6.5-2.4c-1.9-0.9-3.4-1.9-4.6-3.1c-1.2-1.2-1.8-2.7-1.8-4.6c0-2.9,1-5.2,2.9-6.8
	c2-1.7,4.9-2.6,8.9-2.6c2.3,0,4.3,0.3,6.1,0.9c1.8,0.6,3.4,1.3,4.8,2c1.4,0.8,2.7,1.4,3.8,2.1c1.1,0.6,2.2,0.9,3.1,0.9
	c1.1,0,2-0.3,2.6-0.8c0.7-0.5,1.4-1.3,2-2.3l5.3-9.8c-1.6-1.5-3.5-2.8-5.6-4c-2-1.2-4.3-2.2-6.6-3.1c-2.4-0.9-4.9-1.5-7.6-1.9
	c-2.6-0.5-5.3-0.7-8.1-0.7c-5,0-9.5,0.8-13.3,2.3c-3.9,1.5-7.2,3.5-9.8,6.1C9,11.7,7,14.6,5.6,17.9c-1.4,3.3-2.1,6.6-2.1,10
	c0,4.3,0.6,7.8,1.8,10.8C6.5,41.5,8,44,9.9,45.9c1.9,1.9,4.1,3.5,6.5,4.7c2.4,1.2,4.9,2.2,7.4,3c2.5,0.8,5,1.5,7.4,2.2
	c2.4,0.7,4.6,1.4,6.4,2.3c1.9,0.9,3.5,2,4.6,3.3c1.2,1.3,1.8,3.1,1.8,5.2c0,3.7-1.1,6.4-3.2,8.1c-2.1,1.7-5.1,2.5-9,2.5
	c-2.8,0-5.3-0.4-7.4-1.2s-3.9-1.7-5.6-2.6c-1.6-1-3-1.8-4.3-2.6c-1.3-0.8-2.5-1.2-3.8-1.2c-1,0-1.9,0.3-2.7,0.8
	c-0.8,0.5-1.4,1-1.9,1.8L0,82c1.8,1.8,3.9,3.4,6.3,4.9c2.4,1.5,5,2.7,7.8,3.8c2.8,1,5.6,1.9,8.5,2.4c3,0.6,5.9,0.9,8.7,0.9
	c5.2,0,9.8-0.8,13.8-2.3c4.1-1.6,7.5-3.7,10.3-6.4c2.8-2.8,4.9-6,6.4-9.6C63.3,71.9,64,68,64,63.8c0-3.8-0.6-7-1.8-9.7
	c-1.2-2.7-2.7-5-4.6-6.9c-1.9-1.9-4-3.4-6.5-4.6c-2.4-1.2-4.9-2.3-7.4-3.1C41.1,38.5,38.6,37.7,36.2,37z M54,83.8
	c2.6-2.6,4.6-5.5,5.9-9c1.4-3.4,2-7.1,2-11.1c0-3.6-0.6-6.5-1.6-8.9l0,0c-1.1-2.5-2.5-4.6-4.2-6.2l0,0l0,0c-1.7-1.7-3.7-3.1-6-4.3
	l0,0c-2.3-1.2-4.7-2.2-7.2-3l0,0l0,0c-2.5-0.9-5-1.7-7.4-2.4l0,0l0,0c-2.5-0.8-4.7-1.6-6.7-2.5l0,0l0,0c-2-1-3.8-2.1-5.2-3.6
	c-1.6-1.6-2.3-3.7-2.3-6c0-3.4,1.1-6.2,3.6-8.3c2.5-2.2,6-3.1,10.2-3.1c2.5,0,4.7,0.3,6.8,1c1.9,0.6,3.6,1.3,5.1,2.1
	c1.4,0.7,2.7,1.4,3.8,2.1c0.9,0.5,1.6,0.6,2.2,0.6c0.8,0,1.2-0.2,1.4-0.4l0,0l0,0c0.4-0.3,0.9-0.8,1.4-1.6l4.5-8.4
	c-1.2-1-2.6-1.9-4-2.7l0,0l0,0c-1.9-1.1-4-2.1-6.3-2.9l0,0l0,0c-2.2-0.8-4.6-1.4-7.2-1.8l0,0l0,0c-2.5-0.4-5.1-0.7-7.8-0.7
	c-4.8,0-9,0.7-12.6,2.2l0,0l0,0c-3.7,1.4-6.7,3.3-9.2,5.7c-2.5,2.4-4.3,5-5.6,8c-1.3,3-1.9,6.1-1.9,9.2c0,4.1,0.6,7.4,1.6,10
	c1.1,2.7,2.5,4.9,4.1,6.6c1.8,1.8,3.7,3.2,6,4.3c2.3,1.1,4.7,2.1,7.2,2.9c2.5,0.8,5,1.5,7.4,2.2c2.5,0.7,4.8,1.5,6.8,2.4
	c2.1,1,3.9,2.2,5.3,3.8c1.5,1.8,2.2,4,2.2,6.5c0,4.1-1.2,7.4-3.9,9.6l0,0l0,0c-2.6,2-6.1,2.9-10.2,2.9c-3,0-5.7-0.4-8.1-1.3
	c-2.2-0.8-4.1-1.7-5.9-2.8l0,0l0,0c-1.6-1-3-1.8-4.3-2.6l0,0l0,0c-1-0.6-1.9-0.9-2.7-0.9c-0.6,0-1.1,0.1-1.7,0.5l0,0l0,0
	c-0.5,0.3-1,0.7-1.3,1.1l-5.3,8.5c1.4,1.2,3,2.4,4.8,3.5c2.3,1.4,4.8,2.6,7.4,3.7c2.6,1,5.4,1.8,8.2,2.3c2.8,0.6,5.6,0.8,8.3,0.8
	c5,0,9.3-0.7,13.1-2.2C48.3,88.3,51.5,86.3,54,83.8z M95.2,18.6V93h21.2V18.6H142V1.8H69.5v16.8H95.2z M71.5,16.6h25.7V91h17.2V16.6
	H140V3.8H71.5V16.6z M194.8,60.1h-30.5l9.3-27.5l0,0c0.6-1.5,1.3-3.4,2-5.5c0.7-2.1,1.3-4.4,2-6.9l1.8-7.3l2.1,7.3
	c0.7,2.5,1.4,4.8,2.1,6.9c0.7,2.1,1.4,3.9,2,5.5l0,0L194.8,60.1z M181.5,27.6c-0.3-1.1-0.7-2.1-1-3.3c-0.4-1.2-0.7-2.4-1.1-3.7
	c-0.3,1.3-0.6,2.5-1,3.7c-0.3,1.2-0.7,2.3-1,3.3c-0.7,2.2-1.4,4-2,5.6L167,58.1h25l-8.4-25C182.9,31.6,182.3,29.7,181.5,27.6z
	 M196.8,72.5l5.4,15.9c0.6,1.3,1.4,2.4,2.6,3.3c1.1,0.8,2.6,1.3,4.4,1.3h16.4L190.3,1.8h-21.7L133.3,93h16.5c1.8,0,3.2-0.5,4.4-1.4
	c1.2-1,2-2,2.5-3.2l5.4-15.9H196.8z M154.9,87.7l5.8-17.2h37.5l5.8,17.2c0.4,1,1.1,1.8,1.9,2.5c0.7,0.5,1.7,0.8,3.2,0.8h13.5
	L188.9,3.8H170L136.3,91h13.6c1.4,0,2.4-0.4,3.1-0.9C154,89.3,154.6,88.5,154.9,87.7z M270.5,45.5L270.5,45.5c-2.3,0.8-5,1.2-8,1.2
	H252v-31h10.5c5.7,0,10.3,1.2,13.4,3.9c3.1,2.7,4.6,6.4,4.6,10.9c0,2.2-0.3,4.3-1,6.3l0,0l0,0c-0.7,2-1.8,3.8-3.3,5.3
	C274.7,43.5,272.8,44.7,270.5,45.5L270.5,45.5z M274.6,21c-2.6-2.3-6.6-3.4-12.1-3.4H254v27h8.5c2.9,0,5.3-0.4,7.3-1.1
	c2-0.8,3.7-1.8,5-3.1c1.3-1.3,2.2-2.8,2.8-4.5c0.6-1.8,0.9-3.6,0.9-5.6C278.5,26.4,277.2,23.3,274.6,21z M265.5,62.5L280.6,89
	c1.5,2.7,4.1,4,7.6,4h19.2L288,61.3c-1-1.5-2-2.7-3.3-3.8c-0.6-0.5-1.1-1-1.7-1.4c-0.7-0.5-1.4-0.9-2.1-1.3c0.8-0.3,1.6-0.6,2.3-1
	c2-0.9,3.9-2.1,5.5-3.3c2.3-1.8,4.2-3.7,5.8-5.9c1.5-2.3,2.7-4.7,3.5-7.3s1.2-5.4,1.2-8.4c0-3.9-0.7-7.5-2-10.8
	c-1.3-3.3-3.5-6.2-6.4-8.6c-2.9-2.4-6.7-4.3-11.4-5.6c-4.6-1.4-10.2-2.1-16.8-2.1h-29.7V93H254V59.3h5.4c1.6,0,2.9,0.3,3.8,0.8
	C264,60.6,264.8,61.4,265.5,62.5z M264.1,58.4c1.2,0.7,2.2,1.8,3,3.1l0,0L282.4,88c0,0,0,0,0,0c1.1,1.9,2.9,3,5.9,3h15.6l-17.5-28.7
	c-0.9-1.3-1.8-2.4-2.9-3.3l0,0l0,0c-1.1-1-2.2-1.8-3.5-2.4l-4-2.1l4.2-1.6c2.8-1.1,5.2-2.4,7.3-4l0,0l0,0c2.1-1.6,3.9-3.5,5.3-5.5
	c1.4-2.1,2.5-4.3,3.2-6.8c0.7-2.4,1.1-5,1.1-7.8c0-3.6-0.6-7-1.9-10c-1.2-3-3.1-5.6-5.9-7.8l0,0c-2.7-2.2-6.2-4-10.7-5.3l0,0l0,0
	c-4.4-1.3-9.8-2-16.3-2h-27.7V91H252V57.3h7.4C261.1,57.3,262.8,57.5,264.1,58.4z M306.3,18.6V1.8h72.5v16.8h-25.7V93H332V18.6
	H306.3z M334,91V16.6h-25.7V3.8h68.5v12.8h-25.7V91H334z"/>
</svg>
