<?xml version="1.0" encoding="utf-8"?>
<!-- Generator: Adobe Illustrator 26.0.3, SVG Export Plug-In . SVG Version: 6.00 Build 0)  -->
<svg version="1.1" id="圖層_1" xmlns="http://www.w3.org/2000/svg" xmlns:xlink="http://www.w3.org/1999/xlink" x="0px" y="0px"
	 viewBox="0 0 91 146" style="enable-background:new 0 0 91 146;" xml:space="preserve">
<style type="text/css">
	.st0{fill:url(#SVGID_1_);}
	.st1{fill:url(#SVGID_00000116195896022466877490000013464802261153588146_);}
	.st2{fill:url(#SVGID_00000018215501218843814210000018249013473463482779_);}
	.st3{fill:url(#SVGID_00000091705191161138690420000008566914366486038952_);}
	.st4{fill:url(#SVGID_00000121981936831900297780000005012786322086592944_);}
	.st5{fill:url(#SVGID_00000075875181071714604080000001203529746898486662_);}
	.st6{fill:url(#SVGID_00000110434492525716236390000003352799835986615215_);}
	.st7{fill:url(#SVGID_00000176721450781242491850000016975520536351938220_);}
	.st8{fill:url(#SVGID_00000066515299504562383840000007154878659059204280_);}
	.st9{fill:url(#SVGID_00000150080800599463661200000016796936505060759953_);}
	.st10{fill:url(#SVGID_00000027577723745889080580000016541048684819822732_);}
	.st11{fill:url(#SVGID_00000016775771992884569610000001857307596114374025_);}
	.st12{fill:url(#SVGID_00000105390617582495803770000002421722895762666927_);}
</style>
<path d="M69.2,1.6c0,0-8.7,3.2-14.4,14.5c-3.5,7.1-6.1,14.6-7.6,22.4c0,0-18.6,3.4-28.2,12.4S3.6,70.1,4.3,79.5s6,19.6,11.3,22.7
	c5.3,3.1,8.2,4.5,8.2,4.5s-1.8,8.2-4.1,11.3c-1.3,1.8-2.7,3.4-4.2,5c0,0,1.9-3.8-2.8-6.8c-4.7-3-9,1.9-10,5.2c-1,3.2-0.8,7.8,1,9.6
	c1.8,1.8,5.6,6.5,5.6,6.5l6.7,6.5c0,0,9.7,0,14.6-4.8s7.3-12.9,7.7-14.7c0.4-1.8,1-4.6,1-4.6s12.1,1.4,19-2.9
	c6.9-4.3,13-14,13.3-22.8c0.3-8.8-2.2-14.2-3.8-15.9c-1.7-1.7-9.4-8.1-9.4-8.1s-1.8-2.3-1.6-2.6c0.2-0.4,2.8-4.8,3.4-6.3
	s1.1-2.6,1.1-2.6s13.6-6,18.5-12.1s7.9-13.2,8.4-19.8c0.5-6.6-1.8-14.1-1.8-14.1l-9-8.7l-6-3.2L69.2,1.6z"/>
<path d="M78.8,8.3c-0.7-3.4-4.3-8.3-8.7-7.4c-4.3,0.9-9.2,5-12.4,10.6c-3.2,5.6-8.7,18.8-9.4,22s-1.1,5-1.1,5S29,42.9,19,50.9
	C9,59,5,69,4.7,78.6s2.2,18.6,8.7,22.2c6.5,3.6,10.5,5.9,10.5,5.9s-0.4,6.4-3.2,10.2s-5,6.2-5,6.2s1.8-7.8-6.3-7.3
	c-8.1,0.6-7.7,9-6.8,11.7c0.4,1.4,1,2.8,1.8,4c0,0,6.3,5.6,12.6,2.7s9.4-10.5,10.6-14.1s3.2-9.9,3.2-9.9s15.5,2.2,20.5-2.5
	c5-4.7,10.3-11.5,10.8-17s0.2-12.6-1.3-16.2c-1.4-3.6-3.4-7.8-8.1-9.7c-4.7-2-6.5-2.9-6.5-2.9l4.7-13.3c0,0,15.7-6,22-15.1
	C79.2,24.1,79.5,11.7,78.8,8.3z M26,101.5c-2.5-1.3-4.7-3.1-6.4-5.3c-1.7-2.2-2.9-4.8-3.5-7.5c-2-9.2,0.4-19.7,6.9-26.5
	s13.3-9.9,15.5-10.5c1.2-0.3,2.7-0.7,3.7-1l0.3-0.8l1.1,0.4l-1.4,0.4l-3.4,10.7c-4.1,0.4-7.9,2.1-11,4.9c-5.4,4.7-8.1,6.7-8.3,10.8
	s-0.7,9.6,1.4,9.4s3.1-5.2,5.2-8.5c1.8-2.8,4.6-5,7.8-6.1c2.7-0.9,2.2,0.5,2.2,0.5L26,101.5z M49.2,74.8c2.3,1.6,2.2,3.4,2.7,6.7
	c0.8,5-0.1,10.1-2.7,14.4c-3.4,5.9-15.9,6.8-15.9,6.8l9.4-29.9C42.7,72.8,46.9,73.2,49.2,74.8z M68.3,21.3c-0.4,2.4-1.4,5.8-3.8,7.9
	c-2.3,2.2-7.6,4.9-7.6,4.9s2.7-11.7,6.1-14.1C66.5,17.7,68.7,18.9,68.3,21.3z"/>
<linearGradient id="SVGID_1_" gradientUnits="userSpaceOnUse" x1="5.9157" y1="14.6189" x2="14.7067" y2="5.4519" gradientTransform="matrix(1 0 0 -1 0 148)">
	<stop  offset="0" style="stop-color:#FFF176"/>
	<stop  offset="1" style="stop-color:#00E0B8"/>
</linearGradient>
<path class="st0" d="M4.3,132.3c2.8,4.4,6.8,8.3,10.7,11.7c0.9,0.8,2.3-0.5,1.4-1.4c-3.8-3.6-7.4-7.4-11.1-11.1
	C4.8,131.1,3.9,131.7,4.3,132.3z"/>
<linearGradient id="SVGID_00000164497965663237308460000005238105348549255318_" gradientUnits="userSpaceOnUse" x1="31.5395" y1="37.3392" x2="39.263" y2="28.9762" gradientTransform="matrix(1 0 0 -1 0 148)">
	<stop  offset="0" style="stop-color:#FFF176"/>
	<stop  offset="1" style="stop-color:#00E0B8"/>
</linearGradient>
<path style="fill:url(#SVGID_00000164497965663237308460000005238105348549255318_);" d="M29.9,110.1c2.4,3.9,6.1,7.2,9.6,10.1
	c0.9,0.8,2.3-0.5,1.3-1.4c-1.7-1.6-3.5-3-5.2-4.6c-1.7-1.6-3.2-3.3-4.8-4.9c-0.1-0.1-0.2-0.2-0.4-0.2c-0.2,0-0.3,0-0.5,0.1
	c-0.1,0.1-0.2,0.2-0.2,0.4C29.7,109.8,29.8,110,29.9,110.1L29.9,110.1z"/>
<linearGradient id="SVGID_00000178189268634295984090000009221730673645128590_" gradientUnits="userSpaceOnUse" x1="59.7544" y1="75.8483" x2="69.4568" y2="66.5572" gradientTransform="matrix(1 0 0 -1 0 148)">
	<stop  offset="0" style="stop-color:#FFF176"/>
	<stop  offset="1" style="stop-color:#00E0B8"/>
</linearGradient>
<path style="fill:url(#SVGID_00000178189268634295984090000009221730673645128590_);" d="M58.4,70.6c3.4,4.5,8.4,7.5,10.7,12.9
	c0.4,1,2.2,0.3,1.8-0.7c-2.1-5.3-7.3-9.2-11.5-12.9C58.9,69.4,58,70,58.4,70.6L58.4,70.6z"/>
<linearGradient id="SVGID_00000050661252394343755260000011555914839140578229_" gradientUnits="userSpaceOnUse" x1="51.6374" y1="99.025" x2="59.6866" y2="90.5802" gradientTransform="matrix(1 0 0 -1 0 148)">
	<stop  offset="0" style="stop-color:#FFF176"/>
	<stop  offset="1" style="stop-color:#00E0B8"/>
</linearGradient>
<path style="fill:url(#SVGID_00000050661252394343755260000011555914839140578229_);" d="M50.1,48.1c2.5,4,6.2,7.6,9.8,10.6
	c0.9,0.8,2.3-0.5,1.4-1.3c-1.7-1.6-3.6-3.2-5.3-4.9c-1.7-1.7-3.2-3.5-4.9-5.2c-0.1-0.1-0.2-0.2-0.4-0.2c-0.1,0-0.3,0-0.4,0.1
	c-0.1,0.1-0.2,0.2-0.2,0.4C50,47.8,50.1,48,50.1,48.1z"/>
<linearGradient id="SVGID_00000142173013340348084520000006514620290501348020_" gradientUnits="userSpaceOnUse" x1="77.1168" y1="145.1098" x2="85.2279" y2="136.3358" gradientTransform="matrix(1 0 0 -1 0 148)">
	<stop  offset="0" style="stop-color:#FFF176"/>
	<stop  offset="1" style="stop-color:#00E0B8"/>
</linearGradient>
<path style="fill:url(#SVGID_00000142173013340348084520000006514620290501348020_);" d="M75.2,2.5c1.7,1.9,3.7,3.5,5.5,5.3
	c1.8,1.8,3.1,3.5,4.6,5.3c0.7,0.8,2.2-0.3,1.5-1.2c-3-4.1-6.7-7.6-10.9-10.4C75.3,1.2,74.7,2,75.2,2.5L75.2,2.5z"/>
<linearGradient id="SVGID_00000034805188243747089260000005095513743669795775_" gradientUnits="userSpaceOnUse" x1="55.8864" y1="86.4558" x2="62.1651" y2="83.161" gradientTransform="matrix(1 0 0 -1 0 148)">
	<stop  offset="0" style="stop-color:#FFF176"/>
	<stop  offset="1" style="stop-color:#00E0B8"/>
</linearGradient>
<path style="fill:url(#SVGID_00000034805188243747089260000005095513743669795775_);" d="M57.3,68.5c1.3-1.2,2-3,2.6-4.6
	c0.6-1.6,1.7-3.5,1.9-5.3c0-0.2-0.1-0.4-0.2-0.6c-0.1-0.2-0.3-0.3-0.6-0.4h-0.2c-0.2,0-0.3,0-0.5,0c-0.1,0.1-0.3,0.2-0.4,0.3
	c-0.9,1.3-1.2,3.3-1.8,4.8c-0.7,1.8-1.7,3.6-1.8,5.5c0,0.1,0,0.2,0.1,0.3c0.1,0.1,0.1,0.2,0.2,0.2c0.1,0,0.2,0.1,0.3,0
	C57.1,68.7,57.2,68.6,57.3,68.5L57.3,68.5z"/>
<linearGradient id="SVGID_00000155850876964836250410000017862957276530215811_" gradientUnits="userSpaceOnUse" x1="59.5825" y1="122.2143" x2="89.7225" y2="101.6515" gradientTransform="matrix(1 0 0 -1 0 148)">
	<stop  offset="0" style="stop-color:#FFF176"/>
	<stop  offset="1" style="stop-color:#00E0B8"/>
</linearGradient>
<path style="fill:url(#SVGID_00000155850876964836250410000017862957276530215811_);" d="M61.1,58.9c5.1-1.3,9.9-3.7,14.1-6.9
	c4.2-3.2,7.7-7.3,10.2-11.9c3.7-6.7,8.3-22.5,1.1-28.3c-0.1-0.1-0.3-0.2-0.5-0.2c-0.2,0-0.4,0-0.5,0.2c-0.1,0.1-0.2,0.3-0.3,0.5
	c0,0.2,0,0.4,0.1,0.5c4.2,9.5,1.9,21.1-3.8,29.5c-5.1,7.6-12.7,12-20.9,15.5C59.8,58,60.4,59.1,61.1,58.9z"/>
<linearGradient id="SVGID_00000049908517747359196260000012017718978244193431_" gradientUnits="userSpaceOnUse" x1="42.0778" y1="58.7716" x2="69.8696" y2="34.5311" gradientTransform="matrix(1 0 0 -1 0 148)">
	<stop  offset="0" style="stop-color:#FFF176"/>
	<stop  offset="1" style="stop-color:#00E0B8"/>
</linearGradient>
<path style="fill:url(#SVGID_00000049908517747359196260000012017718978244193431_);" d="M40.1,120.4c9.6,3.5,20.8-1.7,26.9-9.2
	c6.7-8.3,7.8-20.8,3.2-30.3c-0.2-0.2-0.4-0.3-0.6-0.4c-0.2-0.1-0.5,0-0.7,0.1c-0.2,0.1-0.4,0.3-0.5,0.5c-0.1,0.2-0.2,0.5-0.1,0.7
	c2.9,8.7,3.2,18.9-2.2,26.8c-6.2,9-15.4,10.8-25.6,10.6C39.5,119.1,39.5,120.2,40.1,120.4L40.1,120.4z"/>
<linearGradient id="SVGID_00000179616519159421131550000015896399771166899125_" gradientUnits="userSpaceOnUse" x1="18.5751" y1="25.4689" x2="36.9483" y2="7.4069" gradientTransform="matrix(1 0 0 -1 0 148)">
	<stop  offset="0" style="stop-color:#FFF176"/>
	<stop  offset="1" style="stop-color:#00E0B8"/>
</linearGradient>
<path style="fill:url(#SVGID_00000179616519159421131550000015896399771166899125_);" d="M15.7,144.3c14.3,5.4,23.8-13.9,24.1-25.2
	c0-1-1.3-1-1.6-0.2c-2.2,5.4-2.6,11.3-5.9,16.4c-3.8,5.9-9.5,8.7-16.5,7.7C15.1,142.9,15.1,144,15.7,144.3z"/>
<linearGradient id="SVGID_00000036221770003042052660000008249420143793868416_" gradientUnits="userSpaceOnUse" x1="55.9186" y1="125.9226" x2="67.9324" y2="116.0346" gradientTransform="matrix(1 0 0 -1 0 148)">
	<stop  offset="0" style="stop-color:#FFF176"/>
	<stop  offset="1" style="stop-color:#00E0B8"/>
</linearGradient>
<path style="fill:url(#SVGID_00000036221770003042052660000008249420143793868416_);" d="M65.7,17.6c-3.1-0.3-5.2,4.2-6.3,6.4
	c-1.7,3.4-3.1,7-3.9,10.7c0,0.1,0,0.2,0,0.3c0,0.1,0.1,0.2,0.1,0.3c0.1,0.1,0.2,0.1,0.2,0.2c0.1,0,0.2,0,0.3,0h0.2
	c4.7-0.4,10-5.9,12-9.9C69.7,22.9,69.8,17.9,65.7,17.6z M57.8,32.9c0.5-1.1,0.9-2.3,1.3-3.5l1.8,1.6C59.9,31.7,58.9,32.3,57.8,32.9
	L57.8,32.9z M62.1,30.1L59.7,28c0.2-0.6,0.4-1.1,0.7-1.7l3,2.7C63,29.4,62.5,29.8,62.1,30.1L62.1,30.1z M64.3,28c-1.1-1-2.3-2-3.4-3
	c0.3-0.5,0.5-1.1,0.8-1.6c1.1,1,2.5,2.3,3.6,3.3C65.1,27.2,64.7,27.6,64.3,28L64.3,28z M66.1,25.7L66,25.8c-1-0.9-2.6-2.4-3.7-3.4
	c0.4-0.6,0.9-1.2,1.4-1.7l0.3-0.3l3.1,3C66.9,24.2,66.6,24.9,66.1,25.7L66.1,25.7z M65,19.7c0.6-0.3,1.2-0.2,1.9,0.7
	c0.3,0.5,0.5,1,0.5,1.6L65,19.7z"/>
<linearGradient id="SVGID_00000129193463910889090090000011021206216775995306_" gradientUnits="userSpaceOnUse" x1="31.0353" y1="66.0401" x2="52.045" y2="51.5042" gradientTransform="matrix(1 0 0 -1 0 148)">
	<stop  offset="0" style="stop-color:#FFF176"/>
	<stop  offset="1" style="stop-color:#00E0B8"/>
</linearGradient>
<path style="fill:url(#SVGID_00000129193463910889090090000011021206216775995306_);" d="M41.6,71.8c-1.7,4.9-3.3,9.9-4.9,14.9
	c-1.6,5-5,16.4-4.5,16.6c3.1,1.4,7.7,0.5,10.7-0.8c2.1-0.9,3.9-2.2,5.5-3.9c1.5-1.7,2.7-3.6,3.5-5.8c1.5-4.2,2.1-9.8,0.5-14.1
	c-1.6-4.5-5-6.7-9.5-7.6c-0.3,0-0.5,0-0.8,0.1C41.9,71.4,41.7,71.6,41.6,71.8z M34.2,101.7c0.3-0.8,0.6-1.6,0.9-2.4l2.2,2.1
	C36.3,101.5,35.2,101.6,34.2,101.7z M40.7,100.7c-0.7,0.2-1.3,0.4-2,0.5l-3.1-3.1l0.6-1.8c1.1,1.1,3.3,3,4.7,4.3L40.7,100.7z
	 M42,100.2c-1.6-1.5-4-3.6-5.4-5l0.5-1.7l6.1,6C42.8,99.8,42.4,100,42,100.2z M44.3,98.9l-6.9-6.4c0.2-0.7,0.5-1.4,0.7-2.2l7.6,7.5
	C45.2,98.2,44.8,98.6,44.3,98.9z M46.6,97c-2.7-2.6-5.5-5.1-8.2-7.7l0.6-1.8c0-0.1,0-0.1,0-0.2l8.7,8.3C47.4,96.1,47,96.6,46.6,97z
	 M49,93.5c-0.2,0.3-0.3,0.7-0.5,1l-9-8.4c0.2-0.7,0.5-1.4,0.7-2.1l9.2,8.8C49.3,93,49.2,93.3,49,93.5z M49.9,91.4l-9.3-8.7l0.6-1.9
	c2.8,2.7,6.3,6,9.2,8.7C50.3,90.2,50.1,90.8,49.9,91.4z M50.7,87.7c-2.8-2.7-6.2-6-9-8.6l0.5-1.5c2.8,2.6,5.9,5.5,8.7,8.1
	C50.9,86.4,50.8,87.1,50.7,87.7L50.7,87.7z M50.1,79.1c-1.8-1.7-3.5-3.2-5.4-5c1.2,0.4,2.3,1,3.3,1.9C48.9,76.8,49.6,77.9,50.1,79.1
	z M50.7,81.4c0,0.1,0,0.1,0,0.2c0.1,0.7,0.2,1.4,0.2,2.1c-2.7-2.6-5.5-5.2-8.2-7.7c0.2-0.5,0.4-1.1,0.5-1.6L50.7,81.4z"/>
<linearGradient id="SVGID_00000014602029251955121130000014697208445452081810_" gradientUnits="userSpaceOnUse" x1="14.0546" y1="84.2674" x2="46.1031" y2="64.9646" gradientTransform="matrix(1 0 0 -1 0 148)">
	<stop  offset="0" style="stop-color:#FFF176"/>
	<stop  offset="1" style="stop-color:#00E0B8"/>
</linearGradient>
<path style="fill:url(#SVGID_00000014602029251955121130000014697208445452081810_);" d="M35.9,70.6c-1.6,0-3.2,0.3-4.7,0.9
	c-1.5,0.6-2.8,1.6-4,2.7c-1.5,1.5-2.6,3.3-3.5,5.2c-0.7,1.6-0.8,5-1.9,6.2c-0.8,0.9-1.3,0.6-1.8-1.1c-0.1-0.6-0.1-1.3-0.1-2
	c0-1.2,0.1-2.4,0.4-3.6c0.5-2.4,1.5-4.7,2.9-6.8c3.8-5.2,9.4-8.7,15.8-9.8c0.1,0,0.3-0.1,0.4-0.1s0.2-0.2,0.3-0.3
	c1.5-3.7,3.3-7.7,3.9-11.7c0-0.2,0-0.3,0-0.5c-0.1-0.2-0.1-0.3-0.3-0.4c-0.1-0.1-0.3-0.2-0.4-0.2c-0.2,0-0.3,0-0.5,0
	c-11.6,3.3-23,12.8-27,24.3c-3.7,10.7-0.5,23.4,10.1,28.7c0.3,0.1,0.5,0.1,0.8,0c0.3-0.1,0.5-0.3,0.6-0.5c4-9.7,7.5-19.7,10.3-29.9
	C37.3,71.1,36.5,70.6,35.9,70.6z M41.4,51.6c-0.2,0.8-0.4,1.7-0.7,2.5L39,52.5C39.8,52.2,40.6,51.9,41.4,51.6z M38.2,52.8l2.2,2.1
	c-0.2,0.6-0.4,1.1-0.6,1.6l-3.1-3C37.2,53.3,37.7,53.1,38.2,52.8z M35.9,54l3.6,3.4c-0.1,0.4-0.3,0.7-0.4,1.1
	c-0.1,0.4-0.2,0.7-0.4,1.1L34,55C34.6,54.7,35.3,54.3,35.9,54z M33.3,55.4c1.5,1.4,3.5,3.4,5.1,4.9c-0.2,0.3-0.4,0.5-0.6,0.8
	c-0.4,0-0.8,0.1-1.1,0.2l-5-4.8C32.2,56.1,32.8,55.8,33.3,55.4z M30.8,57.1l4.7,4.5c-0.8,0.2-1.6,0.4-2.4,0.6l-4-3.8
	C29.6,58,30.2,57.5,30.8,57.1z M28.2,59.1l3.7,3.6c-0.5,0.2-1,0.4-1.6,0.7l-3.5-3.1C27.3,59.8,27.8,59.4,28.2,59.1L28.2,59.1z
	 M25.9,61.2l3.1,2.9c-0.6,0.3-1.2,0.7-1.9,1.2l-2.8-2.5C24.8,62.2,25.4,61.7,25.9,61.2L25.9,61.2z M23.4,63.8l2.5,2.3
	c-0.3,0.2-0.7,0.5-1,0.8c-0.2,0.2-0.4,0.3-0.6,0.5l-2.2-2.1C22.6,64.8,23,64.3,23.4,63.8L23.4,63.8z M21.5,66.2l2.1,1.9
	c-0.4,0.4-0.8,0.9-1.2,1.3l-1.9-1.8C20.8,67.1,21.2,66.6,21.5,66.2L21.5,66.2z M19.9,68.6l1.8,1.7c-0.4,0.5-0.7,1-1.1,1.5L19,70.2
	C19.3,69.7,19.6,69.1,19.9,68.6z M18.3,71.6c0.1-0.2,0.2-0.4,0.3-0.6l1.5,1.5c-0.3,0.5-0.6,1-0.8,1.5l-1.5-1.3
	C18,72.2,18.2,71.9,18.3,71.6z M17.6,73.4l1.4,1.3c-0.3,0.7-0.6,1.3-0.8,2l-1.3-1.3C17.1,74.7,17.3,74,17.6,73.4L17.6,73.4z
	 M16.6,76.6l1.3,1.2c-0.2,0.7-0.3,1.4-0.4,2.1l-1.3-1.3C16.3,78,16.4,77.3,16.6,76.6L16.6,76.6z M16,80l1.4,1.3
	c0,1.2,0.1,2.3,0.3,3.5l-1.8-1.6C15.9,82.1,15.9,81.1,16,80L16,80z M25.3,99.8c-3.3-1.9-6-4.8-7.5-8.4c2.7,2.5,5.3,4.9,7.9,7.4
	L25.3,99.8z M26.3,97.3c-3.2-3-6.4-6-9.7-9c-0.3-0.9-0.4-1.9-0.6-2.9c3.2,3,7.6,6.8,11,9.9L26.3,97.3z M27.7,93.8
	c-1.9-1.7-4-3.6-6.1-5.5c0.7-0.2,1.3-0.6,1.8-1.2l5,4.9L27.7,93.8z M28.8,90.8c-1.6-1.6-3.2-3.1-4.8-4.7c0.3-0.7,0.6-1.4,0.7-2.1
	l4.8,4.7L28.8,90.8z M29.9,87.6L25,82.8c0.2-0.7,0.4-1.3,0.6-1.9l2.7,2.6l2.2,2.2L29.9,87.6z M30.9,84.8l-2-1.9l-3-2.8
	c0.3-0.6,0.6-1.2,1-1.8l2.9,2.7l1.8,1.7C31.3,83.4,31.1,84.1,30.9,84.8L30.9,84.8z M31.9,81.9l-1.5-1.4l-3-2.8
	c0.3-0.5,0.7-0.9,1.1-1.4l3.1,2.9l0.9,0.9C32.2,80.6,32,81.3,31.9,81.9L31.9,81.9z M32.8,78.9l-0.5-0.5l-3.1-2.9
	c0.4-0.4,0.8-0.7,1.3-1l2.7,2.6l0.1,0.1L32.8,78.9z M33.7,75.9l-2.2-2.1c1-0.5,2-0.8,3.1-1C34.3,73.9,34,74.9,33.7,75.9L33.7,75.9z"
	/>
<linearGradient id="SVGID_00000160192278127785020700000006691260387249236865_" gradientUnits="userSpaceOnUse" x1="0.3121" y1="106.4926" x2="90.834" y2="46.592" gradientTransform="matrix(1 0 0 -1 0 148)">
	<stop  offset="0" style="stop-color:#FFF176"/>
	<stop  offset="1" style="stop-color:#00E0B8"/>
</linearGradient>
<path style="fill:url(#SVGID_00000160192278127785020700000006691260387249236865_);" d="M80,15.5l4.8,4.6l4.7,4.5
	c0-0.5,0.1-1,0.1-1.5l-4-3.8c-1.8-1.7-3.7-3.5-5.5-5.2c0-0.8,0.1-1.6,0-2.4c2.7,2.5,5.3,4.9,8.1,7.4c-0.1-0.8-0.2-1.6-0.3-2.4
	c-2.6-2.4-5.2-4.7-7.9-7.1c-0.1-0.6-0.2-1.2-0.3-1.8l8,7.4c-0.1-0.8-0.2-1.6-0.3-2.4c-2.8-2.6-5.6-5.1-8.5-7.6c0,0.1,0,0.3,0.1,0.4
	c-2.5-5.8-8.6-7.1-13.8-3.8c-6.6,4.1-10.7,12-13.9,18.9c-1.6,3.5-2.9,7.1-4,10.8c-0.5,1.6-0.6,4.8-1.8,5.9c-0.5,0.5-2.2,0.7-2.9,0.9
	c-1.3,0.4-2.5,0.8-3.8,1.3c-13.9,5-29.2,13.7-33.7,28.8c-2.3,7.8-2.6,18.1,1.1,25.5c3.3,6.5,9.7,10.7,16.3,13.3
	c-1.4,4.9-3.1,9.7-6.2,13.7c0.1-3.7-4.2-7-8.5-5.8c-6.4,1.8-8.6,9.7-5.7,15.2c0.8,1.6,2.1,2.9,3.6,3.9c1.5,1,3.2,1.5,5,1.7
	c2.8,2.8,5.7,5.6,8.6,8.3c0.6,0,1.2-0.1,1.8-0.1c-2.8-2.7-5.6-5.4-8.4-8.1c0.9,0,1.8-0.1,2.7-0.3c2.6,2.6,5.2,5.1,7.8,7.6
	c0.6,0,1.2-0.1,1.8-0.2c-2.7-2.6-5.4-5.3-8.2-7.9c0.5-0.2,1.1-0.4,1.6-0.6c2.7,2.6,5.5,5.1,8.2,7.7c0.4-0.2,0.8-0.4,1.1-0.7
	c-2.7-2.6-5.4-5.1-8.1-7.7l0.3-0.2c0.5-0.3,1-0.7,1.5-1.1c2.9,2.7,5.7,5.3,8.6,8c0.4-0.2,0.8-0.4,1.1-0.7c-2.9-2.8-5.8-5.5-8.7-8.3
	c0.5-0.5,0.9-1,1.3-1.5c2.6,2.5,5.2,5.1,7.9,7.6c0.2-0.4,0.4-0.7,0.6-1.1c-2.5-2.6-5.1-5.2-7.6-7.7c0.3-0.4,0.5-0.9,0.8-1.3
	c2.8,2.7,5.6,5.4,8.4,8.1c0.2-0.4,0.4-0.7,0.7-1.1c-2.7-2.8-5.5-5.6-8.3-8.4c0.2-0.4,0.4-0.8,0.6-1.2c2.6,2.6,5.2,5.2,7.8,7.9
	c0.2-0.4,0.5-0.8,0.7-1.2c-2.7-2.6-5.4-5.2-8-7.8c0.2-0.6,0.5-1.3,0.7-1.9c2.8,2.8,5.6,5.6,8.3,8.4c0.2-0.4,0.5-0.8,0.7-1.2
	c-2.9-2.8-5.8-5.6-8.7-8.4c0.2-0.8,0.5-1.5,0.7-2.3c2.9,2.8,5.7,5.6,8.6,8.3c0.2-0.5,0.3-1,0.4-1.5c-2.8-2.8-5.7-5.5-8.6-8.3
	c0.2-0.6,0.4-1.1,0.5-1.7c3,2.9,6,5.8,9,8.7c0.2-0.5,0.3-1,0.4-1.5c-3-2.9-5.9-5.8-9-8.6c0.2-0.7,0.5-1.4,0.8-2.1
	c2.6,2.5,5.2,5,7.9,7.4c0.1-0.1,0.3-0.1,0.4-0.1l1,0.1c0.2,0,0.3-0.1,0.5-0.1c-2.8-2.7-5.6-5.3-8.4-7.9c1,0.2,1.9,0.4,2.9,0.6
	c2.7,2.6,5.4,5.1,8.1,7.7c0.1-0.1,0.3-0.1,0.4-0.1l1,0.1c0.2,0,0.3-0.1,0.5-0.1c-2.6-2.5-5.2-4.9-7.9-7.4c1,0,2.1,0,3.1-0.1
	c2.8,2.7,5.5,5.3,8.3,8c0.5-0.1,0.9-0.2,1.4-0.3c-2.6-2.7-5.2-5.4-7.9-8c0.7-0.1,1.5-0.3,2.2-0.5c2.6,2.5,5.2,5.1,7.9,7.7
	c0.5-0.1,0.9-0.2,1.4-0.2c-2.5-2.7-5.1-5.3-7.7-7.9c0.6-0.2,1.2-0.5,1.8-0.7c2.5,2.6,5.1,5.2,7.7,7.7c0.4-0.2,0.8-0.4,1.2-0.6
	c-2.5-2.6-5.1-5.1-7.8-7.7c0.6-0.3,1.1-0.6,1.7-0.9c2.6,2.7,5.2,5.3,7.9,7.9c0.4-0.2,0.8-0.4,1.2-0.6c-2.6-2.7-5.4-5.4-8.1-8
	c0.4-0.3,0.9-0.6,1.3-0.9c2.6,2.5,5.2,5,7.9,7.5l0.1-0.1c0.3-0.2,0.5-0.4,0.8-0.7c-2.5-2.6-5.1-5.1-7.7-7.6c0.6-0.5,1.1-1,1.6-1.5
	c2.8,2.8,5.7,5.5,8.6,8.2l0.1-0.1l0.8-0.7c-2.8-2.8-5.6-5.7-8.5-8.4l-0.5,0.4c0.5-0.5,0.9-1,1.3-1.5c2.6,2.4,5.2,4.8,7.8,7.2
	c0.2-0.3,0.5-0.7,0.7-1c-2.5-2.4-5.1-4.8-7.6-7.3c0.3-0.5,0.6-0.9,0.9-1.4c2.7,2.5,5.4,5.1,8.2,7.6c0.2-0.3,0.5-0.7,0.7-1
	c-2.7-2.6-5.4-5.2-8.1-7.8c0.4-0.6,0.7-1.3,1-2c2.4,2.4,4.9,4.7,7.3,7.1c0.2-0.4,0.3-0.8,0.5-1.2c-2.4-2.4-4.7-4.9-7.1-7.3
	c0.2-0.4,0.3-0.8,0.4-1.2c0.1-0.2,0.1-0.3,0.2-0.5c2.6,2.5,5.1,5,7.6,7.5c0.2-0.4,0.3-0.8,0.4-1.2c-2.5-2.6-5.1-5.2-7.7-7.8
	c0.2-0.6,0.3-1.2,0.4-1.8c2.4,2.4,4.7,4.8,7,7.1c0.1-0.6,0.1-1.2,0.1-1.8l-7-6.8c0.1-0.8,0.2-1.6,0.2-2.5c2.5,2.5,4.9,5,7.4,7.5
	c0.1-0.6,0.1-1.2,0.1-1.8c-2.5-2.4-5-4.9-7.5-7.3c0-0.7,0-1.4-0.1-2.1c2,2,4.1,4,6.2,6c-0.1-0.7-0.2-1.5-0.3-2.2
	c-2-1.9-4-3.9-6.1-5.8c-0.1-1-0.3-1.9-0.5-2.8c2.3,2.3,4.6,4.5,6.9,6.7l-0.3-2.3c-2.4-2.3-4.8-4.6-7.2-6.8v0.2
	c-1-3.2-2.7-6.1-4.9-8.6v-0.2c0-0.4,0.1-0.8,0.2-1.2c-2.6-2.4-5.2-4.9-7.8-7.3l-0.9-0.8l0.7-1.9l0.6,0.5c2.8,2.7,5.6,5.3,8.4,8
	c0-0.1,0-0.2,0-0.3c0-0.4,0.1-0.8,0.2-1.2c-2.6-2.4-5.2-4.9-7.8-7.3l-1-0.9c0.1-0.4,0.2-0.8,0.3-1.3l9,8.3c0.2-0.5,0.5-1,0.8-1.5
	c-3.1-2.8-6.1-5.7-9.2-8.5c0.3-1,0.8-2,1.5-2.7c0.6-0.4,1.2-0.8,1.9-1c1,0.9,2,1.9,2.9,2.8c2.1,2,4.2,4.1,6.3,6.2l1.1-0.5
	c-2.2-2.2-4.4-4.3-6.6-6.5l-2.5-2.4c0.8-0.2,1.6-0.5,2.4-0.8l2.9,2.8c2.1,2,4.2,4.1,6.3,6.1l1.1-0.4c-2.2-2.2-4.4-4.3-6.7-6.5
	l-2.6-2.3c0.6-0.3,1.3-0.6,1.9-1l1.6,1.5c2.5,2.4,5,4.8,7.4,7.2l0.8-0.5c-2.6-2.4-5.1-4.8-7.7-7.2l-1.4-1.4c0.5-0.3,1-0.5,1.4-0.8
	l1.5,1.4c2.5,2.4,5,4.8,7.4,7.2l0.8-0.5c-2.6-2.4-5.1-4.8-7.7-7.2l-1.4-1.3l1.3-0.8l1.9,1.8c2.5,2.4,5,4.8,7.4,7.2l0.8-0.5
	c-2.6-2.4-5.1-4.8-7.7-7.2l-1.8-1.7l1.2-0.9l0.1,0.1c2.9,2.8,5.8,5.5,8.7,8.3c0.3-0.3,0.6-0.5,0.9-0.8L67.5,41
	c0.5-0.4,1-0.9,1.5-1.3l0.2,0.2c2.9,2.8,5.8,5.5,8.7,8.3c0.3-0.2,0.6-0.5,0.9-0.8c-3-2.8-5.9-5.5-8.9-8.3L69.8,39
	c0.4-0.4,0.9-0.8,1.3-1.3c2.9,2.7,5.8,5.4,8.7,8.1c0.4-0.4,0.7-0.8,1-1.2c-2.9-2.7-5.8-5.4-8.7-8c0.4-0.4,0.7-0.8,1-1.2
	c3,2.8,6,5.5,9,8.3c0.3-0.4,0.7-0.8,1-1.2c-3-2.8-6-5.6-9-8.4c0.3-0.5,0.7-1,1-1.5l0.8,0.8c2.7,2.6,5.3,5.1,7.9,7.7
	c0.2-0.3,0.4-0.6,0.6-1c-2.6-2.5-5.2-5-7.8-7.5l-1-0.9c0.3-0.6,0.6-1.1,0.9-1.7l0.9,0.9c2.6,2.6,5.3,5.1,7.9,7.7
	c0.2-0.3,0.4-0.6,0.6-0.9c-2.6-2.5-5.2-5-7.7-7.5L77,29c0.2-0.5,0.4-0.9,0.6-1.4l0.2-0.5l2,1.9c2.3,2.2,4.6,4.4,6.8,6.6
	c0.1-0.3,0.2-0.6,0.3-1c-2.2-2.1-4.4-4.1-6.6-6.2l-2.2-2.1c0.2-0.7,0.4-1.4,0.6-2.1l2.5,2.4c2.3,2.2,4.6,4.4,6.8,6.6
	c0.1-0.3,0.2-0.6,0.3-1c-2.2-2.1-4.4-4.1-6.6-6.2l-2.9-2.7c0.1-0.5,0.2-1,0.3-1.5l2.2,2.1c2.3,2.2,4.6,4.4,6.8,6.6
	c0.1-0.3,0.2-0.6,0.3-1c-2.2-2.1-4.4-4.1-6.6-6.2l-2.5-2.4c0.1-0.5,0.2-1,0.2-1.5l4.1,3.9l4.7,4.5c0-0.5,0.1-1,0.1-1.5l-4-3.8
	L79.8,18c0-0.4,0.1-0.8,0.1-1.2L80,15.5z M49.1,59.6c1.8,1.6,3.5,3.3,5.2,5c-1.9-1.5-4.1-2.6-6.4-3.3c0.2-0.7,0.5-1.4,0.7-2.1
	L49.1,59.6z M77.4,17.3c-1,10.4-6.1,18.3-14.8,24.1c-2.1,1.4-4.3,2.7-6.6,3.7c-1.6,0.7-4.5,1.2-5.8,2.2c-1.4,1.1-1.8,4.6-2.4,6.2
	c-0.9,2.7-1.8,5.3-2.7,8C45,61.7,45,61.9,45,62.1c0,0.2,0.1,0.4,0.1,0.6c0.1,0.2,0.2,0.3,0.4,0.4c0.2,0.1,0.3,0.2,0.5,0.2
	c13.2,3.4,18.1,18.9,13.7,30.8c-4.2,11.3-16.5,18.4-28.3,14.2c-0.3-0.1-0.6-0.2-1,0s-0.6,0.3-0.7,0.6c-4.2,8.7-4.7,25.4-18.1,24.7
	c-1.3,0-2.7-0.4-3.9-1c-1.2-0.6-2.3-1.5-3.1-2.5c-0.8-1.1-1.4-2.3-1.7-3.6s-0.3-2.7,0-4c0.3-1.4,0.9-2.7,1.9-3.8
	c1-1.1,2.2-1.9,3.5-2.3c4-1.1,8.4,2.9,6.1,6.5c-0.3,0.4-0.7,0.7-1.1,1.1c-0.8,0.7,0.4,2.1,1.3,1.4c6-4.7,8.4-11.8,10.4-18.8
	c0-0.3,0-0.5-0.1-0.7c-0.1-0.2-0.3-0.4-0.5-0.5c-6.8-2.6-13.9-6.9-16.8-13.9c-3.1-7.5-2.3-17.9,0.7-25.3
	c6.2-15.2,24.3-22.5,38.8-26.9c0.2-0.1,0.4-0.2,0.5-0.3c0.1-0.2,0.2-0.3,0.3-0.5c2.2-10.3,6.3-21.1,12.9-29.4
	c2.8-3.5,8.5-9,13.3-5.8C78.5,6.1,77.8,12.8,77.4,17.3L77.4,17.3z"/>
</svg>
