<svg width="207" height="102" viewBox="0 0 207 102" fill="none" xmlns="http://www.w3.org/2000/svg">
<path opacity="0.8" d="M7.092 46.24V47.104H10.704V46.24H7.092ZM6.684 46.24V51.448C6.684 52.564 7.02 52.84 8.124 52.84C8.364 52.84 9.888 52.84 10.14 52.84C11.244 52.84 11.496 52.288 11.616 50.332C11.364 50.272 10.98 50.116 10.776 49.948C10.716 51.676 10.62 51.988 10.092 51.988C9.744 51.988 8.472 51.988 8.22 51.988C7.668 51.988 7.572 51.904 7.572 51.448V46.24H6.684ZM6.636 42.472V43.336H10.284V47.92H11.16V42.472H6.636ZM0.972 44.596V52.912H1.704V45.364H5.04V52.756H5.784V44.596H0.972ZM1.344 49.432V50.104H5.388V49.432H1.344ZM1.344 51.364V52.096H5.388V51.364H1.344ZM0.684 42.388V43.204H6.048V42.388H0.684ZM2.412 42.616V45.148H3.06V42.616H2.412ZM3.756 42.616V45.148H4.416V42.616H3.756ZM2.532 45.136V46.312C2.532 46.96 2.412 47.752 1.704 48.364C1.824 48.424 2.028 48.604 2.112 48.712C2.856 48.028 3.036 47.068 3.036 46.324V45.136H2.532ZM3.696 45.136V47.632C3.696 48.22 3.84 48.328 4.32 48.328C4.416 48.328 4.824 48.328 4.908 48.328C5.244 48.328 5.412 48.22 5.472 47.968C5.316 47.92 5.112 47.86 4.992 47.764C4.98 47.8 4.944 47.8 4.812 47.8C4.74 47.8 4.428 47.8 4.368 47.8C4.236 47.8 4.212 47.776 4.212 47.632V45.136H3.696ZM12.672 48.784V49.588H23.328V48.784H12.672ZM17.508 47.668V52.936H18.42V47.668H17.508ZM17.1 49.096C16.116 50.368 14.184 51.508 12.432 52.048C12.636 52.228 12.9 52.576 13.044 52.804C14.796 52.168 16.752 50.884 17.844 49.432L17.1 49.096ZM18.84 49.12L18.084 49.48C19.176 50.896 21.132 52.12 22.956 52.72C23.088 52.48 23.364 52.132 23.556 51.952C21.732 51.46 19.812 50.368 18.84 49.12ZM17.04 45.796H18.924V47.116H17.04V45.796ZM17.04 43.816H18.924V45.112H17.04V43.816ZM16.26 43.108V47.824H19.716V43.108H16.26ZM17.664 41.92C17.592 42.352 17.424 42.988 17.28 43.408L17.988 43.564C18.168 43.18 18.372 42.604 18.564 42.064L17.664 41.92ZM12.756 44.26C13.356 44.752 14.064 45.448 14.376 45.928L14.796 45.268C14.484 44.812 13.764 44.14 13.152 43.684L12.756 44.26ZM14.94 46.024C15.288 46.708 15.624 47.632 15.72 48.208L16.356 47.956C16.248 47.404 15.9 46.504 15.54 45.832L14.94 46.024ZM15.24 43.672C14.748 44.764 13.872 46.3 13.176 47.236L13.764 47.512C14.46 46.588 15.312 45.136 15.948 43.948L15.24 43.672ZM14.304 42.004C14.064 42.7 13.608 43.684 13.26 44.296L13.86 44.56C14.232 43.96 14.664 43.048 15.024 42.268L14.304 42.004ZM12.648 47.164L12.744 47.944C13.62 47.8 14.688 47.656 15.792 47.476L15.78 46.828C14.592 46.96 13.464 47.092 12.648 47.164ZM19.644 44.164C20.28 44.716 21 45.496 21.312 46.024L21.78 45.4C21.456 44.896 20.724 44.14 20.1 43.612L19.644 44.164ZM21.876 45.928C22.284 46.684 22.68 47.668 22.8 48.304L23.472 48.028C23.34 47.416 22.92 46.432 22.5 45.7L21.876 45.928ZM22.176 43.66C21.684 44.764 20.772 46.312 20.064 47.26L20.652 47.536C21.372 46.6 22.248 45.136 22.884 43.948L22.176 43.66ZM21.3 41.968C21.06 42.664 20.592 43.648 20.232 44.26L20.832 44.524C21.216 43.924 21.66 43.024 22.032 42.232L21.3 41.968ZM19.692 47.164L19.8 47.944C20.676 47.824 21.768 47.68 22.872 47.536L22.86 46.876C21.672 46.984 20.532 47.092 19.692 47.164ZM26.712 44.224V44.884H29.64V44.224H26.712ZM26.592 51.76V52.444H30.336V51.76H26.592ZM26.052 46.912V47.512H30.06V46.912H26.052ZM25.668 45.544V47.5C25.668 48.88 25.512 50.764 24.396 52.132C24.564 52.24 24.888 52.528 25.008 52.696C26.232 51.208 26.46 49.036 26.46 47.524V45.544H25.668ZM26.112 45.544V46.216H29.628V48.22H26.088V48.892H30.444V45.544H26.112ZM26.268 49.636V52.948H27.048V50.32H29.82V52.864H30.624V49.636H26.268ZM31.428 43.372V50.02H32.292V43.372H31.428ZM34.128 42.148V51.784C34.128 52 34.044 52.072 33.816 52.072C33.6 52.084 32.88 52.096 32.064 52.06C32.196 52.324 32.34 52.732 32.376 52.96C33.456 52.972 34.104 52.948 34.476 52.792C34.848 52.648 35.004 52.384 35.004 51.772V42.148H34.128ZM27.564 42.04C26.976 43.024 25.884 44.248 24.396 45.136C24.576 45.268 24.852 45.556 24.972 45.76C26.556 44.728 27.66 43.468 28.344 42.496V42.232H28.056V42.04H27.564ZM27.732 42.04V42.676H27.912C28.788 43.312 29.88 44.368 30.444 44.992L31.044 44.32C30.432 43.684 29.292 42.712 28.38 42.04H27.732ZM41.844 43.936L41.424 44.8H47.532V43.936H41.844ZM43.344 46.54V47.368H47.256V46.54H43.344ZM43.332 49.18V50.032H47.424V49.18H43.332ZM42.888 44.212V52.96H43.812V44.212H42.888ZM42.3 42.064C41.712 43.828 40.74 45.58 39.648 46.696C39.852 46.84 40.212 47.164 40.344 47.32C41.448 46.084 42.492 44.2 43.176 42.292L42.3 42.064ZM39.42 41.968C38.736 43.792 37.62 45.592 36.42 46.756C36.588 46.972 36.864 47.452 36.948 47.668C38.256 46.324 39.492 44.272 40.284 42.244L39.42 41.968ZM38.136 45.064V52.948H39.048V44.176L39.024 44.164L38.136 45.064ZM54.24 41.44H53.748V53.44H54.24V41.44ZM64.368 43.18V43.972H71.316V43.18H64.368ZM67.356 41.932V52.96H68.232V41.932H67.356ZM68.604 48.604L67.956 48.82C68.604 50.236 69.816 51.64 71.028 52.348C71.16 52.132 71.436 51.808 71.628 51.64C70.44 51.064 69.228 49.84 68.604 48.604ZM65.664 47.332H69.972V48.4H65.664V47.332ZM65.664 45.628H69.972V46.684H65.664V45.628ZM64.86 44.956V49.084H70.812V44.956H64.86ZM66.948 48.616C66.264 49.864 64.92 51.112 63.636 51.7C63.84 51.88 64.116 52.192 64.248 52.408C65.556 51.7 66.924 50.32 67.668 48.868L66.948 48.616ZM60.96 42.448V52.972H61.776V43.264H63.792V42.448H60.96ZM63.516 42.448V42.688C63.264 43.516 62.82 44.944 62.388 46.036C63.252 46.972 63.468 47.788 63.468 48.436C63.468 48.796 63.408 49.12 63.216 49.252C63.12 49.324 62.988 49.36 62.844 49.36C62.652 49.384 62.424 49.372 62.148 49.348C62.28 49.576 62.352 49.924 62.364 50.14C62.64 50.152 62.94 50.152 63.18 50.128C63.42 50.092 63.636 50.02 63.804 49.912C64.14 49.672 64.272 49.168 64.272 48.52C64.272 47.776 64.08 46.936 63.192 45.94C63.6 44.98 64.044 43.744 64.392 42.76L63.816 42.412L63.672 42.448H63.516ZM72.672 46.156V46.924H83.4V46.156H72.672ZM73.272 42.952V43.708H82.968V42.952H73.272ZM77.508 41.932V43.444H78.42V41.932H77.508ZM73.62 46.54V48.148C73.62 49.408 73.464 51.16 72.324 52.444C72.528 52.552 72.9 52.852 73.044 53.02C74.268 51.64 74.52 49.6 74.52 48.16V46.54H73.62ZM74.868 44.224C76.872 44.704 79.332 45.58 80.676 46.204L81.36 45.676C79.956 45.076 77.496 44.224 75.576 43.756L74.868 44.224ZM80.352 43.444C79.116 44.404 76.524 45.244 74.448 45.676C74.568 45.832 74.736 46.12 74.808 46.288C76.98 45.808 79.524 44.908 81.036 43.816L80.352 43.444ZM80.364 46.792C79.248 47.488 77.124 48.004 75.336 48.244C75.516 48.424 75.696 48.7 75.816 48.892C77.688 48.58 79.812 48.004 81.096 47.188L80.364 46.792ZM81.108 48.244C79.92 49.168 77.592 49.828 75.444 50.14C75.624 50.32 75.804 50.608 75.912 50.812C78.168 50.428 80.508 49.708 81.876 48.64L81.108 48.244ZM82.212 49.672C80.796 51.124 77.904 51.928 74.712 52.264C74.88 52.468 75.06 52.804 75.144 53.032C78.48 52.624 81.432 51.736 83.028 50.08L82.212 49.672ZM84.552 49.684V50.428H95.448V49.684H84.552ZM84.792 43.228V43.96H95.16V43.228H84.792ZM86.316 47.164V47.716H93.612V47.164H86.316ZM91.764 48.808V51.964C91.764 52.12 91.716 52.156 91.5 52.18C91.296 52.18 90.648 52.18 89.856 52.156C89.988 52.408 90.12 52.732 90.168 52.972C91.128 52.972 91.752 52.972 92.148 52.84C92.532 52.72 92.64 52.48 92.64 51.976V48.808H91.764ZM86.7 50.932C87.42 51.376 88.272 52.06 88.668 52.54L89.268 51.952C88.848 51.472 87.972 50.824 87.264 50.392L86.7 50.932ZM86.892 42.208C87.252 42.592 87.672 43.132 87.864 43.48L88.632 43.12C88.416 42.772 87.984 42.256 87.624 41.896L86.892 42.208ZM86.58 45.268H93.384V48.34H86.58V45.268ZM85.752 44.68V48.928H94.248V44.68H85.752ZM92.172 41.908C91.98 42.328 91.608 42.952 91.32 43.348L91.992 43.6C92.328 43.24 92.736 42.7 93.096 42.184L92.172 41.908ZM90.564 43.576V45.748C90.564 46.42 90.78 46.564 91.68 46.564C91.86 46.564 93.024 46.564 93.216 46.564C93.756 46.564 93.972 46.456 94.032 46.168C93.828 46.144 93.564 46.072 93.396 45.976C93.372 46.036 93.312 46.048 93.096 46.048C92.88 46.048 91.944 46.048 91.764 46.048C91.416 46.048 91.356 46 91.356 45.76V43.576H90.564ZM88.548 43.564V45.004C88.548 45.568 88.344 46.18 86.796 46.468C86.952 46.6 87.156 46.876 87.24 47.044C88.956 46.6 89.328 45.808 89.328 45.004V43.564H88.548ZM103.301 43.4688H104.396L107.191 50.4238L109.98 43.4688H111.082L107.613 52H106.758L103.301 43.4688ZM102.943 43.4688H103.91L104.068 48.6719V52H102.943V43.4688ZM110.467 43.4688H111.434V52H110.309V48.6719L110.467 43.4688ZM114.434 45.6602V52H113.344V45.6602H114.434ZM113.262 43.9785C113.262 43.8027 113.314 43.6543 113.42 43.5332C113.529 43.4121 113.689 43.3516 113.9 43.3516C114.107 43.3516 114.266 43.4121 114.375 43.5332C114.488 43.6543 114.545 43.8027 114.545 43.9785C114.545 44.1465 114.488 44.291 114.375 44.4121C114.266 44.5293 114.107 44.5879 113.9 44.5879C113.689 44.5879 113.529 44.5293 113.42 44.4121C113.314 44.291 113.262 44.1465 113.262 43.9785ZM117.264 43V52H116.174V43H117.264ZM121.137 45.6602L118.371 48.6191L116.824 50.2246L116.736 49.0703L117.844 47.7461L119.812 45.6602H121.137ZM120.146 52L117.885 48.9766L118.447 48.0098L121.424 52H120.146ZM124.77 52.1172C124.328 52.1172 123.928 52.043 123.568 51.8945C123.213 51.7422 122.906 51.5293 122.648 51.2559C122.395 50.9824 122.199 50.6582 122.062 50.2832C121.926 49.9082 121.857 49.498 121.857 49.0527V48.8066C121.857 48.291 121.934 47.832 122.086 47.4297C122.238 47.0234 122.445 46.6797 122.707 46.3984C122.969 46.1172 123.266 45.9043 123.598 45.7598C123.93 45.6152 124.273 45.543 124.629 45.543C125.082 45.543 125.473 45.6211 125.801 45.7773C126.133 45.9336 126.404 46.1523 126.615 46.4336C126.826 46.7109 126.982 47.0391 127.084 47.418C127.186 47.793 127.236 48.2031 127.236 48.6484V49.1348H122.502V48.25H126.152V48.168C126.137 47.8867 126.078 47.6133 125.977 47.3477C125.879 47.082 125.723 46.8633 125.508 46.6914C125.293 46.5195 125 46.4336 124.629 46.4336C124.383 46.4336 124.156 46.4863 123.949 46.5918C123.742 46.6934 123.564 46.8457 123.416 47.0488C123.268 47.252 123.152 47.5 123.07 47.793C122.988 48.0859 122.947 48.4238 122.947 48.8066V49.0527C122.947 49.3535 122.988 49.6367 123.07 49.9023C123.156 50.1641 123.279 50.3945 123.439 50.5938C123.604 50.793 123.801 50.9492 124.031 51.0625C124.266 51.1758 124.531 51.2324 124.828 51.2324C125.211 51.2324 125.535 51.1543 125.801 50.998C126.066 50.8418 126.299 50.6328 126.498 50.3711L127.154 50.8926C127.018 51.0996 126.844 51.2969 126.633 51.4844C126.422 51.6719 126.162 51.8242 125.854 51.9414C125.549 52.0586 125.188 52.1172 124.77 52.1172Z" fill="white"/>
<path d="M202.929 25.1299L0 25.1299L0 26.0199L202.929 26.0199V25.1299Z" fill="white"/>
<path d="M207 22L190 22V29H207V22Z" fill="#00E0B8"/>
<path d="M8.974 8.594H9.996V6.802H13.104V5.794H9.996V4.296H8.974V5.794H7.294V6.802H8.974V8.594ZM4.088 8.594H5.11V6.802H6.762V5.794H5.11V4.296H4.088V5.794H0.952V6.802H4.088V8.594ZM9.814 8.986C9.226 10.89 8.302 12.332 7.014 13.424C5.726 12.304 4.788 10.848 4.2 9.084L3.22 9.35C3.892 11.282 4.844 12.864 6.132 14.082C4.704 15.034 2.898 15.664 0.714 16.084C0.91 16.336 1.204 16.84 1.316 17.106C3.584 16.588 5.46 15.874 6.986 14.796C8.456 15.902 10.318 16.644 12.614 17.036C12.754 16.742 13.048 16.28 13.272 16.056C11.088 15.706 9.31 15.062 7.882 14.096C9.24 12.892 10.262 11.324 10.948 9.266L9.814 8.986ZM20.846 14.236H25.004V13.368H20.846V12.332H19.81V13.368H15.778V14.236H19.81V15.762H14.476V16.672H26.362V15.762H20.846V14.236ZM20.846 8.958V7.782H19.81V8.958H17.388C18.186 8.286 18.83 7.558 19.362 6.788H21.434C21.938 7.586 22.624 8.314 23.394 8.958H20.846ZM26.446 6.788V5.836H19.922C20.146 5.388 20.342 4.926 20.496 4.478L19.404 4.296C19.25 4.8 19.012 5.332 18.732 5.836H14.336V6.788H18.088C17.136 7.992 15.75 9.112 13.874 9.882C14.084 10.064 14.378 10.47 14.504 10.736C15.582 10.246 16.52 9.672 17.304 9.028V9.784H19.81V11.114H15.344V11.982H25.34V11.114H20.846V9.784H23.506V9.042C24.346 9.728 25.298 10.274 26.264 10.638C26.418 10.372 26.726 9.994 26.964 9.784C25.242 9.238 23.576 8.104 22.554 6.788H26.446ZM29.512 12.094V9.238H32.648V6.144H34.734V9.21H37.912V12.08H34.734V15.51H32.662V12.094H29.512ZM35.742 15.51V13.004H38.458V12.99H38.962V8.314H35.742V6.144H39.648V5.178H27.874V6.144H31.654V8.328H28.504V13.004H31.654V15.51H27.496V16.462H39.984V15.51H35.742ZM49.4377 6.074C49.1717 5.598 48.6257 4.856 48.1357 4.296L47.3377 4.772C47.7997 5.332 48.3457 6.116 48.5977 6.606L49.4377 6.074ZM50.1237 6.648L49.9417 6.69H45.8957V7.642H49.4237C48.5697 9.364 47.0577 11.044 45.6017 11.968C45.7557 12.15 45.9797 12.668 46.0637 12.962C46.6377 12.556 47.2397 12.024 47.8137 11.436V17.05H48.7657V11.044C49.2837 11.618 49.9137 12.388 50.2077 12.794L50.8097 11.954C50.5437 11.646 49.5217 10.582 48.9757 10.064C49.6477 9.126 50.2357 8.104 50.6557 7.04L50.1237 6.648ZM55.0377 12.262V10.302H57.0257V12.262H55.0377ZM52.0557 12.262V10.302H54.0157V12.262H52.0557ZM54.0157 7.432V9.364H52.0557V7.432H54.0157ZM57.0257 7.432V9.364H55.0377V7.432H57.0257ZM55.0377 6.494V4.282H54.0157V6.494H51.1037V13.858H52.0557V13.2H54.0157V17.05H55.0377V13.2H57.0257V13.76H58.0197V6.494H55.0377ZM67.6097 5.78H69.4857V8.104C69.4857 9.056 69.6537 9.434 70.5077 9.434H71.2777C71.4877 9.434 71.7397 9.42 71.8937 9.364C71.8517 9.14 71.8237 8.776 71.8097 8.538C71.6697 8.58 71.4177 8.594 71.2637 8.594H70.5917C70.4237 8.594 70.4097 8.482 70.4097 8.118V4.842H66.7137V6.788C66.7137 7.586 66.5737 8.44 65.5797 9.098C65.7337 9.252 66.0277 9.686 66.1117 9.924C67.3577 9.112 67.6097 7.866 67.6097 6.816V5.78ZM62.7097 10.764H63.9137V12.556H62.7097V10.764ZM60.6937 12.556V13.41H65.8597V12.556H64.6977V10.764H65.5377V9.924H64.6977V8.356H63.9137V9.924H62.7097V8.356H61.9397V9.924H60.8337V10.764H61.9397V12.556H60.6937ZM64.6557 5.64V7.18H60.8057V5.64H64.6557ZM60.8057 8.02H65.6217V4.814H59.8817V9.644C59.8817 11.59 59.7977 14.25 58.8457 16.112C59.0697 16.21 59.4757 16.476 59.6297 16.644C60.6517 14.67 60.8057 11.702 60.8057 9.644V8.02ZM61.9957 13.9C61.7157 14.824 61.2397 15.762 60.6797 16.406C60.9177 16.532 61.2817 16.784 61.4497 16.938C61.9957 16.224 62.5417 15.146 62.8777 14.124L61.9957 13.9ZM63.6897 14.138C64.1657 14.782 64.6697 15.65 64.8937 16.238L65.7197 15.846C65.4817 15.286 64.9637 14.446 64.4597 13.816L63.6897 14.138ZM70.1437 11.184C69.8077 12.234 69.2897 13.158 68.6457 13.914C68.0157 13.13 67.5257 12.206 67.1897 11.184H70.1437ZM70.7177 10.19L70.5357 10.232H65.8597V11.184H66.4057L66.2937 11.212C66.6857 12.514 67.2597 13.648 67.9877 14.586C67.1897 15.328 66.2797 15.86 65.2857 16.21C65.4817 16.406 65.7197 16.812 65.8317 17.064C66.8537 16.658 67.8057 16.084 68.6177 15.3C69.3877 16.07 70.2977 16.658 71.3477 17.05C71.4877 16.798 71.7677 16.406 71.9637 16.21C70.9277 15.874 70.0317 15.328 69.2757 14.614C70.1997 13.55 70.8997 12.164 71.2917 10.428L70.7177 10.19ZM78.8377 5.612H84.0877V6.914H85.0117V4.772H77.9417V6.914H78.8377V5.612ZM76.8217 5.234C76.6257 6.214 76.2197 7.628 75.8837 8.496L76.5697 8.706C76.9337 7.88 77.3677 6.55 77.6897 5.472L76.8217 5.234ZM74.1197 8.496C74.0077 7.614 73.6997 6.312 73.3777 5.276L72.6357 5.458C72.9157 6.48 73.2237 7.824 73.3497 8.692L74.1197 8.496ZM79.2717 12.43V11.436H80.9937V12.43H79.2717ZM79.2717 9.756H80.9937V10.75H79.2717V9.756ZM83.7377 9.756V10.75H81.9457V9.756H83.7377ZM83.7377 12.43H81.9457V11.436H83.7377V12.43ZM85.2357 14.166H81.9457V13.144H84.6197V9.042H81.9457V8.062H84.7037V7.208H81.9457V6.13H80.9937V7.208H78.2217V8.062H80.9937V9.042H78.4177V13.144H80.9937V14.166H77.8017C77.7457 13.956 77.6757 13.648 77.6477 13.438L76.4577 14.012V10.106H77.8157V9.126H75.5477V4.422H74.6377V9.126H72.5097V10.106H73.6437C73.6017 12.906 73.4197 15.09 72.3697 16.364C72.6077 16.518 72.8877 16.826 73.0417 17.064C74.2597 15.608 74.4837 13.186 74.5397 10.106H75.5757V13.55C75.5757 14.096 75.2257 14.432 75.0157 14.586C75.1697 14.824 75.3657 15.356 75.4357 15.608C75.6457 15.412 75.9537 15.23 77.7317 14.32V15.076H80.9937V17.064H81.9457V15.076H85.2357V14.166ZM96.7577 7.684H91.9277V6.522H96.7577V7.684ZM96.7577 9.644H91.9277V8.454H96.7577V9.644ZM97.7797 5.71H94.3217C94.5037 5.346 94.6857 4.926 94.8677 4.534L93.7477 4.282C93.6497 4.688 93.4677 5.248 93.2857 5.71H90.9337V10.456H97.7797V5.71ZM89.6877 6.69C89.5617 7.726 89.2537 9.252 89.0157 10.176L89.6737 10.456C89.9397 9.56 90.2617 8.146 90.5557 7.026L89.6877 6.69ZM87.2237 10.386C87.1257 9.49 86.8317 7.922 86.5517 6.69L85.7677 6.858C86.0337 8.076 86.2997 9.7 86.3837 10.638L87.2237 10.386ZM90.3177 14.628C90.0377 14.25 88.9317 12.752 88.4837 12.234C88.6377 11.198 88.6657 10.134 88.6657 9.084V4.394H87.7137V9.098C87.7137 11.632 87.5177 14.236 85.7117 16.266C85.9357 16.406 86.2577 16.742 86.4117 16.966C87.4197 15.874 87.9657 14.628 88.2737 13.298C88.7637 13.984 89.3517 14.852 89.6177 15.328L90.3177 14.628ZM94.8537 15.804V14.39H97.7517V13.55H94.8537V12.262H98.3117V11.394H90.4577V12.262H93.8177V13.55H90.9897V14.39H93.8177V15.804H89.9677V16.714H98.6057V15.804H94.8537Z" fill="#00E0B8"/>
</svg>
