<svg width="156" height="32" viewBox="0 0 156 32" fill="none" xmlns="http://www.w3.org/2000/svg">
<path d="M124.29 15.1275C124.843 15.5777 124.843 16.4223 124.29 16.8725L116.426 23.2745C115.691 23.8729 114.59 23.3498 114.59 22.402L114.59 9.59796C114.59 8.65017 115.691 8.12714 116.426 8.72549L124.29 15.1275Z" stroke="#00E0B8" stroke-width="0.84375"/>
<path d="M139.609 15.1275C140.162 15.5777 140.162 16.4223 139.609 16.8725L131.745 23.2745C131.01 23.8729 129.91 23.3498 129.91 22.402L129.91 9.59796C129.91 8.65017 131.01 8.12714 131.745 8.72549L139.609 15.1275Z" stroke="#00E0B8" stroke-width="0.84375"/>
<path d="M154.928 15.1275C155.481 15.5777 155.481 16.4223 154.928 16.8725L147.064 23.2745C146.329 23.8729 145.229 23.3498 145.229 22.402L145.229 9.59796C145.229 8.65017 146.329 8.12714 147.064 8.72549L154.928 15.1275Z" stroke="#00E0B8" stroke-width="0.84375"/>
<rect x="0.5" y="0.5" width="101" height="31" rx="2.5" fill="#00E0B8" stroke="#00E0B8"/>
<path d="M34.056 12.288C33.88 11.536 33.4 10.32 32.952 9.408L31.624 9.856C32.04 10.8 32.472 12.064 32.632 12.8L34.056 12.288ZM29.64 9.984H28.136C27.992 9.504 27.8 8.944 27.624 8.496L26.072 8.768C26.2 9.136 26.344 9.568 26.456 9.984H24.92V11.44H29.64V9.984ZM22.776 12.432H21.656V10.736H22.776V12.432ZM21.656 19.184V17.232H22.776V18.992L21.656 19.184ZM22.776 15.68H21.656V13.984H22.776V15.68ZM24.728 10.736V9.04H19.608V10.736H20.28V19.424C19.992 19.472 19.72 19.52 19.48 19.552L19.8 21.136C20.712 20.944 21.736 20.736 22.776 20.528V23.408H24.184V10.736H24.728ZM26.552 19.872V18.848H28.04V19.872H26.552ZM28.04 16.592V17.584H26.552V16.592H28.04ZM32.968 15.216C32.712 16.08 32.392 16.912 31.992 17.664C31.896 16.8 31.816 15.824 31.752 14.752H34.392V13.152H31.672C31.608 11.68 31.576 10.096 31.576 8.464H29.96C29.992 10.128 30.024 11.696 30.088 13.152H28.888C29.016 12.704 29.176 12.192 29.336 11.664L27.896 11.456C27.848 11.936 27.704 12.608 27.56 13.152H26.696C26.632 12.64 26.488 11.984 26.328 11.472L25.032 11.696C25.16 12.144 25.272 12.672 25.336 13.152H24.6V14.752H30.168C30.28 16.656 30.456 18.32 30.712 19.664C30.312 20.16 29.896 20.608 29.448 21.008V15.328H25.112V22.288H26.552V21.12H28.04V21.504H28.872C28.52 21.792 28.152 22.032 27.784 22.256C28.152 22.528 28.632 23.008 28.84 23.312C29.64 22.816 30.424 22.176 31.144 21.44C31.56 22.64 32.12 23.328 32.872 23.344C33.432 23.344 34.136 22.784 34.52 20.384C34.264 20.208 33.624 19.712 33.384 19.344C33.304 20.56 33.144 21.264 32.952 21.264C32.728 21.248 32.52 20.8 32.344 20C33.192 18.848 33.912 17.472 34.408 15.952L32.968 15.216ZM40.312 20.288C39.336 20.88 37.48 21.424 35.88 21.648C36.264 22 36.76 22.624 37 23.024C38.648 22.64 40.568 21.808 41.656 20.896L40.312 20.288ZM44.616 21.088C45.96 21.648 47.832 22.496 48.76 23.024L50.104 21.984C49.08 21.472 47.192 20.672 45.896 20.192L44.616 21.088ZM45.288 12.544C45.064 12.928 44.728 13.408 44.472 13.776L45.048 13.952H40.68L41.544 13.744C41.416 13.408 41.16 12.944 40.904 12.544H45.288ZM43.928 18.192V17.488H48.728V16.112H43.928V15.392H49.48V13.952H46.392C46.68 13.664 47.016 13.312 47.368 12.928L45.864 12.544H50.088V11.056H48.024C48.424 10.496 48.856 9.776 49.304 9.04L47.304 8.576C47.08 9.264 46.648 10.24 46.28 10.88L46.856 11.056H45.432V8.448H43.64V11.056H42.44V8.448H40.68V11.056H39.208L39.976 10.768C39.768 10.16 39.24 9.2 38.76 8.528L37.128 9.072C37.496 9.68 37.912 10.448 38.152 11.056H35.976V12.544H40.056L38.984 12.784C39.192 13.136 39.432 13.584 39.576 13.952H36.632V15.392H42.04V16.112H37.432V17.488H42.04V18.192H35.944V19.76H42.04V23.408H43.928V19.76H50.136V18.192H43.928ZM62.84 19.12C62.552 19.536 62.216 19.904 61.832 20.24C61.112 19.84 60.376 19.472 59.704 19.12H62.84ZM63.976 17.808L63.688 17.856H58.488V19.12H58.872L58.232 19.888C58.92 20.256 59.672 20.688 60.456 21.12C59.624 21.536 58.648 21.84 57.608 22.016C57.912 22.368 58.248 22.976 58.408 23.392C59.736 23.088 60.968 22.64 61.976 22.016C62.84 22.528 63.608 23.024 64.152 23.408L65.112 22.144C64.632 21.824 63.976 21.424 63.256 21.024C64.024 20.272 64.616 19.344 65.016 18.176L63.976 17.808ZM64.808 10.128C64.376 10.64 63.64 11.312 63.032 11.792C62.744 11.568 62.456 11.328 62.184 11.072C62.792 10.64 63.48 10.064 64.136 9.52L62.776 8.544C62.392 8.992 61.8 9.568 61.272 10.016C60.904 9.568 60.6 9.056 60.36 8.512L58.84 8.96C59.608 10.672 60.68 12.096 62.072 13.2H59.016V14.336C59.016 15.056 58.872 15.824 57.88 16.48V13.296H55.784C57.08 12.32 58.152 11.072 58.792 9.504L57.624 8.928L57.304 9.008H53.128V10.496H56.28C56.008 10.864 55.688 11.2 55.352 11.52C54.888 11.168 54.216 10.784 53.672 10.512L52.584 11.52C53.064 11.792 53.64 12.16 54.072 12.48C53.24 13.008 52.328 13.44 51.384 13.712C51.72 14.048 52.184 14.688 52.408 15.104C52.904 14.928 53.384 14.72 53.864 14.48V14.736H56.184V15.856H53.352C53.208 17.12 52.952 18.704 52.728 19.744H56.088C55.976 20.832 55.832 21.344 55.64 21.52C55.496 21.664 55.32 21.68 55.064 21.68C54.712 21.68 53.928 21.664 53.128 21.6C53.416 22.032 53.64 22.688 53.672 23.184C54.52 23.216 55.352 23.216 55.784 23.168C56.344 23.136 56.728 23.008 57.064 22.64C57.48 22.224 57.672 21.184 57.848 19.024C57.864 18.8 57.88 18.368 57.88 18.368H54.552C54.6 18.016 54.648 17.632 54.712 17.264H57.88V16.784C58.2 17.072 58.664 17.536 58.84 17.808C60.168 16.96 60.552 15.76 60.6 14.64H62.072V15.568C62.072 16.864 62.328 17.408 63.672 17.408H64.664C65 17.408 65.368 17.392 65.592 17.312C65.528 16.944 65.496 16.4 65.464 16.016C65.256 16.08 64.872 16.096 64.648 16.096H63.864C63.656 16.096 63.624 15.968 63.624 15.584V14.208C64.2 14.512 64.792 14.768 65.448 14.976C65.704 14.512 66.184 13.84 66.584 13.472C65.768 13.248 65 12.944 64.296 12.576C64.888 12.16 65.576 11.648 66.184 11.104L64.808 10.128ZM80.024 18.8C79.56 19.152 78.968 19.552 78.424 19.872C78.088 19.552 77.784 19.2 77.544 18.8H80.024ZM75.112 16.096H77.496V17.2H75.112V16.096ZM75.112 13.408H77.496V14.512H75.112V13.408ZM71.032 10.736H79.496V11.792H71.032V10.736ZM80.568 18.8H82.248V17.2H79.256V16.096H81.56V14.512H79.256V13.408H81.416V9.136H69.112V13.872C69.112 16.416 68.984 20 67.4 22.464C67.88 22.64 68.712 23.136 69.096 23.44C70.776 20.816 71.032 16.656 71.032 13.872V13.408H73.368V14.512H71.368V16.096H73.368V17.2H71.032V18.8H72.36V20.464C72.36 21.28 71.88 21.728 71.544 21.952C71.768 22.288 72.136 23.04 72.232 23.488V23.472C72.568 23.248 73.128 23.12 76.648 22.352C76.648 21.968 76.712 21.248 76.808 20.784L74.12 21.296V18.8H75.752C76.824 21.152 78.568 22.688 81.352 23.376C81.592 22.88 82.088 22.176 82.456 21.792C81.384 21.6 80.456 21.264 79.656 20.816C80.344 20.464 81.08 20.016 81.72 19.584L80.568 18.8Z" fill="black"/>
</svg>
