<?xml version="1.0" encoding="utf-8"?>
<!-- Generator: Adobe Illustrator 26.0.3, SVG Export Plug-In . SVG Version: 6.00 Build 0)  -->
<svg version="1.1" id="圖層_1" xmlns="http://www.w3.org/2000/svg" xmlns:xlink="http://www.w3.org/1999/xlink" x="0px" y="0px"
	 viewBox="0 0 296 53" style="enable-background:new 0 0 296 53;" xml:space="preserve">
<style type="text/css">
	.st0{fill-rule:evenodd;clip-rule:evenodd;fill:#00E0B8;}
	.st1{fill:#00E0B8;}
</style>
<path d="M82.4,20.2v-2.5h11.4v2.5H82.4z M93.8,12.6v2.5H82.4v-2.5H93.8z M93.8,7.5V10H82.4V7.5H93.8z M88.6,4.8
	C89,3.9,89.4,3,89.7,2l-3.5-0.4c-0.1,1-0.4,2.1-0.6,3.1h-6.1v19.3h2.9v-1.2h11.4V24h3V4.8H88.6z"/>
<path d="M112.3,17.8c-0.7,1.5-2.1,3.1-3.4,4c0.6,0.5,1.4,1.3,1.8,1.9c1.4-1.2,2.8-3.3,3.5-5.2L112.3,17.8z M113.9,9.9h4.3v1.3h-4.3
	V9.9z M118.1,6.5v1.2h-4.3V6.5H118.1z M106.2,9.1c0,2-0.3,4.3-1.1,6.6c-0.5-0.5-1-1-1.5-1.4c0.3-1.5,0.6-3.2,1-5L106.2,9.1z
	 M122.8,17.3v-2.4h-5.2v-1.5h3.3V6.5h1.8V4.1h-1.8V1.7h-2.7v2.5h-4.3V1.7h-2.6v2.5h-1.7v2.2l-1,0V5.1h-2.4v1.5L105,6.6
	c0.2-1.6,0.4-3.2,0.5-4.7l-2.4-0.1c-0.1,1.5-0.3,3.2-0.5,4.9l-1.9,0.1l0.3,2.6l1.2-0.1c-0.3,2.1-0.7,4.1-1.2,5.6c0.9,0.9,2,2,3,3
	c-0.8,1.5-2,2.9-3.5,4.1c0.6,0.4,1.4,1.2,1.8,1.8c1.5-1.2,2.6-2.6,3.5-4c0.8,0.9,1.5,1.8,2,2.5l1.7-2.2c-0.6-0.8-1.5-1.7-2.5-2.7
	c1.2-3,1.5-6.1,1.6-8.6l1-0.1V6.5h1.7v6.9h3.5v1.5h-5.5v2.4h5.5v6.8h2.8v-6.8H122.8z M118.1,18.6c1.1,1.6,2.4,3.6,2.9,4.8l2.2-1
	c-0.6-1.2-2-3.2-3-4.7L118.1,18.6z"/>
<path d="M144.4,6.4h-1.3V5.3h1.3V6.4z M144.4,9.2h-1.3V8.1h1.3V9.2z M137.3,8.1h1.2v1.1h-1.2V8.1z M137.3,5.3h1.2v1.1h-1.2V5.3z
	 M141.4,8.1v1.1h-1.2V8.1H141.4z M140.2,6.4V5.3h1.2v1.1H140.2z M146.6,3.4h-3.1V1.7h-2.2v1.7h-1.1V1.7H138v1.7h-2.8v7.7h11.4V3.4z
	 M147,11.9h-12.2v2H147V11.9z M128.5,16c0.7,0.5,1.4,1.2,1.8,1.6l1-1.1v1.1c-1.1,0.5-2.1,1-2.9,1.3c0-0.8,0.1-1.5,0.1-2.2V16z
	 M128.1,4.4h3.3v1h-2.3v3.8h-0.9V4.4z M130.5,9.3V7h0.9v2.2H130.5z M132.6,12.1h-5.5v-1h5.5V12.1z M128.5,14h2.8v2
	c-0.5-0.5-1.3-1-2-1.4l-0.8,0.8V14z M134.7,13V9.3h-1V2.4h-7.8v6.8H125V13h1.2v3.7c0,1.9-0.1,4.3-1.3,6.1c0.5,0.2,1.6,1,2,1.4
	c0.8-1.2,1.2-3,1.4-4.6l0.6,1.3c0.8-0.5,1.5-1,2.3-1.5v2.2c0,0.2-0.1,0.3-0.3,0.3c-0.2,0-0.9,0-1.6,0c0.3,0.6,0.6,1.5,0.6,2.1
	c1.3,0,2.2,0,2.8-0.4c0.7-0.4,0.8-0.9,0.8-2V13H134.7z M142.6,19.4c-0.2,0.7-0.5,1.5-0.8,2.2h-1.9c-0.2-0.7-0.5-1.5-0.8-2.2H142.6z
	 M138.2,16.5h5.2v1.2h-5.2V16.5z M144.1,21.6c0.3-0.5,0.7-1.1,1.1-1.7l-1.8-0.5h2.7v-4.7h-10.3v4.7h2.5l-1.5,0.5
	c0.2,0.5,0.5,1.2,0.6,1.8h-2.8v2.1h12.7v-2.1H144.1z"/>
<path d="M166.8,13.6c-0.5-1-1.5-2.4-2.5-3.7c0.7-1.1,1.6-2.4,2.3-3.7l-2.4-0.6c-0.6,1.1-1.6,2.9-2.5,4.2c1.2,1.6,2.4,3.4,2.9,4.6
	L166.8,13.6z M160.1,5.6c-0.6,1.2-1.5,2.9-2.5,4.3c1.2,1.7,2.3,3.4,2.8,4.7l2.3-0.9c-0.5-1-1.5-2.5-2.5-3.8c0.8-1.1,1.6-2.5,2.3-3.7
	L160.1,5.6z M171,13.6c-0.6-1-1.7-2.5-2.7-3.7c0.8-1.1,1.7-2.4,2.4-3.7l-2.4-0.6c-0.6,1.2-1.6,2.9-2.6,4.3c1.4,1.6,2.6,3.4,3.2,4.7
	L171,13.6z M170.9,2.7H158v2.5h12.9V2.7z M158.2,15.8c-0.2-1.3-0.9-3.4-1.5-4.9l-2,0.6c0.2,0.6,0.4,1.2,0.6,1.9l-2.5,0.3
	c1.8-2.1,3.6-4.7,4.9-7.2l-2.4-1.4c-0.5,1.1-1,2.1-1.6,3.1l-1.6,0.1c1.2-1.7,2.4-3.8,3.2-5.7l-2.5-1c-0.8,2.5-2.4,5.2-2.9,5.9
	c-0.5,0.7-0.9,1.2-1.4,1.3c0.3,0.6,0.7,1.8,0.8,2.4c0.4-0.2,0.9-0.3,2.7-0.5c-0.7,1-1.2,1.7-1.5,2c-0.7,0.9-1.3,1.4-1.9,1.6
	c0.3,0.7,0.7,2,0.9,2.5c0.5-0.3,1.4-0.4,6.2-1.2c0.1,0.4,0.1,0.7,0.2,1L158.2,15.8z M149.7,17.4c-0.1,2-0.4,4.2-1,5.7
	c0.6,0.2,1.7,0.5,2.2,0.8c0.5-1.5,0.9-3.9,1.1-6.1L149.7,17.4z M152.4,17.8c0.2,1.6,0.5,3.6,0.5,5l2.2-0.4c-0.1-1.3-0.4-3.3-0.6-4.9
	L152.4,17.8z M154.9,17.3c0.4,1.2,0.9,2.7,1,3.7l2-0.7c-0.2-1-0.7-2.5-1.1-3.6L154.9,17.3z M165.8,20.9v-3.3h4.4v-2.5h-11.6v2.5h4.3
	v3.3h-5.4v2.6h13.7v-2.6H165.8z"/>
<path d="M192.3,2.7c-0.3,0.8-1,1.9-1.5,2.6l1.7,0.7c0.6-0.6,1.4-1.6,2.3-2.5L192.3,2.7z M181.9,5.9c0.5-0.5,1.2-1.4,2-2.2
	c0.6,0.7,1.2,1.5,1.6,2.1l1.8-1.4c-0.4-0.6-1.3-1.5-1.9-2.2l-1.7,1.3l-1.8-0.6c-0.3,0.7-1,1.8-1.5,2.5L181.9,5.9z M177.1,4.3
	c-0.4-0.6-1.3-1.5-1.9-2.2l-1.7,1.3c0.6,0.7,1.5,1.8,1.8,2.4L177.1,4.3z M189.9,21.5h-11.4v-1.4h11.4V21.5z M180.1,14.2h7.5v1.3
	h-7.5V14.2z M184.3,17.2h6.2v-4.8h-13v4.8h4.2c-0.1,0.3-0.3,0.7-0.4,1h-5.5v5.9h2.7v-0.6h11.4v0.6h2.8v-5.9h-9L184.3,17.2z
	 M185.6,9.4c1.5-0.5,2.5-1.1,3.2-1.9c1.2,0.6,2.4,1.3,3.3,1.9H185.6z M188,1.7c-0.2,3.4-0.6,5-4.8,6c0.5,0.4,1,1.2,1.3,1.8h-8.9
	c1.3-0.5,2.3-1.1,3-1.9c1,0.6,2.1,1.4,2.7,1.9l1.8-1.8c-0.8-0.6-2.2-1.4-3.4-2.1c0.4-1.1,0.5-2.4,0.6-3.9h-2.5
	c-0.2,3.5-0.7,5.2-4.8,6.1c0.4,0.4,0.9,1,1.2,1.6h-0.4V14h2.7v-2.4h15V14h2.9V9.4h-1l1.2-1.4c-1.1-0.7-3-1.7-4.6-2.5
	c0.4-1.1,0.5-2.3,0.6-3.8H188z"/>
<path d="M207.8,6.7h3.9c-0.8,0.8-1.7,1.5-2.6,2.2h-1.3V6.7z M213,17.2h-8.3v-1.5h8.3V17.2z M204.8,21v-1.6h8.3V21H204.8z
	 M218.8,11.4V8.9h-5.6c1.8-1.6,3.4-3.4,4.7-5.3l-2.4-1.2c-0.7,1.1-1.6,2.1-2.5,3V4.3h-5.2V1.7H205v2.6h-5.6v2.5h5.6v2.2h-7.7v2.5
	h8.2c-2.8,1.6-5.8,3-8.9,4c0.6,0.6,1.4,1.7,1.8,2.4c1.2-0.5,2.5-1,3.7-1.5v7.8h2.9v-0.7h8.3V24h3V13.4h-8.7c1-0.6,1.9-1.2,2.8-1.9
	H218.8z"/>
<path class="st0" d="M89.5,2.7c-0.2,0.4-0.3,0.9-0.5,1.3c-0.1,0.3-0.2,0.5-0.3,0.8h8.2V24h-3v-1.2H82.4v1.2h-2.9V4.8h6.1
	c0.3-1,0.5-2.2,0.6-3.1L89.7,2C89.6,2.3,89.5,2.5,89.5,2.7z M85,4h-5.6c-0.4,0-0.8,0.3-0.8,0.8v19.3c0,0.4,0.3,0.8,0.8,0.8h2.9
	c0.4,0,0.8-0.3,0.8-0.8v-0.4H93V24c0,0.4,0.3,0.8,0.8,0.8h3c0.4,0,0.8-0.3,0.8-0.8V4.8c0-0.4-0.3-0.8-0.8-0.8h-7.1
	c0.2-0.6,0.5-1.2,0.7-1.7c0.1-0.2,0.1-0.5-0.1-0.7c-0.1-0.2-0.3-0.3-0.6-0.4l-3.5-0.4c-0.4,0-0.8,0.2-0.8,0.7
	C85.4,2.3,85.2,3.2,85,4z M83.1,18.5v1H93v-1H83.1z M93,14.3v-1h-9.9v1H93z M93,9.2v-1h-9.9v1H93z M109.3,17.3v-2.4h5.5v-1.5h-3.5
	V6.5h-1.7v2.3l-1,0.1c-0.1,2.5-0.4,5.6-1.6,8.6c1,1,1.9,2,2.5,2.7l-1.7,2.2c-0.1-0.2-0.3-0.4-0.5-0.6c-0.3-0.4-0.6-0.8-1-1.3
	c-0.2-0.2-0.3-0.4-0.5-0.6c-0.1,0.2-0.3,0.4-0.4,0.7c-0.7,1-1.5,1.9-2.5,2.8c-0.2,0.2-0.4,0.3-0.6,0.5c-0.1-0.2-0.3-0.4-0.5-0.6
	c-0.2-0.2-0.5-0.5-0.7-0.7c-0.2-0.2-0.4-0.4-0.6-0.5c0.2-0.2,0.4-0.3,0.6-0.5c1.2-1.1,2.2-2.3,2.9-3.6c-1-1.1-2.1-2.1-3-3
	c0.4-1.4,0.7-3.1,1-4.9c0-0.3,0.1-0.5,0.1-0.8L101,9.4l-0.3-2.6l1.9-0.1c0.2-1.7,0.4-3.4,0.5-4.9l2.4,0.1c0,0.2,0,0.5-0.1,0.7
	c-0.1,1-0.2,2.1-0.4,3.2c0,0.3-0.1,0.5-0.1,0.8l1.2-0.1V5.1h2.4v1.4l1,0V4.1h1.7V1.7h2.6v2.5h4.3V1.7h2.7v2.5h1.8v2.4h-1.8v6.9h-3.3
	v1.5h5.2v2.4h-5.2v6.8h-2.8v-6.8H109.3z M112.3,17.8c0,0.1-0.1,0.2-0.1,0.3c-0.6,1.1-1.4,2.1-2.3,3c-0.1,0.1-0.2,0.2-0.3,0.2
	c-0.2,0.2-0.4,0.3-0.6,0.5c0.1,0.1,0.1,0.1,0.2,0.2c0.1,0.1,0.2,0.2,0.4,0.3c0.3,0.3,0.6,0.6,0.8,0.8c0.2,0.2,0.3,0.4,0.5,0.6
	c0.2-0.2,0.4-0.3,0.6-0.5c1-1,2-2.5,2.7-4c0,0,0,0,0-0.1c0.1-0.2,0.2-0.4,0.3-0.6L112.3,17.8z M114.1,20.8c-0.8,1.4-1.8,2.6-2.8,3.5
	c-0.2,0.1-0.4,0.2-0.6,0.2c-0.2,0-0.4-0.1-0.5-0.3c-0.3-0.5-1-1.2-1.5-1.6l-0.3,0.4c-0.1,0.2-0.4,0.3-0.6,0.3
	c-0.2,0-0.5-0.1-0.6-0.3c-0.3-0.5-0.8-1.1-1.3-1.7c-0.8,1.2-1.8,2.3-3.1,3.3c-0.2,0.1-0.4,0.2-0.6,0.2c-0.2,0-0.4-0.1-0.5-0.3
	c-0.2-0.2-0.4-0.5-0.7-0.8c-0.3-0.3-0.6-0.6-0.8-0.7c-0.2-0.1-0.3-0.3-0.4-0.6c0-0.2,0.1-0.5,0.3-0.6c1.3-1.1,2.3-2.2,3.1-3.4
	c-0.9-0.9-1.8-1.8-2.6-2.6c-0.2-0.2-0.3-0.5-0.2-0.7c0.3-1.3,0.7-2.9,1-4.6l-0.3,0c-0.4,0-0.7-0.3-0.8-0.7L100,6.9
	c0-0.2,0-0.4,0.2-0.6c0.1-0.2,0.3-0.3,0.5-0.3L102,6c0.2-1.5,0.3-2.9,0.4-4.2c0-0.4,0.4-0.7,0.8-0.7l2.4,0.1c0.2,0,0.4,0.1,0.5,0.3
	c0.1,0.2,0.2,0.4,0.2,0.6c-0.1,0.7-0.1,1.5-0.2,2.3c0.1,0,0.1,0,0.2,0h2.4c0.1,0,0.2,0,0.2,0V4.1c0-0.4,0.3-0.8,0.8-0.8h0.9V1.7
	c0-0.4,0.3-0.8,0.8-0.8h2.6c0.4,0,0.8,0.3,0.8,0.8v1.7h2.8V1.7c0-0.4,0.3-0.8,0.8-0.8h2.7c0.4,0,0.8,0.3,0.8,0.8v1.7h1.1
	c0.4,0,0.8,0.3,0.8,0.8v2.4c0,0.4-0.3,0.8-0.8,0.8h-1.1v6.2c0,0.3-0.2,0.6-0.5,0.7h1.7c0.4,0,0.8,0.3,0.8,0.8v2.4
	c0,0.4-0.3,0.8-0.8,0.8h-1.5c0.9,1.4,2.1,3,2.6,4.1c0.1,0.2,0.1,0.4,0,0.6c-0.1,0.2-0.2,0.3-0.4,0.4l-2.2,1c-0.4,0.2-0.8,0-1-0.4
	c-0.4-0.9-1.2-2.2-2-3.5v3.8c0,0.4-0.3,0.8-0.8,0.8h-2.8c-0.4,0-0.8-0.3-0.8-0.8V20.8z M118.5,19.3c1,1.4,2,3.1,2.5,4.2l2.2-1
	c-0.1-0.2-0.2-0.4-0.4-0.7c-0.7-1.1-1.7-2.6-2.5-3.8c-0.1-0.1-0.1-0.2-0.2-0.3l-2.1,0.8c0.1,0.1,0.1,0.2,0.2,0.3
	C118.4,19.1,118.5,19.2,118.5,19.3z M110.1,19.8c0.5-0.5,0.9-1.1,1.2-1.7h-2c-0.4,0-0.8-0.3-0.8-0.8v-2.1c-0.2,0.7-0.4,1.4-0.7,2.2
	C108.7,18.2,109.5,19,110.1,19.8z M108.8,14.4c0.1-0.2,0.3-0.3,0.6-0.3h1.7c-0.3-0.1-0.5-0.4-0.5-0.7V7.3h-0.2v1.5
	c0,0.4-0.3,0.7-0.7,0.7l-0.3,0C109.3,11.1,109.1,12.7,108.8,14.4z M106.2,9.8c0-0.3,0-0.5,0-0.8l-1.6,0.1c-0.3,1.8-0.6,3.5-1,5
	c0.3,0.3,0.6,0.5,0.9,0.8c0,0,0.1,0.1,0.1,0.1c0.2,0.2,0.3,0.3,0.5,0.5c0.1-0.3,0.2-0.5,0.3-0.8C105.9,13.1,106.1,11.4,106.2,9.8z
	 M105.5,9.9l-0.2,0c-0.3,1.4-0.5,2.8-0.8,4.1c0.1,0.1,0.2,0.2,0.3,0.3C105.2,12.7,105.4,11.3,105.5,9.9z M146.6,2.7
	c0.4,0,0.8,0.3,0.8,0.8v7.7c0,0,0,0.1,0,0.1c0.3,0.1,0.5,0.4,0.5,0.7v2c0,0.4-0.3,0.8-0.8,0.8h-0.2c0,0,0,0,0,0v4.7
	c0,0.4-0.3,0.8-0.8,0.8h-0.2c0,0.1,0,0.1-0.1,0.2c-0.1,0.2-0.2,0.4-0.3,0.5h1.8c0.4,0,0.8,0.3,0.8,0.8v1.3c0,0,0,0,0,0
	c0.5-1.3,0.8-3.4,1-5.5c0-0.1,0-0.2,0.1-0.3c0-0.1-0.1-0.1-0.1-0.2c-0.1-0.5-0.6-1.7-0.9-2.4c-0.1-0.2-0.1-0.4,0-0.6
	c0.1-0.2,0.3-0.3,0.5-0.4c0.1,0,0.3-0.1,0.6-0.3c0.3-0.2,0.5-0.5,0.9-1l0,0c0.1-0.1,0.2-0.3,0.4-0.5c-0.4,0.1-0.6,0.1-0.7,0.2
	c-0.2,0.1-0.4,0.1-0.6,0s-0.4-0.3-0.4-0.5c-0.1-0.5-0.5-1.6-0.8-2.3c-0.1-0.2-0.1-0.4,0-0.6c0.1-0.2,0.3-0.3,0.5-0.4
	c0.2-0.1,0.5-0.3,1-1c0,0,0,0,0,0c0.5-0.6,1.9-3.2,2.8-5.7c0.1-0.2,0.2-0.4,0.4-0.4c0.2-0.1,0.4-0.1,0.6,0l2.5,1
	c0.2,0.1,0.3,0.2,0.4,0.4c0.1,0.2,0.1,0.4,0,0.6c-0.2,0.5-0.4,1-0.7,1.4c0.1,0,0.2,0,0.4,0.1l1.6,1c0-0.1,0-0.1,0-0.2V2.7
	c0-0.4,0.3-0.7,0.8-0.7h12.9c0.4,0,0.8,0.3,0.8,0.7v2.5c0,0.3-0.1,0.5-0.3,0.6c0,0,0,0,0,0c0.1,0.2,0.1,0.5,0,0.7
	c-0.7,1.1-1.4,2.3-2.1,3.3c1,1.2,1.9,2.5,2.5,3.4c0.1,0.2,0.1,0.4,0.1,0.6c-0.1,0.2-0.2,0.4-0.4,0.4l-0.5,0.2
	c0.1,0.1,0.2,0.3,0.2,0.5v2.5c0,0.4-0.3,0.8-0.8,0.8h-3.7v1.8h4.7c0.4,0,0.8,0.3,0.8,0.8v2.6c0,0.4-0.3,0.8-0.8,0.8h-13.7
	c-0.4,0-0.8-0.3-0.8-0.8v-2l-0.5,0.2c-0.1,0-0.2,0.1-0.4,0c0,0.2,0,0.4,0,0.5c0,0.4-0.2,0.7-0.6,0.8l-2.2,0.4c-0.2,0-0.4,0-0.6-0.2
	c-0.2-0.1-0.3-0.3-0.3-0.6c0-0.2,0-0.4,0-0.6c-0.2,0.8-0.3,1.4-0.5,2c-0.1,0.2-0.2,0.4-0.4,0.5c-0.2,0.1-0.4,0.1-0.6,0
	c-0.2-0.1-0.5-0.2-1-0.4c-0.3-0.1-0.6-0.2-0.9-0.3c-0.1,0-0.2-0.1-0.3-0.1c-0.2-0.1-0.4-0.2-0.4-0.4c0,0,0-0.1,0-0.1v0.3
	c0,0.4-0.3,0.8-0.8,0.8h-12.7c-0.4,0-0.7-0.3-0.7-0.7c-0.2,0.2-0.4,0.4-0.6,0.5c-0.4,0.2-0.9,0.4-1.4,0.4c-0.5,0.1-1.1,0.1-1.7,0.1
	c-0.4,0-0.7-0.3-0.7-0.7c-0.1-0.5-0.3-1.3-0.6-1.8c0-0.1-0.1-0.1-0.1-0.2c-0.3,0.9-0.6,1.8-1.1,2.6c-0.1,0.2-0.3,0.3-0.6,0.3
	c-0.2,0-0.4-0.1-0.6-0.2c-0.2-0.2-0.5-0.4-0.8-0.7c-0.4-0.3-0.7-0.5-0.9-0.6c-0.2-0.1-0.3-0.3-0.4-0.5c-0.1-0.2,0-0.4,0.1-0.6
	c1-1.6,1.2-3.8,1.2-5.7v-2.9H125c-0.4,0-0.8-0.3-0.8-0.8V9.3c0-0.4,0.3-0.8,0.8-0.8h0.2V2.4c0-0.4,0.3-0.8,0.8-0.8h7.8
	c0.4,0,0.8,0.3,0.8,0.8v0.7c0.1-0.3,0.4-0.5,0.7-0.5h2.1v-1c0-0.4,0.3-0.8,0.8-0.8h2.2c0.2,0,0.4,0.1,0.5,0.2
	c0.1-0.1,0.3-0.2,0.5-0.2h2.2c0.4,0,0.8,0.3,0.8,0.8v1H146.6z M130,21.1c0.2,0,0.4,0,0.5,0v-0.4C130.4,20.9,130.2,21,130,21.1z
	 M130.5,19.9c0.2-0.2,0.5-0.3,0.8-0.5v2.2c0,0.2-0.1,0.3-0.3,0.3c-0.1,0-0.4,0-0.8,0c-0.3,0-0.6,0-0.8,0c0.1,0.2,0.2,0.5,0.3,0.8
	c0.2,0.5,0.3,1,0.3,1.3c1.3,0,2.2,0,2.8-0.4c0.7-0.4,0.8-0.9,0.8-2V13h1.1V9.3h-1V2.4h-7.8v6.8H125V13h1.2v3.7
	c0,1.7-0.1,3.8-0.9,5.5c-0.1,0.2-0.2,0.4-0.4,0.7c0.2,0.1,0.4,0.2,0.7,0.4c0.3,0.2,0.5,0.3,0.8,0.5c0.2,0.2,0.4,0.3,0.6,0.5
	c0.1-0.2,0.3-0.4,0.4-0.7c0.4-0.8,0.7-1.7,0.8-2.6c0.1-0.4,0.1-0.8,0.2-1.2c0,0,0-0.1,0-0.1l0.6,1.3c0.2-0.1,0.4-0.3,0.6-0.4
	C129.9,20.3,130.2,20.1,130.5,19.9z M129.2,18.6c0.2-0.1,0.5-0.2,0.8-0.4c0.2-0.1,0.5-0.2,0.7-0.3c0.2-0.1,0.4-0.2,0.6-0.3v-1.1
	l-1,1.1c-0.1-0.1-0.2-0.2-0.3-0.2c-0.1-0.1-0.2-0.2-0.3-0.3c-0.2-0.2-0.4-0.3-0.5-0.5c-0.2-0.2-0.4-0.3-0.6-0.5c0,0-0.1-0.1-0.1-0.1
	v0.7c0,0.1,0,0.2,0,0.2c0,0.4,0,0.7,0,1.1c0,0.2,0,0.5,0,0.7c0,0,0,0.1,0,0.1c0.1,0,0.1,0,0.2-0.1C128.8,18.8,129,18.7,129.2,18.6z
	 M129.2,17.7c0,0,0.1,0,0.1-0.1c0,0-0.1-0.1-0.1-0.1C129.2,17.6,129.2,17.7,129.2,17.7z M129.6,14.7c0.3,0.2,0.6,0.4,0.9,0.7
	c0.2,0.1,0.4,0.3,0.5,0.4c0.1,0.1,0.2,0.1,0.2,0.2v-2h-2.8v1.4l0.8-0.8C129.4,14.6,129.5,14.7,129.6,14.7z M135.2,11.1h11.4V3.4
	h-3.1V1.7h-2.2v1.7h-1.1V1.7H138v1.7h-2.8V11.1z M134.8,11.9v2H147v-2H134.8z M134.4,14.6c0.1,0.1,0.3,0.1,0.4,0.1h0.2c0,0,0,0,0,0
	v4.7c0,0.4,0.3,0.8,0.8,0.8h0.3c0.1,0.2,0.2,0.5,0.3,0.7h-1.8c-0.1,0-0.1,0-0.2,0V14.6z M137.1,20.9c0.1,0.2,0.2,0.5,0.3,0.8h-2.8
	v2.1h12.7v-2.1h-3.1c0.2-0.2,0.3-0.5,0.5-0.8c0,0,0,0,0,0c0.1-0.1,0.1-0.2,0.2-0.3c0.1-0.1,0.2-0.3,0.3-0.4c0.1-0.1,0.1-0.2,0.2-0.2
	l-1.8-0.5h2.7v-4.7h-10.3v4.7h2.5l-1.5,0.5c0,0.1,0.1,0.2,0.1,0.3c0.1,0.1,0.1,0.3,0.2,0.4C137.1,20.7,137.1,20.8,137.1,20.9z
	 M139.3,20.2c0.2,0.5,0.4,1,0.5,1.5h1.9c0.2-0.5,0.4-1,0.6-1.5c0.1-0.3,0.2-0.5,0.2-0.8H139c0,0,0,0,0,0
	C139.1,19.7,139.2,19.9,139.3,20.2z M140.1,20.2c0.1,0.2,0.2,0.5,0.3,0.7h0.9c0.1-0.2,0.2-0.5,0.3-0.7H140.1z M130.5,21.6
	C130.5,21.6,130.5,21.6,130.5,21.6C130.5,21.6,130.5,21.6,130.5,21.6z M151.9,19.3c0.1-0.5,0.1-0.9,0.1-1.4c0,0,0,0,0-0.1l-2.3-0.4
	c0,0.2,0,0.5-0.1,0.7c-0.1,1.5-0.3,3-0.7,4.2c-0.1,0.3-0.2,0.5-0.2,0.7c0.1,0,0.2,0.1,0.3,0.1c0.1,0,0.3,0.1,0.5,0.1
	c0.3,0.1,0.6,0.2,0.8,0.3c0.3,0.1,0.5,0.2,0.7,0.3c0.1-0.2,0.1-0.5,0.2-0.7C151.4,22.1,151.7,20.7,151.9,19.3z M152.4,17.8
	C152.4,17.8,152.4,17.8,152.4,17.8c0.1,0.5,0.1,1,0.2,1.5c0.1,0.9,0.2,1.9,0.3,2.8c0,0.3,0,0.5,0,0.8l2.2-0.4c0-0.8-0.2-1.8-0.3-2.8
	c-0.1-0.5-0.1-0.9-0.2-1.4c0-0.2-0.1-0.5-0.1-0.7c0,0,0,0,0,0L152.4,17.8z M154.5,16.6c-0.1,0-0.1,0-0.2,0l-2,0.4c0,0,0,0-0.1,0
	c0,0-0.1,0-0.1,0l-0.6-0.1c0.8-0.1,1.9-0.3,3.7-0.6c0,0,0,0,0,0l-0.6,0.2C154.6,16.6,154.6,16.6,154.5,16.6z M155.1,18
	c-0.1-0.2-0.1-0.5-0.2-0.7c0,0,0,0,0,0l1.9-0.6c0,0.1,0.1,0.2,0.1,0.4c0.4,1.1,0.7,2.3,0.9,3.1c0,0,0,0.1,0,0.1l-2,0.7
	c0-0.2-0.1-0.5-0.2-0.7c-0.1-0.3-0.1-0.6-0.2-0.9C155.4,18.9,155.3,18.4,155.1,18z M157.5,20.9v2.6h13.7v-2.6h-5.4v-3.3h4.4v-2.5
	h-11.6v2.5h4.3v3.3H157.5z M162.1,20.2h-3.4c0,0,0,0,0,0c-0.1-0.5-0.3-1.2-0.5-1.9c0.1,0.1,0.2,0.1,0.4,0.1h3.6V20.2z M157.8,17.1
	v-0.4l-0.1,0C157.7,16.9,157.8,17,157.8,17.1z M158.2,15.8c0-0.2-0.1-0.5-0.2-0.7c0-0.1-0.1-0.3-0.1-0.4c-0.3-1.2-0.8-2.6-1.2-3.8
	l-2,0.6c0.1,0.2,0.1,0.4,0.2,0.7c0,0,0,0,0,0c0,0.1,0.1,0.3,0.1,0.4c0.1,0.2,0.1,0.5,0.2,0.7l-2.5,0.3c0.2-0.3,0.5-0.6,0.7-0.8
	c0.2-0.3,0.4-0.5,0.6-0.8c0.1-0.1,0.2-0.3,0.3-0.4c0.1-0.1,0.1-0.2,0.2-0.3c0.2-0.2,0.3-0.5,0.5-0.7c0.9-1.3,1.8-2.7,2.5-4l-2.4-1.4
	c-0.1,0.2-0.2,0.5-0.3,0.7c-0.4,0.8-0.8,1.6-1.3,2.4l-1.6,0.1c0.2-0.3,0.4-0.5,0.5-0.8c0.9-1.3,1.7-2.8,2.4-4.3
	c0.1-0.2,0.2-0.5,0.3-0.7l-2.5-1c-0.1,0.2-0.2,0.5-0.2,0.7c-0.9,2.3-2.1,4.6-2.6,5.2c-0.4,0.6-0.7,1-1.1,1.2
	c-0.1,0.1-0.2,0.1-0.3,0.1c0.1,0.2,0.2,0.4,0.3,0.7c0.1,0.3,0.2,0.6,0.3,0.9c0.1,0.3,0.2,0.5,0.2,0.7c0.2-0.1,0.4-0.2,0.7-0.2
	c0.2-0.1,0.5-0.1,1-0.2c0.3,0,0.6-0.1,1-0.1c-0.2,0.3-0.4,0.6-0.6,0.8c-0.4,0.5-0.7,0.9-0.9,1.2c-0.5,0.6-0.9,1.1-1.4,1.3
	c-0.2,0.1-0.3,0.2-0.5,0.2c0.1,0.2,0.2,0.4,0.3,0.7c0.1,0.4,0.3,0.7,0.4,1.1c0.1,0.3,0.2,0.6,0.2,0.7c0.2-0.1,0.4-0.2,0.7-0.2
	c0.8-0.2,2.2-0.4,5.5-0.9c0,0,0,0,0,0c0,0.1,0,0.2,0.1,0.3c0,0,0,0,0,0.1c0,0.1,0,0.2,0.1,0.3c0,0.1,0.1,0.3,0.1,0.4L158.2,15.8z
	 M156.3,10.2l0.2-0.1c0.1,0,0.2,0,0.4,0c0-0.2,0-0.4,0.1-0.6c0.8-1.1,1.6-2.5,2.1-3.6h-1c0.3,0.2,0.3,0.6,0.2,0.9
	C157.7,8,157,9.1,156.3,10.2z M170.9,5.2V2.7H158v2.5H170.9z M164.2,5.7c0,0.1-0.1,0.2-0.2,0.3c-0.6,1.1-1.5,2.7-2.4,3.9
	c1.2,1.5,2.2,3.2,2.8,4.4c0,0.1,0.1,0.1,0.1,0.2l2.3-0.9c-0.1-0.2-0.2-0.4-0.4-0.7c-0.6-0.9-1.4-2-2.1-3.1c0.6-0.9,1.3-2,1.9-3
	c0.1-0.2,0.3-0.5,0.4-0.7L164.2,5.7z M167.5,13.9c-0.1,0.2-0.2,0.4-0.4,0.4l-0.1,0h0.7C167.7,14.2,167.6,14,167.5,13.9z M168.6,14.3
	c0.1,0.1,0.1,0.2,0.2,0.3l2.3-1c-0.1-0.2-0.2-0.4-0.4-0.6c-0.6-0.9-1.5-2.1-2.3-3.1c0.7-0.9,1.4-2,2-3c0.1-0.2,0.3-0.5,0.4-0.7
	l-2.4-0.6c-0.1,0.1-0.1,0.2-0.2,0.4c-0.6,1.1-1.5,2.7-2.5,4C166.8,11.5,168,13.1,168.6,14.3z M163.6,14.3c-0.1-0.1-0.1-0.2-0.2-0.3
	c0,0,0,0,0,0c0,0.1-0.1,0.2-0.2,0.3H163.6z M162.7,13.7c-0.1-0.2-0.2-0.4-0.4-0.7c-0.5-1-1.3-2.1-2.1-3.2c0.6-0.9,1.3-2,1.9-3
	c0.1-0.2,0.3-0.5,0.4-0.7l-2.4-0.6c-0.1,0.1-0.1,0.2-0.2,0.4c-0.6,1.1-1.5,2.7-2.3,4c1.1,1.5,2.1,3.1,2.7,4.4
	c0.1,0.1,0.1,0.2,0.1,0.3L162.7,13.7z M159.5,14.3c-0.4-0.8-1-1.9-1.7-2.9c0.3,0.9,0.7,2,0.9,2.9H159.5z M129.1,9.3h-0.9V4.4h3.3v1
	h-2.3V9.3z M191.6,2.4c0.2-0.4,0.6-0.5,0.9-0.4l2.4,0.8c0.2,0.1,0.4,0.3,0.5,0.5c0.1,0.2,0,0.5-0.2,0.7c-0.1,0.2-0.3,0.3-0.4,0.5
	c-0.6,0.7-1.2,1.4-1.7,1.9c0.7,0.4,1.3,0.7,1.8,1c0.2,0.1,0.3,0.3,0.3,0.5c0,0.2,0,0.4-0.2,0.6l-0.3,0.4C195,9,195,9.2,195,9.4V14
	c0,0.4-0.3,0.8-0.8,0.8h-2.9c-0.1,0-0.2,0-0.2,0v2.5c0,0.1,0,0.2,0,0.2h1.6c0.4,0,0.8,0.3,0.8,0.8v5.9c0,0.4-0.3,0.8-0.8,0.8h-2.8
	c-0.3,0-0.6-0.2-0.7-0.6h-10c-0.1,0.3-0.4,0.6-0.7,0.6h-2.7c-0.4,0-0.8-0.3-0.8-0.8v-5.9c0-0.4,0.3-0.8,0.8-0.8h1c0-0.1,0-0.2,0-0.2
	v-2.5c-0.1,0-0.2,0.1-0.3,0.1h-2.7c-0.4,0-0.8-0.3-0.8-0.8V9.4c0-0.1,0-0.2,0.1-0.3c-0.2-0.3-0.4-0.5-0.6-0.7
	c-0.2-0.2-0.3-0.5-0.2-0.7c0.1-0.3,0.3-0.5,0.6-0.5c0.9-0.2,1.5-0.4,2.1-0.7c-0.1-0.1-0.2-0.1-0.2-0.2c-0.4-0.6-1.1-1.6-1.8-2.3
	c-0.1-0.2-0.2-0.4-0.2-0.6c0-0.2,0.1-0.4,0.3-0.5l1.7-1.3c0.3-0.2,0.7-0.2,1,0.1c0.1,0.1,0.1,0.1,0.2,0.2c0.3,0.4,0.7,0.8,1.1,1.2
	c0-0.4,0.1-0.8,0.1-1.3c0-0.4,0.4-0.7,0.7-0.7h2.5c0.2,0,0.4,0.1,0.5,0.2c0.1,0.1,0.2,0.3,0.2,0.6c0,0.3,0,0.6-0.1,0.9
	c0-0.1,0.1-0.1,0.1-0.2c0.2-0.3,0.6-0.5,0.9-0.4l1.5,0.5l1.4-1c0.3-0.2,0.7-0.2,1,0.1c0.4,0.4,0.9,1,1.3,1.5c0-0.4,0.1-0.9,0.1-1.4
	c0-0.4,0.3-0.7,0.7-0.7h2.6c0.2,0,0.4,0.1,0.5,0.2c0.1,0.1,0.2,0.3,0.2,0.6c0,0.5-0.1,1-0.1,1.5C191.4,2.9,191.5,2.6,191.6,2.4z
	 M190,5.4c0.1-0.2,0.1-0.4,0.2-0.6c0,0,0,0,0-0.1c0.2-0.7,0.3-1.5,0.3-2.4c0-0.2,0-0.5,0-0.8H188c0,0.8-0.1,1.5-0.2,2.2
	c0,0,0,0,0,0.1c-0.1,0.3-0.1,0.6-0.2,0.8c0,0.1-0.1,0.2-0.1,0.3c-0.5,1.1-1.5,1.8-3.4,2.3c-0.1,0-0.2,0-0.3,0.1
	c-0.2,0-0.4,0.1-0.6,0.1c0.1,0.1,0.3,0.3,0.4,0.5c0,0.1,0.1,0.1,0.1,0.2c0.1,0.1,0.2,0.3,0.3,0.4c0.2,0.3,0.3,0.5,0.4,0.8h-8.9
	c0.6-0.2,1.1-0.5,1.6-0.8c0.6-0.3,1-0.7,1.4-1.1c0.6,0.4,1.2,0.8,1.8,1.1c0.4,0.3,0.7,0.5,1,0.7l1.8-1.8c-0.2-0.1-0.3-0.2-0.5-0.4
	c0,0-0.1,0-0.1-0.1c-0.5-0.3-1-0.6-1.5-0.9c-0.3-0.2-0.6-0.3-0.9-0.5c-0.1-0.1-0.2-0.1-0.4-0.2c0.1-0.2,0.1-0.4,0.2-0.6
	c0.1-0.2,0.1-0.4,0.1-0.7c0.1-0.6,0.2-1.2,0.2-1.8c0-0.2,0-0.5,0-0.8h-2.5c0,0.8-0.1,1.5-0.2,2.1c0,0.1,0,0.2-0.1,0.3
	c-0.1,0.2-0.1,0.4-0.2,0.7c-0.1,0.2-0.2,0.4-0.2,0.6c-0.5,1.1-1.5,1.8-3.3,2.3c-0.3,0.1-0.5,0.1-0.8,0.2c0.2,0.2,0.4,0.4,0.6,0.6
	c0.1,0.1,0.1,0.1,0.2,0.2c0,0,0,0,0,0c0.2,0.2,0.3,0.5,0.4,0.7h-0.4V14h2.7v-2.4h15V14h2.9V9.4h-1l1.2-1.4c-0.2-0.1-0.4-0.3-0.6-0.4
	c-0.4-0.3-1-0.6-1.5-0.8c-0.1,0-0.1-0.1-0.2-0.1c-0.6-0.3-1.1-0.6-1.7-0.9c-0.2-0.1-0.3-0.2-0.5-0.2C190,5.5,190,5.5,190,5.4
	C190,5.5,190,5.5,190,5.4z M192.5,6C192.5,6,192.5,6,192.5,6c0.5-0.5,1.1-1.2,1.7-1.9c0,0,0.1-0.1,0.1-0.1c0.1-0.2,0.3-0.3,0.4-0.5
	l-2.4-0.8c-0.2,0.6-0.7,1.3-1.1,2c-0.1,0.2-0.2,0.3-0.3,0.5c0,0,0,0,0,0c0,0.1-0.1,0.1-0.1,0.2L192.5,6z M181.9,5.9
	c0.4-0.4,0.9-1,1.5-1.6c0-0.1,0.1-0.1,0.1-0.2c0.1-0.1,0.2-0.3,0.3-0.4c0,0,0,0,0,0l0.1,0.1c0,0,0.1,0.1,0.1,0.1
	c0.1,0.1,0.2,0.2,0.3,0.3c0.2,0.3,0.5,0.6,0.7,0.9c0.2,0.2,0.3,0.4,0.4,0.6l1.8-1.4c-0.1-0.1-0.1-0.2-0.2-0.3
	c-0.4-0.6-1.2-1.4-1.7-2l-1.7,1.3l-1.8-0.6c-0.2,0.5-0.6,1.2-1,1.8c0,0,0,0,0,0c-0.1,0.2-0.2,0.3-0.3,0.5c0,0-0.1,0.1-0.1,0.1
	L181.9,5.9z M184.9,6.3c-0.1-0.1-0.1-0.1-0.2-0.2c-0.2-0.3-0.6-0.8-0.9-1.3c-0.5,0.6-1,1.1-1.4,1.5c0.3,0.2,0.5,0.3,0.8,0.5
	C183.9,6.7,184.5,6.5,184.9,6.3z M183.1,8.6L183.1,8.6L183.1,8.6C183.1,8.7,183.1,8.7,183.1,8.6z M179,8.7c-0.1-0.1-0.2-0.1-0.3-0.2
	c-0.1,0.1-0.1,0.1-0.2,0.2H179z M176.8,3.9c-0.4-0.5-1-1.1-1.5-1.6c-0.1-0.1-0.1-0.1-0.2-0.2l-1.7,1.3c0.2,0.2,0.3,0.4,0.5,0.6
	c0.3,0.4,0.7,0.8,0.9,1.2c0.2,0.2,0.3,0.4,0.4,0.6l1.8-1.4C177,4.2,176.9,4.1,176.8,3.9z M181.3,18.2h-5.5v5.9h2.7v-0.6h11.4v0.6
	h2.8v-5.9h-9l0.6-1h6.2v-4.8h-13v4.8h4.2c-0.1,0.2-0.2,0.4-0.2,0.6c0,0,0,0.1,0,0.1C181.4,18,181.3,18.1,181.3,18.2z M187.3,8.7
	c-0.5,0.3-1.1,0.5-1.8,0.8h6.6c-0.4-0.2-0.8-0.5-1.2-0.8c-0.7-0.4-1.4-0.8-2.1-1.1C188.4,7.9,188,8.3,187.3,8.7z M188.7,8.7h0.7
	c-0.1-0.1-0.3-0.2-0.4-0.2C188.9,8.5,188.8,8.6,188.7,8.7z M219.5,11.4c0,0.4-0.3,0.8-0.8,0.8h-8.4c-0.2,0.1-0.4,0.3-0.6,0.4h6.2
	c0.4,0,0.8,0.3,0.8,0.8V24c0,0.4-0.3,0.8-0.8,0.8h-3c-0.4,0-0.7-0.3-0.7-0.6h-6.8c0,0.4-0.3,0.7-0.7,0.7h-2.9
	c-0.4,0-0.8-0.3-0.8-0.8v-6.7c-0.9,0.4-1.8,0.7-2.7,1.1c-0.3,0.1-0.7,0-0.9-0.3c-0.3-0.6-1.1-1.7-1.6-2.2c-0.2-0.2-0.2-0.5-0.2-0.7
	c0.1-0.3,0.3-0.5,0.5-0.5c2.1-0.7,4.2-1.5,6.2-2.5h-5.2c-0.4,0-0.8-0.3-0.8-0.8V8.9c0-0.4,0.3-0.8,0.8-0.8h7V7.5h-4.9
	c-0.4,0-0.8-0.3-0.8-0.8V4.3c0-0.4,0.3-0.8,0.8-0.8h4.9V1.7c0-0.4,0.3-0.8,0.8-0.8h2.8c0.4,0,0.8,0.3,0.8,0.8v1.8h4.5
	c0.2,0,0.4,0.1,0.5,0.2c0.5-0.6,0.9-1.2,1.3-1.8c0.2-0.3,0.6-0.4,1-0.2l2.4,1.2c0.2,0.1,0.3,0.3,0.4,0.5c0.1,0.2,0,0.4-0.1,0.6
	c-1,1.4-2.2,2.8-3.5,4.1h3.7c0.4,0,0.8,0.3,0.8,0.8V11.4z M213.2,8.9c0.3-0.2,0.5-0.5,0.8-0.8c1.3-1.2,2.4-2.5,3.5-3.9
	c0.2-0.2,0.3-0.4,0.5-0.6l-2.4-1.2c-0.5,0.8-1.1,1.5-1.7,2.2c-0.2,0.3-0.5,0.6-0.8,0.8V4.3h-5.2V1.7H205v2.6h-5.6v2.5h5.6v2.2h-7.7
	v2.5h8.2c-0.4,0.3-0.9,0.5-1.3,0.8c-2.2,1.2-4.5,2.2-6.8,3c-0.3,0.1-0.5,0.2-0.8,0.3c0.2,0.2,0.3,0.4,0.5,0.6c0.5,0.6,1,1.3,1.2,1.7
	c1-0.4,2-0.8,2.9-1.2c0.3-0.1,0.5-0.2,0.8-0.3v7.8h2.9v-0.7h8.3V24h3V13.4h-8.7c0.4-0.2,0.8-0.5,1.1-0.8c0.6-0.4,1.1-0.8,1.7-1.2
	h8.6V8.9H213.2z M209.7,7.5h-1.2v0.7h0.3C209.1,7.9,209.4,7.7,209.7,7.5z M207.8,6.7v2.2h1.3c0.6-0.5,1.2-0.9,1.8-1.4
	c0.3-0.2,0.6-0.5,0.8-0.8H207.8z M205.5,16.5h6.8v0L205.5,16.5L205.5,16.5z M205.5,20.1v0.1h6.8v-0.1H205.5z M82.4,20.2h11.4v-2.5
	H82.4V20.2z M93.8,12.6H82.4v2.5h11.4V12.6z M93.8,7.5H82.4V10h11.4V7.5z M113.9,9.9v1.3h4.3V9.9H113.9z M118.1,6.5h-4.3v1.2h4.3
	V6.5z M144.4,6.4V5.3h-1.3v1.1H144.4z M144.4,9.2V8.1h-1.3v1.1H144.4z M137.3,8.1v1.1h1.2V8.1H137.3z M137.3,5.3v1.1h1.2V5.3H137.3z
	 M141.4,8.1h-1.2v1.1h1.2V8.1z M140.2,6.4h1.2V5.3h-1.2V6.4z M130.5,9.3h0.9V7h-0.9V9.3z M132.6,12.1v-1h-5.5v1H132.6z M138.2,16.5
	v1.2h5.2v-1.2H138.2z M189.9,21.5v-1.4h-11.4v1.4H189.9z M180.1,14.2v1.3h7.5v-1.3H180.1z M213,17.2v-1.5h-8.3v1.5H213z M204.8,21
	h8.3v-1.6h-8.3V21z"/>
<path class="st1" d="M18,47.5v5H0l0-5H18z"/>
<path class="st1" d="M296,47.5v5h-18v-5H296z"/>
<path class="st0" d="M296,50H0v-1h296V50z"/>
</svg>
