<svg width="189" height="71" viewBox="0 0 189 71" fill="none" xmlns="http://www.w3.org/2000/svg">
<path opacity="0.8" d="M38.2917 47.968V51.376C38.2917 52.42 38.6757 52.684 40.0557 52.684C40.3557 52.684 42.5517 52.684 42.8637 52.684C44.0517 52.684 44.3397 52.288 44.4717 50.692C44.2317 50.632 43.8477 50.5 43.6557 50.356C43.5717 51.652 43.4757 51.868 42.8037 51.868C42.3237 51.868 40.4757 51.868 40.1037 51.868C39.3237 51.868 39.1797 51.796 39.1797 51.388V47.968H38.2917ZM43.0437 48.64C42.0357 49.096 40.2117 49.576 38.6517 49.876C38.7597 50.056 38.8917 50.356 38.9397 50.56C40.5597 50.26 42.4557 49.816 43.7397 49.3L43.0437 48.64ZM38.2917 53.692V58.96H39.1437V54.46H43.0557V58.9H43.9557V53.692H38.2917ZM38.7357 55.66V56.392H43.3797V55.66H38.7357ZM38.7117 57.652V58.396H43.4037V57.652H38.7117ZM33.3837 54.292L33.6357 55.156C34.7757 54.832 36.2757 54.376 37.6917 53.932L37.5717 53.104C36.0477 53.56 34.4397 54.016 33.3837 54.292ZM33.5277 50.344V51.196H37.5117V50.344H33.5277ZM35.2077 47.932V57.904C35.2077 58.084 35.1477 58.132 34.9797 58.132C34.8357 58.144 34.3317 58.144 33.7917 58.132C33.8997 58.36 34.0317 58.732 34.0557 58.948C34.8597 58.96 35.3517 58.936 35.6637 58.792C35.9877 58.66 36.0957 58.408 36.0957 57.904V47.932H35.2077ZM45.5637 55.804V56.536H56.4597V55.804H45.5637ZM48.5637 49.024V49.684H56.3997V49.024H48.5637ZM52.9557 54.976V57.988C52.9557 58.144 52.9077 58.192 52.7037 58.192C52.5117 58.204 51.8277 58.216 51.0717 58.192C51.1797 58.42 51.3237 58.732 51.3597 58.96C52.3557 58.972 52.9677 58.96 53.3517 58.84C53.7237 58.708 53.8317 58.48 53.8317 58V54.976H52.9557ZM47.6277 57.052C48.2637 57.448 49.0317 58.06 49.3797 58.492L50.0397 57.916C49.6557 57.496 48.8757 56.908 48.2277 56.536L47.6277 57.052ZM45.9717 48.652C46.5717 49.096 47.2797 49.756 47.5917 50.212L48.2157 49.66C47.9037 49.192 47.1837 48.58 46.5717 48.16L45.9717 48.652ZM50.0397 48.112C50.3157 48.472 50.5917 48.964 50.7117 49.3L51.4917 49.084C51.3717 48.748 51.0717 48.268 50.7837 47.932L50.0397 48.112ZM50.3757 51.772H54.5277V52.312H50.3757V51.772ZM50.3757 52.792H54.5277V53.332H50.3757V52.792ZM50.3757 50.776H54.5277V51.292H50.3757V50.776ZM49.5357 50.284V53.836H55.4037V50.284H49.5357ZM48.0357 51.052H45.6117V51.784H47.2077V53.644H48.0357V51.052ZM51.9597 49.252C51.9117 49.576 51.7917 50.08 51.6957 50.428L52.4037 50.548C52.5357 50.236 52.6917 49.804 52.8477 49.348L51.9597 49.252ZM54.1557 47.908C53.9997 48.232 53.6757 48.724 53.4477 49.072L54.1437 49.252C54.4077 48.94 54.7197 48.532 55.0077 48.1L54.1557 47.908ZM48.0357 53.332H47.4117C46.7997 53.74 46.1037 54.148 45.5397 54.436L45.8997 55.192C46.5357 54.772 47.1357 54.376 47.7237 53.968C48.3477 54.712 49.2477 55.024 50.5197 55.06C51.9237 55.108 54.8517 55.096 56.3037 55.036C56.3397 54.808 56.4597 54.472 56.5437 54.304C55.0077 54.388 51.8877 54.424 50.4957 54.376C49.3917 54.34 48.5037 54.028 48.0357 53.332ZM61.9077 48.952V49.636H68.3757V48.952H61.9077ZM61.5837 51.88V52.588H68.5557V51.88H61.5837ZM61.5717 56.332V57.076H68.5677V56.332H61.5717ZM62.7117 54.844V55.468H67.5717V54.844H62.7117ZM62.1477 50.392V51.064H68.1357V50.392H62.1477ZM63.3357 47.932V52.192H64.1517V47.932H63.3357ZM66.0597 47.932V52.192H66.8877V47.932H66.0597ZM64.6557 52.204V56.752H65.4237V52.204H64.6557ZM67.0677 53.284V58.048C67.0677 58.192 67.0317 58.228 66.8637 58.24C66.7077 58.252 66.1677 58.252 65.5917 58.228C65.6877 58.444 65.7957 58.744 65.8317 58.96C66.6237 58.96 67.1637 58.96 67.4877 58.84C67.8117 58.708 67.9077 58.492 67.9077 58.06V53.284H67.0677ZM62.2917 53.284V58.972H63.0717V53.956H67.3917V53.284H62.2917ZM57.9837 51.628V52.336H61.1757V51.628H57.9837ZM58.0557 48.352V49.072H61.1397V48.352H58.0557ZM57.9837 53.26V53.98H61.1757V53.26H57.9837ZM57.4677 49.96V50.704H61.4997V49.96H57.4677ZM58.4157 54.904V55.66H60.4557V57.664H58.4157V58.408H61.2237V54.904H58.4157ZM57.9717 54.904V58.96H58.7397V54.904H57.9717ZM70.3317 49.732V50.512H72.7677V52.276H70.3317V53.068H73.5837V49.732H70.3317ZM70.3437 54.172V54.952H72.8877V57.016H70.3437V57.784H73.6917V54.172H70.3437ZM69.9717 49.732V58.6H70.7877V49.732H69.9717ZM74.0517 48.556V49.384H80.4717V48.556H74.0517ZM71.4957 47.92C71.3757 48.52 71.1117 49.396 70.8957 49.972L71.6037 50.128C71.8917 49.6 72.2157 48.772 72.4797 48.064L71.4957 47.92ZM76.8237 48.904V58.948H77.6757V48.904H76.8237ZM74.5077 50.86V57.16H75.3357V51.676H79.7037V50.86H74.5077ZM79.2717 50.86V56.2C79.2717 56.32 79.2357 56.368 79.1037 56.368C78.9957 56.368 78.6117 56.368 78.1557 56.356C78.2757 56.584 78.3957 56.92 78.4197 57.148C79.0677 57.148 79.4877 57.148 79.7637 57.004C80.0517 56.86 80.1237 56.62 80.1237 56.212V50.86H79.2717ZM87.2517 47.44H86.7597V59.44H87.2517V47.44ZM94.0677 48.712C94.9197 49.072 95.9517 49.648 96.4557 50.092L96.9717 49.324C96.4557 48.892 95.3877 48.352 94.5477 48.04L94.0677 48.712ZM93.5037 52.024C94.3437 52.36 95.3757 52.924 95.8677 53.356L96.3717 52.588C95.8437 52.168 94.7997 51.64 93.9717 51.328L93.5037 52.024ZM93.8037 58.192L94.5357 58.84C95.3037 57.712 96.2037 56.212 96.8877 54.94L96.2637 54.328C95.4957 55.696 94.4877 57.28 93.8037 58.192ZM97.5477 48.88V49.732H104.28V48.88H97.5477ZM97.0197 57.616V58.468H104.436V57.616H97.0197ZM97.7277 53.068V53.932H104.124V53.068H97.7277ZM100.32 49.3V58.24H101.244V49.3H100.32ZM110.544 47.92V49.468H111.444V47.92H110.544ZM105.876 48.952V51.064H106.716V49.732H115.284V51.064H116.148V48.952H105.876ZM107.316 50.86V51.652H115.224V50.86H107.316ZM108.348 52.564V53.272H114.816V52.564H108.348ZM107.34 54.208V54.988H116.124V54.208H107.34ZM106.884 50.86V53.272C106.884 54.844 106.728 56.992 105.396 58.516C105.6 58.612 105.96 58.84 106.128 58.996C107.496 57.388 107.724 54.976 107.724 53.284V50.86H106.884ZM108.816 54.676V58.132L109.68 58V54.676H108.816ZM107.484 57.928L107.592 58.78C108.828 58.6 110.532 58.36 112.176 58.108L112.152 57.328C110.424 57.556 108.66 57.796 107.484 57.928ZM114.852 55.096C114.312 55.54 113.316 56.164 112.632 56.512L113.136 56.968C113.856 56.656 114.804 56.14 115.524 55.636L114.852 55.096ZM111.612 54.58L110.832 54.772C111.708 57.004 113.412 58.42 116.004 58.996C116.124 58.768 116.352 58.42 116.544 58.24C114.06 57.784 112.356 56.512 111.612 54.58ZM117.696 51.892V52.696H128.316V51.892H117.696ZM126.264 47.896C124.392 49.228 121.128 50.224 118.152 50.716C118.356 50.896 118.632 51.28 118.776 51.484C121.608 50.872 124.944 49.864 127.008 48.388L126.264 47.896ZM123 52.996V58.96H123.876V52.996H123ZM119.736 54.172V58.264H120.636V54.976H126.876V54.172H119.736ZM126.468 54.172V57.208C126.468 57.352 126.42 57.388 126.24 57.4C126.06 57.412 125.46 57.412 124.776 57.388C124.896 57.616 125.016 57.928 125.064 58.18C125.976 58.18 126.564 58.168 126.912 58.036C127.272 57.904 127.368 57.664 127.368 57.208V54.172H126.468ZM118.92 48.688C121.572 49.408 124.98 50.644 126.708 51.532L127.38 50.872C125.52 49.972 122.112 48.796 119.532 48.136L118.92 48.688ZM121.896 50.452C121.176 52.504 119.592 54.568 117.42 55.732C117.612 55.9 117.888 56.224 118.02 56.428C120.276 55.132 121.896 52.972 122.808 50.704L121.896 50.452ZM132.672 51.892V52.696H143.292V51.892H132.672ZM141.24 47.896C139.368 49.228 136.104 50.224 133.128 50.716C133.332 50.896 133.608 51.28 133.752 51.484C136.584 50.872 139.92 49.864 141.984 48.388L141.24 47.896ZM137.976 52.996V58.96H138.852V52.996H137.976ZM134.712 54.172V58.264H135.612V54.976H141.852V54.172H134.712ZM141.444 54.172V57.208C141.444 57.352 141.396 57.388 141.216 57.4C141.036 57.412 140.436 57.412 139.752 57.388C139.872 57.616 139.992 57.928 140.04 58.18C140.952 58.18 141.54 58.168 141.888 58.036C142.248 57.904 142.344 57.664 142.344 57.208V54.172H141.444ZM133.896 48.688C136.548 49.408 139.956 50.644 141.684 51.532L142.356 50.872C140.496 49.972 137.088 48.796 134.508 48.136L133.896 48.688ZM136.872 50.452C136.152 52.504 134.568 54.568 132.396 55.732C132.588 55.9 132.864 56.224 132.996 56.428C135.252 55.132 136.872 52.972 137.784 50.704L136.872 50.452ZM144.672 51.892V52.696H155.292V51.892H144.672ZM153.24 47.896C151.368 49.228 148.104 50.224 145.128 50.716C145.332 50.896 145.608 51.28 145.752 51.484C148.584 50.872 151.92 49.864 153.984 48.388L153.24 47.896ZM149.976 52.996V58.96H150.852V52.996H149.976ZM146.712 54.172V58.264H147.612V54.976H153.852V54.172H146.712ZM153.444 54.172V57.208C153.444 57.352 153.396 57.388 153.216 57.4C153.036 57.412 152.436 57.412 151.752 57.388C151.872 57.616 151.992 57.928 152.04 58.18C152.952 58.18 153.54 58.168 153.888 58.036C154.248 57.904 154.344 57.664 154.344 57.208V54.172H153.444ZM145.896 48.688C148.548 49.408 151.956 50.644 153.684 51.532L154.356 50.872C152.496 49.972 149.088 48.796 146.508 48.136L145.896 48.688ZM148.872 50.452C148.152 52.504 146.568 54.568 144.396 55.732C144.588 55.9 144.864 56.224 144.996 56.428C147.252 55.132 148.872 52.972 149.784 50.704L148.872 50.452Z" fill="white"/>
<path d="M14.364 23.26V24.718H30.708V23.26H14.364ZM37.548 27.724H40.482V26.608H37.548V24.772H40.86V23.638H38.844C39.24 22.99 39.654 22.216 40.032 21.496L38.844 21.064C38.574 21.82 38.052 22.9 37.638 23.638H32.994V24.772H36.288V26.608H33.444V27.724H36.288V29.848C34.812 30.046 33.462 30.208 32.382 30.334L32.58 31.612C34.884 31.288 38.232 30.82 41.364 30.37L41.328 29.182C40.068 29.362 38.772 29.524 37.548 29.704V27.724ZM33.948 21.496C34.506 22.144 35.082 23.008 35.316 23.602L36.306 23.044C36.072 22.45 35.46 21.604 34.902 21.01L33.948 21.496ZM48.6 20.758H46.872V16.006H45.576V20.758H41.4V19.804H38.7V19.066L39.42 19.498C40.014 18.886 40.77 17.968 41.418 17.14L40.338 16.546C39.96 17.212 39.24 18.22 38.7 18.868V15.952H37.602V19.804H36.216V15.952H35.136V18.778C34.83 18.13 34.128 17.194 33.48 16.528L32.634 17.068C33.282 17.788 33.984 18.814 34.29 19.462L35.136 18.886V19.804H32.382V20.956H41.31V22.018H45.576V30.712C45.576 31.018 45.45 31.108 45.144 31.126C44.874 31.144 43.902 31.144 42.822 31.108C43.02 31.468 43.236 32.044 43.308 32.386C44.766 32.386 45.612 32.35 46.134 32.134C46.656 31.9 46.872 31.54 46.872 30.712V22.018H48.6V20.758ZM44.586 27.49C44.388 26.392 43.686 24.718 42.93 23.422L41.814 23.818C42.552 25.132 43.218 26.842 43.398 27.94L44.586 27.49ZM50.364 23.26V24.718H66.708V23.26H50.364ZM84.186 20.11C83.952 19.3 83.34 18.022 82.746 17.068L81.756 17.428C82.35 18.4 82.908 19.714 83.142 20.524L84.186 20.11ZM79.578 17.878H77.634C77.454 17.338 77.148 16.618 76.878 16.06L75.78 16.294C75.996 16.78 76.212 17.374 76.392 17.878H74.178V18.94H79.578V17.878ZM72.198 20.452H70.308V17.932H72.198V20.452ZM70.308 25.276H72.198V27.724C71.55 27.868 70.902 28.012 70.308 28.138V25.276ZM72.198 24.16H70.308V21.586H72.198V24.16ZM74.124 17.932V16.708H68.328V17.932H69.282V28.354C68.868 28.408 68.49 28.498 68.148 28.552L68.418 29.704C69.516 29.434 70.848 29.146 72.198 28.822V32.386H73.26V17.932H74.124ZM75.636 28.822V27.13H78.192V28.822H75.636ZM78.192 24.502V26.158H75.636V24.502H78.192ZM83.394 23.494C83.016 24.736 82.494 25.888 81.882 26.932C81.702 25.69 81.558 24.178 81.468 22.504H84.654V21.334H81.396C81.306 19.66 81.27 17.842 81.252 15.952H80.082C80.118 17.842 80.172 19.66 80.244 21.334H78.426C78.624 20.74 78.858 19.984 79.074 19.3L77.958 19.102C77.868 19.732 77.634 20.65 77.436 21.334H76.158C76.068 20.704 75.87 19.804 75.654 19.12L74.682 19.264C74.862 19.912 75.006 20.704 75.096 21.334H73.872V22.504H80.316C80.442 24.754 80.64 26.752 80.928 28.336C80.424 29.038 79.83 29.686 79.236 30.262V23.53H74.574V31.054H75.636V29.794H78.192V30.28H79.2C78.714 30.73 78.21 31.144 77.688 31.486C77.922 31.666 78.282 31.99 78.462 32.206C79.452 31.522 80.388 30.676 81.252 29.668C81.72 31.342 82.35 32.314 83.25 32.332C83.844 32.35 84.456 31.63 84.78 28.93C84.582 28.822 84.114 28.498 83.916 28.264C83.79 29.902 83.574 30.874 83.286 30.874C82.818 30.856 82.458 29.992 82.134 28.516C83.088 27.202 83.88 25.69 84.456 24.016L83.394 23.494ZM93.744 16.006C93.69 18.742 93.798 27.49 86.328 31.27C86.742 31.558 87.174 31.954 87.408 32.314C91.8 29.974 93.708 25.942 94.536 22.342C95.4 25.69 97.326 30.136 101.826 32.242C102.024 31.864 102.42 31.414 102.798 31.108C96.444 28.282 95.364 20.758 95.094 18.616C95.184 17.554 95.202 16.654 95.22 16.006H93.744ZM119.25 20.02C119.034 21.226 118.764 22.504 118.494 23.35L119.556 23.656C119.988 22.504 120.402 20.632 120.69 19.03L119.808 18.76L119.592 18.814H115.56C115.776 17.968 115.956 17.068 116.118 16.15L114.84 15.934C114.444 18.598 113.688 21.19 112.518 22.846C112.824 23.008 113.382 23.332 113.634 23.512C114.264 22.576 114.786 21.37 115.218 20.02H119.25ZM108.576 27.202V29.056H106.362V27.202H108.576ZM109.656 30.046V26.212H105.228V30.82H106.362V30.046H109.656ZM113.76 25.078V23.89H112.032V17.986H113.364V16.834H104.49V17.986H110.826V23.89H104.292V25.078H110.934V31.018C110.934 31.216 110.88 31.288 110.646 31.288C110.412 31.306 109.656 31.306 108.846 31.288C109.008 31.576 109.152 31.99 109.224 32.296C110.358 32.296 111.096 32.278 111.546 32.098C111.996 31.936 112.14 31.684 112.14 31.036V25.078H113.76ZM108.522 21.784H106.416V20.002H108.522V21.784ZM105.408 19.048V22.738H109.602V19.048H105.408ZM117.252 21.1H116.028V22.324C116.028 24.862 115.74 28.642 112.338 31.504C112.608 31.738 113.04 32.17 113.238 32.458C115.218 30.748 116.244 28.75 116.748 26.806C117.468 29.128 118.512 30.838 120.24 32.404C120.402 32.044 120.78 31.648 121.122 31.396C118.908 29.542 117.864 27.382 117.216 23.782C117.234 23.278 117.252 22.792 117.252 22.324V21.1ZM136.062 19.426H130.428V17.752H136.062V19.426ZM136.062 22.162H130.428V20.452H136.062V22.162ZM137.394 16.672H129.132V23.242H137.394V16.672ZM126.324 18.886V26.392H124.218V18.886H126.324ZM127.566 17.644H122.976V29.344H124.218V27.634H127.566V17.644ZM129.888 30.496V28.588H136.674V30.496H129.888ZM136.674 25.654V27.454H129.888V25.654H136.674ZM128.574 24.502V32.368H129.888V31.666H136.674V32.278H138.024V24.502H128.574ZM151.074 20.524H154.224C153.882 22.738 153.414 24.628 152.658 26.212C151.938 24.538 151.416 22.594 151.074 20.524ZM144.648 18.976H146.466C146.07 19.588 145.656 20.2 145.188 20.758H144.648V18.976ZM156.726 20.524V19.264H151.47C151.758 18.274 151.992 17.23 152.19 16.15L150.858 15.934C150.336 18.922 149.418 21.784 148.05 23.656L147.42 23.188L147.168 23.26H144.54C144.99 22.846 145.404 22.396 145.818 21.946H148.95V20.758H146.772C147.654 19.534 148.41 18.202 149.022 16.726L147.78 16.366C147.42 17.266 146.988 18.112 146.502 18.922V17.824H144.648V15.934H143.406V17.824H141.048V18.976H143.406V20.758H140.292V21.946H144.09C142.956 23.08 141.624 24.052 140.166 24.79C140.436 25.042 140.922 25.564 141.12 25.816C141.876 25.384 142.596 24.88 143.298 24.34H146.106C145.512 24.916 144.738 25.546 144.054 25.942V27.184C142.632 27.346 141.336 27.508 140.31 27.634L140.472 28.858C141.498 28.732 142.722 28.552 144.054 28.372V30.946C144.054 31.144 144 31.198 143.748 31.216C143.514 31.216 142.758 31.234 141.858 31.198C142.038 31.558 142.218 32.008 142.29 32.368C143.424 32.368 144.198 32.368 144.684 32.17C145.188 31.972 145.332 31.648 145.332 30.964V28.21C146.502 28.03 147.69 27.868 148.878 27.706L148.86 26.536C147.672 26.698 146.484 26.86 145.332 27.004V26.284C146.286 25.636 147.312 24.772 148.05 23.908C148.392 24.142 148.824 24.538 149.022 24.754C149.454 24.124 149.886 23.422 150.228 22.63C150.642 24.466 151.164 26.158 151.866 27.616C150.84 29.164 149.454 30.352 147.582 31.234C147.852 31.522 148.248 32.116 148.392 32.44C150.156 31.522 151.524 30.37 152.586 28.948C153.468 30.388 154.566 31.54 155.934 32.35C156.132 31.972 156.546 31.486 156.87 31.216C155.43 30.46 154.278 29.218 153.396 27.688C154.494 25.762 155.16 23.404 155.592 20.524H156.726ZM168.606 21.55C168.282 21.226 167.814 20.884 167.31 20.56C167.706 20.182 168.048 19.804 168.354 19.408L167.418 19.102C167.166 19.444 166.842 19.768 166.518 20.056C166.05 19.804 165.582 19.534 165.132 19.336L164.466 19.93C164.88 20.128 165.33 20.362 165.762 20.632C165.222 21.01 164.646 21.352 164.052 21.622C164.286 21.802 164.664 22.144 164.79 22.324C165.384 22 165.996 21.622 166.59 21.154C167.112 21.532 167.58 21.874 167.886 22.198L168.606 21.55ZM168.552 18.328C168.228 18.076 167.796 17.788 167.31 17.482C167.688 17.122 168.012 16.762 168.3 16.384L167.364 16.132C167.13 16.42 166.842 16.726 166.518 17.014C166.05 16.762 165.6 16.528 165.168 16.348L164.52 16.942C164.916 17.122 165.366 17.338 165.78 17.59C165.276 17.932 164.736 18.256 164.178 18.508C164.412 18.67 164.79 18.994 164.934 19.156C165.492 18.868 166.05 18.49 166.608 18.076C167.094 18.382 167.562 18.724 167.85 18.994L168.552 18.328ZM160.182 23.368H172.836V25.6H174.15V22.342H172.746C172.89 20.74 173.052 18.418 173.142 16.636H168.984V17.554H171.846L171.792 18.526H169.074V19.444H171.738L171.648 20.416H168.966V21.334H171.576C171.54 21.694 171.504 22.018 171.468 22.342H161.604L161.532 21.334H164.034V20.416H161.478L161.406 19.444H163.962V18.526H161.352L161.28 17.644C162.216 17.464 163.278 17.23 164.07 16.942L163.458 16.114C162.576 16.384 161.028 16.816 159.984 16.996L160.344 22.342H158.904V25.6H160.182V23.368ZM174.51 27.742H167.31V27.418C168.732 26.842 170.262 26.05 171.378 25.186L170.568 24.52L170.298 24.592H161.838V25.6H168.876C168.012 26.122 166.968 26.626 166.014 26.968V27.742H158.508V28.876H166.014V30.91C166.014 31.162 165.942 31.216 165.636 31.234C165.366 31.234 164.358 31.234 163.242 31.198C163.422 31.54 163.638 31.99 163.71 32.332C165.132 32.332 166.032 32.35 166.608 32.152C167.166 31.954 167.31 31.648 167.31 30.946V28.876H174.51V27.742Z" fill="#00E0B8"/>
<rect x="0.5" y="0.5" width="188" height="70" stroke="#00E0B8"/>
</svg>
