<svg width="207" height="102" viewBox="0 0 207 102" fill="none" xmlns="http://www.w3.org/2000/svg">
<path opacity="0.8" d="M7.38 48.076V52.852H7.992V48.076H7.38ZM8.916 48.076V52.852H9.54V48.076H8.916ZM4.692 42.652V43.444H11.304V42.652H4.692ZM6.144 49.936V50.62H10.932V49.936H6.144ZM5.16 44.236V46.876C5.16 48.496 5.04 50.704 3.876 52.288C4.056 52.384 4.404 52.636 4.536 52.792C5.772 51.112 5.976 48.616 5.976 46.888V44.236H5.16ZM5.52 44.236V44.98H10.14V46.276H5.52V47.02H11.004V44.236H5.52ZM5.808 47.836V52.972H6.48V48.544H10.98V47.836H5.808ZM10.5 47.836V52.096C10.5 52.204 10.476 52.228 10.392 52.228C10.296 52.228 10.056 52.228 9.756 52.216C9.852 52.432 9.972 52.744 9.996 52.96C10.452 52.96 10.764 52.936 10.98 52.828C11.208 52.684 11.256 52.468 11.256 52.108V47.836H10.5ZM2.352 41.932C2.052 42.724 1.5 43.9 1.08 44.596L1.68 44.86C2.124 44.188 2.688 43.108 3.12 42.22L2.352 41.932ZM3.624 43.3C3 44.56 1.92 46.348 1.068 47.416L1.608 47.704C2.472 46.672 3.576 44.968 4.368 43.636L3.624 43.3ZM0.432 44.416C1.068 45.016 1.788 45.868 2.088 46.444L2.592 45.784C2.28 45.244 1.548 44.428 0.912 43.84L0.432 44.416ZM3.168 46.012C3.612 46.828 4.02 47.908 4.152 48.58L4.824 48.292C4.704 47.62 4.26 46.564 3.804 45.772L3.168 46.012ZM0.336 47.236L0.432 48.04C1.476 47.968 2.844 47.884 4.2 47.8V47.032C2.76 47.116 1.332 47.188 0.336 47.236ZM3.396 48.928C3.672 49.624 3.9 50.536 3.96 51.136L4.632 50.932C4.572 50.344 4.32 49.432 4.032 48.748L3.396 48.928ZM1.056 48.784C0.924 49.828 0.696 50.908 0.312 51.64C0.492 51.712 0.84 51.868 0.984 51.976C1.356 51.208 1.644 50.044 1.8 48.916L1.056 48.784ZM2.268 47.584V52.96H3.048V47.584H2.268ZM13.74 51.316V52.204H22.284V51.316H13.74ZM13.728 47.812V48.664H22.404V47.812H13.728ZM13.176 44.32V52.972H14.028V45.196H21.984V52.912H22.872V44.32H13.176ZM16.056 42.052V51.904H16.932V42.052H16.056ZM18.96 42.052V51.856H19.848V42.052H18.96ZM31.092 46.24V47.104H34.704V46.24H31.092ZM30.684 46.24V51.448C30.684 52.564 31.02 52.84 32.124 52.84C32.364 52.84 33.888 52.84 34.14 52.84C35.244 52.84 35.496 52.288 35.616 50.332C35.364 50.272 34.98 50.116 34.776 49.948C34.716 51.676 34.62 51.988 34.092 51.988C33.744 51.988 32.472 51.988 32.22 51.988C31.668 51.988 31.572 51.904 31.572 51.448V46.24H30.684ZM30.636 42.472V43.336H34.284V47.92H35.16V42.472H30.636ZM24.972 44.596V52.912H25.704V45.364H29.04V52.756H29.784V44.596H24.972ZM25.344 49.432V50.104H29.388V49.432H25.344ZM25.344 51.364V52.096H29.388V51.364H25.344ZM24.684 42.388V43.204H30.048V42.388H24.684ZM26.412 42.616V45.148H27.06V42.616H26.412ZM27.756 42.616V45.148H28.416V42.616H27.756ZM26.532 45.136V46.312C26.532 46.96 26.412 47.752 25.704 48.364C25.824 48.424 26.028 48.604 26.112 48.712C26.856 48.028 27.036 47.068 27.036 46.324V45.136H26.532ZM27.696 45.136V47.632C27.696 48.22 27.84 48.328 28.32 48.328C28.416 48.328 28.824 48.328 28.908 48.328C29.244 48.328 29.412 48.22 29.472 47.968C29.316 47.92 29.112 47.86 28.992 47.764C28.98 47.8 28.944 47.8 28.812 47.8C28.74 47.8 28.428 47.8 28.368 47.8C28.236 47.8 28.212 47.776 28.212 47.632V45.136H27.696ZM36.672 48.784V49.588H47.328V48.784H36.672ZM41.508 47.668V52.936H42.42V47.668H41.508ZM41.1 49.096C40.116 50.368 38.184 51.508 36.432 52.048C36.636 52.228 36.9 52.576 37.044 52.804C38.796 52.168 40.752 50.884 41.844 49.432L41.1 49.096ZM42.84 49.12L42.084 49.48C43.176 50.896 45.132 52.12 46.956 52.72C47.088 52.48 47.364 52.132 47.556 51.952C45.732 51.46 43.812 50.368 42.84 49.12ZM41.04 45.796H42.924V47.116H41.04V45.796ZM41.04 43.816H42.924V45.112H41.04V43.816ZM40.26 43.108V47.824H43.716V43.108H40.26ZM41.664 41.92C41.592 42.352 41.424 42.988 41.28 43.408L41.988 43.564C42.168 43.18 42.372 42.604 42.564 42.064L41.664 41.92ZM36.756 44.26C37.356 44.752 38.064 45.448 38.376 45.928L38.796 45.268C38.484 44.812 37.764 44.14 37.152 43.684L36.756 44.26ZM38.94 46.024C39.288 46.708 39.624 47.632 39.72 48.208L40.356 47.956C40.248 47.404 39.9 46.504 39.54 45.832L38.94 46.024ZM39.24 43.672C38.748 44.764 37.872 46.3 37.176 47.236L37.764 47.512C38.46 46.588 39.312 45.136 39.948 43.948L39.24 43.672ZM38.304 42.004C38.064 42.7 37.608 43.684 37.26 44.296L37.86 44.56C38.232 43.96 38.664 43.048 39.024 42.268L38.304 42.004ZM36.648 47.164L36.744 47.944C37.62 47.8 38.688 47.656 39.792 47.476L39.78 46.828C38.592 46.96 37.464 47.092 36.648 47.164ZM43.644 44.164C44.28 44.716 45 45.496 45.312 46.024L45.78 45.4C45.456 44.896 44.724 44.14 44.1 43.612L43.644 44.164ZM45.876 45.928C46.284 46.684 46.68 47.668 46.8 48.304L47.472 48.028C47.34 47.416 46.92 46.432 46.5 45.7L45.876 45.928ZM46.176 43.66C45.684 44.764 44.772 46.312 44.064 47.26L44.652 47.536C45.372 46.6 46.248 45.136 46.884 43.948L46.176 43.66ZM45.3 41.968C45.06 42.664 44.592 43.648 44.232 44.26L44.832 44.524C45.216 43.924 45.66 43.024 46.032 42.232L45.3 41.968ZM43.692 47.164L43.8 47.944C44.676 47.824 45.768 47.68 46.872 47.536L46.86 46.876C45.672 46.984 44.532 47.092 43.692 47.164ZM54.24 41.44H53.748V53.44H54.24V41.44ZM64.368 43.18V43.972H71.316V43.18H64.368ZM67.356 41.932V52.96H68.232V41.932H67.356ZM68.604 48.604L67.956 48.82C68.604 50.236 69.816 51.64 71.028 52.348C71.16 52.132 71.436 51.808 71.628 51.64C70.44 51.064 69.228 49.84 68.604 48.604ZM65.664 47.332H69.972V48.4H65.664V47.332ZM65.664 45.628H69.972V46.684H65.664V45.628ZM64.86 44.956V49.084H70.812V44.956H64.86ZM66.948 48.616C66.264 49.864 64.92 51.112 63.636 51.7C63.84 51.88 64.116 52.192 64.248 52.408C65.556 51.7 66.924 50.32 67.668 48.868L66.948 48.616ZM60.96 42.448V52.972H61.776V43.264H63.792V42.448H60.96ZM63.516 42.448V42.688C63.264 43.516 62.82 44.944 62.388 46.036C63.252 46.972 63.468 47.788 63.468 48.436C63.468 48.796 63.408 49.12 63.216 49.252C63.12 49.324 62.988 49.36 62.844 49.36C62.652 49.384 62.424 49.372 62.148 49.348C62.28 49.576 62.352 49.924 62.364 50.14C62.64 50.152 62.94 50.152 63.18 50.128C63.42 50.092 63.636 50.02 63.804 49.912C64.14 49.672 64.272 49.168 64.272 48.52C64.272 47.776 64.08 46.936 63.192 45.94C63.6 44.98 64.044 43.744 64.392 42.76L63.816 42.412L63.672 42.448H63.516ZM72.672 46.156V46.924H83.4V46.156H72.672ZM73.272 42.952V43.708H82.968V42.952H73.272ZM77.508 41.932V43.444H78.42V41.932H77.508ZM73.62 46.54V48.148C73.62 49.408 73.464 51.16 72.324 52.444C72.528 52.552 72.9 52.852 73.044 53.02C74.268 51.64 74.52 49.6 74.52 48.16V46.54H73.62ZM74.868 44.224C76.872 44.704 79.332 45.58 80.676 46.204L81.36 45.676C79.956 45.076 77.496 44.224 75.576 43.756L74.868 44.224ZM80.352 43.444C79.116 44.404 76.524 45.244 74.448 45.676C74.568 45.832 74.736 46.12 74.808 46.288C76.98 45.808 79.524 44.908 81.036 43.816L80.352 43.444ZM80.364 46.792C79.248 47.488 77.124 48.004 75.336 48.244C75.516 48.424 75.696 48.7 75.816 48.892C77.688 48.58 79.812 48.004 81.096 47.188L80.364 46.792ZM81.108 48.244C79.92 49.168 77.592 49.828 75.444 50.14C75.624 50.32 75.804 50.608 75.912 50.812C78.168 50.428 80.508 49.708 81.876 48.64L81.108 48.244ZM82.212 49.672C80.796 51.124 77.904 51.928 74.712 52.264C74.88 52.468 75.06 52.804 75.144 53.032C78.48 52.624 81.432 51.736 83.028 50.08L82.212 49.672ZM84.552 49.684V50.428H95.448V49.684H84.552ZM84.792 43.228V43.96H95.16V43.228H84.792ZM86.316 47.164V47.716H93.612V47.164H86.316ZM91.764 48.808V51.964C91.764 52.12 91.716 52.156 91.5 52.18C91.296 52.18 90.648 52.18 89.856 52.156C89.988 52.408 90.12 52.732 90.168 52.972C91.128 52.972 91.752 52.972 92.148 52.84C92.532 52.72 92.64 52.48 92.64 51.976V48.808H91.764ZM86.7 50.932C87.42 51.376 88.272 52.06 88.668 52.54L89.268 51.952C88.848 51.472 87.972 50.824 87.264 50.392L86.7 50.932ZM86.892 42.208C87.252 42.592 87.672 43.132 87.864 43.48L88.632 43.12C88.416 42.772 87.984 42.256 87.624 41.896L86.892 42.208ZM86.58 45.268H93.384V48.34H86.58V45.268ZM85.752 44.68V48.928H94.248V44.68H85.752ZM92.172 41.908C91.98 42.328 91.608 42.952 91.32 43.348L91.992 43.6C92.328 43.24 92.736 42.7 93.096 42.184L92.172 41.908ZM90.564 43.576V45.748C90.564 46.42 90.78 46.564 91.68 46.564C91.86 46.564 93.024 46.564 93.216 46.564C93.756 46.564 93.972 46.456 94.032 46.168C93.828 46.144 93.564 46.072 93.396 45.976C93.372 46.036 93.312 46.048 93.096 46.048C92.88 46.048 91.944 46.048 91.764 46.048C91.416 46.048 91.356 46 91.356 45.76V43.576H90.564ZM88.548 43.564V45.004C88.548 45.568 88.344 46.18 86.796 46.468C86.952 46.6 87.156 46.876 87.24 47.044C88.956 46.6 89.328 45.808 89.328 45.004V43.564H88.548ZM103.301 43.4688H104.396L107.191 50.4238L109.98 43.4688H111.082L107.613 52H106.758L103.301 43.4688ZM102.943 43.4688H103.91L104.068 48.6719V52H102.943V43.4688ZM110.467 43.4688H111.434V52H110.309V48.6719L110.467 43.4688ZM114.434 45.6602V52H113.344V45.6602H114.434ZM113.262 43.9785C113.262 43.8027 113.314 43.6543 113.42 43.5332C113.529 43.4121 113.689 43.3516 113.9 43.3516C114.107 43.3516 114.266 43.4121 114.375 43.5332C114.488 43.6543 114.545 43.8027 114.545 43.9785C114.545 44.1465 114.488 44.291 114.375 44.4121C114.266 44.5293 114.107 44.5879 113.9 44.5879C113.689 44.5879 113.529 44.5293 113.42 44.4121C113.314 44.291 113.262 44.1465 113.262 43.9785ZM117.264 43V52H116.174V43H117.264ZM121.137 45.6602L118.371 48.6191L116.824 50.2246L116.736 49.0703L117.844 47.7461L119.812 45.6602H121.137ZM120.146 52L117.885 48.9766L118.447 48.0098L121.424 52H120.146ZM124.77 52.1172C124.328 52.1172 123.928 52.043 123.568 51.8945C123.213 51.7422 122.906 51.5293 122.648 51.2559C122.395 50.9824 122.199 50.6582 122.062 50.2832C121.926 49.9082 121.857 49.498 121.857 49.0527V48.8066C121.857 48.291 121.934 47.832 122.086 47.4297C122.238 47.0234 122.445 46.6797 122.707 46.3984C122.969 46.1172 123.266 45.9043 123.598 45.7598C123.93 45.6152 124.273 45.543 124.629 45.543C125.082 45.543 125.473 45.6211 125.801 45.7773C126.133 45.9336 126.404 46.1523 126.615 46.4336C126.826 46.7109 126.982 47.0391 127.084 47.418C127.186 47.793 127.236 48.2031 127.236 48.6484V49.1348H122.502V48.25H126.152V48.168C126.137 47.8867 126.078 47.6133 125.977 47.3477C125.879 47.082 125.723 46.8633 125.508 46.6914C125.293 46.5195 125 46.4336 124.629 46.4336C124.383 46.4336 124.156 46.4863 123.949 46.5918C123.742 46.6934 123.564 46.8457 123.416 47.0488C123.268 47.252 123.152 47.5 123.07 47.793C122.988 48.0859 122.947 48.4238 122.947 48.8066V49.0527C122.947 49.3535 122.988 49.6367 123.07 49.9023C123.156 50.1641 123.279 50.3945 123.439 50.5938C123.604 50.793 123.801 50.9492 124.031 51.0625C124.266 51.1758 124.531 51.2324 124.828 51.2324C125.211 51.2324 125.535 51.1543 125.801 50.998C126.066 50.8418 126.299 50.6328 126.498 50.3711L127.154 50.8926C127.018 51.0996 126.844 51.2969 126.633 51.4844C126.422 51.6719 126.162 51.8242 125.854 51.9414C125.549 52.0586 125.188 52.1172 124.77 52.1172Z" fill="white"/>
<path d="M202.929 25.1299L0 25.1299L0 26.0199L202.929 26.0199V25.1299Z" fill="white"/>
<path d="M207 22L190 22V29H207V22Z" fill="#00E0B8"/>
<path d="M3.738 8.454C4.97 7.726 6.09 6.83 7.014 5.822C7.924 6.774 9.156 7.712 10.416 8.454H3.738ZM10.584 9.42V8.552C11.34 8.986 12.11 9.35 12.838 9.63C12.992 9.35 13.314 8.93 13.566 8.72C11.438 8.048 8.974 6.592 7.588 5.108C7.714 4.94 7.84 4.758 7.938 4.604L6.986 4.156C5.656 6.228 3.08 7.866 0.476 8.72C0.742 8.958 1.022 9.378 1.176 9.672C1.932 9.392 2.688 9.042 3.402 8.65V9.42H6.426V11.324H1.624V12.276H6.426V15.692H0.994V16.658H13.02V15.692H7.504V12.276H12.39V11.324H7.504V9.42H10.584ZM9.562 15.496C10.066 14.838 10.71 13.844 11.214 12.962L10.234 12.584C9.898 13.368 9.268 14.474 8.778 15.16L9.562 15.496ZM2.8 12.934C3.332 13.718 3.892 14.824 4.088 15.468L4.998 15.09C4.774 14.418 4.2 13.368 3.654 12.584L2.8 12.934ZM18.522 13.256C17.948 13.424 17.36 13.606 16.786 13.774V10.218H18.41V9.252H16.786V6.214H18.55V5.234H14.042V6.214H15.82V9.252H14.196V10.218H15.82V14.04C15.092 14.264 14.434 14.446 13.902 14.586L14.112 15.58C15.386 15.202 17.08 14.684 18.662 14.208L18.522 13.256ZM24.29 8.006C23.982 10.022 23.436 11.632 22.582 12.892C21.686 11.562 21.098 9.91 20.72 8.006H24.29ZM26.726 8.006V6.998H22.722L23.59 6.62C23.31 5.976 22.666 4.968 22.092 4.24L21.182 4.632C21.742 5.374 22.344 6.368 22.61 6.998H18.564V8.006H19.684C20.132 10.316 20.818 12.248 21.882 13.76C20.874 14.824 19.544 15.58 17.766 16.126C17.99 16.35 18.34 16.798 18.48 17.036C20.174 16.434 21.504 15.65 22.54 14.6C23.478 15.65 24.668 16.448 26.18 16.98C26.334 16.7 26.656 16.28 26.88 16.056C25.354 15.58 24.178 14.796 23.254 13.76C24.318 12.318 24.99 10.456 25.382 8.006H26.726ZM32.312 15.524V6.69H31.514V14.054H30.548V4.45H29.61V14.054H28.602V6.648H27.832V14.964H31.514V15.524H32.312ZM38.444 10.456C37.996 11.73 37.324 12.808 36.47 13.69C35.672 12.78 35.07 11.688 34.664 10.456H38.444ZM39.046 9.49L38.85 9.532H36.82V7.362H39.984V6.424H36.82V4.282H35.798V6.424H32.956V7.362H35.798V9.532H33.068V10.456H34.286L33.712 10.624C34.188 12.066 34.86 13.326 35.742 14.376C34.706 15.23 33.488 15.846 32.214 16.196C32.41 16.42 32.662 16.812 32.76 17.078C34.104 16.644 35.364 16 36.428 15.09C37.31 15.93 38.374 16.574 39.606 17.008C39.746 16.728 40.04 16.336 40.278 16.126C39.088 15.762 38.038 15.174 37.17 14.404C38.318 13.214 39.2 11.688 39.69 9.728L39.046 9.49ZM48.384 10.68L51.394 4.408L50.638 4.156L47.53 10.68L50.638 17.204L51.394 16.952L48.384 10.68ZM50.596 10.68L53.606 4.408L52.85 4.156L49.742 10.68L52.85 17.204L53.606 16.952L50.596 10.68ZM62.314 10.708V13.354H58.646V10.708H62.314ZM63.294 14.25V9.826H57.68V15.258H58.646V14.25H63.294ZM64.036 7.46H56.98V8.37H64.036V7.46ZM66.234 5.01H54.754V17.106H55.762V6.004H65.212V15.762C65.212 15.986 65.128 16.07 64.876 16.084C64.638 16.098 63.826 16.098 62.944 16.07C63.112 16.35 63.28 16.798 63.322 17.092C64.526 17.092 65.226 17.064 65.66 16.896C66.08 16.714 66.234 16.406 66.234 15.762V5.01ZM71.078 5.934C70.574 5.444 69.566 4.842 68.754 4.478L68.166 5.234C68.992 5.64 69.986 6.284 70.462 6.774L71.078 5.934ZM70.462 9.532C69.93 9.084 68.866 8.496 67.998 8.146L67.424 8.916C68.306 9.294 69.356 9.924 69.86 10.4L70.462 9.532ZM69.818 11.758C69.146 13.354 68.264 15.188 67.62 16.28L68.544 16.882C69.23 15.58 70.042 13.844 70.644 12.36L69.818 11.758ZM72.534 6.592H80.108V5.696H76.692C76.566 5.262 76.314 4.674 76.048 4.24L75.11 4.464C75.306 4.828 75.488 5.29 75.614 5.696H71.54V9.462C71.54 11.548 71.4 14.474 70 16.532C70.266 16.63 70.686 16.868 70.882 17.05C72.324 14.894 72.534 11.688 72.534 9.462V6.592ZM77.588 8.958V10.274H75.012V8.958H77.588ZM78.554 11.1V8.958H79.968V8.104H78.554V6.97H77.588V8.104H75.012V6.97H74.088V8.104H72.646V8.958H74.088V11.1H78.554ZM78.12 12.752C77.686 13.48 77.084 14.082 76.37 14.572C75.67 14.068 75.124 13.452 74.704 12.752H78.12ZM78.848 11.856L78.666 11.898H72.898V12.752H73.696C74.13 13.676 74.746 14.46 75.516 15.104C74.522 15.622 73.36 15.986 72.198 16.196C72.38 16.406 72.604 16.798 72.702 17.05C73.976 16.756 75.25 16.336 76.328 15.692C77.28 16.294 78.414 16.728 79.688 17.008C79.828 16.742 80.108 16.364 80.318 16.14C79.142 15.944 78.092 15.594 77.21 15.118C78.19 14.362 78.988 13.382 79.478 12.15L78.848 11.856ZM83.692 17.204L86.8 10.68L83.692 4.156L82.936 4.408L85.946 10.68L82.936 16.952L83.692 17.204ZM81.48 17.204L84.588 10.68L81.48 4.156L80.724 4.408L83.734 10.68L80.724 16.952L81.48 17.204ZM100.044 10.4H101.052V7.222H105.476V9.476H106.498V6.48H101.052V5.584H105.854V4.842H95.298V5.584H100.044V6.48H94.696V9.476H95.69V7.222H100.044V10.4ZM105.14 9.77C104.384 9.504 102.956 9.21 101.892 9.084L101.64 9.714C102.732 9.882 104.146 10.218 104.902 10.484L105.14 9.77ZM104.468 7.432C103.796 7.67 102.62 8.104 101.822 8.272L102.186 8.818C102.984 8.65 104.118 8.356 104.916 8.02L104.468 7.432ZM96.292 8.062C97.216 8.244 98.378 8.58 98.994 8.874L99.302 8.23C98.672 7.964 97.51 7.642 96.614 7.502L96.292 8.062ZM96.25 10.442C97.16 10.274 98.224 10.05 99.302 9.826L99.26 9.168C98.028 9.364 96.824 9.546 95.942 9.63L96.25 10.442ZM96.908 14.292V13.326H100.002V14.292H96.908ZM100.002 11.674V12.626H96.908V11.674H100.002ZM104.314 12.626H101.01V11.674H104.314V12.626ZM101.01 14.292V13.326H104.314V14.292H101.01ZM102.046 16.042C101.178 16.042 101.01 15.958 101.01 15.482V15.048H105.336V10.918H95.9V15.776H96.908V15.048H100.002V15.482C100.002 16.602 100.45 16.882 102.004 16.882H105.224C106.554 16.882 106.862 16.448 107.016 14.754C106.722 14.698 106.344 14.572 106.106 14.418C106.036 15.804 105.896 16.042 105.154 16.042H102.046ZM118.692 4.576C117.894 5.696 116.466 6.858 115.234 7.544C115.5 7.726 115.808 8.048 115.99 8.258C117.278 7.474 118.72 6.228 119.658 4.982L118.692 4.576ZM119.154 8.328C118.272 9.532 116.648 10.764 115.248 11.45C115.514 11.646 115.808 11.968 115.976 12.192C117.446 11.38 119.084 10.078 120.092 8.72L119.154 8.328ZM113.75 6.326H109.508V5.5H113.75V6.326ZM113.75 7.866H109.508V7.012H113.75V7.866ZM114.772 4.786H108.514V8.566H114.772V4.786ZM115.248 9.462H112.196C112.07 9.168 111.888 8.846 111.72 8.594L110.768 8.832C110.866 9.014 110.978 9.238 111.09 9.462H107.828V10.302H115.248V9.462ZM109.158 13.97C108.85 14.698 108.346 15.44 107.786 15.958C108.01 16.098 108.36 16.392 108.528 16.532C109.088 15.958 109.69 15.062 110.04 14.236L109.158 13.97ZM109.606 11.744H113.596V12.92H109.606V11.744ZM114.618 13.662V11.002H108.64V13.662H111.076V15.958C111.076 16.084 111.048 16.14 110.88 16.14C110.74 16.154 110.264 16.154 109.69 16.14C109.83 16.392 109.956 16.728 110.012 16.994C110.782 16.994 111.314 16.994 111.65 16.84C112 16.7 112.098 16.476 112.098 15.972V13.662H114.618ZM112.812 14.306C113.288 14.95 113.82 15.832 114.072 16.378L114.856 15.972C114.604 15.426 114.044 14.586 113.54 13.956L112.812 14.306ZM119.434 12.332C118.468 13.942 116.662 15.384 114.828 16.196C115.08 16.406 115.388 16.742 115.556 16.994C117.474 16.042 119.308 14.488 120.386 12.71L119.434 12.332ZM124.11 4.338C123.326 6.466 122.024 8.552 120.652 9.91C120.848 10.134 121.142 10.666 121.254 10.918C121.716 10.428 122.192 9.868 122.626 9.238V17.05H123.634V7.67C124.194 6.704 124.684 5.668 125.09 4.632L124.11 4.338ZM128.618 8.748H125.174V9.714H132.972V8.748H129.668V7.068H133.616V6.102H129.668V4.352H128.618V6.102H124.544V7.068H128.618V8.748ZM125.874 13.172C126.504 13.914 127.26 14.95 127.61 15.608L128.506 15.076C128.156 14.432 127.358 13.424 126.728 12.71L125.874 13.172ZM133.63 11.324H131.684V10.106H130.634V11.324H124.768V12.276H130.634V15.846C130.634 16.056 130.578 16.112 130.34 16.126C130.102 16.14 129.304 16.14 128.436 16.112C128.576 16.406 128.744 16.812 128.786 17.092C129.92 17.092 130.648 17.092 131.096 16.938C131.544 16.77 131.684 16.49 131.684 15.874V12.276H133.63V11.324ZM138.026 6.074C137.76 5.598 137.214 4.856 136.724 4.296L135.926 4.772C136.388 5.332 136.934 6.116 137.186 6.606L138.026 6.074ZM138.712 6.648L138.53 6.69H134.484V7.642H138.012C137.158 9.364 135.646 11.044 134.19 11.968C134.344 12.15 134.568 12.668 134.652 12.962C135.226 12.556 135.828 12.024 136.402 11.436V17.05H137.354V11.044C137.872 11.618 138.502 12.388 138.796 12.794L139.398 11.954C139.132 11.646 138.11 10.582 137.564 10.064C138.236 9.126 138.824 8.104 139.244 7.04L138.712 6.648ZM143.626 12.262V10.302H145.614V12.262H143.626ZM140.644 12.262V10.302H142.604V12.262H140.644ZM142.604 7.432V9.364H140.644V7.432H142.604ZM145.614 7.432V9.364H143.626V7.432H145.614ZM143.626 6.494V4.282H142.604V6.494H139.692V13.858H140.644V13.2H142.604V17.05H143.626V13.2H145.614V13.76H146.608V6.494H143.626ZM158.186 10.316L158.018 10.372H149.548V11.38H156.982C156.128 12.262 155.022 13.354 154.014 14.306C153.328 13.802 152.6 13.326 151.97 12.934L151.256 13.676C152.74 14.642 154.672 16.098 155.554 17.036L156.324 16.168C155.974 15.818 155.456 15.398 154.882 14.964C156.282 13.592 157.878 11.968 158.97 10.792L158.186 10.316ZM151.34 8.272V9.238H156.576V8.272H151.34ZM153.888 4.198C152.516 6.06 150.038 7.908 147.7 8.944C147.98 9.21 148.288 9.56 148.456 9.826C150.416 8.86 152.446 7.376 153.958 5.752C155.484 7.334 157.78 8.944 159.642 9.784C159.824 9.504 160.174 9.056 160.426 8.818C158.452 8.062 156.016 6.508 154.602 5.01C154.686 4.912 154.742 4.8 154.826 4.702L153.888 4.198Z" fill="#00E0B8"/>
</svg>
