<?xml version="1.0" encoding="utf-8"?>
<!-- Generator: Adobe Illustrator 26.0.3, SVG Export Plug-In . SVG Version: 6.00 Build 0)  -->
<svg version="1.1" id="圖層_1" xmlns="http://www.w3.org/2000/svg" xmlns:xlink="http://www.w3.org/1999/xlink" x="0px" y="0px"
	 viewBox="0 0 833 195" style="enable-background:new 0 0 833 195;" xml:space="preserve">
<style type="text/css">
	.st0{stroke:url(#SVGID_1_);}
	.st1{fill:url(#SVGID_00000046308844624657025280000018157577602175071389_);}
	.st2{stroke:#00E0B8;stroke-width:2.5298;stroke-miterlimit:10;}
	
		.st3{fill:none;stroke:url(#SVGID_00000178172652985599240200000015173361270393274792_);stroke-width:1.2649;stroke-miterlimit:10;}
	.st4{fill:url(#SVGID_00000042012561129354227810000015115428353613513350_);}
	.st5{fill:url(#SVGID_00000106131542539865292210000011076870390614814362_);}
	.st6{fill:url(#SVGID_00000153672364397197280250000016077831591497894785_);}
	.st7{fill:url(#SVGID_00000018222000522112461130000017503519539257384601_);}
	.st8{fill:url(#SVGID_00000056385956044429239240000002313470005044633009_);}
	.st9{fill:url(#SVGID_00000098178941293566662560000016399581866120712589_);}
	.st10{fill:url(#SVGID_00000072249481261550057170000017684067743528166542_);}
	.st11{fill:url(#SVGID_00000078018513350475092310000000681095458308104086_);}
	.st12{fill:url(#SVGID_00000132791752328482393050000015782536842787490449_);}
	.st13{fill:url(#SVGID_00000097461306155462443000000002508161420011470001_);}
	.st14{fill:url(#SVGID_00000117655813660803301840000003065037062955401619_);}
	.st15{fill:url(#SVGID_00000157297386336315666920000015337411863109945000_);}
	.st16{fill:url(#SVGID_00000091709689142143658640000018396337476537723573_);}
	.st17{fill:url(#SVGID_00000099628340292291278460000000903211084311051926_);}
	.st18{fill:url(#SVGID_00000113354843516033602710000015277845554966127805_);}
	.st19{fill:url(#SVGID_00000107546399090970906130000000976960471205092001_);}
	.st20{fill:url(#SVGID_00000023261738079151777000000006805929033048125849_);}
	.st21{fill:url(#SVGID_00000050635909440307954070000010387551833339699875_);}
	.st22{fill:url(#SVGID_00000167362605708889308980000009741583565836532127_);}
	.st23{fill:url(#SVGID_00000163791589043802431730000012619784279265039026_);}
	.st24{fill:url(#SVGID_00000111160927661094321070000013659588237883118004_);}
	.st25{fill:url(#SVGID_00000109733385736788773200000001190480159360825489_);}
	.st26{fill:url(#SVGID_00000179618223033744504560000004313763639172070295_);}
	.st27{fill:url(#SVGID_00000082352899776616513480000012280099215758501782_);}
	.st28{fill:url(#SVGID_00000091729490112090770160000001335275532574348195_);}
	.st29{fill:url(#SVGID_00000041991182607347097770000005055311434168206250_);}
	.st30{fill:url(#SVGID_00000038410166748060709410000006309023315594074046_);}
	.st31{fill:url(#SVGID_00000098918072973784015970000007942169823315340958_);}
	.st32{fill:url(#SVGID_00000174603839629607925570000013978113148249093789_);}
	.st33{fill:url(#SVGID_00000061441886061305099110000005964414208385843378_);}
	.st34{fill:url(#SVGID_00000111165202163369032810000004638182225315318422_);}
	.st35{fill:url(#SVGID_00000162349909113184311750000017176239254927133355_);}
	.st36{fill:url(#SVGID_00000163784537110373204640000016265409456436995742_);}
	.st37{fill:url(#SVGID_00000135658247862767004290000001362429830401582253_);}
	.st38{fill:url(#SVGID_00000087405063325145762920000008102761645156954544_);}
	.st39{fill:url(#SVGID_00000057147204403273236700000010043658443682866598_);}
	.st40{fill:url(#SVGID_00000162314722846236216830000011864829840825298092_);}
	.st41{fill:url(#SVGID_00000081608925423808812900000000095922018903775931_);}
	.st42{fill:url(#SVGID_00000124142828440883461370000009735235050466317239_);}
	.st43{fill:url(#SVGID_00000167394072433278040930000009277342256391973047_);}
	.st44{fill:url(#SVGID_00000150786477928508484700000005998731341071487912_);}
	.st45{fill:url(#SVGID_00000049932671357581352620000004183873479677080461_);}
	.st46{fill:url(#SVGID_00000173841037546461221940000007174446181867401638_);}
	.st47{fill:url(#SVGID_00000036246558539558824070000001422750189074743981_);}
	.st48{fill:url(#SVGID_00000140704965806905183740000017599014890103521952_);}
	.st49{fill:url(#SVGID_00000039852075168463462810000015061020434917813935_);}
	.st50{fill:url(#SVGID_00000106143632176840435260000017208185883455873686_);}
	.st51{fill:url(#SVGID_00000097465146519828094610000018363901067738267829_);}
	.st52{fill:url(#SVGID_00000043438146798539583100000012500934396089564306_);}
	.st53{fill:url(#SVGID_00000023247629455190074900000000040492274955009726_);}
	.st54{fill:url(#SVGID_00000163031849016817226970000007508736346836495006_);}
	.st55{fill:url(#SVGID_00000107560415177665620120000010297504208411231909_);}
	.st56{fill:url(#SVGID_00000032633589979691475870000012462012636675431828_);}
	.st57{fill:url(#SVGID_00000169548523610845502670000000512048494825194915_);}
	.st58{fill:url(#SVGID_00000143578742523953511680000006657797965605377201_);}
</style>
<linearGradient id="SVGID_1_" gradientUnits="userSpaceOnUse" x1="473.6703" y1="190.2589" x2="508.2824" y2="6.9913" gradientTransform="matrix(1 0 0 -1 0 196)">
	<stop  offset="0" style="stop-color:#FFF176"/>
	<stop  offset="1" style="stop-color:#00E0B8"/>
</linearGradient>
<rect x="149.5" y="28.5" class="st0" width="683" height="138"/>
<linearGradient id="SVGID_00000118385708354202171410000011182914178302253489_" gradientUnits="userSpaceOnUse" x1="502.9754" y1="150.1635" x2="516.7035" y2="41.2893" gradientTransform="matrix(1 0 0 -1 0 196)">
	<stop  offset="0" style="stop-color:#FFF176"/>
	<stop  offset="1" style="stop-color:#00E0B8"/>
</linearGradient>
<path style="fill:url(#SVGID_00000118385708354202171410000011182914178302253489_);" d="M228.7,68v1.6h18.8V68H228.7z M227.3,73.7
	v1.6h21.4v-1.6H227.3z M231.7,81.4v1.4h12.7v-1.4H231.7z M231.7,85.5v1.5h12.7v-1.5H231.7z M237,65.8v3.1h1.9v-3.1H237z M230.8,77.4
	v10.6h1.8v-9h11v9h1.9V77.4H230.8z M242.4,69.6c-0.4,1.1-1.1,2.7-1.7,3.8l1.7,0.5c0.6-1,1.3-2.4,1.9-3.7L242.4,69.6z M232,70.1
	c0.7,1.1,1.3,2.7,1.4,3.7l1.8-0.5c-0.2-1-0.8-2.5-1.6-3.6L232,70.1z M251.3,79.6v1.6h21.3v-1.6H251.3z M261,77.3v10.5h1.8V77.3H261z
	 M260.2,80.2c-2,2.5-5.8,4.8-9.3,5.9c0.4,0.4,0.9,1.1,1.2,1.5c3.5-1.3,7.4-3.8,9.6-6.7L260.2,80.2z M263.7,80.2l-1.5,0.7
	c2.2,2.8,6.1,5.3,9.7,6.5c0.3-0.5,0.8-1.2,1.2-1.5C269.5,84.9,265.6,82.7,263.7,80.2z M260.1,73.6h3.8v2.6h-3.8V73.6z M260.1,69.6
	h3.8v2.6h-3.8V69.6z M258.5,68.2v9.4h6.9v-9.4H258.5z M261.3,65.8c-0.1,0.9-0.5,2.1-0.8,3l1.4,0.3c0.4-0.8,0.8-1.9,1.2-3L261.3,65.8
	z M251.5,70.5c1.2,1,2.6,2.4,3.2,3.3l0.8-1.3c-0.6-0.9-2.1-2.3-3.3-3.2L251.5,70.5z M255.9,74c0.7,1.4,1.4,3.2,1.6,4.4l1.3-0.5
	c-0.2-1.1-0.9-2.9-1.6-4.2L255.9,74z M256.5,69.3c-1,2.2-2.7,5.3-4.1,7.1l1.2,0.6c1.4-1.8,3.1-4.8,4.4-7.1L256.5,69.3z M254.6,66
	c-0.5,1.4-1.4,3.4-2.1,4.6l1.2,0.5c0.7-1.2,1.6-3,2.3-4.6L254.6,66z M251.3,76.3l0.2,1.6c1.8-0.3,3.9-0.6,6.1-0.9l0-1.3
	C255.2,75.9,252.9,76.2,251.3,76.3z M265.3,70.3c1.3,1.1,2.7,2.7,3.3,3.7l0.9-1.2c-0.6-1-2.1-2.5-3.4-3.6L265.3,70.3z M269.8,73.9
	c0.8,1.5,1.6,3.5,1.8,4.8l1.3-0.6c-0.3-1.2-1.1-3.2-1.9-4.7L269.8,73.9z M270.4,69.3c-1,2.2-2.8,5.3-4.2,7.2l1.2,0.6
	c1.4-1.9,3.2-4.8,4.5-7.2L270.4,69.3z M268.6,65.9c-0.5,1.4-1.4,3.4-2.1,4.6l1.2,0.5c0.8-1.2,1.7-3,2.4-4.6L268.6,65.9z M265.4,76.3
	l0.2,1.6c1.8-0.2,3.9-0.5,6.1-0.8l0-1.3C269.3,76,267.1,76.2,265.4,76.3z M285.1,77.5v2.3h1.8v-2.3H285.1z M285.1,79.5
	c-2.2,1.8-6.5,3.4-10.2,4.1c0.3,0.3,0.8,0.9,1,1.3c3.7-0.8,8.1-2.6,10.6-4.7L285.1,79.5z M287.1,79.4l-1.5,0.4
	c1.7,4.4,5.2,7.1,10.4,8.2c0.2-0.5,0.7-1.1,1-1.5C292,85.7,288.6,83.2,287.1,79.4z M294.2,80.6c-1.2,0.9-3.4,2.1-4.9,2.8l1.1,0.9
	c1.6-0.7,3.6-1.7,5.1-2.8L294.2,80.6z M278.2,86.2l0.3,1.5c2.5-0.4,6.1-1,9.5-1.5l-0.1-1.5C284.4,85.3,280.6,85.9,278.2,86.2z
	 M275.3,79v1.5h21.4V79H275.3z M288.6,66.8v8.1h1.6v-8.1H288.6z M294.1,66.1v10c0,0.3-0.1,0.4-0.4,0.4c-0.4,0-1.5,0-2.9,0
	c0.2,0.4,0.5,1.1,0.6,1.5c1.7,0,2.8,0,3.5-0.3c0.7-0.3,0.9-0.7,0.9-1.6v-10H294.1z M280.6,65.8V78h1.6V65.8H280.6z M285.1,72.9v3
	c0,0.2-0.1,0.2-0.3,0.3c-0.2,0-0.8,0-1.6,0c0.2,0.3,0.4,0.8,0.5,1.2c1.1,0,1.8,0,2.3-0.2c0.5-0.2,0.6-0.6,0.6-1.2v-2.9H285.1z
	 M276.4,72.9v4.5h1.4v-3.3h8v-1.2H276.4z M275.2,70.3v1.3h12.1v-1.3H275.2z M277.7,67.6l-0.5,1.3h9.3v-1.3H277.7z M277.5,65.9
	c-0.4,1.3-1.1,2.7-1.9,3.6c0.4,0.2,1,0.5,1.3,0.7c0.8-1,1.6-2.6,2.1-4L277.5,65.9z M280.7,82.9v4h1.7v-4.6l-0.8-0.3L280.7,82.9z
	 M309.7,69.9l-0.8,1.7h12.2v-1.7H309.7z M312.7,75.1v1.7h7.8v-1.7H312.7z M312.7,80.4v1.7h8.2v-1.7H312.7z M311.8,70.4v17.5h1.8
	V70.4H311.8z M310.6,66.1c-1.2,3.5-3.1,7-5.3,9.3c0.4,0.3,1.1,0.9,1.4,1.2c2.2-2.5,4.3-6.2,5.7-10.1L310.6,66.1z M304.8,65.9
	c-1.4,3.6-3.6,7.2-6,9.6c0.3,0.4,0.9,1.4,1.1,1.8c2.6-2.7,5.1-6.8,6.7-10.8L304.8,65.9z M302.3,72.1v15.8h1.8V70.4l0,0L302.3,72.1z
	 M332.8,66.6c-0.2,3.2-0.2,14.7-10,19.7c0.6,0.4,1.2,1,1.5,1.4c9.9-5.4,10.3-17.4,10.5-21.1H332.8z M334.7,67.1l-1.7,0.2
	c0.2,2.2,0.8,15.6,11,20.5c0.3-0.5,0.8-1.1,1.4-1.5C335.4,81.7,334.7,68.9,334.7,67.1z M358.5,64.9h-1v24h1V64.9z M380.4,67v1.7h11
	V67H380.4z M380.4,71.1v1.6h8.3v-1.6H380.4z M381,74.8V84h1.6v-9.2H381z M381.9,74.8v1.6h4.3v4.4h-4.3v1.6h6v-7.6H381.9z M390.5,67
	v18.5c0,0.4-0.1,0.6-0.6,0.6c-0.5,0-2.1,0-3.7,0c0.3,0.5,0.5,1.4,0.6,1.9c2.2,0,3.6,0,4.4-0.3c0.8-0.3,1.1-0.9,1.1-2.1V67H390.5z
	 M372,73.1v1.4h7v-1.4H372z M372.1,66.7v1.4h6.9v-1.4H372.1z M372,76.3v1.4h7v-1.4H372z M370.9,69.8v1.5h8.8v-1.5H370.9z
	 M372.8,79.6v1.5h4.7v4h-4.7v1.5h6.2v-7H372.8z M372,79.6v8.1h1.6v-8.1H372z M397.5,84.6v1.8h17.1v-1.8H397.5z M397.5,77.6v1.7h17.4
	v-1.7H397.5z M396.4,70.6v17.3h1.7V72.4H414v15.4h1.8V70.6H396.4z M402.1,66.1v19.7h1.8V66.1H402.1z M407.9,66.1v19.6h1.8V66.1
	H407.9z M423.4,70.4v1.3h5.9v-1.3H423.4z M423.2,85.5v1.4h7.5v-1.4H423.2z M422.1,75.8V77h8v-1.2H422.1z M421.3,73.1V77
	c0,2.8-0.3,6.5-2.5,9.3c0.3,0.2,1,0.8,1.2,1.1c2.4-3,2.9-7.3,2.9-10.3v-4H421.3z M422.2,73.1v1.3h7v4h-7.1v1.3h8.7v-6.7H422.2z
	 M422.5,81.3v6.6h1.6v-5.3h5.5v5.1h1.6v-6.5H422.5z M432.9,68.7V82h1.7V68.7H432.9z M438.3,66.3v19.3c0,0.4-0.2,0.6-0.6,0.6
	c-0.4,0-1.9,0-3.5,0c0.3,0.5,0.6,1.3,0.6,1.8c2.2,0,3.5,0,4.2-0.3c0.7-0.3,1.1-0.8,1.1-2V66.3H438.3z M425.1,66.1
	c-1.2,2-3.4,4.4-6.3,6.2c0.4,0.3,0.9,0.8,1.2,1.2c3.2-2.1,5.4-4.6,6.7-6.5v-0.5h-0.6v-0.4H425.1z M425.5,66.1v1.3h0.4
	c1.8,1.3,3.9,3.4,5.1,4.6l1.2-1.3c-1.2-1.3-3.5-3.2-5.3-4.6H425.5z M453.7,69.9l-0.8,1.7h12.2v-1.7H453.7z M456.7,75.1v1.7h7.8v-1.7
	H456.7z M456.7,80.4v1.7h8.2v-1.7H456.7z M455.8,70.4v17.5h1.8V70.4H455.8z M454.6,66.1c-1.2,3.5-3.1,7-5.3,9.3
	c0.4,0.3,1.1,0.9,1.4,1.2c2.2-2.5,4.3-6.2,5.7-10.1L454.6,66.1z M448.8,65.9c-1.4,3.6-3.6,7.2-6,9.6c0.3,0.4,0.9,1.4,1.1,1.8
	c2.6-2.7,5.1-6.8,6.7-10.8L448.8,65.9z M446.3,72.1v15.8h1.8V70.4l0,0L446.3,72.1z M478.5,64.9h-1v24h1V64.9z M504.8,78.2v9.6h1.2
	v-9.6H504.8z M507.8,78.2v9.6h1.2v-9.6H507.8z M499.4,67.3v1.6h13.2v-1.6H499.4z M502.3,81.9v1.4h9.6v-1.4H502.3z M500.3,70.5v5.3
	c0,3.2-0.2,7.7-2.6,10.8c0.4,0.2,1.1,0.7,1.3,1c2.5-3.4,2.9-8.4,2.9-11.8v-5.3H500.3z M501,70.5V72h9.2v2.6H501V76h11v-5.6H501z
	 M501.6,77.7v10.3h1.3v-8.9h9v-1.4H501.6z M511,77.7v8.5c0,0.2,0,0.3-0.2,0.3c-0.2,0-0.7,0-1.3,0c0.2,0.4,0.4,1.1,0.5,1.5
	c0.9,0,1.5,0,2-0.3c0.5-0.3,0.6-0.7,0.6-1.4v-8.5H511z M494.7,65.9c-0.6,1.6-1.7,3.9-2.5,5.3l1.2,0.5c0.9-1.3,2-3.5,2.9-5.3
	L494.7,65.9z M497.2,68.6c-1.2,2.5-3.4,6.1-5.1,8.2l1.1,0.6c1.7-2.1,3.9-5.5,5.5-8.1L497.2,68.6z M490.9,70.8
	c1.3,1.2,2.7,2.9,3.3,4.1l1-1.3c-0.6-1.1-2.1-2.7-3.4-3.9L490.9,70.8z M496.3,74c0.9,1.6,1.7,3.8,2,5.1l1.3-0.6
	c-0.2-1.3-1.1-3.5-2-5L496.3,74z M490.7,76.5l0.2,1.6c2.1-0.1,4.8-0.3,7.5-0.5v-1.5C495.5,76.2,492.7,76.4,490.7,76.5z M496.8,79.9
	c0.6,1.4,1,3.2,1.1,4.4l1.3-0.4c-0.1-1.2-0.6-3-1.2-4.4L496.8,79.9z M492.1,79.6c-0.3,2.1-0.7,4.2-1.5,5.7c0.4,0.1,1.1,0.5,1.3,0.7
	c0.7-1.5,1.3-3.9,1.6-6.1L492.1,79.6z M494.5,77.2v10.8h1.6V77.2H494.5z M517.5,84.6v1.8h17.1v-1.8H517.5z M517.5,77.6v1.7h17.4
	v-1.7H517.5z M516.4,70.6v17.3h1.7V72.4H534v15.4h1.8V70.6H516.4z M522.1,66.1v19.7h1.8V66.1H522.1z M527.9,66.1v19.6h1.8V66.1
	H527.9z M552.2,74.5v1.7h7.2v-1.7H552.2z M551.4,74.5v10.4c0,2.2,0.7,2.8,2.9,2.8c0.5,0,3.5,0,4,0c2.2,0,2.7-1.1,3-5
	c-0.5-0.1-1.3-0.4-1.7-0.8c-0.1,3.5-0.3,4.1-1.4,4.1c-0.7,0-3.2,0-3.7,0c-1.1,0-1.3-0.2-1.3-1.1V74.5H551.4z M551.3,66.9v1.7h7.3
	v9.2h1.8V66.9H551.3z M539.9,71.2v16.6h1.5V72.7h6.7v14.8h1.5V71.2H539.9z M540.7,80.9v1.3h8.1v-1.3H540.7z M540.7,84.7v1.5h8.1
	v-1.5H540.7z M539.4,66.8v1.6h10.7v-1.6H539.4z M542.8,67.2v5.1h1.3v-5.1H542.8z M545.5,67.2v5.1h1.3v-5.1H545.5z M543.1,72.3v2.4
	c0,1.3-0.2,2.9-1.7,4.1c0.2,0.1,0.6,0.5,0.8,0.7c1.5-1.4,1.8-3.3,1.8-4.8v-2.4H543.1z M545.4,72.3v5c0,1.2,0.3,1.4,1.2,1.4
	c0.2,0,1,0,1.2,0c0.7,0,1-0.2,1.1-0.7c-0.3-0.1-0.7-0.2-1-0.4c0,0.1-0.1,0.1-0.4,0.1c-0.1,0-0.8,0-0.9,0c-0.3,0-0.3,0-0.3-0.3v-5
	H545.4z M563.3,79.6v1.6h21.3v-1.6H563.3z M573,77.3v10.5h1.8V77.3H573z M572.2,80.2c-2,2.5-5.8,4.8-9.3,5.9
	c0.4,0.4,0.9,1.1,1.2,1.5c3.5-1.3,7.4-3.8,9.6-6.7L572.2,80.2z M575.7,80.2l-1.5,0.7c2.2,2.8,6.1,5.3,9.7,6.5
	c0.3-0.5,0.8-1.2,1.2-1.5C581.5,84.9,577.6,82.7,575.7,80.2z M572.1,73.6h3.8v2.6h-3.8V73.6z M572.1,69.6h3.8v2.6h-3.8V69.6z
	 M570.5,68.2v9.4h6.9v-9.4H570.5z M573.3,65.8c-0.1,0.9-0.5,2.1-0.8,3l1.4,0.3c0.4-0.8,0.8-1.9,1.2-3L573.3,65.8z M563.5,70.5
	c1.2,1,2.6,2.4,3.2,3.3l0.8-1.3c-0.6-0.9-2.1-2.3-3.3-3.2L563.5,70.5z M567.9,74c0.7,1.4,1.4,3.2,1.6,4.4l1.3-0.5
	c-0.2-1.1-0.9-2.9-1.6-4.2L567.9,74z M568.5,69.3c-1,2.2-2.7,5.3-4.1,7.1l1.2,0.6c1.4-1.8,3.1-4.8,4.4-7.1L568.5,69.3z M566.6,66
	c-0.5,1.4-1.4,3.4-2.1,4.6l1.2,0.5c0.7-1.2,1.6-3,2.3-4.6L566.6,66z M563.3,76.3l0.2,1.6c1.8-0.3,3.9-0.6,6.1-0.9l0-1.3
	C567.2,75.9,564.9,76.2,563.3,76.3z M577.3,70.3c1.3,1.1,2.7,2.7,3.3,3.7l0.9-1.2c-0.6-1-2.1-2.5-3.4-3.6L577.3,70.3z M581.8,73.9
	c0.8,1.5,1.6,3.5,1.8,4.8l1.3-0.6c-0.3-1.2-1.1-3.2-1.9-4.7L581.8,73.9z M582.4,69.3c-1,2.2-2.8,5.3-4.2,7.2l1.2,0.6
	c1.4-1.9,3.2-4.8,4.5-7.2L582.4,69.3z M580.6,65.9c-0.5,1.4-1.4,3.4-2.1,4.6l1.2,0.5c0.8-1.2,1.7-3,2.4-4.6L580.6,65.9z M577.4,76.3
	l0.2,1.6c1.8-0.2,3.9-0.5,6.1-0.8l0-1.3C581.3,76,579.1,76.2,577.4,76.3z M598.5,64.9h-1v24h1V64.9z M623.3,67.7v1.4h6.8v-1.4H623.3
	z M622.7,71.4v1.4h7v-1.4H622.7z M620.2,74.9v1.5H633v-1.5H620.2z M629.4,67.7v0.2c-0.2,1.8-0.6,5.2-1.1,7.6l1.7,0.1
	c0.4-2.4,0.9-5.6,1.1-7.9l-1.2-0.1l-0.3,0.1H629.4z M623.1,65.8c-0.4,2.5-1.1,5.8-1.7,7.8l1.7,0.2c0.5-2,1.2-5.3,1.7-7.8L623.1,65.8
	z M619.6,85.1l0.9,1.4c1.5-0.9,3.3-2.1,4.9-3.2l-0.5-1.3C623,83.2,621,84.4,619.6,85.1z M620.7,78.2c0.9,1,1.9,2.3,2.3,3.2l1.3-0.9
	c-0.4-0.9-1.5-2.2-2.4-3.1L620.7,78.2z M631.3,77.4c-0.6,1-1.6,2.4-2.3,3.2l1.2,0.7c0.8-0.8,1.8-2,2.6-3.2L631.3,77.4z M625.7,75.6
	v10.5c0,0.3-0.1,0.3-0.4,0.3c-0.3,0-1.1,0-2.1,0c0.2,0.5,0.5,1.1,0.5,1.6c1.4,0,2.3,0,2.9-0.3c0.6-0.3,0.8-0.7,0.8-1.6V75.6H625.7z
	 M627.4,76.9l-1.3,0.3c1,4.4,2.9,7.8,6.1,9.5c0.2-0.5,0.7-1.1,1.1-1.4C630.1,83.9,628.2,80.7,627.4,76.9z M612.6,71.8v1.6h6.7v-1.6
	H612.6z M611.3,75.9v1.6h8.8v-1.6H611.3z M611.8,79.1c0.5,1.5,0.8,3.3,0.9,4.6l1.3-0.3c-0.1-1.2-0.5-3.1-1-4.6L611.8,79.1z
	 M611.1,85.5l0.4,1.7c2.4-0.5,5.7-1.2,8.9-1.9l-0.1-1.5C616.8,84.4,613.4,85.1,611.1,85.5z M618.5,78.5c-0.2,1.3-0.6,3.2-1,4.3
	l1.2,0.3c0.4-1.1,0.8-2.9,1.2-4.3L618.5,78.5z M615.1,72.4v13.3l1.6-0.3V72.4H615.1z M615,65.9c-0.8,1.9-2.4,4.4-4.5,6.2
	c0.3,0.2,0.9,0.8,1.1,1.1c2.4-2.1,3.9-4.6,4.9-6.5v-0.5h-0.5v-0.4H615z M615.3,65.9v1.3h0.3c1.4,1.2,3.1,3.2,3.9,4.3l1.2-1.4
	c-0.9-1.2-2.7-3-4.1-4.2H615.3z M636.7,68v1.6h18.8V68H636.7z M635.3,73.7v1.6h21.4v-1.6H635.3z M639.7,81.4v1.4h12.7v-1.4H639.7z
	 M639.7,85.5v1.5h12.7v-1.5H639.7z M645,65.8v3.1h1.9v-3.1H645z M638.8,77.4v10.6h1.8v-9h11v9h1.9V77.4H638.8z M650.4,69.6
	c-0.4,1.1-1.1,2.7-1.7,3.8l1.7,0.5c0.6-1,1.3-2.4,1.9-3.7L650.4,69.6z M640,70.1c0.7,1.1,1.3,2.7,1.4,3.7l1.8-0.5
	c-0.2-1-0.8-2.5-1.6-3.6L640,70.1z M669,78.1v8.1h1.8v-8.1H669z M662.1,71.7v1.6H678v-1.6H662.1z M659.4,85.6v1.6h21.3v-1.6H659.4z
	 M661.6,81v1.6h17V81H661.6z M666.9,72.6c-0.7,1.5-1.9,3.6-2.9,4.9l1.4,0.5c1-1.2,2.3-3.2,3.3-4.9L666.9,72.6z M661.2,76.9l0.1,1.7
	c4-0.1,10.2-0.3,16-0.5l0.1-1.5C671.4,76.6,665.1,76.8,661.2,76.9z M672.8,74.8c2,1.3,4.4,3.4,5.5,4.8l1.4-1
	c-1.2-1.4-3.6-3.3-5.6-4.6L672.8,74.8z M669,65.9v2.9h1.8v-2.9H669z M659.7,67.7v4.4h1.8v-2.8h17.1v2.8h1.8v-4.4H659.7z M692.5,79.9
	v1.3h4.9v-1.3H692.5z M691.2,68.2v1.4h7.6v-1.4H691.2z M690.5,73.5V75h14.6v-1.5H690.5z M692.8,76.4v1.3h3.9v5.5h-3.9v1.3h5.4v-8.2
	H692.8z M691.8,76.4v9.7h1.4v-9.7H691.8z M694.1,65.9v3.4h1.6v-3.4H694.1z M702.9,76.2c-1.2,4.7-3.5,8.3-7,10.5
	c0.4,0.3,0.9,0.9,1.1,1.2c3.5-2.5,6-6.3,7.4-11.4L702.9,76.2z M691.9,70.1c0.4,1.1,0.7,2.5,0.7,3.4l1.3-0.3c0-0.9-0.4-2.3-0.8-3.4
	L691.9,70.1z M701.3,67.4c1,1.2,2,2.9,2.5,4l1.3-0.7c-0.5-1.1-1.5-2.7-2.5-3.9L701.3,67.4z M696.5,69.8c-0.1,1-0.5,2.4-0.8,3.4
	l1.2,0.3c0.3-0.9,0.7-2.2,1.1-3.4L696.5,69.8z M683.2,66.9v1.6h8v-1.6H683.2z M685.1,71.9v1.5h4.3v-1.5H685.1z M685.1,76.9v1.5h4.3
	v-1.5H685.1z M684.3,67.7v15.4h1.5V67.7H684.3z M688.5,67.7v20.3h1.6V67.7H688.5z M682.8,82.8l0.3,1.7c1.8-0.4,4.1-0.9,6.3-1.4
	l-0.1-1.6C686.8,82.1,684.4,82.5,682.8,82.8z M699.3,65.9c0.2,12.4,0.7,21.9,3.9,22c0.8,0,1.6-1,2.1-4.7c-0.3-0.1-0.9-0.6-1.2-0.9
	c-0.1,2.3-0.4,3.6-0.8,3.6c-1.6-0.1-2.3-9.2-2.3-19.9H699.3z M707.5,80.7v1.5h21v-1.5H707.5z M707.6,70.1v1.5h20.8v-1.5H707.6z
	 M708.6,74.2v1.5h19v-1.5H708.6z M709.8,77.5v1.4h16.6v-1.4H709.8z M717.1,74.9v13h1.8v-13H717.1z M714.9,65.8v5h1.7v-5H714.9z
	 M719.4,65.8v4.9h1.7v-4.9H719.4z M716.5,81.3c-2,2.1-6,3.9-9.6,4.7c0.4,0.4,0.9,1.1,1.2,1.5c3.6-1,7.6-3.1,9.9-5.6L716.5,81.3z
	 M719.4,81.2l-1.4,0.6c2.3,2.6,6.3,4.8,9.9,5.8c0.3-0.5,0.8-1.2,1.2-1.6C725.5,85.2,721.5,83.4,719.4,81.2z M725,66.1
	c-0.4,1.1-1.2,2.7-1.8,3.7l1.5,0.5c0.7-0.9,1.5-2.4,2.2-3.7L725,66.1z M721.7,71.2c-0.3,0.9-0.9,2.1-1.4,3l1.5,0.5
	c0.5-0.8,1.2-1.9,1.8-3L721.7,71.2z M709.6,66.6c0.8,1.1,1.6,2.7,2,3.6l1.6-0.6c-0.3-1-1.2-2.5-2-3.6L709.6,66.6z M712.7,71.8
	c0.5,0.8,1.1,1.9,1.2,2.6l1.8-0.4c-0.2-0.7-0.8-1.8-1.3-2.6L712.7,71.8z M744.4,70.2v1.7h7.5v-1.7H744.4z M731.2,67.2v1.5h12.1v-1.5
	H731.2z M747.5,70.9h-0.9v4.5c0,1.9-0.6,8-5.2,11.1c0.3,0.4,0.8,1.1,1,1.5c3.6-2.5,4.8-7,5-8.9c0.2,1.8,1.4,6.5,4.8,8.9
	c0.2-0.4,0.8-1.2,1.1-1.5c-4.4-3-5.1-9.2-5.1-11v-4.5H747.5z M744.6,65.9c-0.5,3.7-1.4,7.3-2.9,9.6c0.4,0.2,1.2,0.7,1.5,0.9
	c1.5-2.5,2.5-6.3,3.1-10.2L744.6,65.9z M751.4,70.2v0.3c-0.2,1.8-0.6,4.2-1.1,5.5l1.5,0.3c0.5-1.5,1-3.9,1.4-6l-1.2-0.3l-0.3,0.1
	H751.4z M739.8,68v6.9c0,0.2-0.1,0.3-0.4,0.3c-0.3,0-1.2,0-2.3,0c0.2,0.4,0.5,1,0.5,1.4c1.5,0,2.4,0,3-0.2c0.6-0.2,0.8-0.6,0.8-1.4
	V68H739.8z M733,70v1.2h3.6v2.2H733v1.2h5V70H733z M732.2,70v5.5h1.4V70H732.2z M732.9,80.3v1.3h3.8V84h-3.8v1.3h5.2v-4.9H732.9z
	 M732.1,80.3v6h1.4v-6H732.1z M730.9,77.3v1.5h12.5v-1.5H730.9z M739.8,78.1v8c0,0.3-0.1,0.3-0.4,0.4c-0.3,0-1.2,0-2.4,0
	c0.2,0.4,0.4,1.1,0.5,1.5c1.5,0,2.5,0,3.1-0.2c0.6-0.3,0.8-0.7,0.8-1.6v-8H739.8z M756.7,68.1v1.7h3.7v10.1h-3.7v1.7h5.4V68.1H756.7
	z M755.9,68.1v15.7h1.7V68.1H755.9z M764.2,81.3v1.5H775v-1.5H764.2z M764.2,85.4V87H775v-1.6H764.2z M763.4,77.3v10.6h1.8v-9h9.1
	v8.9h1.8V77.3H763.4z M765.9,71.9h7.5v2.3h-7.5V71.9z M765.9,68.3h7.5v2.3h-7.5V68.3z M764.2,66.8v8.8h11.1v-8.8H764.2z M790.5,64.9
	h-1v24h1V64.9z M238.8,124.2v1.8h-9v-1.8H238.8z M230.2,108.9V126H228v-17.1H230.2z M237.6,116.3v1.8h-7.8v-1.8H237.6z M238.7,108.9
	v1.9h-8.9v-1.9H238.7z M246.2,126h-3.6l0-1.8h3.5c1.2,0,2.2-0.3,3-0.8c0.8-0.5,1.4-1.2,1.8-2.2c0.4-0.9,0.6-2,0.6-3.3v-1
	c0-1-0.1-1.8-0.4-2.6c-0.2-0.8-0.6-1.4-1-1.9c-0.5-0.5-1-0.9-1.7-1.2c-0.6-0.3-1.4-0.4-2.2-0.4h-3.8v-1.9h3.8c1.1,0,2.1,0.2,3.1,0.6
	c0.9,0.4,1.7,0.9,2.4,1.6c0.7,0.7,1.2,1.5,1.5,2.5c0.4,1,0.5,2.1,0.5,3.3v1c0,1.2-0.2,2.3-0.5,3.3c-0.4,1-0.9,1.8-1.6,2.5
	c-0.7,0.7-1.5,1.2-2.4,1.6C248.5,125.8,247.4,126,246.2,126z M243.9,108.9V126h-2.3v-17.1H243.9z M258.1,108.9h2.2l5.6,13.9
	l5.6-13.9h2.2l-6.9,17.1H265L258.1,108.9z M257.4,108.9h1.9l0.3,10.4v6.7h-2.2V108.9z M272.4,108.9h1.9V126h-2.2v-6.7L272.4,108.9z
	 M281.1,120.4v1.2h14.4v-1.2H281.1z M281.2,117.4v1.3h13.6v4.5h-13.6v1.3h15.4v-7.2H281.2z M287.3,118.1v7.2c0,2,0.8,2.4,3.5,2.4
	c0.6,0,4.9,0,5.6,0c2.3,0,2.8-0.7,3.1-3.7c-0.5-0.1-1.2-0.3-1.6-0.6c-0.1,2.4-0.3,2.9-1.6,2.9c-0.9,0-4.6,0-5.4,0
	c-1.5,0-1.8-0.2-1.8-1v-7.2H287.3z M280.2,117.4v8.4h1.7v-8.4H280.2z M279.6,106.9v1.4h17.5v-1.4H279.6z M281,112.4v1.2h5.1v-1.2
	H281z M280.6,114.8v1.1h5.6v-1.1H280.6z M290.4,114.8v1.1h5.8v-1.1H290.4z M290.4,112.4v1.2h5.2v-1.2H290.4z M287.4,107.4v9.2h1.8
	v-9.2H287.4z M278.2,109.8v4.7h1.6v-3.4h17v3.4h1.7v-4.7H278.2z M303,108v1.6h18.8V108H303z M301.6,113.7v1.6H323v-1.6H301.6z
	 M306.1,121.4v1.4h12.7v-1.4H306.1z M306.1,125.5v1.5h12.7v-1.5H306.1z M311.4,105.8v3.1h1.9v-3.1H311.4z M305.2,117.4v10.6h1.8v-9
	h11v9h1.9v-10.5H305.2z M316.8,109.6c-0.4,1.1-1.1,2.7-1.7,3.8l1.7,0.5c0.6-1,1.3-2.4,1.9-3.7L316.8,109.6z M306.3,110.1
	c0.7,1.1,1.3,2.7,1.4,3.7l1.8-0.5c-0.2-1-0.8-2.5-1.6-3.6L306.3,110.1z M335.4,117.5v2.3h1.8v-2.3H335.4z M335.4,119.5
	c-2.2,1.8-6.5,3.4-10.2,4.1c0.3,0.3,0.8,0.9,1,1.3c3.7-0.8,8.1-2.6,10.6-4.7L335.4,119.5z M337.4,119.4l-1.5,0.4
	c1.7,4.4,5.2,7.1,10.4,8.2c0.2-0.5,0.7-1.1,1-1.5C342.4,125.7,338.9,123.2,337.4,119.4z M344.5,120.6c-1.2,0.9-3.4,2.1-4.9,2.8
	l1.1,0.9c1.6-0.7,3.6-1.7,5.1-2.8L344.5,120.6z M328.6,126.2l0.3,1.5c2.5-0.4,6.1-1,9.5-1.5l-0.1-1.5
	C334.7,125.3,331,125.9,328.6,126.2z M325.7,119v1.5H347V119H325.7z M339,106.8v8.1h1.6v-8.1H339z M344.4,106.1v10
	c0,0.3-0.1,0.4-0.4,0.4c-0.4,0-1.5,0-2.9,0c0.2,0.4,0.5,1.1,0.6,1.5c1.7,0,2.8,0,3.5-0.3c0.7-0.3,0.9-0.7,0.9-1.6v-10H344.4z
	 M331,105.8V118h1.6v-12.2H331z M335.5,112.9v3c0,0.2-0.1,0.2-0.3,0.3c-0.2,0-0.8,0-1.6,0c0.2,0.3,0.4,0.8,0.5,1.2
	c1.1,0,1.8,0,2.3-0.2c0.5-0.2,0.6-0.6,0.6-1.2v-2.9H335.5z M326.8,112.9v4.5h1.4v-3.3h8v-1.2H326.8z M325.6,110.3v1.3h12.1v-1.3
	H325.6z M328.1,107.6l-0.5,1.3h9.3v-1.3H328.1z M327.8,105.9c-0.4,1.3-1.1,2.7-1.9,3.6c0.4,0.2,1,0.5,1.3,0.7c0.8-1,1.6-2.6,2.1-4
	L327.8,105.9z M331.1,122.9v4h1.7v-4.6L332,122L331.1,122.9z M360,109.9l-0.8,1.7h12.2v-1.7H360z M363,115.1v1.7h7.8v-1.7H363z
	 M363,120.4v1.7h8.2v-1.7H363z M362.1,110.4v17.5h1.8v-17.5H362.1z M360.9,106.1c-1.2,3.5-3.1,7-5.3,9.3c0.4,0.3,1.1,0.9,1.4,1.2
	c2.2-2.5,4.3-6.2,5.7-10.1L360.9,106.1z M355.2,105.9c-1.4,3.6-3.6,7.2-6,9.6c0.3,0.4,0.9,1.4,1.1,1.8c2.6-2.7,5.1-6.8,6.7-10.8
	L355.2,105.9z M352.6,112.1v15.8h1.8v-17.5l0,0L352.6,112.1z M384.8,104.9h-1v24h1V104.9z M397.4,114.6v1.4h13.7v-1.4H397.4z
	 M403.5,112.9v2.5h1.7v-2.5H403.5z M400.9,118.8h7v2.2h-7V118.8z M399.3,117.5v4.8h10.3v-4.8H399.3z M400.7,110.5h7.3v1.5h-7.3
	V110.5z M400.7,107.9h7.3v1.5h-7.3V107.9z M399.1,106.8v6.4h10.7v-6.4H399.1z M403.5,121.4v4.8c0,0.2-0.1,0.3-0.4,0.3
	c-0.3,0-1.2,0-2.3,0c0.3,0.4,0.6,1,0.7,1.4c1.3,0,2.2,0,2.9-0.2s0.8-0.6,0.8-1.5v-4.8H403.5z M400,122.9c-0.6,1.3-1.6,2.6-2.7,3.5
	c0.4,0.2,1,0.7,1.3,0.9c1.1-1,2.2-2.5,2.9-4L400,122.9z M406.6,123.6c0.9,1,2,2.4,2.5,3.3l1.4-0.8c-0.5-0.9-1.6-2.3-2.6-3.3
	L406.6,123.6z M416.6,106.3c-1.3,1.8-3.8,3.8-5.9,4.9c0.4,0.3,1,0.9,1.3,1.3c2.2-1.3,4.7-3.4,6.3-5.5L416.6,106.3z M417.3,112.9
	c-1.5,1.9-4.2,4-6.5,5.2c0.5,0.3,1,0.9,1.3,1.3c2.4-1.4,5.1-3.5,6.8-5.8L417.3,112.9z M417.9,119.7c-1.6,2.8-4.8,5.3-8,6.7
	c0.5,0.4,1,1,1.3,1.4c3.5-1.6,6.6-4.3,8.5-7.6L417.9,119.7z M437.3,120.1v5.5c0,1.7,0.4,2.2,2.1,2.2c0.3,0,1.9,0,2.3,0
	c1.4,0,1.8-0.7,2-3.8c-0.5-0.1-1.2-0.4-1.5-0.6c-0.1,2.5-0.2,2.9-0.7,2.9c-0.3,0-1.6,0-1.8,0c-0.6,0-0.6-0.1-0.6-0.7v-5.5H437.3z
	 M433.4,112.5h6.7v2.5h-6.7V112.5z M433.4,116.5h6.7v2.6h-6.7V116.5z M433.4,108.6h6.7v2.5h-6.7V108.6z M431.7,107.1v13.4h10.1
	v-13.4H431.7z M433.6,120c-0.3,3.1-1.2,5.3-4.8,6.5c0.4,0.3,0.9,1,1.1,1.4c4-1.5,5.1-4.2,5.5-7.9H433.6z M421.7,110.4v1.7h7.5v-1.7
	H421.7z M425.2,117.5v10.4h1.8v-12.5L425.2,117.5z M425.2,105.9v5.3h1.8v-5.3H425.2z M426.9,115.7l-1.1,1c1,0.9,3.1,3.2,4,4.2
	l1.1-1.5C430.3,118.7,427.7,116.3,426.9,115.7z M428.6,110.4v0.4c-1.4,3.6-4.7,7.3-7.8,9.2c0.3,0.3,0.7,1.2,0.9,1.6
	c3.3-2.2,6.8-6.2,8.5-10.6l-1-0.7l-0.3,0.1H428.6z M458.5,114.5v1.7h7.2v-1.7H458.5z M457.7,114.5v10.4c0,2.2,0.7,2.8,2.9,2.8
	c0.5,0,3.5,0,4,0c2.2,0,2.7-1.1,3-5c-0.5-0.1-1.3-0.4-1.7-0.8c-0.1,3.5-0.3,4.1-1.4,4.1c-0.7,0-3.2,0-3.7,0c-1.1,0-1.3-0.2-1.3-1.1
	v-10.4H457.7z M457.6,106.9v1.7h7.3v9.2h1.8v-10.9H457.6z M446.3,111.2v16.6h1.5v-15.1h6.7v14.8h1.5v-16.3H446.3z M447,120.9v1.3
	h8.1v-1.3H447z M447,124.7v1.5h8.1v-1.5H447z M445.7,106.8v1.6h10.7v-1.6H445.7z M449.2,107.2v5.1h1.3v-5.1H449.2z M451.9,107.2v5.1
	h1.3v-5.1H451.9z M449.4,112.3v2.4c0,1.3-0.2,2.9-1.7,4.1c0.2,0.1,0.6,0.5,0.8,0.7c1.5-1.4,1.8-3.3,1.8-4.8v-2.4H449.4z
	 M451.7,112.3v5c0,1.2,0.3,1.4,1.2,1.4c0.2,0,1,0,1.2,0c0.7,0,1-0.2,1.1-0.7c-0.3-0.1-0.7-0.2-1-0.4c0,0.1-0.1,0.1-0.4,0.1
	c-0.1,0-0.8,0-0.9,0c-0.3,0-0.3,0-0.3-0.3v-5H451.7z M469.7,119.6v1.6H491v-1.6H469.7z M479.4,117.3v10.5h1.8v-10.5H479.4z
	 M478.5,120.2c-2,2.5-5.8,4.8-9.3,5.9c0.4,0.4,0.9,1.1,1.2,1.5c3.5-1.3,7.4-3.8,9.6-6.7L478.5,120.2z M482,120.2l-1.5,0.7
	c2.2,2.8,6.1,5.3,9.7,6.5c0.3-0.5,0.8-1.2,1.2-1.5C487.8,124.9,484,122.7,482,120.2z M478.4,113.6h3.8v2.6h-3.8V113.6z M478.4,109.6
	h3.8v2.6h-3.8V109.6z M476.9,108.2v9.4h6.9v-9.4H476.9z M479.7,105.8c-0.1,0.9-0.5,2.1-0.8,3l1.4,0.3c0.4-0.8,0.8-1.9,1.2-3
	L479.7,105.8z M469.9,110.5c1.2,1,2.6,2.4,3.2,3.3l0.8-1.3c-0.6-0.9-2.1-2.3-3.3-3.2L469.9,110.5z M474.2,114
	c0.7,1.4,1.4,3.2,1.6,4.4l1.3-0.5c-0.2-1.1-0.9-2.9-1.6-4.2L474.2,114z M474.8,109.3c-1,2.2-2.7,5.3-4.1,7.1l1.2,0.6
	c1.4-1.8,3.1-4.8,4.4-7.1L474.8,109.3z M473,106c-0.5,1.4-1.4,3.4-2.1,4.6l1.2,0.5c0.7-1.2,1.6-3,2.3-4.6L473,106z M469.6,116.3
	l0.2,1.6c1.8-0.3,3.9-0.6,6.1-0.9l0-1.3C473.5,115.9,471.3,116.2,469.6,116.3z M483.6,110.3c1.3,1.1,2.7,2.7,3.3,3.7l0.9-1.2
	c-0.6-1-2.1-2.5-3.4-3.6L483.6,110.3z M488.1,113.9c0.8,1.5,1.6,3.5,1.8,4.8l1.3-0.6c-0.3-1.2-1.1-3.2-1.9-4.7L488.1,113.9z
	 M488.7,109.3c-1,2.2-2.8,5.3-4.2,7.2l1.2,0.6c1.4-1.9,3.2-4.8,4.5-7.2L488.7,109.3z M486.9,105.9c-0.5,1.4-1.4,3.4-2.1,4.6l1.2,0.5
	c0.8-1.2,1.7-3,2.4-4.6L486.9,105.9z M483.7,116.3l0.2,1.6c1.8-0.2,3.9-0.5,6.1-0.8l0-1.3C487.7,116,485.4,116.2,483.7,116.3z
	 M504,109.9l-0.8,1.7h12.2v-1.7H504z M507,115.1v1.7h7.8v-1.7H507z M507,120.4v1.7h8.2v-1.7H507z M506.1,110.4v17.5h1.8v-17.5H506.1
	z M504.9,106.1c-1.2,3.5-3.1,7-5.3,9.3c0.4,0.3,1.1,0.9,1.4,1.2c2.2-2.5,4.3-6.2,5.7-10.1L504.9,106.1z M499.2,105.9
	c-1.4,3.6-3.6,7.2-6,9.6c0.3,0.4,0.9,1.4,1.1,1.8c2.6-2.7,5.1-6.8,6.7-10.8L499.2,105.9z M496.6,112.1v15.8h1.8v-17.5l0,0
	L496.6,112.1z M519.8,124.6v1.8h17.1v-1.8H519.8z M519.8,117.6v1.7h17.4v-1.7H519.8z M518.7,110.6v17.3h1.7v-15.6h15.9v15.4h1.8
	v-17.2H518.7z M524.5,106.1v19.7h1.8v-19.7H524.5z M530.3,106.1v19.6h1.8v-19.6H530.3z M552.8,104.9h-1v24h1V104.9z M569.1,120.4
	v1.2h14.4v-1.2H569.1z M569.2,117.4v1.3h13.6v4.5h-13.6v1.3h15.4v-7.2H569.2z M575.3,118.1v7.2c0,2,0.8,2.4,3.5,2.4
	c0.6,0,4.9,0,5.6,0c2.3,0,2.8-0.7,3.1-3.7c-0.5-0.1-1.2-0.3-1.6-0.6c-0.1,2.4-0.3,2.9-1.6,2.9c-0.9,0-4.6,0-5.4,0
	c-1.5,0-1.8-0.2-1.8-1v-7.2H575.3z M568.2,117.4v8.4h1.7v-8.4H568.2z M567.6,106.9v1.4h17.5v-1.4H567.6z M569,112.4v1.2h5.1v-1.2
	H569z M568.6,114.8v1.1h5.6v-1.1H568.6z M578.4,114.8v1.1h5.8v-1.1H578.4z M578.4,112.4v1.2h5.2v-1.2H578.4z M575.4,107.4v9.2h1.8
	v-9.2H575.4z M566.2,109.8v4.7h1.6v-3.4h17v3.4h1.7v-4.7H566.2z M589.4,114.6v1.4h13.7v-1.4H589.4z M595.5,112.9v2.5h1.7v-2.5H595.5
	z M592.9,118.8h7v2.2h-7V118.8z M591.3,117.5v4.8h10.3v-4.8H591.3z M592.7,110.5h7.3v1.5h-7.3V110.5z M592.7,107.9h7.3v1.5h-7.3
	V107.9z M591.1,106.8v6.4h10.7v-6.4H591.1z M595.5,121.4v4.8c0,0.2-0.1,0.3-0.4,0.3c-0.3,0-1.2,0-2.3,0c0.3,0.4,0.6,1,0.7,1.4
	c1.3,0,2.2,0,2.9-0.2s0.8-0.6,0.8-1.5v-4.8H595.5z M592,122.9c-0.6,1.3-1.6,2.6-2.7,3.5c0.4,0.2,1,0.7,1.3,0.9c1.1-1,2.2-2.5,2.9-4
	L592,122.9z M598.6,123.6c0.9,1,2,2.4,2.5,3.3l1.4-0.8c-0.5-0.9-1.6-2.3-2.6-3.3L598.6,123.6z M608.6,106.3
	c-1.3,1.8-3.8,3.8-5.9,4.9c0.4,0.3,1,0.9,1.3,1.3c2.2-1.3,4.7-3.4,6.3-5.5L608.6,106.3z M609.3,112.9c-1.5,1.9-4.2,4-6.5,5.2
	c0.5,0.3,1,0.9,1.3,1.3c2.4-1.4,5.1-3.5,6.8-5.8L609.3,112.9z M609.9,119.7c-1.6,2.8-4.8,5.3-8,6.7c0.5,0.4,1,1,1.3,1.4
	c3.5-1.6,6.6-4.3,8.5-7.6L609.9,119.7z M614,121.5v1.4h10.9v-1.4H614z M613.4,110v1.4h12V110H613.4z M618.6,107.8v17.7h1.7v-17.7
	H618.6z M613.3,125.5l0.3,1.6c3-0.3,7.4-0.8,11.5-1.3l0-1.4C620.7,124.8,616.3,125.2,613.3,125.5z M615.6,117h7.8v1.8h-7.8V117z
	 M615.6,114.1h7.8v1.7h-7.8V114.1z M614,112.9v7.2h10.8v-7.2H614z M624,106.1c-2.5,0.6-6.8,1-10.4,1.2c0.2,0.4,0.4,1,0.4,1.3
	c3.6-0.1,8.1-0.5,10.9-1.2L624,106.1z M625.2,111.5v1.7h8.7v-1.7H625.2z M633.1,111.5v0.4c-0.3,9.7-0.5,13.2-1.1,13.9
	c-0.2,0.3-0.5,0.4-0.8,0.4c-0.5,0-1.5,0-2.7-0.1c0.3,0.5,0.5,1.2,0.5,1.7c1.1,0.1,2.3,0.1,2.9,0c0.7-0.1,1.2-0.3,1.6-0.9
	c0.8-1,1-4.4,1.3-14.5c0-0.2,0-0.9,0-0.9H633.1z M628.1,106.2c0,9.1,0.1,16.7-5.4,20.6c0.4,0.3,1.1,0.9,1.3,1.3
	c5.7-4.3,5.8-12.4,5.8-21.9H628.1z M647.4,119.5v4.8h1.7v-4.8H647.4z M637.6,126v1.3h21.6V126H637.6z M637.6,109.7v1.1h21.5v-1.1
	H637.6z M637.6,116.9v1.3h21.6v-1.3H637.6z M639.4,114.5v1.1h18v-1.1H639.4z M640.2,107.3v1.1h14.5v3.7H640v1.1h16.4v-5.9H640.2z
	 M647.3,105.8v11.5h1.8v-11.5H647.3z M642.1,122.5h12.6v1.3h-12.6V122.5z M642.1,120.3h12.6v1.2h-12.6V120.3z M640.3,119.2v5.6h16.2
	v-5.6H640.3z M674.5,114.5v1.7h7.2v-1.7H674.5z M673.7,114.5v10.4c0,2.2,0.7,2.8,2.9,2.8c0.5,0,3.5,0,4,0c2.2,0,2.7-1.1,3-5
	c-0.5-0.1-1.3-0.4-1.7-0.8c-0.1,3.5-0.3,4.1-1.4,4.1c-0.7,0-3.2,0-3.7,0c-1.1,0-1.3-0.2-1.3-1.1v-10.4H673.7z M673.6,106.9v1.7h7.3
	v9.2h1.8v-10.9H673.6z M662.3,111.2v16.6h1.5v-15.1h6.7v14.8h1.5v-16.3H662.3z M663,120.9v1.3h8.1v-1.3H663z M663,124.7v1.5h8.1
	v-1.5H663z M661.7,106.8v1.6h10.7v-1.6H661.7z M665.2,107.2v5.1h1.3v-5.1H665.2z M667.9,107.2v5.1h1.3v-5.1H667.9z M665.4,112.3v2.4
	c0,1.3-0.2,2.9-1.7,4.1c0.2,0.1,0.6,0.5,0.8,0.7c1.5-1.4,1.8-3.3,1.8-4.8v-2.4H665.4z M667.7,112.3v5c0,1.2,0.3,1.4,1.2,1.4
	c0.2,0,1,0,1.2,0c0.7,0,1-0.2,1.1-0.7c-0.3-0.1-0.7-0.2-1-0.4c0,0.1-0.1,0.1-0.4,0.1c-0.1,0-0.8,0-0.9,0c-0.3,0-0.3,0-0.3-0.3v-5
	H667.7z M685.7,119.6v1.6H707v-1.6H685.7z M695.4,117.3v10.5h1.8v-10.5H695.4z M694.5,120.2c-2,2.5-5.8,4.8-9.3,5.9
	c0.4,0.4,0.9,1.1,1.2,1.5c3.5-1.3,7.4-3.8,9.6-6.7L694.5,120.2z M698,120.2l-1.5,0.7c2.2,2.8,6.1,5.3,9.7,6.5
	c0.3-0.5,0.8-1.2,1.2-1.5C703.8,124.9,700,122.7,698,120.2z M694.4,113.6h3.8v2.6h-3.8V113.6z M694.4,109.6h3.8v2.6h-3.8V109.6z
	 M692.9,108.2v9.4h6.9v-9.4H692.9z M695.7,105.8c-0.1,0.9-0.5,2.1-0.8,3l1.4,0.3c0.4-0.8,0.8-1.9,1.2-3L695.7,105.8z M685.9,110.5
	c1.2,1,2.6,2.4,3.2,3.3l0.8-1.3c-0.6-0.9-2.1-2.3-3.3-3.2L685.9,110.5z M690.2,114c0.7,1.4,1.4,3.2,1.6,4.4l1.3-0.5
	c-0.2-1.1-0.9-2.9-1.6-4.2L690.2,114z M690.8,109.3c-1,2.2-2.7,5.3-4.1,7.1l1.2,0.6c1.4-1.8,3.1-4.8,4.4-7.1L690.8,109.3z M689,106
	c-0.5,1.4-1.4,3.4-2.1,4.6l1.2,0.5c0.7-1.2,1.6-3,2.3-4.6L689,106z M685.6,116.3l0.2,1.6c1.8-0.3,3.9-0.6,6.1-0.9l0-1.3
	C689.5,115.9,687.3,116.2,685.6,116.3z M699.6,110.3c1.3,1.1,2.7,2.7,3.3,3.7l0.9-1.2c-0.6-1-2.1-2.5-3.4-3.6L699.6,110.3z
	 M704.1,113.9c0.8,1.5,1.6,3.5,1.8,4.8l1.3-0.6c-0.3-1.2-1.1-3.2-1.9-4.7L704.1,113.9z M704.7,109.3c-1,2.2-2.8,5.3-4.2,7.2l1.2,0.6
	c1.4-1.9,3.2-4.8,4.5-7.2L704.7,109.3z M702.9,105.9c-0.5,1.4-1.4,3.4-2.1,4.6l1.2,0.5c0.8-1.2,1.7-3,2.4-4.6L702.9,105.9z
	 M699.7,116.3l0.2,1.6c1.8-0.2,3.9-0.5,6.1-0.8l0-1.3C703.7,116,701.4,116.2,699.7,116.3z M713.8,110.4v1.3h5.9v-1.3H713.8z
	 M713.5,125.5v1.4h7.5v-1.4H713.5z M712.4,115.8v1.2h8v-1.2H712.4z M711.7,113.1v3.9c0,2.8-0.3,6.5-2.5,9.3c0.3,0.2,1,0.8,1.2,1.1
	c2.4-3,2.9-7.3,2.9-10.3v-4H711.7z M712.6,113.1v1.3h7v4h-7.1v1.3h8.7v-6.7H712.6z M712.9,121.3v6.6h1.6v-5.3h5.5v5.1h1.6v-6.5
	H712.9z M723.2,108.7V122h1.7v-13.3H723.2z M728.6,106.3v19.3c0,0.4-0.2,0.6-0.6,0.6c-0.4,0-1.9,0-3.5,0c0.3,0.5,0.6,1.3,0.6,1.8
	c2.2,0,3.5,0,4.2-0.3c0.7-0.3,1.1-0.8,1.1-2v-19.2H728.6z M715.5,106.1c-1.2,2-3.4,4.4-6.3,6.2c0.4,0.3,0.9,0.8,1.2,1.2
	c3.2-2.1,5.4-4.6,6.7-6.5v-0.5h-0.6v-0.4H715.5z M715.8,106.1v1.3h0.4c1.8,1.3,3.9,3.4,5.1,4.6l1.2-1.3c-1.2-1.3-3.5-3.2-5.3-4.6
	H715.8z M744,109.9l-0.8,1.7h12.2v-1.7H744z M747,115.1v1.7h7.8v-1.7H747z M747,120.4v1.7h8.2v-1.7H747z M746.1,110.4v17.5h1.8
	v-17.5H746.1z M744.9,106.1c-1.2,3.5-3.1,7-5.3,9.3c0.4,0.3,1.1,0.9,1.4,1.2c2.2-2.5,4.3-6.2,5.7-10.1L744.9,106.1z M739.2,105.9
	c-1.4,3.6-3.6,7.2-6,9.6c0.3,0.4,0.9,1.4,1.1,1.8c2.6-2.7,5.1-6.8,6.7-10.8L739.2,105.9z M736.6,112.1v15.8h1.8v-17.5l0,0
	L736.6,112.1z"/>
<path class="st2" d="M97.5,193c52.7,0,95.5-42.8,95.5-95.5C193,44.8,150.2,2,97.5,2C44.8,2,2,44.8,2,97.5C2,150.2,44.8,193,97.5,193
	z"/>
<linearGradient id="SVGID_00000072983773712955179780000009275654675826614941_" gradientUnits="userSpaceOnUse" x1="36.6957" y1="163.9264" x2="158.1393" y2="33.251" gradientTransform="matrix(1 0 0 -1 0 196)">
	<stop  offset="0" style="stop-color:#FFF176"/>
	<stop  offset="1" style="stop-color:#00E0B8"/>
</linearGradient>
<path style="fill:none;stroke:url(#SVGID_00000072983773712955179780000009275654675826614941_);stroke-width:1.2649;stroke-miterlimit:10;" d="
	M97.5,186.7c49.2,0,89.2-39.9,89.2-89.2c0-49.3-39.9-89.2-89.2-89.2C48.2,8.3,8.3,48.2,8.3,97.5C8.3,146.8,48.2,186.7,97.5,186.7z"
	/>
<linearGradient id="SVGID_00000160869328638682558430000005981627150562347421_" gradientUnits="userSpaceOnUse" x1="18.1747" y1="90.987" x2="24.6853" y2="82.546" gradientTransform="matrix(1 0 0 -1 0 196)">
	<stop  offset="0" style="stop-color:#FFF176"/>
	<stop  offset="1" style="stop-color:#00E0B8"/>
</linearGradient>
<path style="fill:url(#SVGID_00000160869328638682558430000005981627150562347421_);" d="M22.1,114.2c-0.7,0.2-1.5,0.2-2.3,0.1
	c-0.8-0.1-1.5-0.4-2.1-0.8c-0.6-0.4-1.2-1-1.6-1.6c-0.4-0.6-0.7-1.4-0.8-2.1c-0.1-0.6-0.1-1.3,0.1-1.9c0.2-0.6,0.4-1.2,0.8-1.7
	l2,1.1c-0.5,0.6-0.7,1.4-0.6,2.1c0.2,1.5,1.7,2.4,3.9,2.1c2.2-0.4,3.5-1.6,3.1-3.2c-0.1-0.4-0.2-0.8-0.5-1.1
	c-0.2-0.3-0.5-0.6-0.9-0.8l1.5-1.7c0.6,0.4,1.1,0.9,1.5,1.5c0.4,0.6,0.6,1.3,0.7,2c0.1,0.7,0.1,1.5,0,2.2s-0.5,1.4-1,2
	c-0.5,0.6-1.1,1.1-1.7,1.4C23.6,114,22.8,114.2,22.1,114.2z"/>
<linearGradient id="SVGID_00000136387174636565433860000011856523866091453078_" gradientUnits="userSpaceOnUse" x1="17.5219" y1="105.7838" x2="23.541" y2="97.5454" gradientTransform="matrix(1 0 0 -1 0 196)">
	<stop  offset="0" style="stop-color:#FFF176"/>
	<stop  offset="1" style="stop-color:#00E0B8"/>
</linearGradient>
<path style="fill:url(#SVGID_00000136387174636565433860000011856523866091453078_);" d="M26.2,92.9l-4.1,2v1.3l4,0.1L26,99
	l-11.4-0.4l0.2-4.2c0.1-2.4,1-4.4,3.8-4.3c0.7,0,1.4,0.2,1.9,0.6c0.6,0.4,1,0.9,1.3,1.5l4.6-2.4L26.2,92.9z M19.9,96.1v-1.2
	c0-1.3-0.5-2-1.6-2c-1.1,0-1.5,0.6-1.5,1.9V96L19.9,96.1z"/>
<linearGradient id="SVGID_00000048484453248858165070000009517478042302232462_" gradientUnits="userSpaceOnUse" x1="19.3327" y1="120.715" x2="25.5377" y2="111.8566" gradientTransform="matrix(1 0 0 -1 0 196)">
	<stop  offset="0" style="stop-color:#FFF176"/>
	<stop  offset="1" style="stop-color:#00E0B8"/>
</linearGradient>
<path style="fill:url(#SVGID_00000048484453248858165070000009517478042302232462_);" d="M16,82l1.6-7.1l2.2,0.5l-1,4.4l2.1,0.5
	l0.9-3.7l2.2,0.5l-0.9,3.7l2.4,0.6l1.1-4.5l2.2,0.5l-1.7,7.2L16,82z"/>
<linearGradient id="SVGID_00000054254744286280269870000006713007190609478076_" gradientUnits="userSpaceOnUse" x1="25.7101" y1="134.2101" x2="32.8971" y2="124.8266" gradientTransform="matrix(1 0 0 -1 0 196)">
	<stop  offset="0" style="stop-color:#FFF176"/>
	<stop  offset="1" style="stop-color:#00E0B8"/>
</linearGradient>
<path style="fill:url(#SVGID_00000054254744286280269870000006713007190609478076_);" d="M30.5,65.8l-1.4,3.1l2.1,1.7l-1.1,2.6
	l-9-7.9l1.4-3l11.9,1.4l-1.2,2.6L30.5,65.8z M28.4,65.4l-1-0.2c-1.2-0.2-2.5-0.5-3.7-0.7c1,0.7,2.1,1.6,3,2.3l0.8,0.6L28.4,65.4z"/>
<linearGradient id="SVGID_00000108310904936451458210000003095662385242291097_" gradientUnits="userSpaceOnUse" x1="27.6976" y1="146.5577" x2="35.2288" y2="137.3661" gradientTransform="matrix(1 0 0 -1 0 196)">
	<stop  offset="0" style="stop-color:#FFF176"/>
	<stop  offset="1" style="stop-color:#00E0B8"/>
</linearGradient>
<path style="fill:url(#SVGID_00000108310904936451458210000003095662385242291097_);" d="M29.8,53.6l-1.7,2.6l-1.9-1.3l5-7.4
	l1.9,1.3l-1.7,2.6l7.6,5.1l-1.5,2.3L29.8,53.6z"/>
<linearGradient id="SVGID_00000016758120241430260740000001464896748897685639_" gradientUnits="userSpaceOnUse" x1="38.3691" y1="157.7987" x2="47.3359" y2="147.9217" gradientTransform="matrix(1 0 0 -1 0 196)">
	<stop  offset="0" style="stop-color:#FFF176"/>
	<stop  offset="1" style="stop-color:#00E0B8"/>
</linearGradient>
<path style="fill:url(#SVGID_00000016758120241430260740000001464896748897685639_);" d="M36.1,41.8l5.1-5.2l1.6,1.6l-3.1,3.2
	l1.5,1.5l2.7-2.7l1.7,1.6l-2.7,2.7l1.7,1.7l3.2-3.4l1.7,1.6l-5.2,5.3L36.1,41.8z"/>
<linearGradient id="SVGID_00000124880359443793987940000005208145092981896583_" gradientUnits="userSpaceOnUse" x1="57.4604" y1="170.9039" x2="65.5219" y2="162.7597" gradientTransform="matrix(1 0 0 -1 0 196)">
	<stop  offset="0" style="stop-color:#FFF176"/>
	<stop  offset="1" style="stop-color:#00E0B8"/>
</linearGradient>
<path style="fill:url(#SVGID_00000124880359443793987940000005208145092981896583_);" d="M56.8,31.6c-1.7-3.3-0.9-6.2,1.9-7.6
	c2.8-1.5,5.6-0.6,7.4,2.7s0.9,6.3-1.8,7.7C61.5,35.9,58.6,34.9,56.8,31.6z M63.6,28c-1-2-2.5-2.7-3.8-2c-1.3,0.7-1.5,2.3-0.5,4.3
	c1,2,2.5,2.8,3.8,2.1S64.7,30,63.6,28z"/>
<linearGradient id="SVGID_00000047757550363363781890000001602183719985392317_" gradientUnits="userSpaceOnUse" x1="73.6154" y1="179.6197" x2="83.1155" y2="169.1815" gradientTransform="matrix(1 0 0 -1 0 196)">
	<stop  offset="0" style="stop-color:#FFF176"/>
	<stop  offset="1" style="stop-color:#00E0B8"/>
</linearGradient>
<path style="fill:url(#SVGID_00000047757550363363781890000001602183719985392317_);" d="M70.2,18.9l2.7-0.7l2,4.9l1.3,3.5
	c-0.1-1.2-0.2-2.5-0.2-3.7l-0.2-5.3l2.2-0.6l2.4,4.8c0.5,1.1,1,2.2,1.5,3.4c-0.2-1.2-0.3-2.4-0.5-3.6L81,16.2l2.5-0.6l0.9,11.6
	L81.1,28l-2.2-4.6c-0.4-0.8-0.8-1.7-1.1-2.5c0,0.9,0.2,1.7,0.2,2.7l0.3,5.1L75,29.6L70.2,18.9z"/>
<linearGradient id="SVGID_00000140709725327887867000000010754505459757292678_" gradientUnits="userSpaceOnUse" x1="92.081" y1="178.9738" x2="99.8627" y2="172.2176" gradientTransform="matrix(1 0 0 -1 0 196)">
	<stop  offset="0" style="stop-color:#FFF176"/>
	<stop  offset="1" style="stop-color:#00E0B8"/>
</linearGradient>
<path style="fill:url(#SVGID_00000140709725327887867000000010754505459757292678_);" d="M91.3,14.7h2.8l3,5.4l1.2,2.5
	c-0.2-1.4-0.4-2.8-0.5-4.2v-3.8h2.6l0.2,11.4h-2.8l-2.9-5.5l-1.2-2.5c0.2,1.4,0.4,2.8,0.4,4.2v3.8h-2.6L91.3,14.7z"/>
<linearGradient id="SVGID_00000078021377949455934070000006234458370515711899_" gradientUnits="userSpaceOnUse" x1="116.2598" y1="177.0446" x2="125.9508" y2="167.025" gradientTransform="matrix(1 0 0 -1 0 196)">
	<stop  offset="0" style="stop-color:#FFF176"/>
	<stop  offset="1" style="stop-color:#00E0B8"/>
</linearGradient>
<path style="fill:url(#SVGID_00000078021377949455934070000006234458370515711899_);" d="M117.6,16.9l2.8,0.9l0.2,5.2
	c0,0.7,0,1.4,0,2.2c0.4-0.6,0.8-1.2,1.2-1.7l3.2-4.2l2.8,0.9l-3.5,10.9l-2.4-0.8l1.2-3.7c0.3-1.1,1.1-2.6,1.5-3.7l-1.7,2.3l-2.7,3.5
	l-1.4-0.5l-0.2-4.4v-2.9c-0.2,1.3-0.5,2.6-0.9,3.9l-1.2,3.7l-2.3-0.7L117.6,16.9z"/>
<linearGradient id="SVGID_00000075152975590148597480000001769499147415118485_" gradientUnits="userSpaceOnUse" x1="132.6935" y1="169.6266" x2="141.6745" y2="160.6411" gradientTransform="matrix(1 0 0 -1 0 196)">
	<stop  offset="0" style="stop-color:#FFF176"/>
	<stop  offset="1" style="stop-color:#00E0B8"/>
</linearGradient>
<path style="fill:url(#SVGID_00000075152975590148597480000001769499147415118485_);" d="M132.7,29l3.1-5.2l2.4,1.4l-3.2,5.5
	c-1.1,1.9-0.9,2.8,0.1,3.5c1.1,0.6,2,0.3,3.2-1.5l3.2-5.5l2.3,1.4l-3.1,5.2c-2,3.3-4.2,4-6.8,2.5C131.3,34.6,130.8,32.4,132.7,29z"
	/>
<linearGradient id="SVGID_00000160882467254130599160000009142380360348949387_" gradientUnits="userSpaceOnUse" x1="145.3973" y1="160.1092" x2="152.9773" y2="151.4158" gradientTransform="matrix(1 0 0 -1 0 196)">
	<stop  offset="0" style="stop-color:#FFF176"/>
	<stop  offset="1" style="stop-color:#00E0B8"/>
</linearGradient>
<path style="fill:url(#SVGID_00000160882467254130599160000009142380360348949387_);" d="M143.1,40.5l2.4-0.4c0.1,1,0.6,2,1.3,2.7
	c0.7,0.7,1.4,0.7,1.7,0.3c0.4-0.5,0.1-1.1-0.3-2l-0.7-1.4c-0.4-0.6-0.5-1.3-0.4-2s0.4-1.4,0.8-1.9c0.4-0.3,0.8-0.6,1.3-0.8
	c0.5-0.2,1-0.3,1.5-0.2c0.5,0,1,0.1,1.4,0.4c0.5,0.2,0.9,0.5,1.2,0.9c0.5,0.5,0.9,1,1.2,1.6c0.3,0.6,0.5,1.3,0.5,2l-2.2,0.4
	c-0.1-0.9-0.5-1.6-1.1-2.2c-0.6-0.6-1.3-0.7-1.7-0.2c-0.5,0.5,0,1.1,0.4,2.1l0.7,1.4c0.4,0.6,0.5,1.3,0.4,2
	c-0.1,0.7-0.4,1.3-0.9,1.8c-0.4,0.4-0.8,0.7-1.3,0.8c-0.5,0.2-1,0.3-1.6,0.2c-0.5,0-1-0.2-1.5-0.4c-0.5-0.2-0.9-0.6-1.2-1
	C143.9,43.5,143.3,42,143.1,40.5z"/>
<linearGradient id="SVGID_00000103975136410934750670000008664102152888156818_" gradientUnits="userSpaceOnUse" x1="154.4763" y1="150.7701" x2="160.7263" y2="143.121" gradientTransform="matrix(1 0 0 -1 0 196)">
	<stop  offset="0" style="stop-color:#FFF176"/>
	<stop  offset="1" style="stop-color:#00E0B8"/>
</linearGradient>
<path style="fill:url(#SVGID_00000103975136410934750670000008664102152888156818_);" d="M161.2,44.4l1.7,2.2l-8.9,7.2l-1.7-2.1
	L161.2,44.4z"/>
<linearGradient id="SVGID_00000038384094426406366600000012261917404878145182_" gradientUnits="userSpaceOnUse" x1="161.3513" y1="140.1575" x2="168.7563" y2="131.6716" gradientTransform="matrix(1 0 0 -1 0 196)">
	<stop  offset="0" style="stop-color:#FFF176"/>
	<stop  offset="1" style="stop-color:#00E0B8"/>
</linearGradient>
<path style="fill:url(#SVGID_00000038384094426406366600000012261917404878145182_);" d="M162.4,55.6c0.6-0.4,1.3-0.7,2.1-0.9
	c0.7-0.1,1.5-0.1,2.3,0s1.4,0.5,2.1,0.9c0.6,0.4,1.1,1,1.5,1.7c0.3,0.6,0.5,1.2,0.6,1.8c0.1,0.6,0,1.3-0.2,1.9l-2.2-0.4
	c0.2-0.7,0.1-1.5-0.2-2.2c-0.7-1.3-2.5-1.7-4.4-0.6c-1.9,1.2-2.6,2.7-1.7,4.1c0.2,0.4,0.5,0.7,0.9,0.9c0.3,0.2,0.7,0.4,1.1,0.5
	l-0.8,2.1c-0.7-0.1-1.4-0.4-1.9-0.8c-0.6-0.4-1.1-1-1.4-1.6c-0.4-0.6-0.6-1.4-0.7-2.1c-0.1-0.7,0-1.5,0.2-2.2
	c0.2-0.7,0.6-1.4,1.1-1.9C161.1,56.3,161.7,55.9,162.4,55.6z"/>
<linearGradient id="SVGID_00000145738040855016644420000007658115363595010489_" gradientUnits="userSpaceOnUse" x1="168.9874" y1="125.9557" x2="171.2095" y2="123.5652" gradientTransform="matrix(1 0 0 -1 0 196)">
	<stop  offset="0" style="stop-color:#FFF176"/>
	<stop  offset="1" style="stop-color:#00E0B8"/>
</linearGradient>
<path style="fill:url(#SVGID_00000145738040855016644420000007658115363595010489_);" d="M169.6,69.7c0.3-0.1,0.6-0.1,0.9,0
	c0.3,0.1,0.6,0.3,0.8,0.5c0.2,0.2,0.3,0.5,0.4,0.9c0,0.3,0,0.6-0.2,0.9c-0.1,0.3-0.4,0.5-0.6,0.7c-0.3,0.2-0.6,0.2-0.9,0.2
	c-0.3,0-0.6-0.1-0.9-0.3c-0.3-0.2-0.4-0.5-0.6-0.8c-0.1-0.2-0.1-0.4-0.1-0.6c0-0.2,0.1-0.4,0.2-0.6c0.1-0.2,0.2-0.4,0.4-0.5
	S169.4,69.8,169.6,69.7z"/>
<linearGradient id="SVGID_00000083808653822352199560000015144089465658412421_" gradientUnits="userSpaceOnUse" x1="170.3495" y1="114.2491" x2="176.8555" y2="105.8118" gradientTransform="matrix(1 0 0 -1 0 196)">
	<stop  offset="0" style="stop-color:#FFF176"/>
	<stop  offset="1" style="stop-color:#00E0B8"/>
</linearGradient>
<path style="fill:url(#SVGID_00000083808653822352199560000015144089465658412421_);" d="M173,81c0.7-0.2,1.5-0.2,2.3-0.1
	c0.8,0.1,1.5,0.4,2.1,0.8c0.6,0.4,1.2,1,1.6,1.6c0.4,0.6,0.7,1.4,0.8,2.1c0.1,0.6,0.1,1.3-0.1,1.9c-0.2,0.6-0.4,1.2-0.8,1.7l-2-1.2
	c0.5-0.6,0.7-1.3,0.6-2.1c-0.2-1.5-1.7-2.5-3.9-2.1s-3.4,1.6-3.1,3.2c0.1,0.4,0.2,0.8,0.5,1.1c0.2,0.3,0.5,0.6,0.9,0.9l-1.5,1.7
	c-0.6-0.4-1.1-0.9-1.5-1.5c-0.4-0.6-0.6-1.3-0.7-2c-0.1-0.7-0.1-1.5,0.1-2.2c0.2-0.7,0.5-1.4,1-2c0.5-0.6,1.1-1.1,1.7-1.4
	C171.5,81.2,172.2,81,173,81z"/>
<linearGradient id="SVGID_00000069379599217355906700000014968160687783226026_" gradientUnits="userSpaceOnUse" x1="171.4394" y1="99.2627" x2="177.4554" y2="91.0155" gradientTransform="matrix(1 0 0 -1 0 196)">
	<stop  offset="0" style="stop-color:#FFF176"/>
	<stop  offset="1" style="stop-color:#00E0B8"/>
</linearGradient>
<path style="fill:url(#SVGID_00000069379599217355906700000014968160687783226026_);" d="M168.8,102.3l4.1-1.9v-1.3l-4-0.2l0.1-2.7
	l11.4,0.5l-0.2,4.2c0,2.4-1,4.4-3.8,4.3c-0.7,0-1.4-0.2-1.9-0.6c-0.6-0.4-1-0.9-1.3-1.5l-4.6,2.4L168.8,102.3z M175.2,99.1v1.2
	c0,1.3,0.5,2,1.6,2.1c1.1,0.1,1.5-0.6,1.5-1.9v-1.2L175.2,99.1z"/>
<linearGradient id="SVGID_00000148650007627251546100000003912463356591921330_" gradientUnits="userSpaceOnUse" x1="169.3637" y1="84.9739" x2="175.5847" y2="76.0649" gradientTransform="matrix(1 0 0 -1 0 196)">
	<stop  offset="0" style="stop-color:#FFF176"/>
	<stop  offset="1" style="stop-color:#00E0B8"/>
</linearGradient>
<path style="fill:url(#SVGID_00000148650007627251546100000003912463356591921330_);" d="M179,113.2l-1.7,7.1l-2.2-0.5l1-4.4
	l-2.1-0.5l-0.9,3.7l-2.2-0.5l0.9-3.7l-2.4-0.6l-1.1,4.5l-2.3-0.5l1.7-7.2L179,113.2z"/>
<linearGradient id="SVGID_00000152971216932200758690000005490038128002367108_" gradientUnits="userSpaceOnUse" x1="161.9877" y1="71.9904" x2="169.2007" y2="62.5904" gradientTransform="matrix(1 0 0 -1 0 196)">
	<stop  offset="0" style="stop-color:#FFF176"/>
	<stop  offset="1" style="stop-color:#00E0B8"/>
</linearGradient>
<path style="fill:url(#SVGID_00000152971216932200758690000005490038128002367108_);" d="M164.4,129.4l1.4-3.1l-2.1-1.7l1.1-2.6
	l9,7.9l-1.3,3l-11.9-1.5l1.2-2.6L164.4,129.4z M166.6,129.8l1,0.2c1.2,0.2,2.5,0.5,3.7,0.7c-1-0.7-2.1-1.6-3-2.3l-0.8-0.6
	L166.6,129.8z"/>
<linearGradient id="SVGID_00000080894644754229519940000007912171218270875554_" gradientUnits="userSpaceOnUse" x1="159.5497" y1="59.4409" x2="167.1517" y2="50.2449" gradientTransform="matrix(1 0 0 -1 0 196)">
	<stop  offset="0" style="stop-color:#FFF176"/>
	<stop  offset="1" style="stop-color:#00E0B8"/>
</linearGradient>
<path style="fill:url(#SVGID_00000080894644754229519940000007912171218270875554_);" d="M165,141.6l1.7-2.6l1.9,1.3l-5,7.4
	l-1.9-1.3l1.7-2.6l-7.6-5.2l1.5-2.3L165,141.6z"/>
<linearGradient id="SVGID_00000005967586336542222690000001051879722896406662_" gradientUnits="userSpaceOnUse" x1="147.5318" y1="48.9855" x2="156.4958" y2="39.0855" gradientTransform="matrix(1 0 0 -1 0 196)">
	<stop  offset="0" style="stop-color:#FFF176"/>
	<stop  offset="1" style="stop-color:#00E0B8"/>
</linearGradient>
<path style="fill:url(#SVGID_00000005967586336542222690000001051879722896406662_);" d="M158.8,153.3l-5.1,5.2l-1.6-1.6l3.1-3.2
	l-1.5-1.5l-2.7,2.7l-1.7-1.6l2.7-2.7l-1.7-1.7l-3.2,3.4l-1.7-1.6l5.2-5.3L158.8,153.3z"/>
<linearGradient id="SVGID_00000144333535495318040050000013057879297595554961_" gradientUnits="userSpaceOnUse" x1="129.2659" y1="34.1587" x2="137.3289" y2="26.0157" gradientTransform="matrix(1 0 0 -1 0 196)">
	<stop  offset="0" style="stop-color:#FFF176"/>
	<stop  offset="1" style="stop-color:#00E0B8"/>
</linearGradient>
<path style="fill:url(#SVGID_00000144333535495318040050000013057879297595554961_);" d="M138,163.5c1.7,3.3,0.9,6.2-1.9,7.6
	c-2.8,1.4-5.6,0.5-7.4-2.8c-1.7-3.3-0.9-6.3,1.9-7.7C133.3,159.2,136.2,160.2,138,163.5z M131.2,167.1c1,2,2.5,2.7,3.8,2
	c1.3-0.7,1.6-2.3,0.5-4.2c-1-2-2.5-2.8-3.8-2.1C130.3,163.5,130.1,165.1,131.2,167.1z"/>
<linearGradient id="SVGID_00000036213440898066899240000009896845977650155140_" gradientUnits="userSpaceOnUse" x1="111.6664" y1="27.7966" x2="121.1564" y2="17.3937" gradientTransform="matrix(1 0 0 -1 0 196)">
	<stop  offset="0" style="stop-color:#FFF176"/>
	<stop  offset="1" style="stop-color:#00E0B8"/>
</linearGradient>
<path style="fill:url(#SVGID_00000036213440898066899240000009896845977650155140_);" d="M124.6,176.2l-2.7,0.7l-2-4.9l-1.3-3.5
	c0,1.2,0.2,2.5,0.2,3.7l0.1,5.3l-2.2,0.6l-2.4-4.8c-0.5-1.1-1-2.2-1.5-3.4c0.2,1.2,0.3,2.4,0.5,3.6l0.6,5.2l-2.5,0.6l-0.9-11.6
	l3.4-0.9l2.2,4.6c0.4,0.8,0.8,1.7,1.1,2.5c0-0.9-0.2-1.7-0.2-2.7l-0.2-5.1l3.3-0.8L124.6,176.2z"/>
<linearGradient id="SVGID_00000095328696121577746680000018302585352305914540_" gradientUnits="userSpaceOnUse" x1="94.9008" y1="24.6941" x2="102.6681" y2="17.9661" gradientTransform="matrix(1 0 0 -1 0 196)">
	<stop  offset="0" style="stop-color:#FFF176"/>
	<stop  offset="1" style="stop-color:#00E0B8"/>
</linearGradient>
<path style="fill:url(#SVGID_00000095328696121577746680000018302585352305914540_);" d="M103.4,180.4h-2.8l-2.9-5.4l-1.2-2.5
	c0.2,1.4,0.4,2.8,0.4,4.2v3.8h-2.6L94.2,169H97l2.9,5.5l1.2,2.5c-0.1-1.3-0.4-2.8-0.4-4.2v-3.8h2.6L103.4,180.4z"/>
<linearGradient id="SVGID_00000034073391295782730290000000015390583274508182_" gradientUnits="userSpaceOnUse" x1="68.8451" y1="30.0819" x2="78.5364" y2="20.0739" gradientTransform="matrix(1 0 0 -1 0 196)">
	<stop  offset="0" style="stop-color:#FFF176"/>
	<stop  offset="1" style="stop-color:#00E0B8"/>
</linearGradient>
<path style="fill:url(#SVGID_00000034073391295782730290000000015390583274508182_);" d="M77.2,178l-2.8-0.9l-0.2-5.2
	c0-0.7,0-1.5,0-2.2c-0.4,0.6-0.8,1.2-1.2,1.7l-3.2,4.2l-2.8-0.9l3.5-10.9l2.4,0.8l-1.2,3.7c-0.4,1.2-1,2.5-1.6,3.7l1.7-2.3l2.7-3.5
	l1.4,0.5l0.2,4.4v2.9c0.2-1.3,0.5-2.6,0.9-3.9l1.2-3.7l2.3,0.7L77.2,178z"/>
<linearGradient id="SVGID_00000068658472052479785580000007605306805469216408_" gradientUnits="userSpaceOnUse" x1="53.1138" y1="36.4901" x2="62.0975" y2="27.4941" gradientTransform="matrix(1 0 0 -1 0 196)">
	<stop  offset="0" style="stop-color:#FFF176"/>
	<stop  offset="1" style="stop-color:#00E0B8"/>
</linearGradient>
<path style="fill:url(#SVGID_00000068658472052479785580000007605306805469216408_);" d="M62,165.9l-3.1,5.2l-2.3-1.4l3.2-5.5
	c1.1-1.9,1-2.8-0.1-3.5s-2.1-0.3-3.2,1.5l-3.2,5.5l-2.3-1.4l3.1-5.2c2-3.3,4.2-4,6.8-2.4C63.6,160.3,64,162.5,62,165.9z"/>
<linearGradient id="SVGID_00000087372169490193789900000017359579292831705790_" gradientUnits="userSpaceOnUse" x1="41.8325" y1="45.8138" x2="49.419" y2="37.1088" gradientTransform="matrix(1 0 0 -1 0 196)">
	<stop  offset="0" style="stop-color:#FFF176"/>
	<stop  offset="1" style="stop-color:#00E0B8"/>
</linearGradient>
<path style="fill:url(#SVGID_00000087372169490193789900000017359579292831705790_);" d="M51.7,154.3l-2.4,0.4c-0.1-1-0.6-2-1.3-2.7
	c-0.7-0.7-1.4-0.7-1.7-0.3c-0.4,0.5-0.1,1.1,0.3,2l0.7,1.4c0.4,0.6,0.5,1.3,0.4,2c-0.1,0.7-0.4,1.4-0.8,1.9
	c-0.4,0.3-0.8,0.6-1.3,0.8c-0.5,0.2-1,0.3-1.5,0.2c-0.5,0-1-0.1-1.5-0.4c-0.5-0.2-0.9-0.5-1.2-0.9c-0.5-0.5-0.9-1-1.2-1.6
	c-0.3-0.6-0.5-1.3-0.5-2l2.2-0.4c0.1,0.9,0.5,1.6,1.2,2.2c0.6,0.6,1.2,0.7,1.7,0.2c0.5-0.5,0-1.1-0.4-2.1l-0.7-1.4
	c-0.4-0.6-0.5-1.3-0.4-2c0.1-0.7,0.4-1.3,0.9-1.9c0.4-0.4,0.8-0.7,1.3-0.8c0.5-0.2,1-0.3,1.6-0.2c0.5,0,1,0.2,1.5,0.4
	c0.5,0.2,0.9,0.6,1.2,1C50.9,151.3,51.6,152.8,51.7,154.3z"/>
<linearGradient id="SVGID_00000119103649629012687170000016685930970007821962_" gradientUnits="userSpaceOnUse" x1="34.1252" y1="54.1083" x2="40.3423" y2="46.4453" gradientTransform="matrix(1 0 0 -1 0 196)">
	<stop  offset="0" style="stop-color:#FFF176"/>
	<stop  offset="1" style="stop-color:#00E0B8"/>
</linearGradient>
<path style="fill:url(#SVGID_00000119103649629012687170000016685930970007821962_);" d="M33.6,150.4l-1.7-2.2l8.9-7.2l1.7,2.2
	L33.6,150.4z"/>
<linearGradient id="SVGID_00000055691584751106303930000002137010389479751358_" gradientUnits="userSpaceOnUse" x1="26.1483" y1="65.5463" x2="33.5196" y2="57.0643" gradientTransform="matrix(1 0 0 -1 0 196)">
	<stop  offset="0" style="stop-color:#FFF176"/>
	<stop  offset="1" style="stop-color:#00E0B8"/>
</linearGradient>
<path style="fill:url(#SVGID_00000055691584751106303930000002137010389479751358_);" d="M32.5,139.2c-0.6,0.4-1.3,0.7-2.1,0.9
	c-0.7,0.1-1.5,0.1-2.3,0c-0.7-0.2-1.4-0.5-2.1-0.9c-0.6-0.4-1.1-1-1.5-1.7c-0.3-0.6-0.5-1.2-0.6-1.8c-0.1-0.6,0-1.3,0.2-1.9l2.2,0.4
	c-0.1,0.4-0.2,0.7-0.1,1.1c0,0.4,0.1,0.7,0.3,1.1c0.7,1.3,2.5,1.7,4.4,0.6c1.9-1.1,2.6-2.7,1.7-4.1c-0.2-0.4-0.5-0.7-0.8-0.9
	c-0.3-0.2-0.7-0.4-1.1-0.5l0.8-2.1c0.7,0.1,1.4,0.4,1.9,0.8c0.6,0.4,1,1,1.4,1.6c0.4,0.6,0.6,1.3,0.7,2.1c0.1,0.7,0,1.5-0.2,2.2
	c-0.2,0.7-0.6,1.4-1.1,1.9C33.8,138.5,33.2,138.9,32.5,139.2z"/>
<linearGradient id="SVGID_00000008144461793471329910000003075453101047220407_" gradientUnits="userSpaceOnUse" x1="23.9213" y1="75.0378" x2="26.0482" y2="72.7118" gradientTransform="matrix(1 0 0 -1 0 196)">
	<stop  offset="0" style="stop-color:#FFF176"/>
	<stop  offset="1" style="stop-color:#00E0B8"/>
</linearGradient>
<path style="fill:url(#SVGID_00000008144461793471329910000003075453101047220407_);" d="M25.5,123.6c-0.2,0.1-0.4,0.1-0.6,0.1
	c-0.2,0-0.4,0-0.6-0.1c-0.2-0.1-0.4-0.2-0.5-0.4c-0.1-0.2-0.3-0.3-0.3-0.5c-0.1-0.4-0.1-0.8,0.1-1.2c0.2-0.4,0.5-0.7,0.9-0.8
	c0.2-0.1,0.4-0.1,0.6-0.1c0.2,0,0.4,0.1,0.6,0.1c0.2,0.1,0.4,0.2,0.5,0.4c0.1,0.2,0.2,0.3,0.3,0.5c0.1,0.2,0.1,0.4,0.1,0.6
	c0,0.2-0.1,0.4-0.2,0.6c-0.1,0.2-0.2,0.3-0.4,0.5C25.9,123.4,25.7,123.5,25.5,123.6z"/>
<linearGradient id="SVGID_00000018946745916098052820000003533241056923394990_" gradientUnits="userSpaceOnUse" x1="85.5248" y1="110.9219" x2="87.7313" y2="108.1483" gradientTransform="matrix(1 0 0 -1 0 196)">
	<stop  offset="0" style="stop-color:#FFF176"/>
	<stop  offset="1" style="stop-color:#00E0B8"/>
</linearGradient>
<path style="fill:url(#SVGID_00000018946745916098052820000003533241056923394990_);" d="M86.7,84.7c-0.5,0-1,0.2-1.4,0.6
	c-0.4,0.4-0.6,0.9-0.6,1.4c0,0.3,0.1,0.5,0.2,0.8c0.1,0.2,0.3,0.5,0.5,0.6h2.6c0.3-0.3,0.5-0.6,0.6-1c0.1-0.4,0.1-0.8-0.1-1.1
	c-0.1-0.4-0.4-0.7-0.7-0.9C87.5,84.8,87.1,84.7,86.7,84.7z"/>
<linearGradient id="SVGID_00000068679070522109205330000000774017198017492105_" gradientUnits="userSpaceOnUse" x1="79.1945" y1="112.497" x2="84.2768" y2="109.5416" gradientTransform="matrix(1 0 0 -1 0 196)">
	<stop  offset="0" style="stop-color:#FFF176"/>
	<stop  offset="1" style="stop-color:#00E0B8"/>
</linearGradient>
<path style="fill:url(#SVGID_00000068679070522109205330000000774017198017492105_);" d="M84,88l-0.1-2.5l-0.2-4.9
	c-0.3,0.3-0.6,0.6-1,0.8c-0.4,0.2-0.8,0.3-1.3,0.3c-0.6,0-1.1-0.2-1.6-0.5l-0.3,6.9v1.1h4.6v-1.1L84,88z"/>
<linearGradient id="SVGID_00000079454275690483998460000016240710837345192115_" gradientUnits="userSpaceOnUse" x1="85.4337" y1="126.9013" x2="88.0638" y2="124.0713" gradientTransform="matrix(1 0 0 -1 0 196)">
	<stop  offset="0" style="stop-color:#FFF176"/>
	<stop  offset="1" style="stop-color:#00E0B8"/>
</linearGradient>
<path style="fill:url(#SVGID_00000079454275690483998460000016240710837345192115_);" d="M86.7,68.6c-0.4,0-0.8,0.1-1.1,0.3
	c-0.3,0.2-0.6,0.5-0.7,0.9c-0.1,0.4-0.2,0.7-0.1,1.1c0.1,0.4,0.3,0.7,0.5,1c0.3,0.3,0.6,0.5,1,0.5c0.4,0.1,0.8,0,1.1-0.1
	c0.4-0.1,0.7-0.4,0.9-0.7c0.2-0.3,0.3-0.7,0.3-1.1c0-0.5-0.2-1-0.6-1.4C87.8,68.8,87.3,68.6,86.7,68.6z"/>
<linearGradient id="SVGID_00000003073271959772396970000017571006087290048956_" gradientUnits="userSpaceOnUse" x1="85.4309" y1="143.0441" x2="88.061" y2="140.2142" gradientTransform="matrix(1 0 0 -1 0 196)">
	<stop  offset="0" style="stop-color:#FFF176"/>
	<stop  offset="1" style="stop-color:#00E0B8"/>
</linearGradient>
<path style="fill:url(#SVGID_00000003073271959772396970000017571006087290048956_);" d="M86.7,52.4c-0.4,0-0.8,0.1-1.1,0.3
	c-0.3,0.2-0.6,0.5-0.7,0.9c-0.1,0.4-0.2,0.7-0.1,1.1c0.1,0.4,0.3,0.7,0.5,1c0.3,0.3,0.6,0.5,1,0.5c0.4,0.1,0.8,0,1.1-0.1
	c0.4-0.1,0.7-0.4,0.9-0.7c0.2-0.3,0.3-0.7,0.3-1.1c0-0.5-0.2-1-0.6-1.4C87.7,52.6,87.3,52.4,86.7,52.4z"/>
<linearGradient id="SVGID_00000037682766710534262150000006039981707366788257_" gradientUnits="userSpaceOnUse" x1="80.562" y1="147.3146" x2="90.3913" y2="140.9711" gradientTransform="matrix(1 0 0 -1 0 196)">
	<stop  offset="0" style="stop-color:#FFF176"/>
	<stop  offset="1" style="stop-color:#00E0B8"/>
</linearGradient>
<path style="fill:url(#SVGID_00000037682766710534262150000006039981707366788257_);" d="M85.1,48c-1.6,1.8-2.7,4-3.5,6.3
	c-0.2,0.6-0.3,1.2-0.5,1.8c-0.1,0.7-0.2,1.2-0.3,1.8c-0.1,0.6-0.1,1.1-0.1,1.6c0.2,0,0.5,0,0.7,0c0.5,0,1,0.1,1.5,0.4v-1.7
	c0-0.6,0-1.1,0.1-1.6c0.1-0.5,0.2-1.1,0.3-1.6c0.5-2.2,1.4-4.2,2.7-6c0.9-1.3,2-2.4,3.2-3.3c0.2-0.6,0.5-1.1,1-1.5
	C88.2,45.1,86.5,46.4,85.1,48z"/>
<linearGradient id="SVGID_00000098197424006776237940000007458883065477220007_" gradientUnits="userSpaceOnUse" x1="80.0971" y1="118.8491" x2="82.727" y2="116.0192" gradientTransform="matrix(1 0 0 -1 0 196)">
	<stop  offset="0" style="stop-color:#FFF176"/>
	<stop  offset="1" style="stop-color:#00E0B8"/>
</linearGradient>
<path style="fill:url(#SVGID_00000098197424006776237940000007458883065477220007_);" d="M81.4,80.5c0.5,0,1-0.2,1.4-0.6
	c0.4-0.4,0.6-0.9,0.6-1.4s-0.2-1-0.6-1.4c-0.4-0.4-0.9-0.6-1.4-0.6c-0.3,0-0.6,0.1-0.8,0.2c-0.3,0.1-0.5,0.3-0.7,0.5
	c-0.3,0.3-0.5,0.8-0.5,1.3c0,0.5,0.2,1,0.6,1.4C80.4,80.3,80.9,80.5,81.4,80.5z"/>
<linearGradient id="SVGID_00000124153630325741752570000018168465977399448717_" gradientUnits="userSpaceOnUse" x1="58.6257" y1="123.3267" x2="134.8474" y2="71.6755" gradientTransform="matrix(1 0 0 -1 0 196)">
	<stop  offset="0" style="stop-color:#FFF176"/>
	<stop  offset="1" style="stop-color:#00E0B8"/>
</linearGradient>
<path style="fill:url(#SVGID_00000124153630325741752570000018168465977399448717_);" d="M132.3,95.2h-1.2v-4.6
	c0-0.6-0.2-1.2-0.7-1.6c-0.4-0.4-1-0.7-1.6-0.7c-0.6,0-1.2,0.2-1.6,0.7c-0.4,0.4-0.7,1-0.7,1.6v3h-2.3v-1.2c0-0.8-0.3-1.6-0.9-2.2
	c-0.6-0.6-1.4-0.9-2.2-1V60.9c0-6.2-2.5-12.2-6.9-16.6c-4.4-4.4-10.4-6.9-16.6-6.9c-6.2,0-12.2,2.5-16.6,6.9S74,54.7,74,60.9v28.2
	c-0.8,0-1.7,0.4-2.2,1c-0.6,0.6-0.9,1.4-0.9,2.3v1.2h-2.3v-3c0-0.6-0.2-1.2-0.7-1.6c-0.4-0.4-1-0.7-1.6-0.7s-1.2,0.2-1.6,0.7
	c-0.4,0.4-0.7,1-0.7,1.6v4.6h-1.2c-0.8,0-1.6,0.3-2.2,0.9c-0.6,0.6-0.9,1.4-0.9,2.2c0,0.8,0.3,1.6,0.9,2.2c0.6,0.6,1.4,0.9,2.2,0.9
	h1.2v30.2c0,5.6,2.2,10.9,6.2,14.9s9.3,6.2,14.9,6.2h6.3v4.9h12.4v-4.9h6.3c5.6,0,10.9-2.2,14.9-6.2c3.9-3.9,6.2-9.3,6.2-14.9v-30.2
	h1.2c0.8,0,1.6-0.3,2.2-0.9c0.6-0.6,0.9-1.4,0.9-2.2s-0.3-1.6-0.9-2.2C133.9,95.6,133.1,95.3,132.3,95.2L132.3,95.2z M63.9,98.5
	h-1.2c0,0-0.1,0-0.1,0c0,0-0.1,0-0.1,0c0,0,0,0,0-0.1c0,0,0-0.1,0-0.1c0-0.1,0-0.1,0.1-0.2c0,0,0.1-0.1,0.2-0.1h1.2V98.5z
	 M124.2,96.4h2.3v3.6h-2.3V96.4z M76.8,60.9c-0.1-2.8,0.4-5.5,1.4-8.1s2.5-4.9,4.4-6.9c1.9-2,4.2-3.6,6.8-4.6c2.5-1.1,5.3-1.6,8-1.6
	c2.8,0,5.5,0.6,8,1.6c2.5,1.1,4.8,2.7,6.8,4.6c1.9,2,3.4,4.3,4.4,6.9s1.5,5.3,1.4,8.1v28.2H76.8V60.9z M68.5,96.4h2.3v3.6h-2.3V96.4
	z M76.3,148.5c-3.4-1.6-6.3-4.2-8.2-7.5c-0.2-0.3-0.4-0.7-0.5-1c-0.2-0.3-0.3-0.7-0.5-1c-0.6-1.4-1-2.8-1.3-4.3l-0.2-1.1v-1.1
	c0-0.8,0-1.5,0-2.2v-4.4c0-5.9,0-11.7,0.1-17.6c0-1.7,0-3.4,0-5.2c0-0.5,0-1.1,0-1.6c0-2.1,0.1-4.1,0.2-6.2c0-0.5,0-1.1,0-1.7l0.1-3
	l0.1,3c0,0.5,0,1.1,0,1.7c0,2.1,0.1,4.1,0.2,6.2c0,0.5,0,1.1,0,1.6c0,1.8,0,3.4,0,5.2c0.1,5.9,0.1,11.7,0.1,17.6v4.4
	c0,0.7,0,1.5,0,2.2v1.1l0.1,1.1c0.2,1.4,0.6,2.8,1.1,4.1c0.6,1.3,1.3,2.5,2.1,3.6c1.7,2.4,3.9,4.3,6.4,5.7c2.5,1.4,5.4,2.2,8.3,2.3
	C81.7,150.3,78.9,149.7,76.3,148.5L76.3,148.5z M84.9,148c-4.3,0-8.5-1.7-11.6-4.8s-4.8-7.2-4.8-11.6v-28.5h2.3v1.2
	c0,0.8,0.3,1.6,0.9,2.2c0.6,0.6,1.4,0.9,2.2,0.9h5.5V92.3c-1.8,0-3.6-0.2-5.5-0.3c7.6-0.4,15.1-0.5,22.7-0.6c3.8,0,7.6,0,11.4,0.1
	c3.8,0,7.6,0.2,11.3,0.5c-3.8,0.2-7.6,0.4-11.3,0.5c-3.8,0.1-7.6,0.1-11.4,0.1h-1.8v14.8h10.7l-10.7,0.4l-4.1,0.2l-3,0.1l-8.2,0.3
	l-5.5,0.2v17.5c0,4.9,2,9.6,5.4,13.1c3.5,3.5,8.2,5.4,13.1,5.4h10c4.9,0,9.6-2,13.1-5.4c3.5-3.5,5.4-8.2,5.4-13.1v-18.8
	c0.8,0,1.6-0.4,2.2-0.9c0.6-0.6,0.9-1.4,0.9-2.2V103h2.3v28.6c0,4.4-1.7,8.5-4.8,11.6c-3.1,3.1-7.2,4.8-11.6,4.8L84.9,148z
	 M93.4,135.1v-0.4V134l-0.2-2.9l-0.7-11.6l-0.6,11.6l-0.1,1.8v1v0.7v0.8c0,0.4,0,0.7,0,1.1c0,0.2,0,0.4,0,0.5c0,0.2,0,0.4,0.1,0.6
	c0.1,0.4,0.3,0.9,0.5,1.3c0.1,0.3,0.3,0.6,0.4,0.8c-0.3-0.3-0.6-0.6-0.9-1c-0.4-0.5-0.6-1.1-0.8-1.7c-0.2-0.6-0.4-1.3-0.4-2
	c0-0.4,0-0.8,0-1.2v-21.4h4.1V134c0,1.1,0,1.9,0,2.7c0,0.8,0.1,1.6,0.3,2.4c-0.6-0.7-1.1-1.6-1.4-2.5c-0.1-0.4-0.2-0.8-0.3-1.2
	L93.4,135.1L93.4,135.1z M86.2,134.9l0.3,0.5c-1.3-1.3-2.1-3-2.3-4.8L83.3,115l-0.9,15.6c0,1.5,0.4,2.9,1.1,4.2
	c0.1,0.2,0.3,0.5,0.4,0.7c-1.3-1.3-2.2-3-2.3-4.9L80.8,115l-0.9,15.6c0,1.5,0.4,2.9,1.1,4.2c0.3,0.5,0.6,1,0.9,1.4
	c-1.5-1.5-2.4-3.5-2.5-5.7v-17.9h8.2v17.9c0,1.2,0,2.2,0,3.1c-0.5-0.9-0.8-1.9-0.8-2.9l-0.9-15.6l-0.9,15.6
	C85.1,132.2,85.5,133.7,86.2,134.9L86.2,134.9z M129.3,130.2c0,0.7,0,1.5,0,2.2v1.1l-0.2,1.1c-0.3,1.5-0.7,2.9-1.3,4.3
	c-0.1,0.3-0.3,0.7-0.5,1c-0.2,0.3-0.3,0.7-0.5,1c-0.4,0.6-0.8,1.2-1.3,1.8c-1.8,2.4-4.2,4.3-6.9,5.6c-2.7,1.3-5.6,1.9-8.6,1.8
	c2.9-0.1,5.7-0.9,8.3-2.3c2.5-1.4,4.7-3.3,6.4-5.7c0.4-0.6,0.8-1.2,1.1-1.8c0.3-0.6,0.6-1.3,0.9-1.9c0.5-1.3,0.9-2.7,1.1-4.1
	l0.1-1.1v-1.1c0-0.7,0-1.4,0-2.2v-4.4c0-5.9,0-11.7,0.1-17.6l0.1-5.2c0-0.5,0-1.1,0-1.6c0-2.1,0.1-4.1,0.2-6.2v-1.7c0-1,0-2,0.1-3
	l0.1,3c0,0.5,0,1.1,0,1.7c0,2.1,0.1,4.1,0.2,6.2c0,0.5,0,1.1,0,1.6c0,1.8,0,3.4,0,5.2c0.1,5.9,0.1,11.7,0.1,17.6L129.3,130.2z
	 M132.2,98.5H131v-0.4h1.2c0.1,0,0.1,0,0.2,0.1c0,0,0.1,0.1,0.1,0.2c0,0,0,0.1,0,0.1C132.3,98.5,132.3,98.5,132.2,98.5L132.2,98.5z"
	/>
<linearGradient id="SVGID_00000035489338720985579500000008904209996346760596_" gradientUnits="userSpaceOnUse" x1="94.4644" y1="153.8972" x2="94.6897" y2="152.5241" gradientTransform="matrix(1 0 0 -1 0 196)">
	<stop  offset="0" style="stop-color:#FFF176"/>
	<stop  offset="1" style="stop-color:#00E0B8"/>
</linearGradient>
<path style="fill:url(#SVGID_00000035489338720985579500000008904209996346760596_);" d="M92.8,43.3c1.5-0.6,3.1-1,4.7-1
	c-2-0.1-4,0.3-5.8,1c0.2,0,0.3,0,0.5,0C92.3,43.3,92.6,43.3,92.8,43.3z"/>
<linearGradient id="SVGID_00000049933709845487504800000010539045255759454863_" gradientUnits="userSpaceOnUse" x1="80.063" y1="134.9003" x2="82.7303" y2="132.0862" gradientTransform="matrix(1 0 0 -1 0 196)">
	<stop  offset="0" style="stop-color:#FFF176"/>
	<stop  offset="1" style="stop-color:#00E0B8"/>
</linearGradient>
<path style="fill:url(#SVGID_00000049933709845487504800000010539045255759454863_);" d="M80.5,64.2c0.2,0.1,0.4,0.2,0.7,0.2
	c0.2,0,0.5,0,0.7,0c0.2-0.1,0.5-0.2,0.6-0.3c0.2-0.1,0.4-0.3,0.5-0.5c0.2-0.3,0.3-0.7,0.3-1.1c0-0.5-0.2-1-0.6-1.4
	c-0.4-0.4-0.8-0.6-1.3-0.6c-0.3,0-0.5,0.1-0.8,0.2c-0.3,0.1-0.6,0.4-0.8,0.7s-0.3,0.6-0.3,1s0.1,0.7,0.3,1S80.2,64,80.5,64.2
	L80.5,64.2z"/>
<linearGradient id="SVGID_00000113334377778014851850000017874554762256106375_" gradientUnits="userSpaceOnUse" x1="87.144" y1="96.3903" x2="91.3404" y2="95.4861" gradientTransform="matrix(1 0 0 -1 0 196)">
	<stop  offset="0" style="stop-color:#FFF176"/>
	<stop  offset="1" style="stop-color:#00E0B8"/>
</linearGradient>
<path style="fill:url(#SVGID_00000113334377778014851850000017874554762256106375_);" d="M90.7,104.6v-12h-3v14.9h3V104.6z"/>
<linearGradient id="SVGID_00000113331961926798311250000005089703969881259689_" gradientUnits="userSpaceOnUse" x1="79.4765" y1="126.2628" x2="84.1451" y2="124.6959" gradientTransform="matrix(1 0 0 -1 0 196)">
	<stop  offset="0" style="stop-color:#FFF176"/>
	<stop  offset="1" style="stop-color:#00E0B8"/>
</linearGradient>
<path style="fill:url(#SVGID_00000113331961926798311250000005089703969881259689_);" d="M80.4,65.4L80,75.8
	c0.4-0.2,0.9-0.3,1.4-0.3c0.8,0,1.6,0.3,2.2,0.9L83,65c-0.5,0.3-1.1,0.5-1.7,0.5C81.1,65.5,80.7,65.5,80.4,65.4z"/>
<linearGradient id="SVGID_00000114052406461624872720000007770264247067953851_" gradientUnits="userSpaceOnUse" x1="90.8094" y1="118.8466" x2="93.4393" y2="116.0169" gradientTransform="matrix(1 0 0 -1 0 196)">
	<stop  offset="0" style="stop-color:#FFF176"/>
	<stop  offset="1" style="stop-color:#00E0B8"/>
</linearGradient>
<path style="fill:url(#SVGID_00000114052406461624872720000007770264247067953851_);" d="M92.1,76.6c-0.5,0-1,0.2-1.4,0.6
	c-0.4,0.4-0.6,0.9-0.6,1.4s0.2,1,0.6,1.4c0.4,0.4,0.9,0.6,1.4,0.6s1-0.2,1.4-0.6c0.4-0.4,0.6-0.9,0.6-1.4s-0.2-1-0.6-1.4
	C93.1,76.8,92.6,76.6,92.1,76.6z"/>
<linearGradient id="SVGID_00000089557919387911449340000013711558674530219696_" gradientUnits="userSpaceOnUse" x1="107.0303" y1="110.9242" x2="109.2373" y2="108.1506" gradientTransform="matrix(1 0 0 -1 0 196)">
	<stop  offset="0" style="stop-color:#FFF176"/>
	<stop  offset="1" style="stop-color:#00E0B8"/>
</linearGradient>
<path style="fill:url(#SVGID_00000089557919387911449340000013711558674530219696_);" d="M108.3,84.7c-0.5,0-1,0.2-1.4,0.6
	c-0.4,0.4-0.6,0.9-0.6,1.4c0,0.3,0.1,0.5,0.2,0.8c0.1,0.2,0.3,0.5,0.5,0.6h2.6c0.3-0.3,0.5-0.6,0.6-1c0.1-0.4,0.1-0.8-0.1-1.1
	s-0.4-0.7-0.7-0.9C109,84.8,108.6,84.7,108.3,84.7z"/>
<linearGradient id="SVGID_00000034768670037021921490000004988573867956946335_" gradientUnits="userSpaceOnUse" x1="101.5611" y1="151.1015" x2="104.1908" y2="148.2712" gradientTransform="matrix(1 0 0 -1 0 196)">
	<stop  offset="0" style="stop-color:#FFF176"/>
	<stop  offset="1" style="stop-color:#00E0B8"/>
</linearGradient>
<path style="fill:url(#SVGID_00000034768670037021921490000004988573867956946335_);" d="M102.9,44.4c-0.4,0-0.8,0.1-1.1,0.3
	c-0.3,0.2-0.6,0.5-0.7,0.9c-0.1,0.4-0.2,0.7-0.1,1.1c0.1,0.4,0.3,0.7,0.5,1c0.3,0.3,0.6,0.5,1,0.5c0.4,0.1,0.8,0,1.1-0.1
	c0.4-0.1,0.7-0.4,0.9-0.7c0.2-0.3,0.3-0.7,0.3-1.1c0-0.5-0.2-1-0.6-1.4C103.9,44.6,103.4,44.4,102.9,44.4z"/>
<linearGradient id="SVGID_00000030457416509707866420000018022360527241144475_" gradientUnits="userSpaceOnUse" x1="112.3126" y1="118.8464" x2="114.9424" y2="116.0171" gradientTransform="matrix(1 0 0 -1 0 196)">
	<stop  offset="0" style="stop-color:#FFF176"/>
	<stop  offset="1" style="stop-color:#00E0B8"/>
</linearGradient>
<path style="fill:url(#SVGID_00000030457416509707866420000018022360527241144475_);" d="M113.6,76.6c-0.5,0-1,0.2-1.4,0.6
	c-0.4,0.4-0.6,0.9-0.6,1.4s0.2,1,0.6,1.4c0.4,0.4,0.9,0.6,1.4,0.6c0.5,0,1-0.2,1.4-0.6c0.4-0.4,0.6-0.9,0.6-1.4s-0.2-1-0.6-1.4
	C114.6,76.8,114.1,76.6,113.6,76.6z"/>
<linearGradient id="SVGID_00000065042138858510555100000014569554697411730304_" gradientUnits="userSpaceOnUse" x1="112.3097" y1="134.9168" x2="114.9399" y2="132.087" gradientTransform="matrix(1 0 0 -1 0 196)">
	<stop  offset="0" style="stop-color:#FFF176"/>
	<stop  offset="1" style="stop-color:#00E0B8"/>
</linearGradient>
<path style="fill:url(#SVGID_00000065042138858510555100000014569554697411730304_);" d="M113.6,60.6c-0.4,0-0.8,0.1-1.1,0.3
	c-0.3,0.2-0.6,0.5-0.7,0.9c-0.1,0.4-0.2,0.7-0.1,1.1c0.1,0.4,0.3,0.7,0.5,1c0.3,0.3,0.6,0.5,1,0.5c0.4,0.1,0.8,0,1.1-0.1
	c0.4-0.1,0.7-0.4,0.9-0.7c0.2-0.3,0.3-0.7,0.3-1.1c0-0.5-0.2-1-0.6-1.4C114.6,60.8,114.1,60.6,113.6,60.6z"/>
<linearGradient id="SVGID_00000042710984624155126850000005287806111528698501_" gradientUnits="userSpaceOnUse" x1="101.5582" y1="134.9169" x2="104.1879" y2="132.0866" gradientTransform="matrix(1 0 0 -1 0 196)">
	<stop  offset="0" style="stop-color:#FFF176"/>
	<stop  offset="1" style="stop-color:#00E0B8"/>
</linearGradient>
<path style="fill:url(#SVGID_00000042710984624155126850000005287806111528698501_);" d="M102.9,60.6c-0.4,0-0.8,0.1-1.1,0.3
	c-0.3,0.2-0.6,0.5-0.7,0.9c-0.1,0.4-0.2,0.7-0.1,1.1c0.1,0.4,0.3,0.7,0.5,1c0.3,0.3,0.6,0.5,1,0.5s0.8,0,1.1-0.1
	c0.4-0.1,0.7-0.4,0.9-0.7c0.2-0.3,0.3-0.7,0.3-1.1c0-0.5-0.2-1-0.6-1.4C103.9,60.8,103.4,60.6,102.9,60.6z"/>
<linearGradient id="SVGID_00000121269345348173241800000000197450272153798542_" gradientUnits="userSpaceOnUse" x1="106.9368" y1="143.0467" x2="109.5662" y2="140.2168" gradientTransform="matrix(1 0 0 -1 0 196)">
	<stop  offset="0" style="stop-color:#FFF176"/>
	<stop  offset="1" style="stop-color:#00E0B8"/>
</linearGradient>
<path style="fill:url(#SVGID_00000121269345348173241800000000197450272153798542_);" d="M108.3,52.4c-0.3,0-0.5,0-0.7,0.1
	c-0.2,0.1-0.4,0.2-0.6,0.4c-0.2,0.2-0.3,0.4-0.4,0.6c-0.1,0.2-0.1,0.5-0.1,0.7c0,0.3,0.1,0.5,0.1,0.7c0.1,0.2,0.2,0.4,0.4,0.6
	c0.2,0.2,0.4,0.3,0.6,0.4c0.2,0.1,0.5,0.1,0.7,0.1c0.3,0,0.5,0,0.7-0.1c0.2-0.1,0.4-0.2,0.6-0.4c0.2-0.2,0.3-0.4,0.4-0.6
	c0.1-0.2,0.1-0.5,0.1-0.7c0-0.3,0-0.5-0.1-0.7c-0.1-0.2-0.2-0.4-0.4-0.6c-0.2-0.2-0.4-0.3-0.6-0.4C108.8,52.5,108.5,52.4,108.3,52.4
	z"/>
<linearGradient id="SVGID_00000132048883476237753620000010752984935851916470_" gradientUnits="userSpaceOnUse" x1="106.9372" y1="126.9016" x2="109.5668" y2="124.0712" gradientTransform="matrix(1 0 0 -1 0 196)">
	<stop  offset="0" style="stop-color:#FFF176"/>
	<stop  offset="1" style="stop-color:#00E0B8"/>
</linearGradient>
<path style="fill:url(#SVGID_00000132048883476237753620000010752984935851916470_);" d="M108.3,68.6c-0.4,0-0.8,0.1-1.1,0.3
	c-0.3,0.2-0.6,0.5-0.7,0.9c-0.1,0.4-0.2,0.7-0.1,1.1c0.1,0.4,0.3,0.7,0.5,1c0.3,0.3,0.6,0.5,1,0.5c0.4,0.1,0.8,0,1.1-0.1
	c0.4-0.1,0.7-0.4,0.9-0.7c0.2-0.3,0.3-0.7,0.3-1.1c0-0.5-0.2-1-0.6-1.4C109.3,68.8,108.8,68.6,108.3,68.6z"/>
<linearGradient id="SVGID_00000114069464828281661470000008843205308654358442_" gradientUnits="userSpaceOnUse" x1="90.8093" y1="151.1012" x2="93.4393" y2="148.2713" gradientTransform="matrix(1 0 0 -1 0 196)">
	<stop  offset="0" style="stop-color:#FFF176"/>
	<stop  offset="1" style="stop-color:#00E0B8"/>
</linearGradient>
<path style="fill:url(#SVGID_00000114069464828281661470000008843205308654358442_);" d="M92.1,44.4c-0.4,0-0.8,0.1-1.1,0.3
	c-0.3,0.2-0.6,0.5-0.7,0.9c-0.1,0.4-0.2,0.7-0.1,1.1c0.1,0.4,0.3,0.7,0.5,1c0.3,0.3,0.6,0.5,1,0.5c0.4,0.1,0.8,0,1.1-0.1
	c0.4-0.1,0.7-0.4,0.9-0.7c0.2-0.3,0.3-0.7,0.3-1.1c0-0.5-0.2-1-0.6-1.4C93.1,44.6,92.6,44.4,92.1,44.4z"/>
<linearGradient id="SVGID_00000168827454904962893010000000687941092286936720_" gradientUnits="userSpaceOnUse" x1="96.2762" y1="110.9218" x2="98.4827" y2="108.1482" gradientTransform="matrix(1 0 0 -1 0 196)">
	<stop  offset="0" style="stop-color:#FFF176"/>
	<stop  offset="1" style="stop-color:#00E0B8"/>
</linearGradient>
<path style="fill:url(#SVGID_00000168827454904962893010000000687941092286936720_);" d="M97.5,84.7c-0.5,0-1,0.2-1.4,0.6
	c-0.4,0.4-0.6,0.9-0.6,1.4c0,0.3,0.1,0.5,0.2,0.8c0.1,0.2,0.3,0.5,0.5,0.6h2.6c0.3-0.3,0.5-0.6,0.6-1c0.1-0.4,0.1-0.8-0.1-1.1
	c-0.1-0.4-0.4-0.7-0.7-0.9C98.3,84.8,97.9,84.7,97.5,84.7z"/>
<linearGradient id="SVGID_00000160172350077430648720000012337966996414336436_" gradientUnits="userSpaceOnUse" x1="90.8066" y1="134.9168" x2="93.4366" y2="132.0869" gradientTransform="matrix(1 0 0 -1 0 196)">
	<stop  offset="0" style="stop-color:#FFF176"/>
	<stop  offset="1" style="stop-color:#00E0B8"/>
</linearGradient>
<path style="fill:url(#SVGID_00000160172350077430648720000012337966996414336436_);" d="M92.1,60.6c-0.4,0-0.8,0.1-1.1,0.3
	c-0.3,0.2-0.6,0.5-0.7,0.9c-0.1,0.4-0.2,0.7-0.1,1.1c0.1,0.4,0.3,0.7,0.5,1c0.3,0.3,0.6,0.5,1,0.5c0.4,0.1,0.8,0,1.1-0.1
	c0.4-0.1,0.7-0.4,0.9-0.7c0.2-0.3,0.3-0.7,0.3-1.1c0-0.5-0.2-1-0.6-1.4C93.1,60.8,92.6,60.6,92.1,60.6z"/>
<linearGradient id="SVGID_00000049937631939538851250000007140237509203295635_" gradientUnits="userSpaceOnUse" x1="96.1851" y1="126.9014" x2="98.815" y2="124.0714" gradientTransform="matrix(1 0 0 -1 0 196)">
	<stop  offset="0" style="stop-color:#FFF176"/>
	<stop  offset="1" style="stop-color:#00E0B8"/>
</linearGradient>
<path style="fill:url(#SVGID_00000049937631939538851250000007140237509203295635_);" d="M97.5,68.6c-0.4,0-0.8,0.1-1.1,0.3
	c-0.3,0.2-0.6,0.5-0.7,0.9c-0.1,0.4-0.2,0.7-0.1,1.1c0.1,0.4,0.3,0.7,0.5,1c0.3,0.3,0.6,0.5,1,0.5c0.4,0.1,0.8,0,1.1-0.1
	c0.4-0.1,0.7-0.4,0.9-0.7c0.2-0.3,0.3-0.7,0.3-1.1c0-0.5-0.2-1-0.6-1.4C98.5,68.8,98,68.6,97.5,68.6z"/>
<linearGradient id="SVGID_00000154395333210156809730000007188603173012389520_" gradientUnits="userSpaceOnUse" x1="96.1851" y1="143.0467" x2="98.815" y2="140.2168" gradientTransform="matrix(1 0 0 -1 0 196)">
	<stop  offset="0" style="stop-color:#FFF176"/>
	<stop  offset="1" style="stop-color:#00E0B8"/>
</linearGradient>
<path style="fill:url(#SVGID_00000154395333210156809730000007188603173012389520_);" d="M97.5,52.4c-0.3,0-0.5,0-0.7,0.1
	c-0.2,0.1-0.4,0.2-0.6,0.4c-0.2,0.2-0.3,0.4-0.4,0.6c-0.1,0.2-0.1,0.5-0.1,0.7c0,0.3,0.1,0.5,0.1,0.7c0.1,0.2,0.2,0.4,0.4,0.6
	c0.2,0.2,0.4,0.3,0.6,0.4c0.2,0.1,0.5,0.1,0.7,0.1c0.3,0,0.5,0,0.7-0.1c0.2-0.1,0.4-0.2,0.6-0.4c0.2-0.2,0.3-0.4,0.4-0.6
	c0.1-0.2,0.1-0.5,0.1-0.7c0-0.3-0.1-0.5-0.1-0.7c-0.1-0.2-0.2-0.4-0.4-0.6c-0.2-0.2-0.4-0.3-0.6-0.4C98,52.5,97.8,52.4,97.5,52.4z"
	/>
<linearGradient id="SVGID_00000074427924948218347590000016517399882682277019_" gradientUnits="userSpaceOnUse" x1="101.5611" y1="118.8469" x2="104.1909" y2="116.0166" gradientTransform="matrix(1 0 0 -1 0 196)">
	<stop  offset="0" style="stop-color:#FFF176"/>
	<stop  offset="1" style="stop-color:#00E0B8"/>
</linearGradient>
<path style="fill:url(#SVGID_00000074427924948218347590000016517399882682277019_);" d="M102.9,76.6c-0.5,0-1,0.2-1.4,0.6
	c-0.4,0.4-0.6,0.9-0.6,1.4s0.2,1,0.6,1.4c0.4,0.4,0.9,0.6,1.4,0.6s1-0.2,1.4-0.6c0.4-0.4,0.6-0.9,0.6-1.4s-0.2-1-0.6-1.4
	C103.9,76.8,103.4,76.6,102.9,76.6z"/>
</svg>
