<svg width="207" height="102" viewBox="0 0 207 102" fill="none" xmlns="http://www.w3.org/2000/svg">
<path opacity="0.8" d="M7.092 46.24V47.104H10.704V46.24H7.092ZM6.684 46.24V51.448C6.684 52.564 7.02 52.84 8.124 52.84C8.364 52.84 9.888 52.84 10.14 52.84C11.244 52.84 11.496 52.288 11.616 50.332C11.364 50.272 10.98 50.116 10.776 49.948C10.716 51.676 10.62 51.988 10.092 51.988C9.744 51.988 8.472 51.988 8.22 51.988C7.668 51.988 7.572 51.904 7.572 51.448V46.24H6.684ZM6.636 42.472V43.336H10.284V47.92H11.16V42.472H6.636ZM0.972 44.596V52.912H1.704V45.364H5.04V52.756H5.784V44.596H0.972ZM1.344 49.432V50.104H5.388V49.432H1.344ZM1.344 51.364V52.096H5.388V51.364H1.344ZM0.684 42.388V43.204H6.048V42.388H0.684ZM2.412 42.616V45.148H3.06V42.616H2.412ZM3.756 42.616V45.148H4.416V42.616H3.756ZM2.532 45.136V46.312C2.532 46.96 2.412 47.752 1.704 48.364C1.824 48.424 2.028 48.604 2.112 48.712C2.856 48.028 3.036 47.068 3.036 46.324V45.136H2.532ZM3.696 45.136V47.632C3.696 48.22 3.84 48.328 4.32 48.328C4.416 48.328 4.824 48.328 4.908 48.328C5.244 48.328 5.412 48.22 5.472 47.968C5.316 47.92 5.112 47.86 4.992 47.764C4.98 47.8 4.944 47.8 4.812 47.8C4.74 47.8 4.428 47.8 4.368 47.8C4.236 47.8 4.212 47.776 4.212 47.632V45.136H3.696ZM12.672 48.784V49.588H23.328V48.784H12.672ZM17.508 47.668V52.936H18.42V47.668H17.508ZM17.1 49.096C16.116 50.368 14.184 51.508 12.432 52.048C12.636 52.228 12.9 52.576 13.044 52.804C14.796 52.168 16.752 50.884 17.844 49.432L17.1 49.096ZM18.84 49.12L18.084 49.48C19.176 50.896 21.132 52.12 22.956 52.72C23.088 52.48 23.364 52.132 23.556 51.952C21.732 51.46 19.812 50.368 18.84 49.12ZM17.04 45.796H18.924V47.116H17.04V45.796ZM17.04 43.816H18.924V45.112H17.04V43.816ZM16.26 43.108V47.824H19.716V43.108H16.26ZM17.664 41.92C17.592 42.352 17.424 42.988 17.28 43.408L17.988 43.564C18.168 43.18 18.372 42.604 18.564 42.064L17.664 41.92ZM12.756 44.26C13.356 44.752 14.064 45.448 14.376 45.928L14.796 45.268C14.484 44.812 13.764 44.14 13.152 43.684L12.756 44.26ZM14.94 46.024C15.288 46.708 15.624 47.632 15.72 48.208L16.356 47.956C16.248 47.404 15.9 46.504 15.54 45.832L14.94 46.024ZM15.24 43.672C14.748 44.764 13.872 46.3 13.176 47.236L13.764 47.512C14.46 46.588 15.312 45.136 15.948 43.948L15.24 43.672ZM14.304 42.004C14.064 42.7 13.608 43.684 13.26 44.296L13.86 44.56C14.232 43.96 14.664 43.048 15.024 42.268L14.304 42.004ZM12.648 47.164L12.744 47.944C13.62 47.8 14.688 47.656 15.792 47.476L15.78 46.828C14.592 46.96 13.464 47.092 12.648 47.164ZM19.644 44.164C20.28 44.716 21 45.496 21.312 46.024L21.78 45.4C21.456 44.896 20.724 44.14 20.1 43.612L19.644 44.164ZM21.876 45.928C22.284 46.684 22.68 47.668 22.8 48.304L23.472 48.028C23.34 47.416 22.92 46.432 22.5 45.7L21.876 45.928ZM22.176 43.66C21.684 44.764 20.772 46.312 20.064 47.26L20.652 47.536C21.372 46.6 22.248 45.136 22.884 43.948L22.176 43.66ZM21.3 41.968C21.06 42.664 20.592 43.648 20.232 44.26L20.832 44.524C21.216 43.924 21.66 43.024 22.032 42.232L21.3 41.968ZM19.692 47.164L19.8 47.944C20.676 47.824 21.768 47.68 22.872 47.536L22.86 46.876C21.672 46.984 20.532 47.092 19.692 47.164ZM26.712 44.224V44.884H29.64V44.224H26.712ZM26.592 51.76V52.444H30.336V51.76H26.592ZM26.052 46.912V47.512H30.06V46.912H26.052ZM25.668 45.544V47.5C25.668 48.88 25.512 50.764 24.396 52.132C24.564 52.24 24.888 52.528 25.008 52.696C26.232 51.208 26.46 49.036 26.46 47.524V45.544H25.668ZM26.112 45.544V46.216H29.628V48.22H26.088V48.892H30.444V45.544H26.112ZM26.268 49.636V52.948H27.048V50.32H29.82V52.864H30.624V49.636H26.268ZM31.428 43.372V50.02H32.292V43.372H31.428ZM34.128 42.148V51.784C34.128 52 34.044 52.072 33.816 52.072C33.6 52.084 32.88 52.096 32.064 52.06C32.196 52.324 32.34 52.732 32.376 52.96C33.456 52.972 34.104 52.948 34.476 52.792C34.848 52.648 35.004 52.384 35.004 51.772V42.148H34.128ZM27.564 42.04C26.976 43.024 25.884 44.248 24.396 45.136C24.576 45.268 24.852 45.556 24.972 45.76C26.556 44.728 27.66 43.468 28.344 42.496V42.232H28.056V42.04H27.564ZM27.732 42.04V42.676H27.912C28.788 43.312 29.88 44.368 30.444 44.992L31.044 44.32C30.432 43.684 29.292 42.712 28.38 42.04H27.732ZM41.844 43.936L41.424 44.8H47.532V43.936H41.844ZM43.344 46.54V47.368H47.256V46.54H43.344ZM43.332 49.18V50.032H47.424V49.18H43.332ZM42.888 44.212V52.96H43.812V44.212H42.888ZM42.3 42.064C41.712 43.828 40.74 45.58 39.648 46.696C39.852 46.84 40.212 47.164 40.344 47.32C41.448 46.084 42.492 44.2 43.176 42.292L42.3 42.064ZM39.42 41.968C38.736 43.792 37.62 45.592 36.42 46.756C36.588 46.972 36.864 47.452 36.948 47.668C38.256 46.324 39.492 44.272 40.284 42.244L39.42 41.968ZM38.136 45.064V52.948H39.048V44.176L39.024 44.164L38.136 45.064ZM54.24 41.44H53.748V53.44H54.24V41.44ZM65.916 44.5V45.364H71.268V44.5H65.916ZM68.088 41.92V52.948H68.976V41.92H68.088ZM68.028 44.884C67.512 46.948 66.312 49.18 65.064 50.38C65.244 50.584 65.496 50.932 65.604 51.184C66.924 49.888 68.124 47.38 68.712 45.112L68.028 44.884ZM69.084 44.884L68.436 45.064C68.964 47.272 69.912 49.66 70.944 50.956C71.112 50.716 71.424 50.404 71.64 50.248C70.584 49.12 69.6 46.924 69.084 44.884ZM60.648 44.5V45.364H65.4V44.5H60.648ZM62.808 41.92V52.948H63.684V41.92H62.808ZM62.736 45.028C62.316 46.78 61.32 48.82 60.348 49.9C60.504 50.116 60.732 50.488 60.84 50.74C61.86 49.54 62.868 47.212 63.348 45.244L62.736 45.028ZM63.66 45.604L63.168 46.072C63.6 46.588 64.692 47.992 65.052 48.616L65.652 47.836C65.352 47.476 64.032 45.952 63.66 45.604ZM75.624 44.284V45.148H83.556V44.284H75.624ZM77.472 47.548V52.912H78.336V48.388H82.092V52.816H83.004V47.548H77.472ZM77.88 51.328V52.18H82.608V51.328H77.88ZM78.876 41.956C78.432 44.908 77.448 48.112 75.168 49.936C75.348 50.116 75.624 50.44 75.756 50.632C78.192 48.64 79.236 45.28 79.812 42.1L78.876 41.956ZM75.312 41.932C74.616 43.756 73.44 45.532 72.228 46.684C72.396 46.9 72.648 47.368 72.732 47.572C74.064 46.24 75.348 44.224 76.164 42.196L75.312 41.932ZM74.064 45.028V52.936H74.928V44.188L74.916 44.176L74.064 45.028ZM86.82 41.932V43.408H87.696V41.932H86.82ZM84.708 42.976V43.744H89.82V42.976H84.708ZM84.504 45.46V46.24H90.024V45.46H84.504ZM85.512 48.532V49.168H89.028V48.532H85.512ZM85.512 50.044V50.668H89.028V50.044H85.512ZM85.452 43.936C85.644 44.416 85.848 45.076 85.896 45.484L86.664 45.292C86.58 44.872 86.388 44.236 86.172 43.756L85.452 43.936ZM88.38 43.732C88.272 44.176 88.032 44.86 87.852 45.292L88.548 45.484C88.74 45.076 88.968 44.488 89.184 43.936L88.38 43.732ZM85.164 47.008V52.948H86.004V47.692H89.052V47.008H85.164ZM88.584 47.008V51.976C88.584 52.108 88.548 52.144 88.392 52.156C88.26 52.168 87.816 52.168 87.3 52.144C87.42 52.372 87.552 52.72 87.6 52.948C88.284 52.948 88.752 52.948 89.076 52.804C89.388 52.672 89.46 52.42 89.46 51.988V47.008H88.584ZM90.984 42.868V43.624H95.376V42.868H90.984ZM90.996 47.86V48.448H94.896V47.86H90.996ZM91.032 49.18V49.78H94.824V49.18H91.032ZM90.96 50.56V51.148H94.944V50.56H90.96ZM90.636 41.92V45.052H91.512V41.92H90.636ZM90.636 44.608V45.316H94.032V46.408H90.636V47.116H94.896V44.608H90.636ZM90.636 46.804V51.664C90.636 52.66 90.96 52.888 92.1 52.888C92.34 52.888 94.068 52.888 94.32 52.888C95.232 52.888 95.484 52.576 95.592 51.472C95.352 51.424 95.004 51.292 94.8 51.16C94.764 51.976 94.68 52.132 94.248 52.132C93.9 52.132 92.448 52.132 92.184 52.132C91.608 52.132 91.512 52.048 91.512 51.652V46.804H90.636Z" fill="white"/>
<path d="M202.929 25.1299L0 25.1299L0 26.0199L202.929 26.0199V25.1299Z" fill="white"/>
<path d="M207 22L190 22V29H207V22Z" fill="#00E0B8"/>
<path d="M9.422 7.95H10.458V6.592H12.992V5.682H10.458V4.296H9.422V5.682H7.322V6.592H9.422V7.95ZM3.696 7.978H4.718V6.606H6.636V5.696H4.718V4.296H3.696V5.696H1.092V6.606H3.696V7.978ZM7.196 14.082C9.1 14.908 11.536 16.196 12.754 17.064L13.272 16.196C12.04 15.342 9.562 14.11 7.7 13.354L7.196 14.082ZM7.448 9.518H10.766V12.052H7.392C7.434 11.73 7.448 11.408 7.448 11.1V9.518ZM3.29 12.052V9.518H6.412V11.1C6.412 11.408 6.398 11.73 6.356 12.052H3.29ZM11.802 12.052V8.594H7.448V7.236H6.412V8.594H2.282V12.052H0.714V13.018H6.104C5.544 14.292 4.158 15.44 0.588 16.238C0.812 16.462 1.092 16.868 1.204 17.092C5.194 16.126 6.678 14.67 7.196 13.018H13.286V12.052H11.802ZM25.452 6.508C25.27 5.948 24.836 5.108 24.444 4.478L23.562 4.786C23.94 5.43 24.346 6.312 24.514 6.872L25.452 6.508ZM20.524 7.684V6.69H17.682C17.794 5.934 17.892 5.164 17.976 4.366L16.954 4.282C16.884 5.108 16.786 5.906 16.674 6.69H14.882V7.684H16.52C16.114 10.12 15.456 12.262 14.378 13.746C14.63 13.872 15.064 14.208 15.246 14.362C16.366 12.654 17.066 10.358 17.528 7.684H20.524ZM18.844 12.234C19.082 12.976 19.32 13.844 19.53 14.67L17.122 15.076C17.892 13.494 18.634 11.436 19.138 9.504L18.144 9.238C17.724 11.352 16.828 13.69 16.534 14.278C16.254 14.894 16.044 15.328 15.792 15.398C15.918 15.65 16.072 16.112 16.114 16.322C16.366 16.168 16.814 16.07 19.74 15.51C19.81 15.874 19.88 16.238 19.922 16.546L20.776 16.252C20.58 15.076 20.09 13.34 19.642 11.982L18.844 12.234ZM22.232 13.466H24.22V15.398H22.232V13.466ZM24.22 7.852V9.756H22.232V7.852H24.22ZM24.22 12.57H22.232V10.666H24.22V12.57ZM27.258 15.398H25.172V13.466H27.062V12.57H25.172V10.666H27.048V9.756H25.172V7.852H27.076V6.928H22.176C22.526 6.172 22.806 5.374 23.058 4.576L22.162 4.352C21.616 6.228 20.72 8.132 19.67 9.378C19.866 9.546 20.188 9.98 20.3 10.162C20.65 9.728 20.972 9.238 21.294 8.706V17.05H22.232V16.35H27.258V15.398ZM30.772 7.488H34.496V10.092H30.772V7.488ZM39.284 7.488V10.092H35.546V7.488H39.284ZM40.334 11.1V6.494H35.546V4.338H34.496V6.494H29.75V11.1H34.468C34.398 12.164 34.146 13.186 33.32 14.04C32.508 13.424 31.864 12.626 31.332 11.562L30.408 11.912C30.968 13.102 31.654 13.998 32.508 14.712C31.654 15.286 30.408 15.776 28.644 16.154C28.854 16.378 29.134 16.812 29.26 17.064C31.15 16.616 32.466 16.028 33.39 15.328C35.252 16.434 37.73 16.84 40.964 17.036C41.034 16.686 41.244 16.238 41.44 15.986C38.304 15.846 35.938 15.552 34.202 14.6C35.14 13.578 35.434 12.374 35.518 11.1H40.334ZM46.074 6.032C45.864 5.542 45.402 4.814 44.996 4.24L44.198 4.646C44.576 5.22 45.024 6.004 45.234 6.508L46.074 6.032ZM46.438 13.046V15.356H44.1V13.046H46.438ZM47.362 12.178H43.19V16.882H44.1V16.224H47.362V12.178ZM43.19 11.142H47.25V10.316H43.19V11.142ZM47.25 8.496H43.19V9.322H47.25V8.496ZM42.616 7.516H47.726V6.662H42.616V7.516ZM48.636 13.242C49.224 13.886 49.938 14.796 50.26 15.356L51.072 14.866C50.75 14.306 50.008 13.438 49.42 12.822L48.636 13.242ZM53.704 9.952H52.682V11.324H47.81V12.276H52.682V15.846C52.682 16.028 52.612 16.07 52.416 16.084C52.234 16.084 51.604 16.084 50.918 16.07C51.058 16.35 51.212 16.742 51.268 17.036C52.178 17.036 52.794 17.022 53.186 16.854C53.578 16.7 53.704 16.434 53.704 15.86V12.276H55.37V11.324H53.704V9.952ZM52.038 5.948V4.296H51.016V5.948H47.796V6.914H51.016V8.706H48.244V9.644H54.936V8.706H52.038V6.914H55.412V5.948H52.038Z" fill="#00E0B8"/>
</svg>
