<svg width="207" height="102" viewBox="0 0 207 102" fill="none" xmlns="http://www.w3.org/2000/svg">
<path opacity="0.8" d="M5.208 42.52V43.36H10.692V42.52H5.208ZM5.22 44.536V45.328H9.384V44.536H5.22ZM5.508 46.396V51.004H6.3V46.396H5.508ZM5.964 46.396V47.176H8.124V49.396H5.964V50.176H8.94V46.396H5.964ZM10.248 42.52V51.748C10.248 51.964 10.176 52.036 9.948 52.036C9.72 52.048 8.916 52.06 8.1 52.024C8.232 52.288 8.364 52.708 8.412 52.96C9.492 52.96 10.188 52.948 10.596 52.792C10.992 52.636 11.124 52.348 11.124 51.76V42.52H10.248ZM1.02 45.556V46.276H4.536V45.556H1.02ZM1.056 42.352V43.072H4.488V42.352H1.056ZM1.02 47.164V47.884H4.536V47.164H1.02ZM0.456 43.924V44.668H4.872V43.924H0.456ZM1.416 48.784V49.528H3.744V51.532H1.416V52.288H4.536V48.784H1.416ZM1.008 48.784V52.84H1.788V48.784H1.008ZM13.74 51.316V52.204H22.284V51.316H13.74ZM13.728 47.812V48.664H22.404V47.812H13.728ZM13.176 44.32V52.972H14.028V45.196H21.984V52.912H22.872V44.32H13.176ZM16.056 42.052V51.904H16.932V42.052H16.056ZM18.96 42.052V51.856H19.848V42.052H18.96ZM30.24 41.44H29.748V53.44H30.24V41.44ZM40.8246 45.7V46.54H45.3126V45.7H40.8246ZM40.3926 43.144V51.424H41.2326V43.444L40.3926 43.144ZM39.3966 51.208L39.5646 52.132C41.1246 51.868 43.3926 51.496 45.5046 51.124L45.4566 50.26C43.2366 50.62 40.8966 51.004 39.3966 51.208ZM44.2686 41.932C43.4166 42.448 41.9166 43.012 40.5966 43.396C40.7166 43.576 40.8606 43.888 40.9086 44.092C42.3126 43.708 43.9206 43.168 45.0366 42.58L44.2686 41.932ZM43.1766 46.06V51.1L43.9926 50.992V46.06H43.1766ZM45.8166 42.688V53.008H46.6926V43.54H49.6566V42.688H45.8166ZM49.4286 42.688V42.988C49.0086 43.948 48.3006 45.592 47.6286 46.804C48.9606 47.848 49.3686 48.736 49.3686 49.492C49.3686 49.924 49.2726 50.26 48.9966 50.416C48.8286 50.512 48.6246 50.548 48.4206 50.56C48.1446 50.572 47.7726 50.572 47.3886 50.536C47.5446 50.8 47.6406 51.196 47.6526 51.448C48.0246 51.472 48.4566 51.472 48.7926 51.436C49.1286 51.4 49.4046 51.304 49.6326 51.172C50.0886 50.872 50.2806 50.32 50.2686 49.576C50.2686 48.724 49.9446 47.776 48.6126 46.672C49.2126 45.592 49.8966 44.236 50.4246 43.084L49.7526 42.652L49.6086 42.688H49.4286ZM54.1086 43.216H59.9646V44.104H54.1086V43.216ZM53.2446 42.616V44.704H60.8646V42.616H53.2446ZM56.5206 41.92V45.652H57.4086V41.92H56.5206ZM51.6246 45.352V46.06H62.3286V45.352H51.6246ZM54.0246 48.532H60.0606V49.276H54.0246V48.532ZM54.0246 49.84H60.0606V50.596H54.0246V49.84ZM54.0246 47.236H60.0606V47.968H54.0246V47.236ZM53.1486 46.648V51.172H60.9606V46.648H53.1486ZM57.9486 51.772C59.2566 52.156 60.5526 52.624 61.3086 52.972L62.3406 52.516C61.4646 52.156 60.0126 51.676 58.6926 51.316L57.9486 51.772ZM55.1766 51.292C54.3126 51.724 52.8606 52.096 51.6126 52.336C51.8166 52.492 52.1286 52.828 52.2726 53.008C53.4726 52.708 55.0086 52.192 55.9806 51.652L55.1766 51.292ZM67.4166 46.912V47.68H74.5086V46.912H67.4166ZM68.5926 48.532V49.252H73.6686V48.532H68.5926ZM69.2166 47.128C68.7006 48.268 67.7646 49.3 66.7566 49.972C66.9366 50.092 67.2246 50.368 67.3566 50.512C68.3526 49.756 69.3726 48.604 69.9606 47.332L69.2166 47.128ZM70.0446 48.652C69.4086 50.056 68.2686 51.292 66.9966 52.072C67.1766 52.192 67.4646 52.48 67.5846 52.612C68.8446 51.76 70.0566 50.416 70.7766 48.856L70.0446 48.652ZM71.8086 48.7C71.3526 50.248 70.4766 51.616 69.3726 52.48C69.5646 52.6 69.8766 52.84 70.0086 52.972C71.1006 52.024 72.0366 50.56 72.5646 48.868L71.8086 48.7ZM73.2846 48.532V48.664C73.1526 50.992 73.0086 51.868 72.7806 52.096C72.6846 52.204 72.5766 52.216 72.4086 52.216C72.2166 52.216 71.7606 52.216 71.2566 52.168C71.3766 52.372 71.4606 52.708 71.4726 52.936C71.9886 52.96 72.4926 52.96 72.7686 52.936C73.0686 52.924 73.2726 52.84 73.4646 52.636C73.7646 52.288 73.9326 51.352 74.0766 48.892C74.0886 48.772 74.1006 48.532 74.1006 48.532H73.2846ZM69.0366 44.536H72.7926V45.484H69.0366V44.536ZM69.0366 42.964H72.7926V43.9H69.0366V42.964ZM68.2086 42.304V46.144H73.6326V42.304H68.2086ZM63.3006 48.304L63.5046 49.192C64.5726 48.868 65.9526 48.436 67.2606 48.028L67.1526 47.224C65.7366 47.632 64.2726 48.064 63.3006 48.304ZM63.5046 44.344V45.184H67.2006V44.344H63.5046ZM65.1366 41.932V51.868C65.1366 52.048 65.0646 52.096 64.9086 52.096C64.7646 52.108 64.2606 52.108 63.7206 52.084C63.8406 52.336 63.9606 52.732 63.9966 52.96C64.7766 52.96 65.2686 52.936 65.5806 52.78C65.8926 52.636 66.0006 52.384 66.0006 51.868V41.932H65.1366ZM85.4897 42.748V43.588H92.4857V42.748H85.4897ZM90.5897 43.168V51.832C90.5897 52.072 90.4937 52.144 90.2417 52.156C89.9777 52.168 89.0897 52.168 88.1417 52.144C88.2617 52.384 88.4057 52.732 88.4537 52.96C89.6897 52.972 90.4217 52.96 90.8537 52.828C91.2737 52.696 91.4537 52.456 91.4537 51.832V43.168H90.5897ZM86.3057 45.292V46.072H88.5017V48.868H86.3057V49.648H89.3057V45.292H86.3057ZM85.8977 45.292V50.56H86.6897V45.292H85.8977ZM81.8897 42.448V52.972H82.7057V43.264H84.6857V42.448H81.8897ZM84.4697 42.448V42.688C84.2177 43.504 83.7737 44.884 83.3297 45.976C84.2057 46.924 84.4217 47.764 84.4217 48.424C84.4217 48.784 84.3497 49.12 84.1697 49.252C84.0617 49.324 83.9417 49.348 83.7857 49.36C83.5937 49.384 83.3657 49.372 83.0897 49.348C83.2217 49.576 83.3057 49.924 83.3177 50.14C83.5817 50.152 83.8817 50.152 84.1217 50.128C84.3737 50.092 84.5777 50.02 84.7457 49.9C85.0817 49.66 85.2257 49.144 85.2257 48.496C85.2257 47.752 85.0217 46.876 84.1457 45.88C84.5537 44.92 84.9977 43.744 85.3457 42.76L84.7577 42.412L84.6257 42.448H84.4697ZM93.6017 48.784V49.588H104.258V48.784H93.6017ZM98.4377 47.668V52.936H99.3497V47.668H98.4377ZM98.0297 49.096C97.0457 50.368 95.1137 51.508 93.3617 52.048C93.5657 52.228 93.8297 52.576 93.9737 52.804C95.7257 52.168 97.6817 50.884 98.7737 49.432L98.0297 49.096ZM99.7697 49.12L99.0137 49.48C100.106 50.896 102.062 52.12 103.886 52.72C104.018 52.48 104.294 52.132 104.486 51.952C102.662 51.46 100.742 50.368 99.7697 49.12ZM97.9697 45.796H99.8537V47.116H97.9697V45.796ZM97.9697 43.816H99.8537V45.112H97.9697V43.816ZM97.1897 43.108V47.824H100.646V43.108H97.1897ZM98.5937 41.92C98.5217 42.352 98.3537 42.988 98.2097 43.408L98.9177 43.564C99.0977 43.18 99.3017 42.604 99.4937 42.064L98.5937 41.92ZM93.6857 44.26C94.2857 44.752 94.9937 45.448 95.3057 45.928L95.7257 45.268C95.4137 44.812 94.6937 44.14 94.0817 43.684L93.6857 44.26ZM95.8697 46.024C96.2177 46.708 96.5537 47.632 96.6497 48.208L97.2857 47.956C97.1777 47.404 96.8297 46.504 96.4697 45.832L95.8697 46.024ZM96.1697 43.672C95.6777 44.764 94.8017 46.3 94.1057 47.236L94.6937 47.512C95.3897 46.588 96.2417 45.136 96.8777 43.948L96.1697 43.672ZM95.2337 42.004C94.9937 42.7 94.5377 43.684 94.1897 44.296L94.7897 44.56C95.1617 43.96 95.5937 43.048 95.9537 42.268L95.2337 42.004ZM93.5777 47.164L93.6737 47.944C94.5497 47.8 95.6177 47.656 96.7217 47.476L96.7097 46.828C95.5217 46.96 94.3937 47.092 93.5777 47.164ZM100.574 44.164C101.21 44.716 101.93 45.496 102.242 46.024L102.71 45.4C102.386 44.896 101.654 44.14 101.03 43.612L100.574 44.164ZM102.806 45.928C103.214 46.684 103.61 47.668 103.73 48.304L104.402 48.028C104.27 47.416 103.85 46.432 103.43 45.7L102.806 45.928ZM103.106 43.66C102.614 44.764 101.702 46.312 100.994 47.26L101.582 47.536C102.302 46.6 103.178 45.136 103.814 43.948L103.106 43.66ZM102.23 41.968C101.99 42.664 101.522 43.648 101.162 44.26L101.762 44.524C102.146 43.924 102.59 43.024 102.962 42.232L102.23 41.968ZM100.622 47.164L100.73 47.944C101.606 47.824 102.698 47.68 103.802 47.536L103.79 46.876C102.602 46.984 101.462 47.092 100.622 47.164ZM7.38 70.076V74.852H7.992V70.076H7.38ZM8.916 70.076V74.852H9.54V70.076H8.916ZM4.692 64.652V65.444H11.304V64.652H4.692ZM6.144 71.936V72.62H10.932V71.936H6.144ZM5.16 66.236V68.876C5.16 70.496 5.04 72.704 3.876 74.288C4.056 74.384 4.404 74.636 4.536 74.792C5.772 73.112 5.976 70.616 5.976 68.888V66.236H5.16ZM5.52 66.236V66.98H10.14V68.276H5.52V69.02H11.004V66.236H5.52ZM5.808 69.836V74.972H6.48V70.544H10.98V69.836H5.808ZM10.5 69.836V74.096C10.5 74.204 10.476 74.228 10.392 74.228C10.296 74.228 10.056 74.228 9.756 74.216C9.852 74.432 9.972 74.744 9.996 74.96C10.452 74.96 10.764 74.936 10.98 74.828C11.208 74.684 11.256 74.468 11.256 74.108V69.836H10.5ZM2.352 63.932C2.052 64.724 1.5 65.9 1.08 66.596L1.68 66.86C2.124 66.188 2.688 65.108 3.12 64.22L2.352 63.932ZM3.624 65.3C3 66.56 1.92 68.348 1.068 69.416L1.608 69.704C2.472 68.672 3.576 66.968 4.368 65.636L3.624 65.3ZM0.432 66.416C1.068 67.016 1.788 67.868 2.088 68.444L2.592 67.784C2.28 67.244 1.548 66.428 0.912 65.84L0.432 66.416ZM3.168 68.012C3.612 68.828 4.02 69.908 4.152 70.58L4.824 70.292C4.704 69.62 4.26 68.564 3.804 67.772L3.168 68.012ZM0.336 69.236L0.432 70.04C1.476 69.968 2.844 69.884 4.2 69.8V69.032C2.76 69.116 1.332 69.188 0.336 69.236ZM3.396 70.928C3.672 71.624 3.9 72.536 3.96 73.136L4.632 72.932C4.572 72.344 4.32 71.432 4.032 70.748L3.396 70.928ZM1.056 70.784C0.924 71.828 0.696 72.908 0.312 73.64C0.492 73.712 0.84 73.868 0.984 73.976C1.356 73.208 1.644 72.044 1.8 70.916L1.056 70.784ZM2.268 69.584V74.96H3.048V69.584H2.268ZM13.74 73.316V74.204H22.284V73.316H13.74ZM13.728 69.812V70.664H22.404V69.812H13.728ZM13.176 66.32V74.972H14.028V67.196H21.984V74.912H22.872V66.32H13.176ZM16.056 64.052V73.904H16.932V64.052H16.056ZM18.96 64.052V73.856H19.848V64.052H18.96ZM30.24 63.44H29.748V75.44H30.24V63.44ZM43.3446 65.18V65.972H50.2926V65.18H43.3446ZM46.3326 63.932V74.96H47.2086V63.932H46.3326ZM47.5806 70.604L46.9326 70.82C47.5806 72.236 48.7926 73.64 50.0046 74.348C50.1366 74.132 50.4126 73.808 50.6046 73.64C49.4166 73.064 48.2046 71.84 47.5806 70.604ZM44.6406 69.332H48.9486V70.4H44.6406V69.332ZM44.6406 67.628H48.9486V68.684H44.6406V67.628ZM43.8366 66.956V71.084H49.7886V66.956H43.8366ZM45.9246 70.616C45.2406 71.864 43.8966 73.112 42.6126 73.7C42.8166 73.88 43.0926 74.192 43.2246 74.408C44.5326 73.7 45.9006 72.32 46.6446 70.868L45.9246 70.616ZM39.9366 64.448V74.972H40.7526V65.264H42.7686V64.448H39.9366ZM42.4926 64.448V64.688C42.2406 65.516 41.7966 66.944 41.3646 68.036C42.2286 68.972 42.4446 69.788 42.4446 70.436C42.4446 70.796 42.3846 71.12 42.1926 71.252C42.0966 71.324 41.9646 71.36 41.8206 71.36C41.6286 71.384 41.4006 71.372 41.1246 71.348C41.2566 71.576 41.3286 71.924 41.3406 72.14C41.6166 72.152 41.9166 72.152 42.1566 72.128C42.3966 72.092 42.6126 72.02 42.7806 71.912C43.1166 71.672 43.2486 71.168 43.2486 70.52C43.2486 69.776 43.0566 68.936 42.1686 67.94C42.5766 66.98 43.0206 65.744 43.3686 64.76L42.7926 64.412L42.6486 64.448H42.4926ZM51.6486 68.156V68.924H62.3766V68.156H51.6486ZM52.2486 64.952V65.708H61.9446V64.952H52.2486ZM56.4846 63.932V65.444H57.3966V63.932H56.4846ZM52.5966 68.54V70.148C52.5966 71.408 52.4406 73.16 51.3006 74.444C51.5046 74.552 51.8766 74.852 52.0206 75.02C53.2446 73.64 53.4966 71.6 53.4966 70.16V68.54H52.5966ZM53.8446 66.224C55.8486 66.704 58.3086 67.58 59.6526 68.204L60.3366 67.676C58.9326 67.076 56.4726 66.224 54.5526 65.756L53.8446 66.224ZM59.3286 65.444C58.0926 66.404 55.5006 67.244 53.4246 67.676C53.5446 67.832 53.7126 68.12 53.7846 68.288C55.9566 67.808 58.5006 66.908 60.0126 65.816L59.3286 65.444ZM59.3406 68.792C58.2246 69.488 56.1006 70.004 54.3126 70.244C54.4926 70.424 54.6726 70.7 54.7926 70.892C56.6646 70.58 58.7886 70.004 60.0726 69.188L59.3406 68.792ZM60.0846 70.244C58.8966 71.168 56.5686 71.828 54.4206 72.14C54.6006 72.32 54.7806 72.608 54.8886 72.812C57.1446 72.428 59.4846 71.708 60.8526 70.64L60.0846 70.244ZM61.1886 71.672C59.7726 73.124 56.8806 73.928 53.6886 74.264C53.8566 74.468 54.0366 74.804 54.1206 75.032C57.4566 74.624 60.4086 73.736 62.0046 72.08L61.1886 71.672ZM63.5286 71.684V72.428H74.4246V71.684H63.5286ZM63.7686 65.228V65.96H74.1366V65.228H63.7686ZM65.2926 69.164V69.716H72.5886V69.164H65.2926ZM70.7406 70.808V73.964C70.7406 74.12 70.6926 74.156 70.4766 74.18C70.2726 74.18 69.6246 74.18 68.8326 74.156C68.9646 74.408 69.0966 74.732 69.1446 74.972C70.1046 74.972 70.7286 74.972 71.1246 74.84C71.5086 74.72 71.6166 74.48 71.6166 73.976V70.808H70.7406ZM65.6766 72.932C66.3966 73.376 67.2486 74.06 67.6446 74.54L68.2446 73.952C67.8246 73.472 66.9486 72.824 66.2406 72.392L65.6766 72.932ZM65.8686 64.208C66.2286 64.592 66.6486 65.132 66.8406 65.48L67.6086 65.12C67.3926 64.772 66.9606 64.256 66.6006 63.896L65.8686 64.208ZM65.5566 67.268H72.3606V70.34H65.5566V67.268ZM64.7286 66.68V70.928H73.2246V66.68H64.7286ZM71.1486 63.908C70.9566 64.328 70.5846 64.952 70.2966 65.348L70.9686 65.6C71.3046 65.24 71.7126 64.7 72.0726 64.184L71.1486 63.908ZM69.5406 65.576V67.748C69.5406 68.42 69.7566 68.564 70.6566 68.564C70.8366 68.564 72.0006 68.564 72.1926 68.564C72.7326 68.564 72.9486 68.456 73.0086 68.168C72.8046 68.144 72.5406 68.072 72.3726 67.976C72.3486 68.036 72.2886 68.048 72.0726 68.048C71.8566 68.048 70.9206 68.048 70.7406 68.048C70.3926 68.048 70.3326 68 70.3326 67.76V65.576H69.5406ZM67.5246 65.564V67.004C67.5246 67.568 67.3206 68.18 65.7726 68.468C65.9286 68.6 66.1326 68.876 66.2166 69.044C67.9326 68.6 68.3046 67.808 68.3046 67.004V65.564H67.5246ZM82.2773 65.4688H83.373L86.168 72.4238L88.957 65.4688H90.0586L86.5898 74H85.7344L82.2773 65.4688ZM81.9199 65.4688H82.8867L83.0449 70.6719V74H81.9199V65.4688ZM89.4434 65.4688H90.4102V74H89.2852V70.6719L89.4434 65.4688ZM93.4102 67.6602V74H92.3203V67.6602H93.4102ZM92.2383 65.9785C92.2383 65.8027 92.291 65.6543 92.3965 65.5332C92.5059 65.4121 92.666 65.3516 92.877 65.3516C93.084 65.3516 93.2422 65.4121 93.3516 65.5332C93.4648 65.6543 93.5215 65.8027 93.5215 65.9785C93.5215 66.1465 93.4648 66.291 93.3516 66.4121C93.2422 66.5293 93.084 66.5879 92.877 66.5879C92.666 66.5879 92.5059 66.5293 92.3965 66.4121C92.291 66.291 92.2383 66.1465 92.2383 65.9785ZM96.2402 65V74H95.1504V65H96.2402ZM100.113 67.6602L97.3477 70.6191L95.8008 72.2246L95.7129 71.0703L96.8203 69.7461L98.7891 67.6602H100.113ZM99.123 74L96.8613 70.9766L97.4238 70.0098L100.4 74H99.123ZM103.746 74.1172C103.305 74.1172 102.904 74.043 102.545 73.8945C102.189 73.7422 101.883 73.5293 101.625 73.2559C101.371 72.9824 101.176 72.6582 101.039 72.2832C100.902 71.9082 100.834 71.498 100.834 71.0527V70.8066C100.834 70.291 100.91 69.832 101.062 69.4297C101.215 69.0234 101.422 68.6797 101.684 68.3984C101.945 68.1172 102.242 67.9043 102.574 67.7598C102.906 67.6152 103.25 67.543 103.605 67.543C104.059 67.543 104.449 67.6211 104.777 67.7773C105.109 67.9336 105.381 68.1523 105.592 68.4336C105.803 68.7109 105.959 69.0391 106.061 69.418C106.162 69.793 106.213 70.2031 106.213 70.6484V71.1348H101.479V70.25H105.129V70.168C105.113 69.8867 105.055 69.6133 104.953 69.3477C104.855 69.082 104.699 68.8633 104.484 68.6914C104.27 68.5195 103.977 68.4336 103.605 68.4336C103.359 68.4336 103.133 68.4863 102.926 68.5918C102.719 68.6934 102.541 68.8457 102.393 69.0488C102.244 69.252 102.129 69.5 102.047 69.793C101.965 70.0859 101.924 70.4238 101.924 70.8066V71.0527C101.924 71.3535 101.965 71.6367 102.047 71.9023C102.133 72.1641 102.256 72.3945 102.416 72.5938C102.58 72.793 102.777 72.9492 103.008 73.0625C103.242 73.1758 103.508 73.2324 103.805 73.2324C104.188 73.2324 104.512 73.1543 104.777 72.998C105.043 72.8418 105.275 72.6328 105.475 72.3711L106.131 72.8926C105.994 73.0996 105.82 73.2969 105.609 73.4844C105.398 73.6719 105.139 73.8242 104.83 73.9414C104.525 74.0586 104.164 74.1172 103.746 74.1172Z" fill="white"/>
<path d="M202.929 25.1299L0 25.1299L0 26.0199L202.929 26.0199V25.1299Z" fill="white"/>
<path d="M207 22L190 22V29H207V22Z" fill="#00E0B8"/>
<path d="M12.32 6.074H7.826C7.602 5.514 7.238 4.786 6.916 4.212L5.964 4.52C6.216 4.996 6.482 5.57 6.692 6.074H1.806V7.04H12.32V6.074ZM13.202 10.61V9.63H9.604C9.94 8.958 10.318 8.104 10.626 7.348L9.548 7.082C9.338 7.824 8.918 8.888 8.554 9.63H4.732L5.418 9.378C5.292 8.79 4.858 7.838 4.452 7.124L3.5 7.418C3.864 8.104 4.242 9.028 4.396 9.63H0.812V10.61H6.44V12.794H1.484V13.788H6.44V17.078H7.49V13.788H12.614V12.794H7.49V10.61H13.202ZM17.696 7.236H18.718V6.214H20.692V5.304H18.718V4.282H17.696V5.304H14.896V6.214H17.696V7.236ZM18.746 8.706C19.656 8.552 20.51 8.356 21.196 8.118L20.468 7.39C19.236 7.824 16.94 8.146 15.022 8.328C15.134 8.538 15.26 8.888 15.302 9.112C16.072 9.056 16.926 8.958 17.766 8.846V10.47H14.896V11.394H17.43C16.73 12.878 15.596 14.362 14.546 15.132C14.756 15.314 15.064 15.664 15.246 15.888C16.128 15.132 17.052 13.914 17.766 12.584V17.064H18.746V12.878C19.418 13.466 20.244 14.25 20.608 14.656L21.252 13.858C20.902 13.536 19.334 12.318 18.746 11.898V11.394H21.28V10.47H18.746V8.706ZM22.008 14.488H23.002V8.09H22.008V14.488ZM25.256 15.79C25.256 16.014 25.172 16.07 24.934 16.084C24.724 16.098 23.954 16.098 23.128 16.07C23.268 16.35 23.436 16.784 23.478 17.078C24.57 17.078 25.27 17.064 25.704 16.882C26.11 16.714 26.264 16.434 26.264 15.804V7.404H25.256V15.79ZM24.346 5.304V4.282H23.324V5.304H21.266V6.214H23.324V7.264H24.346V6.214H27.188V5.304H24.346ZM37.968 10.008C37.324 9.462 36.064 8.58 35.098 7.978L35.112 7.922H37.968V7.11H35.322C35.392 6.76 35.434 6.382 35.476 5.99H34.58C34.552 6.382 34.496 6.76 34.426 7.11H32.018V7.922H34.202C33.824 8.846 33.152 9.532 31.85 9.98C32.032 10.12 32.256 10.428 32.34 10.624C33.572 10.176 34.328 9.532 34.804 8.692C35.728 9.322 36.792 10.092 37.38 10.624L37.968 10.008ZM38.808 10.932H31.22V5.724H38.808V10.932ZM39.9 4.828H30.198V11.814H39.9V4.828ZM34.034 12.5C34.748 13.172 35.532 14.138 35.882 14.768L36.75 14.264C36.4 13.62 35.588 12.71 34.86 12.066L34.034 12.5ZM29.708 16.35C30.408 15.496 30.926 14.124 31.276 13.046L30.38 12.71C30.072 13.746 29.498 15.034 28.784 15.846L29.708 16.35ZM34.062 15.86C33.264 15.86 33.124 15.776 33.124 15.384V12.668H32.088V15.398C32.088 16.504 32.48 16.812 33.992 16.812H36.862C38.164 16.812 38.486 16.35 38.626 14.46C38.332 14.39 37.898 14.236 37.66 14.068C37.59 15.622 37.478 15.86 36.792 15.86H34.062ZM38.206 12.836C39.06 13.83 39.928 15.216 40.236 16.126L41.188 15.65C40.852 14.74 39.956 13.396 39.088 12.416L38.206 12.836ZM50.274 10.68L53.284 4.408L52.528 4.156L49.42 10.68L52.528 17.204L53.284 16.952L50.274 10.68ZM52.486 10.68L55.496 4.408L54.74 4.156L51.632 10.68L54.74 17.204L55.496 16.952L52.486 10.68ZM64.288 13.438C65.702 14.53 67.424 16.084 68.222 17.078L69.174 16.448C68.306 15.426 66.57 13.942 65.17 12.892L64.288 13.438ZM60.69 12.934C59.878 14.138 58.226 15.538 56.728 16.392C56.966 16.574 57.344 16.896 57.554 17.12C59.08 16.182 60.746 14.726 61.782 13.354L60.69 12.934ZM59.304 6.326H66.682V10.638H59.304V6.326ZM58.254 5.332V11.646H67.774V5.332H58.254ZM78.05 6.998H75.796V5.822H78.05V6.998ZM81.368 7.852V9.742H79.044V7.852H81.368ZM75.796 7.852H78.05V9.742H75.796V7.852ZM72.702 7.852H74.802V9.742H72.702V7.852ZM74.802 6.998H71.708V10.596H82.39V6.998H79.044V5.822H82.978V4.898H71.022V5.822H74.802V6.998ZM79.114 13.13C78.61 13.816 77.966 14.348 77.182 14.768C76.202 14.586 75.208 14.39 74.2 14.222C74.452 13.9 74.718 13.522 74.984 13.13H79.114ZM83.202 13.13V12.234H80.794C80.878 12.066 80.934 11.884 80.99 11.716L79.996 11.422C79.898 11.716 79.786 11.968 79.646 12.234H75.572C75.838 11.828 76.076 11.408 76.258 11.002L75.25 10.764C75.012 11.226 74.732 11.73 74.41 12.234H70.798V13.13H73.822C73.402 13.732 72.968 14.306 72.562 14.754C73.668 14.936 74.76 15.146 75.81 15.356C74.466 15.804 72.814 16.042 70.756 16.168C70.924 16.406 71.106 16.784 71.176 17.078C73.808 16.868 75.866 16.462 77.42 15.72C79.268 16.14 80.864 16.616 82.026 17.05L82.964 16.308C81.802 15.888 80.248 15.468 78.54 15.076C79.282 14.558 79.884 13.914 80.346 13.13H83.202ZM87.738 4.338C86.94 6.466 85.652 8.552 84.28 9.896C84.476 10.134 84.756 10.666 84.868 10.918C85.344 10.4 85.834 9.826 86.282 9.182V17.036H87.276V7.628C87.822 6.676 88.312 5.668 88.718 4.632L87.738 4.338ZM90.286 10.246C89.908 11.898 89.25 13.564 88.368 14.628C88.62 14.768 89.068 15.034 89.264 15.202C90.118 14.04 90.86 12.276 91.308 10.442L90.286 10.246ZM96.208 7.936C96.096 8.65 95.97 9.392 95.886 9.896L96.754 10.064C96.936 9.322 97.188 8.118 97.37 7.096L96.656 6.928L96.488 6.97H90.818C91.098 6.2 91.35 5.388 91.56 4.576L90.538 4.352C90.076 6.396 89.264 8.398 88.242 9.686C88.466 9.84 88.9 10.19 89.068 10.344C89.572 9.686 90.034 8.86 90.426 7.936H92.554V15.804C92.554 15.986 92.498 16.042 92.316 16.042C92.134 16.042 91.532 16.056 90.874 16.028C91.014 16.322 91.182 16.784 91.238 17.078C92.12 17.078 92.708 17.05 93.086 16.868C93.45 16.7 93.576 16.392 93.576 15.804V7.936H96.208ZM94.598 10.442C95.34 11.912 96.04 13.872 96.264 15.146L97.258 14.81C97.02 13.536 96.306 11.618 95.508 10.134L94.598 10.442ZM107.394 11.828H110.544V10.848H107.394V8.174H106.358V10.848H103.222V11.828H106.358V15.762H102.676V16.742H111.09V15.762H107.394V11.828ZM103.88 6.452C104.132 5.822 104.37 5.178 104.552 4.548L103.488 4.282C103.292 4.996 103.04 5.738 102.746 6.452H98.924V7.446H102.284C101.416 9.224 100.184 10.876 98.588 12.01C98.756 12.234 99.022 12.668 99.12 12.948C99.708 12.528 100.254 12.066 100.744 11.534V17.022H101.766V10.302C102.424 9.406 102.97 8.454 103.46 7.446H111.09V6.452H103.88ZM116.816 5.458C118.132 6.396 119.756 7.768 120.526 8.636L121.268 7.866C120.47 6.984 118.804 5.668 117.502 4.772L116.816 5.458ZM122.626 9.224C123.41 10.862 124.166 13.06 124.446 14.502L125.468 14.096C125.174 12.654 124.404 10.512 123.592 8.846L122.626 9.224ZM113.932 9.21C113.736 10.848 113.274 13.032 112.672 14.46L113.708 14.894C114.282 13.41 114.716 11.044 114.94 9.406L113.932 9.21ZM116.158 8.16V15.048C116.158 16.434 116.578 16.812 118.09 16.812H120.904C122.458 16.812 122.78 16.042 122.934 13.396C122.64 13.312 122.206 13.13 121.954 12.934C121.842 15.342 121.716 15.832 120.848 15.832H118.174C117.376 15.832 117.208 15.706 117.208 15.062V8.16H116.158ZM133.084 15.37V9.826H138.292V8.79H133.084V4.506H131.992V15.37H126.77V16.406H139.244V15.37H133.084ZM143.472 17.204L146.58 10.68L143.472 4.156L142.716 4.408L145.726 10.68L142.716 16.952L143.472 17.204ZM141.26 17.204L144.368 10.68L141.26 4.156L140.504 4.408L143.514 10.68L140.504 16.952L141.26 17.204Z" fill="#00E0B8"/>
</svg>
