<svg width="296" height="296" viewBox="0 0 296 296" fill="none" xmlns="http://www.w3.org/2000/svg">
<path d="M294.98 294.98V1.02631L1.02631 1.02631V294.98H294.98Z" fill="white"/>
<path d="M45.0104 1.02631H1.52351V296H45.0104V1.02631Z" fill="url(#paint0_linear_48_756)"/>
<path d="M294.974 296H1.01992L1.52588e-05 294.98V1.02629L1.01992 0H294.974L296 1.02629V294.98L294.974 296ZM2.04622 293.954H293.935V2.05259H2.04622V293.954Z" fill="#00E0B8"/>
<path d="M294.98 250.811H45.5139V252.864H294.98V250.811Z" fill="#00E0B8"/>
<path d="M46.5402 1.52991H44.4877V295.484H46.5402V1.52991Z" fill="#00E0B8"/>
<path d="M20.2193 22.4731C20.0734 22.4189 19.965 22.3334 19.8941 22.2167C19.8232 22.1041 19.7878 21.9874 19.7878 21.8665V21.3975L29.1491 25.1558C29.2825 25.2058 29.3846 25.2808 29.4555 25.3809C29.5264 25.4851 29.5618 25.6039 29.5618 25.7373V26.2126L20.2193 22.4731ZM24.6654 33.623C24.6654 33.969 24.7113 34.2733 24.803 34.536C24.8947 34.8028 25.0219 35.0258 25.1845 35.2051C25.3512 35.3885 25.5492 35.5261 25.7785 35.6178C26.0078 35.7095 26.26 35.7554 26.5352 35.7554C27.1063 35.7554 27.5524 35.5782 27.8734 35.2238C28.1944 34.8736 28.3549 34.34 28.3549 33.623V32.1847H24.6654V33.623ZM29.3117 33.623C29.3117 34.1899 29.245 34.6819 29.1116 35.0988C28.9823 35.5198 28.7968 35.8679 28.555 36.1431C28.3132 36.4182 28.0214 36.6225 27.6796 36.7559C27.3377 36.8935 26.9562 36.9623 26.5352 36.9623C26.1183 36.9623 25.7368 36.8893 25.3908 36.7434C25.0448 36.5975 24.7467 36.3828 24.4966 36.0993C24.2464 35.82 24.0505 35.4719 23.9088 35.055C23.7712 34.6423 23.7024 34.1649 23.7024 33.623V32.1847H20.3506V30.9778H29.3117V33.623ZM24.828 46.7687C24.1568 46.7687 23.5398 46.6623 22.977 46.4497C22.4184 46.2371 21.9369 45.937 21.5325 45.5492C21.1281 45.1615 20.8133 44.6946 20.5882 44.1485C20.3673 43.6065 20.2568 43.0062 20.2568 42.3475C20.2568 41.6888 20.3673 41.0885 20.5882 40.5465C20.8133 40.0046 21.1281 39.5397 21.5325 39.152C21.9369 38.7643 22.4184 38.4642 22.977 38.2515C23.5398 38.0389 24.1568 37.9326 24.828 37.9326C25.4992 37.9326 26.1141 38.0389 26.6728 38.2515C27.2356 38.4642 27.7192 38.7643 28.1235 39.152C28.5321 39.5397 28.8489 40.0046 29.0741 40.5465C29.2992 41.0885 29.4117 41.6888 29.4117 42.3475C29.4117 43.0062 29.2992 43.6065 29.0741 44.1485C28.8489 44.6946 28.5321 45.1615 28.1235 45.5492C27.7192 45.937 27.2356 46.2371 26.6728 46.4497C26.1141 46.6623 25.4992 46.7687 24.828 46.7687ZM24.828 45.5242C25.3783 45.5242 25.8723 45.4492 26.3101 45.2991C26.7478 45.149 27.1168 44.9364 27.4169 44.6613C27.7212 44.3861 27.9547 44.0526 28.1173 43.6607C28.2799 43.2688 28.3612 42.8311 28.3612 42.3475C28.3612 41.8681 28.2799 41.4324 28.1173 41.0406C27.9547 40.6487 27.7212 40.3131 27.4169 40.0338C27.1168 39.7586 26.7478 39.546 26.3101 39.3959C25.8723 39.2458 25.3783 39.1708 24.828 39.1708C24.2777 39.1708 23.7837 39.2458 23.346 39.3959C22.9124 39.546 22.5434 39.7586 22.2391 40.0338C21.9389 40.3131 21.7076 40.6487 21.545 41.0406C21.3866 41.4324 21.3074 41.8681 21.3074 42.3475C21.3074 42.8311 21.3866 43.2688 21.545 43.6607C21.7076 44.0526 21.9389 44.3861 22.2391 44.6613C22.5434 44.9364 22.9124 45.149 23.346 45.2991C23.7837 45.4492 24.2777 45.5242 24.828 45.5242ZM20.3506 49.7175V48.5044H29.3117V49.7175H20.3506ZM29.3117 59.2699H20.3506V58.6633C20.3506 58.5674 20.3673 58.4861 20.4006 58.4194C20.434 58.3569 20.4902 58.2943 20.5695 58.2318L27.3231 53.0477C27.2189 53.0561 27.1168 53.0623 27.0167 53.0665C26.9166 53.0707 26.8228 53.0728 26.7353 53.0728H20.3506V52.0097H29.3117V52.635C29.3117 52.6892 29.3075 52.7351 29.2992 52.7726C29.295 52.8101 29.2846 52.8435 29.2679 52.8726C29.2554 52.9018 29.2346 52.931 29.2054 52.9602C29.1804 52.9894 29.147 53.0206 29.1053 53.054L22.3579 58.238C22.4663 58.2297 22.5705 58.2214 22.6706 58.213C22.7748 58.2089 22.8728 58.2068 22.9645 58.2068H29.3117V59.2699ZM28.2924 67.6203V64.7187H20.3506L20.3506 63.5118H28.2924V60.604H29.3117V67.6203H28.2924ZM24.828 80.7057C24.0443 80.7057 23.3647 80.6202 22.7894 80.4493C22.2183 80.2825 21.7451 80.0532 21.3699 79.7614C20.9947 79.4696 20.7154 79.1236 20.5319 78.7234C20.3485 78.3273 20.2568 77.9021 20.2568 77.4477C20.2568 76.9891 20.3485 76.5618 20.5319 76.1657C20.7154 75.7738 20.9947 75.432 21.3699 75.1402C21.7451 74.8483 22.2183 74.6191 22.7894 74.4523C23.3647 74.2855 24.0443 74.2022 24.828 74.2022C25.6118 74.2022 26.2913 74.2855 26.8666 74.4523C27.4419 74.6191 27.9172 74.8483 28.2924 75.1402C28.6718 75.432 28.9532 75.7738 29.1366 76.1657C29.32 76.5618 29.4117 76.9891 29.4117 77.4477C29.4117 77.9021 29.32 78.3273 29.1366 78.7234C28.9532 79.1236 28.6718 79.4696 28.2924 79.7614C27.9172 80.0532 27.4419 80.2825 26.8666 80.4493C26.2913 80.6202 25.6118 80.7057 24.828 80.7057ZM24.828 79.5488C25.5117 79.5488 26.0849 79.4904 26.5477 79.3737C27.0146 79.2612 27.3898 79.1069 27.6733 78.911C27.9568 78.7192 28.159 78.4962 28.2799 78.2418C28.4049 77.9875 28.4675 77.7228 28.4675 77.4477C28.4675 77.1725 28.4049 76.9078 28.2799 76.6535C28.159 76.3992 27.9568 76.1761 27.6733 75.9844C27.3898 75.7926 27.0146 75.6384 26.5477 75.5216C26.0849 75.4091 25.5117 75.3528 24.828 75.3528C24.1443 75.3528 23.5711 75.4091 23.1083 75.5216C22.6456 75.6384 22.2725 75.7926 21.989 75.9844C21.7055 76.1761 21.5012 76.3992 21.3761 76.6535C21.2552 76.9078 21.1948 77.1725 21.1948 77.4477C21.1948 77.7228 21.2552 77.9875 21.3761 78.2418C21.5012 78.4962 21.7055 78.7192 21.989 78.911C22.2725 79.1069 22.6456 79.2612 23.1083 79.3737C23.5711 79.4904 24.1443 79.5488 24.828 79.5488ZM21.201 87.4478H20.3506V82.6452H21.201V84.565H27.3106C27.494 84.565 27.6796 84.5713 27.8672 84.5838L26.4977 82.9891C26.4518 82.935 26.4226 82.8808 26.4101 82.8266C26.4018 82.7724 26.4018 82.7223 26.4101 82.6765C26.4185 82.6306 26.4351 82.5868 26.4601 82.5452C26.4852 82.5076 26.5123 82.4785 26.5414 82.4576L27.0229 82.1074L29.3304 84.7776V85.6844H21.201V87.4478Z" fill="white"/>
<path d="M115.196 267.992V277.103H113.333V271.862C113.333 271.742 113.335 271.61 113.339 271.468C113.347 271.327 113.36 271.183 113.377 271.037L110.956 275.721C110.881 275.867 110.779 275.977 110.65 276.052C110.525 276.127 110.381 276.165 110.219 276.165H109.931C109.768 276.165 109.622 276.127 109.493 276.052C109.368 275.977 109.268 275.867 109.193 275.721L106.773 271.024C106.785 271.175 106.796 271.323 106.804 271.468C106.813 271.61 106.817 271.742 106.817 271.862V277.103H104.953V267.992H106.567C106.658 267.992 106.738 267.994 106.804 267.998C106.875 268.002 106.938 268.015 106.992 268.035C107.046 268.056 107.094 268.09 107.136 268.135C107.182 268.177 107.225 268.238 107.267 268.317L109.612 272.938C109.695 273.096 109.775 273.261 109.85 273.432C109.929 273.603 110.004 273.778 110.075 273.957C110.146 273.774 110.219 273.595 110.294 273.42C110.373 273.244 110.456 273.078 110.544 272.919L112.883 268.317C112.924 268.238 112.966 268.177 113.008 268.135C113.053 268.09 113.103 268.056 113.158 268.035C113.212 268.015 113.272 268.002 113.339 267.998C113.41 267.994 113.491 267.992 113.583 267.992H115.196ZM120.761 275.433C121.045 275.433 121.297 275.387 121.518 275.296C121.743 275.2 121.933 275.064 122.087 274.889C122.241 274.714 122.358 274.501 122.437 274.251C122.521 273.997 122.562 273.709 122.562 273.388V267.992H124.676V273.388C124.676 273.947 124.584 274.46 124.401 274.927C124.222 275.394 123.963 275.796 123.625 276.134C123.288 276.471 122.877 276.734 122.393 276.921C121.91 277.109 121.366 277.203 120.761 277.203C120.153 277.203 119.607 277.109 119.123 276.921C118.639 276.734 118.229 276.471 117.891 276.134C117.553 275.796 117.295 275.394 117.116 274.927C116.936 274.46 116.847 273.947 116.847 273.388V267.992H118.96V273.382C118.96 273.703 119 273.991 119.079 274.245C119.163 274.495 119.281 274.71 119.436 274.889C119.59 275.064 119.777 275.2 119.998 275.296C120.224 275.387 120.478 275.433 120.761 275.433ZM131.361 269.843C131.299 269.943 131.232 270.018 131.161 270.068C131.094 270.118 131.007 270.143 130.898 270.143C130.802 270.143 130.698 270.114 130.586 270.055C130.477 269.993 130.352 269.924 130.21 269.849C130.073 269.774 129.914 269.707 129.735 269.649C129.556 269.586 129.352 269.555 129.122 269.555C128.726 269.555 128.43 269.64 128.234 269.811C128.043 269.978 127.947 270.205 127.947 270.493C127.947 270.676 128.005 270.829 128.122 270.949C128.239 271.07 128.391 271.175 128.578 271.262C128.77 271.35 128.987 271.431 129.229 271.506C129.475 271.577 129.725 271.658 129.979 271.75C130.233 271.837 130.481 271.942 130.723 272.063C130.969 272.183 131.186 272.338 131.374 272.525C131.565 272.713 131.72 272.942 131.836 273.213C131.953 273.48 132.011 273.803 132.011 274.182C132.011 274.604 131.938 274.997 131.793 275.364C131.647 275.731 131.434 276.052 131.155 276.327C130.88 276.598 130.538 276.813 130.129 276.971C129.725 277.126 129.264 277.203 128.747 277.203C128.464 277.203 128.174 277.174 127.878 277.115C127.586 277.057 127.303 276.976 127.027 276.871C126.752 276.763 126.494 276.636 126.252 276.49C126.01 276.344 125.8 276.181 125.62 276.002L126.246 275.014C126.296 274.943 126.36 274.885 126.44 274.839C126.523 274.789 126.613 274.764 126.709 274.764C126.834 274.764 126.959 274.804 127.084 274.883C127.213 274.962 127.357 275.05 127.515 275.145C127.678 275.241 127.863 275.329 128.072 275.408C128.28 275.487 128.526 275.527 128.81 275.527C129.193 275.527 129.491 275.444 129.704 275.277C129.917 275.106 130.023 274.837 130.023 274.47C130.023 274.257 129.964 274.084 129.848 273.951C129.731 273.818 129.577 273.707 129.385 273.62C129.197 273.532 128.983 273.455 128.741 273.388C128.499 273.322 128.251 273.249 127.997 273.169C127.742 273.086 127.494 272.986 127.253 272.869C127.011 272.748 126.794 272.592 126.602 272.4C126.415 272.204 126.262 271.962 126.146 271.675C126.029 271.383 125.971 271.024 125.971 270.599C125.971 270.257 126.039 269.924 126.177 269.599C126.315 269.274 126.517 268.984 126.784 268.729C127.05 268.475 127.378 268.273 127.765 268.123C128.153 267.969 128.597 267.892 129.097 267.892C129.377 267.892 129.648 267.914 129.91 267.96C130.177 268.002 130.429 268.067 130.667 268.154C130.905 268.238 131.126 268.34 131.33 268.461C131.538 268.577 131.724 268.711 131.886 268.861L131.361 269.843ZM135.378 277.103H133.252V267.992H135.378V277.103ZM143.277 274.745C143.327 274.745 143.377 274.756 143.427 274.777C143.477 274.793 143.525 274.824 143.571 274.87L144.409 275.752C144.042 276.231 143.581 276.594 143.027 276.84C142.477 277.082 141.824 277.203 141.07 277.203C140.378 277.203 139.756 277.086 139.206 276.853C138.66 276.615 138.195 276.29 137.812 275.877C137.432 275.46 137.14 274.968 136.936 274.401C136.732 273.83 136.63 273.211 136.63 272.544C136.63 271.865 136.74 271.241 136.961 270.674C137.182 270.103 137.493 269.611 137.893 269.199C138.293 268.786 138.772 268.465 139.331 268.235C139.89 268.006 140.505 267.892 141.176 267.892C141.518 267.892 141.839 267.923 142.139 267.985C142.443 268.044 142.727 268.127 142.989 268.235C143.252 268.34 143.494 268.467 143.715 268.617C143.936 268.767 144.132 268.93 144.303 269.105L143.59 270.061C143.544 270.12 143.49 270.174 143.427 270.224C143.365 270.27 143.277 270.293 143.164 270.293C143.089 270.293 143.019 270.276 142.952 270.243C142.885 270.209 142.814 270.17 142.739 270.124C142.664 270.074 142.581 270.022 142.489 269.968C142.402 269.909 142.295 269.857 142.17 269.811C142.049 269.761 141.905 269.72 141.739 269.686C141.576 269.653 141.384 269.636 141.163 269.636C140.813 269.636 140.492 269.701 140.2 269.83C139.913 269.959 139.663 270.149 139.45 270.399C139.241 270.645 139.079 270.949 138.962 271.312C138.85 271.671 138.793 272.081 138.793 272.544C138.793 273.011 138.856 273.426 138.981 273.788C139.11 274.151 139.283 274.458 139.5 274.708C139.721 274.954 139.977 275.141 140.269 275.271C140.561 275.4 140.874 275.464 141.207 275.464C141.399 275.464 141.574 275.456 141.732 275.439C141.891 275.419 142.039 275.387 142.176 275.346C142.314 275.3 142.443 275.241 142.564 275.17C142.685 275.095 142.808 275.002 142.933 274.889C142.983 274.847 143.037 274.814 143.096 274.789C143.154 274.76 143.214 274.745 143.277 274.745ZM154.335 272.463C154.885 272.463 155.281 272.331 155.523 272.069C155.765 271.806 155.886 271.439 155.886 270.968C155.886 270.76 155.855 270.57 155.792 270.399C155.73 270.228 155.634 270.082 155.504 269.961C155.379 269.836 155.219 269.74 155.023 269.674C154.831 269.607 154.602 269.574 154.335 269.574H153.234V272.463H154.335ZM154.335 267.992C154.977 267.992 155.527 268.069 155.986 268.223C156.449 268.373 156.828 268.582 157.124 268.848C157.424 269.115 157.645 269.43 157.787 269.793C157.929 270.155 158 270.547 158 270.968C158 271.423 157.927 271.84 157.781 272.219C157.635 272.598 157.412 272.923 157.112 273.194C156.811 273.465 156.43 273.678 155.967 273.832C155.509 273.982 154.965 274.057 154.335 274.057H153.234V277.103H151.121V267.992H154.335ZM162.036 272.275C162.324 272.275 162.568 272.24 162.768 272.169C162.972 272.094 163.139 271.992 163.268 271.862C163.397 271.733 163.491 271.583 163.549 271.412C163.608 271.237 163.637 271.05 163.637 270.849C163.637 270.449 163.506 270.137 163.243 269.911C162.984 269.686 162.582 269.574 162.036 269.574H161.186V272.275H162.036ZM166.526 277.103H164.612C164.258 277.103 164.004 276.969 163.849 276.703L162.336 274.057C162.265 273.945 162.186 273.864 162.099 273.814C162.011 273.759 161.886 273.732 161.723 273.732H161.186V277.103H159.072V267.992H162.036C162.695 267.992 163.255 268.06 163.718 268.198C164.185 268.331 164.564 268.519 164.856 268.761C165.152 269.003 165.367 269.288 165.5 269.617C165.634 269.947 165.7 270.305 165.7 270.693C165.7 270.989 165.661 271.268 165.582 271.531C165.502 271.794 165.386 272.038 165.231 272.263C165.077 272.484 164.885 272.682 164.656 272.857C164.431 273.032 164.17 273.176 163.874 273.288C164.012 273.359 164.141 273.449 164.262 273.557C164.383 273.661 164.491 273.786 164.587 273.932L166.526 277.103ZM176.075 272.544C176.075 273.203 175.961 273.816 175.731 274.383C175.506 274.95 175.187 275.444 174.775 275.865C174.362 276.282 173.864 276.609 173.28 276.846C172.7 277.084 172.056 277.203 171.348 277.203C170.639 277.203 169.993 277.084 169.409 276.846C168.825 276.609 168.325 276.282 167.908 275.865C167.496 275.444 167.175 274.95 166.945 274.383C166.72 273.816 166.608 273.203 166.608 272.544C166.608 271.885 166.72 271.273 166.945 270.706C167.175 270.139 167.496 269.647 167.908 269.23C168.325 268.813 168.825 268.486 169.409 268.248C169.993 268.01 170.639 267.892 171.348 267.892C172.056 267.892 172.7 268.012 173.28 268.254C173.864 268.492 174.362 268.819 174.775 269.236C175.187 269.653 175.506 270.145 175.731 270.712C175.961 271.279 176.075 271.89 176.075 272.544ZM173.912 272.544C173.912 272.094 173.853 271.689 173.736 271.331C173.62 270.968 173.451 270.662 173.23 270.412C173.013 270.162 172.746 269.97 172.43 269.836C172.113 269.703 171.752 269.636 171.348 269.636C170.939 269.636 170.574 269.703 170.253 269.836C169.937 269.97 169.668 270.162 169.447 270.412C169.23 270.662 169.063 270.968 168.946 271.331C168.83 271.689 168.771 272.094 168.771 272.544C168.771 272.998 168.83 273.407 168.946 273.77C169.063 274.128 169.23 274.433 169.447 274.683C169.668 274.933 169.937 275.125 170.253 275.258C170.574 275.387 170.939 275.452 171.348 275.452C171.752 275.452 172.113 275.387 172.43 275.258C172.746 275.125 173.013 274.933 173.23 274.683C173.451 274.433 173.62 274.128 173.736 273.77C173.853 273.407 173.912 272.998 173.912 272.544ZM185.586 272.544C185.586 273.203 185.471 273.811 185.242 274.37C185.017 274.925 184.698 275.406 184.285 275.815C183.873 276.219 183.374 276.536 182.791 276.765C182.211 276.99 181.567 277.103 180.858 277.103H177.319V267.992H180.858C181.567 267.992 182.211 268.106 182.791 268.336C183.374 268.565 183.873 268.882 184.285 269.286C184.698 269.69 185.017 270.172 185.242 270.731C185.471 271.285 185.586 271.89 185.586 272.544ZM183.422 272.544C183.422 272.094 183.364 271.687 183.247 271.325C183.131 270.962 182.962 270.656 182.741 270.405C182.524 270.151 182.257 269.957 181.94 269.824C181.623 269.686 181.263 269.617 180.858 269.617H179.445V275.477H180.858C181.263 275.477 181.623 275.41 181.94 275.277C182.257 275.139 182.524 274.945 182.741 274.695C182.962 274.441 183.131 274.132 183.247 273.77C183.364 273.407 183.422 272.998 183.422 272.544ZM190.636 275.433C190.919 275.433 191.171 275.387 191.392 275.296C191.617 275.2 191.807 275.064 191.961 274.889C192.116 274.714 192.232 274.501 192.311 274.251C192.395 273.997 192.437 273.709 192.437 273.388V267.992H194.55V273.388C194.55 273.947 194.458 274.46 194.275 274.927C194.096 275.394 193.837 275.796 193.5 276.134C193.162 276.471 192.751 276.734 192.268 276.921C191.784 277.109 191.24 277.203 190.636 277.203C190.027 277.203 189.481 277.109 188.997 276.921C188.514 276.734 188.103 276.471 187.765 276.134C187.428 275.796 187.169 275.394 186.99 274.927C186.811 274.46 186.721 273.947 186.721 273.388V267.992H188.835V273.382C188.835 273.703 188.874 273.991 188.953 274.245C189.037 274.495 189.156 274.71 189.31 274.889C189.464 275.064 189.652 275.2 189.873 275.296C190.098 275.387 190.352 275.433 190.636 275.433ZM202.342 274.745C202.392 274.745 202.442 274.756 202.492 274.777C202.542 274.793 202.59 274.824 202.636 274.87L203.474 275.752C203.107 276.231 202.647 276.594 202.092 276.84C201.542 277.082 200.889 277.203 200.135 277.203C199.443 277.203 198.822 277.086 198.271 276.853C197.725 276.615 197.26 276.29 196.877 275.877C196.497 275.46 196.206 274.968 196.001 274.401C195.797 273.83 195.695 273.211 195.695 272.544C195.695 271.865 195.805 271.241 196.026 270.674C196.247 270.103 196.558 269.611 196.958 269.199C197.358 268.786 197.838 268.465 198.396 268.235C198.955 268.006 199.57 267.892 200.241 267.892C200.583 267.892 200.904 267.923 201.204 267.985C201.508 268.044 201.792 268.127 202.055 268.235C202.317 268.34 202.559 268.467 202.78 268.617C203.001 268.767 203.197 268.93 203.368 269.105L202.655 270.061C202.609 270.12 202.555 270.174 202.492 270.224C202.43 270.27 202.342 270.293 202.23 270.293C202.155 270.293 202.084 270.276 202.017 270.243C201.95 270.209 201.879 270.17 201.804 270.124C201.729 270.074 201.646 270.022 201.554 269.968C201.467 269.909 201.36 269.857 201.235 269.811C201.114 269.761 200.971 269.72 200.804 269.686C200.641 269.653 200.45 269.636 200.229 269.636C199.878 269.636 199.557 269.701 199.266 269.83C198.978 269.959 198.728 270.149 198.515 270.399C198.307 270.645 198.144 270.949 198.027 271.312C197.915 271.671 197.859 272.081 197.859 272.544C197.859 273.011 197.921 273.426 198.046 273.788C198.175 274.151 198.348 274.458 198.565 274.708C198.786 274.954 199.042 275.141 199.334 275.271C199.626 275.4 199.939 275.464 200.272 275.464C200.464 275.464 200.639 275.456 200.798 275.439C200.956 275.419 201.104 275.387 201.242 275.346C201.379 275.3 201.508 275.241 201.629 275.17C201.75 275.095 201.873 275.002 201.998 274.889C202.048 274.847 202.102 274.814 202.161 274.789C202.219 274.76 202.28 274.745 202.342 274.745ZM210.944 269.668H208.38V277.103H206.266V269.668H203.703V267.992H210.944V269.668ZM214.144 277.103H212.018V267.992H214.144V277.103ZM224.844 272.544C224.844 273.203 224.73 273.816 224.5 274.383C224.275 274.95 223.956 275.444 223.544 275.865C223.131 276.282 222.633 276.609 222.049 276.846C221.47 277.084 220.825 277.203 220.117 277.203C219.408 277.203 218.762 277.084 218.178 276.846C217.595 276.609 217.094 276.282 216.677 275.865C216.265 275.444 215.944 274.95 215.714 274.383C215.489 273.816 215.377 273.203 215.377 272.544C215.377 271.885 215.489 271.273 215.714 270.706C215.944 270.139 216.265 269.647 216.677 269.23C217.094 268.813 217.595 268.486 218.178 268.248C218.762 268.01 219.408 267.892 220.117 267.892C220.825 267.892 221.47 268.012 222.049 268.254C222.633 268.492 223.131 268.819 223.544 269.236C223.956 269.653 224.275 270.145 224.5 270.712C224.73 271.279 224.844 271.89 224.844 272.544ZM222.681 272.544C222.681 272.094 222.622 271.689 222.506 271.331C222.389 270.968 222.22 270.662 221.999 270.412C221.782 270.162 221.515 269.97 221.199 269.836C220.882 269.703 220.521 269.636 220.117 269.636C219.708 269.636 219.343 269.703 219.022 269.836C218.706 269.97 218.437 270.162 218.216 270.412C217.999 270.662 217.832 270.968 217.715 271.331C217.599 271.689 217.54 272.094 217.54 272.544C217.54 272.998 217.599 273.407 217.715 273.77C217.832 274.128 217.999 274.433 218.216 274.683C218.437 274.933 218.706 275.125 219.022 275.258C219.343 275.387 219.708 275.452 220.117 275.452C220.521 275.452 220.882 275.387 221.199 275.258C221.515 275.125 221.782 274.933 221.999 274.683C222.22 274.433 222.389 274.128 222.506 273.77C222.622 273.407 222.681 272.998 222.681 272.544ZM234.042 267.992V277.103H232.942C232.779 277.103 232.642 277.078 232.529 277.028C232.421 276.974 232.312 276.882 232.204 276.753L227.908 271.318C227.925 271.481 227.935 271.639 227.939 271.794C227.948 271.944 227.952 272.085 227.952 272.219V277.103H226.088V267.992H227.201C227.293 267.992 227.37 267.996 227.433 268.004C227.495 268.012 227.551 268.029 227.601 268.054C227.652 268.075 227.699 268.106 227.745 268.148C227.791 268.19 227.843 268.246 227.902 268.317L232.235 273.788C232.214 273.613 232.2 273.445 232.191 273.282C232.183 273.115 232.179 272.959 232.179 272.813V267.992H234.042Z" fill="#00E0B8"/>
<path d="M227.429 126.872C222.957 121.972 220.603 115.502 220.881 108.873C221.16 102.245 224.047 95.9951 228.915 91.4869" stroke="#00E0B8" stroke-width="0.446215" stroke-miterlimit="10"/>
<path d="M264.612 126.789C260.536 131.294 254.965 134.169 248.932 134.883C242.899 135.596 236.811 134.1 231.796 130.671" stroke="#00E0B8" stroke-width="0.446215" stroke-miterlimit="10"/>
<path d="M270.77 105.88C271.474 110.221 271.035 114.67 269.495 118.789" stroke="#00E0B8" stroke-width="0.446215" stroke-miterlimit="10"/>
<path d="M232.491 88.714C235.277 86.9421 238.384 85.7363 241.636 85.1656C244.888 84.5949 248.22 84.6704 251.443 85.3879C254.665 86.1053 257.715 87.4507 260.418 89.347C263.12 91.2433 265.423 93.6535 267.194 96.4399C268.297 98.1727 269.181 100.035 269.826 101.986" stroke="#00E0B8" stroke-width="0.446215" stroke-miterlimit="10"/>
<path d="M245.979 131.627C257.97 131.627 267.691 121.906 267.691 109.916C267.691 97.9246 257.97 88.204 245.979 88.204C233.988 88.204 224.268 97.9246 224.268 109.916C224.268 121.906 233.988 131.627 245.979 131.627Z" stroke="#00E0B8" stroke-width="0.446215" stroke-miterlimit="10"/>
<path d="M260.889 102.731C258.855 98.9755 255.449 96.15 251.382 94.8442C247.316 93.5383 242.902 93.8531 239.061 95.7227C235.221 97.5924 232.25 100.873 230.77 104.879C229.289 108.886 229.412 113.309 231.114 117.227C231.676 118.362 232.362 119.431 233.16 120.414C235.225 117.284 244.794 104.261 260.889 102.731Z" fill="#00E0B8" stroke="#00E0B8" stroke-width="0.446215" stroke-miterlimit="10"/>
<path d="M245.979 92.1434C242.464 92.1434 239.028 93.1857 236.106 95.1386C233.183 97.0914 230.905 99.867 229.56 103.114C228.215 106.362 227.863 109.935 228.549 113.383C229.234 116.83 230.927 119.997 233.412 122.482C235.898 124.968 239.065 126.66 242.512 127.346C245.96 128.032 249.533 127.68 252.78 126.335C256.028 124.99 258.803 122.712 260.756 119.789C262.709 116.867 263.751 113.431 263.751 109.916C263.751 105.202 261.879 100.682 258.546 97.3487C255.213 94.0158 250.693 92.1434 245.979 92.1434ZM245.979 125.469C242.899 125.471 239.887 124.558 237.326 122.848C234.764 121.138 232.767 118.706 231.587 115.86C230.408 113.015 230.098 109.883 230.698 106.862C231.299 103.841 232.781 101.066 234.959 98.887C237.137 96.7084 239.911 95.2246 242.932 94.6232C245.953 94.0218 249.085 94.3298 251.931 95.5083C254.777 96.6868 257.209 98.6828 258.921 101.244C260.632 103.805 261.546 106.816 261.546 109.896C261.553 111.945 261.155 113.975 260.376 115.869C259.596 117.764 258.451 119.486 257.005 120.937C255.558 122.387 253.84 123.539 251.948 124.324C250.056 125.11 248.028 125.514 245.979 125.514V125.469Z" fill="#00E0B8" stroke="white" stroke-width="0.446215" stroke-miterlimit="10"/>
<path d="M245.979 121.664C252.468 121.664 257.727 116.404 257.727 109.916C257.727 103.427 252.468 98.1674 245.979 98.1674C239.491 98.1674 234.231 103.427 234.231 109.916C234.231 116.404 239.491 121.664 245.979 121.664Z" stroke="#00E0B8" stroke-width="0.446215" stroke-miterlimit="10"/>
<path d="M245.979 118.375C250.651 118.375 254.438 114.587 254.438 109.916C254.438 105.244 250.651 101.457 245.979 101.457C241.308 101.457 237.52 105.244 237.52 109.916C237.52 114.587 241.308 118.375 245.979 118.375Z" stroke="#00E0B8" stroke-width="0.446215" stroke-miterlimit="10"/>
<path d="M245.979 114.461C248.489 114.461 250.524 112.426 250.524 109.916C250.524 107.405 248.489 105.371 245.979 105.371C243.469 105.371 241.434 107.405 241.434 109.916C241.434 112.426 243.469 114.461 245.979 114.461Z" fill="#00E0B8" stroke="white" stroke-width="0.446215" stroke-miterlimit="10"/>
<path d="M233.307 71.8917C230.258 68.5461 228.655 64.132 228.844 59.6098C229.034 55.0877 231.002 50.8235 234.32 47.7451" stroke="#00E0B8" stroke-width="0.446215" stroke-miterlimit="10"/>
<path d="M258.703 71.8279C255.925 74.9121 252.123 76.8844 248.001 77.379C243.88 77.8737 239.719 76.8572 236.29 74.5179" stroke="#00E0B8" stroke-width="0.446215" stroke-miterlimit="10"/>
<path d="M262.923 57.5363C263.07 58.4553 263.145 59.3847 263.146 60.3155C263.146 62.3835 262.775 64.4348 262.049 66.3713" stroke="#00E0B8" stroke-width="0.446215" stroke-miterlimit="10"/>
<path d="M236.762 45.8327C238.965 44.4322 241.458 43.5527 244.052 43.2612C246.646 42.9696 249.272 43.2737 251.731 44.1502C254.19 45.0268 256.416 46.4527 258.24 48.3194C260.065 50.1862 261.44 52.4446 262.26 54.9227" stroke="#00E0B8" stroke-width="0.446215" stroke-miterlimit="10"/>
<path d="M245.979 75.1426C254.172 75.1426 260.813 68.5015 260.813 60.3092C260.813 52.1169 254.172 45.4757 245.979 45.4757C237.787 45.4757 231.146 52.1169 231.146 60.3092C231.146 68.5015 237.787 75.1426 245.979 75.1426Z" stroke="#00E0B8" stroke-width="0.446215" stroke-miterlimit="10"/>
<path d="M256.166 55.3945C254.868 52.6895 252.549 50.6107 249.719 49.6155C246.889 48.6203 243.779 48.7901 241.074 50.0877C238.369 51.3852 236.29 53.7042 235.295 56.5344C234.3 59.3647 234.47 62.4743 235.767 65.1793C236.155 65.9943 236.641 66.7586 237.214 67.455C238.629 65.3387 245.17 56.4463 256.166 55.3945Z" fill="#00E0B8" stroke="#00E0B8" stroke-width="0.446215" stroke-miterlimit="10"/>
<path d="M245.979 48.1722C243.585 48.1785 241.247 48.8942 239.259 50.2288C237.272 51.5635 235.724 53.4572 234.812 55.6709C233.901 57.8845 233.665 60.3188 234.136 62.6661C234.607 65.0134 235.763 67.1685 237.458 68.8591C239.153 70.5497 241.311 71.7001 243.66 72.1648C246.009 72.6296 248.442 72.3879 250.653 71.4703C252.865 70.5526 254.754 69.0003 256.084 67.0092C257.413 65.0182 258.123 62.6778 258.123 60.2837C258.123 58.6905 257.808 57.113 257.198 55.6415C256.587 54.1699 255.692 52.8334 254.564 51.7083C253.436 50.5832 252.097 49.6917 250.624 49.085C249.151 48.4782 247.572 48.168 245.979 48.1722ZM245.979 70.9483C243.875 70.9483 241.818 70.3241 240.068 69.1548C238.318 67.9855 236.955 66.3235 236.149 64.3791C235.344 62.4347 235.134 60.2952 235.545 58.2313C235.956 56.1674 236.97 54.2717 238.459 52.784C239.947 51.2964 241.843 50.2836 243.908 49.8738C245.972 49.464 248.111 49.6756 250.055 50.4819C251.999 51.2881 253.66 52.6527 254.828 54.4031C255.997 56.1536 256.62 58.2111 256.618 60.3156C256.618 61.7124 256.343 63.0956 255.808 64.386C255.274 65.6764 254.49 66.8489 253.502 67.8363C252.514 68.8237 251.341 69.6068 250.05 70.1407C248.759 70.6747 247.376 70.9491 245.979 70.9483Z" fill="#00E0B8" stroke="white" stroke-width="0.446215" stroke-miterlimit="10"/>
<path d="M245.979 68.3219C250.412 68.3219 254.005 64.7287 254.005 60.2964C254.005 55.864 250.412 52.2709 245.979 52.2709C241.547 52.2709 237.954 55.864 237.954 60.2964C237.954 64.7287 241.547 68.3219 245.979 68.3219Z" stroke="#00E0B8" stroke-width="0.446215" stroke-miterlimit="10"/>
<path d="M245.979 66.0909C249.172 66.0909 251.761 63.5024 251.761 60.3093C251.761 57.1161 249.172 54.5276 245.979 54.5276C242.786 54.5276 240.198 57.1161 240.198 60.3093C240.198 63.5024 242.786 66.0909 245.979 66.0909Z" stroke="#00E0B8" stroke-width="0.446215" stroke-miterlimit="10"/>
<path d="M249.084 60.3156C249.082 60.9293 248.899 61.5289 248.557 62.0385C248.215 62.5482 247.73 62.9451 247.163 63.1791C246.595 63.4131 245.971 63.4737 245.37 63.3532C244.768 63.2327 244.215 62.9365 243.782 62.5021C243.348 62.0677 243.053 61.5145 242.934 60.9125C242.815 60.3105 242.877 59.6866 243.112 59.1198C243.347 58.5529 243.745 58.0684 244.255 57.7275C244.766 57.3867 245.366 57.2048 245.979 57.2048C246.387 57.2048 246.792 57.2853 247.169 57.4417C247.546 57.5981 247.888 57.8274 248.177 58.1163C248.465 58.4052 248.694 58.7483 248.849 59.1256C249.005 59.503 249.084 59.9073 249.084 60.3156Z" fill="#00E0B8" stroke="white" stroke-width="0.446215" stroke-miterlimit="10"/>
<path d="M81.8422 71.8917C78.7914 68.5477 77.1855 64.1337 77.3741 59.6111C77.5627 55.0884 79.5307 50.8235 82.8494 47.7451" stroke="#00E0B8" stroke-width="0.446215" stroke-miterlimit="10"/>
<path d="M107.238 71.8279C104.461 74.9043 100.664 76.8714 96.5485 77.3659C92.4333 77.8604 88.2782 76.8488 84.851 74.5179" stroke="#00E0B8" stroke-width="0.446215" stroke-miterlimit="10"/>
<path d="M111.452 57.5363C111.599 58.4553 111.674 59.3847 111.675 60.3155C111.678 62.3838 111.307 64.4356 110.578 66.3713" stroke="#00E0B8" stroke-width="0.446215" stroke-miterlimit="10"/>
<path d="M85.2972 45.8327C87.5 44.4322 89.9933 43.5527 92.5873 43.2612C95.1812 42.9696 97.8076 43.2737 100.266 44.1502C102.725 45.0268 104.951 46.4527 106.776 48.3194C108.601 50.1862 109.975 52.4446 110.795 54.9227" stroke="#00E0B8" stroke-width="0.446215" stroke-miterlimit="10"/>
<path d="M94.5083 75.149C102.701 75.149 109.342 68.5078 109.342 60.3155C109.342 52.1232 102.701 45.4821 94.5083 45.4821C86.3161 45.4821 79.6749 52.1232 79.6749 60.3155C79.6749 68.5078 86.3161 75.149 94.5083 75.149Z" stroke="#00E0B8" stroke-width="0.446215" stroke-miterlimit="10"/>
<path d="M104.695 55.3944C104.004 53.9516 103.015 52.6718 101.793 51.6395C100.57 50.6072 99.1432 49.846 97.6051 49.4061C96.0671 48.9661 94.4532 48.8576 92.87 49.0875C91.2869 49.3175 89.7706 49.8807 88.4212 50.74C87.0718 51.5993 85.9201 52.7351 85.0422 54.0724C84.1643 55.4097 83.5801 56.9181 83.3282 58.4979C83.0763 60.0777 83.1625 61.693 83.581 63.237C83.9996 64.781 84.7409 66.2187 85.7562 67.455C87.1649 65.3387 93.6988 56.4462 104.695 55.3944Z" fill="#00E0B8" stroke="#00E0B8" stroke-width="0.446215" stroke-miterlimit="10"/>
<path d="M94.5083 48.1722C92.1143 48.1785 89.7758 48.8942 87.7882 50.2288C85.8007 51.5635 84.2533 53.4572 83.3415 55.6709C82.4297 57.8845 82.1944 60.3188 82.6653 62.6661C83.1362 65.0134 84.2922 67.1685 85.9873 68.8591C87.6824 70.5497 89.8405 71.7001 92.1891 72.1648C94.5376 72.6296 96.9712 72.3879 99.1824 71.4703C101.394 70.5526 103.283 69.0003 104.613 67.0092C105.942 65.0182 106.652 62.6778 106.652 60.2837C106.652 58.6905 106.337 57.113 105.727 55.6415C105.116 54.1699 104.221 52.8334 103.093 51.7083C101.965 50.5832 100.626 49.6917 99.153 49.085C97.6799 48.4782 96.1015 48.168 94.5083 48.1722ZM94.5083 70.9483C92.4039 70.9483 90.3467 70.3241 88.597 69.1548C86.8472 67.9855 85.4836 66.3235 84.6785 64.3791C83.8735 62.4347 83.6632 60.2952 84.0742 58.2313C84.4852 56.1674 85.4991 54.2717 86.9877 52.784C88.4762 51.2964 90.3725 50.2836 92.4367 49.8738C94.5009 49.464 96.6402 49.6756 98.5842 50.4819C100.528 51.2881 102.189 52.6527 103.358 54.4031C104.526 56.1536 105.149 58.2111 105.147 60.3156C105.147 61.7124 104.872 63.0956 104.337 64.386C103.803 65.6764 103.019 66.8489 102.031 67.8363C101.043 68.8237 99.87 69.6068 98.5792 70.1407C97.2885 70.6747 95.9052 70.9491 94.5083 70.9483Z" fill="#00E0B8" stroke="white" stroke-width="0.446215" stroke-miterlimit="10"/>
<path d="M94.5084 68.3347C98.9407 68.3347 102.534 64.7416 102.534 60.3092C102.534 55.8768 98.9407 52.2837 94.5084 52.2837C90.076 52.2837 86.4829 55.8768 86.4829 60.3092C86.4829 64.7416 90.076 68.3347 94.5084 68.3347Z" stroke="#00E0B8" stroke-width="0.446215" stroke-miterlimit="10"/>
<path d="M94.5084 66.0909C97.7015 66.0909 100.29 63.5024 100.29 60.3093C100.29 57.1161 97.7015 54.5276 94.5084 54.5276C91.3152 54.5276 88.7267 57.1161 88.7267 60.3093C88.7267 63.5024 91.3152 66.0909 94.5084 66.0909Z" stroke="#00E0B8" stroke-width="0.446215" stroke-miterlimit="10"/>
<path d="M97.6 60.3156C97.5987 60.9293 97.4156 61.5289 97.0737 62.0385C96.7318 62.5482 96.2466 62.9451 95.6792 63.1791C95.1118 63.4131 94.4879 63.4737 93.8861 63.3532C93.2843 63.2327 92.7318 62.9365 92.2982 62.5021C91.8647 62.0677 91.5697 61.5145 91.4504 60.9125C91.3312 60.3105 91.393 59.6866 91.6282 59.1198C91.8633 58.5529 92.2612 58.0684 92.7716 57.7275C93.282 57.3867 93.8819 57.2048 94.4956 57.2048C94.9038 57.2048 95.308 57.2853 95.6851 57.4417C96.0621 57.5981 96.4047 57.8274 96.693 58.1163C96.9814 58.4052 97.2099 58.7483 97.3655 59.1256C97.5212 59.503 97.6008 59.9073 97.6 60.3156Z" fill="#00E0B8" stroke="white" stroke-width="0.446215" stroke-miterlimit="10"/>
<path d="M233.307 170.703C230.255 167.358 228.649 162.942 228.839 158.418C229.028 153.893 230.999 149.628 234.32 146.55" stroke="#00E0B8" stroke-width="0.446215" stroke-miterlimit="10"/>
<path d="M258.703 170.639C255.922 173.72 252.12 175.689 248 176.183C243.879 176.676 239.719 175.66 236.29 173.323" stroke="#00E0B8" stroke-width="0.446215" stroke-miterlimit="10"/>
<path d="M262.923 156.341C263.07 157.258 263.145 158.185 263.146 159.114C263.147 161.184 262.775 163.237 262.049 165.176" stroke="#00E0B8" stroke-width="0.446215" stroke-miterlimit="10"/>
<path d="M236.762 144.638C238.965 143.237 241.458 142.358 244.052 142.066C246.646 141.774 249.272 142.079 251.731 142.955C254.19 143.832 256.416 145.257 258.24 147.124C260.065 148.991 261.44 151.249 262.26 153.728" stroke="#00E0B8" stroke-width="0.446215" stroke-miterlimit="10"/>
<path d="M245.852 173.316C254.055 173.316 260.704 166.667 260.704 158.464C260.704 150.261 254.055 143.611 245.852 143.611C237.649 143.611 230.999 150.261 230.999 158.464C230.999 166.667 237.649 173.316 245.852 173.316Z" stroke="#00E0B8" stroke-width="0.446215" stroke-miterlimit="10.01"/>
<path d="M256.166 154.199C255.464 152.773 254.469 151.511 253.247 150.496C252.025 149.48 250.602 148.733 249.071 148.304C247.541 147.875 245.937 147.774 244.365 148.006C242.793 148.239 241.287 148.8 239.947 149.654C238.606 150.507 237.46 151.634 236.584 152.96C235.708 154.286 235.122 155.782 234.863 157.35C234.604 158.918 234.678 160.523 235.081 162.061C235.484 163.598 236.207 165.033 237.202 166.273C238.629 164.15 245.17 155.251 256.166 154.199Z" fill="#00E0B8" stroke="#00E0B8" stroke-width="0.446215" stroke-miterlimit="10"/>
<path d="M245.979 146.971C243.576 146.969 241.227 147.681 239.228 149.015C237.229 150.349 235.671 152.245 234.75 154.465C233.83 156.685 233.588 159.127 234.055 161.484C234.523 163.842 235.679 166.007 237.377 167.707C239.075 169.407 241.24 170.565 243.596 171.035C245.953 171.506 248.396 171.266 250.616 170.348C252.837 169.429 254.735 167.873 256.072 165.876C257.408 163.878 258.121 161.53 258.123 159.127C258.124 157.531 257.811 155.951 257.202 154.476C256.592 153.001 255.698 151.661 254.57 150.532C253.443 149.403 252.103 148.507 250.629 147.896C249.155 147.285 247.575 146.971 245.979 146.971ZM245.979 169.753C243.875 169.753 241.818 169.129 240.069 167.96C238.319 166.791 236.955 165.129 236.15 163.185C235.345 161.241 235.134 159.102 235.545 157.038C235.955 154.975 236.968 153.079 238.456 151.591C239.944 150.103 241.84 149.09 243.904 148.679C245.967 148.269 248.107 148.48 250.051 149.285C251.995 150.09 253.656 151.454 254.825 153.203C255.994 154.953 256.618 157.01 256.618 159.114C256.618 161.936 255.497 164.642 253.502 166.637C251.507 168.632 248.801 169.753 245.979 169.753Z" fill="#00E0B8" stroke="white" stroke-width="0.446215" stroke-miterlimit="10"/>
<path d="M245.967 167.127C250.399 167.127 253.992 163.534 253.992 159.101C253.992 154.669 250.399 151.076 245.967 151.076C241.534 151.076 237.941 154.669 237.941 159.101C237.941 163.534 241.534 167.127 245.967 167.127Z" stroke="#00E0B8" stroke-width="0.446215" stroke-miterlimit="10"/>
<path d="M245.979 164.896C249.172 164.896 251.761 162.307 251.761 159.114C251.761 155.921 249.172 153.332 245.979 153.332C242.786 153.332 240.198 155.921 240.198 159.114C240.198 162.307 242.786 164.896 245.979 164.896Z" stroke="#00E0B8" stroke-width="0.446215" stroke-miterlimit="10"/>
<path d="M249.084 159.114C249.084 159.728 248.902 160.328 248.56 160.839C248.219 161.349 247.735 161.747 247.167 161.982C246.6 162.217 245.976 162.278 245.374 162.159C244.771 162.039 244.218 161.743 243.784 161.309C243.35 160.875 243.054 160.322 242.935 159.72C242.815 159.117 242.876 158.493 243.111 157.926C243.346 157.359 243.744 156.874 244.255 156.533C244.765 156.192 245.365 156.01 245.979 156.01C246.803 156.01 247.592 156.337 248.174 156.919C248.757 157.501 249.084 158.291 249.084 159.114Z" fill="#00E0B8" stroke="white" stroke-width="0.446215" stroke-miterlimit="10"/>
<path d="M81.8422 170.703C78.791 167.358 77.1849 162.943 77.3735 158.419C77.5622 153.895 79.5303 149.629 82.8494 146.55" stroke="#00E0B8" stroke-width="0.446215" stroke-miterlimit="10"/>
<path d="M107.238 170.639C104.454 173.705 100.657 175.664 96.5453 176.157C92.4331 176.65 88.2811 175.644 84.851 173.323" stroke="#00E0B8" stroke-width="0.446215" stroke-miterlimit="10"/>
<path d="M111.452 156.341C111.599 157.258 111.674 158.185 111.675 159.114C111.679 161.184 111.308 163.238 110.578 165.176" stroke="#00E0B8" stroke-width="0.446215" stroke-miterlimit="10"/>
<path d="M85.2972 144.638C87.5 143.237 89.9933 142.358 92.5873 142.066C95.1812 141.774 97.8076 142.079 100.266 142.955C102.725 143.832 104.951 145.257 106.776 147.124C108.601 148.991 109.975 151.249 110.795 153.728" stroke="#00E0B8" stroke-width="0.446215" stroke-miterlimit="10"/>
<path d="M94.5083 173.954C102.701 173.954 109.342 167.313 109.342 159.12C109.342 150.928 102.701 144.287 94.5083 144.287C86.3161 144.287 79.6749 150.928 79.6749 159.12C79.6749 167.313 86.3161 173.954 94.5083 173.954Z" stroke="#00E0B8" stroke-width="0.446215" stroke-miterlimit="10"/>
<path d="M104.695 154.199C104.052 152.86 103.151 151.66 102.045 150.669C100.938 149.677 99.6475 148.914 98.2458 148.421C96.8441 147.929 95.3592 147.717 93.8757 147.798C92.3923 147.88 90.9394 148.253 89.6 148.896C88.2606 149.538 87.061 150.439 86.0696 151.545C85.0782 152.652 84.3144 153.943 83.822 155.345C83.3295 156.746 83.1179 158.231 83.1993 159.715C83.2807 161.198 83.6535 162.651 84.2964 163.99C84.6913 164.803 85.179 165.566 85.7498 166.266C87.1649 164.15 93.6988 155.251 104.695 154.199Z" fill="#00E0B8" stroke="#00E0B8" stroke-width="0.446215" stroke-miterlimit="10"/>
<path d="M94.5084 146.971C92.1053 146.969 89.7559 147.681 87.7572 149.015C85.7585 150.349 84.2002 152.245 83.2795 154.465C82.3587 156.685 82.1168 159.127 82.5844 161.484C83.052 163.842 84.208 166.007 85.9063 167.707C87.6046 169.407 89.7688 170.565 92.1254 171.035C94.482 171.506 96.9251 171.266 99.1456 170.348C101.366 169.429 103.265 167.873 104.601 165.876C105.937 163.878 106.651 161.53 106.652 159.127C106.653 157.531 106.341 155.951 105.731 154.476C105.122 153.001 104.227 151.661 103.1 150.532C101.972 149.403 100.633 148.507 99.1584 147.896C97.6842 147.285 96.1041 146.971 94.5084 146.971ZM94.5084 169.753C92.4041 169.753 90.3472 169.129 88.5976 167.96C86.848 166.791 85.4844 165.129 84.6792 163.185C83.8739 161.241 83.6632 159.102 84.0737 157.038C84.4843 154.975 85.4975 153.079 86.9854 151.591C88.4733 150.103 90.369 149.09 92.4328 148.679C94.4966 148.269 96.6357 148.48 98.5797 149.285C100.524 150.09 102.185 151.454 103.354 153.203C104.523 154.953 105.147 157.01 105.147 159.114C105.147 161.936 104.026 164.642 102.031 166.637C100.036 168.632 97.33 169.753 94.5084 169.753Z" fill="#00E0B8" stroke="white" stroke-width="0.446215" stroke-miterlimit="10"/>
<path d="M94.5147 167.146C98.9471 167.146 102.54 163.553 102.54 159.12C102.54 154.688 98.9471 151.095 94.5147 151.095C90.0824 151.095 86.4892 154.688 86.4892 159.12C86.4892 163.553 90.0824 167.146 94.5147 167.146Z" stroke="#00E0B8" stroke-width="0.446215" stroke-miterlimit="10"/>
<path d="M94.5084 164.896C97.7015 164.896 100.29 162.307 100.29 159.114C100.29 155.921 97.7015 153.332 94.5084 153.332C91.3152 153.332 88.7267 155.921 88.7267 159.114C88.7267 162.307 91.3152 164.896 94.5084 164.896Z" stroke="#00E0B8" stroke-width="0.446215" stroke-miterlimit="10"/>
<path d="M97.6 159.114C97.6 159.728 97.4179 160.328 97.0768 160.839C96.7357 161.349 96.2509 161.747 95.6836 161.982C95.1164 162.217 94.4922 162.278 93.89 162.159C93.2878 162.039 92.7347 161.743 92.3005 161.309C91.8663 160.875 91.5707 160.322 91.4509 159.72C91.3311 159.117 91.3926 158.493 91.6275 157.926C91.8625 157.359 92.2604 156.874 92.7709 156.533C93.2814 156.192 93.8816 156.01 94.4956 156.01C95.319 156.01 96.1086 156.337 96.6907 156.919C97.2729 157.501 97.6 158.291 97.6 159.114Z" fill="#00E0B8" stroke="white" stroke-width="0.446215" stroke-miterlimit="10"/>
<path d="M75.9649 126.872C71.4884 121.975 69.1302 115.506 69.4049 108.877C69.6796 102.248 72.5648 95.9968 77.431 91.4869" stroke="#00E0B8" stroke-width="0.446215" stroke-miterlimit="10"/>
<path d="M113.141 126.789C109.064 131.294 103.492 134.17 97.4577 134.883C91.4233 135.597 85.3347 134.101 80.3187 130.671" stroke="#00E0B8" stroke-width="0.446215" stroke-miterlimit="10"/>
<path d="M119.305 105.88C120.013 110.221 119.573 114.671 118.03 118.789" stroke="#00E0B8" stroke-width="0.446215" stroke-miterlimit="10"/>
<path d="M81.0263 88.714C84.2515 86.6618 87.9021 85.3718 91.7006 84.9419C95.4991 84.512 99.3457 84.9535 102.948 86.233C106.55 87.5124 109.814 89.596 112.49 92.3256C115.166 95.0552 117.185 98.3589 118.394 101.986" stroke="#00E0B8" stroke-width="0.446215" stroke-miterlimit="10"/>
<path d="M94.5084 131.627C106.499 131.627 116.22 121.906 116.22 109.916C116.22 97.9246 106.499 88.204 94.5084 88.204C82.5174 88.204 72.7968 97.9246 72.7968 109.916C72.7968 121.906 82.5174 131.627 94.5084 131.627Z" stroke="#00E0B8" stroke-width="0.446215" stroke-miterlimit="10"/>
<path d="M109.425 102.732C108.534 100.68 107.236 98.8297 105.611 97.2927C103.986 95.7557 102.066 94.5636 99.9682 93.7882C97.87 93.0128 95.6365 92.6701 93.4024 92.7808C91.1682 92.8916 88.9796 93.4535 86.9684 94.4326C84.9571 95.4117 83.1649 96.7879 81.6997 98.4781C80.2345 100.168 79.1266 102.138 78.4427 104.267C77.7589 106.397 77.5133 108.643 77.7206 110.871C77.928 113.098 78.5841 115.26 79.6494 117.227C80.2093 118.363 80.8957 119.432 81.6956 120.414C83.7546 117.285 93.3227 104.261 109.425 102.732Z" fill="#00E0B8" stroke="#00E0B8" stroke-width="0.446215" stroke-miterlimit="10"/>
<path d="M94.5084 92.1434C90.9926 92.1397 87.5546 93.1787 84.6295 95.1293C81.7044 97.0798 79.4235 99.8541 78.0754 103.101C76.7274 106.348 76.3727 109.922 77.0563 113.371C77.7399 116.82 79.431 119.988 81.9157 122.476C84.4004 124.963 87.567 126.657 91.015 127.345C94.463 128.032 98.0374 127.681 101.286 126.337C104.534 124.992 107.311 122.714 109.265 119.791C111.219 116.868 112.261 113.431 112.261 109.916C112.261 105.205 110.392 100.688 107.063 97.3555C103.734 94.0232 99.2185 92.1485 94.5084 92.1434ZM94.5084 125.469C91.4283 125.469 88.4175 124.556 85.8565 122.845C83.2956 121.134 81.2995 118.701 80.1209 115.856C78.9422 113.01 78.6338 109.879 79.2347 106.858C79.8356 103.837 81.3187 101.063 83.4966 98.8847C85.6745 96.7068 88.4494 95.2236 91.4702 94.6227C94.4911 94.0219 97.6223 94.3302 100.468 95.5089C103.313 96.6876 105.746 98.6836 107.457 101.245C109.168 103.806 110.081 106.816 110.081 109.896C110.087 111.945 109.689 113.975 108.909 115.87C108.129 117.764 106.983 119.486 105.536 120.937C104.089 122.388 102.37 123.539 100.478 124.324C98.5859 125.11 96.5572 125.514 94.5084 125.514V125.469Z" fill="#00E0B8" stroke="white" stroke-width="0.446215" stroke-miterlimit="10"/>
<path d="M94.5084 121.664C100.997 121.664 106.257 116.404 106.257 109.916C106.257 103.427 100.997 98.1674 94.5084 98.1674C88.02 98.1674 82.7602 103.427 82.7602 109.916C82.7602 116.404 88.02 121.664 94.5084 121.664Z" stroke="#00E0B8" stroke-width="0.446215" stroke-miterlimit="10"/>
<path d="M94.5084 118.375C99.1801 118.375 102.967 114.587 102.967 109.916C102.967 105.244 99.1801 101.457 94.5084 101.457C89.8366 101.457 86.0494 105.244 86.0494 109.916C86.0494 114.587 89.8366 118.375 94.5084 118.375Z" stroke="#00E0B8" stroke-width="0.446215" stroke-miterlimit="10"/>
<path d="M94.5084 114.461C97.0185 114.461 99.0534 112.426 99.0534 109.916C99.0534 107.405 97.0185 105.371 94.5084 105.371C91.9982 105.371 89.9633 107.405 89.9633 109.916C89.9633 112.426 91.9982 114.461 94.5084 114.461Z" fill="#00E0B8" stroke="white" stroke-width="0.446215" stroke-miterlimit="10"/>
<path d="M255.465 215.382H78.2343L102.171 197.514H231.522L255.465 215.382Z" fill="#DEE9FD" stroke="#707070" stroke-width="0.446215" stroke-linecap="round" stroke-linejoin="round"/>
<path d="M255.528 215.382H78.2343V220.086H255.528V215.382Z" fill="#707070" stroke="#707070" stroke-width="0.446215" stroke-linecap="round" stroke-linejoin="round"/>
<path d="M255.465 215.382H78.2343L102.171 197.514H231.522L255.465 215.382Z" fill="#DEE9FD" stroke="#707070" stroke-width="0.446215" stroke-linecap="round" stroke-linejoin="round"/>
<path d="M97.8231 211.583H94.8781L108.226 200.019H110.629L97.8231 211.583Z" fill="#707070" stroke="#707070" stroke-width="0.446215" stroke-linecap="round" stroke-linejoin="round"/>
<path d="M105.141 204.979H102.508L103.962 203.716H106.531L105.141 204.979Z" fill="#FBFEFF" stroke="#707070" stroke-width="0.446215" stroke-linecap="round" stroke-linejoin="round"/>
<path d="M103.407 211.583H100.469L112.784 200.019H115.175L103.407 211.583Z" fill="#707070" stroke="#707070" stroke-width="0.446215" stroke-linecap="round" stroke-linejoin="round"/>
<path d="M106.116 208.924H103.299L104.835 207.484H107.576L106.116 208.924Z" fill="#FBFEFF" stroke="#707070" stroke-width="0.446215" stroke-linecap="round" stroke-linejoin="round"/>
<path d="M108.998 211.583H106.053L117.335 200.019H119.726L108.998 211.583Z" fill="#707070" stroke="#707070" stroke-width="0.446215" stroke-linecap="round" stroke-linejoin="round"/>
<path d="M112.714 207.579H109.96L111.305 206.202H113.995L112.714 207.579Z" fill="#FBFEFF" stroke="#707070" stroke-width="0.446215" stroke-linecap="round" stroke-linejoin="round"/>
<path d="M114.582 211.583H111.643L121.88 200.019H124.277L114.582 211.583Z" fill="#707070" stroke="#707070" stroke-width="0.446215" stroke-linecap="round" stroke-linejoin="round"/>
<path d="M120.121 204.979H117.488L118.61 203.716H121.179L120.121 204.979Z" fill="#FBFEFF" stroke="#707070" stroke-width="0.446215" stroke-linecap="round" stroke-linejoin="round"/>
<path d="M120.172 211.583H117.227L126.432 200.019H128.829L120.172 211.583Z" fill="#707070" stroke="#707070" stroke-width="0.446215" stroke-linecap="round" stroke-linejoin="round"/>
<path d="M125.119 204.979H122.486L123.493 203.716H126.062L125.119 204.979Z" fill="white" stroke="#707070" stroke-width="0.446215" stroke-linecap="round" stroke-linejoin="round"/>
<path d="M134.056 211.583H131.117L137.747 200.019H140.137L134.056 211.583Z" fill="#707070" stroke="#707070" stroke-width="0.446215" stroke-linecap="round" stroke-linejoin="round"/>
<path d="M135.286 209.243H132.462L133.291 207.783H136.057L135.286 209.243Z" fill="#FBFEFF" stroke="#707070" stroke-width="0.446215" stroke-linecap="round" stroke-linejoin="round"/>
<path d="M139.646 211.583H136.701L142.292 200.019H144.688L139.646 211.583Z" fill="#707070" stroke="#707070" stroke-width="0.446215" stroke-linecap="round" stroke-linejoin="round"/>
<path d="M143.305 203.194H140.762L141.329 202.014H143.822L143.305 203.194Z" fill="#FBFEFF" stroke="#707070" stroke-width="0.446215" stroke-linecap="round" stroke-linejoin="round"/>
<path d="M145.23 211.583H142.292L146.843 200.019H149.24L145.23 211.583Z" fill="#707070" stroke="#707070" stroke-width="0.446215" stroke-linecap="round" stroke-linejoin="round"/>
<path d="M147.251 205.769H144.58L145.09 204.469H147.697L147.251 205.769Z" fill="#FBFEFF" stroke="#707070" stroke-width="0.446215" stroke-linecap="round" stroke-linejoin="round"/>
<path d="M150.814 211.583H147.876L151.394 200.019H153.791L150.814 211.583Z" fill="#707070" stroke="#707070" stroke-width="0.446215" stroke-linecap="round" stroke-linejoin="round"/>
<path d="M151.764 207.904H148.998L149.418 206.508H152.121L151.764 207.904Z" fill="#FBFEFF" stroke="#707070" stroke-width="0.446215" stroke-linecap="round" stroke-linejoin="round"/>
<path d="M156.405 211.583H153.466L155.946 200.019H158.343L156.405 211.583Z" fill="#707070" stroke="#707070" stroke-width="0.446215" stroke-linecap="round" stroke-linejoin="round"/>
<path d="M156.692 209.874H153.823L154.148 208.389H156.94L156.692 209.874Z" fill="#FBFEFF" stroke="#707070" stroke-width="0.446215" stroke-linecap="round" stroke-linejoin="round"/>
<path d="M162.378 210.212C162.333 210.716 161.606 211.143 160.739 211.143C159.873 211.143 159.229 210.722 159.292 210.212C159.356 209.702 160.083 209.307 160.924 209.307C161.766 209.307 162.41 209.708 162.378 210.212Z" fill="#FBFEFF" stroke="#707070" stroke-width="0.446215" stroke-linecap="round" stroke-linejoin="round"/>
<path d="M245.291 210.212C245.928 210.716 245.794 211.143 244.921 211.143C243.945 211.099 243.003 210.776 242.206 210.212C241.568 209.708 241.772 209.307 242.607 209.307C243.57 209.345 244.502 209.659 245.291 210.212Z" fill="#FBFEFF" stroke="#707070" stroke-width="0.446215" stroke-linecap="round" stroke-linejoin="round"/>
<path d="M128.338 210.212C128.068 210.514 127.735 210.753 127.363 210.914C126.991 211.075 126.588 211.153 126.183 211.143C125.316 211.143 124.908 210.722 125.259 210.212C125.53 209.918 125.861 209.686 126.229 209.529C126.597 209.373 126.995 209.297 127.394 209.307C128.198 209.307 128.637 209.708 128.338 210.212Z" fill="#FBFEFF" stroke="#707070" stroke-width="0.446215" stroke-linecap="round" stroke-linejoin="round"/>
<path d="M130.454 206.827C130.198 207.104 129.884 207.323 129.536 207.467C129.187 207.611 128.811 207.678 128.433 207.662C127.598 207.662 127.21 207.286 127.522 206.827C127.779 206.562 128.089 206.353 128.431 206.214C128.774 206.074 129.141 206.008 129.511 206.018C130.32 206.018 130.747 206.381 130.454 206.827Z" fill="#FBFEFF" stroke="#707070" stroke-width="0.446215" stroke-linecap="round" stroke-linejoin="round"/>
<path d="M132.08 204.246C131.835 204.504 131.538 204.705 131.207 204.836C130.877 204.967 130.522 205.024 130.167 205.004C129.39 205.004 128.994 204.666 129.275 204.246C129.522 204.002 129.816 203.811 130.14 203.685C130.463 203.559 130.809 203.5 131.155 203.512C131.939 203.512 132.341 203.831 132.08 204.246Z" fill="#FBFEFF" stroke="#707070" stroke-width="0.446215" stroke-linecap="round" stroke-linejoin="round"/>
<path d="M162.62 206.993C162.62 207.452 161.893 207.828 161.077 207.828C160.261 207.828 159.643 207.452 159.694 206.993C159.745 206.534 160.446 206.183 161.237 206.183C162.027 206.183 162.671 206.54 162.62 206.993Z" fill="#FBFEFF" stroke="#707070" stroke-width="0.446215" stroke-linecap="round" stroke-linejoin="round"/>
<path d="M233.485 202.786C233.426 202.693 233.339 202.622 233.237 202.582L226.862 200.293V198.273H225.154V199.681L224.338 199.388V198.273H222.604V198.782L217.638 197.004V196.367H213.036V198.802H217.638V198.132L222.604 199.917V202.359H224.306V200.523L225.122 200.816V202.359H226.83V201.428L230.655 202.805H229.425V205.246H234.014V202.805L233.485 202.786Z" fill="#707070" stroke="#707070" stroke-width="0.446215" stroke-linecap="round" stroke-linejoin="round"/>
<path d="M218.907 203.372H210.894C205.183 201.899 199.313 201.135 193.415 201.096C187.33 201.131 181.272 201.895 175.369 203.372H167.93L166.164 206.604C166.164 209.638 178.365 212.112 193.428 212.112C208.491 212.112 220.692 209.651 220.692 206.604L218.907 203.372Z" fill="white" stroke="#707070" stroke-width="0.446215" stroke-linecap="round" stroke-linejoin="round"/>
<path d="M193.422 208.88C207.497 208.88 218.907 206.414 218.907 203.372C218.907 200.33 207.497 197.865 193.422 197.865C179.346 197.865 167.936 200.33 167.936 203.372C167.936 206.414 179.346 208.88 193.422 208.88Z" fill="#707070"/>
<path d="M181.533 208.249L194.607 203.085L218.237 202.123C216.548 200.555 211.735 199.235 205.284 198.502L193.944 201.931L168.019 203.844C168.727 205.743 174.011 207.388 181.533 208.249Z" fill="#ECF2FE"/>
<path d="M193.422 208.88C207.497 208.88 218.907 206.414 218.907 203.372C218.907 200.33 207.497 197.865 193.422 197.865C179.346 197.865 167.936 200.33 167.936 203.372C167.936 206.414 179.346 208.88 193.422 208.88Z" stroke="#707070" stroke-width="0.446215" stroke-linecap="round" stroke-linejoin="round"/>
<path d="M193.422 204.622C198.864 204.622 203.277 203.668 203.277 202.492C203.277 201.317 198.864 200.363 193.422 200.363C187.979 200.363 183.567 201.317 183.567 202.492C183.567 203.668 187.979 204.622 193.422 204.622Z" fill="white" stroke="#707070" stroke-width="0.446215" stroke-linecap="round" stroke-linejoin="round"/>
<path d="M195.767 201.963C195.767 202.25 194.703 202.467 193.39 202.467C192.077 202.467 191.012 202.237 191.012 201.963C191.012 201.689 192.077 201.453 193.39 201.453C194.703 201.453 195.767 201.676 195.767 201.963Z" fill="#707070" stroke="#707070" stroke-width="0.446215" stroke-linecap="round" stroke-linejoin="round"/>
<path d="M141.705 150.457L144.421 139.238C144.421 139.238 146.92 162.46 147.213 166.272C147.455 169.409 145.122 190.209 144.274 197.507H200.37L194.786 165.52L195.672 134.668L199.044 149.82C199.044 149.82 206.247 150.113 212.43 147.614C218.614 145.115 219.92 143.069 219.92 143.069C219.92 143.069 206.113 111.044 203.767 106.639C201.422 102.234 201.269 101.202 201.269 101.202C201.269 101.202 183.057 93.5521 172.494 88.274L164.998 89.2876C164.998 89.2876 135.337 101.928 134.751 102.961C134.164 103.994 126.598 136.95 122.461 144C122.461 144 131.124 148.998 136.414 149.737L141.705 150.457Z" fill="#FBFEFF" stroke="#707070" stroke-width="0.446215" stroke-linecap="round" stroke-linejoin="round"/>
<path d="M169.243 153.313C180.526 153.313 189.673 144.166 189.673 132.883C189.673 121.599 180.526 112.453 169.243 112.453C157.96 112.453 148.813 121.599 148.813 132.883C148.813 144.166 157.96 153.313 169.243 153.313Z" fill="#C0C9D9"/>
<path d="M168.892 132.131L161.243 151.681C163.863 152.79 166.686 153.34 169.531 153.296C172.376 153.253 175.181 152.616 177.766 151.426L169.313 132.641L176.644 113.842C174.115 112.854 171.414 112.38 168.699 112.449C165.984 112.518 163.311 113.128 160.835 114.244L168.892 132.131Z" fill="#ECF2FE"/>
<path d="M169.237 142.961C174.81 142.961 179.327 138.443 179.327 132.87C179.327 127.297 174.81 122.779 169.237 122.779C163.664 122.779 159.146 127.297 159.146 132.87C159.146 138.443 163.664 142.961 169.237 142.961Z" fill="white"/>
<path d="M171.2 132.87C171.2 133.26 171.084 133.641 170.868 133.964C170.652 134.288 170.344 134.541 169.984 134.69C169.624 134.839 169.228 134.878 168.846 134.802C168.464 134.726 168.113 134.538 167.837 134.263C167.562 133.987 167.374 133.636 167.298 133.254C167.222 132.872 167.261 132.476 167.41 132.116C167.56 131.756 167.812 131.449 168.136 131.232C168.46 131.016 168.841 130.9 169.23 130.9C169.753 130.9 170.254 131.108 170.623 131.477C170.992 131.847 171.2 132.348 171.2 132.87Z" fill="#C0C9D9"/>
<path d="M164.991 89.2875C164.991 89.2875 161.167 90.9067 156.303 93.023V93.1186C156.303 101.405 161.294 108.067 167.439 108.067C173.584 108.067 178.556 101.374 178.556 93.1186C178.556 92.4811 178.556 91.7927 178.461 91.1489C176.319 90.1354 174.279 89.1728 172.462 88.2612L164.991 89.2875Z" stroke="#707070" stroke-width="0.446215" stroke-linecap="round" stroke-linejoin="round"/>
<path d="M144.427 139.238L139.837 119.617" stroke="#707070" stroke-width="0.446215" stroke-linecap="round" stroke-linejoin="round"/>
<path d="M141.195 125.871L135.203 118.253" stroke="#707070" stroke-width="0.446215" stroke-linecap="round" stroke-linejoin="round"/>
<path d="M195.697 134.68C195.697 134.68 193.715 122.613 194.263 115.257" stroke="#707070" stroke-width="0.446215" stroke-linecap="round" stroke-linejoin="round"/>
<path d="M195.347 132.679C195.347 132.679 194.798 121.249 196.711 115.512" stroke="#707070" stroke-width="0.446215" stroke-linecap="round" stroke-linejoin="round"/>
<path d="M157.941 80.7712C157.941 80.7712 158.674 92.5258 158.948 95.9171C159.222 99.3083 162.327 105.007 167.911 104.733C173.495 104.459 175.401 98.1163 175.694 95.7705C175.987 93.4246 175.694 81.517 175.694 81.517C175.694 81.517 170.849 85.635 165.412 84.6023C162.658 83.9237 160.099 82.6119 157.941 80.7712Z" fill="#EDF3FE" stroke="#707070" stroke-width="0.446215" stroke-linecap="round" stroke-linejoin="round"/>
<path d="M175.713 81.5298C175.713 81.5298 170.868 85.6414 165.431 84.6151C162.672 83.938 160.107 82.6287 157.941 80.7904C157.941 80.7904 158.132 83.8183 158.355 87.2669C160.676 90.0015 163.646 92.5003 164.991 93.0039C167.19 93.8836 170.728 93.5904 172.488 91.9904C173.658 90.9531 174.775 89.8574 175.834 88.7075C175.796 85.0804 175.713 81.5298 175.713 81.5298Z" fill="#707070" stroke="#707070" stroke-width="0.446215" stroke-linecap="round" stroke-linejoin="round"/>
<path d="M156.609 46.1003C156.609 46.1003 153.23 48.4525 153.23 52.5641C153.23 56.6756 154.41 74.6007 155.289 78.4191C156.169 82.2374 162.779 88.4079 164.985 89.2557C167.19 90.1035 170.722 89.8485 172.481 88.2485C174.241 86.6485 180.558 81.1792 180.851 74.7282C181.144 68.2772 181.737 59.5824 180.851 54.1641C179.965 48.7458 176.733 45.074 172.481 43.5824C168.229 42.0908 159.554 43.1617 156.609 46.1003Z" fill="#EDF3FE" stroke="#707070" stroke-width="0.446215" stroke-linecap="round" stroke-linejoin="round"/>
<path d="M172.488 43.6016C168.223 42.1291 159.554 43.1618 156.615 46.1004C156.615 46.1004 153.237 48.4526 153.237 52.5642C153.237 53.8391 153.351 56.4717 153.536 59.5761L153.823 59.7482C153.823 59.7482 154.416 54.757 158.674 52.9912C162.932 51.2255 169.103 53.7243 172.188 53.4311C175.273 53.1379 177.772 47.2606 177.925 48.8861C178.078 50.5116 174.547 53.4311 174.693 53.8837C174.84 54.3363 177.045 56.6757 178.951 60.0542C179.869 61.667 180.647 62.604 181.323 62.9227C181.402 59.9953 181.244 57.0662 180.851 54.1642C179.978 48.7458 176.739 45.0678 172.488 43.6016Z" fill="#707070" stroke="#707070" stroke-width="0.446215" stroke-linecap="round" stroke-linejoin="round"/>
<path d="M157.52 68.5768C157.52 68.5768 159.433 70.3425 162.512 68.5768" stroke="#707070" stroke-width="0.886056" stroke-linecap="round" stroke-linejoin="round"/>
<path d="M171.162 68.5768C171.162 68.5768 173.074 70.3425 176.153 68.5768" stroke="#707070" stroke-width="0.886056" stroke-linecap="round" stroke-linejoin="round"/>
<path d="M156.883 63.7323C156.883 63.7323 158.942 61.0869 163.053 62.553" stroke="#707070" stroke-width="0.886056" stroke-linecap="round" stroke-linejoin="round"/>
<path d="M170.569 62.8462C170.569 62.8462 173.119 59.7609 177.332 62.8462" stroke="#707070" stroke-width="0.886056" stroke-linecap="round" stroke-linejoin="round"/>
<path d="M163.079 73.7146C163.079 73.7146 162.786 75.1871 163.818 75.9266C164.851 76.666 167.044 78.1258 168.357 77.5393C169.67 76.9528 171.735 76.2134 171.895 75.3337L172.041 74.4541" stroke="#707070" stroke-width="0.446215" stroke-linecap="round" stroke-linejoin="round"/>
<path d="M162.346 78.2726C162.346 78.2726 167.337 82.6774 173.82 78.2726" stroke="#707070" stroke-width="0.446215" stroke-linecap="round" stroke-linejoin="round"/>
<path d="M150.005 62.9099C149.803 62.9087 149.609 62.8311 149.463 62.6927C149.316 62.5542 149.227 62.3653 149.214 62.1641C149.214 61.8071 148.641 53.3482 151.375 48.6374C151.492 48.4618 151.674 48.3398 151.881 48.2979C152.087 48.2561 152.302 48.2979 152.478 48.4143C152.642 48.5205 152.76 48.6835 152.81 48.8717C152.861 49.06 152.84 49.2603 152.752 49.4342C150.26 53.7306 150.795 61.9729 150.802 62.0621C150.816 62.2715 150.747 62.4779 150.609 62.6367C150.472 62.7954 150.278 62.8936 150.069 62.9099H150.005Z" fill="#E3EDFD" stroke="#707070" stroke-width="0.446215" stroke-linecap="round" stroke-linejoin="round"/>
<path d="M183.739 62.91H183.656C183.552 62.9027 183.45 62.875 183.357 62.8284C183.264 62.7818 183.181 62.7173 183.113 62.6385C183.045 62.5597 182.993 62.4683 182.96 62.3694C182.928 62.2705 182.915 62.1661 182.923 62.0622C182.923 61.9794 183.458 53.7307 180.966 49.4343C180.86 49.2467 180.833 49.0247 180.891 48.8173C180.949 48.6099 181.087 48.434 181.275 48.3283C181.463 48.2227 181.685 48.1959 181.892 48.2539C182.099 48.3118 182.275 48.4499 182.381 48.6375C185.122 53.3483 184.567 61.8072 184.542 62.1642C184.53 62.3682 184.44 62.5599 184.291 62.6989C184.141 62.838 183.943 62.9136 183.739 62.91Z" fill="#E3EDFD" stroke="#707070" stroke-width="0.446215" stroke-linecap="round" stroke-linejoin="round"/>
<path d="M184.982 52.2071C184.41 49.7702 183.238 47.5151 181.571 45.6477C179.398 43.1617 175.484 40.3059 168.759 39.7513C168.595 39.7013 168.426 39.6735 168.255 39.6685H165.45C165.279 39.6735 165.11 39.7013 164.947 39.7513C150.923 40.8924 148.749 52.0924 148.723 52.2135C148.62 52.6953 148.713 53.1984 148.981 53.612C149.248 54.0256 149.67 54.3159 150.151 54.419C150.633 54.5222 151.136 54.4297 151.55 54.1619C151.964 53.8941 152.254 53.473 152.357 52.9911C152.357 52.9529 152.357 52.9083 152.357 52.87C152.357 52.8318 154.186 43.6079 166.821 43.3784C179.327 43.6079 181.176 52.4684 181.259 52.8828C181.364 53.3517 181.647 53.7617 182.048 54.0268C182.449 54.2919 182.937 54.3917 183.41 54.3052C183.883 54.2187 184.304 53.9527 184.585 53.5628C184.866 53.1729 184.985 52.6894 184.918 52.2135L184.982 52.2071Z" fill="#E3EDFD" stroke="#707070" stroke-width="0.446215" stroke-linecap="round" stroke-linejoin="round"/>
<path d="M151.726 72.8223C151.726 72.8223 152.427 97.9378 155.257 122.346C157.947 145.549 156.966 178.652 155.194 197.214" stroke="#707070" stroke-width="0.446215" stroke-linecap="round" stroke-linejoin="round"/>
<path d="M182.496 72.6438C182.496 72.6438 178.607 112.803 173.482 127.127C168.357 141.45 161.632 145.696 156.5 137.224" stroke="#707070" stroke-width="0.446215" stroke-linecap="round" stroke-linejoin="round"/>
<path d="M151.331 61.0931H151.184C148.341 61.0931 146.04 64.0891 146.04 67.78C146.04 71.4708 148.341 74.4668 151.184 74.4668H151.331V61.0931Z" fill="white" stroke="#707070" stroke-width="0.446215" stroke-linecap="round" stroke-linejoin="round"/>
<path d="M152.453 60.3473H151.688C150.762 60.3473 150.011 61.0979 150.011 62.0238V73.5106C150.011 74.4365 150.762 75.1871 151.688 75.1871H152.453C153.378 75.1871 154.129 74.4365 154.129 73.5106V62.0238C154.129 61.0979 153.378 60.3473 152.453 60.3473Z" fill="#E3EDFD" stroke="#707070" stroke-width="0.446215" stroke-linecap="round" stroke-linejoin="round"/>
<path d="M183.943 61.0931H184.089C186.932 61.0931 189.233 64.0891 189.233 67.78C189.233 71.4708 186.932 74.4668 184.089 74.4668H183.943V61.0931Z" fill="white" stroke="#707070" stroke-width="0.446215" stroke-linecap="round" stroke-linejoin="round"/>
<path d="M183.592 60.3538H182.827C181.901 60.3538 181.151 61.1043 181.151 62.0303V73.5171C181.151 74.443 181.901 75.1936 182.827 75.1936H183.592C184.518 75.1936 185.269 74.443 185.269 73.5171V62.0303C185.269 61.1043 184.518 60.3538 183.592 60.3538Z" fill="#E3EDFD" stroke="#707070" stroke-width="0.446215" stroke-linecap="round" stroke-linejoin="round"/>
<path d="M138.977 150.075L136.427 149.718C133.482 149.31 129.492 147.582 126.534 146.129C124.475 150.97 123.156 156.093 122.62 161.326C121.938 167.171 115.551 186.008 114.39 189.24C113.23 192.472 116.003 194.084 116.156 197.023C116.309 199.962 121.147 202.167 121.587 202.9C122.027 203.633 123.793 203.786 123.5 202.314C123.206 200.841 122.186 199.522 122.333 198.202C122.48 196.883 123.34 191.739 123.34 191.739C123.34 191.739 125.106 192.612 125.692 193.498C126.279 194.384 125.106 197.036 124.52 199.235C123.933 201.434 125.253 203.5 125.839 203.2C126.425 202.9 127.605 198.062 128.924 195.417C130.244 192.771 129.931 191.745 128.778 190.272C127.624 188.8 123.487 181.896 123.487 181.896C123.487 181.896 134.789 162.486 136.548 158.094C137.515 155.471 138.326 152.794 138.977 150.075Z" fill="#EDF3FE" stroke="#707070" stroke-width="0.446215" stroke-linecap="round" stroke-linejoin="round"/>
<path d="M126.527 146.129C126.317 146.607 126.088 147.136 125.845 147.78C129.434 150.668 134.009 152.04 138.594 151.605L138.996 150.088L136.446 149.737C133.476 149.297 129.473 147.582 126.527 146.129Z" fill="#707070" stroke="#707070" stroke-width="0.446215" stroke-linecap="round" stroke-linejoin="round"/>
<path d="M118.935 191.885C118.935 191.885 119.235 197.763 118.935 199.375C118.636 200.988 121.581 202.314 122.021 203.64C122.461 204.966 124.666 205.839 124.813 203.194C124.959 200.548 122.32 198.202 122.32 198.202L123.793 190.999" fill="#EDF3FE"/>
<path d="M118.935 191.885C118.935 191.885 119.235 197.763 118.935 199.375C118.636 200.988 121.581 202.314 122.021 203.64C122.461 204.966 124.666 205.839 124.813 203.194C124.959 200.548 122.32 198.202 122.32 198.202L123.793 190.999" stroke="#707070" stroke-width="0.446215" stroke-linecap="round" stroke-linejoin="round"/>
<path d="M115.857 192.319L116.15 195.697" stroke="#707070" stroke-width="0.446215" stroke-linecap="round" stroke-linejoin="round"/>
<path d="M212.443 147.614C210.148 148.545 205.75 149.406 203.589 149.718C201.574 152.383 197.488 159.669 190.719 168.956C186.684 174.508 182.432 177.594 181.967 178.773C181.501 179.952 175.592 190.432 174.119 192.797C172.647 195.162 171.474 196.622 172.507 196.762C173.539 196.902 173.973 197.055 175.739 194.849C177.504 192.644 180.277 186.773 180.277 186.773C180.277 186.773 177.925 195.697 177.339 197.049C176.752 198.4 176.166 199.108 177.192 199.547C178.218 199.987 179.99 199.694 181.157 197.495C182.324 195.296 187.034 186.021 187.034 186.021C187.034 186.021 183.363 197.183 182.782 198.362C182.202 199.541 184.542 200.121 185.275 198.802C186.008 197.482 188.016 190.623 188.462 190.183C188.908 189.743 190.304 187.321 191.012 183.949C191.273 182.617 191.541 179.041 191.541 179.041C191.541 179.041 209.67 163.481 214.661 158.19C219.653 152.899 221.731 150.253 221.731 147.761C221.731 146.333 220.532 144.733 219.5 143.586C218.677 144.351 216.739 145.874 212.443 147.614Z" fill="#EDF3FE" stroke="#707070" stroke-width="0.446215" stroke-linecap="round" stroke-linejoin="round"/>
<path d="M219.882 144.057L219.468 143.586C218.677 144.351 216.739 145.874 212.456 147.621C210.161 148.551 205.763 149.418 203.602 149.731C203.219 150.234 202.754 150.929 202.218 151.751C206.496 151.745 214.585 150.744 219.882 144.057Z" fill="#707070" stroke="#707070" stroke-width="0.446215" stroke-linecap="round" stroke-linejoin="round"/>
<path d="M177.205 199.535C177.205 199.535 181.469 192.472 183.082 185.874" stroke="#707070" stroke-width="0.446215" stroke-linecap="round" stroke-linejoin="round"/>
<path d="M208.446 64.7967C207.45 64.2915 206.484 63.7297 205.552 63.1138C204.143 62.1704 203.378 62.6102 203.563 63.2477C203.748 63.8851 202.55 68.3027 200.759 70.6294C198.967 72.9561 199.12 70.3042 197.763 69.8389C196.405 69.3736 195.672 70.7314 196.717 72.2804C197.763 73.8294 200.115 73.3577 200.421 72.4079C201.358 70.299 202.422 68.249 203.608 66.2692C204.245 65.262 204.749 65.313 205.941 66.4923C206.447 67.0261 207.078 67.4252 207.777 67.6534C208.476 67.8816 209.221 67.9317 209.944 67.7991C209.944 67.7991 207.509 72.4525 206.757 73.9377C206.005 75.423 205.399 77.3226 204.303 77.2844C203.206 77.2461 201.982 75.0724 201.116 76.411C200.249 77.7497 202.843 79.9808 204.239 79.3433C205.635 78.7059 206.489 75.78 207.528 73.7592C208.567 71.7385 211.563 66.4158 211.385 65.6764C211.206 64.9369 209.791 65.67 208.446 64.7967Z" fill="#707070"/>
<path d="M198.91 54.1896C198.206 53.833 197.523 53.4371 196.864 53.0039C195.85 52.3665 195.321 52.6533 195.455 53.0995C195.589 53.5458 194.741 56.6629 193.466 58.3203C192.191 59.9776 192.312 58.078 191.35 57.7593C190.387 57.4406 189.871 58.3967 190.61 59.4804C191.35 60.5641 193.014 60.239 193.23 59.5696C193.888 58.0796 194.637 56.6319 195.474 55.235C195.939 54.521 196.277 54.5529 197.119 55.388C197.476 55.7654 197.922 56.0477 198.417 56.2091C198.911 56.3705 199.438 56.4059 199.949 56.3123C199.949 56.3123 198.228 59.6079 197.712 60.6533C197.195 61.6987 196.749 63.0501 195.971 63.0183C195.194 62.9864 194.327 61.4565 193.708 62.3808C193.09 63.3051 194.932 64.9306 195.92 64.4462C196.908 63.9617 197.52 61.8964 198.247 60.5067C198.974 59.1171 201.103 55.3115 200.975 54.7697C200.848 54.2278 199.86 54.8015 198.91 54.1896Z" fill="#707070"/>
<path d="M138.69 72.0893C137.986 71.7341 137.302 71.3382 136.644 70.9036C135.63 70.2662 135.127 70.5594 135.235 70.9992C135.343 71.439 134.521 74.5625 133.246 76.2199C131.971 77.8773 132.092 75.9841 131.136 75.659C130.18 75.3339 129.657 76.2964 130.39 77.3801C131.123 78.4637 132.794 78.145 133.01 77.4757C133.669 75.9843 134.418 74.5345 135.254 73.1347C135.713 72.4271 136.064 72.4526 136.899 73.294C137.258 73.6696 137.704 73.9506 138.198 74.1118C138.692 74.2731 139.218 74.3097 139.729 74.2184C139.729 74.2184 138.008 77.5076 137.492 78.5594C136.975 79.6112 136.529 80.9498 135.751 80.9243C134.974 80.8988 134.107 79.3562 133.488 80.2869C132.87 81.2175 134.712 82.8367 135.7 82.3586C136.688 81.8805 137.3 79.8088 138.027 78.4064C138.754 77.004 140.883 73.2175 140.755 72.6693C140.628 72.1211 139.633 72.7076 138.69 72.0893Z" fill="#707070"/>
<defs>
<linearGradient id="paint0_linear_48_756" x1="8.47475" y1="40.0932" x2="70.8017" y2="49.9803" gradientUnits="userSpaceOnUse">
<stop stop-color="#FFF176"/>
<stop offset="1" stop-color="#00E0B8"/>
</linearGradient>
</defs>
</svg>
