<svg width="679" height="163" viewBox="0 0 679 163" fill="none" xmlns="http://www.w3.org/2000/svg">
<path d="M609 39H118V79H609V39Z" fill="#00E0B8"/>
<path d="M91 126V75H657V126H91Z" fill="white" stroke="#00E0B8" stroke-width="2"/>
<path d="M656 76H643V125H656V76Z" fill="#00E0B8"/>
<path d="M81.3327 146.969C117.539 146.969 146.89 117.618 146.89 81.4119C146.89 45.2055 117.539 15.8545 81.3327 15.8545C45.1263 15.8545 15.7753 45.2055 15.7753 81.4119C15.7753 117.618 45.1263 146.969 81.3327 146.969Z" fill="white"/>
<path d="M81.3008 79.27C81.8171 79.2653 82.3173 79.449 82.7078 79.7868C83.0982 80.1245 83.3521 80.5931 83.4218 81.1046H94.1111C94.0012 77.7691 92.595 74.608 90.1914 72.2928C87.7877 69.9777 84.5761 68.691 81.2388 68.7062C77.9016 68.7214 74.7018 70.0372 72.3193 72.3742C69.9369 74.7111 68.5595 77.8849 68.4799 81.2212H79.1693C79.2122 80.6868 79.4559 80.1885 79.8513 79.8264C80.2468 79.4644 80.7647 79.2656 81.3008 79.27Z" fill="url(#paint0_linear_86_243)"/>
<path d="M81.3008 83.5754C80.7862 83.5805 80.2873 83.3982 79.8971 83.0626C79.5068 82.727 79.252 82.261 79.1799 81.7514H68.4905C68.6005 85.0869 70.0067 88.248 72.4103 90.5632C74.8139 92.8783 78.0256 94.165 81.3628 94.1498C84.7001 94.1346 87.8999 92.8188 90.2824 90.4818C92.6648 88.1449 94.0422 84.9711 94.1217 81.6348L83.443 81.6878C83.3849 82.2126 83.1333 82.6969 82.7371 83.046C82.3409 83.3951 81.8288 83.5839 81.3008 83.5754Z" fill="url(#paint1_linear_86_243)"/>
<path d="M81.11 35.2715C71.9818 35.3136 63.0712 38.0616 55.5049 43.1681C47.9387 48.2746 42.0567 55.5101 38.6028 63.9597C35.1489 72.4092 34.2783 81.6933 36.101 90.6376C37.9238 99.582 42.358 107.785 48.843 114.209C55.3279 120.633 63.5723 124.99 72.5335 126.728C81.4946 128.467 90.7701 127.509 99.1867 123.975C107.603 120.442 114.783 114.492 119.818 106.878C124.853 99.2641 127.517 90.328 127.473 81.1999C127.445 75.1397 126.224 69.1444 123.879 63.5563C121.534 57.9682 118.111 52.8969 113.805 48.6319C109.5 44.3669 104.397 40.9918 98.7866 38.6994C93.1767 36.407 87.1701 35.2422 81.11 35.2715ZM52.4777 109.673C52.1701 109.376 51.6929 108.963 51.1415 108.379C49.5501 106.742 48.1058 104.968 46.8254 103.077C44.916 100.254 43.3964 97.1866 42.3079 93.9571C39.562 85.96 39.521 77.2819 42.1912 69.2591C43.2505 66.0145 44.7453 62.9287 46.6345 60.0862C47.8882 58.1963 49.3077 56.4218 50.8764 54.7839C51.4172 54.2007 51.9368 53.7871 52.1913 53.4795L52.6579 53.0342L52.2337 53.5326C51.9686 53.8613 51.5445 54.3067 51.046 54.943C49.6414 56.7074 48.3723 58.5756 47.2496 60.5316C45.5962 63.4104 44.3 66.4801 43.3896 69.6727C41.1194 77.4946 41.1563 85.8057 43.4956 93.6072C44.4418 96.7954 45.77 99.8576 47.4511 102.727C48.5896 104.672 49.8766 106.526 51.3006 108.273C51.799 108.899 52.2231 109.334 52.4989 109.673L52.923 110.161L52.4777 109.673ZM55.1182 104.827L54.291 104C53.9835 103.713 53.7184 103.321 53.3897 102.939L52.3292 101.688L51.7884 101.009L51.2793 100.235C50.4882 99.1031 49.7795 97.9159 49.1584 96.6825C48.8403 96.0144 48.4373 95.3463 48.1616 94.5616L47.3663 92.324C44.9281 85.3601 44.8759 77.783 47.2178 70.7862C47.5041 70.0014 47.7904 69.2379 48.0662 68.4956C48.3419 67.7533 48.7342 67.0746 49.0524 66.3747C49.6671 65.131 50.3761 63.9363 51.1733 62.801C51.343 62.5358 51.502 62.2707 51.6717 62.0268L52.2125 61.3269L53.2094 60.0756C53.4849 59.7076 53.7787 59.3537 54.0895 59.0151L54.9167 58.1774L56.4438 56.6503C56.4438 56.6503 55.9666 57.2548 55.0864 58.3364L54.3653 59.2378C54.0896 59.5559 53.8669 59.9589 53.5805 60.3725L52.6685 61.7405L52.2019 62.4616L51.7778 63.2569C51.1021 64.4202 50.5068 65.6285 49.9962 66.8731C49.7311 67.5412 49.3917 68.2093 49.1584 68.941L48.4267 71.1998C46.4571 77.9748 46.4902 85.1751 48.5222 91.9317L49.2539 94.1798C49.4978 94.9221 49.8477 95.5796 50.1128 96.2477C50.6314 97.4875 51.2374 98.6888 51.9262 99.8427L52.361 100.638L52.8382 101.349L53.7184 102.653C54.0047 103.056 54.2274 103.459 54.5031 103.777L55.2454 104.668L56.6134 106.354L55.1182 104.827ZM59.0313 101.306L58.3208 100.617C58.0557 100.362 57.833 100.044 57.5572 99.726L56.6877 98.6656L56.2211 98.0929L55.7863 97.4354C55.1128 96.4768 54.5102 95.4702 53.9835 94.4237C53.7078 93.8511 53.3578 93.289 53.1139 92.6528C52.87 92.0165 52.6261 91.3696 52.361 90.7122C51.3589 87.763 50.8257 84.6749 50.7809 81.5604C50.8043 78.444 51.3086 75.3499 52.2762 72.3875L53.0185 70.4362C53.2518 69.8 53.5911 69.2379 53.8563 68.6653C54.3779 67.6136 54.9732 66.6001 55.6378 65.6324L56.062 64.9749L56.5286 64.3916C56.8255 64.0099 57.1118 63.6599 57.3876 63.3312C57.6267 63.018 57.8815 62.7172 58.1511 62.4298L58.851 61.7299L60.166 60.4361L59.0313 61.8889L58.4162 62.6525C58.1829 62.9282 58.0026 63.2781 57.7693 63.6175C57.536 63.9568 57.2921 64.3386 57.0376 64.7416L56.6346 65.346L56.2847 66.0247C55.7209 67.0151 55.2249 68.0426 54.8001 69.1001C54.5774 69.6727 54.291 70.2347 54.1002 70.8498C53.9093 71.4649 53.6972 72.1117 53.4957 72.7692C51.8552 78.5085 51.8846 84.5966 53.5805 90.3198C53.7926 90.9667 53.9941 91.6029 54.1956 92.2286C54.3971 92.8543 54.6834 93.4057 54.9167 93.9783C55.3527 95.0276 55.8557 96.0477 56.4226 97.0325L56.7937 97.7112L57.1861 98.3156L57.9708 99.4185C58.2147 99.7578 58.4056 100.108 58.6389 100.383L59.254 101.136L60.3568 102.6L59.0313 101.306ZM62.9868 97.7854C62.5374 97.3899 62.1224 96.9571 61.746 96.4916L61.0249 95.6326L60.622 95.1767L60.2614 94.6358C59.6901 93.8544 59.183 93.0281 58.745 92.165C58.5117 91.6878 58.2253 91.2212 58.0238 90.7122L57.3982 89.1002C56.5506 86.6677 56.0994 84.1149 56.062 81.5392C56.0823 78.9647 56.5082 76.4095 57.3239 73.9675L57.939 72.3557C58.1405 71.836 58.4162 71.3694 58.6495 70.9028C59.0813 70.0361 59.5776 69.2031 60.1341 68.4108L60.4947 67.8699L60.8765 67.3927L61.5976 66.5232C61.9702 66.0579 62.3779 65.6218 62.8171 65.2188L63.8776 64.1583L62.955 65.3673C62.5629 65.8184 62.2082 66.3007 61.8945 66.8095L61.3006 67.7321L60.9825 68.2305L60.6962 68.7925C60.2406 69.6097 59.8403 70.4564 59.4979 71.327C59.3176 71.7936 59.0843 72.2602 58.9358 72.7692C58.7874 73.2782 58.6177 73.8297 58.4586 74.3387C57.1504 79.0385 57.1724 84.0093 58.5223 88.6973L59.0207 90.2667C59.1797 90.7758 59.413 91.2424 59.5933 91.709C59.9468 92.5714 60.3541 93.4108 60.8128 94.2223L61.1098 94.7843L61.4279 95.2827L62.0324 96.2053C62.3493 96.7052 62.7038 97.1802 63.0928 97.6263C63.6867 98.4004 64.026 98.8246 64.026 98.8246L62.9868 97.7854ZM66.9317 94.2647C66.5732 93.9597 66.2399 93.6263 65.9348 93.2679L65.3516 92.5998L65.0441 92.2286L64.7471 91.815C64.2915 91.2003 63.8838 90.5516 63.5276 89.8744C63.3121 89.5073 63.1174 89.1285 62.9444 88.7397L62.4353 87.4777C61.7602 85.5583 61.4021 83.5419 61.3749 81.5074C61.4085 79.47 61.7665 77.4511 62.4353 75.5264L62.9338 74.2645C63.1034 73.8509 63.3261 73.4798 63.5064 73.1192C63.8573 72.4402 64.2578 71.788 64.7047 71.1679L64.991 70.7438L65.3092 70.3726L65.8818 69.7045C66.1751 69.323 66.5016 68.9681 66.8574 68.6441L67.7376 67.8381L67.0377 68.7925C66.7574 69.1587 66.4989 69.5412 66.2636 69.9378L65.8076 70.6695L65.5637 71.0725L65.3516 71.5073C65.0059 72.1505 64.7048 72.8166 64.4502 73.5009C64.3123 73.8615 64.1321 74.2327 64.0154 74.625L63.6549 75.8552C62.6581 79.5142 62.6581 83.3733 63.6549 87.0324L64.026 88.2519C64.1533 88.6549 64.3335 89.0154 64.4714 89.3866C64.7302 90.0658 65.0386 90.725 65.394 91.359L65.6167 91.8044L65.8606 92.1968L66.3166 92.9285C66.5457 93.3426 66.8044 93.7395 67.0907 94.1162L67.8012 95.0706L66.9317 94.2647ZM82.9233 96.1099C79.888 96.437 76.8258 95.8162 74.1573 94.333C71.4889 92.8497 69.3452 90.5766 68.0206 87.826C66.696 85.0754 66.2556 81.9821 66.7597 78.971C67.2639 75.96 68.6879 73.1789 70.8362 71.0097C72.9846 68.8406 75.7518 67.3898 78.7578 66.8566C81.7639 66.3235 84.8612 66.7341 87.6245 68.0321C90.3878 69.3301 92.6815 71.4518 94.1904 74.1057C95.6993 76.7597 96.3496 79.8158 96.0518 82.8542C95.7084 86.2333 94.2168 89.3925 91.8257 91.8048C89.4346 94.2171 86.2887 95.7367 82.9127 96.1099H82.9233ZM97.7697 92.0801L97.4622 92.4513L96.8895 93.13C96.5849 93.4886 96.2553 93.8252 95.9033 94.1374L95.0231 94.9434L95.723 93.9783C96.0132 93.6169 96.2755 93.2341 96.5078 92.8331L96.9532 92.1013L97.1971 91.709L97.4198 91.2636C97.7592 90.621 98.0602 89.9588 98.3212 89.2805C98.459 88.9094 98.6287 88.5488 98.7453 88.1458C98.862 87.7429 98.9892 87.3399 99.1059 86.9157C99.5782 85.0899 99.8239 83.2129 99.8376 81.3271C99.802 79.4394 99.5385 77.563 99.0529 75.7385L98.6817 74.519C98.5651 74.116 98.3848 73.7554 98.2469 73.3949C97.9792 72.7161 97.6711 72.0539 97.3243 71.4118L97.1016 70.9771C97.0168 70.8392 96.9319 70.7119 96.8577 70.5741C96.7835 70.4362 96.5396 70.0757 96.4017 69.853C96.1654 69.4554 95.8995 69.0761 95.6064 68.7183L94.8959 67.7639L95.7867 68.5592C96.144 68.8619 96.474 69.1955 96.7729 69.556L97.3561 70.2241L97.6743 70.5953L97.9606 71.0089C98.4162 71.6235 98.8239 72.2724 99.1801 72.9495C99.3604 73.3101 99.5937 73.6812 99.7634 74.0842C99.933 74.4872 100.092 74.922 100.272 75.3567C101.682 79.2089 101.701 83.4329 100.325 87.2975L99.827 88.57C99.6679 88.973 99.4452 89.3442 99.2543 89.7153C98.9089 90.394 98.5082 91.0431 98.056 91.6559L97.7697 92.0801ZM101.821 95.4418L101.11 96.3114C100.737 96.7797 100.326 97.2159 99.88 97.6157L98.8196 98.6761L99.7422 97.4672C100.128 97.0152 100.483 96.5368 100.803 96.0356L101.386 95.1024L101.715 94.604C101.799 94.4237 101.895 94.2328 102.001 94.042C102.449 93.226 102.845 92.3831 103.189 91.5181C103.369 91.0409 103.602 90.5849 103.751 90.0653L104.238 88.4958C105.551 83.796 105.525 78.8232 104.164 74.1372L103.676 72.5677C103.517 72.0587 103.284 71.6027 103.093 71.1361C102.746 70.2674 102.339 69.424 101.874 68.6123L101.587 68.0608L101.259 67.5518L100.665 66.6398C100.349 66.1359 99.9943 65.6572 99.6043 65.2082L98.6817 64.0099L99.7422 65.0703C100.189 65.4684 100.604 65.901 100.983 66.3641L101.704 67.2231L102.096 67.7003L102.457 68.2305C103.021 69.0184 103.524 69.848 103.963 70.7119C104.196 71.1785 104.482 71.6451 104.684 72.1648C104.885 72.6844 105.108 73.2252 105.32 73.7661C107.062 78.6556 107.088 83.9923 105.394 88.8987C105.182 89.4502 104.97 89.9592 104.779 90.5107C104.588 91.0621 104.292 91.4969 104.069 91.9741C103.634 92.8378 103.134 93.6673 102.574 94.4556C102.46 94.6464 102.344 94.8267 102.224 94.9964L101.821 95.4418ZM105.331 99.4927C105.094 99.8081 104.839 100.109 104.567 100.394L103.867 101.094L102.51 102.388L103.655 100.946L104.26 100.171C104.498 99.8634 104.718 99.5412 104.917 99.2064C105.136 98.86 105.38 98.4888 105.649 98.0929L106.041 97.4779L106.402 96.7992C106.961 95.8102 107.457 94.7866 107.886 93.7345C108.109 93.1618 108.395 92.5998 108.586 91.9741L109.18 90.0547C109.965 87.1933 110.372 84.2412 110.389 81.2741C110.343 78.3076 109.911 75.3596 109.106 72.5041L108.48 70.6059C108.289 69.9802 107.993 69.4182 107.77 68.8456C107.331 67.796 106.824 66.7758 106.253 65.7914L105.893 65.1127L105.49 64.5083L104.748 63.3948C104.546 63.0649 104.326 62.7463 104.09 62.4404L103.475 61.6769L102.319 60.2346L103.645 61.5178L104.355 62.2177C104.628 62.5011 104.887 62.7984 105.129 63.1085L105.988 64.169L106.465 64.7522C106.603 64.9643 106.752 65.1764 106.89 65.3991C107.569 66.3596 108.175 67.3699 108.703 68.4214C108.979 68.9834 109.318 69.556 109.562 70.1817L110.315 72.1329C112.406 78.0536 112.436 84.5072 110.4 90.447C110.156 91.1151 109.901 91.7726 109.668 92.3983C109.435 93.0239 109.095 93.6072 108.82 94.1798C108.304 95.2346 107.708 96.2485 107.038 97.2127L106.614 97.8702L106.158 98.4535L105.331 99.4927ZM108.661 103.735L107.844 104.562L106.306 106.099L107.664 104.403L108.395 103.512C108.671 103.183 108.894 102.78 109.17 102.377L110.039 101.062L110.516 100.352L110.941 99.5457C111.608 98.3836 112.2 97.1792 112.712 95.9402C112.977 95.2615 113.327 94.5934 113.549 93.8193L114.27 91.5605C116.213 84.8034 116.18 77.6311 114.175 70.8922L113.433 68.6441C113.199 67.9124 112.849 67.2443 112.574 66.5232C112.05 65.2877 111.448 64.0869 110.771 62.9282C110.622 62.6631 110.474 62.398 110.336 62.1329C110.198 61.8677 110.007 61.6557 109.859 61.4224L108.968 60.118C108.727 59.7297 108.465 59.3544 108.183 58.9939L107.452 58.1031C106.571 57.0427 106.073 56.4276 106.073 56.4276L107.621 57.9441L108.449 58.7712C108.77 59.1066 109.071 59.4607 109.35 59.8317C109.668 60.2135 110.007 60.627 110.41 61.0724L110.962 61.7511L111.46 62.5252C112.253 63.6561 112.962 64.8434 113.581 66.0778C113.91 66.7564 114.302 67.4245 114.589 68.1987C114.875 68.9728 115.161 69.7151 115.458 70.4893C117.882 77.4471 117.919 85.0139 115.564 91.9953L114.705 94.2965C114.429 95.0388 114.037 95.7069 113.73 96.4174C113.123 97.6547 112.432 98.8488 111.662 99.9911L111.163 100.765L110.622 101.455L109.626 102.706C109.191 103.066 108.926 103.448 108.618 103.756L108.661 103.735ZM116.084 102.727C114.832 104.618 113.412 106.393 111.842 108.029C111.291 108.623 110.782 109.037 110.527 109.334L110.06 109.779L110.474 109.291C110.75 108.963 111.174 108.507 111.662 107.87C113.074 106.115 114.343 104.25 115.458 102.292C117.113 99.4093 118.413 96.3363 119.329 93.1406C121.603 85.3186 121.562 77.0055 119.212 69.2061C118.25 66.0505 116.915 63.0209 115.235 60.1816C114.099 58.2318 112.812 56.3739 111.386 54.6248C110.888 53.9992 110.453 53.5644 110.188 53.225L109.763 52.7372L110.23 53.1826C110.527 53.4795 111.004 53.8825 111.556 54.4764C115.54 58.5656 118.562 63.4928 120.4 68.8986C123.131 76.8983 123.172 85.5715 120.516 93.5966C119.453 96.8329 117.959 99.9112 116.073 102.748L116.084 102.727Z" fill="url(#paint2_linear_86_243)"/>
<mask id="path-8-outside-1_86_243" maskUnits="userSpaceOnUse" x="0" y="0" width="163" height="163" fill="black">
<rect fill="white" width="163" height="163"/>
<path d="M153.741 70.7864C152.147 70.1515 150.724 69.1553 149.581 67.8763C148.439 66.5972 147.61 65.0703 147.158 63.4159C146.707 61.7615 146.646 60.0248 146.98 58.3428C147.315 56.6608 148.035 55.0796 149.085 53.7236C150.435 51.9787 151.233 49.8702 151.377 47.6686C151.52 45.467 151.003 43.2728 149.89 41.3674C148.778 39.462 147.122 37.9324 145.134 36.9747C143.147 36.0171 140.918 35.6752 138.735 35.9928C137.039 36.2425 135.308 36.094 133.678 35.559C132.049 35.0241 130.567 34.1173 129.349 32.9105C128.131 31.7037 127.21 30.2301 126.66 28.6061C126.11 26.9821 125.945 25.2523 126.179 23.5537C126.476 21.3679 126.112 19.1435 125.136 17.1656C124.159 15.1877 122.614 13.5466 120.699 12.4527C118.783 11.3589 116.585 10.8621 114.385 11.0261C112.186 11.1901 110.085 12.0074 108.353 13.3733C107.008 14.4358 105.434 15.1711 103.756 15.5211C102.078 15.8712 100.342 15.8264 98.6839 15.3904C97.0261 14.9543 95.4924 14.139 94.2038 13.0086C92.9151 11.8782 91.9068 10.4638 91.2585 8.87696C90.4227 6.83514 88.9959 5.08962 87.1611 3.86433C85.3264 2.63904 83.1674 1.98986 80.9611 2.00012C78.7549 2.01038 76.602 2.67961 74.7787 3.9219C72.9554 5.1642 71.5449 6.9229 70.7281 8.9724C70.0957 10.5592 69.1044 11.9781 67.8319 13.1176C66.5593 14.2572 65.0401 15.0865 63.3934 15.5405C61.7466 15.9946 60.0171 16.061 58.3404 15.7347C56.6636 15.4084 55.0853 14.6981 53.729 13.6596C51.9841 12.3095 49.8756 11.5115 47.674 11.368C45.4724 11.2246 43.2781 11.7421 41.3727 12.8544C39.4673 13.9666 37.9377 15.6228 36.9801 17.6104C36.0225 19.598 35.6805 21.8264 35.9982 24.0097C36.2437 25.7062 36.0919 27.4366 35.5548 29.0645C35.0176 30.6924 34.1098 32.1733 32.9028 33.3906C31.6958 34.6079 30.2226 35.5283 28.5993 36.0792C26.9761 36.6301 25.247 36.7966 23.5484 36.5655C21.3619 36.2662 19.1358 36.6279 17.1565 37.6041C15.1772 38.5802 13.5351 40.1261 12.4415 42.0431C11.3479 43.96 10.8528 46.1602 11.0198 48.3608C11.1868 50.5615 12.0083 52.6618 13.3787 54.3917C14.4409 55.7376 15.1756 57.312 15.525 58.9905C15.8743 60.6691 15.8286 62.4059 15.3915 64.0638C14.9544 65.7217 14.1379 67.2553 13.0064 68.5434C11.8749 69.8316 10.4594 70.839 8.87173 71.4863C6.83032 72.3231 5.08551 73.7509 3.86116 75.5863C2.6368 77.4216 1.98875 79.581 2.00015 81.7872C2.01154 83.9935 2.68186 86.146 3.92511 87.9687C5.16836 89.7913 6.92783 91.2009 8.97777 92.0167C10.5706 92.6502 11.9944 93.6452 13.1367 94.9233C14.2791 96.2014 15.1087 97.7275 15.5602 99.3812C16.0117 101.035 16.0726 102.771 15.7382 104.452C15.4037 106.133 14.6831 107.714 13.6332 109.069C12.2785 110.812 11.4764 112.92 11.33 115.123C11.1835 117.325 11.6995 119.521 12.8115 121.428C13.9234 123.335 15.5805 124.865 17.5696 125.823C19.5586 126.78 21.7886 127.12 23.9726 126.8C25.67 126.552 27.4016 126.703 29.0309 127.239C30.6602 127.775 32.1425 128.683 33.3611 129.89C34.5796 131.097 35.501 132.571 36.0525 134.195C36.604 135.82 36.7705 137.55 36.539 139.249C36.2419 141.434 36.6045 143.658 37.5803 145.635C38.5562 147.612 40.1006 149.252 42.0154 150.346C43.9302 151.439 46.1281 151.934 48.3267 151.769C50.5254 151.604 52.6245 150.786 54.3547 149.419C55.7008 148.357 57.2752 147.621 58.954 147.271C60.6328 146.921 62.3699 146.966 64.0284 147.402C65.6869 147.838 67.2215 148.653 68.5111 149.784C69.8008 150.914 70.8102 152.328 71.4598 153.915C72.3051 155.935 73.7308 157.659 75.5563 158.867C77.3818 160.076 79.5251 160.716 81.7145 160.706C83.904 160.696 86.0411 160.036 87.8553 158.81C89.6695 157.584 91.079 155.848 91.9054 153.82C92.5402 152.227 93.5364 150.803 94.8155 149.661C96.0946 148.519 97.6215 147.689 99.2759 147.238C100.93 146.786 102.667 146.725 104.349 147.06C106.031 147.394 107.612 148.115 108.968 149.165C110.712 150.514 112.82 151.311 115.02 151.455C117.22 151.598 119.414 151.082 121.318 149.971C123.223 148.86 124.753 147.206 125.712 145.22C126.67 143.234 127.014 141.008 126.699 138.825C126.45 137.128 126.598 135.397 127.133 133.768C127.668 132.138 128.575 130.655 129.781 129.437C130.988 128.218 132.461 127.296 134.085 126.745C135.709 126.193 137.439 126.027 139.138 126.259C141.324 126.558 143.549 126.198 145.528 125.223C147.507 124.248 149.149 122.704 150.244 120.788C151.338 118.873 151.835 116.674 151.67 114.474C151.505 112.274 150.686 110.174 149.318 108.443C148.256 107.097 147.521 105.523 147.171 103.844C146.821 102.165 146.865 100.428 147.301 98.7694C147.737 97.1109 148.553 95.5763 149.683 94.2867C150.813 92.9971 152.228 91.9876 153.815 91.338C155.868 90.5117 157.627 89.0883 158.862 87.2519C160.098 85.4154 160.754 83.2505 160.746 81.037C160.738 78.8235 160.067 76.6633 158.818 74.8359C157.569 73.0084 155.8 71.5978 153.741 70.7864ZM146.879 81.0728C146.94 94.0365 143.155 106.727 136.003 117.54C128.852 128.352 118.654 136.802 106.701 141.819C94.7469 146.836 81.5739 148.196 68.8474 145.726C56.1209 143.257 44.4125 137.069 35.2028 127.945C25.993 118.821 19.6956 107.172 17.1068 94.4688C14.518 81.766 15.7542 68.5809 20.6589 56.5807C25.5636 44.5805 33.9167 34.3041 44.6618 27.0512C55.4069 19.7983 68.0614 15.8945 81.0251 15.8335C98.408 15.7743 115.104 22.6135 127.45 34.8503C139.797 47.0871 146.784 63.7219 146.879 81.1046V81.0728Z"/>
</mask>
<path d="M153.741 70.7864C152.147 70.1515 150.724 69.1553 149.581 67.8763C148.439 66.5972 147.61 65.0703 147.158 63.4159C146.707 61.7615 146.646 60.0248 146.98 58.3428C147.315 56.6608 148.035 55.0796 149.085 53.7236C150.435 51.9787 151.233 49.8702 151.377 47.6686C151.52 45.467 151.003 43.2728 149.89 41.3674C148.778 39.462 147.122 37.9324 145.134 36.9747C143.147 36.0171 140.918 35.6752 138.735 35.9928C137.039 36.2425 135.308 36.094 133.678 35.559C132.049 35.0241 130.567 34.1173 129.349 32.9105C128.131 31.7037 127.21 30.2301 126.66 28.6061C126.11 26.9821 125.945 25.2523 126.179 23.5537C126.476 21.3679 126.112 19.1435 125.136 17.1656C124.159 15.1877 122.614 13.5466 120.699 12.4527C118.783 11.3589 116.585 10.8621 114.385 11.0261C112.186 11.1901 110.085 12.0074 108.353 13.3733C107.008 14.4358 105.434 15.1711 103.756 15.5211C102.078 15.8712 100.342 15.8264 98.6839 15.3904C97.0261 14.9543 95.4924 14.139 94.2038 13.0086C92.9151 11.8782 91.9068 10.4638 91.2585 8.87696C90.4227 6.83514 88.9959 5.08962 87.1611 3.86433C85.3264 2.63904 83.1674 1.98986 80.9611 2.00012C78.7549 2.01038 76.602 2.67961 74.7787 3.9219C72.9554 5.1642 71.5449 6.9229 70.7281 8.9724C70.0957 10.5592 69.1044 11.9781 67.8319 13.1176C66.5593 14.2572 65.0401 15.0865 63.3934 15.5405C61.7466 15.9946 60.0171 16.061 58.3404 15.7347C56.6636 15.4084 55.0853 14.6981 53.729 13.6596C51.9841 12.3095 49.8756 11.5115 47.674 11.368C45.4724 11.2246 43.2781 11.7421 41.3727 12.8544C39.4673 13.9666 37.9377 15.6228 36.9801 17.6104C36.0225 19.598 35.6805 21.8264 35.9982 24.0097C36.2437 25.7062 36.0919 27.4366 35.5548 29.0645C35.0176 30.6924 34.1098 32.1733 32.9028 33.3906C31.6958 34.6079 30.2226 35.5283 28.5993 36.0792C26.9761 36.6301 25.247 36.7966 23.5484 36.5655C21.3619 36.2662 19.1358 36.6279 17.1565 37.6041C15.1772 38.5802 13.5351 40.1261 12.4415 42.0431C11.3479 43.96 10.8528 46.1602 11.0198 48.3608C11.1868 50.5615 12.0083 52.6618 13.3787 54.3917C14.4409 55.7376 15.1756 57.312 15.525 58.9905C15.8743 60.6691 15.8286 62.4059 15.3915 64.0638C14.9544 65.7217 14.1379 67.2553 13.0064 68.5434C11.8749 69.8316 10.4594 70.839 8.87173 71.4863C6.83032 72.3231 5.08551 73.7509 3.86116 75.5863C2.6368 77.4216 1.98875 79.581 2.00015 81.7872C2.01154 83.9935 2.68186 86.146 3.92511 87.9687C5.16836 89.7913 6.92783 91.2009 8.97777 92.0167C10.5706 92.6502 11.9944 93.6452 13.1367 94.9233C14.2791 96.2014 15.1087 97.7275 15.5602 99.3812C16.0117 101.035 16.0726 102.771 15.7382 104.452C15.4037 106.133 14.6831 107.714 13.6332 109.069C12.2785 110.812 11.4764 112.92 11.33 115.123C11.1835 117.325 11.6995 119.521 12.8115 121.428C13.9234 123.335 15.5805 124.865 17.5696 125.823C19.5586 126.78 21.7886 127.12 23.9726 126.8C25.67 126.552 27.4016 126.703 29.0309 127.239C30.6602 127.775 32.1425 128.683 33.3611 129.89C34.5796 131.097 35.501 132.571 36.0525 134.195C36.604 135.82 36.7705 137.55 36.539 139.249C36.2419 141.434 36.6045 143.658 37.5803 145.635C38.5562 147.612 40.1006 149.252 42.0154 150.346C43.9302 151.439 46.1281 151.934 48.3267 151.769C50.5254 151.604 52.6245 150.786 54.3547 149.419C55.7008 148.357 57.2752 147.621 58.954 147.271C60.6328 146.921 62.3699 146.966 64.0284 147.402C65.6869 147.838 67.2215 148.653 68.5111 149.784C69.8008 150.914 70.8102 152.328 71.4598 153.915C72.3051 155.935 73.7308 157.659 75.5563 158.867C77.3818 160.076 79.5251 160.716 81.7145 160.706C83.904 160.696 86.0411 160.036 87.8553 158.81C89.6695 157.584 91.079 155.848 91.9054 153.82C92.5402 152.227 93.5364 150.803 94.8155 149.661C96.0946 148.519 97.6215 147.689 99.2759 147.238C100.93 146.786 102.667 146.725 104.349 147.06C106.031 147.394 107.612 148.115 108.968 149.165C110.712 150.514 112.82 151.311 115.02 151.455C117.22 151.598 119.414 151.082 121.318 149.971C123.223 148.86 124.753 147.206 125.712 145.22C126.67 143.234 127.014 141.008 126.699 138.825C126.45 137.128 126.598 135.397 127.133 133.768C127.668 132.138 128.575 130.655 129.781 129.437C130.988 128.218 132.461 127.296 134.085 126.745C135.709 126.193 137.439 126.027 139.138 126.259C141.324 126.558 143.549 126.198 145.528 125.223C147.507 124.248 149.149 122.704 150.244 120.788C151.338 118.873 151.835 116.674 151.67 114.474C151.505 112.274 150.686 110.174 149.318 108.443C148.256 107.097 147.521 105.523 147.171 103.844C146.821 102.165 146.865 100.428 147.301 98.7694C147.737 97.1109 148.553 95.5763 149.683 94.2867C150.813 92.9971 152.228 91.9876 153.815 91.338C155.868 90.5117 157.627 89.0883 158.862 87.2519C160.098 85.4154 160.754 83.2505 160.746 81.037C160.738 78.8235 160.067 76.6633 158.818 74.8359C157.569 73.0084 155.8 71.5978 153.741 70.7864ZM146.879 81.0728C146.94 94.0365 143.155 106.727 136.003 117.54C128.852 128.352 118.654 136.802 106.701 141.819C94.7469 146.836 81.5739 148.196 68.8474 145.726C56.1209 143.257 44.4125 137.069 35.2028 127.945C25.993 118.821 19.6956 107.172 17.1068 94.4688C14.518 81.766 15.7542 68.5809 20.6589 56.5807C25.5636 44.5805 33.9167 34.3041 44.6618 27.0512C55.4069 19.7983 68.0614 15.8945 81.0251 15.8335C98.408 15.7743 115.104 22.6135 127.45 34.8503C139.797 47.0871 146.784 63.7219 146.879 81.1046V81.0728Z" fill="url(#paint3_linear_86_243)"/>
<path d="M153.741 70.7864C152.147 70.1515 150.724 69.1553 149.581 67.8763C148.439 66.5972 147.61 65.0703 147.158 63.4159C146.707 61.7615 146.646 60.0248 146.98 58.3428C147.315 56.6608 148.035 55.0796 149.085 53.7236C150.435 51.9787 151.233 49.8702 151.377 47.6686C151.52 45.467 151.003 43.2728 149.89 41.3674C148.778 39.462 147.122 37.9324 145.134 36.9747C143.147 36.0171 140.918 35.6752 138.735 35.9928C137.039 36.2425 135.308 36.094 133.678 35.559C132.049 35.0241 130.567 34.1173 129.349 32.9105C128.131 31.7037 127.21 30.2301 126.66 28.6061C126.11 26.9821 125.945 25.2523 126.179 23.5537C126.476 21.3679 126.112 19.1435 125.136 17.1656C124.159 15.1877 122.614 13.5466 120.699 12.4527C118.783 11.3589 116.585 10.8621 114.385 11.0261C112.186 11.1901 110.085 12.0074 108.353 13.3733C107.008 14.4358 105.434 15.1711 103.756 15.5211C102.078 15.8712 100.342 15.8264 98.6839 15.3904C97.0261 14.9543 95.4924 14.139 94.2038 13.0086C92.9151 11.8782 91.9068 10.4638 91.2585 8.87696C90.4227 6.83514 88.9959 5.08962 87.1611 3.86433C85.3264 2.63904 83.1674 1.98986 80.9611 2.00012C78.7549 2.01038 76.602 2.67961 74.7787 3.9219C72.9554 5.1642 71.5449 6.9229 70.7281 8.9724C70.0957 10.5592 69.1044 11.9781 67.8319 13.1176C66.5593 14.2572 65.0401 15.0865 63.3934 15.5405C61.7466 15.9946 60.0171 16.061 58.3404 15.7347C56.6636 15.4084 55.0853 14.6981 53.729 13.6596C51.9841 12.3095 49.8756 11.5115 47.674 11.368C45.4724 11.2246 43.2781 11.7421 41.3727 12.8544C39.4673 13.9666 37.9377 15.6228 36.9801 17.6104C36.0225 19.598 35.6805 21.8264 35.9982 24.0097C36.2437 25.7062 36.0919 27.4366 35.5548 29.0645C35.0176 30.6924 34.1098 32.1733 32.9028 33.3906C31.6958 34.6079 30.2226 35.5283 28.5993 36.0792C26.9761 36.6301 25.247 36.7966 23.5484 36.5655C21.3619 36.2662 19.1358 36.6279 17.1565 37.6041C15.1772 38.5802 13.5351 40.1261 12.4415 42.0431C11.3479 43.96 10.8528 46.1602 11.0198 48.3608C11.1868 50.5615 12.0083 52.6618 13.3787 54.3917C14.4409 55.7376 15.1756 57.312 15.525 58.9905C15.8743 60.6691 15.8286 62.4059 15.3915 64.0638C14.9544 65.7217 14.1379 67.2553 13.0064 68.5434C11.8749 69.8316 10.4594 70.839 8.87173 71.4863C6.83032 72.3231 5.08551 73.7509 3.86116 75.5863C2.6368 77.4216 1.98875 79.581 2.00015 81.7872C2.01154 83.9935 2.68186 86.146 3.92511 87.9687C5.16836 89.7913 6.92783 91.2009 8.97777 92.0167C10.5706 92.6502 11.9944 93.6452 13.1367 94.9233C14.2791 96.2014 15.1087 97.7275 15.5602 99.3812C16.0117 101.035 16.0726 102.771 15.7382 104.452C15.4037 106.133 14.6831 107.714 13.6332 109.069C12.2785 110.812 11.4764 112.92 11.33 115.123C11.1835 117.325 11.6995 119.521 12.8115 121.428C13.9234 123.335 15.5805 124.865 17.5696 125.823C19.5586 126.78 21.7886 127.12 23.9726 126.8C25.67 126.552 27.4016 126.703 29.0309 127.239C30.6602 127.775 32.1425 128.683 33.3611 129.89C34.5796 131.097 35.501 132.571 36.0525 134.195C36.604 135.82 36.7705 137.55 36.539 139.249C36.2419 141.434 36.6045 143.658 37.5803 145.635C38.5562 147.612 40.1006 149.252 42.0154 150.346C43.9302 151.439 46.1281 151.934 48.3267 151.769C50.5254 151.604 52.6245 150.786 54.3547 149.419C55.7008 148.357 57.2752 147.621 58.954 147.271C60.6328 146.921 62.3699 146.966 64.0284 147.402C65.6869 147.838 67.2215 148.653 68.5111 149.784C69.8008 150.914 70.8102 152.328 71.4598 153.915C72.3051 155.935 73.7308 157.659 75.5563 158.867C77.3818 160.076 79.5251 160.716 81.7145 160.706C83.904 160.696 86.0411 160.036 87.8553 158.81C89.6695 157.584 91.079 155.848 91.9054 153.82C92.5402 152.227 93.5364 150.803 94.8155 149.661C96.0946 148.519 97.6215 147.689 99.2759 147.238C100.93 146.786 102.667 146.725 104.349 147.06C106.031 147.394 107.612 148.115 108.968 149.165C110.712 150.514 112.82 151.311 115.02 151.455C117.22 151.598 119.414 151.082 121.318 149.971C123.223 148.86 124.753 147.206 125.712 145.22C126.67 143.234 127.014 141.008 126.699 138.825C126.45 137.128 126.598 135.397 127.133 133.768C127.668 132.138 128.575 130.655 129.781 129.437C130.988 128.218 132.461 127.296 134.085 126.745C135.709 126.193 137.439 126.027 139.138 126.259C141.324 126.558 143.549 126.198 145.528 125.223C147.507 124.248 149.149 122.704 150.244 120.788C151.338 118.873 151.835 116.674 151.67 114.474C151.505 112.274 150.686 110.174 149.318 108.443C148.256 107.097 147.521 105.523 147.171 103.844C146.821 102.165 146.865 100.428 147.301 98.7694C147.737 97.1109 148.553 95.5763 149.683 94.2867C150.813 92.9971 152.228 91.9876 153.815 91.338C155.868 90.5117 157.627 89.0883 158.862 87.2519C160.098 85.4154 160.754 83.2505 160.746 81.037C160.738 78.8235 160.067 76.6633 158.818 74.8359C157.569 73.0084 155.8 71.5978 153.741 70.7864ZM146.879 81.0728C146.94 94.0365 143.155 106.727 136.003 117.54C128.852 128.352 118.654 136.802 106.701 141.819C94.7469 146.836 81.5739 148.196 68.8474 145.726C56.1209 143.257 44.4125 137.069 35.2028 127.945C25.993 118.821 19.6956 107.172 17.1068 94.4688C14.518 81.766 15.7542 68.5809 20.6589 56.5807C25.5636 44.5805 33.9167 34.3041 44.6618 27.0512C55.4069 19.7983 68.0614 15.8945 81.0251 15.8335C98.408 15.7743 115.104 22.6135 127.45 34.8503C139.797 47.0871 146.784 63.7219 146.879 81.1046V81.0728Z" stroke="white" stroke-width="3" mask="url(#path-8-outside-1_86_243)"/>
<path d="M39.2114 38.3786L41.0035 36.8515L46.73 41.8887L42.5942 35.526L44.3864 33.9883L51.2794 41.9841L50.0916 43.0446L44.906 36.8515L49.1478 43.6915L48.0874 44.6035L41.9579 39.3012L47.1754 45.3564L46.1149 46.3002L39.2114 38.3786Z" fill="url(#paint4_linear_86_243)"/>
<path d="M53.1564 37.6469L49.169 30.6585L50.6113 29.8314L54.6622 36.9258C55.0334 37.5833 55.4469 37.6575 55.9029 37.403C56.3589 37.1485 56.4968 36.7455 56.1256 36.088L52.0747 28.9936L53.4639 28.1982L57.4512 35.1973C58.289 36.6607 58.0345 37.912 56.624 38.718C55.2136 39.5239 53.9941 39.1103 53.1564 37.6469Z" fill="url(#paint5_linear_86_243)"/>
<path d="M61.0143 33.5429L60.8022 32.9702L62.2763 32.4294L62.5308 33.1187C62.7853 33.8292 63.1883 33.9671 63.6867 33.7868C64.1851 33.6065 64.4078 33.2354 64.1321 32.5036C63.8564 31.7719 63.3367 31.2629 62.0112 30.7433C60.2826 30.0752 59.5615 29.4177 59.1585 28.283C58.9948 27.9782 58.902 27.6403 58.8869 27.2945C58.8718 26.9488 58.9349 26.6042 59.0715 26.2862C59.208 25.9682 59.4145 25.6851 59.6756 25.458C59.9368 25.2309 60.2457 25.0656 60.5795 24.9744C62.096 24.423 63.1777 25.0486 63.7609 26.6393L63.9094 27.0529L62.4353 27.5831L62.2445 27.0741C61.99 26.3636 61.6082 26.2045 61.1098 26.3848C60.6114 26.5651 60.4311 26.9363 60.675 27.615C60.9189 28.2936 61.4597 28.7496 62.7959 29.2693C64.5138 29.9373 65.2137 30.5842 65.6591 31.8143C66.253 33.4368 65.7652 34.6352 64.2275 35.1972C62.6899 35.7592 61.587 35.123 61.0143 33.5429Z" fill="url(#paint6_linear_86_243)"/>
<path d="M67.8012 22.9917L69.4237 22.6523L71.6401 32.9706L70.0176 33.3099L67.8012 22.9917Z" fill="url(#paint7_linear_86_243)"/>
<path d="M75.1926 29.8952L74.7897 24.2323C74.746 23.9013 74.7705 23.5647 74.8616 23.2434C74.9528 22.9222 75.1087 22.6229 75.3197 22.3641C75.5308 22.1052 75.7925 21.8923 76.0888 21.7383C76.3852 21.5843 76.7099 21.4926 77.043 21.4687C77.3761 21.4448 77.7106 21.4892 78.0259 21.5993C78.3412 21.7094 78.6306 21.8829 78.8764 22.1089C79.1223 22.335 79.3193 22.6089 79.4554 22.9139C79.5914 23.2189 79.6637 23.5484 79.6678 23.8824L79.7526 24.9959L78.1831 25.1125L78.0983 23.893C78.0983 23.2037 77.6953 22.9386 77.1969 22.9704C76.6985 23.0022 76.3909 23.3204 76.444 24.0309L76.8575 29.9164C76.8575 30.6057 77.2605 30.8602 77.7589 30.8178C78.2574 30.7753 78.5649 30.489 78.5119 29.7573L78.4058 28.1454L79.9647 28.0394L80.0707 29.524C80.1144 29.8551 80.0899 30.1916 79.9987 30.5129C79.9076 30.8342 79.7517 31.1335 79.5407 31.3923C79.3296 31.6511 79.0679 31.8641 78.7715 32.0181C78.4752 32.172 78.1505 32.2638 77.8174 32.2877C77.4843 32.3116 77.1498 32.2671 76.8345 32.157C76.5192 32.0469 76.2298 31.8735 75.984 31.6474C75.7381 31.4214 75.5411 31.1474 75.405 30.8425C75.269 30.5375 75.1967 30.2079 75.1926 29.874V29.8952Z" fill="url(#paint8_linear_86_243)"/>
<path d="M91.0464 22.207L93.4431 22.6948C95.0762 23.013 95.6912 24.0734 95.3625 25.7383L95.161 26.7988C94.8217 28.4531 93.846 29.1954 92.2235 28.8667L91.4494 28.7182L90.601 32.96L88.9785 32.6419L91.0464 22.207ZM92.5099 27.3502C93.0295 27.4563 93.3582 27.276 93.5067 26.5337L93.7506 25.3035C93.8991 24.5612 93.6658 24.2431 93.1567 24.1689L92.3826 24.0098L91.7463 27.1912L92.5099 27.3502Z" fill="url(#paint9_linear_86_243)"/>
<path d="M100.962 24.6777L103.252 25.5685C103.588 25.6335 103.903 25.7787 104.17 25.9915C104.437 26.2044 104.649 26.4787 104.788 26.7911C104.926 27.1036 104.987 27.4448 104.965 27.7859C104.944 28.1269 104.84 28.4576 104.663 28.7499L104.429 29.3543C104.037 30.4148 103.464 30.892 102.669 30.9026C103.348 31.4435 103.316 32.2706 102.881 33.3841L102.213 35.1126C102.028 35.5084 101.927 35.938 101.916 36.3746L100.389 35.7913C100.41 35.3525 100.522 34.9228 100.718 34.5294L101.418 32.7266C101.768 31.8146 101.619 31.4116 100.909 31.1465L100.378 30.9344L98.7453 35.1763L97.1971 34.5718L100.962 24.6777ZM101.428 29.7149C102.012 29.9376 102.489 29.821 102.764 29.0362L103.061 28.2727C103.327 27.5728 103.21 27.2122 102.669 26.9577L101.959 26.682L100.898 29.4922L101.428 29.7149Z" fill="url(#paint10_linear_86_243)"/>
<path d="M106.296 35.7913L109.159 31.0405C109.318 30.7344 109.538 30.4641 109.805 30.2463C110.073 30.0285 110.382 29.8678 110.714 29.7741C111.045 29.6804 111.393 29.6558 111.735 29.7016C112.077 29.7475 112.405 29.8629 112.701 30.0407C112.996 30.2186 113.252 30.4551 113.453 30.7357C113.653 31.0163 113.794 31.335 113.867 31.6721C113.939 32.0092 113.942 32.3577 113.874 32.6959C113.807 33.0341 113.671 33.3549 113.475 33.6386L110.612 38.3894C110.453 38.6955 110.233 38.9658 109.966 39.1836C109.698 39.4014 109.389 39.5621 109.057 39.6558C108.725 39.7495 108.378 39.7741 108.036 39.7283C107.694 39.6824 107.365 39.567 107.07 39.3891C106.775 39.2113 106.519 38.9748 106.318 38.6942C106.118 38.4136 105.977 38.0949 105.904 37.7578C105.832 37.4206 105.829 37.0722 105.896 36.734C105.964 36.3958 106.1 36.0749 106.296 35.7913ZM109.127 37.6259L112.107 32.6948C112.499 32.0479 112.362 31.6343 111.916 31.3586C111.471 31.0829 111.025 31.1571 110.644 31.804L107.664 36.7351C107.271 37.382 107.409 37.7956 107.855 38.0713C108.3 38.347 108.745 38.241 109.127 37.5941V37.6259Z" fill="url(#paint11_linear_86_243)"/>
<path d="M119.223 34.731L121.132 36.3959C122.383 37.4563 122.393 38.7077 121.28 39.9802L117.781 44.0099C117.596 44.3036 117.347 44.5511 117.052 44.7335C116.757 44.9159 116.425 45.0283 116.08 45.0621C115.734 45.0959 115.386 45.0501 115.062 44.9284C114.737 44.8067 114.445 44.6122 114.207 44.3599L112.298 42.695L119.223 34.731ZM115.172 43.2146C115.575 43.5539 115.988 43.5646 116.487 42.9919L120.082 38.8561C120.58 38.2835 120.517 37.8699 120.082 37.52L119.445 36.9685L114.504 42.6632L115.172 43.2146Z" fill="url(#paint12_linear_86_243)"/>
<path d="M46.783 119.058L48.6494 120.511L44.8636 127.128L50.3249 121.826L52.2019 123.268L45.7332 131.624L44.4924 130.659L49.3917 124.297L43.5486 129.885L42.4882 129.026L46.4331 121.974L41.5338 128.337L40.3885 127.446L46.783 119.058Z" fill="url(#paint13_linear_86_243)"/>
<path d="M51.4702 132.218L55.1924 125.071L56.6664 125.834L52.8912 133.088C52.5413 133.756 52.7003 134.148 53.1669 134.392C53.6335 134.636 54.0365 134.541 54.3865 133.873L58.1617 126.619L59.5827 127.351L55.8499 134.498C55.7168 134.814 55.5198 135.099 55.2713 135.335C55.0228 135.57 54.7281 135.752 54.4059 135.868C54.0836 135.985 53.7408 136.033 53.3989 136.011C53.0571 135.988 52.7236 135.895 52.4196 135.737C52.1155 135.579 51.8475 135.36 51.6323 135.093C51.4171 134.826 51.2594 134.518 51.1693 134.188C51.0791 133.857 51.0583 133.512 51.1083 133.173C51.1583 132.834 51.2779 132.509 51.4596 132.218H51.4702Z" fill="url(#paint14_linear_86_243)"/>
<path d="M60.0917 136.259L60.2826 135.686L61.7673 136.184L61.534 136.874C61.3007 137.584 61.534 137.934 62.0324 138.114C62.5308 138.295 62.9338 138.114 63.1777 137.383C63.4216 136.651 63.3155 135.919 62.5838 134.679C61.6612 133.077 61.5234 132.123 61.8839 130.978C61.9449 130.636 62.0824 130.312 62.2863 130.031C62.4902 129.749 62.7551 129.518 63.0612 129.354C63.3673 129.189 63.7066 129.097 64.0537 129.082C64.4008 129.068 64.7466 129.132 65.0653 129.27C66.5923 129.779 67.0483 130.946 66.5181 132.547L66.3802 132.961L64.885 132.473L65.0547 131.953C65.2986 131.243 65.0547 130.893 64.5987 130.702C64.1427 130.511 63.7291 130.702 63.5382 131.402C63.3473 132.102 63.4534 132.77 64.1745 134.01C65.1077 135.612 65.2349 136.545 64.8426 137.796C64.7815 138.139 64.6445 138.464 64.4416 138.747C64.2387 139.03 63.9751 139.264 63.67 139.431C63.365 139.599 63.0262 139.697 62.6786 139.716C62.331 139.736 61.9834 139.678 61.6612 139.546C59.9751 139.037 59.5085 137.86 60.0917 136.259Z" fill="url(#paint15_linear_86_243)"/>
<path d="M70.6327 130.946L72.2658 131.253L70.2721 141.625L68.639 141.306L70.6327 130.946Z" fill="url(#paint16_linear_86_243)"/>
<path d="M75.3623 139.907L75.691 134.244C75.6864 133.907 75.7512 133.573 75.8814 133.263C76.0116 132.953 76.2043 132.672 76.4476 132.44C76.6909 132.207 76.9796 132.027 77.2955 131.911C77.6115 131.795 77.948 131.745 78.284 131.765C78.62 131.785 78.9484 131.873 79.2486 132.026C79.5488 132.178 79.8144 132.39 80.0288 132.65C80.2432 132.909 80.4019 133.21 80.4948 133.534C80.5878 133.857 80.6131 134.197 80.5691 134.53L80.5055 135.591L78.936 135.506L79.0102 134.286C79.0102 133.586 78.7345 133.279 78.2361 133.226C77.7377 133.173 77.3984 133.459 77.3559 134.149L77.006 140.034C77.006 140.723 77.2817 141.02 77.7801 141.094C78.2785 141.169 78.6179 140.872 78.6603 140.172L78.7557 138.571L80.3252 138.655L80.2298 140.151C80.2204 140.477 80.1456 140.798 80.0098 141.095C79.874 141.392 79.68 141.658 79.4393 141.879C79.1986 142.099 78.916 142.269 78.6084 142.379C78.3008 142.488 77.9744 142.535 77.6485 142.515C77.3226 142.496 77.0039 142.412 76.7112 142.267C76.4186 142.123 76.1579 141.921 75.9447 141.673C75.7315 141.426 75.5701 141.139 75.47 140.828C75.37 140.517 75.3334 140.19 75.3623 139.864V139.907Z" fill="url(#paint17_linear_86_243)"/>
<path d="M89.1058 131.508L91.5024 131.041C91.8374 130.937 92.192 130.913 92.5381 130.97C92.8842 131.027 93.2122 131.164 93.4962 131.37C93.7802 131.575 94.0124 131.845 94.1743 132.156C94.3363 132.467 94.4236 132.811 94.4293 133.162L94.6308 134.222C94.9595 135.887 94.3338 136.948 92.7007 137.255L91.9266 137.404L92.7538 141.646L91.1207 141.964L89.1058 131.508ZM92.4144 135.75C92.934 135.643 93.1673 135.357 93.0189 134.615L92.7856 133.385C92.6371 132.642 92.3084 132.462 91.7993 132.568L91.0252 132.717L91.6403 135.898L92.4144 135.75Z" fill="url(#paint18_linear_86_243)"/>
<path d="M97.0698 129.684L99.3816 128.836C99.6746 128.659 100.006 128.555 100.348 128.534C100.69 128.513 101.031 128.575 101.344 128.714C101.657 128.854 101.931 129.067 102.143 129.336C102.355 129.604 102.499 129.92 102.563 130.257L102.786 130.872C102.994 131.239 103.078 131.664 103.024 132.082C102.971 132.501 102.783 132.891 102.489 133.194C103.358 133.194 103.878 133.788 104.292 134.902L104.938 136.641C105.059 137.06 105.265 137.45 105.543 137.786L103.963 138.369C103.686 138.026 103.484 137.629 103.369 137.203L102.711 135.389C102.372 134.467 101.99 134.276 101.28 134.53L100.75 134.732L102.308 138.974L100.75 139.546L97.0698 129.684ZM100.76 133.141C101.343 132.929 101.598 132.547 101.301 131.752L101.025 130.988C100.76 130.278 100.41 130.055 99.8588 130.257L99.1483 130.522L100.209 133.353L100.76 133.141Z" fill="url(#paint19_linear_86_243)"/>
<path d="M108.735 133.544L105.999 128.719C105.811 128.43 105.685 128.107 105.627 127.767C105.57 127.428 105.582 127.081 105.663 126.747C105.744 126.413 105.893 126.099 106.1 125.824C106.307 125.55 106.568 125.32 106.867 125.15C107.166 124.98 107.497 124.873 107.838 124.835C108.18 124.797 108.526 124.83 108.855 124.931C109.184 125.031 109.489 125.198 109.751 125.421C110.013 125.644 110.226 125.918 110.379 126.227L113.125 131.062C113.305 131.351 113.425 131.674 113.478 132.01C113.53 132.347 113.514 132.691 113.43 133.021C113.345 133.351 113.195 133.661 112.989 133.931C112.782 134.202 112.522 134.428 112.226 134.595C111.929 134.763 111.602 134.869 111.263 134.906C110.925 134.944 110.582 134.913 110.256 134.815C109.93 134.716 109.627 134.553 109.365 134.335C109.104 134.116 108.889 133.847 108.735 133.544ZM111.736 131.974L108.873 126.99C108.502 126.333 108.077 126.248 107.611 126.513C107.144 126.778 107.006 127.181 107.377 127.838L110.219 132.854C110.601 133.512 111.025 133.597 111.481 133.332C111.937 133.066 112.107 132.632 111.736 131.974Z" fill="url(#paint20_linear_86_243)"/>
<path d="M112.054 122.091L114.026 120.5C114.274 120.256 114.574 120.072 114.904 119.962C115.233 119.853 115.584 119.82 115.928 119.867C116.272 119.914 116.601 120.04 116.889 120.234C117.177 120.428 117.417 120.686 117.59 120.988L120.941 125.145C122.001 126.46 121.938 127.69 120.644 128.729L118.671 130.32L112.054 122.091ZM119.679 127.573C120.092 127.245 120.167 126.831 119.679 126.248L116.243 122.006C115.766 121.423 115.352 121.412 114.938 121.741L114.281 122.271L119.011 128.146L119.679 127.573Z" fill="url(#paint21_linear_86_243)"/>
<path d="M136.423 69.1743L129.827 88.008L136.328 83.7344L131.238 103.925L143.062 77.9019L135.426 81.2423L136.423 69.1743Z" fill="#00E0B8"/>
<path d="M26.242 69.1743L32.838 88.008L26.3374 83.7344L31.417 103.925L19.6035 77.9019L27.2282 81.2423L26.242 69.1743Z" fill="#00E0B8"/>
<path d="M179.84 101.656L177.104 102.352V98.92H179.816V96.232H177.104V91.696H174.2V96.232H171.104V98.92H174.2V103.048C172.976 103.36 171.8 103.624 170.84 103.816L171.632 106.648L174.2 106V110.752C174.2 111.112 174.08 111.232 173.744 111.232C173.432 111.232 172.424 111.232 171.464 111.184C171.824 111.952 172.232 113.128 172.304 113.872C174.032 113.872 175.184 113.8 176 113.344C176.816 112.912 177.104 112.192 177.104 110.776V105.208C178.136 104.944 179.168 104.656 180.2 104.368L179.84 101.656ZM193.184 93.496H180.2V96.352H186.272V110.296C186.272 110.752 186.08 110.896 185.6 110.896C185.12 110.896 183.32 110.92 181.832 110.824C182.288 111.64 182.84 113.056 182.96 113.944C185.192 113.944 186.8 113.896 187.88 113.368C188.984 112.864 189.368 112.024 189.368 110.344V96.352H193.184V93.496ZM207.848 96.808V98.824H203.288C203.816 98.248 204.344 97.576 204.824 96.808H207.848ZM201.464 98.824V101.224H216.896V98.824H210.68V96.808H215.912V94.384H210.68V91.696H207.848V94.384H206.168C206.432 93.784 206.696 93.16 206.888 92.536L204.248 91.912C203.552 94.024 202.328 96.136 200.84 97.48C201.488 97.792 202.616 98.368 203.192 98.824H201.464ZM205.976 106.912V104.704H212.456V106.912H205.976ZM215.288 109.96V102.448H203.24V110.032H205.976V109.312H212.456V109.96H215.288ZM200.288 95.776C199.928 94.744 199.352 93.16 198.896 91.888L196.28 92.656C196.712 93.928 197.288 95.608 197.6 96.664L200.288 95.776ZM200.912 102.28L200.504 102.4H199.136C199.712 100.768 200.336 98.896 200.84 97.264H194.936V99.808H197.48C196.904 101.608 196.256 103.504 195.704 104.848H198.92C198.536 106.264 198.032 107.728 197.456 108.88C196.568 109.288 195.488 110.2 194.504 111.448L196.4 114.184C196.952 112.816 197.744 111.184 198.296 111.184C198.776 111.184 199.64 111.976 200.624 112.528C202.352 113.536 204.368 113.8 207.536 113.8C210.344 113.8 214.544 113.632 216.56 113.512C216.608 112.744 217.04 111.352 217.376 110.584C214.712 110.968 210.416 111.208 207.656 111.208C204.848 111.208 202.616 111.064 200.984 110.08C200.528 109.816 200.168 109.552 199.856 109.336C200.816 107.488 201.608 105.136 202.112 102.808L200.912 102.28ZM241.112 98.656C240.344 97.144 238.616 95.056 237.104 93.544L235.088 94.744C235.568 95.248 236.048 95.824 236.504 96.424L231.344 96.808C232.448 95.512 233.576 93.976 234.416 92.44L231.44 91.768C230.672 93.712 229.28 95.656 228.824 96.184C228.392 96.736 227.96 97.072 227.528 97.192C227.864 97.84 228.32 99.088 228.488 99.592C229.232 99.304 230.36 99.184 238.064 98.536C238.424 99.088 238.712 99.592 238.904 100.024L241.112 98.656ZM221.792 103.696C221.888 102.808 221.984 101.872 222.08 100.936H227.024V92.92H219.32V95.512H224.384V98.344H219.776C219.584 100.912 219.224 104.176 218.816 106.24H224.384C224.168 109.408 223.904 110.752 223.52 111.16C223.28 111.4 223.088 111.448 222.704 111.448C222.272 111.448 221.288 111.448 220.328 111.352C220.76 112.048 221.072 113.152 221.12 113.944C222.296 113.992 223.376 113.992 224.048 113.896C224.816 113.8 225.392 113.584 225.896 112.936C226.592 112.168 226.928 109.984 227.216 104.8C227.264 104.44 227.288 103.696 227.288 103.696H221.792ZM235.352 110.392V107.824H238.616L236.432 108.736C236.696 109.192 237.008 109.744 237.296 110.272L235.352 110.392ZM230.576 105.544V103.312H232.664V105.544H230.576ZM237.488 103.312V105.544H235.352V103.312H237.488ZM241.496 113.128C241.088 111.664 239.888 109.504 238.808 107.824H240.056V101.008H235.352V99.088H232.664V101.008H228.104V107.824H232.664V110.536C230.624 110.656 228.752 110.752 227.24 110.8L227.576 113.584C230.528 113.392 234.56 113.08 238.472 112.768C238.688 113.32 238.832 113.8 238.952 114.208L241.496 113.128ZM264.656 101.056V98.104H255.224C255.464 95.872 255.488 93.664 255.512 91.696H252.392C252.368 93.664 252.392 95.848 252.152 98.104H243.416V101.056H251.672C250.736 105.184 248.456 109.168 242.96 111.616C243.8 112.216 244.64 113.248 245.096 114.04C250.184 111.592 252.776 107.848 254.072 103.84C255.944 108.472 258.728 111.976 263.072 114.016C263.528 113.2 264.464 111.928 265.184 111.328C260.696 109.504 257.792 105.736 256.208 101.056H264.656ZM272.048 91.768C270.848 95.176 268.76 98.584 266.576 100.744C267.08 101.464 267.896 103.096 268.16 103.792C268.64 103.264 269.144 102.664 269.648 102.064V114.064H272.528V97.624C273.416 96.016 274.208 94.312 274.832 92.632L272.048 91.768ZM289.256 98.296V95.584H279.944C280.4 94.6 280.784 93.616 281.12 92.608L278.36 91.912C277.28 95.344 275.384 98.8 273.272 100.96C273.872 101.416 275 102.424 275.456 102.952C276.536 101.704 277.64 100.072 278.6 98.296H279.512V114.088H282.44V108.76H288.968V106.12H282.44V103.408H288.656V100.816H282.44V98.296H289.256ZM306.2 98.584H297.8V95.344H306.2V98.584ZM309.104 92.608H295.04V101.296H309.104V92.608ZM298.016 106.024V110.152H294.44V106.024H298.016ZM291.728 114.088H294.44V112.888H298.016V113.968H300.872V103.288H291.728V114.088ZM305.648 110.152V106.024H309.464V110.152H305.648ZM302.912 103.288V114.088H305.648V112.888H309.464V113.992H312.344V103.288H302.912ZM325.544 97.192H320.696V96.184H325.544V97.192ZM325.544 100H320.696V99.04H325.544V100ZM325.544 102.904H320.696V101.848H325.544V102.904ZM317.864 105.712H320.696V105.064H336.176V102.904H328.28V101.848H334.544V100H328.28V99.04H334.52V97.192H328.28V96.184H335.6V94H328.784C328.496 93.208 328.064 92.272 327.632 91.528L324.944 92.272C325.208 92.8 325.472 93.4 325.688 94H321.992C322.4 93.4 322.784 92.8 323.144 92.2L320.24 91.648C319.16 93.712 317.216 96.184 314.552 98.08C315.2 98.44 316.112 99.352 316.568 99.952C317 99.592 317.432 99.232 317.864 98.848V105.712ZM321.608 109.24C320.12 110.128 317.264 110.92 314.816 111.256C315.392 111.784 316.184 112.792 316.592 113.44C319.112 112.864 322.04 111.592 323.744 110.224L321.608 109.24ZM336.776 108.784V106.504H327.368V105.28H324.536V106.504H315.224V108.784H324.536V114.04H327.368V108.784H336.776ZM328.232 110.68C330.44 111.496 333.536 112.744 335.072 113.488L336.824 111.616C335.168 110.848 332 109.72 329.888 109.024L328.232 110.68ZM347.984 108.136C350.96 107.272 352.712 105.04 352.712 102.328C352.712 100.312 351.824 99.04 350.12 99.04C348.848 99.04 347.768 99.856 347.768 101.2C347.768 102.568 348.848 103.336 350.048 103.336C350.144 103.336 350.24 103.336 350.312 103.312C350.168 104.584 349.088 105.616 347.216 106.216L347.984 108.136ZM379.424 95.704H368.432V94.48H379.424V95.704ZM379.424 98.824H368.432V97.576H379.424V98.824ZM382.328 92.488H365.648V100.816H382.328V92.488ZM375.704 108.664H383.096V106.192H375.704V104.392H384.608V101.872H363.44V104.392H372.8V110.488C371.264 110.008 370.088 109.12 369.344 107.488C369.536 106.792 369.728 106.072 369.896 105.304L367.04 104.872C366.488 108.088 365.024 110.632 362.576 112.144C363.224 112.552 364.328 113.608 364.736 114.136C366.128 113.176 367.232 111.904 368.096 110.32C370.112 113.104 373.088 113.728 377.48 113.728H384.32C384.464 112.888 384.896 111.64 385.28 110.992C383.576 111.064 378.968 111.064 377.624 111.064C376.976 111.064 376.328 111.04 375.704 110.992V108.664ZM390.464 91.672C389.672 93.16 387.992 95.056 386.504 96.232C386.96 96.736 387.608 97.816 387.92 98.416C389.744 96.952 391.736 94.696 393.032 92.608L390.464 91.672ZM393.152 98.728H401.312V93.16H399.296V96.568H398.192V91.696H396.128V96.568H395.048V93.16H393.152V97.504L390.848 96.688C389.768 99.04 388.016 101.488 386.336 103.096C386.792 103.672 387.584 105.088 387.848 105.688C388.304 105.208 388.784 104.68 389.24 104.104V114.088H391.832V100.36C392.312 99.568 392.768 98.728 393.152 97.936V98.728ZM406.016 98.8C405.8 100.984 405.464 102.952 404.96 104.704C404.48 103.072 404.12 101.296 403.88 99.424C403.952 99.232 404.024 99.016 404.072 98.8H406.016ZM409.184 98.8V96.4H404.72C405.032 95.008 405.296 93.568 405.488 92.104L402.896 91.696C402.56 94.672 401.984 97.6 401 99.832H392.888V102.136H400.544C401 102.712 401.552 103.432 401.768 103.84C401.984 103.552 402.176 103.24 402.368 102.904C402.704 104.704 403.112 106.408 403.664 107.92C403.016 109.096 402.248 110.128 401.288 110.992L401.216 109.744L398.384 110.056V108.568H401.72V106.504H398.384V104.992C399.416 104.848 400.4 104.656 401.264 104.416L399.872 102.592C398.144 103.096 395.288 103.48 392.864 103.672C393.104 104.176 393.392 104.968 393.464 105.496C394.256 105.448 395.12 105.376 396.008 105.304V106.504H392.696V108.568H396.008V110.296C394.832 110.416 393.752 110.536 392.864 110.608L393.44 112.84C395.336 112.576 397.76 112.24 400.16 111.88C399.92 112.072 399.656 112.216 399.392 112.384C399.92 112.816 400.88 113.776 401.216 114.256C402.68 113.248 403.88 112.024 404.864 110.608C405.632 111.976 406.616 113.128 407.816 113.992C408.2 113.272 409.04 112.24 409.616 111.736C408.224 110.896 407.12 109.6 406.28 108.016C407.408 105.472 408.056 102.424 408.464 98.8H409.184ZM423.584 103.72H426.272V105.184H423.584V103.72ZM432.824 105.184H428.936V103.72H431.888V101.632H428.936V100.36H426.272V101.632H423.584V100.36H420.992V101.632H418.088V103.72H420.992V105.184H417.248V107.272H421.52C420.488 107.992 418.952 108.64 417.464 109.096C418.088 109.48 419.096 110.344 419.6 110.824C421.184 110.152 423.128 109.024 424.328 107.92L422.48 107.272H427.184L425.768 108.208C427.232 108.928 428.768 109.984 429.632 110.704L432.176 109.528C431.24 108.856 429.704 107.992 428.264 107.272H432.824V105.184ZM429.896 94.24V95.32H427.688V94.24H429.896ZM430.832 100.024C431.48 100.024 432.2 99.976 432.584 99.856C432.512 99.328 432.44 98.536 432.392 97.936C432.008 98.056 431.216 98.08 430.76 98.08H428.288C427.784 98.08 427.688 97.84 427.688 97.192V97.048H432.296V92.488H425.456V97.144C425.456 99.208 425.96 100.024 428.144 100.024H430.832ZM422.264 94.216V95.296H420.08V94.216H422.264ZM420.08 98.176V97.024H424.64V92.464H417.872V97.048C417.872 98.008 417.464 98.416 417.08 98.608C417.44 99.112 417.896 100.144 418.016 100.72C418.472 100.48 419.264 100.312 424.04 99.568C424.088 99.064 424.28 98.152 424.496 97.576L420.08 98.176ZM416.288 95.776C415.928 94.696 415.304 93.04 414.848 91.744L412.256 92.44C412.688 93.76 413.312 95.512 413.624 96.616L416.288 95.776ZM415.592 102.472L415.184 102.544H414.92C415.472 100.864 416.048 98.944 416.528 97.264H410.984V99.808H413.072C412.52 101.68 411.92 103.6 411.392 105.016H414.296C413.888 106.72 413.192 108.448 412.256 109.72C411.704 110.176 411.104 110.776 410.528 111.472L412.424 114.184C413.024 112.816 413.888 111.184 414.416 111.184C414.92 111.184 415.784 111.976 416.768 112.528C418.52 113.536 420.536 113.8 423.704 113.8C426.512 113.8 430.76 113.632 432.728 113.512C432.776 112.744 433.232 111.352 433.544 110.584C430.88 110.968 426.608 111.208 423.848 111.208C421.064 111.208 418.808 111.064 417.152 110.08C416.432 109.648 415.928 109.264 415.496 109C416.336 107.272 416.888 105.208 417.224 103.144L415.592 102.472ZM442.856 98.584C443.36 99.136 443.912 99.784 444.2 100.168C444.392 100 444.608 99.808 444.8 99.64V105.856H446.336C446.168 108.616 445.616 110.512 442.808 111.688C442.856 111.448 442.856 111.184 442.856 110.896V98.584ZM447.368 100.84H452.672V103.504H447.368V100.84ZM438.44 99.688C438.896 100.24 439.328 100.768 439.544 101.152L440.336 100.504V102.808C439.616 103.336 438.968 103.84 438.392 104.248C438.416 103.144 438.44 102.136 438.44 101.2V99.688ZM440.336 95.08V98.656C439.928 98.224 439.496 97.792 439.112 97.408L438.44 97.888V95.08H440.336ZM453.584 111.256C453.224 111.256 453.176 111.184 453.176 110.488V105.856H455.408V99.736L457.4 98.488C456.512 96.64 454.4 93.856 452.648 91.84L450.584 93.112C451.88 94.696 453.368 96.76 454.328 98.44H445.952C447.344 96.808 448.544 94.816 449.36 92.728L446.72 92.032C445.928 94.144 444.512 96.184 442.856 97.576V92.512H436.016V101.2C436.016 104.68 435.92 109.504 434.624 112.792C435.224 113.008 436.352 113.632 436.832 114.04C437.72 111.76 438.128 108.64 438.32 105.736L438.968 106.936C439.4 106.504 439.88 106.024 440.336 105.544V110.848C440.336 111.136 440.264 111.232 440 111.232C439.736 111.232 439.016 111.232 438.272 111.208C438.584 111.904 438.896 113.128 438.968 113.824C440.36 113.824 441.296 113.752 441.968 113.296C442.424 113.008 442.664 112.552 442.784 111.952C443.36 112.528 444.008 113.464 444.296 114.088C448.088 112.48 448.928 109.744 449.192 105.856H450.44V110.512C450.44 112.984 450.896 113.824 453.104 113.824H454.784C456.512 113.824 457.208 112.912 457.448 109.384C456.704 109.168 455.528 108.712 455.024 108.304C454.952 110.92 454.856 111.256 454.472 111.256H453.584ZM466.616 99.448C467.408 99.448 468.32 99.4 468.752 99.256C468.68 98.68 468.584 97.624 468.536 96.976C468.032 97.096 467.168 97.144 466.568 97.144H463.112C462.488 97.144 462.368 96.904 462.368 96.184V95.752H468.56V93.472H462.368V91.84H459.92V96.16C459.92 98.632 460.616 99.448 463.208 99.448H466.616ZM469.328 109.456C468.92 109.024 467.192 107.656 466.16 106.864H469.352V104.512H465.632V102.856C466.88 102.712 468.08 102.52 469.136 102.28L467.912 100C465.704 100.552 462.368 100.936 459.44 101.08C459.704 101.704 460.016 102.592 460.088 103.24C461.048 103.216 462.056 103.168 463.112 103.096V104.512H459.176V106.864H462.2C461.192 108.136 459.896 109.384 458.672 110.128C459.032 110.8 459.536 111.904 459.752 112.672C460.976 111.832 462.128 110.512 463.112 109.12V114.064H465.632V108.928C466.448 109.888 467.312 110.968 467.744 111.664L469.328 109.456ZM472.328 109.288C471.416 110.344 469.52 111.616 467.864 112.312C468.488 112.816 469.256 113.608 469.712 114.136C471.44 113.392 473.456 112.024 474.656 110.776L472.328 109.288ZM477.704 100.168H472.76V98.704H477.704V100.168ZM477.704 103.672H472.76V102.136H477.704V103.672ZM477.704 107.176H472.76V105.64H477.704V107.176ZM480.392 96.568H476.096C476.288 96.088 476.48 95.584 476.648 95.056H480.896V92.608H469.472V95.056H473.648C473.552 95.56 473.456 96.064 473.336 96.568H470.192V109.288H480.392V96.568ZM475.64 110.824C476.96 111.808 478.712 113.2 479.48 114.112L481.664 112.576C480.752 111.664 479 110.344 477.656 109.456L475.64 110.824ZM504.92 95.464V92.56H483.152V95.464H491.864C491.696 96.304 491.504 97.168 491.264 97.984H484.28V114.088H487.232V100.648H489.8V113.344H492.632V100.648H495.272V113.344H498.128V100.648H500.96V111.04C500.96 111.376 500.864 111.472 500.528 111.472C500.192 111.472 499.136 111.496 498.176 111.448C498.536 112.144 498.968 113.272 499.088 114.04C500.696 114.04 501.896 113.968 502.76 113.56C503.624 113.104 503.864 112.408 503.864 111.064V97.984H494.384C494.672 97.192 494.96 96.352 495.248 95.464H504.92ZM524.576 103.648V109.936H519.512V102.4H526.808V93.688H523.64V99.64H519.512V91.672H516.344V99.64H512.384V93.688H509.36V102.4H516.344V109.936H511.304V103.672H508.088V112.768H524.576V114.064H527.792V103.648H524.576ZM534.416 109.096V104.392H538.232V109.096H534.416ZM538.232 101.92H534.416V98.032H538.232V101.92ZM545.84 95.368C546.2 94.36 546.536 93.352 546.776 92.32L544.064 91.696C543.368 94.504 542.216 97.408 540.824 99.424V95.536H537.104C537.512 94.504 537.944 93.304 538.352 92.104L535.232 91.672C535.136 92.8 534.848 94.336 534.536 95.536H531.824V113.368H534.416V111.616H540.824V100.408C541.472 100.84 542.288 101.392 542.672 101.752C543.416 100.72 544.16 99.4 544.784 97.96H549.92C549.656 106.432 549.344 110.032 548.648 110.8C548.336 111.112 548.072 111.208 547.592 111.208C546.968 111.208 545.552 111.208 544.016 111.064C544.52 111.856 544.904 113.056 544.952 113.848C546.368 113.896 547.808 113.92 548.72 113.8C549.68 113.632 550.352 113.368 551.024 112.48C552.008 111.208 552.272 107.392 552.584 96.664C552.608 96.328 552.608 95.368 552.608 95.368H545.84ZM548.624 106.312C547.88 104.92 546.296 102.64 545.096 100.984L542.864 102.256C544.04 104.008 545.528 106.36 546.2 107.8L548.624 106.312ZM569.936 94.984H572.264V97.336C572.264 99.448 572.696 100.36 574.952 100.36H576.08C576.512 100.36 577.04 100.312 577.4 100.192C577.304 99.592 577.232 98.728 577.184 98.08C576.872 98.176 576.344 98.224 576.056 98.224H575.24C574.976 98.224 574.952 97.984 574.952 97.36V92.512H567.344V95.224C567.344 96.592 567.152 98.176 565.424 99.376C565.952 99.688 567.032 100.6 567.392 101.08C569.504 99.568 569.936 97.192 569.936 95.296V94.984ZM565.736 97.432C565.064 96.784 564.104 96.088 563.024 95.392C563.696 94.48 564.32 93.544 564.848 92.536L562.184 91.72C561.776 92.536 561.296 93.328 560.72 94.024C559.472 93.376 558.176 92.752 557 92.248L555.416 94.096C556.592 94.6 557.816 95.248 559.016 95.944C557.696 97.168 556.208 98.224 554.624 98.992C555.2 99.448 556.232 100.48 556.688 101.032C558.296 100.072 559.88 98.848 561.296 97.384C562.424 98.152 563.36 98.92 564.032 99.568L565.736 97.432ZM556.16 107.872C556.16 109.144 555.92 110.632 554.432 111.784C554.864 112.024 555.656 112.744 555.968 113.104C557.696 111.736 558.08 109.6 558.08 107.944V105.544H556.16V107.872ZM565.472 104.872V102.304H564.32L565.448 101.392C565.088 100.816 564.272 99.928 563.648 99.304L561.944 100.624C562.4 101.128 562.952 101.752 563.312 102.304H561.464V99.952H558.92V102.304H555.08V104.872H558.92V113.704H561.464V104.872H565.472ZM574.616 101.272L574.136 101.368H566.144V103.912H573.032C572.528 105.208 571.88 106.384 571.064 107.392C570.176 106.456 569.432 105.376 568.88 104.224L566.576 104.896C567.272 106.504 568.208 107.968 569.288 109.24C568.304 110.08 567.176 110.776 565.952 111.256L565.832 109.768C565.592 109.864 565.232 109.888 564.992 109.888H564.608C564.392 109.888 564.368 109.72 564.368 109.168V105.64H562.28V109.12C562.28 111.064 562.616 111.784 564.44 111.784H565.016H565.064C565.592 112.36 566.216 113.296 566.504 113.92C568.28 113.224 569.864 112.336 571.232 111.136C572.552 112.216 574.016 113.056 575.696 113.68C576.152 112.96 576.992 111.904 577.64 111.352C575.984 110.848 574.448 110.128 573.152 109.192C574.664 107.248 575.792 104.848 576.392 101.8L574.616 101.272ZM600.992 103.96H591.512V101.152H599.576V98.416H591.512V95.272C594.152 94.96 596.672 94.552 598.808 94L596.744 91.624C592.808 92.656 586.232 93.304 580.448 93.544C580.736 94.168 581.096 95.32 581.168 96.064C583.52 95.968 586.04 95.824 588.536 95.608V98.416H580.688V101.152H588.536V103.96H579.056V106.744H588.536V110.608C588.536 111.088 588.32 111.256 587.768 111.28C587.24 111.28 585.224 111.28 583.448 111.208C583.904 111.976 584.456 113.224 584.624 114.04C587.072 114.064 588.8 113.992 589.952 113.56C591.08 113.104 591.512 112.36 591.512 110.656V106.744H600.992V103.96ZM605.384 97.696C605.912 96.976 606.416 96.232 606.872 95.416C607.808 96.112 608.744 96.928 609.488 97.696H605.384ZM609.608 99.88V97.84C609.776 98.032 609.944 98.224 610.088 98.392L611.096 96.04C610.376 95.248 609.2 94.216 607.952 93.376C608.072 93.088 608.216 92.776 608.336 92.488L606.56 91.528C605.624 93.712 604.016 95.8 602.456 97.096C602.744 97.792 603.2 99.4 603.344 100.024C603.68 99.712 603.992 99.376 604.328 98.992V99.88H605.768V101.824H603.152V104.104H605.768V110.272C604.664 110.488 603.68 110.68 602.864 110.824L603.32 113.272C605.312 112.768 607.976 112.12 610.472 111.472L610.328 109.312L608 109.816V104.104H610.328V101.824H608V99.88H609.608ZM609.464 109.24C609.752 108.208 610.088 106.624 610.448 105.232L608.792 104.728C608.696 105.904 608.408 107.656 608.144 108.76L609.464 109.24ZM603.128 105.736C603.44 107.056 603.728 108.76 603.8 109.912L605.36 109.36C605.264 108.256 604.952 106.576 604.616 105.256L603.128 105.736ZM615.176 94.288V96.136H613.424V94.288H615.176ZM613.424 99.52V97.768H615.176V99.52H613.424ZM617.192 101.32V92.464H611.12V114.064H613.424V101.32H617.192ZM618.968 105.832H616.4V103.912H618.968V105.832ZM618.968 109.288H616.4V107.368H618.968V109.288ZM620.864 102.376H614.6V110.824H620.864V102.376ZM620.24 99.52V97.768H622.136V99.52H620.24ZM622.136 94.288V96.136H620.24V94.288H622.136ZM624.512 92.464H618.248V101.32H622.136V111.376C622.136 111.712 622.04 111.832 621.704 111.832C621.416 111.832 620.432 111.856 619.496 111.784C619.832 112.408 620.12 113.464 620.216 114.112C621.776 114.112 622.832 114.064 623.528 113.68C624.272 113.272 624.512 112.648 624.512 111.376V92.464Z" fill="#252525"/>
<path d="M170.82 57.18V59.24H189.22V57.18H170.82ZM194.68 58.5V60H205.34V58.5H194.68ZM194.68 61.72V63.2H205.34V61.72H194.68ZM194.68 64.98V66.64H205.38V64.98H194.68ZM191.02 51.86V53.62H209.02V51.86H191.02ZM193.16 55.2V67.68H195.06V56.86H204.82V67.68H206.78V55.2H193.16ZM199.04 52.84C198.88 53.78 198.54 55.1 198.2 56.02L200.04 56.26C200.44 55.4 200.98 54.16 201.4 52.94L199.04 52.84ZM203.78 49.08C203.34 49.98 202.56 51.24 201.92 52.06L203.58 52.58C204.28 51.82 205.16 50.7 205.9 49.6L203.78 49.08ZM194.34 49.76C195.06 50.52 195.86 51.62 196.2 52.3L197.96 51.4C197.56 50.72 196.76 49.72 196.02 49.02L194.34 49.76ZM219.46 50.5V52.22H227.28V50.5H219.46ZM218.6 57.52V59.32H229.28V57.52H218.6ZM223.06 55.38V65.54C223.06 65.82 222.96 65.92 222.64 65.92C222.32 65.92 221.18 65.92 220.08 65.9C220.34 66.4 220.64 67.18 220.74 67.7C222.32 67.7 223.34 67.66 224.06 67.38C224.78 67.1 225.02 66.58 225.02 65.56V55.38H223.06ZM226.56 50.5V50.9C225.88 52.24 224.42 54.24 223.06 55.38C223.38 55.64 223.92 56.12 224.16 56.46C225.88 55.18 227.64 53.1 228.8 51.32L227.5 50.38L227.06 50.5H226.56ZM211.14 60.06C213.42 61.94 216.44 64.62 217.84 66.34L219.08 64.78C217.64 63.1 214.54 60.52 212.28 58.74L211.14 60.06ZM211.14 60.06L212.86 60.62C213.66 57.68 214.58 52.96 214.96 49.26L213.1 49.16C212.82 52.68 211.94 57.32 211.14 60.06ZM216.38 51.98V54.02C216.38 57.5 215.98 62.72 210.7 66.42C211.12 66.72 211.76 67.34 212.04 67.74C217.68 63.68 218.16 57.92 218.16 54.04V51.98H216.38ZM210.66 53.62L210.84 55.44C213.12 55.3 216.26 55.1 219.26 54.9L219.28 53.2C216.12 53.38 212.86 53.54 210.66 53.62ZM232.72 52.36V54.02H237.1V63.92H232.72V65.6H238.82V52.36H232.72ZM231.6 52.36V67.14H233.34V52.36H231.6ZM232.62 57.82V59.48H237.96V57.82H232.62ZM234.58 49.1C234.44 50.16 234.1 51.68 233.78 52.68L235.3 53.04C235.7 52.12 236.2 50.72 236.62 49.42L234.58 49.1ZM241.58 52.26V54H247.6V52.26H241.58ZM246.94 52.26V52.64C246.7 61.24 246.4 64.62 245.74 65.32C245.52 65.6 245.28 65.66 244.88 65.66C244.4 65.66 243.2 65.64 241.9 65.54C242.24 66.04 242.48 66.84 242.52 67.38C243.66 67.42 244.86 67.46 245.58 67.38C246.34 67.28 246.84 67.08 247.32 66.42C248.14 65.4 248.4 62.26 248.68 53.16C248.7 52.92 248.7 52.26 248.7 52.26H246.94ZM241.84 49.08C241.2 51.8 240.1 54.54 238.74 56.28C239.18 56.52 239.96 57.06 240.3 57.36C241.66 55.46 242.9 52.48 243.66 49.5L241.84 49.08ZM240.9 57.7C241.94 59.16 243.24 61.14 243.82 62.36L245.44 61.38C244.8 60.2 243.44 58.26 242.38 56.86L240.9 57.7ZM252.18 50.86V52.54H268V50.86H252.18ZM251.04 55.5V57.2H268.96V55.5H251.04ZM254.88 62.08V63.54H265.2V62.08H254.88ZM254.9 65.4V67H265.22V65.4H254.9ZM253.68 58.74V67.72H255.58V60.32H264.54V67.68H266.52V58.74H253.68ZM263.42 52.5C263.12 53.46 262.56 54.84 262.1 55.72L263.88 56.16C264.38 55.34 264.96 54.1 265.5 52.96L263.42 52.5ZM254.78 52.96C255.3 53.86 255.76 55.1 255.88 55.9L257.84 55.44C257.68 54.64 257.2 53.46 256.62 52.58L254.78 52.96ZM258.5 49.28C258.92 50.02 259.34 51.06 259.44 51.74L261.48 51.32C261.32 50.64 260.92 49.66 260.42 48.94L258.5 49.28ZM270.98 60.28V61.86H288.98V60.28H270.98ZM279.08 59.18V67.64H280.98V59.18H279.08ZM278.94 55.48H281.04V57.26H278.94V55.48ZM278.94 52.38H281.04V54.14H278.94V52.38ZM277.3 50.96V58.68H282.72V50.96H277.3ZM279.3 49.02C279.24 49.7 279.02 50.74 278.8 51.44L280.08 51.74C280.36 51.14 280.7 50.2 281.04 49.32L279.3 49.02ZM286.94 56.16C287.28 57.2 287.62 58.56 287.76 59.48L289.06 59.08C288.9 58.22 288.54 56.86 288.18 55.82L286.94 56.16ZM275.08 55.82C275.34 56.92 275.64 58.34 275.74 59.3L277.06 58.96C276.94 58.04 276.64 56.62 276.32 55.52L275.08 55.82ZM271.64 55.18C271.64 54.86 272.58 54.4 272.58 54.4V54.36C273.46 53.22 274.46 51.48 275.14 49.82L273.66 49.3C273.18 50.88 272.26 52.54 271.98 52.96C271.7 53.4 271.42 53.7 271.16 53.76C271.32 54.14 271.56 54.88 271.64 55.18ZM271.64 55.18C271.94 55.02 272.46 54.92 275.04 54.6C275.04 54.3 275.08 53.76 275.16 53.36L272.32 53.62L271.62 54.08L271.64 55.18ZM271.6 59.12C271.6 58.82 272.46 58.36 272.46 58.36V58.32C274.04 56.76 275.68 54.54 276.92 52.34L275.56 51.58C274.56 53.74 272.86 56.02 272.36 56.6C271.88 57.18 271.5 57.6 271.12 57.68C271.3 58.08 271.54 58.8 271.6 59.12ZM271.6 59.12C271.96 58.94 272.56 58.8 276.32 58.28C276.32 57.98 276.34 57.42 276.4 57.06L272.28 57.54L271.56 58L271.6 59.12ZM283.38 55.34C283.38 55.02 284.32 54.54 284.32 54.54V54.5C285.24 53.32 286.26 51.5 286.96 49.76L285.42 49.28C284.92 50.9 284 52.62 283.7 53.06C283.42 53.5 283.16 53.84 282.88 53.88C283.06 54.28 283.3 55.02 283.38 55.34ZM283.38 55.34C283.7 55.2 284.24 55.06 287.18 54.7C287.2 54.38 287.24 53.8 287.3 53.4L284.06 53.74L283.34 54.18L283.38 55.34ZM283.56 59.3C283.56 58.98 284.44 58.52 284.44 58.52V58.46C286.04 56.94 287.7 54.7 288.98 52.54L287.56 51.76C286.56 53.92 284.84 56.16 284.32 56.74C283.84 57.34 283.44 57.72 283.06 57.82C283.24 58.22 283.48 58.98 283.56 59.3ZM283.56 59.3C283.92 59.12 284.54 59 288.34 58.56C288.34 58.26 288.4 57.7 288.46 57.3L284.28 57.72L283.52 58.16L283.56 59.3ZM276.6 62.5C275.32 63.82 272.82 64.98 270.52 65.5C270.94 65.86 271.5 66.58 271.78 67.06C274.16 66.36 276.72 64.84 278.16 63.1L276.6 62.5ZM282.14 63.52C284.08 64.56 286.58 66.14 287.78 67.2L289 65.82C287.72 64.78 285.16 63.28 283.26 62.32L282.14 63.52ZM291.34 50.5V52.44H308.66V50.5H291.34ZM301.08 56.72C303.38 58.36 306.36 60.76 307.74 62.32L309.32 60.86C307.84 59.3 304.78 57.02 302.52 55.5L301.08 56.72ZM300.52 51.2C298.74 54.86 295.1 58.72 290.78 60.82C291.18 61.26 291.78 62.02 292.08 62.52C296.64 60.12 300.32 56.12 302.6 51.94L300.52 51.2ZM298.96 55.56V67.66H301.02V53.52L298.96 55.56ZM311.18 52.08V53.9H328.84V52.08H311.18ZM317.52 58.48V60.24H328.04V58.48H317.52ZM316.74 65.44V67.2H328.8V65.44H316.74ZM321.84 54.86V66.38H323.74V54.86H321.84ZM317.64 49.12C316.54 53.2 314.24 57.66 310.62 60.12C310.92 60.56 311.38 61.38 311.58 61.9C315.68 59.02 318.16 54.28 319.6 49.6L317.64 49.12ZM313.66 57.42V67.64H315.56V57.42H313.66ZM337.62 52.14V53.9H348.7V52.14H337.62ZM338 56.64V58.36H346.7V56.64H338ZM342.16 49.12V57.6H344.02V49.12H342.16ZM340.22 57.96L338.52 58.46C340.3 63.08 343.44 66.3 348.24 67.7C348.5 67.22 349.04 66.46 349.46 66.08C344.84 64.9 341.7 61.96 340.22 57.96ZM346.52 56.64V56.96C345.18 61.76 341.16 64.8 336.46 65.96C336.82 66.36 337.28 67.16 337.48 67.66C342.56 66.16 346.76 62.9 348.42 57.08L347.22 56.58L346.88 56.64H346.52ZM330.64 59.52L331.16 61.34C332.98 60.84 335.32 60.2 337.52 59.54L337.28 57.82C334.88 58.48 332.36 59.14 330.64 59.52ZM330.9 53.06V54.82H337.34V53.06H330.9ZM333.36 49.12V65.5C333.36 65.8 333.26 65.9 332.98 65.9C332.72 65.9 331.86 65.9 330.98 65.88C331.22 66.38 331.48 67.14 331.54 67.62C332.94 67.62 333.82 67.56 334.42 67.28C335.02 66.98 335.22 66.5 335.22 65.52V49.12H333.36ZM351.88 50.72C353.2 51.32 354.86 52.28 355.64 52.98L356.74 51.4C355.9 50.74 354.22 49.86 352.94 49.34L351.88 50.72ZM350.76 56.14C352.06 56.7 353.7 57.64 354.48 58.3L355.54 56.74C354.7 56.08 353.04 55.22 351.78 54.72L350.76 56.14ZM351.46 66.16L353.06 67.44C354.24 65.54 355.58 63.14 356.64 61.02L355.26 59.78C354.08 62.06 352.52 64.64 351.46 66.16ZM361.78 49.12V58.6H363.7V49.12H361.78ZM356.78 57.42V59.22H368.78V57.42H356.78ZM357.64 52.36V54.16H368V52.36H357.64ZM364.02 61.86C365.38 63.66 366.82 66.12 367.32 67.68L369 66.82C368.42 65.22 366.94 62.88 365.54 61.12L364.02 61.86ZM357.82 67.1C358.42 66.82 359.38 66.66 366.74 65.74C366.66 65.34 366.6 64.6 366.62 64.1L358.76 64.96L357.76 65.6L357.82 67.1ZM357.82 67.1C357.82 66.72 359.1 66.06 359.1 66.06V66.02C360.64 64.06 362.32 61.24 363.52 58.46L361.5 57.8C360.58 60.42 358.96 63.2 358.46 63.9C357.98 64.64 357.6 65.1 357.16 65.2C357.4 65.74 357.72 66.68 357.82 67.1ZM378.34 62.48C380.6 61.76 382 60.02 382 57.82C382 56.3 381.34 55.32 380.1 55.32C379.18 55.32 378.38 55.9 378.38 56.92C378.38 57.94 379.16 58.5 380.06 58.5C380.48 58.5 380.88 58.38 381.18 58.06L380.08 56.42L380.36 58.22C380.36 59.58 379.46 60.58 377.8 61.18L378.34 62.48ZM396.64 55.4V67.06H398.52V55.4H396.64ZM401.36 55.4V67.06H403.24V55.4H401.36ZM398.76 50.9C398.56 52.26 398.12 54.14 397.68 55.4L399.56 55.64C400.04 54.48 400.62 52.7 401.1 51.06L398.76 50.9ZM391.98 54.5V67.7H393.92V56.28H407.04V54.5H391.98ZM406.18 54.5V65.52C406.18 65.8 406.1 65.88 405.8 65.88C405.52 65.9 404.54 65.92 403.56 65.88C403.82 66.34 404.1 67.12 404.18 67.62C405.58 67.62 406.6 67.58 407.26 67.3C407.92 67 408.1 66.5 408.1 65.54V54.5H406.18ZM391 50.04V51.96H409.06V50.04H391ZM411.18 52.08V53.9H428.84V52.08H411.18ZM417.52 58.48V60.24H428.04V58.48H417.52ZM416.74 65.44V67.2H428.8V65.44H416.74ZM421.84 54.86V66.38H423.74V54.86H421.84ZM417.64 49.12C416.54 53.2 414.24 57.66 410.62 60.12C410.92 60.56 411.38 61.38 411.58 61.9C415.68 59.02 418.16 54.28 419.6 49.6L417.64 49.12ZM413.66 57.42V67.64H415.56V57.42H413.66ZM431 52.34V54.1H439.24V52.34H431ZM434.1 56.62V58.34H437.5V56.62H434.1ZM432.82 53.28C432.76 58.94 432.7 63.54 430.52 66.24C431 66.54 431.62 67.18 431.92 67.64C434.38 64.56 434.6 59.46 434.66 53.28H432.82ZM436.82 56.62V56.98C436.64 62.86 436.46 64.9 436.1 65.4C435.94 65.6 435.78 65.68 435.52 65.66C435.24 65.66 434.68 65.66 434.06 65.6C434.3 66.06 434.5 66.8 434.52 67.32C435.28 67.36 436 67.34 436.44 67.28C436.98 67.2 437.34 67.04 437.68 66.54C438.22 65.82 438.4 63.62 438.58 57.4C438.6 57.18 438.6 56.62 438.6 56.62H436.82ZM441.72 58.08C442.92 58.92 444.46 60.14 445.18 60.92L446.48 59.54C445.7 58.76 444.14 57.62 442.94 56.84L441.72 58.08ZM440.46 63.7C442.34 64.72 444.82 66.28 445.98 67.38L447.28 65.74C446.04 64.7 443.5 63.2 441.66 62.28L440.46 63.7ZM433.32 49.68C433.96 50.56 434.64 51.74 434.88 52.52L436.64 51.78C436.36 51.02 435.66 49.88 435 49.04L433.32 49.68ZM444.66 50.46L443.18 50.98C444.26 53.54 446.2 56.18 448.18 57.52C448.5 57.04 449.1 56.36 449.54 56C447.62 54.92 445.64 52.6 444.66 50.46ZM443.46 49.02C442.56 52.14 440.76 54.72 438.44 56.18C438.9 56.56 439.46 57.18 439.74 57.68C442.34 55.84 444.16 53.02 445.2 49.54L443.46 49.02ZM459.22 60.62V62H466.7V60.62H459.22ZM457.4 50.6V52H468.56V50.6H457.4ZM458.02 53.08V54.4H467.98V53.08H458.02ZM456.9 55.54V56.94H469.18V55.54H456.9ZM459.22 63.24V64.62H466.74V63.24H459.22ZM466.22 57.94V65.76C466.22 66 466.12 66.08 465.86 66.08C465.6 66.1 464.64 66.1 463.7 66.06C463.92 66.52 464.16 67.22 464.24 67.68C465.64 67.68 466.58 67.66 467.2 67.4C467.84 67.14 468 66.66 468 65.78V57.94H466.22ZM462.02 49.12V56H463.9V49.12H462.02ZM453.56 49.1V67.64H455.32V49.1H453.56ZM451.5 53.02C451.36 54.64 450.98 56.86 450.5 58.22L452.02 58.76C452.5 57.22 452.86 54.88 452.98 53.24L451.5 53.02ZM455.16 52.46C455.64 53.46 456.2 54.82 456.42 55.62L457.74 54.94C457.5 54.18 456.92 52.88 456.42 51.9L455.16 52.46ZM458.12 57.94V61.6C458.12 63.16 458 65.16 456.88 66.62C457.26 66.86 457.98 67.54 458.24 67.9C459.62 66.18 459.9 63.56 459.9 61.64V57.94H458.12ZM459.14 57.94V59.3H467.2V57.94H459.14ZM478.92 51.4V53.06H486.12V51.4H478.92ZM480.86 62.04V63.5H487.54V62.04H480.86ZM480.78 65.28V66.86H487.48V65.28H480.78ZM478 55.28V56.98H489.38V55.28H478ZM481.86 49.14V56.32H483.74V49.14H481.86ZM480.14 58.74V67.62H481.96V60.32H486.4V67.54H488.3V58.74H480.14ZM487.4 50.14C485.6 54.66 482.22 57.9 477.68 59.74C477.98 60.16 478.42 61.02 478.56 61.44C483.42 59.28 487.06 55.68 489.12 50.6L487.4 50.14ZM475.54 57.18C476 58.56 476.44 60.4 476.58 61.5L478.02 61.04C477.88 59.98 477.4 58.2 476.92 56.82L475.54 57.18ZM473.74 62.36C473.96 63.76 474.14 65.6 474.18 66.84L475.68 66.54C475.62 65.32 475.4 63.52 475.18 62.1L473.74 62.36ZM471.54 62.14C471.38 63.82 471.1 65.66 470.62 66.88C471.02 67 471.76 67.24 472.12 67.42C472.54 66.16 472.9 64.22 473.1 62.4L471.54 62.14ZM471.14 56.8C471.14 56.46 472.24 55.9 472.24 55.9V55.86C473.52 54.24 474.88 51.94 475.84 49.72L474.14 49.04C473.38 51.2 472.1 53.46 471.68 54.04C471.28 54.66 470.94 55.06 470.56 55.14C470.78 55.6 471.06 56.44 471.14 56.8ZM471.14 56.8C471.5 56.64 472.1 56.5 475.24 56.16C475.24 55.8 475.32 55.12 475.42 54.66L471.94 54.94L471.1 55.46L471.14 56.8ZM471.3 61.36C471.3 61.02 472.42 60.46 472.42 60.46V60.42C474.32 58.46 476.3 55.7 477.78 53.02L476.18 52.04C474.92 54.76 472.86 57.6 472.22 58.32C471.6 59.06 471.16 59.54 470.68 59.66C470.9 60.12 471.2 61 471.3 61.36ZM471.3 61.36C471.72 61.16 472.4 60.98 476.88 60.34C476.86 59.96 476.9 59.3 476.98 58.82L472.06 59.44L471.22 59.98L471.3 61.36ZM475.84 61.96C476.28 63.2 476.74 64.84 476.92 65.9L478.32 65.42C478.12 64.36 477.62 62.78 477.18 61.54L475.84 61.96ZM492.04 50.76V52.38H508.08V50.76H492.04ZM493.04 53.8V55.32H507.24V53.8H493.04ZM491.22 56.82V58.44H508.74V56.82H491.22ZM498.98 49.12V58.12H500.9V49.12H498.98ZM498.66 57.24C496.96 59.26 493.56 61.22 490.58 62.16C490.98 62.54 491.54 63.24 491.82 63.7C494.88 62.58 498.3 60.4 500.3 58L498.66 57.24ZM501.38 57.74L499.68 58.18C501.2 62.54 503.9 65.68 508.16 67.1C508.44 66.6 509 65.86 509.42 65.46C505.38 64.3 502.66 61.48 501.38 57.74ZM506.78 59.04C505.74 60.06 503.96 61.38 502.64 62.2L503.86 63.2C505.22 62.46 506.94 61.28 508.34 60.18L506.78 59.04ZM494.88 67.68C495.4 67.34 496.22 67.08 501.86 65.32C501.76 64.92 501.6 64.16 501.56 63.64L495.54 65.38L494.7 66.06L494.88 67.68ZM494.88 67.68C494.88 67.06 496.92 65.98 496.92 65.98V60.56H494.96V64.54C494.96 65.38 494.46 65.78 494.08 65.98C494.38 66.38 494.76 67.22 494.88 67.68ZM518.48 54.76C518.86 55.38 519.2 56.22 519.3 56.78L521.02 56.36C520.9 55.8 520.5 54.98 520.1 54.38L518.48 54.76ZM517.42 50.5V51.86H527.64V50.5H517.42ZM517.38 59.16V60.52H527.8V59.16H517.38ZM516.68 56.6V57.98H528.6V56.6H516.68ZM516.28 53.14V54.56H528.82V53.14H516.28ZM516.54 61.76V63.18H528.72V61.76H516.54ZM521.58 49.12V54.04H523.46V49.12H521.58ZM521.6 57.26V65.16H523.46V57.26H521.6ZM524.74 54.3C524.54 54.88 524.14 55.76 523.84 56.36L525.34 56.8C525.7 56.28 526.14 55.54 526.58 54.76L524.74 54.3ZM511.48 49.96C512.32 50.96 513.38 52.36 513.86 53.2L515.34 52.2C514.84 51.38 513.8 50.1 512.92 49.12L511.48 49.96ZM510.88 53.76V55.3H514.92V53.76H510.88ZM514.66 62.72L513.4 63.26C514.9 66.8 517.46 67.36 522.14 67.36C524.4 67.36 526.94 67.32 528.92 67.2C529.02 66.68 529.24 65.82 529.52 65.44C527.38 65.64 524.28 65.74 522.16 65.74C518.32 65.72 515.82 65.38 514.66 62.72ZM514.2 58.7V59C513.76 62.54 512.46 65.08 510.54 66.46C510.92 66.72 511.54 67.36 511.8 67.72C513.84 66.16 515.3 63.24 515.9 58.98L515.08 58.66L514.76 58.7H514.2ZM511.22 60.48C511.38 60.32 511.92 60.2 512.4 60.2H515.02L515.04 58.7H512L511.22 59.1V60.48ZM511.22 60.48C511.22 60.04 512.54 59.4 512.54 59.4C513.58 58.1 515.22 55.52 516.08 54.18L514.9 53.68L514.38 53.88V53.94C513.78 55.02 512.08 57.68 511.52 58.28C511.2 58.66 510.88 58.8 510.56 58.88C510.76 59.24 511.1 60.08 511.22 60.48ZM543.2 50.08V51.72H546.9V50.08H543.2ZM538.64 50.92V52.5H542.58V50.92H538.64ZM543.4 53.9V55.48H546.82V53.9H543.4ZM543.26 57.62V59.2H546.66V57.62H543.26ZM533.38 53.86V55.44H536.76V53.86H533.38ZM533.48 57.56V59.14H536.84V57.56H533.48ZM545.84 50.08C545.86 53.84 545.7 58.96 545.48 61.96H547.24C547.46 59 547.56 53.92 547.58 50.08H545.84ZM536.22 49.22C535.2 49.72 533.7 50.32 532.44 50.74C532.62 51.14 532.82 51.7 532.9 52.08C534.2 51.74 535.78 51.28 537.08 50.76L536.22 49.22ZM537.72 49.28V55.86H541.8V54.36H539.34V49.28H537.72ZM530.86 61.26V63.02H549.16V61.26H530.86ZM541.78 64.36C543.84 65.34 546.06 66.68 547.4 67.6L548.64 66.16C547.26 65.26 544.92 64 542.82 63.04L541.78 64.36ZM536.66 63.14C535.38 64.18 532.94 65.5 531.04 66.24C531.4 66.64 531.88 67.26 532.12 67.66C534.08 66.84 536.54 65.52 538.22 64.32L536.66 63.14ZM532.44 50.74L532.82 61.84H534.52L534.16 51.24L532.44 50.74ZM538.2 56.56C538.06 57.7 537.82 58.84 537.26 59.66C537.6 59.82 538.24 60.22 538.5 60.44C539.08 59.54 539.46 58.16 539.64 56.8L538.2 56.56ZM540.84 54.38V59.58C540.84 59.76 540.78 59.82 540.58 59.82C540.4 59.84 539.8 59.84 539.18 59.82C539.36 60.16 539.54 60.66 539.62 61.04C540.6 61.04 541.32 61.04 541.82 60.82C542.3 60.62 542.44 60.3 542.44 59.58V54.38H540.84ZM555.42 49.28V60.6H557.38V49.28H555.42ZM562.6 49.28V60.6H564.58V49.28H562.6ZM550.92 59.38V61.22H569.14V59.38H550.92ZM551.68 53.2V55.02H568.46V53.2H551.68ZM561.58 63.12C563.42 64.52 565.84 66.48 567 67.68L568.84 66.56C567.56 65.34 565.06 63.46 563.28 62.16L561.58 63.12ZM556.34 62.22C555.26 63.64 553.06 65.34 551.12 66.38C551.56 66.7 552.26 67.3 552.64 67.7C554.64 66.56 556.88 64.72 558.34 62.98L556.34 62.22ZM578.28 50.92V61.02H580.02V50.92H578.28ZM579.42 57.98V59.44H589.3V57.98H579.42ZM579.42 53.36V54.56H586.6V53.36H579.42ZM578.28 60.46V61.96H587.54V60.46H578.28ZM587.08 60.46V60.72C586.9 64.34 586.72 65.68 586.4 66.02C586.26 66.2 586.08 66.22 585.8 66.22C585.48 66.22 584.76 66.22 583.96 66.14C584.2 66.56 584.36 67.2 584.4 67.66C585.32 67.7 586.18 67.7 586.64 67.64C587.18 67.58 587.56 67.46 587.88 67.06C588.36 66.5 588.58 64.98 588.76 61.16C588.78 60.92 588.8 60.46 588.8 60.46H587.08ZM577.32 62.68C577.04 64.14 576.42 65.58 575.36 66.42L576.74 67.3C577.92 66.34 578.46 64.74 578.8 63.12L577.32 62.68ZM579.38 63.26C579.68 64.34 579.86 65.76 579.84 66.66L581.32 66.36C581.32 65.46 581.12 64.06 580.78 62.98L579.38 63.26ZM581.68 63.08C582.1 63.96 582.52 65.14 582.64 65.9L583.98 65.48C583.82 64.74 583.4 63.58 582.92 62.72L581.68 63.08ZM583.9 62.82C584.42 63.52 584.96 64.44 585.18 65.08L586.42 64.54C586.18 63.92 585.62 63.02 585.08 62.36L583.9 62.82ZM579.46 50.92V52.28H585.8V55.68H579.46V57.02H587.58V50.92H579.46ZM581.88 49.1C581.74 49.8 581.4 50.8 581.1 51.52L582.74 51.86C583.12 51.24 583.64 50.34 584.08 49.38L581.88 49.1ZM572.38 51.06V52.82H575.28V60.4H572.38V62.16H576.98V51.06H572.38ZM571.38 51.06V63.92H573.08V51.06H571.38Z" fill="white"/>
<defs>
<linearGradient id="paint0_linear_86_243" x1="72.577" y1="70.3636" x2="79.0077" y2="84.5349" gradientUnits="userSpaceOnUse">
<stop stop-color="#FFF176"/>
<stop offset="1" stop-color="#00E0B8"/>
</linearGradient>
<linearGradient id="paint1_linear_86_243" x1="72.5876" y1="83.2923" x2="79.0183" y2="97.4636" gradientUnits="userSpaceOnUse">
<stop stop-color="#FFF176"/>
<stop offset="1" stop-color="#00E0B8"/>
</linearGradient>
<linearGradient id="paint2_linear_86_243" x1="49.9257" y1="47.4957" x2="112.776" y2="115.124" gradientUnits="userSpaceOnUse">
<stop stop-color="#FFF176"/>
<stop offset="1" stop-color="#00E0B8"/>
</linearGradient>
<linearGradient id="paint3_linear_86_243" x1="27.3752" y1="23.0193" x2="135.44" y2="139.328" gradientUnits="userSpaceOnUse">
<stop stop-color="#FFF176"/>
<stop offset="1" stop-color="#00E0B8"/>
</linearGradient>
<linearGradient id="paint4_linear_86_243" x1="41.1404" y1="35.6189" x2="49.5345" y2="44.4721" gradientUnits="userSpaceOnUse">
<stop stop-color="#FFF176"/>
<stop offset="1" stop-color="#00E0B8"/>
</linearGradient>
<linearGradient id="paint5_linear_86_243" x1="50.5694" y1="29.6452" x2="57.9483" y2="36.0117" gradientUnits="userSpaceOnUse">
<stop stop-color="#FFF176"/>
<stop offset="1" stop-color="#00E0B8"/>
</linearGradient>
<linearGradient id="paint6_linear_86_243" x1="60.0068" y1="26.1844" x2="66.8563" y2="31.0558" gradientUnits="userSpaceOnUse">
<stop stop-color="#FFF176"/>
<stop offset="1" stop-color="#00E0B8"/>
</linearGradient>
<linearGradient id="paint7_linear_86_243" x1="68.4149" y1="24.0639" x2="73.3187" y2="25.9645" gradientUnits="userSpaceOnUse">
<stop stop-color="#FFF176"/>
<stop offset="1" stop-color="#00E0B8"/>
</linearGradient>
<linearGradient id="paint8_linear_86_243" x1="75.6195" y1="22.897" x2="81.7316" y2="26.1291" gradientUnits="userSpaceOnUse">
<stop stop-color="#FFF176"/>
<stop offset="1" stop-color="#00E0B8"/>
</linearGradient>
<linearGradient id="paint9_linear_86_243" x1="90.0127" y1="23.6312" x2="96.711" y2="27.9675" gradientUnits="userSpaceOnUse">
<stop stop-color="#FFF176"/>
<stop offset="1" stop-color="#00E0B8"/>
</linearGradient>
<linearGradient id="paint10_linear_86_243" x1="98.4395" y1="26.2269" x2="105.996" y2="31.6302" gradientUnits="userSpaceOnUse">
<stop stop-color="#FFF176"/>
<stop offset="1" stop-color="#00E0B8"/>
</linearGradient>
<linearGradient id="paint11_linear_86_243" x1="107.139" y1="31.0131" x2="113.941" y2="36.8815" gradientUnits="userSpaceOnUse">
<stop stop-color="#FFF176"/>
<stop offset="1" stop-color="#00E0B8"/>
</linearGradient>
<linearGradient id="paint12_linear_86_243" x1="113.864" y1="36.1007" x2="120.923" y2="43.2957" gradientUnits="userSpaceOnUse">
<stop stop-color="#FFF176"/>
<stop offset="1" stop-color="#00E0B8"/>
</linearGradient>
<linearGradient id="paint13_linear_86_243" x1="42.2768" y1="120.722" x2="50.8559" y2="129.401" gradientUnits="userSpaceOnUse">
<stop stop-color="#FFF176"/>
<stop offset="1" stop-color="#00E0B8"/>
</linearGradient>
<linearGradient id="paint14_linear_86_243" x1="52.4406" y1="126.52" x2="59.7947" y2="132.666" gradientUnits="userSpaceOnUse">
<stop stop-color="#FFF176"/>
<stop offset="1" stop-color="#00E0B8"/>
</linearGradient>
<linearGradient id="paint15_linear_86_243" x1="60.9517" y1="130.489" x2="67.7625" y2="135.227" gradientUnits="userSpaceOnUse">
<stop stop-color="#FFF176"/>
<stop offset="1" stop-color="#00E0B8"/>
</linearGradient>
<linearGradient id="paint16_linear_86_243" x1="69.2187" y1="132.36" x2="73.9197" y2="134.078" gradientUnits="userSpaceOnUse">
<stop stop-color="#FFF176"/>
<stop offset="1" stop-color="#00E0B8"/>
</linearGradient>
<linearGradient id="paint17_linear_86_243" x1="76.1899" y1="133.186" x2="82.2284" y2="136.349" gradientUnits="userSpaceOnUse">
<stop stop-color="#FFF176"/>
<stop offset="1" stop-color="#00E0B8"/>
</linearGradient>
<linearGradient id="paint18_linear_86_243" x1="90.0025" y1="132.4" x2="96.3436" y2="135.872" gradientUnits="userSpaceOnUse">
<stop stop-color="#FFF176"/>
<stop offset="1" stop-color="#00E0B8"/>
</linearGradient>
<linearGradient id="paint19_linear_86_243" x1="98.4242" y1="129.989" x2="105.813" y2="136.104" gradientUnits="userSpaceOnUse">
<stop stop-color="#FFF176"/>
<stop offset="1" stop-color="#00E0B8"/>
</linearGradient>
<linearGradient id="paint20_linear_86_243" x1="106.857" y1="126.158" x2="113.655" y2="131.89" gradientUnits="userSpaceOnUse">
<stop stop-color="#FFF176"/>
<stop offset="1" stop-color="#00E0B8"/>
</linearGradient>
<linearGradient id="paint21_linear_86_243" x1="113.593" y1="121.233" x2="120.743" y2="128.305" gradientUnits="userSpaceOnUse">
<stop stop-color="#FFF176"/>
<stop offset="1" stop-color="#00E0B8"/>
</linearGradient>
</defs>
</svg>
