<svg width="207" height="102" viewBox="0 0 207 102" fill="none" xmlns="http://www.w3.org/2000/svg">
<path opacity="0.8" d="M5.544 47.764V48.904H6.444V47.764H5.544ZM5.532 48.748C4.44 49.672 2.304 50.44 0.456 50.776C0.624 50.944 0.852 51.244 0.96 51.448C2.832 51.052 5.028 50.152 6.24 49.084L5.532 48.748ZM6.54 48.712L5.796 48.892C6.66 51.1 8.388 52.456 11.016 52.996C11.136 52.768 11.352 52.432 11.532 52.264C9.024 51.844 7.296 50.62 6.54 48.712ZM10.092 49.324C9.468 49.78 8.4 50.38 7.62 50.74L8.184 51.196C8.976 50.848 9.984 50.332 10.752 49.792L10.092 49.324ZM2.112 52.12L2.268 52.876C3.54 52.672 5.328 52.384 7.032 52.108L6.996 51.376C5.184 51.664 3.324 51.952 2.112 52.12ZM0.66 48.484V49.216H11.34V48.484H0.66ZM7.308 42.388V46.444H8.124V42.388H7.308ZM10.044 42.04V47.044C10.044 47.188 10.008 47.236 9.828 47.248C9.648 47.26 9.06 47.26 8.4 47.236C8.52 47.452 8.652 47.764 8.688 47.992C9.54 47.992 10.092 47.98 10.44 47.86C10.776 47.728 10.884 47.512 10.884 47.056V42.04H10.044ZM3.312 41.92V48.016H4.104V41.92H3.312ZM5.568 45.448V46.924C5.568 47.02 5.532 47.044 5.424 47.056C5.328 47.068 5.016 47.068 4.62 47.056C4.716 47.224 4.836 47.44 4.872 47.632C5.4 47.632 5.76 47.632 6.012 47.524C6.264 47.416 6.324 47.248 6.324 46.912V45.448H5.568ZM1.212 45.448V47.704H1.932V46.06H5.916V45.448H1.212ZM0.612 44.152V44.812H6.672V44.152H0.612ZM1.86 42.784L1.596 43.42H6.252V42.784H1.86ZM1.752 41.968C1.536 42.616 1.2 43.3 0.78 43.792C0.96 43.876 1.284 44.032 1.428 44.14C1.812 43.636 2.208 42.856 2.46 42.136L1.752 41.968ZM3.36 50.452V52.432H4.224V50.128L3.816 49.984L3.36 50.452ZM17.844 43.936L17.424 44.8H23.532V43.936H17.844ZM19.344 46.54V47.368H23.256V46.54H19.344ZM19.332 49.18V50.032H23.424V49.18H19.332ZM18.888 44.212V52.96H19.812V44.212H18.888ZM18.3 42.064C17.712 43.828 16.74 45.58 15.648 46.696C15.852 46.84 16.212 47.164 16.344 47.32C17.448 46.084 18.492 44.2 19.176 42.292L18.3 42.064ZM15.42 41.968C14.736 43.792 13.62 45.592 12.42 46.756C12.588 46.972 12.864 47.452 12.948 47.668C14.256 46.324 15.492 44.272 16.284 42.244L15.42 41.968ZM14.136 45.064V52.948H15.048V44.176L15.024 44.164L14.136 45.064ZM29.376 42.292C29.292 43.888 29.292 49.66 24.396 52.156C24.672 52.36 24.972 52.636 25.128 52.864C30.096 50.164 30.276 44.176 30.372 42.292H29.376ZM30.336 42.532L29.472 42.616C29.556 43.72 29.892 50.428 34.98 52.864C35.124 52.612 35.4 52.312 35.664 52.108C30.72 49.84 30.372 43.468 30.336 42.532ZM40.5996 43.4688L37.043 52.7324H36.1113L39.6738 43.4688H40.5996ZM48.337 48.076V52.852H48.949V48.076H48.337ZM49.873 48.076V52.852H50.497V48.076H49.873ZM45.649 42.652V43.444H52.261V42.652H45.649ZM47.101 49.936V50.62H51.889V49.936H47.101ZM46.117 44.236V46.876C46.117 48.496 45.997 50.704 44.833 52.288C45.013 52.384 45.361 52.636 45.493 52.792C46.729 51.112 46.933 48.616 46.933 46.888V44.236H46.117ZM46.477 44.236V44.98H51.097V46.276H46.477V47.02H51.961V44.236H46.477ZM46.765 47.836V52.972H47.437V48.544H51.937V47.836H46.765ZM51.457 47.836V52.096C51.457 52.204 51.433 52.228 51.349 52.228C51.253 52.228 51.013 52.228 50.713 52.216C50.809 52.432 50.929 52.744 50.953 52.96C51.409 52.96 51.721 52.936 51.937 52.828C52.165 52.684 52.213 52.468 52.213 52.108V47.836H51.457ZM43.309 41.932C43.009 42.724 42.457 43.9 42.037 44.596L42.637 44.86C43.081 44.188 43.645 43.108 44.077 42.22L43.309 41.932ZM44.581 43.3C43.957 44.56 42.877 46.348 42.025 47.416L42.565 47.704C43.429 46.672 44.533 44.968 45.325 43.636L44.581 43.3ZM41.389 44.416C42.025 45.016 42.745 45.868 43.045 46.444L43.549 45.784C43.237 45.244 42.505 44.428 41.869 43.84L41.389 44.416ZM44.125 46.012C44.569 46.828 44.977 47.908 45.109 48.58L45.781 48.292C45.661 47.62 45.217 46.564 44.761 45.772L44.125 46.012ZM41.293 47.236L41.389 48.04C42.433 47.968 43.801 47.884 45.157 47.8V47.032C43.717 47.116 42.289 47.188 41.293 47.236ZM44.353 48.928C44.629 49.624 44.857 50.536 44.917 51.136L45.589 50.932C45.529 50.344 45.277 49.432 44.989 48.748L44.353 48.928ZM42.013 48.784C41.881 49.828 41.653 50.908 41.269 51.64C41.449 51.712 41.797 51.868 41.941 51.976C42.313 51.208 42.601 50.044 42.757 48.916L42.013 48.784ZM43.225 47.584V52.96H44.005V47.584H43.225ZM54.697 51.316V52.204H63.241V51.316H54.697ZM54.685 47.812V48.664H63.361V47.812H54.685ZM54.133 44.32V52.972H54.985V45.196H62.941V52.912H63.829V44.32H54.133ZM57.013 42.052V51.904H57.889V42.052H57.013ZM59.917 42.052V51.856H60.805V42.052H59.917ZM71.197 41.44H70.705V53.44H71.197V41.44ZM78.805 45.7V46.54H83.293V45.7H78.805ZM78.373 43.144V51.424H79.213V43.444L78.373 43.144ZM77.377 51.208L77.545 52.132C79.105 51.868 81.373 51.496 83.485 51.124L83.437 50.26C81.217 50.62 78.877 51.004 77.377 51.208ZM82.249 41.932C81.397 42.448 79.897 43.012 78.577 43.396C78.697 43.576 78.841 43.888 78.889 44.092C80.293 43.708 81.901 43.168 83.017 42.58L82.249 41.932ZM81.157 46.06V51.1L81.973 50.992V46.06H81.157ZM83.797 42.688V53.008H84.673V43.54H87.637V42.688H83.797ZM87.409 42.688V42.988C86.989 43.948 86.281 45.592 85.609 46.804C86.941 47.848 87.349 48.736 87.349 49.492C87.349 49.924 87.253 50.26 86.977 50.416C86.809 50.512 86.605 50.548 86.401 50.56C86.125 50.572 85.753 50.572 85.369 50.536C85.525 50.8 85.621 51.196 85.633 51.448C86.005 51.472 86.437 51.472 86.773 51.436C87.109 51.4 87.385 51.304 87.613 51.172C88.069 50.872 88.261 50.32 88.249 49.576C88.249 48.724 87.925 47.776 86.593 46.672C87.193 45.592 87.877 44.236 88.405 43.084L87.733 42.652L87.589 42.688H87.409ZM92.089 43.216H97.945V44.104H92.089V43.216ZM91.225 42.616V44.704H98.845V42.616H91.225ZM94.501 41.92V45.652H95.389V41.92H94.501ZM89.605 45.352V46.06H100.309V45.352H89.605ZM92.005 48.532H98.041V49.276H92.005V48.532ZM92.005 49.84H98.041V50.596H92.005V49.84ZM92.005 47.236H98.041V47.968H92.005V47.236ZM91.129 46.648V51.172H98.941V46.648H91.129ZM95.929 51.772C97.237 52.156 98.533 52.624 99.289 52.972L100.321 52.516C99.445 52.156 97.993 51.676 96.673 51.316L95.929 51.772ZM93.157 51.292C92.293 51.724 90.841 52.096 89.593 52.336C89.797 52.492 90.109 52.828 90.253 53.008C91.453 52.708 92.989 52.192 93.961 51.652L93.157 51.292ZM105.397 46.912V47.68H112.489V46.912H105.397ZM106.573 48.532V49.252H111.649V48.532H106.573ZM107.197 47.128C106.681 48.268 105.745 49.3 104.737 49.972C104.917 50.092 105.205 50.368 105.337 50.512C106.333 49.756 107.353 48.604 107.941 47.332L107.197 47.128ZM108.025 48.652C107.389 50.056 106.249 51.292 104.977 52.072C105.157 52.192 105.445 52.48 105.565 52.612C106.825 51.76 108.037 50.416 108.757 48.856L108.025 48.652ZM109.789 48.7C109.333 50.248 108.457 51.616 107.353 52.48C107.545 52.6 107.857 52.84 107.989 52.972C109.081 52.024 110.017 50.56 110.545 48.868L109.789 48.7ZM111.265 48.532V48.664C111.133 50.992 110.989 51.868 110.761 52.096C110.665 52.204 110.557 52.216 110.389 52.216C110.197 52.216 109.741 52.216 109.237 52.168C109.357 52.372 109.441 52.708 109.453 52.936C109.969 52.96 110.473 52.96 110.749 52.936C111.049 52.924 111.253 52.84 111.445 52.636C111.745 52.288 111.913 51.352 112.057 48.892C112.069 48.772 112.081 48.532 112.081 48.532H111.265ZM107.017 44.536H110.773V45.484H107.017V44.536ZM107.017 42.964H110.773V43.9H107.017V42.964ZM106.189 42.304V46.144H111.613V42.304H106.189ZM101.281 48.304L101.485 49.192C102.553 48.868 103.933 48.436 105.241 48.028L105.133 47.224C103.717 47.632 102.253 48.064 101.281 48.304ZM101.485 44.344V45.184H105.181V44.344H101.485ZM103.117 41.932V51.868C103.117 52.048 103.045 52.096 102.889 52.096C102.745 52.108 102.241 52.108 101.701 52.084C101.821 52.336 101.941 52.732 101.977 52.96C102.757 52.96 103.249 52.936 103.561 52.78C103.873 52.636 103.981 52.384 103.981 51.868V41.932H103.117ZM120.494 42.748V43.588H127.49V42.748H120.494ZM125.594 43.168V51.832C125.594 52.072 125.498 52.144 125.246 52.156C124.982 52.168 124.094 52.168 123.146 52.144C123.266 52.384 123.41 52.732 123.458 52.96C124.694 52.972 125.426 52.96 125.858 52.828C126.278 52.696 126.458 52.456 126.458 51.832V43.168H125.594ZM121.31 45.292V46.072H123.506V48.868H121.31V49.648H124.31V45.292H121.31ZM120.902 45.292V50.56H121.694V45.292H120.902ZM116.894 42.448V52.972H117.71V43.264H119.69V42.448H116.894ZM119.474 42.448V42.688C119.222 43.504 118.778 44.884 118.334 45.976C119.21 46.924 119.426 47.764 119.426 48.424C119.426 48.784 119.354 49.12 119.174 49.252C119.066 49.324 118.946 49.348 118.79 49.36C118.598 49.384 118.37 49.372 118.094 49.348C118.226 49.576 118.31 49.924 118.322 50.14C118.586 50.152 118.886 50.152 119.126 50.128C119.378 50.092 119.582 50.02 119.75 49.9C120.086 49.66 120.23 49.144 120.23 48.496C120.23 47.752 120.026 46.876 119.15 45.88C119.558 44.92 120.002 43.744 120.35 42.76L119.762 42.412L119.63 42.448H119.474ZM128.606 48.784V49.588H139.262V48.784H128.606ZM133.442 47.668V52.936H134.354V47.668H133.442ZM133.034 49.096C132.05 50.368 130.118 51.508 128.366 52.048C128.57 52.228 128.834 52.576 128.978 52.804C130.73 52.168 132.686 50.884 133.778 49.432L133.034 49.096ZM134.774 49.12L134.018 49.48C135.11 50.896 137.066 52.12 138.89 52.72C139.022 52.48 139.298 52.132 139.49 51.952C137.666 51.46 135.746 50.368 134.774 49.12ZM132.974 45.796H134.858V47.116H132.974V45.796ZM132.974 43.816H134.858V45.112H132.974V43.816ZM132.194 43.108V47.824H135.65V43.108H132.194ZM133.598 41.92C133.526 42.352 133.358 42.988 133.214 43.408L133.922 43.564C134.102 43.18 134.306 42.604 134.498 42.064L133.598 41.92ZM128.69 44.26C129.29 44.752 129.998 45.448 130.31 45.928L130.73 45.268C130.418 44.812 129.698 44.14 129.086 43.684L128.69 44.26ZM130.874 46.024C131.222 46.708 131.558 47.632 131.654 48.208L132.29 47.956C132.182 47.404 131.834 46.504 131.474 45.832L130.874 46.024ZM131.174 43.672C130.682 44.764 129.806 46.3 129.11 47.236L129.698 47.512C130.394 46.588 131.246 45.136 131.882 43.948L131.174 43.672ZM130.238 42.004C129.998 42.7 129.542 43.684 129.194 44.296L129.794 44.56C130.166 43.96 130.598 43.048 130.958 42.268L130.238 42.004ZM128.582 47.164L128.678 47.944C129.554 47.8 130.622 47.656 131.726 47.476L131.714 46.828C130.526 46.96 129.398 47.092 128.582 47.164ZM135.578 44.164C136.214 44.716 136.934 45.496 137.246 46.024L137.714 45.4C137.39 44.896 136.658 44.14 136.034 43.612L135.578 44.164ZM137.81 45.928C138.218 46.684 138.614 47.668 138.734 48.304L139.406 48.028C139.274 47.416 138.854 46.432 138.434 45.7L137.81 45.928ZM138.11 43.66C137.618 44.764 136.706 46.312 135.998 47.26L136.586 47.536C137.306 46.6 138.182 45.136 138.818 43.948L138.11 43.66ZM137.234 41.968C136.994 42.664 136.526 43.648 136.166 44.26L136.766 44.524C137.15 43.924 137.594 43.024 137.966 42.232L137.234 41.968ZM135.626 47.164L135.734 47.944C136.61 47.824 137.702 47.68 138.806 47.536L138.794 46.876C137.606 46.984 136.466 47.092 135.626 47.164ZM5.208 64.52V65.36H10.692V64.52H5.208ZM5.22 66.536V67.328H9.384V66.536H5.22ZM5.508 68.396V73.004H6.3V68.396H5.508ZM5.964 68.396V69.176H8.124V71.396H5.964V72.176H8.94V68.396H5.964ZM10.248 64.52V73.748C10.248 73.964 10.176 74.036 9.948 74.036C9.72 74.048 8.916 74.06 8.1 74.024C8.232 74.288 8.364 74.708 8.412 74.96C9.492 74.96 10.188 74.948 10.596 74.792C10.992 74.636 11.124 74.348 11.124 73.76V64.52H10.248ZM1.02 67.556V68.276H4.536V67.556H1.02ZM1.056 64.352V65.072H4.488V64.352H1.056ZM1.02 69.164V69.884H4.536V69.164H1.02ZM0.456 65.924V66.668H4.872V65.924H0.456ZM1.416 70.784V71.528H3.744V73.532H1.416V74.288H4.536V70.784H1.416ZM1.008 70.784V74.84H1.788V70.784H1.008ZM13.74 73.316V74.204H22.284V73.316H13.74ZM13.728 69.812V70.664H22.404V69.812H13.728ZM13.176 66.32V74.972H14.028V67.196H21.984V74.912H22.872V66.32H13.176ZM16.056 64.052V73.904H16.932V64.052H16.056ZM18.96 64.052V73.856H19.848V64.052H18.96ZM26.712 66.224V66.884H29.64V66.224H26.712ZM26.592 73.76V74.444H30.336V73.76H26.592ZM26.052 68.912V69.512H30.06V68.912H26.052ZM25.668 67.544V69.5C25.668 70.88 25.512 72.764 24.396 74.132C24.564 74.24 24.888 74.528 25.008 74.696C26.232 73.208 26.46 71.036 26.46 69.524V67.544H25.668ZM26.112 67.544V68.216H29.628V70.22H26.088V70.892H30.444V67.544H26.112ZM26.268 71.636V74.948H27.048V72.32H29.82V74.864H30.624V71.636H26.268ZM31.428 65.372V72.02H32.292V65.372H31.428ZM34.128 64.148V73.784C34.128 74 34.044 74.072 33.816 74.072C33.6 74.084 32.88 74.096 32.064 74.06C32.196 74.324 32.34 74.732 32.376 74.96C33.456 74.972 34.104 74.948 34.476 74.792C34.848 74.648 35.004 74.384 35.004 73.772V64.148H34.128ZM27.564 64.04C26.976 65.024 25.884 66.248 24.396 67.136C24.576 67.268 24.852 67.556 24.972 67.76C26.556 66.728 27.66 65.468 28.344 64.496V64.232H28.056V64.04H27.564ZM27.732 64.04V64.676H27.912C28.788 65.312 29.88 66.368 30.444 66.992L31.044 66.32C30.432 65.684 29.292 64.712 28.38 64.04H27.732ZM41.844 65.936L41.424 66.8H47.532V65.936H41.844ZM43.344 68.54V69.368H47.256V68.54H43.344ZM43.332 71.18V72.032H47.424V71.18H43.332ZM42.888 66.212V74.96H43.812V66.212H42.888ZM42.3 64.064C41.712 65.828 40.74 67.58 39.648 68.696C39.852 68.84 40.212 69.164 40.344 69.32C41.448 68.084 42.492 66.2 43.176 64.292L42.3 64.064ZM39.42 63.968C38.736 65.792 37.62 67.592 36.42 68.756C36.588 68.972 36.864 69.452 36.948 69.668C38.256 68.324 39.492 66.272 40.284 64.244L39.42 63.968ZM38.136 67.064V74.948H39.048V66.176L39.024 66.164L38.136 67.064ZM54.24 63.44H53.748V75.44H54.24V63.44ZM64.56 64.748V65.588H71.556V64.748H64.56ZM69.66 65.168V73.832C69.66 74.072 69.564 74.144 69.312 74.156C69.048 74.168 68.16 74.168 67.212 74.144C67.332 74.384 67.476 74.732 67.524 74.96C68.76 74.972 69.492 74.96 69.924 74.828C70.344 74.696 70.524 74.456 70.524 73.832V65.168H69.66ZM65.376 67.292V68.072H67.572V70.868H65.376V71.648H68.376V67.292H65.376ZM64.968 67.292V72.56H65.76V67.292H64.968ZM60.96 64.448V74.972H61.776V65.264H63.756V64.448H60.96ZM63.54 64.448V64.688C63.288 65.504 62.844 66.884 62.4 67.976C63.276 68.924 63.492 69.764 63.492 70.424C63.492 70.784 63.42 71.12 63.24 71.252C63.132 71.324 63.012 71.348 62.856 71.36C62.664 71.384 62.436 71.372 62.16 71.348C62.292 71.576 62.376 71.924 62.388 72.14C62.652 72.152 62.952 72.152 63.192 72.128C63.444 72.092 63.648 72.02 63.816 71.9C64.152 71.66 64.296 71.144 64.296 70.496C64.296 69.752 64.092 68.876 63.216 67.88C63.624 66.92 64.068 65.744 64.416 64.76L63.828 64.412L63.696 64.448H63.54ZM72.672 70.784V71.588H83.328V70.784H72.672ZM77.508 69.668V74.936H78.42V69.668H77.508ZM77.1 71.096C76.116 72.368 74.184 73.508 72.432 74.048C72.636 74.228 72.9 74.576 73.044 74.804C74.796 74.168 76.752 72.884 77.844 71.432L77.1 71.096ZM78.84 71.12L78.084 71.48C79.176 72.896 81.132 74.12 82.956 74.72C83.088 74.48 83.364 74.132 83.556 73.952C81.732 73.46 79.812 72.368 78.84 71.12ZM77.04 67.796H78.924V69.116H77.04V67.796ZM77.04 65.816H78.924V67.112H77.04V65.816ZM76.26 65.108V69.824H79.716V65.108H76.26ZM77.664 63.92C77.592 64.352 77.424 64.988 77.28 65.408L77.988 65.564C78.168 65.18 78.372 64.604 78.564 64.064L77.664 63.92ZM72.756 66.26C73.356 66.752 74.064 67.448 74.376 67.928L74.796 67.268C74.484 66.812 73.764 66.14 73.152 65.684L72.756 66.26ZM74.94 68.024C75.288 68.708 75.624 69.632 75.72 70.208L76.356 69.956C76.248 69.404 75.9 68.504 75.54 67.832L74.94 68.024ZM75.24 65.672C74.748 66.764 73.872 68.3 73.176 69.236L73.764 69.512C74.46 68.588 75.312 67.136 75.948 65.948L75.24 65.672ZM74.304 64.004C74.064 64.7 73.608 65.684 73.26 66.296L73.86 66.56C74.232 65.96 74.664 65.048 75.024 64.268L74.304 64.004ZM72.648 69.164L72.744 69.944C73.62 69.8 74.688 69.656 75.792 69.476L75.78 68.828C74.592 68.96 73.464 69.092 72.648 69.164ZM79.644 66.164C80.28 66.716 81 67.496 81.312 68.024L81.78 67.4C81.456 66.896 80.724 66.14 80.1 65.612L79.644 66.164ZM81.876 67.928C82.284 68.684 82.68 69.668 82.8 70.304L83.472 70.028C83.34 69.416 82.92 68.432 82.5 67.7L81.876 67.928ZM82.176 65.66C81.684 66.764 80.772 68.312 80.064 69.26L80.652 69.536C81.372 68.6 82.248 67.136 82.884 65.948L82.176 65.66ZM81.3 63.968C81.06 64.664 80.592 65.648 80.232 66.26L80.832 66.524C81.216 65.924 81.66 65.024 82.032 64.232L81.3 63.968ZM79.692 69.164L79.8 69.944C80.676 69.824 81.768 69.68 82.872 69.536L82.86 68.876C81.672 68.984 80.532 69.092 79.692 69.164ZM89.172 74.144C90.576 74.144 91.536 73.484 92.316 72.488C93.048 71.54 93.528 70.484 93.78 69.272H92.772C92.592 70.364 92.172 71.204 91.56 71.948C90.9 72.752 90.12 73.268 89.268 73.268C88.116 73.268 87.312 72.704 87.312 71.708C87.312 69.716 91.416 69.296 91.416 66.824C91.416 65.768 90.684 65.048 89.532 65.048C88.32 65.048 87.444 65.864 87.444 67.16C87.444 69.032 89.676 71.048 91.56 72.728C92.364 73.436 92.964 73.844 93.492 74.168L93.996 73.28C93.624 73.052 92.976 72.608 92.268 72.008C90.588 70.58 88.344 68.624 88.344 67.124C88.344 66.332 88.824 65.828 89.544 65.828C90.168 65.828 90.54 66.296 90.54 66.872C90.54 68.876 86.316 69.164 86.316 71.744C86.316 73.196 87.432 74.144 89.172 74.144ZM97.5 65.456V66.296H106.596V65.456H97.5ZM96.648 68.54V69.392H107.352V68.54H96.648ZM97.224 71.264V72.128H106.848V71.264H97.224ZM101.496 63.92V65.816H102.432V63.92H101.496ZM101.496 69.356V74.972H102.432V69.356H101.496ZM99.108 66.596C99.456 67.196 99.828 68.012 99.972 68.516L100.812 68.216C100.668 67.712 100.272 66.932 99.9 66.332L99.108 66.596ZM104.208 66.284C103.956 66.992 103.488 68 103.104 68.624L103.872 68.852C104.28 68.264 104.76 67.328 105.156 66.536L104.208 66.284ZM108.876 69.272V70.064H114.528V69.272H108.876ZM111.396 67.412V74.96H112.284V67.412H111.396ZM115.488 67.22V72.74H116.34V67.22H115.488ZM117.924 66.608V73.856C117.924 74.048 117.864 74.096 117.66 74.108C117.468 74.12 116.808 74.12 116.088 74.096C116.22 74.336 116.364 74.72 116.412 74.96C117.336 74.972 117.936 74.948 118.308 74.804C118.668 74.66 118.8 74.408 118.8 73.868V66.608H117.924ZM111.336 69.608C110.748 71.024 109.644 72.548 108.624 73.304C108.828 73.46 109.092 73.736 109.224 73.952C110.28 73.064 111.384 71.42 111.996 69.836L111.336 69.608ZM113.748 66.596C112.68 66.98 110.7 67.256 109.032 67.412C109.14 67.604 109.248 67.904 109.284 68.096C111 67.964 113.052 67.688 114.372 67.244L113.748 66.596ZM112.164 70.052L111.66 70.436C112.164 70.916 113.436 72.26 113.856 72.812L114.444 72.128C114.108 71.78 112.596 70.376 112.164 70.052ZM111.456 63.92V66.548H112.332V63.92H111.456ZM115.584 63.92V66.548H116.46V63.92H115.584ZM108.744 64.76V65.564H119.292V64.76H108.744ZM122.664 65.216H129.36V69.74H122.664V65.216ZM121.776 64.448V70.508H130.284V64.448H121.776ZM125.532 67.676C126.384 68.204 127.488 68.972 128.04 69.44L128.556 68.912C127.98 68.444 126.864 67.712 126.024 67.22L125.532 67.676ZM123.444 66.404V67.1H128.52V66.404H123.444ZM125.604 65.42C125.52 67.448 125.184 68.396 123.288 68.924C123.432 69.056 123.636 69.332 123.696 69.488C125.844 68.888 126.276 67.724 126.372 65.42H125.604ZM123.636 71.396V73.592C123.636 74.54 123.936 74.792 125.184 74.792C125.436 74.792 127.188 74.792 127.452 74.792C128.484 74.792 128.748 74.432 128.856 72.956C128.604 72.896 128.244 72.764 128.04 72.62C127.992 73.808 127.908 73.976 127.38 73.976C126.996 73.976 125.544 73.976 125.256 73.976C124.632 73.976 124.524 73.916 124.524 73.592V71.396H123.636ZM124.464 70.844C125.256 71.264 126.168 71.948 126.588 72.464L127.26 71.876C126.816 71.36 125.88 70.712 125.076 70.316L124.464 70.844ZM128.58 71.768C129.468 72.548 130.356 73.64 130.692 74.42L131.496 73.976C131.148 73.172 130.212 72.104 129.336 71.36L128.58 71.768ZM122.1 71.432C121.836 72.428 121.32 73.436 120.456 74.024L121.2 74.516C122.112 73.856 122.592 72.764 122.904 71.696L122.1 71.432Z" fill="white"/>
<path d="M202.929 25.1299L0 25.1299L0 26.0199L202.929 26.0199V25.1299Z" fill="white"/>
<path d="M207 22L190 22V29H207V22Z" fill="#00E0B8"/>
<path d="M12.32 6.074H7.826C7.602 5.514 7.238 4.786 6.916 4.212L5.964 4.52C6.216 4.996 6.482 5.57 6.692 6.074H1.806V7.04H12.32V6.074ZM13.202 10.61V9.63H9.604C9.94 8.958 10.318 8.104 10.626 7.348L9.548 7.082C9.338 7.824 8.918 8.888 8.554 9.63H4.732L5.418 9.378C5.292 8.79 4.858 7.838 4.452 7.124L3.5 7.418C3.864 8.104 4.242 9.028 4.396 9.63H0.812V10.61H6.44V12.794H1.484V13.788H6.44V17.078H7.49V13.788H12.614V12.794H7.49V10.61H13.202ZM17.066 7.236H18.088V6.214H20.062V5.304H18.088V4.282H17.066V5.304H14.266V6.214H17.066V7.236ZM18.116 8.706C19.026 8.552 19.88 8.356 20.566 8.118L19.838 7.39C18.606 7.824 16.31 8.146 14.392 8.328C14.504 8.538 14.63 8.888 14.672 9.112C15.442 9.056 16.296 8.958 17.136 8.846V10.47H14.266V11.394H16.8C16.1 12.878 14.966 14.362 13.916 15.132C14.126 15.314 14.434 15.664 14.616 15.888C15.498 15.132 16.422 13.914 17.136 12.584V17.064H18.116V12.878C18.788 13.466 19.614 14.25 19.978 14.656L20.622 13.858C20.272 13.536 18.704 12.318 18.116 11.898V11.394H20.65V10.47H18.116V8.706ZM21.378 14.488H22.372V8.09H21.378V14.488ZM24.626 15.79C24.626 16.014 24.542 16.07 24.304 16.084C24.094 16.098 23.324 16.098 22.498 16.07C22.638 16.35 22.806 16.784 22.848 17.078C23.94 17.078 24.64 17.064 25.074 16.882C25.48 16.714 25.634 16.434 25.634 15.804V7.404H24.626V15.79ZM23.716 5.304V4.282H22.694V5.304H20.636V6.214H22.694V7.264H23.716V6.214H26.558V5.304H23.716ZM36.708 10.008C36.064 9.462 34.804 8.58 33.838 7.978L33.852 7.922H36.708V7.11H34.062C34.132 6.76 34.174 6.382 34.216 5.99H33.32C33.292 6.382 33.236 6.76 33.166 7.11H30.758V7.922H32.942C32.564 8.846 31.892 9.532 30.59 9.98C30.772 10.12 30.996 10.428 31.08 10.624C32.312 10.176 33.068 9.532 33.544 8.692C34.468 9.322 35.532 10.092 36.12 10.624L36.708 10.008ZM37.548 10.932H29.96V5.724H37.548V10.932ZM38.64 4.828H28.938V11.814H38.64V4.828ZM32.774 12.5C33.488 13.172 34.272 14.138 34.622 14.768L35.49 14.264C35.14 13.62 34.328 12.71 33.6 12.066L32.774 12.5ZM28.448 16.35C29.148 15.496 29.666 14.124 30.016 13.046L29.12 12.71C28.812 13.746 28.238 15.034 27.524 15.846L28.448 16.35ZM32.802 15.86C32.004 15.86 31.864 15.776 31.864 15.384V12.668H30.828V15.398C30.828 16.504 31.22 16.812 32.732 16.812H35.602C36.904 16.812 37.226 16.35 37.366 14.46C37.072 14.39 36.638 14.236 36.4 14.068C36.33 15.622 36.218 15.86 35.532 15.86H32.802ZM36.946 12.836C37.8 13.83 38.668 15.216 38.976 16.126L39.928 15.65C39.592 14.74 38.696 13.396 37.828 12.416L36.946 12.836ZM44.0109 16H45.3129V11.394H49.2329V10.302H45.3129V6.83H49.9329V5.738H44.0109V16ZM53.8544 16.182C54.8904 16.182 55.7024 15.832 56.3744 15.398L55.9124 14.558C55.3524 14.936 54.7504 15.16 54.0084 15.16C52.5664 15.16 51.5724 14.124 51.4884 12.5H56.6124C56.6404 12.318 56.6684 12.052 56.6684 11.772C56.6684 9.602 55.5764 8.202 53.6444 8.202C51.8804 8.202 50.2144 9.742 50.2144 12.206C50.2144 14.712 51.8384 16.182 53.8544 16.182ZM51.4744 11.59C51.6284 10.092 52.5804 9.224 53.6584 9.224C54.8484 9.224 55.5484 10.05 55.5484 11.59H51.4744ZM59.4416 16.182C60.3796 16.182 61.2336 15.692 61.9616 15.09H62.0036L62.1156 16H63.1656V11.324C63.1656 9.448 62.3816 8.202 60.5336 8.202C59.3156 8.202 58.2376 8.748 57.5376 9.196L58.0416 10.078C58.6436 9.672 59.4416 9.266 60.3236 9.266C61.5696 9.266 61.8916 10.204 61.8916 11.184C58.6576 11.548 57.2156 12.374 57.2156 14.026C57.2156 15.398 58.1676 16.182 59.4416 16.182ZM59.8056 15.16C59.0496 15.16 58.4616 14.81 58.4616 13.942C58.4616 12.962 59.3296 12.332 61.8916 12.024V14.152C61.1496 14.81 60.5476 15.16 59.8056 15.16ZM67.1529 16.182C67.6149 16.182 68.1189 16.042 68.5529 15.902L68.3009 14.95C68.0489 15.048 67.6989 15.146 67.4329 15.146C66.5509 15.146 66.2569 14.614 66.2569 13.676V9.434H68.3149V8.398H66.2569V6.27H65.1929L65.0389 8.398L63.8489 8.468V9.434H64.9829V13.648C64.9829 15.174 65.5289 16.182 67.1529 16.182ZM70.1599 16.182C70.6639 16.182 71.0839 15.79 71.0839 15.216C71.0839 14.642 70.6639 14.222 70.1599 14.222C69.6559 14.222 69.2359 14.642 69.2359 15.216C69.2359 15.79 69.6559 16.182 70.1599 16.182ZM77.1172 11.198C77.6912 10.848 78.2092 10.428 78.6852 10.008C79.3992 10.344 80.1832 10.792 80.8412 11.198H77.1172ZM78.8532 4.87V5.71H79.7352V5.752C79.7352 6.424 79.6512 7.334 78.9232 8.09C78.6992 7.502 78.2092 6.746 77.7192 6.158L77.0612 6.494C77.2712 6.76 77.4812 7.096 77.6772 7.418L76.0672 8.062V5.892C76.9492 5.626 77.9012 5.29 78.6292 4.912L77.8872 4.282C77.2572 4.674 76.1512 5.108 75.1712 5.388V7.866C75.1712 8.342 74.9192 8.538 74.7512 8.622C74.8772 8.846 75.0592 9.238 75.1432 9.448V9.476C75.3672 9.28 75.7312 9.084 78.0552 8.104C78.1392 8.286 78.2232 8.468 78.2792 8.622L78.5172 8.496C78.7132 8.622 78.9512 8.818 79.0912 8.972L78.7832 8.846C77.8312 9.952 76.1092 10.988 74.5552 11.576C74.7652 11.772 74.9892 12.066 75.1292 12.29C75.6752 12.052 76.2352 11.744 76.7812 11.422V11.926H78.3072V12.822H75.4092V13.578H78.3072V15.706C76.9772 15.79 75.7872 15.874 74.8632 15.916L75.0172 16.756C76.9492 16.63 79.8472 16.448 82.5772 16.224L82.5912 15.426L80.8972 15.538C81.1072 15.076 81.3312 14.53 81.5272 14.012L80.6872 13.774C80.5332 14.292 80.2672 15.048 80.0432 15.594L79.2312 15.65V13.578H82.0732V12.822H79.2312V11.926H80.9112V11.24C81.3312 11.506 81.6952 11.744 81.9612 11.968L82.5352 11.324C81.8072 10.722 80.4212 9.966 79.2452 9.448C79.3292 9.35 79.4132 9.252 79.4832 9.154L79.1472 9C80.3792 8.062 80.5192 6.774 80.5192 5.794V5.71H81.8072C81.7092 7.502 81.6112 8.174 81.4852 8.37C81.4012 8.482 81.3172 8.496 81.1632 8.496C81.0372 8.496 80.7432 8.496 80.3932 8.454C80.5052 8.678 80.5892 9.028 80.6032 9.294C80.9672 9.322 81.3452 9.308 81.5552 9.28C81.8352 9.252 82.0172 9.168 82.1852 8.958C82.4512 8.636 82.5632 7.712 82.6752 5.262C82.6892 5.122 82.6892 4.87 82.6892 4.87H78.8532ZM76.0112 14.054C76.3052 14.572 76.5712 15.258 76.6692 15.706L77.4812 15.44C77.3692 15.02 77.0752 14.348 76.7672 13.844L76.0112 14.054ZM84.2992 5.864H83.3332V13.466H84.2992V5.864ZM85.8112 4.548V15.762C85.8112 15.986 85.7132 16.056 85.4892 16.07C85.2792 16.07 84.5512 16.07 83.7392 16.056C83.8792 16.35 84.0192 16.784 84.0612 17.078C85.1812 17.078 85.8392 17.05 86.2452 16.882C86.6372 16.7 86.8052 16.406 86.8052 15.762V4.548H85.8112ZM90.8932 14.04V10.316H92.5733V9.35H90.8932V6.214H92.6993V5.234H88.1352V6.214H89.8432V9.35H88.2892V10.316H89.8432V14.334C89.1432 14.53 88.4992 14.698 87.9672 14.838L88.1912 15.818C89.5212 15.426 91.2852 14.894 92.9792 14.39L92.8392 13.48L90.8932 14.04ZM96.3253 8.916V12.276H94.2813V8.916H96.3253ZM97.2353 13.2V7.992H93.3853V14.11H94.2813V13.2H97.2353ZM100.707 5.192H92.9092V6.2H98.6213V15.678C98.6213 15.93 98.5373 16 98.2713 16.014C97.9773 16.028 97.0253 16.028 96.0033 16C96.1713 16.294 96.3253 16.77 96.3953 17.05C97.6693 17.064 98.5233 17.036 98.9992 16.868C99.4753 16.7 99.6573 16.378 99.6573 15.678V6.2H100.707V5.192ZM108.995 10.68L112.005 4.408L111.249 4.156L108.141 10.68L111.249 17.204L112.005 16.952L108.995 10.68ZM111.207 10.68L114.217 4.408L113.461 4.156L110.353 10.68L113.461 17.204L114.217 16.952L111.207 10.68ZM126.593 4.646H125.529V6.13H121.595V4.296H120.545V6.13H116.597V4.646H115.561V7.012H126.593V4.646ZM116.177 11.94H117.759V12.808H116.177V11.94ZM116.177 10.498H117.759V11.338H116.177V10.498ZM120.167 11.338H118.557V10.498H120.167V11.338ZM120.167 12.808H118.557V11.94H120.167V12.808ZM121.301 15.118V14.292H118.641V13.466H121.021V9.826H118.641V8.972H121.217V8.188H118.641V7.264H117.689V8.188H115.113V8.972H117.689V9.826H115.351V13.466H117.689V14.292H114.805V15.118H117.689V17.078H118.641V15.118H121.301ZM127.391 10.946H122.925V9C124.325 8.846 125.907 8.608 126.971 8.258L126.453 7.432C125.375 7.81 123.541 8.09 121.987 8.258V11.184C121.987 12.766 121.861 14.908 120.839 16.476C121.049 16.588 121.455 16.91 121.595 17.106C122.575 15.636 122.855 13.536 122.911 11.856H124.731V17.078H125.697V11.856H127.391V10.946ZM134.503 5.752H132.291C132.109 5.29 131.801 4.688 131.507 4.212L130.499 4.478C130.695 4.856 130.933 5.332 131.115 5.752H128.371V6.62H134.503V5.752ZM130.681 8.622C130.625 8.104 130.387 7.32 130.107 6.718L129.281 6.914C129.519 7.53 129.743 8.342 129.813 8.86L130.681 8.622ZM129.449 12.906C129.169 13.816 128.679 14.768 128.133 15.426C128.343 15.538 128.693 15.804 128.861 15.93C129.379 15.23 129.967 14.138 130.303 13.144L129.449 12.906ZM134.559 12.164V11.268H132.025V9.798H134.713V8.916H132.935C133.201 8.328 133.467 7.572 133.719 6.9L132.767 6.704C132.599 7.348 132.277 8.272 132.011 8.916H128.147V9.798H131.003V11.268H128.217V12.164H131.003V17.022H132.025V12.164H134.559ZM132.655 13.2C133.075 13.872 133.579 14.838 133.803 15.44L134.545 15.02C134.307 14.418 133.817 13.508 133.369 12.822L132.655 13.2ZM140.831 8.972H136.365V6.312C137.835 6.088 139.445 5.738 140.593 5.304L139.753 4.534C138.759 4.954 136.967 5.374 135.399 5.626V10.442C135.399 12.304 135.287 14.698 134.111 16.378C134.335 16.49 134.741 16.812 134.909 17.008C136.183 15.188 136.365 12.444 136.365 10.442V9.952H138.283V17.008H139.291V9.952H140.831V8.972ZM145.983 10.386H143.043V7.46H145.983V10.386ZM143.043 14.67V11.31H145.983V14.67H143.043ZM144.219 4.254C144.121 4.912 143.869 5.85 143.659 6.522H142.091V16.714H143.043V15.608H146.935V6.522H144.611C144.849 5.92 145.101 5.15 145.339 4.464L144.219 4.254ZM153.781 6.48H149.595C149.833 5.822 150.029 5.15 150.197 4.464L149.203 4.226C148.755 6.144 147.999 8.076 147.061 9.308C147.285 9.448 147.733 9.728 147.915 9.896C148.405 9.238 148.839 8.384 149.231 7.446H152.787C152.605 13.018 152.395 15.146 151.933 15.636C151.793 15.818 151.639 15.846 151.359 15.846C151.037 15.846 150.197 15.846 149.287 15.762C149.483 16.056 149.609 16.476 149.637 16.784C150.421 16.826 151.219 16.854 151.709 16.798C152.185 16.756 152.507 16.63 152.815 16.238C153.375 15.552 153.557 13.396 153.781 7.012V6.48ZM151.569 12.78C151.121 11.954 150.155 10.61 149.371 9.616L148.559 10.092C149.329 11.1 150.267 12.486 150.687 13.326L151.569 12.78ZM164.309 8.776V12.234H161.635V8.776H164.309ZM165.373 13.2V8.776H167.459V7.768H165.373V4.52H164.309V7.768H161.635V4.352H160.613V7.768H158.065V4.674H156.987V7.768H154.957V8.776H156.987V16.168H167.067V15.146H158.065V8.776H160.613V13.2H165.373ZM171.953 13.018C171.953 14.068 171.701 15.426 169.265 16.336C169.489 16.532 169.825 16.896 169.979 17.162C172.681 16.07 173.003 14.39 173.003 13.06V12.206H171.953V13.018ZM170.833 7.936H174.039V9.448H170.833V7.936ZM170.833 5.626H174.039V7.11H170.833V5.626ZM178.295 7.11H175.061V5.626H178.295V7.11ZM178.295 9.448H175.061V7.936H178.295V9.448ZM179.359 10.33V4.744H169.811V10.33H172.597C171.533 11.422 169.853 12.36 168.243 12.822C168.481 13.032 168.775 13.41 168.943 13.676C170.777 13.032 172.709 11.8 173.857 10.33H175.397C175.929 11.03 176.643 11.66 177.413 12.206H176.377V17.05H177.441V12.22C178.323 12.822 179.303 13.312 180.297 13.62C180.437 13.354 180.745 12.948 180.983 12.738C179.317 12.318 177.665 11.422 176.615 10.33H179.359ZM184.413 17.204L187.521 10.68L184.413 4.156L183.657 4.408L186.667 10.68L183.657 16.952L184.413 17.204ZM182.201 17.204L185.309 10.68L182.201 4.156L181.445 4.408L184.455 10.68L181.445 16.952L182.201 17.204Z" fill="#00E0B8"/>
</svg>
