<svg width="207" height="102" viewBox="0 0 207 102" fill="none" xmlns="http://www.w3.org/2000/svg">
<path opacity="0.8" d="M7.38 48.076V52.852H7.992V48.076H7.38ZM8.916 48.076V52.852H9.54V48.076H8.916ZM4.692 42.652V43.444H11.304V42.652H4.692ZM6.144 49.936V50.62H10.932V49.936H6.144ZM5.16 44.236V46.876C5.16 48.496 5.04 50.704 3.876 52.288C4.056 52.384 4.404 52.636 4.536 52.792C5.772 51.112 5.976 48.616 5.976 46.888V44.236H5.16ZM5.52 44.236V44.98H10.14V46.276H5.52V47.02H11.004V44.236H5.52ZM5.808 47.836V52.972H6.48V48.544H10.98V47.836H5.808ZM10.5 47.836V52.096C10.5 52.204 10.476 52.228 10.392 52.228C10.296 52.228 10.056 52.228 9.756 52.216C9.852 52.432 9.972 52.744 9.996 52.96C10.452 52.96 10.764 52.936 10.98 52.828C11.208 52.684 11.256 52.468 11.256 52.108V47.836H10.5ZM2.352 41.932C2.052 42.724 1.5 43.9 1.08 44.596L1.68 44.86C2.124 44.188 2.688 43.108 3.12 42.22L2.352 41.932ZM3.624 43.3C3 44.56 1.92 46.348 1.068 47.416L1.608 47.704C2.472 46.672 3.576 44.968 4.368 43.636L3.624 43.3ZM0.432 44.416C1.068 45.016 1.788 45.868 2.088 46.444L2.592 45.784C2.28 45.244 1.548 44.428 0.912 43.84L0.432 44.416ZM3.168 46.012C3.612 46.828 4.02 47.908 4.152 48.58L4.824 48.292C4.704 47.62 4.26 46.564 3.804 45.772L3.168 46.012ZM0.336 47.236L0.432 48.04C1.476 47.968 2.844 47.884 4.2 47.8V47.032C2.76 47.116 1.332 47.188 0.336 47.236ZM3.396 48.928C3.672 49.624 3.9 50.536 3.96 51.136L4.632 50.932C4.572 50.344 4.32 49.432 4.032 48.748L3.396 48.928ZM1.056 48.784C0.924 49.828 0.696 50.908 0.312 51.64C0.492 51.712 0.84 51.868 0.984 51.976C1.356 51.208 1.644 50.044 1.8 48.916L1.056 48.784ZM2.268 47.584V52.96H3.048V47.584H2.268ZM13.74 51.316V52.204H22.284V51.316H13.74ZM13.728 47.812V48.664H22.404V47.812H13.728ZM13.176 44.32V52.972H14.028V45.196H21.984V52.912H22.872V44.32H13.176ZM16.056 42.052V51.904H16.932V42.052H16.056ZM18.96 42.052V51.856H19.848V42.052H18.96ZM30.24 41.44H29.748V53.44H30.24V41.44ZM40.368 43.18V43.972H47.316V43.18H40.368ZM43.356 41.932V52.96H44.232V41.932H43.356ZM44.604 48.604L43.956 48.82C44.604 50.236 45.816 51.64 47.028 52.348C47.16 52.132 47.436 51.808 47.628 51.64C46.44 51.064 45.228 49.84 44.604 48.604ZM41.664 47.332H45.972V48.4H41.664V47.332ZM41.664 45.628H45.972V46.684H41.664V45.628ZM40.86 44.956V49.084H46.812V44.956H40.86ZM42.948 48.616C42.264 49.864 40.92 51.112 39.636 51.7C39.84 51.88 40.116 52.192 40.248 52.408C41.556 51.7 42.924 50.32 43.668 48.868L42.948 48.616ZM36.96 42.448V52.972H37.776V43.264H39.792V42.448H36.96ZM39.516 42.448V42.688C39.264 43.516 38.82 44.944 38.388 46.036C39.252 46.972 39.468 47.788 39.468 48.436C39.468 48.796 39.408 49.12 39.216 49.252C39.12 49.324 38.988 49.36 38.844 49.36C38.652 49.384 38.424 49.372 38.148 49.348C38.28 49.576 38.352 49.924 38.364 50.14C38.64 50.152 38.94 50.152 39.18 50.128C39.42 50.092 39.636 50.02 39.804 49.912C40.14 49.672 40.272 49.168 40.272 48.52C40.272 47.776 40.08 46.936 39.192 45.94C39.6 44.98 40.044 43.744 40.392 42.76L39.816 42.412L39.672 42.448H39.516ZM48.672 46.156V46.924H59.4V46.156H48.672ZM49.272 42.952V43.708H58.968V42.952H49.272ZM53.508 41.932V43.444H54.42V41.932H53.508ZM49.62 46.54V48.148C49.62 49.408 49.464 51.16 48.324 52.444C48.528 52.552 48.9 52.852 49.044 53.02C50.268 51.64 50.52 49.6 50.52 48.16V46.54H49.62ZM50.868 44.224C52.872 44.704 55.332 45.58 56.676 46.204L57.36 45.676C55.956 45.076 53.496 44.224 51.576 43.756L50.868 44.224ZM56.352 43.444C55.116 44.404 52.524 45.244 50.448 45.676C50.568 45.832 50.736 46.12 50.808 46.288C52.98 45.808 55.524 44.908 57.036 43.816L56.352 43.444ZM56.364 46.792C55.248 47.488 53.124 48.004 51.336 48.244C51.516 48.424 51.696 48.7 51.816 48.892C53.688 48.58 55.812 48.004 57.096 47.188L56.364 46.792ZM57.108 48.244C55.92 49.168 53.592 49.828 51.444 50.14C51.624 50.32 51.804 50.608 51.912 50.812C54.168 50.428 56.508 49.708 57.876 48.64L57.108 48.244ZM58.212 49.672C56.796 51.124 53.904 51.928 50.712 52.264C50.88 52.468 51.06 52.804 51.144 53.032C54.48 52.624 57.432 51.736 59.028 50.08L58.212 49.672ZM60.552 49.684V50.428H71.448V49.684H60.552ZM60.792 43.228V43.96H71.16V43.228H60.792ZM62.316 47.164V47.716H69.612V47.164H62.316ZM67.764 48.808V51.964C67.764 52.12 67.716 52.156 67.5 52.18C67.296 52.18 66.648 52.18 65.856 52.156C65.988 52.408 66.12 52.732 66.168 52.972C67.128 52.972 67.752 52.972 68.148 52.84C68.532 52.72 68.64 52.48 68.64 51.976V48.808H67.764ZM62.7 50.932C63.42 51.376 64.272 52.06 64.668 52.54L65.268 51.952C64.848 51.472 63.972 50.824 63.264 50.392L62.7 50.932ZM62.892 42.208C63.252 42.592 63.672 43.132 63.864 43.48L64.632 43.12C64.416 42.772 63.984 42.256 63.624 41.896L62.892 42.208ZM62.58 45.268H69.384V48.34H62.58V45.268ZM61.752 44.68V48.928H70.248V44.68H61.752ZM68.172 41.908C67.98 42.328 67.608 42.952 67.32 43.348L67.992 43.6C68.328 43.24 68.736 42.7 69.096 42.184L68.172 41.908ZM66.564 43.576V45.748C66.564 46.42 66.78 46.564 67.68 46.564C67.86 46.564 69.024 46.564 69.216 46.564C69.756 46.564 69.972 46.456 70.032 46.168C69.828 46.144 69.564 46.072 69.396 45.976C69.372 46.036 69.312 46.048 69.096 46.048C68.88 46.048 67.944 46.048 67.764 46.048C67.416 46.048 67.356 46 67.356 45.76V43.576H66.564ZM64.548 43.564V45.004C64.548 45.568 64.344 46.18 62.796 46.468C62.952 46.6 63.156 46.876 63.24 47.044C64.956 46.6 65.328 45.808 65.328 45.004V43.564H64.548ZM79.3008 43.4688H80.3965L83.1914 50.4238L85.9805 43.4688H87.082L83.6133 52H82.7578L79.3008 43.4688ZM78.9434 43.4688H79.9102L80.0684 48.6719V52H78.9434V43.4688ZM86.4668 43.4688H87.4336V52H86.3086V48.6719L86.4668 43.4688ZM90.4336 45.6602V52H89.3438V45.6602H90.4336ZM89.2617 43.9785C89.2617 43.8027 89.3145 43.6543 89.4199 43.5332C89.5293 43.4121 89.6895 43.3516 89.9004 43.3516C90.1074 43.3516 90.2656 43.4121 90.375 43.5332C90.4883 43.6543 90.5449 43.8027 90.5449 43.9785C90.5449 44.1465 90.4883 44.291 90.375 44.4121C90.2656 44.5293 90.1074 44.5879 89.9004 44.5879C89.6895 44.5879 89.5293 44.5293 89.4199 44.4121C89.3145 44.291 89.2617 44.1465 89.2617 43.9785ZM93.2637 43V52H92.1738V43H93.2637ZM97.1367 45.6602L94.3711 48.6191L92.8242 50.2246L92.7363 49.0703L93.8438 47.7461L95.8125 45.6602H97.1367ZM96.1465 52L93.8848 48.9766L94.4473 48.0098L97.4238 52H96.1465ZM100.77 52.1172C100.328 52.1172 99.9277 52.043 99.5684 51.8945C99.2129 51.7422 98.9062 51.5293 98.6484 51.2559C98.3945 50.9824 98.1992 50.6582 98.0625 50.2832C97.9258 49.9082 97.8574 49.498 97.8574 49.0527V48.8066C97.8574 48.291 97.9336 47.832 98.0859 47.4297C98.2383 47.0234 98.4453 46.6797 98.707 46.3984C98.9688 46.1172 99.2656 45.9043 99.5977 45.7598C99.9297 45.6152 100.273 45.543 100.629 45.543C101.082 45.543 101.473 45.6211 101.801 45.7773C102.133 45.9336 102.404 46.1523 102.615 46.4336C102.826 46.7109 102.982 47.0391 103.084 47.418C103.186 47.793 103.236 48.2031 103.236 48.6484V49.1348H98.502V48.25H102.152V48.168C102.137 47.8867 102.078 47.6133 101.977 47.3477C101.879 47.082 101.723 46.8633 101.508 46.6914C101.293 46.5195 101 46.4336 100.629 46.4336C100.383 46.4336 100.156 46.4863 99.9492 46.5918C99.7422 46.6934 99.5645 46.8457 99.416 47.0488C99.2676 47.252 99.1523 47.5 99.0703 47.793C98.9883 48.0859 98.9473 48.4238 98.9473 48.8066V49.0527C98.9473 49.3535 98.9883 49.6367 99.0703 49.9023C99.1562 50.1641 99.2793 50.3945 99.4395 50.5938C99.6035 50.793 99.8008 50.9492 100.031 51.0625C100.266 51.1758 100.531 51.2324 100.828 51.2324C101.211 51.2324 101.535 51.1543 101.801 50.998C102.066 50.8418 102.299 50.6328 102.498 50.3711L103.154 50.8926C103.018 51.0996 102.844 51.2969 102.633 51.4844C102.422 51.6719 102.162 51.8242 101.854 51.9414C101.549 52.0586 101.188 52.1172 100.77 52.1172Z" fill="white"/>
<path d="M202.929 25.1299L0 25.1299L0 26.0199L202.929 26.0199V25.1299Z" fill="white"/>
<path d="M207 22L190 22V29H207V22Z" fill="#00E0B8"/>
<path d="M5.488 11.408V14.334H2.464V11.408H5.488ZM6.496 15.272V10.484H4.536V7.992H7.112V6.984H4.536V4.282H3.486V6.984H0.84V7.992H3.486V10.484H1.456V16.252H2.464V15.272H6.496ZM12.81 5.08H8.008V9.714C8.008 11.842 7.84 14.614 6.048 16.532C6.314 16.644 6.734 16.938 6.902 17.12C8.764 15.09 9.03 11.982 9.03 9.714V6.032H11.802V9.294C11.354 8.832 10.444 8.118 9.688 7.572L9.072 8.16C9.814 8.706 10.71 9.504 11.158 9.994L11.802 9.322V10.82C10.752 11.38 9.716 11.912 8.988 12.262L9.478 13.228C10.178 12.808 10.99 12.29 11.802 11.8V15.664C11.802 15.888 11.718 15.972 11.494 15.972C11.298 15.972 10.556 15.986 9.772 15.958C9.912 16.238 10.066 16.7 10.08 16.966C11.172 16.966 11.858 16.952 12.264 16.77C12.67 16.602 12.81 16.294 12.81 15.664V5.08ZM24.038 13.27C23.324 13.97 22.344 14.516 21.224 14.964C20.16 14.586 19.222 14.124 18.48 13.564C18.578 13.466 18.69 13.368 18.802 13.27H24.038ZM17.458 10.246H24.514V11.086H17.458V10.246ZM17.458 8.748H24.514V9.574H17.458V8.748ZM17.458 7.264H24.514V8.076H17.458V7.264ZM24.962 12.444L24.78 12.5H19.558C19.782 12.248 19.964 12.01 20.146 11.744H25.55V6.592H21.168C21.266 6.34 21.364 6.088 21.462 5.794H26.894V4.926H15.092V5.794H20.328C20.272 6.06 20.202 6.326 20.132 6.592H16.45V11.744H18.984C18.662 12.136 18.27 12.556 17.794 12.948C17.542 12.724 17.318 12.458 17.122 12.178L16.338 12.514C16.576 12.85 16.842 13.158 17.108 13.452C16.562 13.816 15.918 14.166 15.204 14.46C15.414 14.614 15.722 14.95 15.862 15.16C16.59 14.838 17.22 14.46 17.808 14.068C18.438 14.572 19.18 15.006 19.978 15.384C18.48 15.818 16.786 16.098 15.176 16.224C15.33 16.448 15.484 16.812 15.554 17.064C17.472 16.854 19.46 16.49 21.21 15.86C22.834 16.42 24.738 16.742 26.796 16.896C26.908 16.63 27.118 16.266 27.314 16.042C25.55 15.93 23.912 15.706 22.47 15.342C23.758 14.712 24.85 13.9 25.578 12.864L24.962 12.444ZM36.274 10.68L39.284 4.408L38.528 4.156L35.42 10.68L38.528 17.204L39.284 16.952L36.274 10.68ZM38.486 10.68L41.496 4.408L40.74 4.156L37.632 10.68L40.74 17.204L41.496 16.952L38.486 10.68ZM54.866 6.984C54.404 6.326 53.438 5.346 52.626 4.66L51.828 5.206C52.654 5.92 53.592 6.928 54.026 7.586L54.866 6.984ZM53.606 10.036C53.13 10.932 52.514 11.786 51.772 12.584C51.534 11.66 51.338 10.582 51.198 9.392H55.202V8.398H51.086C50.974 7.152 50.918 5.808 50.918 4.408H49.854C49.868 5.78 49.924 7.124 50.05 8.398H46.844V5.962C47.698 5.78 48.51 5.556 49.182 5.318L48.44 4.464C47.124 4.954 44.87 5.43 42.91 5.724C43.05 5.976 43.19 6.34 43.246 6.592C44.072 6.48 44.954 6.34 45.822 6.172V8.398H42.826V9.392H45.822V11.842C44.604 12.094 43.47 12.332 42.63 12.472L42.924 13.522C43.764 13.34 44.772 13.102 45.822 12.878V15.72C45.822 15.972 45.738 16.042 45.486 16.042C45.248 16.056 44.422 16.07 43.526 16.028C43.68 16.322 43.862 16.798 43.918 17.078C45.052 17.078 45.808 17.05 46.242 16.882C46.676 16.714 46.844 16.406 46.844 15.734V12.626C47.698 12.43 48.566 12.234 49.42 12.024L49.35 11.086C48.524 11.268 47.67 11.45 46.844 11.632V9.392H50.134C50.316 10.904 50.582 12.29 50.918 13.452C49.924 14.376 48.776 15.146 47.6 15.72C47.866 15.944 48.16 16.294 48.314 16.546C49.364 16 50.358 15.3 51.268 14.488C51.912 16.126 52.752 17.106 53.858 17.106C54.908 17.106 55.272 16.434 55.468 14.124C55.174 14.026 54.81 13.788 54.586 13.564C54.502 15.356 54.334 16.07 53.956 16.07C53.256 16.07 52.626 15.174 52.094 13.704C53.074 12.71 53.9 11.604 54.53 10.414L53.606 10.036ZM64.806 7.978C64.47 7.6 63.826 7.04 63.252 6.592C63.49 5.934 63.7 5.206 63.854 4.45L62.846 4.296C62.454 6.41 61.628 8.202 60.312 9.35C60.55 9.49 60.942 9.868 61.096 10.05C61.824 9.364 62.426 8.468 62.902 7.432C63.434 7.88 63.994 8.412 64.302 8.776L64.806 7.978ZM59.444 4.296C58.828 5.276 57.596 6.48 56.504 7.208C56.686 7.39 56.952 7.754 57.092 7.964C58.268 7.124 59.57 5.836 60.396 4.646L59.444 4.296ZM59.78 7.124C58.954 8.594 57.624 10.05 56.35 10.988C56.518 11.212 56.84 11.702 56.938 11.912C57.47 11.492 58.002 10.974 58.52 10.414V17.106H59.486V9.28C59.948 8.678 60.354 8.062 60.704 7.446L59.78 7.124ZM65.59 12.976H68.698V12.094H65.59V9.742H65.044C65.702 9.168 66.248 8.454 66.668 7.586C67.466 8.342 68.32 9.238 68.768 9.854L69.482 9.14C68.978 8.482 67.942 7.474 67.032 6.704C67.284 6.018 67.466 5.248 67.592 4.422L66.598 4.296C66.29 6.48 65.506 8.174 64.092 9.21C64.288 9.322 64.596 9.56 64.806 9.742H64.624V15.594C63.742 15.174 63.084 14.362 62.664 12.878C62.776 12.248 62.86 11.562 62.902 10.82L61.908 10.75C61.768 13.298 61.278 15.188 59.85 16.364C60.074 16.518 60.494 16.868 60.634 17.036C61.418 16.322 61.95 15.426 62.3 14.348C63.224 16.42 64.68 16.924 66.766 16.924H69.09C69.118 16.658 69.272 16.21 69.412 15.986H66.822C66.388 15.986 65.968 15.958 65.59 15.888V12.976ZM73.178 6.578V12.416H71.89V6.578H73.178ZM74.004 13.382V5.626H71.078V14.754H71.89V13.382H74.004ZM76.496 11.59C76.608 10.722 76.636 9.882 76.636 9.14H77.812C77.798 10.078 77.798 10.89 77.784 11.59H76.496ZM76.636 5.878H77.826L77.812 8.244H76.636V5.878ZM78.694 4.968H74.536V5.878H75.768V8.244H74.522V9.14H75.768C75.768 9.896 75.74 10.736 75.642 11.59H74.508V12.5H75.502C75.25 13.9 74.732 15.314 73.738 16.462C73.92 16.588 74.256 16.924 74.368 17.106C75.502 15.804 76.09 14.124 76.37 12.5H77.77C77.728 14.67 77.644 15.608 77.518 15.874C77.406 16.098 77.308 16.14 77.126 16.126C76.902 16.126 76.454 16.126 75.964 16.098C76.118 16.364 76.202 16.756 76.202 17.036C76.706 17.064 77.168 17.064 77.518 17.008C77.868 16.966 78.106 16.854 78.302 16.476C78.666 15.874 78.666 13.396 78.694 5.5V4.968ZM82.614 4.926L82.488 4.968H79.576V17.078H80.458V5.85H82.152C81.886 6.942 81.466 8.524 81.074 9.728C82.026 10.988 82.222 12.066 82.222 12.934C82.222 13.438 82.166 13.914 81.97 14.068C81.858 14.166 81.718 14.208 81.564 14.208C81.368 14.222 81.13 14.222 80.864 14.194C81.018 14.46 81.074 14.838 81.088 15.09C81.368 15.118 81.662 15.104 81.914 15.076C82.166 15.034 82.418 14.964 82.6 14.81C82.964 14.53 83.104 13.872 83.104 13.06C83.104 12.066 82.88 10.946 81.928 9.63C82.362 8.356 82.866 6.634 83.258 5.318L82.614 4.926ZM88.018 6.018C87.78 5.542 87.29 4.814 86.856 4.254L86.114 4.73C86.52 5.304 87.024 6.088 87.234 6.578L88.018 6.018ZM89.488 12.528C89.32 12.332 88.9 11.8 88.452 11.296C88.844 10.932 89.306 10.442 89.712 9.994L89.082 9.42C88.83 9.812 88.382 10.358 87.99 10.792C87.822 10.582 87.654 10.4 87.528 10.274V10.246C88.186 9.28 88.774 8.216 89.166 7.138L88.634 6.718L88.466 6.76H84.714V7.712H87.962C87.136 9.476 85.68 11.268 84.336 12.304C84.504 12.486 84.756 13.018 84.84 13.298C85.414 12.808 86.002 12.206 86.576 11.52V17.064H87.528V11.436C88.032 12.108 88.634 12.92 88.9 13.368L89.488 12.528ZM90.972 10.372V8.496H92.862V10.372H90.972ZM90.972 5.808H92.862V7.642H90.972V5.808ZM95.788 7.642H93.842V5.808H95.788V7.642ZM95.788 10.372H93.842V8.496H95.788V10.372ZM93.842 15.79V13.76H96.866V12.836H93.842V11.268H96.768V4.898H90.02V11.268H92.862V12.836H90.02V13.76H92.862V15.79H89.446V16.728H97.37V15.79H93.842ZM108.08 7.572C107.772 9.126 107.1 10.484 106.092 11.352C106.344 11.464 106.764 11.758 106.96 11.912C107.436 11.464 107.842 10.904 108.192 10.26C109.018 10.946 109.9 11.73 110.376 12.262L111.118 11.548C110.558 10.974 109.48 10.078 108.598 9.392C108.794 8.874 108.962 8.328 109.074 7.74L108.08 7.572ZM101.486 7.572C101.08 9.378 100.212 10.876 98.938 11.828C99.176 11.982 99.582 12.318 99.764 12.5C100.45 11.926 101.052 11.184 101.528 10.302C102.032 10.792 102.55 11.31 102.83 11.66L103.544 10.946C103.194 10.54 102.55 9.924 101.962 9.406C102.172 8.888 102.368 8.342 102.508 7.754L101.486 7.572ZM105.49 7.25H111.048V6.228H105.49V4.296H104.426V6.228H99.064V7.25H104.426V10.666C103.138 12.696 100.828 14.628 98.574 15.552C98.812 15.762 99.148 16.168 99.302 16.42C101.164 15.552 103.04 14.04 104.426 12.262V17.064H105.49V12.22C106.848 14.04 108.752 15.608 110.684 16.462C110.852 16.182 111.188 15.762 111.454 15.538C109.074 14.642 106.736 12.668 105.49 10.568V7.25ZM115.472 17.204L118.58 10.68L115.472 4.156L114.716 4.408L117.726 10.68L114.716 16.952L115.472 17.204ZM113.26 17.204L116.368 10.68L113.26 4.156L112.504 4.408L115.514 10.68L112.504 16.952L113.26 17.204Z" fill="#00E0B8"/>
</svg>
