<svg width="712" height="163" viewBox="0 0 712 163" fill="none" xmlns="http://www.w3.org/2000/svg">
<path d="M610 39.0002H118V79.0002H610V39.0002Z" fill="#00E0B8"/>
<path d="M91 126V75.0002H711V126H91Z" fill="white" stroke="#00E0B8" stroke-width="2"/>
<path d="M710 76H696V125H710V76Z" fill="#00E0B8"/>
<path d="M81.3327 146.969C117.539 146.969 146.89 117.618 146.89 81.4121C146.89 45.2058 117.539 15.8547 81.3327 15.8547C45.1263 15.8547 15.7753 45.2058 15.7753 81.4121C15.7753 117.618 45.1263 146.969 81.3327 146.969Z" fill="white"/>
<path d="M81.3008 79.27C81.8171 79.2653 82.3173 79.449 82.7078 79.7868C83.0982 80.1245 83.3521 80.5931 83.4218 81.1046H94.1111C94.0012 77.7691 92.595 74.608 90.1914 72.2928C87.7877 69.9777 84.5761 68.691 81.2388 68.7062C77.9016 68.7214 74.7018 70.0372 72.3193 72.3742C69.9369 74.7111 68.5595 77.8849 68.4799 81.2212H79.1693C79.2122 80.6868 79.4559 80.1885 79.8513 79.8264C80.2468 79.4644 80.7647 79.2656 81.3008 79.27Z" fill="url(#paint0_linear_72_109)"/>
<path d="M81.3008 83.5754C80.7862 83.5805 80.2873 83.3982 79.897 83.0626C79.5068 82.727 79.252 82.261 79.1799 81.7514H68.4905C68.6005 85.0869 70.0067 88.248 72.4103 90.5632C74.8139 92.8783 78.0256 94.165 81.3628 94.1498C84.7001 94.1346 87.8999 92.8188 90.2823 90.4818C92.6648 88.1449 94.0422 84.9711 94.1217 81.6348L83.443 81.6878C83.3849 82.2126 83.1332 82.6969 82.7371 83.046C82.3409 83.3951 81.8288 83.5839 81.3008 83.5754Z" fill="url(#paint1_linear_72_109)"/>
<path d="M81.11 35.2718C71.9818 35.3138 63.0712 38.0619 55.5049 43.1683C47.9387 48.2748 42.0567 55.5103 38.6028 63.9599C35.1489 72.4095 34.2783 81.6935 36.101 90.6379C37.9238 99.5823 42.358 107.785 48.843 114.209C55.3279 120.634 63.5723 124.99 72.5335 126.729C81.4946 128.467 90.7701 127.509 99.1867 123.976C107.603 120.442 114.783 114.492 119.818 106.878C124.853 99.2644 127.517 90.3282 127.473 81.2001C127.445 75.1399 126.224 69.1446 123.879 63.5565C121.534 57.9685 118.111 52.8971 113.805 48.6321C109.5 44.3671 104.397 40.992 98.7866 38.6997C93.1767 36.4073 87.1701 35.2425 81.11 35.2718ZM52.4777 109.673C52.1701 109.376 51.6929 108.963 51.1415 108.38C49.5501 106.742 48.1058 104.968 46.8254 103.077C44.916 100.255 43.3964 97.1868 42.3079 93.9574C39.562 85.9602 39.521 77.2821 42.1912 69.2594C43.2505 66.0148 44.7453 62.929 46.6345 60.0864C47.8882 58.1965 49.3077 56.4221 50.8764 54.7842C51.4172 54.2009 51.9368 53.7873 52.1913 53.4798L52.6579 53.0344L52.2337 53.5328C51.9686 53.8616 51.5445 54.3069 51.046 54.9432C49.6414 56.7076 48.3723 58.5758 47.2496 60.5318C45.5962 63.4107 44.3 66.4804 43.3896 69.673C41.1194 77.4949 41.1563 85.8059 43.4956 93.6074C44.4418 96.7957 45.77 99.8578 47.4511 102.727C48.5896 104.672 49.8766 106.527 51.3006 108.274C51.799 108.899 52.2231 109.334 52.4989 109.673L52.923 110.161L52.4777 109.673ZM55.1182 104.827L54.291 104C53.9835 103.714 53.7184 103.321 53.3897 102.939L52.3292 101.688L51.7884 101.009L51.2793 100.235C50.4882 99.1034 49.7795 97.9162 49.1584 96.6828C48.8403 96.0147 48.4373 95.3466 48.1616 94.5619L47.3663 92.3243C44.9281 85.3604 44.8759 77.7833 47.2178 70.7864C47.5041 70.0017 47.7904 69.2382 48.0662 68.4958C48.3419 67.7535 48.7342 67.0748 49.0524 66.3749C49.6671 65.1313 50.3761 63.9365 51.1733 62.8012C51.343 62.5361 51.502 62.271 51.6717 62.0271L52.2125 61.3271L53.2094 60.0758C53.4849 59.7079 53.7787 59.354 54.0895 59.0154L54.9167 58.1776L56.4438 56.6506C56.4438 56.6506 55.9666 57.255 55.0864 58.3367L54.3653 59.2381C54.0896 59.5562 53.8669 59.9592 53.5805 60.3727L52.6685 61.7407L52.2019 62.4618L51.7778 63.2572C51.1021 64.4205 50.5068 65.6287 49.9962 66.8733C49.7311 67.5414 49.3917 68.2095 49.1584 68.9412L48.4267 71.2C46.4571 77.975 46.4902 85.1753 48.5222 91.9319L49.2539 94.1801C49.4978 94.9224 49.8477 95.5799 50.1128 96.248C50.6314 97.4877 51.2374 98.6891 51.9262 99.8429L52.361 100.638L52.8382 101.349L53.7184 102.653C54.0047 103.056 54.2274 103.459 54.5031 103.777L55.2454 104.668L56.6134 106.354L55.1182 104.827ZM59.0313 101.306L58.3208 100.617C58.0557 100.363 57.833 100.044 57.5572 99.7263L56.6877 98.6658L56.2211 98.0932L55.7863 97.4357C55.1128 96.477 54.5102 95.4705 53.9835 94.424C53.7078 93.8513 53.3578 93.2893 53.1139 92.653C52.87 92.0167 52.6261 91.3699 52.361 90.7124C51.3589 87.7632 50.8257 84.6751 50.7809 81.5607C50.8043 78.4443 51.3086 75.3502 52.2762 72.3877L53.0185 70.4365C53.2518 69.8002 53.5911 69.2382 53.8563 68.6655C54.3779 67.6138 54.9732 66.6004 55.6378 65.6326L56.062 64.9751L56.5286 64.3919C56.8255 64.0101 57.1118 63.6602 57.3876 63.3314C57.6267 63.0183 57.8815 62.7174 58.1511 62.43L58.851 61.7301L60.166 60.4364L59.0313 61.8892L58.4162 62.6527C58.1829 62.9284 58.0026 63.2784 57.7693 63.6177C57.536 63.9571 57.2921 64.3388 57.0376 64.7418L56.6346 65.3463L56.2847 66.025C55.7209 67.0154 55.2249 68.0428 54.8001 69.1003C54.5774 69.673 54.291 70.235 54.1002 70.85C53.9093 71.4651 53.6972 72.112 53.4957 72.7695C51.8552 78.5088 51.8846 84.5968 53.5805 90.32C53.7926 90.9669 53.9941 91.6032 54.1956 92.2288C54.3971 92.8545 54.6834 93.4059 54.9167 93.9786C55.3527 95.0278 55.8557 96.048 56.4226 97.0327L56.7937 97.7114L57.1861 98.3158L57.9708 99.4187C58.2147 99.7581 58.4056 100.108 58.6389 100.384L59.254 101.137L60.3568 102.6L59.0313 101.306ZM62.9868 97.7856C62.5374 97.3902 62.1224 96.9574 61.746 96.4919L61.0249 95.6329L60.622 95.1769L60.2614 94.6361C59.6901 93.8547 59.183 93.0284 58.745 92.1652C58.5117 91.688 58.2253 91.2214 58.0238 90.7124L57.3982 89.1005C56.5506 86.668 56.0994 84.1151 56.062 81.5395C56.0823 78.965 56.5082 76.4097 57.3239 73.9678L57.939 72.3559C58.1405 71.8363 58.4162 71.3697 58.6495 70.9031C59.0813 70.0364 59.5776 69.2034 60.1341 68.411L60.4947 67.8702L60.8765 67.393L61.5976 66.5234C61.9702 66.0581 62.3779 65.622 62.8171 65.219L63.8776 64.1586L62.955 65.3675C62.5629 65.8187 62.2082 66.301 61.8945 66.8097L61.3006 67.7323L60.9825 68.2307L60.6962 68.7928C60.2406 69.6099 59.8403 70.4566 59.4979 71.3273C59.3176 71.7939 59.0843 72.2605 58.9358 72.7695C58.7874 73.2785 58.6177 73.8299 58.4586 74.339C57.1504 79.0388 57.1724 84.0095 58.5223 88.6975L59.0207 90.267C59.1797 90.776 59.413 91.2426 59.5933 91.7092C59.9468 92.5717 60.3541 93.4111 60.8128 94.2225L61.1098 94.7845L61.4279 95.283L62.0324 96.2055C62.3493 96.7054 62.7038 97.1805 63.0928 97.6266C63.6867 98.4007 64.026 98.8249 64.026 98.8249L62.9868 97.7856ZM66.9317 94.2649C66.5732 93.9599 66.2399 93.6266 65.9348 93.2681L65.3516 92.6L65.0441 92.2288L64.7471 91.8152C64.2915 91.2006 63.8838 90.5518 63.5276 89.8746C63.3121 89.5076 63.1174 89.1288 62.9444 88.7399L62.4353 87.478C61.7602 85.5586 61.4021 83.5421 61.3749 81.5076C61.4085 79.4703 61.7665 77.4513 62.4353 75.5267L62.9338 74.2647C63.1034 73.8511 63.3261 73.48 63.5064 73.1194C63.8573 72.4404 64.2578 71.7882 64.7047 71.1682L64.991 70.744L65.3092 70.3728L65.8818 69.7048C66.1751 69.3232 66.5016 68.9684 66.8574 68.6443L67.7376 67.8384L67.0377 68.7928C66.7574 69.159 66.4989 69.5414 66.2636 69.9381L65.8076 70.6698L65.5637 71.0727L65.3516 71.5075C65.0059 72.1507 64.7048 72.8168 64.4502 73.5012C64.3123 73.8617 64.1321 74.2329 64.0154 74.6253L63.6549 75.8554C62.6581 79.5145 62.6581 83.3736 63.6549 87.0326L64.026 88.2521C64.1533 88.6551 64.3335 89.0157 64.4714 89.3868C64.7302 90.066 65.0386 90.7252 65.394 91.3593L65.6167 91.8047L65.8606 92.197L66.3166 92.9287C66.5457 93.3428 66.8044 93.7397 67.0907 94.1164L67.8012 95.0709L66.9317 94.2649ZM82.9233 96.1101C79.888 96.4372 76.8258 95.8165 74.1573 94.3332C71.4889 92.8499 69.3452 90.5769 68.0206 87.8262C66.696 85.0756 66.2556 81.9823 66.7597 78.9713C67.2639 75.9602 68.6879 73.1791 70.8362 71.01C72.9846 68.8408 75.7518 67.39 78.7578 66.8569C81.7639 66.3237 84.8612 66.7343 87.6245 68.0323C90.3878 69.3303 92.6815 71.452 94.1904 74.106C95.6993 76.76 96.3496 79.816 96.0518 82.8544C95.7084 86.2336 94.2168 89.3928 91.8257 91.8051C89.4346 94.2174 86.2887 95.7369 82.9127 96.1101H82.9233ZM97.7697 92.0804L97.4622 92.4515L96.8895 93.1302C96.5849 93.4888 96.2553 93.8254 95.9033 94.1376L95.0231 94.9436L95.723 93.9786C96.0132 93.6172 96.2755 93.2343 96.5078 92.8333L96.9532 92.1016L97.1971 91.7092L97.4198 91.2638C97.7592 90.6212 98.0602 89.959 98.3212 89.2808C98.459 88.9096 98.6287 88.549 98.7453 88.1461C98.862 87.7431 98.9892 87.3401 99.1059 86.9159C99.5782 85.0902 99.8239 83.2132 99.8376 81.3274C99.802 79.4397 99.5385 77.5632 99.0529 75.7388L98.6817 74.5192C98.5651 74.1162 98.3848 73.7557 98.2469 73.3951C97.9792 72.7163 97.6711 72.0541 97.3243 71.4121L97.1016 70.9773C97.0168 70.8394 96.9319 70.7122 96.8577 70.5743C96.7835 70.4365 96.5396 70.0759 96.4017 69.8532C96.1654 69.4556 95.8995 69.0763 95.6064 68.7185L94.8959 67.7641L95.7867 68.5595C96.144 68.8622 96.474 69.1957 96.7729 69.5563L97.3561 70.2244L97.6743 70.5956L97.9606 71.0091C98.4162 71.6238 98.8239 72.2726 99.1801 72.9498C99.3604 73.3103 99.5937 73.6815 99.7634 74.0844C99.933 74.4874 100.092 74.9222 100.272 75.357C101.682 79.2092 101.701 83.4332 100.325 87.2977L99.827 88.5703C99.6679 88.9732 99.4452 89.3444 99.2543 89.7156C98.9089 90.3943 98.5082 91.0434 98.056 91.6562L97.7697 92.0804ZM101.821 95.442L101.11 96.3116C100.737 96.7799 100.326 97.2162 99.88 97.6159L98.8196 98.6764L99.7422 97.4675C100.128 97.0155 100.483 96.5371 100.803 96.0359L101.386 95.1027L101.715 94.6042C101.799 94.424 101.895 94.2331 102.001 94.0422C102.449 93.2263 102.845 92.3834 103.189 91.5183C103.369 91.0411 103.602 90.5851 103.751 90.0655L104.238 88.496C105.551 83.7962 105.525 78.8235 104.164 74.1375L103.676 72.568C103.517 72.059 103.284 71.603 103.093 71.1364C102.746 70.2676 102.339 69.4243 101.874 68.6125L101.587 68.061L101.259 67.5521L100.665 66.64C100.349 66.1361 99.9943 65.6575 99.6043 65.2084L98.6817 64.0101L99.7422 65.0706C100.189 65.4686 100.604 65.9012 100.983 66.3643L101.704 67.2233L102.096 67.7005L102.457 68.2307C103.021 69.0187 103.524 69.8482 103.963 70.7122C104.196 71.1788 104.482 71.6454 104.684 72.165C104.885 72.6846 105.108 73.2255 105.32 73.7663C107.062 78.6559 107.088 83.9926 105.394 88.899C105.182 89.4504 104.97 89.9595 104.779 90.5109C104.588 91.0623 104.292 91.4971 104.069 91.9743C103.634 92.838 103.134 93.6675 102.574 94.4558C102.46 94.6467 102.344 94.8269 102.224 94.9966L101.821 95.442ZM105.331 99.493C105.094 99.8083 104.839 100.109 104.567 100.394L103.867 101.094L102.51 102.388L103.655 100.946L104.26 100.172C104.498 99.8637 104.718 99.5414 104.917 99.2066C105.136 98.8602 105.38 98.4891 105.649 98.0932L106.041 97.4781L106.402 96.7994C106.961 95.8105 107.457 94.7868 107.886 93.7347C108.109 93.1621 108.395 92.6 108.586 91.9743L109.18 90.0549C109.965 87.1935 110.372 84.2415 110.389 81.2743C110.343 78.3078 109.911 75.3598 109.106 72.5044L108.48 70.6061C108.289 69.9805 107.993 69.4185 107.77 68.8458C107.331 67.7962 106.824 66.776 106.253 65.7917L105.893 65.113L105.49 64.5085L104.748 63.3951C104.546 63.0652 104.326 62.7466 104.09 62.4406L103.475 61.6771L102.319 60.2349L103.645 61.5181L104.355 62.218C104.628 62.5013 104.887 62.7986 105.129 63.1087L105.988 64.1692L106.465 64.7524C106.603 64.9645 106.752 65.1766 106.89 65.3993C107.569 66.3599 108.175 67.3701 108.703 68.4216C108.979 68.9836 109.318 69.5563 109.562 70.182L110.315 72.1332C112.406 78.0539 112.436 84.5075 110.4 90.4473C110.156 91.1154 109.901 91.7728 109.668 92.3985C109.435 93.0242 109.095 93.6074 108.82 94.1801C108.304 95.2348 107.708 96.2487 107.038 97.213L106.614 97.8705L106.158 98.4537L105.331 99.493ZM108.661 103.735L107.844 104.562L106.306 106.1L107.664 104.403L108.395 103.512C108.671 103.183 108.894 102.78 109.17 102.377L110.039 101.062L110.516 100.352L110.941 99.546C111.608 98.3838 112.2 97.1794 112.712 95.9404C112.977 95.2617 113.327 94.5937 113.549 93.8195L114.27 91.5607C116.213 84.8036 116.18 77.6314 114.175 70.8925L113.433 68.6443C113.199 67.9126 112.849 67.2445 112.574 66.5234C112.05 65.2879 111.448 64.0872 110.771 62.9284C110.622 62.6633 110.474 62.3982 110.336 62.1331C110.198 61.868 110.007 61.6559 109.859 61.4226L108.968 60.1182C108.727 59.7299 108.465 59.3547 108.183 58.9942L107.452 58.1034C106.571 57.0429 106.073 56.4278 106.073 56.4278L107.621 57.9443L108.449 58.7715C108.77 59.1068 109.071 59.4609 109.35 59.8319C109.668 60.2137 110.007 60.6273 110.41 61.0726L110.962 61.7514L111.46 62.5255C112.253 63.6563 112.962 64.8437 113.581 66.078C113.91 66.7567 114.302 67.4248 114.589 68.1989C114.875 68.973 115.161 69.7154 115.458 70.4895C117.882 77.4473 117.919 85.0141 115.564 91.9955L114.705 94.2967C114.429 95.0391 114.037 95.7071 113.73 96.4176C113.123 97.655 112.432 98.849 111.662 99.9914L111.163 100.765L110.622 101.455L109.626 102.706C109.191 103.067 108.926 103.448 108.618 103.756L108.661 103.735ZM116.084 102.727C114.832 104.619 113.412 106.393 111.842 108.03C111.291 108.623 110.782 109.037 110.527 109.334L110.06 109.779L110.474 109.292C110.75 108.963 111.174 108.507 111.662 107.871C113.074 106.115 114.343 104.25 115.458 102.293C117.113 99.4095 118.413 96.3366 119.329 93.1408C121.603 85.3189 121.562 77.0057 119.212 69.2064C118.25 66.0507 116.915 63.0211 115.235 60.1819C114.099 58.2321 112.812 56.3742 111.386 54.6251C110.888 53.9994 110.453 53.5646 110.188 53.2253L109.763 52.7375L110.23 53.1829C110.527 53.4798 111.004 53.8828 111.556 54.4766C115.54 58.5658 118.562 63.4931 120.4 68.8988C123.131 76.8985 123.172 85.5717 120.516 93.5968C119.453 96.8331 117.959 99.9114 116.073 102.749L116.084 102.727Z" fill="url(#paint2_linear_72_109)"/>
<mask id="path-8-outside-1_72_109" maskUnits="userSpaceOnUse" x="0" y="0" width="163" height="163" fill="black">
<rect fill="white" width="163" height="163"/>
<path d="M153.741 70.7864C152.147 70.1515 150.724 69.1553 149.581 67.8763C148.439 66.5972 147.61 65.0703 147.158 63.4159C146.707 61.7615 146.646 60.0248 146.98 58.3428C147.315 56.6608 148.035 55.0796 149.085 53.7236C150.435 51.9787 151.233 49.8702 151.377 47.6686C151.52 45.467 151.003 43.2728 149.89 41.3674C148.778 39.462 147.122 37.9324 145.134 36.9747C143.147 36.0171 140.918 35.6752 138.735 35.9928C137.039 36.2425 135.308 36.094 133.678 35.559C132.049 35.0241 130.567 34.1173 129.349 32.9105C128.131 31.7037 127.21 30.2301 126.66 28.6061C126.11 26.9821 125.945 25.2523 126.179 23.5537C126.476 21.3679 126.112 19.1435 125.136 17.1656C124.159 15.1877 122.614 13.5466 120.699 12.4527C118.783 11.3589 116.585 10.8621 114.385 11.0261C112.186 11.1901 110.085 12.0074 108.353 13.3733C107.008 14.4358 105.434 15.1711 103.756 15.5211C102.078 15.8712 100.342 15.8264 98.6839 15.3904C97.0261 14.9543 95.4924 14.139 94.2038 13.0086C92.9151 11.8782 91.9068 10.4638 91.2585 8.87696C90.4227 6.83514 88.9959 5.08962 87.1611 3.86433C85.3264 2.63904 83.1674 1.98986 80.9611 2.00012C78.7549 2.01038 76.602 2.67961 74.7787 3.9219C72.9554 5.1642 71.5449 6.9229 70.7281 8.9724C70.0957 10.5592 69.1044 11.9781 67.8319 13.1176C66.5593 14.2572 65.0401 15.0865 63.3934 15.5405C61.7466 15.9946 60.0171 16.061 58.3404 15.7347C56.6636 15.4084 55.0853 14.6981 53.729 13.6596C51.9841 12.3095 49.8756 11.5115 47.674 11.368C45.4724 11.2246 43.2781 11.7421 41.3727 12.8544C39.4673 13.9666 37.9377 15.6228 36.9801 17.6104C36.0225 19.598 35.6805 21.8264 35.9982 24.0097C36.2437 25.7062 36.0919 27.4366 35.5548 29.0645C35.0176 30.6924 34.1098 32.1733 32.9028 33.3906C31.6958 34.6079 30.2226 35.5283 28.5993 36.0792C26.9761 36.6301 25.247 36.7966 23.5484 36.5655C21.3619 36.2662 19.1358 36.6279 17.1565 37.6041C15.1772 38.5802 13.5351 40.1261 12.4415 42.0431C11.3479 43.96 10.8528 46.1602 11.0198 48.3608C11.1868 50.5615 12.0083 52.6618 13.3787 54.3917C14.4409 55.7376 15.1756 57.312 15.525 58.9905C15.8743 60.6691 15.8286 62.4059 15.3915 64.0638C14.9544 65.7217 14.1379 67.2553 13.0064 68.5434C11.8749 69.8316 10.4594 70.839 8.87173 71.4863C6.83032 72.3231 5.08551 73.7509 3.86116 75.5863C2.6368 77.4216 1.98875 79.581 2.00015 81.7872C2.01154 83.9935 2.68186 86.146 3.92511 87.9687C5.16836 89.7913 6.92783 91.2009 8.97777 92.0167C10.5706 92.6502 11.9944 93.6452 13.1367 94.9233C14.2791 96.2014 15.1087 97.7275 15.5602 99.3812C16.0117 101.035 16.0726 102.771 15.7382 104.452C15.4037 106.133 14.6831 107.714 13.6332 109.069C12.2785 110.812 11.4764 112.92 11.33 115.123C11.1835 117.325 11.6995 119.521 12.8115 121.428C13.9234 123.335 15.5805 124.865 17.5696 125.823C19.5586 126.78 21.7886 127.12 23.9726 126.8C25.67 126.552 27.4016 126.703 29.0309 127.239C30.6602 127.775 32.1425 128.683 33.3611 129.89C34.5796 131.097 35.501 132.571 36.0525 134.195C36.604 135.82 36.7705 137.55 36.539 139.249C36.2419 141.434 36.6045 143.658 37.5803 145.635C38.5562 147.612 40.1006 149.252 42.0154 150.346C43.9302 151.439 46.1281 151.934 48.3267 151.769C50.5254 151.604 52.6245 150.786 54.3547 149.419C55.7008 148.357 57.2752 147.621 58.954 147.271C60.6328 146.921 62.3699 146.966 64.0284 147.402C65.6869 147.838 67.2215 148.653 68.5111 149.784C69.8008 150.914 70.8102 152.328 71.4598 153.915C72.3051 155.935 73.7308 157.659 75.5563 158.867C77.3818 160.076 79.5251 160.716 81.7145 160.706C83.904 160.696 86.0411 160.036 87.8553 158.81C89.6695 157.584 91.079 155.848 91.9054 153.82C92.5402 152.227 93.5364 150.803 94.8155 149.661C96.0946 148.519 97.6215 147.689 99.2759 147.238C100.93 146.786 102.667 146.725 104.349 147.06C106.031 147.394 107.612 148.115 108.968 149.165C110.712 150.514 112.82 151.311 115.02 151.455C117.22 151.598 119.414 151.082 121.318 149.971C123.223 148.86 124.753 147.206 125.712 145.22C126.67 143.234 127.014 141.008 126.699 138.825C126.45 137.128 126.598 135.397 127.133 133.768C127.668 132.138 128.575 130.655 129.781 129.437C130.988 128.218 132.461 127.296 134.085 126.745C135.709 126.193 137.439 126.027 139.138 126.259C141.324 126.558 143.549 126.198 145.528 125.223C147.507 124.248 149.149 122.704 150.244 120.788C151.338 118.873 151.835 116.674 151.67 114.474C151.505 112.274 150.686 110.174 149.318 108.443C148.256 107.097 147.521 105.523 147.171 103.844C146.821 102.165 146.865 100.428 147.301 98.7694C147.737 97.1109 148.553 95.5763 149.683 94.2867C150.813 92.9971 152.228 91.9876 153.815 91.338C155.868 90.5117 157.627 89.0883 158.862 87.2519C160.098 85.4154 160.754 83.2505 160.746 81.037C160.738 78.8235 160.067 76.6633 158.818 74.8359C157.569 73.0084 155.8 71.5978 153.741 70.7864ZM146.879 81.0728C146.94 94.0365 143.155 106.727 136.003 117.54C128.852 128.352 118.654 136.802 106.701 141.819C94.7469 146.836 81.5739 148.196 68.8474 145.726C56.1209 143.257 44.4125 137.069 35.2028 127.945C25.993 118.821 19.6956 107.172 17.1068 94.4688C14.518 81.766 15.7542 68.5809 20.6589 56.5807C25.5636 44.5805 33.9167 34.3041 44.6618 27.0512C55.4069 19.7983 68.0614 15.8945 81.0251 15.8335C98.408 15.7743 115.104 22.6135 127.45 34.8503C139.797 47.0871 146.784 63.7219 146.879 81.1046V81.0728Z"/>
</mask>
<path d="M153.741 70.7864C152.147 70.1515 150.724 69.1553 149.581 67.8763C148.439 66.5972 147.61 65.0703 147.158 63.4159C146.707 61.7615 146.646 60.0248 146.98 58.3428C147.315 56.6608 148.035 55.0796 149.085 53.7236C150.435 51.9787 151.233 49.8702 151.377 47.6686C151.52 45.467 151.003 43.2728 149.89 41.3674C148.778 39.462 147.122 37.9324 145.134 36.9747C143.147 36.0171 140.918 35.6752 138.735 35.9928C137.039 36.2425 135.308 36.094 133.678 35.559C132.049 35.0241 130.567 34.1173 129.349 32.9105C128.131 31.7037 127.21 30.2301 126.66 28.6061C126.11 26.9821 125.945 25.2523 126.179 23.5537C126.476 21.3679 126.112 19.1435 125.136 17.1656C124.159 15.1877 122.614 13.5466 120.699 12.4527C118.783 11.3589 116.585 10.8621 114.385 11.0261C112.186 11.1901 110.085 12.0074 108.353 13.3733C107.008 14.4358 105.434 15.1711 103.756 15.5211C102.078 15.8712 100.342 15.8264 98.6839 15.3904C97.0261 14.9543 95.4924 14.139 94.2038 13.0086C92.9151 11.8782 91.9068 10.4638 91.2585 8.87696C90.4227 6.83514 88.9959 5.08962 87.1611 3.86433C85.3264 2.63904 83.1674 1.98986 80.9611 2.00012C78.7549 2.01038 76.602 2.67961 74.7787 3.9219C72.9554 5.1642 71.5449 6.9229 70.7281 8.9724C70.0957 10.5592 69.1044 11.9781 67.8319 13.1176C66.5593 14.2572 65.0401 15.0865 63.3934 15.5405C61.7466 15.9946 60.0171 16.061 58.3404 15.7347C56.6636 15.4084 55.0853 14.6981 53.729 13.6596C51.9841 12.3095 49.8756 11.5115 47.674 11.368C45.4724 11.2246 43.2781 11.7421 41.3727 12.8544C39.4673 13.9666 37.9377 15.6228 36.9801 17.6104C36.0225 19.598 35.6805 21.8264 35.9982 24.0097C36.2437 25.7062 36.0919 27.4366 35.5548 29.0645C35.0176 30.6924 34.1098 32.1733 32.9028 33.3906C31.6958 34.6079 30.2226 35.5283 28.5993 36.0792C26.9761 36.6301 25.247 36.7966 23.5484 36.5655C21.3619 36.2662 19.1358 36.6279 17.1565 37.6041C15.1772 38.5802 13.5351 40.1261 12.4415 42.0431C11.3479 43.96 10.8528 46.1602 11.0198 48.3608C11.1868 50.5615 12.0083 52.6618 13.3787 54.3917C14.4409 55.7376 15.1756 57.312 15.525 58.9905C15.8743 60.6691 15.8286 62.4059 15.3915 64.0638C14.9544 65.7217 14.1379 67.2553 13.0064 68.5434C11.8749 69.8316 10.4594 70.839 8.87173 71.4863C6.83032 72.3231 5.08551 73.7509 3.86116 75.5863C2.6368 77.4216 1.98875 79.581 2.00015 81.7872C2.01154 83.9935 2.68186 86.146 3.92511 87.9687C5.16836 89.7913 6.92783 91.2009 8.97777 92.0167C10.5706 92.6502 11.9944 93.6452 13.1367 94.9233C14.2791 96.2014 15.1087 97.7275 15.5602 99.3812C16.0117 101.035 16.0726 102.771 15.7382 104.452C15.4037 106.133 14.6831 107.714 13.6332 109.069C12.2785 110.812 11.4764 112.92 11.33 115.123C11.1835 117.325 11.6995 119.521 12.8115 121.428C13.9234 123.335 15.5805 124.865 17.5696 125.823C19.5586 126.78 21.7886 127.12 23.9726 126.8C25.67 126.552 27.4016 126.703 29.0309 127.239C30.6602 127.775 32.1425 128.683 33.3611 129.89C34.5796 131.097 35.501 132.571 36.0525 134.195C36.604 135.82 36.7705 137.55 36.539 139.249C36.2419 141.434 36.6045 143.658 37.5803 145.635C38.5562 147.612 40.1006 149.252 42.0154 150.346C43.9302 151.439 46.1281 151.934 48.3267 151.769C50.5254 151.604 52.6245 150.786 54.3547 149.419C55.7008 148.357 57.2752 147.621 58.954 147.271C60.6328 146.921 62.3699 146.966 64.0284 147.402C65.6869 147.838 67.2215 148.653 68.5111 149.784C69.8008 150.914 70.8102 152.328 71.4598 153.915C72.3051 155.935 73.7308 157.659 75.5563 158.867C77.3818 160.076 79.5251 160.716 81.7145 160.706C83.904 160.696 86.0411 160.036 87.8553 158.81C89.6695 157.584 91.079 155.848 91.9054 153.82C92.5402 152.227 93.5364 150.803 94.8155 149.661C96.0946 148.519 97.6215 147.689 99.2759 147.238C100.93 146.786 102.667 146.725 104.349 147.06C106.031 147.394 107.612 148.115 108.968 149.165C110.712 150.514 112.82 151.311 115.02 151.455C117.22 151.598 119.414 151.082 121.318 149.971C123.223 148.86 124.753 147.206 125.712 145.22C126.67 143.234 127.014 141.008 126.699 138.825C126.45 137.128 126.598 135.397 127.133 133.768C127.668 132.138 128.575 130.655 129.781 129.437C130.988 128.218 132.461 127.296 134.085 126.745C135.709 126.193 137.439 126.027 139.138 126.259C141.324 126.558 143.549 126.198 145.528 125.223C147.507 124.248 149.149 122.704 150.244 120.788C151.338 118.873 151.835 116.674 151.67 114.474C151.505 112.274 150.686 110.174 149.318 108.443C148.256 107.097 147.521 105.523 147.171 103.844C146.821 102.165 146.865 100.428 147.301 98.7694C147.737 97.1109 148.553 95.5763 149.683 94.2867C150.813 92.9971 152.228 91.9876 153.815 91.338C155.868 90.5117 157.627 89.0883 158.862 87.2519C160.098 85.4154 160.754 83.2505 160.746 81.037C160.738 78.8235 160.067 76.6633 158.818 74.8359C157.569 73.0084 155.8 71.5978 153.741 70.7864ZM146.879 81.0728C146.94 94.0365 143.155 106.727 136.003 117.54C128.852 128.352 118.654 136.802 106.701 141.819C94.7469 146.836 81.5739 148.196 68.8474 145.726C56.1209 143.257 44.4125 137.069 35.2028 127.945C25.993 118.821 19.6956 107.172 17.1068 94.4688C14.518 81.766 15.7542 68.5809 20.6589 56.5807C25.5636 44.5805 33.9167 34.3041 44.6618 27.0512C55.4069 19.7983 68.0614 15.8945 81.0251 15.8335C98.408 15.7743 115.104 22.6135 127.45 34.8503C139.797 47.0871 146.784 63.7219 146.879 81.1046V81.0728Z" fill="url(#paint3_linear_72_109)"/>
<path d="M153.741 70.7864C152.147 70.1515 150.724 69.1553 149.581 67.8763C148.439 66.5972 147.61 65.0703 147.158 63.4159C146.707 61.7615 146.646 60.0248 146.98 58.3428C147.315 56.6608 148.035 55.0796 149.085 53.7236C150.435 51.9787 151.233 49.8702 151.377 47.6686C151.52 45.467 151.003 43.2728 149.89 41.3674C148.778 39.462 147.122 37.9324 145.134 36.9747C143.147 36.0171 140.918 35.6752 138.735 35.9928C137.039 36.2425 135.308 36.094 133.678 35.559C132.049 35.0241 130.567 34.1173 129.349 32.9105C128.131 31.7037 127.21 30.2301 126.66 28.6061C126.11 26.9821 125.945 25.2523 126.179 23.5537C126.476 21.3679 126.112 19.1435 125.136 17.1656C124.159 15.1877 122.614 13.5466 120.699 12.4527C118.783 11.3589 116.585 10.8621 114.385 11.0261C112.186 11.1901 110.085 12.0074 108.353 13.3733C107.008 14.4358 105.434 15.1711 103.756 15.5211C102.078 15.8712 100.342 15.8264 98.6839 15.3904C97.0261 14.9543 95.4924 14.139 94.2038 13.0086C92.9151 11.8782 91.9068 10.4638 91.2585 8.87696C90.4227 6.83514 88.9959 5.08962 87.1611 3.86433C85.3264 2.63904 83.1674 1.98986 80.9611 2.00012C78.7549 2.01038 76.602 2.67961 74.7787 3.9219C72.9554 5.1642 71.5449 6.9229 70.7281 8.9724C70.0957 10.5592 69.1044 11.9781 67.8319 13.1176C66.5593 14.2572 65.0401 15.0865 63.3934 15.5405C61.7466 15.9946 60.0171 16.061 58.3404 15.7347C56.6636 15.4084 55.0853 14.6981 53.729 13.6596C51.9841 12.3095 49.8756 11.5115 47.674 11.368C45.4724 11.2246 43.2781 11.7421 41.3727 12.8544C39.4673 13.9666 37.9377 15.6228 36.9801 17.6104C36.0225 19.598 35.6805 21.8264 35.9982 24.0097C36.2437 25.7062 36.0919 27.4366 35.5548 29.0645C35.0176 30.6924 34.1098 32.1733 32.9028 33.3906C31.6958 34.6079 30.2226 35.5283 28.5993 36.0792C26.9761 36.6301 25.247 36.7966 23.5484 36.5655C21.3619 36.2662 19.1358 36.6279 17.1565 37.6041C15.1772 38.5802 13.5351 40.1261 12.4415 42.0431C11.3479 43.96 10.8528 46.1602 11.0198 48.3608C11.1868 50.5615 12.0083 52.6618 13.3787 54.3917C14.4409 55.7376 15.1756 57.312 15.525 58.9905C15.8743 60.6691 15.8286 62.4059 15.3915 64.0638C14.9544 65.7217 14.1379 67.2553 13.0064 68.5434C11.8749 69.8316 10.4594 70.839 8.87173 71.4863C6.83032 72.3231 5.08551 73.7509 3.86116 75.5863C2.6368 77.4216 1.98875 79.581 2.00015 81.7872C2.01154 83.9935 2.68186 86.146 3.92511 87.9687C5.16836 89.7913 6.92783 91.2009 8.97777 92.0167C10.5706 92.6502 11.9944 93.6452 13.1367 94.9233C14.2791 96.2014 15.1087 97.7275 15.5602 99.3812C16.0117 101.035 16.0726 102.771 15.7382 104.452C15.4037 106.133 14.6831 107.714 13.6332 109.069C12.2785 110.812 11.4764 112.92 11.33 115.123C11.1835 117.325 11.6995 119.521 12.8115 121.428C13.9234 123.335 15.5805 124.865 17.5696 125.823C19.5586 126.78 21.7886 127.12 23.9726 126.8C25.67 126.552 27.4016 126.703 29.0309 127.239C30.6602 127.775 32.1425 128.683 33.3611 129.89C34.5796 131.097 35.501 132.571 36.0525 134.195C36.604 135.82 36.7705 137.55 36.539 139.249C36.2419 141.434 36.6045 143.658 37.5803 145.635C38.5562 147.612 40.1006 149.252 42.0154 150.346C43.9302 151.439 46.1281 151.934 48.3267 151.769C50.5254 151.604 52.6245 150.786 54.3547 149.419C55.7008 148.357 57.2752 147.621 58.954 147.271C60.6328 146.921 62.3699 146.966 64.0284 147.402C65.6869 147.838 67.2215 148.653 68.5111 149.784C69.8008 150.914 70.8102 152.328 71.4598 153.915C72.3051 155.935 73.7308 157.659 75.5563 158.867C77.3818 160.076 79.5251 160.716 81.7145 160.706C83.904 160.696 86.0411 160.036 87.8553 158.81C89.6695 157.584 91.079 155.848 91.9054 153.82C92.5402 152.227 93.5364 150.803 94.8155 149.661C96.0946 148.519 97.6215 147.689 99.2759 147.238C100.93 146.786 102.667 146.725 104.349 147.06C106.031 147.394 107.612 148.115 108.968 149.165C110.712 150.514 112.82 151.311 115.02 151.455C117.22 151.598 119.414 151.082 121.318 149.971C123.223 148.86 124.753 147.206 125.712 145.22C126.67 143.234 127.014 141.008 126.699 138.825C126.45 137.128 126.598 135.397 127.133 133.768C127.668 132.138 128.575 130.655 129.781 129.437C130.988 128.218 132.461 127.296 134.085 126.745C135.709 126.193 137.439 126.027 139.138 126.259C141.324 126.558 143.549 126.198 145.528 125.223C147.507 124.248 149.149 122.704 150.244 120.788C151.338 118.873 151.835 116.674 151.67 114.474C151.505 112.274 150.686 110.174 149.318 108.443C148.256 107.097 147.521 105.523 147.171 103.844C146.821 102.165 146.865 100.428 147.301 98.7694C147.737 97.1109 148.553 95.5763 149.683 94.2867C150.813 92.9971 152.228 91.9876 153.815 91.338C155.868 90.5117 157.627 89.0883 158.862 87.2519C160.098 85.4154 160.754 83.2505 160.746 81.037C160.738 78.8235 160.067 76.6633 158.818 74.8359C157.569 73.0084 155.8 71.5978 153.741 70.7864ZM146.879 81.0728C146.94 94.0365 143.155 106.727 136.003 117.54C128.852 128.352 118.654 136.802 106.701 141.819C94.7469 146.836 81.5739 148.196 68.8474 145.726C56.1209 143.257 44.4125 137.069 35.2028 127.945C25.993 118.821 19.6956 107.172 17.1068 94.4688C14.518 81.766 15.7542 68.5809 20.6589 56.5807C25.5636 44.5805 33.9167 34.3041 44.6618 27.0512C55.4069 19.7983 68.0614 15.8945 81.0251 15.8335C98.408 15.7743 115.104 22.6135 127.45 34.8503C139.797 47.0871 146.784 63.7219 146.879 81.1046V81.0728Z" stroke="white" stroke-width="3" mask="url(#path-8-outside-1_72_109)"/>
<path d="M39.2114 38.3788L41.0035 36.8518L46.73 41.8889L42.5942 35.5262L44.3864 33.9885L51.2793 41.9844L50.0916 43.0448L44.906 36.8518L49.1478 43.6917L48.0874 44.6037L41.9579 39.3014L47.1754 45.3566L46.1149 46.3004L39.2114 38.3788Z" fill="url(#paint4_linear_72_109)"/>
<path d="M53.1564 37.6471L49.169 30.6588L50.6113 29.8316L54.6622 36.926C55.0334 37.5835 55.4469 37.6577 55.9029 37.4032C56.3589 37.1487 56.4968 36.7458 56.1256 36.0883L52.0747 28.9938L53.4639 28.1985L57.4512 35.1975C58.289 36.6609 58.0345 37.9123 56.624 38.7182C55.2136 39.5242 53.9941 39.1106 53.1564 37.6471Z" fill="url(#paint5_linear_72_109)"/>
<path d="M61.0143 33.5431L60.8022 32.9705L62.2763 32.4296L62.5308 33.119C62.7853 33.8295 63.1883 33.9673 63.6867 33.787C64.1851 33.6067 64.4078 33.2356 64.1321 32.5039C63.8563 31.7722 63.3367 31.2631 62.0112 30.7435C60.2826 30.0754 59.5615 29.418 59.1585 28.2833C58.9948 27.9784 58.9019 27.6405 58.8869 27.2948C58.8718 26.949 58.9349 26.6044 59.0714 26.2864C59.208 25.9684 59.4145 25.6853 59.6756 25.4582C59.9367 25.2311 60.2457 25.0658 60.5795 24.9746C62.096 24.4232 63.1777 25.0489 63.7609 26.6396L63.9094 27.0532L62.4353 27.5834L62.2445 27.0744C61.9899 26.3638 61.6082 26.2048 61.1098 26.3851C60.6114 26.5653 60.4311 26.9365 60.675 27.6152C60.9189 28.2939 61.4597 28.7499 62.7959 29.2695C64.5138 29.9376 65.2137 30.5845 65.6591 31.8146C66.253 33.4371 65.7652 34.6354 64.2275 35.1974C62.6899 35.7595 61.587 35.1232 61.0143 33.5431Z" fill="url(#paint6_linear_72_109)"/>
<path d="M67.8012 22.9915L69.4237 22.6521L71.6401 32.9703L70.0176 33.3097L67.8012 22.9915Z" fill="url(#paint7_linear_72_109)"/>
<path d="M75.1926 29.8952L74.7896 24.2323C74.746 23.9013 74.7705 23.5647 74.8616 23.2434C74.9528 22.9222 75.1087 22.6229 75.3197 22.3641C75.5307 22.1052 75.7925 21.8923 76.0888 21.7383C76.3852 21.5843 76.7099 21.4926 77.043 21.4687C77.3761 21.4448 77.7106 21.4892 78.0259 21.5993C78.3412 21.7094 78.6306 21.8829 78.8764 22.1089C79.1223 22.335 79.3193 22.6089 79.4553 22.9139C79.5914 23.2189 79.6637 23.5484 79.6677 23.8824L79.7526 24.9959L78.1831 25.1125L78.0983 23.893C78.0983 23.2037 77.6953 22.9386 77.1969 22.9704C76.6985 23.0022 76.3909 23.3204 76.444 24.0309L76.8575 29.9164C76.8575 30.6057 77.2605 30.8602 77.7589 30.8178C78.2573 30.7753 78.5649 30.489 78.5118 29.7573L78.4058 28.1454L79.9647 28.0394L80.0707 29.524C80.1144 29.8551 80.0899 30.1916 79.9987 30.5129C79.9076 30.8342 79.7517 31.1335 79.5407 31.3923C79.3296 31.6511 79.0679 31.8641 78.7715 32.0181C78.4752 32.172 78.1505 32.2638 77.8174 32.2877C77.4843 32.3116 77.1498 32.2671 76.8345 32.157C76.5192 32.0469 76.2298 31.8735 75.9839 31.6474C75.7381 31.4214 75.5411 31.1474 75.405 30.8425C75.2689 30.5375 75.1967 30.2079 75.1926 29.874V29.8952Z" fill="url(#paint8_linear_72_109)"/>
<path d="M91.0464 22.2068L93.443 22.6946C95.0761 23.0127 95.6912 24.0732 95.3625 25.7381L95.161 26.7985C94.8216 28.4529 93.846 29.1952 92.2235 28.8664L91.4494 28.718L90.601 32.9598L88.9785 32.6417L91.0464 22.2068ZM92.5098 27.35C93.0295 27.456 93.3582 27.2758 93.5067 26.5334L93.7506 25.3033C93.899 24.561 93.6657 24.2429 93.1567 24.1686L92.3826 24.0096L91.7463 27.1909L92.5098 27.35Z" fill="url(#paint9_linear_72_109)"/>
<path d="M100.962 24.6777L103.252 25.5685C103.588 25.6335 103.903 25.7787 104.17 25.9915C104.437 26.2044 104.649 26.4787 104.788 26.7911C104.926 27.1036 104.987 27.4448 104.965 27.7859C104.944 28.1269 104.84 28.4576 104.663 28.7499L104.429 29.3543C104.037 30.4148 103.464 30.892 102.669 30.9026C103.348 31.4435 103.316 32.2706 102.881 33.3841L102.213 35.1126C102.028 35.5084 101.927 35.938 101.916 36.3746L100.389 35.7913C100.41 35.3525 100.522 34.9228 100.718 34.5294L101.418 32.7266C101.768 31.8146 101.619 31.4116 100.909 31.1465L100.378 30.9344L98.7453 35.1763L97.1971 34.5718L100.962 24.6777ZM101.428 29.7149C102.012 29.9376 102.489 29.821 102.764 29.0362L103.061 28.2727C103.327 27.5728 103.21 27.2122 102.669 26.9577L101.959 26.682L100.898 29.4922L101.428 29.7149Z" fill="url(#paint10_linear_72_109)"/>
<path d="M106.296 35.7913L109.159 31.0405C109.318 30.7344 109.538 30.4641 109.805 30.2463C110.072 30.0285 110.382 29.8678 110.714 29.7741C111.045 29.6804 111.393 29.6558 111.735 29.7016C112.077 29.7475 112.405 29.8629 112.701 30.0407C112.996 30.2186 113.252 30.4551 113.453 30.7357C113.653 31.0163 113.794 31.335 113.867 31.6721C113.939 32.0092 113.942 32.3577 113.874 32.6959C113.807 33.0341 113.671 33.3549 113.475 33.6386L110.612 38.3894C110.453 38.6955 110.233 38.9658 109.966 39.1836C109.698 39.4014 109.389 39.5621 109.057 39.6558C108.725 39.7495 108.378 39.7741 108.036 39.7283C107.694 39.6824 107.365 39.567 107.07 39.3891C106.775 39.2113 106.519 38.9748 106.318 38.6942C106.118 38.4136 105.977 38.0949 105.904 37.7578C105.832 37.4206 105.829 37.0722 105.896 36.734C105.964 36.3958 106.1 36.0749 106.296 35.7913ZM109.127 37.6259L112.107 32.6948C112.499 32.0479 112.362 31.6343 111.916 31.3586C111.471 31.0829 111.025 31.1571 110.644 31.804L107.664 36.7351C107.271 37.382 107.409 37.7956 107.855 38.0713C108.3 38.347 108.745 38.241 109.127 37.5941V37.6259Z" fill="url(#paint11_linear_72_109)"/>
<path d="M119.223 34.7307L121.132 36.3956C122.383 37.4561 122.393 38.7074 121.28 39.98L117.781 44.0097C117.596 44.3034 117.347 44.5509 117.052 44.7333C116.757 44.9156 116.425 45.028 116.08 45.0618C115.734 45.0956 115.386 45.0499 115.062 44.9282C114.737 44.8065 114.445 44.612 114.207 44.3596L112.298 42.6947L119.223 34.7307ZM115.172 43.2144C115.575 43.5537 115.988 43.5643 116.487 42.9917L120.082 38.8559C120.58 38.2833 120.516 37.8697 120.082 37.5197L119.445 36.9683L114.504 42.6629L115.172 43.2144Z" fill="url(#paint12_linear_72_109)"/>
<path d="M46.783 119.058L48.6494 120.511L44.8636 127.128L50.3249 121.826L52.2019 123.268L45.7332 131.625L44.4924 130.66L49.3917 124.297L43.5486 129.886L42.4882 129.027L46.4331 121.975L41.5338 128.337L40.3885 127.447L46.783 119.058Z" fill="url(#paint13_linear_72_109)"/>
<path d="M51.4702 132.219L55.1924 125.071L56.6665 125.835L52.8912 133.088C52.5413 133.756 52.7004 134.149 53.167 134.393C53.6336 134.637 54.0365 134.541 54.3865 133.873L58.1617 126.62L59.5827 127.351L55.8499 134.499C55.7168 134.814 55.5199 135.099 55.2713 135.335C55.0228 135.571 54.7281 135.753 54.4059 135.869C54.0836 135.985 53.7408 136.034 53.3989 136.011C53.0571 135.988 52.7236 135.895 52.4196 135.737C52.1155 135.579 51.8475 135.36 51.6323 135.094C51.4171 134.827 51.2594 134.519 51.1693 134.188C51.0791 133.858 51.0583 133.512 51.1083 133.173C51.1583 132.834 51.2779 132.509 51.4596 132.219H51.4702Z" fill="url(#paint14_linear_72_109)"/>
<path d="M60.0917 136.259L60.2826 135.686L61.7672 136.185L61.5339 136.874C61.3006 137.584 61.5339 137.934 62.0324 138.115C62.5308 138.295 62.9338 138.115 63.1777 137.383C63.4216 136.651 63.3155 135.919 62.5838 134.679C61.6612 133.077 61.5233 132.123 61.8839 130.978C61.9448 130.636 62.0824 130.312 62.2863 130.031C62.4902 129.75 62.7551 129.518 63.0612 129.354C63.3673 129.19 63.7066 129.097 64.0537 129.082C64.4007 129.068 64.7466 129.132 65.0653 129.27C66.5923 129.779 67.0483 130.946 66.5181 132.547L66.3802 132.961L64.885 132.473L65.0547 131.953C65.2986 131.243 65.0547 130.893 64.5987 130.702C64.1427 130.511 63.7291 130.702 63.5382 131.402C63.3473 132.102 63.4534 132.77 64.1745 134.011C65.1077 135.612 65.2349 136.545 64.8426 137.797C64.7815 138.139 64.6445 138.464 64.4416 138.747C64.2387 139.03 63.9751 139.264 63.67 139.432C63.365 139.599 63.0262 139.697 62.6786 139.717C62.331 139.736 61.9834 139.678 61.6612 139.546C59.9751 139.037 59.5085 137.86 60.0917 136.259Z" fill="url(#paint15_linear_72_109)"/>
<path d="M70.6327 130.946L72.2658 131.254L70.2721 141.625L68.639 141.307L70.6327 130.946Z" fill="url(#paint16_linear_72_109)"/>
<path d="M75.3623 139.907L75.691 134.244C75.6864 133.908 75.7512 133.574 75.8814 133.263C76.0116 132.953 76.2043 132.673 76.4476 132.44C76.6909 132.207 76.9796 132.027 77.2955 131.911C77.6115 131.795 77.948 131.745 78.284 131.765C78.62 131.785 78.9484 131.874 79.2486 132.026C79.5488 132.178 79.8144 132.391 80.0288 132.65C80.2432 132.91 80.4019 133.211 80.4948 133.534C80.5878 133.858 80.6131 134.197 80.5691 134.531L80.5055 135.591L78.936 135.506L79.0102 134.287C79.0102 133.587 78.7345 133.279 78.2361 133.226C77.7377 133.173 77.3984 133.459 77.3559 134.149L77.006 140.034C77.006 140.724 77.2817 141.021 77.7801 141.095C78.2785 141.169 78.6179 140.872 78.6603 140.172L78.7557 138.571L80.3252 138.656L80.2298 140.151C80.2204 140.477 80.1456 140.798 80.0098 141.095C79.874 141.392 79.68 141.659 79.4393 141.879C79.1986 142.1 78.916 142.27 78.6084 142.379C78.3008 142.488 77.9744 142.535 77.6485 142.516C77.3226 142.496 77.0039 142.412 76.7112 142.267C76.4186 142.123 76.1579 141.921 75.9447 141.674C75.7315 141.426 75.5701 141.139 75.47 140.828C75.37 140.517 75.3334 140.19 75.3623 139.865V139.907Z" fill="url(#paint17_linear_72_109)"/>
<path d="M89.1058 131.508L91.5024 131.042C91.8374 130.938 92.192 130.913 92.5381 130.97C92.8842 131.028 93.2122 131.164 93.4962 131.37C93.7802 131.576 94.0124 131.845 94.1743 132.156C94.3363 132.467 94.4236 132.812 94.4293 133.162L94.6308 134.223C94.9595 135.888 94.3338 136.948 92.7007 137.256L91.9266 137.404L92.7538 141.646L91.1207 141.964L89.1058 131.508ZM92.4144 135.75C92.934 135.644 93.1673 135.358 93.0189 134.615L92.7856 133.385C92.6371 132.643 92.3084 132.463 91.7993 132.569L91.0252 132.717L91.6403 135.898L92.4144 135.75Z" fill="url(#paint18_linear_72_109)"/>
<path d="M97.0698 129.684L99.3816 128.836C99.6746 128.659 100.006 128.555 100.348 128.534C100.69 128.513 101.031 128.575 101.344 128.714C101.657 128.854 101.931 129.067 102.143 129.336C102.355 129.604 102.499 129.92 102.563 130.257L102.786 130.872C102.994 131.239 103.078 131.664 103.024 132.082C102.971 132.501 102.783 132.891 102.489 133.194C103.358 133.194 103.878 133.788 104.292 134.902L104.938 136.641C105.059 137.06 105.265 137.45 105.543 137.786L103.963 138.369C103.686 138.026 103.484 137.629 103.369 137.203L102.711 135.389C102.372 134.467 101.99 134.276 101.28 134.53L100.75 134.732L102.308 138.974L100.75 139.546L97.0698 129.684ZM100.76 133.141C101.343 132.929 101.598 132.547 101.301 131.752L101.025 130.988C100.76 130.278 100.41 130.055 99.8588 130.257L99.1483 130.522L100.209 133.353L100.76 133.141Z" fill="url(#paint19_linear_72_109)"/>
<path d="M108.735 133.544L105.999 128.719C105.811 128.431 105.685 128.107 105.627 127.768C105.57 127.429 105.582 127.082 105.663 126.747C105.744 126.413 105.893 126.099 106.1 125.825C106.307 125.55 106.568 125.321 106.867 125.151C107.166 124.98 107.497 124.873 107.838 124.836C108.18 124.798 108.526 124.83 108.855 124.931C109.184 125.032 109.489 125.199 109.751 125.422C110.013 125.645 110.226 125.919 110.379 126.227L113.125 131.063C113.305 131.352 113.425 131.674 113.478 132.011C113.53 132.347 113.514 132.691 113.43 133.021C113.345 133.351 113.195 133.661 112.989 133.932C112.782 134.202 112.522 134.428 112.226 134.596C111.929 134.763 111.602 134.869 111.263 134.907C110.925 134.945 110.582 134.913 110.256 134.815C109.93 134.717 109.627 134.554 109.365 134.335C109.104 134.117 108.889 133.848 108.735 133.544ZM111.736 131.975L108.873 126.991C108.502 126.333 108.077 126.248 107.611 126.513C107.144 126.778 107.006 127.181 107.377 127.839L110.219 132.855C110.601 133.512 111.025 133.597 111.481 133.332C111.937 133.067 112.107 132.632 111.736 131.975Z" fill="url(#paint20_linear_72_109)"/>
<path d="M112.054 122.091L114.026 120.501C114.274 120.257 114.574 120.073 114.904 119.963C115.233 119.853 115.584 119.821 115.928 119.868C116.272 119.915 116.601 120.04 116.889 120.235C117.177 120.429 117.417 120.687 117.59 120.988L120.941 125.145C122.001 126.46 121.938 127.69 120.644 128.73L118.671 130.32L112.054 122.091ZM119.679 127.574C120.092 127.245 120.167 126.831 119.679 126.248L116.243 122.006C115.766 121.423 115.352 121.413 114.938 121.741L114.281 122.271L119.011 128.146L119.679 127.574Z" fill="url(#paint21_linear_72_109)"/>
<path d="M136.423 69.1746L129.827 88.0083L136.328 83.7346L131.238 103.926L143.062 77.9021L135.426 81.2425L136.423 69.1746Z" fill="#00E0B8"/>
<path d="M26.242 69.1746L32.838 88.0083L26.3374 83.7346L31.417 103.926L19.6035 77.9021L27.2282 81.2425L26.242 69.1746Z" fill="#00E0B8"/>
<path d="M176.096 109C174.752 110.032 172.64 111.112 170.744 111.808C171.368 112.24 172.4 113.152 172.904 113.68C174.704 112.84 177.056 111.376 178.616 110.08L176.096 109ZM178.904 102.64C179.744 102.184 180.584 101.704 181.4 101.176H185.24C184.544 101.632 183.8 102.016 183.056 102.424L178.904 102.64ZM175.856 97.792H180.536V99.016H175.856V97.792ZM175.856 94.552H180.536V95.752H175.856V94.552ZM188.168 95.752H183.296V94.552H188.168V95.752ZM188.168 99.016H183.296V97.792H188.168V99.016ZM189.032 108.088C189.488 108.592 189.848 109.072 190.136 109.456L192.272 107.848C191.288 106.576 189.344 104.728 187.568 103.528L185.552 104.872C186.008 105.232 186.488 105.616 186.968 106.048L180.08 106.288C182.648 105.256 185.264 104.032 187.736 102.592L185.984 101.176H190.976V92.392H173.168V101.176H177.248C176.288 101.752 175.424 102.136 175.016 102.304C174.344 102.616 173.792 102.832 173.264 102.904C173.504 103.576 173.888 104.752 174.008 105.256C174.488 105.064 175.16 104.92 178.424 104.68C177.128 105.232 176.096 105.64 175.496 105.856C174.056 106.36 173.144 106.648 172.208 106.744C172.448 107.392 172.808 108.64 172.904 109.12C173.72 108.832 174.776 108.736 180.56 108.472V111.256C180.56 111.52 180.44 111.568 180.128 111.592C179.792 111.616 178.616 111.616 177.632 111.568C178.04 112.264 178.448 113.32 178.592 114.112C180.152 114.112 181.352 114.088 182.288 113.704C183.248 113.296 183.512 112.648 183.512 111.352V108.352L189.032 108.088ZM184.664 110.416C186.536 111.376 189.008 112.84 190.16 113.824L192.392 112.216C191.072 111.208 188.552 109.816 186.752 108.976L184.664 110.416ZM204.008 104.632C203.6 104.128 201.872 102.352 201.104 101.632V100.864H203.48V99.568H217.064V97.792H211.616V96.976H216.032V95.32H211.616V94.504H216.584V92.776H211.616V91.696H208.76V92.776H204.08V94.504H208.76V95.32H204.512V96.976H208.76V97.792H203.336V98.2H201.104V94.96C202.112 94.72 203.072 94.432 203.936 94.096L202.04 91.912C200.24 92.68 197.408 93.328 194.84 93.688C195.128 94.288 195.488 95.272 195.608 95.872C196.472 95.776 197.384 95.656 198.32 95.512V98.2H195.128V100.864H198.128C197.24 103.24 195.872 105.904 194.504 107.488C194.96 108.208 195.56 109.384 195.824 110.2C196.712 109.048 197.576 107.464 198.32 105.736V114.064H201.104V104.704C201.608 105.496 202.112 106.312 202.376 106.864L204.008 104.632ZM207.368 107.44H213.2V108.448H207.368V107.44ZM207.368 104.776H213.2V105.808H207.368V104.776ZM207.368 102.136H213.2V103.144H207.368V102.136ZM215.912 110.224V100.384H204.824V110.224H206.912C205.712 111.04 203.816 111.928 202.184 112.408C202.712 112.912 203.504 113.68 203.936 114.184C205.856 113.56 208.232 112.408 209.696 111.28L208.088 110.224H212.456L210.968 111.304C212.384 112.192 214.04 113.368 214.928 114.112L217.424 112.768C216.464 112.096 214.808 111.088 213.344 110.224H215.912ZM228.416 101.656C227.504 101.896 226.592 102.112 225.656 102.352V98.872H228.56V96.232H225.656V91.696H222.872V96.232H219.464V98.872H222.872V103C221.528 103.336 220.256 103.6 219.248 103.816L219.968 106.552L222.872 105.808V111.016C222.872 111.352 222.752 111.472 222.416 111.472C222.104 111.496 221.12 111.496 220.16 111.448C220.496 112.192 220.88 113.32 220.952 114.016C222.632 114.04 223.808 113.944 224.6 113.536C225.392 113.08 225.656 112.408 225.656 111.016V105.088C226.712 104.824 227.744 104.536 228.776 104.272L228.416 101.656ZM234.488 110.896C233.528 110.896 233.384 110.68 233.384 109.288V91.936H230.528V109.264C230.528 112.48 231.296 113.464 234.128 113.464H237.608C240.248 113.464 240.944 111.928 241.256 107.704C240.488 107.536 239.36 107.008 238.688 106.48C238.52 110.008 238.352 110.896 237.368 110.896H234.488ZM246.368 95.824H261.56V97.792H264.224V93.616H255.464C255.2 92.92 254.768 92.128 254.36 91.48L251.864 92.176C252.104 92.608 252.368 93.112 252.56 93.616H243.8V97.792H246.368V95.824ZM249.008 108.616H258.992V109.384H249.008V108.616ZM249.008 106.528H258.992V107.272H249.008V106.528ZM249.008 104.464H258.992V105.16H249.008V104.464ZM261.896 110.8V103.024H246.248V110.8H249.68C247.952 111.448 245.48 112 243.368 112.288C243.872 112.816 244.544 113.68 244.88 114.232C247.664 113.824 251.024 112.888 253.04 111.856L251.6 110.8H255.992L255.008 111.88C257.768 112.6 260.576 113.56 262.304 114.208L264.248 112.456C262.832 112 260.72 111.376 258.608 110.8H261.896ZM254.888 100.912L254.984 100.144H258.056L257.984 100.912H254.888ZM249.488 100.144H252.656L252.56 100.912H249.392L249.488 100.144ZM252.872 98.032L252.8 98.728H249.656L249.752 98.032H252.872ZM258.176 98.728H255.152L255.2 98.032H258.224L258.176 98.728ZM260.84 98.416L261.008 96.592H247.424L247.184 98.416H243.128V100.456H246.896L246.656 102.328H260.456L260.648 100.456H264.992V98.416H260.84ZM274.808 101.872L272.6 102.424V98.872H274.952V96.232H272.6V91.672H269.768V96.232H267.008V98.872H269.768V103.12C268.616 103.408 267.584 103.648 266.696 103.816L267.44 106.528L269.768 105.952V110.896C269.768 111.256 269.672 111.376 269.312 111.376C269 111.376 268.016 111.376 267.08 111.352C267.416 112.096 267.776 113.224 267.896 113.944C269.576 113.944 270.728 113.872 271.52 113.44C272.336 112.984 272.6 112.312 272.6 110.92V105.184C273.464 104.968 274.328 104.728 275.168 104.488L274.808 101.872ZM284.84 103.168C284.12 104.8 283.088 106.216 281.84 107.416C280.64 106.192 279.68 104.752 279.008 103.168H284.84ZM286.64 100.48L286.136 100.6H283.256V97.72H288.632V95.08H283.256V91.648H280.424V95.08H275.264V97.72H280.424V100.6H275.696V103.168H276.944L276.224 103.384C277.088 105.592 278.216 107.488 279.632 109.096C277.952 110.176 276.008 110.944 273.896 111.448C274.424 112.072 275.12 113.272 275.432 114.04C277.76 113.344 279.872 112.384 281.744 111.088C283.4 112.432 285.392 113.416 287.72 114.112C288.128 113.368 288.944 112.216 289.544 111.64C287.408 111.112 285.56 110.32 284 109.216C286.016 107.2 287.552 104.584 288.464 101.248L286.64 100.48ZM310.424 102.256C311.336 102.256 312.344 102.208 312.848 102.04C312.752 101.392 312.632 100.36 312.584 99.616C312.056 99.736 311.048 99.808 310.376 99.808H306.872C306.104 99.808 305.96 99.472 305.96 98.584V97H311.864V94.552H305.96V91.72H303.128V98.536C303.128 101.2 303.896 102.256 306.776 102.256H310.424ZM294.92 104.824C295.832 105.568 296.936 106.504 297.536 107.128L298.688 106V106.792C297.248 107.56 295.832 108.28 294.752 108.76C294.872 107.68 294.92 106.6 294.92 105.688V104.824ZM298.688 102.664V105.376C297.968 104.752 296.936 103.912 296.12 103.336L294.92 104.368V102.664H298.688ZM301.376 100.264H292.28V105.664C292.28 107.752 292.184 110.392 290.912 112.264C291.416 112.6 292.496 113.632 292.904 114.184C293.816 112.936 294.344 111.304 294.608 109.672L295.208 111.352C296.288 110.656 297.488 109.84 298.688 108.976V111.424C298.688 111.736 298.592 111.832 298.28 111.832C297.992 111.832 297.056 111.832 296.192 111.784C296.552 112.408 296.936 113.344 297.056 114.016C298.52 114.016 299.6 113.968 300.368 113.608C301.16 113.224 301.376 112.624 301.376 111.448V100.264ZM297.728 94.288C298.04 94.864 298.376 95.536 298.736 96.232L295.232 96.496C296.288 95.296 297.368 93.904 298.184 92.512L295.304 91.696C294.416 93.592 292.952 95.44 292.472 95.968C291.992 96.496 291.584 96.832 291.152 96.928C291.44 97.648 291.896 98.944 292.04 99.496C292.736 99.208 293.72 99.064 299.792 98.464C300.032 99.04 300.248 99.544 300.392 99.976L302.888 98.968C302.312 97.528 301.04 95.176 300.032 93.448L297.728 94.288ZM307.064 111.424C306.128 111.424 305.96 111.304 305.96 110.464V107.848H312.032V105.328H305.96V102.928H303.128V110.464C303.128 113.08 303.824 113.92 306.656 113.92H310.064C312.344 113.92 313.088 112.984 313.376 109.84C312.632 109.672 311.48 109.24 310.904 108.808C310.784 111.016 310.616 111.424 309.8 111.424H307.064ZM323.984 108.136C326.96 107.272 328.712 105.04 328.712 102.328C328.712 100.312 327.824 99.04 326.12 99.04C324.848 99.04 323.768 99.856 323.768 101.2C323.768 102.568 324.848 103.336 326.048 103.336C326.144 103.336 326.24 103.336 326.312 103.312C326.168 104.584 325.088 105.616 323.216 106.216L323.984 108.136ZM360.872 93.208H355.352C355.136 92.584 354.776 91.888 354.416 91.288L352.04 92.008C352.232 92.344 352.4 92.776 352.568 93.208H346.904V95.248H360.872V93.208ZM346.664 95.68H342.68L344.384 94.984C344.144 94.144 343.544 92.776 342.968 91.792L340.952 92.512C341.48 93.496 341.984 94.792 342.2 95.68H338.792V97.912H346.664V95.68ZM345.896 98.992H339.776V101.152H345.896V98.992ZM339.776 104.392H345.896V102.256H339.776V104.392ZM344 107.752V110.584H341.528V107.752H344ZM346.04 105.568H339.536V113.776H341.528V112.768H346.04V105.568ZM352.568 105.352H355.112V106.12H352.568V105.352ZM352.568 102.856H355.112V103.648H352.568V102.856ZM349.784 97.384H351.32V98.632H349.784V97.384ZM356.408 97.384H358.016V98.632H356.408V97.384ZM359.48 108.112C358.904 108.52 357.992 109.072 357.152 109.504C356.768 109.072 356.432 108.592 356.144 108.064H361.16V106.12H357.68V105.352H360.344V103.648H357.68V102.856H360.632V101.152H357.68V100.096H360.176V95.896H354.368V100.096H355.112V101.152H352.568V100.096H353.456V95.896H347.744V100.096H350.048V101.152H347.408V102.856H350.048V103.648H347.72V105.352H350.048V106.12H346.64V108.064H350.24C349.016 108.712 347.576 109.216 346.16 109.552C346.544 109.936 347.192 110.872 347.456 111.328C348.224 111.088 348.968 110.776 349.712 110.44C349.616 111.472 348.992 112.12 348.584 112.456C348.968 112.792 349.544 113.632 349.76 114.064C350.192 113.8 350.936 113.56 354.776 112.816C354.704 112.264 354.656 111.352 354.68 110.704L351.896 111.16V109.264C352.472 108.904 353.024 108.496 353.48 108.064H353.792C354.944 110.992 356.936 113.056 360.128 114.016C360.416 113.416 361.064 112.504 361.592 112C360.44 111.736 359.456 111.328 358.592 110.776C359.384 110.416 360.224 109.984 360.92 109.48L359.48 108.112ZM380.768 103.6C380.264 102.616 379.232 101.152 378.248 99.88C378.992 98.776 379.832 97.432 380.552 96.208L378.152 95.656C377.6 96.784 376.568 98.512 375.608 99.904C376.856 101.536 377.984 103.312 378.512 104.536L380.768 103.6ZM374.12 95.608C373.568 96.76 372.584 98.512 371.6 99.952C372.848 101.608 373.904 103.384 374.432 104.632L376.712 103.744C376.208 102.712 375.248 101.224 374.24 99.904C375.008 98.776 375.824 97.432 376.544 96.184L374.12 95.608ZM384.992 103.648C384.44 102.64 383.336 101.176 382.256 99.904C383.048 98.776 383.912 97.456 384.656 96.184L382.208 95.608C381.632 96.76 380.576 98.536 379.568 99.952C380.936 101.584 382.16 103.384 382.736 104.632L384.992 103.648ZM384.92 92.68H371.984V95.224H384.92V92.68ZM372.224 105.808C371.984 104.536 371.336 102.448 370.736 100.864L368.696 101.512C368.888 102.088 369.104 102.736 369.272 103.384L366.752 103.696C368.552 101.584 370.304 99.016 371.648 96.544L369.296 95.104C368.84 96.16 368.264 97.216 367.688 98.224L366.104 98.344C367.304 96.64 368.456 94.576 369.32 92.608L366.848 91.576C366.008 94.12 364.496 96.784 363.992 97.48C363.512 98.2 363.104 98.656 362.624 98.8C362.912 99.448 363.32 100.648 363.464 101.152C363.824 100.984 364.352 100.84 366.152 100.624C365.48 101.584 364.928 102.28 364.64 102.616C363.896 103.504 363.368 104.032 362.768 104.176C363.08 104.896 363.512 106.168 363.656 106.672C364.184 106.408 365.048 106.24 369.848 105.52C369.92 105.904 369.992 106.264 370.04 106.552L372.224 105.808ZM363.704 107.44C363.56 109.456 363.272 111.688 362.696 113.128C363.296 113.32 364.424 113.656 364.928 113.944C365.432 112.408 365.864 110.032 366.032 107.8L363.704 107.44ZM366.44 107.8C366.68 109.36 366.92 111.448 366.944 112.768L369.128 112.336C369.056 110.992 368.768 109 368.48 107.392L366.44 107.8ZM368.912 107.272C369.32 108.472 369.776 110.008 369.944 111.016L371.96 110.296C371.744 109.312 371.288 107.824 370.856 106.648L368.912 107.272ZM379.76 110.92V107.608H384.2V105.064H372.56V107.608H376.88V110.92H371.456V113.536H385.184V110.92H379.76ZM388.184 112.456C388.592 111.112 388.904 108.832 389.048 107.248L387.632 106.744C387.464 108.328 387.104 110.536 386.648 111.928L388.184 112.456ZM389.312 107.248C389.408 108.64 389.48 110.464 389.432 111.664L390.68 111.52C390.68 110.32 390.608 108.52 390.488 107.152L389.312 107.248ZM390.728 107.08C391.016 108.304 391.304 109.936 391.376 110.992L392.576 110.752C392.48 109.72 392.168 108.136 391.88 106.888L390.728 107.08ZM390.08 102.112H391.568V103.624H390.08V102.112ZM391.568 94.912V96.496H390.08V94.912H391.568ZM391.568 100.024H390.08V98.608H391.568V100.024ZM400.28 96.952C401.12 96.28 401.912 95.56 402.584 94.792C403.4 95.536 404.312 96.256 405.248 96.952H400.28ZM398.6 106.696C398.168 108.976 397.256 111.064 395.84 112.408C396.128 111.304 396.248 109 396.368 104.536C396.392 104.248 396.392 103.624 396.392 103.624H393.728V102.112H395.864V100.024H393.728V98.608H395.792V97.288C396.32 97.72 397.04 98.488 397.376 98.944C397.928 98.608 398.48 98.272 399.032 97.912V99.112H406.088V97.528C406.832 98.032 407.576 98.464 408.32 98.848C408.488 98.128 408.968 96.88 409.376 96.232C407.528 95.536 405.44 94.264 404 92.992C404.168 92.752 404.336 92.512 404.48 92.248L401.936 91.36C400.664 93.448 398.336 95.632 395.792 97.048V96.496H393.728V94.912H396.176V92.584H387.872V105.952H394.136C394.088 107.104 394.064 108.064 394.016 108.832C393.8 108.088 393.488 107.2 393.176 106.504L392.168 106.84C392.552 107.8 392.96 109.096 393.128 109.936L393.968 109.624C393.872 110.872 393.776 111.448 393.632 111.688C393.464 111.928 393.296 111.952 393.032 111.952C392.792 111.952 392.288 111.952 391.688 111.88C391.976 112.456 392.216 113.344 392.24 113.992C393.008 114.016 393.752 113.992 394.232 113.896C394.784 113.824 395.192 113.632 395.552 113.104C395.648 112.984 395.72 112.816 395.792 112.576C396.344 112.984 397.232 113.704 397.592 114.112C398.384 113.296 399.08 112.264 399.656 111.064C400.328 111.568 400.976 112.144 401.36 112.552L402.752 110.704C402.272 110.176 401.36 109.48 400.496 108.952C400.688 108.352 400.856 107.728 401 107.104L398.6 106.696ZM404.768 102.16H406.28V104.416H404.768V102.16ZM402.92 106.216H408.248V100.384H402.92V106.216ZM398.864 102.16H400.184V104.416H398.864V102.16ZM397.016 106.216H402.152V100.384H397.016V106.216ZM404.456 106.576C404.096 108.976 403.28 111.16 401.888 112.528C402.488 112.888 403.544 113.68 403.952 114.112C404.48 113.536 404.96 112.816 405.368 112.048C406.184 112.672 407 113.344 407.456 113.848L409.112 111.904C408.488 111.304 407.336 110.464 406.328 109.792C406.616 108.904 406.832 107.968 407 107.008L404.456 106.576ZM420.68 99.424L418.184 101.608C419.84 103.024 421.88 105.088 423.344 106.888L425.912 104.68C424.688 103.192 422.384 100.816 420.68 99.424ZM449.312 96.832H452.144V95.56H456.776V93.304H452.144V91.672H449.312V93.304H446.504V95.56H449.312V96.832ZM436.76 108.16C436.328 109.456 435.632 110.824 434.768 111.736C435.296 112.048 436.184 112.696 436.592 113.056C437.48 112 438.416 110.32 438.92 108.736L436.76 108.16ZM442.376 100C442.208 100.72 441.872 101.68 441.584 102.424H440.048L440.312 102.328C440.144 101.68 439.688 100.72 439.208 100H442.376ZM446.384 107.776V105.64H442.424V104.512H446.624V102.424H444.008C444.272 101.848 444.56 101.2 444.872 100.504L442.808 100H446.24V97.912H442.568C442.352 97.384 442.088 96.832 441.848 96.352H442.808V95.56H445.64V93.304H442.808V91.672H439.976V93.304H435.392V95.56H439.976V96.352H441.056L438.992 96.88C439.136 97.192 439.28 97.552 439.424 97.912H435.44V100H438.68L436.976 100.576C437.336 101.128 437.648 101.8 437.84 102.424H435.152V104.512H439.712V105.64H435.512V107.776H439.712V113.896H442.424V107.776H446.384ZM442.784 108.88C443.384 109.84 444.08 111.208 444.416 112.048L446.336 110.872C445.976 110.056 445.28 108.832 444.608 107.848L442.784 108.88ZM456.92 102.76H449.936V100.096C452.264 99.736 454.736 99.208 456.68 98.56L454.616 96.52C452.864 97.216 449.96 97.888 447.344 98.272V104.68C447.344 107.08 447.224 110.104 445.736 112.24C446.24 112.576 447.32 113.56 447.704 114.064C449.48 111.76 449.888 108.064 449.936 105.208H451.808V113.968H454.496V105.208H456.92V102.76ZM466.016 97.432L465.488 97.528H459.44V100.408H464.456C463.4 104.608 461.336 107.896 458.576 109.768C459.272 110.176 460.4 111.304 460.88 111.976C464.24 109.456 466.832 104.608 467.888 98.128L466.016 97.432ZM477.176 95.872C476.096 97.36 474.44 99.184 472.928 100.624C472.424 99.616 471.992 98.608 471.608 97.528V91.672H468.56V110.416C468.56 110.824 468.416 110.968 468.008 110.968C467.552 110.968 466.28 110.968 464.96 110.92C465.392 111.784 465.896 113.224 466.016 114.112C467.96 114.112 469.4 113.968 470.336 113.464C471.296 112.936 471.608 112.096 471.608 110.44V103.552C473.48 107.128 476.024 110.056 479.408 111.856C479.888 111.016 480.848 109.816 481.544 109.192C478.52 107.872 476.072 105.616 474.248 102.856C475.952 101.488 478.04 99.496 479.816 97.72L477.176 95.872ZM489.776 98.632V96.664H491.576C491.144 97.36 490.712 98.008 490.256 98.632H489.776ZM491.648 106.672H487.784V105.136H491.648V106.672ZM487.784 110.512V108.808H491.648V110.512H487.784ZM503.288 92.896L502.856 92.992H495.944V93.448L493.424 92.752C493.064 93.688 492.704 94.6 492.248 95.44V94.216H489.776V91.888H487.136V94.216H483.992V96.664H487.136V98.632H482.96V101.128H488.072C486.392 102.736 484.472 104.056 482.336 105.088C482.864 105.664 483.68 106.864 483.992 107.464C484.376 107.248 484.784 107.008 485.192 106.744V114.016H487.784V112.792H491.648V113.704H494.36V102.88H490.04C490.568 102.304 491.072 101.752 491.576 101.128H495.152V98.632H493.376C494.384 97.072 495.224 95.344 495.944 93.52V114.064H498.752V95.68H501.8C501.2 97.528 500.384 99.952 499.688 101.68C501.608 103.528 502.16 105.28 502.16 106.6C502.16 107.392 501.992 107.968 501.536 108.232C501.296 108.376 500.936 108.448 500.576 108.448C500.144 108.472 499.64 108.448 499.064 108.4C499.496 109.168 499.76 110.392 499.784 111.16C500.528 111.208 501.32 111.208 501.872 111.136C502.52 111.04 503.12 110.824 503.552 110.488C504.512 109.864 504.896 108.688 504.896 106.888C504.896 105.352 504.488 103.456 502.448 101.32C503.432 99.208 504.488 96.496 505.352 94.192L503.288 92.896ZM528.08 105.616H529.16V104.128H528.08V101.776H515.576V103.384H525.536V104.128H514.904V105.616H525.536V106.504H515.48V108.112H520.256L519.776 108.52C520.64 109.264 521.816 110.392 522.464 111.112L524 109.672C523.592 109.264 522.944 108.688 522.296 108.112H528.08V105.616ZM521.96 96.664L523.208 96.16C523.04 95.728 522.656 95.08 522.32 94.552C523.448 94.456 524.528 94.312 525.56 94.144C525.176 94.984 524.624 95.92 524.072 96.664H521.96ZM520.16 95.152C520.424 95.584 520.736 96.184 520.952 96.664H518.024L519.296 96.136C519.104 95.776 518.72 95.296 518.408 94.84C519.44 94.792 520.496 94.72 521.528 94.624L520.16 95.152ZM516.152 95.368C516.416 95.728 516.752 96.256 516.992 96.664H515.816V98.392H520.544V99.352H515.096V101.08H529.088V99.352H523.184V98.392H528.104V96.664H526.592C526.976 96.016 527.36 95.296 527.672 94.672L525.776 94.096C526.88 93.952 527.936 93.736 528.872 93.496L527.264 91.72C524.36 92.44 519.224 92.896 514.856 93.04C515.096 93.544 515.384 94.384 515.456 94.936C516.08 94.912 516.704 94.912 517.352 94.888L516.152 95.368ZM514.808 104.992C514.472 104.464 512.864 102.52 512.24 101.848V101.104H514.472V98.44H512.24V94.984C513.08 94.72 513.848 94.432 514.544 94.12L513.176 91.816C511.592 92.608 509.216 93.328 507.032 93.76C507.296 94.36 507.632 95.32 507.704 95.968C508.4 95.872 509.096 95.728 509.84 95.584V98.44H506.888V101.104H509.432C508.688 103.408 507.56 106 506.408 107.536C506.792 108.28 507.368 109.504 507.608 110.392C508.424 109.144 509.168 107.416 509.84 105.568V114.088H512.24V104.824C512.72 105.712 513.2 106.648 513.464 107.296L514.808 104.992ZM515.792 113.752C516.488 112.672 517.04 110.992 517.448 109.648L515.36 108.808C515 110.128 514.352 111.76 513.608 112.816L515.792 113.752ZM529.28 112.696C528.824 111.64 527.912 110.008 527.096 108.736L525.008 109.552C525.32 110.08 525.656 110.704 525.968 111.304C525.32 111.16 524.312 110.824 523.832 110.512C523.76 111.64 523.616 111.832 523.088 111.832H520.832C520.088 111.832 519.968 111.76 519.968 111.208V108.808H517.472V111.232C517.472 113.248 518.048 113.896 520.496 113.896H523.376C525.08 113.896 525.728 113.344 525.968 111.328C526.424 112.192 526.856 113.032 527.096 113.68L529.28 112.696ZM534.56 96.904H549.32V100.216H552.272V94.216H543.944C543.68 93.352 543.176 92.272 542.696 91.432L539.816 92.224C540.128 92.848 540.416 93.544 540.656 94.216H531.752V100.216H534.56V96.904ZM543.488 107.272H550.064V104.584H543.488V101.752H548.6V99.016H535.4V101.752H540.512V109.888C539.12 109.168 538.016 108.016 537.296 106.048C537.488 105.136 537.68 104.152 537.8 103.144L534.896 102.88C534.464 106.96 533.264 110.296 530.672 112.24C531.32 112.624 532.544 113.632 533 114.136C534.368 112.96 535.424 111.4 536.216 109.528C538.4 113.008 541.688 113.752 546.176 113.752H552.152C552.296 112.888 552.752 111.52 553.184 110.848C551.552 110.896 547.592 110.896 546.32 110.896C545.312 110.896 544.376 110.848 543.488 110.728V107.272ZM563 112.336C567.344 112.336 569.864 109.912 569.864 104.008V94.24H566.456V104.32C566.456 108.016 565.112 109.264 563 109.264C560.912 109.264 559.64 108.016 559.64 104.32V94.24H556.088V104.008C556.088 109.912 558.68 112.336 563 112.336ZM574.137 112H577.689V105.688H580.065C583.881 105.688 586.929 103.864 586.929 99.808C586.929 95.608 583.905 94.24 579.969 94.24H574.137V112ZM577.689 102.88V97.048H579.705C582.153 97.048 583.449 97.744 583.449 99.808C583.449 101.848 582.273 102.88 579.825 102.88H577.689ZM602.398 112.336C606.742 112.336 609.262 109.912 609.262 104.008V94.24H605.854V104.32C605.854 108.016 604.51 109.264 602.398 109.264C600.31 109.264 599.038 108.016 599.038 104.32V94.24H595.486V104.008C595.486 109.912 598.078 112.336 602.398 112.336ZM613.536 112H617.088V105.688H619.464C623.28 105.688 626.328 103.864 626.328 99.808C626.328 95.608 623.304 94.24 619.368 94.24H613.536V112ZM617.088 102.88V97.048H619.104C621.552 97.048 622.848 97.744 622.848 99.808C622.848 101.848 621.672 102.88 619.224 102.88H617.088ZM641.797 112.336C646.141 112.336 648.661 109.912 648.661 104.008V94.24H645.253V104.32C645.253 108.016 643.909 109.264 641.797 109.264C639.709 109.264 638.437 108.016 638.437 104.32V94.24H634.885V104.008C634.885 109.912 637.477 112.336 641.797 112.336ZM652.934 112H656.486V105.688H658.862C662.678 105.688 665.726 103.864 665.726 99.808C665.726 95.608 662.702 94.24 658.766 94.24H652.934V112ZM656.486 102.88V97.048H658.502C660.95 97.048 662.246 97.744 662.246 99.808C662.246 101.848 661.07 102.88 658.622 102.88H656.486ZM670.046 105.952H672.35L672.854 97.096L672.974 93.76H669.422L669.542 97.096L670.046 105.952ZM671.198 112.336C672.446 112.336 673.406 111.328 673.406 110.032C673.406 108.736 672.446 107.728 671.198 107.728C669.95 107.728 669.014 108.736 669.014 110.032C669.014 111.328 669.95 112.336 671.198 112.336Z" fill="#252525"/>
<path d="M173.6 51.78H178.08V55.14H173.6V51.78ZM175.64 58.7C175.72 58.06 175.76 57.42 175.8 56.78H179.88V50.14H171.9V56.78H173.98C173.8 60.26 173.36 64.14 170.68 66.3C171.14 66.58 171.68 67.16 171.96 67.6C174.06 65.84 174.98 63.18 175.44 60.36H178.24C178.08 63.96 177.88 65.38 177.54 65.74C177.4 65.94 177.2 65.96 176.88 65.96C176.54 65.96 175.66 65.96 174.74 65.86C175.04 66.32 175.22 67 175.26 67.5C176.22 67.54 177.16 67.54 177.68 67.46C178.28 67.4 178.68 67.28 179.04 66.82C179.58 66.2 179.78 64.34 180 59.46C180.02 59.22 180.02 58.7 180.02 58.7H175.64ZM183.46 51.62H181.66V62.66H183.46V51.62ZM186.44 49.62V65.22C186.44 65.58 186.3 65.7 185.92 65.72C185.52 65.72 184.26 65.74 182.9 65.68C183.18 66.22 183.46 67.08 183.56 67.58C185.38 67.6 186.58 67.54 187.32 67.26C188.02 66.92 188.3 66.38 188.3 65.22V49.62H186.44ZM200.84 61.16V59.06H205.02V61.16H200.84ZM194.96 59.06H199V61.16H194.96V59.06ZM199 55.44V57.48H194.96V55.44H199ZM205.02 55.44V57.48H200.84V55.44H205.02ZM209.22 61.16H206.86V53.76H200.84V52.08H208.44V50.36H191.58V52.08H199V53.76H193.12V61.16H190.82V62.88H193.12V67.6H194.96V62.88H205.02V65.42C205.02 65.74 204.9 65.84 204.52 65.86C204.2 65.86 202.9 65.88 201.68 65.84C201.96 66.3 202.26 67.1 202.36 67.6C204.06 67.6 205.18 67.58 205.9 67.28C206.62 67 206.86 66.46 206.86 65.44V62.88H209.22V61.16ZM216.08 49.64C215.7 50.32 215.2 51.04 214.6 51.74C214.08 51.02 213.42 50.32 212.58 49.6L211.22 50.64C212.16 51.46 212.86 52.26 213.38 53.12C212.54 53.96 211.64 54.7 210.8 55.24C211.2 55.66 211.66 56.42 211.92 56.92C212.66 56.34 213.44 55.62 214.22 54.8C214.44 55.5 214.62 56.2 214.72 56.96C213.76 58.66 212.16 60.42 210.66 61.3C211.06 61.7 211.5 62.42 211.74 62.9C212.82 62.08 213.96 60.9 214.9 59.62V59.88C214.9 62.32 214.74 64.46 214.28 65.06C214.12 65.28 213.94 65.38 213.62 65.4C213.18 65.46 212.44 65.48 211.44 65.4C211.78 65.94 211.98 66.66 211.98 67.26C212.92 67.3 213.78 67.3 214.5 67.14C215 67.04 215.38 66.82 215.68 66.42C216.54 65.26 216.76 62.68 216.76 59.9C216.76 57.6 216.58 55.38 215.54 53.3C216.3 52.36 216.98 51.42 217.48 50.54L216.08 49.64ZM220.36 63.64H225.72V62.28H220.36V63.64ZM223.88 55.04H222.34V53.42H223.88V55.04ZM226.72 56.46V59.7C226.68 59.72 226.6 59.72 226.5 59.72H225.54C225.24 59.72 225.2 59.66 225.2 59.26V56.46H226.72ZM219.44 65.14V60.78C219.76 60.98 220.22 61.32 220.42 61.52C221.86 60.14 222.26 58.12 222.32 56.46H223.88V59.28C223.88 60.6 224.2 60.96 225.34 60.96H226.68H226.72V65.14H219.44ZM220.98 56.46C220.92 57.82 220.62 59.36 219.44 60.6V56.46H220.98ZM229 53.42V51.96H225.3C225.78 51.28 226.34 50.48 226.8 49.66L225.08 49.16C224.7 50 224.02 51.14 223.44 51.96H221.14L222.04 51.46C221.7 50.84 221.02 49.88 220.42 49.16L219.04 49.86C219.52 50.48 220.08 51.34 220.4 51.96H217.42V53.42H221V55.04H217.88V67.58H219.44V66.58H226.72V67.46H228.34V55.04H225.2V53.42H229ZM240.26 54.58H242.68V56.4H240.26V54.58ZM244.36 51.82C244.1 52.28 243.82 52.78 243.54 53.2H240.18C240.58 52.76 240.9 52.28 241.22 51.82H244.36ZM246.74 56.4H244.28V54.58H246.74V56.4ZM247.72 58.04C246.84 58.72 245.46 59.58 244.34 60.22C243.98 59.5 243.52 58.84 242.92 58.28C243.1 58.12 243.28 57.94 243.44 57.78H248.4V53.2H245.42C245.88 52.52 246.34 51.76 246.66 51.1L245.5 50.34L245.24 50.42H242.04C242.22 50.1 242.36 49.78 242.52 49.46L240.8 49.16C240.12 50.76 238.82 52.7 236.86 54.1C237.28 54.34 237.86 54.84 238.14 55.22C238.32 55.08 238.5 54.94 238.68 54.78V57.78H241.4C240.28 58.54 238.76 59.26 237.44 59.66C237.76 58.62 238.02 57.42 238.16 56.36L237.04 56.06L236.8 56.12H235.7L236.52 55.26C236.2 54.92 235.76 54.54 235.28 54.18C236.32 53.2 237.42 51.92 238.18 50.72L237.1 49.98L236.8 50.08H230.88V51.6H235.6C235.16 52.2 234.6 52.82 234.06 53.34C233.56 53.02 233.02 52.72 232.52 52.48L231.42 53.54C232.7 54.18 234.18 55.24 235.08 56.12H230.66V57.7H233.2V65.38C233.2 65.62 233.14 65.68 232.88 65.68C232.64 65.7 231.82 65.7 230.96 65.68C231.22 66.14 231.52 66.92 231.6 67.42C232.74 67.42 233.6 67.38 234.18 67.08C234.74 66.78 234.92 66.26 234.92 65.42V57.7H236.36C236.16 58.78 235.9 59.9 235.64 60.68L236.92 61.16C237.1 60.74 237.28 60.24 237.44 59.72C237.8 60.02 238.24 60.56 238.48 60.94C239.54 60.52 240.78 59.84 241.86 59.1C242.08 59.32 242.28 59.56 242.44 59.82C241.16 60.84 238.8 61.94 237 62.44C237.34 62.78 237.72 63.32 237.92 63.7C239.56 63.06 241.62 61.98 243.08 60.94C243.18 61.16 243.24 61.38 243.32 61.6C241.88 63.1 239.1 64.66 236.78 65.32C237.1 65.66 237.5 66.18 237.7 66.58C239.7 65.84 242 64.48 243.64 63.1C243.76 64.34 243.54 65.38 243.16 65.72C242.88 66.04 242.6 66.1 242.2 66.1C241.86 66.1 241.34 66.08 240.76 66.02C241.04 66.44 241.18 67.08 241.2 67.52C241.68 67.54 242.16 67.56 242.52 67.56C243.3 67.54 243.82 67.38 244.32 66.84C245.2 66.04 245.54 63.74 244.84 61.48C245.08 61.36 245.34 61.22 245.6 61.08C246.16 63.22 247.1 65.42 248.12 66.66C248.4 66.24 248.94 65.66 249.32 65.38C248.26 64.34 247.28 62.36 246.72 60.46C247.4 60.08 248.06 59.64 248.64 59.2L247.72 58.04ZM258.34 62.48C260.62 61.74 262.02 60.02 262.02 57.8C262.02 56.28 261.36 55.3 260.1 55.3C259.18 55.3 258.4 55.88 258.4 56.9C258.4 57.94 259.18 58.5 260.08 58.5C260.18 58.5 260.28 58.5 260.36 58.48C260.26 59.68 259.36 60.6 257.82 61.18L258.34 62.48ZM286.52 49.6C285.44 51.18 283.42 52.8 281.72 53.76C282.18 54.1 282.74 54.66 283.04 55.04C284.9 53.9 286.92 52.14 288.28 50.32L286.52 49.6ZM287.1 54.96C285.9 56.66 283.66 58.36 281.76 59.36C282.2 59.7 282.74 60.26 283.04 60.68C285.1 59.48 287.36 57.64 288.8 55.68L287.1 54.96ZM273.86 53.24H279.44V54.26H273.86V53.24ZM273.86 51.12H279.44V52.1H273.86V51.12ZM281.96 56.56H277.7C277.54 56.18 277.3 55.78 277.1 55.46H281.28V49.92H272.1V55.46H276.92L275.32 55.8C275.46 56.02 275.6 56.28 275.7 56.56H271.16V58.02H281.96V56.56ZM272.98 63.1C272.56 64.08 271.86 65.14 271.12 65.88C271.48 66.12 272.12 66.6 272.42 66.88C273.18 66.06 274.04 64.74 274.54 63.54L272.98 63.1ZM274.06 60.14H279.22V61.54H274.06V60.14ZM281.02 62.8V58.86H272.32V62.8H275.68V65.76C275.68 65.94 275.62 66 275.4 66C275.22 66 274.54 66 273.82 65.98C274.06 66.4 274.3 67.02 274.38 67.5C275.46 67.5 276.24 67.48 276.8 67.24C277.36 67 277.5 66.6 277.5 65.78V62.8H281.02ZM287.46 60.6C286.2 62.84 283.76 64.8 281.32 65.96C280.96 65.18 280.2 63.98 279.56 63.06L278.24 63.64C278.88 64.6 279.64 65.9 279.94 66.72L281.28 66.06C281.7 66.42 282.24 67 282.5 67.44C285.18 66.04 287.68 63.86 289.2 61.24L287.46 60.6ZM301.44 51.26V52.12H298.72V51.26H301.44ZM298.72 55.98V54.92H300.66L300.5 55C300.68 55.16 300.88 55.34 301.04 55.52L298.72 55.98ZM298.72 53.08H301.44V53.96H298.72V53.08ZM297.18 55.36C297.18 56.1 296.76 56.4 296.44 56.52C296.66 56.8 296.94 57.44 297.02 57.8C297.38 57.6 297.96 57.44 301.96 56.56C302.2 56.88 302.42 57.2 302.56 57.48L303.66 56.9V58H305.16V51.14H307.04C306.78 51.82 306.42 52.58 306.02 53.38C307.14 54.18 307.62 54.78 307.62 55.26C307.64 55.58 307.52 55.8 307.28 55.92C307.16 55.98 306.98 56 306.78 56.02C306.46 56.04 306 56.02 305.5 55.98C305.76 56.34 305.92 56.88 305.94 57.28C306.44 57.32 307.02 57.3 307.42 57.26C307.72 57.22 308.06 57.12 308.32 56.96C308.8 56.66 309.08 56.16 309.08 55.46C309.08 54.78 308.62 53.98 307.56 53.14C308.06 52.22 308.6 51.28 309.06 50.28L307.98 49.74L307.76 49.82H303.66V56.82C303.32 56.24 302.7 55.52 302.08 54.92H302.9V50.3H300.82C300.68 49.86 300.46 49.4 300.18 49L298.72 49.38C298.88 49.66 299.02 49.98 299.14 50.3H298.72V50.28H297.18V53.34L295.92 53.08C295.8 53.4 295.7 53.68 295.54 53.96L293.5 54.14C294.6 53.34 295.72 52.32 296.7 51.26L295.64 50.58C295.32 50.98 294.96 51.38 294.58 51.76L293.12 51.84C293.8 51.26 294.46 50.52 295.04 49.76L293.9 49.12C293.3 50.12 292.34 51.12 292.04 51.34C291.76 51.6 291.5 51.76 291.26 51.8C291.4 52.14 291.58 52.76 291.66 53.04C291.86 52.94 292.2 52.88 293.52 52.76C293.04 53.18 292.64 53.5 292.42 53.66C291.96 53.98 291.58 54.2 291.24 54.24C291.38 54.56 291.54 55.18 291.62 55.44V55.46C291.88 55.34 292.34 55.22 294.82 54.96C293.86 56.06 292.52 56.84 291 57.38C291.26 57.66 291.6 58.24 291.74 58.54C294.22 57.52 296.3 55.86 297.18 53.4V55.36ZM304.58 63.72V64.48H295.6V63.72H304.58ZM295.6 66.1V65.32H304.58V66.1H295.6ZM293.9 67.58H295.6V67.08H304.58V67.58H306.38V62.72H293.9V67.58ZM297.76 60.76L298.08 60.66C297.96 60.34 297.68 59.9 297.4 59.54H302.72C302.48 59.94 302.16 60.42 301.92 60.76H297.76ZM304.44 59.54H307.18V58.34H301.16C301.02 57.92 300.8 57.48 300.58 57.12L298.84 57.54C298.96 57.78 299.08 58.06 299.2 58.34H293.16V59.54H296.32L295.66 59.74C295.94 60.02 296.2 60.42 296.38 60.76H291.1V62.02H308.94V60.76H303.64C303.96 60.44 304.28 60.02 304.64 59.6L304.44 59.54ZM322.9 53.36H324.74V52.18H328.86V50.68H324.74V49.2H322.9V50.68H320.42V52.18H322.9V53.36ZM312.66 62.66C312.3 63.76 311.66 64.94 310.92 65.74C311.26 65.96 311.88 66.4 312.14 66.64C312.9 65.72 313.68 64.34 314.12 63L312.66 62.66ZM320.14 54.48H316.92C316.7 53.96 316.4 53.4 316.16 52.94H317.16V52.18H319.6V50.68H317.16V49.2H315.32V50.68H311.28V52.18H315.32V52.94H315.9L314.34 53.36C314.52 53.7 314.7 54.08 314.84 54.48H311.36V55.88H320.14V54.48ZM320.22 62.28V60.82H316.7V59.6H320.42V58.18H318.04C318.3 57.62 318.62 56.94 318.92 56.28L317.28 55.86C317.12 56.54 316.72 57.48 316.4 58.18H314.66L315.04 58.04C314.92 57.44 314.52 56.54 314.1 55.88L312.68 56.34C313.02 56.88 313.32 57.6 313.46 58.18H311.08V59.6H314.96V60.82H311.36V62.28H314.96V67.48H316.7V62.28H320.22ZM317.32 63.12C317.84 63.94 318.42 65.08 318.7 65.82L320 65.06C319.72 64.36 319.12 63.28 318.56 62.46L317.32 63.12ZM329.02 58.38H322.94V55.88C324.96 55.58 327.14 55.12 328.76 54.56L327.36 53.22C325.92 53.8 323.46 54.34 321.26 54.66V59.92C321.26 61.94 321.14 64.52 319.92 66.36C320.28 66.58 320.96 67.24 321.22 67.56C322.66 65.5 322.94 62.34 322.94 60H325.06V67.5H326.82V60H329.02V58.38ZM336.34 50.32H331.44V51.72H336.34V50.32ZM343.32 51.9H346.1C345.82 52.4 345.52 52.92 345.26 53.28L346.72 53.8C347.28 53.06 347.96 51.9 348.46 50.84L347.18 50.42L346.92 50.5H340.68C340.82 50.16 340.94 49.84 341.06 49.5L339.4 49.14C338.96 50.54 338.14 51.92 337.1 52.82C337.52 53.02 338.2 53.5 338.5 53.76C339.02 53.26 339.52 52.62 339.96 51.9H341.62V52.16C341.62 53.02 341.16 54.14 336.82 54.7V53.38H331.02V54.84H336.1C336.44 55.18 336.86 55.8 337.04 56.22C340.48 55.74 342.06 54.88 342.78 53.96C344.04 55.12 345.86 55.84 348.14 56.16C348.32 55.68 348.78 55.02 349.14 54.64C346.5 54.48 344.36 53.8 343.28 52.7C343.32 52.52 343.32 52.36 343.32 52.22V51.9ZM335.42 62H344.8V63.16H335.42V62ZM335.42 59.74H344.8V60.86H335.42V59.74ZM335.42 57.48H344.8V58.62H335.42V57.48ZM346.66 64.34V56.3H333.62V64.34H336.84C335.46 65.12 333.12 65.8 331.08 66.2C331.48 66.54 332.14 67.22 332.46 67.6C334.46 67.04 336.96 66.08 338.58 65.1L336.92 64.34H342.9L341.74 65.28C343.8 65.98 345.9 66.88 347.12 67.54L348.8 66.52C347.44 65.86 345.22 65.02 343.16 64.34H346.66ZM353.54 53.78H357.46V54.96H353.54V53.78ZM357.46 51.34V52.58H353.54V51.34H357.46ZM357.98 59.64C358.08 59.86 358.2 60.12 358.32 60.38L356.66 60.52C357.64 59.78 358.6 58.9 359.48 57.96L358.5 57.28C358.24 57.62 357.96 57.94 357.68 58.26L356.38 58.32C356.9 57.84 357.4 57.24 357.86 56.64L357.12 56.26H359.2V50.02H351.78V67.6H353.54V56.26H356.64C356.18 57.02 355.5 57.74 355.3 57.92C355.08 58.12 354.86 58.24 354.66 58.28C354.82 58.58 354.98 59.18 355.04 59.44C355.24 59.36 355.56 59.3 356.72 59.2C356.24 59.66 355.86 59.98 355.66 60.12C355.26 60.42 354.9 60.62 354.6 60.64C354.74 60.96 354.9 61.54 354.96 61.78C355.24 61.66 355.74 61.56 358.68 61.26C358.74 61.46 358.82 61.64 358.88 61.82H358.06V63.62C358.06 63.72 358.06 63.82 358.06 63.92H356.48V62.14H355.28V65.02H357.76C357.46 65.56 356.86 66.06 355.68 66.42C355.94 66.64 356.36 67.16 356.52 67.48C359.02 66.6 359.38 65.18 359.38 63.66V61.82H359.12L359.9 61.52C359.7 61 359.28 60.06 358.92 59.36L357.98 59.64ZM364.7 65.6V62.14H363.44V63.92H361.84V61.82H360.5V67.3H361.84V65.02H363.44V65.6H364.7ZM362.52 54.96V53.78H366.56V54.96H362.52ZM366.56 51.34V52.58H362.52V51.34H366.56ZM368.34 50.02H360.76V56.26H362C361.56 57.04 360.86 57.78 360.66 57.94C360.44 58.14 360.24 58.26 360.02 58.3C360.16 58.62 360.32 59.2 360.4 59.46C360.58 59.36 360.9 59.3 362.08 59.2C361.62 59.66 361.22 59.98 361.04 60.12C360.62 60.46 360.28 60.64 359.98 60.7C360.12 60.98 360.28 61.58 360.32 61.82C360.62 61.68 361.12 61.58 364.06 61.26C364.16 61.52 364.26 61.74 364.32 61.92L365.28 61.54C365.08 60.98 364.64 60.04 364.24 59.36L363.32 59.68C363.44 59.88 363.56 60.14 363.68 60.4L362.04 60.54C363 59.8 363.98 58.88 364.86 57.94L363.88 57.26C363.62 57.62 363.32 57.94 363.02 58.26L361.76 58.32C362.24 57.84 362.76 57.26 363.2 56.66L362.44 56.26H366.56V65.34C366.56 65.62 366.48 65.7 366.2 65.72C365.96 65.72 365.12 65.72 364.32 65.7C364.56 66.18 364.8 67.02 364.86 67.52C366.14 67.52 367 67.48 367.6 67.16C368.18 66.86 368.34 66.32 368.34 65.36V50.02ZM386.76 52.18V53.44H385.38V52.18H386.76ZM386.76 56.14H385.38V54.84H386.76V56.14ZM383.92 53.44H381.04V54.84H383.92V56.14H381.62V57.52H383.92V58.74H381.56V60.2H383.92V61.52H381.14V62.98H383.92V65.12H385.38V62.98H388.74V61.52H385.38V60.2H388.34V58.74H385.38V57.52H388.1V54.84H389.14V53.44H388.1V50.8H385.38V49.22H383.92V50.8H381.62V52.18H383.92V53.44ZM377.02 63.88L375 64.36V59.28H376.96V57.7H375V55.8H376.44V54.24H372.74C373.26 53.52 373.8 52.72 374.28 51.86C375.28 52.7 376.3 53.7 376.94 54.48L377.6 52.92C376.98 52.2 375.98 51.3 374.96 50.52C375.08 50.26 375.2 49.98 375.3 49.74L374.12 49.1C373.34 50.98 372.04 52.76 370.78 53.9C370.98 54.36 371.3 55.4 371.38 55.78C371.6 55.56 371.84 55.34 372.06 55.08V55.8H373.7V57.7H371.16V59.28H373.7V64.66C372.66 64.9 371.7 65.12 370.98 65.28L371.28 66.94C372.9 66.52 375.06 65.94 377.12 65.36L377.02 63.88ZM371.64 60.5C371.9 61.64 372.16 63.14 372.22 64.12L373.3 63.72C373.2 62.78 372.94 61.3 372.66 60.2L371.64 60.5ZM376.22 63.88C376.5 63 376.84 61.6 377.14 60.4L375.98 60C375.84 61.04 375.54 62.54 375.3 63.5L376.22 63.88ZM380.36 56.34L380.12 56.38H379.2C379.86 54.64 380.6 52.42 381.2 50.6H377.46V52.2H379.2C378.56 54.18 377.78 56.34 377.16 57.84H379.76C379.62 59.26 379.42 60.52 379.16 61.62C378.9 61.04 378.66 60.34 378.48 59.58L377.28 60.06C377.62 61.4 378.06 62.52 378.56 63.42C378.02 64.76 377.3 65.74 376.38 66.36C376.68 66.68 377.04 67.22 377.24 67.62C378.18 66.9 378.92 66.02 379.5 64.82C381.18 66.78 383.42 67.26 385.98 67.26H388.74C388.82 66.84 389.04 66.12 389.26 65.74C388.56 65.76 386.6 65.76 386.08 65.76C383.76 65.76 381.64 65.3 380.12 63.32C380.72 61.54 381.06 59.28 381.22 56.44L380.36 56.34ZM393.42 63.88V59.46H397.14V63.88H393.42ZM397.14 54.04V57.84H393.42V54.04H397.14ZM402.8 52.32C403.12 51.44 403.38 50.52 403.62 49.6L401.82 49.18C401.22 51.82 400.16 54.48 398.84 56.2V52.42H395.64C395.96 51.58 396.34 50.52 396.68 49.52L394.66 49.18C394.54 50.14 394.24 51.46 393.96 52.42H391.72V67.04H393.42V65.52H398.84V56.34C399.3 56.6 400 57.1 400.3 57.38C400.94 56.46 401.56 55.3 402.12 54.02H406.84C406.58 61.56 406.32 64.58 405.68 65.24C405.46 65.52 405.24 65.58 404.84 65.58C404.34 65.58 403.18 65.56 401.9 65.46C402.24 65.98 402.46 66.76 402.5 67.26C403.64 67.32 404.82 67.34 405.52 67.26C406.28 67.16 406.76 66.98 407.26 66.32C408.06 65.32 408.3 62.22 408.58 53.2C408.6 52.96 408.6 52.32 408.6 52.32H402.8ZM405.36 61.34C404.76 60.16 403.4 58.26 402.34 56.88L400.88 57.7C401.94 59.14 403.24 61.1 403.8 62.32L405.36 61.34ZM424.82 52.68H415.04V51.34H424.82V52.68ZM424.82 55.32H415.04V53.98H424.82V55.32ZM426.7 49.96H413.24V56.68H426.7V49.96ZM421.12 63H427.48V61.38H421.12V59.48H428.78V57.84H411.26V59.48H419.26V65.08C417.7 64.66 416.58 63.78 415.86 62.16C416.06 61.58 416.22 60.94 416.36 60.28L414.5 60.02C414 62.8 412.76 65 410.72 66.3C411.12 66.6 411.82 67.28 412.1 67.62C413.32 66.74 414.32 65.56 415.06 64.12C416.7 66.66 419.24 67.22 423.06 67.22H428.58C428.68 66.7 428.96 65.88 429.22 65.46C428.04 65.48 424.04 65.5 423.16 65.48C422.44 65.48 421.74 65.46 421.12 65.4V63ZM435.04 64.8V62.22H445.16V64.8H435.04ZM445.16 57.94V60.5H435.04V57.94H445.16ZM445.16 53.66V56.22H435.04V53.66H445.16ZM440.12 51.88C440.46 51.16 440.78 50.3 441.1 49.46L438.88 49.2C438.74 49.98 438.5 51.02 438.22 51.88H433.18V67.6H435.04V66.52H445.16V67.52H447.12V51.88H440.12ZM455 49.3C454.02 52.2 452.42 55.12 450.68 57C450.98 57.42 451.5 58.38 451.68 58.78C452.24 58.12 452.82 57.38 453.36 56.54V67.62H455.06V53.58C455.66 52.36 456.22 51.06 456.68 49.8L455 49.3ZM466.02 62.58V65.34H459V62.58H466.02ZM457.42 67.56H459V66.84H466.02V67.5H467.66V61.08H457.42V67.56ZM457.7 59.62H467.44V58.14H457.7V59.62ZM467.44 55.32H457.7V56.8H467.44V55.32ZM462.4 52.42L463.84 51.8C463.54 51.08 462.94 50 462.4 49.2L460.8 49.82C461.3 50.62 461.86 51.7 462.14 52.42H456.28V53.94H468.96V52.42H462.4ZM476.76 51C478.62 52.28 481 54.22 482.1 55.46L483.48 54.04C482.3 52.78 479.86 50.98 478.02 49.76L476.76 51ZM484.96 56.26C486.04 58.62 487.1 61.76 487.46 63.8L489.32 63.02C488.9 60.98 487.84 57.96 486.68 55.58L484.96 56.26ZM472.6 56.16C472.34 58.64 471.7 61.68 470.92 63.74L472.78 64.52C473.54 62.34 474.12 58.96 474.42 56.5L472.6 56.16ZM475.94 54.82V64.36C475.94 66.56 476.6 67.2 478.94 67.2H482.64C484.96 67.2 485.5 66.06 485.72 62.3C485.24 62.18 484.42 61.84 483.98 61.5C483.84 64.8 483.66 65.46 482.52 65.46H479.14C478.08 65.46 477.86 65.3 477.86 64.36V54.82H475.94ZM500.84 59.58C500.84 59.74 500.78 59.8 500.58 59.8C500.4 59.82 499.82 59.82 499.18 59.8C499.36 60.14 499.56 60.62 499.62 61C500.6 61 501.3 61 501.8 60.78C502.26 60.58 502.4 60.26 502.4 59.56V54.42H501.78V54.4H499.34V52.56H502.54V51.02H499.34V49.38H497.74V55.86H500.84V59.58ZM498.22 56.58C498.1 57.72 497.86 58.82 497.3 59.64C497.64 59.8 498.24 60.2 498.52 60.4C499.08 59.5 499.46 58.16 499.66 56.8L498.22 56.58ZM496.7 63.06C495.46 64.1 493.04 65.42 491.16 66.14C491.5 66.52 492 67.16 492.22 67.54C494.16 66.72 496.58 65.42 498.24 64.24L496.7 63.06ZM508.54 66.08C507.16 65.18 504.88 63.94 502.8 62.96L501.76 64.28C503.82 65.26 506.02 66.56 507.32 67.48L508.54 66.08ZM509.04 61.24H507.2C507.38 58.28 507.48 53.7 507.5 50.18H503.16V51.8H505.8C505.8 52.5 505.78 53.24 505.76 53.96H503.36V55.5H505.72C505.7 56.22 505.68 56.94 505.66 57.64H503.22V59.18H505.58C505.54 59.92 505.5 60.62 505.46 61.24H494.58L494.5 59.12H496.88V57.56H494.46L494.38 55.46H496.8V53.92H494.32L494.26 51.78C495.22 51.5 496.24 51.2 497.12 50.84L496.26 49.34C495.28 49.82 493.8 50.42 492.54 50.82L492.9 61.24H491V62.96H509.04V61.24ZM528.5 50.38H518.8V52.16H528.5V50.38ZM515.28 49.2C514.3 50.64 512.38 52.42 510.72 53.5C511.06 53.86 511.56 54.58 511.78 55C513.62 53.7 515.7 51.72 517.06 49.94L515.28 49.2ZM516.06 53.48C514.72 55.74 512.56 58.02 510.52 59.48C510.9 59.84 511.56 60.66 511.8 61.06C512.44 60.54 513.12 59.92 513.78 59.26V67.62H515.64V57.2C516.46 56.2 517.2 55.16 517.82 54.14L516.06 53.48ZM529.06 55.84H517.96V57.62H524.28V65.3C524.28 65.58 524.16 65.68 523.78 65.68C523.42 65.7 522.08 65.7 520.8 65.66C521.06 66.2 521.32 66.98 521.4 67.52C523.26 67.52 524.44 67.5 525.18 67.22C525.94 66.92 526.18 66.38 526.18 65.32V57.62H529.06V55.84ZM536.72 63.44H540.48V62.08H536.72V61.06H540.44V55.04H536.72V54H540.68V55.5H542.8C542.64 59.14 542.14 62.16 540.5 64.42C539.24 64.56 537.96 64.68 536.72 64.8V63.44ZM532.96 59.84V58.62H535.02V59.84H532.96ZM538.86 58.62V59.84H536.72V58.62H538.86ZM536.72 57.48V56.26H538.86V57.48H536.72ZM532.96 56.26H535.02V57.48H532.96V56.26ZM544.62 53.78C544.64 52.42 544.66 50.98 544.66 49.5H542.88C542.88 51 542.88 52.42 542.86 53.78H540.76V52.62H536.72V51.34C538.1 51.2 539.42 51 540.48 50.78L539.6 49.38C537.52 49.84 533.98 50.2 531.02 50.36C531.2 50.72 531.4 51.32 531.46 51.7C532.58 51.66 533.8 51.6 535.02 51.5V52.62H530.9V54H535.02V55.04H531.44V61.06H535.02V62.08H531.38V63.44H535.02V64.96C533.44 65.1 532 65.22 530.84 65.3L531.08 66.88C533.22 66.68 536.1 66.38 538.98 66.04C538.86 66.14 538.74 66.24 538.62 66.32C539.06 66.62 539.68 67.28 539.96 67.7C543.4 65.06 544.3 60.82 544.56 55.5H546.92C546.76 62.38 546.56 64.92 546.12 65.48C545.92 65.74 545.74 65.8 545.4 65.8C545.04 65.8 544.22 65.8 543.3 65.72C543.58 66.22 543.78 66.98 543.82 67.48C544.76 67.54 545.68 67.54 546.28 67.46C546.9 67.36 547.32 67.2 547.7 66.6C548.34 65.74 548.52 62.9 548.74 54.64C548.74 54.42 548.76 53.78 548.76 53.78H544.62ZM559.94 53.46V52.96V49.26H557.98V52.96V53.46H551.68V55.36H557.88C557.58 58.96 556.28 63.2 551.08 66.18C551.52 66.52 552.22 67.22 552.52 67.68C558.2 64.32 559.56 59.48 559.86 55.36H566.12C565.78 61.9 565.36 64.64 564.68 65.28C564.44 65.52 564.2 65.58 563.76 65.58C563.26 65.58 562.04 65.58 560.72 65.46C561.08 66.02 561.34 66.84 561.38 67.38C562.56 67.44 563.84 67.46 564.56 67.38C565.34 67.3 565.86 67.1 566.4 66.46C567.28 65.44 567.66 62.48 568.1 54.38C568.12 54.12 568.14 53.46 568.14 53.46H559.94ZM579.18 61.04H580.82L581.42 53.68L581.48 51.04H578.54L578.6 53.68L579.18 61.04ZM580 66.14C581 66.14 581.82 65.44 581.82 64.4C581.82 63.36 581 62.64 580 62.64C579 62.64 578.18 63.36 578.18 64.4C578.18 65.44 579 66.14 580 66.14Z" fill="white"/>
<defs>
<linearGradient id="paint0_linear_72_109" x1="72.577" y1="70.3636" x2="79.0077" y2="84.5349" gradientUnits="userSpaceOnUse">
<stop stop-color="#FFF176"/>
<stop offset="1" stop-color="#00E0B8"/>
</linearGradient>
<linearGradient id="paint1_linear_72_109" x1="72.5876" y1="83.2923" x2="79.0183" y2="97.4636" gradientUnits="userSpaceOnUse">
<stop stop-color="#FFF176"/>
<stop offset="1" stop-color="#00E0B8"/>
</linearGradient>
<linearGradient id="paint2_linear_72_109" x1="49.9257" y1="47.4959" x2="112.776" y2="115.124" gradientUnits="userSpaceOnUse">
<stop stop-color="#FFF176"/>
<stop offset="1" stop-color="#00E0B8"/>
</linearGradient>
<linearGradient id="paint3_linear_72_109" x1="27.3752" y1="23.0193" x2="135.44" y2="139.328" gradientUnits="userSpaceOnUse">
<stop stop-color="#FFF176"/>
<stop offset="1" stop-color="#00E0B8"/>
</linearGradient>
<linearGradient id="paint4_linear_72_109" x1="41.1404" y1="35.6191" x2="49.5344" y2="44.4723" gradientUnits="userSpaceOnUse">
<stop stop-color="#FFF176"/>
<stop offset="1" stop-color="#00E0B8"/>
</linearGradient>
<linearGradient id="paint5_linear_72_109" x1="50.5694" y1="29.6455" x2="57.9483" y2="36.012" gradientUnits="userSpaceOnUse">
<stop stop-color="#FFF176"/>
<stop offset="1" stop-color="#00E0B8"/>
</linearGradient>
<linearGradient id="paint6_linear_72_109" x1="60.0067" y1="26.1847" x2="66.8562" y2="31.056" gradientUnits="userSpaceOnUse">
<stop stop-color="#FFF176"/>
<stop offset="1" stop-color="#00E0B8"/>
</linearGradient>
<linearGradient id="paint7_linear_72_109" x1="68.4149" y1="24.0636" x2="73.3187" y2="25.9642" gradientUnits="userSpaceOnUse">
<stop stop-color="#FFF176"/>
<stop offset="1" stop-color="#00E0B8"/>
</linearGradient>
<linearGradient id="paint8_linear_72_109" x1="75.6195" y1="22.897" x2="81.7316" y2="26.1291" gradientUnits="userSpaceOnUse">
<stop stop-color="#FFF176"/>
<stop offset="1" stop-color="#00E0B8"/>
</linearGradient>
<linearGradient id="paint9_linear_72_109" x1="90.0127" y1="23.6309" x2="96.711" y2="27.9673" gradientUnits="userSpaceOnUse">
<stop stop-color="#FFF176"/>
<stop offset="1" stop-color="#00E0B8"/>
</linearGradient>
<linearGradient id="paint10_linear_72_109" x1="98.4395" y1="26.2269" x2="105.996" y2="31.6302" gradientUnits="userSpaceOnUse">
<stop stop-color="#FFF176"/>
<stop offset="1" stop-color="#00E0B8"/>
</linearGradient>
<linearGradient id="paint11_linear_72_109" x1="107.139" y1="31.0131" x2="113.941" y2="36.8815" gradientUnits="userSpaceOnUse">
<stop stop-color="#FFF176"/>
<stop offset="1" stop-color="#00E0B8"/>
</linearGradient>
<linearGradient id="paint12_linear_72_109" x1="113.864" y1="36.1004" x2="120.923" y2="43.2955" gradientUnits="userSpaceOnUse">
<stop stop-color="#FFF176"/>
<stop offset="1" stop-color="#00E0B8"/>
</linearGradient>
<linearGradient id="paint13_linear_72_109" x1="42.2768" y1="120.723" x2="50.8559" y2="129.401" gradientUnits="userSpaceOnUse">
<stop stop-color="#FFF176"/>
<stop offset="1" stop-color="#00E0B8"/>
</linearGradient>
<linearGradient id="paint14_linear_72_109" x1="52.4406" y1="126.521" x2="59.7947" y2="132.667" gradientUnits="userSpaceOnUse">
<stop stop-color="#FFF176"/>
<stop offset="1" stop-color="#00E0B8"/>
</linearGradient>
<linearGradient id="paint15_linear_72_109" x1="60.9517" y1="130.49" x2="67.7625" y2="135.227" gradientUnits="userSpaceOnUse">
<stop stop-color="#FFF176"/>
<stop offset="1" stop-color="#00E0B8"/>
</linearGradient>
<linearGradient id="paint16_linear_72_109" x1="69.2187" y1="132.36" x2="73.9197" y2="134.078" gradientUnits="userSpaceOnUse">
<stop stop-color="#FFF176"/>
<stop offset="1" stop-color="#00E0B8"/>
</linearGradient>
<linearGradient id="paint17_linear_72_109" x1="76.1899" y1="133.186" x2="82.2284" y2="136.349" gradientUnits="userSpaceOnUse">
<stop stop-color="#FFF176"/>
<stop offset="1" stop-color="#00E0B8"/>
</linearGradient>
<linearGradient id="paint18_linear_72_109" x1="90.0025" y1="132.4" x2="96.3436" y2="135.873" gradientUnits="userSpaceOnUse">
<stop stop-color="#FFF176"/>
<stop offset="1" stop-color="#00E0B8"/>
</linearGradient>
<linearGradient id="paint19_linear_72_109" x1="98.4242" y1="129.989" x2="105.813" y2="136.104" gradientUnits="userSpaceOnUse">
<stop stop-color="#FFF176"/>
<stop offset="1" stop-color="#00E0B8"/>
</linearGradient>
<linearGradient id="paint20_linear_72_109" x1="106.857" y1="126.158" x2="113.655" y2="131.89" gradientUnits="userSpaceOnUse">
<stop stop-color="#FFF176"/>
<stop offset="1" stop-color="#00E0B8"/>
</linearGradient>
<linearGradient id="paint21_linear_72_109" x1="113.593" y1="121.234" x2="120.743" y2="128.305" gradientUnits="userSpaceOnUse">
<stop stop-color="#FFF176"/>
<stop offset="1" stop-color="#00E0B8"/>
</linearGradient>
</defs>
</svg>
