<svg width="643" height="163" viewBox="0 0 643 163" fill="none" xmlns="http://www.w3.org/2000/svg">
<path d="M460 38.8398H118V78.8398H460V38.8398Z" fill="#00E0B8"/>
<path d="M91 125.84V74.8398H600V125.84H91Z" fill="white" stroke="#00E0B8" stroke-width="2"/>
<path d="M599 75.8398H588V124.84H599V75.8398Z" fill="#00E0B8"/>
<path d="M81.3327 146.809C117.539 146.809 146.89 117.458 146.89 81.2517C146.89 45.0454 117.539 15.6943 81.3327 15.6943C45.1263 15.6943 15.7753 45.0454 15.7753 81.2517C15.7753 117.458 45.1263 146.809 81.3327 146.809Z" fill="white"/>
<path d="M81.3008 79.1098C81.8171 79.1051 82.3173 79.2889 82.7078 79.6266C83.0982 79.9643 83.3521 80.4329 83.4218 80.9444H94.1111C94.0012 77.609 92.595 74.4478 90.1914 72.1327C87.7877 69.8175 84.5761 68.5308 81.2388 68.546C77.9016 68.5612 74.7018 69.8771 72.3193 72.214C69.9369 74.5509 68.5595 77.7247 68.4799 81.0611H79.1693C79.2122 80.5266 79.4559 80.0283 79.8513 79.6663C80.2468 79.3043 80.7647 79.1054 81.3008 79.1098Z" fill="url(#paint0_linear_98_37)"/>
<path d="M81.3008 83.4152C80.7862 83.4203 80.2873 83.2381 79.8971 82.9025C79.5068 82.5669 79.252 82.1008 79.1799 81.5912H68.4905C68.6005 84.9267 70.0067 88.0879 72.4103 90.403C74.8139 92.7182 78.0256 94.0048 81.3628 93.9897C84.7001 93.9745 87.8999 92.6586 90.2824 90.3217C92.6648 87.9848 94.0422 84.8109 94.1217 81.4746L83.443 81.5276C83.3849 82.0524 83.1333 82.5368 82.7371 82.8858C82.3409 83.2349 81.8288 83.4237 81.3008 83.4152Z" fill="url(#paint1_linear_98_37)"/>
<path d="M81.11 35.1114C71.9818 35.1534 63.0712 37.9015 55.5049 43.0079C47.9387 48.1144 42.0567 55.3499 38.6028 63.7995C35.1489 72.2491 34.2783 81.5331 36.101 90.4775C37.9238 99.4219 42.358 107.625 48.843 114.049C55.3279 120.473 63.5723 124.83 72.5335 126.568C81.4946 128.307 90.7701 127.349 99.1867 123.815C107.603 120.282 114.783 114.332 119.818 106.718C124.853 99.104 127.517 90.1678 127.473 81.0397C127.445 74.9795 126.224 68.9842 123.879 63.3961C121.534 57.8081 118.111 52.7367 113.805 48.4717C109.5 44.2067 104.397 40.8316 98.7866 38.5393C93.1767 36.2469 87.1701 35.0821 81.11 35.1114ZM52.4777 109.513C52.1701 109.216 51.6929 108.802 51.1415 108.219C49.5501 106.582 48.1058 104.807 46.8254 102.917C44.916 100.094 43.3964 97.0264 42.3079 93.797C39.562 85.7998 39.521 77.1217 42.1912 69.099C43.2505 65.8544 44.7453 62.7686 46.6345 59.926C47.8882 58.0361 49.3077 56.2617 50.8764 54.6238C51.4172 54.0405 51.9368 53.6269 52.1913 53.3194L52.6579 52.874L52.2337 53.3724C51.9686 53.7012 51.5445 54.1465 51.046 54.7828C49.6414 56.5472 48.3723 58.4154 47.2496 60.3714C45.5962 63.2503 44.3 66.32 43.3896 69.5126C41.1194 77.3345 41.1563 85.6455 43.4956 93.447C44.4418 96.6353 45.77 99.6974 47.4511 102.567C48.5896 104.512 49.8766 106.366 51.3006 108.113C51.799 108.739 52.2231 109.174 52.4989 109.513L52.923 110.001L52.4777 109.513ZM55.1182 104.667L54.291 103.84C53.9835 103.553 53.7184 103.161 53.3897 102.779L52.3292 101.528L51.7884 100.849L51.2793 100.075C50.4882 98.943 49.7795 97.7558 49.1584 96.5224C48.8403 95.8543 48.4373 95.1862 48.1616 94.4015L47.3663 92.1639C44.9281 85.2 44.8759 77.6229 47.2178 70.626C47.5041 69.8413 47.7904 69.0778 48.0662 68.3354C48.3419 67.5931 48.7342 66.9144 49.0524 66.2145C49.6671 64.9709 50.3761 63.7761 51.1733 62.6408C51.343 62.3757 51.502 62.1106 51.6717 61.8667L52.2125 61.1667L53.2094 59.9154C53.4849 59.5475 53.7787 59.1936 54.0895 58.855L54.9167 58.0172L56.4438 56.4902C56.4438 56.4902 55.9666 57.0946 55.0864 58.1763L54.3653 59.0777C54.0896 59.3958 53.8669 59.7988 53.5805 60.2123L52.6685 61.5803L52.2019 62.3014L51.7778 63.0968C51.1021 64.2601 50.5068 65.4683 49.9962 66.7129C49.7311 67.381 49.3917 68.0491 49.1584 68.7808L48.4267 71.0396C46.4571 77.8146 46.4902 85.0149 48.5222 91.7715L49.2539 94.0197C49.4978 94.762 49.8477 95.4195 50.1128 96.0876C50.6314 97.3273 51.2374 98.5287 51.9262 99.6825L52.361 100.478L52.8382 101.188L53.7184 102.493C54.0047 102.896 54.2274 103.299 54.5031 103.617L55.2454 104.508L56.6134 106.194L55.1182 104.667ZM59.0313 101.146L58.3208 100.457C58.0557 100.202 57.833 99.884 57.5572 99.5659L56.6877 98.5054L56.2211 97.9328L55.7863 97.2753C55.1128 96.3166 54.5102 95.3101 53.9835 94.2636C53.7078 93.6909 53.3578 93.1289 53.1139 92.4926C52.87 91.8563 52.6261 91.2095 52.361 90.552C51.3589 87.6028 50.8257 84.5147 50.7809 81.4003C50.8043 78.2839 51.3086 75.1898 52.2762 72.2273L53.0185 70.2761C53.2518 69.6398 53.5911 69.0778 53.8563 68.5051C54.3779 67.4534 54.9732 66.44 55.6378 65.4722L56.062 64.8147L56.5286 64.2315C56.8255 63.8497 57.1118 63.4998 57.3876 63.171C57.6267 62.8579 57.8815 62.557 58.1511 62.2696L58.851 61.5697L60.166 60.276L59.0313 61.7288L58.4162 62.4923C58.1829 62.768 58.0026 63.118 57.7693 63.4573C57.536 63.7967 57.2921 64.1784 57.0376 64.5814L56.6346 65.1859L56.2847 65.8646C55.7209 66.855 55.2249 67.8824 54.8001 68.9399C54.5774 69.5126 54.291 70.0746 54.1002 70.6896C53.9093 71.3047 53.6972 71.9516 53.4957 72.6091C51.8552 78.3484 51.8846 84.4364 53.5805 90.1596C53.7926 90.8065 53.9941 91.4428 54.1956 92.0684C54.3971 92.6941 54.6834 93.2455 54.9167 93.8182C55.3527 94.8674 55.8557 95.8876 56.4226 96.8723L56.7937 97.551L57.1861 98.1554L57.9708 99.2583C58.2147 99.5977 58.4056 99.9476 58.6389 100.223L59.254 100.976L60.3568 102.44L59.0313 101.146ZM62.9868 97.6252C62.5374 97.2298 62.1224 96.797 61.746 96.3315L61.0249 95.4725L60.622 95.0165L60.2614 94.4757C59.6901 93.6943 59.183 92.868 58.745 92.0048C58.5117 91.5276 58.2253 91.061 58.0238 90.552L57.3982 88.9401C56.5506 86.5076 56.0994 83.9547 56.062 81.3791C56.0823 78.8046 56.5082 76.2493 57.3239 73.8074L57.939 72.1955C58.1405 71.6759 58.4162 71.2093 58.6495 70.7427C59.0813 69.876 59.5776 69.043 60.1341 68.2506L60.4947 67.7098L60.8765 67.2326L61.5976 66.363C61.9702 65.8977 62.3779 65.4616 62.8171 65.0586L63.8776 63.9982L62.955 65.2071C62.5629 65.6583 62.2082 66.1406 61.8945 66.6493L61.3006 67.5719L60.9825 68.0703L60.6962 68.6324C60.2406 69.4495 59.8403 70.2962 59.4979 71.1669C59.3176 71.6335 59.0843 72.1001 58.9358 72.6091C58.7874 73.1181 58.6177 73.6695 58.4586 74.1786C57.1504 78.8784 57.1724 83.8491 58.5223 88.5371L59.0207 90.1066C59.1797 90.6156 59.413 91.0822 59.5933 91.5488C59.9468 92.4113 60.3541 93.2507 60.8128 94.0621L61.1098 94.6241L61.4279 95.1226L62.0324 96.0451C62.3493 96.545 62.7038 97.0201 63.0928 97.4662C63.6867 98.2403 64.026 98.6645 64.026 98.6645L62.9868 97.6252ZM66.9317 94.1045C66.5732 93.7995 66.2399 93.4662 65.9348 93.1077L65.3516 92.4396L65.0441 92.0684L64.7471 91.6548C64.2915 91.0402 63.8838 90.3914 63.5276 89.7142C63.3121 89.3472 63.1174 88.9684 62.9444 88.5795L62.4353 87.3176C61.7602 85.3982 61.4021 83.3817 61.3749 81.3472C61.4085 79.3099 61.7665 77.2909 62.4353 75.3663L62.9338 74.1043C63.1034 73.6907 63.3261 73.3196 63.5064 72.959C63.8573 72.28 64.2578 71.6278 64.7047 71.0078L64.991 70.5836L65.3092 70.2124L65.8818 69.5444C66.1751 69.1628 66.5016 68.808 66.8574 68.4839L67.7376 67.678L67.0377 68.6324C66.7574 68.9986 66.4989 69.381 66.2636 69.7777L65.8076 70.5094L65.5637 70.9123L65.3516 71.3471C65.0059 71.9903 64.7048 72.6564 64.4502 73.3408C64.3123 73.7013 64.1321 74.0725 64.0154 74.4649L63.6549 75.695C62.6581 79.3541 62.6581 83.2132 63.6549 86.8722L64.026 88.0917C64.1533 88.4947 64.3335 88.8553 64.4714 89.2264C64.7302 89.9056 65.0386 90.5648 65.394 91.1989L65.6167 91.6443L65.8606 92.0366L66.3166 92.7683C66.5457 93.1824 66.8044 93.5793 67.0907 93.956L67.8012 94.9104L66.9317 94.1045ZM82.9233 95.9497C79.888 96.2768 76.8258 95.6561 74.1573 94.1728C71.4889 92.6895 69.3452 90.4165 68.0206 87.6658C66.696 84.9152 66.2556 81.8219 66.7597 78.8109C67.2639 75.7998 68.6879 73.0187 70.8362 70.8496C72.9846 68.6804 75.7518 67.2296 78.7578 66.6965C81.7639 66.1633 84.8612 66.5739 87.6245 67.8719C90.3878 69.1699 92.6815 71.2916 94.1904 73.9456C95.6993 76.5996 96.3496 79.6556 96.0518 82.694C95.7084 86.0732 94.2168 89.2324 91.8257 91.6447C89.4346 94.057 86.2887 95.5765 82.9127 95.9497H82.9233ZM97.7697 91.92L97.4622 92.2911L96.8895 92.9698C96.5849 93.3284 96.2553 93.665 95.9033 93.9772L95.0231 94.7832L95.723 93.8182C96.0132 93.4568 96.2755 93.0739 96.5078 92.6729L96.9532 91.9412L97.1971 91.5488L97.4198 91.1034C97.7592 90.4608 98.0602 89.7986 98.3212 89.1204C98.459 88.7492 98.6287 88.3886 98.7453 87.9857C98.862 87.5827 98.9892 87.1797 99.1059 86.7555C99.5782 84.9298 99.8239 83.0528 99.8376 81.167C99.802 79.2793 99.5385 77.4028 99.0529 75.5784L98.6817 74.3588C98.5651 73.9558 98.3848 73.5953 98.2469 73.2347C97.9792 72.5559 97.6711 71.8937 97.3243 71.2517L97.1016 70.8169C97.0168 70.679 96.9319 70.5518 96.8577 70.4139C96.7835 70.2761 96.5396 69.9155 96.4017 69.6928C96.1654 69.2952 95.8995 68.9159 95.6064 68.5581L94.8959 67.6037L95.7867 68.3991C96.144 68.7018 96.474 69.0353 96.7729 69.3959L97.3561 70.064L97.6743 70.4352L97.9606 70.8487C98.4162 71.4634 98.8239 72.1122 99.1801 72.7894C99.3604 73.1499 99.5937 73.5211 99.7634 73.924C99.933 74.327 100.092 74.7618 100.272 75.1966C101.682 79.0488 101.701 83.2728 100.325 87.1373L99.827 88.4099C99.6679 88.8128 99.4452 89.184 99.2543 89.5552C98.9089 90.2339 98.5082 90.8829 98.056 91.4958L97.7697 91.92ZM101.821 95.2816L101.11 96.1512C100.737 96.6195 100.326 97.0558 99.88 97.4555L98.8196 98.516L99.7422 97.3071C100.128 96.8551 100.483 96.3767 100.803 95.8755L101.386 94.9423L101.715 94.4438C101.799 94.2636 101.895 94.0727 102.001 93.8818C102.449 93.0659 102.845 92.223 103.189 91.3579C103.369 90.8807 103.602 90.4247 103.751 89.9051L104.238 88.3356C105.551 83.6358 105.525 78.6631 104.164 73.9771L103.676 72.4076C103.517 71.8986 103.284 71.4426 103.093 70.976C102.746 70.1072 102.339 69.2639 101.874 68.4521L101.587 67.9006L101.259 67.3917L100.665 66.4796C100.349 65.9757 99.9943 65.4971 99.6043 65.048L98.6817 63.8497L99.7422 64.9102C100.189 65.3082 100.604 65.7408 100.983 66.2039L101.704 67.0629L102.096 67.5401L102.457 68.0703C103.021 68.8583 103.524 69.6878 103.963 70.5518C104.196 71.0184 104.482 71.485 104.684 72.0046C104.885 72.5242 105.108 73.0651 105.32 73.6059C107.062 78.4955 107.088 83.8322 105.394 88.7386C105.182 89.29 104.97 89.7991 104.779 90.3505C104.588 90.9019 104.292 91.3367 104.069 91.8139C103.634 92.6776 103.134 93.5071 102.574 94.2954C102.46 94.4863 102.344 94.6665 102.224 94.8362L101.821 95.2816ZM105.331 99.3326C105.094 99.6479 104.839 99.9489 104.567 100.234L103.867 100.934L102.51 102.228L103.655 100.785L104.26 100.011C104.498 99.7033 104.718 99.381 104.917 99.0462C105.136 98.6998 105.38 98.3287 105.649 97.9328L106.041 97.3177L106.402 96.639C106.961 95.6501 107.457 94.6264 107.886 93.5743C108.109 93.0017 108.395 92.4396 108.586 91.8139L109.18 89.8945C109.965 87.0331 110.372 84.0811 110.389 81.1139C110.343 78.1474 109.911 75.1994 109.106 72.344L108.48 70.4457C108.289 69.8201 107.993 69.2581 107.77 68.6854C107.331 67.6358 106.824 66.6156 106.253 65.6313L105.893 64.9526L105.49 64.3481L104.748 63.2346C104.546 62.9048 104.326 62.5862 104.09 62.2802L103.475 61.5167L102.319 60.0745L103.645 61.3577L104.355 62.0576C104.628 62.3409 104.887 62.6382 105.129 62.9483L105.988 64.0088L106.465 64.592C106.603 64.8041 106.752 65.0162 106.89 65.2389C107.569 66.1995 108.175 67.2097 108.703 68.2612C108.979 68.8232 109.318 69.3959 109.562 70.0216L110.315 71.9728C112.406 77.8935 112.436 84.3471 110.4 90.2869C110.156 90.955 109.901 91.6124 109.668 92.2381C109.435 92.8638 109.095 93.447 108.82 94.0197C108.304 95.0744 107.708 96.0883 107.038 97.0526L106.614 97.7101L106.158 98.2933L105.331 99.3326ZM108.661 103.574L107.844 104.402L106.306 105.939L107.664 104.242L108.395 103.352C108.671 103.023 108.894 102.62 109.17 102.217L110.039 100.902L110.516 100.192L110.941 99.3856C111.608 98.2234 112.2 97.019 112.712 95.78C112.977 95.1013 113.327 94.4333 113.549 93.6591L114.27 91.4003C116.213 84.6432 116.18 77.471 114.175 70.7321L113.433 68.4839C113.199 67.7522 112.849 67.0841 112.574 66.363C112.05 65.1275 111.448 63.9268 110.771 62.768C110.622 62.5029 110.474 62.2378 110.336 61.9727C110.198 61.7076 110.007 61.4955 109.859 61.2622L108.968 59.9578C108.727 59.5695 108.465 59.1943 108.183 58.8338L107.452 57.943C106.571 56.8825 106.073 56.2674 106.073 56.2674L107.621 57.7839L108.449 58.6111C108.77 58.9464 109.071 59.3005 109.35 59.6715C109.668 60.0533 110.007 60.4669 110.41 60.9122L110.962 61.591L111.46 62.3651C112.253 63.4959 112.962 64.6833 113.581 65.9176C113.91 66.5963 114.302 67.2644 114.589 68.0385C114.875 68.8126 115.161 69.555 115.458 70.3291C117.882 77.2869 117.919 84.8537 115.564 91.8351L114.705 94.1363C114.429 94.8787 114.037 95.5467 113.73 96.2572C113.123 97.4946 112.432 98.6886 111.662 99.831L111.163 100.605L110.622 101.294L109.626 102.546C109.191 102.906 108.926 103.288 108.618 103.596L108.661 103.574ZM116.084 102.567C114.832 104.458 113.412 106.233 111.842 107.869C111.291 108.463 110.782 108.877 110.527 109.174L110.06 109.619L110.474 109.131C110.75 108.802 111.174 108.346 111.662 107.71C113.074 105.955 114.343 104.09 115.458 102.132C117.113 99.2491 118.413 96.1762 119.329 92.9804C121.603 85.1585 121.562 76.8453 119.212 69.046C118.25 65.8903 116.915 62.8607 115.235 60.0215C114.099 58.0717 112.812 56.2138 111.386 54.4647C110.888 53.839 110.453 53.4042 110.188 53.0649L109.763 52.5771L110.23 53.0225C110.527 53.3194 111.004 53.7224 111.556 54.3162C115.54 58.4054 118.562 63.3327 120.4 68.7384C123.131 76.7381 123.172 85.4113 120.516 93.4364C119.453 96.6727 117.959 99.751 116.073 102.588L116.084 102.567Z" fill="url(#paint2_linear_98_37)"/>
<mask id="path-8-outside-1_98_37" maskUnits="userSpaceOnUse" x="0" y="-0.160156" width="163" height="163" fill="black">
<rect fill="white" y="-0.160156" width="163" height="163"/>
<path d="M153.741 70.6262C152.147 69.9914 150.724 68.9952 149.581 67.7161C148.439 66.437 147.61 64.9101 147.158 63.2557C146.707 61.6013 146.646 59.8646 146.98 58.1827C147.315 56.5007 148.035 54.9194 149.085 53.5635C150.435 51.8186 151.233 49.71 151.377 47.5085C151.52 45.3069 151.003 43.1126 149.89 41.2072C148.778 39.3018 147.122 37.7722 145.134 36.8146C143.147 35.857 140.918 35.515 138.735 35.8327C137.039 36.0824 135.308 35.9338 133.678 35.3989C132.049 34.8639 130.567 33.9571 129.349 32.7504C128.131 31.5436 127.21 30.0699 126.66 28.4459C126.11 26.8219 125.945 25.0921 126.179 23.3935C126.476 21.2077 126.112 18.9833 125.136 17.0054C124.159 15.0276 122.614 13.3865 120.699 12.2926C118.783 11.1987 116.585 10.7019 114.385 10.8659C112.186 11.03 110.085 11.8473 108.353 13.2131C107.008 14.2756 105.434 15.0109 103.756 15.361C102.078 15.711 100.342 15.6663 98.6839 15.2302C97.0261 14.7942 95.4924 13.9788 94.2038 12.8484C92.9151 11.7181 91.9068 10.3036 91.2585 8.71681C90.4227 6.67498 88.9959 4.92946 87.1611 3.70417C85.3264 2.47889 83.1674 1.82971 80.9611 1.83996C78.7549 1.85022 76.602 2.51945 74.7787 3.76175C72.9554 5.00404 71.5449 6.76274 70.7281 8.81225C70.0957 10.3991 69.1044 11.8179 67.8319 12.9575C66.5593 14.097 65.0401 14.9263 63.3934 15.3804C61.7466 15.8344 60.0171 15.9009 58.3404 15.5746C56.6636 15.2482 55.0853 14.538 53.729 13.4995C51.9841 12.1493 49.8756 11.3514 47.674 11.2079C45.4724 11.0644 43.2781 11.582 41.3727 12.6942C39.4673 13.8065 37.9377 15.4626 36.9801 17.4502C36.0225 19.4378 35.6805 21.6663 35.9982 23.8495C36.2437 25.5461 36.0919 27.2765 35.5548 28.9044C35.0176 30.5323 34.1098 32.0132 32.9028 33.2305C31.6958 34.4477 30.2226 35.3681 28.5993 35.919C26.9761 36.47 25.247 36.6365 23.5484 36.4053C21.3619 36.1061 19.1358 36.4678 17.1565 37.4439C15.1772 38.42 13.5351 39.966 12.4415 41.8829C11.3479 43.7998 10.8528 46.0001 11.0198 48.2007C11.1868 50.4013 12.0083 52.5016 13.3787 54.2316C14.4409 55.5774 15.1756 57.1518 15.525 58.8304C15.8743 60.509 15.8286 62.2458 15.3915 63.9036C14.9544 65.5615 14.1379 67.0951 13.0064 68.3833C11.8749 69.6714 10.4594 70.6789 8.87173 71.3261C6.83032 72.163 5.08551 73.5907 3.86116 75.4261C2.6368 77.2615 1.98875 79.4208 2.00015 81.6271C2.01154 83.8333 2.68186 85.9859 3.92511 87.8085C5.16836 89.6312 6.92783 91.0408 8.97777 91.8565C10.5706 92.49 11.9944 93.4851 13.1367 94.7632C14.2791 96.0412 15.1087 97.5673 15.5602 99.221C16.0117 100.875 16.0726 102.611 15.7382 104.292C15.4037 105.973 14.6831 107.554 13.6332 108.909C12.2785 110.652 11.4764 112.76 11.33 114.962C11.1835 117.165 11.6995 119.361 12.8115 121.268C13.9234 123.175 15.5805 124.705 17.5696 125.663C19.5586 126.62 21.7886 126.96 23.9726 126.639C25.67 126.392 27.4016 126.543 29.0309 127.079C30.6602 127.615 32.1425 128.523 33.3611 129.73C34.5796 130.937 35.501 132.411 36.0525 134.035C36.604 135.66 36.7705 137.39 36.539 139.089C36.2419 141.274 36.6045 143.498 37.5803 145.475C38.5562 147.452 40.1006 149.092 42.0154 150.185C43.9302 151.278 46.1281 151.774 48.3267 151.609C50.5254 151.444 52.6245 150.626 54.3547 149.259C55.7008 148.197 57.2752 147.461 58.954 147.111C60.6328 146.761 62.3699 146.806 64.0284 147.242C65.6869 147.678 67.2215 148.493 68.5111 149.624C69.8008 150.754 70.8102 152.168 71.4598 153.755C72.3051 155.775 73.7308 157.498 75.5563 158.707C77.3818 159.916 79.5251 160.556 81.7145 160.546C83.904 160.536 86.0411 159.876 87.8553 158.65C89.6695 157.424 91.079 155.687 91.9054 153.66C92.5402 152.067 93.5364 150.643 94.8155 149.501C96.0946 148.358 97.6215 147.529 99.2759 147.077C100.93 146.626 102.667 146.565 104.349 146.9C106.031 147.234 107.612 147.955 108.968 149.004C110.712 150.353 112.82 151.151 115.02 151.295C117.22 151.438 119.414 150.922 121.318 149.811C123.223 148.7 124.753 147.046 125.712 145.06C126.67 143.074 127.014 140.847 126.699 138.665C126.45 136.968 126.598 135.237 127.133 133.607C127.668 131.978 128.575 130.495 129.781 129.276C130.988 128.058 132.461 127.136 134.085 126.585C135.709 126.033 137.439 125.867 139.138 126.099C141.324 126.398 143.549 126.037 145.528 125.063C147.507 124.088 149.149 122.544 150.244 120.628C151.338 118.713 151.835 116.514 151.67 114.314C151.505 112.114 150.686 110.014 149.318 108.283C148.256 106.937 147.521 105.362 147.171 103.684C146.821 102.005 146.865 100.268 147.301 98.6093C147.737 96.9507 148.553 95.4162 149.683 94.1265C150.813 92.8369 152.228 91.8275 153.815 91.1778C155.868 90.3516 157.627 88.9281 158.862 87.0917C160.098 85.2553 160.754 83.0903 160.746 80.8768C160.738 78.6634 160.067 76.5032 158.818 74.6757C157.569 72.8483 155.8 71.4376 153.741 70.6262ZM146.879 80.9126C146.94 93.8764 143.155 106.567 136.003 117.38C128.852 128.192 118.654 136.641 106.701 141.659C94.7469 146.676 81.5739 148.035 68.8474 145.566C56.1209 143.097 44.4125 136.909 35.2028 127.785C25.993 118.661 19.6956 107.011 17.1068 94.3086C14.518 81.6059 15.7542 68.4207 20.6589 56.4205C25.5636 44.4203 33.9167 34.144 44.6618 26.8911C55.4069 19.6381 68.0614 15.7344 81.0251 15.6734C98.408 15.6141 115.104 22.4533 127.45 34.6901C139.797 46.9269 146.784 63.5618 146.879 80.9445V80.9126Z"/>
</mask>
<path d="M153.741 70.6262C152.147 69.9914 150.724 68.9952 149.581 67.7161C148.439 66.437 147.61 64.9101 147.158 63.2557C146.707 61.6013 146.646 59.8646 146.98 58.1827C147.315 56.5007 148.035 54.9194 149.085 53.5635C150.435 51.8186 151.233 49.71 151.377 47.5085C151.52 45.3069 151.003 43.1126 149.89 41.2072C148.778 39.3018 147.122 37.7722 145.134 36.8146C143.147 35.857 140.918 35.515 138.735 35.8327C137.039 36.0824 135.308 35.9338 133.678 35.3989C132.049 34.8639 130.567 33.9571 129.349 32.7504C128.131 31.5436 127.21 30.0699 126.66 28.4459C126.11 26.8219 125.945 25.0921 126.179 23.3935C126.476 21.2077 126.112 18.9833 125.136 17.0054C124.159 15.0276 122.614 13.3865 120.699 12.2926C118.783 11.1987 116.585 10.7019 114.385 10.8659C112.186 11.03 110.085 11.8473 108.353 13.2131C107.008 14.2756 105.434 15.0109 103.756 15.361C102.078 15.711 100.342 15.6663 98.6839 15.2302C97.0261 14.7942 95.4924 13.9788 94.2038 12.8484C92.9151 11.7181 91.9068 10.3036 91.2585 8.71681C90.4227 6.67498 88.9959 4.92946 87.1611 3.70417C85.3264 2.47889 83.1674 1.82971 80.9611 1.83996C78.7549 1.85022 76.602 2.51945 74.7787 3.76175C72.9554 5.00404 71.5449 6.76274 70.7281 8.81225C70.0957 10.3991 69.1044 11.8179 67.8319 12.9575C66.5593 14.097 65.0401 14.9263 63.3934 15.3804C61.7466 15.8344 60.0171 15.9009 58.3404 15.5746C56.6636 15.2482 55.0853 14.538 53.729 13.4995C51.9841 12.1493 49.8756 11.3514 47.674 11.2079C45.4724 11.0644 43.2781 11.582 41.3727 12.6942C39.4673 13.8065 37.9377 15.4626 36.9801 17.4502C36.0225 19.4378 35.6805 21.6663 35.9982 23.8495C36.2437 25.5461 36.0919 27.2765 35.5548 28.9044C35.0176 30.5323 34.1098 32.0132 32.9028 33.2305C31.6958 34.4477 30.2226 35.3681 28.5993 35.919C26.9761 36.47 25.247 36.6365 23.5484 36.4053C21.3619 36.1061 19.1358 36.4678 17.1565 37.4439C15.1772 38.42 13.5351 39.966 12.4415 41.8829C11.3479 43.7998 10.8528 46.0001 11.0198 48.2007C11.1868 50.4013 12.0083 52.5016 13.3787 54.2316C14.4409 55.5774 15.1756 57.1518 15.525 58.8304C15.8743 60.509 15.8286 62.2458 15.3915 63.9036C14.9544 65.5615 14.1379 67.0951 13.0064 68.3833C11.8749 69.6714 10.4594 70.6789 8.87173 71.3261C6.83032 72.163 5.08551 73.5907 3.86116 75.4261C2.6368 77.2615 1.98875 79.4208 2.00015 81.6271C2.01154 83.8333 2.68186 85.9859 3.92511 87.8085C5.16836 89.6312 6.92783 91.0408 8.97777 91.8565C10.5706 92.49 11.9944 93.4851 13.1367 94.7632C14.2791 96.0412 15.1087 97.5673 15.5602 99.221C16.0117 100.875 16.0726 102.611 15.7382 104.292C15.4037 105.973 14.6831 107.554 13.6332 108.909C12.2785 110.652 11.4764 112.76 11.33 114.962C11.1835 117.165 11.6995 119.361 12.8115 121.268C13.9234 123.175 15.5805 124.705 17.5696 125.663C19.5586 126.62 21.7886 126.96 23.9726 126.639C25.67 126.392 27.4016 126.543 29.0309 127.079C30.6602 127.615 32.1425 128.523 33.3611 129.73C34.5796 130.937 35.501 132.411 36.0525 134.035C36.604 135.66 36.7705 137.39 36.539 139.089C36.2419 141.274 36.6045 143.498 37.5803 145.475C38.5562 147.452 40.1006 149.092 42.0154 150.185C43.9302 151.278 46.1281 151.774 48.3267 151.609C50.5254 151.444 52.6245 150.626 54.3547 149.259C55.7008 148.197 57.2752 147.461 58.954 147.111C60.6328 146.761 62.3699 146.806 64.0284 147.242C65.6869 147.678 67.2215 148.493 68.5111 149.624C69.8008 150.754 70.8102 152.168 71.4598 153.755C72.3051 155.775 73.7308 157.498 75.5563 158.707C77.3818 159.916 79.5251 160.556 81.7145 160.546C83.904 160.536 86.0411 159.876 87.8553 158.65C89.6695 157.424 91.079 155.687 91.9054 153.66C92.5402 152.067 93.5364 150.643 94.8155 149.501C96.0946 148.358 97.6215 147.529 99.2759 147.077C100.93 146.626 102.667 146.565 104.349 146.9C106.031 147.234 107.612 147.955 108.968 149.004C110.712 150.353 112.82 151.151 115.02 151.295C117.22 151.438 119.414 150.922 121.318 149.811C123.223 148.7 124.753 147.046 125.712 145.06C126.67 143.074 127.014 140.847 126.699 138.665C126.45 136.968 126.598 135.237 127.133 133.607C127.668 131.978 128.575 130.495 129.781 129.276C130.988 128.058 132.461 127.136 134.085 126.585C135.709 126.033 137.439 125.867 139.138 126.099C141.324 126.398 143.549 126.037 145.528 125.063C147.507 124.088 149.149 122.544 150.244 120.628C151.338 118.713 151.835 116.514 151.67 114.314C151.505 112.114 150.686 110.014 149.318 108.283C148.256 106.937 147.521 105.362 147.171 103.684C146.821 102.005 146.865 100.268 147.301 98.6093C147.737 96.9507 148.553 95.4162 149.683 94.1265C150.813 92.8369 152.228 91.8275 153.815 91.1778C155.868 90.3516 157.627 88.9281 158.862 87.0917C160.098 85.2553 160.754 83.0903 160.746 80.8768C160.738 78.6634 160.067 76.5032 158.818 74.6757C157.569 72.8483 155.8 71.4376 153.741 70.6262ZM146.879 80.9126C146.94 93.8764 143.155 106.567 136.003 117.38C128.852 128.192 118.654 136.641 106.701 141.659C94.7469 146.676 81.5739 148.035 68.8474 145.566C56.1209 143.097 44.4125 136.909 35.2028 127.785C25.993 118.661 19.6956 107.011 17.1068 94.3086C14.518 81.6059 15.7542 68.4207 20.6589 56.4205C25.5636 44.4203 33.9167 34.144 44.6618 26.8911C55.4069 19.6381 68.0614 15.7344 81.0251 15.6734C98.408 15.6141 115.104 22.4533 127.45 34.6901C139.797 46.9269 146.784 63.5618 146.879 80.9445V80.9126Z" fill="url(#paint3_linear_98_37)"/>
<path d="M153.741 70.6262C152.147 69.9914 150.724 68.9952 149.581 67.7161C148.439 66.437 147.61 64.9101 147.158 63.2557C146.707 61.6013 146.646 59.8646 146.98 58.1827C147.315 56.5007 148.035 54.9194 149.085 53.5635C150.435 51.8186 151.233 49.71 151.377 47.5085C151.52 45.3069 151.003 43.1126 149.89 41.2072C148.778 39.3018 147.122 37.7722 145.134 36.8146C143.147 35.857 140.918 35.515 138.735 35.8327C137.039 36.0824 135.308 35.9338 133.678 35.3989C132.049 34.8639 130.567 33.9571 129.349 32.7504C128.131 31.5436 127.21 30.0699 126.66 28.4459C126.11 26.8219 125.945 25.0921 126.179 23.3935C126.476 21.2077 126.112 18.9833 125.136 17.0054C124.159 15.0276 122.614 13.3865 120.699 12.2926C118.783 11.1987 116.585 10.7019 114.385 10.8659C112.186 11.03 110.085 11.8473 108.353 13.2131C107.008 14.2756 105.434 15.0109 103.756 15.361C102.078 15.711 100.342 15.6663 98.6839 15.2302C97.0261 14.7942 95.4924 13.9788 94.2038 12.8484C92.9151 11.7181 91.9068 10.3036 91.2585 8.71681C90.4227 6.67498 88.9959 4.92946 87.1611 3.70417C85.3264 2.47889 83.1674 1.82971 80.9611 1.83996C78.7549 1.85022 76.602 2.51945 74.7787 3.76175C72.9554 5.00404 71.5449 6.76274 70.7281 8.81225C70.0957 10.3991 69.1044 11.8179 67.8319 12.9575C66.5593 14.097 65.0401 14.9263 63.3934 15.3804C61.7466 15.8344 60.0171 15.9009 58.3404 15.5746C56.6636 15.2482 55.0853 14.538 53.729 13.4995C51.9841 12.1493 49.8756 11.3514 47.674 11.2079C45.4724 11.0644 43.2781 11.582 41.3727 12.6942C39.4673 13.8065 37.9377 15.4626 36.9801 17.4502C36.0225 19.4378 35.6805 21.6663 35.9982 23.8495C36.2437 25.5461 36.0919 27.2765 35.5548 28.9044C35.0176 30.5323 34.1098 32.0132 32.9028 33.2305C31.6958 34.4477 30.2226 35.3681 28.5993 35.919C26.9761 36.47 25.247 36.6365 23.5484 36.4053C21.3619 36.1061 19.1358 36.4678 17.1565 37.4439C15.1772 38.42 13.5351 39.966 12.4415 41.8829C11.3479 43.7998 10.8528 46.0001 11.0198 48.2007C11.1868 50.4013 12.0083 52.5016 13.3787 54.2316C14.4409 55.5774 15.1756 57.1518 15.525 58.8304C15.8743 60.509 15.8286 62.2458 15.3915 63.9036C14.9544 65.5615 14.1379 67.0951 13.0064 68.3833C11.8749 69.6714 10.4594 70.6789 8.87173 71.3261C6.83032 72.163 5.08551 73.5907 3.86116 75.4261C2.6368 77.2615 1.98875 79.4208 2.00015 81.6271C2.01154 83.8333 2.68186 85.9859 3.92511 87.8085C5.16836 89.6312 6.92783 91.0408 8.97777 91.8565C10.5706 92.49 11.9944 93.4851 13.1367 94.7632C14.2791 96.0412 15.1087 97.5673 15.5602 99.221C16.0117 100.875 16.0726 102.611 15.7382 104.292C15.4037 105.973 14.6831 107.554 13.6332 108.909C12.2785 110.652 11.4764 112.76 11.33 114.962C11.1835 117.165 11.6995 119.361 12.8115 121.268C13.9234 123.175 15.5805 124.705 17.5696 125.663C19.5586 126.62 21.7886 126.96 23.9726 126.639C25.67 126.392 27.4016 126.543 29.0309 127.079C30.6602 127.615 32.1425 128.523 33.3611 129.73C34.5796 130.937 35.501 132.411 36.0525 134.035C36.604 135.66 36.7705 137.39 36.539 139.089C36.2419 141.274 36.6045 143.498 37.5803 145.475C38.5562 147.452 40.1006 149.092 42.0154 150.185C43.9302 151.278 46.1281 151.774 48.3267 151.609C50.5254 151.444 52.6245 150.626 54.3547 149.259C55.7008 148.197 57.2752 147.461 58.954 147.111C60.6328 146.761 62.3699 146.806 64.0284 147.242C65.6869 147.678 67.2215 148.493 68.5111 149.624C69.8008 150.754 70.8102 152.168 71.4598 153.755C72.3051 155.775 73.7308 157.498 75.5563 158.707C77.3818 159.916 79.5251 160.556 81.7145 160.546C83.904 160.536 86.0411 159.876 87.8553 158.65C89.6695 157.424 91.079 155.687 91.9054 153.66C92.5402 152.067 93.5364 150.643 94.8155 149.501C96.0946 148.358 97.6215 147.529 99.2759 147.077C100.93 146.626 102.667 146.565 104.349 146.9C106.031 147.234 107.612 147.955 108.968 149.004C110.712 150.353 112.82 151.151 115.02 151.295C117.22 151.438 119.414 150.922 121.318 149.811C123.223 148.7 124.753 147.046 125.712 145.06C126.67 143.074 127.014 140.847 126.699 138.665C126.45 136.968 126.598 135.237 127.133 133.607C127.668 131.978 128.575 130.495 129.781 129.276C130.988 128.058 132.461 127.136 134.085 126.585C135.709 126.033 137.439 125.867 139.138 126.099C141.324 126.398 143.549 126.037 145.528 125.063C147.507 124.088 149.149 122.544 150.244 120.628C151.338 118.713 151.835 116.514 151.67 114.314C151.505 112.114 150.686 110.014 149.318 108.283C148.256 106.937 147.521 105.362 147.171 103.684C146.821 102.005 146.865 100.268 147.301 98.6093C147.737 96.9507 148.553 95.4162 149.683 94.1265C150.813 92.8369 152.228 91.8275 153.815 91.1778C155.868 90.3516 157.627 88.9281 158.862 87.0917C160.098 85.2553 160.754 83.0903 160.746 80.8768C160.738 78.6634 160.067 76.5032 158.818 74.6757C157.569 72.8483 155.8 71.4376 153.741 70.6262ZM146.879 80.9126C146.94 93.8764 143.155 106.567 136.003 117.38C128.852 128.192 118.654 136.641 106.701 141.659C94.7469 146.676 81.5739 148.035 68.8474 145.566C56.1209 143.097 44.4125 136.909 35.2028 127.785C25.993 118.661 19.6956 107.011 17.1068 94.3086C14.518 81.6059 15.7542 68.4207 20.6589 56.4205C25.5636 44.4203 33.9167 34.144 44.6618 26.8911C55.4069 19.6381 68.0614 15.7344 81.0251 15.6734C98.408 15.6141 115.104 22.4533 127.45 34.6901C139.797 46.9269 146.784 63.5618 146.879 80.9445V80.9126Z" stroke="white" stroke-width="3" mask="url(#path-8-outside-1_98_37)"/>
<path d="M39.2114 38.2184L41.0035 36.6914L46.73 41.7285L42.5942 35.3658L44.3864 33.8281L51.2794 41.824L50.0916 42.8844L44.906 36.6914L49.1478 43.5313L48.0874 44.4433L41.9579 39.141L47.1754 45.1962L46.1149 46.14L39.2114 38.2184Z" fill="url(#paint4_linear_98_37)"/>
<path d="M53.1564 37.4867L49.169 30.4984L50.6113 29.6712L54.6622 36.7656C55.0334 37.4231 55.4469 37.4973 55.9029 37.2428C56.3589 36.9883 56.4968 36.5854 56.1256 35.9279L52.0747 28.8334L53.4639 28.0381L57.4512 35.0371C58.289 36.5005 58.0345 37.7519 56.624 38.5578C55.2136 39.3638 53.9941 38.9502 53.1564 37.4867Z" fill="url(#paint5_linear_98_37)"/>
<path d="M61.0143 33.3827L60.8022 32.8101L62.2763 32.2692L62.5308 32.9586C62.7853 33.6691 63.1883 33.8069 63.6867 33.6266C64.1851 33.4463 64.4078 33.0752 64.1321 32.3435C63.8564 31.6118 63.3367 31.1027 62.0112 30.5831C60.2826 29.915 59.5615 29.2576 59.1585 28.1229C58.9948 27.818 58.902 27.4801 58.8869 27.1344C58.8718 26.7886 58.9349 26.444 59.0715 26.126C59.208 25.808 59.4145 25.5249 59.6756 25.2978C59.9368 25.0707 60.2457 24.9054 60.5795 24.8142C62.096 24.2628 63.1777 24.8885 63.7609 26.4792L63.9094 26.8928L62.4353 27.423L62.2445 26.914C61.99 26.2034 61.6082 26.0444 61.1098 26.2247C60.6114 26.4049 60.4311 26.7761 60.675 27.4548C60.9189 28.1335 61.4597 28.5895 62.7959 29.1091C64.5138 29.7772 65.2137 30.4241 65.6591 31.6542C66.253 33.2767 65.7652 34.475 64.2275 35.037C62.6899 35.5991 61.587 34.9628 61.0143 33.3827Z" fill="url(#paint6_linear_98_37)"/>
<path d="M67.8012 22.8315L69.4237 22.4922L71.6401 32.8104L70.0176 33.1498L67.8012 22.8315Z" fill="url(#paint7_linear_98_37)"/>
<path d="M75.1926 29.735L74.7897 24.0722C74.746 23.7411 74.7705 23.4046 74.8616 23.0833C74.9528 22.762 75.1087 22.4627 75.3197 22.2039C75.5308 21.9451 75.7925 21.7321 76.0888 21.5781C76.3852 21.4242 76.7099 21.3324 77.043 21.3085C77.3761 21.2846 77.7106 21.3291 78.0259 21.4392C78.3412 21.5493 78.6306 21.7227 78.8764 21.9488C79.1223 22.1748 79.3193 22.4488 79.4554 22.7537C79.5914 23.0587 79.6637 23.3883 79.6678 23.7222L79.7526 24.8357L78.1831 24.9524L78.0983 23.7328C78.0983 23.0435 77.6953 22.7784 77.1969 22.8102C76.6985 22.8421 76.3909 23.1602 76.444 23.8707L76.8575 29.7562C76.8575 30.4455 77.2605 30.7 77.7589 30.6576C78.2574 30.6152 78.5649 30.3289 78.5119 29.5972L78.4058 27.9853L79.9647 27.8792L80.0707 29.3639C80.1144 29.695 80.0899 30.0315 79.9987 30.3528C79.9076 30.674 79.7517 30.9733 79.5407 31.2321C79.3296 31.491 79.0679 31.7039 78.7715 31.8579C78.4752 32.0119 78.1505 32.1036 77.8174 32.1275C77.4843 32.1514 77.1498 32.107 76.8345 31.9969C76.5192 31.8868 76.2298 31.7133 75.984 31.4873C75.7381 31.2612 75.5411 30.9873 75.405 30.6823C75.269 30.3773 75.1967 30.0478 75.1926 29.7138V29.735Z" fill="url(#paint8_linear_98_37)"/>
<path d="M91.0464 22.0469L93.4431 22.5347C95.0762 22.8528 95.6912 23.9133 95.3625 25.5782L95.161 26.6386C94.8217 28.2929 93.846 29.0353 92.2235 28.7065L91.4494 28.5581L90.601 32.7999L88.9785 32.4818L91.0464 22.0469ZM92.5099 27.1901C93.0295 27.2961 93.3582 27.1158 93.5067 26.3735L93.7506 25.1434C93.8991 24.4011 93.6658 24.083 93.1567 24.0087L92.3826 23.8497L91.7463 27.031L92.5099 27.1901Z" fill="url(#paint9_linear_98_37)"/>
<path d="M100.962 24.5176L103.252 25.4084C103.588 25.4734 103.903 25.6185 104.17 25.8314C104.437 26.0442 104.649 26.3186 104.788 26.631C104.926 26.9434 104.987 27.2847 104.965 27.6257C104.944 27.9668 104.84 28.2975 104.663 28.5897L104.429 29.1942C104.037 30.2546 103.464 30.7319 102.669 30.7425C103.348 31.2833 103.316 32.1105 102.881 33.2239L102.213 34.9525C102.028 35.3483 101.927 35.7778 101.916 36.2144L100.389 35.6312C100.41 35.1923 100.522 34.7627 100.718 34.3692L101.418 32.5664C101.768 31.6544 101.619 31.2515 100.909 30.9864L100.378 30.7743L98.7453 35.0161L97.1971 34.4116L100.962 24.5176ZM101.428 29.5547C102.012 29.7774 102.489 29.6608 102.764 28.8761L103.061 28.1125C103.327 27.4126 103.21 27.0521 102.669 26.7976L101.959 26.5219L100.898 29.3321L101.428 29.5547Z" fill="url(#paint10_linear_98_37)"/>
<path d="M106.296 35.6311L109.159 30.8803C109.318 30.5742 109.538 30.3039 109.805 30.0861C110.073 29.8683 110.382 29.7076 110.714 29.614C111.045 29.5203 111.393 29.4956 111.735 29.5415C112.077 29.5873 112.405 29.7027 112.701 29.8806C112.996 30.0584 113.252 30.295 113.453 30.5755C113.653 30.8561 113.794 31.1748 113.867 31.5119C113.939 31.8491 113.942 32.1975 113.874 32.5357C113.807 32.874 113.671 33.1948 113.475 33.4784L110.612 38.2293C110.453 38.5354 110.233 38.8057 109.966 39.0235C109.698 39.2413 109.389 39.4019 109.057 39.4956C108.725 39.5893 108.378 39.614 108.036 39.5681C107.694 39.5223 107.365 39.4068 107.07 39.229C106.775 39.0511 106.519 38.8146 106.318 38.534C106.118 38.2535 105.977 37.9348 105.904 37.5976C105.832 37.2605 105.829 36.9121 105.896 36.5738C105.964 36.2356 106.1 35.9148 106.296 35.6311ZM109.127 37.4657L112.107 32.5346C112.499 31.8877 112.362 31.4742 111.916 31.1985C111.471 30.9227 111.025 30.9969 110.644 31.6438L107.664 36.575C107.271 37.2218 107.409 37.6354 107.855 37.9111C108.3 38.1868 108.745 38.0808 109.127 37.4339V37.4657Z" fill="url(#paint11_linear_98_37)"/>
<path d="M119.223 34.5708L121.132 36.2357C122.383 37.2962 122.393 38.5475 121.28 39.8201L117.781 43.8498C117.596 44.1434 117.347 44.391 117.052 44.5733C116.757 44.7557 116.425 44.8681 116.08 44.9019C115.734 44.9357 115.386 44.89 115.062 44.7683C114.737 44.6465 114.445 44.4521 114.207 44.1997L112.298 42.5348L119.223 34.5708ZM115.172 43.0544C115.575 43.3938 115.988 43.4044 116.487 42.8318L120.082 38.696C120.58 38.1233 120.517 37.7098 120.082 37.3598L119.445 36.8083L114.504 42.503L115.172 43.0544Z" fill="url(#paint12_linear_98_37)"/>
<path d="M46.783 118.898L48.6494 120.351L44.8636 126.968L50.3249 121.666L52.2019 123.108L45.7332 131.464L44.4924 130.499L49.3917 124.137L43.5486 129.725L42.4882 128.866L46.4331 121.814L41.5338 128.177L40.3885 127.286L46.783 118.898Z" fill="url(#paint13_linear_98_37)"/>
<path d="M51.4702 132.058L55.1924 124.911L56.6664 125.674L52.8912 132.928C52.5413 133.596 52.7003 133.988 53.1669 134.232C53.6335 134.476 54.0365 134.38 54.3865 133.712L58.1617 126.459L59.5827 127.191L55.8499 134.338C55.7168 134.654 55.5198 134.939 55.2713 135.174C55.0228 135.41 54.7281 135.592 54.4059 135.708C54.0836 135.825 53.7408 135.873 53.3989 135.85C53.0571 135.828 52.7236 135.734 52.4196 135.577C52.1155 135.419 51.8475 135.2 51.6323 134.933C51.4171 134.666 51.2594 134.358 51.1693 134.027C51.0791 133.697 51.0583 133.351 51.1083 133.012C51.1583 132.673 51.2779 132.349 51.4596 132.058H51.4702Z" fill="url(#paint14_linear_98_37)"/>
<path d="M60.0917 136.098L60.2826 135.526L61.7673 136.024L61.534 136.714C61.3007 137.424 61.534 137.774 62.0324 137.954C62.5308 138.135 62.9338 137.954 63.1777 137.223C63.4216 136.491 63.3155 135.759 62.5838 134.518C61.6612 132.917 61.5234 131.963 61.8839 130.817C61.9449 130.475 62.0824 130.152 62.2863 129.87C62.4902 129.589 62.7551 129.358 63.0612 129.193C63.3673 129.029 63.7066 128.936 64.0537 128.922C64.4008 128.907 64.7466 128.972 65.0653 129.11C66.5923 129.619 67.0483 130.786 66.5181 132.387L66.3802 132.8L64.885 132.313L65.0547 131.793C65.2986 131.082 65.0547 130.733 64.5987 130.542C64.1427 130.351 63.7291 130.542 63.5382 131.242C63.3473 131.941 63.4534 132.61 64.1745 133.85C65.1077 135.452 65.2349 136.385 64.8426 137.636C64.7815 137.979 64.6445 138.304 64.4416 138.587C64.2387 138.87 63.9751 139.103 63.67 139.271C63.365 139.439 63.0262 139.536 62.6786 139.556C62.331 139.576 61.9834 139.518 61.6612 139.386C59.9751 138.877 59.5085 137.7 60.0917 136.098Z" fill="url(#paint15_linear_98_37)"/>
<path d="M70.6327 130.786L72.2658 131.093L70.2721 141.464L68.639 141.146L70.6327 130.786Z" fill="url(#paint16_linear_98_37)"/>
<path d="M75.3623 139.747L75.691 134.084C75.6864 133.747 75.7512 133.413 75.8814 133.103C76.0116 132.792 76.2043 132.512 76.4476 132.28C76.6909 132.047 76.9796 131.867 77.2955 131.751C77.6115 131.635 77.948 131.585 78.284 131.605C78.62 131.625 78.9484 131.713 79.2486 131.866C79.5488 132.018 79.8144 132.23 80.0288 132.49C80.2432 132.749 80.4019 133.05 80.4948 133.374C80.5878 133.697 80.6131 134.036 80.5691 134.37L80.5055 135.431L78.936 135.346L79.0102 134.126C79.0102 133.426 78.7345 133.119 78.2361 133.066C77.7377 133.013 77.3984 133.299 77.3559 133.988L77.006 139.874C77.006 140.563 77.2817 140.86 77.7801 140.934C78.2785 141.009 78.6179 140.712 78.6603 140.012L78.7557 138.41L80.3252 138.495L80.2298 139.991C80.2204 140.317 80.1456 140.638 80.0098 140.935C79.874 141.232 79.68 141.498 79.4393 141.719C79.1986 141.939 78.916 142.109 78.6084 142.219C78.3008 142.328 77.9744 142.374 77.6485 142.355C77.3226 142.336 77.0039 142.252 76.7112 142.107C76.4186 141.962 76.1579 141.76 75.9447 141.513C75.7315 141.266 75.5701 140.979 75.47 140.668C75.37 140.357 75.3334 140.029 75.3623 139.704V139.747Z" fill="url(#paint17_linear_98_37)"/>
<path d="M89.1058 131.348L91.5024 130.881C91.8374 130.777 92.192 130.753 92.5381 130.81C92.8842 130.867 93.2122 131.004 93.4962 131.209C93.7802 131.415 94.0124 131.684 94.1743 131.995C94.3363 132.307 94.4236 132.651 94.4293 133.002L94.6308 134.062C94.9595 135.727 94.3338 136.788 92.7007 137.095L91.9266 137.244L92.7538 141.485L91.1207 141.804L89.1058 131.348ZM92.4144 135.589C92.934 135.483 93.1673 135.197 93.0189 134.455L92.7856 133.225C92.6371 132.482 92.3084 132.302 91.7993 132.408L91.0252 132.556L91.6403 135.738L92.4144 135.589Z" fill="url(#paint18_linear_98_37)"/>
<path d="M97.0698 129.524L99.3816 128.676C99.6746 128.498 100.006 128.395 100.348 128.374C100.69 128.353 101.031 128.414 101.344 128.554C101.657 128.694 101.931 128.907 102.143 129.176C102.355 129.444 102.499 129.76 102.563 130.097L102.786 130.712C102.994 131.079 103.078 131.504 103.024 131.922C102.971 132.341 102.783 132.731 102.489 133.034C103.358 133.034 103.878 133.628 104.292 134.741L104.938 136.481C105.059 136.9 105.265 137.29 105.543 137.626L103.963 138.209C103.686 137.866 103.484 137.468 103.369 137.043L102.711 135.229C102.372 134.307 101.99 134.116 101.28 134.37L100.75 134.572L102.308 138.814L100.75 139.386L97.0698 129.524ZM100.76 132.981C101.343 132.769 101.598 132.387 101.301 131.592L101.025 130.828C100.76 130.118 100.41 129.895 99.8588 130.097L99.1483 130.362L100.209 133.193L100.76 132.981Z" fill="url(#paint19_linear_98_37)"/>
<path d="M108.735 133.384L105.999 128.558C105.811 128.27 105.685 127.946 105.627 127.607C105.57 127.268 105.582 126.921 105.663 126.587C105.744 126.253 105.893 125.939 106.1 125.664C106.307 125.389 106.568 125.16 106.867 124.99C107.166 124.82 107.497 124.713 107.838 124.675C108.18 124.637 108.526 124.67 108.855 124.771C109.184 124.871 109.489 125.038 109.751 125.261C110.013 125.484 110.226 125.758 110.379 126.066L113.125 130.902C113.305 131.191 113.425 131.514 113.478 131.85C113.53 132.187 113.514 132.531 113.43 132.861C113.345 133.191 113.195 133.5 112.989 133.771C112.782 134.042 112.522 134.267 112.226 134.435C111.929 134.603 111.602 134.709 111.263 134.746C110.925 134.784 110.582 134.753 110.256 134.654C109.93 134.556 109.627 134.393 109.365 134.175C109.104 133.956 108.889 133.687 108.735 133.384ZM111.736 131.814L108.873 126.83C108.502 126.172 108.077 126.088 107.611 126.353C107.144 126.618 107.006 127.021 107.377 127.678L110.219 132.694C110.601 133.352 111.025 133.437 111.481 133.171C111.937 132.906 112.107 132.472 111.736 131.814Z" fill="url(#paint20_linear_98_37)"/>
<path d="M112.054 121.931L114.026 120.34C114.274 120.096 114.574 119.912 114.904 119.802C115.233 119.692 115.584 119.66 115.928 119.707C116.272 119.754 116.601 119.88 116.889 120.074C117.177 120.268 117.417 120.526 117.59 120.828L120.941 124.985C122.001 126.3 121.938 127.53 120.644 128.569L118.671 130.16L112.054 121.931ZM119.679 127.413C120.092 127.084 120.167 126.671 119.679 126.088L116.243 121.846C115.766 121.262 115.352 121.252 114.938 121.581L114.281 122.111L119.011 127.986L119.679 127.413Z" fill="url(#paint21_linear_98_37)"/>
<path d="M136.423 69.0142L129.827 87.8479L136.328 83.5742L131.238 103.765L143.062 77.7417L135.426 81.0821L136.423 69.0142Z" fill="#00E0B8"/>
<path d="M26.242 69.0142L32.838 87.8479L26.3374 83.5742L31.417 103.765L19.6035 77.7417L27.2282 81.0821L26.242 69.0142Z" fill="#00E0B8"/>
<path d="M192.584 97.2718C192.32 96.1438 191.6 94.3198 190.928 92.9518L188.936 93.6238C189.56 95.0398 190.208 96.9358 190.448 98.0398L192.584 97.2718ZM185.96 93.8158H183.704C183.488 93.0958 183.2 92.2558 182.936 91.5838L180.608 91.9918C180.8 92.5438 181.016 93.1918 181.184 93.8158H178.88V95.9998H185.96V93.8158ZM175.664 97.4878H173.984V94.9438H175.664V97.4878ZM173.984 107.616V104.688H175.664V107.328L173.984 107.616ZM175.664 102.36H173.984V99.8158H175.664V102.36ZM178.592 94.9438V92.3998H170.912V94.9438H171.92V107.976C171.488 108.048 171.08 108.12 170.72 108.168L171.2 110.544C172.568 110.256 174.104 109.944 175.664 109.632V113.952H177.776V94.9438H178.592ZM181.328 108.648V107.112H183.56V108.648H181.328ZM183.56 103.728V105.216H181.328V103.728H183.56ZM190.952 101.664C190.568 102.96 190.088 104.208 189.488 105.336C189.344 104.04 189.224 102.576 189.128 100.968H193.088V98.5678H189.008C188.912 96.3598 188.864 93.9838 188.864 91.5358H186.44C186.488 94.0318 186.536 96.3838 186.632 98.5678H184.832C185.024 97.8958 185.264 97.1278 185.504 96.3358L183.344 96.0238C183.272 96.7438 183.056 97.7518 182.84 98.5678H181.544C181.448 97.7998 181.232 96.8158 180.992 96.0478L179.048 96.3838C179.24 97.0558 179.408 97.8478 179.504 98.5678H178.4V100.968H186.752C186.92 103.824 187.184 106.32 187.568 108.336C186.968 109.08 186.344 109.752 185.672 110.352V101.832H179.168V112.272H181.328V110.52H183.56V111.096H184.808C184.28 111.528 183.728 111.888 183.176 112.224C183.728 112.632 184.448 113.352 184.76 113.808C185.96 113.064 187.136 112.104 188.216 111C188.84 112.8 189.68 113.832 190.808 113.856C191.648 113.856 192.704 113.016 193.28 109.416C192.896 109.152 191.936 108.408 191.576 107.856C191.456 109.68 191.216 110.736 190.928 110.736C190.592 110.712 190.28 110.04 190.016 108.84C191.288 107.112 192.368 105.048 193.112 102.768L190.952 101.664ZM204.128 91.5358C204.032 95.5918 204.488 106.344 194.744 111.552C195.704 112.2 196.616 113.112 197.12 113.88C202.112 110.952 204.632 106.608 205.952 102.384C207.344 106.512 210.008 111.192 215.336 113.736C215.72 112.92 216.536 111.96 217.424 111.264C209.048 107.568 207.584 98.5198 207.248 95.2798C207.344 93.8398 207.392 92.5438 207.416 91.5358H204.128ZM240.656 100.896V97.9438H231.224C231.464 95.7118 231.488 93.5038 231.512 91.5358H228.392C228.368 93.5038 228.392 95.6878 228.152 97.9438H219.416V100.896H227.672C226.736 105.024 224.456 109.008 218.96 111.456C219.8 112.056 220.64 113.088 221.096 113.88C226.184 111.432 228.776 107.688 230.072 103.68C231.944 108.312 234.728 111.816 239.072 113.856C239.528 113.04 240.464 111.768 241.184 111.168C236.696 109.344 233.792 105.576 232.208 100.896H240.656ZM250.136 95.3998L249.68 95.5198H247.832L249.512 94.4878C249.104 93.6718 248.24 92.4238 247.496 91.4878L245.264 92.6878C245.864 93.5278 246.584 94.6558 247.04 95.5198H243.08V98.0878H248.216C246.848 100.632 244.688 102.984 242.456 104.28C242.792 104.832 243.32 106.392 243.464 107.208C244.328 106.632 245.144 105.912 245.984 105.12V113.904H248.6V104.544C249.248 105.408 249.896 106.272 250.304 106.896L251.912 104.52C251.48 104.04 249.872 102.384 248.936 101.544C249.992 99.9838 250.88 98.2798 251.528 96.4798L250.136 95.3998ZM259.544 104.64V102.288H261.728V104.64H259.544ZM254.6 104.64V102.288H256.76V104.64H254.6ZM256.76 97.4878V99.7918H254.6V97.4878H256.76ZM261.728 97.4878V99.7918H259.544V97.4878H261.728ZM259.544 94.9438V91.4878H256.76V94.9438H252.008V108.264H254.6V107.16H256.76V113.904H259.544V107.16H261.728V108.024H264.416V94.9438H259.544ZM279.008 96.3598V97.9438H277.04V96.3598H279.008ZM274.568 96.3598V100.056H281.6V96.3598H282.968V97.1518C282.968 99.3838 283.448 100.296 285.704 100.296H287.432C287.984 100.296 288.584 100.272 288.944 100.152C288.848 99.5518 288.776 98.6398 288.752 97.9918C288.392 98.0878 287.768 98.1598 287.384 98.1598H285.968C285.56 98.1598 285.512 97.8958 285.512 97.2238V96.3598H288.728V94.1518H285.512V91.7278H282.968V94.1518H281.6V91.7518H279.008V94.1518H277.04V91.7518H274.568V94.1518H273.224V91.7998H270.632V94.1518H267.344V96.3598H270.464C270.152 97.3678 269.408 98.3998 267.512 99.0478C268.064 99.4798 268.832 100.32 269.168 100.896C271.76 99.7438 272.792 98.0638 273.104 96.3598H274.568ZM285.752 103.296V105.096H279.32V103.704H276.488V105.096H270.296V103.296H285.752ZM267.656 106.2H269.984V112.512H272.768V107.352H276.488V113.88H279.32V107.352H283.448V109.896C283.448 110.16 283.328 110.232 282.992 110.232C282.656 110.256 281.408 110.256 280.352 110.208C280.688 110.88 281.096 111.912 281.216 112.656C282.896 112.656 284.168 112.656 285.08 112.248C285.992 111.864 286.256 111.192 286.256 109.944V106.2H288.536V100.992H267.656V106.2ZM295.736 91.6078C294.536 95.0158 292.448 98.4238 290.288 100.584C290.768 101.28 291.56 102.84 291.824 103.56C292.352 102.984 292.904 102.336 293.432 101.616V113.88H296.168V97.3678C297.056 95.7838 297.824 94.1038 298.448 92.4478L295.736 91.6078ZM300.176 102.192C299.624 104.856 298.616 107.568 297.248 109.248C297.944 109.608 299.144 110.328 299.696 110.784C301.04 108.84 302.264 105.816 302.96 102.768L300.176 102.192ZM310.16 98.4478C310.04 99.5038 309.896 100.512 309.776 101.256L312.2 101.664C312.536 100.272 312.944 98.0398 313.232 96.0958L311.216 95.7118L310.76 95.8078H302.504C302.936 94.6318 303.32 93.4558 303.632 92.2318L300.848 91.6078C300.032 94.8958 298.592 98.2078 296.768 100.248C297.416 100.68 298.568 101.616 299.072 102.12C299.864 101.112 300.656 99.8398 301.328 98.4478H304.112V110.688C304.112 111 303.992 111.096 303.68 111.096C303.344 111.096 302.336 111.096 301.328 111.072C301.76 111.84 302.192 113.112 302.312 113.952C303.848 113.952 305 113.832 305.84 113.376C306.704 112.896 306.944 112.104 306.944 110.736V98.4478H310.16ZM307.808 102.816C308.96 105.288 309.968 108.576 310.232 110.712L312.968 109.776C312.632 107.616 311.6 104.424 310.352 101.952L307.808 102.816ZM319.544 92.8558V95.7598H325.016C325.088 96.5758 325.184 97.4398 325.352 98.3518L323.888 98.0878C322.568 104.4 319.712 109.032 314.72 111.552C315.464 112.104 316.808 113.28 317.336 113.88C321.512 111.384 324.392 107.4 326.192 102.024C327.512 106.32 330.056 110.856 335.024 113.856C335.528 113.112 336.704 111.864 337.328 111.36C328.496 106.152 327.848 97.3918 327.848 92.8558H319.544ZM346.448 94.7758V96.0238H342.8V94.7758H346.448ZM342.8 99.4318V98.0638H346.448V99.4318H342.8ZM349.112 92.4718H339.968V113.928H342.8V101.712H349.112V92.4718ZM353.504 99.4798V98.0638H357.296V99.4798H353.504ZM357.296 94.7758V96.0238H353.504V94.7758H357.296ZM360.176 92.4718H350.792V101.784H357.296V110.424C357.296 110.88 357.128 111.048 356.624 111.048C356.12 111.048 354.344 111.072 352.832 110.976C353.264 111.744 353.72 113.088 353.84 113.904C356.168 113.904 357.752 113.856 358.784 113.376C359.84 112.944 360.176 112.104 360.176 110.472V92.4718ZM371.984 107.976C374.96 107.112 376.712 104.88 376.712 102.168C376.712 100.152 375.824 98.8798 374.12 98.8798C372.848 98.8798 371.768 99.6958 371.768 101.04C371.768 102.408 372.848 103.176 374.048 103.176C374.144 103.176 374.24 103.176 374.312 103.152C374.168 104.424 373.088 105.456 371.216 106.056L371.984 107.976ZM403.04 105.312V106.896H393.08V105.312H403.04ZM393.08 110.784V109.056H403.04V110.784H393.08ZM390.224 113.976H393.08V113.136H403.04V113.952H406.04V102.936H390.224V113.976ZM401.648 95.9758C401.384 96.9118 400.952 98.0398 400.568 98.9278H395.624C395.456 98.0638 394.976 96.8878 394.4 95.9758H401.648ZM403.688 98.9278C404.072 98.1838 404.48 97.3438 404.888 96.4558L402.68 95.9758H407.648V93.4558H399.92C399.68 92.7358 399.32 91.9198 398.912 91.2478L395.936 91.7278C396.2 92.2318 396.488 92.8558 396.68 93.4558H388.592V95.9758H393.872L391.544 96.4318C391.928 97.1758 392.288 98.1118 392.504 98.9278H387.248V101.472H408.776V98.9278H403.688ZM418.52 103.368C418.376 102.192 418.04 100.464 417.656 99.0958L415.856 99.5038C415.976 99.9838 416.096 100.512 416.192 101.064L414.296 101.256C415.808 99.5758 417.32 97.5838 418.448 95.6158L416.432 94.5118C416.12 95.2078 415.712 95.9038 415.328 96.5758L414.08 96.6718C414.92 95.4478 415.736 93.9598 416.336 92.5678L414.128 91.7998C413.6 93.6238 412.544 95.4958 412.208 95.9998C411.872 96.5038 411.56 96.8638 411.2 96.9358C411.464 97.5118 411.824 98.5438 411.944 98.9998C412.208 98.8558 412.64 98.7358 414.056 98.5438C413.456 99.3838 412.928 100.032 412.688 100.32C412.088 101.016 411.632 101.472 411.128 101.592C411.392 102.144 411.752 103.248 411.872 103.656C412.28 103.464 412.952 103.296 416.504 102.816C416.552 103.176 416.6 103.512 416.624 103.8L418.52 103.368ZM417.44 107.76C415.976 109.152 413.192 110.352 410.528 110.88C411.128 111.432 411.968 112.536 412.4 113.232C415.256 112.44 418.064 110.688 419.744 108.624L417.44 107.76ZM432.8 107.04V104.688H423.512V103.536H420.656V104.688H411.152V107.04H420.656V113.856H423.512V107.04H432.8ZM424.736 109.248C426.872 110.424 429.704 112.224 431.024 113.4L432.848 111.36C431.408 110.208 428.504 108.528 426.416 107.472L424.736 109.248ZM422.888 97.2958H421.088V95.6878H422.888V97.2958ZM422.888 100.92H421.088V99.2398H422.888V100.92ZM422.816 93.5998L423.584 91.7758L420.992 91.3438C420.944 91.9918 420.776 92.8318 420.584 93.5998H418.664V103.008H425.408V93.5998H422.816ZM430.256 99.8158C430.376 100.272 430.496 100.776 430.616 101.304L428.744 101.472C430.304 99.8158 431.84 97.7758 433.04 95.8078L430.976 94.6318C430.664 95.2798 430.304 95.9278 429.968 96.5278L428.36 96.6718C429.2 95.4238 430.064 93.9118 430.64 92.4238L428.336 91.7758C427.808 93.6238 426.728 95.5438 426.392 96.0478C426.08 96.5518 425.744 96.9118 425.408 97.0078C425.672 97.5838 426.032 98.6398 426.152 99.1198C426.44 98.9518 426.92 98.8318 428.576 98.5918C427.952 99.4798 427.4 100.152 427.136 100.44C426.536 101.112 426.08 101.568 425.576 101.688C425.84 102.264 426.2 103.392 426.32 103.848C426.728 103.632 427.424 103.488 431 103.104C431.048 103.44 431.096 103.752 431.12 104.04L433.04 103.536C432.848 102.408 432.44 100.68 432.032 99.3598L430.256 99.8158ZM440.744 96.5758C441.272 96.1198 441.8 95.6158 442.304 95.1358C443.024 95.5918 443.816 96.0958 444.584 96.5758H440.744ZM444.776 101.016V101.952H439.328V101.808V101.016H444.776ZM439.232 104.616C439.256 104.28 439.28 103.944 439.28 103.632H444.776V104.616H439.232ZM445.448 109.272V110.976H441.008V109.272H445.448ZM444.752 98.2558V96.6958C445.784 97.3678 446.72 97.9918 447.368 98.5198L448.832 96.1198C447.728 95.3278 445.736 94.1518 443.96 93.1198C444.104 92.9278 444.248 92.7358 444.392 92.5198L441.776 91.4878C440.24 93.7918 437.432 95.7598 434.648 96.9358C435.128 97.5598 435.872 98.9998 436.136 99.6718L436.688 99.3838V101.808C436.688 104.616 436.496 108.912 434.6 111.96C435.296 112.176 436.544 112.704 437.096 113.064C437.792 111.84 438.296 110.376 438.632 108.864V113.832H441.008V113.088H445.448V113.736H447.944V107.328H438.92C438.968 107.088 438.992 106.824 439.04 106.584H447.368V99.0478H437.24C438.128 98.5438 438.968 97.9438 439.808 97.3198V98.2558H444.752ZM451.976 93.9838H449.288V107.376H451.976V93.9838ZM453.632 91.5838V110.472C453.632 110.88 453.464 111 453.08 111C452.696 111 451.448 111 450.224 110.976C450.608 111.768 450.944 113.04 451.064 113.832C452.984 113.832 454.352 113.736 455.192 113.256C456.08 112.8 456.368 112.032 456.368 110.496V91.5838H453.632ZM464.048 91.6078C462.848 95.0158 460.76 98.4238 458.576 100.584C459.08 101.304 459.896 102.936 460.16 103.632C460.64 103.104 461.144 102.504 461.648 101.904V113.904H464.528V97.4638C465.416 95.8558 466.208 94.1518 466.832 92.4718L464.048 91.6078ZM481.256 98.1358V95.4238H471.944C472.4 94.4398 472.784 93.4558 473.12 92.4478L470.36 91.7518C469.28 95.1838 467.384 98.6398 465.272 100.8C465.872 101.256 467 102.264 467.456 102.792C468.536 101.544 469.64 99.9118 470.6 98.1358H471.512V113.928H474.44V108.6H480.968V105.96H474.44V103.248H480.656V100.656H474.44V98.1358H481.256ZM495.56 100.752V98.2558C496.064 97.5358 496.544 96.7918 496.952 96.0478H504.416V93.1198H483.608V96.0478H493.184C490.952 99.7198 487.208 103.44 482.84 105.48C483.464 106.128 484.352 107.304 484.808 108.072C487.688 106.584 490.256 104.496 492.44 102.168V113.88H495.56V101.448C498.152 103.44 501.416 106.176 502.904 107.952L505.328 105.768C503.6 103.872 499.904 101.112 497.336 99.2638L495.56 100.752ZM523.424 95.5438H512.432V94.3198H523.424V95.5438ZM523.424 98.6638H512.432V97.4158H523.424V98.6638ZM526.328 92.3278H509.648V100.656H526.328V92.3278ZM519.704 108.504H527.096V106.032H519.704V104.232H528.608V101.712H507.44V104.232H516.8V110.328C515.264 109.848 514.088 108.96 513.344 107.328C513.536 106.632 513.728 105.912 513.896 105.144L511.04 104.712C510.488 107.928 509.024 110.472 506.576 111.984C507.224 112.392 508.328 113.448 508.736 113.976C510.128 113.016 511.232 111.744 512.096 110.16C514.112 112.944 517.088 113.568 521.48 113.568H528.32C528.464 112.728 528.896 111.48 529.28 110.832C527.576 110.904 522.968 110.904 521.624 110.904C520.976 110.904 520.328 110.88 519.704 110.832V108.504ZM537.776 96.0478H540.608V91.5358H537.776V92.7838H531.32V95.1838H537.776V96.0478ZM535.928 98.3758H538.4V99.9598H535.928V98.3758ZM540.8 98.3758H543.32V99.9598H540.8V98.3758ZM545.696 98.3758H548.288V99.9598H545.696V98.3758ZM533.408 101.808H550.952V96.5518H533.408V101.808ZM544.904 107.664C544.088 108.36 543.032 108.936 541.856 109.416C541.256 108.864 540.368 108.216 539.504 107.664H544.904ZM531.464 106.896H534.152V104.784H539.408C538.304 105.768 536.456 106.608 533.816 107.16C534.368 107.568 535.16 108.528 535.472 109.152C536.048 108.984 536.6 108.816 537.128 108.624C537.848 109.08 538.664 109.704 539.312 110.28C537.104 110.904 534.632 111.24 532.136 111.432C532.568 112.056 533.072 113.184 533.288 113.856C539.96 113.112 546.32 111.264 549.224 106.68L547.424 105.648L546.92 105.768H541.808C542 105.576 542.192 105.384 542.384 105.168L540.536 104.784H549.752V106.896H552.584V102.624H531.464V106.896ZM546.2 92.7838V91.5358H543.344V96.0478H546.2V95.1598H552.68V92.7838H546.2ZM564.776 105.672H567.248L568.088 97.4638L568.208 93.8878H563.816L563.912 97.4638L564.776 105.672ZM566 112.056C567.416 112.056 568.496 111.096 568.496 109.704C568.496 108.336 567.416 107.328 566 107.328C564.584 107.328 563.504 108.336 563.504 109.704C563.504 111.096 564.584 112.056 566 112.056Z" fill="#252525"/>
<path d="M188.94 50.4598H184.24C184.04 49.9598 183.74 49.3198 183.42 48.8398L181.88 49.2998C182.06 49.6598 182.26 50.0598 182.42 50.4598H177.5V51.8398H188.94V50.4598ZM175.18 51.8198C175 51.1198 174.52 49.9998 174.04 49.1798L172.7 49.6598C173.16 50.4998 173.62 51.6598 173.78 52.3598L175.18 51.8198ZM177.18 52.3998H170.82V53.8998H177.18V52.3998ZM176.6 55.0798H171.62V56.5398H176.6V55.0798ZM171.62 59.1998H176.6V57.7398H171.62V59.1998ZM175.28 61.9198V64.8398H172.84V61.9198H175.28ZM176.66 60.4598H171.5V67.1798H172.84V66.2998H176.66V60.4598ZM181.86 60.1598H184.48V61.0398H181.86V60.1598ZM181.86 58.0998H184.48V58.9598H181.86V58.0998ZM179.6 53.5798H181.32V54.8798H179.6V53.5798ZM185.08 53.5798H186.88V54.8798H185.08V53.5798ZM187.88 62.5198C187.34 62.8798 186.46 63.4198 185.72 63.8398C185.34 63.3798 185 62.8798 184.74 62.3598H189.16V61.0398H186.14V60.1598H188.4V58.9598H186.14V58.0998H188.72V56.9198H186.14V55.9198H188.34V52.5198H183.7V55.9198H184.48V56.9198H181.86V55.9198H182.78V52.5198H178.22V55.9198H180.2V56.9198H177.86V58.0998H180.2V58.9598H178.18V60.1598H180.2V61.0398H177.26V62.3598H180.84C179.72 63.0398 178.28 63.5798 176.88 63.9398C177.16 64.2198 177.62 64.8398 177.78 65.1398C178.46 64.8998 179.2 64.6398 179.88 64.3198V64.5398C179.88 65.4798 179.36 66.0398 179.02 66.2798C179.28 66.5398 179.66 67.0798 179.8 67.3998C180.16 67.1998 180.72 66.9998 184.06 66.2998C184.02 65.9398 183.98 65.3398 184 64.8998L181.32 65.3998V63.5598C181.9 63.1798 182.46 62.7998 182.9 62.3598H183.18C184.14 64.7798 185.84 66.5398 188.46 67.3598C188.66 66.9398 189.1 66.3398 189.44 66.0198C188.36 65.7598 187.42 65.2998 186.66 64.6998C187.38 64.3598 188.2 63.9198 188.86 63.4598L187.88 62.5198ZM199.84 61.4798C199.66 60.5598 199.16 59.1798 198.6 58.1198L197.56 58.4598V56.8198H199.36V55.1198H196.32V53.0798H198.92V51.4198H196.32V49.0598H194.6V51.4198H191.8V53.0798H194.6V55.1198H191.06V56.8198H193.66C193.58 61.3198 193.26 64.3798 190.98 66.1798C191.34 66.4798 191.84 67.0598 192.06 67.4798C194.64 65.3598 195.04 61.8198 195.12 56.8198H196.06V65.5398C196.06 65.7598 196 65.7998 195.78 65.8198C195.58 65.8398 194.9 65.8398 194.18 65.8198C194.38 66.2398 194.58 66.8798 194.62 67.2998C195.72 67.2998 196.44 67.2798 196.94 67.0198C197.42 66.7798 197.56 66.3198 197.56 65.5398V58.7198C198.04 59.7598 198.48 61.0598 198.62 61.9398L199.84 61.4798ZM191.9 58.1198C191.66 59.7198 191.28 61.3598 190.68 62.4998C191 62.6598 191.6 62.9798 191.86 63.1598C192.44 61.9798 192.96 60.1398 193.22 58.3798L191.9 58.1198ZM200.74 58.0998C200.5 59.8198 200.04 61.5598 199.3 62.7398C199.62 62.8998 200.22 63.2598 200.48 63.4398C201.22 62.1998 201.76 60.2798 202.08 58.3198L200.74 58.0998ZM208.96 56.8198V55.1198H205.24V53.0798H208.26V51.4198H205.24V49.0598H203.54V51.4198H200.5V53.0798H203.54V55.1198H199.92V56.8198H202.48C202.4 61.3398 202.08 64.3598 199.68 66.1398C200.06 66.4198 200.54 67.0198 200.76 67.3998C203.44 65.3198 203.86 61.8398 203.94 56.8198H204.98V65.6598C204.98 65.8798 204.92 65.9398 204.68 65.9398C204.46 65.9398 203.76 65.9398 203.02 65.9198C203.22 66.3598 203.4 67.0198 203.44 67.4398C204.58 67.4398 205.36 67.4198 205.86 67.1598C206.36 66.9198 206.48 66.4598 206.48 65.6598V56.8198H208.96ZM206.5 58.3998C207.18 59.9798 207.76 62.0398 207.94 63.3998L209.32 63.0198C209.14 61.6798 208.52 59.6398 207.8 58.0998L206.5 58.3998ZM227.74 49.4398C225.28 50.1198 221.22 50.5798 217.84 50.8198C218 51.1998 218.22 51.8798 218.28 52.2998C221.68 52.1198 225.84 51.7198 228.58 51.0198L227.74 49.4398ZM226.84 51.9998C226.36 53.4198 225.6 55.0598 224.88 56.1598C225.32 56.3198 226.04 56.6598 226.38 56.8798C227.04 55.7598 227.86 53.9798 228.46 52.4598L226.84 51.9998ZM224.36 55.6198C224.16 54.7198 223.68 53.3398 223.24 52.2798L221.72 52.7398C222.12 53.8198 222.6 55.2198 222.76 56.1398L224.36 55.6198ZM221.18 56.2998C220.88 55.3998 220.26 54.0198 219.68 52.9198L218.24 53.4798C218.8 54.5798 219.42 56.0198 219.7 56.9198L221.18 56.2998ZM217.98 60.8598C217.84 59.7998 217.36 58.0398 216.9 56.6798L215.6 56.9998C215.78 57.5598 215.96 58.1998 216.1 58.8198L213.52 59.1398C215.06 57.3398 216.6 55.0798 217.8 52.8598L216.24 51.9198C215.82 52.8598 215.3 53.7798 214.8 54.6398L213.04 54.7998C214.08 53.2998 215.12 51.4398 215.9 49.6598L214.2 48.9798C213.48 51.1198 212.2 53.3598 211.78 53.9598C211.38 54.5398 211.06 54.9598 210.7 55.0398C210.9 55.4798 211.16 56.2998 211.26 56.6598C211.54 56.5398 212 56.4198 213.78 56.2198C213.16 57.1598 212.6 57.8598 212.34 58.1798C211.72 58.9198 211.28 59.4198 210.84 59.5198C211.04 59.9598 211.32 60.8198 211.4 61.1798C211.8 60.9598 212.44 60.8198 216.44 60.2198C216.52 60.5998 216.58 60.9798 216.62 61.2798L217.98 60.8598ZM211.64 61.9198C211.48 63.5798 211.2 65.3798 210.74 66.6198C211.12 66.7398 211.8 66.9598 212.12 67.1198C212.54 65.8598 212.88 63.9598 213.08 62.1798L211.64 61.9198ZM213.66 62.1398C213.88 63.5198 214.08 65.3398 214.1 66.5598L215.5 66.2998C215.44 65.0998 215.22 63.3198 214.98 61.8998L213.66 62.1398ZM228.58 59.9598V58.2798H224.12V56.4598H222.3V58.2798H218.28V59.9598H221.64C220.66 61.7398 219.16 63.5198 217.78 64.6198C217.6 63.7198 217.18 62.3998 216.82 61.3798L215.58 61.7598C215.96 62.8198 216.36 64.2598 216.52 65.1598L217.5 64.8198C217.9 65.1598 218.48 65.7798 218.78 66.2198C220 65.1198 221.32 63.3198 222.3 61.4198V67.3598H224.12V61.2398C225.22 63.1798 226.68 65.0398 228.08 66.1398C228.38 65.6798 228.94 65.0598 229.36 64.7398C227.74 63.7198 225.98 61.8398 224.82 59.9598H228.58ZM248.62 51.2398H244.44C244.28 50.5598 243.92 49.6798 243.6 48.9598L241.82 49.2798C242.08 49.8598 242.3 50.6198 242.48 51.2398H237.98V52.8798H248.62V51.2398ZM241.74 56.1998C241.62 55.3198 241.22 53.9598 240.76 52.9598L239.1 53.3198C239.54 54.3398 239.92 55.7198 239.98 56.5998L241.74 56.1998ZM236.4 49.8198L236.14 49.8998H231.56V67.4198H233.26V51.5598H235.48C235.1 52.8798 234.6 54.5598 234.1 55.8798C235.4 57.3798 235.72 58.6998 235.72 59.7198C235.72 60.2998 235.62 60.7998 235.34 60.9798C235.18 61.0998 234.98 61.1598 234.76 61.1598C234.46 61.1798 234.12 61.1798 233.72 61.1398C233.98 61.5998 234.14 62.3398 234.16 62.7998C234.62 62.8398 235.1 62.8198 235.5 62.7598C235.94 62.6998 236.28 62.5798 236.58 62.3798C237.18 61.9398 237.42 61.0798 237.42 59.8998C237.42 58.7198 237.12 57.2998 235.8 55.6998C236.42 54.1398 237.1 52.1798 237.68 50.5198L236.4 49.8198ZM246.06 61.4398V64.7598H240.42V61.4398H246.06ZM238.62 67.4198H240.42V66.4398H246.06V67.3398H247.92V59.7998H238.62V67.4198ZM246.32 56.6198C246.78 55.6598 247.3 54.4398 247.74 53.3598L245.84 52.9198C245.52 54.0398 244.98 55.5598 244.44 56.6198H237.48V58.2398H249.14V56.6198H246.32ZM255.12 49.1598C254.04 52.0798 252.26 54.9998 250.38 56.8598C250.68 57.2798 251.22 58.2798 251.4 58.7398C251.98 58.1198 252.56 57.4198 253.12 56.6398V67.3998H254.88V53.8798C255.64 52.5198 256.32 51.0998 256.86 49.6798L255.12 49.1598ZM258.76 57.7198C258.26 60.0198 257.36 62.3198 256.18 63.7998C256.6 64.0198 257.42 64.4998 257.76 64.7998C258.94 63.1598 259.98 60.6398 260.58 58.0598L258.76 57.7198ZM267.12 54.4998C267 55.4598 266.86 56.3998 266.72 57.0798L268.3 57.3798C268.56 56.2598 268.92 54.4998 269.18 52.9798L267.88 52.7198L267.58 52.7798H260.02C260.42 51.7398 260.76 50.6598 261.04 49.5598L259.2 49.1598C258.52 51.9798 257.38 54.7998 255.88 56.5598C256.32 56.8398 257.06 57.4398 257.4 57.7798C258.08 56.8798 258.72 55.7598 259.32 54.4998H262.02V65.2598C262.02 65.5198 261.92 65.5798 261.66 65.5798C261.4 65.5998 260.54 65.5998 259.64 65.5798C259.92 66.0798 260.22 66.9198 260.3 67.4398C261.56 67.4398 262.46 67.3798 263.06 67.0798C263.66 66.7598 263.86 66.2198 263.86 65.2598V54.4998H267.12ZM264.98 58.0798C266.02 60.1598 266.94 62.9398 267.22 64.7398L269 64.0998C268.68 62.2998 267.74 59.6198 266.64 57.5398L264.98 58.0798ZM278.34 59.9198H280.54C280.24 61.0398 279.86 62.2998 279.5 63.1998H281.26V63.1798H286.04C285.86 64.7598 285.64 65.5198 285.34 65.7998C285.12 65.9398 284.84 65.9598 284.42 65.9598C283.86 65.9598 282.38 65.9398 280.98 65.8198C281.34 66.2798 281.62 66.9398 281.66 67.4198C282.98 67.4998 284.3 67.4998 284.96 67.4598C285.76 67.4398 286.28 67.2998 286.72 66.8798C287.3 66.3398 287.56 65.0998 287.82 62.3598L287.88 61.6598H281.74C281.92 61.0998 282.08 60.4998 282.24 59.9198H288.86V58.3798H278.34V59.9198ZM281.2 55.4598C281.86 54.7398 282.46 53.9398 282.96 53.0798H284.24C284.62 53.8798 285.16 54.7198 285.74 55.4598H281.2ZM276.1 54.5598H273.14V51.4798H276.1V54.5598ZM288.96 53.0798V51.4598H283.82C284.08 50.9198 284.3 50.3198 284.48 49.7398L282.86 49.3198C282.62 50.0598 282.34 50.7998 281.98 51.4598H278.5V53.0798H280.94C280.04 54.2598 278.94 55.2398 277.68 55.9798V49.8798H271.62V56.1398H274.34V63.8398L273.14 64.1598V57.8398H271.68V64.5198L270.8 64.7198L271.22 66.4598C273.3 65.8798 276.06 65.1198 278.62 64.3798L278.38 62.7798L275.96 63.4198V60.2598H277.84V58.6398H275.96V56.1398H277.68C277.98 56.5798 278.36 57.3598 278.48 57.6998C279.3 57.1998 280.04 56.5998 280.72 55.9398V56.9598H285.96V55.7398C286.66 56.5798 287.44 57.3198 288.2 57.8398C288.5 57.4198 289.04 56.7598 289.42 56.4398C288.2 55.7398 286.88 54.4398 286.02 53.0798H288.96ZM305.88 58.9598V64.4398H300.98V57.7998H307.16V50.7998H305.1V55.9998H300.98V49.0798H298.92V55.9998H294.92V50.7998H292.96V57.7998H298.92V64.4398H294.08V58.9598H292V66.2998H305.88V67.3998H307.94V58.9598H305.88ZM316.8 52.7398H318.62V49.0598H316.8V50.2398H311.22V51.8198H316.8V52.7398ZM314.66 54.4198H317.18V56.1398H314.66V54.4198ZM318.74 54.4198H321.36V56.1398H318.74V54.4198ZM322.92 54.4198H325.56V56.1398H322.92V54.4198ZM313 57.3998H327.3V53.1598H313V57.3998ZM323.02 62.0198C322.22 62.7798 321.16 63.4198 319.94 63.9398C319.34 63.3598 318.34 62.6198 317.42 62.0998L317.54 62.0198H323.02ZM311.38 61.6398H313.12V59.6998H318.04C317.18 60.6198 315.6 61.4998 313.32 62.0998C313.66 62.3798 314.2 62.9798 314.42 63.3998C314.98 63.1998 315.52 62.9998 316 62.7998C316.78 63.2998 317.68 63.9398 318.32 64.5198C316.32 65.1598 314.06 65.5398 311.82 65.7198C312.12 66.1398 312.46 66.8798 312.6 67.3598C317.96 66.7198 323.4 65.1198 325.78 61.3398L324.58 60.6198L324.26 60.6998H319.3C319.52 60.4798 319.72 60.2798 319.9 60.0398L318.26 59.6998H326.84V61.6398H328.66V58.2598H311.38V61.6398ZM323.22 50.2398V49.0598H321.38V52.7398H323.22V51.8198H328.74V50.2398H323.22ZM346.32 53.1198H341.9V51.5998H346.32V53.1198ZM346.32 56.0998H341.9V54.5398H346.32V56.0998ZM346.32 59.0798H341.9V57.4998H346.32V59.0798ZM348.1 50.0998H340.2V60.5598H348.1V50.0998ZM338.24 61.2398C339.14 62.1398 340.34 63.3798 340.9 64.1198L342.26 62.9798C341.64 62.2598 340.42 61.0798 339.52 60.2398L338.24 61.2398ZM332.58 66.3598C333.32 65.2398 333.96 63.4598 334.36 62.0798L332.72 61.4198C332.34 62.7998 331.68 64.4598 330.9 65.5198L332.58 66.3598ZM336.38 60.7798V56.2398C337.2 56.9398 338.16 57.8198 338.64 58.3198L339.64 56.7998C339.12 56.4198 337.14 54.9798 336.38 54.5198V53.5598H339.38V51.9798H336.38V49.1198H334.62V51.9798H331.16V53.5598H334.32C333.48 55.4598 332.08 57.3798 330.68 58.3798C331.06 58.6998 331.62 59.2798 331.9 59.6998C332.88 58.8598 333.84 57.5598 334.62 56.1198V60.7998L336.38 60.7798ZM338.7 65.3398C337.56 65.3398 337.36 65.2598 337.36 64.7198V61.7598H335.52V64.7398C335.52 66.4998 336.14 66.9998 338.54 66.9998H342.44C344.4 66.9998 344.92 66.3798 345.18 63.7398C344.66 63.6198 343.9 63.3598 343.5 63.0598C343.38 65.0598 343.24 65.3398 342.3 65.3398H338.7ZM345.08 61.8798C345.88 63.1598 346.94 64.9198 347.42 65.9598L349.14 65.0798C348.62 64.0598 347.52 62.3598 346.7 61.1198L345.08 61.8798ZM353.42 63.7198V59.2998H357.14V63.7198H353.42ZM357.14 53.8798V57.6798H353.42V53.8798H357.14ZM362.8 52.1598C363.12 51.2798 363.38 50.3598 363.62 49.4398L361.82 49.0198C361.22 51.6598 360.16 54.3198 358.84 56.0398V52.2598H355.64C355.96 51.4198 356.34 50.3598 356.68 49.3598L354.66 49.0198C354.54 49.9798 354.24 51.2998 353.96 52.2598H351.72V66.8798H353.42V65.3598H358.84V56.1798C359.3 56.4398 360 56.9398 360.3 57.2198C360.94 56.2998 361.56 55.1398 362.12 53.8598H366.84C366.58 61.3998 366.32 64.4198 365.68 65.0798C365.46 65.3598 365.24 65.4198 364.84 65.4198C364.34 65.4198 363.18 65.3998 361.9 65.2998C362.24 65.8198 362.46 66.5998 362.5 67.0998C363.64 67.1598 364.82 67.1798 365.52 67.0998C366.28 66.9998 366.76 66.8198 367.26 66.1598C368.06 65.1598 368.3 62.0598 368.58 53.0398C368.6 52.7998 368.6 52.1598 368.6 52.1598H362.8ZM365.36 61.1798C364.76 59.9998 363.4 58.0998 362.34 56.7198L360.88 57.5398C361.94 58.9798 363.24 60.9398 363.8 62.1598L365.36 61.1798ZM375.68 51.8598L374.94 52.4798C375.6 53.0998 376.46 53.9598 376.86 54.4998L378.06 53.4398C377.7 53.0198 377.08 52.3598 376.46 51.8598H379.82V50.3998H375.04C375.22 50.0598 375.38 49.7198 375.5 49.3798L373.84 48.8998C373.22 50.5198 372.1 52.1398 370.92 53.1998C371.28 53.4798 371.92 54.1198 372.18 54.4198C372.88 53.7398 373.6 52.8598 374.22 51.8598H375.68ZM378.92 59.2598V60.8198H374.74C374.82 60.3198 374.9 59.7998 374.96 59.2598H378.92ZM380.76 56.1598H385.46V57.7198H380.76V56.1598ZM380.76 60.8198V59.2598H387.28V54.6198H372.68V56.1598H378.92V57.7198H373.38C373.22 59.2398 372.94 61.1398 372.66 62.3998H377.48C375.88 63.8998 373.54 65.2398 371.32 65.9198C371.74 66.2598 372.24 66.9598 372.52 67.3798C374.78 66.5198 377.2 64.9798 378.92 63.1598V67.3998H380.76V62.3998H386.08C385.9 63.8798 385.72 64.5398 385.48 64.7998C385.32 64.9398 385.12 64.9598 384.78 64.9598C384.44 64.9798 383.52 64.9598 382.62 64.8598C382.9 65.3398 383.12 66.0398 383.14 66.5598C384.16 66.6198 385.14 66.5998 385.64 66.5598C386.24 66.5198 386.64 66.3798 387.02 65.9798C387.54 65.4598 387.78 64.2398 388.02 61.5398C388.06 61.2798 388.08 60.8198 388.08 60.8198H380.76ZM383.28 50.3998C383.44 50.0398 383.58 49.6998 383.72 49.3198L382.02 48.9198C381.52 50.3398 380.6 51.7198 379.52 52.6198C379.94 52.8798 380.62 53.4198 380.92 53.7198C381.44 53.2198 381.98 52.5798 382.44 51.8598H384.44L383.56 52.5598C384.3 53.1398 385.18 53.9598 385.6 54.4798L386.86 53.3998C386.48 52.9598 385.76 52.3398 385.12 51.8598H389.06V50.3998H383.28ZM390.94 57.0198V59.0598H409.14V57.0198H390.94ZM428.74 56.7198V54.9598H421.32V52.7198H427.1V50.9598H421.32V49.0798H419.34V54.9598H415.96V50.4998H414.08V54.9598H411.22V56.7198H419.14V62.7998H420.62C418.12 64.2398 414.92 65.0998 411.08 65.5998C411.46 66.0798 411.84 66.8198 412.02 67.3598C419.58 66.2398 424.66 63.7398 427.44 58.4598L425.62 57.5998C424.58 59.6798 423.08 61.2798 421.12 62.4998V56.7198H428.74ZM415.66 57.4398C414.74 58.9998 413.18 60.5398 411.66 61.5198C412.08 61.8398 412.76 62.5598 413.06 62.9198C414.6 61.7398 416.36 59.8798 417.46 58.0798L415.66 57.4398ZM439.18 60.8798H440.82L441.42 53.5198L441.48 50.8798H438.54L438.6 53.5198L439.18 60.8798ZM440 65.9798C441 65.9798 441.82 65.2798 441.82 64.2398C441.82 63.1998 441 62.4798 440 62.4798C439 62.4798 438.18 63.1998 438.18 64.2398C438.18 65.2798 439 65.9798 440 65.9798Z" fill="white"/>
<defs>
<linearGradient id="paint0_linear_98_37" x1="72.577" y1="70.2034" x2="79.0077" y2="84.3748" gradientUnits="userSpaceOnUse">
<stop stop-color="#FFF176"/>
<stop offset="1" stop-color="#00E0B8"/>
</linearGradient>
<linearGradient id="paint1_linear_98_37" x1="72.5876" y1="83.1321" x2="79.0183" y2="97.3035" gradientUnits="userSpaceOnUse">
<stop stop-color="#FFF176"/>
<stop offset="1" stop-color="#00E0B8"/>
</linearGradient>
<linearGradient id="paint2_linear_98_37" x1="49.9257" y1="47.3355" x2="112.776" y2="114.964" gradientUnits="userSpaceOnUse">
<stop stop-color="#FFF176"/>
<stop offset="1" stop-color="#00E0B8"/>
</linearGradient>
<linearGradient id="paint3_linear_98_37" x1="27.3752" y1="22.8592" x2="135.44" y2="139.168" gradientUnits="userSpaceOnUse">
<stop stop-color="#FFF176"/>
<stop offset="1" stop-color="#00E0B8"/>
</linearGradient>
<linearGradient id="paint4_linear_98_37" x1="41.1404" y1="35.4587" x2="49.5345" y2="44.3119" gradientUnits="userSpaceOnUse">
<stop stop-color="#FFF176"/>
<stop offset="1" stop-color="#00E0B8"/>
</linearGradient>
<linearGradient id="paint5_linear_98_37" x1="50.5694" y1="29.4851" x2="57.9483" y2="35.8516" gradientUnits="userSpaceOnUse">
<stop stop-color="#FFF176"/>
<stop offset="1" stop-color="#00E0B8"/>
</linearGradient>
<linearGradient id="paint6_linear_98_37" x1="60.0068" y1="26.0243" x2="66.8563" y2="30.8956" gradientUnits="userSpaceOnUse">
<stop stop-color="#FFF176"/>
<stop offset="1" stop-color="#00E0B8"/>
</linearGradient>
<linearGradient id="paint7_linear_98_37" x1="68.4149" y1="23.9037" x2="73.3187" y2="25.8043" gradientUnits="userSpaceOnUse">
<stop stop-color="#FFF176"/>
<stop offset="1" stop-color="#00E0B8"/>
</linearGradient>
<linearGradient id="paint8_linear_98_37" x1="75.6195" y1="22.7368" x2="81.7316" y2="25.9689" gradientUnits="userSpaceOnUse">
<stop stop-color="#FFF176"/>
<stop offset="1" stop-color="#00E0B8"/>
</linearGradient>
<linearGradient id="paint9_linear_98_37" x1="90.0127" y1="23.471" x2="96.711" y2="27.8074" gradientUnits="userSpaceOnUse">
<stop stop-color="#FFF176"/>
<stop offset="1" stop-color="#00E0B8"/>
</linearGradient>
<linearGradient id="paint10_linear_98_37" x1="98.4395" y1="26.0667" x2="105.996" y2="31.4701" gradientUnits="userSpaceOnUse">
<stop stop-color="#FFF176"/>
<stop offset="1" stop-color="#00E0B8"/>
</linearGradient>
<linearGradient id="paint11_linear_98_37" x1="107.139" y1="30.8529" x2="113.941" y2="36.7214" gradientUnits="userSpaceOnUse">
<stop stop-color="#FFF176"/>
<stop offset="1" stop-color="#00E0B8"/>
</linearGradient>
<linearGradient id="paint12_linear_98_37" x1="113.864" y1="35.9405" x2="120.923" y2="43.1356" gradientUnits="userSpaceOnUse">
<stop stop-color="#FFF176"/>
<stop offset="1" stop-color="#00E0B8"/>
</linearGradient>
<linearGradient id="paint13_linear_98_37" x1="42.2768" y1="120.562" x2="50.8559" y2="129.24" gradientUnits="userSpaceOnUse">
<stop stop-color="#FFF176"/>
<stop offset="1" stop-color="#00E0B8"/>
</linearGradient>
<linearGradient id="paint14_linear_98_37" x1="52.4406" y1="126.36" x2="59.7947" y2="132.506" gradientUnits="userSpaceOnUse">
<stop stop-color="#FFF176"/>
<stop offset="1" stop-color="#00E0B8"/>
</linearGradient>
<linearGradient id="paint15_linear_98_37" x1="60.9517" y1="130.329" x2="67.7625" y2="135.066" gradientUnits="userSpaceOnUse">
<stop stop-color="#FFF176"/>
<stop offset="1" stop-color="#00E0B8"/>
</linearGradient>
<linearGradient id="paint16_linear_98_37" x1="69.2187" y1="132.2" x2="73.9197" y2="133.918" gradientUnits="userSpaceOnUse">
<stop stop-color="#FFF176"/>
<stop offset="1" stop-color="#00E0B8"/>
</linearGradient>
<linearGradient id="paint17_linear_98_37" x1="76.1899" y1="133.026" x2="82.2284" y2="136.189" gradientUnits="userSpaceOnUse">
<stop stop-color="#FFF176"/>
<stop offset="1" stop-color="#00E0B8"/>
</linearGradient>
<linearGradient id="paint18_linear_98_37" x1="90.0025" y1="132.24" x2="96.3436" y2="135.712" gradientUnits="userSpaceOnUse">
<stop stop-color="#FFF176"/>
<stop offset="1" stop-color="#00E0B8"/>
</linearGradient>
<linearGradient id="paint19_linear_98_37" x1="98.4242" y1="129.829" x2="105.813" y2="135.944" gradientUnits="userSpaceOnUse">
<stop stop-color="#FFF176"/>
<stop offset="1" stop-color="#00E0B8"/>
</linearGradient>
<linearGradient id="paint20_linear_98_37" x1="106.857" y1="125.998" x2="113.655" y2="131.73" gradientUnits="userSpaceOnUse">
<stop stop-color="#FFF176"/>
<stop offset="1" stop-color="#00E0B8"/>
</linearGradient>
<linearGradient id="paint21_linear_98_37" x1="113.593" y1="121.073" x2="120.743" y2="128.145" gradientUnits="userSpaceOnUse">
<stop stop-color="#FFF176"/>
<stop offset="1" stop-color="#00E0B8"/>
</linearGradient>
</defs>
</svg>
