<svg width="207" height="102" viewBox="0 0 207 102" fill="none" xmlns="http://www.w3.org/2000/svg">
<path opacity="0.8" d="M7.092 46.24V47.104H10.704V46.24H7.092ZM6.684 46.24V51.448C6.684 52.564 7.02 52.84 8.124 52.84C8.364 52.84 9.888 52.84 10.14 52.84C11.244 52.84 11.496 52.288 11.616 50.332C11.364 50.272 10.98 50.116 10.776 49.948C10.716 51.676 10.62 51.988 10.092 51.988C9.744 51.988 8.472 51.988 8.22 51.988C7.668 51.988 7.572 51.904 7.572 51.448V46.24H6.684ZM6.636 42.472V43.336H10.284V47.92H11.16V42.472H6.636ZM0.972 44.596V52.912H1.704V45.364H5.04V52.756H5.784V44.596H0.972ZM1.344 49.432V50.104H5.388V49.432H1.344ZM1.344 51.364V52.096H5.388V51.364H1.344ZM0.684 42.388V43.204H6.048V42.388H0.684ZM2.412 42.616V45.148H3.06V42.616H2.412ZM3.756 42.616V45.148H4.416V42.616H3.756ZM2.532 45.136V46.312C2.532 46.96 2.412 47.752 1.704 48.364C1.824 48.424 2.028 48.604 2.112 48.712C2.856 48.028 3.036 47.068 3.036 46.324V45.136H2.532ZM3.696 45.136V47.632C3.696 48.22 3.84 48.328 4.32 48.328C4.416 48.328 4.824 48.328 4.908 48.328C5.244 48.328 5.412 48.22 5.472 47.968C5.316 47.92 5.112 47.86 4.992 47.764C4.98 47.8 4.944 47.8 4.812 47.8C4.74 47.8 4.428 47.8 4.368 47.8C4.236 47.8 4.212 47.776 4.212 47.632V45.136H3.696ZM12.672 48.784V49.588H23.328V48.784H12.672ZM17.508 47.668V52.936H18.42V47.668H17.508ZM17.1 49.096C16.116 50.368 14.184 51.508 12.432 52.048C12.636 52.228 12.9 52.576 13.044 52.804C14.796 52.168 16.752 50.884 17.844 49.432L17.1 49.096ZM18.84 49.12L18.084 49.48C19.176 50.896 21.132 52.12 22.956 52.72C23.088 52.48 23.364 52.132 23.556 51.952C21.732 51.46 19.812 50.368 18.84 49.12ZM17.04 45.796H18.924V47.116H17.04V45.796ZM17.04 43.816H18.924V45.112H17.04V43.816ZM16.26 43.108V47.824H19.716V43.108H16.26ZM17.664 41.92C17.592 42.352 17.424 42.988 17.28 43.408L17.988 43.564C18.168 43.18 18.372 42.604 18.564 42.064L17.664 41.92ZM12.756 44.26C13.356 44.752 14.064 45.448 14.376 45.928L14.796 45.268C14.484 44.812 13.764 44.14 13.152 43.684L12.756 44.26ZM14.94 46.024C15.288 46.708 15.624 47.632 15.72 48.208L16.356 47.956C16.248 47.404 15.9 46.504 15.54 45.832L14.94 46.024ZM15.24 43.672C14.748 44.764 13.872 46.3 13.176 47.236L13.764 47.512C14.46 46.588 15.312 45.136 15.948 43.948L15.24 43.672ZM14.304 42.004C14.064 42.7 13.608 43.684 13.26 44.296L13.86 44.56C14.232 43.96 14.664 43.048 15.024 42.268L14.304 42.004ZM12.648 47.164L12.744 47.944C13.62 47.8 14.688 47.656 15.792 47.476L15.78 46.828C14.592 46.96 13.464 47.092 12.648 47.164ZM19.644 44.164C20.28 44.716 21 45.496 21.312 46.024L21.78 45.4C21.456 44.896 20.724 44.14 20.1 43.612L19.644 44.164ZM21.876 45.928C22.284 46.684 22.68 47.668 22.8 48.304L23.472 48.028C23.34 47.416 22.92 46.432 22.5 45.7L21.876 45.928ZM22.176 43.66C21.684 44.764 20.772 46.312 20.064 47.26L20.652 47.536C21.372 46.6 22.248 45.136 22.884 43.948L22.176 43.66ZM21.3 41.968C21.06 42.664 20.592 43.648 20.232 44.26L20.832 44.524C21.216 43.924 21.66 43.024 22.032 42.232L21.3 41.968ZM19.692 47.164L19.8 47.944C20.676 47.824 21.768 47.68 22.872 47.536L22.86 46.876C21.672 46.984 20.532 47.092 19.692 47.164ZM26.712 44.224V44.884H29.64V44.224H26.712ZM26.592 51.76V52.444H30.336V51.76H26.592ZM26.052 46.912V47.512H30.06V46.912H26.052ZM25.668 45.544V47.5C25.668 48.88 25.512 50.764 24.396 52.132C24.564 52.24 24.888 52.528 25.008 52.696C26.232 51.208 26.46 49.036 26.46 47.524V45.544H25.668ZM26.112 45.544V46.216H29.628V48.22H26.088V48.892H30.444V45.544H26.112ZM26.268 49.636V52.948H27.048V50.32H29.82V52.864H30.624V49.636H26.268ZM31.428 43.372V50.02H32.292V43.372H31.428ZM34.128 42.148V51.784C34.128 52 34.044 52.072 33.816 52.072C33.6 52.084 32.88 52.096 32.064 52.06C32.196 52.324 32.34 52.732 32.376 52.96C33.456 52.972 34.104 52.948 34.476 52.792C34.848 52.648 35.004 52.384 35.004 51.772V42.148H34.128ZM27.564 42.04C26.976 43.024 25.884 44.248 24.396 45.136C24.576 45.268 24.852 45.556 24.972 45.76C26.556 44.728 27.66 43.468 28.344 42.496V42.232H28.056V42.04H27.564ZM27.732 42.04V42.676H27.912C28.788 43.312 29.88 44.368 30.444 44.992L31.044 44.32C30.432 43.684 29.292 42.712 28.38 42.04H27.732ZM41.844 43.936L41.424 44.8H47.532V43.936H41.844ZM43.344 46.54V47.368H47.256V46.54H43.344ZM43.332 49.18V50.032H47.424V49.18H43.332ZM42.888 44.212V52.96H43.812V44.212H42.888ZM42.3 42.064C41.712 43.828 40.74 45.58 39.648 46.696C39.852 46.84 40.212 47.164 40.344 47.32C41.448 46.084 42.492 44.2 43.176 42.292L42.3 42.064ZM39.42 41.968C38.736 43.792 37.62 45.592 36.42 46.756C36.588 46.972 36.864 47.452 36.948 47.668C38.256 46.324 39.492 44.272 40.284 42.244L39.42 41.968ZM38.136 45.064V52.948H39.048V44.176L39.024 44.164L38.136 45.064ZM54.24 41.44H53.748V53.44H54.24V41.44ZM65.916 44.5V45.364H71.268V44.5H65.916ZM68.088 41.92V52.948H68.976V41.92H68.088ZM68.028 44.884C67.512 46.948 66.312 49.18 65.064 50.38C65.244 50.584 65.496 50.932 65.604 51.184C66.924 49.888 68.124 47.38 68.712 45.112L68.028 44.884ZM69.084 44.884L68.436 45.064C68.964 47.272 69.912 49.66 70.944 50.956C71.112 50.716 71.424 50.404 71.64 50.248C70.584 49.12 69.6 46.924 69.084 44.884ZM60.648 44.5V45.364H65.4V44.5H60.648ZM62.808 41.92V52.948H63.684V41.92H62.808ZM62.736 45.028C62.316 46.78 61.32 48.82 60.348 49.9C60.504 50.116 60.732 50.488 60.84 50.74C61.86 49.54 62.868 47.212 63.348 45.244L62.736 45.028ZM63.66 45.604L63.168 46.072C63.6 46.588 64.692 47.992 65.052 48.616L65.652 47.836C65.352 47.476 64.032 45.952 63.66 45.604ZM75.624 44.284V45.148H83.556V44.284H75.624ZM77.472 47.548V52.912H78.336V48.388H82.092V52.816H83.004V47.548H77.472ZM77.88 51.328V52.18H82.608V51.328H77.88ZM78.876 41.956C78.432 44.908 77.448 48.112 75.168 49.936C75.348 50.116 75.624 50.44 75.756 50.632C78.192 48.64 79.236 45.28 79.812 42.1L78.876 41.956ZM75.312 41.932C74.616 43.756 73.44 45.532 72.228 46.684C72.396 46.9 72.648 47.368 72.732 47.572C74.064 46.24 75.348 44.224 76.164 42.196L75.312 41.932ZM74.064 45.028V52.936H74.928V44.188L74.916 44.176L74.064 45.028ZM86.82 41.932V43.408H87.696V41.932H86.82ZM84.708 42.976V43.744H89.82V42.976H84.708ZM84.504 45.46V46.24H90.024V45.46H84.504ZM85.512 48.532V49.168H89.028V48.532H85.512ZM85.512 50.044V50.668H89.028V50.044H85.512ZM85.452 43.936C85.644 44.416 85.848 45.076 85.896 45.484L86.664 45.292C86.58 44.872 86.388 44.236 86.172 43.756L85.452 43.936ZM88.38 43.732C88.272 44.176 88.032 44.86 87.852 45.292L88.548 45.484C88.74 45.076 88.968 44.488 89.184 43.936L88.38 43.732ZM85.164 47.008V52.948H86.004V47.692H89.052V47.008H85.164ZM88.584 47.008V51.976C88.584 52.108 88.548 52.144 88.392 52.156C88.26 52.168 87.816 52.168 87.3 52.144C87.42 52.372 87.552 52.72 87.6 52.948C88.284 52.948 88.752 52.948 89.076 52.804C89.388 52.672 89.46 52.42 89.46 51.988V47.008H88.584ZM90.984 42.868V43.624H95.376V42.868H90.984ZM90.996 47.86V48.448H94.896V47.86H90.996ZM91.032 49.18V49.78H94.824V49.18H91.032ZM90.96 50.56V51.148H94.944V50.56H90.96ZM90.636 41.92V45.052H91.512V41.92H90.636ZM90.636 44.608V45.316H94.032V46.408H90.636V47.116H94.896V44.608H90.636ZM90.636 46.804V51.664C90.636 52.66 90.96 52.888 92.1 52.888C92.34 52.888 94.068 52.888 94.32 52.888C95.232 52.888 95.484 52.576 95.592 51.472C95.352 51.424 95.004 51.292 94.8 51.16C94.764 51.976 94.68 52.132 94.248 52.132C93.9 52.132 92.448 52.132 92.184 52.132C91.608 52.132 91.512 52.048 91.512 51.652V46.804H90.636Z" fill="white"/>
<path d="M202.929 25.1299L0 25.1299L0 26.0199L202.929 26.0199V25.1299Z" fill="white"/>
<path d="M207 22L190 22V29H207V22Z" fill="#00E0B8"/>
<path d="M10.584 8.776C10.192 8.356 9.45 7.698 8.806 7.18C8.96 6.816 9.072 6.452 9.142 6.074L8.372 5.99C8.204 7.068 7.574 8.16 6.524 8.748C6.664 8.874 6.888 9.126 6.986 9.28C7.616 8.93 8.12 8.398 8.484 7.782C9.072 8.286 9.702 8.874 10.052 9.266L10.584 8.776ZM10.962 9.574H6.244V5.752H10.962V9.574ZM11.956 4.94H5.292V10.386H11.956V4.94ZM4.256 5.906C3.766 5.402 2.716 4.786 1.876 4.408L1.288 5.164C2.142 5.57 3.164 6.242 3.654 6.732L4.256 5.906ZM3.57 9.518C3.052 9.056 2.002 8.482 1.162 8.132L0.574 8.902C1.442 9.294 2.478 9.91 2.968 10.372L3.57 9.518ZM3.178 11.772C2.492 13.354 1.554 15.174 0.91 16.238L1.82 16.882C2.534 15.58 3.346 13.858 3.976 12.388L3.178 11.772ZM5.74 12.332H7.098V15.734H5.74V12.332ZM9.282 12.332V15.734H7.91V12.332H9.282ZM11.466 12.332V15.734H10.094V12.332H11.466ZM12.46 15.734V11.436H4.788V15.734H3.542V16.658H13.426V15.734H12.46ZM22.456 5.234H24.066V5.696C24.066 6.41 24.206 6.732 24.948 6.732H25.928C26.166 6.732 26.46 6.718 26.6 6.662C26.572 6.466 26.558 6.214 26.544 6.004C26.376 6.046 26.054 6.06 25.9 6.06H25.158C24.962 6.06 24.948 5.976 24.948 5.71V4.548H21.672V5.276C21.672 5.724 21.504 6.074 20.412 6.368C20.552 6.508 20.734 6.858 20.804 7.054C22.148 6.676 22.456 5.976 22.456 5.304V5.234ZM26.53 9.98C25.984 9.686 25.186 9.322 24.346 8.958C24.976 8.496 25.48 7.936 25.816 7.222L25.298 7.012L25.158 7.04H20.944V7.726H24.612C24.346 8.062 23.968 8.37 23.548 8.622C22.834 8.328 22.106 8.062 21.462 7.824L21.014 8.342C21.546 8.552 22.134 8.776 22.722 9.028C21.938 9.35 21.07 9.546 20.188 9.658C20.342 9.84 20.524 10.134 20.594 10.33C21.658 10.148 22.694 9.854 23.59 9.406C24.542 9.84 25.438 10.26 26.026 10.61L26.53 9.98ZM17.024 6.256H14.826V6.914H20.244V6.256H17.976V5.612H20.51V4.954H17.976V4.282H17.024V4.954H14.448V5.612H17.024V6.256ZM17.164 8.146V9.084H15.876C15.89 8.888 15.904 8.706 15.904 8.524V8.146H17.164ZM19.25 9.084H17.906V8.146H19.25V9.084ZM20.118 9.7V7.516H15.036V8.496C15.036 9.252 14.868 10.176 13.958 10.932C14.154 11.03 14.518 11.31 14.672 11.45C15.274 10.96 15.596 10.33 15.764 9.7H20.118ZM20.846 13.746V12.598C21.77 12.934 22.792 13.326 23.758 13.746H20.846ZM17.43 16.084V15.482H23.45V16.084H17.43ZM23.45 14.936H17.43V14.362H23.45V14.936ZM19.88 12.584V13.746H17.878C18.592 13.382 19.264 13.004 19.782 12.584H19.88ZM26.88 14.306C25.942 13.816 24.374 13.158 22.876 12.584H26.222V11.828H20.846V11.086C22.288 11.002 23.646 10.876 24.71 10.708L23.94 10.106C22.232 10.372 18.984 10.512 16.296 10.512C16.394 10.708 16.492 11.002 16.506 11.198C17.598 11.198 18.746 11.184 19.88 11.142V11.828H14.518V12.584H18.508C17.248 13.312 15.456 13.928 13.944 14.236C14.126 14.432 14.378 14.754 14.518 14.978C15.12 14.824 15.778 14.628 16.436 14.362V17.078H17.43V16.7H23.45V17.036H24.472V14.054C25.214 14.39 25.886 14.698 26.362 14.964L26.88 14.306ZM39.872 9.798V8.874H32.872C33.11 8.426 33.32 7.964 33.502 7.502L32.9 7.334C33.362 7.18 33.824 7.04 34.272 6.872C35.756 7.418 37.1 7.978 38.024 8.468L38.794 7.712C37.94 7.278 36.806 6.816 35.56 6.368C36.596 5.906 37.562 5.402 38.36 4.828L37.506 4.254C36.652 4.87 35.532 5.43 34.272 5.906C32.732 5.374 31.122 4.898 29.708 4.534L28.994 5.164C30.226 5.5 31.598 5.92 32.914 6.382C31.374 6.872 29.708 7.264 28.126 7.53C28.35 7.74 28.686 8.16 28.84 8.398C29.96 8.16 31.164 7.852 32.34 7.502C32.158 7.964 31.962 8.426 31.71 8.874H27.58V9.798H31.15C30.17 11.212 28.868 12.5 27.272 13.34C27.496 13.536 27.804 13.886 27.958 14.124C28.686 13.718 29.358 13.228 29.96 12.682V16.266H30.982V12.458H33.74V17.078H34.748V12.458H37.758V15.02C37.758 15.202 37.688 15.258 37.478 15.258C37.282 15.272 36.596 15.272 35.798 15.258C35.924 15.51 36.078 15.874 36.134 16.154C37.184 16.154 37.856 16.154 38.262 16C38.668 15.832 38.78 15.58 38.78 15.034V11.534H34.748V10.148H33.74V11.534H31.08C31.542 10.988 31.976 10.4 32.34 9.798H39.872ZM52.332 6.074C52.122 6.746 51.842 7.32 51.478 7.824C50.806 7.32 49.84 6.662 49 6.158L49.07 6.074H52.332ZM49.896 9.322C49.406 8.762 48.65 7.95 47.992 7.32C48.202 7.11 48.398 6.914 48.594 6.69C49.434 7.236 50.4 7.908 51.016 8.398C50.694 8.762 50.302 9.056 49.896 9.322ZM52.892 5.192L52.71 5.234H49.616C49.77 4.968 49.924 4.73 50.036 4.464L49.014 4.296C48.524 5.36 47.586 6.634 46.228 7.586C46.48 7.698 46.802 8.006 46.97 8.216C47.152 8.09 47.32 7.95 47.474 7.81C48.076 8.426 48.748 9.168 49.196 9.714C48.552 10.022 47.866 10.232 47.124 10.386C47.306 10.596 47.516 10.946 47.628 11.184C50.54 10.484 52.752 8.958 53.508 5.43L52.892 5.192ZM42.056 9.168C42.056 10.26 42.35 10.652 43.47 10.652H45.682C46.116 10.652 46.55 10.638 46.774 10.568C46.732 10.344 46.69 9.938 46.662 9.686C46.41 9.728 45.948 9.756 45.654 9.756H43.456C43.092 9.756 43.008 9.616 43.008 9.182V6.662H47.068V5.752H44.842C44.702 5.304 44.45 4.716 44.198 4.268L43.288 4.534C43.456 4.898 43.638 5.36 43.792 5.752H40.796V6.662H42.056V9.168ZM47.614 14.572H52.5V13.704H47.614V12.43C49.378 12.29 51.044 12.108 52.332 11.842L51.828 11.002C49.476 11.478 45.318 11.744 41.874 11.828C41.958 12.066 42.07 12.416 42.098 12.682C43.512 12.654 45.066 12.598 46.578 12.5V13.704H41.79V14.572H46.578V15.86H40.95V16.742H53.284V15.86H47.614V14.572Z" fill="#00E0B8"/>
</svg>
