<svg width="337" height="376" viewBox="0 0 337 376" fill="none" xmlns="http://www.w3.org/2000/svg">
<rect x="26.5" y="53.5" width="310" height="322" rx="19.5" stroke="#00E0B8"/>
<path fill-rule="evenodd" clip-rule="evenodd" d="M79.248 115.664C79.4484 114.782 79.6822 113.549 79.8937 112.286C79.9355 112.036 79.9764 111.786 80.016 111.536H75.312C75.2017 111.898 75.0857 112.254 74.9637 112.6C74.8989 112.784 74.8323 112.966 74.764 113.144C74.7527 113.174 74.7414 113.203 74.73 113.232C74.4532 113.946 74.1484 114.612 73.813 115.207C73.6851 115.434 73.5529 115.651 73.416 115.856C73.2729 115.727 73.0659 115.562 72.8286 115.385C72.491 115.132 72.0921 114.853 71.7289 114.616C71.7172 114.609 71.7056 114.601 71.694 114.594C71.4691 114.448 71.2593 114.319 71.088 114.224C71.229 114.024 71.3641 113.813 71.4936 113.592C71.5619 113.474 71.6287 113.354 71.694 113.231C72.7804 111.185 73.4369 108.359 73.8082 105.417C73.8395 105.169 73.8687 104.921 73.896 104.672L76.6559 105.032C76.6388 105.169 76.6209 105.307 76.6023 105.444C76.5873 105.554 76.5718 105.665 76.5558 105.775C76.4355 106.608 76.2891 107.436 76.1224 108.242C76.0702 108.494 76.016 108.745 75.96 108.992H80.712L81.144 108.92L83.04 109.376C82.656 111.752 82.056 114.488 81.552 116.24L79.248 115.664ZM80.6499 108.242L81.0207 108.18C81.12 108.164 81.2215 108.167 81.3194 108.191L83.2154 108.647C83.5967 108.739 83.843 109.109 83.7804 109.496C83.3926 111.895 82.7866 114.661 82.2728 116.447C82.1611 116.836 81.762 117.066 81.3701 116.968L79.1072 116.402C79.8947 119.876 81.3893 122.7 83.8794 123.945C84.1023 124.057 84.2553 124.272 84.2876 124.519C84.32 124.766 84.2276 125.013 84.0409 125.178C83.4839 125.671 82.6544 126.725 82.3145 127.384C82.2201 127.567 82.0548 127.703 81.8573 127.76C81.6597 127.818 81.4473 127.791 81.2696 127.688C79.3934 126.591 78.0537 124.933 77.0706 122.918C76.126 124.59 74.7279 126.215 72.7149 127.609C72.3743 127.844 71.9071 127.76 71.6713 127.419C71.2959 126.877 70.3608 125.963 69.7267 125.562C69.5114 125.425 69.3801 125.189 69.378 124.934C69.3759 124.679 69.5033 124.441 69.7162 124.301C69.8561 124.209 69.9922 124.116 70.1245 124.022H68.142V127.064C68.142 127.478 67.8062 127.814 67.392 127.814H65.04C64.6258 127.814 64.29 127.478 64.29 127.064V124.022H60.912C60.4978 124.022 60.162 123.686 60.162 123.272V120.776C60.162 120.362 60.4978 120.026 60.912 120.026H61.196C60.979 119.895 60.834 119.656 60.834 119.384V110.72C60.834 110.515 60.9162 110.329 61.0494 110.194C60.6721 110.155 60.378 109.836 60.378 109.448V106.928C60.378 106.514 60.7138 106.178 61.128 106.178H64.314V104.672C64.314 104.258 64.6498 103.922 65.064 103.922H67.416C67.8302 103.922 68.166 104.258 68.166 104.672V106.178H71.376C71.7902 106.178 72.126 106.514 72.126 106.928V109.448C72.126 109.828 71.8429 110.143 71.476 110.191C71.6107 110.327 71.694 110.514 71.694 110.72V111.391C72.4107 109.476 72.8763 107.09 73.1505 104.59C73.1724 104.39 73.2741 104.207 73.4326 104.082C73.5912 103.958 73.7931 103.902 73.993 103.928L76.753 104.288C77.1622 104.342 77.4514 104.716 77.4002 105.125C77.2689 106.176 77.0945 107.226 76.888 108.242H80.6499ZM70.944 110.72H67.416V109.448H71.376V106.928H67.416V104.672H65.064V106.928H61.128V109.448H65.064V110.72H61.584V119.384H65.04V120.776H60.912V123.272H65.04V127.064H67.392V123.272H71.544V120.776H67.392V119.384H70.944V110.72ZM71.694 115.495V119.384C71.694 119.656 71.549 119.895 71.3319 120.026H71.544C71.9582 120.026 72.294 120.362 72.294 120.776V122.024C74.1925 119.726 74.632 117.155 74.7137 115.115C74.5032 115.526 74.279 115.914 74.04 116.272C73.9192 116.453 73.7256 116.573 73.5095 116.6C73.2934 116.627 73.0762 116.559 72.9143 116.414C72.6658 116.19 72.1785 115.827 71.694 115.495ZM75.48 114.248C75.48 116.629 75.1683 120.175 72.294 123.149C72.2542 123.19 72.214 123.231 72.1732 123.272C71.9754 123.471 71.7659 123.667 71.544 123.859C71.4813 123.914 71.4176 123.968 71.3529 124.022C71.1719 124.173 70.983 124.322 70.7859 124.468C70.576 124.624 70.3569 124.778 70.128 124.928C70.3251 125.053 70.5438 125.217 70.7664 125.403C71.3568 125.896 71.9743 126.539 72.288 126.992C72.2891 126.991 72.2902 126.991 72.2913 126.99C72.4992 126.846 72.7002 126.699 72.8943 126.55C74.6733 125.187 75.882 123.632 76.6809 122.057C76.8405 121.743 76.9838 121.427 77.112 121.112C77.2364 121.443 77.3677 121.765 77.5064 122.077C78.3533 123.984 79.4788 125.543 81.0152 126.632C81.2188 126.776 81.4296 126.912 81.648 127.04C81.721 126.899 81.8123 126.743 81.9165 126.58C82.2114 126.12 82.6098 125.602 82.9922 125.174C83.1853 124.959 83.3744 124.766 83.544 124.616C83.3079 124.498 83.0806 124.368 82.8618 124.226C80.3659 122.611 78.9701 119.512 78.264 116.048C78.2658 116 78.2677 115.952 78.2695 115.904C78.2916 115.335 78.312 114.807 78.312 114.32V113.144H75.48V114.248ZM75.8265 112.394H78.312C78.645 112.394 78.9274 112.611 79.0253 112.912C79.0616 112.705 79.0977 112.496 79.1332 112.286H75.862C75.8502 112.322 75.8384 112.358 75.8265 112.394ZM92.863 124.934C92.8526 124.924 92.8422 124.914 92.832 124.904C93.0558 124.852 93.2718 124.797 93.48 124.739C93.5414 124.722 93.6022 124.704 93.6623 124.686C93.8278 124.637 93.9883 124.586 94.1438 124.533C94.7684 124.32 95.3135 124.075 95.7867 123.806C96.0188 123.673 96.2336 123.535 96.432 123.392C96.2547 123.215 96.0829 123.03 95.9163 122.838C95.3814 122.223 94.9009 121.532 94.4688 120.767C94.3875 120.623 94.3079 120.476 94.23 120.327C94.1875 120.245 94.1455 120.163 94.104 120.08L96.552 119.528C96.6005 119.619 96.6504 119.709 96.7016 119.798C96.9464 120.222 97.2222 120.615 97.529 120.983C97.6979 121.186 97.8763 121.38 98.064 121.568C98.1989 121.334 98.315 121.095 98.4146 120.852C98.5553 120.509 98.6632 120.158 98.7454 119.798C98.8015 119.552 98.8457 119.302 98.88 119.048H94.392V109.784H99V108.2H94.032V105.632H107.016V108.2H101.712V109.784H106.512V119.048H101.568C101.41 120.211 101.107 121.326 100.591 122.353C100.479 122.575 100.357 122.794 100.224 123.008C100.446 123.117 100.675 123.222 100.912 123.321C102.438 123.958 104.282 124.381 106.466 124.589C106.771 124.619 107.082 124.643 107.4 124.664C107.213 124.851 107.011 125.098 106.812 125.373C106.398 125.946 105.995 126.641 105.768 127.16C102.792 126.8 100.392 126.104 98.496 125C97.512 125.816 96.192 126.56 94.536 127.112C94.2912 126.704 93.8357 126.063 93.4032 125.536C93.2119 125.303 93.0251 125.092 92.863 124.934ZM98.5676 125.898C97.561 126.65 96.2934 127.317 94.7732 127.824C94.4397 127.935 94.0737 127.799 93.8929 127.498C93.5538 126.933 92.7775 125.889 92.3141 125.447C92.1713 125.31 92.0903 125.126 92.0826 124.934H89.646V125.96C89.646 126.374 89.3102 126.71 88.896 126.71H86.496C86.0818 126.71 85.746 126.374 85.746 125.96V120.625C85.6368 120.646 85.5224 120.642 85.4109 120.612C85.1244 120.534 84.9109 120.294 84.8664 120C84.7548 119.264 84.2677 117.485 83.9179 116.72C83.8039 116.471 83.835 116.179 83.9991 115.959C85.2529 114.281 86.1551 111.836 86.7724 109.07H84.936C84.5218 109.07 84.186 108.734 84.186 108.32V105.728C84.186 105.314 84.5218 104.978 84.936 104.978H93.504C93.5514 104.978 93.5978 104.982 93.6427 104.991C93.7562 104.922 93.8894 104.882 94.032 104.882H107.016C107.43 104.882 107.766 105.218 107.766 105.632V108.2C107.766 108.614 107.43 108.95 107.016 108.95H102.462V109.034H106.512C106.926 109.034 107.262 109.37 107.262 109.784V119.048C107.262 119.462 106.926 119.798 106.512 119.798H102.208C102.025 120.787 101.729 121.75 101.276 122.66C102.902 123.327 104.942 123.753 107.449 123.916C107.743 123.935 107.998 124.124 108.102 124.4C108.206 124.675 108.139 124.986 107.93 125.194C107.438 125.687 106.765 126.752 106.455 127.461C106.322 127.764 106.007 127.944 105.678 127.905C102.863 127.564 100.501 126.923 98.5676 125.898ZM84.936 105.728V108.32H87.696C87.6464 108.572 87.5946 108.822 87.5404 109.07C86.9125 111.947 85.9698 114.574 84.6 116.408C84.8671 116.992 85.1923 118.065 85.4059 118.93C85.4994 119.308 85.5715 119.647 85.608 119.888C85.6545 119.831 85.7005 119.774 85.746 119.716C85.907 119.513 86.0624 119.308 86.2155 119.094C86.3096 118.963 86.4028 118.828 86.496 118.688V125.96H88.896V124.184H93.48V113.168H89.088C89.1718 112.92 89.2527 112.67 89.3307 112.418C89.7438 111.083 90.0773 109.693 90.36 108.32H93.504V105.728H84.936ZM90.9682 109.07H93.504C93.6592 109.07 93.8034 109.023 93.923 108.942C93.9586 108.947 93.995 108.95 94.032 108.95H98.25V109.034H94.392C93.9778 109.034 93.642 109.37 93.642 109.784V112.436C93.5898 112.424 93.5356 112.418 93.48 112.418H90.1149C90.4469 111.318 90.7262 110.188 90.9682 109.07ZM97.5823 119.798C97.6708 119.933 97.763 120.064 97.8591 120.192C97.9016 120.063 97.9397 119.931 97.9738 119.798H97.5823ZM94.23 121.825V123.706C94.6144 123.56 94.9595 123.402 95.2686 123.235C94.8963 122.798 94.5508 122.327 94.23 121.825ZM89.646 120.938H90.354V116.414H89.646V120.938ZM97.662 116.15V116.162H98.25V116.15H97.662ZM102.462 116.162H103.122V116.15H102.462V116.162ZM130.584 105.65C130.998 105.65 131.334 105.986 131.334 106.4V114.104C131.334 114.145 131.331 114.186 131.324 114.226C131.597 114.338 131.79 114.606 131.79 114.92V116.96C131.79 117.374 131.454 117.71 131.04 117.71H130.805C130.806 117.724 130.806 117.738 130.806 117.752V122.432C130.806 122.846 130.47 123.182 130.056 123.182H129.877C129.857 123.237 129.832 123.29 129.8 123.34C129.681 123.525 129.567 123.708 129.456 123.89H131.232C131.433 123.89 131.616 123.969 131.75 124.098C131.781 124.014 131.826 123.934 131.888 123.863C132.629 123.002 133.43 122.281 134.215 121.778C134.822 120.927 135.339 119.866 135.728 118.766H133.392C133.139 118.766 132.902 118.638 132.764 118.426C132.625 118.213 132.603 117.946 132.706 117.714C133.208 116.574 133.762 115.09 134.303 113.558H132.96C132.546 113.558 132.21 113.222 132.21 112.808V110.264C132.21 109.85 132.546 109.514 132.96 109.514H134.877C134.691 109.05 134.449 108.498 134.191 107.916C134.147 107.816 134.102 107.715 134.057 107.614C133.773 106.974 133.482 106.318 133.249 105.747C133.173 105.559 133.176 105.347 133.258 105.161C133.34 104.975 133.494 104.831 133.684 104.76L136.156 103.848C136.527 103.712 136.941 103.886 137.101 104.247C137.385 104.885 137.728 105.608 138.062 106.308L138.103 106.394C138.419 107.059 138.726 107.702 138.95 108.209C138.951 108.212 138.953 108.215 138.954 108.218V106.76C138.954 106.346 139.29 106.01 139.704 106.01H144.882V104.72C144.882 104.306 145.218 103.97 145.632 103.97H148.416C148.83 103.97 149.166 104.306 149.166 104.72V106.01H154.68C155.094 106.01 155.43 106.346 155.43 106.76V109.136C155.43 109.55 155.094 109.886 154.68 109.886H154.402C154.547 110.023 154.638 110.217 154.638 110.432V116.888C154.638 117.302 154.302 117.638 153.888 117.638H152.002C153.227 118.454 154.366 119.297 155.139 120.008C155.442 120.286 155.465 120.756 155.189 121.062L153.522 122.912C154.222 122.841 154.878 122.761 155.456 122.674C155.725 122.634 155.994 122.742 156.161 122.957C156.327 123.171 156.364 123.459 156.258 123.709C156.103 124.075 155.915 124.599 155.76 125.129C155.602 125.671 155.496 126.163 155.477 126.484C155.455 126.86 155.158 127.161 154.783 127.188C152.793 127.334 148.526 127.478 145.704 127.478C142.541 127.478 140.34 127.218 138.414 126.165C138.004 125.95 137.61 125.699 137.285 125.493C137.187 125.43 137.094 125.371 137.01 125.319C136.816 125.199 136.666 125.112 136.547 125.056C136.534 125.05 136.522 125.045 136.511 125.04C136.504 125.046 136.497 125.053 136.489 125.06C136.37 125.175 136.218 125.362 136.043 125.619C135.698 126.128 135.332 126.806 135.028 127.437C134.912 127.678 134.676 127.839 134.409 127.86C134.143 127.88 133.885 127.757 133.734 127.537L131.982 124.987V126.704C131.982 127.118 131.646 127.454 131.232 127.454H118.56C118.157 127.454 117.828 127.136 117.811 126.737C117.637 126.937 117.425 127.103 117.172 127.24C116.736 127.488 116.247 127.6 115.742 127.656C115.235 127.713 114.655 127.718 114.024 127.718C113.644 127.718 113.325 127.434 113.279 127.057C113.219 126.554 112.96 125.724 112.705 125.215C112.674 125.154 112.653 125.089 112.64 125.023C112.388 125.942 112.031 126.829 111.526 127.579C111.401 127.765 111.199 127.885 110.976 127.907C110.753 127.928 110.532 127.849 110.374 127.69C110.22 127.537 109.901 127.286 109.529 127.032C109.159 126.778 108.806 126.568 108.602 126.475C108.402 126.384 108.253 126.211 108.192 126.001C108.131 125.791 108.164 125.565 108.284 125.382C109.322 123.793 109.434 121.565 109.434 119.648V116.726H108.984C108.57 116.726 108.234 116.39 108.234 115.976V112.256C108.234 111.842 108.57 111.506 108.984 111.506H109.17V105.416C109.17 105.002 109.506 104.666 109.92 104.666H117.72C118.134 104.666 118.47 105.002 118.47 105.416V106.106C118.584 105.838 118.85 105.65 119.16 105.65H121.242V104.696C121.242 104.282 121.578 103.946 121.992 103.946H124.2C124.406 103.946 124.592 104.029 124.728 104.163C124.864 104.029 125.05 103.946 125.256 103.946H127.488C127.902 103.946 128.238 104.282 128.238 104.696V105.65H130.584ZM113.999 124.146C114.198 124.15 114.386 124.152 114.546 124.153V123.799C114.363 123.916 114.181 124.032 113.999 124.146ZM114.546 122.904C114.794 122.742 115.044 122.576 115.296 122.408V124.592C115.296 124.808 115.224 124.904 114.984 124.904C114.859 124.904 114.565 124.904 114.209 124.899C113.95 124.896 113.659 124.89 113.376 124.88C113.485 125.097 113.593 125.362 113.69 125.64C113.85 126.099 113.979 126.594 114.024 126.968C115.296 126.968 116.184 126.944 116.808 126.584C117.48 126.224 117.648 125.648 117.648 124.616V115.952H118.728V112.256H117.72V105.416H109.92V112.256H108.984V115.976H110.184V119.648C110.184 121.323 110.109 123.428 109.281 125.137C109.172 125.363 109.049 125.582 108.912 125.792C109.087 125.872 109.32 126.004 109.567 126.16C109.819 126.318 110.086 126.5 110.324 126.678C110.56 126.854 110.768 127.024 110.904 127.16C111.045 126.951 111.173 126.728 111.291 126.495C111.685 125.712 111.954 124.809 112.136 123.886C112.218 123.475 112.282 123.059 112.332 122.649C112.336 122.617 112.34 122.584 112.344 122.552L112.968 123.896C113.183 123.769 113.397 123.637 113.612 123.503C113.922 123.31 114.233 123.11 114.546 122.904ZM113.186 121.569C113.433 121.457 113.691 121.336 113.959 121.208C114.19 121.098 114.427 120.983 114.671 120.865C114.875 120.766 115.084 120.664 115.296 120.56V119.504L114.336 120.56C114.262 120.486 114.177 120.404 114.083 120.317C113.992 120.232 113.893 120.141 113.788 120.048C113.618 119.896 113.432 119.735 113.238 119.574C113.041 119.41 112.836 119.245 112.634 119.088C112.585 119.05 112.536 119.013 112.488 118.976V119.696C112.488 119.773 112.488 119.85 112.487 119.928C112.484 120.299 112.475 120.678 112.459 121.072C112.449 121.31 112.437 121.555 112.422 121.806C112.42 121.839 112.418 121.871 112.416 121.904C112.468 121.883 112.521 121.861 112.574 121.838C112.769 121.755 112.974 121.665 113.186 121.569ZM113.222 120.727C113.265 120.707 113.309 120.686 113.353 120.665C113.312 120.628 113.27 120.59 113.227 120.552C113.225 120.61 113.223 120.668 113.222 120.727ZM113.604 117.734C113.922 117.946 114.245 118.168 114.546 118.388C114.732 118.524 114.909 118.658 115.071 118.789C115.15 118.852 115.225 118.915 115.296 118.976V116.984H112.488V118.352L113.304 117.536C113.403 117.601 113.503 117.667 113.604 117.734ZM119.16 114.104H130.584V106.4H127.488V104.696H125.256V106.4H124.2V104.696H121.992V106.4H119.16V114.104ZM118.8 114.92V116.96H131.04V114.92H118.8ZM118.398 117.593C118.514 117.667 118.652 117.71 118.8 117.71H118.963C118.962 117.724 118.962 117.738 118.962 117.752V122.432C118.962 122.846 119.298 123.182 119.712 123.182H120.054C120.145 123.405 120.24 123.645 120.333 123.89H118.56C118.504 123.89 118.45 123.896 118.398 123.908V117.593ZM121.134 123.89C121.225 124.138 121.312 124.391 121.392 124.64H118.56V126.704H131.232V124.64H128.112C128.265 124.399 128.418 124.149 128.576 123.89C128.58 123.883 128.584 123.877 128.588 123.87C128.643 123.781 128.698 123.691 128.753 123.6C128.838 123.463 128.924 123.323 129.012 123.182C129.063 123.101 129.115 123.019 129.168 122.936L127.32 122.432H130.056V117.752H119.712V122.432H122.256L120.744 122.888C120.783 122.983 120.823 123.081 120.863 123.182C120.915 123.314 120.968 123.45 121.021 123.588C121.059 123.688 121.096 123.788 121.134 123.89ZM123.294 123.182C123.487 123.685 123.673 124.194 123.816 124.64H125.76C125.947 124.173 126.144 123.665 126.312 123.182C126.403 122.921 126.485 122.668 126.552 122.432H123C123.002 122.437 123.004 122.442 123.006 122.447C123.101 122.685 123.198 122.932 123.294 123.182ZM124.097 123.182C124.186 123.421 124.274 123.659 124.355 123.89H125.25C125.342 123.654 125.432 123.415 125.516 123.182H124.097ZM138.768 125.504C140.52 126.464 142.56 126.728 145.704 126.728C148.512 126.728 152.76 126.584 154.728 126.44C154.762 125.857 155.005 124.967 155.264 124.217C155.367 123.918 155.472 123.642 155.568 123.416C155.298 123.457 155.012 123.496 154.714 123.533C152.008 123.869 148.245 124.064 145.824 124.064C143.088 124.064 140.808 123.92 139.152 122.984C138.689 122.722 138.31 122.494 137.988 122.3C137.926 122.263 137.866 122.227 137.808 122.192C138.026 121.789 138.228 121.368 138.414 120.934C138.539 120.644 138.656 120.348 138.767 120.047C139.125 119.073 139.413 118.048 139.635 117.006C139.644 116.967 139.652 116.927 139.66 116.888C139.71 116.649 139.757 116.408 139.8 116.168L138.144 115.472L137.712 115.544H137.064C137.16 115.299 137.257 115.049 137.354 114.794C137.82 113.574 138.298 112.257 138.728 111.014C138.815 110.76 138.901 110.51 138.984 110.264H132.96V112.808H135.36C135.274 113.058 135.186 113.308 135.099 113.558C134.638 114.87 134.161 116.168 133.71 117.266C133.603 117.528 133.496 117.779 133.392 118.016H136.752C136.682 118.265 136.605 118.516 136.521 118.766C136.089 120.056 135.48 121.331 134.736 122.336C133.992 122.792 133.2 123.488 132.456 124.352L134.352 127.112C134.472 126.863 134.602 126.605 134.738 126.35C135.313 125.275 135.994 124.256 136.44 124.256C136.738 124.256 137.176 124.534 137.706 124.872C138.029 125.077 138.387 125.304 138.768 125.504ZM137.839 109.514H138.984C139.009 109.514 139.034 109.515 139.058 109.518C138.992 109.406 138.954 109.275 138.954 109.136V108.806C138.879 108.982 138.739 109.124 138.563 109.2L137.839 109.514ZM139.63 109.882C139.667 109.946 139.694 110.013 139.712 110.083C139.751 110.009 139.802 109.943 139.862 109.886H139.704C139.679 109.886 139.654 109.885 139.63 109.882ZM139.626 110.706C139.185 112.001 138.681 113.407 138.183 114.723C138.269 114.728 138.354 114.747 138.435 114.781L139.626 115.281V110.706ZM140.376 116.888H144.384C144.18 117.142 143.957 117.393 143.718 117.638C142.656 118.729 141.281 119.712 139.879 120.379C139.705 120.462 139.53 120.54 139.355 120.612C139.279 120.644 139.204 120.675 139.128 120.704C139.173 120.744 139.22 120.787 139.269 120.832C139.407 120.962 139.555 121.114 139.706 121.279C140.172 121.787 140.661 122.413 140.928 122.864C142.342 122.176 143.709 121.071 144.882 119.797C145.142 119.515 145.393 119.224 145.632 118.928V123.248H148.416V119.048C148.666 119.213 148.917 119.38 149.166 119.549C150.368 120.367 151.522 121.223 152.345 121.977C152.544 122.16 152.724 122.336 152.88 122.504L154.632 120.56C154.582 120.515 154.531 120.468 154.479 120.422C154.35 120.308 154.211 120.19 154.065 120.069C153.143 119.312 151.896 118.443 150.624 117.638C150.216 117.379 149.804 117.128 149.4 116.888H153.888V110.432H148.416V109.136H154.68V106.76H148.416V104.72H145.632V106.76H139.704V109.136H145.632V110.432H140.376V116.888ZM149.166 120.46V123.226C150.211 123.176 151.299 123.107 152.337 123.021C152.334 123.019 152.332 123.017 152.33 123.014C151.657 122.289 150.479 121.373 149.166 120.46ZM144.884 123.307C144.883 123.287 144.882 123.268 144.882 123.248V120.878C144.013 121.742 143.053 122.515 142.046 123.112C142.884 123.235 143.829 123.289 144.884 123.307ZM139.701 122.428C139.462 122.127 139.195 121.822 138.952 121.573C138.9 121.686 138.848 121.798 138.794 121.909C139.012 122.039 139.252 122.179 139.521 122.331C139.58 122.364 139.64 122.397 139.701 122.428ZM139.706 119.629C140.75 119.114 141.773 118.416 142.637 117.638H140.376C140.338 117.638 140.301 117.635 140.264 117.63C140.107 118.306 139.921 118.975 139.706 119.629ZM138.264 108.512C138.173 108.306 138.068 108.076 137.953 107.83C137.79 107.482 137.609 107.102 137.422 106.71C137.078 105.987 136.715 105.224 136.416 104.552L133.944 105.464C134.033 105.683 134.132 105.916 134.235 106.156C134.396 106.528 134.569 106.919 134.742 107.308C134.99 107.867 135.237 108.424 135.443 108.918C135.531 109.13 135.612 109.33 135.682 109.514C135.695 109.549 135.708 109.583 135.72 109.616L138.264 108.512ZM113.064 112.256H112.128V107.432H115.392V108.416H113.064V112.256ZM150.354 113.978V113.366H149.166V113.978H150.354ZM144.882 113.366H143.766V113.978H144.882V113.366ZM171.36 108.056V109.832H174.288L174.24 110.648H171.24V112.424H174.072L173.976 113.264H166.2C166.334 113.19 166.468 113.113 166.602 113.034C166.879 112.871 167.157 112.698 167.434 112.514C167.671 112.357 167.907 112.191 168.144 112.016C168.365 112.189 168.575 112.355 168.77 112.514C169.062 112.752 169.32 112.976 169.536 113.192L170.952 111.944C170.817 111.809 170.662 111.674 170.49 111.538C170.453 111.509 170.416 111.48 170.378 111.45C170.302 111.392 170.223 111.334 170.142 111.275C169.945 111.133 169.734 110.988 169.512 110.84C169.699 110.663 169.878 110.482 170.049 110.297C170.129 110.21 170.207 110.123 170.284 110.034C170.397 109.903 170.506 109.77 170.61 109.635C170.67 109.557 170.728 109.479 170.784 109.4L168.912 108.848C168.833 108.948 168.748 109.049 168.658 109.149C168.445 109.385 168.205 109.62 167.952 109.856C167.687 109.705 167.422 109.553 167.161 109.409C166.925 109.279 166.692 109.154 166.464 109.04L165.144 110.168C165.214 110.207 165.285 110.247 165.356 110.287C165.406 110.315 165.455 110.343 165.505 110.371C165.591 110.421 165.678 110.471 165.765 110.522C165.789 110.535 165.812 110.549 165.836 110.563C166.052 110.69 166.27 110.822 166.488 110.96C166.251 111.111 166.005 111.252 165.753 111.387C165.689 111.422 165.623 111.457 165.558 111.491C165.48 111.532 165.401 111.573 165.321 111.613C165.319 111.614 165.317 111.616 165.315 111.617C165.147 111.703 164.977 111.787 164.808 111.872V110.648H161.856L161.808 109.832H164.76V108.056H161.712L161.664 107.36C161.68 107.357 161.696 107.353 161.712 107.35C161.779 107.335 161.846 107.321 161.913 107.306C162.687 107.136 163.482 106.933 164.193 106.705C164.358 106.652 164.519 106.598 164.674 106.542C164.76 106.511 164.845 106.48 164.928 106.448L163.776 104.792C162.504 105.248 160.368 105.896 158.928 106.136L159.36 113.264H157.56V118.184H160.272V115.328H175.68V118.184H178.512V113.264H176.736C176.759 113.023 176.782 112.772 176.804 112.514C176.968 110.613 177.101 108.288 177.204 106.214C177.216 105.96 177.228 105.709 177.24 105.464H171.216V107.264H174.456L174.408 108.056H171.36ZM170.178 107.14C169.985 106.992 169.777 106.84 169.56 106.688C169.751 106.517 169.933 106.339 170.105 106.155C170.153 106.103 170.201 106.051 170.247 105.999C170.323 105.915 170.395 105.83 170.466 105.744C170.543 105.651 170.617 105.558 170.688 105.464C170.712 105.432 170.736 105.4 170.76 105.368L168.888 104.816C168.648 105.152 168.336 105.464 168.024 105.776C167.52 105.488 167.016 105.224 166.56 105.008L165.288 106.112C165.312 106.124 165.336 106.136 165.359 106.148C165.462 106.2 165.564 106.254 165.665 106.309C165.723 106.341 165.782 106.373 165.84 106.405C165.891 106.434 165.943 106.463 165.994 106.492C166.146 106.578 166.3 106.668 166.46 106.76C166.501 106.784 166.542 106.808 166.584 106.832C166.343 106.983 166.093 107.13 165.838 107.267C165.741 107.319 165.644 107.369 165.546 107.418C165.465 107.459 165.383 107.499 165.301 107.537C165.122 107.621 164.941 107.698 164.76 107.768C164.876 107.847 165.007 107.946 165.144 108.056C165.24 108.133 165.339 108.215 165.437 108.299C165.462 108.32 165.486 108.34 165.51 108.361C165.61 108.448 165.709 108.535 165.802 108.619C165.977 108.777 166.133 108.925 166.248 109.04C166.299 109.016 166.349 108.991 166.4 108.965C166.446 108.942 166.491 108.919 166.537 108.895C166.74 108.788 166.943 108.672 167.147 108.548C167.495 108.335 167.844 108.098 168.192 107.84C168.224 107.864 168.256 107.888 168.288 107.912C168.4 107.996 168.51 108.078 168.616 108.159C168.758 108.267 168.895 108.373 169.022 108.476C169.178 108.604 169.32 108.728 169.44 108.848L170.665 107.773L170.808 107.648C170.792 107.634 170.776 107.621 170.759 107.607C170.67 107.531 170.575 107.452 170.474 107.371C170.391 107.305 170.305 107.238 170.216 107.169C170.204 107.16 170.191 107.15 170.178 107.14ZM165.057 105.32L166.068 104.442C166.293 104.247 166.612 104.203 166.881 104.33C167.201 104.482 167.542 104.655 167.889 104.843C168.038 104.684 168.168 104.533 168.278 104.38C168.463 104.12 168.794 104.006 169.1 104.097L170.972 104.649C171.03 104.666 171.084 104.689 171.135 104.718C171.161 104.716 171.189 104.714 171.216 104.714H177.24C177.445 104.714 177.641 104.798 177.783 104.946C177.924 105.095 177.999 105.295 177.989 105.5C177.883 107.725 177.739 110.374 177.557 112.514H178.512C178.926 112.514 179.262 112.85 179.262 113.264V118.184C179.262 118.598 178.926 118.934 178.512 118.934H175.68C175.284 118.934 174.96 118.628 174.932 118.239C174.913 118.256 174.894 118.272 174.873 118.287C174.226 118.757 173.508 119.232 172.754 119.69H178.824C179.238 119.69 179.574 120.026 179.574 120.44V122.696C179.574 123.11 179.238 123.446 178.824 123.446H170.406V124.424C170.406 125.096 170.334 125.723 170.05 126.252C169.747 126.816 169.262 127.167 168.657 127.403C168.647 127.407 168.637 127.41 168.626 127.414C167.5 127.798 166.041 127.814 164.28 127.814C163.91 127.814 163.596 127.545 163.539 127.18C163.438 126.532 163.074 125.658 162.745 124.999C162.626 124.762 162.642 124.479 162.787 124.256C162.931 124.033 163.182 123.903 163.448 123.915C164.411 123.956 165.584 123.96 166.098 123.947V123.446H157.128C156.714 123.446 156.378 123.11 156.378 122.696V120.44C156.378 120.026 156.714 119.69 157.128 119.69H166.1C166.117 119.446 166.253 119.227 166.46 119.102H161.784C161.37 119.102 161.034 118.766 161.034 118.352V116.36C161.034 116.26 161.053 116.165 161.089 116.078H161.022V118.184C161.022 118.598 160.686 118.934 160.272 118.934H157.56C157.146 118.934 156.81 118.598 156.81 118.184V113.264C156.81 112.85 157.146 112.514 157.56 112.514H158.563L158.179 106.181C158.156 105.798 158.426 105.459 158.805 105.396C160.181 105.167 162.268 104.536 163.523 104.086C163.842 103.972 164.198 104.085 164.392 104.364L165.057 105.32ZM172.224 116.36H161.784V118.352H169.488C169.067 118.609 168.634 118.867 168.201 119.102C167.746 119.349 167.291 119.572 166.848 119.744V120.44H157.128V122.696H166.848V124.328C166.848 124.616 166.728 124.688 166.344 124.688C166.07 124.706 165.172 124.711 164.261 124.691C163.974 124.684 163.686 124.676 163.416 124.664C163.53 124.892 163.652 125.152 163.768 125.428C163.995 125.965 164.201 126.556 164.28 127.064C166.08 127.064 167.4 127.04 168.384 126.704C169.368 126.32 169.656 125.696 169.656 124.424V122.696H178.824V120.44H169.848C170.323 120.203 170.797 119.951 171.264 119.69C172.157 119.191 173.021 118.658 173.804 118.123C174.02 117.975 174.23 117.827 174.432 117.68L172.824 116.216L172.224 116.36ZM173.786 116.078L174.93 117.119V116.078H173.786ZM161.952 112.424L162 113.264H165.888C165.795 113.154 165.678 113.026 165.549 112.891C165.52 112.86 165.489 112.829 165.459 112.797C165.37 112.706 165.277 112.613 165.185 112.522C165.182 112.519 165.18 112.517 165.177 112.514C165.146 112.484 165.115 112.454 165.085 112.424C165.084 112.423 165.084 112.423 165.083 112.422C164.988 112.33 164.895 112.242 164.808 112.16V112.424H161.952ZM63.552 115.976V117.368H65.256V115.976H63.552ZM63.552 112.712V114.104H65.256V112.712H63.552ZM68.88 114.104V112.712H67.2V114.104H68.88ZM68.88 117.368V115.976H67.2V117.368H68.88ZM91.104 121.688V115.664H88.896V121.688H91.104ZM96.912 116.912H99V115.4H96.912V116.912ZM96.912 111.92V113.408H99V111.92H96.912ZM103.872 111.92H101.712V113.408H103.872V111.92ZM103.872 116.912V115.4H101.712V116.912H103.872ZM128.376 109.376V108.272H127.104V109.376H128.376ZM128.376 112.232V111.104H127.104V112.232H128.376ZM121.272 111.104V112.232H122.496V111.104H121.272ZM121.272 108.272V109.376H122.496V108.272H121.272ZM125.376 111.104H124.224V112.232H125.376V111.104ZM124.224 109.376H125.376V108.272H124.224V109.376ZM114.504 112.256H115.392V110.024H114.504V112.256ZM116.568 115.136V114.176H111.072V115.136H116.568ZM122.208 119.48V120.728H127.416V119.48H122.208ZM151.104 112.616H148.416V114.728H151.104V112.616ZM143.016 112.616V114.728H145.632V112.616H143.016Z" fill="#00E0B8"/>
<path d="M206.062 82.4062V128H197.062V92.7812L186.25 96.2188V89.125L205.094 82.4062H206.062ZM251.5 101.25V109.125C251.5 112.542 251.135 115.49 250.406 117.969C249.677 120.427 248.625 122.448 247.25 124.031C245.896 125.594 244.281 126.75 242.406 127.5C240.531 128.25 238.448 128.625 236.156 128.625C234.323 128.625 232.615 128.396 231.031 127.938C229.448 127.458 228.021 126.719 226.75 125.719C225.5 124.719 224.417 123.458 223.5 121.938C222.604 120.396 221.917 118.562 221.438 116.438C220.958 114.312 220.719 111.875 220.719 109.125V101.25C220.719 97.8333 221.083 94.9062 221.812 92.4688C222.562 90.0104 223.615 88 224.969 86.4375C226.344 84.875 227.969 83.7292 229.844 83C231.719 82.25 233.802 81.875 236.094 81.875C237.927 81.875 239.625 82.1146 241.188 82.5938C242.771 83.0521 244.198 83.7708 245.469 84.75C246.74 85.7292 247.823 86.9896 248.719 88.5312C249.615 90.0521 250.302 91.875 250.781 94C251.26 96.1042 251.5 98.5208 251.5 101.25ZM242.469 110.312V100.031C242.469 98.3854 242.375 96.9479 242.188 95.7188C242.021 94.4896 241.76 93.4479 241.406 92.5938C241.052 91.7188 240.615 91.0104 240.094 90.4688C239.573 89.9271 238.979 89.5312 238.312 89.2812C237.646 89.0312 236.906 88.9062 236.094 88.9062C235.073 88.9062 234.167 89.1042 233.375 89.5C232.604 89.8958 231.948 90.5312 231.406 91.4062C230.865 92.2604 230.448 93.4062 230.156 94.8438C229.885 96.2604 229.75 97.9896 229.75 100.031V110.312C229.75 111.958 229.833 113.406 230 114.656C230.188 115.906 230.458 116.979 230.812 117.875C231.188 118.75 231.625 119.469 232.125 120.031C232.646 120.573 233.24 120.969 233.906 121.219C234.594 121.469 235.344 121.594 236.156 121.594C237.156 121.594 238.042 121.396 238.812 121C239.604 120.583 240.271 119.938 240.812 119.062C241.375 118.167 241.792 117 242.062 115.562C242.333 114.125 242.469 112.375 242.469 110.312ZM257.5 93.6562V91.25C257.5 89.5208 257.875 87.9479 258.625 86.5312C259.375 85.1146 260.479 83.9792 261.938 83.125C263.396 82.2708 265.188 81.8438 267.312 81.8438C269.5 81.8438 271.323 82.2708 272.781 83.125C274.26 83.9792 275.365 85.1146 276.094 86.5312C276.844 87.9479 277.219 89.5208 277.219 91.25V93.6562C277.219 95.3438 276.844 96.8958 276.094 98.3125C275.365 99.7292 274.271 100.865 272.812 101.719C271.354 102.573 269.552 103 267.406 103C265.24 103 263.417 102.573 261.938 101.719C260.479 100.865 259.375 99.7292 258.625 98.3125C257.875 96.8958 257.5 95.3438 257.5 93.6562ZM263.469 91.25V93.6562C263.469 94.3854 263.604 95.0833 263.875 95.75C264.167 96.3958 264.604 96.9271 265.188 97.3438C265.792 97.7396 266.521 97.9375 267.375 97.9375C268.271 97.9375 269 97.7396 269.562 97.3438C270.125 96.9271 270.542 96.3958 270.812 95.75C271.083 95.0833 271.219 94.3854 271.219 93.6562V91.25C271.219 90.4792 271.073 89.7708 270.781 89.125C270.51 88.4583 270.083 87.9271 269.5 87.5312C268.938 87.1146 268.208 86.9062 267.312 86.9062C266.479 86.9062 265.771 87.1146 265.188 87.5312C264.604 87.9271 264.167 88.4583 263.875 89.125C263.604 89.7708 263.469 90.4792 263.469 91.25ZM279.25 119.25V116.844C279.25 115.135 279.625 113.573 280.375 112.156C281.146 110.74 282.26 109.604 283.719 108.75C285.198 107.896 287.01 107.469 289.156 107.469C291.323 107.469 293.135 107.896 294.594 108.75C296.052 109.604 297.156 110.74 297.906 112.156C298.656 113.573 299.031 115.135 299.031 116.844V119.25C299.031 120.958 298.656 122.521 297.906 123.938C297.177 125.354 296.083 126.49 294.625 127.344C293.167 128.198 291.365 128.625 289.219 128.625C287.052 128.625 285.229 128.198 283.75 127.344C282.271 126.49 281.146 125.354 280.375 123.938C279.625 122.521 279.25 120.958 279.25 119.25ZM285.25 116.844V119.25C285.25 120 285.417 120.708 285.75 121.375C286.083 122.042 286.542 122.573 287.125 122.969C287.729 123.365 288.427 123.562 289.219 123.562C290.219 123.562 291 123.365 291.562 122.969C292.125 122.573 292.51 122.042 292.719 121.375C292.948 120.708 293.062 120 293.062 119.25V116.844C293.062 116.094 292.917 115.396 292.625 114.75C292.333 114.083 291.896 113.552 291.312 113.156C290.75 112.74 290.031 112.531 289.156 112.531C288.281 112.531 287.552 112.74 286.969 113.156C286.406 113.552 285.979 114.083 285.688 114.75C285.396 115.396 285.25 116.094 285.25 116.844ZM291.375 89L269.156 124.562L264.781 122.25L287 86.6875L291.375 89Z" fill="url(#paint0_linear_317_653)"/>
<path d="M103.32 188.96H99.64C99.48 188.48 99.12 187.84 98.8 187.36L97.98 187.62C98.24 188.02 98.5 188.52 98.68 188.96H94.2V189.74H103.32V188.96ZM96.32 191.42H101.5V193.04H96.32V191.42ZM102.38 193.74V190.7H95.46V193.74H102.38ZM95.28 205.38C96.22 204.5 97.04 203.06 97.58 201.82L96.72 201.6C96.2 202.84 95.34 204.22 94.46 205.02L95.28 205.38ZM103.12 197.96L103.14 197.2C101.88 197.28 100.62 197.36 99.42 197.44V196.68C100.58 196.3 101.82 195.74 102.7 195.1L102.1 194.66L101.9 194.72H94.9V195.48H100.66C99.98 195.78 99.22 196.06 98.52 196.26V197.5C96.88 197.6 95.36 197.68 94.2 197.74L94.28 198.56L98.52 198.28V199.78C98.52 200 98.48 200.06 98.2 200.08C97.94 200.1 97.14 200.1 96.04 200.08C96.16 200.32 96.3 200.6 96.34 200.84C97.64 200.84 98.42 200.84 98.88 200.7C99.3 200.56 99.42 200.34 99.42 199.8V198.22L103.12 197.96ZM100.02 202C100.26 203.06 100.42 204.44 100.44 205.28L101.4 205.14C101.38 204.34 101.18 203 100.92 201.94L100.02 202ZM104.2 201.96C104.7 203.02 105.2 204.4 105.4 205.24L106.32 205.04C106.14 204.22 105.6 202.82 105.08 201.78L104.2 201.96ZM108.34 201.8C109.22 202.88 110.2 204.36 110.64 205.28L111.54 204.96C111.08 204.02 110.08 202.56 109.18 201.5L108.34 201.8ZM106.8 190.4V187.34H105.9V190.4H103.52V191.26H105.9V191.5C105.9 192.5 105.84 193.56 105.62 194.62C105.02 194.14 104.4 193.72 103.78 193.34L103.26 193.96C103.96 194.42 104.7 194.94 105.42 195.52C104.86 197.26 103.78 198.98 101.66 200.46C101.88 200.58 102.18 200.86 102.32 201.06C104.44 199.58 105.56 197.9 106.16 196.14C106.9 196.78 107.56 197.44 108 197.98L108.56 197.26C108.08 196.66 107.3 195.94 106.42 195.22C106.72 193.98 106.8 192.72 106.8 191.48V191.26H109.24C109.24 197.64 109.26 200.94 111.06 200.94C111.96 200.94 112.16 200.24 112.26 197.8C112.06 197.68 111.76 197.48 111.56 197.3C111.54 198.84 111.46 200.08 111.14 200.08C110.12 200.08 110.12 196.54 110.16 190.4H106.8ZM115.04 204.42C116.06 203.26 116.82 201.44 117.34 200.02L116.52 199.7C116.04 201.06 115.24 202.86 114.2 203.94L115.04 204.42ZM121.42 204.1C120.2 204.1 120 203.98 120 203.46V199.44H119.06V203.48C119.06 204.72 119.54 205 121.4 205H125.86C127.46 205 127.78 204.46 127.94 202.1C127.64 202.04 127.26 201.9 127.04 201.74C126.94 203.8 126.78 204.1 125.8 204.1H121.42ZM121.96 199.18C122.76 199.98 123.76 201.1 124.26 201.76L124.98 201.24C124.48 200.6 123.48 199.52 122.7 198.74L121.96 199.18ZM128.08 199.94C128.98 201.24 130.1 202.98 130.64 204L131.52 203.58C130.94 202.58 129.8 200.86 128.9 199.6L128.08 199.94ZM126.58 192.8C127.26 192.04 128.1 190.92 128.74 189.92L127.82 189.52C127.36 190.4 126.5 191.7 125.84 192.5L126.42 192.8H123.44V189.1C125.96 188.84 128.34 188.5 130.12 188.1L129.18 187.38C126.16 188.14 120.18 188.62 115.26 188.86C115.38 189.06 115.48 189.4 115.5 189.64C117.74 189.54 120.16 189.38 122.5 189.2V192.8H119.06L119.84 192.4C119.56 191.7 118.82 190.62 118.14 189.86L117.36 190.2C118.04 191.02 118.7 192.08 119.02 192.8H114.24V193.7H121.22C119.4 195.62 116.46 197.34 113.9 198.18C114.12 198.38 114.4 198.74 114.58 198.96C117.26 197.96 120.52 195.92 122.36 193.7H122.5V198.22H123.44V194.14C126.14 195.52 129.24 197.54 130.88 198.9L131.46 198.2C129.92 196.96 127.02 195.08 124.42 193.7H131.8V192.8H126.58ZM150.76 191.94C150.46 193.42 150.08 195.08 149.74 196.12L150.52 196.4C150.98 195.12 151.46 192.98 151.86 191.2L151.24 191L151.06 191.06H145.36C145.64 189.92 145.88 188.72 146.06 187.48L145.1 187.32C144.66 190.48 143.88 193.4 142.5 195.34C142.76 195.46 143.2 195.72 143.38 195.86C144.08 194.78 144.64 193.46 145.1 191.94H150.76ZM135.68 196.04H138.22V198.24H135.68V196.04ZM135.68 193.08H138.22V195.26H135.68V193.08ZM141.4 195.26H139.02V193.08H141.4V195.26ZM141.4 198.24H139.02V196.04H141.4V198.24ZM143.28 201.84V200.96H139.06V199.04H142.22V192.28H139.06V190.54H142.8V189.66H139.06V187.32H138.2V189.66H134.18V190.54H138.2V192.28H134.88V199.04H138.2V200.96H133.96V201.84H138.2V205.44H139.06V201.84H143.28ZM147.42 195.9C147.46 195.36 147.46 194.84 147.46 194.36V193.44H146.52V194.34C146.52 197.26 146.22 201.5 141.36 204.78C141.6 204.92 141.92 205.22 142.08 205.44C145.24 203.28 146.56 200.68 147.08 198.26C147.96 201.48 149.42 204.16 151.64 205.44C151.8 205.2 152.08 204.86 152.32 204.66C149.7 203.3 148.12 199.82 147.42 195.9ZM170.42 191.46H168.48V189.72H170.42V191.46ZM170.42 194.02H168.48V192.22H170.42V194.02ZM163.32 192.22H165.14V194.02H163.32V192.22ZM163.32 189.72H165.14V191.46H163.32V189.72ZM167.72 192.22V194.02H165.9V192.22H167.72ZM165.9 191.46V189.72H167.72V191.46H165.9ZM171.26 188.94H168.54V187.36H167.7V188.94H165.9V187.36H165.06V188.94H162.5V194.8H171.26V188.94ZM171.86 196.04H162.02V196.84H171.86V196.04ZM163.96 198.74H169.86V200.82H163.96V198.74ZM170.78 201.56V197.98H163.08V201.56H170.78ZM160.6 195.96H155.24V199.7C155.24 201.3 155.08 203.38 153.98 204.94C154.2 205.04 154.54 205.34 154.68 205.54C155.88 203.84 156.08 201.46 156.08 199.7V196.74H159.74V200.36C158.38 201.12 157.06 201.82 156.14 202.24L156.6 203C157.54 202.46 158.64 201.82 159.74 201.16V204.24C159.74 204.46 159.66 204.54 159.42 204.54C159.22 204.56 158.46 204.56 157.56 204.54C157.68 204.76 157.82 205.1 157.88 205.3C159.06 205.3 159.72 205.3 160.12 205.16C160.48 205 160.6 204.76 160.6 204.26V195.96ZM159.34 199.46C158.84 198.94 157.86 198.22 156.98 197.64L156.48 198.18C157.28 198.72 158.28 199.56 158.76 200.08L159.34 199.46ZM155.94 188.92H159.8V190.48H157.46V193.56H155.94V188.92ZM159.8 193.56H158.18V191.22H159.8V193.56ZM160.66 188.12H155.1V193.56H154.24V196.28H155.06V194.34H160.7V196.28H161.52V193.56H160.66V188.12ZM168.78 204.2C169.1 203.56 169.48 202.72 169.82 202.02L168.92 201.74C168.7 202.44 168.28 203.48 167.96 204.2H165.84C165.64 203.54 165.26 202.56 164.92 201.82L164.12 202.04C164.42 202.72 164.74 203.56 164.94 204.2H161.76V205H172.04V204.2H168.78ZM188.38 191.6H183.18V189.02H188.38V191.6ZM189.28 188.22H182.3V192.4H189.28V188.22ZM187.24 194.2H190.54V196.96H187.24V194.2ZM186.4 197.76H191.38V193.42H186.4V197.76ZM184.22 196.96H181.02V194.2H184.22V196.96ZM185.06 193.42H180.2V197.76H185.06V193.42ZM179.48 197L179.32 196.12L177.4 196.88V192.42H179.4V191.52H177.4V187.34H176.48V191.52H174.06V192.42H176.48V197.24C175.52 197.62 174.62 197.96 173.92 198.2L174.22 199.12L176.48 198.2V204.24C176.48 204.48 176.42 204.54 176.2 204.54C176.02 204.54 175.4 204.56 174.68 204.54C174.82 204.8 174.94 205.2 175 205.42C175.96 205.42 176.54 205.4 176.9 205.26C177.24 205.08 177.4 204.82 177.4 204.22V197.84L179.48 197ZM183.06 200.9C182.02 202.06 180.5 203.34 179.16 204.22C179.38 204.38 179.74 204.7 179.88 204.86C181.16 203.9 182.74 202.46 183.9 201.22L183.06 200.9ZM191.9 200.32V199.46H186.2V197.84H185.26V199.46H179.78V200.32H185.26V205.5H186.2V200.32H191.9ZM187.46 201.4C188.9 202.38 190.64 203.8 191.5 204.78L192.08 204.12C191.24 203.2 189.5 201.8 188.02 200.82L187.46 201.4ZM199.12 187.42C197.92 190.56 195.98 193.66 193.92 195.64C194.12 195.84 194.42 196.32 194.52 196.52C195.36 195.68 196.16 194.68 196.92 193.6V205.44H197.9V192.06C198.72 190.68 199.44 189.2 200.04 187.7L199.12 187.42ZM212.06 191.66V190.74H203.32C203.78 189.82 204.18 188.84 204.54 187.86L203.64 187.62C202.6 190.58 200.96 193.5 199.14 195.4C199.34 195.54 199.74 195.88 199.9 196.02C200.96 194.84 201.98 193.34 202.88 191.66H204.62V205.46H205.58V200.34H211.94V199.42H205.58V195.92H211.66V195.02H205.58V191.66H212.06Z" fill="white"/>
<path d="M99.98 264.28C99.2 264.56 98.38 264.82 97.62 265.06V259.52H99.8V258.62H97.62V253.74H100.04V252.82H94.06V253.74H96.7V258.62H94.26V259.52H96.7V265.38C95.62 265.72 94.64 266.04 93.86 266.28L94.12 267.26C95.8 266.68 98.02 265.92 100.14 265.2L99.98 264.28ZM102.08 257.06H105.72V260.14H102.08V257.06ZM102.08 253.18H105.72V256.2H102.08V253.18ZM110.3 256.2H106.58V253.18H110.3V256.2ZM110.3 260.14H106.58V257.06H110.3V260.14ZM106.62 267.88V264.66H111.56V263.76H106.62V261.02H111.22V252.32H101.18V261.02H105.66V263.76H100.86V264.66H105.66V267.88H99.24V268.78H112.22V267.88H106.62ZM119.18 263.38V260.62H121.38V263.38H119.18ZM116.18 260.62H118.4V263.38H116.14C116.16 262.78 116.18 262.2 116.18 261.68V260.62ZM119.76 253.9C119.46 254.72 119.04 255.66 118.64 256.36H116C116.42 255.6 116.82 254.78 117.18 253.9H119.76ZM119.18 257.18H121.38V259.82H119.18V257.18ZM116.18 257.18H118.4V259.82H116.18V257.18ZM122.24 256.36H119.56C120.06 255.5 120.58 254.4 120.92 253.42L120.34 253.02L120.18 253.08H117.48C117.66 252.58 117.84 252.06 117.98 251.54L117.04 251.32C116.4 253.82 115.26 256.22 113.8 257.8C114.04 257.92 114.44 258.22 114.6 258.38C114.86 258.08 115.1 257.76 115.34 257.4V261.68C115.34 263.92 115.18 266.9 113.82 269.04C114.04 269.12 114.42 269.34 114.56 269.48C115.5 268 115.92 266.04 116.08 264.2H121.38V268.22C121.38 268.5 121.26 268.58 120.98 268.6C120.7 268.62 119.72 268.62 118.56 268.58C118.68 268.82 118.84 269.2 118.9 269.42C120.38 269.42 121.18 269.42 121.62 269.28C122.08 269.12 122.24 268.8 122.24 268.22V256.36ZM130.62 253.22C130.46 255.96 130.3 257 130.02 257.3C129.9 257.46 129.72 257.48 129.42 257.48C129.14 257.48 128.3 257.46 127.4 257.4C127.52 257.6 127.62 257.96 127.64 258.22C128.48 258.28 129.36 258.3 129.74 258.26C130.24 258.26 130.52 258.14 130.76 257.86C131.18 257.42 131.36 256.18 131.54 252.78C131.56 252.66 131.56 252.34 131.56 252.34H123V253.22H126C125.6 255.28 124.66 257.16 122.38 258.14C122.58 258.28 122.84 258.58 122.98 258.78C125.44 257.66 126.48 255.62 126.94 253.22H130.62ZM132.12 264.44H128.06V261.62H131.78V260.76H128.06V258.56H127.12V260.76H124.92C125.12 260.18 125.3 259.56 125.44 258.94L124.52 258.76C124.16 260.5 123.48 262.2 122.56 263.38C122.8 263.48 123.22 263.7 123.4 263.82C123.84 263.2 124.24 262.46 124.58 261.62H127.12V264.44H122.62V265.34H127.12V269.34H128.06V265.34H132.12V264.44ZM139.62 259.5V266H136.5V259.5H139.62ZM140.48 266.88V258.62H136.42C137 257.04 137.44 255.26 137.78 253.42H140.7V252.52H134.18V253.42H136.84C136.24 256.72 135.28 259.78 133.78 261.78C133.98 262 134.26 262.46 134.36 262.66C134.84 262.04 135.24 261.32 135.62 260.54V268.56H136.5V266.88H140.48ZM142.46 261.96V259.48H145.94V260.44C145.94 260.94 145.94 261.46 145.9 261.96H142.46ZM142.46 256.22H145.94V258.68H142.46V256.22ZM150.56 256.22V258.68H146.86V256.22H150.56ZM150.56 261.96H146.82C146.84 261.46 146.86 260.92 146.86 260.42V259.48H150.56V261.96ZM151.46 262.78V255.4H146.86V253.16H151.88V252.26H141.12V253.16H145.94V255.4H141.56V262.78H145.82C145.66 263.92 145.34 265.02 144.56 266.02C143.7 265.3 143.02 264.44 142.56 263.44L141.74 263.7C142.28 264.88 143.04 265.84 144 266.64C143.14 267.48 141.9 268.2 140.14 268.74C140.34 268.92 140.58 269.28 140.7 269.5C142.52 268.9 143.8 268.1 144.7 267.18C146.48 268.4 148.84 269.14 151.62 269.48C151.74 269.22 151.98 268.86 152.18 268.66C149.36 268.36 147.02 267.68 145.28 266.54C146.16 265.38 146.56 264.1 146.72 262.78H151.46ZM170.42 255.46H168.48V253.72H170.42V255.46ZM170.42 258.02H168.48V256.22H170.42V258.02ZM163.32 256.22H165.14V258.02H163.32V256.22ZM163.32 253.72H165.14V255.46H163.32V253.72ZM167.72 256.22V258.02H165.9V256.22H167.72ZM165.9 255.46V253.72H167.72V255.46H165.9ZM171.26 252.94H168.54V251.36H167.7V252.94H165.9V251.36H165.06V252.94H162.5V258.8H171.26V252.94ZM171.86 260.04H162.02V260.84H171.86V260.04ZM163.96 262.74H169.86V264.82H163.96V262.74ZM170.78 265.56V261.98H163.08V265.56H170.78ZM160.6 259.96H155.24V263.7C155.24 265.3 155.08 267.38 153.98 268.94C154.2 269.04 154.54 269.34 154.68 269.54C155.88 267.84 156.08 265.46 156.08 263.7V260.74H159.74V264.36C158.38 265.12 157.06 265.82 156.14 266.24L156.6 267C157.54 266.46 158.64 265.82 159.74 265.16V268.24C159.74 268.46 159.66 268.54 159.42 268.54C159.22 268.56 158.46 268.56 157.56 268.54C157.68 268.76 157.82 269.1 157.88 269.3C159.06 269.3 159.72 269.3 160.12 269.16C160.48 269 160.6 268.76 160.6 268.26V259.96ZM159.34 263.46C158.84 262.94 157.86 262.22 156.98 261.64L156.48 262.18C157.28 262.72 158.28 263.56 158.76 264.08L159.34 263.46ZM155.94 252.92H159.8V254.48H157.46V257.56H155.94V252.92ZM159.8 257.56H158.18V255.22H159.8V257.56ZM160.66 252.12H155.1V257.56H154.24V260.28H155.06V258.34H160.7V260.28H161.52V257.56H160.66V252.12ZM168.78 268.2C169.1 267.56 169.48 266.72 169.82 266.02L168.92 265.74C168.7 266.44 168.28 267.48 167.96 268.2H165.84C165.64 267.54 165.26 266.56 164.92 265.82L164.12 266.04C164.42 266.72 164.74 267.56 164.94 268.2H161.76V269H172.04V268.2H168.78ZM180.58 264.06C179.62 265.42 178.28 266.92 177.04 268C177.3 268.12 177.68 268.4 177.88 268.54C179.02 267.44 180.42 265.8 181.48 264.38L180.58 264.06ZM179.86 259.78H189.06V262H179.86V259.78ZM179.86 256.8H189.06V258.98H179.86V256.8ZM190.04 262.82V255.96H184.06C184.36 255.36 184.66 254.68 184.96 254.06L183.9 253.84C183.7 254.44 183.38 255.3 183.06 255.96H178.92V262.82H183.96V268.24C183.96 268.48 183.88 268.58 183.54 268.6C183.24 268.62 182.18 268.62 180.84 268.58C180.96 268.84 181.12 269.18 181.18 269.44C182.8 269.44 183.74 269.44 184.26 269.28C184.74 269.12 184.9 268.84 184.9 268.22V262.82H190.04ZM187.02 264.54C188.3 265.82 189.92 267.6 190.74 268.66L191.54 268.1C190.7 267.1 189.06 265.38 187.78 264.14L187.02 264.54ZM191.74 252.6H175.88V258.16C175.88 261.22 175.7 265.48 173.88 268.56C174.12 268.66 174.5 268.92 174.68 269.08C176.56 265.88 176.82 261.32 176.82 258.16V253.5H191.74V252.6ZM199.98 264.28C199.2 264.56 198.38 264.82 197.62 265.06V259.52H199.8V258.62H197.62V253.74H200.04V252.82H194.06V253.74H196.7V258.62H194.26V259.52H196.7V265.38C195.62 265.72 194.64 266.04 193.86 266.28L194.12 267.26C195.8 266.68 198.02 265.92 200.14 265.2L199.98 264.28ZM202.08 257.06H205.72V260.14H202.08V257.06ZM202.08 253.18H205.72V256.2H202.08V253.18ZM210.3 256.2H206.58V253.18H210.3V256.2ZM210.3 260.14H206.58V257.06H210.3V260.14ZM206.62 267.88V264.66H211.56V263.76H206.62V261.02H211.22V252.32H201.18V261.02H205.66V263.76H200.86V264.66H205.66V267.88H199.24V268.78H212.22V267.88H206.62Z" fill="white"/>
<path d="M110.76 319.94C110.46 321.42 110.08 323.08 109.74 324.12L110.52 324.4C110.98 323.12 111.46 320.98 111.86 319.2L111.24 319L111.06 319.06H105.36C105.64 317.92 105.88 316.72 106.06 315.48L105.1 315.32C104.66 318.48 103.88 321.4 102.5 323.34C102.76 323.46 103.2 323.72 103.38 323.86C104.08 322.78 104.64 321.46 105.1 319.94H110.76ZM95.68 324.04H98.22V326.24H95.68V324.04ZM95.68 321.08H98.22V323.26H95.68V321.08ZM101.4 323.26H99.02V321.08H101.4V323.26ZM101.4 326.24H99.02V324.04H101.4V326.24ZM103.28 329.84V328.96H99.06V327.04H102.22V320.28H99.06V318.54H102.8V317.66H99.06V315.32H98.2V317.66H94.18V318.54H98.2V320.28H94.88V327.04H98.2V328.96H93.96V329.84H98.2V333.44H99.06V329.84H103.28ZM107.42 323.9C107.46 323.36 107.46 322.84 107.46 322.36V321.44H106.52V322.34C106.52 325.26 106.22 329.5 101.36 332.78C101.6 332.92 101.92 333.22 102.08 333.44C105.24 331.28 106.56 328.68 107.08 326.26C107.96 329.48 109.42 332.16 111.64 333.44C111.8 333.2 112.08 332.86 112.32 332.66C109.7 331.3 108.12 327.82 107.42 323.9ZM119.62 323.5V330H116.5V323.5H119.62ZM120.48 330.88V322.62H116.42C117 321.04 117.44 319.26 117.78 317.42H120.7V316.52H114.18V317.42H116.84C116.24 320.72 115.28 323.78 113.78 325.78C113.98 326 114.26 326.46 114.36 326.66C114.84 326.04 115.24 325.32 115.62 324.54V332.56H116.5V330.88H120.48ZM122.46 325.96V323.48H125.94V324.44C125.94 324.94 125.94 325.46 125.9 325.96H122.46ZM122.46 320.22H125.94V322.68H122.46V320.22ZM130.56 320.22V322.68H126.86V320.22H130.56ZM130.56 325.96H126.82C126.84 325.46 126.86 324.92 126.86 324.42V323.48H130.56V325.96ZM131.46 326.78V319.4H126.86V317.16H131.88V316.26H121.12V317.16H125.94V319.4H121.56V326.78H125.82C125.66 327.92 125.34 329.02 124.56 330.02C123.7 329.3 123.02 328.44 122.56 327.44L121.74 327.7C122.28 328.88 123.04 329.84 124 330.64C123.14 331.48 121.9 332.2 120.14 332.74C120.34 332.92 120.58 333.28 120.7 333.5C122.52 332.9 123.8 332.1 124.7 331.18C126.48 332.4 128.84 333.14 131.62 333.48C131.74 333.22 131.98 332.86 132.18 332.66C129.36 332.36 127.02 331.68 125.28 330.54C126.16 329.38 126.56 328.1 126.72 326.78H131.46ZM150.42 319.46H148.48V317.72H150.42V319.46ZM150.42 322.02H148.48V320.22H150.42V322.02ZM143.32 320.22H145.14V322.02H143.32V320.22ZM143.32 317.72H145.14V319.46H143.32V317.72ZM147.72 320.22V322.02H145.9V320.22H147.72ZM145.9 319.46V317.72H147.72V319.46H145.9ZM151.26 316.94H148.54V315.36H147.7V316.94H145.9V315.36H145.06V316.94H142.5V322.8H151.26V316.94ZM151.86 324.04H142.02V324.84H151.86V324.04ZM143.96 326.74H149.86V328.82H143.96V326.74ZM150.78 329.56V325.98H143.08V329.56H150.78ZM140.6 323.96H135.24V327.7C135.24 329.3 135.08 331.38 133.98 332.94C134.2 333.04 134.54 333.34 134.68 333.54C135.88 331.84 136.08 329.46 136.08 327.7V324.74H139.74V328.36C138.38 329.12 137.06 329.82 136.14 330.24L136.6 331C137.54 330.46 138.64 329.82 139.74 329.16V332.24C139.74 332.46 139.66 332.54 139.42 332.54C139.22 332.56 138.46 332.56 137.56 332.54C137.68 332.76 137.82 333.1 137.88 333.3C139.06 333.3 139.72 333.3 140.12 333.16C140.48 333 140.6 332.76 140.6 332.26V323.96ZM139.34 327.46C138.84 326.94 137.86 326.22 136.98 325.64L136.48 326.18C137.28 326.72 138.28 327.56 138.76 328.08L139.34 327.46ZM135.94 316.92H139.8V318.48H137.46V321.56H135.94V316.92ZM139.8 321.56H138.18V319.22H139.8V321.56ZM140.66 316.12H135.1V321.56H134.24V324.28H135.06V322.34H140.7V324.28H141.52V321.56H140.66V316.12ZM148.78 332.2C149.1 331.56 149.48 330.72 149.82 330.02L148.92 329.74C148.7 330.44 148.28 331.48 147.96 332.2H145.84C145.64 331.54 145.26 330.56 144.92 329.82L144.12 330.04C144.42 330.72 144.74 331.56 144.94 332.2H141.76V333H152.04V332.2H148.78ZM169.76 318.56C169.32 320.02 168.64 321.24 167.72 322.24C166.74 321.12 166.02 319.86 165.6 318.64L165.66 318.56H169.76ZM171.96 318.56V317.7H166.06C166.38 317.02 166.64 316.28 166.86 315.54L165.96 315.34C165.38 317.44 164.36 319.34 163.04 320.62C163.24 320.78 163.6 321.08 163.74 321.24C164.22 320.76 164.68 320.16 165.1 319.52C165.56 320.62 166.22 321.78 167.14 322.84C166.02 323.88 164.64 324.64 163 325.18C163.16 325.36 163.46 325.74 163.58 325.92C165.18 325.3 166.58 324.5 167.72 323.48C168.72 324.48 169.96 325.38 171.48 325.98C171.6 325.76 171.86 325.4 172.06 325.2C170.56 324.66 169.3 323.84 168.32 322.88C169.38 321.74 170.18 320.32 170.7 318.56H171.96ZM155.72 319.58H158.38V321.34H155.72V319.58ZM161.74 319.58V321.34H159.26V319.58H161.74ZM158.38 325.8H159.26V322.08H162.6V318.84H159.26V317.6H163.24V316.8H159.26V315.34H158.38V316.8H154.22V317.6H158.38V318.84H154.88V322.08H158.14C157.18 323.34 155.42 324.58 153.9 325.16C154.1 325.32 154.38 325.6 154.5 325.82C155.84 325.24 157.36 324.1 158.38 322.92V325.8ZM159.28 322.9C160.32 323.42 161.54 324.2 162.18 324.78L162.66 324.14C162.02 323.56 160.76 322.82 159.72 322.36L159.28 322.9ZM163.46 330H169.58V329.18H163.46V327.28H170.72V326.42H155.44V327.28H162.52V332.02H158.44V328.52H157.5V332.02H154.04V332.9H172.04V332.02H163.46V330ZM188.16 326.5V331.24H178.04V326.5H188.16ZM177.06 333.42H178.04V332.16H188.16V333.34H189.14V325.62H177.06V333.42ZM177.96 321.92V322.82H188.06V321.92H177.96ZM183.44 315.34C181.46 318.42 177.82 321.2 173.96 322.72C174.22 322.92 174.5 323.28 174.64 323.5C177.88 322.16 180.94 319.9 183.08 317.32C185.36 319.88 188.14 321.74 191.54 323.38C191.66 323.1 191.96 322.74 192.22 322.54C188.72 320.98 185.82 319.14 183.62 316.62C183.84 316.34 184.06 316.02 184.26 315.72L183.44 315.34ZM199.68 327.54V320.74C200.2 320 200.64 319.22 201.04 318.42L200.18 318.2C199.24 320.14 197.76 322.08 196.24 323.38C196.46 323.52 196.8 323.84 196.96 323.98C197.58 323.42 198.22 322.74 198.8 321.98V327.54H199.68ZM197.22 332.9C198.44 331.98 199.22 330.44 199.72 329.1L198.94 328.8C198.46 330.08 197.64 331.58 196.48 332.44L197.22 332.9ZM206.62 322.08H203.1V320.78H206.62V322.08ZM206.62 324.08H203.1V322.78H206.62V324.08ZM206.62 326.16H203.1V324.78H206.62V326.16ZM202.24 327.52H203.1V326.92H211.6V326.16H207.48V324.78H210.74V324.08H207.48V322.78H210.66V322.08H207.48V320.78H211.2V320.02H207.28L207.68 319.78C207.4 319.28 206.84 318.54 206.28 318.02L205.62 318.4C206.1 318.86 206.56 319.5 206.86 320.02H203.36C203.64 319.48 203.94 318.96 204.18 318.4L203.32 318.18C202.56 319.96 201.3 321.76 199.98 322.98C200.22 323.1 200.56 323.38 200.72 323.54C201.24 323.04 201.74 322.42 202.24 321.74V327.52ZM206.96 329.54C206.2 328.88 204.72 328.06 203.54 327.5L202.94 328.1C204.16 328.66 205.6 329.56 206.34 330.2L206.96 329.54ZM203.22 332.44C202.28 332.44 202.12 332.36 202.12 331.94V328.78H201.22V331.94C201.22 333.04 201.64 333.28 203.2 333.28H206.82C208.1 333.28 208.42 332.86 208.52 330.92C208.26 330.86 207.9 330.74 207.68 330.56C207.62 332.24 207.48 332.44 206.74 332.44H203.22ZM208.04 328.98C209.22 330.14 210.52 331.78 211.04 332.86L211.86 332.4C211.28 331.32 210 329.74 208.78 328.6L208.04 328.98ZM204.6 317C204.3 316.38 203.74 315.54 203.22 314.94L202.46 315.28C202.84 315.78 203.28 316.44 203.58 317H195.32V323.08C195.32 326 195.18 330.02 193.74 332.9C193.96 333 194.34 333.3 194.5 333.48C196.02 330.44 196.22 326.12 196.22 323.08V317.86H211.96V317H204.6ZM223.52 326.26V322.4H229.58V326.26H223.52ZM217.1 326.26C217.16 325.5 217.18 324.74 217.18 324.04V322.4H222.56V326.26H217.1ZM222.56 317.72V321.48H217.18V317.72H222.56ZM229.58 321.48H223.52V317.72H229.58V321.48ZM230.54 316.8H216.22V324.04C216.22 326.86 216 330.4 213.78 332.9C214 333.02 214.38 333.36 214.52 333.58C216.08 331.8 216.74 329.44 217.02 327.18H222.56V333.3H223.52V327.18H229.58V331.9C229.58 332.3 229.44 332.42 229.06 332.42C228.66 332.44 227.28 332.46 225.72 332.42C225.86 332.68 226.04 333.1 226.06 333.36C228.02 333.38 229.12 333.38 229.72 333.2C230.3 333.02 230.54 332.7 230.54 331.9V316.8Z" fill="white"/>
<line x1="90" y1="225.5" x2="294" y2="225.5" stroke="#00E0B8" stroke-dasharray="2 2"/>
<line x1="90" y1="292.5" x2="294" y2="292.5" stroke="#00E0B8" stroke-dasharray="2 2"/>
<path d="M78 193.768C79.3333 194.538 79.3333 196.462 78 197.232L68.25 202.861C66.9167 203.631 65.25 202.669 65.25 201.129L65.25 189.871C65.25 188.331 66.9167 187.369 68.25 188.139L78 193.768Z" fill="#00E0B8"/>
<path d="M78 257.768C79.3333 258.538 79.3333 260.462 78 261.232L68.25 266.861C66.9167 267.631 65.25 266.669 65.25 265.129L65.25 253.871C65.25 252.331 66.9167 251.369 68.25 252.139L78 257.768Z" fill="#00E0B8"/>
<path d="M78 321.768C79.3333 322.538 79.3333 324.462 78 325.232L68.25 330.861C66.9167 331.631 65.25 330.669 65.25 329.129L65.25 317.871C65.25 316.331 66.9167 315.369 68.25 316.139L78 321.768Z" fill="#00E0B8"/>
<line x1="26" y1="150.5" x2="337" y2="150.5" stroke="#00E0B8"/>
<path d="M75.8704 33.3593C66.5264 22.7478 69.0462 11.3978 69.0462 11.3978L63.4735 9.65116L37.9844 90.9769C35.2153 87.4278 31.1629 84.7041 26.5495 83.2915C16.5015 80.1422 6.49102 83.5603 4.18215 90.9269C1.87328 98.2936 8.13953 106.822 18.1876 109.971C28.2356 113.12 38.1863 109.692 40.4902 102.341L55.5858 54.1775C59.8623 57.6904 63.8888 61.4205 67.6381 65.343C74.2222 72.2885 71.6827 82.5311 67.5358 87.8043C63.3889 93.0774 56.7256 94.9778 59.4055 96.6589C62.0854 98.3399 67.2417 95.8979 73.3276 89.4201C79.4135 82.9424 78.1886 70.1325 78.1886 70.1325C91.1494 58.4042 85.205 43.9677 75.8704 33.3593ZM75.8122 64.7745C75.8122 64.7745 71.108 57.7158 65.485 49.2418C59.862 40.7679 62.7401 34.8283 62.7401 34.8283C62.7401 34.8283 71.2925 40.9773 76.1477 47.5544C81.0029 54.1315 75.8122 64.7745 75.8122 64.7745Z" fill="url(#paint1_linear_317_653)"/>
<defs>
<linearGradient id="paint0_linear_317_653" x1="200.341" y1="77.2114" x2="233.205" y2="146.223" gradientUnits="userSpaceOnUse">
<stop stop-color="#FFF176"/>
<stop offset="1" stop-color="#00E0B8"/>
</linearGradient>
<linearGradient id="paint1_linear_317_653" x1="38.6915" y1="17.0503" x2="90.6829" y2="81.5404" gradientUnits="userSpaceOnUse">
<stop stop-color="#FFF176"/>
<stop offset="1" stop-color="#00E0B8"/>
</linearGradient>
</defs>
</svg>
