<svg width="565" height="36" viewBox="0 0 565 36" fill="none" xmlns="http://www.w3.org/2000/svg">
<mask id="path-1-outside-1_381_679" maskUnits="userSpaceOnUse" x="0.984009" y="-0.488007" width="564" height="36" fill="black">
<rect fill="white" x="0.984009" y="-0.488007" width="564" height="36"/>
<path d="M4.80801 5.90399V9.80799H29.192V5.90399H4.80801ZM7.01601 16.208V20.08H26.632V16.208H7.01601ZM2.98401 27.024V30.96H30.888V27.024H2.98401Z"/>
<path d="M43.848 4.46399V32.848H47.336V7.79199H59.432V32.592H63.08V4.46399H43.848ZM48.168 11.728V14.512H58.696V11.728H48.168ZM45.64 27.632V30.992H61.192V27.632H45.64ZM51.848 8.46399V18.736H54.824V8.46399H51.848ZM51.752 19.952H55.016V23.28H51.752V19.952ZM49 17.296V25.936H57.928V17.296H49ZM39.88 2.92799C38.44 7.50399 35.976 12.112 33.288 15.056C33.896 16.048 34.856 18.288 35.144 19.216C38.472 15.44 41.544 9.51999 43.4 3.98399L39.88 2.92799ZM37.256 11.696V32.912H40.904V8.11199L40.872 8.07999L37.256 11.696Z"/>
<path d="M73.608 4.33599V8.07999H89.608V4.33599H73.608ZM73.64 11.984V15.632H89.768V11.984H73.64ZM73.48 19.568V23.28H89.544V19.568H73.48ZM70.984 4.33599V14.928C70.984 19.824 70.536 26 65.672 30.128C66.504 30.64 68.072 32.08 68.648 32.88C74.056 28.336 74.92 20.496 74.92 14.928V4.33599H70.984ZM87.816 4.33599V27.952C87.816 28.624 87.56 28.848 86.824 28.88C86.056 28.88 83.4 28.912 81.128 28.784C81.768 29.808 82.504 31.664 82.728 32.816C86.056 32.816 88.328 32.752 89.864 32.08C91.336 31.44 91.88 30.288 91.88 28.016V4.33599H87.816Z"/>
<path d="M99.304 5.42399V11.056H102.76V8.39999H123.08V11.056H126.696V5.42399H99.304ZM111.56 10.288C111.4 12.304 111.112 14.768 110.792 16.432H114.024C114.28 14.832 114.536 12.368 114.728 10.288H111.56ZM106.28 22.736H119.656V23.728H106.28V22.736ZM106.28 25.552H119.656V26.576H106.28V25.552ZM106.28 19.984H119.656V20.912H106.28V19.984ZM102.6 18.032V28.496H123.56V18.032H102.6ZM114.312 29.936C118.024 30.928 121.8 32.176 124.072 33.072L126.696 30.736C124.168 29.872 120.04 28.656 116.328 27.76L114.312 29.936ZM107.304 11.344H118.632L118.312 15.184H106.792L107.304 11.344ZM104.136 9.42399L103.144 17.136H121.64L122.376 9.42399H104.136ZM108.808 27.792C106.76 28.88 102.312 30.032 98.728 30.48C99.4 31.184 100.296 32.368 100.776 33.072C104.52 32.528 109 31.312 111.72 29.872L108.808 27.792ZM98.376 11.856V14.608H105.736V14.192H119.912V14.608H127.72V11.856H119.912V12.272H105.736V11.856H98.376ZM110.12 3.50399C110.76 4.65599 111.464 6.22399 111.688 7.24799L115.24 6.19199C114.92 5.19999 114.184 3.66399 113.448 2.54399L110.12 3.50399Z"/>
<path d="M133.544 6.06399H135.24V8.11199H133.544V6.06399ZM130.824 3.66399V10.544H138.056V3.66399H130.824ZM141.928 6.06399H143.656V8.11199H141.928V6.06399ZM139.208 3.66399V10.544H146.472V3.66399H139.208ZM146.536 12.208L146.952 15.792L160.2 14.128L159.784 10.608L146.536 12.208ZM153.672 4.78399C154.888 6.51199 156.2 8.87999 156.68 10.384L159.784 8.68799C159.24 7.18399 157.832 4.94399 156.584 3.27999L153.672 4.78399ZM134.312 18.928H142.92V20.592H134.312V18.928ZM134.312 14.576H142.92V16.272H134.312V14.576ZM131.144 11.76V23.44H146.216V11.76H131.144ZM129.864 25.04V28.4H147.048V25.04H129.864ZM136.936 12.72V22.256H136.712V32.88H140.424V22.256H140.168V12.72H136.936ZM149 3.02399C149.448 20.688 151.048 32.656 156.712 32.912C158.088 32.944 159.72 31.696 160.52 26.096C159.944 25.744 158.376 24.752 157.736 23.952C157.576 26.832 157.224 28.336 156.744 28.304C154.472 28.144 152.776 16.624 152.616 3.02399H149ZM156.456 15.056C154.472 21.296 150.184 27.216 144.552 29.904C145.512 30.576 146.696 31.696 147.336 32.592C152.776 29.488 157.224 23.184 159.368 16.688L156.456 15.056Z"/>
<path d="M181.928 5.80799V29.712H185.384V5.80799H181.928ZM187.4 3.95199V32.848H191.144V3.95199H187.4ZM176.392 4.20799V15.44C176.392 21.072 176.008 26.704 172.584 31.28C173.608 31.664 175.272 32.528 176.104 33.136C179.592 28.112 180.008 21.616 180.008 15.472V4.20799H176.392ZM163.336 12.592V15.504H172.872V12.592H163.336ZM163.336 16.944V19.824H172.872V16.944H163.336ZM161.992 8.14399V11.184H174.024V8.14399H161.992ZM164.872 21.36V24.432H169.896V28.016H164.872V31.088H173.064V21.36H164.872ZM163.24 21.36V32.464H166.376V21.36H163.24ZM165.352 4.11199C166.152 5.48799 167.112 7.43999 167.528 8.65599L170.504 6.95999C169.992 5.77599 169.064 4.01599 168.2 2.67199L165.352 4.11199Z"/>
<path d="M205.544 5.90399V9.19999H223.4V5.90399H205.544ZM212.712 20.752V32.848H216.36V20.752H212.712ZM211.912 20.336C210.6 23.536 207.784 26.864 204.968 28.464C205.768 29.2 206.696 30.544 207.176 31.44C210.12 29.328 213.128 25.456 214.664 21.904L211.912 20.336ZM217.032 20.464L214.792 21.328C216.392 24.88 219.176 28.912 221.576 31.152C222.184 30.288 223.304 29.104 224.104 28.464C221.608 26.672 218.632 23.376 217.032 20.464ZM209.128 13.968H219.656V19.216H209.128V13.968ZM206.184 10.96V22.192H222.856V10.96H206.184ZM209.576 14.928C210.152 16.144 210.664 17.808 210.76 18.896L212.744 18.32C212.584 17.232 212.04 15.632 211.432 14.416L209.576 14.928ZM217.576 14.288C217.32 15.472 216.776 17.232 216.296 18.352L218.088 18.928C218.6 17.872 219.176 16.336 219.752 14.896L217.576 14.288ZM212.616 2.83199V12.176H212.872V21.328H215.944V12.176H216.264V2.83199H212.616ZM201.64 16.08C202.312 18.288 202.952 21.2 203.176 22.96L205.992 22.064C205.8 20.368 205.064 17.52 204.328 15.344L201.64 16.08ZM198.728 24.368C199.048 26.736 199.368 29.808 199.4 31.856L202.12 31.344C202.024 29.296 201.704 26.288 201.32 23.92L198.728 24.368ZM195.176 23.952C194.984 26.704 194.6 29.712 193.832 31.664C194.6 31.888 196.008 32.304 196.648 32.656C197.32 30.608 197.864 27.408 198.088 24.432L195.176 23.952ZM194.888 15.536C194.888 14.896 196.904 13.808 196.904 13.808V13.744C198.92 11.216 201.064 7.50399 202.504 4.04799L199.176 2.70399C198.088 6.09599 196.136 9.67999 195.496 10.576C194.888 11.536 194.344 12.144 193.736 12.336C194.152 13.2 194.696 14.864 194.888 15.536ZM194.888 15.536C195.528 15.248 196.552 15.024 201.544 14.512C201.576 13.776 201.704 12.464 201.896 11.568L196.296 11.952L194.76 12.944L194.888 15.536ZM195.112 22.96C195.112 22.32 197.224 21.264 197.224 21.264V21.136C200.264 17.968 203.432 13.488 205.672 9.19999L202.568 7.31199C200.68 11.728 197.48 16.368 196.424 17.52C195.432 18.736 194.76 19.472 193.96 19.664C194.376 20.592 194.952 22.288 195.112 22.96ZM195.112 22.96C195.912 22.576 197.128 22.256 204.552 21.232C204.52 20.496 204.616 19.184 204.776 18.256L196.52 19.248L194.952 20.304L195.112 22.96ZM201.928 23.76C202.504 25.776 203.112 28.4 203.304 30.128L205.832 29.36C205.608 27.664 204.968 25.072 204.36 23.056L201.928 23.76Z"/>
<path d="M238.28 24.88C242.248 23.696 244.616 20.752 244.616 17.136C244.616 14.448 243.4 12.72 241.16 12.72C239.432 12.72 237.992 13.808 237.992 15.6C237.992 17.424 239.464 18.48 241.064 18.48C241.768 18.48 242.44 18.256 242.952 17.776L241.192 14.896L241.416 18.032C241.416 19.888 239.944 21.456 237.256 22.288L238.28 24.88Z"/>
<path d="M275.624 14.16V32.88H279.496V14.16H275.624ZM267.208 18.096V21.584H287.816V18.096H267.208ZM272.968 7.59999H282.376V11.888H272.968V7.59999ZM269.32 4.23999V15.28H286.216V4.23999H269.32ZM265.128 2.89599C263.432 7.47199 260.552 12.016 257.576 14.896C258.216 15.824 259.272 17.936 259.592 18.832C263.144 15.216 266.568 9.48799 268.712 4.04799L265.128 2.89599ZM261.832 11.76V32.784H265.512V8.14399L265.48 8.11199L261.832 11.76ZM270.824 22.576C269.768 24.976 268.04 27.6 266.408 29.36C267.272 29.84 268.712 30.864 269.384 31.44C271.016 29.488 273 26.352 274.28 23.6L270.824 22.576ZM280.552 24.112C282.28 26.288 284.232 29.264 285.096 31.184L288.168 29.328C287.208 27.44 285.224 24.656 283.432 22.544L280.552 24.112Z"/>
<path d="M302.312 3.85599V6.86399H307.656V3.85599H302.312ZM306.792 3.85599V4.36799C306.024 8.71999 303.624 12.944 300.616 14.896C301.352 15.504 302.376 16.688 302.888 17.456C306.536 14.832 309.128 10.288 310.248 4.43199L308.008 3.72799L307.368 3.85599H306.792ZM301.064 10.064C302.248 10.768 303.752 11.824 304.456 12.528L306.504 9.83999C305.736 9.16799 304.232 8.23999 303.016 7.63199L301.064 10.064ZM304.648 25.072C305.448 26.48 306.12 28.336 306.28 29.488L309.672 28.528C309.512 27.344 308.712 25.552 307.88 24.208L304.648 25.072ZM313.544 2.95999L310.376 3.53599C311.688 9.32799 313.96 14.352 317.928 17.072C318.504 16.208 319.624 14.928 320.488 14.288C316.904 12.144 314.632 7.69599 313.544 2.95999ZM315.816 3.34399C314.984 4.20799 313.512 5.55199 312.584 6.25599L314.408 8.17599C315.432 7.50399 316.84 6.51199 317.992 5.45599L315.816 3.34399ZM317.832 7.21599C316.936 8.04799 315.336 9.29599 314.312 9.93599L316.04 11.824C317.128 11.216 318.664 10.32 319.976 9.32799L317.832 7.21599ZM306.568 11.632V14.672H314.376V11.632H306.568ZM301.352 29.136V32.176H319.624V29.136H301.352ZM307.112 18.992H313.544V21.36H307.112V18.992ZM303.88 16.112V24.272H316.968V16.112H303.88ZM312.936 24.08C312.584 25.616 311.752 27.792 311.048 29.232L313.96 30.032C314.792 28.72 315.752 26.768 316.712 24.912L312.936 24.08ZM291.272 12.592V15.504H300.168V12.592H291.272ZM291.272 16.944V19.824H300.168V16.944H291.272ZM289.992 8.14399V11.184H301.16V8.14399H289.992ZM292.68 21.36V24.432H297.352V28.016H292.68V31.088H300.296V21.36H292.68ZM291.176 21.36V32.464H294.088V21.36H291.176ZM292.936 4.11199C293.8 5.48799 294.856 7.43999 295.304 8.65599L298.056 6.76799C297.512 5.61599 296.456 3.85599 295.528 2.51199L292.936 4.11199Z"/>
<path d="M334.728 2.86399V29.264H339.016V2.86399H334.728ZM345.8 18.896V32.848H350.088V18.896H345.8ZM325.384 5.55199V17.232H348.808V5.51999H344.552V13.488H329.448V5.55199H325.384ZM323.688 18.928V31.12H347.784V27.28H328.008V18.928H323.688Z"/>
<path d="M370.152 12.432V15.92H380.744V12.432H370.152ZM357.544 18.224V21.616H362.12V32.784H365.608V18.224H357.544ZM355.848 3.08799V15.76C355.848 20.496 355.656 26.736 353.768 30.704C354.536 31.216 355.816 32.336 356.392 33.04C358.952 28.528 359.24 21.52 359.24 15.792V3.08799H355.848ZM379.592 12.432V13.136C378.504 20.848 374.888 27.088 369.672 29.808C370.472 30.544 371.56 32.016 372.104 32.976C378.024 29.328 381.864 22.832 383.272 13.04L380.904 12.336L380.264 12.432H379.592ZM374.12 14.736L371.016 15.472C372.872 23.184 376.008 29.456 381.64 32.752C382.248 31.728 383.432 30.288 384.264 29.552C378.952 26.928 375.688 21.264 374.12 14.736ZM368.232 5.55199V15.984C368.232 20.464 367.976 26.96 365.704 31.056C366.6 31.504 368.008 32.528 368.68 33.136C371.432 28.528 371.816 21.328 371.816 16.016V5.55199H368.232ZM362.376 3.75999V12.24H357.864V15.6H365.832V3.75999H362.376ZM368.232 4.65599V8.11199H382.76V4.65599H368.232Z"/>
<path d="M395.848 4.46399V32.848H399.336V7.79199H411.432V32.592H415.08V4.46399H395.848ZM400.168 11.728V14.512H410.696V11.728H400.168ZM397.64 27.632V30.992H413.192V27.632H397.64ZM403.848 8.46399V18.736H406.824V8.46399H403.848ZM403.752 19.952H407.016V23.28H403.752V19.952ZM401 17.296V25.936H409.928V17.296H401ZM391.88 2.92799C390.44 7.50399 387.976 12.112 385.288 15.056C385.896 16.048 386.856 18.288 387.144 19.216C390.472 15.44 393.544 9.51999 395.4 3.98399L391.88 2.92799ZM389.256 11.696V32.912H392.904V8.11199L392.872 8.07999L389.256 11.696Z"/>
<path d="M430.472 2.86399C430.312 8.33599 430.92 22.704 417.896 29.712C419.144 30.576 420.392 31.792 421.096 32.816C434.472 24.944 434.664 9.48799 434.856 2.86399H430.472ZM434.504 6.76799L430.792 7.18399C431.272 10.384 432.328 26.384 445.448 32.624C446.024 31.536 447.112 30.224 448.264 29.328C435.784 23.76 434.76 9.35999 434.504 6.76799Z"/>
<path d="M451.912 30H458.664C465.64 30 470.088 26.032 470.088 18.064C470.088 10.064 465.64 6.31999 458.408 6.31999H451.912V30ZM456.648 26.192V10.096H458.088C462.536 10.096 465.256 12.304 465.256 18.064C465.256 23.824 462.536 26.192 458.088 26.192H456.648Z"/>
<path d="M474.756 30H489.636V26.032H479.492V19.728H487.78V15.728H479.492V10.256H489.284V6.31999H474.756V30Z"/>
<path d="M494.443 30H498.667V20.112C498.667 17.872 498.315 14.576 498.059 12.336H498.187L500.107 17.904L503.755 27.888H506.475L510.123 17.904L512.075 12.336H512.235C511.979 14.576 511.595 17.872 511.595 20.112V30H515.915V6.31999H510.667L506.731 17.424C506.251 18.896 505.835 20.432 505.291 21.968H505.163C504.651 20.432 504.235 18.896 503.691 17.424L499.659 6.31999H494.443V30Z"/>
<path d="M531.133 30.448C537.405 30.448 541.693 25.776 541.693 18.064C541.693 10.384 537.405 5.90399 531.133 5.90399C524.829 5.90399 520.541 10.352 520.541 18.064C520.541 25.776 524.829 30.448 531.133 30.448ZM531.133 26.352C527.581 26.352 525.372 23.12 525.372 18.064C525.372 13.008 527.581 9.96799 531.133 9.96799C534.653 9.96799 536.893 13.008 536.893 18.064C536.893 23.12 534.653 26.352 531.133 26.352Z"/>
<path d="M557.773 21.776H561.07L561.901 10.832L562.062 6.06399H556.781L556.942 10.832L557.773 21.776ZM559.438 30.32C561.038 30.32 562.253 29.136 562.253 27.472C562.253 25.808 561.038 24.656 559.438 24.656C557.806 24.656 556.589 25.808 556.589 27.472C556.589 29.136 557.774 30.32 559.438 30.32Z"/>
</mask>
<path d="M4.80801 5.90399V9.80799H29.192V5.90399H4.80801ZM7.01601 16.208V20.08H26.632V16.208H7.01601ZM2.98401 27.024V30.96H30.888V27.024H2.98401Z" stroke="white" stroke-width="4" stroke-linejoin="round" mask="url(#path-1-outside-1_381_679)"/>
<path d="M43.848 4.46399V32.848H47.336V7.79199H59.432V32.592H63.08V4.46399H43.848ZM48.168 11.728V14.512H58.696V11.728H48.168ZM45.64 27.632V30.992H61.192V27.632H45.64ZM51.848 8.46399V18.736H54.824V8.46399H51.848ZM51.752 19.952H55.016V23.28H51.752V19.952ZM49 17.296V25.936H57.928V17.296H49ZM39.88 2.92799C38.44 7.50399 35.976 12.112 33.288 15.056C33.896 16.048 34.856 18.288 35.144 19.216C38.472 15.44 41.544 9.51999 43.4 3.98399L39.88 2.92799ZM37.256 11.696V32.912H40.904V8.11199L40.872 8.07999L37.256 11.696Z" stroke="white" stroke-width="4" stroke-linejoin="round" mask="url(#path-1-outside-1_381_679)"/>
<path d="M73.608 4.33599V8.07999H89.608V4.33599H73.608ZM73.64 11.984V15.632H89.768V11.984H73.64ZM73.48 19.568V23.28H89.544V19.568H73.48ZM70.984 4.33599V14.928C70.984 19.824 70.536 26 65.672 30.128C66.504 30.64 68.072 32.08 68.648 32.88C74.056 28.336 74.92 20.496 74.92 14.928V4.33599H70.984ZM87.816 4.33599V27.952C87.816 28.624 87.56 28.848 86.824 28.88C86.056 28.88 83.4 28.912 81.128 28.784C81.768 29.808 82.504 31.664 82.728 32.816C86.056 32.816 88.328 32.752 89.864 32.08C91.336 31.44 91.88 30.288 91.88 28.016V4.33599H87.816Z" stroke="white" stroke-width="4" stroke-linejoin="round" mask="url(#path-1-outside-1_381_679)"/>
<path d="M99.304 5.42399V11.056H102.76V8.39999H123.08V11.056H126.696V5.42399H99.304ZM111.56 10.288C111.4 12.304 111.112 14.768 110.792 16.432H114.024C114.28 14.832 114.536 12.368 114.728 10.288H111.56ZM106.28 22.736H119.656V23.728H106.28V22.736ZM106.28 25.552H119.656V26.576H106.28V25.552ZM106.28 19.984H119.656V20.912H106.28V19.984ZM102.6 18.032V28.496H123.56V18.032H102.6ZM114.312 29.936C118.024 30.928 121.8 32.176 124.072 33.072L126.696 30.736C124.168 29.872 120.04 28.656 116.328 27.76L114.312 29.936ZM107.304 11.344H118.632L118.312 15.184H106.792L107.304 11.344ZM104.136 9.42399L103.144 17.136H121.64L122.376 9.42399H104.136ZM108.808 27.792C106.76 28.88 102.312 30.032 98.728 30.48C99.4 31.184 100.296 32.368 100.776 33.072C104.52 32.528 109 31.312 111.72 29.872L108.808 27.792ZM98.376 11.856V14.608H105.736V14.192H119.912V14.608H127.72V11.856H119.912V12.272H105.736V11.856H98.376ZM110.12 3.50399C110.76 4.65599 111.464 6.22399 111.688 7.24799L115.24 6.19199C114.92 5.19999 114.184 3.66399 113.448 2.54399L110.12 3.50399Z" stroke="white" stroke-width="4" stroke-linejoin="round" mask="url(#path-1-outside-1_381_679)"/>
<path d="M133.544 6.06399H135.24V8.11199H133.544V6.06399ZM130.824 3.66399V10.544H138.056V3.66399H130.824ZM141.928 6.06399H143.656V8.11199H141.928V6.06399ZM139.208 3.66399V10.544H146.472V3.66399H139.208ZM146.536 12.208L146.952 15.792L160.2 14.128L159.784 10.608L146.536 12.208ZM153.672 4.78399C154.888 6.51199 156.2 8.87999 156.68 10.384L159.784 8.68799C159.24 7.18399 157.832 4.94399 156.584 3.27999L153.672 4.78399ZM134.312 18.928H142.92V20.592H134.312V18.928ZM134.312 14.576H142.92V16.272H134.312V14.576ZM131.144 11.76V23.44H146.216V11.76H131.144ZM129.864 25.04V28.4H147.048V25.04H129.864ZM136.936 12.72V22.256H136.712V32.88H140.424V22.256H140.168V12.72H136.936ZM149 3.02399C149.448 20.688 151.048 32.656 156.712 32.912C158.088 32.944 159.72 31.696 160.52 26.096C159.944 25.744 158.376 24.752 157.736 23.952C157.576 26.832 157.224 28.336 156.744 28.304C154.472 28.144 152.776 16.624 152.616 3.02399H149ZM156.456 15.056C154.472 21.296 150.184 27.216 144.552 29.904C145.512 30.576 146.696 31.696 147.336 32.592C152.776 29.488 157.224 23.184 159.368 16.688L156.456 15.056Z" stroke="white" stroke-width="4" stroke-linejoin="round" mask="url(#path-1-outside-1_381_679)"/>
<path d="M181.928 5.80799V29.712H185.384V5.80799H181.928ZM187.4 3.95199V32.848H191.144V3.95199H187.4ZM176.392 4.20799V15.44C176.392 21.072 176.008 26.704 172.584 31.28C173.608 31.664 175.272 32.528 176.104 33.136C179.592 28.112 180.008 21.616 180.008 15.472V4.20799H176.392ZM163.336 12.592V15.504H172.872V12.592H163.336ZM163.336 16.944V19.824H172.872V16.944H163.336ZM161.992 8.14399V11.184H174.024V8.14399H161.992ZM164.872 21.36V24.432H169.896V28.016H164.872V31.088H173.064V21.36H164.872ZM163.24 21.36V32.464H166.376V21.36H163.24ZM165.352 4.11199C166.152 5.48799 167.112 7.43999 167.528 8.65599L170.504 6.95999C169.992 5.77599 169.064 4.01599 168.2 2.67199L165.352 4.11199Z" stroke="white" stroke-width="4" stroke-linejoin="round" mask="url(#path-1-outside-1_381_679)"/>
<path d="M205.544 5.90399V9.19999H223.4V5.90399H205.544ZM212.712 20.752V32.848H216.36V20.752H212.712ZM211.912 20.336C210.6 23.536 207.784 26.864 204.968 28.464C205.768 29.2 206.696 30.544 207.176 31.44C210.12 29.328 213.128 25.456 214.664 21.904L211.912 20.336ZM217.032 20.464L214.792 21.328C216.392 24.88 219.176 28.912 221.576 31.152C222.184 30.288 223.304 29.104 224.104 28.464C221.608 26.672 218.632 23.376 217.032 20.464ZM209.128 13.968H219.656V19.216H209.128V13.968ZM206.184 10.96V22.192H222.856V10.96H206.184ZM209.576 14.928C210.152 16.144 210.664 17.808 210.76 18.896L212.744 18.32C212.584 17.232 212.04 15.632 211.432 14.416L209.576 14.928ZM217.576 14.288C217.32 15.472 216.776 17.232 216.296 18.352L218.088 18.928C218.6 17.872 219.176 16.336 219.752 14.896L217.576 14.288ZM212.616 2.83199V12.176H212.872V21.328H215.944V12.176H216.264V2.83199H212.616ZM201.64 16.08C202.312 18.288 202.952 21.2 203.176 22.96L205.992 22.064C205.8 20.368 205.064 17.52 204.328 15.344L201.64 16.08ZM198.728 24.368C199.048 26.736 199.368 29.808 199.4 31.856L202.12 31.344C202.024 29.296 201.704 26.288 201.32 23.92L198.728 24.368ZM195.176 23.952C194.984 26.704 194.6 29.712 193.832 31.664C194.6 31.888 196.008 32.304 196.648 32.656C197.32 30.608 197.864 27.408 198.088 24.432L195.176 23.952ZM194.888 15.536C194.888 14.896 196.904 13.808 196.904 13.808V13.744C198.92 11.216 201.064 7.50399 202.504 4.04799L199.176 2.70399C198.088 6.09599 196.136 9.67999 195.496 10.576C194.888 11.536 194.344 12.144 193.736 12.336C194.152 13.2 194.696 14.864 194.888 15.536ZM194.888 15.536C195.528 15.248 196.552 15.024 201.544 14.512C201.576 13.776 201.704 12.464 201.896 11.568L196.296 11.952L194.76 12.944L194.888 15.536ZM195.112 22.96C195.112 22.32 197.224 21.264 197.224 21.264V21.136C200.264 17.968 203.432 13.488 205.672 9.19999L202.568 7.31199C200.68 11.728 197.48 16.368 196.424 17.52C195.432 18.736 194.76 19.472 193.96 19.664C194.376 20.592 194.952 22.288 195.112 22.96ZM195.112 22.96C195.912 22.576 197.128 22.256 204.552 21.232C204.52 20.496 204.616 19.184 204.776 18.256L196.52 19.248L194.952 20.304L195.112 22.96ZM201.928 23.76C202.504 25.776 203.112 28.4 203.304 30.128L205.832 29.36C205.608 27.664 204.968 25.072 204.36 23.056L201.928 23.76Z" stroke="white" stroke-width="4" stroke-linejoin="round" mask="url(#path-1-outside-1_381_679)"/>
<path d="M238.28 24.88C242.248 23.696 244.616 20.752 244.616 17.136C244.616 14.448 243.4 12.72 241.16 12.72C239.432 12.72 237.992 13.808 237.992 15.6C237.992 17.424 239.464 18.48 241.064 18.48C241.768 18.48 242.44 18.256 242.952 17.776L241.192 14.896L241.416 18.032C241.416 19.888 239.944 21.456 237.256 22.288L238.28 24.88Z" stroke="white" stroke-width="4" stroke-linejoin="round" mask="url(#path-1-outside-1_381_679)"/>
<path d="M275.624 14.16V32.88H279.496V14.16H275.624ZM267.208 18.096V21.584H287.816V18.096H267.208ZM272.968 7.59999H282.376V11.888H272.968V7.59999ZM269.32 4.23999V15.28H286.216V4.23999H269.32ZM265.128 2.89599C263.432 7.47199 260.552 12.016 257.576 14.896C258.216 15.824 259.272 17.936 259.592 18.832C263.144 15.216 266.568 9.48799 268.712 4.04799L265.128 2.89599ZM261.832 11.76V32.784H265.512V8.14399L265.48 8.11199L261.832 11.76ZM270.824 22.576C269.768 24.976 268.04 27.6 266.408 29.36C267.272 29.84 268.712 30.864 269.384 31.44C271.016 29.488 273 26.352 274.28 23.6L270.824 22.576ZM280.552 24.112C282.28 26.288 284.232 29.264 285.096 31.184L288.168 29.328C287.208 27.44 285.224 24.656 283.432 22.544L280.552 24.112Z" stroke="white" stroke-width="4" stroke-linejoin="round" mask="url(#path-1-outside-1_381_679)"/>
<path d="M302.312 3.85599V6.86399H307.656V3.85599H302.312ZM306.792 3.85599V4.36799C306.024 8.71999 303.624 12.944 300.616 14.896C301.352 15.504 302.376 16.688 302.888 17.456C306.536 14.832 309.128 10.288 310.248 4.43199L308.008 3.72799L307.368 3.85599H306.792ZM301.064 10.064C302.248 10.768 303.752 11.824 304.456 12.528L306.504 9.83999C305.736 9.16799 304.232 8.23999 303.016 7.63199L301.064 10.064ZM304.648 25.072C305.448 26.48 306.12 28.336 306.28 29.488L309.672 28.528C309.512 27.344 308.712 25.552 307.88 24.208L304.648 25.072ZM313.544 2.95999L310.376 3.53599C311.688 9.32799 313.96 14.352 317.928 17.072C318.504 16.208 319.624 14.928 320.488 14.288C316.904 12.144 314.632 7.69599 313.544 2.95999ZM315.816 3.34399C314.984 4.20799 313.512 5.55199 312.584 6.25599L314.408 8.17599C315.432 7.50399 316.84 6.51199 317.992 5.45599L315.816 3.34399ZM317.832 7.21599C316.936 8.04799 315.336 9.29599 314.312 9.93599L316.04 11.824C317.128 11.216 318.664 10.32 319.976 9.32799L317.832 7.21599ZM306.568 11.632V14.672H314.376V11.632H306.568ZM301.352 29.136V32.176H319.624V29.136H301.352ZM307.112 18.992H313.544V21.36H307.112V18.992ZM303.88 16.112V24.272H316.968V16.112H303.88ZM312.936 24.08C312.584 25.616 311.752 27.792 311.048 29.232L313.96 30.032C314.792 28.72 315.752 26.768 316.712 24.912L312.936 24.08ZM291.272 12.592V15.504H300.168V12.592H291.272ZM291.272 16.944V19.824H300.168V16.944H291.272ZM289.992 8.14399V11.184H301.16V8.14399H289.992ZM292.68 21.36V24.432H297.352V28.016H292.68V31.088H300.296V21.36H292.68ZM291.176 21.36V32.464H294.088V21.36H291.176ZM292.936 4.11199C293.8 5.48799 294.856 7.43999 295.304 8.65599L298.056 6.76799C297.512 5.61599 296.456 3.85599 295.528 2.51199L292.936 4.11199Z" stroke="white" stroke-width="4" stroke-linejoin="round" mask="url(#path-1-outside-1_381_679)"/>
<path d="M334.728 2.86399V29.264H339.016V2.86399H334.728ZM345.8 18.896V32.848H350.088V18.896H345.8ZM325.384 5.55199V17.232H348.808V5.51999H344.552V13.488H329.448V5.55199H325.384ZM323.688 18.928V31.12H347.784V27.28H328.008V18.928H323.688Z" stroke="white" stroke-width="4" stroke-linejoin="round" mask="url(#path-1-outside-1_381_679)"/>
<path d="M370.152 12.432V15.92H380.744V12.432H370.152ZM357.544 18.224V21.616H362.12V32.784H365.608V18.224H357.544ZM355.848 3.08799V15.76C355.848 20.496 355.656 26.736 353.768 30.704C354.536 31.216 355.816 32.336 356.392 33.04C358.952 28.528 359.24 21.52 359.24 15.792V3.08799H355.848ZM379.592 12.432V13.136C378.504 20.848 374.888 27.088 369.672 29.808C370.472 30.544 371.56 32.016 372.104 32.976C378.024 29.328 381.864 22.832 383.272 13.04L380.904 12.336L380.264 12.432H379.592ZM374.12 14.736L371.016 15.472C372.872 23.184 376.008 29.456 381.64 32.752C382.248 31.728 383.432 30.288 384.264 29.552C378.952 26.928 375.688 21.264 374.12 14.736ZM368.232 5.55199V15.984C368.232 20.464 367.976 26.96 365.704 31.056C366.6 31.504 368.008 32.528 368.68 33.136C371.432 28.528 371.816 21.328 371.816 16.016V5.55199H368.232ZM362.376 3.75999V12.24H357.864V15.6H365.832V3.75999H362.376ZM368.232 4.65599V8.11199H382.76V4.65599H368.232Z" stroke="white" stroke-width="4" stroke-linejoin="round" mask="url(#path-1-outside-1_381_679)"/>
<path d="M395.848 4.46399V32.848H399.336V7.79199H411.432V32.592H415.08V4.46399H395.848ZM400.168 11.728V14.512H410.696V11.728H400.168ZM397.64 27.632V30.992H413.192V27.632H397.64ZM403.848 8.46399V18.736H406.824V8.46399H403.848ZM403.752 19.952H407.016V23.28H403.752V19.952ZM401 17.296V25.936H409.928V17.296H401ZM391.88 2.92799C390.44 7.50399 387.976 12.112 385.288 15.056C385.896 16.048 386.856 18.288 387.144 19.216C390.472 15.44 393.544 9.51999 395.4 3.98399L391.88 2.92799ZM389.256 11.696V32.912H392.904V8.11199L392.872 8.07999L389.256 11.696Z" stroke="white" stroke-width="4" stroke-linejoin="round" mask="url(#path-1-outside-1_381_679)"/>
<path d="M430.472 2.86399C430.312 8.33599 430.92 22.704 417.896 29.712C419.144 30.576 420.392 31.792 421.096 32.816C434.472 24.944 434.664 9.48799 434.856 2.86399H430.472ZM434.504 6.76799L430.792 7.18399C431.272 10.384 432.328 26.384 445.448 32.624C446.024 31.536 447.112 30.224 448.264 29.328C435.784 23.76 434.76 9.35999 434.504 6.76799Z" stroke="white" stroke-width="4" stroke-linejoin="round" mask="url(#path-1-outside-1_381_679)"/>
<path d="M451.912 30H458.664C465.64 30 470.088 26.032 470.088 18.064C470.088 10.064 465.64 6.31999 458.408 6.31999H451.912V30ZM456.648 26.192V10.096H458.088C462.536 10.096 465.256 12.304 465.256 18.064C465.256 23.824 462.536 26.192 458.088 26.192H456.648Z" stroke="white" stroke-width="4" stroke-linejoin="round" mask="url(#path-1-outside-1_381_679)"/>
<path d="M474.756 30H489.636V26.032H479.492V19.728H487.78V15.728H479.492V10.256H489.284V6.31999H474.756V30Z" stroke="white" stroke-width="4" stroke-linejoin="round" mask="url(#path-1-outside-1_381_679)"/>
<path d="M494.443 30H498.667V20.112C498.667 17.872 498.315 14.576 498.059 12.336H498.187L500.107 17.904L503.755 27.888H506.475L510.123 17.904L512.075 12.336H512.235C511.979 14.576 511.595 17.872 511.595 20.112V30H515.915V6.31999H510.667L506.731 17.424C506.251 18.896 505.835 20.432 505.291 21.968H505.163C504.651 20.432 504.235 18.896 503.691 17.424L499.659 6.31999H494.443V30Z" stroke="white" stroke-width="4" stroke-linejoin="round" mask="url(#path-1-outside-1_381_679)"/>
<path d="M531.133 30.448C537.405 30.448 541.693 25.776 541.693 18.064C541.693 10.384 537.405 5.90399 531.133 5.90399C524.829 5.90399 520.541 10.352 520.541 18.064C520.541 25.776 524.829 30.448 531.133 30.448ZM531.133 26.352C527.581 26.352 525.372 23.12 525.372 18.064C525.372 13.008 527.581 9.96799 531.133 9.96799C534.653 9.96799 536.893 13.008 536.893 18.064C536.893 23.12 534.653 26.352 531.133 26.352Z" stroke="white" stroke-width="4" stroke-linejoin="round" mask="url(#path-1-outside-1_381_679)"/>
<path d="M557.773 21.776H561.07L561.901 10.832L562.062 6.06399H556.781L556.942 10.832L557.773 21.776ZM559.438 30.32C561.038 30.32 562.253 29.136 562.253 27.472C562.253 25.808 561.038 24.656 559.438 24.656C557.806 24.656 556.589 25.808 556.589 27.472C556.589 29.136 557.774 30.32 559.438 30.32Z" stroke="white" stroke-width="4" stroke-linejoin="round" mask="url(#path-1-outside-1_381_679)"/>
</svg>
