<svg width="337" height="376" viewBox="0 0 337 376" fill="none" xmlns="http://www.w3.org/2000/svg">
<rect x="26.5" y="53.5" width="310" height="322" rx="19.5" stroke="#00E0B8"/>
<path fill-rule="evenodd" clip-rule="evenodd" d="M81.696 116.168H82.944L82.224 116.384C82.2945 116.564 82.3667 116.742 82.4407 116.918C82.4637 116.973 82.4868 117.027 82.5101 117.081C83.2242 118.742 84.0987 120.217 85.1448 121.517C85.3033 121.714 85.4657 121.907 85.632 122.096C85.4194 122.233 85.2024 122.365 84.9815 122.491C83.6783 123.239 82.2347 123.817 80.6907 124.244C80.4286 124.316 80.1637 124.384 79.896 124.448C80.0472 124.627 80.2122 124.853 80.3779 125.102C80.7911 125.724 81.2094 126.492 81.432 127.04C83.76 126.344 85.872 125.384 87.744 124.088C89.4 125.432 91.392 126.416 93.72 127.112C94.0087 126.586 94.5014 125.855 94.9775 125.269C95.1744 125.026 95.3685 124.809 95.5441 124.64C95.2636 124.571 94.9881 124.497 94.7175 124.418C93.2012 123.978 91.8409 123.391 90.6365 122.639C90.4193 122.504 90.2071 122.363 90 122.216C90.1783 122.038 90.3528 121.855 90.5235 121.667C92.2828 119.732 93.6327 117.289 94.464 114.248L92.64 113.48L92.136 113.6H89.256V110.72H94.632V108.08H89.256V104.648H86.424V108.08H81.264V110.72H86.424V113.6H81.696V116.168ZM85.674 112.85V111.47H81.702V111.872C81.702 112.286 81.3663 112.622 80.952 112.622H79.35V114.463L80.6261 114.144C80.732 114.118 80.8411 114.115 80.946 114.135V113.6C80.946 113.186 81.2818 112.85 81.696 112.85H85.674ZM80.952 109.232H78.6V104.672H75.768V109.232H73.008V111.872H75.768V116.12C74.9218 116.332 74.1403 116.517 73.433 116.668C73.1775 116.722 72.9317 116.771 72.696 116.816L73.44 119.528L75.768 118.952V123.896C75.768 124.256 75.672 124.376 75.312 124.376C75.0921 124.376 74.5381 124.376 73.9025 124.368C73.6365 124.364 73.3562 124.359 73.08 124.352C73.1815 124.577 73.2851 124.836 73.3837 125.109C73.6116 125.74 73.8123 126.441 73.896 126.944C75.576 126.944 76.728 126.872 77.52 126.44C78.336 125.984 78.6 125.312 78.6 123.92V118.184C79.464 117.968 80.328 117.728 81.168 117.488L80.808 114.872L78.6 115.424V111.872H80.952V109.232ZM81.9118 117.586C81.8738 117.876 81.6674 118.125 81.3741 118.209C80.7136 118.398 80.0345 118.588 79.35 118.766V123.92C79.35 123.925 79.35 123.929 79.35 123.934C79.4488 123.829 79.5773 123.753 79.722 123.719C81.4638 123.303 83.0714 122.706 84.4948 121.905C83.4757 120.623 82.6185 119.185 81.9118 117.586ZM79.2949 124.896C79.2507 125.231 79.176 125.54 79.0573 125.822C78.8153 126.397 78.4179 126.797 77.8859 127.095L77.8792 127.098C77.3666 127.378 76.7758 127.521 76.1308 127.599C75.4861 127.676 74.7398 127.694 73.896 127.694C73.5294 127.694 73.2165 127.429 73.1563 127.067C73.0487 126.422 72.7108 125.357 72.3965 124.661C72.2903 124.426 72.3125 124.152 72.4552 123.937C72.598 123.722 72.8413 123.596 73.0993 123.602C73.8214 123.621 74.574 123.625 75.018 123.626V119.91L73.6202 120.256C73.2252 120.354 72.8244 120.119 72.7168 119.726L71.9728 117.014C71.9174 116.812 71.9489 116.597 72.0598 116.419C72.1707 116.241 72.3508 116.118 72.5566 116.079C73.2775 115.943 74.1013 115.757 75.018 115.533V112.622H73.008C72.5938 112.622 72.258 112.286 72.258 111.872V109.232C72.258 108.818 72.5938 108.482 73.008 108.482H75.018V104.672C75.018 104.258 75.3538 103.922 75.768 103.922H78.6C79.0143 103.922 79.35 104.258 79.35 104.672V108.482H80.514V108.08C80.514 107.666 80.8498 107.33 81.264 107.33H85.674V104.648C85.674 104.234 86.0098 103.898 86.424 103.898H89.256C89.6703 103.898 90.006 104.234 90.006 104.648V107.33H94.632C95.0463 107.33 95.382 107.666 95.382 108.08V110.72C95.382 111.134 95.0463 111.47 94.632 111.47H90.006V112.85H92.048L92.4663 112.75C92.6214 112.714 92.7842 112.727 92.9311 112.789L94.7551 113.557C95.1018 113.703 95.2867 114.083 95.1875 114.446C94.34 117.546 92.9645 120.067 91.1601 122.081C92.472 122.879 93.9897 123.483 95.724 123.912C95.9893 123.978 96.198 124.182 96.2686 124.446C96.3392 124.71 96.2606 124.992 96.0634 125.181C95.5346 125.689 94.7617 126.772 94.3777 127.473C94.2076 127.783 93.8441 127.932 93.5052 127.831C91.3021 127.172 89.3651 126.255 87.7111 125.014C85.8813 126.206 83.8507 127.1 81.6469 127.759C81.2765 127.869 80.8827 127.68 80.7372 127.322C80.4503 126.616 79.7927 125.487 79.3235 124.932C79.3136 124.921 79.304 124.909 79.2949 124.896ZM90.84 116.168H85.008C85.1157 116.422 85.2308 116.672 85.353 116.918C85.8824 117.984 86.5467 118.974 87.3298 119.866C87.4364 119.988 87.5452 120.107 87.6562 120.225C87.7169 120.289 87.7781 120.353 87.84 120.416C87.9084 120.35 87.9762 120.284 88.0432 120.217C88.153 120.107 88.261 119.996 88.3672 119.882C89.1946 119 89.9097 118.012 90.4796 116.918C90.6072 116.673 90.7274 116.423 90.84 116.168ZM89.6267 116.918H86.1965C86.6577 117.783 87.2146 118.592 87.8571 119.33C88.5364 118.599 89.1326 117.795 89.6267 116.918ZM105.161 107.474C105.212 107.204 105.111 106.917 104.879 106.739C103.795 105.914 101.686 104.828 100.141 104.215C99.8243 104.089 99.463 104.193 99.2608 104.466L97.7008 106.578C97.5662 106.761 97.5212 106.994 97.5782 107.213C97.6352 107.432 97.7882 107.614 97.9945 107.707C99.4968 108.388 101.396 109.506 102.282 110.259C102.443 110.396 102.654 110.459 102.863 110.432C103.072 110.405 103.26 110.292 103.381 110.12L104.394 108.681V110.936C104.394 111.35 104.73 111.686 105.144 111.686H109.122V113.57H104.184C104.003 113.57 103.837 113.634 103.707 113.741C103.73 113.493 103.628 113.239 103.417 113.077C102.298 112.219 100.178 111.204 98.6708 110.621C98.3503 110.497 97.9865 110.606 97.7879 110.887L96.2759 113.023C96.1456 113.207 96.105 113.44 96.1655 113.657C96.2259 113.874 96.3808 114.053 96.5874 114.143C98.0964 114.803 100.036 115.897 100.892 116.621C101.055 116.759 101.269 116.821 101.481 116.791C101.693 116.761 101.881 116.642 102 116.464L103.434 114.313C103.434 114.315 103.434 114.318 103.434 114.32V117.008C103.434 117.422 103.77 117.758 104.184 117.758H107.566C106.732 119.656 105.865 121.223 105.528 121.728L105.52 121.74C104.967 122.606 104.638 122.882 104.374 122.963C104.168 123.025 104 123.172 103.91 123.367C103.821 123.562 103.819 123.786 103.906 123.983C104.249 124.76 104.717 126.14 104.876 126.731C104.935 126.95 105.09 127.13 105.297 127.222C105.504 127.314 105.742 127.307 105.944 127.203C106.222 127.059 106.62 126.922 108.02 126.704C109.345 126.497 111.493 126.227 115.168 125.784C115.417 126.324 115.605 126.842 115.724 127.283C115.782 127.501 115.936 127.681 116.142 127.773C116.348 127.865 116.585 127.859 116.786 127.758L119.354 126.462C119.683 126.295 119.843 125.914 119.73 125.563C119.066 123.492 117.248 120.625 115.654 118.523C115.436 118.236 115.046 118.144 114.723 118.304L112.395 119.456C112.196 119.554 112.051 119.736 111.999 119.952C111.947 120.168 111.993 120.396 112.126 120.575C112.445 121.005 112.766 121.48 113.079 121.975L110.139 122.275C110.981 120.868 111.805 119.326 112.518 117.758H118.56C118.974 117.758 119.31 117.422 119.31 117.008V114.32C119.31 113.906 118.974 113.57 118.56 113.57H113.526V111.686H117.672C118.086 111.686 118.422 111.35 118.422 110.936V108.224C118.422 107.81 118.086 107.474 117.672 107.474H113.526V104.648C113.526 104.234 113.19 103.898 112.776 103.898H109.872C109.458 103.898 109.122 104.234 109.122 104.648V107.474H105.161ZM112.032 117.008H118.56V114.32H112.776V110.936H117.672V108.224H112.776V104.648H109.872V108.224H105.144V110.936H109.872V114.32H104.184V117.008H108.696C108.594 117.262 108.489 117.512 108.383 117.758C107.498 119.818 106.538 121.565 106.152 122.144C105.711 122.834 105.332 123.294 104.916 123.537C104.811 123.599 104.703 123.646 104.592 123.68C104.681 123.882 104.778 124.122 104.875 124.377C105.054 124.845 105.236 125.366 105.38 125.809C105.473 126.097 105.55 126.351 105.6 126.536C105.785 126.441 105.993 126.357 106.306 126.273C107.332 125.997 109.481 125.712 115.608 124.976C115.852 125.449 116.057 125.922 116.218 126.364C116.31 126.617 116.387 126.861 116.448 127.088L119.016 125.792C118.392 123.848 116.64 121.064 115.056 118.976L112.728 120.128C112.875 120.326 113.023 120.533 113.169 120.747C113.42 121.113 113.669 121.498 113.91 121.89C114.055 122.125 114.197 122.362 114.336 122.6L108.696 123.176C108.865 122.914 109.034 122.645 109.203 122.37C110.212 120.731 111.21 118.878 112.032 117.008ZM100.284 127.562C100.073 127.6 99.8549 127.545 99.6864 127.412L97.2624 125.492C96.9496 125.244 96.8855 124.795 97.1167 124.47C98.3913 122.676 100.196 119.755 101.596 117.004C101.702 116.796 101.899 116.648 102.129 116.606C102.359 116.564 102.595 116.632 102.769 116.789L104.881 118.709C105.131 118.937 105.198 119.303 105.044 119.605C103.763 122.118 102.218 124.871 100.793 127.214C100.681 127.397 100.496 127.524 100.284 127.562ZM104.424 107.336L102.768 109.688C102.599 109.544 102.398 109.39 102.174 109.229C101.311 108.612 100.101 107.903 98.9938 107.353C98.7578 107.235 98.5264 107.125 98.304 107.024L99.864 104.912C101.111 105.407 102.717 106.212 103.807 106.91C103.856 106.941 103.905 106.972 103.952 107.004C104.126 107.119 104.285 107.23 104.424 107.336ZM98.4 111.32L96.888 113.456C97.1107 113.553 97.3434 113.66 97.5815 113.775C98.6912 114.307 99.917 114.995 100.777 115.594C101.006 115.753 101.208 115.906 101.376 116.048L102.96 113.672C101.928 112.88 99.888 111.896 98.4 111.32ZM100.543 126.177C101.846 123.998 103.22 121.532 104.376 119.264L102.264 117.344C102.148 117.573 102.029 117.803 101.907 118.033C100.552 120.606 98.9175 123.23 97.728 124.904L100.152 126.824C100.281 126.611 100.412 126.396 100.543 126.177ZM139.56 108.824H124.368V110.792H121.8V106.616H130.56C130.464 106.363 130.349 106.11 130.229 105.866C130.227 105.862 130.225 105.858 130.223 105.855C130.105 105.617 129.982 105.388 129.864 105.176L132.36 104.48C132.768 105.128 133.2 105.92 133.464 106.616H142.224V110.792H139.56V108.824ZM125.184 111.416L125.424 109.592H139.008L138.84 111.416H142.992V113.456H138.648L138.456 115.328H124.656L124.896 113.456H121.128V111.416H125.184ZM121.05 110.67V106.616C121.05 106.202 121.386 105.866 121.8 105.866H129.386C129.327 105.755 129.267 105.647 129.208 105.54C129.097 105.34 129.083 105.099 129.172 104.887C129.261 104.675 129.441 104.515 129.663 104.454L132.159 103.758C132.478 103.669 132.818 103.8 132.995 104.08C133.329 104.611 133.687 105.247 133.964 105.866H142.224C142.638 105.866 142.974 106.202 142.974 106.616V110.666H142.992C143.406 110.666 143.742 111.002 143.742 111.416V113.456C143.742 113.87 143.406 114.206 142.992 114.206H139.325L139.216 115.274H139.896C140.31 115.274 140.646 115.61 140.646 116.024V123.8C140.646 123.926 140.615 124.045 140.56 124.149C141.276 124.363 141.928 124.565 142.478 124.742C142.733 124.824 142.925 125.037 142.981 125.299C143.038 125.561 142.949 125.834 142.75 126.013L140.806 127.765C140.598 127.953 140.303 128.009 140.041 127.91C138.329 127.269 135.547 126.317 132.819 125.606C132.565 125.539 132.364 125.345 132.289 125.093C132.235 124.911 132.253 124.717 132.335 124.55H131.725C131.775 124.663 131.798 124.788 131.788 124.916C131.767 125.175 131.613 125.405 131.382 125.524C129.269 126.605 125.822 127.559 122.989 127.974C122.691 128.018 122.396 127.879 122.239 127.622C121.935 127.122 121.297 126.3 120.826 125.806C120.631 125.602 120.567 125.306 120.66 125.04C120.753 124.774 120.987 124.583 121.267 124.545C122.012 124.443 122.802 124.308 123.584 124.148C123.529 124.044 123.498 123.926 123.498 123.8V116.024C123.498 115.733 123.664 115.48 123.907 115.356C123.905 115.315 123.907 115.274 123.912 115.233L124.044 114.206H121.128C120.714 114.206 120.378 113.87 120.378 113.456V111.416C120.378 111.028 120.672 110.709 121.05 110.67ZM124.248 116.024V123.8H127.68C126.958 124.071 126.105 124.325 125.204 124.55C124.245 124.789 123.231 124.996 122.258 125.154C121.957 125.204 121.659 125.248 121.368 125.288C121.55 125.479 121.754 125.713 121.956 125.961C122.314 126.399 122.665 126.879 122.88 127.232C125.333 126.873 128.233 126.103 130.267 125.219C130.542 125.1 130.8 124.979 131.04 124.856L129.6 123.8H133.992L133.008 124.88C133.28 124.951 133.552 125.024 133.823 125.099C136.31 125.786 138.746 126.624 140.304 127.208L142.248 125.456C141.993 125.374 141.715 125.286 141.418 125.194C140.775 124.995 140.045 124.776 139.269 124.55C138.418 124.303 137.513 124.047 136.608 123.8H139.896V116.024H124.248ZM136.992 119.528H127.008V120.272H136.992V119.528ZM136.992 117.464H127.008V118.16H136.992V117.464ZM132.888 113.912H135.984L136.056 113.144H132.984L132.888 113.912ZM127.392 113.912H130.56L130.656 113.144H127.488L127.392 113.912ZM130.872 111.032L130.8 111.728H127.656L127.752 111.032H130.872ZM133.2 111.032L133.152 111.728H136.176L136.224 111.032H133.2ZM167.731 108.812C167.84 109.154 167.691 109.526 167.376 109.698L167.258 109.762C167.347 109.79 167.431 109.833 167.506 109.892C167.663 110.017 167.764 110.199 167.786 110.398L168.074 113.014C168.118 113.421 167.828 113.789 167.421 113.84L166.404 113.967L167.068 114.336C167.381 114.51 167.528 114.882 167.418 115.223C166.926 116.747 166.262 118.248 165.465 119.669C165.722 119.647 165.977 119.759 166.134 119.974C166.288 120.184 166.607 120.463 167 120.748C167.375 121.019 167.755 121.252 167.968 121.375C168.233 121.528 168.378 121.828 168.334 122.131C168.028 124.262 167.551 125.672 166.947 126.564C166.314 127.498 165.524 127.881 164.719 127.862L164.699 127.861C163.137 127.783 161.988 126.768 161.155 125.26C160.209 126.136 159.185 126.888 158.096 127.501C157.767 127.687 157.351 127.598 157.125 127.294C156.696 126.715 155.915 125.954 155.23 125.468C155.012 125.313 154.893 125.054 154.917 124.788C154.927 124.677 154.962 124.571 155.016 124.478H153.318V127.088C153.318 127.502 152.982 127.838 152.568 127.838H149.856C149.442 127.838 149.106 127.502 149.106 127.088V124.478H144.744C144.33 124.478 143.994 124.142 143.994 123.728V121.232C143.994 120.818 144.33 120.482 144.744 120.482H145.08C144.986 120.357 144.93 120.201 144.93 120.032V111.344C144.93 111.234 144.954 111.13 144.996 111.036C144.81 110.9 144.69 110.68 144.69 110.432V105.296C144.69 104.882 145.026 104.546 145.44 104.546H150.816C150.982 104.546 151.136 104.6 151.26 104.692C151.384 104.6 151.538 104.546 151.704 104.546H157.128C157.542 104.546 157.878 104.882 157.878 105.296V110.432C157.878 110.587 157.831 110.732 157.75 110.852L158.475 110.76C158.374 108.909 158.293 106.927 158.25 104.831C158.246 104.63 158.323 104.435 158.464 104.291C158.605 104.147 158.798 104.066 159 104.066H161.712C162.123 104.066 162.457 104.397 162.462 104.808C162.464 104.971 162.466 105.134 162.468 105.296L164.293 104.343C164.619 104.173 165.02 104.264 165.24 104.558C166.175 105.805 167.328 107.551 167.731 108.812ZM162.519 107.549C163.06 108.424 163.559 109.374 163.865 110.112L162.631 110.263C162.584 109.385 162.547 108.477 162.519 107.549ZM161.734 106.214C161.764 107.638 161.814 109.029 161.885 110.354C161.899 110.606 161.913 110.857 161.928 111.104L167.04 110.48L167.328 113.096L162.144 113.744C162.244 114.839 162.355 115.876 162.477 116.84C162.532 117.271 162.589 117.688 162.648 118.088C162.859 117.723 163.06 117.351 163.25 116.974C163.655 116.172 164.009 115.346 164.303 114.516C164.338 114.416 164.373 114.317 164.406 114.217C164.454 114.075 164.5 113.934 164.544 113.792L166.704 114.992C165.96 117.296 164.808 119.552 163.392 121.544C163.8 122.888 164.256 123.656 164.76 123.704C165.079 123.704 165.315 122.928 165.454 121.43C165.483 121.123 165.508 120.784 165.528 120.416C165.694 120.643 165.951 120.882 166.234 121.108C166.729 121.503 167.302 121.856 167.592 122.024C166.992 126.2 165.768 127.136 164.736 127.112C163.487 127.05 162.49 126.21 161.715 124.719C161.597 124.492 161.484 124.249 161.376 123.992C161.189 124.187 160.999 124.376 160.805 124.56C159.855 125.463 158.825 126.23 157.728 126.848C157.386 126.386 156.861 125.839 156.319 125.372C156.1 125.183 155.878 125.008 155.664 124.856C155.915 124.739 156.162 124.613 156.406 124.478C156.407 124.477 156.408 124.477 156.409 124.476C156.794 124.263 157.169 124.029 157.536 123.775C157.558 123.759 157.581 123.744 157.603 123.728C157.834 123.566 158.062 123.395 158.286 123.218C159.072 122.596 159.808 121.885 160.488 121.112C160.074 119.349 159.76 117.23 159.525 114.827C159.501 114.581 159.478 114.332 159.456 114.08L157.464 114.32L157.176 111.68L159.264 111.416C159.157 109.594 159.069 107.639 159.017 105.566C159.011 105.318 159.005 105.068 159 104.816H161.712C161.717 105.242 161.723 105.666 161.732 106.088C161.732 106.13 161.733 106.172 161.734 106.214ZM145.68 111.344V120.032H149.856V121.232H144.744V123.728H149.856V127.088H152.568V123.728H157.536V121.232H152.568V120.032H156.936V111.344H145.68ZM157.686 115.049V120.032C157.686 120.201 157.63 120.357 157.536 120.482C157.95 120.482 158.286 120.818 158.286 121.232V122.245C158.767 121.831 159.23 121.38 159.671 120.9C159.291 119.179 159 117.164 158.781 114.917L157.686 115.049ZM164.556 122.497C164.632 122.1 164.698 121.559 164.748 120.871C164.576 121.141 164.4 121.407 164.22 121.669C164.334 122.009 164.447 122.284 164.556 122.497ZM163.576 114.321L162.959 114.398C162.998 114.798 163.039 115.189 163.081 115.57C163.261 115.156 163.427 114.739 163.576 114.321ZM167.016 109.04C166.656 107.912 165.576 106.256 164.64 105.008L162.48 106.136C162.481 106.137 162.482 106.139 162.483 106.14C162.623 106.336 162.765 106.544 162.906 106.76C163.501 107.674 164.076 108.725 164.456 109.586C164.522 109.737 164.582 109.881 164.636 110.018C164.673 110.112 164.706 110.202 164.736 110.288L167.016 109.04ZM151.704 110.432H157.128V105.296H151.704V110.432ZM145.44 110.432H150.816V105.296H145.44V110.432ZM127.008 121.616V122.384H136.992V121.616H127.008ZM154.992 108.632V107.072H153.72V108.632H154.992ZM148.728 108.632V107.072H147.48V108.632H148.728ZM148.032 116.648V117.944H150.024V116.648H148.032ZM148.032 113.432V114.68H150.024V113.432H148.032ZM154.464 114.68V113.432H152.424V114.68H154.464ZM154.464 117.944V116.648H152.424V117.944H154.464Z" fill="#00E0B8"/>
<path d="M214.031 82.5V87.3438L196.438 128H186.938L204.531 89.5312H181.875V82.5H214.031ZM228.344 107.281L221.156 105.562L223.75 82.5H249.312V89.7812H231.156L230.031 99.875C230.635 99.5208 231.552 99.1458 232.781 98.75C234.01 98.3333 235.385 98.125 236.906 98.125C239.115 98.125 241.073 98.4688 242.781 99.1562C244.49 99.8438 245.938 100.844 247.125 102.156C248.333 103.469 249.25 105.073 249.875 106.969C250.5 108.865 250.812 111.01 250.812 113.406C250.812 115.427 250.5 117.354 249.875 119.188C249.25 121 248.302 122.625 247.031 124.062C245.76 125.479 244.167 126.594 242.25 127.406C240.333 128.219 238.062 128.625 235.438 128.625C233.479 128.625 231.583 128.333 229.75 127.75C227.938 127.167 226.302 126.302 224.844 125.156C223.406 124.01 222.25 122.625 221.375 121C220.521 119.354 220.073 117.479 220.031 115.375H228.969C229.094 116.667 229.427 117.781 229.969 118.719C230.531 119.635 231.271 120.344 232.188 120.844C233.104 121.344 234.177 121.594 235.406 121.594C236.552 121.594 237.531 121.375 238.344 120.938C239.156 120.5 239.812 119.896 240.312 119.125C240.812 118.333 241.177 117.417 241.406 116.375C241.656 115.312 241.781 114.167 241.781 112.938C241.781 111.708 241.635 110.594 241.344 109.594C241.052 108.594 240.604 107.729 240 107C239.396 106.271 238.625 105.708 237.688 105.312C236.771 104.917 235.698 104.719 234.469 104.719C232.802 104.719 231.51 104.979 230.594 105.5C229.698 106.021 228.948 106.615 228.344 107.281ZM256.5 93.6562V91.25C256.5 89.5208 256.875 87.9479 257.625 86.5312C258.375 85.1146 259.479 83.9792 260.938 83.125C262.396 82.2708 264.188 81.8438 266.312 81.8438C268.5 81.8438 270.323 82.2708 271.781 83.125C273.26 83.9792 274.365 85.1146 275.094 86.5312C275.844 87.9479 276.219 89.5208 276.219 91.25V93.6562C276.219 95.3438 275.844 96.8958 275.094 98.3125C274.365 99.7292 273.271 100.865 271.812 101.719C270.354 102.573 268.552 103 266.406 103C264.24 103 262.417 102.573 260.938 101.719C259.479 100.865 258.375 99.7292 257.625 98.3125C256.875 96.8958 256.5 95.3438 256.5 93.6562ZM262.469 91.25V93.6562C262.469 94.3854 262.604 95.0833 262.875 95.75C263.167 96.3958 263.604 96.9271 264.188 97.3438C264.792 97.7396 265.521 97.9375 266.375 97.9375C267.271 97.9375 268 97.7396 268.562 97.3438C269.125 96.9271 269.542 96.3958 269.812 95.75C270.083 95.0833 270.219 94.3854 270.219 93.6562V91.25C270.219 90.4792 270.073 89.7708 269.781 89.125C269.51 88.4583 269.083 87.9271 268.5 87.5312C267.938 87.1146 267.208 86.9062 266.312 86.9062C265.479 86.9062 264.771 87.1146 264.188 87.5312C263.604 87.9271 263.167 88.4583 262.875 89.125C262.604 89.7708 262.469 90.4792 262.469 91.25ZM278.25 119.25V116.844C278.25 115.135 278.625 113.573 279.375 112.156C280.146 110.74 281.26 109.604 282.719 108.75C284.198 107.896 286.01 107.469 288.156 107.469C290.323 107.469 292.135 107.896 293.594 108.75C295.052 109.604 296.156 110.74 296.906 112.156C297.656 113.573 298.031 115.135 298.031 116.844V119.25C298.031 120.958 297.656 122.521 296.906 123.938C296.177 125.354 295.083 126.49 293.625 127.344C292.167 128.198 290.365 128.625 288.219 128.625C286.052 128.625 284.229 128.198 282.75 127.344C281.271 126.49 280.146 125.354 279.375 123.938C278.625 122.521 278.25 120.958 278.25 119.25ZM284.25 116.844V119.25C284.25 120 284.417 120.708 284.75 121.375C285.083 122.042 285.542 122.573 286.125 122.969C286.729 123.365 287.427 123.562 288.219 123.562C289.219 123.562 290 123.365 290.562 122.969C291.125 122.573 291.51 122.042 291.719 121.375C291.948 120.708 292.062 120 292.062 119.25V116.844C292.062 116.094 291.917 115.396 291.625 114.75C291.333 114.083 290.896 113.552 290.312 113.156C289.75 112.74 289.031 112.531 288.156 112.531C287.281 112.531 286.552 112.74 285.969 113.156C285.406 113.552 284.979 114.083 284.688 114.75C284.396 115.396 284.25 116.094 284.25 116.844ZM290.375 89L268.156 124.562L263.781 122.25L286 86.6875L290.375 89Z" fill="url(#paint0_linear_317_669)"/>
<path d="M110.82 189.28H103.9C103.68 188.66 103.3 187.82 102.86 187.22L101.94 187.46C102.3 187.98 102.62 188.7 102.84 189.28H95.32V190.18H110.82V189.28ZM100.5 193.68C100.32 192.8 99.74 191.42 99.06 190.42L98.18 190.66C98.82 191.66 99.38 193.04 99.56 193.98L100.5 193.68ZM108.12 197.84V200.36H98.04V197.84H108.12ZM98.04 203.82V201.2H108.12V203.82H98.04ZM97.08 205.48H98.04V204.68H108.12V205.42H109.1V196.98H97.08V205.48ZM106.32 194.02C106.88 193.04 107.54 191.74 108.04 190.66L107.04 190.36C106.64 191.44 105.9 193 105.3 194.02H94.18V194.92H111.84V194.02H106.32ZM131.7 197.12C131.52 196.34 131.08 195.16 130.72 194.2L129.98 194.48C130.14 194.88 130.32 195.32 130.48 195.8L127.62 196.14C128.94 194.56 130.28 192.46 131.42 190.38L130.64 189.98C130.34 190.64 129.96 191.3 129.6 191.94L127.22 192.22C128 190.98 128.82 189.32 129.42 187.72L128.58 187.4C128.04 189.14 127.02 191.04 126.74 191.52C126.46 192 126.2 192.34 125.96 192.4C126.04 192.62 126.18 193.06 126.22 193.24C126.46 193.14 126.86 193.04 129.14 192.72C128.4 193.9 127.7 194.88 127.4 195.24C126.92 195.86 126.54 196.3 126.2 196.36C126.32 196.58 126.46 197.02 126.5 197.22C126.78 197.06 127.26 196.96 130.7 196.48C130.82 196.82 130.88 197.14 130.94 197.4L131.7 197.12ZM124.6 192.66H121.4V190.16H124.6V192.66ZM124.6 195.96H121.4V193.44H124.6V195.96ZM125.5 189.36H122.96C123.14 188.8 123.34 188.1 123.56 187.48L122.62 187.28C122.54 187.88 122.34 188.7 122.14 189.36H120.52V196.78H125.5V189.36ZM120 197.02C119.88 196.16 119.56 194.84 119.24 193.82L118.52 194C118.64 194.48 118.76 194.98 118.88 195.5L115.96 195.88C117.32 194.3 118.66 192.22 119.78 190.14L119.02 189.74C118.7 190.44 118.32 191.12 117.9 191.78L115.82 192C116.6 190.84 117.36 189.28 117.96 187.76L117.14 187.44C116.64 189.08 115.64 190.88 115.34 191.34C115.06 191.78 114.82 192.12 114.58 192.16C114.68 192.38 114.8 192.82 114.84 193C115.06 192.9 115.46 192.8 117.46 192.54C116.72 193.68 116.02 194.62 115.76 194.98C115.26 195.6 114.88 196.04 114.56 196.12C114.68 196.34 114.82 196.76 114.82 196.94C115.12 196.8 115.6 196.68 119.04 196.2C119.12 196.56 119.18 196.94 119.22 197.24L120 197.02ZM120.44 200.24C119 201.84 116.2 203.28 113.84 203.94C114.08 204.12 114.36 204.48 114.52 204.74C116.86 203.96 119.72 202.36 121.26 200.62L120.44 200.24ZM124.9 200.82C127.12 201.98 129.84 203.68 131.2 204.86L131.78 204.06C130.4 202.94 127.66 201.26 125.46 200.14L124.9 200.82ZM123.44 198.68V197.32H122.48V198.68H114.14V199.54H122.48V205.46H123.44V199.54H131.84V198.68H123.44ZM139.98 200.28C139.2 200.56 138.38 200.82 137.62 201.06V195.52H139.8V194.62H137.62V189.74H140.04V188.82H134.06V189.74H136.7V194.62H134.26V195.52H136.7V201.38C135.62 201.72 134.64 202.04 133.86 202.28L134.12 203.26C135.8 202.68 138.02 201.92 140.14 201.2L139.98 200.28ZM142.08 193.06H145.72V196.14H142.08V193.06ZM142.08 189.18H145.72V192.2H142.08V189.18ZM150.3 192.2H146.58V189.18H150.3V192.2ZM150.3 196.14H146.58V193.06H150.3V196.14ZM146.62 203.88V200.66H151.56V199.76H146.62V197.02H151.22V188.32H141.18V197.02H145.66V199.76H140.86V200.66H145.66V203.88H139.24V204.78H152.22V203.88H146.62ZM158.04 189.8C157.72 189.1 157.04 188.08 156.44 187.28L155.68 187.68C156.26 188.46 156.94 189.56 157.22 190.28L158.04 189.8ZM159.8 190.78H153.98V191.64H159.8V190.78ZM159.28 193.34H154.64V194.16H159.28V193.34ZM154.64 196.76H159.28V195.92H154.64V196.76ZM158.58 199.38V203.34H155.38V199.38H158.58ZM159.46 198.52H154.52V205.2H155.38V204.2H159.46V198.52ZM167.86 199.8V196.7H170.22V199.8H167.86ZM164.76 199.8V196.7H167.08V199.8H164.76ZM161.7 199.8V196.7H163.96V199.8H161.7ZM171.08 195.84H160.84V205.58H161.7V200.68H163.96V205.1H164.76V200.68H167.08V205.1H167.86V200.68H170.22V204.36C170.22 204.52 170.18 204.58 170.02 204.58C169.84 204.6 169.36 204.6 168.74 204.58C168.86 204.82 168.96 205.18 169 205.42C169.8 205.42 170.34 205.42 170.66 205.24C171 205.1 171.08 204.84 171.08 204.34V195.84ZM165.82 187.28C164.48 189.78 161.78 192.44 159.36 193.7C159.58 193.92 159.84 194.3 159.98 194.58C162.02 193.38 164.26 191.26 165.76 189.1C166.66 190.48 167.88 191.82 169.22 192.86H162.42V193.74H169.38V193C170.06 193.52 170.8 193.96 171.48 194.28C171.66 194.02 171.98 193.6 172.22 193.38C169.98 192.52 167.54 190.4 166.26 188.38C166.38 188.18 166.5 188 166.6 187.8L165.82 187.28ZM180.24 196.28C179.44 196.52 178.6 196.78 177.8 197.02V192.44H180.16V191.52H177.8V187.34H176.86V191.52H174.12V192.44H176.86V197.3C175.74 197.64 174.7 197.94 173.88 198.16L174.2 199.1C175 198.86 175.9 198.56 176.86 198.28V204.16C176.86 204.46 176.74 204.56 176.46 204.56C176.22 204.58 175.34 204.58 174.3 204.56C174.42 204.82 174.58 205.2 174.62 205.44C175.98 205.46 176.74 205.44 177.18 205.28C177.6 205.1 177.8 204.84 177.8 204.14V197.98C178.64 197.7 179.5 197.42 180.36 197.16L180.24 196.28ZM189.58 195.86C188.78 197.96 187.46 199.72 185.9 201.12C184.44 199.66 183.32 197.88 182.58 195.86H189.58ZM190.2 194.9L190 194.94H186.38V191.58H191.36V190.66H186.38V187.34H185.42V190.66H180.48V191.58H185.42V194.94H180.9V195.86H181.62C182.44 198.14 183.62 200.12 185.16 201.7C183.4 203.1 181.36 204.06 179.34 204.6C179.5 204.82 179.76 205.2 179.86 205.48C181.94 204.84 184.02 203.82 185.86 202.36C187.4 203.78 189.26 204.84 191.42 205.48C191.58 205.22 191.82 204.86 192.06 204.66C189.92 204.08 188.08 203.08 186.56 201.76C188.42 200.08 189.94 197.9 190.8 195.2L190.2 194.9ZM198.14 195.06C197.36 194.42 195.76 193.5 194.5 192.98L193.96 193.66C195.24 194.26 196.82 195.2 197.62 195.86L198.14 195.06ZM195.42 205.18C196.58 203.36 198.04 200.74 199.1 198.64L198.4 198.02C197.28 200.26 195.7 202.98 194.6 204.52L195.42 205.18ZM194.96 188.24C196.32 188.82 197.94 189.78 198.78 190.5L199.32 189.66C198.48 189 196.84 188.1 195.5 187.56L194.96 188.24ZM211.64 196.96V196.04H206.14V191.96H210.8V191.04H206.14V187.34H205.18V191.04H200.72V191.96H205.18V196.04H199.8V196.96H204.72C203.6 199.36 202.02 201.7 201.52 202.34C200.98 203.08 200.58 203.58 200.24 203.66C200.36 203.92 200.52 204.4 200.56 204.64C201.02 204.42 201.76 204.3 209.64 203.32C210.1 204.12 210.48 204.84 210.7 205.44L211.52 205C210.92 203.46 209.36 201.08 207.92 199.3L207.16 199.66C207.84 200.52 208.58 201.54 209.18 202.54L201.8 203.4C203.24 201.64 204.66 199.32 205.84 196.96H211.64Z" fill="white"/>
<path d="M111.44 253.68H106.68C106.56 253.02 106.26 252.04 105.98 251.24L105.1 251.38C105.36 252.1 105.62 253 105.74 253.68H100.56V254.56H111.44V253.68ZM104.1 258.62C103.92 257.62 103.4 256.08 102.8 254.94L102.02 255.18C102.6 256.34 103.1 257.88 103.24 258.88L104.1 258.62ZM97.48 257.2H99.94V256.28H97.48V251.54H96.58V256.28H94V257.2H96.58V264.7C95.56 265.06 94.62 265.4 93.88 265.66L94.18 266.64C95.88 265.96 98.08 265.1 100.18 264.24L100.02 263.36C99.16 263.7 98.3 264.02 97.48 264.34V257.2ZM109.46 263.16V267.6H102.56V263.16H109.46ZM101.66 269.46H102.56V268.48H109.46V269.4H110.38V262.26H101.66V269.46ZM108.28 259.32C108.82 258.1 109.42 256.46 109.88 255.12L108.98 254.84C108.6 256.14 107.94 258.06 107.36 259.32H99.82V260.22H112.04V259.32H108.28ZM126.98 261.94V263.08H118.9V261.94H126.98ZM118.9 265V263.78H126.98V265H118.9ZM118.9 268.06V265.72H127.94V261.22H117.9V267.48C117.9 268.22 117.5 268.46 117.24 268.58C117.4 268.8 117.6 269.22 117.68 269.46C117.98 269.24 118.5 269.08 122.56 267.9C122.54 267.72 122.48 267.34 122.48 267.1L118.9 268.06ZM120.1 259.44V260.12H125.84V259.44H120.1ZM130.06 265.1C129.06 265.68 127.42 266.48 126.12 267C125 266.6 123.88 266.22 122.86 265.9L122.44 266.52C125.04 267.38 128.44 268.7 130.24 269.5L130.64 268.74C129.74 268.34 128.44 267.86 127.06 267.34C128.28 266.88 129.66 266.26 130.68 265.66L130.06 265.1ZM131.82 258.38V257.6H123.46V256.3H129.4V255.56H123.46V254.36H130.56V253.58H126.5C126.92 253.02 127.4 252.3 127.78 251.64L126.82 251.3C126.52 251.96 125.92 252.96 125.46 253.58H120.6C120.26 253 119.58 252.06 119 251.34L118.16 251.68C118.58 252.24 119.1 253 119.48 253.58H115.44V254.36H122.5V255.56H116.58V256.3H122.5V257.6H114.2V258.38H119.42C118.04 260.04 115.9 261.42 113.78 262.32C114 262.5 114.36 262.84 114.48 263.02C116.7 261.96 119.06 260.34 120.54 258.38H125.6C126.92 260.26 129.3 261.94 131.54 262.72C131.68 262.5 131.96 262.16 132.18 261.98C130.08 261.34 127.92 259.96 126.6 258.38H131.82ZM151.94 261.74H141.48V262.62H151.94V261.74ZM145 263.38C145.86 264.24 146.82 265.54 147.22 266.42L147.96 266C147.58 265.18 146.62 263.94 145.68 263.08L145 263.38ZM147.6 259.54H145.64V256.6H147.6V259.54ZM148.32 256.6H150.34V259.54H148.32V256.6ZM144.92 259.54H143.04V256.6H144.92V259.54ZM141.74 253.26V254.1H145.86C145.76 254.72 145.64 255.28 145.54 255.8H142.24V260.34H151.18V255.8H146.36C146.48 255.28 146.58 254.72 146.68 254.1H151.66V253.26H146.82C146.94 252.64 147.04 252 147.12 251.44L146.28 251.36C146.2 251.94 146.12 252.6 146 253.26H141.74ZM137.22 265.48H138.9V264.72H137.22V262.88C137.94 262.8 138.64 262.72 139.22 262.6L138.68 261.92C137.64 262.12 135.84 262.32 134.34 262.42C134.44 262.62 134.56 262.88 134.6 263.06C135.16 263.06 135.8 263.02 136.4 262.96V264.72H134.6V265.48H136.4V267.38C135.52 267.5 134.72 267.6 134.04 267.7L134.2 268.52C135.62 268.3 137.42 268.02 139.24 267.74L139.22 266.96C138.52 267.06 137.86 267.16 137.22 267.26V265.48ZM139.7 254.94H136.28V253.1H139.7V254.94ZM136.28 258.26H139.7V260C138.5 260.1 137.34 260.2 136.28 260.28V258.26ZM139.7 257.5H136.28V255.7H139.7V257.5ZM141.88 253.1V252.26H134V253.1H135.38V260.32L133.96 260.42L134.08 261.28C135.62 261.16 137.64 261 139.7 260.8V269.48H140.6V253.1H141.88ZM141.66 268.52C142.4 267.52 142.98 265.96 143.4 264.8L142.66 264.5C142.32 265.62 141.68 267.18 140.96 268.08L141.66 268.52ZM145.78 268.3C145.04 268.3 144.94 268.22 144.94 267.84V264.6H144.06V267.84C144.06 268.88 144.42 269.12 145.72 269.12H148.46C149.56 269.12 149.84 268.68 149.92 266.68C149.68 266.62 149.34 266.5 149.12 266.32C149.06 268.1 148.96 268.3 148.36 268.3H145.78ZM149.08 264.4C150.12 265.54 151.08 267.12 151.42 268.22L152.2 267.84C151.82 266.78 150.86 265.2 149.78 264.08L149.08 264.4ZM162.5 255.84C162.52 255.36 162.52 254.92 162.52 254.46V251.4H161.54V254.46C161.54 254.92 161.54 255.36 161.52 255.84H154.78V256.8H161.46C161.2 260.7 159.94 265.24 154.2 268.8C154.44 268.96 154.78 269.3 154.94 269.54C160.86 265.82 162.18 260.96 162.46 256.8H169.98C169.54 264.5 169.08 267.42 168.32 268.16C168.08 268.4 167.82 268.44 167.4 268.44C166.9 268.44 165.58 268.44 164.14 268.3C164.34 268.58 164.44 268.98 164.48 269.26C165.72 269.36 167 269.4 167.66 269.36C168.36 269.32 168.76 269.2 169.18 268.74C170.06 267.78 170.48 264.84 170.98 256.4C170.98 256.26 171 255.84 171 255.84H162.5ZM178.58 253.8C178.26 253.1 177.6 252.08 176.98 251.28L176.26 251.68C176.82 252.46 177.48 253.56 177.76 254.28L178.58 253.8ZM181.04 254.78H173.96V255.64H181.04V254.78ZM180.36 258.16V257.34H174.74V258.16H180.36ZM180.36 259.92H174.74V260.76H180.36V259.92ZM179.62 263.38V267.34H175.62V263.38H179.62ZM180.5 268.2V262.52H174.76V269.2H175.62V268.2H180.5ZM183.12 258.74C183.12 262.42 182.88 266.02 180.5 269C180.76 269.12 181.12 269.38 181.3 269.56C183.76 266.44 184.04 262.66 184.04 258.74V251.76H183.12V258.74ZM186.7 267.44H187.6V252.5H186.7V267.44ZM190.42 251.58V269.48H191.36V251.58H190.42ZM200.96 263.12C200.8 262.08 200.28 260.24 199.76 258.86L198.98 259.02C199.22 259.68 199.46 260.44 199.66 261.18L195.66 261.74C197.32 259.86 198.98 257.4 200.4 254.94L199.52 254.46C199.06 255.36 198.52 256.28 197.96 257.14L195.38 257.4C196.6 255.82 197.78 253.76 198.76 251.72L197.86 251.32C196.98 253.52 195.46 255.88 195 256.5C194.58 257.08 194.2 257.54 193.9 257.6C194.02 257.84 194.16 258.32 194.2 258.54C194.48 258.42 194.92 258.32 197.4 258.02C196.56 259.3 195.8 260.3 195.44 260.7C194.86 261.42 194.38 261.96 194.04 262.02C194.12 262.28 194.28 262.76 194.34 262.98C194.7 262.8 195.24 262.66 199.84 261.98C199.98 262.5 200.08 262.98 200.14 263.36L200.96 263.12ZM194.9 263.98C194.66 265.68 194.3 267.58 193.82 268.88C194.06 268.96 194.46 269.1 194.62 269.18C195.04 267.92 195.46 265.92 195.74 264.12L194.9 263.98ZM196.96 264.02C197.2 265.46 197.44 267.34 197.5 268.58L198.3 268.44C198.22 267.18 197.98 265.32 197.74 263.9L196.96 264.02ZM198.84 263.66C199.28 264.86 199.72 266.4 199.92 267.42L200.68 267.2C200.5 266.18 200.02 264.66 199.58 263.46L198.84 263.66ZM208.54 261.2C208.96 260.38 209.5 259.16 209.92 258.14L209.18 257.86C208.92 258.76 208.36 260.12 207.92 260.94L208.54 261.2ZM203.56 258.16C204.06 259.06 204.5 260.28 204.66 261.1L205.36 260.88C205.18 260.08 204.7 258.9 204.22 257.98L203.56 258.16ZM202.62 257.26H206.1V261.78H202.62V257.26ZM210.4 261.78H206.94V257.26H210.4V261.78ZM211.26 262.62V256.42H206.98V254.48H211.92V253.6H206.98V251.36H206.06V253.6H201.16V254.48H206.06V256.42H201.78V262.62H205.4C204.38 264.64 202.6 266.68 200.94 267.68C201.16 267.88 201.4 268.18 201.54 268.42C203.24 267.26 205.02 265.14 206.06 263.1V269.48H206.98V262.92C208.12 264.92 209.94 267.08 211.42 268.22C211.6 268 211.86 267.68 212.1 267.5C210.62 266.52 208.76 264.5 207.66 262.62H211.26Z" fill="white"/>
<path d="M98.04 324.82H100.62V323.96H98.04V321.32H99.98V320.46H95.04C96 319.5 96.92 318.32 97.66 317.08C98.8 318.16 100.1 319.5 100.8 320.32L101.36 319.66C100.66 318.84 99.26 317.46 98.08 316.38C98.2 316.14 98.32 315.92 98.44 315.68L97.6 315.42C96.74 317.28 95.32 319.08 93.82 320.28C93.98 320.48 94.26 320.92 94.34 321.12C94.56 320.92 94.78 320.72 95 320.5V321.32H97.18V323.96H94.02V324.82H97.18V331.2C95.9 331.44 94.76 331.66 93.86 331.82L94.12 332.7C95.94 332.34 98.48 331.82 100.86 331.32L100.8 330.5C99.86 330.7 98.94 330.88 98.04 331.06V324.82ZM94.38 326.22C94.7 327.42 95.02 329.04 95.14 330.1L95.96 329.88C95.82 328.86 95.48 327.26 95.14 326.06L94.38 326.22ZM99.7 329.88C100.04 328.88 100.36 327.3 100.7 326.08L99.9 325.8C99.74 326.92 99.38 328.62 99.08 329.64L99.7 329.88ZM103.82 320.26C104 319.58 104.22 318.78 104.44 317.98H109.18C109.06 318.62 108.9 319.44 108.72 320.26H103.82ZM110.62 325.06C110 326.02 108.94 327.3 108.1 328.22C107.76 327.98 107.44 327.74 107.12 327.52V323.86H112.04V322.96H109.06C109.5 321.1 109.96 318.78 110.24 317.2L109.58 317.08L109.42 317.14H104.66C104.78 316.56 104.94 315.96 105.06 315.44L104.12 315.32C103.74 317.14 103.1 319.62 102.6 321.1H108.58C108.44 321.76 108.3 322.38 108.16 322.96H101.08V323.86H106.22V327.64C104.4 329.1 102.46 330.54 101.2 331.42L101.8 332.14C103.08 331.16 104.68 329.9 106.22 328.62V332.32C106.22 332.54 106.16 332.6 105.92 332.62C105.68 332.62 104.94 332.64 104.02 332.6C104.16 332.88 104.3 333.22 104.34 333.48C105.46 333.48 106.18 333.46 106.6 333.32C107 333.16 107.12 332.9 107.12 332.3V328.48C108.78 329.66 110.6 331.14 111.58 332.14L112.14 331.44C111.38 330.68 110.06 329.64 108.72 328.66C109.58 327.8 110.6 326.6 111.4 325.56L110.62 325.06ZM104.98 327.54C104.52 326.84 103.48 325.76 102.62 324.98L101.92 325.42C102.8 326.24 103.8 327.36 104.3 328.08L104.98 327.54ZM130.82 317.28H123.9C123.68 316.66 123.3 315.82 122.86 315.22L121.94 315.46C122.3 315.98 122.62 316.7 122.84 317.28H115.32V318.18H130.82V317.28ZM120.5 321.68C120.32 320.8 119.74 319.42 119.06 318.42L118.18 318.66C118.82 319.66 119.38 321.04 119.56 321.98L120.5 321.68ZM128.12 325.84V328.36H118.04V325.84H128.12ZM118.04 331.82V329.2H128.12V331.82H118.04ZM117.08 333.48H118.04V332.68H128.12V333.42H129.1V324.98H117.08V333.48ZM126.32 322.02C126.88 321.04 127.54 319.74 128.04 318.66L127.04 318.36C126.64 319.44 125.9 321 125.3 322.02H114.18V322.92H131.84V322.02H126.32ZM135.48 318.12H150.54V320.56H151.5V317.22H143.92C143.68 316.66 143.22 315.8 142.8 315.18L141.9 315.46C142.22 315.98 142.6 316.66 142.84 317.22H134.54V320.56H135.48V318.12ZM149.96 325.42C149.14 324.4 147.46 322.84 146.04 321.74L145.32 322.24C145.94 322.74 146.62 323.32 147.28 323.92L138.44 324.58C139.78 323.62 141.12 322.4 142.38 321.08H149.72V320.2H136.48V321.08H141.06C139.82 322.46 138.34 323.68 137.86 324C137.32 324.42 136.88 324.7 136.5 324.74C136.64 325 136.76 325.48 136.82 325.7C137.36 325.5 138.18 325.44 148.02 324.66C148.5 325.12 148.94 325.6 149.22 325.98L149.96 325.42ZM143.48 331.98V328.76H149.98V327.88H143.48V325.42H142.52V327.88H136.04V328.76H142.52V331.98H134.22V332.88H151.86V331.98H143.48ZM155.66 318H170.38V320.18H171.3V317.16H163.82C163.52 316.56 163 315.76 162.48 315.2L161.66 315.52C162.08 316 162.48 316.62 162.78 317.16H154.76V320.18H155.66V318ZM160.64 330.92C159.38 331.62 156.7 332.36 154.6 332.74C154.78 332.94 155.04 333.26 155.16 333.46C157.28 333.08 159.92 332.3 161.54 331.44L160.64 330.92ZM168.4 326.36H157.74V325.28H168.4V326.36ZM168.4 328.16H157.74V327.06H168.4V328.16ZM168.4 329.98H157.74V328.86H168.4V329.98ZM169.36 324.58H156.8V330.68H169.36V324.58ZM164.54 331.54C166.88 332.16 169.24 332.94 170.72 333.48L171.32 332.8C169.78 332.24 167.36 331.52 165.02 330.92L164.54 331.54ZM167.8 322.88H163.28C163.32 322.5 163.36 322.1 163.4 321.66H167.88V321.72H167.9L167.8 322.88ZM158.18 321.66H162.58C162.54 322.1 162.48 322.5 162.44 322.88H158.02L158.18 321.66ZM162.72 319.84C162.7 320.2 162.68 320.58 162.64 320.96H158.24L158.38 319.84H162.72ZM167.96 320.92H167.88V320.96H163.48C163.5 320.58 163.54 320.2 163.56 319.84H168.04L167.96 320.92ZM168.86 320.92L169 319.14H157.62L157.38 320.92H154.06V321.72H157.28L157.02 323.58H168.64L168.8 321.72H172V320.92H168.86ZM191.68 319.02C191.22 318.08 190.1 316.7 189.06 315.72L188.32 316.16C189.36 317.16 190.44 318.6 190.9 319.54L191.68 319.02ZM182.82 319.06H180.44V316.78H182.82V319.06ZM183.64 316.02H179.62V319.84H183.64V316.02ZM177.72 319.06H175.44V316.78H177.72V319.06ZM178.56 316.02H174.64V319.84H178.56V316.02ZM175.64 324.72H178.62V326.78H175.64V324.72ZM175.64 321.9H178.62V323.92H175.64V321.9ZM182.56 323.92H179.5V321.9H182.56V323.92ZM182.56 326.78H179.5V324.72H182.56V326.78ZM184.16 330.16V329.28H179.54V327.6H183.46V321.08H174.76V327.6H178.58V329.28H173.92V330.16H178.58V333.48H179.54V330.16H184.16ZM190.52 322.7C189.96 324.44 189.12 326.14 188.06 327.68C187.7 326.06 187.4 324.1 187.18 321.92L192.18 321.3L192.04 320.42L187.1 321.04C186.94 319.28 186.84 317.42 186.78 315.48H185.86C185.94 317.46 186.04 319.36 186.2 321.14L183.7 321.46L183.84 322.34L186.28 322.04C186.52 324.56 186.86 326.82 187.32 328.66C185.96 330.34 184.34 331.74 182.56 332.58C182.82 332.76 183.1 333.06 183.28 333.3C184.88 332.46 186.34 331.22 187.62 329.72C188.34 332.04 189.34 333.48 190.72 333.54C191.5 333.56 192.12 332.6 192.44 329.64C192.26 329.54 191.88 329.36 191.68 329.18C191.5 331.26 191.2 332.44 190.72 332.42C189.76 332.38 188.96 331.02 188.34 328.8C189.62 327.08 190.64 325.12 191.3 323.12L190.52 322.7Z" fill="white"/>
<line x1="90" y1="225.5" x2="294" y2="225.5" stroke="#00E0B8" stroke-dasharray="2 2"/>
<line x1="90" y1="292.5" x2="294" y2="292.5" stroke="#00E0B8" stroke-dasharray="2 2"/>
<path d="M78 193.768C79.3333 194.538 79.3333 196.462 78 197.232L68.25 202.861C66.9167 203.631 65.25 202.669 65.25 201.129L65.25 189.871C65.25 188.331 66.9167 187.369 68.25 188.139L78 193.768Z" fill="#00E0B8"/>
<path d="M78 257.768C79.3333 258.538 79.3333 260.462 78 261.232L68.25 266.861C66.9167 267.631 65.25 266.669 65.25 265.129L65.25 253.871C65.25 252.331 66.9167 251.369 68.25 252.139L78 257.768Z" fill="#00E0B8"/>
<path d="M78 321.768C79.3333 322.538 79.3333 324.462 78 325.232L68.25 330.861C66.9167 331.631 65.25 330.669 65.25 329.129L65.25 317.871C65.25 316.331 66.9167 315.369 68.25 316.139L78 321.768Z" fill="#00E0B8"/>
<line x1="26" y1="150.5" x2="337" y2="150.5" stroke="#00E0B8"/>
<path d="M75.8706 33.3593C66.5265 22.7478 69.0464 11.3978 69.0464 11.3978L63.4737 9.65116L37.9845 90.9769C35.2154 87.4278 31.163 84.7041 26.5496 83.2915C16.5016 80.1422 6.49115 83.5603 4.18227 90.9269C1.8734 98.2936 8.13965 106.822 18.1877 109.971C28.2357 113.12 38.1864 109.692 40.4904 102.341L55.5859 54.1775C59.8624 57.6904 63.8889 61.4205 67.6382 65.343C74.2223 72.2885 71.6828 82.5311 67.5359 87.8043C63.389 93.0774 56.7257 94.9778 59.4056 96.6589C62.0855 98.3399 67.2419 95.8979 73.3277 89.4201C79.4136 82.9424 78.1887 70.1325 78.1887 70.1325C91.1496 58.4042 85.2051 43.9677 75.8706 33.3593ZM75.8124 64.7745C75.8124 64.7745 71.1081 57.7158 65.4851 49.2418C59.8621 40.7679 62.7402 34.8283 62.7402 34.8283C62.7402 34.8283 71.2927 40.9773 76.1478 47.5544C81.003 54.1315 75.8124 64.7745 75.8124 64.7745Z" fill="url(#paint1_linear_317_669)"/>
<defs>
<linearGradient id="paint0_linear_317_669" x1="199.341" y1="77.2114" x2="232.205" y2="146.223" gradientUnits="userSpaceOnUse">
<stop stop-color="#FFF176"/>
<stop offset="1" stop-color="#00E0B8"/>
</linearGradient>
<linearGradient id="paint1_linear_317_669" x1="38.6916" y1="17.0503" x2="90.683" y2="81.5404" gradientUnits="userSpaceOnUse">
<stop stop-color="#FFF176"/>
<stop offset="1" stop-color="#00E0B8"/>
</linearGradient>
</defs>
</svg>
