<?xml version="1.0" encoding="utf-8"?>
<!-- Generator: Adobe Illustrator 26.0.3, SVG Export Plug-In . SVG Version: 6.00 Build 0)  -->
<svg version="1.1" id="圖層_1" xmlns="http://www.w3.org/2000/svg" xmlns:xlink="http://www.w3.org/1999/xlink" x="0px" y="0px"
	 viewBox="0 0 158 28" style="enable-background:new 0 0 158 28;" xml:space="preserve">
<style type="text/css">
	.st0{fill-rule:evenodd;clip-rule:evenodd;fill:url(#SVGID_1_);}
</style>
<path d="M15.2,15.4v-3.6h-4v-0.4V8.3h3.4V4.8H8C8.3,4,8.4,3.2,8.6,2.4L5,1.7C4.5,4.5,3.6,7.5,2.3,9.3c0.8,0.5,2.3,1.6,3,2.2
	c0.6-0.9,1.1-1.9,1.6-3.1h0.5v3v0.5H2.9v3.6h4.2c-0.4,2.8-1.6,5.8-4.7,8c0.8,0.5,2.2,2.1,2.7,2.9c2.3-1.7,3.7-3.9,4.7-6.3
	c1.2,1.5,2.4,3.3,3.2,4.7l2.5-3.2c-0.7-0.8-3.4-3.9-4.8-5.3c0.1-0.2,0.1-0.4,0.1-0.7H15.2z M19.4,20.3V7.4h2.8v12.8H19.4z M15.8,3.9
	v21.7h3.7v-1.8h2.8v1.4h3.8V3.9H15.8z"/>
<path d="M37.8,21.9v-4.3h8.8v4.3H37.8z M37.1,7.6h7.6c-1.1,1.4-2.5,2.6-4.1,3.7c-1.1-1-2.7-2.3-4-3.3L37.1,7.6z M50.5,14.2H43
	c3.2-2.2,5.8-5.1,7.5-8.7L47.8,4l-0.6,0.2h-6.7c0.5-0.6,0.9-1.2,1.4-1.8l-4.3-0.9c-1.6,2.4-4.4,4.9-8.7,6.7c0.9,0.6,2.1,2.1,2.6,3
	c0.7-0.4,1.4-0.7,2-1.1c1.2,1,2.6,2.2,3.6,3.2c-2.6,1.2-5.6,2.2-8.6,2.8c0.7,0.8,1.6,2.4,2,3.5c1.2-0.3,2.4-0.6,3.6-1v7.8h3.8v-1
	h8.8v1h3.9V14.2z"/>
<path d="M62.2,21.1c-1.5,0.9-4.4,1.7-6.9,2c0.7,0.7,1.7,1.9,2.2,2.7c2.7-0.6,5.6-2,7.4-3.5L62.2,21.1z M69.6,22.7
	c2,0.9,4.9,2.4,6.3,3.2l2.8-2c-1.6-0.9-4.5-2.2-6.5-3L69.6,22.7z M70.4,8.6c-0.3,0.5-0.8,1.1-1.2,1.6l1,0.3h-7l1.5-0.3
	c-0.2-0.4-0.5-1-0.9-1.6H70.4z M68.8,17.5v-0.7h7.6v-2.7h-7.6v-0.7h8.8v-2.8h-4.4c0.4-0.3,0.9-0.8,1.4-1.2l-2.9-0.7h6.9V5.7h-2.9
	c0.6-0.8,1.2-1.9,1.9-3l-4-0.9c-0.3,1.1-0.9,2.6-1.5,3.7L73,5.7h-1.7V1.6h-3.6v4.1h-1.2V1.6H63v4.1h-1.9l1.2-0.4
	c-0.3-1-1.1-2.5-1.8-3.6l-3.2,1.1c0.5,0.9,1,2,1.4,2.9h-3.2v2.9h6.4L60.1,9c0.2,0.4,0.5,1,0.8,1.5h-4.3v2.8h8.6v0.7h-7.4v2.7h7.4
	v0.7h-9.7v3.1h9.7v5.8h3.7v-5.8h9.9v-3.1H68.8z"/>
<path d="M87.2,18.2v2.4h-2.1v-2.4H87.2z M87,10.6h-1.9v-2H87V10.6z M85.1,13.7h5.2V5.5h-3c0.4-1,0.9-2.3,1.4-3.5l-4.2-0.3
	c-0.1,1.1-0.3,2.6-0.5,3.8h-2.2v19.9h3.3v-1.6h5.5V15h-5.5V13.7z M101,11.4V19c0,0.2-0.1,0.3-0.3,0.3c-0.2,0-0.6,0-1,0v-8H101z
	 M105.1,6.2V2.8H90.8v3.4h5.4V8h-4.6v14.2h3.4V11.4h1.2v14.9h3.5v-6.5c0.3,0.8,0.7,1.9,0.7,2.7c1.2,0,2.2-0.1,3-0.6
	c0.8-0.5,1-1.5,1-2.9V8h-4.7V6.2H105.1z"/>
<path d="M112.3,14.4c0.1-0.8,0.3-1.6,0.4-2.4h7.9V2.6h-11.7v3.5h8v2.3h-7.5c-0.3,3.1-1,6.9-1.5,9.5l3.9,0h5.1
	c-0.3,2.5-0.6,3.9-1,4.2c-0.4,0.3-0.7,0.3-1.2,0.3c-0.8,0-2.4,0-3.9-0.2c0.8,1.1,1.4,2.7,1.4,4c1.6,0,3.1,0,4.1-0.1
	c1.2-0.1,2.1-0.4,2.9-1.3c0.9-1,1.4-3.5,1.8-8.9c0.1-0.5,0.1-1.5,0.1-1.5H112.3z M125.2,2.1v24.2h3.8V2.1H125.2z"/>
<path d="M137.8,6.8h3.6V5.6h3V2.9h-3V1.6h-3.6v1.2h-4.6v2.8h4.6V6.8z M139.4,26.3c0.6-1,1.2-2.4,1.6-3.5l-2.6-1.2
	c-0.3,1.1-1,2.4-1.6,3.2L139.4,26.3z M141.3,22.5c0.2,1.1,0.3,2.6,0.3,3.5l2.9-0.4c0-0.9-0.2-2.4-0.4-3.5L141.3,22.5z M144.5,22.4
	c0.4,1,0.8,2.3,0.9,3.2l2.7-0.9c-0.2-0.9-0.6-2.1-1-3.1L144.5,22.4z M146,10.6h-2.4V9.8h2.4V10.6z M151.8,12.6v0.8h-2.6v-0.8H151.8z
	 M143.7,12.6h2.4v0.8h-2.4V12.6z M138.1,12.9v-0.3h2.4v0.8h-2.4V12.9z M140.5,9.8v0.8h-2.4V9.8H140.5z M151.4,23.3
	c-0.2-0.5-0.6-1.2-1.1-1.8h2.4c-0.1,1.2-0.3,1.8-0.5,2c-0.2,0.2-0.4,0.2-0.7,0.2c-0.2,0-0.6,0-1,0L151.4,23.3z M142.8,6.6
	c0.1,0.2,0.2,0.5,0.4,0.7h-8.6v5.6c0,3.3-0.2,8.1-2.3,11.3c0.9,0.3,2.4,1.3,3.1,1.8c1.8-2.9,2.4-7.1,2.6-10.6h0.8v6.1h10.2l-1.4,0.5
	c0.5,0.7,1.1,1.7,1.3,2.4l1.1-0.5c0.3,0.7,0.6,1.7,0.6,2.4c1.1,0.1,2.1,0,2.7-0.1c0.7-0.1,1.3-0.3,1.8-0.8c0.6-0.6,0.9-2.1,1.1-5.2
	c0.1-0.4,0.1-1.1,0.1-1.1h-14.2v-0.7h13.7v-2.3h-13.7v-0.7h13.4v-4.8h-6.3V9.8h7.3V7.3h-10c-0.2-0.5-0.5-1.1-0.8-1.6L142.8,6.6z
	 M152,2.8V1.6h-3.6v1.2h-3v2.8h3v1.2h3.6V5.6h4.9V2.8H152z"/>
<linearGradient id="SVGID_1_" gradientUnits="userSpaceOnUse" x1="76.5541" y1="34.2472" x2="82.4485" y2="-2.1701" gradientTransform="matrix(1 0 0 -1 0 30)">
	<stop  offset="0" style="stop-color:#FFF176"/>
	<stop  offset="1" style="stop-color:#00E0B8"/>
</linearGradient>
<path class="st0" d="M15.2,15.4v-3.6h-4V8.3h3.4V4.8H8c0.1-0.3,0.2-0.7,0.3-1c0-0.2,0.1-0.3,0.1-0.5c0-0.1,0-0.2,0.1-0.3
	c0-0.2,0.1-0.4,0.1-0.6L5,1.7C4.9,2,4.9,2.3,4.8,2.7c-0.4,2.1-1.1,4.2-2,5.8C2.6,8.7,2.5,9,2.3,9.3c0.2,0.1,0.5,0.3,0.8,0.5
	c0.5,0.3,1,0.7,1.4,1c0,0,0,0,0,0c0.3,0.2,0.5,0.4,0.7,0.6c0.1-0.2,0.3-0.4,0.4-0.6c0-0.1,0.1-0.2,0.1-0.3C6,10.2,6.2,9.9,6.4,9.5
	c0.2-0.4,0.3-0.7,0.5-1.1h0.5v3.5H2.9v3.6h4.2c-0.1,0.3-0.1,0.7-0.2,1c-0.5,2.3-1.5,4.5-3.7,6.4C3,23,2.7,23.2,2.4,23.4
	c0.2,0.2,0.5,0.4,0.8,0.7c0.5,0.5,1.1,1.1,1.5,1.6c0.2,0.2,0.3,0.4,0.4,0.6c0.3-0.2,0.5-0.4,0.8-0.6c1.5-1.3,2.6-2.9,3.4-4.6
	c0.2-0.4,0.3-0.7,0.4-1.1c0.2,0.3,0.5,0.6,0.7,0.9c0.7,1,1.4,1.9,2,2.8c0.2,0.3,0.4,0.6,0.6,0.9l2.5-3.2c-0.2-0.2-0.5-0.5-0.8-1
	c-1-1.2-2.6-2.9-3.6-4c-0.1-0.1-0.1-0.1-0.2-0.2c0,0-0.1-0.1-0.1-0.1c0.1-0.2,0.1-0.4,0.1-0.7H15.2z M12.5,16.4h2.3v2.5
	C14,18.1,13.2,17.2,12.5,16.4z M15.8,25.6h3.7v-1.8h2.8v1.4h3.8V3.9H15.8V25.6z M21.2,24.8h-0.8v1.8h-5.7V24l-1.8,2.3l-0.7-1.2
	c-0.6-0.9-1.4-2.1-2.2-3.2c-1,1.9-2.3,3.7-4.3,5.1l-0.9,0.6l-0.6-0.9c-0.2-0.3-0.6-0.8-1.1-1.4c-0.5-0.5-1-1-1.3-1.2l-1.1-0.8
	l1.1-0.8c2.4-1.7,3.5-3.9,4.1-6.2h-4v-5.6h1c-0.4-0.3-0.8-0.5-1.1-0.7l-1-0.6l0.7-0.9C2.6,7.1,3.5,4.3,4,1.5l0.2-1l5.6,1.1l-0.2,1
	C9.5,3,9.4,3.4,9.3,3.8h5.4v-1h12.3v4.9l1.4-0.6c4.1-1.7,6.8-4.1,8.2-6.3l0.4-0.6l6.4,1.4l-0.8,1.2c-0.1,0.1-0.1,0.2-0.2,0.2H47
	l0.9-0.3l3.8,2.2l-0.4,0.8c-1.3,2.8-3.2,5.2-5.5,7.2h5.6v14.2h-5.9v-1h-6.8v1H33v-7.4c-0.8,0.2-1.6,0.4-2.4,0.6l-0.9,0.2l-0.3-0.8
	c-0.4-1-1.2-2.5-1.8-3.2L27.1,16v10.2h-5.8V24.8z M27.1,15.3l1.2-0.2c2.5-0.5,4.9-1.2,7.1-2.1c-0.6-0.6-1.3-1.1-1.9-1.7
	c-0.5,0.3-1,0.5-1.5,0.8l-0.8,0.4l-0.5-0.8c-0.5-0.9-1.6-2.2-2.3-2.7L27.1,8V15.3z M33.5,10.1c0.9,0.7,1.9,1.6,2.8,2.4
	c0.3,0.3,0.5,0.5,0.8,0.7c-0.3,0.2-0.6,0.3-1,0.4c-2.1,0.9-4.3,1.6-6.6,2.1c-0.4,0.1-0.7,0.2-1.1,0.2c0.2,0.2,0.4,0.6,0.6,0.9
	c0.5,0.8,1,1.9,1.3,2.6c0.9-0.2,1.7-0.4,2.6-0.7c0.3-0.1,0.7-0.2,1-0.3v7.8h3.8v-1h8.8v1h3.9V14.2H43c0.5-0.3,0.9-0.7,1.3-1
	c2.6-2.1,4.7-4.6,6.2-7.7L47.8,4l-0.6,0.2h-6.7c0.2-0.3,0.5-0.6,0.7-0.9c0,0,0-0.1,0.1-0.1c0.2-0.3,0.4-0.5,0.6-0.8l-4.3-0.9
	c-1.5,2.2-3.9,4.5-7.7,6.2c-0.3,0.2-0.7,0.3-1,0.4c0.3,0.2,0.5,0.4,0.8,0.7c0.7,0.7,1.4,1.6,1.8,2.3C32.2,10.8,32.9,10.5,33.5,10.1z
	 M14.8,9.3h-2.5v1.5h2.5V9.3z M20.4,8.4v10.8h0.8V8.4H20.4z M38.8,18.6v2.3h6.8v-2.3H38.8z M37.1,8.4c0.1,0.1,0.2,0.1,0.3,0.2
	c0,0,0,0,0,0c1.1,0.9,2.3,1.8,3.2,2.7c1.2-0.8,2.3-1.7,3.2-2.7c0.3-0.3,0.6-0.7,0.9-1h-7.6L36.6,8C36.7,8.1,36.9,8.2,37.1,8.4z
	 M39,8.6h3.4c-0.5,0.5-1.1,1-1.7,1.4C40.2,9.5,39.6,9,39,8.6z M55.4,20.5v-3.1h9.7v-0.7h-7.4v-2.7h7.4v-0.7h-8.6v-2.8h4.3
	c-0.1-0.2-0.2-0.4-0.3-0.6c-0.1-0.1-0.1-0.2-0.2-0.3c0,0,0-0.1,0-0.1c-0.1-0.2-0.2-0.4-0.3-0.5l1.8-0.4h-6.4V5.7h3.2
	c-0.1-0.3-0.3-0.7-0.4-1c-0.2-0.3-0.3-0.7-0.5-1c-0.2-0.3-0.3-0.6-0.5-0.9l3.2-1.1c0.5,0.8,1.1,1.8,1.5,2.7c0,0.1,0.1,0.1,0.1,0.2
	c0,0.1,0,0.1,0.1,0.2c0.1,0.2,0.1,0.3,0.2,0.4c0,0,0,0.1,0.1,0.1l-1.2,0.4H63V1.6h3.5v4.1h1.2V1.6h3.6v4.1H73l-0.8-0.2
	c0,0,0-0.1,0.1-0.1c0.1-0.2,0.2-0.4,0.3-0.6c0,0,0-0.1,0.1-0.1c0.4-0.9,0.8-1.9,1-2.8l4,0.9c-0.2,0.3-0.4,0.6-0.5,0.9
	c-0.2,0.4-0.5,0.7-0.7,1.1c-0.2,0.4-0.5,0.7-0.7,1h2.9v2.9h-6.9l2.9,0.7c-0.1,0.1-0.2,0.1-0.2,0.2c0,0-0.1,0.1-0.1,0.1
	c-0.2,0.2-0.4,0.4-0.6,0.5c-0.2,0.1-0.3,0.3-0.5,0.4h4.4v2.8h-8.8v0.7h7.6v2.7h-7.6v0.7h9.9v3.1h-9.9v5.8h-3.7v-5.8H55.4z
	 M62.2,21.1c-0.2,0.1-0.5,0.3-0.8,0.4c-1.3,0.6-3.1,1.1-4.9,1.4c-0.4,0.1-0.8,0.1-1.2,0.2c0.3,0.2,0.5,0.6,0.8,0.9
	c0.5,0.6,1.1,1.3,1.4,1.8c2.2-0.5,4.7-1.6,6.5-2.8c0.1,0,0.1-0.1,0.2-0.1c0.3-0.2,0.5-0.4,0.7-0.6L62.2,21.1z M64.1,24.1
	c-1.8,1.2-4.2,2.2-6.4,2.7L57,27l-0.4-0.6c-0.5-0.7-1.4-1.9-2-2.5L53,22.5l2.1-0.3c1.1-0.1,2.2-0.4,3.2-0.6h-4v-5.1h2.4v-2.1h-1.3
	V9.6h-1.1V4.7H57c-0.2-0.5-0.5-1-0.7-1.4l-0.6-1.1l5.1-1.7l0.4,0.7c0.2,0.4,0.5,0.8,0.7,1.2V0.6h10.3v2.2c0.2-0.5,0.3-0.9,0.4-1.3
	L73,0.6L79.2,2l-0.7,1.2c-0.3,0.5-0.6,1-0.9,1.5h2.1v4.9h-1v4.8h-1.2v2.1h2.3v5.1h-3.7c1.2,0.5,2.3,1.1,3.1,1.5l1.4,0.8L76,27.1
	l-0.6-0.3c-1.2-0.7-3.6-1.9-5.6-2.9v3.5h-5.7V24.1z M70.7,23.2c1.9,0.9,4.1,2,5.3,2.7l2.8-2c-0.3-0.2-0.6-0.3-1-0.5
	c-1.2-0.6-2.7-1.3-4.1-1.9c-0.5-0.2-1-0.4-1.4-0.6l-2.6,1.7c0.1,0,0.1,0.1,0.2,0.1C70.1,22.9,70.4,23,70.7,23.2z M70.4,8.6
	c-0.1,0.2-0.3,0.5-0.5,0.8c0,0-0.1,0.1-0.1,0.1c0,0,0,0.1-0.1,0.1c-0.2,0.2-0.3,0.4-0.5,0.6l1,0.3h-7l1.5-0.3
	c-0.1-0.2-0.2-0.4-0.3-0.6c0,0,0-0.1,0-0.1c0-0.1-0.1-0.2-0.1-0.3c-0.1-0.2-0.3-0.4-0.4-0.7H70.4z M88.3,2.9c-0.2,0.5-0.4,1-0.6,1.5
	c-0.1,0.3-0.3,0.7-0.4,1h3v8.3h-5.2V15h5.5v8.7h-5.5v1.6h-3.3V5.5h2.2c0.2-0.9,0.4-1.9,0.5-2.9c0-0.3,0.1-0.7,0.1-1L88.7,2
	C88.5,2.3,88.4,2.6,88.3,2.9z M83.1,4.5h-2.3v21.9h5.3v-1.6h5.5v-1.5h3.7v4.1h5.5v-3.8c1.1,0,2.3-0.1,3.3-0.8
	c1.3-0.9,1.5-2.3,1.5-3.7V7.2h0.6V1.8H89.8v2.7h-1c0.3-0.7,0.6-1.4,0.8-2.2L90,1.1l-6.5-0.5l0,1C83.4,2.4,83.3,3.5,83.1,4.5z
	 M90.8,6.2h5.4V8h-4.6v14.2h3.4V11.4h1.2v14.9h3.5v-6.5c0.1,0.2,0.1,0.3,0.2,0.5c0.3,0.7,0.5,1.6,0.5,2.2c0.1,0,0.2,0,0.3,0
	c1.1,0,2-0.1,2.7-0.6c0.8-0.5,1-1.5,1-2.9V8h-4.7V6.2h5.4V2.8H90.8V6.2z M86.2,19.6v-0.4h-0.1v0.4H86.2z M99.8,19.3c0.4,0,0.8,0,1,0
	c0.2,0,0.3-0.1,0.3-0.3v-7.7h-1.2V19.3z M108,16.9c0.5-2.5,1-5.7,1.3-8.5h7.5V6.1h-8V2.6h11.7v9.3h-7.9c-0.1,0.5-0.1,1-0.2,1.4
	c-0.1,0.3-0.1,0.7-0.2,1h8.6c0,0,0,0.5,0,1c0,0.2,0,0.4-0.1,0.5c-0.4,5.4-0.9,7.9-1.8,8.9c-0.8,0.9-1.7,1.2-2.9,1.3
	c-0.9,0.1-2.5,0.1-4.1,0.1c-0.1-0.9-0.4-2-0.8-2.9c-0.2-0.4-0.4-0.7-0.6-1c0.4,0,0.8,0.1,1.2,0.1c1.1,0.1,2.1,0.1,2.6,0.1
	c0.5,0,0.8-0.1,1.2-0.3c0.4-0.3,0.7-1.3,0.9-3.2c0-0.3,0.1-0.6,0.1-1h-5.1l-3.9,0C107.8,17.5,107.9,17.2,108,16.9z M111.7,18.8
	l-5.2,0l0.3-1.2c0.6-2.5,1.2-6.3,1.5-9.4l0.1-0.9h7.4V7.1h-8V1.6h13.7v11.3h-8c0,0.1,0,0.3-0.1,0.4h8.5l0,1v0v0l0,0l0,0
	c0,0,0,0.1,0,0.1c0,0.1,0,0.3,0,0.4c0,0.3,0,0.7-0.1,1c-0.2,2.7-0.4,4.7-0.7,6.1c-0.3,1.5-0.7,2.6-1.3,3.3c-1,1.2-2.2,1.5-3.5,1.6
	c-1,0.1-2.6,0.1-4.2,0.1l-0.9,0l-0.1-0.9c-0.1-1-0.6-2.5-1.2-3.4l-1.3-1.8l2.2,0.2c1.5,0.1,3,0.2,3.8,0.2c0.3,0,0.4,0,0.5-0.1
	c0,0,0-0.1,0.1-0.1c0.1-0.1,0.1-0.4,0.2-0.7c0.1-0.4,0.2-1,0.3-1.7H111.7z M124.2,1.1h5.8v26.2h-5.8V1.1z M125.2,26.3V2.1h3.8v24.2
	H125.2z M133.6,6.6v6.3c0,1.6,0,3.6-0.3,5.5c-0.3,1.9-0.8,3.8-1.8,5.3l-0.7,1l1.1,0.4c0.8,0.3,2.2,1.2,2.8,1.7l0.9,0.7l0.6-0.9
	c0.1-0.2,0.3-0.4,0.4-0.7l3,1.7l0.5-0.8c0.1-0.2,0.2-0.3,0.3-0.5l0,0.9l4-0.6l0,0.3l3.8-1.2v0l0,0l0.9-0.3l0-0.1l0.3-0.1
	c0.1,0.4,0.2,0.8,0.2,1.1l0.1,0.9l0.9,0c1.1,0.1,2.2,0,2.8-0.1c0.8-0.1,1.7-0.4,2.4-1.1l0,0l0,0c0.5-0.5,0.7-1.3,0.9-2.1
	c0.2-0.9,0.3-2.1,0.4-3.6c0-0.2,0-0.5,0.1-0.7c0-0.1,0-0.2,0-0.3l0-0.1l0,0v0l0-1h-0.6v-3h-0.3v-4.3h1V6.6h0.3V1.8H153V0.6h-5.6v1.2
	h-3v0h-2V0.6h-5.6v1.2h-4.6v4.8H133.6z M137.8,6.8h3.6V5.6h3V2.9h-3V1.6h-3.6v1.2h-4.6v2.8h4.6V6.8z M145.4,5.6h3v1.2h3.6V5.6h4.9
	V2.8H152V1.6h-3.6v1.2h-3V5.6z M146.5,7.3c-0.1-0.2-0.2-0.5-0.3-0.7c-0.2-0.3-0.3-0.6-0.5-0.9l-2.9,0.9c0,0,0,0,0,0
	c0.1,0.1,0.1,0.3,0.2,0.4c0,0.1,0.1,0.2,0.1,0.3h-8.6v5.6c0,3-0.2,7.3-1.8,10.5c-0.2,0.3-0.3,0.6-0.5,0.9c0.3,0.1,0.6,0.3,0.9,0.4
	c0.5,0.2,0.9,0.5,1.4,0.8c0.3,0.2,0.6,0.4,0.8,0.6c0.1-0.2,0.2-0.4,0.4-0.6c0.1-0.1,0.1-0.2,0.1-0.3c0.1-0.2,0.2-0.5,0.3-0.7
	c0.3-0.7,0.6-1.4,0.8-2.2c0.4-1.4,0.6-2.8,0.8-4.2c0.1-0.9,0.2-1.8,0.2-2.7h0.8v6.1h10.2l-1.4,0.5c0.1,0.1,0.2,0.3,0.3,0.5
	c0.1,0.1,0.2,0.3,0.2,0.4c0.1,0.2,0.3,0.5,0.4,0.7c0.2,0.3,0.3,0.6,0.4,0.8l1.1-0.5c0,0,0,0,0,0.1c0.1,0.3,0.2,0.6,0.3,0.9
	c0.1,0.5,0.2,1,0.3,1.5c1.1,0.1,2.1,0,2.7-0.1c0.7-0.1,1.3-0.3,1.8-0.8c0.6-0.6,0.9-2.1,1.1-5.2c0,0,0-0.1,0-0.1c0-0.2,0-0.5,0-0.7
	c0-0.2,0-0.3,0-0.3h-14.2v-0.7h13.7v-2.3h-13.7v-0.7h13.4v-4.8h-6.3V9.8h7.3V7.3H146.5z M152.4,23.1c0.1-0.2,0.1-0.4,0.2-0.7
	c0.1-0.3,0.1-0.6,0.1-1h-2.4c0.2,0.3,0.4,0.6,0.6,0.9c0,0,0,0,0,0.1c0,0.1,0.1,0.1,0.1,0.2c0.1,0.1,0.1,0.2,0.2,0.3
	c0.1,0.1,0.1,0.2,0.1,0.3c0,0,0,0,0,0l-0.8,0.4c0.2,0,0.4,0,0.5,0c0.2,0,0.3,0,0.4,0c0,0,0,0,0,0c0.3,0,0.5,0,0.7-0.2
	C152.3,23.4,152.3,23.3,152.4,23.1z M147.4,22.5c0-0.1-0.1-0.2-0.1-0.2c-0.1-0.2-0.2-0.4-0.2-0.5l-2.6,0.7c0,0,0,0,0,0
	c0.1,0.3,0.2,0.6,0.3,0.9c0.1,0.4,0.3,0.9,0.4,1.3c0.1,0.4,0.2,0.7,0.2,1l2.7-0.9c0,0,0-0.1,0-0.1C148,24.1,147.7,23.2,147.4,22.5z
	 M144.1,22.5c0-0.1,0-0.2-0.1-0.3l-2.7,0.4c0,0,0,0,0,0c0,0.1,0,0.2,0.1,0.3c0,0.2,0.1,0.4,0.1,0.7c0,0.3,0.1,0.5,0.1,0.8
	c0,0.3,0,0.5,0,0.7c0,0.4,0,0.7,0,1l2.9-0.4c0-0.8-0.1-2-0.3-3C144.1,22.6,144.1,22.5,144.1,22.5z M138.3,21.6
	c-0.1,0.3-0.2,0.6-0.3,0.9c0,0,0,0,0,0c0,0,0,0.1,0,0.1c-0.2,0.5-0.4,0.9-0.7,1.3c-0.2,0.3-0.4,0.6-0.6,0.8l2.7,1.5
	c0.4-0.6,0.8-1.4,1.1-2.1c0.2-0.5,0.4-1,0.5-1.4L138.3,21.6z M143.7,10.6h2.4V9.8h-2.4V10.6z M151.8,12.6h-2.6v0.8h2.6V12.6z
	 M146,12.6h-2.4v0.8h2.4V12.6z M140.5,12.6h-2.4v0.8h2.4V12.6z M140.5,9.8v0.8h-2.4V9.8H140.5z M19.4,20.3h2.8V7.4h-2.8V20.3z
	 M37.8,21.9h8.8v-4.3h-8.8V21.9z M87.2,18.2h-2.1v2.4h2.1V18.2z M87,10.6v-2h-1.9v2H87z"/>
</svg>
