<svg width="175" height="271" viewBox="0 0 175 271" fill="none" xmlns="http://www.w3.org/2000/svg">
<path d="M44.8503 269.556L45.3403 269.29C44.1223 267.344 43.5063 264.964 43.5063 262.542C43.5063 260.106 44.1223 257.74 45.3403 255.78L44.8503 255.514C43.5763 257.572 42.8063 259.812 42.8063 262.542C42.8063 265.272 43.5763 267.498 44.8503 269.556ZM50.1203 255.92V256.494H59.0943V255.92H50.1203ZM51.1283 257.992H58.0303V259.56H51.1283V257.992ZM50.4983 257.446V260.092H58.6743V257.446H50.4983ZM52.9903 256.088V259.756H53.5783V256.088H52.9903ZM55.5103 256.088V259.756H56.0983V256.088H55.5103ZM51.4783 262.85H57.8343V263.83H51.4783V262.85ZM51.4783 264.348H57.8343V265.342H51.4783V264.348ZM51.4783 261.394H57.8343V262.346H51.4783V261.394ZM50.8483 260.876V265.846H58.4783V260.876H50.8483ZM55.4963 266.504C56.7283 266.938 57.9883 267.484 58.7303 267.918L59.3183 267.498C58.5063 267.05 57.1623 266.518 55.9443 266.098L55.4963 266.504ZM53.0603 266.084C52.3463 266.574 50.9603 267.134 49.7423 267.456C49.8683 267.568 50.0363 267.778 50.1483 267.904C51.3943 267.568 52.7663 267.036 53.5783 266.448L53.0603 266.084ZM49.3223 255.262C48.6083 257.502 47.4463 259.714 46.1723 261.156C46.2983 261.324 46.4943 261.646 46.5643 261.786C47.9363 260.19 49.1683 257.838 49.9523 255.43L49.3223 255.262ZM48.1883 258.454V267.89H48.8323V257.852L48.8043 257.824L48.1883 258.454ZM64.4423 256.69V257.32H72.7303V256.69H64.4423ZM63.8403 266.784V267.4H73.2063V266.784H63.8403ZM65.2683 258.832V267.036H65.8983V259.42H71.2043V267.036H71.8483V258.832H65.2683ZM65.6603 260.848V261.408H71.4003V260.848H65.6603ZM65.6323 262.836V263.396H71.5263V262.836H65.6323ZM65.6603 264.852V265.412H71.4283V264.852H65.6603ZM68.3623 255.15C68.2223 256.284 67.9003 257.992 67.6343 258.972L68.2363 259.07C68.5303 258.104 68.8523 256.466 69.0903 255.234L68.3623 255.15ZM63.7843 255.164C63.0143 257.376 61.7543 259.518 60.4103 260.946C60.5363 261.1 60.7603 261.422 60.8303 261.562C62.2583 260.008 63.5603 257.712 64.4283 255.36L63.7843 255.164ZM62.2723 258.706V267.89H62.9163V258.076L62.8883 258.062L62.2723 258.706ZM80.9343 266.868C83.0203 266.868 84.4903 265.93 84.4903 264.236C84.4903 260.792 78.4703 261.408 78.4703 258.958C78.4703 257.88 79.4503 257.208 80.8503 257.208C82.2083 257.208 83.0063 257.74 83.7763 258.412L84.2523 257.894C83.4263 257.166 82.4883 256.508 80.8503 256.508C79.0303 256.508 77.6303 257.474 77.6303 259.014C77.6303 262.164 83.6643 261.534 83.6643 264.292C83.6643 265.454 82.7263 266.154 80.9343 266.154C79.5763 266.154 78.3583 265.566 77.5603 264.824L77.1263 265.398C77.9663 266.238 79.5063 266.868 80.9343 266.868ZM80.6403 256.858H81.2983V254.814H80.6403V256.858ZM80.6403 268.562H81.2983V266.63H80.6403V268.562ZM89.1663 266.84H94.4303V266.14H92.2883V256.634H91.6303C91.1543 256.928 90.5243 257.152 89.6843 257.292V257.838H91.4763V266.14H89.1663V266.84ZM98.9125 267.036C100.522 267.036 102.104 265.776 102.104 263.564C102.104 261.31 100.746 260.302 99.0665 260.302C98.3805 260.302 97.8485 260.484 97.3585 260.778L97.6665 257.362H101.6V256.634H96.9385L96.5885 261.296L97.1205 261.632C97.6945 261.24 98.1845 260.988 98.9125 260.988C100.34 260.988 101.264 261.982 101.264 263.606C101.264 265.244 100.158 266.322 98.8705 266.322C97.5545 266.322 96.7845 265.734 96.2105 265.132L95.7625 265.692C96.4065 266.336 97.3165 267.036 98.9125 267.036ZM103.829 269.304C104.837 268.8 105.523 267.862 105.523 266.7C105.523 265.958 105.187 265.496 104.669 265.496C104.291 265.496 103.941 265.762 103.941 266.21C103.941 266.658 104.263 266.91 104.655 266.91C104.865 266.91 105.075 266.868 105.215 266.658L104.655 265.874L104.837 266.854C104.837 267.736 104.347 268.394 103.605 268.772L103.829 269.304ZM110.115 267.036C111.949 267.036 113.111 265.3 113.111 261.716C113.111 258.16 111.949 256.452 110.115 256.452C108.239 256.452 107.091 258.16 107.091 261.716C107.091 265.3 108.239 267.036 110.115 267.036ZM110.115 266.336C108.785 266.336 107.903 264.796 107.903 261.716C107.903 258.664 108.785 257.138 110.115 257.138C111.431 257.138 112.299 258.664 112.299 261.716C112.299 264.796 111.431 266.336 110.115 266.336ZM117.607 267.036C119.441 267.036 120.603 265.3 120.603 261.716C120.603 258.16 119.441 256.452 117.607 256.452C115.731 256.452 114.583 258.16 114.583 261.716C114.583 265.3 115.731 267.036 117.607 267.036ZM117.607 266.336C116.277 266.336 115.395 264.796 115.395 261.716C115.395 258.664 116.277 257.138 117.607 257.138C118.923 257.138 119.791 258.664 119.791 261.716C119.791 264.796 118.923 266.336 117.607 266.336ZM125.099 267.036C126.933 267.036 128.095 265.3 128.095 261.716C128.095 258.16 126.933 256.452 125.099 256.452C123.223 256.452 122.075 258.16 122.075 261.716C122.075 265.3 123.223 267.036 125.099 267.036ZM125.099 266.336C123.769 266.336 122.887 264.796 122.887 261.716C122.887 258.664 123.769 257.138 125.099 257.138C126.415 257.138 127.283 258.664 127.283 261.716C127.283 264.796 126.415 266.336 125.099 266.336ZM129.861 269.556C131.135 267.498 131.905 265.272 131.905 262.542C131.905 259.812 131.135 257.572 129.861 255.514L129.343 255.78C130.575 257.74 131.191 260.106 131.191 262.542C131.191 264.964 130.575 267.344 129.343 269.29L129.861 269.556Z" fill="white"/>
<path d="M39.5588 202.7V204.22H45.9188V202.7H39.5588ZM38.6588 195.86V213.5H40.3988V197.54H45.8788V195.86H38.6588ZM44.9188 195.86V199.66C44.9188 199.88 44.8388 199.94 44.5188 199.96C44.2188 199.98 43.1588 199.98 42.0188 199.94C42.2588 200.4 42.4988 201.08 42.5788 201.58C44.0988 201.58 45.1188 201.56 45.8188 201.3C46.4988 201.04 46.6788 200.54 46.6788 199.68V195.86H44.9188ZM41.7588 203.62L40.2988 204C41.4588 208.08 43.5588 211.64 46.5988 213.4C46.8988 212.92 47.4588 212.24 47.8788 211.88C44.9388 210.44 42.7988 207.2 41.7588 203.62ZM45.3588 202.7V203.08C44.7588 206.74 42.8988 210.36 39.9188 212.28C40.3388 212.6 40.8988 213.14 41.1788 213.56C44.3988 211.38 46.3788 207.46 47.1588 203.04L45.9988 202.62L45.6788 202.7H45.3588ZM29.7988 196.9V198.5H37.5188V196.9H29.7988ZM29.1988 208.02V209.62H38.0188V208.02H29.1988ZM29.2188 200.22V201.84H37.9988V200.22H29.2188ZM29.6588 204.46V206.08H37.6188V204.46H29.6588ZM32.8388 195V200.82H34.5988V195H32.8388ZM32.8388 205.12V213.46H34.5988V205.12H32.8388ZM35.4788 201.76C35.1588 202.72 34.5188 204.08 33.9788 204.94L35.3588 205.34C35.8988 204.52 36.5188 203.3 37.0988 202.18L35.4788 201.76ZM30.4788 202.22C30.8788 202.98 31.2588 203.98 31.3588 204.62L32.8388 204.14C32.6988 203.52 32.2988 202.54 31.8788 201.8L30.4788 202.22ZM55.7988 211V212.74H65.1388V211H55.7988ZM54.9588 196.96V198.64H62.1988V196.96H54.9588ZM55.6988 194.88C54.5388 197.06 52.2788 199.58 48.9788 201.36C49.3988 201.7 50.0388 202.38 50.3188 202.84C53.8388 200.74 56.2388 198.04 57.8388 195.3L55.6988 194.88ZM61.5788 196.96V197.28C59.5988 202.44 54.2388 206.34 48.8988 207.88C49.2988 208.28 49.7788 209.06 49.9988 209.58C55.6788 207.7 61.1788 203.66 63.5588 197.54L62.2788 196.86L61.9388 196.96H61.5788ZM52.4188 200.88C53.9188 201.96 55.7588 203.58 56.5588 204.68L58.0988 203.32C57.1988 202.22 55.3188 200.7 53.8188 199.66L52.4188 200.88ZM64.2388 204.78V213.56H66.1988V204.78H64.2388ZM56.6188 204.78H56.1988L54.7188 206.22V213.52H56.6188V206.5H65.1988V204.78H56.6188ZM73.2988 203.2V204.48H75.0788V203.2H73.2988ZM77.3388 197V213.46H79.1588V197H77.3388ZM70.3588 200.16V213.48H72.1788V201.94H85.5188V200.16H70.3588ZM84.5788 200.16V211.46C84.5788 211.76 84.4988 211.84 84.1788 211.86C83.8788 211.88 82.8388 211.88 81.8588 211.84C82.0988 212.28 82.3788 213 82.4788 213.48C83.8988 213.48 84.9188 213.46 85.5788 213.18C86.2388 212.9 86.4388 212.42 86.4388 211.48V200.16H84.5788ZM74.6588 203.2C74.6588 205.6 74.8388 208.5 76.5188 210.58C76.7388 210.34 77.2388 209.94 77.5188 209.78C75.8988 207.84 75.7588 205.4 75.7588 203.2H74.6588ZM74.4788 204.26C74.1988 206.62 73.5588 208.58 72.2788 209.86C72.5588 210.04 73.0588 210.42 73.2788 210.62C74.6188 209.2 75.3988 207.04 75.7188 204.42L74.4788 204.26ZM81.4388 204.16C81.1588 206.44 80.5188 208.42 79.2788 209.72C79.5988 209.88 80.0988 210.28 80.3188 210.48C81.5788 209.04 82.3388 206.88 82.6788 204.36L81.4388 204.16ZM80.2188 203.2V204.48H82.2388V203.2H80.2188ZM81.5988 203.2C81.5988 205.58 81.7988 208.46 83.4988 210.5C83.7388 210.28 84.2788 209.9 84.5788 209.76C82.8988 207.84 82.7588 205.4 82.7588 203.2H81.5988ZM69.6788 196.12V198H87.0988V196.12H69.6788ZM90.9988 198.86V200.24H96.3188V198.86H90.9988ZM100.219 198.86V200.24H105.599V198.86H100.219ZM104.819 195.84V211.1C104.819 211.48 104.699 211.6 104.299 211.6C103.879 211.62 102.459 211.64 101.119 211.56C101.399 212.08 101.719 212.98 101.819 213.52C103.679 213.52 104.939 213.48 105.719 213.16C106.479 212.86 106.739 212.28 106.739 211.1V195.84H104.819ZM91.1388 195.84V197.4H95.6788V201.82H91.1388V203.38H97.4588V195.84H91.1388ZM105.839 195.84H99.1188V203.4H105.839V201.86H100.919V197.4H105.839V195.84ZM90.0788 195.84V213.52H91.9588V195.84H90.0788ZM116.479 205.2V206.88H127.319V205.2H116.479ZM123.279 206.18L121.919 206.7C122.979 208.9 124.859 211.28 126.579 212.58C126.859 212.12 127.459 211.48 127.879 211.14C126.179 210.1 124.279 208.06 123.279 206.18ZM118.839 200.48H125.019V202.22H118.839V200.48ZM118.839 197.28H125.019V199H118.839V197.28ZM117.159 195.76V203.74H126.779V195.76H117.159ZM120.599 206.06C119.599 208.12 117.659 210.22 115.739 211.24C116.139 211.58 116.719 212.26 116.999 212.7C118.999 211.44 120.939 209.02 122.019 206.56L120.599 206.06ZM121.079 196.54V203.02H120.979V213.52H122.819V203.02H122.719V196.54H121.079ZM109.919 201.04V202.5H115.919V201.04H109.919ZM109.919 203.7V205.16H115.919V203.7H109.919ZM109.079 198.32V199.86H116.579V198.32H109.079ZM110.739 206.42V207.96H114.399V210.82H110.739V212.36H116.059V206.42H110.739ZM109.899 206.42V213.26H111.539V206.42H109.899ZM111.299 195.6C111.839 196.44 112.479 197.62 112.759 198.36L114.279 197.5C113.959 196.78 113.339 195.7 112.759 194.88L111.299 195.6ZM140.959 204.44V212.52H142.839V204.44H140.959ZM136.139 211.4V213.06H147.499V211.4H136.139ZM137.199 207.46V209.06H146.679V207.46H137.199ZM139.139 197.52H144.699V200.9H139.139V197.52ZM137.379 195.92V202.52H146.519V195.92H137.379ZM145.739 203.04C143.599 203.64 139.879 204.02 136.739 204.2C136.919 204.6 137.119 205.24 137.179 205.64C140.399 205.52 144.319 205.14 146.919 204.46L145.739 203.04ZM132.359 196.72V213.5H134.199V196.72H132.359ZM129.259 200.6V202.36H136.539V200.6H129.259ZM132.459 201.3C131.779 203.66 130.259 206.68 128.839 208.28C129.159 208.74 129.579 209.52 129.759 210.06C131.299 208.16 132.819 204.62 133.599 201.78L132.459 201.3ZM135.479 195.22C133.959 195.9 131.359 196.48 129.079 196.86C129.299 197.26 129.539 197.9 129.639 198.3C131.999 198 134.799 197.46 136.779 196.68L135.479 195.22ZM134.139 203.26L133.279 204.02C133.899 204.76 135.279 206.64 135.759 207.52L136.859 206.02C136.459 205.56 134.639 203.68 134.139 203.26ZM28.5988 237.52V238.8H34.8988V237.52H28.5988ZM28.5988 240.22V241.64H34.8988V240.22H28.5988ZM30.9188 227.24V233H32.1788V227.24H30.9188ZM27.3788 234.62V242.46H28.9788V236.08H34.1388V242.4H35.8188V234.62H27.3788ZM27.8388 224.5C28.3188 225.22 28.8388 226.24 29.0788 226.88L30.6588 226.22C30.3988 225.58 29.8588 224.66 29.3388 223.94L27.8388 224.5ZM34.0588 223.9C33.6988 224.8 32.9788 226.08 32.4388 226.9L33.6988 227.42C34.3188 226.68 35.0988 225.54 35.7988 224.48L34.0588 223.9ZM27.9988 228.06H35.0788V232.26H27.9988V228.06ZM26.4988 226.62V233.68H36.6588V226.62H26.4988ZM28.3388 228.88C28.7588 229.8 29.2188 231 29.3988 231.74L30.4788 231.34C30.2788 230.64 29.7988 229.46 29.3588 228.58L28.3388 228.88ZM33.7388 228.6C33.4988 229.42 33.0188 230.66 32.6388 231.42L33.6588 231.74C34.0388 231 34.4788 229.94 34.8788 228.94L33.7388 228.6ZM20.8388 237.9C20.3788 239.08 19.6788 240.44 19.0188 241.38C19.3588 241.56 19.9788 241.98 20.2788 242.24C20.9388 241.24 21.7388 239.68 22.2788 238.36L20.8388 237.9ZM23.0188 238.58C23.6588 239.54 24.4188 240.88 24.7588 241.74L26.0188 240.9C25.6188 240.12 24.8788 238.86 24.2188 237.88L23.0188 238.58ZM21.3388 230.04H23.8788V232.22H21.3388V230.04ZM21.3388 233.66H23.8788V235.86H21.3388V233.66ZM21.3388 226.44H23.8788V228.6H21.3388V226.44ZM19.8388 224.9V237.4H25.4188V224.9H19.8388ZM45.0588 231.88V233.62H57.1788V231.88H45.0588ZM45.6388 227.56V229.3H56.6788V227.56H45.6388ZM50.0788 228.46V231.16C50.0788 233.22 49.7588 236.26 44.8188 238.36C45.2588 238.7 45.8588 239.32 46.0988 239.72C51.2388 237.24 51.9388 233.72 51.9388 231.18V228.46H50.0788ZM53.6988 223.96C53.2388 225.18 52.4188 226.92 51.7388 228L53.2588 228.54C53.9588 227.52 54.8588 225.94 55.5988 224.54L53.6988 223.96ZM46.5788 224.58C47.1788 225.58 47.9388 226.92 48.2988 227.72L49.9988 227C49.5988 226.22 48.7788 224.92 48.1788 223.98L46.5788 224.58ZM49.9188 234.52C51.8988 236.1 54.5988 238.36 55.8788 239.72L57.1988 238.38C55.8388 237.06 53.0988 234.9 51.1788 233.38L49.9188 234.52ZM39.8588 224.8C40.6988 225.8 41.7588 227.2 42.2388 228.04L43.7388 227.04C43.2188 226.22 42.1788 224.94 41.2988 223.96L39.8588 224.8ZM39.2388 228.6V230.14H43.5188V228.6H39.2388ZM43.0188 237.56L41.7588 238.1C43.2588 241.64 45.8188 242.2 50.4988 242.2C52.7588 242.2 55.2988 242.16 57.2788 242.04C57.3788 241.52 57.5988 240.66 57.8788 240.28C55.7388 240.48 52.6388 240.58 50.5188 240.58C46.6788 240.56 44.1788 240.22 43.0188 237.56ZM42.6788 233.54V233.84C42.1988 237.4 40.8588 239.94 38.8788 241.3C39.2388 241.56 39.8788 242.2 40.1188 242.58C42.2188 241.02 43.7588 238.12 44.3588 233.82L43.5388 233.5L43.2388 233.54H42.6788ZM39.5788 235.32C39.7388 235.16 40.2788 235.04 40.7788 235.04H43.4188V233.54H40.3588L39.5788 233.94V235.32ZM39.5788 235.32C39.5788 234.88 40.9188 234.24 40.9188 234.24C42.0388 232.94 43.7988 230.42 44.7388 229.04L43.5388 228.5L43.0188 228.72V228.78C42.3588 229.86 40.5188 232.5 39.9188 233.1C39.5588 233.5 39.2388 233.64 38.9188 233.72C39.0988 234.08 39.4588 234.92 39.5788 235.32ZM61.7588 232.18V233.68H66.7588V232.18H61.7588ZM59.8788 225.94V227.56H66.0588V225.94H59.8788ZM59.0588 229.26V230.9H68.7988V229.26H59.0588ZM62.3588 223.96V230.1H64.1188V223.96H62.3588ZM67.4388 224.44C65.7788 228.58 62.7188 231.88 58.8788 233.8C59.2588 234.14 59.9188 234.88 60.1788 235.24C64.0588 233.04 67.2788 229.52 69.1788 224.96L67.4388 224.44ZM63.1988 235.3V240.6C63.1988 240.82 63.1188 240.88 62.8588 240.9C62.5988 240.9 61.7388 240.92 60.8388 240.88C61.0788 241.36 61.3188 242.02 61.3988 242.5C62.6788 242.5 63.5788 242.5 64.1988 242.22C64.8188 241.98 64.9788 241.52 64.9788 240.64V235.3H63.1988ZM66.2588 232.18V232.5C65.6188 233.36 64.3188 234.58 63.1988 235.3C63.4788 235.52 63.9188 235.98 64.1188 236.28C65.4588 235.46 66.9988 234.12 68.0588 232.9L66.9988 232.08L66.6388 232.18H66.2588ZM59.0588 237L59.2788 238.7C61.7788 238.42 65.3788 237.98 68.7588 237.56L68.7388 235.94C65.2188 236.34 61.4988 236.76 59.0588 237ZM70.4188 227.66V229.42H77.6388V227.66H70.4188ZM70.8388 223.96C70.2788 227.42 69.2188 230.74 67.5588 232.8C67.9988 233.1 68.7788 233.78 69.0988 234.12C70.8388 231.78 72.0588 228.12 72.7588 224.26L70.8388 223.96ZM74.5388 228.68C73.8188 234.84 71.9788 238.76 67.2988 240.9C67.6588 241.3 68.2188 242.16 68.4188 242.6C73.4588 240.04 75.5588 235.74 76.4788 228.86L74.5388 228.68ZM71.4188 229.08L69.7188 229.36C70.6988 235.4 72.5188 240.16 76.4988 242.52C76.7788 242 77.3788 241.26 77.8188 240.88C74.1188 238.94 72.2788 234.4 71.4188 229.08ZM90.2388 239.34C92.4388 240.34 94.7788 241.62 96.1388 242.56L97.6788 241.16C96.1988 240.26 93.6988 239 91.4588 238.02L90.2388 239.34ZM79.3188 236.46V238.16H97.4388V236.46H79.3188ZM83.1988 227.88V229.28H93.3788V227.88H83.1988ZM83.1988 230.7V232.08H93.3788V230.7H83.1988ZM83.1988 233.54V234.92H93.3788V233.54H83.1988ZM84.7788 238.12C83.5388 239.16 81.0788 240.46 79.0588 241.18C79.4988 241.54 80.1188 242.16 80.4388 242.54C82.4588 241.78 84.9188 240.5 86.5188 239.28L84.7788 238.12ZM82.4988 224.92V237.26H84.3188V226.44H92.5188V237.26H94.4188V224.92H82.4988ZM106.319 240.44V242.16H117.599V240.44H106.319ZM109.259 230.06V231.78H115.099V230.06H109.259ZM109.259 235.22V236.88H115.099V235.22H109.259ZM107.999 224.98V241.32H109.739V226.7H114.499V241.32H116.299V224.98H107.999ZM104.419 232C104.939 233.38 105.459 235.18 105.639 236.28L107.179 235.76C106.959 234.7 106.379 232.92 105.839 231.56L104.419 232ZM102.379 237.2C102.599 238.58 102.819 240.38 102.859 241.56L104.419 241.24C104.359 240.06 104.119 238.28 103.859 236.9L102.379 237.2ZM99.9388 236.98C99.7788 238.6 99.5188 240.4 99.0588 241.6C99.4588 241.7 100.219 241.96 100.579 242.14C100.999 240.9 101.359 239 101.519 237.24L99.9388 236.98ZM99.5788 231.66C99.5788 231.3 100.679 230.74 100.679 230.74V230.7C102.059 229.12 103.499 226.82 104.579 224.58L102.899 223.88C102.039 226.04 100.619 228.32 100.179 228.9C99.7388 229.5 99.3788 229.9 98.9988 230C99.1988 230.46 99.4788 231.28 99.5788 231.66ZM99.5788 231.66C99.9388 231.48 100.559 231.34 103.839 231C103.859 230.62 103.919 229.96 104.019 229.5L100.359 229.78L99.5388 230.32L99.5788 231.66ZM99.7188 236.22C99.7188 235.88 100.859 235.32 100.859 235.32V235.26C102.899 233.34 104.959 230.62 106.579 227.92L104.979 226.94C103.599 229.64 101.419 232.46 100.699 233.18C100.059 233.9 99.5988 234.38 99.1188 234.48C99.3388 234.96 99.6188 235.86 99.7188 236.22ZM99.7188 236.22C100.159 235.98 100.899 235.82 105.859 235.1C105.839 234.74 105.879 234.06 105.939 233.6L100.499 234.28L99.6588 234.86L99.7188 236.22ZM104.659 236.8C105.019 237.86 105.439 239.26 105.579 240.18L107.079 239.68C106.879 238.78 106.459 237.4 106.059 236.36L104.659 236.8ZM123.339 230.46V232.22H133.399V230.46H123.339ZM123.019 239.72V241.48H133.579V239.72H123.019ZM122.179 234.32V242.48H124.099V236H132.819V242.42H134.839V234.32H122.179ZM128.619 223.9C126.539 227 122.799 229.58 119.039 231.06C119.579 231.52 120.119 232.24 120.419 232.76C124.259 231.02 127.979 228.18 130.299 224.74L128.619 223.9ZM129.139 225.16L127.519 225.98C130.399 229.18 133.279 231 136.519 232.54C136.779 231.94 137.339 231.24 137.819 230.8C134.639 229.54 131.719 227.88 129.139 225.16ZM144.279 223.86C143.139 226.56 141.139 229.14 138.959 230.74C139.419 231.06 140.179 231.78 140.519 232.14C142.699 230.34 144.859 227.48 146.199 224.44L144.279 223.86ZM143.899 226.62L142.999 228.42H154.779V226.62H143.899ZM154.059 226.62V227C153.899 233.2 153.699 235.38 153.319 235.88C153.139 236.12 152.959 236.18 152.659 236.16C152.319 236.18 151.599 236.16 150.799 236.1C151.079 236.58 151.279 237.34 151.319 237.88C152.239 237.94 153.099 237.92 153.639 237.86C154.199 237.76 154.619 237.6 154.999 237.06C155.559 236.34 155.759 233.98 155.959 227.46C155.979 227.22 155.979 226.62 155.979 226.62H154.059ZM142.199 230.22V239C142.199 241.5 143.199 242.12 146.579 242.12C147.339 242.12 152.899 242.12 153.739 242.12C156.619 242.12 157.299 241.34 157.659 238.62C157.119 238.52 156.299 238.22 155.839 237.94C155.619 239.94 155.339 240.34 153.639 240.34C152.399 240.34 147.539 240.34 146.539 240.34C144.419 240.34 144.059 240.1 144.059 238.98V230.22H142.199ZM142.779 230.22V231.9H148.679V234.7H142.779V236.38H150.539V230.22H142.779Z" fill="url(#paint0_linear_103_465)"/>
<path d="M90.1392 165.764H20.1275C15.9053 165.764 15.4731 165.153 15.2471 161.014C14.8581 153.779 15.9353 146.838 18.0896 139.916C21.3642 129.401 24.1968 118.745 27.2287 108.153C28.0865 105.161 28.6716 104.732 31.8 104.732H148.349C151.59 104.732 152.085 105.108 153.003 108.323C156.816 121.621 160.939 134.866 164.267 148.297C165.453 153.085 164.832 158.354 164.729 163.401C164.729 164.189 163.153 165.116 162.136 165.658C161.491 165.991 160.53 165.764 159.709 165.764H90.1392ZM21.454 159.568H158.655V153.69H21.454V159.568ZM147.351 110.8H38.11C32.5181 110.8 32.5181 110.8 31.3013 116.272C31.2915 116.442 31.3026 116.613 31.3346 116.781H149.047L147.351 110.8ZM78.603 147.33C79.6236 139.188 80.621 131.246 81.6317 123.204H74.6135C73.5663 128.067 72.4825 132.778 71.5616 137.522C71.1194 139.796 69.9525 140.9 67.6419 140.96C67.0967 140.977 66.2091 141.326 66.0827 141.715C65.5076 143.503 65.1452 145.372 64.6765 147.33H78.603ZM41.3282 147.406C46.8801 147.406 52.0764 147.43 57.286 147.366C57.5448 147.323 57.7892 147.217 57.9982 147.059C58.2073 146.9 58.3747 146.693 58.4862 146.455C59.0247 144.723 59.407 142.941 59.8525 141.156C55.2746 140.491 54.5333 139.624 55.2647 135.99C55.3644 135.481 55.4907 134.976 55.5971 134.467C56.3751 130.73 57.1497 126.994 57.9675 123.054C56.6377 123.054 55.5805 123.177 54.5698 123.027C52.7812 122.761 52.123 123.593 51.7672 125.222C50.986 128.776 50.0485 132.293 49.1674 135.824C47.9906 140.515 47.9872 140.511 43.2431 141.033C43.1134 141.033 42.9971 141.189 42.8375 141.299C42.3554 143.207 41.88 145.146 41.3282 147.406ZM119.252 147.303C118.012 139.098 116.819 131.183 115.595 123.197H108.946C109.395 127.851 109.864 132.353 110.239 136.858C110.459 139.474 109.485 140.591 106.955 140.917C106.469 140.98 105.987 141.076 105.425 141.173C105.681 143.291 105.921 145.259 106.17 147.303H119.252ZM87.8053 123.16C86.7914 131.232 85.7907 139.228 84.79 147.204H99.9665C99.8103 145.658 99.674 144.328 99.5377 142.995C99.5377 142.845 99.5011 142.695 99.4978 142.549C99.4978 141.352 98.9592 140.933 97.7092 140.887C94.7503 140.777 94.0023 139.89 93.7363 136.934C93.3241 132.356 92.862 127.782 92.4065 123.16H87.8053ZM144.323 123.16C144.419 123.775 144.462 124.274 144.582 124.756C145.533 128.653 146.54 132.536 147.444 136.442C148.083 139.198 147.168 140.431 144.349 140.93C144.017 140.99 143.684 141.113 143.282 141.233C143.714 143.021 144.073 144.69 144.545 146.326C144.662 146.735 145.14 147.323 145.463 147.343C149.506 147.413 153.548 147.39 157.804 147.39L150.872 123.16H144.323ZM35.6099 123.253C29.4761 122.569 29.4761 122.569 27.9369 128.011C27.7108 128.796 27.4615 129.577 27.2387 130.365C25.6729 135.93 24.0771 141.502 22.4414 147.267H35.0348C35.5335 145.212 36.0322 143.174 36.5342 141.113C32.3053 140.448 31.5806 139.368 32.5447 135.504C33.5421 131.472 34.5594 127.436 35.6099 123.25V123.253ZM138.455 147.32C138.029 145.588 137.551 144.095 137.315 142.562C137.112 141.233 136.493 140.824 135.223 140.9C132.823 141.07 131.526 139.87 131.018 137.522C130.276 134.108 129.385 130.72 128.544 127.326C127.414 122.771 127.407 122.768 122.71 123.067C122.41 123.126 122.115 123.208 121.829 123.313C123.029 131.292 124.229 139.271 125.436 147.307L138.455 147.32ZM103.906 134.633C103.527 130.704 103.165 126.92 102.806 123.197H98.5868C98.9592 127.107 99.3149 130.843 99.6773 134.633H103.906ZM65.9165 134.633C66.731 130.75 67.5189 127.01 68.3335 123.134H64.2376L61.7941 134.633H65.9165ZM43.1567 134.673C44.1075 130.807 45.0317 127.027 45.9858 123.154H41.9199C40.9691 127.017 40.0416 130.78 39.0841 134.673H43.1567ZM140.745 134.653C139.974 131.581 139.263 128.772 138.565 125.956C137.737 122.632 137.567 122.535 133.864 123.37C134.788 127.113 135.712 130.857 136.653 134.653H140.745Z" fill="url(#paint1_linear_103_465)"/>
<path d="M101.356 80.2275C101.988 84.054 102.513 87.6578 103.251 91.2218C103.358 91.7371 104.461 92.372 105.123 92.392C108.62 92.5117 112.128 92.392 115.632 92.4784C118.085 92.5383 119.502 94.1407 119.006 96.1354C118.524 98.077 117.105 98.569 115.266 98.5623C106.469 98.5291 97.6726 98.5623 88.8758 98.5623C80.8271 98.5623 72.7751 98.5623 64.723 98.5623C62.2063 98.5623 60.6438 96.9001 61.1824 94.8555C61.6644 93.0403 63.0508 92.4751 64.7729 92.4751C68.1273 92.4751 71.4818 92.4119 74.8363 92.495C76.2758 92.5349 76.9906 92.1626 77.1901 90.6067C77.6222 87.229 78.2273 83.8745 78.8058 80.2474H28.9077C25.2905 80.2474 24.4162 79.3764 24.4162 75.7925C24.4162 52.2991 24.4162 28.8111 24.4162 5.32873C24.4162 1.71162 25.2573 0.867188 28.891 0.867188C69.6721 0.867188 110.453 0.867188 151.234 0.867188C154.998 0.867188 155.816 1.68835 155.816 5.47501C155.816 28.8133 155.816 52.1528 155.816 75.4933C155.816 79.4528 155.031 80.2507 151.161 80.2507H101.356V80.2275ZM116.007 43.8336H30.7428V73.9773H116.007V43.8336ZM30.6597 37.3109H115.918V7.07412H30.6597V37.3109ZM149.552 74.0272V7.0176H122.337V74.0272H149.552ZM95.1293 80.2308C92.0076 80.2308 89.1119 80.1942 86.2195 80.2674C85.7707 80.2674 85.016 80.7527 84.9496 81.1118C84.2647 84.7987 83.6962 88.5023 83.0778 92.2923H97.1307C96.4492 88.1765 95.7976 84.2568 95.1293 80.2308Z" fill="url(#paint2_linear_103_465)"/>
<path d="M18.2658 92.4684C18.2725 93.6782 18.0383 94.8771 17.5769 95.9955C17.1155 97.1138 16.4362 98.1291 15.5784 98.9822C14.7207 99.8353 13.7017 100.509 12.5809 100.964C11.46 101.42 10.2598 101.647 9.05012 101.634C6.62008 101.604 4.30149 100.61 2.60439 98.8706C0.907298 97.1312 -0.0292805 94.7887 0.000698132 92.3587C0.0306768 89.9287 1.02476 87.6101 2.76425 85.913C4.50374 84.2159 6.84615 83.2793 9.27619 83.3093C11.6814 83.3365 13.9778 84.3156 15.6626 86.0322C17.3475 87.7489 18.2835 90.0632 18.2658 92.4684ZM9.18643 95.4605C9.59828 95.4967 10.0132 95.4471 10.4049 95.3149C10.7966 95.1827 11.1567 94.9707 11.4624 94.6924C11.7682 94.4141 12.0129 94.0754 12.1812 93.6977C12.3494 93.3201 12.4376 92.9117 12.4402 92.4982C12.4427 92.0848 12.3595 91.6753 12.1959 91.2956C12.0322 90.916 11.7917 90.5743 11.4894 90.2923C11.1871 90.0102 10.8297 89.7938 10.4396 89.6568C10.0495 89.5198 9.63527 89.4652 9.223 89.4963C8.81114 89.4601 8.39626 89.5097 8.00452 89.6419C7.61279 89.7741 7.2527 89.9861 6.94698 90.2644C6.64126 90.5427 6.39654 90.8814 6.22827 91.2591C6.05999 91.6367 5.9718 92.0451 5.96927 92.4586C5.96673 92.872 6.0499 93.2815 6.21354 93.6611C6.37717 94.0408 6.61772 94.3825 6.92 94.6645C7.22229 94.9466 7.57974 95.163 7.96983 95.3C8.35991 95.437 8.77416 95.4916 9.18643 95.4605Z" fill="url(#paint3_linear_103_465)"/>
<path d="M174.057 83.2258C174.061 83.824 173.887 84.4099 173.557 84.9086C173.226 85.4074 172.755 85.7965 172.203 86.0264C171.65 86.2562 171.042 86.3163 170.455 86.1991C169.869 86.0819 169.33 85.7926 168.908 85.3681C168.487 84.9437 168.201 84.4033 168.088 83.8159C167.975 83.2284 168.039 82.6206 168.272 82.0698C168.506 81.519 168.898 81.0502 169.399 80.7232C169.9 80.3962 170.487 80.2258 171.085 80.2337C171.869 80.2581 172.614 80.5817 173.167 81.1382C173.72 81.6947 174.038 82.4417 174.057 83.2258Z" fill="url(#paint4_linear_103_465)"/>
<path d="M67.2297 55.5757C72.2165 56.1941 73.2139 56.7626 73.2438 58.8205C73.2737 60.8784 72.4493 61.3006 67.233 62.145C67.233 63.784 67.2596 65.4696 67.233 67.1618C67.1798 69.6452 66.0595 71.0415 64.1745 71.0582C62.2894 71.0748 61.1358 69.6319 61.1092 67.2083C61.0893 65.5128 61.1092 63.8173 61.1092 62.0121C58.5792 61.6065 55.002 62.677 55.1018 58.7174C55.1915 55.1136 58.4961 56.0046 61.1092 55.6456C61.1092 53.8869 61.1092 52.1382 61.1092 50.3894C61.1391 48.1155 62.2562 46.6992 64.0381 46.6294C65.9232 46.5529 67.1665 47.9825 67.2297 50.3861C67.2563 52.1016 67.2297 53.8038 67.2297 55.5757Z" fill="url(#paint5_linear_103_465)"/>
<path d="M45.916 52.6107C48.2765 53.1094 51.7805 51.8993 51.7805 55.7857C51.7805 59.6122 48.3629 58.6016 45.8362 58.9673C45.8362 61.7399 45.8529 64.3962 45.8362 67.0559C45.8163 69.6457 44.6394 71.1185 42.6879 71.0686C40.8128 71.0221 39.6958 69.5992 39.6759 67.1357C39.6526 64.476 39.6759 61.8164 39.6759 59.067C37.2489 58.4686 33.6019 59.712 33.7449 55.6427C33.8745 51.9558 37.1824 53.0363 39.4963 52.6972C39.9451 50.2569 38.9478 46.6797 42.8209 46.7495C46.5078 46.8127 45.68 50.1905 45.916 52.6107Z" fill="url(#paint6_linear_103_465)"/>
<path d="M82.3863 65.1007C77.712 64.725 76.1993 64.0368 76.4653 62.0687C76.6083 60.9849 77.6222 59.6983 78.603 59.1365C79.5837 58.5746 81.0332 58.804 82.5027 58.6444C82.5027 55.8418 82.4827 53.0991 82.5027 50.3597C82.526 48.0524 83.643 46.6794 85.4516 46.6428C87.2601 46.6062 88.4869 47.9726 88.5268 50.2433C88.5733 52.986 88.5268 55.7354 88.5268 58.5813C90.9504 59.2063 94.6173 58.0227 94.5475 61.9723C94.4777 65.7257 91.0867 64.7716 88.703 65.0508C88.2575 67.4744 89.3014 70.9619 85.5247 70.9752C81.748 70.9885 82.7055 67.5675 82.3863 65.1007Z" fill="url(#paint7_linear_103_465)"/>
<path d="M109.897 64.9644C109.894 65.7536 109.589 66.5115 109.043 67.0814C108.497 67.6514 107.753 67.9897 106.965 68.0263C106.154 68.0263 105.376 67.7041 104.802 67.1305C104.228 66.5569 103.906 65.779 103.906 64.9678C103.906 64.1566 104.228 63.3786 104.802 62.805C105.376 62.2314 106.154 61.9092 106.965 61.9092C107.751 61.9474 108.493 62.2853 109.039 62.8534C109.584 63.4216 109.891 64.177 109.897 64.9644Z" fill="url(#paint8_linear_103_465)"/>
<path d="M109.9 51.8023C109.9 52.3955 109.724 52.9753 109.394 53.4681C109.063 53.9608 108.594 54.3442 108.045 54.5697C107.497 54.7952 106.893 54.8524 106.312 54.7343C105.731 54.6161 105.198 54.3278 104.781 53.906C104.364 53.4842 104.081 52.948 103.97 52.3654C103.858 51.7828 103.922 51.1802 104.154 50.6341C104.385 50.088 104.774 49.623 105.27 49.2983C105.767 48.9735 106.348 48.8037 106.941 48.8102C107.333 48.8093 107.721 48.8863 108.083 49.0368C108.444 49.1872 108.772 49.4081 109.048 49.6866C109.323 49.9651 109.54 50.2955 109.687 50.6588C109.833 51.022 109.906 51.4107 109.9 51.8023Z" fill="url(#paint9_linear_103_465)"/>
<path d="M94.6672 20.6816C94.6672 23.0653 94.6971 25.449 94.6672 27.8294C94.634 29.9272 93.4571 31.2936 91.7316 31.3534C90.0062 31.4132 88.6232 30.11 88.5933 28.0288C88.5157 23.1152 88.5157 18.2015 88.5933 13.2878C88.6265 11.2199 90.0228 9.90009 91.7616 9.9832C93.5003 10.0663 94.634 11.436 94.6672 13.5405C94.6971 15.9142 94.6672 18.2979 94.6672 20.6816Z" fill="url(#paint10_linear_103_465)"/>
<path d="M57.9941 20.8312C57.9941 23.2116 58.034 25.5953 57.9941 27.9756C57.9509 30.0468 56.6842 31.4498 54.9322 31.3334C52.9741 31.2038 51.97 30.0036 51.9401 28.0953C51.9002 23.1085 51.8769 18.1217 51.9567 13.1349C51.99 11.1933 53.3497 9.93664 55.0153 9.96988C56.6809 10.0031 57.9276 11.323 57.9742 13.2379C58.0373 15.7679 57.9941 18.3012 57.9941 20.8312Z" fill="url(#paint11_linear_103_465)"/>
<path d="M42.761 20.6017C42.761 19.1123 42.7012 17.6096 42.761 16.1302C42.8541 14.3117 43.8648 13.1614 45.69 13.0816C47.5151 13.0018 48.722 14.1388 48.8017 15.9174C48.9541 19.1196 48.9452 22.3274 48.7751 25.5287C48.6721 27.3007 47.4453 28.3712 45.567 28.2349C43.8315 28.1085 42.8741 27.0015 42.771 25.2993C42.6912 23.7401 42.7644 22.1709 42.761 20.6017Z" fill="url(#paint12_linear_103_465)"/>
<path d="M97.7757 20.6983C97.7757 19.1324 97.7158 17.5632 97.7923 16.004C97.8787 14.2719 98.8894 13.1981 100.592 13.0884C102.427 12.9687 103.673 14.0126 103.757 15.8278C103.906 19.026 103.906 22.2375 103.757 25.4358C103.683 27.2343 102.506 28.3281 100.645 28.2384C98.783 28.1486 97.8322 26.9983 97.7657 25.1698C97.7125 23.6837 97.7657 22.1777 97.7657 20.6983H97.7757Z" fill="url(#paint13_linear_103_465)"/>
<path d="M61.0992 20.545C61.0992 19.0523 61.0328 17.5529 61.1159 16.0702C61.2189 14.2417 62.2628 13.1346 64.088 13.0781C65.8201 13.0249 67.0236 14.0755 67.1034 15.7544C67.253 19.0257 67.2596 22.3137 67.1034 25.585C67.0203 27.2639 65.8334 28.2979 64.078 28.2447C62.2296 28.1815 61.2223 27.0611 61.1225 25.2526C61.0328 23.6801 61.0992 22.1109 61.0992 20.545Z" fill="url(#paint14_linear_103_465)"/>
<path d="M79.4275 20.6382C79.4275 19.2219 79.4275 17.8023 79.4275 16.3861C79.4275 14.4578 80.3883 13.2677 82.3198 13.0615C84.0054 12.8887 85.4083 14.1653 85.4815 16.1002C85.5945 19.1554 85.5978 22.2173 85.4815 25.2693C85.4017 27.2141 83.9987 28.4143 82.2733 28.2381C80.4315 28.0519 79.5006 26.9083 79.4441 25.103C79.3942 23.6203 79.4308 22.1276 79.4275 20.6382Z" fill="url(#paint15_linear_103_465)"/>
<path d="M113.035 20.6015C112.999 21.3395 113.245 22.3037 112.872 22.7724C112.118 23.7166 111.047 24.97 110.067 25.0098C109.086 25.0497 107.663 23.946 107.187 22.9752C106.652 21.8814 106.835 20.3654 106.938 19.0523C107.088 17.134 108.444 15.9737 110.176 16.1499C112.015 16.3328 112.892 17.4797 112.995 19.2683C113.022 19.7105 112.995 20.156 112.995 20.5982L113.035 20.6015Z" fill="url(#paint16_linear_103_465)"/>
<path d="M76.309 20.6981C76.349 21.2892 76.349 21.8823 76.309 22.4734C76.0863 24.0559 75.1953 25.0466 73.5597 25.1596C71.8276 25.2793 70.6673 24.4282 70.3947 22.7294C70.2108 21.4842 70.1862 20.2207 70.3215 18.9693C70.4944 17.1841 71.545 16.0936 73.4034 16.1601C75.2618 16.2266 76.196 17.3337 76.329 19.1522C76.3689 19.6675 76.329 20.1895 76.329 20.7081L76.309 20.6981Z" fill="url(#paint17_linear_103_465)"/>
<path d="M39.636 20.7346C39.6759 21.3246 39.6759 21.9166 39.636 22.5066C39.3933 24.2154 38.376 25.1662 36.6439 25.1662C35.0182 25.1662 33.9377 24.3018 33.7415 22.6894C33.5878 21.364 33.5878 20.0253 33.7415 18.6999C33.9344 16.9778 35.0714 16.0902 36.7935 16.1434C38.4159 16.1966 39.3866 17.1407 39.6326 18.7265C39.6883 19.3901 39.6938 20.0569 39.6493 20.7213L39.636 20.7346Z" fill="url(#paint18_linear_103_465)"/>
<path d="M132.826 37.4804C131.334 37.4804 129.834 37.5635 128.358 37.4571C126.423 37.3175 125.093 35.981 125.26 34.3254C125.449 32.4237 126.59 31.3865 128.534 31.3798C131.44 31.3632 134.349 31.3266 137.251 31.3798C139.246 31.4231 140.466 32.6166 140.426 34.3719C140.38 36.3667 139.17 37.3308 137.295 37.4471C135.808 37.5568 134.316 37.4837 132.826 37.4804Z" fill="url(#paint19_linear_103_465)"/>
<path d="M133.126 13.0451C134.542 13.0451 135.961 12.9952 137.374 13.0451C139.193 13.1249 140.337 14.0824 140.413 15.9441C140.489 17.8059 139.416 18.9894 137.617 19.0758C134.495 19.2321 131.357 19.2288 128.235 19.0991C126.327 19.0193 125.05 17.52 125.266 15.8643C125.502 14.0724 126.596 13.095 128.431 13.0285H133.126V13.0451Z" fill="url(#paint20_linear_103_465)"/>
<path d="M132.723 28.271C131.234 28.271 129.731 28.3242 128.255 28.271C126.393 28.1879 125.33 27.0609 125.293 25.2789C125.256 23.5934 126.264 22.36 127.999 22.2868C131.27 22.1672 134.552 22.1572 137.82 22.3068C139.542 22.3866 140.479 23.6133 140.43 25.3454C140.38 27.0775 139.366 28.1281 137.637 28.2411C136.005 28.3475 134.362 28.2644 132.723 28.2644V28.271Z" fill="url(#paint21_linear_103_465)"/>
<defs>
<linearGradient id="paint0_linear_103_465" x1="40.7374" y1="196.521" x2="67.2937" y2="265.496" gradientUnits="userSpaceOnUse">
<stop stop-color="#FFF176"/>
<stop offset="1" stop-color="#00E0B8"/>
</linearGradient>
<linearGradient id="paint1_linear_103_465" x1="39.1161" y1="112.826" x2="66.7724" y2="185.784" gradientUnits="userSpaceOnUse">
<stop stop-color="#FFF176"/>
<stop offset="1" stop-color="#00E0B8"/>
</linearGradient>
<linearGradient id="paint2_linear_103_465" x1="45.42" y1="13.8061" x2="107.81" y2="104.099" gradientUnits="userSpaceOnUse">
<stop stop-color="#FFF176"/>
<stop offset="1" stop-color="#00E0B8"/>
</linearGradient>
<linearGradient id="paint3_linear_103_465" x1="2.91977" y1="85.7357" x2="15.4014" y2="99.1221" gradientUnits="userSpaceOnUse">
<stop stop-color="#FFF176"/>
<stop offset="1" stop-color="#00E0B8"/>
</linearGradient>
<linearGradient id="paint4_linear_103_465" x1="168.996" y1="81.0312" x2="173.098" y2="85.445" gradientUnits="userSpaceOnUse">
<stop stop-color="#FFF176"/>
<stop offset="1" stop-color="#00E0B8"/>
</linearGradient>
<linearGradient id="paint5_linear_103_465" x1="58.0001" y1="49.8623" x2="74.2702" y2="62.8642" gradientUnits="userSpaceOnUse">
<stop stop-color="#FFF176"/>
<stop offset="1" stop-color="#00E0B8"/>
</linearGradient>
<linearGradient id="paint6_linear_103_465" x1="36.6244" y1="49.9697" x2="52.8163" y2="62.8926" gradientUnits="userSpaceOnUse">
<stop stop-color="#FFF176"/>
<stop offset="1" stop-color="#00E0B8"/>
</linearGradient>
<linearGradient id="paint7_linear_103_465" x1="79.3313" y1="49.8648" x2="95.5437" y2="62.85" gradientUnits="userSpaceOnUse">
<stop stop-color="#FFF176"/>
<stop offset="1" stop-color="#00E0B8"/>
</linearGradient>
<linearGradient id="paint8_linear_103_465" x1="104.864" y1="62.7193" x2="109.035" y2="67.1145" gradientUnits="userSpaceOnUse">
<stop stop-color="#FFF176"/>
<stop offset="1" stop-color="#00E0B8"/>
</linearGradient>
<linearGradient id="paint9_linear_103_465" x1="104.873" y1="49.6026" x2="108.947" y2="53.9873" gradientUnits="userSpaceOnUse">
<stop stop-color="#FFF176"/>
<stop offset="1" stop-color="#00E0B8"/>
</linearGradient>
<linearGradient id="paint10_linear_103_465" x1="89.5174" y1="12.8106" x2="97.7583" y2="15.3598" gradientUnits="userSpaceOnUse">
<stop stop-color="#FFF176"/>
<stop offset="1" stop-color="#00E0B8"/>
</linearGradient>
<linearGradient id="paint11_linear_103_465" x1="52.8799" y1="12.7996" x2="61.0793" y2="15.3214" gradientUnits="userSpaceOnUse">
<stop stop-color="#FFF176"/>
<stop offset="1" stop-color="#00E0B8"/>
</linearGradient>
<linearGradient id="paint12_linear_103_465" x1="43.7208" y1="15.0866" x2="51.3342" y2="18.4221" gradientUnits="userSpaceOnUse">
<stop stop-color="#FFF176"/>
<stop offset="1" stop-color="#00E0B8"/>
</linearGradient>
<linearGradient id="paint13_linear_103_465" x1="98.7214" y1="15.0875" x2="106.292" y2="18.3789" gradientUnits="userSpaceOnUse">
<stop stop-color="#FFF176"/>
<stop offset="1" stop-color="#00E0B8"/>
</linearGradient>
<linearGradient id="paint14_linear_103_465" x1="62.0562" y1="15.0854" x2="69.6428" y2="18.3915" gradientUnits="userSpaceOnUse">
<stop stop-color="#FFF176"/>
<stop offset="1" stop-color="#00E0B8"/>
</linearGradient>
<linearGradient id="paint15_linear_103_465" x1="80.4007" y1="15.0602" x2="87.9984" y2="18.3659" gradientUnits="userSpaceOnUse">
<stop stop-color="#FFF176"/>
<stop offset="1" stop-color="#00E0B8"/>
</linearGradient>
<linearGradient id="paint16_linear_103_465" x1="107.823" y1="17.3082" x2="113.661" y2="21.7361" gradientUnits="userSpaceOnUse">
<stop stop-color="#FFF176"/>
<stop offset="1" stop-color="#00E0B8"/>
</linearGradient>
<linearGradient id="paint17_linear_103_465" x1="71.2124" y1="17.351" x2="77.0726" y2="21.6262" gradientUnits="userSpaceOnUse">
<stop stop-color="#FFF176"/>
<stop offset="1" stop-color="#00E0B8"/>
</linearGradient>
<linearGradient id="paint18_linear_103_465" x1="34.5938" y1="17.3364" x2="40.4417" y2="21.5565" gradientUnits="userSpaceOnUse">
<stop stop-color="#FFF176"/>
<stop offset="1" stop-color="#00E0B8"/>
</linearGradient>
<linearGradient id="paint19_linear_103_465" x1="127.672" y1="32.1678" x2="130.449" y2="39.5314" gradientUnits="userSpaceOnUse">
<stop stop-color="#FFF176"/>
<stop offset="1" stop-color="#00E0B8"/>
</linearGradient>
<linearGradient id="paint20_linear_103_465" x1="127.668" y1="13.8404" x2="130.455" y2="21.2144" gradientUnits="userSpaceOnUse">
<stop stop-color="#FFF176"/>
<stop offset="1" stop-color="#00E0B8"/>
</linearGradient>
<linearGradient id="paint21_linear_103_465" x1="127.712" y1="23.0036" x2="130.447" y2="30.3084" gradientUnits="userSpaceOnUse">
<stop stop-color="#FFF176"/>
<stop offset="1" stop-color="#00E0B8"/>
</linearGradient>
</defs>
</svg>
