<svg width="166" height="242" viewBox="0 0 166 242" fill="none" xmlns="http://www.w3.org/2000/svg">
<path d="M49.86 200.92V205.9C49.86 207.74 50.42 208.3 52.56 208.3C53 208.3 55.18 208.3 55.64 208.3C57.48 208.3 58 207.54 58.22 204.64C57.68 204.52 56.9 204.22 56.48 203.92C56.4 206.24 56.26 206.6 55.48 206.6C54.98 206.6 53.2 206.6 52.82 206.6C51.96 206.6 51.82 206.52 51.82 205.88V200.92H49.86ZM45.38 190.06C44.32 192.06 42.34 194.48 39.64 196.3C40.08 196.6 40.7 197.24 40.98 197.68C43.9 195.58 45.98 192.96 47.44 190.46L45.38 190.06ZM43.82 196.84H54.62V199.94H43.82V196.84ZM41.92 195.16V201.64H56.62V195.16H41.92ZM50.88 191.56V191.92C50.42 192.94 49.36 194.5 48.44 195.44C48.86 195.68 49.5 196.08 49.86 196.36C50.9 195.32 52.16 193.66 52.92 192.32L51.62 191.48L51.3 191.56H50.88ZM45.32 191.56L44.36 193.12H51.44V191.56H45.32ZM48.14 196.28C47.78 201.08 47.22 205.1 39.9 206.92C40.32 207.32 40.78 208.04 40.98 208.52C48.74 206.4 49.7 201.78 50.14 196.28H48.14ZM62.52 193.3V194.48H76.52V191.14H61.12V192.32H74.8V193.3H62.52ZM61.96 193.3C61.84 194.42 61.62 195.76 61.4 196.72H63.08C63.28 195.8 63.48 194.48 63.62 193.3H61.96ZM62.2 195.52L61.84 196.72H76.6V195.52H62.2ZM76.02 195.52V195.72C75.94 196.76 75.86 197.18 75.72 197.34C75.6 197.46 75.48 197.48 75.28 197.48C75.06 197.48 74.58 197.46 74 197.42C74.18 197.74 74.32 198.24 74.34 198.58C75.08 198.62 75.8 198.62 76.16 198.6C76.58 198.58 76.94 198.46 77.22 198.2C77.52 197.86 77.64 197.24 77.76 196.08C77.76 195.88 77.78 195.52 77.78 195.52H76.02ZM65.9 190.12V193.92C65.9 195.94 65.2 197.52 59.98 198.38C60.3 198.72 60.72 199.42 60.88 199.84C66.74 198.82 67.62 196.7 67.62 193.96V190.12H65.9ZM70.34 190.12V198.06H72.14V190.12H70.34ZM64.38 201.32H73.82V202.38H64.38V201.32ZM64.38 203.46H73.82V204.54H64.38V203.46ZM64.38 199.2H73.82V200.24H64.38V199.2ZM62.54 198.06V205.68H75.74V198.06H62.54ZM70.68 206.42C72.92 207.12 75.18 208 76.52 208.66L77.92 207.5C76.44 206.86 74 206 71.76 205.34L70.68 206.42ZM65.88 205.56C64.46 206.3 62.06 206.94 59.96 207.32C60.38 207.64 61.04 208.34 61.34 208.7C63.36 208.18 65.92 207.28 67.56 206.34L65.88 205.56ZM80.54 191.82V195.16H82.26V193.32H95.68V195.16H97.48V191.82H80.54ZM88.32 194.6C88.24 195.84 88.08 197.4 87.88 198.42H89.5C89.66 197.44 89.8 195.88 89.9 194.6H88.32ZM84.42 202.32H93.6V203.12H84.42V202.32ZM84.42 204.1H93.6V204.92H84.42V204.1ZM84.42 200.58H93.6V201.34H84.42V200.58ZM82.6 199.54V205.94H95.52V199.54H82.6ZM90.08 206.82C92.4 207.46 94.76 208.22 96.2 208.78L97.48 207.6C95.9 207.04 93.38 206.3 91.06 205.72L90.08 206.82ZM85.06 195.16H93.06L92.84 197.78H84.72L85.06 195.16ZM83.5 194.14L82.9 198.82H94.48L94.92 194.14H83.5ZM86.46 205.74C85.2 206.42 82.44 207.16 80.26 207.48C80.58 207.82 81.04 208.42 81.28 208.78C83.54 208.42 86.28 207.66 87.96 206.76L86.46 205.74ZM79.92 195.74V197.14H84.34V196.96H93.52V197.14H98.14V195.74H93.52V195.92H84.34V195.74H79.92ZM87.36 190.46C87.82 191.16 88.32 192.14 88.48 192.78L90.24 192.24C90.02 191.6 89.5 190.64 89 189.96L87.36 190.46ZM108 198.76V200.16H118.1V198.76H108ZM107.76 206.92V208.34H118.28V206.92H107.76ZM110.8 190.14V192.6H112.3V190.14H110.8ZM113.5 190.14V192.6H115.02V190.14H113.5ZM109.8 195.34H116.14V196.58H109.8V195.34ZM109.8 192.92H116.14V194.14H109.8V192.92ZM108.36 191.62V197.86H117.64V191.62H108.36ZM110.52 202.2H115.44V203.6H110.52V202.2ZM108.88 200.98V204.8H117.2V200.98H108.88ZM114.68 204.74C114.46 205.48 114.04 206.56 113.7 207.26L114.92 207.7C115.34 207.08 115.86 206.12 116.38 205.22L114.68 204.74ZM109.8 205.22C110.12 205.98 110.5 207 110.64 207.64L112.14 207.14C111.96 206.5 111.58 205.52 111.24 204.78L109.8 205.22ZM111.1 192.3V197.32H112.32V192.3H111.1ZM113.58 192.3V197.32H114.8V192.3H113.58ZM101.64 198.86V200.14H106.18V198.86H101.64ZM105.28 198.86V206.9C105.28 207.1 105.22 207.18 105.02 207.18C104.82 207.18 104.16 207.18 103.46 207.16C103.66 207.56 103.88 208.18 103.94 208.58C105.04 208.58 105.74 208.56 106.24 208.32C106.74 208.08 106.88 207.66 106.88 206.92V198.86H105.28ZM100.74 190.8V197.04H102.22V192.18H105.36V197.04H106.94V190.8H100.74ZM99.92 196.42V199.42H101.32V197.74H106.32V199.42H107.78V196.42H99.92ZM103.26 193.26V196.9H104.3V194.4H106.38V193.26H103.26ZM100.92 198.86V202.62C100.92 204.22 100.82 206.28 99.78 207.8C100.16 207.98 100.84 208.46 101.12 208.76C102.28 207.04 102.48 204.5 102.48 202.64V198.86H100.92ZM102.28 204.8L102.92 206.1C103.96 205.46 105.12 204.74 106.3 204L106 203.02C104.6 203.72 103.24 204.4 102.28 204.8ZM102.42 201.58C103.12 202.06 104 202.8 104.42 203.26L105.3 202.3C104.84 201.86 103.98 201.24 103.24 200.76L102.42 201.58ZM36.92 220.7V222.06H47.8V220.7H36.92ZM36.52 225.58V226.96H48.22V225.58H36.52ZM36.5 233.02V234.42H48.26V233.02H36.5ZM37.44 223.1V224.42H47.48V223.1H37.44ZM39.3 219.14V226.16H41.02V219.14H39.3ZM43.66 219.14V226.16H45.4V219.14H43.66ZM41.46 226.2V233.44H43.2V226.2H41.46ZM45.36 227.94V235.86C45.36 236.1 45.26 236.16 44.98 236.18C44.74 236.18 43.78 236.18 42.86 236.16C43.08 236.58 43.3 237.24 43.38 237.68C44.8 237.68 45.74 237.68 46.38 237.42C46.98 237.16 47.16 236.72 47.16 235.86V227.94H45.36ZM37.64 227.94V237.72H39.4V229.32H46.12V227.94H37.64ZM38.54 230.52V231.76H46.1V230.52H38.54ZM30.48 225.2V226.66H35.84V225.2H30.48ZM30.48 227.86V229.32H35.84V227.86H30.48ZM29.74 222.48V224.02H36.5V222.48H29.74ZM31.2 230.58V232.12H34.52V234.98H31.2V236.52H35.98V230.58H31.2ZM30.46 230.58V237.42H31.9V230.58H30.46ZM31.66 219.78C32.28 220.62 33.02 221.8 33.36 222.54L34.86 221.56C34.48 220.86 33.72 219.78 33.08 218.98L31.66 219.78ZM50.24 235.5V237.16H67.8V235.5H50.24ZM52.02 231.82V233.46H66.26V231.82H52.02ZM58 229.82V236.42H59.9V229.82H58ZM58 219.1V222.86H59.9V219.1H58ZM50.3 222.24V226.78H52.04V223.88H65.92V226.78H67.74V222.24H50.3ZM55.2 226.72H62.74V228.64H55.2V226.72ZM53.44 225.26V230.12H64.6V225.26H53.44ZM52.1 219.98C52.76 220.8 53.48 221.94 53.76 222.68L55.54 221.9C55.2 221.16 54.46 220.1 53.78 219.3L52.1 219.98ZM64.14 219.24C63.74 220.04 63 221.16 62.42 221.9L64 222.46C64.62 221.82 65.42 220.84 66.12 219.86L64.14 219.24ZM78 227.76V229.16H88.1V227.76H78ZM77.76 235.92V237.34H88.28V235.92H77.76ZM80.8 219.14V221.6H82.3V219.14H80.8ZM83.5 219.14V221.6H85.02V219.14H83.5ZM79.8 224.34H86.14V225.58H79.8V224.34ZM79.8 221.92H86.14V223.14H79.8V221.92ZM78.36 220.62V226.86H87.64V220.62H78.36ZM80.52 231.2H85.44V232.6H80.52V231.2ZM78.88 229.98V233.8H87.2V229.98H78.88ZM84.68 233.74C84.46 234.48 84.04 235.56 83.7 236.26L84.92 236.7C85.34 236.08 85.86 235.12 86.38 234.22L84.68 233.74ZM79.8 234.22C80.12 234.98 80.5 236 80.64 236.64L82.14 236.14C81.96 235.5 81.58 234.52 81.24 233.78L79.8 234.22ZM81.1 221.3V226.32H82.32V221.3H81.1ZM83.58 221.3V226.32H84.8V221.3H83.58ZM71.64 227.86V229.14H76.18V227.86H71.64ZM75.28 227.86V235.9C75.28 236.1 75.22 236.18 75.02 236.18C74.82 236.18 74.16 236.18 73.46 236.16C73.66 236.56 73.88 237.18 73.94 237.58C75.04 237.58 75.74 237.56 76.24 237.32C76.74 237.08 76.88 236.66 76.88 235.92V227.86H75.28ZM70.74 219.8V226.04H72.22V221.18H75.36V226.04H76.94V219.8H70.74ZM69.92 225.42V228.42H71.32V226.74H76.32V228.42H77.78V225.42H69.92ZM73.26 222.26V225.9H74.3V223.4H76.38V222.26H73.26ZM70.92 227.86V231.62C70.92 233.22 70.82 235.28 69.78 236.8C70.16 236.98 70.84 237.46 71.12 237.76C72.28 236.04 72.48 233.5 72.48 231.64V227.86H70.92ZM72.28 233.8L72.92 235.1C73.96 234.46 75.12 233.74 76.3 233L76 232.02C74.6 232.72 73.24 233.4 72.28 233.8ZM72.42 230.58C73.12 231.06 74 231.8 74.42 232.26L75.3 231.3C74.84 230.86 73.98 230.24 73.24 229.76L72.42 230.58ZM91.56 223.16V224.6H97.08V223.16H91.56ZM91.56 226.12V227.56H97.12V226.12H91.56ZM93.66 221.14V230.22H95.14V221.14H93.66ZM94.12 231.52C94.5 232.34 94.94 233.44 95.12 234.16L95.9 233.84C95.72 233.16 95.26 232.08 94.86 231.26L94.12 231.52ZM92.94 231.8C93.22 232.82 93.5 234.18 93.6 235.08L94.48 234.88C94.36 234 94.06 232.66 93.78 231.64L92.94 231.8ZM91.74 231.96C91.88 233.14 91.94 234.64 91.92 235.64L92.84 235.52C92.82 234.54 92.74 233.04 92.6 231.88L91.74 231.96ZM90.42 231.58C90.28 232.9 89.96 234.8 89.56 235.96L90.64 236.36C91 235.2 91.28 233.26 91.44 231.92L90.42 231.58ZM96.02 229.16V229.44C95.92 234.04 95.8 235.66 95.52 236.02C95.4 236.22 95.26 236.24 95.04 236.24C94.8 236.24 94.32 236.24 93.76 236.18C93.98 236.58 94.12 237.18 94.16 237.6C94.76 237.64 95.38 237.64 95.76 237.58C96.22 237.52 96.54 237.4 96.82 237C97.24 236.44 97.38 234.7 97.52 229.82C97.54 229.62 97.54 229.16 97.54 229.16H96.02ZM97.44 219.98H90.62V230.74H96.82V229.16H92.12V221.54H97.44V219.98ZM99.5 227.66H101V229.92H99.5V227.66ZM98.22 226.4V231.16H102.36V226.4H98.22ZM104.46 227.66H106.08V229.92H104.46V227.66ZM103.16 226.4V231.16H107.44V226.4H103.16ZM99.62 231.68C99.22 233.7 98.34 235.5 97.06 236.64C97.44 236.9 98.06 237.44 98.34 237.7C99.7 236.38 100.72 234.3 101.22 231.96L99.62 231.68ZM99.8 223.58V225.06H105.76V223.58H99.8ZM99.46 234.44C100.32 235 101.4 235.84 101.9 236.42L102.88 235.16C102.36 234.62 101.26 233.82 100.4 233.32L99.46 234.44ZM104.58 231.58C104.22 233.66 103.44 235.48 102.16 236.62C102.56 236.88 103.26 237.42 103.56 237.7C104.88 236.36 105.84 234.26 106.26 231.86L104.58 231.58ZM104.12 234.94C105.14 235.66 106.44 236.7 107.06 237.4L108.18 236.1C107.54 235.44 106.22 234.46 105.2 233.78L104.12 234.94ZM102.34 218.9C101.28 220.76 99.28 222.7 97.04 223.94C97.4 224.22 97.96 224.8 98.22 225.14C100.6 223.74 102.76 221.74 104.06 219.48L102.34 218.9ZM103.12 219.5L101.84 220.28C103.18 221.98 105.56 223.9 107.62 225.02C107.74 224.56 108.08 223.76 108.38 223.34C106.5 222.5 104.24 220.9 103.12 219.5ZM117.12 229.36V231.04H127.96V229.36H117.12ZM123.92 230.34L122.56 230.86C123.62 233.06 125.5 235.44 127.22 236.74C127.5 236.28 128.1 235.64 128.52 235.3C126.82 234.26 124.92 232.22 123.92 230.34ZM119.48 224.64H125.66V226.38H119.48V224.64ZM119.48 221.44H125.66V223.16H119.48V221.44ZM117.8 219.92V227.9H127.42V219.92H117.8ZM121.24 230.22C120.24 232.28 118.3 234.38 116.38 235.4C116.78 235.74 117.36 236.42 117.64 236.86C119.64 235.6 121.58 233.18 122.66 230.72L121.24 230.22ZM121.72 220.7V227.18H121.62V237.68H123.46V227.18H123.36V220.7H121.72ZM110.56 225.2V226.66H116.56V225.2H110.56ZM110.56 227.86V229.32H116.56V227.86H110.56ZM109.72 222.48V224.02H117.22V222.48H109.72ZM111.38 230.58V232.12H115.04V234.98H111.38V236.52H116.7V230.58H111.38ZM110.54 230.58V237.42H112.18V230.58H110.54ZM111.94 219.76C112.48 220.6 113.12 221.78 113.4 222.52L114.92 221.66C114.6 220.94 113.98 219.86 113.4 219.04L111.94 219.76Z" fill="url(#paint0_linear_105_748)"/>
<path d="M119.867 87.8249V109.037H114.75V71.9676H50.7552V109.008H45.4V87.8249H3.74865C0.773554 87.8249 0 87.0216 0 84.106V3.77843C0 0.803334 0.803276 0 3.71887 0H161.399C164.374 0 165.058 0.833089 165.058 3.68918V84.1953C165.058 87.1704 164.225 87.8546 161.399 87.8546H119.748L119.867 87.8249ZM110.495 66.4934C111.023 64.7219 111.46 62.9246 111.804 61.1085C111.879 59.7211 111.879 58.3308 111.804 56.9434C111.876 56.4931 111.791 56.0318 111.563 55.6366C111.336 55.2414 110.98 54.936 110.555 54.7715C109.051 53.9657 107.854 52.687 107.149 51.1328C106.445 49.5787 106.272 47.8358 106.657 46.1736C106.947 44.8734 107.558 43.6665 108.435 42.6632C109.311 41.66 110.425 40.8923 111.674 40.4303C112.924 39.9683 114.269 39.8267 115.587 40.0184C116.906 40.2102 118.155 40.7293 119.221 41.5282C120.287 42.327 121.136 43.3802 121.69 44.5916C122.244 45.803 122.486 47.1339 122.393 48.4628C122.301 49.7917 121.877 51.0763 121.16 52.1991C120.443 53.3219 119.456 54.2473 118.29 54.8906C117.756 55.1624 117.351 55.6323 117.159 56.1996C116.832 59.5912 116.624 62.9829 116.386 66.434C119.361 66.91 119.777 67.2967 119.777 70.8966V82.4102H159.584V15.8573H98.684V10.5913H159.674V5.38492H5.53373V10.6807H66.5529V15.9763H5.56342V82.4102H45.3702V70.8966C45.3702 67.2967 45.6975 66.91 48.8214 66.4042C48.5536 63.2803 48.2263 60.1565 48.0478 57.0326C48.0969 56.5618 47.9969 56.0875 47.7621 55.6765C47.5272 55.2655 47.1694 54.9386 46.7388 54.7419C45.1994 53.8945 43.9915 52.5518 43.3111 50.9316C42.6306 49.3115 42.5175 47.509 42.9902 45.8166C43.3386 44.5432 43.9979 43.3762 44.9086 42.4205C45.8194 41.4647 46.9533 40.75 48.2084 40.3407C49.4636 39.9313 50.8007 39.84 52.0999 40.075C53.399 40.31 54.6195 40.8639 55.6517 41.687C56.6839 42.5101 57.4956 43.5766 58.0139 44.7909C58.5321 46.0051 58.7409 47.3291 58.6212 48.6439C58.5015 49.9586 58.0571 51.2231 57.3281 52.3238C56.5991 53.4245 55.6082 54.3269 54.4443 54.95C53.9981 55.1881 53.4328 55.7236 53.403 56.1402C53.0954 59.645 53.5835 63.174 54.831 66.4637H61.3465C61.3465 61.9416 61.3465 57.5384 61.3465 53.1055C61.3692 50.3119 62.2771 47.5975 63.9396 45.3523C65.6021 43.1072 67.9337 41.4469 70.5991 40.6101L71.9974 40.1638C68.0405 32.2203 68.7843 26.0916 74.1989 21.6587C76.563 19.7407 79.5147 18.694 82.5589 18.694C85.6032 18.694 88.5549 19.7407 90.919 21.6587C96.4526 26.0618 97.2559 32.2501 93.2395 40.2234L94.0131 40.4911C96.9652 41.2713 99.5599 43.0414 101.363 45.5054C103.167 47.9695 104.069 50.978 103.92 54.0278V66.6125L110.495 66.4934ZM98.5948 66.4934C98.5948 61.7035 98.7435 57.0624 98.5948 52.4213C98.4525 50.4874 97.5864 48.6782 96.1691 47.3547C94.7519 46.0312 92.8878 45.2907 90.9487 45.281C85.4746 45.281 80.0004 45.281 74.5262 45.281C72.4788 45.3191 70.5257 46.1495 69.0777 47.5976C67.6296 49.0456 66.7993 50.9986 66.7612 53.046C66.7612 54.7121 66.7612 56.3781 66.7612 58.0442V66.4934H98.5948ZM90.6215 31.9526C90.6215 30.3782 90.1553 28.839 89.2818 27.5291C88.4083 26.2192 87.1665 25.1973 85.713 24.5921C84.2595 23.9869 82.6594 23.8256 81.1144 24.1284C79.5694 24.4313 78.1487 25.1848 77.0313 26.2939C75.9139 27.4031 75.1498 28.8182 74.8355 30.3609C74.5211 31.9036 74.6706 33.5049 75.2649 34.9628C75.8593 36.4208 76.872 37.67 78.1754 38.5532C79.4787 39.4365 81.0144 39.9141 82.5887 39.9258C83.6408 39.9298 84.6832 39.7254 85.656 39.3246C86.6287 38.9238 87.5125 38.3345 88.2565 37.5906C89.0004 36.8466 89.5897 35.9628 89.9905 34.9901C90.3913 34.0173 90.5957 32.9749 90.5917 31.9228L90.6215 31.9526ZM50.6362 45.281C49.934 45.281 49.2604 45.56 48.7639 46.0565C48.2673 46.5531 47.9883 47.2266 47.9883 47.9289C47.9883 48.6311 48.2673 49.3046 48.7639 49.8012C49.2604 50.2978 49.934 50.5766 50.6362 50.5766C50.9943 50.5728 51.348 50.498 51.677 50.3565C52.0059 50.215 52.3035 50.0096 52.5526 49.7522C52.8016 49.4949 52.9971 49.1907 53.1277 48.8573C53.2584 48.5239 53.3217 48.1678 53.3138 47.8098C53.2829 47.1153 52.9832 46.4601 52.4779 45.9826C51.9727 45.5051 51.3016 45.2429 50.6064 45.2513L50.6362 45.281ZM117.249 47.9289C117.249 47.4039 117.093 46.8908 116.8 46.4547C116.508 46.0187 116.093 45.6793 115.607 45.4798C115.121 45.2803 114.588 45.2297 114.073 45.3343C113.559 45.4389 113.087 45.694 112.718 46.0673C112.349 46.4406 112.099 46.9152 112 47.4308C111.901 47.9463 111.958 48.4796 112.163 48.9629C112.368 49.4462 112.712 49.8577 113.151 50.145C113.591 50.4324 114.106 50.5825 114.63 50.5766C115.328 50.561 115.99 50.2711 116.475 49.7698C116.96 49.2685 117.227 48.5963 117.219 47.8991L117.249 47.9289Z" fill="url(#paint1_linear_105_748)"/>
<path d="M28.4716 133.464L34.7193 137.986L40.9671 133.464C39.8751 131.955 39.1527 130.21 38.8581 128.37C38.5636 126.531 38.7051 124.648 39.2712 122.873C40.0429 120.297 41.6829 118.068 43.9124 116.565C46.0744 115.068 48.6716 114.328 51.2984 114.463C53.9251 114.597 56.4333 115.598 58.4309 117.309C63.1315 121.355 63.786 126.74 60.4241 133.523L66.6718 137.956L72.9196 133.464C70.8128 131.097 69.7327 127.99 69.9168 124.826C70.1009 121.663 71.5342 118.702 73.9013 116.595C76.2684 114.488 79.3755 113.408 82.5391 113.592C85.7026 113.777 88.6634 115.21 90.7701 117.577C95.2923 121.683 95.8873 127.514 92.4362 133.464L98.7434 137.986L104.961 133.464C103.822 131.89 103.085 130.061 102.816 128.137C102.546 126.213 102.752 124.253 103.414 122.426C104.286 119.964 105.963 117.867 108.174 116.476C110.39 115.024 113.027 114.352 115.668 114.567C118.309 114.783 120.802 115.873 122.752 117.666C127.215 121.742 127.751 127.246 124.418 133.553L130.696 138.016L136.914 133.523C134.959 131.204 133.964 128.225 134.132 125.196C134.3 122.166 135.618 119.316 137.818 117.226C140.017 115.137 142.932 113.967 145.966 113.954C148.999 113.942 151.923 115.089 154.14 117.16C159.049 121.177 159.733 126.383 156.252 133.851C156.802 134.078 157.338 134.337 157.859 134.624C160.035 135.644 161.879 137.257 163.179 139.278C164.479 141.299 165.182 143.646 165.207 146.049C165.386 151.374 165.207 156.7 165.207 162.025C165.207 164.078 164.195 165 162.232 165H4.55181C0.95194 165 0.32722 164.375 0.32722 160.775V147.298C0.142959 144.479 0.863011 141.675 2.38268 139.294C3.90234 136.913 6.1423 135.079 8.77648 134.059L9.19295 133.791C5.68234 126.443 6.48563 120.939 11.6326 116.982C13.8093 115.321 16.4924 114.461 19.2294 114.548C21.9663 114.634 24.5896 115.662 26.6568 117.458C31.2385 121.445 31.893 127.306 28.4716 133.464ZM32.0418 159.645C32.0418 154.944 32.0418 150.392 32.0418 145.87C31.9363 143.88 31.0785 142.005 29.6423 140.624C28.2061 139.243 26.2987 138.46 24.3065 138.432C20.7165 138.432 17.1167 138.432 13.5069 138.432C12.4385 138.42 11.3785 138.623 10.3905 139.03C9.4025 139.437 8.50674 140.039 7.75679 140.8C7.00684 141.561 6.41814 142.466 6.02592 143.459C5.63369 144.453 5.446 145.516 5.47408 146.584C5.47408 149.411 5.47408 152.237 5.47408 155.063V159.645H32.0418ZM63.8158 159.645C63.8804 159.533 63.9303 159.413 63.9645 159.288C63.9645 155.033 63.9645 150.779 63.9645 146.495C63.9811 145.425 63.7807 144.364 63.3753 143.374C62.97 142.384 62.3682 141.486 61.6062 140.735C60.8443 139.985 59.9382 139.396 58.9424 139.005C57.9466 138.615 56.882 138.43 55.8128 138.462H45.5189C44.4343 138.429 43.3544 138.619 42.3463 139.02C41.3382 139.422 40.4235 140.027 39.659 140.797C38.8945 141.567 38.2965 142.486 37.9023 143.497C37.508 144.508 37.3258 145.589 37.3671 146.673C37.3671 150.64 37.3671 154.607 37.3671 158.574C37.3348 158.97 37.3348 159.368 37.3671 159.764L63.8158 159.645ZM95.9171 159.645C95.9171 154.885 95.9171 150.303 95.9171 145.721C95.7968 143.761 94.9379 141.919 93.5136 140.566C92.0893 139.214 90.2054 138.451 88.2413 138.432C84.5224 138.432 80.8333 138.432 77.1145 138.432C75.0695 138.486 73.1239 139.326 71.683 140.778C70.242 142.23 69.4168 144.182 69.3792 146.227C69.3792 148.488 69.3792 150.779 69.3792 153.04V159.645H95.9171ZM127.84 159.645C127.84 154.885 127.989 150.303 127.84 145.721C127.713 143.763 126.852 141.925 125.429 140.574C124.006 139.223 122.126 138.458 120.164 138.432C116.495 138.432 112.835 138.432 109.186 138.432C108.144 138.436 107.113 138.646 106.153 139.049C105.192 139.452 104.321 140.041 103.588 140.782C102.856 141.523 102.277 142.401 101.884 143.366C101.492 144.331 101.294 145.364 101.302 146.406C101.302 148.786 101.302 151.166 101.302 153.546V159.496L127.84 159.645ZM133.225 159.645H159.763C159.763 154.885 159.941 150.244 159.763 145.602C159.622 143.697 158.776 141.912 157.39 140.597C156.003 139.282 154.176 138.531 152.265 138.492C148.457 138.492 144.649 138.492 140.811 138.492C138.875 138.554 137.032 139.336 135.64 140.683C134.249 142.031 133.409 143.848 133.284 145.781C133.076 150.303 133.225 154.885 133.225 159.615V159.645ZM18.7133 133.107C20.0274 133.118 21.3156 132.741 22.4158 132.022C23.516 131.304 24.3792 130.276 24.8967 129.068C25.4143 127.86 25.5632 126.526 25.3246 125.233C25.0861 123.941 24.4707 122.748 23.556 121.804C22.6413 120.861 21.468 120.209 20.1837 119.93C18.8994 119.652 17.5613 119.759 16.3379 120.239C15.1144 120.719 14.0602 121.55 13.3077 122.627C12.5552 123.704 12.138 124.98 12.1086 126.294C12.0928 127.174 12.2516 128.049 12.5757 128.867C12.8998 129.686 13.3829 130.432 13.997 131.062C14.6111 131.693 15.3441 132.196 16.1536 132.542C16.9631 132.887 17.8331 133.07 18.7133 133.077V133.107ZM57.3896 126.473C57.3954 125.153 57.0096 123.862 56.2809 122.762C55.5522 121.662 54.5135 120.803 53.2963 120.294C52.0791 119.785 50.7382 119.649 49.4436 119.903C48.1489 120.157 46.9586 120.789 46.0237 121.72C45.0887 122.651 44.451 123.838 44.1915 125.132C43.9319 126.425 44.0621 127.767 44.5656 128.986C45.0691 130.206 45.9233 131.248 47.0198 131.982C48.1164 132.715 49.406 133.107 50.7254 133.107C52.4801 133.084 54.1554 132.372 55.3907 131.126C56.626 129.879 57.3224 128.198 57.3301 126.443L57.3896 126.473ZM82.7077 119.808C81.3883 119.802 80.097 120.188 78.9971 120.917C77.8973 121.646 77.0384 122.684 76.5295 123.902C76.0205 125.119 75.8843 126.46 76.1381 127.754C76.3918 129.049 77.0242 130.239 77.955 131.174C78.8858 132.109 80.0732 132.747 81.3667 133.006C82.6603 133.266 84.0018 133.136 85.2213 132.632C86.4407 132.129 87.4833 131.275 88.2169 130.178C88.9505 129.081 89.3421 127.792 89.3421 126.473C89.35 125.591 89.1823 124.717 88.8487 123.901C88.5151 123.086 88.0224 122.345 87.3992 121.722C86.776 121.098 86.0349 120.606 85.2192 120.272C84.4034 119.938 83.5294 119.771 82.6481 119.779L82.7077 119.808ZM114.601 133.107C115.911 133.101 117.191 132.708 118.279 131.979C119.368 131.25 120.217 130.215 120.721 129.006C121.225 127.796 121.361 126.465 121.112 125.178C120.864 123.892 120.241 122.707 119.323 121.772C118.405 120.838 117.231 120.194 115.949 119.923C114.667 119.652 113.333 119.764 112.115 120.247C110.897 120.729 109.848 121.561 109.099 122.636C108.351 123.712 107.936 124.984 107.907 126.294C107.891 127.177 108.051 128.054 108.377 128.874C108.703 129.694 109.188 130.442 109.806 131.073C110.423 131.704 111.159 132.206 111.972 132.55C112.785 132.894 113.658 133.073 114.541 133.077L114.601 133.107ZM153.277 126.443C153.277 125.123 152.885 123.834 152.152 122.737C151.418 121.641 150.376 120.787 149.156 120.283C147.937 119.78 146.595 119.649 145.302 119.909C144.008 120.168 142.821 120.806 141.89 121.741C140.959 122.676 140.327 123.866 140.073 125.161C139.819 126.456 139.955 127.797 140.464 129.014C140.973 130.231 141.832 131.27 142.932 131.998C144.032 132.727 145.323 133.113 146.642 133.107C148.407 133.06 150.083 132.318 151.303 131.042C152.523 129.766 153.19 128.059 153.158 126.294L153.277 126.443Z" fill="url(#paint2_linear_105_748)"/>
<defs>
<linearGradient id="paint0_linear_105_748" x1="44.9847" y1="191.682" x2="78.0639" y2="253.05" gradientUnits="userSpaceOnUse">
<stop stop-color="#FFF176"/>
<stop offset="1" stop-color="#00E0B8"/>
</linearGradient>
<linearGradient id="paint1_linear_105_748" x1="26.3841" y1="14.4411" x2="92.7708" y2="122.575" gradientUnits="userSpaceOnUse">
<stop stop-color="#FFF176"/>
<stop offset="1" stop-color="#00E0B8"/>
</linearGradient>
<linearGradient id="paint2_linear_105_748" x1="26.6717" y1="120.383" x2="45.4398" y2="185.171" gradientUnits="userSpaceOnUse">
<stop stop-color="#FFF176"/>
<stop offset="1" stop-color="#00E0B8"/>
</linearGradient>
</defs>
</svg>
