<svg width="821" height="163" viewBox="0 0 821 163" fill="none" xmlns="http://www.w3.org/2000/svg">
<path d="M526 39H118V76H526V39Z" fill="#00E0B8"/>
<path d="M91 126V75.0001H820V126H91Z" fill="white" stroke="#00E0B8" stroke-width="2"/>
<path d="M819 76.0001H805V125H819V76.0001Z" fill="#00E0B8"/>
<path d="M81.3327 146.969C117.539 146.969 146.89 117.618 146.89 81.4121C146.89 45.2058 117.539 15.8547 81.3327 15.8547C45.1263 15.8547 15.7753 45.2058 15.7753 81.4121C15.7753 117.618 45.1263 146.969 81.3327 146.969Z" fill="white"/>
<path d="M81.3008 79.27C81.8171 79.2653 82.3173 79.449 82.7078 79.7868C83.0982 80.1245 83.3521 80.5931 83.4218 81.1046H94.1111C94.0012 77.7691 92.595 74.608 90.1914 72.2928C87.7877 69.9777 84.5761 68.691 81.2388 68.7062C77.9016 68.7214 74.7018 70.0372 72.3193 72.3742C69.9369 74.7111 68.5595 77.8849 68.4799 81.2212H79.1693C79.2122 80.6868 79.4559 80.1885 79.8513 79.8264C80.2468 79.4644 80.7647 79.2656 81.3008 79.27Z" fill="url(#paint0_linear_43_1364)"/>
<path d="M81.3008 83.5754C80.7862 83.5805 80.2873 83.3983 79.897 83.0627C79.5068 82.7271 79.252 82.2611 79.1799 81.7515H68.4905C68.6005 85.0869 70.0067 88.2481 72.4103 90.5632C74.8139 92.8784 78.0256 94.1651 81.3628 94.1499C84.7001 94.1347 87.8999 92.8188 90.2823 90.4819C92.6648 88.145 94.0422 84.9712 94.1217 81.6348L83.443 81.6878C83.3849 82.2127 83.1332 82.697 82.7371 83.0461C82.3409 83.3952 81.8288 83.5839 81.3008 83.5754Z" fill="url(#paint1_linear_43_1364)"/>
<path d="M81.11 35.2717C71.9818 35.3138 63.0712 38.0618 55.5049 43.1683C47.9387 48.2748 42.0567 55.5103 38.6028 63.9598C35.1489 72.4094 34.2783 81.6935 36.101 90.6378C37.9238 99.5822 42.358 107.785 48.843 114.209C55.3279 120.633 63.5723 124.99 72.5335 126.729C81.4946 128.467 90.7701 127.509 99.1867 123.976C107.603 120.442 114.783 114.492 119.818 106.878C124.853 99.2643 127.517 90.3282 127.473 81.2C127.445 75.1399 126.224 69.1446 123.879 63.5565C121.534 57.9684 118.111 52.897 113.805 48.632C109.5 44.3671 104.397 40.992 98.7866 38.6996C93.1767 36.4072 87.1701 35.2424 81.11 35.2717ZM52.4777 109.673C52.1701 109.376 51.6929 108.963 51.1415 108.38C49.5501 106.742 48.1058 104.968 46.8254 103.077C44.916 100.254 43.3964 97.1868 42.3079 93.9573C39.562 85.9601 39.521 77.2821 42.1912 69.2593C43.2505 66.0147 44.7453 62.9289 46.6345 60.0864C47.8882 58.1965 49.3077 56.422 50.8764 54.7841C51.4172 54.2008 51.9368 53.7873 52.1913 53.4797L52.6579 53.0343L52.2337 53.5328C51.9686 53.8615 51.5445 54.3069 51.046 54.9432C49.6414 56.7076 48.3723 58.5758 47.2496 60.5317C45.5962 63.4106 44.3 66.4803 43.3896 69.6729C41.1194 77.4948 41.1563 85.8059 43.4956 93.6074C44.4418 96.7956 45.77 99.8578 47.4511 102.727C48.5896 104.672 49.8766 106.527 51.3006 108.273C51.799 108.899 52.2231 109.334 52.4989 109.673L52.923 110.161L52.4777 109.673ZM55.1182 104.827L54.291 104C53.9835 103.714 53.7184 103.321 53.3897 102.939L52.3292 101.688L51.7884 101.009L51.2793 100.235C50.4882 99.1033 49.7795 97.9161 49.1584 96.6827C48.8403 96.0146 48.4373 95.3465 48.1616 94.5618L47.3663 92.3242C44.9281 85.3603 44.8759 77.7832 47.2178 70.7864C47.5041 70.0016 47.7904 69.2381 48.0662 68.4958C48.3419 67.7535 48.7342 67.0748 49.0524 66.3749C49.6671 65.1312 50.3761 63.9365 51.1733 62.8011C51.343 62.536 51.502 62.2709 51.6717 62.027L52.2125 61.3271L53.2094 60.0758C53.4849 59.7078 53.7787 59.3539 54.0895 59.0153L54.9167 58.1775L56.4438 56.6505C56.4438 56.6505 55.9666 57.255 55.0864 58.3366L54.3653 59.238C54.0896 59.5561 53.8669 59.9591 53.5805 60.3727L52.6685 61.7407L52.2019 62.4618L51.7778 63.2571C51.1021 64.4204 50.5068 65.6286 49.9962 66.8733C49.7311 67.5414 49.3917 68.2095 49.1584 68.9412L48.4267 71.2C46.4571 77.975 46.4902 85.1752 48.5222 91.9319L49.2539 94.18C49.4978 94.9223 49.8477 95.5798 50.1128 96.2479C50.6314 97.4877 51.2374 98.689 51.9262 99.8428L52.361 100.638L52.8382 101.349L53.7184 102.653C54.0047 103.056 54.2274 103.459 54.5031 103.777L55.2454 104.668L56.6134 106.354L55.1182 104.827ZM59.0313 101.306L58.3208 100.617C58.0557 100.362 57.833 100.044 57.5572 99.7262L56.6877 98.6657L56.2211 98.0931L55.7863 97.4356C55.1128 96.477 54.5102 95.4704 53.9835 94.4239C53.7078 93.8513 53.3578 93.2892 53.1139 92.653C52.87 92.0167 52.6261 91.3698 52.361 90.7123C51.3589 87.7632 50.8257 84.675 50.7809 81.5606C50.8043 78.4442 51.3086 75.3501 52.2762 72.3877L53.0185 70.4364C53.2518 69.8002 53.5911 69.2381 53.8563 68.6655C54.3779 67.6138 54.9732 66.6003 55.6378 65.6326L56.062 64.9751L56.5286 64.3918C56.8255 64.0101 57.1118 63.6601 57.3876 63.3314C57.6267 63.0182 57.8815 62.7173 58.1511 62.43L58.851 61.7301L60.166 60.4363L59.0313 61.8891L58.4162 62.6527C58.1829 62.9284 58.0026 63.2783 57.7693 63.6177C57.536 63.957 57.2921 64.3388 57.0376 64.7418L56.6346 65.3462L56.2847 66.0249C55.7209 67.0153 55.2249 68.0428 54.8001 69.1002C54.5774 69.6729 54.291 70.2349 54.1002 70.85C53.9093 71.4651 53.6972 72.1119 53.4957 72.7694C51.8552 78.5087 51.8846 84.5968 53.5805 90.32C53.7926 90.9668 53.9941 91.6031 54.1956 92.2288C54.3971 92.8544 54.6834 93.4059 54.9167 93.9785C55.3527 95.0278 55.8557 96.0479 56.4226 97.0326L56.7937 97.7113L57.1861 98.3158L57.9708 99.4187C58.2147 99.758 58.4056 100.108 58.6389 100.384L59.254 101.137L60.3568 102.6L59.0313 101.306ZM62.9868 97.7856C62.5374 97.3901 62.1224 96.9573 61.746 96.4918L61.0249 95.6328L60.622 95.1768L60.2614 94.636C59.6901 93.8546 59.183 93.0283 58.745 92.1651C58.5117 91.6879 58.2253 91.2214 58.0238 90.7123L57.3982 89.1004C56.5506 86.6679 56.0994 84.1151 56.062 81.5394C56.0823 78.9649 56.5082 76.4097 57.3239 73.9677L57.939 72.3559C58.1405 71.8362 58.4162 71.3696 58.6495 70.903C59.0813 70.0363 59.5776 69.2033 60.1341 68.411L60.4947 67.8701L60.8765 67.3929L61.5976 66.5233C61.9702 66.058 62.3779 65.622 62.8171 65.219L63.8776 64.1585L62.955 65.3675C62.5629 65.8186 62.2082 66.3009 61.8945 66.8097L61.3006 67.7323L60.9825 68.2307L60.6962 68.7927C60.2406 69.6098 59.8403 70.4566 59.4979 71.3272C59.3176 71.7938 59.0843 72.2604 58.9358 72.7694C58.7874 73.2784 58.6177 73.8299 58.4586 74.3389C57.1504 79.0387 57.1724 84.0094 58.5223 88.6975L59.0207 90.2669C59.1797 90.7759 59.413 91.2426 59.5933 91.7092C59.9468 92.5716 60.3541 93.411 60.8128 94.2224L61.1098 94.7845L61.4279 95.2829L62.0324 96.2055C62.3493 96.7054 62.7038 97.1804 63.0928 97.6265C63.6867 98.4006 64.026 98.8248 64.026 98.8248L62.9868 97.7856ZM66.9317 94.2649C66.5732 93.9598 66.2399 93.6265 65.9348 93.268L65.3516 92.5999L65.0441 92.2288L64.7471 91.8152C64.2915 91.2005 63.8838 90.5518 63.5276 89.8746C63.3121 89.5075 63.1174 89.1287 62.9444 88.7399L62.4353 87.4779C61.7602 85.5585 61.4021 83.542 61.3749 81.5076C61.4085 79.4702 61.7665 77.4513 62.4353 75.5266L62.9338 74.2647C63.1034 73.8511 63.3261 73.4799 63.5064 73.1194C63.8573 72.4404 64.2578 71.7882 64.7047 71.1681L64.991 70.7439L65.3092 70.3728L65.8818 69.7047C66.1751 69.3232 66.5016 68.9683 66.8574 68.6443L67.7376 67.8383L67.0377 68.7927C66.7574 69.1589 66.4989 69.5414 66.2636 69.938L65.8076 70.6697L65.5637 71.0727L65.3516 71.5075C65.0059 72.1506 64.7048 72.8168 64.4502 73.5011C64.3123 73.8617 64.1321 74.2328 64.0154 74.6252L63.6549 75.8553C62.6581 79.5144 62.6581 83.3735 63.6549 87.0326L64.026 88.2521C64.1533 88.655 64.3335 89.0156 64.4714 89.3868C64.7302 90.0659 65.0386 90.7252 65.394 91.3592L65.6167 91.8046L65.8606 92.197L66.3166 92.9287C66.5457 93.3427 66.8044 93.7397 67.0907 94.1164L67.8012 95.0708L66.9317 94.2649ZM82.9233 96.11C79.888 96.4371 76.8258 95.8164 74.1573 94.3331C71.4889 92.8499 69.3452 90.5768 68.0206 87.8262C66.696 85.0755 66.2556 81.9822 66.7597 78.9712C67.2639 75.9602 68.6879 73.1791 70.8362 71.0099C72.9846 68.8408 75.7518 67.39 78.7578 66.8568C81.7639 66.3236 84.8612 66.7343 87.6245 68.0322C90.3878 69.3302 92.6815 71.4519 94.1904 74.1059C95.6993 76.7599 96.3496 79.816 96.0518 82.8544C95.7084 86.2335 94.2168 89.3927 91.8257 91.805C89.4346 94.2173 86.2887 95.7368 82.9127 96.11H82.9233ZM97.7697 92.0803L97.4622 92.4515L96.8895 93.1302C96.5849 93.4887 96.2553 93.8254 95.9033 94.1376L95.0231 94.9435L95.723 93.9785C96.0132 93.6171 96.2755 93.2343 96.5078 92.8332L96.9532 92.1015L97.1971 91.7092L97.4198 91.2638C97.7592 90.6211 98.0602 89.959 98.3212 89.2807C98.459 88.9096 98.6287 88.549 98.7453 88.146C98.862 87.743 98.9892 87.3401 99.1059 86.9159C99.5782 85.0901 99.8239 83.2131 99.8376 81.3273C99.802 79.4396 99.5385 77.5632 99.0529 75.7387L98.6817 74.5192C98.5651 74.1162 98.3848 73.7556 98.2469 73.3951C97.9792 72.7163 97.6711 72.0541 97.3243 71.412L97.1016 70.9772C97.0168 70.8394 96.9319 70.7121 96.8577 70.5743C96.7835 70.4364 96.5396 70.0759 96.4017 69.8532C96.1654 69.4556 95.8995 69.0763 95.6064 68.7185L94.8959 67.7641L95.7867 68.5594C96.144 68.8621 96.474 69.1957 96.7729 69.5562L97.3561 70.2243L97.6743 70.5955L97.9606 71.009C98.4162 71.6237 98.8239 72.2725 99.1801 72.9497C99.3604 73.3103 99.5937 73.6814 99.7634 74.0844C99.933 74.4873 100.092 74.9221 100.272 75.3569C101.682 79.2091 101.701 83.4331 100.325 87.2977L99.827 88.5702C99.6679 88.9732 99.4452 89.3443 99.2543 89.7155C98.9089 90.3942 98.5082 91.0433 98.056 91.6561L97.7697 92.0803ZM101.821 95.442L101.11 96.3115C100.737 96.7798 100.326 97.2161 99.88 97.6159L98.8196 98.6763L99.7422 97.4674C100.128 97.0154 100.483 96.537 100.803 96.0358L101.386 95.1026L101.715 94.6042C101.799 94.4239 101.895 94.233 102.001 94.0421C102.449 93.2262 102.845 92.3833 103.189 91.5183C103.369 91.0411 103.602 90.5851 103.751 90.0654L104.238 88.496C105.551 83.7962 105.525 78.8234 104.164 74.1374L103.676 72.5679C103.517 72.0589 103.284 71.6029 103.093 71.1363C102.746 70.2675 102.339 69.4242 101.874 68.6124L101.587 68.061L101.259 67.552L100.665 66.64C100.349 66.1361 99.9943 65.6574 99.6043 65.2084L98.6817 64.01L99.7422 65.0705C100.189 65.4686 100.604 65.9012 100.983 66.3643L101.704 67.2233L102.096 67.7004L102.457 68.2307C103.021 69.0186 103.524 69.8481 103.963 70.7121C104.196 71.1787 104.482 71.6453 104.684 72.1649C104.885 72.6846 105.108 73.2254 105.32 73.7662C107.062 78.6558 107.088 83.9925 105.394 88.8989C105.182 89.4504 104.97 89.9594 104.779 90.5108C104.588 91.0623 104.292 91.4971 104.069 91.9743C103.634 92.8379 103.134 93.6675 102.574 94.4557C102.46 94.6466 102.344 94.8269 102.224 94.9966L101.821 95.442ZM105.331 99.4929C105.094 99.8082 104.839 100.109 104.567 100.394L103.867 101.094L102.51 102.388L103.655 100.946L104.26 100.172C104.498 99.8636 104.718 99.5414 104.917 99.2066C105.136 98.8601 105.38 98.489 105.649 98.0931L106.041 97.478L106.402 96.7993C106.961 95.8104 107.457 94.7868 107.886 93.7346C108.109 93.162 108.395 92.5999 108.586 91.9743L109.18 90.0549C109.965 87.1934 110.372 84.2414 110.389 81.2743C110.343 78.3078 109.911 75.3598 109.106 72.5043L108.48 70.6061C108.289 69.9804 107.993 69.4184 107.77 68.8457C107.331 67.7961 106.824 66.776 106.253 65.7916L105.893 65.1129L105.49 64.5085L104.748 63.395C104.546 63.0651 104.326 62.7465 104.09 62.4406L103.475 61.6771L102.319 60.2348L103.645 61.518L104.355 62.2179C104.628 62.5013 104.887 62.7986 105.129 63.1087L105.988 64.1691L106.465 64.7524C106.603 64.9645 106.752 65.1766 106.89 65.3993C107.569 66.3598 108.175 67.3701 108.703 68.4215C108.979 68.9836 109.318 69.5562 109.562 70.1819L110.315 72.1331C112.406 78.0538 112.436 84.5074 110.4 90.4472C110.156 91.1153 109.901 91.7728 109.668 92.3985C109.435 93.0241 109.095 93.6074 108.82 94.18C108.304 95.2348 107.708 96.2487 107.038 97.2129L106.614 97.8704L106.158 98.4536L105.331 99.4929ZM108.661 103.735L107.844 104.562L106.306 106.1L107.664 104.403L108.395 103.512C108.671 103.183 108.894 102.78 109.17 102.377L110.039 101.062L110.516 100.352L110.941 99.5459C111.608 98.3837 112.2 97.1794 112.712 95.9404C112.977 95.2617 113.327 94.5936 113.549 93.8195L114.27 91.5607C116.213 84.8035 116.18 77.6313 114.175 70.8924L113.433 68.6443C113.199 67.9125 112.849 67.2445 112.574 66.5233C112.05 65.2879 111.448 64.0871 110.771 62.9284C110.622 62.6633 110.474 62.3982 110.336 62.133C110.198 61.8679 110.007 61.6559 109.859 61.4226L108.968 60.1182C108.727 59.7298 108.465 59.3546 108.183 58.9941L107.452 58.1033C106.571 57.0429 106.073 56.4278 106.073 56.4278L107.621 57.9443L108.449 58.7714C108.77 59.1068 109.071 59.4609 109.35 59.8319C109.668 60.2136 110.007 60.6272 110.41 61.0726L110.962 61.7513L111.46 62.5254C112.253 63.6563 112.962 64.8436 113.581 66.0779C113.91 66.7566 114.302 67.4247 114.589 68.1989C114.875 68.973 115.161 69.7153 115.458 70.4894C117.882 77.4473 117.919 85.0141 115.564 91.9955L114.705 94.2967C114.429 95.039 114.037 95.7071 113.73 96.4176C113.123 97.6549 112.432 98.849 111.662 99.9913L111.163 100.765L110.622 101.455L109.626 102.706C109.191 103.067 108.926 103.448 108.618 103.756L108.661 103.735ZM116.084 102.727C114.832 104.619 113.412 106.393 111.842 108.03C111.291 108.623 110.782 109.037 110.527 109.334L110.06 109.779L110.474 109.292C110.75 108.963 111.174 108.507 111.662 107.87C113.074 106.115 114.343 104.25 115.458 102.292C117.113 99.4095 118.413 96.3365 119.329 93.1408C121.603 85.3188 121.562 77.0057 119.212 69.2063C118.25 66.0506 116.915 63.0211 115.235 60.1818C114.099 58.232 112.812 56.3741 111.386 54.625C110.888 53.9994 110.453 53.5646 110.188 53.2252L109.763 52.7374L110.23 53.1828C110.527 53.4797 111.004 53.8827 111.556 54.4766C115.54 58.5658 118.562 63.493 120.4 68.8988C123.131 76.8984 123.172 85.5716 120.516 93.5968C119.453 96.8331 117.959 99.9113 116.073 102.749L116.084 102.727Z" fill="url(#paint2_linear_43_1364)"/>
<mask id="path-8-outside-1_43_1364" maskUnits="userSpaceOnUse" x="0" y="0" width="163" height="163" fill="black">
<rect fill="white" width="163" height="163"/>
<path d="M153.741 70.7864C152.147 70.1515 150.724 69.1553 149.581 67.8763C148.439 66.5972 147.61 65.0703 147.158 63.4159C146.707 61.7615 146.646 60.0248 146.98 58.3428C147.315 56.6608 148.035 55.0796 149.085 53.7236C150.435 51.9787 151.233 49.8702 151.377 47.6686C151.52 45.467 151.003 43.2728 149.89 41.3674C148.778 39.462 147.122 37.9324 145.134 36.9747C143.147 36.0171 140.918 35.6752 138.735 35.9928C137.039 36.2425 135.308 36.094 133.678 35.559C132.049 35.0241 130.567 34.1173 129.349 32.9105C128.131 31.7037 127.21 30.2301 126.66 28.6061C126.11 26.9821 125.945 25.2523 126.179 23.5537C126.476 21.3679 126.112 19.1435 125.136 17.1656C124.159 15.1877 122.614 13.5466 120.699 12.4527C118.783 11.3589 116.585 10.8621 114.385 11.0261C112.186 11.1901 110.085 12.0074 108.353 13.3733C107.008 14.4358 105.434 15.1711 103.756 15.5211C102.078 15.8712 100.342 15.8264 98.6839 15.3904C97.0261 14.9543 95.4924 14.139 94.2038 13.0086C92.9151 11.8782 91.9068 10.4638 91.2585 8.87696C90.4227 6.83514 88.9959 5.08962 87.1611 3.86433C85.3264 2.63904 83.1674 1.98986 80.9611 2.00012C78.7549 2.01038 76.602 2.67961 74.7787 3.9219C72.9554 5.1642 71.5449 6.9229 70.7281 8.9724C70.0957 10.5592 69.1044 11.9781 67.8319 13.1176C66.5593 14.2572 65.0401 15.0865 63.3934 15.5405C61.7466 15.9946 60.0171 16.061 58.3404 15.7347C56.6636 15.4084 55.0853 14.6981 53.729 13.6596C51.9841 12.3095 49.8756 11.5115 47.674 11.368C45.4724 11.2246 43.2781 11.7421 41.3727 12.8544C39.4673 13.9666 37.9377 15.6228 36.9801 17.6104C36.0225 19.598 35.6805 21.8264 35.9982 24.0097C36.2437 25.7062 36.0919 27.4366 35.5548 29.0645C35.0176 30.6924 34.1098 32.1733 32.9028 33.3906C31.6958 34.6079 30.2226 35.5283 28.5993 36.0792C26.9761 36.6301 25.247 36.7966 23.5484 36.5655C21.3619 36.2662 19.1358 36.6279 17.1565 37.6041C15.1772 38.5802 13.5351 40.1261 12.4415 42.0431C11.3479 43.96 10.8528 46.1602 11.0198 48.3608C11.1868 50.5615 12.0083 52.6618 13.3787 54.3917C14.4409 55.7376 15.1756 57.312 15.525 58.9905C15.8743 60.6691 15.8286 62.4059 15.3915 64.0638C14.9544 65.7217 14.1379 67.2553 13.0064 68.5434C11.8749 69.8316 10.4594 70.839 8.87173 71.4863C6.83032 72.3231 5.08551 73.7509 3.86116 75.5863C2.6368 77.4216 1.98875 79.581 2.00015 81.7872C2.01154 83.9935 2.68186 86.146 3.92511 87.9687C5.16836 89.7913 6.92783 91.2009 8.97777 92.0167C10.5706 92.6502 11.9944 93.6452 13.1367 94.9233C14.2791 96.2014 15.1087 97.7275 15.5602 99.3812C16.0117 101.035 16.0726 102.771 15.7382 104.452C15.4037 106.133 14.6831 107.714 13.6332 109.069C12.2785 110.812 11.4764 112.92 11.33 115.123C11.1835 117.325 11.6995 119.521 12.8115 121.428C13.9234 123.335 15.5805 124.865 17.5696 125.823C19.5586 126.78 21.7886 127.12 23.9726 126.8C25.67 126.552 27.4016 126.703 29.0309 127.239C30.6602 127.775 32.1425 128.683 33.3611 129.89C34.5796 131.097 35.501 132.571 36.0525 134.195C36.604 135.82 36.7705 137.55 36.539 139.249C36.2419 141.434 36.6045 143.658 37.5803 145.635C38.5562 147.612 40.1006 149.252 42.0154 150.346C43.9302 151.439 46.1281 151.934 48.3267 151.769C50.5254 151.604 52.6245 150.786 54.3547 149.419C55.7008 148.357 57.2752 147.621 58.954 147.271C60.6328 146.921 62.3699 146.966 64.0284 147.402C65.6869 147.838 67.2215 148.653 68.5111 149.784C69.8008 150.914 70.8102 152.328 71.4598 153.915C72.3051 155.935 73.7308 157.659 75.5563 158.867C77.3818 160.076 79.5251 160.716 81.7145 160.706C83.904 160.696 86.0411 160.036 87.8553 158.81C89.6695 157.584 91.079 155.848 91.9054 153.82C92.5402 152.227 93.5364 150.803 94.8155 149.661C96.0946 148.519 97.6215 147.689 99.2759 147.238C100.93 146.786 102.667 146.725 104.349 147.06C106.031 147.394 107.612 148.115 108.968 149.165C110.712 150.514 112.82 151.311 115.02 151.455C117.22 151.598 119.414 151.082 121.318 149.971C123.223 148.86 124.753 147.206 125.712 145.22C126.67 143.234 127.014 141.008 126.699 138.825C126.45 137.128 126.598 135.397 127.133 133.768C127.668 132.138 128.575 130.655 129.781 129.437C130.988 128.218 132.461 127.296 134.085 126.745C135.709 126.193 137.439 126.027 139.138 126.259C141.324 126.558 143.549 126.198 145.528 125.223C147.507 124.248 149.149 122.704 150.244 120.788C151.338 118.873 151.835 116.674 151.67 114.474C151.505 112.274 150.686 110.174 149.318 108.443C148.256 107.097 147.521 105.523 147.171 103.844C146.821 102.165 146.865 100.428 147.301 98.7694C147.737 97.1109 148.553 95.5763 149.683 94.2867C150.813 92.9971 152.228 91.9876 153.815 91.338C155.868 90.5117 157.627 89.0883 158.862 87.2519C160.098 85.4154 160.754 83.2505 160.746 81.037C160.738 78.8235 160.067 76.6633 158.818 74.8359C157.569 73.0084 155.8 71.5978 153.741 70.7864ZM146.879 81.0728C146.94 94.0365 143.155 106.727 136.003 117.54C128.852 128.352 118.654 136.802 106.701 141.819C94.7469 146.836 81.5739 148.196 68.8474 145.726C56.1209 143.257 44.4125 137.069 35.2028 127.945C25.993 118.821 19.6956 107.172 17.1068 94.4688C14.518 81.766 15.7542 68.5809 20.6589 56.5807C25.5636 44.5805 33.9167 34.3041 44.6618 27.0512C55.4069 19.7983 68.0614 15.8945 81.0251 15.8335C98.408 15.7743 115.104 22.6135 127.45 34.8503C139.797 47.0871 146.784 63.7219 146.879 81.1046V81.0728Z"/>
</mask>
<path d="M153.741 70.7864C152.147 70.1515 150.724 69.1553 149.581 67.8763C148.439 66.5972 147.61 65.0703 147.158 63.4159C146.707 61.7615 146.646 60.0248 146.98 58.3428C147.315 56.6608 148.035 55.0796 149.085 53.7236C150.435 51.9787 151.233 49.8702 151.377 47.6686C151.52 45.467 151.003 43.2728 149.89 41.3674C148.778 39.462 147.122 37.9324 145.134 36.9747C143.147 36.0171 140.918 35.6752 138.735 35.9928C137.039 36.2425 135.308 36.094 133.678 35.559C132.049 35.0241 130.567 34.1173 129.349 32.9105C128.131 31.7037 127.21 30.2301 126.66 28.6061C126.11 26.9821 125.945 25.2523 126.179 23.5537C126.476 21.3679 126.112 19.1435 125.136 17.1656C124.159 15.1877 122.614 13.5466 120.699 12.4527C118.783 11.3589 116.585 10.8621 114.385 11.0261C112.186 11.1901 110.085 12.0074 108.353 13.3733C107.008 14.4358 105.434 15.1711 103.756 15.5211C102.078 15.8712 100.342 15.8264 98.6839 15.3904C97.0261 14.9543 95.4924 14.139 94.2038 13.0086C92.9151 11.8782 91.9068 10.4638 91.2585 8.87696C90.4227 6.83514 88.9959 5.08962 87.1611 3.86433C85.3264 2.63904 83.1674 1.98986 80.9611 2.00012C78.7549 2.01038 76.602 2.67961 74.7787 3.9219C72.9554 5.1642 71.5449 6.9229 70.7281 8.9724C70.0957 10.5592 69.1044 11.9781 67.8319 13.1176C66.5593 14.2572 65.0401 15.0865 63.3934 15.5405C61.7466 15.9946 60.0171 16.061 58.3404 15.7347C56.6636 15.4084 55.0853 14.6981 53.729 13.6596C51.9841 12.3095 49.8756 11.5115 47.674 11.368C45.4724 11.2246 43.2781 11.7421 41.3727 12.8544C39.4673 13.9666 37.9377 15.6228 36.9801 17.6104C36.0225 19.598 35.6805 21.8264 35.9982 24.0097C36.2437 25.7062 36.0919 27.4366 35.5548 29.0645C35.0176 30.6924 34.1098 32.1733 32.9028 33.3906C31.6958 34.6079 30.2226 35.5283 28.5993 36.0792C26.9761 36.6301 25.247 36.7966 23.5484 36.5655C21.3619 36.2662 19.1358 36.6279 17.1565 37.6041C15.1772 38.5802 13.5351 40.1261 12.4415 42.0431C11.3479 43.96 10.8528 46.1602 11.0198 48.3608C11.1868 50.5615 12.0083 52.6618 13.3787 54.3917C14.4409 55.7376 15.1756 57.312 15.525 58.9905C15.8743 60.6691 15.8286 62.4059 15.3915 64.0638C14.9544 65.7217 14.1379 67.2553 13.0064 68.5434C11.8749 69.8316 10.4594 70.839 8.87173 71.4863C6.83032 72.3231 5.08551 73.7509 3.86116 75.5863C2.6368 77.4216 1.98875 79.581 2.00015 81.7872C2.01154 83.9935 2.68186 86.146 3.92511 87.9687C5.16836 89.7913 6.92783 91.2009 8.97777 92.0167C10.5706 92.6502 11.9944 93.6452 13.1367 94.9233C14.2791 96.2014 15.1087 97.7275 15.5602 99.3812C16.0117 101.035 16.0726 102.771 15.7382 104.452C15.4037 106.133 14.6831 107.714 13.6332 109.069C12.2785 110.812 11.4764 112.92 11.33 115.123C11.1835 117.325 11.6995 119.521 12.8115 121.428C13.9234 123.335 15.5805 124.865 17.5696 125.823C19.5586 126.78 21.7886 127.12 23.9726 126.8C25.67 126.552 27.4016 126.703 29.0309 127.239C30.6602 127.775 32.1425 128.683 33.3611 129.89C34.5796 131.097 35.501 132.571 36.0525 134.195C36.604 135.82 36.7705 137.55 36.539 139.249C36.2419 141.434 36.6045 143.658 37.5803 145.635C38.5562 147.612 40.1006 149.252 42.0154 150.346C43.9302 151.439 46.1281 151.934 48.3267 151.769C50.5254 151.604 52.6245 150.786 54.3547 149.419C55.7008 148.357 57.2752 147.621 58.954 147.271C60.6328 146.921 62.3699 146.966 64.0284 147.402C65.6869 147.838 67.2215 148.653 68.5111 149.784C69.8008 150.914 70.8102 152.328 71.4598 153.915C72.3051 155.935 73.7308 157.659 75.5563 158.867C77.3818 160.076 79.5251 160.716 81.7145 160.706C83.904 160.696 86.0411 160.036 87.8553 158.81C89.6695 157.584 91.079 155.848 91.9054 153.82C92.5402 152.227 93.5364 150.803 94.8155 149.661C96.0946 148.519 97.6215 147.689 99.2759 147.238C100.93 146.786 102.667 146.725 104.349 147.06C106.031 147.394 107.612 148.115 108.968 149.165C110.712 150.514 112.82 151.311 115.02 151.455C117.22 151.598 119.414 151.082 121.318 149.971C123.223 148.86 124.753 147.206 125.712 145.22C126.67 143.234 127.014 141.008 126.699 138.825C126.45 137.128 126.598 135.397 127.133 133.768C127.668 132.138 128.575 130.655 129.781 129.437C130.988 128.218 132.461 127.296 134.085 126.745C135.709 126.193 137.439 126.027 139.138 126.259C141.324 126.558 143.549 126.198 145.528 125.223C147.507 124.248 149.149 122.704 150.244 120.788C151.338 118.873 151.835 116.674 151.67 114.474C151.505 112.274 150.686 110.174 149.318 108.443C148.256 107.097 147.521 105.523 147.171 103.844C146.821 102.165 146.865 100.428 147.301 98.7694C147.737 97.1109 148.553 95.5763 149.683 94.2867C150.813 92.9971 152.228 91.9876 153.815 91.338C155.868 90.5117 157.627 89.0883 158.862 87.2519C160.098 85.4154 160.754 83.2505 160.746 81.037C160.738 78.8235 160.067 76.6633 158.818 74.8359C157.569 73.0084 155.8 71.5978 153.741 70.7864ZM146.879 81.0728C146.94 94.0365 143.155 106.727 136.003 117.54C128.852 128.352 118.654 136.802 106.701 141.819C94.7469 146.836 81.5739 148.196 68.8474 145.726C56.1209 143.257 44.4125 137.069 35.2028 127.945C25.993 118.821 19.6956 107.172 17.1068 94.4688C14.518 81.766 15.7542 68.5809 20.6589 56.5807C25.5636 44.5805 33.9167 34.3041 44.6618 27.0512C55.4069 19.7983 68.0614 15.8945 81.0251 15.8335C98.408 15.7743 115.104 22.6135 127.45 34.8503C139.797 47.0871 146.784 63.7219 146.879 81.1046V81.0728Z" fill="url(#paint3_linear_43_1364)"/>
<path d="M153.741 70.7864C152.147 70.1515 150.724 69.1553 149.581 67.8763C148.439 66.5972 147.61 65.0703 147.158 63.4159C146.707 61.7615 146.646 60.0248 146.98 58.3428C147.315 56.6608 148.035 55.0796 149.085 53.7236C150.435 51.9787 151.233 49.8702 151.377 47.6686C151.52 45.467 151.003 43.2728 149.89 41.3674C148.778 39.462 147.122 37.9324 145.134 36.9747C143.147 36.0171 140.918 35.6752 138.735 35.9928C137.039 36.2425 135.308 36.094 133.678 35.559C132.049 35.0241 130.567 34.1173 129.349 32.9105C128.131 31.7037 127.21 30.2301 126.66 28.6061C126.11 26.9821 125.945 25.2523 126.179 23.5537C126.476 21.3679 126.112 19.1435 125.136 17.1656C124.159 15.1877 122.614 13.5466 120.699 12.4527C118.783 11.3589 116.585 10.8621 114.385 11.0261C112.186 11.1901 110.085 12.0074 108.353 13.3733C107.008 14.4358 105.434 15.1711 103.756 15.5211C102.078 15.8712 100.342 15.8264 98.6839 15.3904C97.0261 14.9543 95.4924 14.139 94.2038 13.0086C92.9151 11.8782 91.9068 10.4638 91.2585 8.87696C90.4227 6.83514 88.9959 5.08962 87.1611 3.86433C85.3264 2.63904 83.1674 1.98986 80.9611 2.00012C78.7549 2.01038 76.602 2.67961 74.7787 3.9219C72.9554 5.1642 71.5449 6.9229 70.7281 8.9724C70.0957 10.5592 69.1044 11.9781 67.8319 13.1176C66.5593 14.2572 65.0401 15.0865 63.3934 15.5405C61.7466 15.9946 60.0171 16.061 58.3404 15.7347C56.6636 15.4084 55.0853 14.6981 53.729 13.6596C51.9841 12.3095 49.8756 11.5115 47.674 11.368C45.4724 11.2246 43.2781 11.7421 41.3727 12.8544C39.4673 13.9666 37.9377 15.6228 36.9801 17.6104C36.0225 19.598 35.6805 21.8264 35.9982 24.0097C36.2437 25.7062 36.0919 27.4366 35.5548 29.0645C35.0176 30.6924 34.1098 32.1733 32.9028 33.3906C31.6958 34.6079 30.2226 35.5283 28.5993 36.0792C26.9761 36.6301 25.247 36.7966 23.5484 36.5655C21.3619 36.2662 19.1358 36.6279 17.1565 37.6041C15.1772 38.5802 13.5351 40.1261 12.4415 42.0431C11.3479 43.96 10.8528 46.1602 11.0198 48.3608C11.1868 50.5615 12.0083 52.6618 13.3787 54.3917C14.4409 55.7376 15.1756 57.312 15.525 58.9905C15.8743 60.6691 15.8286 62.4059 15.3915 64.0638C14.9544 65.7217 14.1379 67.2553 13.0064 68.5434C11.8749 69.8316 10.4594 70.839 8.87173 71.4863C6.83032 72.3231 5.08551 73.7509 3.86116 75.5863C2.6368 77.4216 1.98875 79.581 2.00015 81.7872C2.01154 83.9935 2.68186 86.146 3.92511 87.9687C5.16836 89.7913 6.92783 91.2009 8.97777 92.0167C10.5706 92.6502 11.9944 93.6452 13.1367 94.9233C14.2791 96.2014 15.1087 97.7275 15.5602 99.3812C16.0117 101.035 16.0726 102.771 15.7382 104.452C15.4037 106.133 14.6831 107.714 13.6332 109.069C12.2785 110.812 11.4764 112.92 11.33 115.123C11.1835 117.325 11.6995 119.521 12.8115 121.428C13.9234 123.335 15.5805 124.865 17.5696 125.823C19.5586 126.78 21.7886 127.12 23.9726 126.8C25.67 126.552 27.4016 126.703 29.0309 127.239C30.6602 127.775 32.1425 128.683 33.3611 129.89C34.5796 131.097 35.501 132.571 36.0525 134.195C36.604 135.82 36.7705 137.55 36.539 139.249C36.2419 141.434 36.6045 143.658 37.5803 145.635C38.5562 147.612 40.1006 149.252 42.0154 150.346C43.9302 151.439 46.1281 151.934 48.3267 151.769C50.5254 151.604 52.6245 150.786 54.3547 149.419C55.7008 148.357 57.2752 147.621 58.954 147.271C60.6328 146.921 62.3699 146.966 64.0284 147.402C65.6869 147.838 67.2215 148.653 68.5111 149.784C69.8008 150.914 70.8102 152.328 71.4598 153.915C72.3051 155.935 73.7308 157.659 75.5563 158.867C77.3818 160.076 79.5251 160.716 81.7145 160.706C83.904 160.696 86.0411 160.036 87.8553 158.81C89.6695 157.584 91.079 155.848 91.9054 153.82C92.5402 152.227 93.5364 150.803 94.8155 149.661C96.0946 148.519 97.6215 147.689 99.2759 147.238C100.93 146.786 102.667 146.725 104.349 147.06C106.031 147.394 107.612 148.115 108.968 149.165C110.712 150.514 112.82 151.311 115.02 151.455C117.22 151.598 119.414 151.082 121.318 149.971C123.223 148.86 124.753 147.206 125.712 145.22C126.67 143.234 127.014 141.008 126.699 138.825C126.45 137.128 126.598 135.397 127.133 133.768C127.668 132.138 128.575 130.655 129.781 129.437C130.988 128.218 132.461 127.296 134.085 126.745C135.709 126.193 137.439 126.027 139.138 126.259C141.324 126.558 143.549 126.198 145.528 125.223C147.507 124.248 149.149 122.704 150.244 120.788C151.338 118.873 151.835 116.674 151.67 114.474C151.505 112.274 150.686 110.174 149.318 108.443C148.256 107.097 147.521 105.523 147.171 103.844C146.821 102.165 146.865 100.428 147.301 98.7694C147.737 97.1109 148.553 95.5763 149.683 94.2867C150.813 92.9971 152.228 91.9876 153.815 91.338C155.868 90.5117 157.627 89.0883 158.862 87.2519C160.098 85.4154 160.754 83.2505 160.746 81.037C160.738 78.8235 160.067 76.6633 158.818 74.8359C157.569 73.0084 155.8 71.5978 153.741 70.7864ZM146.879 81.0728C146.94 94.0365 143.155 106.727 136.003 117.54C128.852 128.352 118.654 136.802 106.701 141.819C94.7469 146.836 81.5739 148.196 68.8474 145.726C56.1209 143.257 44.4125 137.069 35.2028 127.945C25.993 118.821 19.6956 107.172 17.1068 94.4688C14.518 81.766 15.7542 68.5809 20.6589 56.5807C25.5636 44.5805 33.9167 34.3041 44.6618 27.0512C55.4069 19.7983 68.0614 15.8945 81.0251 15.8335C98.408 15.7743 115.104 22.6135 127.45 34.8503C139.797 47.0871 146.784 63.7219 146.879 81.1046V81.0728Z" stroke="white" stroke-width="3" mask="url(#path-8-outside-1_43_1364)"/>
<path d="M39.2114 38.3788L41.0035 36.8517L46.73 41.8889L42.5942 35.5261L44.3864 33.9885L51.2793 41.9843L50.0916 43.0448L44.906 36.8517L49.1478 43.6917L48.0874 44.6036L41.9579 39.3014L47.1754 45.3565L46.1149 46.3004L39.2114 38.3788Z" fill="url(#paint4_linear_43_1364)"/>
<path d="M53.1564 37.647L49.169 30.6586L50.6113 29.8315L54.6622 36.9259C55.0334 37.5834 55.4469 37.6576 55.9029 37.4031C56.3589 37.1486 56.4968 36.7456 56.1256 36.0882L52.0747 28.9937L53.4639 28.1984L57.4512 35.1974C58.289 36.6608 58.0345 37.9122 56.624 38.7181C55.2136 39.524 53.9941 39.1105 53.1564 37.647Z" fill="url(#paint5_linear_43_1364)"/>
<path d="M61.0143 33.5431L60.8022 32.9704L62.2763 32.4296L62.5308 33.1189C62.7853 33.8294 63.1883 33.9672 63.6867 33.787C64.1851 33.6067 64.4078 33.2355 64.1321 32.5038C63.8563 31.7721 63.3367 31.2631 62.0112 30.7435C60.2826 30.0754 59.5615 29.4179 59.1585 28.2832C58.9948 27.9783 58.9019 27.6404 58.8869 27.2947C58.8718 26.949 58.9349 26.6043 59.0714 26.2864C59.208 25.9684 59.4145 25.6853 59.6756 25.4582C59.9367 25.2311 60.2457 25.0658 60.5795 24.9746C62.096 24.4231 63.1777 25.0488 63.7609 26.6395L63.9094 27.0531L62.4353 27.5833L62.2445 27.0743C61.9899 26.3638 61.6082 26.2047 61.1098 26.385C60.6114 26.5653 60.4311 26.9364 60.675 27.6151C60.9189 28.2938 61.4597 28.7498 62.7959 29.2694C64.5138 29.9375 65.2137 30.5844 65.6591 31.8145C66.253 33.437 65.7652 34.6353 64.2275 35.1974C62.6899 35.7594 61.587 35.1232 61.0143 33.5431Z" fill="url(#paint6_linear_43_1364)"/>
<path d="M67.8012 22.9915L69.4237 22.6522L71.6401 32.9704L70.0176 33.3098L67.8012 22.9915Z" fill="url(#paint7_linear_43_1364)"/>
<path d="M75.1926 29.8951L74.7896 24.2323C74.746 23.9012 74.7705 23.5647 74.8616 23.2434C74.9528 22.9221 75.1087 22.6228 75.3197 22.364C75.5307 22.1052 75.7925 21.8922 76.0888 21.7382C76.3852 21.5843 76.7099 21.4925 77.043 21.4686C77.3761 21.4447 77.7106 21.4892 78.0259 21.5993C78.3412 21.7094 78.6306 21.8828 78.8764 22.1089C79.1223 22.3349 79.3193 22.6089 79.4553 22.9138C79.5914 23.2188 79.6637 23.5484 79.6677 23.8823L79.7526 24.9958L78.1831 25.1124L78.0983 23.8929C78.0983 23.2036 77.6953 22.9385 77.1969 22.9703C76.6985 23.0022 76.3909 23.3203 76.444 24.0308L76.8575 29.9163C76.8575 30.6056 77.2605 30.8601 77.7589 30.8177C78.2573 30.7753 78.5649 30.489 78.5118 29.7573L78.4058 28.1454L79.9647 28.0393L80.0707 29.5239C80.1144 29.855 80.0899 30.1916 79.9987 30.5129C79.9076 30.8341 79.7517 31.1334 79.5407 31.3922C79.3296 31.6511 79.0679 31.864 78.7715 32.018C78.4752 32.172 78.1505 32.2637 77.8174 32.2876C77.4843 32.3115 77.1498 32.2671 76.8345 32.157C76.5192 32.0469 76.2298 31.8734 75.9839 31.6474C75.7381 31.4213 75.5411 31.1474 75.405 30.8424C75.2689 30.5374 75.1967 30.2079 75.1926 29.8739V29.8951Z" fill="url(#paint8_linear_43_1364)"/>
<path d="M91.0464 22.2068L93.443 22.6946C95.0761 23.0128 95.6912 24.0732 95.3625 25.7382L95.161 26.7986C94.8216 28.4529 93.846 29.1952 92.2235 28.8665L91.4494 28.718L90.601 32.9599L88.9785 32.6417L91.0464 22.2068ZM92.5098 27.3501C93.0295 27.4561 93.3582 27.2758 93.5067 26.5335L93.7506 25.3034C93.899 24.561 93.6657 24.2429 93.1567 24.1687L92.3826 24.0096L91.7463 27.191L92.5098 27.3501Z" fill="url(#paint9_linear_43_1364)"/>
<path d="M100.962 24.6777L103.252 25.5685C103.588 25.6335 103.903 25.7786 104.17 25.9915C104.437 26.2043 104.649 26.4787 104.788 26.7911C104.926 27.1035 104.987 27.4448 104.965 27.7858C104.944 28.1269 104.84 28.4576 104.663 28.7498L104.429 29.3543C104.037 30.4147 103.464 30.892 102.669 30.9026C103.348 31.4434 103.316 32.2706 102.881 33.384L102.213 35.1126C102.028 35.5084 101.927 35.9379 101.916 36.3745L100.389 35.7913C100.41 35.3524 100.522 34.9227 100.718 34.5293L101.418 32.7265C101.768 31.8145 101.619 31.4116 100.909 31.1465L100.378 30.9344L98.7453 35.1762L97.1971 34.5717L100.962 24.6777ZM101.428 29.7148C102.012 29.9375 102.489 29.8209 102.764 29.0362L103.061 28.2726C103.327 27.5727 103.21 27.2122 102.669 26.9577L101.959 26.6819L100.898 29.4922L101.428 29.7148Z" fill="url(#paint10_linear_43_1364)"/>
<path d="M106.296 35.7912L109.159 31.0404C109.318 30.7343 109.538 30.464 109.805 30.2462C110.072 30.0284 110.382 29.8677 110.714 29.774C111.045 29.6804 111.393 29.6557 111.735 29.7016C112.077 29.7474 112.405 29.8628 112.701 30.0407C112.996 30.2185 113.252 30.4551 113.453 30.7356C113.653 31.0162 113.794 31.3349 113.867 31.672C113.939 32.0092 113.942 32.3576 113.874 32.6958C113.807 33.034 113.671 33.3549 113.475 33.6385L110.612 38.3894C110.453 38.6955 110.233 38.9657 109.966 39.1835C109.698 39.4014 109.389 39.562 109.057 39.6557C108.725 39.7494 108.378 39.7741 108.036 39.7282C107.694 39.6824 107.365 39.5669 107.07 39.3891C106.775 39.2112 106.519 38.9747 106.318 38.6941C106.118 38.4136 105.977 38.0949 105.904 37.7577C105.832 37.4206 105.829 37.0721 105.896 36.7339C105.964 36.3957 106.1 36.0749 106.296 35.7912ZM109.127 37.6258L112.107 32.6947C112.499 32.0478 112.362 31.6343 111.916 31.3585C111.471 31.0828 111.025 31.157 110.644 31.8039L107.664 36.7351C107.271 37.3819 107.409 37.7955 107.855 38.0712C108.3 38.3469 108.745 38.2409 109.127 37.594V37.6258Z" fill="url(#paint11_linear_43_1364)"/>
<path d="M119.223 34.7308L121.132 36.3958C122.383 37.4562 122.393 38.7076 121.28 39.9801L117.781 44.0098C117.596 44.3035 117.347 44.551 117.052 44.7334C116.757 44.9158 116.425 45.0282 116.08 45.062C115.734 45.0957 115.386 45.05 115.062 44.9283C114.737 44.8066 114.445 44.6121 114.207 44.3598L112.298 42.6949L119.223 34.7308ZM115.172 43.2145C115.575 43.5538 115.988 43.5644 116.487 42.9918L120.082 38.856C120.58 38.2834 120.516 37.8698 120.082 37.5198L119.445 36.9684L114.504 42.6631L115.172 43.2145Z" fill="url(#paint12_linear_43_1364)"/>
<path d="M46.783 119.058L48.6494 120.511L44.8636 127.128L50.3249 121.826L52.2019 123.268L45.7332 131.625L44.4924 130.66L49.3917 124.297L43.5486 129.885L42.4882 129.027L46.4331 121.975L41.5338 128.337L40.3885 127.446L46.783 119.058Z" fill="url(#paint13_linear_43_1364)"/>
<path d="M51.4702 132.219L55.1924 125.071L56.6665 125.835L52.8912 133.088C52.5413 133.756 52.7004 134.149 53.167 134.392C53.6336 134.636 54.0365 134.541 54.3865 133.873L58.1617 126.619L59.5827 127.351L55.8499 134.499C55.7168 134.814 55.5199 135.099 55.2713 135.335C55.0228 135.571 54.7281 135.752 54.4059 135.869C54.0836 135.985 53.7408 136.033 53.3989 136.011C53.0571 135.988 52.7236 135.895 52.4196 135.737C52.1155 135.579 51.8475 135.36 51.6323 135.093C51.4171 134.827 51.2594 134.518 51.1693 134.188C51.0791 133.857 51.0583 133.512 51.1083 133.173C51.1583 132.834 51.2779 132.509 51.4596 132.219H51.4702Z" fill="url(#paint14_linear_43_1364)"/>
<path d="M60.0917 136.259L60.2826 135.686L61.7672 136.185L61.5339 136.874C61.3006 137.584 61.5339 137.934 62.0324 138.115C62.5308 138.295 62.9338 138.115 63.1777 137.383C63.4216 136.651 63.3155 135.919 62.5838 134.679C61.6612 133.077 61.5233 132.123 61.8839 130.978C61.9448 130.636 62.0824 130.312 62.2863 130.031C62.4902 129.75 62.7551 129.518 63.0612 129.354C63.3673 129.19 63.7066 129.097 64.0537 129.082C64.4007 129.068 64.7466 129.132 65.0653 129.27C66.5923 129.779 67.0483 130.946 66.5181 132.547L66.3802 132.961L64.885 132.473L65.0547 131.953C65.2986 131.243 65.0547 130.893 64.5987 130.702C64.1427 130.511 63.7291 130.702 63.5382 131.402C63.3473 132.102 63.4534 132.77 64.1745 134.011C65.1077 135.612 65.2349 136.545 64.8426 137.797C64.7815 138.139 64.6445 138.464 64.4416 138.747C64.2387 139.03 63.9751 139.264 63.67 139.432C63.365 139.599 63.0262 139.697 62.6786 139.717C62.331 139.736 61.9834 139.678 61.6612 139.546C59.9751 139.037 59.5085 137.86 60.0917 136.259Z" fill="url(#paint15_linear_43_1364)"/>
<path d="M70.6327 130.946L72.2658 131.253L70.2721 141.625L68.639 141.307L70.6327 130.946Z" fill="url(#paint16_linear_43_1364)"/>
<path d="M75.3623 139.907L75.691 134.244C75.6864 133.907 75.7512 133.573 75.8814 133.263C76.0116 132.953 76.2043 132.672 76.4476 132.44C76.6909 132.207 76.9796 132.027 77.2955 131.911C77.6115 131.795 77.948 131.745 78.284 131.765C78.62 131.785 78.9484 131.873 79.2486 132.026C79.5488 132.178 79.8144 132.391 80.0288 132.65C80.2432 132.909 80.4019 133.21 80.4948 133.534C80.5878 133.857 80.6131 134.197 80.5691 134.53L80.5055 135.591L78.936 135.506L79.0102 134.286C79.0102 133.587 78.7345 133.279 78.2361 133.226C77.7377 133.173 77.3984 133.459 77.3559 134.149L77.006 140.034C77.006 140.723 77.2817 141.02 77.7801 141.095C78.2785 141.169 78.6179 140.872 78.6603 140.172L78.7557 138.571L80.3252 138.656L80.2298 140.151C80.2204 140.477 80.1456 140.798 80.0098 141.095C79.874 141.392 79.68 141.659 79.4393 141.879C79.1986 142.1 78.916 142.27 78.6084 142.379C78.3008 142.488 77.9744 142.535 77.6485 142.515C77.3226 142.496 77.0039 142.412 76.7112 142.267C76.4186 142.123 76.1579 141.921 75.9447 141.673C75.7315 141.426 75.5701 141.139 75.47 140.828C75.37 140.517 75.3334 140.19 75.3623 139.864V139.907Z" fill="url(#paint17_linear_43_1364)"/>
<path d="M89.1058 131.508L91.5024 131.041C91.8374 130.938 92.192 130.913 92.5381 130.97C92.8842 131.027 93.2122 131.164 93.4962 131.37C93.7802 131.576 94.0124 131.845 94.1743 132.156C94.3363 132.467 94.4236 132.812 94.4293 133.162L94.6308 134.223C94.9595 135.888 94.3338 136.948 92.7007 137.256L91.9266 137.404L92.7538 141.646L91.1207 141.964L89.1058 131.508ZM92.4144 135.75C92.934 135.644 93.1673 135.357 93.0189 134.615L92.7856 133.385C92.6371 132.643 92.3084 132.462 91.7993 132.568L91.0252 132.717L91.6403 135.898L92.4144 135.75Z" fill="url(#paint18_linear_43_1364)"/>
<path d="M97.0698 129.684L99.3816 128.836C99.6746 128.659 100.006 128.555 100.348 128.534C100.69 128.513 101.031 128.575 101.344 128.714C101.657 128.854 101.931 129.067 102.143 129.336C102.355 129.604 102.499 129.92 102.563 130.257L102.786 130.872C102.994 131.239 103.078 131.664 103.024 132.082C102.971 132.501 102.783 132.891 102.489 133.194C103.358 133.194 103.878 133.788 104.292 134.902L104.938 136.641C105.059 137.06 105.265 137.45 105.543 137.786L103.963 138.369C103.686 138.026 103.484 137.629 103.369 137.203L102.711 135.389C102.372 134.467 101.99 134.276 101.28 134.53L100.75 134.732L102.308 138.974L100.75 139.546L97.0698 129.684ZM100.76 133.141C101.343 132.929 101.598 132.547 101.301 131.752L101.025 130.988C100.76 130.278 100.41 130.055 99.8588 130.257L99.1483 130.522L100.209 133.353L100.76 133.141Z" fill="url(#paint19_linear_43_1364)"/>
<path d="M108.735 133.544L105.999 128.719C105.811 128.431 105.685 128.107 105.627 127.768C105.57 127.429 105.582 127.082 105.663 126.747C105.744 126.413 105.893 126.099 106.1 125.825C106.307 125.55 106.568 125.321 106.867 125.151C107.166 124.98 107.497 124.873 107.838 124.835C108.18 124.798 108.526 124.83 108.855 124.931C109.184 125.032 109.489 125.199 109.751 125.422C110.013 125.645 110.226 125.919 110.379 126.227L113.125 131.063C113.305 131.352 113.425 131.674 113.478 132.011C113.53 132.347 113.514 132.691 113.43 133.021C113.345 133.351 113.195 133.661 112.989 133.932C112.782 134.202 112.522 134.428 112.226 134.596C111.929 134.763 111.602 134.869 111.263 134.907C110.925 134.945 110.582 134.913 110.256 134.815C109.93 134.717 109.627 134.554 109.365 134.335C109.104 134.117 108.889 133.848 108.735 133.544ZM111.736 131.975L108.873 126.991C108.502 126.333 108.077 126.248 107.611 126.513C107.144 126.778 107.006 127.181 107.377 127.839L110.219 132.855C110.601 133.512 111.025 133.597 111.481 133.332C111.937 133.067 112.107 132.632 111.736 131.975Z" fill="url(#paint20_linear_43_1364)"/>
<path d="M112.054 122.091L114.026 120.5C114.274 120.256 114.574 120.072 114.904 119.963C115.233 119.853 115.584 119.82 115.928 119.868C116.272 119.915 116.601 120.04 116.889 120.235C117.177 120.429 117.417 120.687 117.59 120.988L120.941 125.145C122.001 126.46 121.938 127.69 120.644 128.73L118.671 130.32L112.054 122.091ZM119.679 127.574C120.092 127.245 120.167 126.831 119.679 126.248L116.243 122.006C115.766 121.423 115.352 121.412 114.938 121.741L114.281 122.271L119.011 128.146L119.679 127.574Z" fill="url(#paint21_linear_43_1364)"/>
<path d="M136.423 69.1744L129.827 88.0081L136.328 83.7345L131.238 103.926L143.062 77.902L135.426 81.2424L136.423 69.1744Z" fill="#00E0B8"/>
<path d="M26.242 69.1744L32.838 88.0081L26.3374 83.7345L31.417 103.926L19.6035 77.902L27.2282 81.2424L26.242 69.1744Z" fill="#00E0B8"/>
<path d="M184.784 102.111H189.2V103.551H184.784V102.111ZM184.784 98.6314H189.2V100.023H184.784V98.6314ZM184.784 95.1274H189.2V96.5194H184.784V95.1274ZM179.744 106.719C180.824 107.727 182.24 109.191 182.912 110.055L184.976 108.327C184.4 107.655 183.368 106.647 182.432 105.783H191.936V92.8714H182.192V105.567L181.712 105.135L179.744 106.719ZM175.16 106.071H177.872V101.055C178.736 101.847 179.624 102.711 180.176 103.311L181.664 101.031C181.112 100.575 178.832 98.9434 177.872 98.3914V97.5034H181.256V95.0794H177.872V91.6954H175.16V95.0794H171.224V97.5034H174.704C173.768 99.5914 172.208 101.679 170.624 102.855C171.2 103.311 172.04 104.199 172.448 104.823C173.432 103.959 174.344 102.759 175.16 101.343V106.071ZM173.408 112.767C174.248 111.375 174.944 109.239 175.424 107.535L172.88 106.527C172.472 108.231 171.656 110.199 170.792 111.471L173.408 112.767ZM180.656 111.087C179.36 111.087 179.12 110.991 179.12 110.271V107.031H176.312V110.319C176.312 112.815 177.128 113.607 180.392 113.607H184.712C187.352 113.607 188.144 112.767 188.504 109.335C187.712 109.191 186.512 108.783 185.936 108.327C185.792 110.751 185.624 111.087 184.496 111.087H180.656ZM187.832 107.367C188.768 108.975 190.088 111.087 190.664 112.359L193.328 110.991C192.68 109.743 191.288 107.703 190.328 106.215L187.832 107.367ZM212.84 99.3274C212.264 101.271 211.472 103.047 210.536 104.655C210.128 102.735 209.792 100.479 209.576 98.0794H216.992V95.2474H214.496L215.648 94.0234C214.808 93.2314 213.056 92.1274 211.736 91.4554L210.008 93.1594C210.992 93.7594 212.192 94.5274 213.08 95.2474H209.408C209.36 94.0714 209.336 92.8954 209.36 91.6954H206.36C206.36 92.8954 206.408 94.0714 206.456 95.2474H196.664V102.255C196.664 105.375 196.496 109.551 194.672 112.431C195.32 112.767 196.592 113.823 197.096 114.375C199.064 111.447 199.568 106.767 199.664 103.263H202.784C202.712 106.287 202.616 107.439 202.376 107.775C202.184 108.015 201.992 108.063 201.656 108.063C201.272 108.063 200.456 108.039 199.592 107.967C200.024 108.687 200.336 109.791 200.384 110.631C201.488 110.655 202.52 110.655 203.144 110.559C203.864 110.439 204.344 110.223 204.8 109.599C205.352 108.903 205.496 106.767 205.568 101.727C205.568 101.391 205.592 100.647 205.592 100.647H199.664V98.0794H206.624C206.936 101.679 207.464 105.039 208.28 107.751C206.888 109.311 205.232 110.631 203.384 111.639C203.984 112.191 205.016 113.367 205.448 113.991C206.936 113.079 208.28 111.999 209.504 110.727C210.56 112.695 211.88 113.895 213.56 113.895C215.792 113.895 216.752 112.839 217.208 108.399C216.44 108.087 215.432 107.463 214.784 106.791C214.664 109.791 214.376 110.991 213.8 110.991C213.032 110.991 212.264 109.983 211.568 108.255C213.296 105.927 214.712 103.143 215.696 100.023L212.84 99.3274ZM225.2 108.807C225.56 110.223 225.752 112.071 225.68 113.247L228.152 112.935C228.176 111.735 227.912 109.911 227.504 108.519L225.2 108.807ZM228.824 108.567C229.304 109.839 229.784 111.471 229.928 112.551L232.208 111.975C232.04 110.895 231.56 109.287 231.056 108.087L228.824 108.567ZM235.904 102.639C235.76 103.335 235.616 104.007 235.472 104.583H226.304C226.952 103.959 227.552 103.311 228.104 102.639H235.904ZM234.032 98.2714C233.912 98.9434 233.768 99.5914 233.624 100.167H229.952C230.36 99.5434 230.744 98.9194 231.104 98.2714H234.032ZM240.632 104.583H238.064C238.352 103.287 238.664 101.607 238.928 100.167H236.192C236.504 98.8474 236.864 97.2154 237.104 95.7754H232.4C232.904 94.6954 233.36 93.5914 233.768 92.4634L230.912 91.6714C230.48 93.0634 229.928 94.4314 229.256 95.7754H225.776L226.976 95.2714C226.64 94.2874 225.872 92.8474 225.128 91.7674L222.656 92.7274C223.232 93.6634 223.808 94.8394 224.168 95.7754H220.136V98.2714H227.84C225.632 101.703 222.608 104.679 218.648 106.503C219.128 107.151 219.8 108.279 220.136 108.999C220.736 108.687 221.336 108.375 221.912 108.015C221.48 109.791 220.592 111.471 219.32 112.551L221.552 113.967C223.064 112.671 223.88 110.607 224.36 108.543L222.176 107.847C222.608 107.583 223.016 107.319 223.4 107.031H237.68C237.392 109.767 237.08 110.967 236.696 111.351C236.456 111.567 236.24 111.615 235.904 111.615C235.448 111.615 234.536 111.615 233.576 111.495C234.008 112.215 234.296 113.271 234.344 114.039C235.496 114.087 236.576 114.063 237.2 113.991C237.944 113.895 238.472 113.703 239 113.103C239.744 112.335 240.152 110.319 240.56 105.663L240.632 104.583ZM235.88 110.559C235.64 109.671 234.968 108.351 234.32 107.391L232.352 108.063C232.952 109.071 233.576 110.463 233.768 111.303L235.88 110.559ZM259.04 105.471V107.055H249.08V105.471H259.04ZM249.08 110.943V109.215H259.04V110.943H249.08ZM246.224 114.135H249.08V113.295H259.04V114.111H262.04V103.095H246.224V114.135ZM257.648 96.1354C257.384 97.0714 256.952 98.1994 256.568 99.0874H251.624C251.456 98.2234 250.976 97.0474 250.4 96.1354H257.648ZM259.688 99.0874C260.072 98.3434 260.48 97.5034 260.888 96.6154L258.68 96.1354H263.648V93.6154H255.92C255.68 92.8954 255.32 92.0794 254.912 91.4074L251.936 91.8874C252.2 92.3914 252.488 93.0154 252.68 93.6154H244.592V96.1354H249.872L247.544 96.5914C247.928 97.3354 248.288 98.2714 248.504 99.0874H243.248V101.631H264.776V99.0874H259.688ZM274.52 103.527C274.376 102.351 274.04 100.623 273.656 99.2554L271.856 99.6634C271.976 100.143 272.096 100.671 272.192 101.223L270.296 101.415C271.808 99.7354 273.32 97.7434 274.448 95.7754L272.432 94.6714C272.12 95.3674 271.712 96.0634 271.328 96.7354L270.08 96.8314C270.92 95.6074 271.736 94.1194 272.336 92.7274L270.128 91.9594C269.6 93.7834 268.544 95.6554 268.208 96.1594C267.872 96.6634 267.56 97.0234 267.2 97.0954C267.464 97.6714 267.824 98.7034 267.944 99.1594C268.208 99.0154 268.64 98.8954 270.056 98.7034C269.456 99.5434 268.928 100.191 268.688 100.479C268.088 101.175 267.632 101.631 267.128 101.751C267.392 102.303 267.752 103.407 267.872 103.815C268.28 103.623 268.952 103.455 272.504 102.975C272.552 103.335 272.6 103.671 272.624 103.959L274.52 103.527ZM273.44 107.919C271.976 109.311 269.192 110.511 266.528 111.039C267.128 111.591 267.968 112.695 268.4 113.391C271.256 112.599 274.064 110.847 275.744 108.783L273.44 107.919ZM288.8 107.199V104.847H279.512V103.695H276.656V104.847H267.152V107.199H276.656V114.015H279.512V107.199H288.8ZM280.736 109.407C282.872 110.583 285.704 112.383 287.024 113.559L288.848 111.519C287.408 110.367 284.504 108.687 282.416 107.631L280.736 109.407ZM278.888 97.4554H277.088V95.8474H278.888V97.4554ZM278.888 101.079H277.088V99.3994H278.888V101.079ZM278.816 93.7594L279.584 91.9354L276.992 91.5034C276.944 92.1514 276.776 92.9914 276.584 93.7594H274.664V103.167H281.408V93.7594H278.816ZM286.256 99.9754C286.376 100.431 286.496 100.935 286.616 101.463L284.744 101.631C286.304 99.9754 287.84 97.9354 289.04 95.9674L286.976 94.7914C286.664 95.4394 286.304 96.0874 285.968 96.6874L284.36 96.8314C285.2 95.5834 286.064 94.0714 286.64 92.5834L284.336 91.9354C283.808 93.7834 282.728 95.7034 282.392 96.2074C282.08 96.7114 281.744 97.0714 281.408 97.1674C281.672 97.7434 282.032 98.7994 282.152 99.2794C282.44 99.1114 282.92 98.9914 284.576 98.7514C283.952 99.6394 283.4 100.311 283.136 100.599C282.536 101.271 282.08 101.727 281.576 101.847C281.84 102.423 282.2 103.551 282.32 104.007C282.728 103.791 283.424 103.647 287 103.263C287.048 103.599 287.096 103.911 287.12 104.199L289.04 103.695C288.848 102.567 288.44 100.839 288.032 99.5194L286.256 99.9754ZM300.128 91.6954C300.032 95.7514 300.488 106.503 290.744 111.711C291.704 112.359 292.616 113.271 293.12 114.039C298.112 111.111 300.632 106.767 301.952 102.543C303.344 106.671 306.008 111.351 311.336 113.895C311.72 113.079 312.536 112.119 313.424 111.423C305.048 107.727 303.584 98.6794 303.248 95.4394C303.344 93.9994 303.392 92.7034 303.416 91.6954H300.128ZM324.68 99.4234L322.184 101.607C323.84 103.023 325.88 105.087 327.344 106.887L329.912 104.679C328.688 103.191 326.384 100.815 324.68 99.4234ZM344.768 107.775V110.463H342.536V107.775H344.768ZM347.216 105.495H340.064V113.775H342.536V112.767H347.216V105.495ZM340.064 104.343H347.168V102.183H340.064V104.343ZM340.064 98.9674V101.127H347.12V98.9674H340.064ZM345.248 94.7674C344.912 93.8554 344.216 92.5594 343.616 91.5514L341.528 92.6074C342.056 93.4954 342.632 94.7194 342.968 95.6074H339.08V97.8874H347.912V95.6074H343.76L345.248 94.7674ZM353.6 102.999V106.095H351.368V102.999H353.6ZM356.024 108.495V100.599H348.992V109.911H351.368V108.495H356.024ZM356.72 96.7594H348.392V99.1594H356.72V96.7594ZM360.368 92.7274H347.912V95.3434H357.776V110.751C357.776 111.159 357.632 111.303 357.224 111.303C356.816 111.303 355.424 111.327 354.176 111.255C354.536 111.999 354.92 113.295 355.016 114.087C356.984 114.087 358.328 114.015 359.216 113.559C360.104 113.079 360.368 112.311 360.368 110.799V92.7274ZM378.176 109.887V105.903H381.2V109.887H378.176ZM366.8 105.903H369.68V109.887H366.8V105.903ZM369.68 99.1834V103.191H366.8V99.1834H369.68ZM375.368 105.903V109.887H372.488V105.903H375.368ZM375.368 99.1834V103.191H372.488V99.1834H375.368ZM381.2 99.1834V103.191H378.176V99.1834H381.2ZM378.176 96.3994V91.9114H375.368V96.3994H372.488V91.9114H369.68V96.3994H364.088V114.015H366.8V112.695H381.2V113.991H384.008V96.3994H378.176ZM392.744 96.7354C393.272 96.2794 393.8 95.7754 394.304 95.2954C395.024 95.7514 395.816 96.2554 396.584 96.7354H392.744ZM396.776 101.175V102.111H391.328V101.967V101.175H396.776ZM391.232 104.775C391.256 104.439 391.28 104.103 391.28 103.791H396.776V104.775H391.232ZM397.448 109.431V111.135H393.008V109.431H397.448ZM396.752 98.4154V96.8554C397.784 97.5274 398.72 98.1514 399.368 98.6794L400.832 96.2794C399.728 95.4874 397.736 94.3114 395.96 93.2794C396.104 93.0874 396.248 92.8954 396.392 92.6794L393.776 91.6474C392.24 93.9514 389.432 95.9194 386.648 97.0954C387.128 97.7194 387.872 99.1594 388.136 99.8314L388.688 99.5434V101.967C388.688 104.775 388.496 109.071 386.6 112.119C387.296 112.335 388.544 112.863 389.096 113.223C389.792 111.999 390.296 110.535 390.632 109.023V113.991H393.008V113.247H397.448V113.895H399.944V107.487H390.92C390.968 107.247 390.992 106.983 391.04 106.743H399.368V99.2074H389.24C390.128 98.7034 390.968 98.1034 391.808 97.4794V98.4154H396.752ZM403.976 94.1434H401.288V107.535H403.976V94.1434ZM405.632 91.7434V110.631C405.632 111.039 405.464 111.159 405.08 111.159C404.696 111.159 403.448 111.159 402.224 111.135C402.608 111.927 402.944 113.199 403.064 113.991C404.984 113.991 406.352 113.895 407.192 113.415C408.08 112.959 408.368 112.191 408.368 110.655V91.7434H405.632ZM416.048 91.7674C414.848 95.1754 412.76 98.5834 410.576 100.743C411.08 101.463 411.896 103.095 412.16 103.791C412.64 103.263 413.144 102.663 413.648 102.063V114.063H416.528V97.6234C417.416 96.0154 418.208 94.3114 418.832 92.6314L416.048 91.7674ZM433.256 98.2954V95.5834H423.944C424.4 94.5994 424.784 93.6154 425.12 92.6074L422.36 91.9114C421.28 95.3434 419.384 98.7994 417.272 100.959C417.872 101.415 419 102.423 419.456 102.951C420.536 101.703 421.64 100.071 422.6 98.2954H423.512V114.087H426.44V108.759H432.968V106.119H426.44V103.407H432.656V100.815H426.44V98.2954H433.256ZM445.784 96.7354H449.696C448.88 97.5034 448.016 98.2234 447.104 98.9194H445.784V96.7354ZM451.016 107.223H442.76V105.687H451.016V107.223ZM442.76 111.015V109.383H451.016V111.015H442.76ZM456.752 101.439V98.9194H451.184C452.936 97.3114 454.544 95.5354 455.912 93.6394L453.464 92.3914C452.72 93.4474 451.904 94.4554 450.992 95.4394V94.2634H445.784V91.6714H442.952V94.2634H437.312V96.7354H442.952V98.9194H435.248V101.439H443.408C440.648 103.071 437.624 104.439 434.48 105.423C435.032 105.999 435.872 107.151 436.232 107.775C437.456 107.319 438.704 106.791 439.904 106.263V114.111H442.76V113.391H451.016V114.015H453.992V103.359H445.28C446.264 102.735 447.176 102.111 448.112 101.439H456.752ZM468.68 99.4234L466.184 101.607C467.84 103.023 469.88 105.087 471.344 106.887L473.912 104.679C472.688 103.191 470.384 100.815 468.68 99.4234ZM483.416 101.103C483.776 100.935 484.328 100.791 486.224 100.575C485.528 101.607 484.928 102.399 484.592 102.759C483.896 103.671 483.368 104.223 482.792 104.367C483.056 105.015 483.464 106.215 483.584 106.671C484.112 106.431 484.904 106.215 489.656 105.447C489.704 105.687 489.752 105.903 489.776 106.095L491.744 105.279C491.552 104.103 490.88 102.207 490.184 100.791L488.312 101.487C488.6 102.087 488.864 102.783 489.104 103.479L486.44 103.839C488.264 101.655 490.04 98.9674 491.384 96.3754L489.296 95.0314C488.792 96.1594 488.192 97.2874 487.592 98.3434L485.912 98.4634C487.064 96.7594 488.168 94.6714 489.008 92.6794L486.704 91.7434C485.864 94.2634 484.4 96.9274 483.92 97.5754C483.464 98.2954 483.08 98.7514 482.624 98.8714C482.912 99.4954 483.296 100.671 483.416 101.151V101.103ZM483.488 107.439C483.344 109.359 483.056 111.495 482.528 112.911C483.104 113.031 484.112 113.343 484.568 113.607C485.048 112.167 485.432 109.887 485.6 107.775L483.488 107.439ZM486.056 107.751C486.296 109.311 486.536 111.351 486.56 112.743L488.6 112.215C488.528 110.847 488.264 108.831 487.976 107.271L486.056 107.751ZM501.248 107.175V105.351H502.304V107.175H501.248ZM498.728 107.175V105.351H499.712V107.175H498.728ZM496.16 107.175V105.351H497.192V107.175H496.16ZM501.392 98.1994V99.7834H494.576C494.576 99.3274 494.576 98.8954 494.576 98.4874V98.1994H501.392ZM504.464 103.071H494.456L494.504 101.943H503.912V96.0154H494.576V95.1754C497.84 94.8634 501.32 94.3834 503.984 93.5914L501.92 91.6954C499.592 92.4394 495.608 92.9914 492.056 93.2794V98.5114C492.056 101.439 491.984 105.615 491.24 109.311C491 108.399 490.712 107.415 490.376 106.575L488.552 107.175C488.96 108.423 489.44 110.103 489.632 111.159L490.928 110.679C490.784 111.375 490.592 112.023 490.352 112.647C490.952 112.863 492.128 113.511 492.608 113.943C493.352 111.951 493.832 109.479 494.12 107.007V114.087H496.16V109.383H497.192V113.775H498.728V109.383H499.712V113.655H501.248V109.383H502.304V111.831C502.304 112.023 502.256 112.071 502.112 112.071C501.968 112.071 501.68 112.071 501.344 112.047C501.608 112.599 501.824 113.367 501.872 113.943C502.712 113.943 503.336 113.919 503.816 113.583C504.344 113.247 504.464 112.767 504.464 111.855V103.071ZM522.176 109.887V105.903H525.2V109.887H522.176ZM510.8 105.903H513.68V109.887H510.8V105.903ZM513.68 99.1834V103.191H510.8V99.1834H513.68ZM519.368 105.903V109.887H516.488V105.903H519.368ZM519.368 99.1834V103.191H516.488V99.1834H519.368ZM525.2 99.1834V103.191H522.176V99.1834H525.2ZM522.176 96.3994V91.9114H519.368V96.3994H516.488V91.9114H513.68V96.3994H508.088V114.015H510.8V112.695H525.2V113.991H528.008V96.3994H522.176ZM541.784 96.7354H545.696C544.88 97.5034 544.016 98.2234 543.104 98.9194H541.784V96.7354ZM547.016 107.223H538.76V105.687H547.016V107.223ZM538.76 111.015V109.383H547.016V111.015H538.76ZM552.752 101.439V98.9194H547.184C548.936 97.3114 550.544 95.5354 551.912 93.6394L549.464 92.3914C548.72 93.4474 547.904 94.4554 546.992 95.4394V94.2634H541.784V91.6714H538.952V94.2634H533.312V96.7354H538.952V98.9194H531.248V101.439H539.408C536.648 103.071 533.624 104.439 530.48 105.423C531.032 105.999 531.872 107.151 532.232 107.775C533.456 107.319 534.704 106.791 535.904 106.263V114.111H538.76V113.391H547.016V114.015H549.992V103.359H541.28C542.264 102.735 543.176 102.111 544.112 101.439H552.752ZM564.68 99.4234L562.184 101.607C563.84 103.023 565.88 105.087 567.344 106.887L569.912 104.679C568.688 103.191 566.384 100.815 564.68 99.4234ZM596.408 96.1834H589.136V94.8394H596.408V96.1834ZM596.408 99.5194H589.136V98.1754H596.408V99.5194ZM599.384 92.7034H586.28V101.655H599.384V92.7034ZM586.112 94.3594C585.08 93.7114 583.064 92.6314 581.768 91.9594L580.256 94.0234C581.6 94.8154 583.568 95.9914 584.528 96.7114L586.112 94.3594ZM584.744 100.839C583.688 100.215 581.672 99.1594 580.352 98.5354L578.888 100.623C580.28 101.391 582.272 102.543 583.184 103.215L584.744 100.839ZM584.072 104.319C582.704 107.103 580.928 110.055 579.704 111.879L582.008 113.799C583.4 111.471 584.864 108.735 586.088 106.239L584.072 104.319ZM589.328 110.535V107.175H592.736V104.775H589.328V102.303H586.52V110.271C586.52 111.111 586.136 111.327 585.68 111.495C586.064 112.119 586.4 113.391 586.52 114.135C587.096 113.751 587.984 113.415 592.952 112.287C592.808 111.687 592.616 110.607 592.568 109.887L589.328 110.535ZM596.768 111.567C596.192 111.567 596.12 111.447 596.12 110.655V107.199H600.632V104.799H596.12V102.207H593.384V110.679C593.384 113.199 593.936 113.991 596.312 113.991H598.592C600.44 113.991 601.16 113.103 601.424 110.055C600.68 109.887 599.552 109.431 599 109.023C598.928 111.183 598.832 111.567 598.304 111.567H596.768ZM619.04 105.471V107.055H609.08V105.471H619.04ZM609.08 110.943V109.215H619.04V110.943H609.08ZM606.224 114.135H609.08V113.295H619.04V114.111H622.04V103.095H606.224V114.135ZM617.648 96.1354C617.384 97.0714 616.952 98.1994 616.568 99.0874H611.624C611.456 98.2234 610.976 97.0474 610.4 96.1354H617.648ZM619.688 99.0874C620.072 98.3434 620.48 97.5034 620.888 96.6154L618.68 96.1354H623.648V93.6154H615.92C615.68 92.8954 615.32 92.0794 614.912 91.4074L611.936 91.8874C612.2 92.3914 612.488 93.0154 612.68 93.6154H604.592V96.1354H609.872L607.544 96.5914C607.928 97.3354 608.288 98.2714 608.504 99.0874H603.248V101.631H624.776V99.0874H619.688ZM633.104 106.407V109.335H630.32V106.407H633.104ZM632.864 100.047H630.32V97.5994H632.864V100.047ZM630.32 102.447H635.384V95.1994H632.36C632.792 94.2394 633.248 93.0634 633.632 91.9354L630.464 91.6714C630.368 92.7034 630.08 94.0474 629.792 95.1994H627.8V113.223H630.32V111.735H635.624V104.007H630.32V102.447ZM649.016 95.3674V92.7754H636.032V95.3674H641.216V97.5034H636.848V110.391H639.44V100.071H641.216V114.063H643.88V100.071H645.776V107.823C645.776 108.063 645.704 108.135 645.488 108.135C645.296 108.135 644.696 108.135 644.096 108.111C644.432 108.759 644.768 109.815 644.816 110.559C646.04 110.559 646.88 110.535 647.552 110.103C648.248 109.671 648.416 108.975 648.416 107.871V97.5034H643.88V95.3674H649.016ZM660.68 99.4234L658.184 101.607C659.84 103.023 661.88 105.087 663.344 106.887L665.912 104.679C664.688 103.191 662.384 100.815 660.68 99.4234ZM687.344 103.143H689.864L689.384 103.527C689.696 103.647 690.032 103.815 690.368 103.959L687.344 103.983V103.143ZM680.312 101.391V100.479H684.56V101.391H680.312ZM680.312 97.9594H684.56V98.8474H680.312V97.9594ZM691.808 97.9594V98.8474H687.344V97.9594H691.808ZM687.344 101.391V100.479H691.808V101.391H687.344ZM696.92 106.743H691.568V105.783L693.32 105.735C693.704 105.999 694.04 106.287 694.328 106.527L696.08 105.063C695.312 104.487 694.184 103.767 692.984 103.143H694.592V96.2314H687.344V95.3674H696.104V93.2074H687.344V91.6954H684.56V93.2074H675.752V95.3674H684.56V96.2314H677.648V103.143H684.56V104.007C681.32 104.007 678.368 104.031 676.112 104.007L676.184 106.047C679.544 106.023 684.08 105.951 688.808 105.855V106.743H675.104V108.999H679.904L678.896 109.839C680.192 110.727 681.8 112.095 682.496 113.031L684.608 111.207C684.056 110.559 683.048 109.719 682.04 108.999H688.808V111.231C688.808 111.543 688.688 111.615 688.304 111.639C687.92 111.639 686.552 111.639 685.4 111.591C685.736 112.311 686.096 113.319 686.216 114.087C688.04 114.087 689.384 114.063 690.344 113.703C691.328 113.319 691.568 112.647 691.568 111.327V108.999H696.92V106.743ZM705.968 109.431C704.504 110.319 701.72 111.135 699.32 111.471C699.896 111.999 700.64 112.935 701 113.535C703.472 112.959 706.352 111.711 707.984 110.343L705.968 109.431ZM712.424 110.631C714.44 111.471 717.248 112.743 718.64 113.535L720.656 111.975C719.12 111.207 716.288 110.007 714.344 109.287L712.424 110.631ZM713.432 97.8154C713.096 98.3914 712.592 99.1114 712.208 99.6634L713.072 99.9274H706.52L707.816 99.6154C707.624 99.1114 707.24 98.4154 706.856 97.8154H713.432ZM711.392 106.287V105.231H718.592V103.167H711.392V102.087H719.72V99.9274H715.088C715.52 99.4954 716.024 98.9674 716.552 98.3914L714.296 97.8154H720.632V95.5834H717.536C718.136 94.7434 718.784 93.6634 719.456 92.5594L716.456 91.8634C716.12 92.8954 715.472 94.3594 714.92 95.3194L715.784 95.5834H713.648V91.6714H710.96V95.5834H709.16V91.6714H706.52V95.5834H704.312L705.464 95.1514C705.152 94.2394 704.36 92.7994 703.64 91.7914L701.192 92.6074C701.744 93.5194 702.368 94.6714 702.728 95.5834H699.464V97.8154H705.584L703.976 98.1754C704.288 98.7034 704.648 99.3754 704.864 99.9274H700.448V102.087H708.56V103.167H701.648V105.231H708.56V106.287H699.416V108.639H708.56V114.111H711.392V108.639H720.704V106.287H711.392ZM728.048 107.487V109.071H726.104V107.487H728.048ZM730.256 111.039V105.543H723.8V111.879H726.104V111.039H730.256ZM733.88 100.791C734.552 101.151 735.536 101.727 736.016 102.111H733.88V100.791ZM740.72 98.7754H738.176V100.599C738.176 103.527 737.768 108.159 734.024 111.615V111.519V104.559H736.256V102.111H736.064C736.832 100.935 737.48 99.3754 738.032 97.6474H742.424C742.208 99.1594 741.92 100.695 741.68 101.751L743.912 102.399C744.44 100.671 745.04 97.9354 745.424 95.5594L743.504 95.0314L743.12 95.1514H738.728C738.968 94.1434 739.16 93.1354 739.328 92.1034L736.616 91.6474C736.16 94.9594 735.248 98.2714 733.88 100.407V94.9594H735.272V92.5594H723.032V94.9594H731.36V102.111H722.768V104.559H731.504V111.471C731.504 111.735 731.408 111.807 731.096 111.831C730.808 111.831 729.776 111.831 728.888 111.783C729.176 112.359 729.536 113.175 729.656 113.799C731.168 113.799 732.248 113.775 733.016 113.463C733.544 113.247 733.808 112.959 733.928 112.479C734.456 112.959 735.008 113.655 735.272 114.159C737.552 112.215 738.92 109.911 739.688 107.631C740.672 110.199 742.016 112.191 744.056 114.039C744.392 113.271 745.16 112.431 745.856 111.927C743.024 109.623 741.632 106.887 740.672 102.375C740.696 101.751 740.72 101.199 740.72 100.647V98.7754ZM727.76 99.3274H725.936V97.7434H727.76V99.3274ZM723.92 95.8954V101.151H729.92V95.8954H723.92ZM764.576 96.1114H758.888V94.6714H764.576V96.1114ZM764.576 99.5914H758.888V98.1274H764.576V99.5914ZM767.48 92.4874H756.152V101.751H767.48V92.4874ZM751.928 96.3754V105.207H750.224V96.3754H751.928ZM754.544 93.7594H747.656V109.959H750.224V107.823H754.544V93.7594ZM758.288 110.823V109.239H765.32V110.823H758.288ZM765.32 105.447V106.911H758.288V105.447H765.32ZM755.456 103.047V114.087H758.288V113.223H765.32V113.967H768.272V103.047H755.456ZM792.992 103.959H783.512V101.151H791.576V98.4154H783.512V95.2714C786.152 94.9594 788.672 94.5514 790.808 93.9994L788.744 91.6234C784.808 92.6554 778.232 93.3034 772.448 93.5434C772.736 94.1674 773.096 95.3194 773.168 96.0634C775.52 95.9674 778.04 95.8234 780.536 95.6074V98.4154H772.688V101.151H780.536V103.959H771.056V106.743H780.536V110.607C780.536 111.087 780.32 111.255 779.768 111.279C779.24 111.279 777.224 111.279 775.448 111.207C775.904 111.975 776.456 113.223 776.624 114.039C779.072 114.063 780.8 113.991 781.952 113.559C783.08 113.103 783.512 112.359 783.512 110.655V106.743H792.992V103.959Z" fill="#252525"/>
<path d="M171.2 61.42V63H188.86V61.42H171.2ZM171.26 52.56V54.08H188.78V52.56H171.26ZM172.08 56.1V57.58H188.04V56.1H172.08ZM173.08 58.8V60.2H187.08V58.8H173.08ZM179.02 56.8V67.7H180.9V56.8H179.02ZM177.26 49.1V53.32H179.02V49.1H177.26ZM181 49.1V53.22H182.8V49.1H181ZM185.64 49.32C185.32 50.22 184.72 51.5 184.2 52.32L185.74 52.82C186.28 52.04 186.98 50.92 187.6 49.82L185.64 49.32ZM183.1 53.98C182.84 54.52 182.32 55.34 181.94 55.9L183.52 56.38C183.98 55.9 184.54 55.22 185.08 54.5L183.1 53.98ZM172.82 49.84C173.44 50.76 174.1 52.02 174.36 52.82L176.06 52.18C175.8 51.38 175.1 50.16 174.44 49.28L172.82 49.84ZM175.24 54.36C175.64 54.98 176.06 55.82 176.22 56.34L178.06 55.88C177.86 55.34 177.42 54.54 177.02 53.96L175.24 54.36ZM176.88 63.86C175.62 64.68 173.16 65.42 171.1 65.74C171.48 66.08 172 66.7 172.24 67.12C174.32 66.66 176.86 65.62 178.26 64.5L176.88 63.86ZM182 64.7C183.82 65.4 186.3 66.46 187.54 67.1L188.82 66C187.48 65.36 185 64.38 183.22 63.74L182 64.7ZM192.24 52.12V53.72H196.02V56.28H192.24V57.9H197.7V52.12H192.24ZM192.3 59.5V61.12H196.2V64.12H192.3V65.72H197.9V59.5H192.3ZM191.52 52.12V67.04H193.22V52.12H191.52ZM198.38 50.12V51.84H209.16V50.12H198.38ZM193.94 49.1C193.78 50.14 193.4 51.58 193.06 52.56L194.56 52.86C195.02 51.96 195.58 50.58 196.02 49.36L193.94 49.1ZM202.86 50.9V67.66H204.64V50.9H202.86ZM199.1 54.02V64.64H200.84V55.72H207.74V54.02H199.1ZM206.84 54.02V62.8C206.84 63 206.78 63.06 206.58 63.06C206.4 63.08 205.82 63.08 205.18 63.06C205.42 63.52 205.64 64.22 205.7 64.7C206.74 64.7 207.44 64.68 207.96 64.38C208.48 64.1 208.6 63.62 208.6 62.82V54.02H206.84ZM225.82 49.12C222.66 50.04 216.96 50.56 212.18 50.78C212.36 51.2 212.58 51.96 212.64 52.44C217.5 52.26 223.36 51.74 227.2 50.68L225.82 49.12ZM212.28 54.78V56.6H227.96V54.78H212.28ZM210.92 59.46V61.32H229.12V59.46H210.92ZM219.04 51.56V65.24C219.04 65.64 218.86 65.78 218.42 65.8C217.96 65.8 216.34 65.82 214.74 65.76C215.04 66.26 215.4 67.1 215.52 67.64C217.6 67.66 218.98 67.62 219.82 67.32C220.66 67.02 221 66.48 221 65.26V51.56H219.04ZM238.04 50.12V63.98C238.04 66.58 238.82 67.22 241.38 67.22C241.98 67.22 245.58 67.22 246.22 67.22C248.56 67.22 249.2 66.18 249.48 63.28C248.92 63.16 248.1 62.82 247.64 62.52C247.48 64.84 247.28 65.4 246.1 65.4C245.34 65.4 242.18 65.4 241.54 65.4C240.2 65.4 239.98 65.18 239.98 64V50.12H238.04ZM238.94 50.12V51.98H246.46V60.98H248.44V50.12H238.94ZM238.86 57.9V59.7H247.16V57.9H238.86ZM242.32 50.82V58.48H244.08V50.82H242.32ZM230.6 59.56L231.08 61.38C232.9 60.86 235.24 60.2 237.44 59.56L237.2 57.82C234.8 58.48 232.28 59.16 230.6 59.56ZM230.92 53.04V54.82H237.04V53.04H230.92ZM233.2 49.12V65.62C233.2 65.86 233.12 65.94 232.88 65.94C232.66 65.96 231.96 65.96 231.26 65.94C231.48 66.42 231.72 67.2 231.78 67.66C233 67.68 233.78 67.62 234.34 67.32C234.88 67.04 235.08 66.56 235.08 65.6V49.12H233.2ZM265.82 49.12C262.66 50.04 256.96 50.56 252.18 50.78C252.36 51.2 252.58 51.96 252.64 52.44C257.5 52.26 263.36 51.74 267.2 50.68L265.82 49.12ZM252.28 54.78V56.6H267.96V54.78H252.28ZM250.92 59.46V61.32H269.12V59.46H250.92ZM259.04 51.56V65.24C259.04 65.64 258.86 65.78 258.42 65.8C257.96 65.8 256.34 65.82 254.74 65.76C255.04 66.26 255.4 67.1 255.52 67.64C257.6 67.66 258.98 67.62 259.82 67.32C260.66 67.02 261 66.48 261 65.26V51.56H259.04ZM273.6 49.14V67.68H275.26V49.14H273.6ZM270.8 55.82V57.58H277.6V55.82H270.8ZM272.44 58.58C272.12 60.26 271.3 62.32 270.48 63.42C270.76 63.94 271.14 64.78 271.3 65.34C272.4 63.94 273.24 61.18 273.66 59L272.44 58.58ZM276.22 58.62L275.22 59.32C275.68 60.12 276.68 62.32 277.04 63.3L278.28 61.92C277.98 61.38 276.62 59.12 276.22 58.62ZM270.84 50.76C271.24 52.12 271.66 53.9 271.82 55.06L273.24 54.68C273.06 53.54 272.62 51.8 272.18 50.44L270.84 50.76ZM276.68 50.46C276.4 51.74 275.84 53.58 275.38 54.72L276.58 55.16C277.08 54.12 277.72 52.4 278.26 50.98L276.68 50.46ZM278.24 50.68V52.08H289.04V50.68H278.24ZM278.74 53.12V54.44H288.66V53.12H278.74ZM277.98 55.58V56.98H289.26V55.58H277.98ZM282.62 49.12V56.34H284.44V49.12H282.62ZM286.42 58.02V65.86C286.42 66.08 286.36 66.16 286.1 66.16C285.84 66.16 285.02 66.16 284.18 66.14C284.4 66.56 284.62 67.22 284.7 67.66C285.96 67.68 286.84 67.66 287.44 67.4C288.02 67.16 288.2 66.7 288.2 65.86V58.02H286.42ZM280.02 60.68V61.98H287.24V60.68H280.02ZM280.02 63.24V64.52H287.24V63.24H280.02ZM279.06 58.02V61.66C279.06 63.24 278.94 65.22 277.74 66.68C278.1 66.9 278.8 67.56 279.06 67.9C280.5 66.22 280.78 63.62 280.78 61.7V58.02H279.06ZM280.08 58.02V59.46H286.98V58.02H280.08ZM292.16 50.48C293.24 50.92 294.62 51.64 295.3 52.16L296.32 50.72C295.6 50.22 294.22 49.56 293.14 49.18L292.16 50.48ZM290.68 53.88C291.74 54.28 293.14 54.98 293.82 55.48L294.8 54.04C294.08 53.56 292.68 52.94 291.64 52.58L290.68 53.88ZM291.2 59.96L292.52 61.4C293.76 60.06 295.08 58.52 296.22 57.12L295.2 55.86C293.88 57.38 292.28 59 291.2 59.96ZM290.98 62.26V63.98H309.08V62.26H290.98ZM298.96 60.92V67.7H300.9V60.92H298.96ZM298.64 49.02C297.76 51 296.24 52.96 294.64 54.22C295.08 54.48 295.82 55.08 296.14 55.42C297.72 54 299.38 51.78 300.42 49.56L298.64 49.02ZM297.7 58.92V60.44H308.58V58.92H297.7ZM297.96 53.94V55.16H307.56V53.94H297.96ZM297.96 56.4V57.62H307.58V56.4H297.96ZM302.18 51.92V59.8H303.98V51.92H302.18ZM301.6 49.68C301.98 50.44 302.4 51.48 302.58 52.1L304.5 51.54C304.28 50.92 303.82 49.92 303.42 49.2L301.6 49.68ZM298.94 51.24H298.14L297.08 52.3V61.26H298.94V52.68H308.28V51.24H298.94ZM327.3 49.24C324.94 49.86 320.74 50.28 317.22 50.48C317.42 50.88 317.62 51.5 317.68 51.92C321.24 51.74 325.6 51.34 328.46 50.62L327.3 49.24ZM317.9 52.64C318.38 53.46 318.86 54.6 319.04 55.3L320.56 54.74C320.36 54.04 319.84 52.96 319.34 52.16L317.9 52.64ZM321.78 52.2C322.1 53.08 322.44 54.26 322.54 54.98L324.12 54.58C324 53.86 323.64 52.72 323.26 51.86L321.78 52.2ZM326.78 51.6C326.36 52.74 325.54 54.38 324.9 55.38L326.3 55.88C326.98 54.94 327.82 53.44 328.54 52.14L326.78 51.6ZM317.06 55.32V58.56H318.76V56.88H327.26V58.58H329V55.32H317.06ZM318.08 58.96V60.52H326.64V58.96H318.08ZM326.06 58.96V59.2C324.74 63.12 320.84 65.24 316.26 66C316.58 66.4 316.96 67.18 317.1 67.64C322.04 66.62 326.2 64.26 327.84 59.34L326.72 58.88L326.4 58.96H326.06ZM320.32 60.34L318.72 60.8C320.44 64.5 323.56 66.76 328.12 67.7C328.36 67.2 328.86 66.46 329.26 66.08C324.92 65.36 321.78 63.38 320.32 60.34ZM310.48 59.44L310.94 61.28C312.66 60.74 314.86 60.06 316.94 59.4L316.68 57.68C314.42 58.36 312.06 59.04 310.48 59.44ZM310.7 53.06V54.8H316.8V53.06H310.7ZM313.06 49.14V65.6C313.06 65.88 312.98 65.96 312.72 65.96C312.48 65.98 311.74 65.98 310.94 65.94C311.18 66.46 311.4 67.24 311.44 67.7C312.74 67.7 313.54 67.64 314.08 67.34C314.62 67.06 314.82 66.56 314.82 65.6V49.14H313.06ZM338.12 59.36V61.04H348.96V59.36H338.12ZM344.92 60.34L343.56 60.86C344.62 63.06 346.5 65.44 348.22 66.74C348.5 66.28 349.1 65.64 349.52 65.3C347.82 64.26 345.92 62.22 344.92 60.34ZM340.48 54.64H346.66V56.38H340.48V54.64ZM340.48 51.44H346.66V53.16H340.48V51.44ZM338.8 49.92V57.9H348.42V49.92H338.8ZM342.24 60.22C341.24 62.28 339.3 64.38 337.38 65.4C337.78 65.74 338.36 66.42 338.64 66.86C340.64 65.6 342.58 63.18 343.66 60.72L342.24 60.22ZM342.72 50.7V57.18H342.62V67.68H344.46V57.18H344.36V50.7H342.72ZM331.56 55.2V56.66H337.56V55.2H331.56ZM331.56 57.86V59.32H337.56V57.86H331.56ZM330.72 52.48V54.02H338.22V52.48H330.72ZM332.38 60.58V62.12H336.04V64.98H332.38V66.52H337.7V60.58H332.38ZM331.54 60.58V67.42H333.18V60.58H331.54ZM332.94 49.76C333.48 50.6 334.12 51.78 334.4 52.52L335.92 51.66C335.6 50.94 334.98 49.86 334.4 49.04L332.94 49.76ZM358.34 62.48C360.6 61.76 362 60.02 362 57.82C362 56.3 361.34 55.32 360.1 55.32C359.18 55.32 358.38 55.9 358.38 56.92C358.38 57.94 359.16 58.5 360.06 58.5C360.48 58.5 360.88 58.38 361.18 58.06L360.08 56.42L360.36 58.22C360.36 59.58 359.46 60.58 357.8 61.18L358.34 62.48ZM377.44 50.52V51.92H389.02V50.52H377.44ZM377.84 57.06V58.26H388.8V57.06H377.84ZM378.14 59.14V60.34H388.48V59.14H378.14ZM377.22 61.22V62.56H389.24V61.22H377.22ZM380.18 55.82V61.62H381.88V55.82H380.18ZM384.5 55.82V61.62H386.2V55.82H384.5ZM382.06 61.58C381 62.76 378.86 63.64 376.84 64.18C377.12 64.44 377.58 65.08 377.76 65.38C379.86 64.68 382.2 63.52 383.46 62.02L382.06 61.58ZM384.46 61.84L383.04 62.16C383.96 64.82 385.76 66.76 388.52 67.62C388.74 67.2 389.18 66.6 389.54 66.26C387.02 65.64 385.26 64 384.46 61.84ZM387.96 62.74C387.26 63.24 386 63.96 385.14 64.36L386 65.26C386.88 64.88 388.06 64.32 388.96 63.68L387.96 62.74ZM379.58 53.7H381.34V55.02H379.58V53.7ZM378.18 52.62V56.08H382.8V52.62H378.18ZM385.12 53.7H386.94V55.02H385.12V53.7ZM383.72 52.62V56.08H388.42V52.62H383.72ZM381.88 49.36C382.26 50.04 382.64 50.94 382.76 51.52L384.42 50.98C384.28 50.4 383.88 49.54 383.46 48.88L381.88 49.36ZM379.8 67.66C379.8 67.1 381.32 65.88 381.32 65.88V63.48L379.86 63.42V64.76C379.86 65.72 379.34 66.28 379 66.54C379.26 66.78 379.66 67.36 379.8 67.66ZM379.8 67.66C380.14 67.46 380.72 67.28 384.1 66.56C384.04 66.2 384.02 65.58 384.04 65.14L380.44 65.78L379.72 66.32L379.8 67.66ZM371.5 55.22V56.68H376.54V55.22H371.5ZM371.5 57.92V59.38H376.54V57.92H371.5ZM370.68 52.5V54.04H377.14V52.5H370.68ZM372.58 60.64V62.14H375.2V65.06H372.58V66.56H376.6V60.64H372.58ZM371.38 60.64V67.46H372.74V60.64H371.38ZM372.58 49.72C373.06 50.58 373.52 51.74 373.68 52.46L375.1 51.9C374.94 51.2 374.44 50.08 373.94 49.24L372.58 49.72ZM390.98 62.32V63.88H409V62.32H390.98ZM394.78 58.86V60.24H403.94V58.86H394.78ZM399.26 61.6V65.76C399.26 66.02 399.18 66.08 398.86 66.1C398.54 66.1 397.38 66.1 396.26 66.06C396.5 66.52 396.78 67.16 396.88 67.66C398.44 67.66 399.48 67.66 400.2 67.42C400.92 67.16 401.12 66.72 401.12 65.82V61.6H399.26ZM403.48 58.86V59.18C402.58 59.96 400.78 61.02 399.26 61.6C399.5 61.82 399.94 62.28 400.14 62.58C401.96 61.88 403.98 60.82 405.42 59.74L404.32 58.76L403.92 58.86H403.48ZM391.38 56.3V60.16H393.18V57.72H406.78V60.16H408.66V56.3H391.38ZM405.78 49.84C405.68 52.14 405.48 55.16 405.22 57.04H407.04C407.26 55.22 407.46 52.2 407.58 49.84H405.78ZM402.74 49.84V51.08H406.52V49.84H402.74ZM396.52 49.26C395.48 49.6 393.74 50.1 392.56 50.3L393.24 51.36C394.44 51.18 396.14 50.86 397.34 50.38L396.52 49.26ZM393.52 52V53.22H397.2V52H393.52ZM393.6 54.14V55.38H397.28V54.14H393.6ZM402.86 52V53.22H406.34V52H402.86ZM402.74 54.14V55.38H406.2V54.14H402.74ZM400.86 49.28C400.1 50.3 398.72 51.24 397.36 51.88C397.66 52.08 398.16 52.52 398.38 52.76C399.74 52.04 401.24 50.88 402.14 49.64L400.86 49.28ZM397.74 50.26C399.04 50.88 400.62 51.86 401.38 52.58L402.32 51.72C401.5 51.02 399.92 50.06 398.64 49.48L397.74 50.26ZM400.9 52.66C400.1 53.74 398.62 54.74 397.2 55.38C397.5 55.6 397.98 56.1 398.2 56.34C399.64 55.58 401.22 54.36 402.18 53.04L400.9 52.66ZM397.66 53.64C399.02 54.34 400.66 55.42 401.44 56.2L402.4 55.32C401.58 54.54 399.9 53.52 398.58 52.88L397.66 53.64ZM392.56 50.3L392.98 56.98H394.74L394.36 50.78L392.56 50.3ZM413.56 59.36V67.74H415.44V60.82H424.68V67.74H426.64V59.36H413.56ZM414.52 62.42V63.88H425.24V62.42H414.52ZM414.62 65.52V66.98H425.28V65.52H414.62ZM418.98 57.5C418.8 58.2 418.36 59.24 418 59.96L419.54 60.32C419.98 59.7 420.52 58.78 421 57.82L418.98 57.5ZM411.34 50.1V51.58H417.92V50.1H411.34ZM417.46 50.1V56.72C417.46 56.92 417.38 57 417.14 57C416.9 57 416.12 57 415.3 56.98C415.5 57.38 415.74 57.94 415.8 58.36C417.04 58.36 417.88 58.36 418.46 58.14C419 57.9 419.18 57.5 419.18 56.72V50.1H417.46ZM420.36 50.1V51.58H427.3V50.1H420.36ZM426.42 50.1V56.68C426.42 56.92 426.34 56.96 426.08 56.98C425.82 57 424.94 57 424.08 56.96C424.3 57.38 424.52 57.98 424.6 58.42C425.92 58.44 426.82 58.42 427.42 58.18C428.02 57.92 428.2 57.52 428.2 56.7V50.1H426.42ZM419.84 56L420.5 57.42C422.02 56.88 423.94 56.16 425.74 55.48L425.44 54.1C423.38 54.84 421.28 55.56 419.84 56ZM420.82 52.72C421.76 53.2 422.92 54 423.46 54.58L424.46 53.34C423.88 52.78 422.68 52.04 421.76 51.6L420.82 52.72ZM410.84 56.36L411.54 57.92C412.98 57.36 414.74 56.6 416.44 55.9L416.16 54.5C414.18 55.22 412.2 55.96 410.84 56.36ZM412.04 52.72C412.98 53.24 414.1 54.04 414.64 54.62L415.62 53.4C415.08 52.84 413.92 52.1 413 51.62L412.04 52.72ZM431.34 50.5V52.44H448.66V50.5H431.34ZM441.08 56.72C443.38 58.36 446.36 60.76 447.74 62.32L449.32 60.86C447.84 59.3 444.78 57.02 442.52 55.5L441.08 56.72ZM440.52 51.2C438.74 54.86 435.1 58.72 430.78 60.82C431.18 61.26 431.78 62.02 432.08 62.52C436.64 60.12 440.32 56.12 442.6 51.94L440.52 51.2ZM438.96 55.56V67.66H441.02V53.52L438.96 55.56ZM460 60.1V61.82H467.48V60.1H460ZM455.36 60.72L453.86 61.32C455.78 66.42 459.38 67.44 464.32 67.44H468.66C468.76 66.9 469.08 66.04 469.34 65.6C468.34 65.62 465.18 65.64 464.42 65.62C460.3 65.62 456.88 64.88 455.36 60.72ZM452.94 51.34V53.08H467.28V51.34H452.94ZM451.18 55.5V57.26H468.8V55.5H451.18ZM458.96 49.14V56.46H460.9V49.14H458.96ZM458.96 56.56V65.52L460.9 66.2V56.56H458.96ZM454.16 58.32C453.86 61.2 452.92 64.68 450.56 66.5C450.98 66.78 451.66 67.36 451.98 67.72C454.5 65.68 455.62 61.88 456.12 58.54L454.16 58.32ZM473.76 63.94V65.14H486.4V63.94H473.76ZM486.02 63.94L486 64.16C485.74 65.4 485.46 66.06 485.06 66.3C484.84 66.4 484.58 66.42 484.02 66.42C483.36 66.42 481.46 66.4 479.8 66.26C480.06 66.64 480.24 67.16 480.28 67.52C481.9 67.6 483.64 67.62 484.46 67.6C485.38 67.6 485.96 67.56 486.48 67.26C487.04 66.88 487.42 66.14 487.76 64.72C487.82 64.48 487.88 63.94 487.88 63.94H486.02ZM474.66 61.8V63H486.68V59.76H472.84V60.94H484.9V61.8H474.66ZM473.84 61.8C473.54 62.9 473.1 64.22 472.7 65.14H474.5C474.86 64.26 475.28 62.98 475.64 61.8H473.84ZM477.62 52.68V53.58H482.32V52.68H477.62ZM477.62 54.36V55.28H482.32V54.36H477.62ZM477 50.82V51.9H482.92V50.82H477ZM478.76 57.04H481.18V58.1H478.76V57.04ZM477.6 56.08V59.06H482.4V56.08H477.6ZM475.2 53.72C475.68 54.52 476.18 55.6 476.4 56.28L477.46 55.88C477.24 55.24 476.7 54.18 476.22 53.4L475.2 53.72ZM471.64 53.44C471.64 53.12 472.6 52.72 472.6 52.72V52.7C473.38 52.04 474.28 50.92 475.02 49.76L473.68 49.36C473.16 50.42 472.22 51.44 471.96 51.7C471.7 51.96 471.46 52.12 471.18 52.18C471.34 52.5 471.56 53.14 471.64 53.44ZM471.64 53.44C471.9 53.32 472.4 53.24 475.1 53.02C475.12 52.76 475.18 52.32 475.24 52.02L472.26 52.18L471.62 52.52L471.64 53.44ZM471.74 56.22C471.74 55.92 472.72 55.54 472.72 55.54V55.52C474.04 54.56 475.44 53.12 476.7 51.56L475.42 51.04C474.42 52.52 472.92 53.96 472.46 54.3C472.02 54.68 471.66 54.94 471.32 54.98C471.46 55.3 471.66 55.94 471.74 56.22ZM471.74 56.22C472.04 56.08 472.6 55.96 476.38 55.54C476.38 55.3 476.42 54.86 476.48 54.56L472.34 54.96L471.7 55.34L471.74 56.22ZM473.48 56.76C473.72 57.54 473.94 58.6 473.98 59.28L475.14 59.02C475.08 58.36 474.84 57.34 474.58 56.54L473.48 56.76ZM471.9 56.52C471.74 57.38 471.48 58.3 471.06 59.02C471.36 59.14 471.88 59.42 472.1 59.6C472.48 58.86 472.88 57.78 473.08 56.8L471.9 56.52ZM475.38 56.52C475.7 57.18 476.02 58.08 476.12 58.66L477.16 58.3C477.04 57.74 476.7 56.86 476.34 56.22L475.38 56.52ZM478.9 49.52C479.28 50.14 479.62 50.98 479.74 51.54L481 51.1C480.88 50.56 480.48 49.74 480.1 49.16L478.9 49.52ZM486.98 53.82C487.46 54.6 487.92 55.64 488.1 56.3L489.18 55.9C489 55.24 488.48 54.24 488 53.48L486.98 53.82ZM483.2 53.52C483.2 53.22 484.12 52.82 484.12 52.82V52.8C484.92 52.12 485.84 51 486.54 49.84L485.32 49.4C484.76 50.48 483.82 51.56 483.56 51.82C483.28 52.1 483.04 52.26 482.78 52.3C482.92 52.62 483.12 53.24 483.2 53.52ZM483.2 53.52C483.48 53.4 483.98 53.3 486.82 53.06C486.82 52.82 486.88 52.38 486.94 52.06L483.82 52.26L483.18 52.6L483.2 53.52ZM483.26 56.28C483.26 55.98 484.34 55.6 484.34 55.6V55.58C485.72 54.6 487.16 53.12 488.46 51.54L487.22 51C486.12 52.52 484.56 54 484.06 54.36C483.6 54.74 483.2 55 482.86 55.04C483.02 55.38 483.2 56 483.26 56.28ZM483.26 56.28C483.6 56.12 484.16 56.02 488.24 55.56C488.24 55.32 488.28 54.86 488.32 54.56L483.9 55L483.24 55.38L483.26 56.28ZM485.18 56.74C485.44 57.54 485.64 58.56 485.66 59.24L486.82 58.98C486.78 58.32 486.56 57.3 486.28 56.52L485.18 56.74ZM483.56 56.58C483.42 57.36 483.2 58.22 482.82 58.88C483.12 59.02 483.64 59.3 483.88 59.46C484.24 58.78 484.56 57.74 484.76 56.84L483.56 56.58ZM487.18 56.54C487.5 57.3 487.86 58.3 487.98 58.94L489.04 58.58C488.88 57.96 488.54 56.98 488.16 56.24L487.18 56.54ZM500.72 65.3V66.94H507.18V65.3H500.72ZM501.64 51.1V52.72H506.84V51.1H501.64ZM499.96 60.34V67.64H501.7V61.96H506.2V67.58H508V60.34H499.96ZM506.16 51.1V51.42C504.94 55.5 501.58 58.64 498 59.98C498.38 60.34 498.86 60.98 499.08 61.42C503 59.76 506.54 56.5 508.04 51.56L506.84 51.04L506.5 51.1H506.16ZM501.88 49.1C501.14 51.52 499.8 53.82 498.18 55.26C498.62 55.54 499.36 56.16 499.66 56.48C501.3 54.82 502.78 52.26 503.68 49.56L501.88 49.1ZM501.68 52.06L500.42 52.98C501.64 55.9 504.28 59.46 508.38 61.16C508.64 60.68 509.18 59.94 509.56 59.58C505.48 58.14 502.84 54.86 501.68 52.06ZM491.62 57.98V65.24H493.18V57.98H491.62ZM493.34 51.56H496.62V54.66H493.34V51.56ZM491.68 49.92V56.3H498.36V49.92H491.68ZM494.5 55.56V64.62H496.18V55.56H494.5ZM490.64 64.98L490.98 66.82C493.16 66.28 496.1 65.58 498.88 64.9L498.7 63.22C495.76 63.9 492.68 64.6 490.64 64.98ZM495.14 58.94V60.62H498.56V58.94H495.14Z" fill="white"/>
<defs>
<linearGradient id="paint0_linear_43_1364" x1="72.577" y1="70.3636" x2="79.0077" y2="84.5349" gradientUnits="userSpaceOnUse">
<stop stop-color="#FFF176"/>
<stop offset="1" stop-color="#00E0B8"/>
</linearGradient>
<linearGradient id="paint1_linear_43_1364" x1="72.5876" y1="83.2924" x2="79.0183" y2="97.4637" gradientUnits="userSpaceOnUse">
<stop stop-color="#FFF176"/>
<stop offset="1" stop-color="#00E0B8"/>
</linearGradient>
<linearGradient id="paint2_linear_43_1364" x1="49.9257" y1="47.4958" x2="112.776" y2="115.124" gradientUnits="userSpaceOnUse">
<stop stop-color="#FFF176"/>
<stop offset="1" stop-color="#00E0B8"/>
</linearGradient>
<linearGradient id="paint3_linear_43_1364" x1="27.3752" y1="23.0193" x2="135.44" y2="139.328" gradientUnits="userSpaceOnUse">
<stop stop-color="#FFF176"/>
<stop offset="1" stop-color="#00E0B8"/>
</linearGradient>
<linearGradient id="paint4_linear_43_1364" x1="41.1404" y1="35.6191" x2="49.5344" y2="44.4723" gradientUnits="userSpaceOnUse">
<stop stop-color="#FFF176"/>
<stop offset="1" stop-color="#00E0B8"/>
</linearGradient>
<linearGradient id="paint5_linear_43_1364" x1="50.5694" y1="29.6454" x2="57.9483" y2="36.0119" gradientUnits="userSpaceOnUse">
<stop stop-color="#FFF176"/>
<stop offset="1" stop-color="#00E0B8"/>
</linearGradient>
<linearGradient id="paint6_linear_43_1364" x1="60.0067" y1="26.1846" x2="66.8562" y2="31.0559" gradientUnits="userSpaceOnUse">
<stop stop-color="#FFF176"/>
<stop offset="1" stop-color="#00E0B8"/>
</linearGradient>
<linearGradient id="paint7_linear_43_1364" x1="68.4149" y1="24.0637" x2="73.3187" y2="25.9643" gradientUnits="userSpaceOnUse">
<stop stop-color="#FFF176"/>
<stop offset="1" stop-color="#00E0B8"/>
</linearGradient>
<linearGradient id="paint8_linear_43_1364" x1="75.6195" y1="22.8969" x2="81.7316" y2="26.129" gradientUnits="userSpaceOnUse">
<stop stop-color="#FFF176"/>
<stop offset="1" stop-color="#00E0B8"/>
</linearGradient>
<linearGradient id="paint9_linear_43_1364" x1="90.0127" y1="23.631" x2="96.711" y2="27.9673" gradientUnits="userSpaceOnUse">
<stop stop-color="#FFF176"/>
<stop offset="1" stop-color="#00E0B8"/>
</linearGradient>
<linearGradient id="paint10_linear_43_1364" x1="98.4395" y1="26.2268" x2="105.996" y2="31.6302" gradientUnits="userSpaceOnUse">
<stop stop-color="#FFF176"/>
<stop offset="1" stop-color="#00E0B8"/>
</linearGradient>
<linearGradient id="paint11_linear_43_1364" x1="107.139" y1="31.013" x2="113.941" y2="36.8815" gradientUnits="userSpaceOnUse">
<stop stop-color="#FFF176"/>
<stop offset="1" stop-color="#00E0B8"/>
</linearGradient>
<linearGradient id="paint12_linear_43_1364" x1="113.864" y1="36.1005" x2="120.923" y2="43.2956" gradientUnits="userSpaceOnUse">
<stop stop-color="#FFF176"/>
<stop offset="1" stop-color="#00E0B8"/>
</linearGradient>
<linearGradient id="paint13_linear_43_1364" x1="42.2768" y1="120.723" x2="50.8559" y2="129.401" gradientUnits="userSpaceOnUse">
<stop stop-color="#FFF176"/>
<stop offset="1" stop-color="#00E0B8"/>
</linearGradient>
<linearGradient id="paint14_linear_43_1364" x1="52.4406" y1="126.521" x2="59.7947" y2="132.667" gradientUnits="userSpaceOnUse">
<stop stop-color="#FFF176"/>
<stop offset="1" stop-color="#00E0B8"/>
</linearGradient>
<linearGradient id="paint15_linear_43_1364" x1="60.9517" y1="130.49" x2="67.7625" y2="135.227" gradientUnits="userSpaceOnUse">
<stop stop-color="#FFF176"/>
<stop offset="1" stop-color="#00E0B8"/>
</linearGradient>
<linearGradient id="paint16_linear_43_1364" x1="69.2187" y1="132.36" x2="73.9197" y2="134.078" gradientUnits="userSpaceOnUse">
<stop stop-color="#FFF176"/>
<stop offset="1" stop-color="#00E0B8"/>
</linearGradient>
<linearGradient id="paint17_linear_43_1364" x1="76.1899" y1="133.186" x2="82.2284" y2="136.349" gradientUnits="userSpaceOnUse">
<stop stop-color="#FFF176"/>
<stop offset="1" stop-color="#00E0B8"/>
</linearGradient>
<linearGradient id="paint18_linear_43_1364" x1="90.0025" y1="132.4" x2="96.3436" y2="135.872" gradientUnits="userSpaceOnUse">
<stop stop-color="#FFF176"/>
<stop offset="1" stop-color="#00E0B8"/>
</linearGradient>
<linearGradient id="paint19_linear_43_1364" x1="98.4242" y1="129.989" x2="105.813" y2="136.104" gradientUnits="userSpaceOnUse">
<stop stop-color="#FFF176"/>
<stop offset="1" stop-color="#00E0B8"/>
</linearGradient>
<linearGradient id="paint20_linear_43_1364" x1="106.857" y1="126.158" x2="113.655" y2="131.89" gradientUnits="userSpaceOnUse">
<stop stop-color="#FFF176"/>
<stop offset="1" stop-color="#00E0B8"/>
</linearGradient>
<linearGradient id="paint21_linear_43_1364" x1="113.593" y1="121.234" x2="120.743" y2="128.305" gradientUnits="userSpaceOnUse">
<stop stop-color="#FFF176"/>
<stop offset="1" stop-color="#00E0B8"/>
</linearGradient>
</defs>
</svg>
