<svg width="207" height="102" viewBox="0 0 207 102" fill="none" xmlns="http://www.w3.org/2000/svg">
<path opacity="0.8" d="M10.0686 46.24V47.104H13.6806V46.24H10.0686ZM9.66056 46.24V51.448C9.66056 52.564 9.99656 52.84 11.1006 52.84C11.3406 52.84 12.8646 52.84 13.1166 52.84C14.2206 52.84 14.4726 52.288 14.5926 50.332C14.3406 50.272 13.9566 50.116 13.7526 49.948C13.6926 51.676 13.5966 51.988 13.0686 51.988C12.7206 51.988 11.4486 51.988 11.1966 51.988C10.6446 51.988 10.5486 51.904 10.5486 51.448V46.24H9.66056ZM9.61256 42.472V43.336H13.2606V47.92H14.1366V42.472H9.61256ZM3.94856 44.596V52.912H4.68056V45.364H8.01656V52.756H8.76056V44.596H3.94856ZM4.32056 49.432V50.104H8.36456V49.432H4.32056ZM4.32056 51.364V52.096H8.36456V51.364H4.32056ZM3.66056 42.388V43.204H9.02456V42.388H3.66056ZM5.38856 42.616V45.148H6.03656V42.616H5.38856ZM6.73256 42.616V45.148H7.39256V42.616H6.73256ZM5.50856 45.136V46.312C5.50856 46.96 5.38856 47.752 4.68056 48.364C4.80056 48.424 5.00456 48.604 5.08856 48.712C5.83256 48.028 6.01256 47.068 6.01256 46.324V45.136H5.50856ZM6.67256 45.136V47.632C6.67256 48.22 6.81656 48.328 7.29656 48.328C7.39256 48.328 7.80056 48.328 7.88456 48.328C8.22056 48.328 8.38856 48.22 8.44856 47.968C8.29256 47.92 8.08856 47.86 7.96856 47.764C7.95656 47.8 7.92056 47.8 7.78856 47.8C7.71656 47.8 7.40456 47.8 7.34456 47.8C7.21256 47.8 7.18856 47.776 7.18856 47.632V45.136H6.67256ZM15.6486 48.784V49.588H26.3046V48.784H15.6486ZM20.4846 47.668V52.936H21.3966V47.668H20.4846ZM20.0766 49.096C19.0926 50.368 17.1606 51.508 15.4086 52.048C15.6126 52.228 15.8766 52.576 16.0206 52.804C17.7726 52.168 19.7286 50.884 20.8206 49.432L20.0766 49.096ZM21.8166 49.12L21.0606 49.48C22.1526 50.896 24.1086 52.12 25.9326 52.72C26.0646 52.48 26.3406 52.132 26.5326 51.952C24.7086 51.46 22.7886 50.368 21.8166 49.12ZM20.0166 45.796H21.9006V47.116H20.0166V45.796ZM20.0166 43.816H21.9006V45.112H20.0166V43.816ZM19.2366 43.108V47.824H22.6926V43.108H19.2366ZM20.6406 41.92C20.5686 42.352 20.4006 42.988 20.2566 43.408L20.9646 43.564C21.1446 43.18 21.3486 42.604 21.5406 42.064L20.6406 41.92ZM15.7326 44.26C16.3326 44.752 17.0406 45.448 17.3526 45.928L17.7726 45.268C17.4606 44.812 16.7406 44.14 16.1286 43.684L15.7326 44.26ZM17.9166 46.024C18.2646 46.708 18.6006 47.632 18.6966 48.208L19.3326 47.956C19.2246 47.404 18.8766 46.504 18.5166 45.832L17.9166 46.024ZM18.2166 43.672C17.7246 44.764 16.8486 46.3 16.1526 47.236L16.7406 47.512C17.4366 46.588 18.2886 45.136 18.9246 43.948L18.2166 43.672ZM17.2806 42.004C17.0406 42.7 16.5846 43.684 16.2366 44.296L16.8366 44.56C17.2086 43.96 17.6406 43.048 18.0006 42.268L17.2806 42.004ZM15.6246 47.164L15.7206 47.944C16.5966 47.8 17.6646 47.656 18.7686 47.476L18.7566 46.828C17.5686 46.96 16.4406 47.092 15.6246 47.164ZM22.6206 44.164C23.2566 44.716 23.9766 45.496 24.2886 46.024L24.7566 45.4C24.4326 44.896 23.7006 44.14 23.0766 43.612L22.6206 44.164ZM24.8526 45.928C25.2606 46.684 25.6566 47.668 25.7766 48.304L26.4486 48.028C26.3166 47.416 25.8966 46.432 25.4766 45.7L24.8526 45.928ZM25.1526 43.66C24.6606 44.764 23.7486 46.312 23.0406 47.26L23.6286 47.536C24.3486 46.6 25.2246 45.136 25.8606 43.948L25.1526 43.66ZM24.2766 41.968C24.0366 42.664 23.5686 43.648 23.2086 44.26L23.8086 44.524C24.1926 43.924 24.6366 43.024 25.0086 42.232L24.2766 41.968ZM22.6686 47.164L22.7766 47.944C23.6526 47.824 24.7446 47.68 25.8486 47.536L25.8366 46.876C24.6486 46.984 23.5086 47.092 22.6686 47.164ZM29.6886 44.224V44.884H32.6166V44.224H29.6886ZM29.5686 51.76V52.444H33.3126V51.76H29.5686ZM29.0286 46.912V47.512H33.0366V46.912H29.0286ZM28.6446 45.544V47.5C28.6446 48.88 28.4886 50.764 27.3726 52.132C27.5406 52.24 27.8646 52.528 27.9846 52.696C29.2086 51.208 29.4366 49.036 29.4366 47.524V45.544H28.6446ZM29.0886 45.544V46.216H32.6046V48.22H29.0646V48.892H33.4206V45.544H29.0886ZM29.2446 49.636V52.948H30.0246V50.32H32.7966V52.864H33.6006V49.636H29.2446ZM34.4046 43.372V50.02H35.2686V43.372H34.4046ZM37.1046 42.148V51.784C37.1046 52 37.0206 52.072 36.7926 52.072C36.5766 52.084 35.8566 52.096 35.0406 52.06C35.1726 52.324 35.3166 52.732 35.3526 52.96C36.4326 52.972 37.0806 52.948 37.4526 52.792C37.8246 52.648 37.9806 52.384 37.9806 51.772V42.148H37.1046ZM30.5406 42.04C29.9526 43.024 28.8606 44.248 27.3726 45.136C27.5526 45.268 27.8286 45.556 27.9486 45.76C29.5326 44.728 30.6366 43.468 31.3206 42.496V42.232H31.0326V42.04H30.5406ZM30.7086 42.04V42.676H30.8886C31.7646 43.312 32.8566 44.368 33.4206 44.992L34.0206 44.32C33.4086 43.684 32.2686 42.712 31.3566 42.04H30.7086ZM44.8206 43.936L44.4006 44.8H50.5086V43.936H44.8206ZM46.3206 46.54V47.368H50.2326V46.54H46.3206ZM46.3086 49.18V50.032H50.4006V49.18H46.3086ZM45.8646 44.212V52.96H46.7886V44.212H45.8646ZM45.2766 42.064C44.6886 43.828 43.7166 45.58 42.6246 46.696C42.8286 46.84 43.1886 47.164 43.3206 47.32C44.4246 46.084 45.4686 44.2 46.1526 42.292L45.2766 42.064ZM42.3966 41.968C41.7126 43.792 40.5966 45.592 39.3966 46.756C39.5646 46.972 39.8406 47.452 39.9246 47.668C41.2326 46.324 42.4686 44.272 43.2606 42.244L42.3966 41.968ZM41.1126 45.064V52.948H42.0246V44.176L42.0006 44.164L41.1126 45.064ZM57.2166 41.44H56.7246V53.44H57.2166V41.44ZM67.3446 43.18V43.972H74.2926V43.18H67.3446ZM70.3326 41.932V52.96H71.2086V41.932H70.3326ZM71.5806 48.604L70.9326 48.82C71.5806 50.236 72.7926 51.64 74.0046 52.348C74.1366 52.132 74.4126 51.808 74.6046 51.64C73.4166 51.064 72.2046 49.84 71.5806 48.604ZM68.6406 47.332H72.9486V48.4H68.6406V47.332ZM68.6406 45.628H72.9486V46.684H68.6406V45.628ZM67.8366 44.956V49.084H73.7886V44.956H67.8366ZM69.9246 48.616C69.2406 49.864 67.8966 51.112 66.6126 51.7C66.8166 51.88 67.0926 52.192 67.2246 52.408C68.5326 51.7 69.9006 50.32 70.6446 48.868L69.9246 48.616ZM63.9366 42.448V52.972H64.7526V43.264H66.7686V42.448H63.9366ZM66.4926 42.448V42.688C66.2406 43.516 65.7966 44.944 65.3646 46.036C66.2286 46.972 66.4446 47.788 66.4446 48.436C66.4446 48.796 66.3846 49.12 66.1926 49.252C66.0966 49.324 65.9646 49.36 65.8206 49.36C65.6286 49.384 65.4006 49.372 65.1246 49.348C65.2566 49.576 65.3286 49.924 65.3406 50.14C65.6166 50.152 65.9166 50.152 66.1566 50.128C66.3966 50.092 66.6126 50.02 66.7806 49.912C67.1166 49.672 67.2486 49.168 67.2486 48.52C67.2486 47.776 67.0566 46.936 66.1686 45.94C66.5766 44.98 67.0206 43.744 67.3686 42.76L66.7926 42.412L66.6486 42.448H66.4926ZM75.6486 46.156V46.924H86.3766V46.156H75.6486ZM76.2486 42.952V43.708H85.9446V42.952H76.2486ZM80.4846 41.932V43.444H81.3966V41.932H80.4846ZM76.5966 46.54V48.148C76.5966 49.408 76.4406 51.16 75.3006 52.444C75.5046 52.552 75.8766 52.852 76.0206 53.02C77.2446 51.64 77.4966 49.6 77.4966 48.16V46.54H76.5966ZM77.8446 44.224C79.8486 44.704 82.3086 45.58 83.6526 46.204L84.3366 45.676C82.9326 45.076 80.4726 44.224 78.5526 43.756L77.8446 44.224ZM83.3286 43.444C82.0926 44.404 79.5006 45.244 77.4246 45.676C77.5446 45.832 77.7126 46.12 77.7846 46.288C79.9566 45.808 82.5006 44.908 84.0126 43.816L83.3286 43.444ZM83.3406 46.792C82.2246 47.488 80.1006 48.004 78.3126 48.244C78.4926 48.424 78.6726 48.7 78.7926 48.892C80.6646 48.58 82.7886 48.004 84.0726 47.188L83.3406 46.792ZM84.0846 48.244C82.8966 49.168 80.5686 49.828 78.4206 50.14C78.6006 50.32 78.7806 50.608 78.8886 50.812C81.1446 50.428 83.4846 49.708 84.8526 48.64L84.0846 48.244ZM85.1886 49.672C83.7726 51.124 80.8806 51.928 77.6886 52.264C77.8566 52.468 78.0366 52.804 78.1206 53.032C81.4566 52.624 84.4086 51.736 86.0046 50.08L85.1886 49.672ZM87.5286 49.684V50.428H98.4246V49.684H87.5286ZM87.7686 43.228V43.96H98.1366V43.228H87.7686ZM89.2926 47.164V47.716H96.5886V47.164H89.2926ZM94.7406 48.808V51.964C94.7406 52.12 94.6926 52.156 94.4766 52.18C94.2726 52.18 93.6246 52.18 92.8326 52.156C92.9646 52.408 93.0966 52.732 93.1446 52.972C94.1046 52.972 94.7286 52.972 95.1246 52.84C95.5086 52.72 95.6166 52.48 95.6166 51.976V48.808H94.7406ZM89.6766 50.932C90.3966 51.376 91.2486 52.06 91.6446 52.54L92.2446 51.952C91.8246 51.472 90.9486 50.824 90.2406 50.392L89.6766 50.932ZM89.8686 42.208C90.2286 42.592 90.6486 43.132 90.8406 43.48L91.6086 43.12C91.3926 42.772 90.9606 42.256 90.6006 41.896L89.8686 42.208ZM89.5566 45.268H96.3606V48.34H89.5566V45.268ZM88.7286 44.68V48.928H97.2246V44.68H88.7286ZM95.1486 41.908C94.9566 42.328 94.5846 42.952 94.2966 43.348L94.9686 43.6C95.3046 43.24 95.7126 42.7 96.0726 42.184L95.1486 41.908ZM93.5406 43.576V45.748C93.5406 46.42 93.7566 46.564 94.6566 46.564C94.8366 46.564 96.0006 46.564 96.1926 46.564C96.7326 46.564 96.9486 46.456 97.0086 46.168C96.8046 46.144 96.5406 46.072 96.3726 45.976C96.3486 46.036 96.2886 46.048 96.0726 46.048C95.8566 46.048 94.9206 46.048 94.7406 46.048C94.3926 46.048 94.3326 46 94.3326 45.76V43.576H93.5406ZM91.5246 43.564V45.004C91.5246 45.568 91.3206 46.18 89.7726 46.468C89.9286 46.6 90.1326 46.876 90.2166 47.044C91.9326 46.6 92.3046 45.808 92.3046 45.004V43.564H91.5246ZM106.277 43.4688H107.373L110.168 50.4238L112.957 43.4688H114.059L110.59 52H109.734L106.277 43.4688ZM105.92 43.4688H106.887L107.045 48.6719V52H105.92V43.4688ZM113.443 43.4688H114.41V52H113.285V48.6719L113.443 43.4688ZM117.41 45.6602V52H116.32V45.6602H117.41ZM116.238 43.9785C116.238 43.8027 116.291 43.6543 116.396 43.5332C116.506 43.4121 116.666 43.3516 116.877 43.3516C117.084 43.3516 117.242 43.4121 117.352 43.5332C117.465 43.6543 117.521 43.8027 117.521 43.9785C117.521 44.1465 117.465 44.291 117.352 44.4121C117.242 44.5293 117.084 44.5879 116.877 44.5879C116.666 44.5879 116.506 44.5293 116.396 44.4121C116.291 44.291 116.238 44.1465 116.238 43.9785ZM120.24 43V52H119.15V43H120.24ZM124.113 45.6602L121.348 48.6191L119.801 50.2246L119.713 49.0703L120.82 47.7461L122.789 45.6602H124.113ZM123.123 52L120.861 48.9766L121.424 48.0098L124.4 52H123.123ZM127.746 52.1172C127.305 52.1172 126.904 52.043 126.545 51.8945C126.189 51.7422 125.883 51.5293 125.625 51.2559C125.371 50.9824 125.176 50.6582 125.039 50.2832C124.902 49.9082 124.834 49.498 124.834 49.0527V48.8066C124.834 48.291 124.91 47.832 125.062 47.4297C125.215 47.0234 125.422 46.6797 125.684 46.3984C125.945 46.1172 126.242 45.9043 126.574 45.7598C126.906 45.6152 127.25 45.543 127.605 45.543C128.059 45.543 128.449 45.6211 128.777 45.7773C129.109 45.9336 129.381 46.1523 129.592 46.4336C129.803 46.7109 129.959 47.0391 130.061 47.418C130.162 47.793 130.213 48.2031 130.213 48.6484V49.1348H125.479V48.25H129.129V48.168C129.113 47.8867 129.055 47.6133 128.953 47.3477C128.855 47.082 128.699 46.8633 128.484 46.6914C128.27 46.5195 127.977 46.4336 127.605 46.4336C127.359 46.4336 127.133 46.4863 126.926 46.5918C126.719 46.6934 126.541 46.8457 126.393 47.0488C126.244 47.252 126.129 47.5 126.047 47.793C125.965 48.0859 125.924 48.4238 125.924 48.8066V49.0527C125.924 49.3535 125.965 49.6367 126.047 49.9023C126.133 50.1641 126.256 50.3945 126.416 50.5938C126.58 50.793 126.777 50.9492 127.008 51.0625C127.242 51.1758 127.508 51.2324 127.805 51.2324C128.188 51.2324 128.512 51.1543 128.777 50.998C129.043 50.8418 129.275 50.6328 129.475 50.3711L130.131 50.8926C129.994 51.0996 129.82 51.2969 129.609 51.4844C129.398 51.6719 129.139 51.8242 128.83 51.9414C128.525 52.0586 128.164 52.1172 127.746 52.1172Z" fill="white"/>
<path d="M202.929 25.1299L0 25.1299L0 26.0199L202.929 26.0199V25.1299Z" fill="white"/>
<path d="M207 22L190 22V29H207V22Z" fill="#00E0B8"/>
<path d="M8.974 8.594H9.996V6.802H13.104V5.794H9.996V4.296H8.974V5.794H7.294V6.802H8.974V8.594ZM4.088 8.594H5.11V6.802H6.762V5.794H5.11V4.296H4.088V5.794H0.952V6.802H4.088V8.594ZM9.814 8.986C9.226 10.89 8.302 12.332 7.014 13.424C5.726 12.304 4.788 10.848 4.2 9.084L3.22 9.35C3.892 11.282 4.844 12.864 6.132 14.082C4.704 15.034 2.898 15.664 0.714 16.084C0.91 16.336 1.204 16.84 1.316 17.106C3.584 16.588 5.46 15.874 6.986 14.796C8.456 15.902 10.318 16.644 12.614 17.036C12.754 16.742 13.048 16.28 13.272 16.056C11.088 15.706 9.31 15.062 7.882 14.096C9.24 12.892 10.262 11.324 10.948 9.266L9.814 8.986ZM21.476 14.236H25.634V13.368H21.476V12.332H20.44V13.368H16.408V14.236H20.44V15.762H15.106V16.672H26.992V15.762H21.476V14.236ZM21.476 8.958V7.782H20.44V8.958H18.018C18.816 8.286 19.46 7.558 19.992 6.788H22.064C22.568 7.586 23.254 8.314 24.024 8.958H21.476ZM27.076 6.788V5.836H20.552C20.776 5.388 20.972 4.926 21.126 4.478L20.034 4.296C19.88 4.8 19.642 5.332 19.362 5.836H14.966V6.788H18.718C17.766 7.992 16.38 9.112 14.504 9.882C14.714 10.064 15.008 10.47 15.134 10.736C16.212 10.246 17.15 9.672 17.934 9.028V9.784H20.44V11.114H15.974V11.982H25.97V11.114H21.476V9.784H24.136V9.042C24.976 9.728 25.928 10.274 26.894 10.638C27.048 10.372 27.356 9.994 27.594 9.784C25.872 9.238 24.206 8.104 23.184 6.788H27.076ZM30.772 12.094V9.238H33.908V6.144H35.994V9.21H39.172V12.08H35.994V15.51H33.922V12.094H30.772ZM37.002 15.51V13.004H39.718V12.99H40.222V8.314H37.002V6.144H40.908V5.178H29.134V6.144H32.914V8.328H29.764V13.004H32.914V15.51H28.756V16.462H41.244V15.51H37.002Z" fill="#00E0B8"/>
</svg>
