<svg width="337" height="376" viewBox="0 0 337 376" fill="none" xmlns="http://www.w3.org/2000/svg">
<rect x="26.5" y="53.5" width="310" height="322" rx="19.5" stroke="#00E0B8"/>
<path fill-rule="evenodd" clip-rule="evenodd" d="M74.0332 118.322C74.4754 116.198 74.9623 113.334 75.2401 110.984H82.4641V108.248H74.6401V105.584H85.2721V113.648H77.7841C77.6627 114.342 77.5539 115.023 77.4485 115.682C77.4482 115.684 77.4479 115.686 77.4476 115.688C77.4074 115.939 77.3678 116.187 77.3281 116.432H85.5361C85.5361 116.432 85.5248 116.817 85.5021 117.182C85.4918 117.349 85.4791 117.512 85.4641 117.632C85.0801 122.696 84.6481 124.928 83.8321 125.816C83.1601 126.56 82.4641 126.752 81.4321 126.848C80.6161 126.944 79.1521 126.944 77.6881 126.896C77.6537 126.243 77.4226 125.431 77.074 124.713C76.9356 124.429 76.7786 124.159 76.6081 123.92C76.9203 123.951 77.2346 123.975 77.5426 123.994C78.6787 124.064 79.7274 124.064 80.2561 124.064C80.7361 124.064 81.0241 124.04 81.3121 123.8C81.7491 123.45 82.0668 122.245 82.3194 119.822C82.3443 119.584 82.3685 119.334 82.3921 119.072H73.8721C73.9248 118.835 73.9786 118.584 74.0332 118.322ZM81.5653 119.822H73.8721C73.6446 119.822 73.4294 119.719 73.287 119.541C73.1447 119.364 73.0906 119.131 73.1399 118.909C73.6147 116.773 74.1864 113.51 74.4953 110.896C74.5399 110.518 74.8599 110.234 75.2401 110.234H81.7141V108.998H74.6401C74.2259 108.998 73.8901 108.662 73.8901 108.248V105.584C73.8901 105.17 74.2259 104.834 74.6401 104.834H85.2721C85.6863 104.834 86.0221 105.17 86.0221 105.584V113.648C86.0221 114.062 85.6863 114.398 85.2721 114.398H78.4167C78.3441 114.832 78.2754 115.26 78.208 115.682H85.5361C85.7388 115.682 85.9329 115.764 86.0741 115.91C86.2154 116.055 86.2917 116.251 86.2858 116.454L86.2857 116.457L86.2854 116.464L86.2846 116.492L86.2811 116.593C86.278 116.677 86.2734 116.794 86.2672 116.924C86.2556 117.167 86.2374 117.482 86.2106 117.706C86.0186 120.234 85.8124 122.09 85.5458 123.436C85.2844 124.755 84.9429 125.714 84.3865 126.321C83.9795 126.771 83.544 127.074 83.0428 127.272C82.5589 127.464 82.0458 127.544 81.5105 127.594C80.6303 127.696 79.1196 127.693 77.6635 127.646C77.2743 127.633 76.9596 127.324 76.9391 126.935C76.8991 126.175 76.5204 125.088 75.9978 124.356C75.8268 124.117 75.8115 123.799 75.9588 123.545C76.1061 123.29 76.3887 123.145 76.6815 123.174C78.1046 123.314 79.5829 123.314 80.2561 123.314C80.4981 123.314 80.6174 123.306 80.6989 123.289C80.7536 123.277 80.7855 123.263 80.8319 123.224L80.8436 123.214C80.8421 123.216 80.8414 123.216 80.8413 123.216C80.841 123.216 80.8888 123.169 80.9606 123.007C81.0372 122.834 81.1196 122.58 81.2022 122.222C81.3348 121.646 81.4552 120.86 81.5653 119.822ZM89.2741 105.032C89.2741 104.618 89.6099 104.282 90.0241 104.282H92.9281C93.3423 104.282 93.6781 104.618 93.6781 105.032V127.088C93.6781 127.502 93.3423 127.838 92.9281 127.838H90.0241C89.6099 127.838 89.2741 127.502 89.2741 127.088V105.032ZM90.0241 127.088V105.032H92.9281V127.088H90.0241ZM101.01 109.154H98.5921C98.1779 109.154 97.8421 109.49 97.8421 109.904V115.16C97.8421 116.662 97.7999 118.446 97.5297 120.213C97.2587 121.984 96.7654 123.688 95.8955 125.053C95.776 125.241 95.7459 125.472 95.8134 125.684C95.881 125.896 96.0391 126.067 96.2451 126.151C96.5143 126.26 96.9306 126.482 97.3557 126.741C97.7813 127.001 98.1614 127.264 98.368 127.441C98.5336 127.583 98.7529 127.646 98.9686 127.614C99.1843 127.581 99.3751 127.456 99.4911 127.271C99.6534 127.013 99.8055 126.745 99.9479 126.468C99.9727 126.487 99.9987 126.503 100.026 126.519L102.042 127.647C102.372 127.831 102.788 127.741 103.012 127.437C103.438 126.859 103.803 126.132 104.109 125.412C104.161 125.914 104.188 126.387 104.178 126.756C104.172 126.978 104.265 127.191 104.432 127.338C104.598 127.485 104.821 127.551 105.041 127.517L107.249 127.181C107.574 127.132 107.824 126.879 107.876 126.563C107.926 126.75 108.047 126.911 108.215 127.011C108.402 127.124 108.63 127.149 108.837 127.08L110.925 126.384C111.221 126.285 111.418 126.018 111.437 125.72C111.52 125.829 111.633 125.914 111.763 125.964C111.936 126.03 112.126 126.03 112.297 125.966C112.421 126.342 112.506 126.759 112.532 127.098C112.561 127.474 112.866 127.77 113.243 127.789C114.21 127.837 115.164 127.817 115.739 127.738C116.444 127.678 117.147 127.463 117.719 126.829C118.129 126.394 118.365 125.742 118.535 124.943C118.71 124.119 118.838 123.013 118.946 121.555C118.973 121.368 118.991 121.134 119.002 120.96C119.009 120.864 119.013 120.779 119.017 120.717L119.02 120.644L119.021 120.623L119.021 120.616C119.03 120.412 118.955 120.212 118.813 120.065C118.73 119.977 118.627 119.913 118.514 119.874C118.532 119.81 118.542 119.742 118.542 119.672V117.872C118.542 117.595 118.391 117.352 118.167 117.222C118.192 117.148 118.206 117.067 118.206 116.984V112.784C118.206 112.702 118.193 112.624 118.169 112.55H118.464C118.878 112.55 119.214 112.214 119.214 111.8V109.904C119.214 109.49 118.878 109.154 118.464 109.154H114.918V108.782H118.728C119.142 108.782 119.478 108.446 119.478 108.032V105.92C119.478 105.506 119.142 105.17 118.728 105.17H114.918V104.696C114.918 104.282 114.582 103.946 114.168 103.946H111.432C111.018 103.946 110.682 104.282 110.682 104.696V105.17H108.408C108.208 105.17 108.027 105.248 107.892 105.376C107.758 105.248 107.576 105.17 107.376 105.17H105.246V104.696C105.246 104.282 104.91 103.946 104.496 103.946H101.76C101.346 103.946 101.01 104.282 101.01 104.696V105.17H97.2241C96.8099 105.17 96.4741 105.506 96.4741 105.92V108.056C96.4741 108.47 96.8099 108.806 97.2241 108.806H101.01V109.154ZM101.76 109.28H104.496V108.056H107.376V105.92H104.496V104.696H101.76V105.92H97.2241V108.056H101.76V109.28ZM106.152 108.968C106.193 109.029 106.232 109.091 106.271 109.154C106.365 109.307 106.454 109.466 106.541 109.632C106.588 109.721 106.634 109.811 106.68 109.904H98.5921V115.16C98.5921 117.969 98.4471 121.875 96.907 124.802C96.789 125.026 96.6629 125.244 96.5281 125.456C96.7184 125.534 96.9544 125.65 97.2055 125.788C97.5519 125.977 97.9273 126.206 98.2515 126.424C98.492 126.586 98.7045 126.742 98.8561 126.872C98.9897 126.659 99.116 126.439 99.2355 126.213C100.64 123.547 101.099 119.97 101.232 116.984H102.312V122.432H112.08L110.64 123.032C110.678 123.081 110.717 123.131 110.756 123.182C110.869 123.331 110.984 123.49 111.097 123.654C111.398 124.09 111.686 124.557 111.887 124.954C111.903 124.986 111.919 125.017 111.934 125.048C111.97 125.123 112.003 125.196 112.032 125.264L113.928 124.376C113.915 124.349 113.902 124.322 113.888 124.295C113.8 124.12 113.686 123.925 113.555 123.723C113.441 123.546 113.313 123.363 113.178 123.182C113.053 123.013 112.92 122.846 112.785 122.687C112.711 122.599 112.635 122.514 112.56 122.432H115.512C115.485 122.709 115.457 122.958 115.427 123.182C115.296 124.163 115.136 124.661 114.96 124.856C114.792 125.024 114.624 125.048 114.312 125.048C114.296 125.048 114.279 125.048 114.261 125.048C114.255 125.048 114.249 125.048 114.243 125.048C114.078 125.048 113.837 125.046 113.547 125.035C113.297 125.025 113.011 125.008 112.707 124.979C112.698 124.978 112.689 124.977 112.68 124.976C112.682 124.98 112.684 124.983 112.687 124.987C112.799 125.182 112.898 125.409 112.981 125.648C112.994 125.684 113.006 125.721 113.018 125.757C113.16 126.195 113.251 126.661 113.28 127.04C114.24 127.088 115.152 127.064 115.656 126.992C116.256 126.944 116.76 126.776 117.168 126.32C117.696 125.768 117.984 124.4 118.2 121.472C118.207 121.43 118.213 121.383 118.218 121.334C118.254 121.016 118.272 120.584 118.272 120.584H104.808V119.672H117.792V117.872H104.808V116.984H117.456V112.784H111.696V111.8H118.464V109.904H109.248C109.086 109.547 108.868 109.145 108.633 108.782C108.559 108.668 108.484 108.558 108.408 108.454C108.368 108.4 108.328 108.347 108.288 108.296L106.152 108.968ZM109.512 108.782C109.583 108.906 109.652 109.031 109.716 109.154H110.682V108.782H109.512ZM111.432 109.28H114.168V108.032H118.728V105.92H114.168V104.696H111.432V105.92H108.408V108.032H111.432V109.28ZM114.538 123.919C114.583 123.727 114.627 123.484 114.67 123.182H114.097C114.268 123.438 114.42 123.69 114.538 123.919ZM109.803 123.182C109.732 123.038 109.659 122.899 109.584 122.768L107.616 123.344C107.717 123.562 107.816 123.797 107.911 124.039C108.116 124.564 108.301 125.126 108.436 125.632C108.506 125.897 108.562 126.147 108.6 126.368L110.688 125.672C110.545 124.997 110.21 124.009 109.803 123.182ZM106.658 123.182C106.657 123.18 106.657 123.178 106.656 123.176L104.568 123.464C104.593 123.583 104.616 123.707 104.639 123.833C104.647 123.876 104.655 123.919 104.663 123.963C104.676 124.042 104.69 124.122 104.703 124.203C104.801 124.809 104.878 125.453 104.912 126.02C104.928 126.294 104.934 126.551 104.928 126.776L107.136 126.44C107.136 125.554 106.945 124.213 106.658 123.182ZM102 122.72C101.965 122.826 101.926 122.936 101.885 123.048C101.839 123.171 101.79 123.297 101.738 123.424C101.489 124.037 101.169 124.691 100.823 125.246C100.683 125.471 100.538 125.68 100.392 125.864L102.408 126.992C103.022 126.159 103.516 124.945 103.889 123.9C103.924 123.801 103.959 123.704 103.992 123.608L102 122.72ZM101.562 122.111V121.219C101.499 121.596 101.429 121.973 101.349 122.348C101.402 122.255 101.475 122.174 101.562 122.111ZM105.246 109.154H105.426C105.397 109.041 105.394 108.922 105.42 108.806H105.246V109.154ZM141.369 115.898C141.487 115.766 141.558 115.591 141.558 115.4V106.688C141.558 106.274 141.222 105.938 140.808 105.938H137.64C137.226 105.938 136.89 106.274 136.89 106.688V111.89H134.262V104.672C134.262 104.258 133.926 103.922 133.512 103.922H130.344C129.93 103.922 129.594 104.258 129.594 104.672V111.89H127.134V106.688C127.134 106.274 126.798 105.938 126.384 105.938H123.36C122.946 105.938 122.61 106.274 122.61 106.688V115.4C122.61 115.603 122.691 115.787 122.822 115.922H122.088C121.674 115.922 121.338 116.258 121.338 116.672V125.768C121.338 126.182 121.674 126.518 122.088 126.518H137.826V127.064C137.826 127.478 138.162 127.814 138.576 127.814H141.792C142.206 127.814 142.542 127.478 142.542 127.064V116.648C142.542 116.234 142.206 115.898 141.792 115.898H141.369ZM138.015 116.15H134.262V122.186H137.826V116.648C137.826 116.457 137.898 116.282 138.015 116.15ZM125.843 116.15C125.974 116.285 126.054 116.469 126.054 116.672V122.186H129.594V116.15H125.843ZM138.576 116.648H141.792V127.064H138.576V125.768H122.088V116.672H125.304V122.936H130.344V115.4H123.36V106.688H126.384V112.64H130.344V104.672H133.512V112.64H137.64V106.688H140.808V115.4H133.512V122.936H138.576V116.648ZM148.728 104.864V111.704H151.08V105.368H153.648V114.2H148.728V114.344C148.728 114.7 148.728 115.057 148.723 115.418C148.72 115.665 148.714 115.915 148.704 116.168H153.48V127.016H150.888V118.688H148.608C148.414 121.493 147.967 124.298 146.972 126.493C146.861 126.739 146.742 126.978 146.616 127.208C146.471 127.048 146.278 126.854 146.063 126.651C145.602 126.216 145.041 125.742 144.648 125.48C146.04 122.504 146.208 117.848 146.208 114.344V104.864H148.728ZM149.303 119.438C149.055 122.359 148.505 125.319 147.274 127.568C147.157 127.781 146.945 127.924 146.704 127.953C146.463 127.981 146.223 127.891 146.06 127.711C145.637 127.243 144.747 126.447 144.232 126.104C143.924 125.898 143.812 125.498 143.969 125.162C144.613 123.784 144.992 121.972 145.205 120.028C145.416 118.095 145.458 116.087 145.458 114.344V104.864C145.458 104.45 145.794 104.114 146.208 104.114H148.728C149.142 104.114 149.478 104.45 149.478 104.864V110.954H150.33V105.368C150.33 104.954 150.666 104.618 151.08 104.618H153.648C154.062 104.618 154.398 104.954 154.398 105.368V114.2C154.398 114.614 154.062 114.95 153.648 114.95H149.477C149.476 115.105 149.475 115.261 149.473 115.418H153.48C153.894 115.418 154.23 115.754 154.23 116.168V121.212C154.293 120.854 154.348 120.489 154.395 120.121C154.65 118.159 154.698 116.157 154.698 114.512V106.04C154.698 105.626 155.034 105.29 155.448 105.29H166.296C166.71 105.29 167.046 105.626 167.046 106.04V108.608C167.046 109.022 166.71 109.358 166.296 109.358H158.862V111.098H164.326L164.733 111.017C164.857 110.992 164.985 110.999 165.105 111.037L166.857 111.589C167.207 111.699 167.426 112.046 167.375 112.409C166.869 115.974 165.926 119.01 164.548 121.521C165.471 122.522 166.545 123.35 167.735 123.945C167.963 124.059 168.118 124.281 168.146 124.534C168.173 124.787 168.071 125.037 167.874 125.197C167.316 125.652 166.504 126.679 166.099 127.354C165.889 127.704 165.438 127.822 165.084 127.619C163.905 126.945 162.87 126.101 161.951 125.121C160.984 126.155 159.892 127.062 158.688 127.78C158.513 127.885 158.302 127.913 158.104 127.859C157.907 127.804 157.741 127.672 157.644 127.492C157.492 127.211 157.263 126.864 157.006 126.521C156.825 126.919 156.623 127.303 156.401 127.669C156.283 127.863 156.084 127.994 155.859 128.023C155.634 128.053 155.407 127.98 155.243 127.823C155.003 127.594 154.622 127.295 154.23 127.022C154.227 127.434 153.892 127.766 153.48 127.766H150.888C150.474 127.766 150.138 127.43 150.138 127.016V119.438H149.303ZM154.23 126.123C154.55 126.324 154.885 126.561 155.18 126.789C155.405 126.964 155.607 127.134 155.76 127.28C155.892 127.062 156.017 126.837 156.134 126.605C156.255 126.364 156.369 126.116 156.474 125.862C156.553 125.671 156.627 125.477 156.697 125.279C156.721 125.21 156.745 125.141 156.768 125.072C156.841 125.149 156.917 125.23 156.992 125.316C157.106 125.444 157.221 125.58 157.335 125.721C157.588 126.036 157.834 126.374 158.036 126.687C158.138 126.845 158.229 126.996 158.304 127.136C158.519 127.008 158.73 126.873 158.938 126.732C159.848 126.115 160.688 125.381 161.45 124.559C161.621 124.374 161.789 124.185 161.952 123.992C162.115 124.186 162.282 124.376 162.454 124.56C163.167 125.328 163.95 126.005 164.817 126.575C164.885 126.62 164.954 126.665 165.023 126.708C165.165 126.798 165.31 126.884 165.456 126.968C165.769 126.447 166.308 125.724 166.828 125.165C167.026 124.951 167.221 124.762 167.4 124.616C167.162 124.497 166.928 124.369 166.699 124.233C165.545 123.548 164.513 122.657 163.632 121.616C165.096 119.12 166.104 116.024 166.632 112.304L164.88 111.752L164.4 111.848H158.112V108.608H166.296V106.04H155.448V114.512C155.448 117.32 155.31 121.231 154.23 124.229C154.125 124.519 154.012 124.802 153.888 125.073C153.783 125.305 153.671 125.529 153.552 125.744C153.744 125.833 153.965 125.957 154.194 126.1C154.206 126.108 154.218 126.115 154.23 126.123ZM157.899 123.942C158.776 123.295 159.569 122.49 160.296 121.568C159.7 120.533 159.197 119.416 158.752 118.231C158.516 117.602 158.296 116.954 158.088 116.288C158.07 116.953 158.04 117.642 157.993 118.342C157.876 120.061 157.653 121.844 157.24 123.491C157.167 123.785 157.087 124.075 157.001 124.359C156.98 124.429 156.958 124.499 156.936 124.568C157.013 124.525 157.088 124.48 157.164 124.435C157.415 124.283 157.66 124.118 157.899 123.942ZM158.178 122.748C158.601 122.371 159.005 121.949 159.393 121.489C159.113 120.97 158.854 120.434 158.613 119.884C158.512 120.843 158.372 121.808 158.178 122.748ZM163.536 114.44H160.056C160.126 114.692 160.201 114.942 160.279 115.19C160.609 116.237 161.007 117.249 161.46 118.206C161.595 118.492 161.735 118.773 161.88 119.048C162.023 118.771 162.16 118.488 162.289 118.199C162.713 117.254 163.066 116.245 163.349 115.19C163.415 114.942 163.478 114.692 163.536 114.44ZM162.571 115.19H161.067C161.301 115.909 161.569 116.609 161.864 117.284C162.134 116.616 162.37 115.915 162.571 115.19ZM109.272 112.784V111.8H106.488V112.784H109.272ZM114.672 114.368H111.696V115.4H114.672V114.368ZM106.488 114.368V115.4H109.272V114.368H106.488ZM101.256 115.4H104.088V114.368H101.256V115.4ZM104.088 111.8H101.256V112.784H104.088V111.8Z" fill="#00E0B8"/>
<path d="M205.062 82.4062V128H196.062V92.7812L185.25 96.2188V89.125L204.094 82.4062H205.062ZM228.344 107.281L221.156 105.562L223.75 82.5H249.312V89.7812H231.156L230.031 99.875C230.635 99.5208 231.552 99.1458 232.781 98.75C234.01 98.3333 235.385 98.125 236.906 98.125C239.115 98.125 241.073 98.4688 242.781 99.1562C244.49 99.8438 245.938 100.844 247.125 102.156C248.333 103.469 249.25 105.073 249.875 106.969C250.5 108.865 250.812 111.01 250.812 113.406C250.812 115.427 250.5 117.354 249.875 119.188C249.25 121 248.302 122.625 247.031 124.062C245.76 125.479 244.167 126.594 242.25 127.406C240.333 128.219 238.062 128.625 235.438 128.625C233.479 128.625 231.583 128.333 229.75 127.75C227.938 127.167 226.302 126.302 224.844 125.156C223.406 124.01 222.25 122.625 221.375 121C220.521 119.354 220.073 117.479 220.031 115.375H228.969C229.094 116.667 229.427 117.781 229.969 118.719C230.531 119.635 231.271 120.344 232.188 120.844C233.104 121.344 234.177 121.594 235.406 121.594C236.552 121.594 237.531 121.375 238.344 120.938C239.156 120.5 239.812 119.896 240.312 119.125C240.812 118.333 241.177 117.417 241.406 116.375C241.656 115.312 241.781 114.167 241.781 112.938C241.781 111.708 241.635 110.594 241.344 109.594C241.052 108.594 240.604 107.729 240 107C239.396 106.271 238.625 105.708 237.688 105.312C236.771 104.917 235.698 104.719 234.469 104.719C232.802 104.719 231.51 104.979 230.594 105.5C229.698 106.021 228.948 106.615 228.344 107.281ZM256.5 93.6562V91.25C256.5 89.5208 256.875 87.9479 257.625 86.5312C258.375 85.1146 259.479 83.9792 260.938 83.125C262.396 82.2708 264.188 81.8438 266.312 81.8438C268.5 81.8438 270.323 82.2708 271.781 83.125C273.26 83.9792 274.365 85.1146 275.094 86.5312C275.844 87.9479 276.219 89.5208 276.219 91.25V93.6562C276.219 95.3438 275.844 96.8958 275.094 98.3125C274.365 99.7292 273.271 100.865 271.812 101.719C270.354 102.573 268.552 103 266.406 103C264.24 103 262.417 102.573 260.938 101.719C259.479 100.865 258.375 99.7292 257.625 98.3125C256.875 96.8958 256.5 95.3438 256.5 93.6562ZM262.469 91.25V93.6562C262.469 94.3854 262.604 95.0833 262.875 95.75C263.167 96.3958 263.604 96.9271 264.188 97.3438C264.792 97.7396 265.521 97.9375 266.375 97.9375C267.271 97.9375 268 97.7396 268.562 97.3438C269.125 96.9271 269.542 96.3958 269.812 95.75C270.083 95.0833 270.219 94.3854 270.219 93.6562V91.25C270.219 90.4792 270.073 89.7708 269.781 89.125C269.51 88.4583 269.083 87.9271 268.5 87.5312C267.938 87.1146 267.208 86.9062 266.312 86.9062C265.479 86.9062 264.771 87.1146 264.188 87.5312C263.604 87.9271 263.167 88.4583 262.875 89.125C262.604 89.7708 262.469 90.4792 262.469 91.25ZM278.25 119.25V116.844C278.25 115.135 278.625 113.573 279.375 112.156C280.146 110.74 281.26 109.604 282.719 108.75C284.198 107.896 286.01 107.469 288.156 107.469C290.323 107.469 292.135 107.896 293.594 108.75C295.052 109.604 296.156 110.74 296.906 112.156C297.656 113.573 298.031 115.135 298.031 116.844V119.25C298.031 120.958 297.656 122.521 296.906 123.938C296.177 125.354 295.083 126.49 293.625 127.344C292.167 128.198 290.365 128.625 288.219 128.625C286.052 128.625 284.229 128.198 282.75 127.344C281.271 126.49 280.146 125.354 279.375 123.938C278.625 122.521 278.25 120.958 278.25 119.25ZM284.25 116.844V119.25C284.25 120 284.417 120.708 284.75 121.375C285.083 122.042 285.542 122.573 286.125 122.969C286.729 123.365 287.427 123.562 288.219 123.562C289.219 123.562 290 123.365 290.562 122.969C291.125 122.573 291.51 122.042 291.719 121.375C291.948 120.708 292.062 120 292.062 119.25V116.844C292.062 116.094 291.917 115.396 291.625 114.75C291.333 114.083 290.896 113.552 290.312 113.156C289.75 112.74 289.031 112.531 288.156 112.531C287.281 112.531 286.552 112.74 285.969 113.156C285.406 113.552 284.979 114.083 284.688 114.75C284.396 115.396 284.25 116.094 284.25 116.844ZM290.375 89L268.156 124.562L263.781 122.25L286 86.6875L290.375 89Z" fill="url(#paint0_linear_317_685)"/>
<path d="M95.12 204H98.58C103.04 204 105.24 201.12 105.24 196.66C105.24 192.2 103.04 189.42 98.56 189.42H95.12V204ZM96.32 202.98V190.42H98.44C102.28 190.42 103.98 192.88 103.98 196.66C103.98 200.44 102.28 202.98 98.44 202.98H96.32ZM108.558 204H116.838V202.96H109.758V196.78H115.538V195.76H109.758V190.44H116.618V189.42H108.558V204ZM120.022 204H121.122V194.76C121.122 193.56 121.042 191.96 120.982 190.74H121.062L122.202 194L125.282 202.44H126.242L129.302 194L130.442 190.74H130.522C130.462 191.96 130.382 193.56 130.382 194.76V204H131.522V189.42H129.922L126.922 197.8C126.562 198.86 126.222 199.94 125.842 201H125.762L124.622 197.8L121.622 189.42H120.022V204ZM140.885 204.26C144.445 204.26 146.945 201.3 146.945 196.66C146.945 192.04 144.445 189.16 140.885 189.16C137.365 189.16 134.845 192.04 134.845 196.66C134.845 201.3 137.365 204.26 140.885 204.26ZM140.885 203.18C138.005 203.18 136.105 200.62 136.105 196.66C136.105 192.7 138.005 190.24 140.885 190.24C143.785 190.24 145.705 192.7 145.705 196.66C145.705 200.62 143.785 203.18 140.885 203.18ZM153.196 196.82H155.776V195.96H153.196V193.32H155.136V192.46H150.196C151.156 191.5 152.076 190.32 152.816 189.08C153.956 190.16 155.256 191.5 155.956 192.32L156.516 191.66C155.816 190.84 154.416 189.46 153.236 188.38C153.356 188.14 153.476 187.92 153.596 187.68L152.756 187.42C151.896 189.28 150.476 191.08 148.976 192.28C149.136 192.48 149.416 192.92 149.496 193.12C149.716 192.92 149.936 192.72 150.156 192.5V193.32H152.336V195.96H149.176V196.82H152.336V203.2C151.056 203.44 149.916 203.66 149.016 203.82L149.276 204.7C151.096 204.34 153.636 203.82 156.016 203.32L155.956 202.5C155.016 202.7 154.096 202.88 153.196 203.06V196.82ZM149.536 198.22C149.856 199.42 150.176 201.04 150.296 202.1L151.116 201.88C150.976 200.86 150.636 199.26 150.296 198.06L149.536 198.22ZM154.856 201.88C155.196 200.88 155.516 199.3 155.856 198.08L155.056 197.8C154.896 198.92 154.536 200.62 154.236 201.64L154.856 201.88ZM158.976 192.26C159.156 191.58 159.376 190.78 159.596 189.98H164.336C164.216 190.62 164.056 191.44 163.876 192.26H158.976ZM165.776 197.06C165.156 198.02 164.096 199.3 163.256 200.22C162.916 199.98 162.596 199.74 162.276 199.52V195.86H167.196V194.96H164.216C164.656 193.1 165.116 190.78 165.396 189.2L164.736 189.08L164.576 189.14H159.816C159.936 188.56 160.096 187.96 160.216 187.44L159.276 187.32C158.896 189.14 158.256 191.62 157.756 193.1H163.736C163.596 193.76 163.456 194.38 163.316 194.96H156.236V195.86H161.376V199.64C159.556 201.1 157.616 202.54 156.356 203.42L156.956 204.14C158.236 203.16 159.836 201.9 161.376 200.62V204.32C161.376 204.54 161.316 204.6 161.076 204.62C160.836 204.62 160.096 204.64 159.176 204.6C159.316 204.88 159.456 205.22 159.496 205.48C160.616 205.48 161.336 205.46 161.756 205.32C162.156 205.16 162.276 204.9 162.276 204.3V200.48C163.936 201.66 165.756 203.14 166.736 204.14L167.296 203.44C166.536 202.68 165.216 201.64 163.876 200.66C164.736 199.8 165.756 198.6 166.556 197.56L165.776 197.06ZM160.136 199.54C159.676 198.84 158.636 197.76 157.776 196.98L157.076 197.42C157.956 198.24 158.956 199.36 159.456 200.08L160.136 199.54ZM185.976 189.28H179.056C178.836 188.66 178.456 187.82 178.016 187.22L177.096 187.46C177.456 187.98 177.776 188.7 177.996 189.28H170.476V190.18H185.976V189.28ZM175.656 193.68C175.476 192.8 174.896 191.42 174.216 190.42L173.336 190.66C173.976 191.66 174.536 193.04 174.716 193.98L175.656 193.68ZM183.276 197.84V200.36H173.196V197.84H183.276ZM173.196 203.82V201.2H183.276V203.82H173.196ZM172.236 205.48H173.196V204.68H183.276V205.42H184.256V196.98H172.236V205.48ZM181.476 194.02C182.036 193.04 182.696 191.74 183.196 190.66L182.196 190.36C181.796 191.44 181.056 193 180.456 194.02H169.336V194.92H186.996V194.02H181.476Z" fill="white"/>
<path d="M95.12 268H96.32V253.42H95.12V268ZM104.429 268.26C107.289 268.26 109.149 266.54 109.149 264.3C109.149 262.08 107.749 261.16 106.089 260.42L103.909 259.46C102.849 259 101.429 258.38 101.429 256.72C101.429 255.22 102.669 254.24 104.529 254.24C105.969 254.24 107.109 254.82 107.969 255.7L108.649 254.92C107.729 253.92 106.289 253.16 104.529 253.16C102.049 253.16 100.209 254.66 100.209 256.82C100.209 258.96 101.869 259.88 103.169 260.46L105.349 261.42C106.789 262.06 107.929 262.62 107.929 264.38C107.929 266.04 106.589 267.18 104.429 267.18C102.769 267.18 101.269 266.44 100.209 265.24L99.4692 266.08C100.629 267.38 102.309 268.26 104.429 268.26ZM113.371 254.42H116.151C118.671 254.42 120.071 255.2 120.071 257.32C120.071 259.42 118.671 260.42 116.151 260.42H113.371V254.42ZM121.591 268L117.651 261.32C119.871 260.98 121.291 259.64 121.291 257.32C121.291 254.48 119.331 253.42 116.431 253.42H112.171V268H113.371V261.42H116.351L120.231 268H121.591ZM129.579 268.26C131.459 268.26 132.819 267.48 133.939 266.18L133.259 265.42C132.219 266.56 131.119 267.18 129.639 267.18C126.579 267.18 124.679 264.64 124.679 260.66C124.679 256.72 126.619 254.24 129.699 254.24C131.039 254.24 132.079 254.82 132.859 255.7L133.539 254.92C132.759 254 131.419 253.16 129.699 253.16C125.999 253.16 123.419 256.04 123.419 260.7C123.419 265.36 125.979 268.26 129.579 268.26ZM141.258 257.54H137.958V251.36H137.058V259.68C137.058 262.82 136.898 266.36 135.798 269.08C136.038 269.2 136.398 269.44 136.558 269.62C137.498 267.44 137.818 264.76 137.918 262.08H141.238V269.46H142.138V261.2H137.938C137.958 260.7 137.958 260.16 137.958 259.66V258.44H142.158V251.86H141.258V257.54ZM152.118 258.36C151.618 260.94 150.698 263.1 149.478 264.8C148.318 263.02 147.538 260.82 147.018 258.36H152.118ZM152.598 257.42L152.418 257.46H145.418V253.48H153.218V252.58H144.498V259.86C144.498 262.84 144.318 266.32 142.938 268.94C143.198 269.06 143.538 269.32 143.718 269.46C145.198 266.7 145.418 263.1 145.418 259.86V258.36H146.158C146.738 261.18 147.598 263.62 148.878 265.56C147.738 267 146.358 268.06 144.918 268.7C145.098 268.88 145.378 269.24 145.498 269.48C146.938 268.76 148.278 267.74 149.458 266.36C150.498 267.68 151.778 268.74 153.338 269.44C153.518 269.2 153.798 268.84 154.018 268.64C152.418 268 151.098 266.96 150.038 265.58C151.518 263.58 152.638 260.94 153.178 257.62L152.598 257.42ZM172.078 258.54H169.318V256.24H172.078V258.54ZM172.918 255.48H168.498V259.3H172.918V255.48ZM165.738 255.06H166.618V251.36H165.738V253.08H162.038V253.9H165.738V255.06ZM162.258 260.76C161.898 260.22 160.438 258.02 159.938 257.34V256.18H162.258V255.26H159.938V251.36H159.058V255.26H156.058V256.18H158.898C158.218 259.08 156.858 262.48 155.598 264.2C155.778 264.4 156.038 264.8 156.158 265.06C157.218 263.54 158.318 260.88 159.058 258.32V269.42H159.938V258.52C160.538 259.5 161.338 260.88 161.638 261.52L162.258 260.76ZM164.318 266.44H167.718V267.88H164.318V266.44ZM167.718 263.44H164.318V262.02H167.718V263.44ZM167.718 265.66H164.318V264.22H167.718V265.66ZM163.698 256.24H166.378V258.54H163.698V256.24ZM168.598 266.44H172.458V265.66H168.598V264.22H172.458V263.44H168.598V262.02H173.418V261.24H168.778C168.578 260.74 168.298 260.1 168.058 259.58L167.238 259.84C167.418 260.26 167.638 260.76 167.798 261.24H164.638C164.998 260.7 165.298 260.12 165.578 259.56L164.778 259.3H167.218V255.48H162.878V259.3H164.718C163.918 261.04 162.618 262.68 161.238 263.8C161.438 263.96 161.758 264.34 161.878 264.48C162.398 264.04 162.918 263.48 163.418 262.88V269.46H164.318V268.68H173.678V267.88H168.598V266.44ZM169.978 253.08V251.36H169.098V255H169.978V253.9H173.818V253.08H169.978ZM185.198 262.86V259.24H191.438V262.86H185.198ZM178.138 262.86V259.24H184.218V262.86H178.138ZM184.218 254.92V258.32H178.138V254.92H184.218ZM191.438 254.92V258.32H185.198V254.92H191.438ZM185.198 253.98V251.36H184.218V253.98H177.178V264.98H178.138V263.78H184.218V269.44H185.198V263.78H191.438V264.88H192.418V253.98H185.198ZM200.158 253.98C199.978 253.3 199.538 252.2 199.118 251.38L198.318 251.64C198.678 252.5 199.118 253.6 199.318 254.3L200.158 253.98ZM200.978 263.42V267.4H197.258V263.42H200.978ZM201.858 262.58H196.378V269.22H197.258V268.24H201.858V262.58ZM196.238 260.72H201.958V259.88H196.238V260.72ZM201.918 257.16H196.218V258H201.918V257.16ZM195.798 255.6H202.558V254.74H195.798V255.6ZM204.998 265.28C205.038 264.76 205.058 264.26 205.058 263.8V263.46H211.638V265.28H204.998ZM211.638 260.86V262.7H205.058V260.86H211.638ZM212.558 260.04H204.158V263.8C204.158 265.42 204.018 267.5 202.818 269.08C203.018 269.2 203.358 269.54 203.518 269.74C204.338 268.68 204.718 267.36 204.918 266.06H211.638V268.28C211.638 268.5 211.578 268.58 211.318 268.58C211.078 268.6 210.258 268.6 209.258 268.56C209.398 268.82 209.538 269.16 209.578 269.42C210.818 269.42 211.578 269.42 212.018 269.26C212.438 269.1 212.558 268.84 212.558 268.26V260.04ZM208.698 257.82V256.16H213.318V255.38H208.698V253.88H213.698V253.08H208.698V251.36H207.778V253.08H203.018V253.88H207.778V255.38H203.538V256.16H207.778V257.82H202.838V258.62H213.858V257.82H208.698Z" fill="white"/>
<path d="M103.5 317.02H107.54V320.88C107.54 322.08 107.78 322.5 108.84 322.5H110.72C111.08 322.5 111.5 322.48 111.72 322.42C111.68 322.2 111.64 321.8 111.62 321.56C111.36 321.6 110.94 321.64 110.7 321.64H108.86C108.52 321.64 108.46 321.46 108.46 320.9V316.12H102.58V318.34C102.58 319.82 102.18 321.56 100.02 322.9C100.22 323.04 100.52 323.4 100.64 323.6C103 322.14 103.5 320.06 103.5 318.34V317.02ZM100.02 324.3L97.9 324.94V320.44H100.62V319.52H97.9V315.34H96.96V319.52H94.04V320.44H96.96V325.22C95.76 325.6 94.66 325.9 93.78 326.14L94.12 327.08C94.96 326.82 95.94 326.52 96.96 326.2V332.02C96.96 332.32 96.84 332.4 96.56 332.42C96.32 332.42 95.44 332.44 94.4 332.4C94.52 332.68 94.68 333.06 94.74 333.3C96.08 333.3 96.84 333.3 97.28 333.12C97.7 332.98 97.9 332.7 97.9 332.02V325.88C98.64 325.66 99.4 325.42 100.16 325.16L100.02 324.3ZM109.12 325.16C108.32 326.94 107.04 328.42 105.52 329.6C104.04 328.38 102.9 326.88 102.12 325.16H109.12ZM109.84 324.18L109.64 324.24H100.5V325.16H101.16C101.98 327.12 103.18 328.8 104.74 330.16C102.94 331.36 100.88 332.16 98.84 332.64C99.04 332.86 99.28 333.26 99.34 333.54C101.48 332.98 103.64 332.08 105.5 330.8C107.14 332.02 109.12 332.94 111.36 333.5C111.5 333.22 111.76 332.82 111.98 332.6C109.82 332.14 107.9 331.32 106.3 330.18C108.1 328.76 109.58 326.88 110.44 324.52L109.84 324.18ZM118.04 322.04H120.92V321.12H118.04V317.2C118.98 316.96 119.86 316.68 120.54 316.38L119.86 315.6C118.58 316.2 116.22 316.76 114.26 317.1C114.4 317.34 114.54 317.68 114.58 317.9C115.38 317.78 116.26 317.6 117.12 317.42V321.12H114.16V322.04H116.98C116.26 324.52 114.88 327.38 113.68 328.84C113.84 329.08 114.12 329.48 114.26 329.72C115.26 328.42 116.34 326.18 117.12 324V333.52H118.04V323.66C118.68 324.46 119.54 325.64 119.84 326.16L120.44 325.4C120.1 324.96 118.58 323.22 118.04 322.66V322.04ZM131.52 324.94H120.9V333.46H121.8V325.8H130.62V332.42C130.62 332.64 130.54 332.7 130.34 332.7C130.14 332.72 129.4 332.72 128.56 332.7C128.68 332.92 128.82 333.24 128.86 333.48C130 333.48 130.66 333.48 131.04 333.32C131.42 333.18 131.52 332.94 131.52 332.44V324.94ZM128.12 330.3H124.3V327.98H128.12V330.3ZM128.94 327.2H123.5V331.08H128.94V327.2ZM129.3 322.74H123.08V320.48H129.3V322.74ZM122.18 319.7V323.54H130.2V319.7H122.18ZM126.72 317.46C126.52 316.82 126.12 315.94 125.7 315.26L124.88 315.48C125.22 316.08 125.56 316.84 125.78 317.46H120.56V318.34H131.94V317.46H126.72ZM142.96 317.74V316.92H137.32C137.58 316.44 137.84 315.94 138.02 315.46L137.14 315.22C136.44 316.94 135.28 318.6 134 319.72C134.22 319.88 134.58 320.2 134.74 320.36C135.46 319.64 136.18 318.74 136.84 317.74H142.96ZM138.1 318.3C138.76 318.94 139.58 319.8 139.98 320.36L140.66 319.82C140.24 319.3 139.42 318.44 138.78 317.86L138.1 318.3ZM148.76 329.48V331.88H138.4V329.48H148.76ZM147.72 324.06V326.18H138.4V324.06H147.72ZM138.4 327H148.66V323.26H137.44V333.46H138.4V332.7H148.76V333.4H149.7V328.68H138.4V327ZM142.04 319.62C142.28 320.04 142.54 320.54 142.68 320.98H135.38V324.14H136.32V321.8H150.14V324.14H151.08V320.98H143.7C143.52 320.5 143.22 319.9 142.9 319.42L142.04 319.62ZM149.54 319.92C149.08 319.36 148.18 318.54 147.46 317.96L146.8 318.44C147.56 319.08 148.44 319.94 148.88 320.48L149.54 319.92ZM145.56 316.94C145.82 316.44 146.04 315.96 146.24 315.44L145.34 315.24C144.82 316.66 143.9 317.98 142.8 318.88C143.04 319 143.42 319.32 143.58 319.44C144.08 319 144.6 318.4 145.04 317.76H152V316.94H145.56ZM163.72 317.7C163.5 317.06 162.86 316.08 162.22 315.4L161.46 315.74C162.1 316.46 162.7 317.44 162.94 318.12L163.72 317.7ZM169.12 323.72H161.86V321.72H169.12V323.72ZM169.12 326.52H161.86V324.5H169.12V326.52ZM169.12 329.34H161.86V327.3H169.12V329.34ZM160.94 320.92V330.14H170.06V320.92H165.14C165.38 320.34 165.62 319.64 165.86 318.98H171.84V318.14H167.78C168.32 317.42 168.9 316.5 169.42 315.66L168.46 315.36C168.08 316.16 167.38 317.36 166.78 318.14H159.22V318.98H164.8C164.64 319.6 164.44 320.32 164.22 320.92H160.94ZM156.98 318.66C156.74 317.82 156.3 316.54 155.96 315.52L155.12 315.74C155.44 316.74 155.86 318.1 156.08 318.94L156.98 318.66ZM157.92 324.84L157.74 324.88H155.98C156.56 323.52 157.28 321.74 157.82 320.28H154.06V321.18H156.54C155.98 322.76 155.26 324.54 154.66 325.74H157.36C157 327.26 156.44 329.06 155.78 330.28C155.16 330.62 154.52 331.6 153.78 332.76L154.5 333.54C155.12 332.2 155.78 331.02 156.22 331.02C156.68 331.02 157.46 331.72 158.26 332.2C159.74 333.1 161.52 333.32 164.16 333.32C166.56 333.32 170.52 333.2 171.94 333.12C171.96 332.82 172.1 332.36 172.22 332.1C170 332.28 166.92 332.46 164.18 332.46C161.78 332.46 160 332.3 158.56 331.44C157.64 330.9 157.18 330.44 156.72 330.24C157.44 328.8 158.06 326.78 158.46 325.06L157.92 324.84ZM176.14 325.32C176.38 324.28 176.6 322.98 176.84 321.78H183.72V316.2H175.14V317.12H182.78V320.86H176.02C175.76 322.56 175.32 324.84 174.96 326.24L175.94 326.22H182.74C182.42 330.16 182.1 331.76 181.58 332.2C181.38 332.4 181.16 332.42 180.7 332.42C180.26 332.42 178.9 332.42 177.5 332.28C177.7 332.56 177.82 332.92 177.84 333.24C179.14 333.34 180.4 333.36 181.02 333.32C181.66 333.3 182.04 333.2 182.38 332.84C183.04 332.2 183.38 330.44 183.74 325.82C183.76 325.68 183.78 325.32 183.78 325.32H176.14ZM188.94 315.5V333.46H189.9V315.5H188.94ZM198.62 318.94H199.56V317.54H202.28V316.72H199.56V315.34H198.62V316.72H194.18V317.54H198.62V318.94ZM197.34 333.28C198.02 332.48 198.56 331.16 198.92 330.18L198.18 329.88C197.88 330.82 197.28 332.1 196.6 332.86L197.34 333.28ZM200.2 330.18C200.48 331.12 200.72 332.34 200.72 333.14L201.56 332.98C201.54 332.22 201.3 330.98 200.98 330.04L200.2 330.18ZM202.88 330.02C203.42 330.86 203.96 331.94 204.18 332.72L204.98 332.4C204.74 331.68 204.2 330.58 203.6 329.78L202.88 330.02ZM208.08 331.4C207.76 330.86 207.04 330.04 206.36 329.48L205.7 329.86C206.32 330.44 207.06 331.28 207.36 331.86L208.08 331.4ZM204.84 321.9H201.02V320.5H204.84V321.9ZM209.6 322.64V324.12H205.7V322.64H209.6ZM201.02 322.64H204.84V324.12H201.02V322.64ZM200.16 324.12H196.4V322.64H200.16V324.12ZM200.16 320.5V321.9H196.4V320.5H200.16ZM201.82 318.36C202.18 318.76 202.52 319.26 202.8 319.72H195.5V324.5C195.5 327 195.32 330.42 193.8 332.94C194.02 333.02 194.4 333.3 194.58 333.46C196.08 330.96 196.38 327.48 196.4 324.86H198.28V329.16H210.3C210.1 331.4 209.92 332.28 209.64 332.56C209.5 332.7 209.34 332.72 209.06 332.72C208.78 332.72 208.04 332.72 207.26 332.64C207.4 332.88 207.48 333.2 207.5 333.44C208.26 333.5 209.02 333.5 209.38 333.48C209.84 333.46 210.1 333.36 210.38 333.12C210.8 332.7 211 331.64 211.24 328.82C211.26 328.68 211.28 328.38 211.28 328.38H199.16V327H210.88V326.22H199.16V324.86H210.54V321.9H205.7V320.5H211.42V319.72H203.8C203.52 319.2 203.04 318.54 202.56 318.06L201.82 318.36ZM207.58 316.72V315.34H206.64V316.72H203.58V317.54H206.64V318.94H207.58V317.54H211.66V316.72H207.58Z" fill="white"/>
<line x1="90" y1="225.5" x2="294" y2="225.5" stroke="#00E0B8" stroke-dasharray="2 2"/>
<line x1="90" y1="292.5" x2="294" y2="292.5" stroke="#00E0B8" stroke-dasharray="2 2"/>
<path d="M78 193.768C79.3333 194.538 79.3333 196.462 78 197.232L68.25 202.861C66.9167 203.631 65.25 202.669 65.25 201.129L65.25 189.871C65.25 188.331 66.9167 187.369 68.25 188.139L78 193.768Z" fill="#00E0B8"/>
<path d="M78 257.768C79.3333 258.538 79.3333 260.462 78 261.232L68.25 266.861C66.9167 267.631 65.25 266.669 65.25 265.129L65.25 253.871C65.25 252.331 66.9167 251.369 68.25 252.139L78 257.768Z" fill="#00E0B8"/>
<path d="M78 321.768C79.3333 322.538 79.3333 324.462 78 325.232L68.25 330.861C66.9167 331.631 65.25 330.669 65.25 329.129L65.25 317.871C65.25 316.331 66.9167 315.369 68.25 316.139L78 321.768Z" fill="#00E0B8"/>
<line x1="26" y1="150.5" x2="337" y2="150.5" stroke="#00E0B8"/>
<path d="M75.8706 33.3593C66.5265 22.7478 69.0464 11.3978 69.0464 11.3978L63.4737 9.65116L37.9845 90.9769C35.2154 87.4278 31.163 84.7041 26.5496 83.2915C16.5016 80.1422 6.49115 83.5603 4.18227 90.9269C1.8734 98.2936 8.13965 106.822 18.1877 109.971C28.2357 113.12 38.1864 109.692 40.4904 102.341L55.5859 54.1775C59.8624 57.6904 63.8889 61.4205 67.6382 65.343C74.2223 72.2885 71.6828 82.5311 67.5359 87.8043C63.389 93.0774 56.7257 94.9778 59.4056 96.6589C62.0855 98.3399 67.2419 95.8979 73.3277 89.4201C79.4136 82.9424 78.1887 70.1325 78.1887 70.1325C91.1496 58.4042 85.2051 43.9677 75.8706 33.3593ZM75.8124 64.7745C75.8124 64.7745 71.1081 57.7158 65.4851 49.2418C59.8621 40.7679 62.7402 34.8283 62.7402 34.8283C62.7402 34.8283 71.2927 40.9773 76.1478 47.5544C81.003 54.1315 75.8124 64.7745 75.8124 64.7745Z" fill="url(#paint1_linear_317_685)"/>
<defs>
<linearGradient id="paint0_linear_317_685" x1="199.341" y1="77.2114" x2="232.205" y2="146.223" gradientUnits="userSpaceOnUse">
<stop stop-color="#FFF176"/>
<stop offset="1" stop-color="#00E0B8"/>
</linearGradient>
<linearGradient id="paint1_linear_317_685" x1="38.6916" y1="17.0503" x2="90.683" y2="81.5404" gradientUnits="userSpaceOnUse">
<stop stop-color="#FFF176"/>
<stop offset="1" stop-color="#00E0B8"/>
</linearGradient>
</defs>
</svg>
