<svg width="269" height="308" viewBox="0 0 269 308" fill="none" xmlns="http://www.w3.org/2000/svg">
<mask id="mask0_50_875" style="mask-type:alpha" maskUnits="userSpaceOnUse" x="0" y="0" width="269" height="308">
<path d="M0 0H269V308H0V0Z" fill="#D9D9D9"/>
</mask>
<g mask="url(#mask0_50_875)">
<path d="M164.855 103.697C165.761 103.697 179.61 106.111 184.119 96.1512C188.627 86.1914 173.589 87.3961 172.683 78.6352C171.777 69.8744 185.025 67.1696 178.403 57.8065C171.782 48.4433 155.532 53.2672 150.406 56.8976C145.28 60.5279 141.083 56.5964 133.861 52.3581C126.64 48.1199 106.17 62.619 106.17 62.619C98.1975 62.5635 90.3716 64.7671 83.5929 68.9763C72.7353 75.9192 74.5421 87.697 73.03 92.2252C71.5178 96.7535 48.6518 94.0434 43.2314 102.219C37.811 110.394 45.0438 118.558 44.4378 124.252C43.8318 129.946 29.394 130.609 30.2891 143.274C31.1842 155.938 48.0459 161.437 45.0438 166.523C42.0417 171.608 37.5108 176.51 42.6366 183.425C47.7624 190.34 63.401 195.811 75.1426 194.322C86.8841 192.833 101.628 172.573 109.756 172.573C117.884 172.573 139.543 181.652 147.971 174.09C156.399 166.528 151.863 152.341 147.065 145.705C142.267 139.069 141.633 118.229 147.365 110.985C153.097 103.741 164.855 103.697 164.855 103.697Z" fill="#00E0B8" stroke="#00E0B8" stroke-miterlimit="10" stroke-linecap="round"/>
<path d="M72.2628 283.297C72.2628 296.592 68.6436 320.527 65.9251 329.823C63.2065 339.119 63.9459 365.045 63.6068 380.671C63.3455 393.235 64.1627 406.881 64.513 411.727H201.047C200.141 407.377 198.518 398.293 195.838 380.671C191.529 352.425 181.589 310.885 180.271 306.568C178.954 302.252 168.986 274.988 168.675 251.092C168.43 237.564 168.875 224.032 170.009 210.55C170.009 210.55 204.477 223.839 216.708 224.843C228.939 225.847 238.245 225.178 242.226 217.856C246.206 210.533 242.226 201.577 231.618 196.592C221.011 191.606 193.52 180.977 182.918 173.996C172.316 167.014 170.326 162.034 158.734 160.372C147.143 158.71 137.197 159.703 125.239 158.375C113.28 157.048 105.686 157.048 105.686 157.048C93.288 162.763 80.1381 166.669 66.6366 168.647C55.0063 170.359 46.7228 185.896 49.0744 202.866C51.426 219.835 72.2628 270.003 72.2628 283.297Z" fill="#00E0B8" stroke="#00E0B8" stroke-miterlimit="10" stroke-linecap="round"/>
<path d="M216.702 224.804C228.972 225.802 238.24 225.139 242.22 217.822C246.201 210.506 242.22 201.544 231.613 196.559C221.005 191.573 193.514 180.944 182.912 173.956C172.31 166.969 170.32 162 158.729 160.338C147.137 158.676 137.191 159.663 125.233 158.342C113.275 157.02 105.681 157.015 105.681 157.015C93.2838 162.741 80.1341 166.658 66.6311 168.647C55.0008 170.359 46.7172 185.896 49.0688 202.866C51.4205 219.835 72.2629 270.003 72.2629 283.297C72.2629 296.592 68.6437 320.527 65.9251 329.823C64.9895 333.893 64.4477 338.045 64.3073 342.22C80.8355 350.083 121.986 362.613 187.549 337.597C184.096 321.77 180.939 308.866 180.227 306.563C178.932 302.235 168.975 274.988 168.663 251.092C168.418 237.564 168.864 224.033 169.998 210.55C169.998 210.55 204.449 223.85 216.702 224.804Z" fill="white" stroke="#00E0B8" stroke-miterlimit="10" stroke-linecap="round"/>
<path d="M169.998 210.511L172.333 195.064L178.859 213.327L169.998 210.511Z" fill="#00E0B8" stroke="#00E0B8" stroke-miterlimit="10" stroke-linecap="round"/>
<path d="M57.5248 226.722C57.5248 226.722 75.1593 271.441 89.6694 273.008C104.18 274.575 92.7827 213.177 90.2253 207.466C88.0714 202.996 85.6581 198.655 82.9981 194.467" stroke="#00E0B8" stroke-miterlimit="10" stroke-linecap="round"/>
<path d="M98.9147 270.332L94.923 321.424C94.923 321.424 100.138 322.334 109.344 323.243C115.079 323.784 120.859 323.576 126.54 322.624L127.146 318.926L123.165 265.681L98.9147 270.332Z" fill="#00E0B8" stroke="#00E0B8" stroke-miterlimit="10" stroke-linecap="round"/>
<path d="M113.675 170.281C113.675 170.281 129.242 212.145 129.242 237.073C129.242 262 128.908 320.164 128.908 320.164C128.908 320.164 118.645 321.837 110.006 320.499C101.366 319.161 96.1072 318.502 96.1072 318.502C96.1072 318.502 103.729 255.726 97.7751 213.874C91.8209 172.021 89.1579 163.684 89.1579 163.684C88.6558 161.215 89.0106 158.648 90.1634 156.41C91.3163 154.171 93.1978 152.395 95.4957 151.377C103.735 147.373 113.675 170.281 113.675 170.281Z" fill="#FFF176" stroke="#00E0B8" stroke-miterlimit="10" stroke-linecap="round"/>
<path d="M113.675 170.281C113.675 170.281 112.519 167.61 110.667 164.259C106.893 161.615 103.574 159.474 102.695 159.39C100.471 159.184 95.3623 159.184 94.5506 159.184L88.9522 161.197C88.9242 162.016 88.9914 162.836 89.1524 163.64C89.1524 163.64 89.7862 165.614 91.1093 172.406C100.16 176.661 111.496 181.686 118.262 183.699C115.665 175.674 113.675 170.281 113.675 170.281Z" fill="#00E0B8" stroke="#00E0B8" stroke-miterlimit="10" stroke-linecap="round"/>
<path d="M151.385 229.7C151.385 229.7 150.479 252.787 150.162 273.103C149.845 293.419 151.974 319.272 151.974 319.272L177.753 310.349V300.194L164.249 227.241L151.385 229.7Z" fill="#00E0B8" stroke="#00E0B8" stroke-miterlimit="10" stroke-linecap="round"/>
<path d="M134.873 173.627C134.873 173.627 152.074 212.507 152.074 243.084C152.074 273.661 154.726 316.857 154.726 316.857L182.523 306.223C182.523 306.223 175.896 236.102 164.627 209.19C153.358 182.277 143.429 165.647 143.429 165.647L134.873 173.627Z" fill="#FFF176" stroke="#00E0B8" stroke-miterlimit="10" stroke-linecap="round"/>
<path d="M136.863 148.705C136.863 148.705 144.152 158.693 145.475 162C146.798 165.307 146.47 167.644 144.152 170.633C141.834 173.622 135.535 183.927 130.253 184.925C124.972 185.924 109.884 177.899 102.262 171.252C94.6395 164.604 92.8105 153.356 95.4624 146.714C98.1142 140.073 102.69 131.423 106.726 131.1C110.762 130.776 136.863 148.705 136.863 148.705Z" fill="#FFF176" stroke="#00E0B8" stroke-miterlimit="10" stroke-linecap="round"/>
<path d="M131.56 164.984C134.917 165.818 138.359 166.263 141.817 166.311L131.56 164.984Z" fill="white"/>
<path d="M131.56 164.984C134.917 165.818 138.359 166.263 141.817 166.311" stroke="#00E0B8" stroke-miterlimit="10" stroke-linecap="round"/>
<path d="M142.162 146.045C139.19 148.789 136.741 152.053 134.934 155.676C131.96 161.66 131.599 164.984 131.599 164.984C131.599 164.984 122.548 162.708 116.366 158.342C111.012 154.709 107.12 149.285 105.386 143.04C105.386 143.04 107.371 127.76 113.997 122.44C120.624 117.119 142.162 146.045 142.162 146.045Z" fill="white" stroke="#00E0B8" stroke-miterlimit="10" stroke-linecap="round"/>
<path d="M135.201 155.063C136.987 151.678 139.342 148.627 142.162 146.045C142.162 146.045 120.624 117.136 114.003 122.44C112.884 123.372 111.918 124.475 111.14 125.707C112.724 131.083 118.629 146.77 135.201 155.063Z" fill="#00E0B8"/>
<path d="M230.29 223.142C236.583 223.142 243.21 221.146 244.539 212.837C245.867 204.527 239.896 185.924 225.636 173.293C211.377 160.662 186.203 143.385 182.89 138.065C179.577 132.745 173.611 122.155 172.627 116.138C171.643 110.121 165.005 101.181 165.005 101.181C165.005 101.181 162.687 127.765 161.03 131.418C159.374 135.071 163.349 136.404 168.319 140.396C173.289 144.389 182.529 165.647 189.85 177.944C197.172 190.24 211.388 211.537 216.68 214.833" fill="white"/>
<path d="M230.29 223.142C236.583 223.142 243.21 221.146 244.539 212.837C245.867 204.527 239.896 185.924 225.636 173.293C211.377 160.662 186.203 143.385 182.89 138.065C179.577 132.745 173.611 122.155 172.627 116.138C171.643 110.121 165.005 101.181 165.005 101.181C165.005 101.181 162.687 127.765 161.03 131.418C159.374 135.071 163.349 136.404 168.319 140.396C173.289 144.389 182.529 165.647 189.85 177.944C197.172 190.24 211.388 211.537 216.68 214.833" stroke="#00E0B8" stroke-miterlimit="10" stroke-linecap="round"/>
<path d="M220.272 168.726C205.817 156.803 185.875 142.772 182.912 138.054C179.577 132.74 173.634 122.111 172.65 116.127C171.666 110.143 165.028 101.17 165.028 101.17C165.028 101.17 162.709 127.754 161.053 131.407C159.396 135.06 163.371 136.392 168.341 140.385C173.311 144.378 182.551 165.636 189.873 177.932C191.541 180.721 193.497 183.961 195.705 187.346C196.933 186.85 198.284 186.27 199.813 185.578C207.19 182.249 215.935 173.421 220.272 168.726Z" fill="white" stroke="#00E0B8" stroke-miterlimit="10" stroke-linecap="round"/>
<path d="M147.649 81.5127C147.649 81.5127 161.38 89.6881 163.938 95.2871C166.495 100.886 168.23 118.971 165.228 129.728C162.226 140.485 158.362 151.248 152.78 150.819C147.198 150.39 129.241 145.047 124.032 141.339C119.029 137.764 112.018 129.717 111.157 125.412C110.295 121.107 114.587 114.22 119.307 111.638C124.027 109.056 129.169 106.061 130.031 101.304C130.893 96.5474 131.754 92.6994 136.469 92.6994C141.183 92.6994 148.071 91.8462 147.649 81.5127Z" fill="white" stroke="#00E0B8" stroke-miterlimit="10" stroke-linecap="round"/>
<path d="M150.117 107.829C150.117 107.829 145.475 110.154 140.838 108.827" stroke="#00E0B8" stroke-miterlimit="10" stroke-linecap="round"/>
<path d="M152.102 97.5232C152.102 97.5232 144.813 94.8631 139.843 100.869" stroke="#00E0B8" stroke-width="2" stroke-miterlimit="10" stroke-linecap="round"/>
<path d="M159.724 98.1866C159.724 98.1866 162.042 94.8407 164.032 97.5231" stroke="#00E0B8" stroke-width="2" stroke-miterlimit="10" stroke-linecap="round"/>
<path d="M158.729 120.12C158.729 120.12 163.037 119.462 165.061 116.489C167.084 113.517 161.442 109.842 159.435 106.195C157.428 102.548 159.757 98.209 159.757 98.209" stroke="#00E0B8" stroke-miterlimit="10" stroke-linecap="round"/>
<path d="M165.689 106.825C164.208 107.375 162.628 107.602 161.053 107.489" stroke="#00E0B8" stroke-miterlimit="10" stroke-linecap="round"/>
<path d="M159.062 126.767C159.062 126.767 146.47 130.403 146.47 132.416C146.47 134.429 153.097 136.738 155.087 135.411C157.078 134.083 155.749 130.091 159.062 126.767Z" stroke="#00E0B8" stroke-miterlimit="10" stroke-linecap="round"/>
<path d="M105.997 62.6637C102.676 62.0612 99.2587 62.2795 96.0405 63.2995C93.5777 73.1869 90.609 93.625 98.8759 118.759L107.821 115.842C99.3428 89.95 104.007 69.3389 105.997 62.6637Z" fill="white" stroke="#00E0B8" stroke-miterlimit="10" stroke-linecap="round"/>
<path d="M112.589 133.338C120.819 128.974 123.808 118.446 119.264 109.822C114.719 101.199 104.364 97.7456 96.1333 102.109C87.9029 106.473 84.9145 117.002 89.4587 125.625C94.0028 134.248 104.359 137.702 112.589 133.338Z" fill="white" stroke="#00E0B8" stroke-miterlimit="10" stroke-linecap="round"/>
<path d="M110.245 128.901C116.133 125.779 118.27 118.246 115.019 112.076C111.768 105.906 104.359 103.435 98.4711 106.556C92.5834 109.678 90.4461 117.211 93.6975 123.381C96.9488 129.551 104.358 132.022 110.245 128.901Z" stroke="#00E0B8" stroke-miterlimit="10" stroke-linecap="round"/>
<path d="M97.7695 149.693C97.7695 149.693 99.7598 154.678 101.745 158.342C103.729 162.006 102.406 166.311 102.406 166.311C102.406 166.311 102.406 167.309 104.396 176.616C107.115 189.22 108.11 202.375 109.367 215.179C110.879 230.514 114.37 263.26 97.7695 272.657C84.1934 280.336 75.6653 259.831 75.9377 250.049C76.3262 241.172 78.161 232.418 81.3692 224.135C85.6777 212.836 89.1524 176.918 88.8188 173.627C88.4853 170.337 81.864 153.027 79.2122 147.044C76.5603 141.06 74.9147 137.736 77.233 133.749C79.5513 129.762 88.4909 120.131 88.4909 120.131C88.4909 120.131 95.1177 110.823 95.1177 120.465C94.1343 123.007 92.9229 125.454 91.4985 127.776L86.8564 134.747C86.8564 134.747 94.4783 130.765 96.4686 126.778C98.4589 122.791 101.083 119.785 102.078 122.155C103.073 124.525 102.078 127.47 100.088 131.792C98.0975 136.113 93.8446 143.04 93.8446 143.04L97.7695 149.693Z" fill="white" stroke="#00E0B8" stroke-miterlimit="10" stroke-linecap="round"/>
<path d="M87.5012 121.118L79.2177 134.736" stroke="#00E0B8" stroke-miterlimit="10" stroke-linecap="round"/>
<path d="M110.59 230.933C96.7243 232.422 87.0565 228.144 81.308 224.285C78.1115 232.519 76.2769 241.222 75.8765 250.049C75.6041 259.825 84.1767 280.336 97.7083 272.657C109.789 265.848 111.273 246.759 110.59 230.933Z" stroke="#00E0B8" stroke-miterlimit="10" stroke-linecap="round"/>
<path d="M204.455 10.5446C204.454 10.305 204.398 10.0687 204.291 9.85465C204.183 9.64057 204.028 9.45451 203.836 9.31115C203.645 9.16779 203.423 9.07118 203.188 9.02878C202.952 8.98637 202.711 8.99941 202.481 9.0669L186.298 13.8737C185.977 13.9668 185.696 14.162 185.495 14.4295C185.295 14.697 185.186 15.0225 185.186 15.3572V33.9384C184.64 33.7261 184.06 33.6147 183.474 33.6095C182.548 33.6044 181.641 33.8699 180.863 34.3735C180.086 34.8772 179.471 35.5971 179.095 36.4454C178.718 37.2937 178.596 38.2335 178.744 39.1501C178.892 40.0668 179.302 40.9207 179.925 41.6071C180.549 42.2935 181.358 42.7828 182.254 43.0154C183.15 43.248 184.095 43.2136 184.972 42.9165C185.849 42.6195 186.62 42.0728 187.193 41.3429C187.765 40.6131 188.113 39.7317 188.194 38.8068H188.26V24.6256L201.37 20.722V28.9252C200.837 28.7215 200.272 28.614 199.702 28.6074C198.759 28.6074 197.838 28.8874 197.055 29.4126C196.271 29.9377 195.661 30.6842 195.3 31.5574C194.939 32.4307 194.845 33.3917 195.029 34.3188C195.213 35.2459 195.666 36.0975 196.333 36.7659C196.999 37.4343 197.848 37.8894 198.772 38.0738C199.696 38.2582 200.654 38.1635 201.525 37.8017C202.396 37.44 203.14 36.8275 203.663 36.0416C204.187 35.2557 204.466 34.3317 204.466 33.3865C204.466 33.3586 204.466 33.3363 204.466 33.314L204.455 10.5446ZM201.381 17.5097L188.272 21.4133V16.5226L201.381 12.619V17.5097Z" fill="#FFF176"/>
</g>
</svg>
