<?xml version="1.0" encoding="utf-8"?>
<!-- Generator: Adobe Illustrator 26.0.3, SVG Export Plug-In . SVG Version: 6.00 Build 0)  -->
<svg version="1.1" id="圖層_1" xmlns="http://www.w3.org/2000/svg" xmlns:xlink="http://www.w3.org/1999/xlink" x="0px" y="0px"
	 viewBox="0 0 492 95" style="enable-background:new 0 0 492 95;" xml:space="preserve">
<style type="text/css">
	.st0{fill-rule:evenodd;clip-rule:evenodd;fill:url(#SVGID_1_);}
</style>
<rect width="492" height="95"/>
<path d="M67.3,69.4c0.5,0,1,0.1,1.5,0.3c0.5,0.2,1,0.5,1.4,0.9l8.4,8.8c-3.7,4.8-8.3,8.4-13.8,10.9c-5.5,2.4-12,3.6-19.6,3.6
	c-6.9,0-13.1-1.2-18.7-3.5c-5.5-2.4-10.1-5.6-14-9.8c-3.7-4-6.6-9-8.7-14.6c-2-5.7-3.1-11.9-3.1-18.6c0-6.8,1.1-13,3.3-18.7
	s5.3-10.6,9.3-14.8c4-4.1,8.8-7.3,14.4-9.6s11.7-3.4,18.5-3.4c3.4,0,6.6,0.3,9.6,0.9c3,0.6,5.9,1.4,8.5,2.5c2.6,1,5,2.3,7.3,3.8
	c2.2,1.5,4.2,3.1,5.9,4.9l-7.1,9.6c-0.5,0.6-1,1.1-1.6,1.6s-1.5,0.7-2.6,0.7c-0.8,0-1.5-0.2-2.1-0.5c-0.7-0.3-1.4-0.7-2.1-1.2
	c-0.8-0.5-1.6-1-2.5-1.6s-1.9-1.1-3.2-1.6c-1.2-0.5-2.6-0.9-4.3-1.3c-1.6-0.3-3.5-0.5-5.8-0.5c-3.5,0-6.7,0.6-9.6,1.9
	s-5.4,3.2-7.5,5.7s-3.7,5.5-4.9,9.1c-1.1,3.6-1.7,7.7-1.7,12.3c0,4.7,0.6,8.8,1.9,12.5c1.3,3.6,3,6.7,5.2,9.2s4.8,4.3,7.7,5.6
	c2.9,1.3,6.1,1.9,9.4,1.9c1.9,0,3.7-0.1,5.3-0.3c1.6-0.2,3.1-0.5,4.4-0.9c1.4-0.5,2.7-1,3.9-1.8s2.4-1.7,3.7-2.8
	c0.5-0.4,1-0.8,1.6-1C66.1,69.5,66.7,69.4,67.3,69.4z"/>
<path d="M175.3,47.4c0,6.6-1.1,12.7-3.4,18.4c-2.3,5.7-5.4,10.6-9.6,14.8c-4.1,4.2-9.1,7.4-15,9.8c-5.8,2.4-12.2,3.6-19.3,3.6
	c-7.1,0-13.6-1.2-19.4-3.6s-10.8-5.7-15-9.8c-4.1-4.2-7.3-9.2-9.6-14.8c-2.3-5.7-3.4-11.8-3.4-18.4S81.7,34.7,84,29
	s5.5-10.6,9.6-14.8c4.2-4.2,9.2-7.4,15-9.8s12.3-3.6,19.4-3.6c7.1,0,13.5,1.2,19.3,3.6s10.8,5.7,15,9.8c4.1,4.2,7.3,9.1,9.6,14.8
	C174.1,34.7,175.3,40.8,175.3,47.4z M153.6,47.4c0-4.5-0.6-8.6-1.8-12.1c-1.2-3.6-2.9-6.7-5.1-9.2c-2.2-2.5-4.8-4.4-8-5.8
	c-3.2-1.3-6.8-2-10.8-2c-4.1,0-7.7,0.7-11,2c-3.2,1.3-5.9,3.3-8.1,5.8s-3.8,5.6-5,9.2s-1.8,7.6-1.8,12.1s0.6,8.6,1.8,12.3
	c1.2,3.6,2.8,6.6,5,9.1s4.9,4.4,8.1,5.8c3.2,1.3,6.9,1.9,11,1.9c4,0,7.7-0.6,10.8-1.9c3.2-1.3,5.8-3.3,8-5.8s3.9-5.6,5.1-9.1
	C153,56,153.6,51.9,153.6,47.4z"/>
<path d="M225.8,76.3c2.8,0,5.4-0.5,7.6-1.4c2.3-1,4.2-2.3,5.7-4.1c1.5-1.8,2.7-3.9,3.5-6.4s1.3-5.4,1.3-8.6v-54H265v54
	c0,5.6-0.9,10.7-2.8,15.4c-1.8,4.7-4.4,8.7-7.8,12.1c-3.4,3.4-7.5,6-12.3,7.9S231.8,94,225.8,94c-6.1,0-11.6-0.9-16.4-2.8
	c-4.8-1.9-9-4.5-12.3-7.9c-3.4-3.4-6-7.4-7.8-12.1s-2.7-9.8-2.7-15.4v-54h21.2v54c0,3.2,0.4,6.1,1.2,8.6s2,4.7,3.6,6.4
	c1.5,1.8,3.4,3.1,5.6,4.1C220.4,75.8,223,76.3,225.8,76.3z"/>
<path d="M311.2,44.7c2.9,0,5.3-0.4,7.3-1.1c2-0.8,3.7-1.8,5-3.1s2.2-2.8,2.8-4.5c0.6-1.8,0.9-3.6,0.9-5.6c0-4-1.3-7.1-3.9-9.4
	s-6.6-3.4-12.1-3.4h-8.5v27L311.2,44.7L311.2,44.7z M356.1,93H337c-3.5,0-6.1-1.3-7.6-4l-15.1-26.5c-0.7-1.1-1.5-1.9-2.4-2.4
	s-2.1-0.8-3.8-0.8h-5.4V93h-21.2V1.8h29.7c6.6,0,12.2,0.7,16.8,2.1c4.7,1.3,8.5,3.2,11.4,5.6c3,2.4,5.1,5.3,6.4,8.6s2,6.9,2,10.8
	c0,3-0.4,5.8-1.2,8.4c-0.8,2.6-2,5.1-3.5,7.3s-3.5,4.2-5.8,5.9c-2.3,1.8-4.9,3.2-7.8,4.3c1.4,0.7,2.7,1.6,3.9,2.7
	c1.2,1,2.3,2.3,3.3,3.8L356.1,93z"/>
<path d="M414.2,20.3c-0.6,1-1.3,1.8-2,2.3s-1.5,0.8-2.6,0.8c-1,0-2-0.3-3.1-0.9s-2.3-1.3-3.8-2.1c-1.4-0.8-3-1.4-4.8-2
	s-3.8-0.9-6.1-0.9c-4,0-6.9,0.9-8.9,2.6c-1.9,1.7-2.9,3.9-2.9,6.8c0,1.8,0.6,3.4,1.8,4.6c1.2,1.2,2.7,2.3,4.6,3.1
	c1.9,0.9,4.1,1.7,6.5,2.4c2.5,0.7,5,1.5,7.5,2.4s5,1.9,7.4,3.1c2.5,1.2,4.6,2.8,6.5,4.6c1.9,1.9,3.5,4.2,4.6,6.9
	c1.2,2.7,1.8,5.9,1.8,9.7c0,4.2-0.7,8.2-2.2,11.8c-1.5,3.7-3.6,6.9-6.4,9.6s-6.2,4.9-10.3,6.4c-4,1.5-8.7,2.3-13.8,2.3
	c-2.8,0-5.7-0.3-8.7-0.9c-2.9-0.6-5.8-1.4-8.5-2.4c-2.8-1.1-5.3-2.4-7.8-3.8c-2.4-1.5-4.5-3.1-6.3-4.9l6.3-9.9
	c0.5-0.7,1.1-1.3,1.9-1.8s1.7-0.8,2.7-0.8c1.3,0,2.5,0.4,3.8,1.2c1.3,0.8,2.7,1.7,4.3,2.6c1.6,1,3.5,1.8,5.6,2.6
	c2.1,0.8,4.5,1.2,7.4,1.2c3.8,0,6.8-0.8,9-2.5c2.1-1.7,3.2-4.4,3.2-8.1c0-2.1-0.6-3.9-1.8-5.2c-1.2-1.3-2.7-2.4-4.6-3.3
	c-1.9-0.9-4-1.6-6.4-2.3s-4.9-1.4-7.4-2.2s-5-1.8-7.4-3s-4.6-2.8-6.5-4.7c-1.9-2-3.4-4.4-4.6-7.3c-1.2-2.9-1.8-6.5-1.8-10.8
	c0-3.4,0.7-6.8,2.1-10c1.4-3.3,3.4-6.2,6.1-8.7s5.9-4.6,9.8-6.1s8.3-2.3,13.3-2.3c2.8,0,5.5,0.2,8.1,0.7c2.7,0.4,5.2,1.1,7.6,1.9
	s4.6,1.9,6.6,3.1c2.1,1.2,3.9,2.5,5.6,4L414.2,20.3z"/>
<path d="M454.4,18.1v21.3h28.7V55h-28.7v21.7h37.4V93h-58.7V1.8h58.7v16.3C491.8,18.1,454.4,18.1,454.4,18.1z"/>
<linearGradient id="SVGID_1_" gradientUnits="userSpaceOnUse" x1="238.8104" y1="656.9971" x2="260.5823" y2="780.426" gradientTransform="matrix(1 0 0 1 0 -672)">
	<stop  offset="0" style="stop-color:#FFF176"/>
	<stop  offset="1" style="stop-color:#00E0B8"/>
</linearGradient>
<path class="st0" d="M68.1,71.6L68.1,71.6c-0.3-0.1-0.6-0.2-0.8-0.2c-0.3,0-0.6,0.1-0.9,0.2h-0.1h-0.1c-0.4,0.2-0.8,0.4-1.1,0.7
	c-1.3,1.2-2.6,2.2-3.9,3l0,0l0,0c-1.3,0.8-2.8,1.4-4.3,1.9l0,0l0,0c-1.5,0.5-3.1,0.8-4.8,1l0,0l0,0c-1.7,0.2-3.5,0.3-5.5,0.3
	c-3.6,0-7-0.7-10.2-2.1s-6-3.5-8.4-6.1l0,0l0,0c-2.4-2.7-4.2-6-5.6-9.8l0,0l0,0c-1.3-3.9-2-8.3-2-13.1s0.6-9.1,1.8-12.9l0,0l0,0
	c1.2-3.8,3-7.1,5.3-9.8l0,0c2.3-2.7,5.1-4.8,8.2-6.2l0,0c3.2-1.4,6.7-2.1,10.4-2.1c2.3,0,4.4,0.2,6.2,0.5c1.7,0.3,3.3,0.8,4.6,1.3
	s2.5,1.1,3.5,1.7c0.9,0.5,1.8,1.1,2.5,1.6c0.7,0.4,1.3,0.8,1.9,1.1c0.4,0.2,0.8,0.3,1.2,0.3c0.8,0,1.2-0.2,1.4-0.3
	c0.5-0.4,0.9-0.8,1.2-1.2l6.1-8.1c-1.3-1.2-2.8-2.4-4.4-3.4c-2.1-1.4-4.4-2.6-6.9-3.6l0,0l0,0c-2.5-1-5.2-1.8-8.1-2.4l0,0l0,0
	C52.4,3.3,49.4,3,46.1,3c-6.5,0-12.4,1.1-17.7,3.3c-5.4,2.2-9.9,5.3-13.7,9.2s-6.8,8.6-8.9,14.1l0,0C3.7,35,2.6,41,2.6,47.6
	c0,6.5,1,12.4,2.9,17.9c2,5.4,4.7,10.1,8.4,14.1c3.6,3.9,8.1,7,13.3,9.3c5.2,2.2,11.2,3.3,17.9,3.3c7.3,0,13.6-1.2,18.8-3.5
	c4.7-2.1,8.7-5.1,12-9l-7.2-7.5C68.5,71.8,68.3,71.7,68.1,71.6L68.1,71.6z M70.2,70.7l8.4,8.8c-3.7,4.8-8.3,8.4-13.8,10.9
	c-5.5,2.4-12,3.6-19.6,3.6c-6.9,0-13.1-1.2-18.7-3.5c-5.5-2.4-10.1-5.6-14-9.8C8.8,76.6,5.9,71.6,3.8,66c-2-5.7-3.1-11.9-3.1-18.6
	c0-6.8,1.1-13,3.3-18.7s5.3-10.6,9.3-14.8c4-4.1,8.8-7.3,14.4-9.6s11.7-3.4,18.5-3.4c3.4,0,6.6,0.3,9.6,0.9c3,0.6,5.9,1.4,8.5,2.5
	c2.6,1,5,2.3,7.3,3.8c2.2,1.5,4.2,3.1,5.9,4.9l-7.1,9.6c-0.5,0.6-1,1.1-1.6,1.6s-1.5,0.7-2.6,0.7c-0.8,0-1.5-0.2-2.1-0.5
	c-0.7-0.3-1.4-0.7-2.1-1.2c-0.8-0.5-1.6-1-2.5-1.6s-1.9-1.1-3.2-1.6c-1.2-0.5-2.6-0.9-4.3-1.3c-1.6-0.3-3.5-0.5-5.8-0.5
	c-3.5,0-6.7,0.6-9.6,1.9s-5.4,3.2-7.5,5.7s-3.7,5.5-4.9,9.1c-1.1,3.6-1.7,7.7-1.7,12.3c0,4.7,0.6,8.8,1.9,12.5
	c1.3,3.6,3,6.7,5.2,9.2s4.8,4.3,7.7,5.6c2.9,1.3,6.1,1.9,9.4,1.9c1.9,0,3.7-0.1,5.3-0.3c1.6-0.2,3.1-0.5,4.4-0.9
	c1.4-0.5,2.7-1,3.9-1.8s2.4-1.7,3.7-2.8c0.5-0.4,1-0.8,1.6-1c0.6-0.3,1.2-0.4,1.8-0.4c0.5,0,1,0.1,1.5,0.3
	C69.3,69.9,69.8,70.2,70.2,70.7z M147.3,4.4C141.5,2,135.1,0.8,128,0.8c-7.1,0-13.6,1.2-19.4,3.6s-10.8,5.7-15,9.8
	c-4.1,4.2-7.3,9.1-9.6,14.8c-2.3,5.7-3.4,11.8-3.4,18.4s1.1,12.7,3.4,18.4s5.5,10.6,9.6,14.8c4.2,4.2,9.2,7.4,15,9.8
	S120.9,94,128,94c7.1,0,13.5-1.2,19.3-3.6s10.8-5.7,15-9.8c4.1-4.2,7.3-9.2,9.6-14.8c2.3-5.7,3.4-11.8,3.4-18.4s-1.1-12.7-3.4-18.3
	c-2.3-5.7-5.4-10.6-9.6-14.8C158.1,10.1,153.2,6.8,147.3,4.4z M85.8,65C88,70.5,91,75.2,95,79.2s8.7,7.1,14.4,9.4
	c5.6,2.3,11.8,3.4,18.7,3.4c6.9,0,13.1-1.2,18.6-3.4l0,0c5.6-2.3,10.4-5.4,14.3-9.4c3.9-4,7-8.7,9.1-14.2l0,0
	c2.2-5.4,3.3-11.3,3.3-17.7c0-6.3-1.1-12.2-3.3-17.6l0,0c-2.2-5.4-5.2-10.1-9.1-14.1c-3.9-4-8.7-7.1-14.3-9.4l0,0l0,0
	C141,4,134.8,2.8,128,2.8c-6.9,0-13.1,1.2-18.7,3.4c-5.6,2.3-10.4,5.4-14.4,9.4c-3.9,4-7,8.7-9.2,14.1S82.5,41,82.5,47.4
	S83.6,59.6,85.8,65z M117,20.3c3.2-1.3,6.9-2,11-2c4,0,7.7,0.7,10.8,2c3.2,1.3,5.8,3.3,8,5.8s3.9,5.6,5.1,9.2
	c1.2,3.6,1.8,7.6,1.8,12.1s-0.6,8.6-1.8,12.3c-1.2,3.6-2.9,6.6-5.1,9.1c-2.2,2.5-4.8,4.4-8,5.8c-3.2,1.3-6.8,1.9-10.8,1.9
	c-4.1,0-7.7-0.6-11-1.9c-3.2-1.3-5.9-3.3-8.1-5.8s-3.8-5.6-5-9.1c-1.2-3.6-1.8-7.7-1.8-12.3c0-4.5,0.6-8.6,1.8-12.1
	c1.2-3.6,2.8-6.7,5-9.2C111.2,23.5,113.8,21.6,117,20.3z M102,34.6c-1.2,3.8-1.8,8.1-1.8,12.8s0.6,9,1.8,12.9l0,0
	c1.2,3.8,3,7.1,5.4,9.8l0,0l0,0c2.4,2.7,5.4,4.8,8.8,6.3l0,0l0,0c3.5,1.4,7.4,2.1,11.7,2.1s8.1-0.7,11.6-2.1l0,0l0,0
	c3.4-1.4,6.4-3.5,8.7-6.3c2.4-2.7,4.2-6,5.5-9.8l0,0c1.2-3.9,1.8-8.2,1.8-12.9s-0.6-8.9-1.8-12.8s-3.1-7.2-5.5-9.9s-5.3-4.8-8.7-6.3
	c-3.5-1.5-7.3-2.2-11.6-2.2c-4.3,0-8.2,0.7-11.7,2.2l0,0c-3.4,1.4-6.4,3.5-8.8,6.3l0,0l0,0C105.1,27.4,103.3,30.8,102,34.6z
	 M234.1,76.8L234.1,76.8c-2.5,1-5.3,1.5-8.3,1.5c-3.1,0-5.9-0.5-8.4-1.5l0,0l0,0c-2.5-1.1-4.6-2.6-6.3-4.6l0,0l0,0
	c-1.7-2-3-4.4-3.9-7.1l0,0l0,0c-0.9-2.8-1.3-5.9-1.3-9.2v-52h-17.2v52c0,5.4,0.9,10.3,2.6,14.7c1.7,4.4,4.1,8.2,7.3,11.4
	c3.2,3.2,7,5.7,11.6,7.4c4.6,1.8,9.8,2.7,15.7,2.7c5.8,0,11-0.9,15.6-2.7c4.6-1.8,8.5-4.3,11.6-7.4c3.2-3.2,5.6-7,7.3-11.4l0,0l0,0
	c1.7-4.4,2.6-9.3,2.6-14.7v-52h-17.2v52c0,3.4-0.4,6.5-1.3,9.3c-0.9,2.7-2.2,5.1-3.9,7.1C238.8,74.2,236.7,75.7,234.1,76.8
	L234.1,76.8z M242.6,64.5c-0.8,2.5-2,4.6-3.5,6.4s-3.4,3.1-5.7,4.1c-2.2,0.9-4.7,1.4-7.6,1.4c-2.8,0-5.4-0.5-7.6-1.4
	c-2.2-1-4.1-2.3-5.6-4.1c-1.5-1.8-2.7-3.9-3.6-6.4c-0.8-2.5-1.2-5.4-1.2-8.6v-54h-21.2v54c0,5.6,0.9,10.7,2.7,15.4
	c1.8,4.7,4.4,8.7,7.8,12.1c3.4,3.4,7.5,6,12.3,7.9s10.3,2.8,16.4,2.8c6.1,0,11.5-0.9,16.3-2.8s9-4.5,12.3-7.9
	c3.4-3.4,6-7.4,7.8-12.1s2.8-9.8,2.8-15.4v-54h-21.2v54C243.8,59,243.4,61.9,242.6,64.5z M319.2,45.5L319.2,45.5
	c-2.3,0.8-5,1.2-8,1.2h-10.5v-31h10.5c5.7,0,10.3,1.2,13.4,3.9s4.6,6.4,4.6,10.9c0,2.2-0.3,4.3-1,6.3l0,0l0,0
	c-0.7,2-1.8,3.8-3.3,5.3C323.4,43.5,321.5,44.7,319.2,45.5L319.2,45.5z M323.3,21c-2.6-2.3-6.6-3.4-12.1-3.4h-8.5v27h8.5
	c2.9,0,5.3-0.4,7.3-1.1c2-0.8,3.7-1.8,5-3.1s2.2-2.8,2.8-4.5c0.6-1.8,0.9-3.6,0.9-5.6C327.2,26.4,325.9,23.3,323.3,21z M314.2,62.5
	L329.3,89c1.5,2.7,4.1,4,7.6,4h19.2l-19.4-31.7c-1-1.5-2-2.7-3.3-3.8c-0.6-0.5-1.1-1-1.7-1.4c-0.7-0.5-1.4-0.9-2.1-1.3
	c0.8-0.3,1.6-0.6,2.3-1c2-0.9,3.9-2.1,5.5-3.3c2.3-1.8,4.2-3.7,5.8-5.9c1.5-2.3,2.7-4.7,3.5-7.3s1.2-5.4,1.2-8.4
	c0-3.9-0.7-7.5-2-10.8s-3.5-6.2-6.4-8.6s-6.7-4.3-11.4-5.6c-4.6-1.4-10.2-2.1-16.8-2.1h-29.7V93h21.2V59.3h5.4
	c1.6,0,2.9,0.3,3.8,0.8C312.7,60.6,313.5,61.4,314.2,62.5z M300.7,91V57.3h7.4c1.8,0,3.5,0.3,4.8,1.1c1.2,0.7,2.2,1.8,3,3.1l0,0
	L331.1,88l0,0c1.1,1.9,2.9,3,5.9,3h15.6L335,62.3c-0.9-1.3-1.8-2.4-2.9-3.3l0,0l0,0c-1.1-1-2.2-1.8-3.5-2.4l-4-2.1l4.2-1.6
	c2.8-1.1,5.2-2.4,7.3-4l0,0l0,0c2.1-1.6,3.9-3.5,5.3-5.5c1.4-2.1,2.5-4.3,3.2-6.8c0.7-2.4,1.1-5,1.1-7.8c0-3.6-0.6-7-1.9-10
	c-1.2-3-3.1-5.6-5.9-7.8l0,0c-2.7-2.2-6.2-4-10.7-5.3l0,0l0,0c-4.4-1.3-9.8-2-16.3-2h-27.7V91H300.7z M386.3,34.5
	c-1.9-0.9-3.4-1.9-4.6-3.1c-1.2-1.2-1.8-2.7-1.8-4.6c0-2.9,1-5.2,2.9-6.8c2-1.7,4.9-2.6,8.9-2.6c2.3,0,4.3,0.3,6.1,0.9
	c1.8,0.6,3.4,1.3,4.8,2c1.4,0.8,2.7,1.4,3.8,2.1c1.1,0.6,2.2,0.9,3.1,0.9c1.1,0,2-0.3,2.6-0.8c0.7-0.5,1.4-1.3,2-2.3l5.3-9.8
	c-1.6-1.5-3.5-2.8-5.6-4c-2-1.2-4.3-2.2-6.6-3.1c-2.4-0.9-4.9-1.5-7.6-1.9c-2.6-0.5-5.3-0.7-8.1-0.7c-5,0-9.5,0.8-13.3,2.3
	c-3.9,1.5-7.2,3.5-9.8,6.1c-2.7,2.5-4.7,5.4-6.1,8.7s-2.1,6.6-2.1,10c0,4.3,0.6,7.8,1.8,10.8c1.2,2.9,2.7,5.3,4.6,7.3
	c1.9,1.9,4.1,3.5,6.5,4.7s4.9,2.2,7.4,3s5,1.5,7.4,2.2s4.6,1.4,6.4,2.3c1.9,0.9,3.5,2,4.6,3.3c1.2,1.3,1.8,3.1,1.8,5.2
	c0,3.7-1.1,6.4-3.2,8.1s-5.1,2.5-9,2.5c-2.8,0-5.3-0.4-7.4-1.2c-2.1-0.8-3.9-1.7-5.6-2.6c-1.6-1-3-1.8-4.3-2.6
	c-1.3-0.8-2.5-1.2-3.8-1.2c-1,0-1.9,0.3-2.7,0.8c-0.8,0.5-1.4,1-1.9,1.8l-6.3,9.9c1.8,1.8,3.9,3.4,6.3,4.9s5,2.7,7.8,3.8
	c2.8,1,5.6,1.9,8.5,2.4c3,0.6,5.9,0.9,8.7,0.9c5.2,0,9.8-0.8,13.8-2.3c4.1-1.6,7.5-3.7,10.3-6.4c2.8-2.8,4.9-6,6.4-9.6
	c1.5-3.7,2.2-7.6,2.2-11.8c0-3.8-0.6-7-1.8-9.7c-1.2-2.7-2.7-5-4.6-6.9s-4-3.4-6.5-4.6c-2.4-1.2-4.9-2.3-7.4-3.1
	c-2.5-0.9-5-1.7-7.5-2.4C390.4,36.2,388.2,35.4,386.3,34.5z M371.5,88.8c2.6,1,5.4,1.8,8.2,2.3c2.8,0.6,5.6,0.8,8.3,0.8
	c5,0,9.3-0.7,13.1-2.2c3.9-1.5,7-3.5,9.6-6c2.6-2.6,4.6-5.5,5.9-9c1.4-3.4,2-7.1,2-11.1c0-3.6-0.6-6.5-1.6-8.9l0,0
	c-1.1-2.5-2.5-4.6-4.2-6.2l0,0l0,0c-1.7-1.7-3.7-3.1-6-4.3l0,0c-2.3-1.2-4.7-2.2-7.2-3l0,0l0,0c-2.5-0.9-5-1.7-7.4-2.4l0,0l0,0
	c-2.5-0.8-4.7-1.6-6.7-2.5l0,0l0,0c-2-1-3.8-2.1-5.2-3.6c-1.6-1.6-2.3-3.7-2.3-6c0-3.4,1.1-6.2,3.6-8.3c2.5-2.2,6-3.1,10.2-3.1
	c2.5,0,4.7,0.3,6.8,1c1.9,0.6,3.6,1.3,5.1,2.1c1.4,0.7,2.7,1.4,3.8,2.1c0.9,0.5,1.6,0.6,2.2,0.6c0.8,0,1.2-0.2,1.4-0.4l0,0l0,0
	c0.4-0.3,0.9-0.8,1.4-1.6l4.5-8.4c-1.2-1-2.6-1.9-4-2.7l0,0l0,0c-1.9-1.1-4-2.1-6.3-2.9l0,0l0,0c-2.2-0.8-4.6-1.4-7.2-1.8l0,0l0,0
	c-2.5-0.4-5.1-0.7-7.8-0.7c-4.8,0-9,0.7-12.6,2.2l0,0l0,0c-3.7,1.4-6.7,3.3-9.2,5.7s-4.3,5-5.6,8c-1.3,3-1.9,6.1-1.9,9.2
	c0,4.1,0.6,7.4,1.6,10c1.1,2.7,2.5,4.9,4.1,6.6c1.8,1.8,3.7,3.2,6,4.3s4.7,2.1,7.2,2.9c2.5,0.8,5,1.5,7.4,2.2
	c2.5,0.7,4.8,1.5,6.8,2.4c2.1,1,3.9,2.2,5.3,3.8c1.5,1.8,2.2,4,2.2,6.5c0,4.1-1.2,7.4-3.9,9.6l0,0l0,0c-2.6,2-6.1,2.9-10.2,2.9
	c-3,0-5.7-0.4-8.1-1.3c-2.2-0.8-4.1-1.7-5.9-2.8l0,0l0,0c-1.6-1-3-1.8-4.3-2.6l0,0l0,0c-1-0.6-1.9-0.9-2.7-0.9
	c-0.6,0-1.1,0.1-1.7,0.5l0,0l0,0c-0.5,0.3-1,0.7-1.3,1.1l-5.3,8.5c1.4,1.2,3,2.4,4.8,3.5C366.4,86.6,368.9,87.8,371.5,88.8z
	 M452.4,16.1h37.4V3.8h-54.7V91h54.7V78.7h-37.4V53h28.7V41.4h-28.7V16.1z M454.4,39.4V18.1h37.4V1.8h-58.7V93h58.7V76.7h-37.4V55
	h28.7V39.4H454.4z"/>
</svg>
