<svg width="207" height="102" viewBox="0 0 207 102" fill="none" xmlns="http://www.w3.org/2000/svg">
<path opacity="0.8" d="M7.092 46.24V47.104H10.704V46.24H7.092ZM6.684 46.24V51.448C6.684 52.564 7.02 52.84 8.124 52.84C8.364 52.84 9.888 52.84 10.14 52.84C11.244 52.84 11.496 52.288 11.616 50.332C11.364 50.272 10.98 50.116 10.776 49.948C10.716 51.676 10.62 51.988 10.092 51.988C9.744 51.988 8.472 51.988 8.22 51.988C7.668 51.988 7.572 51.904 7.572 51.448V46.24H6.684ZM6.636 42.472V43.336H10.284V47.92H11.16V42.472H6.636ZM0.972 44.596V52.912H1.704V45.364H5.04V52.756H5.784V44.596H0.972ZM1.344 49.432V50.104H5.388V49.432H1.344ZM1.344 51.364V52.096H5.388V51.364H1.344ZM0.684 42.388V43.204H6.048V42.388H0.684ZM2.412 42.616V45.148H3.06V42.616H2.412ZM3.756 42.616V45.148H4.416V42.616H3.756ZM2.532 45.136V46.312C2.532 46.96 2.412 47.752 1.704 48.364C1.824 48.424 2.028 48.604 2.112 48.712C2.856 48.028 3.036 47.068 3.036 46.324V45.136H2.532ZM3.696 45.136V47.632C3.696 48.22 3.84 48.328 4.32 48.328C4.416 48.328 4.824 48.328 4.908 48.328C5.244 48.328 5.412 48.22 5.472 47.968C5.316 47.92 5.112 47.86 4.992 47.764C4.98 47.8 4.944 47.8 4.812 47.8C4.74 47.8 4.428 47.8 4.368 47.8C4.236 47.8 4.212 47.776 4.212 47.632V45.136H3.696ZM12.672 48.784V49.588H23.328V48.784H12.672ZM17.508 47.668V52.936H18.42V47.668H17.508ZM17.1 49.096C16.116 50.368 14.184 51.508 12.432 52.048C12.636 52.228 12.9 52.576 13.044 52.804C14.796 52.168 16.752 50.884 17.844 49.432L17.1 49.096ZM18.84 49.12L18.084 49.48C19.176 50.896 21.132 52.12 22.956 52.72C23.088 52.48 23.364 52.132 23.556 51.952C21.732 51.46 19.812 50.368 18.84 49.12ZM17.04 45.796H18.924V47.116H17.04V45.796ZM17.04 43.816H18.924V45.112H17.04V43.816ZM16.26 43.108V47.824H19.716V43.108H16.26ZM17.664 41.92C17.592 42.352 17.424 42.988 17.28 43.408L17.988 43.564C18.168 43.18 18.372 42.604 18.564 42.064L17.664 41.92ZM12.756 44.26C13.356 44.752 14.064 45.448 14.376 45.928L14.796 45.268C14.484 44.812 13.764 44.14 13.152 43.684L12.756 44.26ZM14.94 46.024C15.288 46.708 15.624 47.632 15.72 48.208L16.356 47.956C16.248 47.404 15.9 46.504 15.54 45.832L14.94 46.024ZM15.24 43.672C14.748 44.764 13.872 46.3 13.176 47.236L13.764 47.512C14.46 46.588 15.312 45.136 15.948 43.948L15.24 43.672ZM14.304 42.004C14.064 42.7 13.608 43.684 13.26 44.296L13.86 44.56C14.232 43.96 14.664 43.048 15.024 42.268L14.304 42.004ZM12.648 47.164L12.744 47.944C13.62 47.8 14.688 47.656 15.792 47.476L15.78 46.828C14.592 46.96 13.464 47.092 12.648 47.164ZM19.644 44.164C20.28 44.716 21 45.496 21.312 46.024L21.78 45.4C21.456 44.896 20.724 44.14 20.1 43.612L19.644 44.164ZM21.876 45.928C22.284 46.684 22.68 47.668 22.8 48.304L23.472 48.028C23.34 47.416 22.92 46.432 22.5 45.7L21.876 45.928ZM22.176 43.66C21.684 44.764 20.772 46.312 20.064 47.26L20.652 47.536C21.372 46.6 22.248 45.136 22.884 43.948L22.176 43.66ZM21.3 41.968C21.06 42.664 20.592 43.648 20.232 44.26L20.832 44.524C21.216 43.924 21.66 43.024 22.032 42.232L21.3 41.968ZM19.692 47.164L19.8 47.944C20.676 47.824 21.768 47.68 22.872 47.536L22.86 46.876C21.672 46.984 20.532 47.092 19.692 47.164ZM26.712 44.224V44.884H29.64V44.224H26.712ZM26.592 51.76V52.444H30.336V51.76H26.592ZM26.052 46.912V47.512H30.06V46.912H26.052ZM25.668 45.544V47.5C25.668 48.88 25.512 50.764 24.396 52.132C24.564 52.24 24.888 52.528 25.008 52.696C26.232 51.208 26.46 49.036 26.46 47.524V45.544H25.668ZM26.112 45.544V46.216H29.628V48.22H26.088V48.892H30.444V45.544H26.112ZM26.268 49.636V52.948H27.048V50.32H29.82V52.864H30.624V49.636H26.268ZM31.428 43.372V50.02H32.292V43.372H31.428ZM34.128 42.148V51.784C34.128 52 34.044 52.072 33.816 52.072C33.6 52.084 32.88 52.096 32.064 52.06C32.196 52.324 32.34 52.732 32.376 52.96C33.456 52.972 34.104 52.948 34.476 52.792C34.848 52.648 35.004 52.384 35.004 51.772V42.148H34.128ZM27.564 42.04C26.976 43.024 25.884 44.248 24.396 45.136C24.576 45.268 24.852 45.556 24.972 45.76C26.556 44.728 27.66 43.468 28.344 42.496V42.232H28.056V42.04H27.564ZM27.732 42.04V42.676H27.912C28.788 43.312 29.88 44.368 30.444 44.992L31.044 44.32C30.432 43.684 29.292 42.712 28.38 42.04H27.732ZM41.844 43.936L41.424 44.8H47.532V43.936H41.844ZM43.344 46.54V47.368H47.256V46.54H43.344ZM43.332 49.18V50.032H47.424V49.18H43.332ZM42.888 44.212V52.96H43.812V44.212H42.888ZM42.3 42.064C41.712 43.828 40.74 45.58 39.648 46.696C39.852 46.84 40.212 47.164 40.344 47.32C41.448 46.084 42.492 44.2 43.176 42.292L42.3 42.064ZM39.42 41.968C38.736 43.792 37.62 45.592 36.42 46.756C36.588 46.972 36.864 47.452 36.948 47.668C38.256 46.324 39.492 44.272 40.284 42.244L39.42 41.968ZM38.136 45.064V52.948H39.048V44.176L39.024 44.164L38.136 45.064ZM54.24 41.44H53.748V53.44H54.24V41.44ZM64.368 43.18V43.972H71.316V43.18H64.368ZM67.356 41.932V52.96H68.232V41.932H67.356ZM68.604 48.604L67.956 48.82C68.604 50.236 69.816 51.64 71.028 52.348C71.16 52.132 71.436 51.808 71.628 51.64C70.44 51.064 69.228 49.84 68.604 48.604ZM65.664 47.332H69.972V48.4H65.664V47.332ZM65.664 45.628H69.972V46.684H65.664V45.628ZM64.86 44.956V49.084H70.812V44.956H64.86ZM66.948 48.616C66.264 49.864 64.92 51.112 63.636 51.7C63.84 51.88 64.116 52.192 64.248 52.408C65.556 51.7 66.924 50.32 67.668 48.868L66.948 48.616ZM60.96 42.448V52.972H61.776V43.264H63.792V42.448H60.96ZM63.516 42.448V42.688C63.264 43.516 62.82 44.944 62.388 46.036C63.252 46.972 63.468 47.788 63.468 48.436C63.468 48.796 63.408 49.12 63.216 49.252C63.12 49.324 62.988 49.36 62.844 49.36C62.652 49.384 62.424 49.372 62.148 49.348C62.28 49.576 62.352 49.924 62.364 50.14C62.64 50.152 62.94 50.152 63.18 50.128C63.42 50.092 63.636 50.02 63.804 49.912C64.14 49.672 64.272 49.168 64.272 48.52C64.272 47.776 64.08 46.936 63.192 45.94C63.6 44.98 64.044 43.744 64.392 42.76L63.816 42.412L63.672 42.448H63.516ZM72.672 46.156V46.924H83.4V46.156H72.672ZM73.272 42.952V43.708H82.968V42.952H73.272ZM77.508 41.932V43.444H78.42V41.932H77.508ZM73.62 46.54V48.148C73.62 49.408 73.464 51.16 72.324 52.444C72.528 52.552 72.9 52.852 73.044 53.02C74.268 51.64 74.52 49.6 74.52 48.16V46.54H73.62ZM74.868 44.224C76.872 44.704 79.332 45.58 80.676 46.204L81.36 45.676C79.956 45.076 77.496 44.224 75.576 43.756L74.868 44.224ZM80.352 43.444C79.116 44.404 76.524 45.244 74.448 45.676C74.568 45.832 74.736 46.12 74.808 46.288C76.98 45.808 79.524 44.908 81.036 43.816L80.352 43.444ZM80.364 46.792C79.248 47.488 77.124 48.004 75.336 48.244C75.516 48.424 75.696 48.7 75.816 48.892C77.688 48.58 79.812 48.004 81.096 47.188L80.364 46.792ZM81.108 48.244C79.92 49.168 77.592 49.828 75.444 50.14C75.624 50.32 75.804 50.608 75.912 50.812C78.168 50.428 80.508 49.708 81.876 48.64L81.108 48.244ZM82.212 49.672C80.796 51.124 77.904 51.928 74.712 52.264C74.88 52.468 75.06 52.804 75.144 53.032C78.48 52.624 81.432 51.736 83.028 50.08L82.212 49.672ZM84.552 49.684V50.428H95.448V49.684H84.552ZM84.792 43.228V43.96H95.16V43.228H84.792ZM86.316 47.164V47.716H93.612V47.164H86.316ZM91.764 48.808V51.964C91.764 52.12 91.716 52.156 91.5 52.18C91.296 52.18 90.648 52.18 89.856 52.156C89.988 52.408 90.12 52.732 90.168 52.972C91.128 52.972 91.752 52.972 92.148 52.84C92.532 52.72 92.64 52.48 92.64 51.976V48.808H91.764ZM86.7 50.932C87.42 51.376 88.272 52.06 88.668 52.54L89.268 51.952C88.848 51.472 87.972 50.824 87.264 50.392L86.7 50.932ZM86.892 42.208C87.252 42.592 87.672 43.132 87.864 43.48L88.632 43.12C88.416 42.772 87.984 42.256 87.624 41.896L86.892 42.208ZM86.58 45.268H93.384V48.34H86.58V45.268ZM85.752 44.68V48.928H94.248V44.68H85.752ZM92.172 41.908C91.98 42.328 91.608 42.952 91.32 43.348L91.992 43.6C92.328 43.24 92.736 42.7 93.096 42.184L92.172 41.908ZM90.564 43.576V45.748C90.564 46.42 90.78 46.564 91.68 46.564C91.86 46.564 93.024 46.564 93.216 46.564C93.756 46.564 93.972 46.456 94.032 46.168C93.828 46.144 93.564 46.072 93.396 45.976C93.372 46.036 93.312 46.048 93.096 46.048C92.88 46.048 91.944 46.048 91.764 46.048C91.416 46.048 91.356 46 91.356 45.76V43.576H90.564ZM88.548 43.564V45.004C88.548 45.568 88.344 46.18 86.796 46.468C86.952 46.6 87.156 46.876 87.24 47.044C88.956 46.6 89.328 45.808 89.328 45.004V43.564H88.548ZM103.301 43.4688H104.396L107.191 50.4238L109.98 43.4688H111.082L107.613 52H106.758L103.301 43.4688ZM102.943 43.4688H103.91L104.068 48.6719V52H102.943V43.4688ZM110.467 43.4688H111.434V52H110.309V48.6719L110.467 43.4688ZM114.434 45.6602V52H113.344V45.6602H114.434ZM113.262 43.9785C113.262 43.8027 113.314 43.6543 113.42 43.5332C113.529 43.4121 113.689 43.3516 113.9 43.3516C114.107 43.3516 114.266 43.4121 114.375 43.5332C114.488 43.6543 114.545 43.8027 114.545 43.9785C114.545 44.1465 114.488 44.291 114.375 44.4121C114.266 44.5293 114.107 44.5879 113.9 44.5879C113.689 44.5879 113.529 44.5293 113.42 44.4121C113.314 44.291 113.262 44.1465 113.262 43.9785ZM117.264 43V52H116.174V43H117.264ZM121.137 45.6602L118.371 48.6191L116.824 50.2246L116.736 49.0703L117.844 47.7461L119.812 45.6602H121.137ZM120.146 52L117.885 48.9766L118.447 48.0098L121.424 52H120.146ZM124.77 52.1172C124.328 52.1172 123.928 52.043 123.568 51.8945C123.213 51.7422 122.906 51.5293 122.648 51.2559C122.395 50.9824 122.199 50.6582 122.062 50.2832C121.926 49.9082 121.857 49.498 121.857 49.0527V48.8066C121.857 48.291 121.934 47.832 122.086 47.4297C122.238 47.0234 122.445 46.6797 122.707 46.3984C122.969 46.1172 123.266 45.9043 123.598 45.7598C123.93 45.6152 124.273 45.543 124.629 45.543C125.082 45.543 125.473 45.6211 125.801 45.7773C126.133 45.9336 126.404 46.1523 126.615 46.4336C126.826 46.7109 126.982 47.0391 127.084 47.418C127.186 47.793 127.236 48.2031 127.236 48.6484V49.1348H122.502V48.25H126.152V48.168C126.137 47.8867 126.078 47.6133 125.977 47.3477C125.879 47.082 125.723 46.8633 125.508 46.6914C125.293 46.5195 125 46.4336 124.629 46.4336C124.383 46.4336 124.156 46.4863 123.949 46.5918C123.742 46.6934 123.564 46.8457 123.416 47.0488C123.268 47.252 123.152 47.5 123.07 47.793C122.988 48.0859 122.947 48.4238 122.947 48.8066V49.0527C122.947 49.3535 122.988 49.6367 123.07 49.9023C123.156 50.1641 123.279 50.3945 123.439 50.5938C123.604 50.793 123.801 50.9492 124.031 51.0625C124.266 51.1758 124.531 51.2324 124.828 51.2324C125.211 51.2324 125.535 51.1543 125.801 50.998C126.066 50.8418 126.299 50.6328 126.498 50.3711L127.154 50.8926C127.018 51.0996 126.844 51.2969 126.633 51.4844C126.422 51.6719 126.162 51.8242 125.854 51.9414C125.549 52.0586 125.188 52.1172 124.77 52.1172Z" fill="white"/>
<path d="M202.929 25.1299L0 25.1299L0 26.0199L202.929 26.0199V25.1299Z" fill="white"/>
<path d="M207 22L190 22V29H207V22Z" fill="#00E0B8"/>
<path d="M8.974 8.594H9.996V6.802H13.104V5.794H9.996V4.296H8.974V5.794H7.294V6.802H8.974V8.594ZM4.088 8.594H5.11V6.802H6.762V5.794H5.11V4.296H4.088V5.794H0.952V6.802H4.088V8.594ZM9.814 8.986C9.226 10.89 8.302 12.332 7.014 13.424C5.726 12.304 4.788 10.848 4.2 9.084L3.22 9.35C3.892 11.282 4.844 12.864 6.132 14.082C4.704 15.034 2.898 15.664 0.714 16.084C0.91 16.336 1.204 16.84 1.316 17.106C3.584 16.588 5.46 15.874 6.986 14.796C8.456 15.902 10.318 16.644 12.614 17.036C12.754 16.742 13.048 16.28 13.272 16.056C11.088 15.706 9.31 15.062 7.882 14.096C9.24 12.892 10.262 11.324 10.948 9.266L9.814 8.986ZM21.476 14.236H25.634V13.368H21.476V12.332H20.44V13.368H16.408V14.236H20.44V15.762H15.106V16.672H26.992V15.762H21.476V14.236ZM21.476 8.958V7.782H20.44V8.958H18.018C18.816 8.286 19.46 7.558 19.992 6.788H22.064C22.568 7.586 23.254 8.314 24.024 8.958H21.476ZM27.076 6.788V5.836H20.552C20.776 5.388 20.972 4.926 21.126 4.478L20.034 4.296C19.88 4.8 19.642 5.332 19.362 5.836H14.966V6.788H18.718C17.766 7.992 16.38 9.112 14.504 9.882C14.714 10.064 15.008 10.47 15.134 10.736C16.212 10.246 17.15 9.672 17.934 9.028V9.784H20.44V11.114H15.974V11.982H25.97V11.114H21.476V9.784H24.136V9.042C24.976 9.728 25.928 10.274 26.894 10.638C27.048 10.372 27.356 9.994 27.594 9.784C25.872 9.238 24.206 8.104 23.184 6.788H27.076ZM30.772 12.094V9.238H33.908V6.144H35.994V9.21H39.172V12.08H35.994V15.51H33.922V12.094H30.772ZM37.002 15.51V13.004H39.718V12.99H40.222V8.314H37.002V6.144H40.908V5.178H29.134V6.144H32.914V8.328H29.764V13.004H32.914V15.51H28.756V16.462H41.244V15.51H37.002ZM58.2769 9.35V8.286H52.4949C52.6909 6.816 52.7049 5.43 52.7189 4.31H51.5989C51.5849 5.416 51.5989 6.816 51.3889 8.286H46.0549V9.35H51.2209C50.6469 11.996 49.2469 14.684 45.7749 16.196C46.0689 16.406 46.4049 16.77 46.5589 17.05C49.9609 15.496 51.4729 12.808 52.1449 10.12C53.2509 13.298 55.0289 15.776 57.7169 17.05C57.8989 16.742 58.2489 16.308 58.5009 16.07C55.7989 14.964 53.9789 12.43 52.9989 9.35H58.2769ZM65.6969 7.768H63.9889V8.622H68.3009V7.768H66.6069V6.55H68.6229V5.696H66.6069V4.296H65.6969V5.696H63.6949V6.55H65.6969V7.768ZM67.2789 11.744H64.9969V10.134H67.2789V11.744ZM68.1889 9.378H64.1289V12.514H68.1889V9.378ZM65.7529 15.062C65.6829 14.502 65.4029 13.564 65.1229 12.85L64.3109 13.06C64.5769 13.788 64.8149 14.74 64.8709 15.314L65.7529 15.062ZM63.8629 11.548C63.6669 11.17 62.7989 9.644 62.4629 9.126V8.258H63.7229V7.306H62.4629V4.282H61.5529V7.306H59.9009V8.258H61.4689C61.1189 10.162 60.3769 12.388 59.6209 13.564C59.7889 13.774 60.0269 14.152 60.1249 14.404C60.6569 13.522 61.1609 12.122 61.5529 10.666V17.05H62.4629V10.33C62.7989 11.016 63.1769 11.87 63.3449 12.318L63.8629 11.548ZM67.2929 15.272C67.5589 14.628 67.8529 13.788 68.1049 13.018L67.1529 12.78C66.9989 13.522 66.6489 14.628 66.3689 15.314L66.5929 15.384C65.3609 15.566 64.2269 15.734 63.3869 15.846L63.6389 16.77C65.0529 16.532 67.0129 16.224 68.8749 15.902L68.8189 15.034L67.2929 15.272ZM70.3029 13.032C70.2189 12.178 69.8549 10.75 69.4489 9.644L68.6649 9.854C69.0569 10.974 69.3789 12.444 69.4629 13.326L70.3029 13.032ZM72.5289 7.446H71.6749V4.324H70.7089V7.446H68.6089V8.398H70.7089V15.846C70.7089 16.042 70.6389 16.098 70.4709 16.112C70.2749 16.126 69.7009 16.126 69.0709 16.098C69.2109 16.364 69.3509 16.826 69.3929 17.078C70.2609 17.078 70.8349 17.05 71.1989 16.882C71.5349 16.714 71.6749 16.42 71.6749 15.846V8.398H72.5289V7.446ZM78.7309 12.486L76.7989 13.032V9.91H78.5209V8.944H76.7989V5.962H78.6469V5.01H73.8729V5.962H75.8049V8.944H74.0409V9.91H75.8049V13.298C74.9789 13.536 74.2229 13.732 73.6069 13.886L73.8869 14.88C75.2449 14.474 77.1069 13.928 78.8569 13.41L78.7309 12.486ZM80.2709 10.246H84.8069V11.674H80.2709V10.246ZM80.2709 8.006H84.8069V9.406H80.2709V8.006ZM80.2709 5.78H84.8069V7.18H80.2709V5.78ZM84.3309 16.07C83.9809 16.07 83.9249 16.014 83.9249 15.664V12.556H85.8289V4.898H79.2909V12.556H80.5369C80.3129 14.362 79.6829 15.622 77.2189 16.294C77.4289 16.49 77.7089 16.91 77.8069 17.148C80.5229 16.308 81.2789 14.782 81.5589 12.556H82.9309V15.664C82.9309 16.672 83.1829 16.966 84.1769 16.966H85.5349C86.3749 16.966 86.6409 16.532 86.7109 14.824C86.4589 14.754 86.0389 14.6 85.8429 14.418C85.8009 15.86 85.7449 16.07 85.4229 16.07H84.3309ZM96.5249 11.828H99.6749V10.848H96.5249V8.174H95.4889V10.848H92.3529V11.828H95.4889V15.762H91.8069V16.742H100.221V15.762H96.5249V11.828ZM93.0109 6.452C93.2629 5.822 93.5009 5.178 93.6829 4.548L92.6189 4.282C92.4229 4.996 92.1709 5.738 91.8769 6.452H88.0549V7.446H91.4149C90.5469 9.224 89.3149 10.876 87.7189 12.01C87.8869 12.234 88.1529 12.668 88.2509 12.948C88.8389 12.528 89.3849 12.066 89.8749 11.534V17.022H90.8969V10.302C91.5549 9.406 92.1009 8.454 92.5909 7.446H100.221V6.452H93.0109Z" fill="#00E0B8"/>
</svg>
