<?xml version="1.0" encoding="utf-8"?>
<!-- Generator: Adobe Illustrator 26.0.3, SVG Export Plug-In . SVG Version: 6.00 Build 0)  -->
<svg version="1.1" id="圖層_1" xmlns="http://www.w3.org/2000/svg" xmlns:xlink="http://www.w3.org/1999/xlink" x="0px" y="0px"
	 viewBox="0 0 160 28" style="enable-background:new 0 0 160 28;" xml:space="preserve">
<style type="text/css">
	.st0{fill-rule:evenodd;clip-rule:evenodd;fill:url(#SVGID_1_);}
</style>
<path d="M22,9.8c-0.2,1.7-0.5,3.3-0.9,4.7c-0.5-1.5-0.9-3-1.1-4.7H22z M12.8,12.2l-0.7,0.2h-1.2c0.3-0.3,0.6-0.6,0.9-1h3
	c-0.3,0.5-0.7,1.1-1.1,1.5L12.8,12.2z M9.8,6.9H11c-0.3,0.4-0.7,0.9-1,1.3H9.8V6.9z M27.3,9.8V6.3h-6.6c0.3-1.4,0.6-2.7,0.9-4.1
	l-3.8-0.6c-0.4,3.1-1.2,6.2-2.4,8.7v-2h-1.1c1-1.5,1.9-3.2,2.6-4.9l-3.5-1c-0.4,1.1-0.9,2.2-1.5,3.2V3.8H9.8V1.6H6.3v2.2H3.6v3.1
	h2.7v1.3H2.6v3.2h4c-1.4,1.1-2.9,2-4.4,2.7c0.8,0.7,2,2.2,2.5,2.9c1-0.5,1.9-1.1,2.8-1.7h1.9c-0.6,0.6-1.2,1.1-1.7,1.5v1.2
	c-1.9,0.1-3.7,0.2-5.1,0.3l0.4,3.3l4.8-0.4v1.4c0,0.3-0.1,0.3-0.4,0.3c-0.3,0-1.5,0-2.3,0c0.4,0.9,0.9,2.2,1,3.2c1.6,0,2.9,0,4-0.5
	c1-0.5,1.3-1.4,1.3-2.9v-1.7c1.4-0.1,2.8-0.2,4.2-0.3v-3.2c-1.4,0.1-2.8,0.2-4.2,0.3v-0.5c1.2-1,2.4-2.2,3.4-3.3
	c0.7,0.6,1.5,1.4,1.9,1.8c0.3-0.4,0.6-0.8,0.9-1.2c0.4,1.5,0.9,3,1.5,4.3c-1.3,1.7-3,3-5.3,4c0.7,0.8,1.8,2.6,2.2,3.5
	c2.1-1,3.8-2.3,5.2-3.9c1.1,1.5,2.4,2.8,4.1,3.8c0.6-1,1.8-2.5,2.6-3.3c-1.8-0.9-3.2-2.3-4.4-3.9c1.3-2.6,2.1-5.6,2.6-9.3H27.3z"/>
<path d="M44.1,4.7c-0.3-0.3-0.7-0.6-1.1-0.9c0.4-0.4,0.9-0.9,1.2-1.4l-2.4-0.7C41.6,2,41.3,2.3,41,2.6c-0.5-0.3-0.9-0.5-1.4-0.7
	L38,3.3c0.4,0.2,0.8,0.4,1.2,0.7c-0.6,0.3-1.2,0.6-1.8,0.9C38,5.2,38.9,6,39.3,6.5c0.6-0.3,1.3-0.7,1.9-1.1c0.4,0.3,0.9,0.7,1.1,0.9
	L44.1,4.7z M34.8,10.4h2.8V9.8c0.4,0.4,0.9,0.9,1.2,1.2h-4L34.8,10.4z M33,13.7h15.9v3h3.7V11h-1.9c0.2-2.5,0.4-5.8,0.6-8.6h-6.8
	v2.3h3.1l0,0.6h-2.9v2.3h2.8l0,0.6h-2.9v2.3h2.7L47.1,11h-7.7c0.6-0.3,1.2-0.7,1.8-1.1c0.5,0.4,1,0.8,1.4,1.1l1.8-1.6
	c-0.4-0.3-0.9-0.7-1.4-1.1c0.5-0.5,0.9-1,1.3-1.5l-2.4-0.7c-0.3,0.3-0.5,0.7-0.9,1c-0.5-0.3-1-0.5-1.4-0.8l-1.7,1.4
	C38.2,8,38.6,8.2,39,8.5c-0.5,0.3-0.9,0.5-1.4,0.7v-1h-2.9l-0.1-0.6h3V5.3h-3.1l0-0.5c1.2-0.3,2.3-0.6,3.3-1l-1.5-2.1
	c-1.5,0.5-3.8,1.2-5.4,1.5l0.4,7.8h-1.9v5.7H33V13.7z M52.8,18.8h-9c1.5-0.8,2.9-1.7,4.1-2.6l-2.1-1.9l-0.8,0.2H34.3V17h7.4
	c-0.7,0.5-1.5,0.9-2.2,1.3v0.5H29.1v3h10.4v1.1c0,0.3-0.1,0.4-0.5,0.4c-0.4,0-2,0-3.1-0.1c0.5,0.9,1,2.2,1.2,3.2
	c1.9,0,3.4,0,4.6-0.5c1.2-0.5,1.6-1.3,1.6-2.9v-1.2h9.7V18.8z"/>
<path d="M71.2,8.9h-8.4V6.2h8.4V8.9z M75.1,2.6h-16v9.9h16V2.6z M62.2,18v3.5h-3V18H62.2z M55.6,26.3h3.6v-1.2h3v1.1H66V14.4H55.6
	V26.3z M71.4,21.5V18h3.2v3.5H71.4z M67.8,14.4v12h3.6v-1.2h3.2v1.1h3.8V14.4H67.8z"/>
<path d="M97.8,14.1H88v-0.8h9.8V14.1z M88,19h9.8v0.8H88V19z M88,16.1h9.8v0.8H88V16.1z M101.3,10.8V8.3h3.5V5.6h-8
	c0-0.2,0-0.4,0-0.6c2.5-0.2,5.2-0.6,7.2-1.3l-2.3-2c-1.8,0.7-5.1,1-8,1.2v1.9c0,1-0.1,2.2-0.7,3.4V5.6h-6.9c0-0.2,0-0.3,0.1-0.5
	c2.3-0.2,4.7-0.6,6.5-1.2l-2-2.1c-1.8,0.7-4.9,1-7.7,1.2v1.6c0,1.5-0.3,3.4-2.3,5c0.7,0.4,2,1.7,2.4,2.4c1.2-1,2-2.2,2.5-3.5h1.8
	v2.4h3.3V8.3h2.2c-0.3,0.5-0.7,0.9-1.1,1.4c0.6,0.3,1.6,1,2.3,1.5h-9.6v10.8H87c-1.8,0.6-4,1.1-5.8,1.4c0.5,0.7,1.4,2.5,1.7,3.1
	c2.7-0.8,6.2-2.3,8.6-3.6l-1.7-1h6.4l-1,1.6c2.9,0.9,6,2.1,7.9,3l1.7-2.6c-1.4-0.6-3.5-1.3-5.7-2h2.6V11.2h-6.9
	c0.8-0.8,1.2-1.8,1.6-2.9h1.6v2.5H101.3z"/>
<path d="M112.3,1.7c-1.3,3.6-3.6,7.2-5.9,9.4c0.6,0.9,1.6,3,1.9,3.9c0.4-0.5,0.9-1,1.3-1.5v12.7h3.6V8.2c1-1.8,1.8-3.6,2.5-5.4
	L112.3,1.7z M116.8,17.9c-0.7,1.9-2,4-3.2,5.3c0.8,0.5,2.2,1.5,2.9,2c1.2-1.6,2.8-4.1,3.7-6.3L116.8,17.9z M119.7,6h6.5v2.8h-6.5V6z
	 M131.1,17.3v-3.4h-6.4v-1.8h5.3V2.7h-13.9v9.4h4.8v1.8h-6.4v3.4h6.4v9h3.8v-9H131.1z M125.3,19.4c1.2,1.7,2.7,4.1,3.3,5.6l3-1.8
	c-0.7-1.5-2.1-3.6-3.5-5.3L125.3,19.4z"/>
<path d="M138.3,19.8V22h-1.9v-2.1H138.3z M141.2,16.9h-7.6V26h2.8v-1h4.8V16.9z M133.7,16h7.4v-2.8h-7.4V16z M141.1,9.6h-7.4v2.8
	h7.4V9.6z M151.1,19.3c-0.3,1.1-0.7,2.5-1.2,3.6h-2.5l1.6-0.4c-0.2-0.9-0.6-2.1-1.2-3.1H151.1z M147.8,8.7c0.8-1.6,1.3-3.5,1.7-5.6
	c0.5,2,1.1,3.9,1.9,5.6H147.8z M147.2,15.2h4.4v1.3h-4.4V15.2z M152.6,10.9c0.4,0.5,0.8,1.1,1.3,1.6h-8.6c0.4-0.5,0.8-1,1.2-1.5v0.6
	h6.1V10.9z M153,19.3h1.8v-6c0.1,0.1,0.3,0.2,0.4,0.3c0.5-0.9,1.7-2.1,2.5-2.7c-0.9-0.6-1.8-1.4-2.5-2.3c0.7-0.4,1.4-0.9,2.1-1.4
	l-2.1-2.1c-0.4,0.3-0.9,0.8-1.4,1.2c-0.1-0.2-0.2-0.4-0.3-0.7c0.7-0.5,1.5-1.1,2.2-1.7l-2.1-2.1c-0.3,0.3-0.7,0.7-1,1
	c-0.1-0.4-0.2-0.9-0.3-1.3l-3.1,0.5l0.2,0.8l-2.1-0.6l-0.6,0.1h-4v2.9h2.8c-0.1,0.4-0.3,0.8-0.4,1.2c-0.5-0.3-1.1-0.6-1.6-0.9
	l-1.5,1.9V5.9H138l1.5-1c-0.4-1-1.3-2.4-2-3.5L135,2.9c0.5,0.9,1.1,2.1,1.6,3h-3.9v2.9h9.3V8.3c0.5,0.3,1.1,0.7,1.6,1
	c-0.7,0.9-1.4,1.6-2.2,2.2c0.7,0.6,1.7,1.7,2.2,2.5c0.2-0.1,0.3-0.2,0.4-0.3v5.7h2.7l-2.2,0.6c0.5,0.9,1,2.1,1.1,3h-3.6v3H157v-3
	h-3.7c0.5-0.9,1.1-2.1,1.7-3.2L153,19.3z"/>
<linearGradient id="SVGID_1_" gradientUnits="userSpaceOnUse" x1="77.2066" y1="34.6598" x2="83.2298" y2="-2.3704" gradientTransform="matrix(1 0 0 -1 0 30)">
	<stop  offset="0" style="stop-color:#FFF176"/>
	<stop  offset="1" style="stop-color:#00E0B8"/>
</linearGradient>
<path class="st0" d="M12.8,12.2l-0.7,0.2h-1.2c0.3-0.3,0.6-0.6,0.9-1h3c-0.2,0.2-0.3,0.5-0.5,0.7c-0.1,0.1-0.1,0.2-0.2,0.3
	c-0.1,0.1-0.2,0.2-0.2,0.3c-0.1,0.1-0.1,0.1-0.2,0.2L12.8,12.2z M16.2,5c-0.4,0.8-0.8,1.5-1.2,2.2c-0.2,0.3-0.4,0.7-0.6,1h1.1v2
	c0.3-0.6,0.6-1.3,0.8-2c0.1-0.2,0.1-0.3,0.2-0.5c0.3-0.8,0.5-1.6,0.7-2.4c0.1-0.6,0.3-1.2,0.4-1.8c0.1-0.3,0.1-0.6,0.2-1
	c0,0,0-0.1,0-0.1c0-0.3,0.1-0.6,0.1-0.9l3.8,0.6c-0.1,0.3-0.1,0.7-0.2,1c-0.1,0.7-0.3,1.4-0.4,2.1c-0.1,0.3-0.2,0.7-0.2,1h6.6v3.5
	h-1.5c-0.5,3.7-1.3,6.7-2.6,9.3c0.9,1.4,2.1,2.5,3.5,3.4c0.3,0.2,0.6,0.4,0.9,0.5c-0.2,0.2-0.5,0.5-0.7,0.7
	c-0.6,0.6-1.2,1.4-1.6,2.1c-0.1,0.2-0.2,0.3-0.3,0.4c-0.3-0.2-0.6-0.4-0.8-0.5c-1-0.7-1.9-1.5-2.6-2.4c-0.2-0.3-0.4-0.5-0.6-0.8
	c-0.2,0.3-0.5,0.5-0.7,0.7c-1,1-2.2,1.9-3.6,2.7c-0.3,0.2-0.6,0.3-0.9,0.5c-0.1-0.2-0.2-0.5-0.4-0.9c-0.3-0.6-0.7-1.2-1.1-1.8
	c-0.2-0.3-0.4-0.6-0.6-0.8c0.3-0.1,0.6-0.3,0.9-0.4c0.5-0.3,1-0.5,1.5-0.8c0.2-0.1,0.3-0.2,0.5-0.3c0.9-0.7,1.7-1.5,2.4-2.4
	c-0.4-1-0.8-2-1.1-3.1c-0.1-0.4-0.3-0.8-0.4-1.3c-0.1,0.1-0.2,0.3-0.2,0.4c-0.2,0.2-0.3,0.5-0.5,0.7c0,0.1-0.1,0.1-0.1,0.2
	c-0.2-0.2-0.4-0.5-0.7-0.7c-0.1-0.1-0.3-0.3-0.5-0.4c-0.2-0.2-0.5-0.5-0.7-0.7c-0.1,0.1-0.1,0.2-0.2,0.2c-0.8,0.8-1.6,1.7-2.5,2.5
	c-0.2,0.2-0.4,0.4-0.7,0.6v0.5c0.1,0,0.2,0,0.4,0c0.2,0,0.4,0,0.6,0c0,0,0,0,0.1,0c0.7,0,1.4-0.1,2.2-0.1c0.3,0,0.7,0,1-0.1v3.2
	c-0.7,0.1-1.4,0.1-2.1,0.2s-1.4,0.1-2.1,0.2v1.7c0,1.5-0.3,2.4-1.3,2.9c-1,0.5-2.3,0.5-4,0.5c-0.1-0.6-0.3-1.4-0.6-2.2
	c-0.1-0.4-0.3-0.7-0.4-1c0.3,0,0.7,0,1.1,0c0.5,0,1,0,1.2,0c0.3,0,0.4-0.1,0.4-0.3v-1.4l-4.8,0.4l-0.4-3.3c0.3,0,0.7,0,1-0.1
	c0.3,0,0.5,0,0.8,0c0.1,0,0.1,0,0.2,0c1-0.1,2-0.1,3.2-0.2v-1.2c0.2-0.2,0.4-0.3,0.7-0.5c0.4-0.3,0.7-0.6,1.1-1H7.5
	c-0.9,0.6-1.8,1.2-2.8,1.7c-0.4-0.5-1.1-1.4-1.7-2.1c-0.3-0.3-0.5-0.6-0.7-0.8c0.3-0.1,0.6-0.3,1-0.5c0.7-0.4,1.4-0.8,2.1-1.2
	c0.5-0.3,0.9-0.6,1.4-1h-4V8.2h3.6V6.9H3.6V3.8h2.7V1.6h3.5v2.2h2.2v1.7c0.3-0.5,0.6-1.1,0.9-1.7c0-0.1,0.1-0.2,0.1-0.3
	c0.2-0.4,0.4-0.8,0.5-1.3l3.5,1c-0.1,0.3-0.3,0.6-0.4,0.9C16.4,4.5,16.3,4.8,16.2,5z M16.7,2.2l-3.8-1.2l-0.3,0.9
	c-0.1,0.3-0.2,0.6-0.4,0.9h-1.4V0.6H5.3v2.2H2.6v4.4h-1v5.2h1.7c-0.5,0.3-1,0.6-1.6,0.8l-1.4,0.6l1.1,1c0.6,0.5,1.6,1.7,2.1,2.4
	c-0.4,0-0.8,0-1.2,0.1l-1.1,0.1L2,22.8l1.6-0.1L4,23.5c0.4,0.8,0.8,2,0.9,2.9l0.1,0.9H6c1.6,0,3.1,0,4.4-0.6
	c0.7-0.3,1.2-0.9,1.5-1.6c0.3-0.6,0.3-1.3,0.3-2.1l0.6,0.7c0.3,0.3,0.7,0.9,1.1,1.6c0.4,0.6,0.7,1.2,0.9,1.6l0.4,1l1-0.5
	c1.8-0.9,3.4-2,4.7-3.3c1,1.2,2.2,2.3,3.7,3.1l0.9,0.5l0.5-0.9c0.5-0.9,1.6-2.4,2.4-3l1.1-1l-0.2-0.1h5.2l0.5,0.9
	c0.4,0.8,0.9,2,1.1,2.9l0.2,0.8H37c1.9,0,3.5,0,4.9-0.5l0,0l0,0c0.8-0.3,1.4-0.8,1.8-1.5c0.3-0.7,0.4-1.5,0.4-2.3v-0.2h9.7v-5h-6.4
	c0.2-0.1,0.3-0.2,0.5-0.3v0.2h5.7V10h-1.8c0.2-2.3,0.4-5.1,0.5-7.6l0-1h-8.1l-2.8-0.8l-0.4,0.5c-0.1,0.1-0.1,0.2-0.2,0.3
	c-0.3-0.1-0.5-0.3-0.8-0.4l-0.6-0.3l-1.7,1.4l-1.1-1.6L36,0.8c-1.4,0.5-3.7,1.2-5.2,1.5l-0.9,0.2l0.4,7.6h-1.8v7.7h4.8v0.1h-5.2v4.3
	c-1.5-0.8-2.6-1.8-3.6-3.1c1.1-2.4,1.8-5.1,2.3-8.2h1.6V5.3H22c0.2-1,0.4-2,0.6-3l0.2-1L17,0.5l-0.1,1C16.8,1.7,16.7,2,16.7,2.2z
	 M39.4,18.3v0.5H29.1v3h10.4v1.1c0,0.3-0.1,0.4-0.5,0.4c-0.3,0-1.1,0-1.9,0c-0.4,0-0.8,0-1.1,0c0.2,0.3,0.3,0.7,0.5,1
	c0.3,0.7,0.6,1.5,0.7,2.2c1.9,0,3.4,0,4.6-0.5c1.2-0.5,1.6-1.3,1.6-2.9v-1.2h9.7v-3h-9c0.6-0.3,1.1-0.7,1.7-1c0.5-0.3,1.1-0.7,1.6-1
	c0.2-0.2,0.5-0.3,0.7-0.5c0,0,0.1-0.1,0.1-0.1l-2.1-1.9l-0.8,0.2H34.3V17h7.4c-0.5,0.4-1.1,0.7-1.7,1C39.8,18.1,39.6,18.2,39.4,18.3
	z M48.9,13.7v3h3.7V11h-1.9c0-0.3,0.1-0.7,0.1-1c0.2-2,0.3-4.4,0.4-6.6c0-0.3,0-0.7,0-1h-6.8v2.3h3.1l0,0.6h-2.9v2.3h2.8l0,0.6h-2.9
	v2.3h2.7L47.1,11h-4.6l1.8-1.6C44.2,9.3,44,9.1,43.7,9c-0.1-0.1-0.1-0.1-0.2-0.2c0,0,0,0,0,0c-0.2-0.1-0.4-0.3-0.6-0.4
	c0.2-0.2,0.4-0.4,0.6-0.6c0,0,0,0,0.1-0.1c0,0,0,0,0.1-0.1c0,0,0,0,0,0c0,0,0,0,0-0.1c0.1-0.1,0.2-0.3,0.3-0.4
	c0.1-0.1,0.1-0.2,0.2-0.3l-2.4-0.7c-0.1,0.2-0.3,0.4-0.5,0.6c-0.1,0.1-0.3,0.3-0.4,0.4c-0.1-0.1-0.2-0.1-0.4-0.2
	c-0.4-0.2-0.7-0.4-1-0.6l-1.7,1.4c0.1,0,0.2,0.1,0.2,0.1c0.2,0.1,0.3,0.2,0.5,0.3c0,0,0,0,0.1,0c0,0,0,0,0,0c0,0,0.1,0,0.1,0.1
	c0.1,0.1,0.2,0.1,0.3,0.2c-0.1,0.1-0.3,0.2-0.4,0.2c-0.2,0.1-0.3,0.2-0.5,0.2c0,0-0.1,0-0.1,0.1c-0.1,0.1-0.3,0.1-0.4,0.2v-1h-2.9
	l-0.1-0.6h3V5.3h-3.1l0-0.5c0,0,0,0,0,0c0.3-0.1,0.5-0.1,0.8-0.2c0.4-0.1,0.7-0.2,1.1-0.3c0.1,0,0.3-0.1,0.4-0.1
	c0.1,0,0.2-0.1,0.3-0.1c0.1,0,0.1,0,0.2-0.1c0.1,0,0.2-0.1,0.3-0.1c0.1,0,0.1,0,0.2-0.1l-1.5-2.1c-1.5,0.5-3.8,1.2-5.4,1.5l0.4,7.8
	h-1.9v5.7H33v-3H48.9z M38.9,3.8c0,0,0.1,0,0.1,0.1c0.1,0,0.1,0.1,0.2,0.1c0,0,0,0-0.1,0c-0.2,0.1-0.4,0.2-0.6,0.3c0,0,0,0-0.1,0
	c-0.1,0-0.2,0.1-0.3,0.1c0,0-0.1,0-0.1,0c-0.2,0.1-0.3,0.1-0.5,0.2c-0.1,0-0.1,0.1-0.2,0.1c0.1,0,0.1,0.1,0.2,0.1c0,0,0,0,0,0
	c0.1,0.1,0.3,0.2,0.4,0.3c0.1,0.1,0.2,0.1,0.2,0.2c0.1,0.1,0.2,0.2,0.3,0.3c0,0,0,0,0,0c0.3,0.2,0.5,0.5,0.7,0.7
	c0.1,0,0.1-0.1,0.2-0.1c0,0,0,0,0,0c0.3-0.2,0.7-0.4,1-0.6c0.2-0.1,0.5-0.3,0.7-0.5c0,0,0,0,0,0c0,0,0.1,0.1,0.1,0.1
	c0.2,0.2,0.4,0.3,0.6,0.5c0.2,0.1,0.3,0.3,0.4,0.4l1.8-1.5c-0.1-0.1-0.2-0.2-0.3-0.3c-0.1,0-0.1-0.1-0.2-0.1c-0.1,0-0.1-0.1-0.2-0.1
	c0,0-0.1-0.1-0.1-0.1C43.2,4,43.1,3.9,43,3.8c0.2-0.2,0.3-0.3,0.5-0.5c0,0,0,0,0.1-0.1c0.1-0.1,0.1-0.1,0.2-0.2
	c0.2-0.2,0.4-0.4,0.5-0.6l-2.4-0.7C41.6,2,41.3,2.3,41,2.6c-0.5-0.3-0.9-0.5-1.4-0.7L38,3.3c0.1,0,0.1,0.1,0.2,0.1
	c0.1,0,0.1,0.1,0.2,0.1c0.1,0.1,0.2,0.1,0.4,0.2C38.8,3.7,38.9,3.7,38.9,3.8z M42.5,11c-0.3-0.3-0.7-0.6-1.2-1
	c-0.1,0-0.1-0.1-0.2-0.1C41.1,9.9,41,10,41,10c-0.4,0.3-0.7,0.5-1.1,0.7c-0.2,0.1-0.3,0.2-0.5,0.3H42.5z M37.8,10
	c-0.1-0.1-0.1-0.1-0.2-0.2v0.6h-2.8l0.1,0.6h4c-0.1-0.1-0.1-0.1-0.2-0.2c-0.1-0.1-0.2-0.2-0.3-0.4c0,0,0,0-0.1-0.1
	c-0.1-0.1-0.2-0.2-0.3-0.3C37.9,10.1,37.9,10.1,37.8,10z M47.9,14.7L47.9,14.7L47.9,14.7L47.9,14.7z M38.4,22.8
	C38.4,22.8,38.4,22.8,38.4,22.8z M12.2,22.5l1-0.4c0.1-0.1,0.2-0.1,0.4-0.2c0,0-0.1,0-0.1,0l0,0C13,22,12.6,22,12.2,22V22.5z
	 M16.5,20.1c0.5-0.4,0.9-0.8,1.3-1.3c-0.3-0.6-0.5-1.3-0.7-1.9l-0.5,0.6l-0.1-0.1V20.1z M15.8,16.6c-0.2-0.3-0.6-0.7-1.1-1.1
	c-0.4,0.4-0.8,0.8-1.2,1.2c0.6,0,1.3-0.1,1.9-0.1L15.8,16.6z M6.5,17.2c0.1,0,0.1,0,0.2,0v-0.1C6.6,17.1,6.6,17.1,6.5,17.2z
	 M9.8,8.2H10c0.1-0.1,0.2-0.2,0.2-0.3c0.2-0.2,0.4-0.5,0.6-0.7c0.1-0.1,0.1-0.1,0.2-0.2c0,0,0,0,0-0.1H9.8V8.2z M22,9.8h-2.1
	c0.1,0.3,0.1,0.7,0.2,1c0.1,0.6,0.3,1.2,0.4,1.8c0.2,0.6,0.3,1.3,0.6,1.9c0.2-0.6,0.3-1.2,0.5-1.9c0.1-0.6,0.2-1.2,0.3-1.8
	C21.9,10.5,22,10.2,22,9.8z M76.1,1.6v11.7h3.3v13.9h-5.8v-1.1h-1.2v1.2h-5.6v-0.1h-5.6v-1.1h-1v1.2h-5.6v-14h3.5V1.6H76.1z
	 M55.6,26.3v-12H66v11.9h-3.8v-1.1h-3v1.2H55.6z M67.8,26.3v-12h10.6v11.9h-3.8v-1.1h-3.2v1.2H67.8z M63.7,7.9h6.4V7.2h-6.4V7.9z
	 M59.1,2.6h16v9.9h-16V2.6z M61.2,20.5V19h-1v1.5H61.2z M72.4,19v1.5h1.2V19H72.4z M101.6,11.2v10.8H99c0.9,0.3,1.8,0.6,2.6,0.8
	c0.1,0.1,0.3,0.1,0.4,0.2c0.6,0.2,1.2,0.4,1.7,0.6c0.3,0.1,0.7,0.3,1,0.4l-1.7,2.6c-1.7-0.8-4.3-1.8-6.9-2.7c-0.3-0.1-0.7-0.2-1-0.3
	l1-1.6h-6.4l1.7,1c-0.3,0.2-0.7,0.4-1,0.6c-2.3,1.1-5.2,2.3-7.5,3c-0.2-0.5-0.7-1.4-1.2-2.2c-0.2-0.4-0.4-0.7-0.6-0.9
	c0.3-0.1,0.7-0.1,1.1-0.2c0.4-0.1,0.8-0.2,1.2-0.3c0.3-0.1,0.7-0.2,1-0.2c0.9-0.2,1.8-0.5,2.6-0.7h-2.6V11.2H94
	c-0.1-0.1-0.2-0.2-0.4-0.3c-0.3-0.2-0.7-0.5-1-0.7c0,0,0,0-0.1,0c-0.3-0.2-0.6-0.4-0.9-0.5c0.1-0.1,0.3-0.3,0.4-0.4
	c0.1-0.1,0.2-0.3,0.3-0.4c0.2-0.2,0.3-0.4,0.4-0.6c0,0,0,0,0,0h-2.2v2.4h-3.3V8.3h-1.8c-0.2,0.6-0.5,1.3-1,1.9
	c0,0.1-0.1,0.1-0.1,0.2c-0.2,0.3-0.4,0.5-0.7,0.8c0,0,0,0,0,0c-0.1,0.1-0.2,0.2-0.3,0.3c-0.1,0.1-0.3,0.2-0.4,0.3l0,0
	c-0.1-0.1-0.2-0.2-0.2-0.3c-0.4-0.4-0.9-1-1.4-1.4c-0.3-0.3-0.6-0.5-0.8-0.6c0.3-0.2,0.6-0.4,0.8-0.7c1.4-1.4,1.6-3,1.6-4.3V2.9
	c2.8-0.1,5.9-0.5,7.7-1.2l2,2.1c-0.3,0.1-0.7,0.2-1.1,0.3c-0.5,0.2-1.1,0.3-1.7,0.4c-1.2,0.2-2.5,0.4-3.8,0.5c0,0.1,0,0.2,0,0.2
	c0,0.1,0,0.2,0,0.2h6.9v2.5c0.1-0.3,0.3-0.5,0.3-0.8c0.2-0.6,0.3-1.2,0.3-1.7c0-0.3,0-0.6,0-0.9V2.8c2.9-0.1,6.2-0.5,8-1.2l2.3,2
	c-0.3,0.1-0.7,0.2-1.1,0.4c-0.8,0.2-1.7,0.4-2.6,0.6c-1.1,0.2-2.3,0.3-3.5,0.4c0,0.2,0,0.4,0,0.6h8v2.7h-3.5v2.5h-3.4V8.3h-1.6
	c-0.2,0.6-0.4,1.3-0.8,1.9c-0.1,0.2-0.3,0.4-0.4,0.6c-0.1,0.1-0.2,0.3-0.4,0.4H101.6z M96.9,10.2V9.6c-0.1,0.2-0.2,0.4-0.3,0.6H96.9
	z M102.3,9.3v0.9h0.4v11.9c0.9,0.3,1.8,0.6,2.5,0.9l1.1,0.5l-2.8,4.4l-0.8-0.4c-1.8-0.8-4.9-2-7.8-2.9l-1.2-0.4l0.7-1.2h-1l0.1,0
	L92,23.8c-2.4,1.3-6,2.8-8.8,3.6l-0.8,0.3L82,26.9c-0.3-0.7-1.2-2.3-1.6-3l-1-1.3l1.6-0.3c0.8-0.1,1.6-0.3,2.4-0.5v-9.2l-0.6,0.5
	l-0.6-0.8c-0.2-0.3-0.6-0.7-1-1.1c-0.5-0.5-0.9-0.8-1.1-1l-1.2-0.8L80,8.6c1.7-1.3,1.9-2.8,1.9-4.2V1.9l1,0c2.8-0.1,5.7-0.5,7.4-1.1
	l0.6-0.2l1.8,1.9V1.9l1,0c2.9-0.1,6.1-0.5,7.7-1.1l0.6-0.2l4,3.5l-1.5,0.6h1.4v4.7H102.3z M85.7,10.2h0.6V9.3h-0.1
	C86,9.6,85.9,9.9,85.7,10.2z M88,14.1h9.8v-0.8H88V14.1z M97.8,19H88v0.8h9.8V19z M97.8,16.1H88v0.8h9.8V16.1z M111.7,0.4l4,1.3H131
	v11.2h1.2v5.4h-2.4c1.1,1.5,2.1,3.1,2.7,4.4l0.2,0.4v-7.3h0.1v-6h-1.1V4.9h3.3c-0.3-0.5-0.6-1.1-0.8-1.5l-0.5-0.8l4.2-2.5l0.5,0.8
	c0.8,1.1,1.6,2.6,2.1,3.6l0.2,0.5h1.1V1.4h4.9l0.7-0.1l0.8,0.2l0-0.1l5-0.9l0.1,0.5l0.5-0.5l3.7,3.6l-0.9,0.7c0,0,0,0-0.1,0.1
	l2.6,2.6l-1,0.7c-0.4,0.2-0.8,0.5-1.2,0.8c0.5,0.5,1,0.9,1.5,1.2l1.2,0.8l-1.1,0.9c-0.7,0.6-1.8,1.7-2.2,2.5l-0.3,0.4v4.3l0.5,0.1
	l-0.5,1v0.3h-0.2c-0.1,0.1-0.1,0.3-0.2,0.4c-0.2,0.4-0.4,0.8-0.6,1.2h3.1v5h-16.9V26h-3.6v1h-4.8v-3.3l-4.6,2.8l-0.4-1.1
	c-0.4-0.9-1.1-2.2-1.9-3.5v5.5h-5.8v-5.5c-0.8,1.5-1.8,3-2.6,4l-0.6,0.8l-0.8-0.7c-0.4-0.3-1-0.8-1.6-1.2v2.4h-5.6V16.2l-0.7,0.8
	l-0.5-1.6c-0.3-0.8-1.3-2.8-1.8-3.7l-0.5-0.7l0.6-0.6c2.2-2.1,4.4-5.6,5.6-9.1L111.7,0.4z M109.1,14.2c0.2-0.2,0.4-0.4,0.6-0.7v12.7
	h3.6V8.2c0.7-1.2,1.3-2.5,1.8-3.7c0.1-0.2,0.2-0.5,0.3-0.7c0.1-0.3,0.3-0.6,0.4-0.9l-3.5-1.1c-1.3,3.6-3.6,7.2-5.9,9.4
	c0.4,0.7,1.1,1.9,1.5,2.9c0.2,0.4,0.3,0.8,0.4,1c0.1-0.1,0.2-0.2,0.3-0.3C108.8,14.6,109,14.4,109.1,14.2z M115.1,6.8
	c-0.3,0.5-0.5,1.1-0.8,1.6v4.5h0.8V6.8z M114.3,20.7v-2.3h1.3C115.2,19.1,114.8,19.9,114.3,20.7z M114.3,22.4
	c0.9-1.2,1.8-2.7,2.4-4.1c0.1-0.2,0.1-0.3,0.2-0.5l3.4,1c-0.1,0.2-0.2,0.5-0.3,0.7c0,0.1-0.1,0.1-0.1,0.2c-0.8,1.6-1.8,3.3-2.7,4.6
	c-0.2,0.3-0.4,0.6-0.6,0.8c-0.1-0.1-0.3-0.2-0.5-0.4c-0.5-0.4-1-0.8-1.6-1.1c-0.1,0-0.1-0.1-0.2-0.1c-0.2-0.2-0.5-0.3-0.7-0.4
	C113.8,23,114.1,22.7,114.3,22.4C114.3,22.4,114.3,22.4,114.3,22.4z M120.9,26.3h3.8v-9h6.4v-3.4h-6.4v-1.8h5.3V2.7h-13.9v9.4h4.8
	v1.8h-6.4v3.4h6.4V26.3z M125.3,19.4c0.1,0.2,0.3,0.4,0.5,0.6c0,0.1,0.1,0.1,0.1,0.2c0.8,1.2,1.7,2.7,2.3,3.8
	c0.2,0.3,0.3,0.6,0.4,0.9l3-1.8c-0.6-1.3-1.8-3.2-3.1-4.8c-0.1-0.2-0.3-0.3-0.4-0.5L125.3,19.4z M141.2,25v-8.1h-7.6V26h2.8v-1
	H141.2z M142.1,15.9h0.1v6h2.1c-0.2-0.5-0.4-1.1-0.7-1.5l0,0H143v-5.3l-0.3-0.4c-0.2-0.2-0.4-0.5-0.6-0.8V15.9z M141.1,13.2h-7.4V16
	h7.4V13.2z M141.1,12.4V9.6h-7.4v2.8H141.1z M141.9,8.8V8.3c0.2,0.1,0.3,0.2,0.5,0.3c0.1,0.1,0.2,0.1,0.3,0.2c0,0,0.1,0.1,0.1,0.1
	c0,0,0.1,0,0.1,0.1c0.2,0.1,0.4,0.3,0.6,0.4c-0.2,0.3-0.4,0.5-0.6,0.8c-0.2,0.3-0.5,0.5-0.8,0.8c0,0,0,0-0.1,0.1
	c-0.2,0.2-0.5,0.4-0.7,0.6c0.2,0.2,0.5,0.4,0.7,0.7c0,0,0,0,0,0c0.4,0.4,0.7,0.8,1,1.2c0,0,0,0.1,0.1,0.1c0.1,0.1,0.1,0.1,0.1,0.2
	c0,0.1,0.1,0.1,0.1,0.2c0,0.1,0.1,0.1,0.1,0.2c0,0,0,0,0,0c0.1-0.1,0.1-0.1,0.2-0.2c0.1-0.1,0.1-0.1,0.2-0.2v5.7h2.7l-2.2,0.6
	c0.1,0.1,0.1,0.3,0.2,0.4c0.1,0.2,0.2,0.3,0.2,0.5c0.2,0.4,0.3,0.7,0.4,1.1c0.1,0.4,0.2,0.7,0.3,1h-3.6v3H157v-3h-3.7
	c0.2-0.3,0.4-0.6,0.5-1c0.2-0.4,0.4-0.8,0.6-1.2c0.1-0.1,0.1-0.2,0.2-0.3c0,0,0,0,0-0.1c0.1-0.2,0.2-0.3,0.3-0.5c0,0,0,0,0-0.1
	l-1.8-0.4h1.8v-6c0,0,0.1,0.1,0.2,0.1c0,0,0,0,0.1,0c0.1,0.1,0.1,0.1,0.2,0.2c0-0.1,0.1-0.1,0.1-0.2c0,0,0.1-0.1,0.1-0.1
	c0.1-0.1,0.2-0.3,0.3-0.4c0,0,0.1-0.1,0.1-0.1c0.3-0.4,0.7-0.9,1.1-1.2c0.3-0.3,0.5-0.5,0.8-0.7c-0.3-0.2-0.6-0.4-0.8-0.6
	c-0.3-0.3-0.7-0.6-1-0.9c-0.2-0.2-0.4-0.5-0.7-0.8c0.3-0.2,0.6-0.3,0.9-0.5c0.1-0.1,0.3-0.2,0.4-0.3c0.3-0.2,0.6-0.4,0.9-0.6
	l-2.1-2.1c0,0,0,0,0,0c-0.2,0.2-0.4,0.3-0.6,0.5c-0.2,0.2-0.5,0.4-0.7,0.6c0,0-0.1,0-0.1,0.1c-0.1-0.2-0.2-0.4-0.3-0.7l0,0
	c0.4-0.3,0.9-0.6,1.3-0.9c0,0,0.1-0.1,0.1-0.1c0.2-0.2,0.4-0.3,0.7-0.5c0,0,0.1-0.1,0.1-0.1l-2.1-2.1c-0.1,0.1-0.1,0.2-0.2,0.2
	c-0.1,0.1-0.3,0.3-0.5,0.5c-0.1,0.1-0.2,0.2-0.4,0.3c-0.1-0.4-0.2-0.7-0.3-1.1c0-0.1,0-0.1-0.1-0.2l-3.1,0.5l0.2,0.8l-2.1-0.7
	l-0.6,0.1h-4v2.9h2.8c0,0.1-0.1,0.2-0.1,0.3c-0.1,0.3-0.2,0.5-0.3,0.7c0,0.1-0.1,0.1-0.1,0.2c-0.1-0.1-0.2-0.1-0.4-0.2
	c-0.2-0.1-0.4-0.2-0.5-0.3c-0.3-0.1-0.5-0.3-0.8-0.4l-1.5,2V5.9H138l1.5-1c-0.4-1-1.3-2.4-2-3.5c0,0,0,0,0,0L135,2.9
	c0.3,0.6,0.7,1.3,1.1,2c0.1,0.3,0.3,0.6,0.4,0.8c0,0.1,0.1,0.1,0.1,0.2h-3.9v2.9H141.9z M150.1,22.5c0.3-0.7,0.5-1.4,0.7-2.2
	c0.1-0.3,0.2-0.7,0.3-1h-3.3c0.2,0.3,0.4,0.7,0.5,1c0.2,0.5,0.5,1.1,0.6,1.6c0,0.2,0.1,0.3,0.1,0.5c0,0,0,0,0,0.1l-1.6,0.4h2.5
	C150,22.7,150.1,22.6,150.1,22.5z M149.6,20.8c0.1-0.2,0.1-0.3,0.2-0.5h-0.4C149.5,20.5,149.6,20.6,149.6,20.8z M153.9,12.4
	C153.9,12.4,153.9,12.4,153.9,12.4c-0.1-0.1-0.2-0.2-0.3-0.3c-0.2-0.2-0.3-0.3-0.4-0.5c0-0.1-0.1-0.1-0.1-0.2
	c-0.1-0.2-0.3-0.4-0.4-0.6v0.7h-6.1v-0.6c-0.1,0.2-0.2,0.3-0.3,0.5c0,0.1-0.1,0.1-0.1,0.2c-0.2,0.2-0.3,0.4-0.5,0.6
	c-0.1,0.1-0.1,0.1-0.2,0.2H153.9z M149.4,3.1C149.4,3.1,149.4,3.1,149.4,3.1C149.4,3.1,149.4,3.1,149.4,3.1c0.1,0.3,0.2,0.6,0.3,0.9
	c0.1,0.4,0.2,0.8,0.3,1.2c0.3,0.8,0.5,1.6,0.8,2.4c0.1,0.3,0.3,0.7,0.4,1h-3.5c0.1-0.3,0.3-0.7,0.4-1c0.3-0.8,0.6-1.6,0.8-2.4
	c0.1-0.4,0.2-0.9,0.3-1.3C149.3,3.7,149.4,3.4,149.4,3.1z M149.5,7c-0.1,0.2-0.2,0.5-0.2,0.7h0.5C149.7,7.4,149.6,7.2,149.5,7z
	 M125.2,7h-4.5v0.8h4.5V7z M71.2,8.9V6.2h-8.4v2.7H71.2z M62.2,18h-3v3.5h3V18z M71.4,21.5h3.2V18h-3.2V21.5z M119.7,6v2.8h6.5V6
	H119.7z M138.3,19.8h-1.9V22h1.9V19.8z M147.2,15.2v1.3h4.4v-1.3H147.2z"/>
</svg>
