<svg width="296" height="296" viewBox="0 0 296 296" fill="none" xmlns="http://www.w3.org/2000/svg">
<path d="M294.974 294.98V1.02631L1.0199 1.02631V294.98H294.974Z" fill="white"/>
<path d="M45.0103 1.02631H1.5235V296H45.0103V1.02631Z" fill="url(#paint0_linear_48_758)"/>
<path d="M294.974 296H1.01992L1.52588e-05 294.974V1.02635L1.01992 6.10352e-05H294.974L296 1.02635V294.974L294.974 296ZM2.04622 293.954H293.935V2.05263H2.04622V293.954Z" fill="#00E0B8"/>
<path d="M294.98 250.811H45.5139V252.864H294.98V250.811Z" fill="#00E0B8"/>
<path d="M46.5403 1.52991H44.4877V295.484H46.5403V1.52991Z" fill="#00E0B8"/>
<path d="M19.8687 22.4946C19.7228 22.4404 19.6144 22.3549 19.5435 22.2382C19.4726 22.1256 19.4372 22.0089 19.4372 21.888V21.419L28.7985 25.1773C28.9319 25.2273 29.0341 25.3023 29.1049 25.4024C29.1758 25.5066 29.2112 25.6254 29.2112 25.7588V26.2341L19.8687 22.4946ZM24.3148 36.8444C24.3148 37.1904 24.3607 37.4948 24.4524 37.7574C24.5441 38.0242 24.6713 38.2473 24.8339 38.4265C25.0006 38.61 25.1986 38.7475 25.4279 38.8393C25.6572 38.931 25.9095 38.9768 26.1846 38.9768C26.7557 38.9768 27.2018 38.7996 27.5228 38.4453C27.8438 38.0951 28.0043 37.5615 28.0043 36.8444V35.4061H24.3148V36.8444ZM28.9611 36.8444C28.9611 37.4114 28.8944 37.9033 28.761 38.3202C28.6318 38.7413 28.4462 39.0894 28.2044 39.3645C27.9626 39.6397 27.6708 39.844 27.329 39.9774C26.9871 40.1149 26.6057 40.1837 26.1846 40.1837C25.7677 40.1837 25.3863 40.1108 25.0402 39.9649C24.6942 39.8189 24.3961 39.6042 24.146 39.3208C23.8959 39.0414 23.6999 38.6933 23.5582 38.2764C23.4206 37.8637 23.3518 37.3864 23.3518 36.8444V35.4061H20V34.1992H28.9611V36.8444ZM24.4774 49.9901C23.8062 49.9901 23.1892 49.8838 22.6264 49.6712C22.0678 49.4586 21.5863 49.1584 21.1819 48.7707C20.7775 48.383 20.4628 47.9161 20.2376 47.3699C20.0167 46.828 19.9062 46.2277 19.9062 45.569C19.9062 44.9103 20.0167 44.31 20.2376 43.768C20.4628 43.226 20.7775 42.7612 21.1819 42.3735C21.5863 41.9858 22.0678 41.6856 22.6264 41.473C23.1892 41.2604 23.8062 41.1541 24.4774 41.1541C25.1486 41.1541 25.7635 41.2604 26.3222 41.473C26.885 41.6856 27.3686 41.9858 27.773 42.3735C28.1815 42.7612 28.4984 43.226 28.7235 43.768C28.9486 44.31 29.0612 44.9103 29.0612 45.569C29.0612 46.2277 28.9486 46.828 28.7235 47.3699C28.4984 47.9161 28.1815 48.383 27.773 48.7707C27.3686 49.1584 26.885 49.4586 26.3222 49.6712C25.7635 49.8838 25.1486 49.9901 24.4774 49.9901ZM24.4774 48.7457C25.0277 48.7457 25.5217 48.6706 25.9595 48.5206C26.3972 48.3705 26.7662 48.1579 27.0663 47.8827C27.3707 47.6076 27.6041 47.2741 27.7667 46.8822C27.9293 46.4903 28.0106 46.0526 28.0106 45.569C28.0106 45.0895 27.9293 44.6539 27.7667 44.262C27.6041 43.8701 27.3707 43.5345 27.0663 43.2552C26.7662 42.9801 26.3972 42.7675 25.9595 42.6174C25.5217 42.4673 25.0277 42.3922 24.4774 42.3922C23.9271 42.3922 23.4331 42.4673 22.9954 42.6174C22.5618 42.7675 22.1929 42.9801 21.8885 43.2552C21.5884 43.5345 21.357 43.8701 21.1944 44.262C21.036 44.6539 20.9568 45.0895 20.9568 45.569C20.9568 46.0526 21.036 46.4903 21.1944 46.8822C21.357 47.2741 21.5884 47.6076 21.8885 47.8827C22.1929 48.1579 22.5618 48.3705 22.9954 48.5206C23.4331 48.6706 23.9271 48.7457 24.4774 48.7457ZM20 52.939V51.7258H28.9611V52.939H20ZM28.9611 62.4913H20V61.8847C20 61.7889 20.0167 61.7076 20.05 61.6409C20.0834 61.5783 20.1397 61.5158 20.2189 61.4533L26.9725 56.2692C26.8683 56.2775 26.7662 56.2838 26.6661 56.288C26.5661 56.2921 26.4723 56.2942 26.3847 56.2942H20V55.2311H28.9611V55.8565C28.9611 55.9107 28.9569 55.9565 28.9486 55.994C28.9444 56.0316 28.934 56.0649 28.9173 56.0941C28.9048 56.1233 28.884 56.1525 28.8548 56.1816C28.8298 56.2108 28.7964 56.2421 28.7547 56.2755L22.0073 61.4595C22.1157 61.4512 22.22 61.4428 22.32 61.4345C22.4242 61.4303 22.5222 61.4282 22.6139 61.4282H28.9611V62.4913ZM27.9418 70.8417V67.9402H20V66.7333H27.9418V63.8254H28.9611V70.8417H27.9418ZM24.4774 80.7272C23.6937 80.7272 23.0141 80.6417 22.4388 80.4708C21.8677 80.304 21.3945 80.0747 21.0193 79.7829C20.6441 79.4911 20.3648 79.1451 20.1813 78.7448C19.9979 78.3488 19.9062 77.9236 19.9062 77.4692C19.9062 77.0106 19.9979 76.5833 20.1813 76.1872C20.3648 75.7953 20.6441 75.4535 21.0193 75.1617C21.3945 74.8698 21.8677 74.6405 22.4388 74.4738C23.0141 74.307 23.6937 74.2236 24.4774 74.2236C25.2612 74.2236 25.9407 74.307 26.516 74.4738C27.0913 74.6405 27.5666 74.8698 27.9418 75.1617C28.3212 75.4535 28.6026 75.7953 28.786 76.1872C28.9694 76.5833 29.0612 77.0106 29.0612 77.4692C29.0612 77.9236 28.9694 78.3488 28.786 78.7448C28.6026 79.1451 28.3212 79.4911 27.9418 79.7829C27.5666 80.0747 27.0913 80.304 26.516 80.4708C25.9407 80.6417 25.2612 80.7272 24.4774 80.7272ZM24.4774 79.5703C25.1611 79.5703 25.7344 79.5119 26.1971 79.3952C26.664 79.2826 27.0392 79.1284 27.3227 78.9324C27.6062 78.7407 27.8084 78.5176 27.9293 78.2633C28.0544 78.009 28.1169 77.7443 28.1169 77.4692C28.1169 77.194 28.0544 76.9293 27.9293 76.675C27.8084 76.4207 27.6062 76.1976 27.3227 76.0059C27.0392 75.8141 26.664 75.6598 26.1971 75.5431C25.7344 75.4305 25.1611 75.3743 24.4774 75.3743C23.7937 75.3743 23.2205 75.4305 22.7577 75.5431C22.295 75.6598 21.9219 75.8141 21.6384 76.0059C21.3549 76.1976 21.1506 76.4207 21.0256 76.675C20.9047 76.9293 20.8442 77.194 20.8442 77.4692C20.8442 77.7443 20.9047 78.009 21.0256 78.2633C21.1506 78.5176 21.3549 78.7407 21.6384 78.9324C21.9219 79.1284 22.295 79.2826 22.7577 79.3952C23.2205 79.5119 23.7937 79.5703 24.4774 79.5703ZM21.0568 87.2754C21.0568 87.3963 21.0214 87.4922 20.9505 87.5631C20.8796 87.634 20.7879 87.6694 20.6754 87.6694H20V81.6912H20.3815C20.4607 81.6912 20.542 81.7078 20.6253 81.7412C20.7087 81.7745 20.7858 81.8267 20.8567 81.8975L23.7395 84.7678C23.9813 85.0055 24.2127 85.2222 24.4337 85.4182C24.6588 85.6141 24.8839 85.7809 25.109 85.9185C25.3341 86.056 25.5613 86.1623 25.7906 86.2374C26.0241 86.3124 26.2721 86.3499 26.5348 86.3499C26.7974 86.3499 27.0267 86.3083 27.2227 86.2249C27.4228 86.1415 27.5874 86.0268 27.7167 85.8809C27.8459 85.7392 27.9418 85.5704 28.0043 85.3744C28.071 85.1785 28.1044 84.9679 28.1044 84.7428C28.1044 84.5135 28.071 84.303 28.0043 84.1112C27.9376 83.9195 27.8438 83.7485 27.7229 83.5984C27.6062 83.4525 27.4665 83.3296 27.304 83.2295C27.1414 83.1294 26.9621 83.0586 26.7662 83.0169C26.6203 82.9669 26.5223 82.8981 26.4723 82.8105C26.4264 82.7271 26.4139 82.6083 26.4347 82.4541L26.5348 81.8725C26.9433 81.9309 27.304 82.0434 27.6166 82.2102C27.9335 82.3811 28.1982 82.5937 28.4108 82.848C28.6234 83.1065 28.7839 83.4004 28.8923 83.7298C29.0049 84.0591 29.0612 84.4156 29.0612 84.7991C29.0612 85.1785 29.0049 85.5328 28.8923 85.8622C28.7798 86.1915 28.6151 86.4771 28.3983 86.7189C28.1857 86.9607 27.9251 87.1504 27.6166 87.2879C27.3081 87.4255 26.9579 87.4943 26.5661 87.4943C26.2325 87.4943 25.922 87.4443 25.6343 87.3442C25.3508 87.2442 25.0798 87.1087 24.8214 86.9378C24.5629 86.7668 24.3107 86.5688 24.0647 86.3437C23.8187 86.1227 23.5707 85.8872 23.3205 85.6371L20.9067 83.2733C20.9526 83.44 20.988 83.6089 21.013 83.7798C21.0422 83.9507 21.0568 84.1154 21.0568 84.2738V87.2754Z" fill="white"/>
<path d="M118.644 267.889V277H116.78V271.76C116.78 271.639 116.782 271.507 116.786 271.366C116.795 271.224 116.807 271.08 116.824 270.934L114.404 275.618C114.329 275.764 114.227 275.874 114.097 275.949C113.972 276.024 113.828 276.062 113.666 276.062H113.378C113.216 276.062 113.07 276.024 112.941 275.949C112.815 275.874 112.715 275.764 112.64 275.618L110.22 270.922C110.233 271.072 110.243 271.22 110.252 271.366C110.26 271.507 110.264 271.639 110.264 271.76V277H108.401V267.889H110.014C110.106 267.889 110.185 267.891 110.252 267.895C110.322 267.899 110.385 267.912 110.439 267.933C110.493 267.953 110.541 267.987 110.583 268.033C110.629 268.074 110.673 268.135 110.714 268.214L113.059 272.835C113.143 272.994 113.222 273.158 113.297 273.329C113.376 273.5 113.451 273.675 113.522 273.855C113.593 273.671 113.666 273.492 113.741 273.317C113.82 273.142 113.904 272.975 113.991 272.816L116.33 268.214C116.372 268.135 116.413 268.074 116.455 268.033C116.501 267.987 116.551 267.953 116.605 267.933C116.659 267.912 116.72 267.899 116.786 267.895C116.857 267.891 116.939 267.889 117.03 267.889H118.644ZM124.209 275.33C124.492 275.33 124.744 275.284 124.965 275.193C125.19 275.097 125.38 274.961 125.534 274.786C125.689 274.611 125.805 274.399 125.885 274.148C125.968 273.894 126.01 273.606 126.01 273.285V267.889H128.123V273.285C128.123 273.844 128.032 274.357 127.848 274.824C127.669 275.291 127.41 275.693 127.073 276.031C126.735 276.368 126.324 276.631 125.841 276.819C125.357 277.006 124.813 277.1 124.209 277.1C123.6 277.1 123.054 277.006 122.57 276.819C122.087 276.631 121.676 276.368 121.338 276.031C121.001 275.693 120.742 275.291 120.563 274.824C120.384 274.357 120.294 273.844 120.294 273.285V267.889H122.408V273.279C122.408 273.6 122.447 273.888 122.526 274.142C122.61 274.392 122.729 274.607 122.883 274.786C123.037 274.961 123.225 275.097 123.446 275.193C123.671 275.284 123.925 275.33 124.209 275.33ZM134.808 269.74C134.746 269.84 134.679 269.915 134.608 269.965C134.542 270.015 134.454 270.04 134.346 270.04C134.25 270.04 134.146 270.011 134.033 269.952C133.925 269.89 133.8 269.821 133.658 269.746C133.52 269.671 133.362 269.604 133.183 269.546C133.003 269.483 132.799 269.452 132.57 269.452C132.174 269.452 131.878 269.538 131.682 269.709C131.49 269.875 131.394 270.103 131.394 270.39C131.394 270.574 131.452 270.726 131.569 270.847C131.686 270.968 131.838 271.072 132.026 271.159C132.217 271.247 132.434 271.328 132.676 271.403C132.922 271.474 133.172 271.555 133.426 271.647C133.681 271.735 133.929 271.839 134.171 271.96C134.417 272.081 134.633 272.235 134.821 272.423C135.013 272.61 135.167 272.839 135.284 273.11C135.4 273.377 135.459 273.7 135.459 274.08C135.459 274.501 135.386 274.895 135.24 275.262C135.094 275.628 134.881 275.949 134.602 276.225C134.327 276.496 133.985 276.71 133.576 276.869C133.172 277.023 132.711 277.1 132.194 277.1C131.911 277.1 131.621 277.071 131.325 277.013C131.033 276.954 130.75 276.873 130.475 276.769C130.2 276.66 129.941 276.533 129.699 276.387C129.458 276.241 129.247 276.079 129.068 275.899L129.693 274.911C129.743 274.84 129.808 274.782 129.887 274.736C129.97 274.686 130.06 274.661 130.156 274.661C130.281 274.661 130.406 274.701 130.531 274.78C130.66 274.859 130.804 274.947 130.963 275.043C131.125 275.139 131.311 275.226 131.519 275.305C131.728 275.385 131.974 275.424 132.257 275.424C132.641 275.424 132.939 275.341 133.151 275.174C133.364 275.003 133.47 274.734 133.47 274.367C133.47 274.155 133.412 273.982 133.295 273.848C133.178 273.715 133.024 273.604 132.832 273.517C132.645 273.429 132.43 273.352 132.188 273.285C131.946 273.219 131.698 273.146 131.444 273.067C131.19 272.983 130.942 272.883 130.7 272.766C130.458 272.646 130.241 272.489 130.05 272.297C129.862 272.102 129.71 271.86 129.593 271.572C129.476 271.28 129.418 270.922 129.418 270.496C129.418 270.155 129.487 269.821 129.624 269.496C129.762 269.171 129.964 268.881 130.231 268.627C130.498 268.372 130.825 268.17 131.213 268.02C131.6 267.866 132.044 267.789 132.545 267.789C132.824 267.789 133.095 267.812 133.358 267.858C133.624 267.899 133.877 267.964 134.114 268.051C134.352 268.135 134.573 268.237 134.777 268.358C134.986 268.475 135.171 268.608 135.334 268.758L134.808 269.74ZM138.826 277H136.7V267.889H138.826V277ZM146.724 274.642C146.774 274.642 146.824 274.653 146.874 274.674C146.924 274.69 146.972 274.722 147.018 274.768L147.856 275.649C147.489 276.129 147.029 276.491 146.474 276.737C145.924 276.979 145.271 277.1 144.517 277.1C143.825 277.1 143.204 276.983 142.653 276.75C142.107 276.512 141.642 276.187 141.259 275.774C140.879 275.357 140.588 274.866 140.383 274.299C140.179 273.727 140.077 273.108 140.077 272.441C140.077 271.762 140.187 271.138 140.408 270.572C140.629 270 140.94 269.508 141.34 269.096C141.74 268.683 142.22 268.362 142.778 268.133C143.337 267.903 143.952 267.789 144.623 267.789C144.965 267.789 145.286 267.82 145.586 267.883C145.891 267.941 146.174 268.024 146.437 268.133C146.699 268.237 146.941 268.364 147.162 268.514C147.383 268.664 147.579 268.827 147.75 269.002L147.037 269.959C146.991 270.017 146.937 270.071 146.874 270.121C146.812 270.167 146.724 270.19 146.612 270.19C146.537 270.19 146.466 270.173 146.399 270.14C146.332 270.107 146.262 270.067 146.187 270.021C146.111 269.971 146.028 269.919 145.936 269.865C145.849 269.807 145.743 269.754 145.617 269.709C145.497 269.659 145.353 269.617 145.186 269.583C145.023 269.55 144.832 269.533 144.611 269.533C144.26 269.533 143.939 269.598 143.648 269.727C143.36 269.857 143.11 270.046 142.897 270.296C142.689 270.542 142.526 270.847 142.409 271.209C142.297 271.568 142.241 271.979 142.241 272.441C142.241 272.908 142.303 273.323 142.428 273.686C142.557 274.048 142.73 274.355 142.947 274.605C143.168 274.851 143.425 275.039 143.716 275.168C144.008 275.297 144.321 275.362 144.654 275.362C144.846 275.362 145.021 275.353 145.18 275.337C145.338 275.316 145.486 275.284 145.624 275.243C145.761 275.197 145.891 275.139 146.011 275.068C146.132 274.993 146.255 274.899 146.38 274.786C146.43 274.745 146.485 274.711 146.543 274.686C146.601 274.657 146.662 274.642 146.724 274.642ZM154.888 272.36C155.438 272.36 155.834 272.229 156.076 271.966C156.318 271.703 156.439 271.337 156.439 270.865C156.439 270.657 156.407 270.467 156.345 270.296C156.282 270.125 156.186 269.98 156.057 269.859C155.932 269.734 155.772 269.638 155.576 269.571C155.384 269.504 155.155 269.471 154.888 269.471H153.787V272.36H154.888ZM154.888 267.889C155.53 267.889 156.08 267.966 156.539 268.12C157.001 268.27 157.381 268.479 157.677 268.746C157.977 269.012 158.198 269.327 158.34 269.69C158.481 270.052 158.552 270.444 158.552 270.865C158.552 271.32 158.479 271.737 158.333 272.116C158.187 272.495 157.964 272.821 157.664 273.092C157.364 273.363 156.983 273.575 156.52 273.729C156.061 273.88 155.517 273.955 154.888 273.955H153.787V277H151.673V267.889H154.888ZM162.589 272.172C162.876 272.172 163.12 272.137 163.32 272.066C163.525 271.991 163.691 271.889 163.821 271.76C163.95 271.63 164.044 271.48 164.102 271.309C164.16 271.134 164.19 270.947 164.19 270.747C164.19 270.346 164.058 270.034 163.796 269.809C163.537 269.583 163.135 269.471 162.589 269.471H161.738V272.172H162.589ZM167.079 277H165.165C164.811 277 164.556 276.867 164.402 276.6L162.889 273.955C162.818 273.842 162.739 273.761 162.651 273.711C162.564 273.657 162.439 273.629 162.276 273.629H161.738V277H159.625V267.889H162.589C163.247 267.889 163.808 267.958 164.271 268.095C164.738 268.229 165.117 268.416 165.409 268.658C165.705 268.9 165.92 269.185 166.053 269.515C166.186 269.844 166.253 270.203 166.253 270.59C166.253 270.886 166.214 271.166 166.134 271.428C166.055 271.691 165.938 271.935 165.784 272.16C165.63 272.381 165.438 272.579 165.209 272.754C164.984 272.929 164.723 273.073 164.427 273.185C164.565 273.256 164.694 273.346 164.815 273.454C164.936 273.559 165.044 273.684 165.14 273.83L167.079 277ZM176.628 272.441C176.628 273.1 176.513 273.713 176.284 274.28C176.059 274.847 175.74 275.341 175.327 275.762C174.914 276.179 174.416 276.506 173.833 276.744C173.253 276.981 172.609 277.1 171.9 277.1C171.192 277.1 170.545 276.981 169.962 276.744C169.378 276.506 168.878 276.179 168.461 275.762C168.048 275.341 167.727 274.847 167.498 274.28C167.273 273.713 167.16 273.1 167.16 272.441C167.16 271.783 167.273 271.17 167.498 270.603C167.727 270.036 168.048 269.544 168.461 269.127C168.878 268.71 169.378 268.383 169.962 268.145C170.545 267.908 171.192 267.789 171.9 267.789C172.609 267.789 173.253 267.91 173.833 268.151C174.416 268.389 174.914 268.716 175.327 269.133C175.74 269.55 176.059 270.042 176.284 270.609C176.513 271.176 176.628 271.787 176.628 272.441ZM174.464 272.441C174.464 271.991 174.406 271.587 174.289 271.228C174.172 270.865 174.004 270.559 173.783 270.309C173.566 270.059 173.299 269.867 172.982 269.734C172.665 269.6 172.305 269.533 171.9 269.533C171.492 269.533 171.127 269.6 170.806 269.734C170.489 269.867 170.22 270.059 169.999 270.309C169.783 270.559 169.616 270.865 169.499 271.228C169.382 271.587 169.324 271.991 169.324 272.441C169.324 272.896 169.382 273.304 169.499 273.667C169.616 274.025 169.783 274.33 169.999 274.58C170.22 274.83 170.489 275.022 170.806 275.155C171.127 275.284 171.492 275.349 171.9 275.349C172.305 275.349 172.665 275.284 172.982 275.155C173.299 275.022 173.566 274.83 173.783 274.58C174.004 274.33 174.172 274.025 174.289 273.667C174.406 273.304 174.464 272.896 174.464 272.441ZM186.139 272.441C186.139 273.1 186.024 273.709 185.795 274.267C185.57 274.822 185.251 275.303 184.838 275.712C184.425 276.116 183.927 276.433 183.343 276.662C182.764 276.887 182.12 277 181.411 277H177.872V267.889H181.411C182.12 267.889 182.764 268.003 183.343 268.233C183.927 268.462 184.425 268.779 184.838 269.183C185.251 269.588 185.57 270.069 185.795 270.628C186.024 271.182 186.139 271.787 186.139 272.441ZM183.975 272.441C183.975 271.991 183.917 271.585 183.8 271.222C183.683 270.859 183.514 270.553 183.293 270.303C183.077 270.048 182.81 269.854 182.493 269.721C182.176 269.583 181.816 269.515 181.411 269.515H179.998V275.374H181.411C181.816 275.374 182.176 275.307 182.493 275.174C182.81 275.036 183.077 274.843 183.293 274.592C183.514 274.338 183.683 274.03 183.8 273.667C183.917 273.304 183.975 272.896 183.975 272.441ZM191.188 275.33C191.472 275.33 191.724 275.284 191.945 275.193C192.17 275.097 192.36 274.961 192.514 274.786C192.668 274.611 192.785 274.399 192.864 274.148C192.948 273.894 192.989 273.606 192.989 273.285V267.889H195.103V273.285C195.103 273.844 195.011 274.357 194.828 274.824C194.648 275.291 194.39 275.693 194.052 276.031C193.715 276.368 193.304 276.631 192.82 276.819C192.337 277.006 191.793 277.1 191.188 277.1C190.58 277.1 190.033 277.006 189.55 276.819C189.066 276.631 188.656 276.368 188.318 276.031C187.98 275.693 187.722 275.291 187.543 274.824C187.363 274.357 187.274 273.844 187.274 273.285V267.889H189.387V273.279C189.387 273.6 189.427 273.888 189.506 274.142C189.589 274.392 189.708 274.607 189.863 274.786C190.017 274.961 190.204 275.097 190.425 275.193C190.65 275.284 190.905 275.33 191.188 275.33ZM202.895 274.642C202.945 274.642 202.995 274.653 203.045 274.674C203.095 274.69 203.143 274.722 203.189 274.768L204.027 275.649C203.66 276.129 203.199 276.491 202.645 276.737C202.094 276.979 201.442 277.1 200.687 277.1C199.995 277.1 199.374 276.983 198.824 276.75C198.278 276.512 197.813 276.187 197.429 275.774C197.05 275.357 196.758 274.866 196.554 274.299C196.35 273.727 196.248 273.108 196.248 272.441C196.248 271.762 196.358 271.138 196.579 270.572C196.8 270 197.111 269.508 197.511 269.096C197.911 268.683 198.39 268.362 198.949 268.133C199.508 267.903 200.123 267.789 200.794 267.789C201.136 267.789 201.457 267.82 201.757 267.883C202.061 267.941 202.345 268.024 202.607 268.133C202.87 268.237 203.112 268.364 203.333 268.514C203.554 268.664 203.75 268.827 203.92 269.002L203.208 269.959C203.162 270.017 203.107 270.071 203.045 270.121C202.982 270.167 202.895 270.19 202.782 270.19C202.707 270.19 202.636 270.173 202.57 270.14C202.503 270.107 202.432 270.067 202.357 270.021C202.282 269.971 202.199 269.919 202.107 269.865C202.019 269.807 201.913 269.754 201.788 269.709C201.667 269.659 201.523 269.617 201.357 269.583C201.194 269.55 201.002 269.533 200.781 269.533C200.431 269.533 200.11 269.598 199.818 269.727C199.531 269.857 199.28 270.046 199.068 270.296C198.859 270.542 198.697 270.847 198.58 271.209C198.467 271.568 198.411 271.979 198.411 272.441C198.411 272.908 198.474 273.323 198.599 273.686C198.728 274.048 198.901 274.355 199.118 274.605C199.339 274.851 199.595 275.039 199.887 275.168C200.179 275.297 200.491 275.362 200.825 275.362C201.017 275.362 201.192 275.353 201.35 275.337C201.509 275.316 201.657 275.284 201.794 275.243C201.932 275.197 202.061 275.139 202.182 275.068C202.303 274.993 202.426 274.899 202.551 274.786C202.601 274.745 202.655 274.711 202.714 274.686C202.772 274.657 202.832 274.642 202.895 274.642ZM211.497 269.565H208.933V277H206.819V269.565H204.255V267.889H211.497V269.565ZM214.697 277H212.571V267.889H214.697V277ZM225.397 272.441C225.397 273.1 225.282 273.713 225.053 274.28C224.828 274.847 224.509 275.341 224.096 275.762C223.684 276.179 223.185 276.506 222.602 276.744C222.022 276.981 221.378 277.1 220.669 277.1C219.961 277.1 219.315 276.981 218.731 276.744C218.147 276.506 217.647 276.179 217.23 275.762C216.817 275.341 216.496 274.847 216.267 274.28C216.042 273.713 215.929 273.1 215.929 272.441C215.929 271.783 216.042 271.17 216.267 270.603C216.496 270.036 216.817 269.544 217.23 269.127C217.647 268.71 218.147 268.383 218.731 268.145C219.315 267.908 219.961 267.789 220.669 267.789C221.378 267.789 222.022 267.91 222.602 268.151C223.185 268.389 223.684 268.716 224.096 269.133C224.509 269.55 224.828 270.042 225.053 270.609C225.282 271.176 225.397 271.787 225.397 272.441ZM223.233 272.441C223.233 271.991 223.175 271.587 223.058 271.228C222.942 270.865 222.773 270.559 222.552 270.309C222.335 270.059 222.068 269.867 221.751 269.734C221.434 269.6 221.074 269.533 220.669 269.533C220.261 269.533 219.896 269.6 219.575 269.734C219.258 269.867 218.989 270.059 218.768 270.309C218.552 270.559 218.385 270.865 218.268 271.228C218.151 271.587 218.093 271.991 218.093 272.441C218.093 272.896 218.151 273.304 218.268 273.667C218.385 274.025 218.552 274.33 218.768 274.58C218.989 274.83 219.258 275.022 219.575 275.155C219.896 275.284 220.261 275.349 220.669 275.349C221.074 275.349 221.434 275.284 221.751 275.155C222.068 275.022 222.335 274.83 222.552 274.58C222.773 274.33 222.942 274.025 223.058 273.667C223.175 273.304 223.233 272.896 223.233 272.441ZM234.595 267.889V277H233.495C233.332 277 233.194 276.975 233.082 276.925C232.973 276.871 232.865 276.779 232.757 276.65L228.461 271.216C228.477 271.378 228.488 271.537 228.492 271.691C228.5 271.841 228.504 271.983 228.504 272.116V277H226.641V267.889H227.754C227.846 267.889 227.923 267.893 227.985 267.901C228.048 267.91 228.104 267.926 228.154 267.951C228.204 267.972 228.252 268.003 228.298 268.045C228.344 268.087 228.396 268.143 228.454 268.214L232.788 273.686C232.767 273.511 232.752 273.342 232.744 273.179C232.736 273.012 232.732 272.856 232.732 272.71V267.889H234.595Z" fill="#00E0B8"/>
<path d="M266.295 91.4487C266.251 91.4473 266.208 91.4317 266.174 91.4041C253.488 82.8686 236.851 81.3642 217.619 79.624C205.074 78.4957 190.846 77.208 175.547 73.8104C136.886 65.2431 115.251 37.0168 115.041 36.73C115.005 36.6836 114.989 36.6255 114.995 36.5675C115.001 36.5095 115.028 36.4559 115.072 36.4176C115.122 36.3814 115.183 36.3658 115.244 36.3741C115.305 36.3825 115.36 36.414 115.398 36.4622C115.614 36.7491 137.128 64.8415 175.643 73.3706C190.942 76.7618 205.151 78.0431 217.715 79.1778C237.017 80.9244 253.686 82.416 266.461 91.0343C266.503 91.0597 266.536 91.0984 266.554 91.1444C266.572 91.1903 266.574 91.2409 266.56 91.2882C266.546 91.3356 266.517 91.3771 266.477 91.4061C266.437 91.4352 266.389 91.4501 266.339 91.4487H266.295Z" fill="#00E0B8"/>
<path d="M259.684 98.5499C259.638 98.5516 259.592 98.5356 259.557 98.5052C246.872 89.9697 230.234 88.4717 211.002 86.7315C198.457 85.5968 184.229 84.3092 168.931 80.9052C130.269 72.3442 108.634 44.118 108.424 43.8184C108.387 43.7708 108.371 43.7108 108.378 43.6512C108.385 43.5917 108.415 43.5372 108.462 43.4997C108.512 43.4634 108.573 43.4478 108.634 43.4562C108.694 43.4645 108.749 43.4961 108.787 43.5443C108.998 43.8311 130.518 71.9172 169.026 80.4526C184.325 83.8439 198.54 85.1251 211.098 86.2598C230.4 88.0064 247.076 89.498 259.844 98.1164C259.896 98.1503 259.933 98.2035 259.946 98.2644C259.959 98.3254 259.948 98.389 259.914 98.4415C259.889 98.4785 259.854 98.5081 259.814 98.5271C259.774 98.5462 259.729 98.5541 259.684 98.5499Z" fill="#00E0B8"/>
<path d="M253.068 105.645C253.02 105.649 252.972 105.635 252.934 105.606C240.255 97.0709 223.643 95.5665 204.379 93.8263C191.841 92.698 177.606 91.4103 162.308 88.0064C123.646 79.4263 102.011 51.2128 101.801 50.9259C101.782 50.9023 101.769 50.8751 101.761 50.8461C101.753 50.8171 101.751 50.7868 101.755 50.757C101.759 50.7272 101.769 50.6986 101.785 50.6729C101.8 50.6471 101.821 50.6248 101.845 50.6072C101.895 50.571 101.956 50.5554 102.017 50.5637C102.078 50.572 102.133 50.6036 102.171 50.6518C102.381 50.9323 123.901 79.0247 162.41 87.5602C177.708 90.9514 191.923 92.2327 204.481 93.3673C223.783 95.114 240.459 96.6056 253.227 105.224C253.252 105.241 253.274 105.262 253.291 105.287C253.307 105.312 253.319 105.34 253.325 105.37C253.331 105.4 253.331 105.43 253.325 105.46C253.319 105.489 253.308 105.518 253.291 105.543C253.268 105.58 253.235 105.61 253.195 105.628C253.155 105.646 253.111 105.652 253.068 105.645Z" fill="#00E0B8"/>
<path d="M246.451 112.727C246.427 112.73 246.403 112.729 246.38 112.722C246.357 112.716 246.335 112.704 246.317 112.688C233.638 104.153 217.026 102.655 197.763 100.915C185.23 99.7737 170.99 98.4924 155.691 95.0948C117.029 86.5275 95.3944 58.2948 95.1841 58.0144C95.1478 57.965 95.1322 57.9035 95.1406 57.8428C95.1489 57.7821 95.1805 57.7271 95.2287 57.6893C95.2532 57.6708 95.2812 57.6575 95.311 57.6501C95.3407 57.6427 95.3717 57.6413 95.402 57.6461C95.4323 57.6508 95.4614 57.6616 95.4874 57.6777C95.5135 57.6939 95.5361 57.7152 95.5538 57.7402C95.7641 58.0207 117.284 86.1132 155.793 94.6422C171.092 98.0398 185.307 99.3211 197.865 100.449C217.167 102.196 233.842 103.688 246.617 112.306C246.665 112.342 246.698 112.395 246.709 112.454C246.719 112.513 246.707 112.574 246.674 112.625C246.652 112.662 246.618 112.692 246.578 112.71C246.539 112.728 246.494 112.734 246.451 112.727Z" fill="#00E0B8"/>
<path d="M131.066 50.0717C131.066 50.0717 128.969 50.792 129.676 51.2765C130.384 51.761 132.736 57.9506 132.226 58.7538C131.716 59.557 130.218 56.9052 129.326 57.7849C128.433 58.6646 129.734 60.8446 131.098 60.6789C132.462 60.5132 133.112 59.1554 132.787 57.4471C132.462 55.7387 131.359 53.0678 131.219 52.4813C131.079 51.8948 131.704 51.6016 132.666 52.1562C133.629 52.7108 135.324 51.7546 135.809 50.7092C136.293 49.6638 135.885 47.8981 135.885 47.8981C135.885 47.8981 136.204 48.7841 134.61 49.173C133.017 49.5618 131.627 49.8295 131.066 50.0717Z" fill="#00E0B8"/>
<path d="M121.759 77.8774C121.759 77.8774 119.669 78.6041 120.376 79.0885C121.084 79.573 123.429 85.7562 122.926 86.5658C122.422 87.3754 120.912 84.7108 120.032 85.5969C119.152 86.4829 120.433 88.6567 121.798 88.4909C123.162 88.3252 123.806 86.9674 123.487 85.2527C123.049 83.5613 122.512 81.8968 121.88 80.2678C121.715 79.7068 122.339 79.3881 123.327 79.9491C124.316 80.51 125.979 79.5412 126.464 78.4957C126.948 77.4503 126.54 75.6846 126.54 75.6846C126.54 75.6846 126.865 76.5706 125.265 76.9595C123.665 77.3483 122.327 77.667 121.759 77.8774Z" fill="#00E0B8"/>
<path d="M249.683 85.0997C248.634 84.5697 247.617 83.9802 246.636 83.3339C245.157 82.3395 244.322 82.8176 244.532 83.4741C244.743 84.1307 243.474 88.7905 241.581 91.2447C239.688 93.6989 239.86 90.9004 238.432 90.416C237.004 89.9315 236.226 91.3403 237.323 92.9658C238.419 94.5913 240.899 94.1068 241.23 93.106C242.21 90.8819 243.323 88.7191 244.564 86.6296C245.259 85.5587 245.763 85.616 247.012 86.859C247.545 87.4222 248.21 87.8441 248.946 88.0866C249.683 88.3292 250.468 88.3849 251.232 88.2486C251.232 88.2486 248.682 93.1506 247.892 94.7188C247.101 96.2869 246.464 98.2821 245.342 98.2439C244.22 98.2056 242.894 95.9299 241.976 97.3132C241.058 98.6964 243.793 101.068 245.265 100.398C246.738 99.7292 247.637 96.6438 248.727 94.5211C249.817 92.3984 252.978 86.7889 252.787 85.9857C252.596 85.1825 251.098 86.024 249.683 85.0997Z" fill="#00E0B8"/>
<path d="M220.029 94.5339C219.288 94.1476 218.569 93.722 217.874 93.259C216.829 92.5578 216.255 92.8956 216.389 93.361C216.523 93.8263 215.643 97.1219 214.298 98.8558C212.953 100.59 213.087 98.6135 212.073 98.2693C211.06 97.9251 210.518 98.9068 211.296 100.086C212.073 101.265 213.845 100.889 214.068 100.182C214.764 98.6131 215.552 97.087 216.427 95.6112C216.918 94.8654 217.281 94.8973 218.161 95.7769C218.54 96.1719 219.01 96.4675 219.531 96.6376C220.051 96.8077 220.605 96.847 221.144 96.7522C221.144 96.7522 219.334 100.214 218.779 101.316C218.225 102.419 217.772 103.866 216.931 103.809C216.089 103.751 215.203 102.164 214.553 103.171C213.903 104.179 215.828 105.823 216.867 105.351C217.906 104.88 218.543 102.7 219.315 101.189C220.086 99.6781 222.317 95.7195 222.183 95.1777C222.049 94.6359 221.042 95.1841 220.029 94.5339Z" fill="#00E0B8"/>
<path d="M227.327 101.316C226.771 101.036 226.228 100.727 225.702 100.392C224.912 99.8631 224.478 100.118 224.586 100.462C224.695 100.806 224.019 103.299 223.006 104.625C221.992 105.951 222.081 104.434 221.329 104.166C220.577 103.898 220.156 104.657 220.743 105.53C221.329 106.403 222.655 106.167 222.821 105.6C223.343 104.418 223.937 103.268 224.599 102.158C224.969 101.591 225.237 101.616 225.874 102.279C226.158 102.579 226.513 102.804 226.906 102.933C227.299 103.062 227.717 103.091 228.124 103.018C228.124 103.018 226.76 105.632 226.346 106.461C225.931 107.289 225.581 108.373 224.956 108.341C224.331 108.309 223.649 107.098 223.159 107.857C222.668 108.615 224.134 109.852 224.911 109.495C225.689 109.138 226.186 107.5 226.767 106.359C227.347 105.218 229.036 102.241 228.934 101.807C228.832 101.374 228.08 101.807 227.327 101.316Z" fill="#00E0B8"/>
<path d="M120.446 50.0144C119.707 49.6297 118.99 49.204 118.298 48.7395C117.246 48.0383 116.673 48.3762 116.813 48.8352C116.953 49.2941 116.067 52.5961 114.722 54.3364C113.377 56.0766 113.504 54.0877 112.491 53.7499C111.477 53.412 110.942 54.3873 111.72 55.5602C112.497 56.7331 114.269 56.3634 114.492 55.6558C115.185 54.0881 115.973 52.564 116.851 51.0918C117.342 50.3396 117.699 50.3714 118.585 51.2511C118.959 51.643 119.424 51.9368 119.939 52.1069C120.454 52.277 121.002 52.318 121.536 52.2264C121.536 52.2264 119.72 55.6877 119.171 56.7969C118.623 57.9061 118.164 59.3467 117.323 59.2894C116.481 59.232 115.595 57.6384 114.945 58.6519C114.295 59.6654 116.22 61.31 117.259 60.8319C118.298 60.3538 118.935 58.1802 119.7 56.6694C120.465 55.1587 122.709 51.2001 122.575 50.6583C122.441 50.1164 121.441 50.6646 120.446 50.0144Z" fill="#00E0B8"/>
<path d="M267.946 141.017C267.901 141.012 267.857 140.996 267.818 140.972C253.355 131.232 234.41 129.498 212.469 127.541C198.171 126.266 181.973 124.762 164.475 120.905C141.444 115.806 123.914 104.587 113.269 96.0766C101.731 86.8527 95.5601 78.7188 95.5028 78.6423C95.4656 78.5933 95.4494 78.5315 95.4578 78.4705C95.4661 78.4096 95.4984 78.3544 95.5474 78.3172C95.5964 78.28 95.6582 78.2638 95.7192 78.2722C95.7802 78.2805 95.8353 78.3128 95.8725 78.3618C95.9299 78.4447 102.075 86.5339 113.574 95.726C124.182 104.198 141.622 115.372 164.571 120.453C182.043 124.322 198.228 125.788 212.507 127.076C234.512 129.071 253.514 130.773 268.073 140.59C268.126 140.624 268.162 140.677 268.175 140.738C268.189 140.799 268.177 140.862 268.143 140.915C268.119 140.944 268.089 140.968 268.055 140.986C268.021 141.003 267.984 141.014 267.946 141.017Z" fill="#00E0B8"/>
<path d="M260.405 149.106C260.359 149.106 260.315 149.093 260.277 149.068C245.814 139.328 226.862 137.594 204.921 135.63C190.629 134.356 174.425 132.857 156.927 128.995C133.896 123.895 116.373 112.676 105.727 104.134C94.1896 94.9101 88.0191 86.7826 87.9554 86.6997C87.9368 86.6761 87.9232 86.6489 87.9153 86.6199C87.9075 86.5909 87.9056 86.5606 87.9098 86.5308C87.9139 86.501 87.9241 86.4724 87.9396 86.4467C87.9551 86.4209 87.9756 86.3986 88 86.381C88.0494 86.3448 88.1109 86.3292 88.1716 86.3375C88.2323 86.3458 88.2873 86.3774 88.3251 86.4256C88.3825 86.5021 94.5339 94.5977 106.027 103.783C116.634 112.261 134.075 123.436 157.023 128.516C174.496 132.386 190.68 133.846 204.959 135.14C226.958 137.128 245.967 138.837 260.526 148.647C260.575 148.682 260.61 148.734 260.621 148.794C260.633 148.853 260.622 148.915 260.59 148.966C260.57 148.999 260.542 149.027 260.509 149.046C260.475 149.065 260.437 149.075 260.398 149.074L260.405 149.106Z" fill="#00E0B8"/>
<path d="M252.864 157.202C252.818 157.198 252.774 157.182 252.736 157.157C238.266 147.398 219.321 145.683 197.374 143.726C183.076 142.451 166.878 140.947 149.38 137.09C126.349 131.99 108.825 120.771 98.1801 112.229C86.6167 103.006 80.4653 94.8717 80.4079 94.7952C80.3895 94.771 80.3761 94.7433 80.3684 94.7138C80.3606 94.6844 80.3588 94.6536 80.3629 94.6234C80.3671 94.5932 80.3771 94.5642 80.3925 94.5379C80.4079 94.5116 80.4283 94.4885 80.4526 94.4701C80.4769 94.4517 80.5045 94.4382 80.534 94.4305C80.5635 94.4228 80.5942 94.421 80.6244 94.4251C80.6546 94.4293 80.6836 94.4393 80.7099 94.4547C80.7362 94.4701 80.7592 94.4905 80.7777 94.5148C80.835 94.5977 86.9801 102.687 98.4797 111.879C109.087 120.351 126.527 131.525 149.476 136.606C166.948 140.475 183.133 141.941 197.412 143.229C219.423 145.224 238.419 146.926 252.985 156.743C253.035 156.779 253.069 156.832 253.081 156.893C253.093 156.953 253.081 157.016 253.049 157.068C253.029 157.102 253.003 157.132 252.971 157.155C252.939 157.178 252.902 157.194 252.864 157.202Z" fill="#00E0B8"/>
<path d="M245.316 165.291C245.271 165.291 245.227 165.278 245.189 165.253C230.719 155.512 211.774 153.779 189.833 151.815C175.541 150.54 159.337 149.042 141.839 145.179C118.808 140.08 101.284 128.861 90.639 120.319C79.1012 111.095 72.9307 102.967 72.8669 102.885C72.8484 102.861 72.8347 102.834 72.8269 102.805C72.8191 102.776 72.8172 102.745 72.8213 102.716C72.8255 102.686 72.8356 102.657 72.8511 102.632C72.8666 102.606 72.8872 102.583 72.9115 102.566C72.9609 102.53 73.0224 102.514 73.0831 102.522C73.1438 102.531 73.1989 102.562 73.2366 102.61C73.294 102.687 79.4454 110.783 90.9386 119.968C101.546 128.446 118.986 139.621 141.935 144.701C159.407 148.571 175.592 150.03 189.871 151.324C211.869 153.313 230.878 155.022 245.437 164.832C245.489 164.867 245.524 164.921 245.536 164.981C245.548 165.042 245.535 165.105 245.501 165.157C245.484 165.193 245.458 165.224 245.426 165.248C245.394 165.271 245.356 165.286 245.316 165.291Z" fill="#00E0B8"/>
<path d="M119.496 121.651C119.496 121.651 117.106 122.48 117.935 123.041C118.763 123.602 121.422 130.645 120.867 131.563C120.312 132.481 118.559 129.453 117.565 130.467C116.571 131.48 118.03 133.947 119.586 133.763C121.141 133.578 121.893 132.022 121.498 130.097C120.991 128.168 120.374 126.27 119.649 124.411C119.452 123.774 120.198 123.404 121.3 124.048C122.403 124.692 124.322 123.583 124.876 122.397C125.431 121.211 124.966 119.21 124.966 119.21C124.966 119.21 125.329 120.217 123.5 120.676C121.67 121.135 120.147 121.383 119.496 121.651Z" fill="#00E0B8"/>
<path d="M225.351 122.486C225.351 122.486 222.974 123.315 223.796 123.869C224.618 124.424 227.283 131.481 226.728 132.392C226.174 133.304 224.421 130.289 223.426 131.296C222.432 132.303 223.892 134.783 225.447 134.598C227.002 134.413 227.755 132.851 227.359 130.926C226.849 128.999 226.23 127.103 225.504 125.246C225.307 124.609 226.059 124.239 227.155 124.883C228.252 125.527 230.183 124.418 230.731 123.232C231.28 122.046 230.827 120.045 230.827 120.045C230.827 120.045 231.19 121.052 229.361 121.511C227.531 121.97 225.995 122.212 225.351 122.486Z" fill="#00E0B8"/>
<path d="M214.075 145.804C214.075 145.804 211.691 146.633 212.513 147.194C213.335 147.755 216 154.798 215.445 155.723C214.891 156.647 213.157 153.613 212.143 154.62C211.13 155.627 212.609 158.107 214.164 157.922C215.719 157.737 216.459 156.182 216.076 154.25C215.694 152.319 214.425 149.214 214.228 148.571C214.03 147.927 214.776 147.563 215.879 148.207C216.982 148.851 218.907 147.742 219.461 146.556C220.016 145.37 219.544 143.369 219.544 143.369C219.544 143.369 219.914 144.376 218.078 144.835C216.242 145.294 214.719 145.549 214.075 145.804Z" fill="#00E0B8"/>
<path d="M107.391 107.78C106.198 107.178 105.039 106.512 103.917 105.785C102.221 104.65 101.297 105.192 101.52 105.944C101.743 106.696 100.316 111.994 98.1546 114.811C95.9936 117.629 96.1912 114.403 94.5593 113.855C92.9275 113.307 92.0478 114.92 93.2844 116.781C94.5211 118.642 97.3578 118.056 97.7466 116.934C98.8734 114.406 100.151 111.947 101.571 109.571C102.355 108.36 102.961 108.411 104.344 109.833C104.953 110.472 105.711 110.95 106.549 111.225C107.388 111.5 108.282 111.562 109.151 111.407C109.151 111.407 106.257 116.972 105.37 118.751C104.484 120.529 103.739 122.818 102.425 122.773C101.112 122.728 99.6462 120.115 98.6008 121.728C97.5554 123.34 100.672 126.005 102.349 125.24C104.025 124.475 105.058 120.969 106.295 118.54C107.531 116.112 111.146 109.724 110.923 108.832C110.7 107.94 108.998 108.832 107.391 107.78Z" fill="#00E0B8"/>
<path d="M242.563 134.4C241.716 133.971 240.894 133.495 240.102 132.972C238.91 132.175 238.253 132.558 238.413 133.087C238.572 133.616 237.559 137.371 236.029 139.353C234.499 141.336 234.645 139.073 233.479 138.716C232.312 138.359 231.7 139.468 232.586 140.781C233.472 142.094 235.474 141.705 235.729 140.896C236.519 139.104 237.42 137.362 238.425 135.681C238.98 134.834 239.394 134.872 240.402 135.873C240.831 136.325 241.367 136.664 241.96 136.857C242.553 137.051 243.185 137.094 243.799 136.982L241.109 142.196C240.472 143.471 239.955 145.065 239.025 145.033C238.094 145.001 237.049 143.159 236.309 144.3C235.57 145.441 237.782 147.321 238.961 146.779C240.14 146.238 240.873 143.758 241.74 142.043C242.607 140.328 245.163 135.809 245.01 135.159C244.857 134.508 243.704 135.152 242.563 134.4Z" fill="#00E0B8"/>
<path d="M250.862 142.145C250.227 141.819 249.61 141.46 249.014 141.068C248.115 140.469 247.63 140.762 247.739 141.157C247.847 141.552 247.101 144.395 245.947 145.881C244.794 147.366 244.896 145.67 244.035 145.377C243.174 145.084 242.696 145.944 243.366 146.932C244.035 147.92 245.533 147.627 245.731 147.022C246.331 145.672 247.01 144.358 247.764 143.089C248.178 142.451 248.497 142.451 249.256 143.235C249.578 143.574 249.98 143.828 250.425 143.974C250.87 144.12 251.345 144.153 251.806 144.07C251.806 144.07 250.257 147.047 249.778 147.997C249.3 148.947 248.912 150.164 248.21 150.139C247.509 150.113 246.719 148.724 246.164 149.584C245.61 150.445 247.273 151.86 248.166 151.433C249.058 151.006 249.606 149.151 250.269 147.857C250.932 146.563 252.819 143.159 252.736 142.674C252.653 142.19 251.723 142.687 250.862 142.145Z" fill="#00E0B8"/>
<path d="M101.648 93.8072C100.804 93.3738 99.9852 92.895 99.1936 92.3729C97.9952 91.5697 97.345 91.9522 97.498 92.4877C97.651 93.0232 96.6438 96.7713 95.1203 98.7602C93.5968 100.749 93.7307 98.4734 92.5705 98.0845C91.4104 97.6957 90.7984 98.8367 91.6845 100.15C92.5705 101.463 94.5657 101.074 94.8271 100.258C95.6179 98.4715 96.5162 96.7346 97.5171 95.0566C98.0717 94.1961 98.4861 94.2343 99.4932 95.2414C99.9238 95.6927 100.459 96.0302 101.052 96.2238C101.645 96.4173 102.277 96.461 102.891 96.3507C102.891 96.3507 100.832 100.296 100.201 101.559C99.5697 102.821 99.047 104.433 98.1163 104.402C97.1857 104.37 96.1466 102.489 95.4072 103.662C94.6677 104.835 96.8733 106.69 98.0526 106.148C99.2319 105.606 99.965 103.127 100.832 101.406C101.699 99.6845 104.255 95.1713 104.102 94.5339C103.949 93.8964 102.789 94.5466 101.648 93.8072Z" fill="#00E0B8"/>
<path d="M148.354 145.747C148.354 145.747 150.47 202.958 148.354 213.578C146.237 224.198 137.198 225.001 116.481 223.407C95.7641 221.814 65.2048 218.614 79.0119 213.061C92.8191 207.509 133.731 208.816 130.276 212.271C126.821 215.726 107.697 214.661 102.12 212.539C96.5418 210.416 124.43 203.506 139.308 205.367C154.186 207.229 162.429 213.865 198.266 223.159C234.104 232.453 260.156 222.094 259.359 214.929C258.563 207.764 235.99 207.471 227.755 207.471" stroke="#707070" stroke-width="0.887103" stroke-linecap="round" stroke-linejoin="round"/>
<path d="M189.514 178.231L200.803 175.006L235.767 177.492L229.284 180.94L189.514 178.231Z" fill="#D0DAEC" stroke="#707070" stroke-width="0.446743" stroke-linecap="round" stroke-linejoin="round"/>
<path d="M235.767 177.492L235.493 214.693L228.666 220.265L229.284 180.94L235.767 177.492Z" fill="#585C63" stroke="#707070" stroke-width="0.446743" stroke-linecap="round" stroke-linejoin="round"/>
<path d="M190.808 214.394L191.343 215.611L193.313 215.911L194.429 214.853L190.808 214.394Z" fill="#707070" stroke="#707070" stroke-width="0.446743" stroke-linecap="round" stroke-linejoin="round"/>
<path d="M224.026 219.48L224.555 220.698L226.531 220.998L227.646 219.933L224.026 219.48Z" fill="#707070" stroke="#707070" stroke-width="0.446743" stroke-linecap="round" stroke-linejoin="round"/>
<path d="M189.514 178.231L188.972 214.011L228.666 220.265L229.284 180.94L189.514 178.231Z" fill="#838994" stroke="#707070" stroke-width="0.446743" stroke-linecap="round" stroke-linejoin="round"/>
<path d="M192.669 181.61L192.217 211.634L225.524 216.886L226.046 183.885L192.669 181.61Z" fill="black" stroke="#707070" stroke-width="0.446743" stroke-linecap="round" stroke-linejoin="round"/>
<path d="M194.148 210.99L225.536 215.936L226.046 183.885L194.588 181.737L194.148 210.99Z" fill="#707070" stroke="#707070" stroke-width="0.446743" stroke-linecap="round" stroke-linejoin="round"/>
<path d="M194.505 187.449L225.944 190.343L226.046 183.885L194.588 181.737L194.505 187.449Z" fill="#FBFEFF" stroke="#707070" stroke-width="0.446743" stroke-linecap="round" stroke-linejoin="round"/>
<path d="M199.892 184.618C199.892 184.916 199.803 185.207 199.638 185.454C199.473 185.702 199.238 185.894 198.963 186.008C198.688 186.122 198.386 186.152 198.094 186.094C197.802 186.036 197.534 185.892 197.323 185.682C197.113 185.472 196.97 185.204 196.912 184.912C196.854 184.62 196.884 184.317 196.997 184.043C197.111 183.768 197.304 183.533 197.551 183.367C197.799 183.202 198.09 183.114 198.387 183.114C198.584 183.112 198.78 183.15 198.962 183.224C199.144 183.298 199.31 183.408 199.45 183.546C199.59 183.685 199.701 183.85 199.777 184.032C199.853 184.214 199.892 184.409 199.892 184.606V184.618Z" fill="#707070" stroke="#707070" stroke-width="0.446743" stroke-linecap="round" stroke-linejoin="round"/>
<path d="M203.978 186.55C204.809 186.55 205.482 185.876 205.482 185.045C205.482 184.215 204.809 183.541 203.978 183.541C203.147 183.541 202.473 184.215 202.473 185.045C202.473 185.876 203.147 186.55 203.978 186.55Z" fill="#707070" stroke="#707070" stroke-width="0.446743" stroke-linecap="round" stroke-linejoin="round"/>
<path d="M211.066 185.479C211.066 185.777 210.978 186.067 210.813 186.315C210.647 186.562 210.412 186.755 210.137 186.869C209.863 186.983 209.56 187.013 209.268 186.954C208.976 186.896 208.708 186.753 208.498 186.543C208.288 186.332 208.144 186.064 208.086 185.772C208.028 185.481 208.058 185.178 208.172 184.903C208.286 184.628 208.479 184.393 208.726 184.228C208.973 184.063 209.264 183.975 209.562 183.975C209.961 183.975 210.343 184.133 210.625 184.415C210.908 184.697 211.066 185.08 211.066 185.479Z" fill="#707070" stroke="#707070" stroke-width="0.446743" stroke-linecap="round" stroke-linejoin="round"/>
<path d="M216.644 185.906C216.644 186.204 216.555 186.495 216.39 186.742C216.224 186.99 215.989 187.183 215.714 187.297C215.438 187.41 215.136 187.44 214.844 187.381C214.552 187.322 214.284 187.179 214.073 186.968C213.863 186.757 213.721 186.488 213.663 186.196C213.606 185.903 213.637 185.601 213.751 185.326C213.866 185.051 214.06 184.817 214.308 184.652C214.557 184.488 214.848 184.4 215.146 184.402C215.543 184.402 215.924 184.559 216.205 184.84C216.486 185.121 216.644 185.502 216.644 185.9V185.906Z" fill="#707070" stroke="#707070" stroke-width="0.446743" stroke-linecap="round" stroke-linejoin="round"/>
<path d="M205.17 177.256V176.331L206.904 175.885L219.551 176.771L219.404 177.664L218.186 178.225L205.17 177.256Z" fill="#707070"/>
<path d="M191.388 166.91C191.388 166.91 188.685 171.64 189.023 172.819C189.361 173.998 194.939 175.018 197.476 176.708C200.013 178.397 202.371 178.9 203.895 178.397C205.418 177.893 206.763 178.059 206.088 176.198C205.412 174.336 203.385 174.681 201.868 173.833C200.351 172.985 196.131 168.51 195.774 168.006C195.417 167.503 191.388 166.91 191.388 166.91Z" fill="#FBFEFF" stroke="#707070" stroke-width="0.446743" stroke-linecap="round" stroke-linejoin="round"/>
<path d="M196.328 168.752C196.328 168.752 195.474 170.461 194.907 170.601" stroke="#707070" stroke-width="0.446743" stroke-linecap="round" stroke-linejoin="round"/>
<path d="M197.329 169.747C197.329 169.747 197.329 171.455 196.475 171.882" stroke="#707070" stroke-width="0.446743" stroke-linecap="round" stroke-linejoin="round"/>
<path d="M199.037 171.602C199.037 171.602 199.324 172.022 198.47 172.736" stroke="#707070" stroke-width="0.446743" stroke-linecap="round" stroke-linejoin="round"/>
<path d="M200.612 172.876C200.612 172.876 200.465 173.023 199.611 173.737" stroke="#707070" stroke-width="0.446743" stroke-linecap="round" stroke-linejoin="round"/>
<path d="M202.352 174.03C202.102 174.201 201.886 174.418 201.715 174.668C201.249 175.271 200.904 175.96 200.701 176.695C198.824 175.313 196.778 174.176 194.614 173.31C192.867 172.581 191.057 172.012 189.208 171.608C189.061 171.989 189.004 172.399 189.042 172.806C189.38 173.986 194.958 174.999 197.495 176.688C200.032 178.378 202.39 178.888 203.914 178.378C205.437 177.868 206.782 178.04 206.107 176.178C205.482 174.508 203.793 174.598 202.352 174.03Z" fill="white" stroke="#707070" stroke-width="0.446743" stroke-linecap="round" stroke-linejoin="round"/>
<path d="M140.934 97.8677L138.569 109.335L139.844 109.151L142.935 98.7792L140.934 97.8677Z" fill="#707070" stroke="#707070" stroke-width="0.446743" stroke-linecap="round" stroke-linejoin="round"/>
<path d="M160.07 215.401C160.337 216.386 160.704 217.341 161.167 218.25C161.715 219.13 169.657 223.35 169.218 225.307C169.045 226.072 168.44 227.219 164.806 227.41C161.173 227.602 157.673 224.905 155.978 223.987C153.339 222.559 152.892 221.89 153.205 220.456C153.517 219.022 154.862 214.171 154.862 214.171C156.554 214.749 158.298 215.161 160.07 215.401Z" fill="#FBFEFF" stroke="#707070" stroke-width="0.446743" stroke-linecap="round" stroke-linejoin="round"/>
<path d="M157.036 218.301C157.53 217.903 158.101 217.61 158.712 217.439C159.324 217.268 159.964 217.223 160.593 217.307" stroke="#707070" stroke-width="0.446743" stroke-linecap="round" stroke-linejoin="round"/>
<path d="M158.03 219.181C158.03 219.181 159.739 217.906 161.167 218.276" stroke="#707070" stroke-width="0.446743" stroke-linecap="round" stroke-linejoin="round"/>
<path d="M159.433 220.296C159.433 220.296 161.568 219.021 162.849 219.723" stroke="#707070" stroke-width="0.446743" stroke-linecap="round" stroke-linejoin="round"/>
<path d="M161.167 221.431C161.167 221.431 163.015 220.437 164.437 220.864" stroke="#707070" stroke-width="0.446743" stroke-linecap="round" stroke-linejoin="round"/>
<path d="M156.086 218.301C156.086 219.124 155.691 219.799 155.206 219.799C154.722 219.799 154.327 219.124 154.327 218.301C154.327 217.479 154.716 216.816 155.206 216.816C155.697 216.816 156.086 217.485 156.086 218.301Z" fill="white" stroke="#707070" stroke-width="0.446743" stroke-linecap="round" stroke-linejoin="round"/>
<path d="M167.484 222.827C166.502 222.827 165.023 223.006 164.245 223.987C163.704 224.577 163.259 225.248 162.926 225.976C160.972 224.588 158.909 223.362 156.755 222.311C155.447 221.725 154.296 220.838 153.396 219.723C153.32 220.003 153.262 220.252 153.218 220.437C152.892 221.871 153.339 222.54 155.997 223.968C157.686 224.892 161.179 227.608 164.819 227.391C168.459 227.174 169.065 226.053 169.23 225.288C169.364 224.657 168.593 223.758 167.484 222.827Z" fill="white" stroke="#707070" stroke-width="0.446743" stroke-linecap="round" stroke-linejoin="round"/>
<path d="M165.304 62.6359C165.304 62.6359 173.259 63.6303 174.553 66.4606C175.847 69.2908 181.106 92.3283 181.508 93.6032C181.909 94.8781 192.586 97.1537 198.98 97.1537C205.374 97.1537 202.805 97.8677 200.829 99.1426C198.853 100.417 192.88 101.845 186.767 102.693C180.653 103.541 176.567 102.974 174.7 100.284C172.832 97.5936 170.129 84.5195 168.287 75.729C166.445 66.9386 165.304 62.6359 165.304 62.6359Z" fill="white" stroke="#707070" stroke-width="0.446743" stroke-linecap="round" stroke-linejoin="round"/>
<path d="M174.534 66.4733C173.259 63.6366 165.284 62.6486 165.284 62.6486C165.284 62.6486 166.419 66.9067 168.268 75.7163C168.867 78.5912 169.543 81.9251 170.295 85.2079C170.888 85.1059 171.57 84.9784 172.379 84.8063C174.355 84.3729 176.899 82.894 178.601 81.8167C177.026 75.1936 175.21 67.984 174.534 66.4733Z" fill="#FBFEFF" stroke="#707070" stroke-width="0.446743" stroke-linecap="round" stroke-linejoin="round"/>
<path d="M169.728 82.5371C170.072 84.1307 170.429 85.7244 170.786 87.318C173.813 86.6343 176.62 85.2032 178.951 83.1554C178.626 81.8168 178.314 80.4335 177.957 79.0693C175.524 80.8556 172.705 82.0436 169.728 82.5371Z" fill="#707070" stroke="#707070" stroke-width="0.446743" stroke-linecap="round" stroke-linejoin="round"/>
<path d="M209.332 91.9331C209.332 91.9331 210.83 88.6948 210.996 88.5036C211.162 88.3124 214.935 88.0446 213.941 89.3641C213.125 89.5934 212.291 89.7555 211.449 89.8486L210.881 91.1809L209.332 91.9331Z" fill="white" stroke="#707070" stroke-width="0.446743" stroke-linecap="round" stroke-linejoin="round"/>
<path d="M212.341 123.423C207.375 118.732 189.189 117.877 181.82 116.462C180.035 116.124 178.633 115.825 177.479 115.538C175.312 105.479 169.976 86.126 169.039 75.7036C168.81 73.1538 167.802 61.1252 163.028 62.3172C153.778 64.5801 137.594 69.1952 137.026 80.8988C136.561 90.3267 140.481 100.354 142.209 109.52C143.069 114.097 143.873 117.941 144.695 121.147H144.625C144.625 121.147 152.421 156.494 152.421 162.314C152.421 168.134 151.28 171.238 150.999 179.786C150.719 188.335 154.435 215.388 155.289 215.943C156.143 216.497 157.986 216.516 158.84 216.23C159.694 215.943 159.834 216.37 160.115 215.375C160.395 214.381 163.812 194.977 164.8 174.362C165.788 153.747 167.35 138.454 173.437 134.202C179.525 129.951 204.258 130.499 204.418 133.629C204.577 136.759 190.457 166.317 191.031 166.891C191.605 167.465 194.728 168.306 195.429 168.026C196.131 167.745 209.453 146.155 213.75 138.767C218.046 131.379 217.281 128.108 212.341 123.423Z" fill="#FBFEFF" stroke="#707070" stroke-width="0.446743" stroke-linecap="round" stroke-linejoin="round"/>
<path d="M162.97 62.3108C157.922 63.5474 150.808 65.498 145.294 68.902C147.506 72.0892 153.498 80.2804 157.814 81.3259C162.913 82.5625 165.08 68.0478 164.615 62.4574C164.101 62.2158 163.519 62.1639 162.97 62.3108Z" fill="#707070" stroke="#707070" stroke-width="0.446743" stroke-linecap="round" stroke-linejoin="round"/>
<path d="M163.155 60.0032C163.155 60.0032 166.445 85.3163 175.528 98.3841L178.078 100.207C178.537 100.207 169.963 80.8669 166.056 59.9713L163.155 60.0032Z" fill="#707070" stroke="#707070" stroke-width="0.446743" stroke-linecap="round" stroke-linejoin="round"/>
<path d="M162.563 65.6255C162.04 64.9243 161.517 64.3825 161.045 63.7132C159.618 61.7307 160.166 57.5172 161.791 56.0638C161.657 55.7614 161.492 55.4731 161.3 55.2032C159.452 52.6534 152.153 53.9283 150.285 56.0446C150.763 56.8789 151.173 57.7509 151.509 58.6519C152.07 60.0815 152.26 61.6293 152.064 63.1522C151.681 65.0646 150.113 65.7849 148.755 66.9769C150.304 69.6096 154.607 75.5506 156.513 76.4558C158.795 77.5713 161.868 68.3283 162.563 65.6255Z" fill="white" stroke="#707070" stroke-width="0.446743" stroke-linecap="round" stroke-linejoin="round"/>
<path d="M160.459 58.0653C160.733 57.3271 161.215 56.6846 161.849 56.2167C163.984 54.878 169.198 53.1378 170.537 50.6008C170.673 49.2291 170.53 47.844 170.116 46.5293C169.702 45.2145 169.025 43.9974 168.127 42.9514C165.055 39.2159 159.203 37.2143 154.429 38.7633C148.194 40.8031 146.83 46.5657 148.105 50.8749C148.871 53.1333 149.798 55.3339 150.878 57.4598C152.825 57.8491 154.802 58.0625 156.787 58.0972C158.011 58.1536 159.237 58.1429 160.459 58.0653Z" fill="#707070" stroke="#707070" stroke-width="0.446743" stroke-linecap="round" stroke-linejoin="round"/>
<path d="M156.061 55.3562C156.061 55.3562 155.181 50.5881 153.332 50.5881C151.484 50.5881 150.623 55.0502 151.484 57.243C152.344 59.4359 153.944 58.5944 153.944 58.5944C154.555 60.0261 155.282 61.4055 156.118 62.7188C157.106 64.0766 160.402 67.2893 164.188 67.2893C165.788 67.2893 168.013 59.1555 168.504 55.9491C168.994 52.7427 168.994 51.3976 168.134 48.8032C167.273 46.2088 163.672 47.8216 160.612 50.0335C158.712 51.4413 157.156 53.2611 156.061 55.3562Z" fill="white" stroke="#707070" stroke-width="0.446743" stroke-linecap="round" stroke-linejoin="round"/>
<path d="M158.285 49.5426C158.285 49.5426 162.212 48.4016 165.68 52.3538C169.058 56.1785 173.023 53.9856 174.419 51.7737C176.618 48.2868 179.194 50.6581 179.194 46.4127C179.194 42.1673 176.344 41.8358 173.457 42.6326C170.569 43.4295 172.131 38.3809 168.14 37.8518C164.15 37.3227 163.098 39.7003 162.033 40.5099" fill="#707070"/>
<path d="M158.285 49.5426C158.285 49.5426 162.212 48.4016 165.68 52.3538C169.058 56.1785 173.023 53.9856 174.419 51.7737C176.618 48.2868 179.194 50.6581 179.194 46.4127C179.194 42.1673 176.344 41.8358 173.457 42.6326C170.569 43.4295 172.131 38.3809 168.14 37.8518C164.15 37.3227 163.098 39.7003 162.033 40.5099" stroke="#707070" stroke-width="0.446743" stroke-linecap="round" stroke-linejoin="round"/>
<path d="M168.357 53.5522C168.357 53.5522 167.324 53.6351 167.235 54.4128C167.146 55.1905 167.662 58.0399 167.496 59.5124C167.331 60.9849 165.425 60.6406 164.469 59.8629" fill="white"/>
<path d="M168.357 53.5522C168.357 53.5522 167.324 53.6351 167.235 54.4128C167.146 55.1905 167.662 58.0399 167.496 59.5124C167.331 60.9849 165.425 60.6406 164.469 59.8629" stroke="#707070" stroke-width="0.446743" stroke-linecap="round" stroke-linejoin="round"/>
<path d="M164.08 52.9466C164.08 52.9466 161.766 51.2191 160.376 53.1187L164.08 52.9466Z" fill="white"/>
<path d="M164.08 52.9466C164.08 52.9466 161.766 51.2191 160.376 53.1187" stroke="#707070" stroke-width="0.446743" stroke-linecap="round" stroke-linejoin="round"/>
<path d="M163.71 54.3298L163.627 55.4518C163.627 55.4518 161.715 56.1402 160.523 55.0183" fill="white"/>
<path d="M163.71 54.3298L163.627 55.4518C163.627 55.4518 161.715 56.1402 160.523 55.0183" stroke="#707070" stroke-width="0.446743" stroke-linecap="round" stroke-linejoin="round"/>
<path d="M160.191 130.237C156.071 132.059 151.615 132.997 147.111 132.991C149.393 143.828 152.376 158.732 152.376 162.314C152.376 168.14 151.241 171.238 150.961 179.786C150.68 188.335 154.397 215.395 155.245 215.949C156.092 216.504 157.941 216.516 158.795 216.23C159.649 215.943 159.79 216.376 160.07 215.382C160.351 214.387 163.774 194.983 164.755 174.368C165.737 153.753 167.305 138.454 173.393 134.209C179.48 129.963 198.585 134.4 198.725 137.524C198.865 140.647 190.438 166.304 191.012 166.846C191.586 167.388 194.709 168.261 195.41 167.981C196.112 167.7 209.434 146.11 213.731 138.722C218.027 131.334 217.281 128.089 212.309 123.385C207.337 118.681 189.157 117.839 181.788 116.424C180.003 116.086 178.601 115.786 177.447 115.5C176.21 117.189 171.124 125.412 160.191 130.237Z" fill="#707070"/>
<path d="M198.725 137.53C198.725 137.53 206.47 142.228 209.925 142.547" stroke="#DAE5F7" stroke-width="0.446743" stroke-linecap="round" stroke-linejoin="round"/>
<path d="M193.906 134.999C193.906 134.999 200.185 141.603 204.902 144.433" stroke="#DAE5F7" stroke-width="0.446743" stroke-linecap="round" stroke-linejoin="round"/>
<path d="M194.849 140.029C194.849 140.029 199.56 147.57 203.633 149.457" stroke="#DAE5F7" stroke-width="0.446743" stroke-linecap="round" stroke-linejoin="round"/>
<path d="M174.731 133.763C174.731 133.763 177.874 130.301 190.457 128.108" stroke="#DAE5F7" stroke-width="0.446743" stroke-linecap="round" stroke-linejoin="round"/>
<path d="M185.109 130.92C185.109 130.92 193.275 129.995 197.673 129.345" stroke="#DAE5F7" stroke-width="0.446743" stroke-linecap="round" stroke-linejoin="round"/>
<path d="M165.928 168.618C165.928 168.618 161.53 184.344 158.387 193.753" stroke="#DAE5F7" stroke-width="0.446743" stroke-linecap="round" stroke-linejoin="round"/>
<path d="M163.742 184.331C162.188 191.447 159.199 198.171 154.958 204.092" stroke="#DAE5F7" stroke-width="0.446743" stroke-linecap="round" stroke-linejoin="round"/>
<path d="M160.191 130.237C156.071 132.059 151.615 132.997 147.111 132.991C149.393 143.828 152.376 158.732 152.376 162.314C152.376 168.14 151.241 171.238 150.961 179.786C150.68 188.335 154.397 215.395 155.245 215.949C156.092 216.504 157.941 216.516 158.795 216.23C159.649 215.943 159.79 216.376 160.07 215.382C160.351 214.387 163.774 194.983 164.755 174.368C165.737 153.753 167.305 138.454 173.393 134.209C179.48 129.963 198.585 134.4 198.725 137.524C198.865 140.647 190.438 166.304 191.012 166.846C191.586 167.388 194.709 168.261 195.41 167.981C196.112 167.7 209.434 146.11 213.731 138.722C218.027 131.334 217.281 128.089 212.309 123.385C207.337 118.681 189.157 117.839 181.788 116.424C180.003 116.086 178.601 115.786 177.447 115.5C176.21 117.189 171.124 125.412 160.191 130.237Z" stroke="#707070" stroke-width="0.446743" stroke-linecap="round" stroke-linejoin="round"/>
<path d="M145.753 143.12L146.614 145.084C146.705 145.291 146.854 145.469 147.042 145.595C147.231 145.721 147.451 145.792 147.678 145.798L149.291 145.842C149.536 145.851 149.777 145.784 149.982 145.65C150.188 145.517 150.347 145.324 150.438 145.096L151.363 142.814L145.753 143.12Z" fill="white" stroke="#707070" stroke-width="0.446743" stroke-linecap="round" stroke-linejoin="round"/>
<path d="M181.476 106.779C181.845 105.919 180.347 103.241 179.971 102.534C176.733 96.4207 167.586 96.2741 163.557 101.603C162.091 103.516 161.307 106.065 159.394 107.538C155.302 110.725 149.45 106.843 145.065 106.346C135.503 105.269 128.95 114.467 129.205 123.219C129.386 127.324 130.671 131.304 132.925 134.739C135.179 138.174 138.318 140.938 142.011 142.738C142.381 142.916 142.757 143.076 143.139 143.222C151.796 146.639 160.089 142.489 164.87 135.018C166.304 132.781 167.541 130.422 168.994 128.191C169.699 126.969 170.76 125.991 172.035 125.386C174.617 124.341 177.912 125.131 180.679 124.354C182.591 123.812 185.415 122.83 186.327 120.848C187.334 118.649 186.046 118.585 184.204 118.7C182.362 118.814 180.265 117.087 180.067 113.829C179.869 110.572 181.476 106.779 181.476 106.779Z" fill="#DFEAFD" stroke="#707070" stroke-width="0.446743" stroke-linecap="round" stroke-linejoin="round"/>
<path d="M180.143 107.277C180.513 106.422 179.015 103.739 178.645 103.031C175.458 96.918 166.26 96.7714 162.225 102.107C160.765 104.019 159.981 106.569 158.068 108.042C153.97 111.229 148.124 107.34 143.732 106.843C134.17 105.766 127.624 114.964 127.879 123.716C128.059 127.821 129.343 131.8 131.595 135.235C133.848 138.671 136.986 141.435 140.679 143.235C141.055 143.414 141.425 143.573 141.814 143.726C150.47 147.143 158.757 142.987 163.544 135.516C164.972 133.278 166.215 130.92 167.668 128.689C168.373 127.466 169.434 126.488 170.709 125.884C173.259 124.845 176.586 125.635 179.347 124.851C181.259 124.309 184.089 123.334 184.994 121.345C186.008 119.152 184.72 119.089 182.872 119.197C181.023 119.305 178.932 117.591 178.741 114.327C178.55 111.063 180.143 107.283 180.143 107.277Z" fill="#DFEAFD"/>
<path opacity="0.19" d="M184.191 118.731C182.343 118.846 180.252 117.119 180.054 113.861C179.857 110.604 181.476 106.805 181.476 106.805C181.845 105.944 180.347 103.267 179.971 102.553C177.37 97.6 170.849 96.5673 166.323 99.1999L148.921 144.459C155.366 144.625 161.167 140.832 164.857 135.05C166.292 132.813 167.528 130.454 168.982 128.223C169.685 126.999 170.746 126.02 172.022 125.418C174.572 124.373 177.9 125.17 180.666 124.386C182.578 123.844 185.402 122.862 186.314 120.88C187.321 118.661 186.033 118.598 184.191 118.731Z" fill="white"/>
<path opacity="0.19" d="M150.298 102.26C151.129 101.778 152.024 101.415 152.956 101.182C149.82 98.2564 144.765 97.9504 141.049 100.105L123.64 145.364C128.025 145.41 132.261 143.774 135.477 140.793L150.298 102.26Z" fill="white"/>
<path d="M180.143 107.277C180.513 106.422 179.015 103.739 178.645 103.031C175.458 96.918 166.26 96.7714 162.225 102.107C160.765 104.019 159.981 106.569 158.068 108.042C153.97 111.229 148.124 107.34 143.732 106.843C134.17 105.766 127.624 114.964 127.879 123.716C128.059 127.821 129.343 131.8 131.595 135.235C133.848 138.671 136.986 141.435 140.679 143.235C141.055 143.414 141.425 143.573 141.814 143.726C150.47 147.143 158.757 142.987 163.544 135.516C164.972 133.278 166.215 130.92 167.668 128.689C168.373 127.466 169.434 126.488 170.709 125.884C173.259 124.845 176.586 125.635 179.347 124.851C181.259 124.309 184.089 123.334 184.994 121.345C186.008 119.152 184.72 119.089 182.872 119.197C181.023 119.305 178.932 117.591 178.741 114.327C178.55 111.063 180.143 107.283 180.143 107.277Z" stroke="#707070" stroke-width="0.446743" stroke-linecap="round" stroke-linejoin="round"/>
<path d="M172.864 109.705L174.967 114.741L226.435 88.3506L224.637 84.4749L172.864 109.705Z" fill="#707070" stroke="#707070" stroke-width="0.446743" stroke-linecap="round" stroke-linejoin="round"/>
<path d="M179.34 111.018C179.34 111.018 169.473 126.438 166.081 127.981C162.69 129.524 160.382 124.494 162.461 121.147C164.539 117.801 179.34 111.018 179.34 111.018Z" fill="white" stroke="#707070" stroke-width="0.446743" stroke-linecap="round" stroke-linejoin="round"/>
<path d="M172.5 107.453L169.742 108.792C169.226 109.043 169.01 109.664 169.261 110.18L172.601 117.062C172.851 117.578 173.473 117.794 173.989 117.543L176.748 116.204C177.264 115.954 177.479 115.332 177.229 114.816L173.889 107.934C173.638 107.418 173.017 107.203 172.5 107.453Z" fill="white" stroke="#707070" stroke-width="0.446743" stroke-linecap="round" stroke-linejoin="round"/>
<path d="M161.007 114.027L158.21 115.282C157.686 115.517 157.452 116.132 157.687 116.656L160.819 123.635C161.054 124.158 161.669 124.392 162.192 124.157L164.99 122.902C165.513 122.667 165.747 122.052 165.512 121.528L162.38 114.549C162.145 114.026 161.53 113.792 161.007 114.027Z" fill="white" stroke="#707070" stroke-width="0.446743" stroke-linecap="round" stroke-linejoin="round"/>
<path d="M149.597 130.148L144.803 120.032C144.736 119.882 144.73 119.713 144.784 119.559C144.839 119.405 144.951 119.277 145.096 119.203C145.246 119.134 145.416 119.125 145.572 119.179C145.727 119.232 145.856 119.344 145.931 119.49L150.725 129.606C150.794 129.756 150.802 129.927 150.747 130.083C150.692 130.239 150.579 130.367 150.432 130.441C150.284 130.517 150.113 130.531 149.955 130.482C149.797 130.434 149.664 130.325 149.584 130.18L149.597 130.148Z" fill="white" stroke="#707070" stroke-width="0.446743" stroke-linecap="round" stroke-linejoin="round"/>
<path d="M144.924 120.433L129.957 132.685C129.73 132.869 129.572 133.124 129.511 133.41C129.449 133.695 129.487 133.993 129.619 134.253L130.614 136.223C130.753 136.518 130.999 136.748 131.303 136.867C131.606 136.985 131.943 136.983 132.245 136.861L149.495 129.766L148.857 128.618L137.645 130.633L145.626 122.078L144.924 120.433Z" fill="white" stroke="#707070" stroke-width="0.446743" stroke-linecap="round" stroke-linejoin="round"/>
<path d="M161.982 125.068C161.816 124.924 161.599 124.852 161.379 124.868C161.159 124.883 160.955 124.985 160.81 125.151C159.063 126.857 156.987 128.191 154.709 129.071C153.231 129.67 151.717 130.179 150.177 130.594C149.788 130.69 149.399 130.792 149.01 130.862C148.086 131.028 146.575 131.391 146.696 132.596C146.752 132.876 146.899 133.129 147.115 133.315C147.331 133.501 147.603 133.609 147.888 133.623C148.173 133.636 148.454 133.553 148.686 133.388C148.919 133.223 149.089 132.984 149.17 132.711C151.307 132.286 153.396 131.645 155.404 130.798C157.955 129.825 160.243 128.269 162.084 126.253C162.156 126.17 162.21 126.074 162.243 125.97C162.277 125.866 162.29 125.756 162.281 125.647C162.272 125.538 162.242 125.432 162.192 125.334C162.141 125.237 162.073 125.151 161.989 125.08L161.982 125.068Z" fill="white" stroke="#707070" stroke-width="0.446743" stroke-linecap="round" stroke-linejoin="round"/>
<path d="M144.344 136.765C144.326 136.511 144.233 136.269 144.076 136.069C143.919 135.869 143.706 135.72 143.465 135.642C143.223 135.564 142.963 135.56 142.719 135.63C142.475 135.701 142.257 135.843 142.094 136.038C141.931 136.233 141.83 136.472 141.804 136.725C141.778 136.978 141.828 137.232 141.948 137.457C142.068 137.681 142.252 137.864 142.477 137.983C142.702 138.101 142.957 138.15 143.21 138.123C143.538 138.087 143.839 137.926 144.051 137.673C144.262 137.42 144.368 137.094 144.344 136.765Z" fill="white" stroke="#707070" stroke-width="0.446743" stroke-linecap="round" stroke-linejoin="round"/>
<path d="M153.696 138.085C153.678 137.831 153.584 137.589 153.428 137.389C153.271 137.189 153.058 137.04 152.816 136.962C152.574 136.884 152.314 136.879 152.07 136.95C151.826 137.02 151.609 137.162 151.446 137.357C151.283 137.552 151.182 137.792 151.156 138.044C151.13 138.297 151.18 138.552 151.3 138.776C151.42 139 151.604 139.183 151.828 139.302C152.053 139.421 152.308 139.47 152.561 139.442C152.889 139.407 153.191 139.246 153.402 138.992C153.614 138.739 153.719 138.414 153.696 138.085Z" fill="white" stroke="#707070" stroke-width="0.446743" stroke-linecap="round" stroke-linejoin="round"/>
<path d="M191.343 100.704L190.795 100.966L192.803 105.523L193.345 105.243L191.343 100.704Z" fill="white" stroke="#707070" stroke-width="0.446743" stroke-linecap="round" stroke-linejoin="round"/>
<path d="M195.015 98.9132L194.473 99.1746L196.449 103.643L196.991 103.369L195.015 98.9132Z" fill="white" stroke="#707070" stroke-width="0.446743" stroke-linecap="round" stroke-linejoin="round"/>
<path d="M186.569 103.031L186.021 103.292L188.086 107.952L188.628 107.678L186.569 103.031Z" fill="white" stroke="#707070" stroke-width="0.446743" stroke-linecap="round" stroke-linejoin="round"/>
<path d="M198.7 97.1156L198.158 97.3769L200.096 101.775L200.631 101.495L198.7 97.1156Z" fill="white" stroke="#707070" stroke-width="0.446743" stroke-linecap="round" stroke-linejoin="round"/>
<path d="M182.069 105.224L181.52 105.485L183.637 110.247L184.178 109.973L182.069 105.224Z" fill="white" stroke="#707070" stroke-width="0.446743" stroke-linecap="round" stroke-linejoin="round"/>
<path d="M178.645 112.816L179.187 112.535L177.026 107.684L176.478 107.946L178.645 112.816Z" fill="white" stroke="#707070" stroke-width="0.446743" stroke-linecap="round" stroke-linejoin="round"/>
<path d="M202.378 95.3243L201.836 95.5857L203.735 99.8949L204.271 99.6208L202.378 95.3243Z" fill="white" stroke="#707070" stroke-width="0.446743" stroke-linecap="round" stroke-linejoin="round"/>
<path d="M220.781 86.349L220.239 86.6167L222.12 90.5689L222.655 90.2884L220.781 86.349Z" fill="white" stroke="#707070" stroke-width="0.446743" stroke-linecap="round" stroke-linejoin="round"/>
<path d="M213.418 89.9379L212.877 90.2056L214.833 94.3235L215.375 94.043L213.418 89.9379Z" fill="white" stroke="#707070" stroke-width="0.446743" stroke-linecap="round" stroke-linejoin="round"/>
<path d="M217.103 88.1466L216.555 88.408L218.473 92.443L219.015 92.1689L217.103 88.1466Z" fill="white" stroke="#707070" stroke-width="0.446743" stroke-linecap="round" stroke-linejoin="round"/>
<path d="M206.056 93.5267L205.514 93.7881L207.554 98.0718L208.089 97.7976L206.056 93.5267Z" fill="white" stroke="#707070" stroke-width="0.446743" stroke-linecap="round" stroke-linejoin="round"/>
<path d="M209.747 91.7355L209.198 92.0032L211.194 96.1976L211.735 95.9171L209.747 91.7355Z" fill="white" stroke="#707070" stroke-width="0.446743" stroke-linecap="round" stroke-linejoin="round"/>
<path d="M225.007 84.6406L146.747 123.551" stroke="white" stroke-width="0.223371" stroke-linecap="round" stroke-linejoin="round"/>
<path d="M225.447 85.2972L147.187 124.207" stroke="white" stroke-width="0.223371" stroke-linecap="round" stroke-linejoin="round"/>
<path d="M225.88 85.9602L147.627 124.864" stroke="white" stroke-width="0.223371" stroke-linecap="round" stroke-linejoin="round"/>
<path d="M226.32 86.6167L148.067 125.52" stroke="white" stroke-width="0.223371" stroke-linecap="round" stroke-linejoin="round"/>
<path d="M226.76 87.2733L148.507 126.177" stroke="white" stroke-width="0.223371" stroke-linecap="round" stroke-linejoin="round"/>
<path d="M227.194 87.9299L148.947 126.84" stroke="white" stroke-width="0.223371" stroke-linecap="round" stroke-linejoin="round"/>
<path d="M224.657 84.4749L225.931 79.7003C225.931 79.7003 229.967 80.5928 234.824 76.1753C237.12 78.5563 238.6 81.6056 239.05 84.8828C239.05 84.8828 232.172 86.4318 230.821 89.9314L226.454 88.3506L224.657 84.4749Z" fill="#707070" stroke="#707070" stroke-width="0.446743" stroke-linecap="round" stroke-linejoin="round"/>
<path d="M229.17 82.4286C229.16 82.3353 229.132 82.2447 229.088 82.1621C229.043 82.0795 228.983 82.0066 228.91 81.9473C228.837 81.8881 228.753 81.8439 228.663 81.8171C228.573 81.7903 228.479 81.7815 228.386 81.7912C228.292 81.8016 228.202 81.8304 228.12 81.8758C228.037 81.9211 227.965 81.9823 227.906 82.0557C227.788 82.204 227.733 82.3931 227.755 82.5816C227.776 82.7701 227.871 82.9425 228.019 83.0609C228.167 83.1792 228.357 83.2338 228.545 83.2127C228.638 83.2032 228.728 83.1753 228.81 83.1305C228.892 83.0858 228.964 83.0251 229.022 82.9521C229.08 82.879 229.123 82.7951 229.149 82.7053C229.174 82.6154 229.181 82.5213 229.17 82.4286Z" fill="white" stroke="#707070" stroke-width="0.446743" stroke-linecap="round" stroke-linejoin="round"/>
<path d="M231.465 81.3132C231.45 81.1728 231.394 81.0399 231.304 80.9313C231.214 80.8226 231.094 80.7431 230.958 80.7028C230.823 80.6625 230.679 80.6632 230.544 80.7048C230.409 80.7465 230.289 80.8271 230.2 80.9366C230.111 81.0462 230.057 81.1797 230.044 81.3202C230.03 81.4607 230.059 81.602 230.126 81.7262C230.193 81.8504 230.296 81.952 230.42 82.018C230.545 82.0841 230.687 82.1116 230.827 82.0972C230.92 82.0877 231.011 82.0598 231.094 82.0152C231.176 81.9706 231.249 81.9102 231.308 81.8374C231.368 81.7646 231.412 81.6808 231.439 81.5908C231.465 81.5009 231.474 81.4065 231.465 81.3132Z" fill="white" stroke="#707070" stroke-width="0.446743" stroke-linecap="round" stroke-linejoin="round"/>
<path d="M233.778 80.2168C233.745 80.0395 233.646 79.8814 233.501 79.7742C233.356 79.6669 233.176 79.6186 232.997 79.6388C232.818 79.6589 232.653 79.7462 232.535 79.8829C232.418 80.0197 232.356 80.1959 232.363 80.3761C232.384 80.564 232.478 80.7361 232.625 80.8554C232.772 80.9746 232.959 81.0315 233.147 81.0136C233.241 81.0033 233.332 80.9744 233.415 80.9287C233.498 80.8829 233.571 80.8213 233.63 80.7471C233.688 80.673 233.732 80.5879 233.757 80.4969C233.783 80.4059 233.79 80.3106 233.778 80.2168Z" fill="white" stroke="#707070" stroke-width="0.446743" stroke-linecap="round" stroke-linejoin="round"/>
<path d="M230.999 86.2661C230.966 86.0888 230.867 85.9307 230.722 85.8235C230.577 85.7163 230.397 85.6679 230.218 85.6881C230.038 85.7083 229.873 85.7955 229.756 85.9323C229.638 86.069 229.577 86.2452 229.584 86.4254C229.605 86.6133 229.699 86.7854 229.846 86.9047C229.992 87.024 230.18 87.0808 230.368 87.0629C230.557 87.0405 230.73 86.9442 230.848 86.7948C230.966 86.6455 231.021 86.4554 230.999 86.2661Z" fill="white" stroke="#707070" stroke-width="0.446743" stroke-linecap="round" stroke-linejoin="round"/>
<path d="M233.3 85.1506C233.286 85.0102 233.23 84.8772 233.14 84.7686C233.05 84.66 232.929 84.5805 232.794 84.5402C232.659 84.4999 232.515 84.5006 232.38 84.5422C232.245 84.5839 232.125 84.6645 232.036 84.774C231.947 84.8836 231.893 85.0171 231.879 85.1576C231.866 85.2981 231.895 85.4394 231.962 85.5636C232.029 85.6878 232.132 85.7894 232.256 85.8554C232.381 85.9215 232.523 85.949 232.663 85.9346C232.757 85.9259 232.848 85.8986 232.931 85.8543C233.014 85.8099 233.087 85.7495 233.146 85.6765C233.206 85.6035 233.25 85.5194 233.276 85.4291C233.303 85.3388 233.311 85.2441 233.3 85.1506Z" fill="white" stroke="#707070" stroke-width="0.446743" stroke-linecap="round" stroke-linejoin="round"/>
<path d="M235.608 84.0415C235.593 83.9011 235.537 83.7681 235.447 83.6595C235.357 83.5508 235.237 83.4714 235.102 83.4311C234.966 83.3908 234.822 83.3915 234.687 83.4331C234.552 83.4747 234.433 83.5554 234.344 83.6649C234.255 83.7744 234.2 83.9079 234.187 84.0485C234.174 84.189 234.203 84.3303 234.27 84.4545C234.337 84.5787 234.439 84.6802 234.564 84.7463C234.689 84.8123 234.83 84.8399 234.971 84.8255C235.158 84.8046 235.331 84.7107 235.45 84.5641C235.569 84.4174 235.626 84.2296 235.608 84.0415Z" fill="white" stroke="#707070" stroke-width="0.446743" stroke-linecap="round" stroke-linejoin="round"/>
<path d="M214.151 94.6805C214.151 94.6805 211.417 90.5243 211.455 90.059C211.646 88.1467 214.725 92.6089 215.433 93.3228C216.14 94.0368 216 94.8845 215.292 95.7387C214.585 96.5929 209.906 96.8734 209.906 96.8734L214.151 94.6805Z" fill="white" stroke="#707070" stroke-width="0.446743" stroke-linecap="round" stroke-linejoin="round"/>
<path d="M215.898 93.4884C215.898 93.4884 213.533 89.8231 214.266 89.1155C215.305 88.1147 215.49 89.6892 216.223 91.0278C216.956 92.3665 217.696 93.5203 217.249 93.9283C216.421 94.6805 215.898 93.4884 215.898 93.4884Z" fill="white" stroke="#707070" stroke-width="0.446743" stroke-linecap="round" stroke-linejoin="round"/>
<path d="M217.371 92.5515C217.371 92.5515 215.229 88.4845 215.732 88.1786C216.236 87.8726 216.963 88.7523 217.696 90.0909C218.429 91.4296 219.168 92.5834 218.716 92.9913C217.893 93.7563 217.371 92.5515 217.371 92.5515Z" fill="white" stroke="#707070" stroke-width="0.446743" stroke-linecap="round" stroke-linejoin="round"/>
<path d="M219.251 93.1186C219.251 93.1186 217.339 89.0645 217.619 88.7521C218.32 87.9808 218.843 89.3194 219.576 90.6645C220.309 92.0095 221.049 93.1568 220.602 93.5648C219.774 94.3234 219.251 93.1186 219.251 93.1186Z" fill="white" stroke="#707070" stroke-width="0.446743" stroke-linecap="round" stroke-linejoin="round"/>
<path d="M143.114 70.4C143.114 70.4 139.028 72.8606 135.05 75.8439C131.073 78.8271 117.157 112.912 117.839 114.193C118.521 115.474 154.767 120.159 157.182 120.567C159.598 120.975 160.88 121.562 162.435 121.128C163.99 120.695 165.845 118.432 165.845 118.432C165.845 118.432 167.694 118.151 167.975 117.157C168.255 116.163 167.407 116.163 166.413 115.735C165.418 115.308 164.711 113.88 163.997 113.186C163.283 112.491 159.879 113.326 158.598 113.893C157.316 114.461 155.194 115.455 154.053 115.602C152.912 115.748 146.403 114.888 140.704 111.777C135.006 108.666 133.304 107.659 132.469 106.945C131.633 106.231 145.218 84.7937 145.218 84.7937" fill="#FBFEFF"/>
<path d="M143.114 70.4C143.114 70.4 139.028 72.8606 135.05 75.8439C131.073 78.8271 117.157 112.912 117.839 114.193C118.521 115.474 154.767 120.159 157.182 120.567C159.598 120.975 160.88 121.562 162.435 121.128C163.99 120.695 165.845 118.432 165.845 118.432C165.845 118.432 167.694 118.151 167.975 117.157C168.255 116.163 167.407 116.163 166.413 115.735C165.418 115.308 164.711 113.88 163.997 113.186C163.283 112.491 159.879 113.326 158.598 113.893C157.316 114.461 155.194 115.455 154.053 115.602C152.912 115.748 146.403 114.888 140.704 111.777C135.006 108.666 133.304 107.659 132.469 106.945C131.633 106.231 145.218 84.7937 145.218 84.7937" stroke="#707070" stroke-width="0.446743" stroke-linecap="round" stroke-linejoin="round"/>
<path d="M168 117.189C168.287 116.194 167.433 116.194 166.438 115.767C165.444 115.34 164.736 113.912 164.022 113.218C163.308 112.523 159.904 113.358 158.623 113.925C157.342 114.492 155.219 115.487 154.078 115.634C152.937 115.78 146.429 114.92 140.73 111.809C135.031 108.698 133.329 107.691 132.494 106.977C132.214 106.747 133.482 104.312 135.312 101.132C131.342 100.565 127.492 99.353 123.914 97.5427C120.376 105.912 117.539 113.626 117.865 114.225C118.572 115.5 154.792 120.191 157.208 120.599C159.624 121.007 160.905 121.594 162.461 121.16C164.016 120.727 165.871 118.464 165.871 118.464C165.871 118.464 167.72 118.171 168 117.189Z" fill="white" stroke="#707070" stroke-width="0.446743" stroke-linecap="round" stroke-linejoin="round"/>
<path d="M132.494 106.945C132.494 106.945 127.79 105.536 124.583 109.17" stroke="#707070" stroke-width="0.446743" stroke-linecap="round" stroke-linejoin="round"/>
<path d="M123.219 99.1618C127.044 100.864 132.424 101.641 134.84 101.941C135.618 100.551 136.529 99.0088 137.485 97.4088C133.293 96.9573 129.192 95.8831 125.316 94.2216C124.602 95.8853 123.895 97.549 123.219 99.1618Z" fill="#707070" stroke="#707070" stroke-width="0.446743" stroke-linecap="round" stroke-linejoin="round"/>
<defs>
<linearGradient id="paint0_linear_48_758" x1="8.47474" y1="40.0932" x2="70.8017" y2="49.9803" gradientUnits="userSpaceOnUse">
<stop stop-color="#FFF176"/>
<stop offset="1" stop-color="#00E0B8"/>
</linearGradient>
</defs>
</svg>
