<svg width="207" height="102" viewBox="0 0 207 102" fill="none" xmlns="http://www.w3.org/2000/svg">
<path opacity="0.8" d="M4.896 42.952V43.636H11.364V42.952H4.896ZM4.572 45.88V46.588H11.544V45.88H4.572ZM4.56 50.332V51.076H11.556V50.332H4.56ZM5.7 48.844V49.468H10.56V48.844H5.7ZM5.136 44.392V45.064H11.124V44.392H5.136ZM6.324 41.932V46.192H7.14V41.932H6.324ZM9.048 41.932V46.192H9.876V41.932H9.048ZM7.644 46.204V50.752H8.412V46.204H7.644ZM10.056 47.284V52.048C10.056 52.192 10.02 52.228 9.852 52.24C9.696 52.252 9.156 52.252 8.58 52.228C8.676 52.444 8.784 52.744 8.82 52.96C9.612 52.96 10.152 52.96 10.476 52.84C10.8 52.708 10.896 52.492 10.896 52.06V47.284H10.056ZM5.28 47.284V52.972H6.06V47.956H10.38V47.284H5.28ZM0.972 45.628V46.336H4.164V45.628H0.972ZM1.044 42.352V43.072H4.128V42.352H1.044ZM0.972 47.26V47.98H4.164V47.26H0.972ZM0.456 43.96V44.704H4.488V43.96H0.456ZM1.404 48.904V49.66H3.444V51.664H1.404V52.408H4.212V48.904H1.404ZM0.96 48.904V52.96H1.728V48.904H0.96ZM13.32 43.732V44.512H15.756V46.276H13.32V47.068H16.572V43.732H13.32ZM13.332 48.172V48.952H15.876V51.016H13.332V51.784H16.68V48.172H13.332ZM12.96 43.732V52.6H13.776V43.732H12.96ZM17.04 42.556V43.384H23.46V42.556H17.04ZM14.484 41.92C14.364 42.52 14.1 43.396 13.884 43.972L14.592 44.128C14.88 43.6 15.204 42.772 15.468 42.064L14.484 41.92ZM19.812 42.904V52.948H20.664V42.904H19.812ZM17.496 44.86V51.16H18.324V45.676H22.692V44.86H17.496ZM22.26 44.86V50.2C22.26 50.32 22.224 50.368 22.092 50.368C21.984 50.368 21.6 50.368 21.144 50.356C21.264 50.584 21.384 50.92 21.408 51.148C22.056 51.148 22.476 51.148 22.752 51.004C23.04 50.86 23.112 50.62 23.112 50.212V44.86H22.26ZM28.5996 43.4688L25.043 52.7324H24.1113L27.6738 43.4688H28.5996ZM33.517 42.748V43.588H40.513V42.748H33.517ZM38.617 43.168V51.832C38.617 52.072 38.521 52.144 38.269 52.156C38.005 52.168 37.117 52.168 36.169 52.144C36.289 52.384 36.433 52.732 36.481 52.96C37.717 52.972 38.449 52.96 38.881 52.828C39.301 52.696 39.481 52.456 39.481 51.832V43.168H38.617ZM34.333 45.292V46.072H36.529V48.868H34.333V49.648H37.333V45.292H34.333ZM33.925 45.292V50.56H34.717V45.292H33.925ZM29.917 42.448V52.972H30.733V43.264H32.713V42.448H29.917ZM32.497 42.448V42.688C32.245 43.504 31.801 44.884 31.357 45.976C32.233 46.924 32.449 47.764 32.449 48.424C32.449 48.784 32.377 49.12 32.197 49.252C32.089 49.324 31.969 49.348 31.813 49.36C31.621 49.384 31.393 49.372 31.117 49.348C31.249 49.576 31.333 49.924 31.345 50.14C31.609 50.152 31.909 50.152 32.149 50.128C32.401 50.092 32.605 50.02 32.773 49.9C33.109 49.66 33.253 49.144 33.253 48.496C33.253 47.752 33.049 46.876 32.173 45.88C32.581 44.92 33.025 43.744 33.373 42.76L32.785 42.412L32.653 42.448H32.497ZM41.629 48.784V49.588H52.285V48.784H41.629ZM46.465 47.668V52.936H47.377V47.668H46.465ZM46.057 49.096C45.073 50.368 43.141 51.508 41.389 52.048C41.593 52.228 41.857 52.576 42.001 52.804C43.753 52.168 45.709 50.884 46.801 49.432L46.057 49.096ZM47.797 49.12L47.041 49.48C48.133 50.896 50.089 52.12 51.913 52.72C52.045 52.48 52.321 52.132 52.513 51.952C50.689 51.46 48.769 50.368 47.797 49.12ZM45.997 45.796H47.881V47.116H45.997V45.796ZM45.997 43.816H47.881V45.112H45.997V43.816ZM45.217 43.108V47.824H48.673V43.108H45.217ZM46.621 41.92C46.549 42.352 46.381 42.988 46.237 43.408L46.945 43.564C47.125 43.18 47.329 42.604 47.521 42.064L46.621 41.92ZM41.713 44.26C42.313 44.752 43.021 45.448 43.333 45.928L43.753 45.268C43.441 44.812 42.721 44.14 42.109 43.684L41.713 44.26ZM43.897 46.024C44.245 46.708 44.581 47.632 44.677 48.208L45.313 47.956C45.205 47.404 44.857 46.504 44.497 45.832L43.897 46.024ZM44.197 43.672C43.705 44.764 42.829 46.3 42.133 47.236L42.721 47.512C43.417 46.588 44.269 45.136 44.905 43.948L44.197 43.672ZM43.261 42.004C43.021 42.7 42.565 43.684 42.217 44.296L42.817 44.56C43.189 43.96 43.621 43.048 43.981 42.268L43.261 42.004ZM41.605 47.164L41.701 47.944C42.577 47.8 43.645 47.656 44.749 47.476L44.737 46.828C43.549 46.96 42.421 47.092 41.605 47.164ZM48.601 44.164C49.237 44.716 49.957 45.496 50.269 46.024L50.737 45.4C50.413 44.896 49.681 44.14 49.057 43.612L48.601 44.164ZM50.833 45.928C51.241 46.684 51.637 47.668 51.757 48.304L52.429 48.028C52.297 47.416 51.877 46.432 51.457 45.7L50.833 45.928ZM51.133 43.66C50.641 44.764 49.729 46.312 49.021 47.26L49.609 47.536C50.329 46.6 51.205 45.136 51.841 43.948L51.133 43.66ZM50.257 41.968C50.017 42.664 49.549 43.648 49.189 44.26L49.789 44.524C50.173 43.924 50.617 43.024 50.989 42.232L50.257 41.968ZM48.649 47.164L48.757 47.944C49.633 47.824 50.725 47.68 51.829 47.536L51.817 46.876C50.629 46.984 49.489 47.092 48.649 47.164ZM74.5233 52.828L71.9433 47.44L74.5233 42.064L73.8753 41.86L71.2113 47.44L73.8753 53.032L74.5233 52.828ZM76.4193 52.828L73.8393 47.44L76.4193 42.064L75.7713 41.86L73.0953 47.44L75.7713 53.032L76.4193 52.828ZM82.7073 43.936L82.2873 44.8H88.3953V43.936H82.7073ZM84.2073 46.54V47.368H88.1193V46.54H84.2073ZM84.1953 49.18V50.032H88.2873V49.18H84.1953ZM83.7513 44.212V52.96H84.6753V44.212H83.7513ZM83.1633 42.064C82.5753 43.828 81.6033 45.58 80.5113 46.696C80.7153 46.84 81.0753 47.164 81.2073 47.32C82.3113 46.084 83.3553 44.2 84.0393 42.292L83.1633 42.064ZM80.2833 41.968C79.5993 43.792 78.4833 45.592 77.2833 46.756C77.4513 46.972 77.7273 47.452 77.8113 47.668C79.1193 46.324 80.3553 44.272 81.1473 42.244L80.2833 41.968ZM78.9993 45.064V52.948H79.9113V44.176L79.8873 44.164L78.9993 45.064ZM92.4753 43.3H97.2753V45.58H92.4753V43.3ZM91.5993 42.436V46.444H98.1873V42.436H91.5993ZM89.8593 47.716V52.96H90.7113V48.58H93.2313V52.864H94.1313V47.716H89.8593ZM95.4393 47.716V52.96H96.3033V48.58H99.0513V52.888H99.9513V47.716H95.4393ZM90.2433 51.448V52.312H93.5913V51.448H90.2433ZM95.8833 51.448V52.312H99.4473V51.448H95.8833ZM105.231 51.652V52.48H111.027V51.652H105.231ZM104.823 43.132V43.936H109.227V43.132H104.823ZM105.363 41.884C104.667 43.192 103.287 44.74 101.307 45.82C101.511 45.976 101.811 46.288 101.943 46.516C104.031 45.28 105.471 43.648 106.371 42.088L105.363 41.884ZM108.927 43.132V43.288C107.679 46.444 104.355 48.796 101.247 49.696C101.439 49.888 101.667 50.26 101.775 50.5C105.039 49.444 108.423 47.032 109.863 43.408L109.263 43.084L109.095 43.132H108.927ZM103.323 45.268C104.271 45.94 105.411 46.948 105.915 47.632L106.647 46.984C106.095 46.3 104.943 45.34 103.995 44.692L103.323 45.268ZM110.583 47.86V52.984H111.507V47.86H110.583ZM105.639 47.86H105.459L104.739 48.568V52.96H105.639V48.688H111.039V47.86H105.639ZM120.471 45.364V50.248H121.287V45.364H120.471ZM118.587 48.004V48.7H123.363V48.004H118.587ZM117.207 49.852V50.608H124.503V49.852H117.207ZM118.059 46.144V52.948H118.887V46.876H123.375V46.144H118.059ZM122.979 46.144V51.988C122.979 52.132 122.931 52.168 122.775 52.18C122.619 52.18 122.103 52.192 121.551 52.168C121.671 52.384 121.815 52.732 121.851 52.96C122.607 52.96 123.099 52.948 123.411 52.804C123.735 52.684 123.831 52.432 123.831 51.988V46.144H122.979ZM122.895 42.1C121.887 42.364 120.123 42.628 118.611 42.748C118.695 42.94 118.815 43.24 118.851 43.42C120.423 43.3 122.283 43.072 123.579 42.748L122.895 42.1ZM118.515 42.556C118.263 43.612 117.831 44.68 117.267 45.4C117.483 45.496 117.879 45.712 118.059 45.844C118.599 45.088 119.091 43.9 119.403 42.736L118.515 42.556ZM120.135 43.66C120.387 44.176 120.603 44.884 120.663 45.34L121.455 45.112C121.383 44.656 121.167 43.972 120.891 43.468L120.135 43.66ZM122.403 43.42C122.895 44.128 123.411 45.1 123.615 45.724L124.395 45.376C124.167 44.752 123.651 43.816 123.135 43.12L122.403 43.42ZM115.155 42.964V52.984H116.007V42.964H115.155ZM113.391 45.4V46.228H117.471V45.4H113.391ZM115.143 45.724C114.795 47.188 113.991 49.06 113.247 50.044C113.403 50.248 113.619 50.608 113.715 50.86C114.507 49.732 115.311 47.596 115.695 45.928L115.143 45.724ZM116.811 42.184C116.019 42.568 114.591 42.916 113.331 43.132C113.439 43.312 113.559 43.6 113.595 43.792C114.915 43.6 116.463 43.264 117.495 42.82L116.811 42.184ZM115.971 46.78L115.563 47.14C115.899 47.536 116.763 48.664 117.027 49.12L117.555 48.448C117.315 48.16 116.259 47.032 115.971 46.78ZM127.179 52.828L127.839 53.032L130.503 47.44L127.839 41.86L127.179 42.064L129.771 47.44L127.179 52.828ZM125.295 52.828L125.943 53.032L128.607 47.44L125.943 41.86L125.295 42.064L127.875 47.44L125.295 52.828ZM5.208 64.52V65.36H10.692V64.52H5.208ZM5.22 66.536V67.328H9.384V66.536H5.22ZM5.508 68.396V73.004H6.3V68.396H5.508ZM5.964 68.396V69.176H8.124V71.396H5.964V72.176H8.94V68.396H5.964ZM10.248 64.52V73.748C10.248 73.964 10.176 74.036 9.948 74.036C9.72 74.048 8.916 74.06 8.1 74.024C8.232 74.288 8.364 74.708 8.412 74.96C9.492 74.96 10.188 74.948 10.596 74.792C10.992 74.636 11.124 74.348 11.124 73.76V64.52H10.248ZM1.02 67.556V68.276H4.536V67.556H1.02ZM1.056 64.352V65.072H4.488V64.352H1.056ZM1.02 69.164V69.884H4.536V69.164H1.02ZM0.456 65.924V66.668H4.872V65.924H0.456ZM1.416 70.784V71.528H3.744V73.532H1.416V74.288H4.536V70.784H1.416ZM1.008 70.784V74.84H1.788V70.784H1.008ZM13.74 73.316V74.204H22.284V73.316H13.74ZM13.728 69.812V70.664H22.404V69.812H13.728ZM13.176 66.32V74.972H14.028V67.196H21.984V74.912H22.872V66.32H13.176ZM16.056 64.052V73.904H16.932V64.052H16.056ZM18.96 64.052V73.856H19.848V64.052H18.96ZM26.712 66.224V66.884H29.64V66.224H26.712ZM26.592 73.76V74.444H30.336V73.76H26.592ZM26.052 68.912V69.512H30.06V68.912H26.052ZM25.668 67.544V69.5C25.668 70.88 25.512 72.764 24.396 74.132C24.564 74.24 24.888 74.528 25.008 74.696C26.232 73.208 26.46 71.036 26.46 69.524V67.544H25.668ZM26.112 67.544V68.216H29.628V70.22H26.088V70.892H30.444V67.544H26.112ZM26.268 71.636V74.948H27.048V72.32H29.82V74.864H30.624V71.636H26.268ZM31.428 65.372V72.02H32.292V65.372H31.428ZM34.128 64.148V73.784C34.128 74 34.044 74.072 33.816 74.072C33.6 74.084 32.88 74.096 32.064 74.06C32.196 74.324 32.34 74.732 32.376 74.96C33.456 74.972 34.104 74.948 34.476 74.792C34.848 74.648 35.004 74.384 35.004 73.772V64.148H34.128ZM27.564 64.04C26.976 65.024 25.884 66.248 24.396 67.136C24.576 67.268 24.852 67.556 24.972 67.76C26.556 66.728 27.66 65.468 28.344 64.496V64.232H28.056V64.04H27.564ZM27.732 64.04V64.676H27.912C28.788 65.312 29.88 66.368 30.444 66.992L31.044 66.32C30.432 65.684 29.292 64.712 28.38 64.04H27.732ZM41.844 65.936L41.424 66.8H47.532V65.936H41.844ZM43.344 68.54V69.368H47.256V68.54H43.344ZM43.332 71.18V72.032H47.424V71.18H43.332ZM42.888 66.212V74.96H43.812V66.212H42.888ZM42.3 64.064C41.712 65.828 40.74 67.58 39.648 68.696C39.852 68.84 40.212 69.164 40.344 69.32C41.448 68.084 42.492 66.2 43.176 64.292L42.3 64.064ZM39.42 63.968C38.736 65.792 37.62 67.592 36.42 68.756C36.588 68.972 36.864 69.452 36.948 69.668C38.256 68.324 39.492 66.272 40.284 64.244L39.42 63.968ZM38.136 67.064V74.948H39.048V66.176L39.024 66.164L38.136 67.064Z" fill="white"/>
<path d="M202.929 25.1299L0 25.1299L0 26.0199L202.929 26.0199V25.1299Z" fill="white"/>
<path d="M207 22L190 22V29H207V22Z" fill="#00E0B8"/>
<path d="M12.32 6.074H7.826C7.602 5.514 7.238 4.786 6.916 4.212L5.964 4.52C6.216 4.996 6.482 5.57 6.692 6.074H1.806V7.04H12.32V6.074ZM13.202 10.61V9.63H9.604C9.94 8.958 10.318 8.104 10.626 7.348L9.548 7.082C9.338 7.824 8.918 8.888 8.554 9.63H4.732L5.418 9.378C5.292 8.79 4.858 7.838 4.452 7.124L3.5 7.418C3.864 8.104 4.242 9.028 4.396 9.63H0.812V10.61H6.44V12.794H1.484V13.788H6.44V17.078H7.49V13.788H12.614V12.794H7.49V10.61H13.202ZM17.066 7.236H18.088V6.214H20.062V5.304H18.088V4.282H17.066V5.304H14.266V6.214H17.066V7.236ZM18.116 8.706C19.026 8.552 19.88 8.356 20.566 8.118L19.838 7.39C18.606 7.824 16.31 8.146 14.392 8.328C14.504 8.538 14.63 8.888 14.672 9.112C15.442 9.056 16.296 8.958 17.136 8.846V10.47H14.266V11.394H16.8C16.1 12.878 14.966 14.362 13.916 15.132C14.126 15.314 14.434 15.664 14.616 15.888C15.498 15.132 16.422 13.914 17.136 12.584V17.064H18.116V12.878C18.788 13.466 19.614 14.25 19.978 14.656L20.622 13.858C20.272 13.536 18.704 12.318 18.116 11.898V11.394H20.65V10.47H18.116V8.706ZM21.378 14.488H22.372V8.09H21.378V14.488ZM24.626 15.79C24.626 16.014 24.542 16.07 24.304 16.084C24.094 16.098 23.324 16.098 22.498 16.07C22.638 16.35 22.806 16.784 22.848 17.078C23.94 17.078 24.64 17.064 25.074 16.882C25.48 16.714 25.634 16.434 25.634 15.804V7.404H24.626V15.79ZM23.716 5.304V4.282H22.694V5.304H20.636V6.214H22.694V7.264H23.716V6.214H26.558V5.304H23.716ZM36.708 10.008C36.064 9.462 34.804 8.58 33.838 7.978L33.852 7.922H36.708V7.11H34.062C34.132 6.76 34.174 6.382 34.216 5.99H33.32C33.292 6.382 33.236 6.76 33.166 7.11H30.758V7.922H32.942C32.564 8.846 31.892 9.532 30.59 9.98C30.772 10.12 30.996 10.428 31.08 10.624C32.312 10.176 33.068 9.532 33.544 8.692C34.468 9.322 35.532 10.092 36.12 10.624L36.708 10.008ZM37.548 10.932H29.96V5.724H37.548V10.932ZM38.64 4.828H28.938V11.814H38.64V4.828ZM32.774 12.5C33.488 13.172 34.272 14.138 34.622 14.768L35.49 14.264C35.14 13.62 34.328 12.71 33.6 12.066L32.774 12.5ZM28.448 16.35C29.148 15.496 29.666 14.124 30.016 13.046L29.12 12.71C28.812 13.746 28.238 15.034 27.524 15.846L28.448 16.35ZM32.802 15.86C32.004 15.86 31.864 15.776 31.864 15.384V12.668H30.828V15.398C30.828 16.504 31.22 16.812 32.732 16.812H35.602C36.904 16.812 37.226 16.35 37.366 14.46C37.072 14.39 36.638 14.236 36.4 14.068C36.33 15.622 36.218 15.86 35.532 15.86H32.802ZM36.946 12.836C37.8 13.83 38.668 15.216 38.976 16.126L39.928 15.65C39.592 14.74 38.696 13.396 37.828 12.416L36.946 12.836ZM44.0109 16H45.3129V11.394H49.2329V10.302H45.3129V6.83H49.9329V5.738H44.0109V16ZM53.8544 16.182C54.8904 16.182 55.7024 15.832 56.3744 15.398L55.9124 14.558C55.3524 14.936 54.7504 15.16 54.0084 15.16C52.5664 15.16 51.5724 14.124 51.4884 12.5H56.6124C56.6404 12.318 56.6684 12.052 56.6684 11.772C56.6684 9.602 55.5764 8.202 53.6444 8.202C51.8804 8.202 50.2144 9.742 50.2144 12.206C50.2144 14.712 51.8384 16.182 53.8544 16.182ZM51.4744 11.59C51.6284 10.092 52.5804 9.224 53.6584 9.224C54.8484 9.224 55.5484 10.05 55.5484 11.59H51.4744ZM59.4416 16.182C60.3796 16.182 61.2336 15.692 61.9616 15.09H62.0036L62.1156 16H63.1656V11.324C63.1656 9.448 62.3816 8.202 60.5336 8.202C59.3156 8.202 58.2376 8.748 57.5376 9.196L58.0416 10.078C58.6436 9.672 59.4416 9.266 60.3236 9.266C61.5696 9.266 61.8916 10.204 61.8916 11.184C58.6576 11.548 57.2156 12.374 57.2156 14.026C57.2156 15.398 58.1676 16.182 59.4416 16.182ZM59.8056 15.16C59.0496 15.16 58.4616 14.81 58.4616 13.942C58.4616 12.962 59.3296 12.332 61.8916 12.024V14.152C61.1496 14.81 60.5476 15.16 59.8056 15.16ZM67.1529 16.182C67.6149 16.182 68.1189 16.042 68.5529 15.902L68.3009 14.95C68.0489 15.048 67.6989 15.146 67.4329 15.146C66.5509 15.146 66.2569 14.614 66.2569 13.676V9.434H68.3149V8.398H66.2569V6.27H65.1929L65.0389 8.398L63.8489 8.468V9.434H64.9829V13.648C64.9829 15.174 65.5289 16.182 67.1529 16.182ZM70.1599 16.182C70.6639 16.182 71.0839 15.79 71.0839 15.216C71.0839 14.642 70.6639 14.222 70.1599 14.222C69.6559 14.222 69.2359 14.642 69.2359 15.216C69.2359 15.79 69.6559 16.182 70.1599 16.182ZM77.1172 11.198C77.6912 10.848 78.2092 10.428 78.6852 10.008C79.3992 10.344 80.1832 10.792 80.8412 11.198H77.1172ZM78.8532 4.87V5.71H79.7352V5.752C79.7352 6.424 79.6512 7.334 78.9232 8.09C78.6992 7.502 78.2092 6.746 77.7192 6.158L77.0612 6.494C77.2712 6.76 77.4812 7.096 77.6772 7.418L76.0672 8.062V5.892C76.9492 5.626 77.9012 5.29 78.6292 4.912L77.8872 4.282C77.2572 4.674 76.1512 5.108 75.1712 5.388V7.866C75.1712 8.342 74.9192 8.538 74.7512 8.622C74.8772 8.846 75.0592 9.238 75.1432 9.448V9.476C75.3672 9.28 75.7312 9.084 78.0552 8.104C78.1392 8.286 78.2232 8.468 78.2792 8.622L78.5172 8.496C78.7132 8.622 78.9512 8.818 79.0912 8.972L78.7832 8.846C77.8312 9.952 76.1092 10.988 74.5552 11.576C74.7652 11.772 74.9892 12.066 75.1292 12.29C75.6752 12.052 76.2352 11.744 76.7812 11.422V11.926H78.3072V12.822H75.4092V13.578H78.3072V15.706C76.9772 15.79 75.7872 15.874 74.8632 15.916L75.0172 16.756C76.9492 16.63 79.8472 16.448 82.5772 16.224L82.5912 15.426L80.8972 15.538C81.1072 15.076 81.3312 14.53 81.5272 14.012L80.6872 13.774C80.5332 14.292 80.2672 15.048 80.0432 15.594L79.2312 15.65V13.578H82.0732V12.822H79.2312V11.926H80.9112V11.24C81.3312 11.506 81.6952 11.744 81.9612 11.968L82.5352 11.324C81.8072 10.722 80.4212 9.966 79.2452 9.448C79.3292 9.35 79.4132 9.252 79.4832 9.154L79.1472 9C80.3792 8.062 80.5192 6.774 80.5192 5.794V5.71H81.8072C81.7092 7.502 81.6112 8.174 81.4852 8.37C81.4012 8.482 81.3172 8.496 81.1632 8.496C81.0372 8.496 80.7432 8.496 80.3932 8.454C80.5052 8.678 80.5892 9.028 80.6032 9.294C80.9672 9.322 81.3452 9.308 81.5552 9.28C81.8352 9.252 82.0172 9.168 82.1852 8.958C82.4512 8.636 82.5632 7.712 82.6752 5.262C82.6892 5.122 82.6892 4.87 82.6892 4.87H78.8532ZM76.0112 14.054C76.3052 14.572 76.5712 15.258 76.6692 15.706L77.4812 15.44C77.3692 15.02 77.0752 14.348 76.7672 13.844L76.0112 14.054ZM84.2992 5.864H83.3332V13.466H84.2992V5.864ZM85.8112 4.548V15.762C85.8112 15.986 85.7132 16.056 85.4892 16.07C85.2792 16.07 84.5512 16.07 83.7392 16.056C83.8792 16.35 84.0192 16.784 84.0612 17.078C85.1812 17.078 85.8392 17.05 86.2452 16.882C86.6372 16.7 86.8052 16.406 86.8052 15.762V4.548H85.8112ZM90.8932 14.04V10.316H92.5733V9.35H90.8932V6.214H92.6993V5.234H88.1352V6.214H89.8432V9.35H88.2892V10.316H89.8432V14.334C89.1432 14.53 88.4992 14.698 87.9672 14.838L88.1912 15.818C89.5212 15.426 91.2852 14.894 92.9792 14.39L92.8392 13.48L90.8932 14.04ZM96.3253 8.916V12.276H94.2813V8.916H96.3253ZM97.2353 13.2V7.992H93.3853V14.11H94.2813V13.2H97.2353ZM100.707 5.192H92.9092V6.2H98.6213V15.678C98.6213 15.93 98.5373 16 98.2713 16.014C97.9773 16.028 97.0253 16.028 96.0033 16C96.1713 16.294 96.3253 16.77 96.3953 17.05C97.6693 17.064 98.5233 17.036 98.9992 16.868C99.4753 16.7 99.6573 16.378 99.6573 15.678V6.2H100.707V5.192ZM108.995 10.68L112.005 4.408L111.249 4.156L108.141 10.68L111.249 17.204L112.005 16.952L108.995 10.68ZM111.207 10.68L114.217 4.408L113.461 4.156L110.353 10.68L113.461 17.204L114.217 16.952L111.207 10.68ZM126.593 4.646H125.529V6.13H121.595V4.296H120.545V6.13H116.597V4.646H115.561V7.012H126.593V4.646ZM116.177 11.94H117.759V12.808H116.177V11.94ZM116.177 10.498H117.759V11.338H116.177V10.498ZM120.167 11.338H118.557V10.498H120.167V11.338ZM120.167 12.808H118.557V11.94H120.167V12.808ZM121.301 15.118V14.292H118.641V13.466H121.021V9.826H118.641V8.972H121.217V8.188H118.641V7.264H117.689V8.188H115.113V8.972H117.689V9.826H115.351V13.466H117.689V14.292H114.805V15.118H117.689V17.078H118.641V15.118H121.301ZM127.391 10.946H122.925V9C124.325 8.846 125.907 8.608 126.971 8.258L126.453 7.432C125.375 7.81 123.541 8.09 121.987 8.258V11.184C121.987 12.766 121.861 14.908 120.839 16.476C121.049 16.588 121.455 16.91 121.595 17.106C122.575 15.636 122.855 13.536 122.911 11.856H124.731V17.078H125.697V11.856H127.391V10.946ZM134.503 5.752H132.291C132.109 5.29 131.801 4.688 131.507 4.212L130.499 4.478C130.695 4.856 130.933 5.332 131.115 5.752H128.371V6.62H134.503V5.752ZM130.681 8.622C130.625 8.104 130.387 7.32 130.107 6.718L129.281 6.914C129.519 7.53 129.743 8.342 129.813 8.86L130.681 8.622ZM129.449 12.906C129.169 13.816 128.679 14.768 128.133 15.426C128.343 15.538 128.693 15.804 128.861 15.93C129.379 15.23 129.967 14.138 130.303 13.144L129.449 12.906ZM134.559 12.164V11.268H132.025V9.798H134.713V8.916H132.935C133.201 8.328 133.467 7.572 133.719 6.9L132.767 6.704C132.599 7.348 132.277 8.272 132.011 8.916H128.147V9.798H131.003V11.268H128.217V12.164H131.003V17.022H132.025V12.164H134.559ZM132.655 13.2C133.075 13.872 133.579 14.838 133.803 15.44L134.545 15.02C134.307 14.418 133.817 13.508 133.369 12.822L132.655 13.2ZM140.831 8.972H136.365V6.312C137.835 6.088 139.445 5.738 140.593 5.304L139.753 4.534C138.759 4.954 136.967 5.374 135.399 5.626V10.442C135.399 12.304 135.287 14.698 134.111 16.378C134.335 16.49 134.741 16.812 134.909 17.008C136.183 15.188 136.365 12.444 136.365 10.442V9.952H138.283V17.008H139.291V9.952H140.831V8.972ZM145.983 10.386H143.043V7.46H145.983V10.386ZM143.043 14.67V11.31H145.983V14.67H143.043ZM144.219 4.254C144.121 4.912 143.869 5.85 143.659 6.522H142.091V16.714H143.043V15.608H146.935V6.522H144.611C144.849 5.92 145.101 5.15 145.339 4.464L144.219 4.254ZM153.781 6.48H149.595C149.833 5.822 150.029 5.15 150.197 4.464L149.203 4.226C148.755 6.144 147.999 8.076 147.061 9.308C147.285 9.448 147.733 9.728 147.915 9.896C148.405 9.238 148.839 8.384 149.231 7.446H152.787C152.605 13.018 152.395 15.146 151.933 15.636C151.793 15.818 151.639 15.846 151.359 15.846C151.037 15.846 150.197 15.846 149.287 15.762C149.483 16.056 149.609 16.476 149.637 16.784C150.421 16.826 151.219 16.854 151.709 16.798C152.185 16.756 152.507 16.63 152.815 16.238C153.375 15.552 153.557 13.396 153.781 7.012V6.48ZM151.569 12.78C151.121 11.954 150.155 10.61 149.371 9.616L148.559 10.092C149.329 11.1 150.267 12.486 150.687 13.326L151.569 12.78ZM164.309 8.776V12.234H161.635V8.776H164.309ZM165.373 13.2V8.776H167.459V7.768H165.373V4.52H164.309V7.768H161.635V4.352H160.613V7.768H158.065V4.674H156.987V7.768H154.957V8.776H156.987V16.168H167.067V15.146H158.065V8.776H160.613V13.2H165.373ZM171.953 13.018C171.953 14.068 171.701 15.426 169.265 16.336C169.489 16.532 169.825 16.896 169.979 17.162C172.681 16.07 173.003 14.39 173.003 13.06V12.206H171.953V13.018ZM170.833 7.936H174.039V9.448H170.833V7.936ZM170.833 5.626H174.039V7.11H170.833V5.626ZM178.295 7.11H175.061V5.626H178.295V7.11ZM178.295 9.448H175.061V7.936H178.295V9.448ZM179.359 10.33V4.744H169.811V10.33H172.597C171.533 11.422 169.853 12.36 168.243 12.822C168.481 13.032 168.775 13.41 168.943 13.676C170.777 13.032 172.709 11.8 173.857 10.33H175.397C175.929 11.03 176.643 11.66 177.413 12.206H176.377V17.05H177.441V12.22C178.323 12.822 179.303 13.312 180.297 13.62C180.437 13.354 180.745 12.948 180.983 12.738C179.317 12.318 177.665 11.422 176.615 10.33H179.359ZM184.413 17.204L187.521 10.68L184.413 4.156L183.657 4.408L186.667 10.68L183.657 16.952L184.413 17.204ZM182.201 17.204L185.309 10.68L182.201 4.156L181.445 4.408L184.455 10.68L181.445 16.952L182.201 17.204Z" fill="#00E0B8"/>
</svg>
