<?xml version="1.0" encoding="utf-8"?>
<!-- Generator: Adobe Illustrator 26.0.3, SVG Export Plug-In . SVG Version: 6.00 Build 0)  -->
<svg version="1.1" id="圖層_1" xmlns="http://www.w3.org/2000/svg" xmlns:xlink="http://www.w3.org/1999/xlink" x="0px" y="0px"
	 viewBox="0 0 132 28" style="enable-background:new 0 0 132 28;" xml:space="preserve">
<style type="text/css">
	.st0{fill-rule:evenodd;clip-rule:evenodd;fill:url(#SVGID_1_);}
</style>
<path d="M16.8,22.9c0,0.3-0.1,0.3-0.4,0.3c-0.3,0-1.1,0-1.8,0c0.7-0.6,1.5-1.2,2.2-1.8V22.9z M22.7,14.3c-0.6,1-1.5,2.3-2.3,3.3
	l-0.1-0.1v-3.2H22.7z M5.4,8.2C6,7.4,6.5,6.7,7.1,5.9c0.8,0.8,1.5,1.6,2.2,2.3H5.4z M16.6,7.5l0.2-0.9h3.5l-0.2,0.9H16.6z
	 M26.5,22.2c-0.9-0.8-2.4-1.9-3.8-3c1-0.9,2.1-2.2,3.2-3.4l-2.7-1.5h3V11H23c0.5-2.2,1-4.7,1.3-7l-2.6-0.3l-0.6,0.1h-3.6L18,2
	l-3.5-0.4C13.9,4.4,13,8,12.3,10.3h7.4L19.5,11h-8v3.3h2.1l-2.2,1.4c0.9,1,2.1,2.4,2.6,3.4l2.7-1.8c-0.5-0.8-1.6-2-2.5-2.9h2.7v3.5
	c-2.1,1.5-4.3,3-5.8,3.9l0-0.5l-2.7,0.4v-5.7h2.9v-3.2H8.3v-1.4h1.6V8.8c0.3,0.3,0.6,0.7,0.8,0.9l2.1-2.4c-0.9-1-2.7-2.7-4.1-4
	C8.7,3,8.9,2.8,9,2.5L6.2,1.5c-1.1,2.3-3,4.5-4.8,6c0.4,0.9,1,3,1.1,3.8c0.4-0.3,0.8-0.7,1.2-1.1v1.1h1.6v1.4H2v3.2h3.2v6.1
	c-1.4,0.2-2.7,0.4-3.7,0.5l0.7,3.4c2.5-0.5,5.8-1.1,8.9-1.7l-0.1-1.8l1.7,2.4c0.6-0.4,1.2-0.9,1.8-1.4c0.4,0.9,0.9,2.2,1,3.1
	c1.5,0,2.7-0.1,3.6-0.6c1-0.5,1.2-1.4,1.2-2.9v-1.6c1.5,1.2,3,2.4,3.9,3.3L26.5,22.2z M1.8,16.8c0.3,1.4,0.7,3.2,0.8,4.4l2.5-0.7
	c-0.2-1.1-0.5-2.9-0.9-4.3L1.8,16.8z M10.5,20.8c0.4-1,0.8-2.7,1.2-4.1l-2.3-0.5c-0.1,1.2-0.5,3-0.8,4.2L10.5,20.8z"/>
<path d="M45.1,17.1v1.2h-10v-1.2H45.1z M35.1,22.4v-1.3h10v1.3H35.1z M31.3,26.4h3.8v-0.8h10v0.8h4V14H31.3V26.4z M43.5,6.9
	c-0.2,0.8-0.5,1.8-0.8,2.5h-5.1c-0.2-0.8-0.6-1.7-1-2.5H43.5z M46.8,9.5l1-2.1l-2.3-0.5h5.1V3.6h-8.2c-0.2-0.8-0.6-1.6-1-2.3l-4,0.6
	c0.3,0.5,0.5,1.1,0.7,1.7h-8.4v3.3h5.4l-2.4,0.4C33,8,33.3,8.8,33.5,9.5h-5.3v3.4h23.5V9.5H46.8z"/>
<path d="M73.7,7v1.2H58.1V7H73.7z M63.1,13.2c0.8-0.6,1.5-1.2,2.2-1.8h4l-1,0.6c0.3,0.2,0.6,0.5,0.9,0.8L63.1,13.2z M57.5,11.4h3
	c-0.7,0.6-1.4,1.1-1.7,1.3c-0.7,0.5-1.2,0.8-1.9,0.9c0.4,0.9,0.9,2.5,1.1,3.2c1.1-0.4,2.7-0.6,13.9-1.5c0.5,0.6,1,1.1,1.4,1.6l3-2
	c-0.8-1-2.3-2.4-3.7-3.5h2.1V8.8h3V3.6h-9.1c-0.3-0.8-0.7-1.7-1.1-2.4l-3.7,1c0.2,0.4,0.4,0.9,0.5,1.3h-9.8v5.3h3V11.4z M67.9,22.3
	v-1.5h7.8v-3.2h-7.8V16H64v1.6h-7.3v3.2H64v1.5h-9.5v3.3h23.2v-3.3H67.9z"/>
<path d="M84.1,6.5h15.6v1.9h3.5V3.6h-9.5c-0.3-0.7-0.7-1.6-1-2.2l-3.3,0.9c0.2,0.4,0.4,0.9,0.6,1.4h-9.3v4.8h3.4V6.5z M87.1,20.4
	h9.8V21h-9.8V20.4z M87.1,18.2h9.8v0.6h-9.8V18.2z M87.1,15.9h9.8v0.5h-9.8V15.9z M100.7,22.8v-8.7H83.4v8.7h2.7c-1.8,0.5-4,1-6,1.2
	c0.7,0.7,1.5,1.8,2,2.5c3.1-0.4,6.9-1.4,9.1-2.6l-1.6-1.2h4.2L92.8,24c3,0.8,6.1,1.8,7.9,2.5l2.6-2.3c-1.3-0.4-3-0.9-4.9-1.5H100.7z
	 M93.2,11.8l0.1-0.5h2.4l-0.1,0.5H93.2z M87.6,11.2h2.6l-0.1,0.5h-2.6L87.6,11.2z M90.4,8.9l-0.1,0.5h-2.6l0.1-0.5H90.4z M95.8,9.4
	h-2.4l0.1-0.5h2.4L95.8,9.4z M99.4,9l0.2-1.9H84.8L84.5,9h-4.5v2.6h4.1l-0.3,1.9h15l0.2-1.9h5V9H99.4z"/>
<path d="M130.3,6.4c-0.4-1.2-1.4-3-2.3-4.4l-2.9,1.5c0.9,1.4,1.8,3.4,2.1,4.6L130.3,6.4z M116.6,5.7h-0.8V4.6h0.8V5.7z M119.4,2.3
	h-6.1v5.8h6.1V2.3z M109.7,5.7h-0.8V4.6h0.8V5.7z M112.4,2.3h-6.1v5.8h6.1V2.3z M127.1,11.8c-0.4,1.3-1,2.7-1.6,3.9
	c-0.2-1.1-0.3-2.3-0.4-3.6L127.1,11.8z M109.7,15h1.5v0.9h-1.5V15z M109.7,11.5h1.5v0.9h-1.5V11.5z M115.9,12.5h-1.6v-0.9h1.6V12.5z
	 M115.9,15.9h-1.6V15h1.6V15.9z M127.2,11.8l3.3-0.4l-0.4-3.5l-5.3,0.6c-0.1-2.1-0.2-4.3-0.2-6.7h-3.6c0.1,2.5,0.1,4.9,0.3,7.1
	l-2,0.2l0.4,3.5l1.8-0.2c0.2,2.8,0.6,5.3,1,7.3c-0.9,1-1.8,1.8-2.9,2.5v-2.7h-5.2v-1h4.6V8.8h-12.6v9.8h4.4v1h-5.4v3.3h5.4v3.4h3.6
	v-3.4h4.1c-0.3,0.2-0.7,0.4-1,0.5c1,0.7,2.1,1.8,2.7,2.6c1.2-0.7,2.3-1.6,3.4-2.6c0.9,1.8,2,2.8,3.5,2.9c1.1,0,2.7-0.9,3.4-5.7
	c-0.6-0.3-2.1-1.4-2.7-2.2c-0.1,2.2-0.3,3.3-0.7,3.3c-0.3,0-0.7-0.5-0.9-1.4c1.5-2.2,2.8-4.6,3.6-7.1L127.2,11.8z"/>
<linearGradient id="SVGID_1_" gradientUnits="userSpaceOnUse" x1="62.3095" y1="34.2985" x2="69.3928" y2="-2.0338" gradientTransform="matrix(1 0 0 -1 0 30)">
	<stop  offset="0" style="stop-color:#FFF176"/>
	<stop  offset="1" style="stop-color:#00E0B8"/>
</linearGradient>
<path class="st0" d="M16.2,23.2c0.1,0,0.2,0,0.3,0c0.3,0,0.4-0.1,0.4-0.3v-1.5c-0.3,0.3-0.7,0.6-1,0.8c0,0,0,0,0,0
	c-0.2,0.1-0.3,0.3-0.5,0.4c-0.2,0.2-0.5,0.4-0.7,0.6c0,0,0,0,0,0c0.3,0,0.7,0,1,0C15.9,23.2,16,23.2,16.2,23.2z M13.4,20.1
	c0.3-0.2,0.6-0.4,0.9-0.6c0.8-0.6,1.7-1.2,2.5-1.8v-3.5h-2.7c0.2,0.2,0.3,0.3,0.5,0.5c0.2,0.2,0.3,0.3,0.5,0.5
	c0.2,0.3,0.5,0.5,0.7,0.8c0.1,0.1,0.2,0.2,0.3,0.3c0.2,0.3,0.4,0.6,0.6,0.8L14,19c-0.1-0.1-0.1-0.2-0.2-0.4
	c-0.1-0.1-0.2-0.3-0.3-0.5c-0.2-0.3-0.5-0.7-0.8-1.1c-0.1-0.1-0.1-0.2-0.2-0.3c-0.1-0.1-0.2-0.2-0.2-0.3c0-0.1-0.1-0.1-0.1-0.2
	c-0.1-0.1-0.1-0.2-0.2-0.3c-0.1-0.1-0.2-0.2-0.3-0.4c0-0.1-0.1-0.1-0.1-0.2l2.2-1.4h-2.1V11h8l0.2-0.7h-7.4c0-0.1,0.1-0.2,0.1-0.3
	c0.1-0.2,0.1-0.5,0.2-0.7c0-0.2,0.1-0.3,0.1-0.5C12.8,8.4,13,8,13.1,7.6c0.1-0.3,0.1-0.5,0.2-0.8c0-0.1,0.1-0.2,0.1-0.3
	c0.4-1.6,0.8-3.4,1.1-4.9L18,2l-0.4,1.8h3.6l0.6-0.1L24.3,4c0,0.3-0.1,0.7-0.2,1c-0.3,1.7-0.6,3.4-1,5.1c-0.1,0.3-0.1,0.7-0.2,1h3.1
	v3.3h-3l2.7,1.5c-0.2,0.2-0.4,0.4-0.6,0.7c0,0-0.1,0.1-0.1,0.1c-0.6,0.7-1.3,1.3-1.8,1.9c-0.2,0.3-0.5,0.5-0.7,0.7
	c0.3,0.2,0.5,0.4,0.8,0.6c0.8,0.6,1.6,1.2,2.3,1.7c0.3,0.2,0.5,0.4,0.8,0.6l-2.2,2.5c-0.2-0.2-0.5-0.4-0.7-0.7
	c-0.6-0.6-1.4-1.2-2.2-1.9c-0.3-0.3-0.7-0.5-1-0.8v1.6c0,1.5-0.2,2.4-1.2,2.9c-0.9,0.5-2.1,0.6-3.6,0.6c-0.1-0.6-0.3-1.4-0.6-2.2
	c0,0,0,0,0,0c-0.1-0.3-0.2-0.6-0.4-0.9c0,0,0-0.1,0-0.1c-0.3,0.2-0.5,0.4-0.7,0.6c0,0,0,0-0.1,0c-0.1,0.1-0.1,0.1-0.2,0.2
	c0,0-0.1,0.1-0.1,0.1c-0.2,0.2-0.4,0.4-0.7,0.5l-1.7-2.4l0.1,1.8c0,0,0,0,0,0c-3.1,0.6-6.3,1.2-8.8,1.7l-0.7-3.4c0,0,0.1,0,0.1,0
	c0.3,0,0.5-0.1,0.8-0.1c0,0,0,0,0.1,0c0.8-0.1,1.7-0.2,2.7-0.4v-6.1H2v-3.2h3.2v-1.4H3.6v-1.1c-0.1,0.1-0.2,0.2-0.3,0.3
	c-0.2,0.2-0.5,0.4-0.7,0.6c-0.1,0-0.1,0.1-0.2,0.1c0-0.3-0.1-0.7-0.2-1.1C2,9.2,1.6,8,1.4,7.4c1.8-1.5,3.7-3.7,4.8-6L9,2.5
	C8.9,2.8,8.7,3,8.6,3.3l0.1,0.1c1.2,1.1,2.6,2.4,3.6,3.4c0.2,0.2,0.3,0.4,0.5,0.5l-2.1,2.4c-0.1-0.2-0.3-0.4-0.4-0.6
	C10.1,9.1,10,9,10,8.9c0,0-0.1-0.1-0.1-0.2v2.5H8.3v1.4h2.9v3.2H8.3v5.7l2.7-0.4l0,0.5c0,0,0,0,0,0c0.1-0.1,0.2-0.1,0.3-0.2
	c0.1-0.1,0.2-0.1,0.2-0.2c0.1-0.1,0.2-0.1,0.3-0.2c0,0,0,0,0.1,0C12.4,20.7,12.9,20.4,13.4,20.1z M12.9,19.2
	c-0.2-0.3-0.4-0.6-0.6-0.9c0,0.1-0.1,0.2-0.1,0.3c-0.1,0.4-0.2,0.9-0.4,1.3C12.2,19.7,12.5,19.5,12.9,19.2z M10.7,20.1
	c0.2-0.5,0.3-1.1,0.5-1.7c0.1-0.3,0.2-0.5,0.2-0.8c0-0.1,0.1-0.2,0.1-0.3c0.1-0.2,0.1-0.4,0.2-0.5c0-0.1,0-0.1,0.1-0.2l-2.3-0.5
	c0,0.2-0.1,0.5-0.1,0.7c0,0,0,0,0,0c0,0.1,0,0.2,0,0.3c-0.2,1.1-0.4,2.3-0.6,3.2l1.9,0.5c0,0,0,0,0,0c0,0,0,0,0,0
	C10.6,20.6,10.6,20.4,10.7,20.1C10.7,20.1,10.7,20.1,10.7,20.1z M8.3,7.2C8.1,7,8,6.8,7.8,6.6C7.5,6.4,7.3,6.1,7.1,5.9
	C6.9,6.2,6.7,6.4,6.5,6.7C6.4,6.9,6.3,7,6.2,7.2c-0.2,0.3-0.5,0.7-0.8,1h3.9C9.1,8,9,7.9,8.8,7.7C8.7,7.5,8.5,7.4,8.3,7.2z
	 M12.5,5.6c0.4-1.4,0.7-2.9,0.9-4.2l0.2-0.9l5.5,0.6l-0.4,1.6h2.3l0.6-0.1l3.8,0.5l-0.1,1c-0.3,1.9-0.7,4-1.1,5.9h2.9v5.3h-0.1
	l0.4,0.2l-0.9,0.9c-0.2,0.2-0.4,0.4-0.6,0.7c-0.6,0.7-1.3,1.3-1.8,1.9c1.1,0.9,2.2,1.7,3,2.4l0.8,0.7l-3.6,4l-0.7-0.7
	c-0.5-0.5-1.3-1.2-2.2-2c0,0.6-0.1,1.2-0.3,1.7c-0.3,0.7-0.7,1.2-1.4,1.6c-1.2,0.6-2.6,0.7-4.1,0.7h-0.9l-0.1-0.9
	c-0.1-0.5-0.2-1.1-0.4-1.6c-0.3,0.2-0.5,0.4-0.8,0.6l-0.8,0.6L11.8,25L11.4,25c-3.1,0.6-6.3,1.2-8.9,1.7l-1,0.2l-1.2-5.4l1.1-0.1
	c0,0,0.1,0,0.1,0l0-0.1c-0.1-1.1-0.4-2.9-0.8-4.2l-0.2-1L1,16v-4.3h0.5l0-0.4c0-0.3-0.2-0.9-0.4-1.7C0.9,8.9,0.6,8.2,0.5,7.8
	L0.2,7.1l0.6-0.5C2.5,5.3,4.3,3.2,5.3,1l0.4-0.8L10.3,2l-0.4,1c0,0,0,0.1,0,0.1C10.7,3.9,11.7,4.8,12.5,5.6z M1.8,16.8
	c0.3,1,0.5,2.3,0.7,3.4c0.1,0.4,0.1,0.7,0.1,1l2.5-0.7c-0.1-1-0.4-2.4-0.8-3.6c0-0.1-0.1-0.3-0.1-0.4c0-0.1,0-0.2-0.1-0.2L1.8,16.8
	C1.8,16.8,1.8,16.8,1.8,16.8z M20.3,14.3v3.2l0.1,0.1c0,0,0-0.1,0.1-0.1c0.3-0.3,0.6-0.7,0.8-1.1c0.3-0.4,0.5-0.8,0.8-1.1
	c0.1-0.1,0.1-0.2,0.2-0.3c0.1-0.2,0.3-0.4,0.4-0.7H20.3z M16.6,7.5l0.2-0.9h3.5l-0.2,0.9H16.6z M30.3,27.4V13.8h-3V8.5h4.8
	c-0.1-0.2-0.2-0.4-0.2-0.5h-3.2V2.6h8c0-0.1-0.1-0.2-0.1-0.3l-0.7-1.3l6-0.9l0.3,0.6c0.3,0.5,0.6,1.2,0.9,1.8h8.5v5.3h-3l-0.3,0.5
	h4.4v5.4H50v13.5h-6v-0.8h-8v0.8H30.3z M46.8,9.5l1-2.1l-2.3-0.5h5.1V3.6h-8.2c-0.2-0.8-0.6-1.6-1-2.3l-4,0.6
	c0.1,0.2,0.2,0.5,0.3,0.7c0,0.1,0.1,0.2,0.1,0.2c0.1,0.3,0.2,0.5,0.3,0.8h-8.5v3.3h5.4l-2.4,0.4c0.1,0.2,0.2,0.4,0.3,0.6
	C33,8,33.1,8.2,33.1,8.3c0,0.1,0,0.1,0.1,0.2c0.1,0.3,0.2,0.7,0.3,1h-5.3v3.4h23.5V9.5H46.8z M31.3,26.4V14H49v12.3h-4v-0.8h-10v0.8
	H31.3z M43.5,6.9h-6.9c0.2,0.3,0.3,0.7,0.5,1c0.2,0.5,0.4,1.1,0.5,1.5h5.1c0.2-0.5,0.3-1,0.5-1.5C43.3,7.6,43.4,7.2,43.5,6.9z
	 M42.2,7.9h-4c0.1,0.2,0.1,0.4,0.2,0.5H42C42.1,8.3,42.1,8.1,42.2,7.9z M73.7,7H58.1v1.2h15.5V7z M57.5,8.8h-3V3.6h9.8
	c-0.1-0.1-0.1-0.3-0.2-0.4C64,3,63.9,2.8,63.8,2.6c0-0.1-0.1-0.2-0.1-0.3l3.7-1c0.4,0.7,0.8,1.6,1.1,2.4h9.1v5.3h-3v2.6h-2.1
	c0.4,0.3,0.8,0.7,1.2,1c0.7,0.6,1.3,1.2,1.9,1.8c0.2,0.3,0.5,0.5,0.7,0.8l-3,2c-0.1-0.1-0.2-0.2-0.3-0.3c-0.3-0.4-0.7-0.8-1.1-1.2
	c-1.1,0.1-2.1,0.2-3,0.2c-0.3,0-0.7,0.1-1,0.1c-1.5,0.1-2.8,0.2-3.9,0.3c-0.2,0-0.3,0-0.5,0c-0.2,0-0.3,0-0.5,0
	c-2.2,0.2-3.3,0.3-4.1,0.5c-0.1,0-0.2,0-0.2,0c-0.3,0.1-0.5,0.1-0.7,0.2c0-0.1,0-0.1-0.1-0.2c-0.1-0.2-0.1-0.5-0.2-0.7
	c-0.1-0.4-0.3-0.9-0.4-1.3c-0.1-0.4-0.2-0.7-0.4-1c0.3-0.1,0.6-0.2,0.9-0.3c0.3-0.2,0.6-0.4,0.9-0.6c0.1-0.1,0.2-0.2,0.4-0.3
	c0.3-0.2,0.8-0.6,1.3-1h-3V8.8z M56.5,9.8h-3V2.6h9.3l-0.4-1l5.5-1.6l0.4,0.7c0.3,0.6,0.7,1.2,0.9,1.9h9.4v7.3h-3v2.6h-0.4
	c0.7,0.7,1.3,1.3,1.8,1.9l0.7,0.8l-2.1,1.4h1.2v4.7h2v1.8l1.4-0.2c0.7-0.1,1.5-0.2,2.3-0.3v-9.6H83l0.1-0.5h-4V8h0.7V2.6h8.7l-0.4-1
	l5.2-1.4l0.4,0.7c0.3,0.5,0.6,1.1,0.9,1.7h9.8V8h0.8v4.6H100l0,0.5h1.7v9.6c0.7,0.2,1.3,0.4,1.9,0.6l1,0.3v-5h1V9.1h-0.3V1.3h14.8
	l0-0.5h5.6v1c0,0.1,0,0.1,0,0.2l2.6-1.3l0.5,0.7c0.9,1.4,2,3.3,2.4,4.7l0.2,0.8L131,7.1l0.6,5.1l-1.2,0.2l0.8,0.5l-0.3,0.8
	c-0.5,1.5-1.1,3-1.9,4.5c0.2,0.2,0.6,0.5,1,0.8c0.5,0.4,1,0.7,1.3,0.8l0.6,0.3l-0.1,0.7c-0.4,2.5-1,4.1-1.7,5.1
	c-0.8,1.1-1.8,1.5-2.7,1.4l0,0l0,0c-1.6-0.1-2.8-1-3.7-2.3c-0.8,0.7-1.7,1.4-2.6,1.9l-0.8,0.5l-0.5-0.7c-0.5-0.8-1.6-1.8-2.5-2.4
	l-0.5-0.3h-1.1v3.4H110v-3.4h-4.8l-4.3,3.7l-0.6-0.2c-1.8-0.7-4.8-1.7-7.8-2.5l-0.6-0.2l-0.2,0.1c-2.4,1.2-6.2,2.3-9.4,2.7l-0.6,0.1
	l-0.3-0.5c-0.4-0.6-1.2-1.7-1.9-2.4l-0.8-0.9v2.8H53.5v-5.3h2.3v-4.7h1.1c-0.2-0.8-0.6-1.9-0.9-2.6l-0.5-1.2l1.2-0.2
	c0.2,0,0.4-0.1,0.6-0.2h-0.9V9.8z M56.7,17.6v3.2H64v1.5h-9.5v3.3h23.2v-3.3h-9.8v-1.5h7.8v-3.2h-7.8V16H64v1.6H56.7z M68.9,16.6
	c0.8-0.1,1.6-0.1,2.6-0.2c0.1,0.1,0.1,0.1,0.2,0.2H68.9z M93.8,24.3c2.6,0.8,5.2,1.6,6.8,2.2l2.6-2.3c-0.3-0.1-0.7-0.2-1.1-0.4
	c-0.1,0-0.3-0.1-0.4-0.1c-0.3-0.1-0.7-0.2-1-0.3c-0.7-0.2-1.5-0.4-2.4-0.7h2.4v-8.7H83.4v8.7h2.7c-0.8,0.3-1.8,0.5-2.7,0.7
	c-0.3,0.1-0.7,0.1-1,0.2c-0.3,0.1-0.7,0.1-1,0.2C81,23.9,80.6,24,80.2,24c0.2,0.3,0.5,0.6,0.8,0.9c0.5,0.6,0.9,1.2,1.2,1.6
	c2.7-0.4,5.8-1.1,8.1-2.1c0.4-0.2,0.7-0.3,1-0.5l-1.6-1.2h4.2L92.8,24c0.1,0,0.2,0.1,0.3,0.1C93.3,24.1,93.6,24.2,93.8,24.3z
	 M118.7,22.9C118.7,22.9,118.7,22.9,118.7,22.9c-0.3,0.2-0.7,0.4-1,0.5c0.2,0.1,0.4,0.3,0.6,0.5c0.1,0.1,0.2,0.1,0.2,0.2
	c0.7,0.6,1.4,1.3,1.9,1.9c0.9-0.5,1.8-1.2,2.6-1.9c0.3-0.2,0.5-0.5,0.8-0.7c0.2,0.3,0.3,0.6,0.5,0.9c0.8,1.2,1.8,1.9,3,2
	c1.1,0,2.7-0.9,3.4-5.7c-0.4-0.2-1.1-0.7-1.8-1.2c-0.2-0.1-0.3-0.3-0.5-0.4c-0.2-0.2-0.3-0.3-0.5-0.5c0,0.5-0.1,1-0.1,1.4
	c0,0,0,0.1,0,0.1c-0.1,1.3-0.3,1.9-0.6,1.9c-0.2,0-0.4-0.2-0.6-0.7c0,0,0,0,0,0c-0.1-0.2-0.2-0.4-0.3-0.7c0.2-0.3,0.4-0.5,0.5-0.8
	c0.1-0.2,0.2-0.3,0.3-0.5c0,0,0-0.1,0.1-0.1c0.1-0.2,0.2-0.4,0.3-0.5c0.2-0.4,0.5-0.8,0.7-1.3c0.7-1.3,1.2-2.6,1.6-3.9l-2.8-1.5
	l3.3-0.4l-0.4-3.5l-5.3,0.6c0-0.3,0-0.7,0-1c0-0.9-0.1-1.8-0.1-2.8c0-0.3,0-0.7,0-1c0-0.4,0-0.7,0-1.1c0,0,0,0,0,0
	c0-0.2,0-0.5,0-0.7h-3.6c0,0.3,0,0.7,0,1c0.1,2.2,0.1,4.2,0.2,6.1l-2,0.2l0.4,3.5l1.8-0.2c0,0.3,0.1,0.7,0.1,1
	c0.2,2.4,0.5,4.5,0.9,6.3c-0.6,0.6-1.2,1.2-1.9,1.8c-0.2,0.1-0.3,0.3-0.5,0.4c-0.2,0.1-0.3,0.2-0.5,0.4v-2.7h-5.2v-1h4.6V8.8h-12.6
	v9.8h4.4v1h-5.4v3.3h5.4v3.4h3.6v-3.4H118.7z M112.4,8.1V2.3h-6.1v5.8H112.4z M113.2,8.1h6.1V2.3h-6.1V8.1z M120.1,13.6v5h0.6v1.6
	c0.3-0.2,0.5-0.5,0.8-0.8c-0.3-1.7-0.6-3.7-0.8-5.9L120.1,13.6z M125.8,6.9c0,0.2,0,0.3,0,0.5l0.2,0C125.9,7.2,125.8,7.1,125.8,6.9z
	 M127.2,8c-0.1-0.2-0.2-0.5-0.3-0.8c0-0.1,0-0.1-0.1-0.2c-0.3-0.8-0.7-1.8-1.2-2.6c0-0.1-0.1-0.1-0.1-0.2c-0.2-0.3-0.3-0.6-0.5-0.9
	L128,2c0.9,1.4,2,3.2,2.3,4.4L127.2,8z M127.1,11.8c0,0.1-0.1,0.3-0.1,0.4c-0.1,0.2-0.1,0.3-0.2,0.5c0,0,0,0.1-0.1,0.1
	c-0.1,0.4-0.3,0.8-0.5,1.2c-0.2,0.6-0.5,1.1-0.8,1.6c-0.1-0.6-0.2-1.2-0.2-1.8c-0.1-0.6-0.1-1.2-0.2-1.8L127.1,11.8z M99.1,11.7h5V9
	h-4.7l0.2-1.9H84.8L84.5,9h-4.5v2.6h4.1l-0.3,1.9h15L99.1,11.7z M84.1,8.5V6.5h15.6v1.9h3.5V3.6h-9.5c-0.3-0.7-0.7-1.6-1-2.2
	l-3.3,0.9c0,0,0,0.1,0.1,0.1c0,0.1,0.1,0.1,0.1,0.2c0.1,0.2,0.2,0.4,0.2,0.6C89.9,3.4,90,3.5,90,3.6h-9.3v4.8H84.1z M65.3,11.4
	c-0.3,0.2-0.5,0.5-0.8,0.7c-0.4,0.4-0.9,0.7-1.4,1.1l6.1-0.4c0,0-0.1-0.1-0.1-0.1c-0.1-0.1-0.2-0.2-0.3-0.3
	c-0.2-0.1-0.3-0.3-0.5-0.4l1-0.6H65.3z M96.9,20.4h-9.8V21h9.8V20.4z M96.9,18.2h-9.8v0.6h9.8V18.2z M96.9,15.9h-9.8v0.5h9.8V15.9z
	 M93.2,11.8l0.1-0.5h2.4l-0.1,0.5H93.2z M90.1,11.8l0.1-0.5h-2.6l-0.1,0.5H90.1z M90.4,8.9l-0.1,0.5h-2.6l0.1-0.5H90.4z M93.5,8.9
	l-0.1,0.5h2.4l0.1-0.5H93.5z M116.6,5.7h-0.8V4.6h0.8V5.7z M109.7,5.7h-0.8V4.6h0.8V5.7z M111.2,15h-1.5v0.9h1.5V15z M111.2,11.5
	h-1.5v0.9h1.5V11.5z M114.3,12.5h1.6v-0.9h-1.6V12.5z M114.3,15.9h1.6V15h-1.6V15.9z M45.1,17.1h-10v1.2h10V17.1z M35.1,22.4h10
	v-1.3h-10V22.4z"/>
</svg>
