<?xml version="1.0" encoding="utf-8"?>
<!-- Generator: Adobe Illustrator 26.0.3, SVG Export Plug-In . SVG Version: 6.00 Build 0)  -->
<svg version="1.1" id="圖層_1" xmlns="http://www.w3.org/2000/svg" xmlns:xlink="http://www.w3.org/1999/xlink" x="0px" y="0px"
	 viewBox="0 0 133 28" style="enable-background:new 0 0 133 28;" xml:space="preserve">
<style type="text/css">
	.st0{fill-rule:evenodd;clip-rule:evenodd;fill:url(#SVGID_1_);}
</style>
<path d="M7.4,7.8h14.9v3.3h4V4.1h-8.9c-0.3-0.9-0.8-2-1.2-2.8l-3.9,1.1c0.2,0.5,0.5,1.1,0.7,1.7H3.7v6.9h3.8V7.8z M21.4,12.6V9.2
	H8.3v3.5H21.4z M21,22.6c-0.8,0-0.9-0.1-0.9-1v-4.2h6.7v-3.5H3.3v3.5h6.1c-0.2,3.3-0.8,4.8-6.7,5.6c0.7,0.8,1.7,2.3,2,3.2
	c7.2-1.3,8.3-4.1,8.6-8.9h2.9v4.2c0,3.2,0.8,4.4,4.2,4.4h2.9c2.7,0,3.6-1.1,4-5c-1-0.2-2.6-0.8-3.4-1.4c-0.1,2.6-0.3,3-1,3H21z"/>
<path d="M33.8,14.7H37v-2.3c0.9,0.6,1.9,1.3,2.4,1.8l1.2-1.6c0.6,0.6,1.5,1.7,2,2.4H31.2c0.9-0.5,1.8-1.2,2.6-1.9V14.7z M32.7,8h1.1
	v1h-1.1V8z M38.1,8v1h-1V8H38.1z M37,11.1h0.6L37,11.8V11.1z M41,12.3c-0.4-0.4-1.1-0.8-1.7-1.2h1.8V8.4c0.6,0.6,1.3,1.4,1.6,1.9
	c0.3-0.3,0.6-0.6,0.9-0.9c0.3,0.5,0.7,1.1,1.1,1.6c-1.1,0.8-2.4,1.4-4.1,1.8L41,12.3z M47.6,7.1c-0.2,0.6-0.5,1.1-0.8,1.6
	c-0.5-0.5-0.9-1.1-1.2-1.6H47.6z M43.3,15.2c1.4-0.5,2.7-1.2,3.7-2c1,0.8,2.2,1.5,3.6,2H43.3z M42.8,21.8h6.3v-2.7h-6.3v-0.9h8.6
	v-2.8l0.1,0c0.4-0.9,1.4-2.3,2.1-2.9c-1.6-0.4-3-0.9-4.2-1.7c0.8-1.1,1.4-2.3,1.8-3.7h1.8v-3h-6.2c0.2-0.6,0.4-1.1,0.6-1.7l-3.4-0.8
	c-0.5,2-1.5,3.9-2.8,5.3V5.9H37V5.2h4.3V2.6H37v-1h-3.3v1h-4.5v2.6h4.5v0.6h-4v5.2h2.5c-1,0.8-2.3,1.5-3.6,2c0.6,0.5,1.5,1.4,2,2.2
	h-0.1v3H39v4.4h-2.8V19h-3.6v3.7h-3.6v3.1H53v-3.1H42.8V21.8z"/>
<path d="M74,9.8c-0.2,1.7-0.5,3.3-0.9,4.7c-0.5-1.5-0.9-3-1.1-4.7H74z M64.8,12.2l-0.7,0.2h-1.2c0.3-0.3,0.6-0.6,0.9-1h3
	c-0.3,0.5-0.7,1.1-1.1,1.5L64.8,12.2z M61.8,6.9H63c-0.3,0.4-0.7,0.9-1,1.3h-0.2V6.9z M79.3,9.8V6.3h-6.6c0.3-1.4,0.6-2.7,0.9-4.1
	l-3.8-0.6c-0.4,3.1-1.2,6.2-2.4,8.7v-2h-1.1c1-1.5,1.9-3.2,2.6-4.9l-3.5-1c-0.4,1.1-0.9,2.2-1.5,3.2V3.8h-2.2V1.6h-3.5v2.2h-2.7v3.1
	h2.7v1.3h-3.6v3.2h4c-1.4,1.1-2.9,2-4.4,2.7c0.8,0.7,2,2.2,2.5,2.9c1-0.5,1.9-1.1,2.8-1.7h1.9c-0.6,0.6-1.2,1.1-1.7,1.5v1.2
	c-1.9,0.1-3.7,0.2-5.1,0.3l0.4,3.3l4.8-0.4v1.4c0,0.3-0.1,0.3-0.4,0.3c-0.3,0-1.5,0-2.3,0c0.4,0.9,0.9,2.2,1,3.2c1.6,0,2.9,0,4-0.5
	c1-0.5,1.3-1.4,1.3-2.9v-1.7c1.4-0.1,2.8-0.2,4.2-0.3v-3.2c-1.4,0.1-2.8,0.2-4.2,0.3v-0.5c1.2-1,2.4-2.2,3.4-3.3
	c0.7,0.6,1.5,1.4,1.9,1.8c0.3-0.4,0.6-0.8,0.9-1.2c0.4,1.5,0.9,3,1.5,4.3c-1.3,1.7-3,3-5.3,4c0.7,0.8,1.8,2.6,2.2,3.5
	c2.1-1,3.8-2.3,5.2-3.9c1.1,1.5,2.4,2.8,4.1,3.8c0.6-1,1.8-2.5,2.6-3.3c-1.8-0.9-3.2-2.3-4.4-3.9c1.3-2.6,2.1-5.6,2.6-9.3H79.3z"/>
<path d="M88.4,16.4h9.4v1h-9.4V16.4z M97.8,5.8v0.9h-9.4V5.8H97.8z M97.8,12.9v0.9h-9.4v-0.9H97.8z M97.8,10.2h-9.4V9.3h9.4V10.2z
	 M105.1,20.8v-3.4h-3.3V2.8H84.6v14.6h-3.5v3.4h5.8c-1.7,1-4.2,2.1-6.3,2.7c0.9,0.7,2.1,1.9,2.7,2.7c2.6-0.8,5.8-2.4,7.9-3.8
	L89,20.8h7.4l-1.6,1.7c2.8,1.1,5.9,2.8,7.6,3.9l3-2.7c-1.5-0.8-3.8-1.9-6.2-2.9H105.1z"/>
<path d="M118.4,13.2v2.1h-3.9v-2.1H118.4z M117.6,22.3c-2.7,0-3-0.2-3-1.7v-1.9h7.6V9.9h-9.5c0.4-0.4,0.8-0.9,1.1-1.4h11.8
	c-0.1,5.1-0.3,7.1-0.7,7.6c-0.2,0.3-0.5,0.4-0.8,0.4c-0.4,0-1.1,0-1.8-0.1c0.5,1,0.9,2.5,1,3.6c1.2,0,2.3,0,3-0.2
	c0.8-0.2,1.4-0.5,2-1.4c0.7-1,1-4.2,1.2-12.1c0-0.4,0.1-1.5,0.1-1.5H116c0.4-0.8,0.8-1.5,1.1-2.3l-3.9-1.2c-1.4,3.4-4,6.7-6.8,8.7
	c0.9,0.7,2.4,2.1,3.1,2.9c0.4-0.3,0.8-0.7,1.2-1.1v8.8c0,4.1,1.5,5.1,6.7,5.1h7.8c4.3,0,5.5-1.1,6.1-4.9c-1.1-0.2-2.7-0.8-3.6-1.3
	c-0.3,2.3-0.7,2.7-2.8,2.7H117.6z"/>
<linearGradient id="SVGID_1_" gradientUnits="userSpaceOnUse" x1="62.2165" y1="34.0745" x2="69.3273" y2="-2.3503" gradientTransform="matrix(1 0 0 -1 0 30)">
	<stop  offset="0" style="stop-color:#FFF176"/>
	<stop  offset="1" style="stop-color:#00E0B8"/>
</linearGradient>
<path class="st0" d="M22.3,7.8H7.4v3.3H3.7V4.1h9.3c-0.1-0.3-0.2-0.5-0.3-0.8c0-0.1-0.1-0.2-0.1-0.2c-0.1-0.2-0.2-0.5-0.3-0.7
	l3.9-1.1c0.5,0.8,0.9,1.9,1.2,2.8h8.9v6.9h-4V7.8z M8.3,9.2v3.5h13.1V9.2H8.3z M22.4,12.1v0.9h4.5l-0.2-0.2l1.7-0.6
	c0.1,0,0.3-0.1,0.4-0.2V6.2h-0.5V1.6h4.5v-1H38v1h4.3v1.6C42.6,2.6,42.8,2,43,1.4l0.2-0.9l5.4,1.2l-0.3,1c0,0.1-0.1,0.3-0.1,0.4h5.7
	v4.1h0.8V2.8h2.7V0.6h5.5v2.2h1.4c0.1-0.3,0.2-0.6,0.4-0.9l0.3-0.9l3.8,1.2c0-0.2,0.1-0.5,0.1-0.7l0.1-1l5.8,0.9l-0.2,1
	c-0.2,1-0.4,2-0.6,3h6.3v5.5h-1.6c-0.5,3.1-1.2,5.8-2.3,8.2c1,1.3,2.2,2.4,3.7,3.1l0.5,0.3c0.6-0.2,1.2-0.4,1.8-0.6h-2.4v-5.4h3.5
	V1.8h19.2v14.6h3.3v5.4h-2.2c0.8,0.4,1.4,0.7,2,1l1.3,0.7l-4.6,4.1l-0.6-0.4c-1.7-1.1-4.7-2.7-7.4-3.8L93,22.9l1-1.1h-2l0.9,0.6
	l-1.2,0.8c-2.1,1.5-5.5,3.1-8.2,3.9L83,27.4l-0.4-0.5c-0.6-0.7-1.8-1.9-2.6-2.6l-0.1,0c-0.7,0.7-1.5,1.8-2,2.6l-0.5,0.9l-0.9-0.5
	c-1.4-0.9-2.6-1.9-3.7-3.1c-1.3,1.3-2.9,2.4-4.7,3.3l-1,0.5l-0.4-1c-0.2-0.4-0.5-1-0.9-1.6c-0.4-0.6-0.8-1.2-1.1-1.6L64.2,23
	c0,0.7-0.1,1.5-0.3,2.1c-0.3,0.7-0.8,1.2-1.5,1.6c-1.3,0.6-2.8,0.6-4.4,0.6h-0.9L57,26.4c-0.1-0.8-0.5-2-0.9-2.9l-0.4-0.9L54,22.8
	L54,22.3v4.5H28.1v-4.1c-0.2,1.3-0.6,2.3-1.2,3C26,26.7,24.7,27,23.3,27h-2.9c-1.7,0-3.2-0.3-4.1-1.3c-0.9-1-1.1-2.4-1.1-4.1v-3.2
	h-1c-0.2,2.1-0.6,3.9-1.9,5.4c-1.4,1.7-3.8,2.8-7.5,3.5L4,27.5l-0.3-0.9c-0.1-0.4-0.4-0.9-0.7-1.5c-0.3-0.6-0.7-1.1-1-1.4l-1.3-1.4
	l1.9-0.3c2.9-0.4,4.2-1,4.9-1.6c0.5-0.5,0.7-1.1,0.8-2h-6v-5.5h5v-0.9H2.7V3.1h8.8c0-0.1-0.1-0.2-0.1-0.3l-0.5-1.1l5.8-1.7L17,0.8
	c0.4,0.7,0.8,1.5,1.1,2.3h9.2v8.9H22.4z M9.4,17.4c0,0.4,0,0.7-0.1,1c-0.3,2.4-1.2,3.7-5.4,4.5C3.5,23,3.2,23,2.8,23.1
	C3,23.3,3.2,23.6,3.5,24c0.5,0.8,1,1.7,1.2,2.3c7.2-1.3,8.3-4.1,8.6-8.9h2.9v4.2c0,3.2,0.8,4.4,4.2,4.4h2.9c2.7,0,3.6-1.1,4-5
	c-0.7-0.2-1.6-0.5-2.4-0.9c-0.4-0.2-0.7-0.4-1-0.6c0,0.4,0,0.8-0.1,1.2c-0.1,1.6-0.3,1.8-0.9,1.8H21c-0.8,0-0.9-0.1-0.9-1v-4.2h6.7
	v-3.5H3.3v3.5H9.4z M21.1,18.4v3.1h1.6c0.1-0.3,0.1-0.9,0.2-2l0.1-1.1H21.1z M24.1,18.4l0.4,0.3c0.3,0.2,0.7,0.5,1.3,0.7
	c0.6,0.2,1.2,0.4,1.6,0.5l0.9,0.2l-0.1,0.9c0,0.2,0,0.4-0.1,0.5h3.5v-2.4h-2.2v-3.9c-0.4-0.6-1-1.2-1.4-1.5l-0.4-0.3v4.9H24.1z
	 M29.9,14.2c0.2,0.3,0.5,0.6,0.6,0.8c0,0.1,0.1,0.1,0.1,0.2h-0.1v3h8.5v4.4h-2.8V19h-3.6v3.7h-3.6v3.1H53v-3.1H42.8v-0.8h6.3v-2.7
	h-6.3v-0.9h8.6v-2.8l0.1,0c0,0,0,0,0,0c0.3-0.6,0.8-1.4,1.3-2.1c0.3-0.3,0.5-0.6,0.7-0.9c-0.4-0.1-0.7-0.2-1.1-0.3
	c-0.8-0.2-1.6-0.5-2.2-0.9c-0.3-0.2-0.6-0.3-0.9-0.5c0.2-0.3,0.4-0.5,0.5-0.8c0.5-0.9,0.9-1.8,1.2-2.9h1.8v-3h-6.2
	c0.1-0.3,0.2-0.5,0.3-0.8c0-0.1,0.1-0.2,0.1-0.2c0.1-0.2,0.2-0.5,0.2-0.7l-3.4-0.8C43.6,3,43,4.2,42.3,5.4c-0.1,0.1-0.1,0.2-0.2,0.3
	c0,0.1-0.1,0.1-0.1,0.2c-0.1,0.1-0.2,0.3-0.3,0.4c-0.2,0.2-0.4,0.5-0.6,0.7V5.9H37V5.2h4.3V2.6H37v-1h-3.3v1h-4.5v2.6h4.5v0.6h-4
	v5.2h2.5c-0.4,0.4-0.9,0.7-1.5,1c-0.3,0.2-0.7,0.4-1.1,0.6c-0.3,0.2-0.7,0.3-1,0.4c0.2,0.2,0.5,0.5,0.8,0.8
	C29.6,13.9,29.8,14.1,29.9,14.2z M50.7,15.2c-0.1,0-0.2-0.1-0.3-0.1c-0.6-0.3-1.2-0.6-1.8-0.9c-0.5-0.3-1-0.7-1.5-1
	c-0.5,0.4-1,0.7-1.6,1c-0.6,0.3-1.2,0.6-1.8,0.8c-0.1,0.1-0.3,0.1-0.4,0.2H50.7z M31.7,14.9c-0.2,0.1-0.3,0.2-0.5,0.3h11.5
	c-0.2-0.3-0.4-0.6-0.7-1c-0.2-0.2-0.3-0.4-0.5-0.7c0,0,0,0,0,0c-0.2-0.3-0.4-0.5-0.6-0.7c0,0,0,0-0.1-0.1l-1.2,1.6
	c0,0-0.1-0.1-0.1-0.1c0,0-0.1-0.1-0.1-0.1c-0.2-0.1-0.3-0.3-0.5-0.4c0,0,0,0,0,0c-0.2-0.2-0.4-0.3-0.6-0.5c-0.2-0.1-0.3-0.2-0.5-0.3
	c-0.2-0.1-0.3-0.2-0.5-0.3v2.3h-3.3v-1.5c-0.3,0.3-0.7,0.6-1,0.9c0,0-0.1,0.1-0.1,0.1C32.3,14.5,32,14.7,31.7,14.9z M42.3,12.2
	c0.6-0.2,1.1-0.5,1.6-0.7c0.3-0.2,0.6-0.3,0.9-0.5c-0.2-0.2-0.4-0.5-0.6-0.7c0,0,0,0,0-0.1c-0.2-0.3-0.4-0.5-0.5-0.8
	c-0.1,0.1-0.1,0.1-0.2,0.2c-0.2,0.2-0.3,0.4-0.5,0.5c-0.1,0.1-0.1,0.1-0.2,0.2c-0.1-0.2-0.4-0.5-0.6-0.8c0,0,0,0,0,0
	c-0.3-0.4-0.7-0.7-1-1.1v2.7h-1.8c0.3,0.2,0.7,0.4,1,0.6c0.1,0.1,0.2,0.1,0.3,0.2c0.1,0.1,0.2,0.1,0.3,0.2c0.1,0.1,0.2,0.2,0.3,0.2
	l-0.3,0.4c0,0,0,0,0,0c0.2,0,0.4-0.1,0.6-0.2c0.1,0,0.3-0.1,0.4-0.1C41.9,12.4,42.1,12.3,42.3,12.2z M42.1,11.2
	C42.1,11.2,42.2,11.2,42.1,11.2L42.1,11.2L42.1,11.2z M37,11.8l0.6-0.8H37V11.8z M51.8,8.1c-0.3,0.9-0.7,1.7-1.1,2.4
	c0.9,0.4,1.8,0.8,2.9,1V8.1H51.8z M55,12.5l-0.4,0.4c0.3-0.1,0.6-0.3,0.8-0.4H55z M58.7,11.5c-0.4,0.4-0.9,0.7-1.4,1
	c-0.7,0.4-1.4,0.9-2.1,1.2c-0.3,0.2-0.6,0.3-1,0.5c0.2,0.2,0.5,0.5,0.7,0.8c0.7,0.7,1.4,1.6,1.7,2.1c1-0.5,1.9-1.1,2.8-1.7h1.9
	c-0.4,0.4-0.7,0.7-1.1,1c-0.2,0.2-0.5,0.4-0.7,0.5v1.2c-1.1,0.1-2.2,0.1-3.2,0.2c-0.1,0-0.1,0-0.2,0c-0.3,0-0.6,0-0.8,0
	c-0.3,0-0.7,0-1,0.1l0.4,3.3l4.8-0.4v1.4c0,0.3-0.1,0.3-0.4,0.3c-0.2,0-0.7,0-1.2,0c-0.4,0-0.8,0-1.1,0c0.1,0.3,0.3,0.6,0.4,1
	c0.3,0.7,0.5,1.5,0.6,2.2c1.6,0,2.9,0,4-0.5s1.3-1.4,1.3-2.9v-1.7c0.7-0.1,1.4-0.1,2.1-0.2c0.7-0.1,1.4-0.1,2.1-0.2v-3.2
	c-0.3,0-0.7,0-1,0.1c-0.7,0.1-1.4,0.1-2.2,0.1c0,0,0,0-0.1,0c-0.2,0-0.4,0-0.6,0c-0.1,0-0.2,0-0.4,0v-0.5c0.2-0.2,0.4-0.4,0.7-0.6
	c0.9-0.8,1.8-1.7,2.5-2.5c0.1-0.1,0.1-0.2,0.2-0.2c0.2,0.2,0.5,0.4,0.7,0.7c0.2,0.2,0.3,0.3,0.5,0.4c0.3,0.3,0.5,0.5,0.7,0.7
	c0-0.1,0.1-0.1,0.1-0.2c0.2-0.2,0.3-0.4,0.5-0.7c0.1-0.1,0.2-0.3,0.2-0.4c0.1,0.4,0.2,0.8,0.4,1.3c0.3,1.1,0.7,2.1,1.1,3.1
	c-0.7,0.9-1.5,1.7-2.4,2.4c-0.2,0.1-0.3,0.2-0.5,0.3c-0.5,0.3-0.9,0.6-1.5,0.8c-0.3,0.2-0.6,0.3-0.9,0.4c0.2,0.2,0.4,0.5,0.6,0.8
	c0.4,0.6,0.8,1.2,1.1,1.8c0.2,0.3,0.3,0.6,0.4,0.9c0.3-0.2,0.6-0.3,0.9-0.5c1.4-0.8,2.6-1.7,3.6-2.7c0.2-0.2,0.5-0.5,0.7-0.7
	c0.2,0.3,0.4,0.5,0.6,0.8c0.8,0.9,1.6,1.7,2.6,2.4c0.3,0.2,0.6,0.4,0.8,0.5c0,0,0,0,0,0c0.1-0.1,0.2-0.3,0.3-0.4
	c0.4-0.7,1-1.5,1.6-2.1c0.1-0.1,0.1-0.1,0.2-0.2c0.2-0.2,0.4-0.4,0.5-0.5c-0.1-0.1-0.3-0.2-0.4-0.2c-0.2-0.1-0.3-0.2-0.5-0.3
	c-1.4-0.9-2.5-2-3.5-3.4c1.3-2.6,2.1-5.6,2.6-9.3h1.5V6.3h-6.6c0.1-0.3,0.2-0.7,0.2-1c0.2-0.7,0.3-1.4,0.4-2.1
	c0.1-0.3,0.1-0.7,0.2-1c0,0,0,0,0,0l-3.8-0.6c0,0,0,0,0,0c0,0.3-0.1,0.6-0.1,0.9c0,0,0,0.1,0,0.1c-0.1,0.3-0.1,0.6-0.2,1
	c-0.1,0.6-0.2,1.2-0.4,1.8c-0.2,0.8-0.4,1.6-0.7,2.4c-0.1,0.2-0.1,0.3-0.2,0.5c-0.3,0.7-0.5,1.4-0.8,2v-2h-1.1
	c0.2-0.3,0.4-0.7,0.6-1c0.4-0.7,0.8-1.5,1.2-2.2c0.1-0.3,0.2-0.5,0.4-0.8c0.1-0.3,0.3-0.6,0.4-0.9l-3.5-1c-0.2,0.4-0.3,0.8-0.5,1.3
	c0,0.1-0.1,0.2-0.1,0.3c-0.3,0.6-0.6,1.1-0.9,1.7V3.8h-2.2V1.6h-3.5v2.2h-2.7v3.1h2.7v1.3h-3.6v3.2H58.7z M61.8,8.2H62
	c0.1-0.1,0.2-0.2,0.2-0.3c0.2-0.2,0.4-0.5,0.6-0.7c0.1-0.1,0.1-0.1,0.2-0.2c0,0,0,0,0-0.1h-1.2V8.2z M65.7,13
	c0.1-0.1,0.1-0.1,0.2-0.2c0.1-0.1,0.2-0.2,0.2-0.3c0.1-0.1,0.1-0.2,0.2-0.3c0.2-0.2,0.3-0.5,0.5-0.7h-3c-0.3,0.3-0.6,0.7-0.9,1h1.2
	l0.7-0.2L65.7,13z M68.5,20.1c0.5-0.4,0.9-0.8,1.3-1.3c-0.3-0.6-0.5-1.3-0.7-1.9l-0.5,0.6l-0.1-0.1V20.1z M67.8,16.6
	c-0.2-0.3-0.6-0.7-1.1-1.1c-0.4,0.4-0.8,0.8-1.2,1.2c0.6,0,1.3-0.1,1.9-0.1L67.8,16.6z M65.6,21.9c-0.1,0.1-0.2,0.1-0.4,0.2l-1,0.4
	V22c0.4,0,0.8-0.1,1.2-0.1l0,0C65.5,21.9,65.5,21.9,65.6,21.9z M58.5,17.2c0.1,0,0.1,0,0.2,0v-0.1C58.6,17.1,58.6,17.1,58.5,17.2z
	 M55.7,17.3c-0.4,0-0.8,0-1.2,0.1l-1.1,0.1l0.5,4.2h-3.8v-2.4h2.3v-3.4c0.2-0.4,0.5-0.8,0.8-1.3l0.4,0.4
	C54.2,15.5,55.2,16.6,55.7,17.3z M37.3,19.2v2.4h0.8v-2.4H37.3z M21.1,22C21.1,22,21.1,22,21.1,22L21.1,22z M81.5,24.3
	c0.7,0.7,1.4,1.4,1.8,1.9c2.2-0.7,5-2,7-3.2c0.3-0.2,0.6-0.4,0.9-0.6L89,20.8h7.4l-1.6,1.7c0.3,0.1,0.7,0.3,1,0.4
	c2.5,1.1,5.1,2.5,6.6,3.5l3-2.7c-0.3-0.2-0.6-0.3-0.9-0.5c-0.9-0.4-1.9-0.9-2.9-1.4c-0.7-0.3-1.5-0.7-2.3-1h5.9v-3.4h-3.3V2.8H84.6
	v14.6h-3.5v3.4h5.8c-0.6,0.3-1.2,0.7-1.9,1c-1,0.5-2.2,1-3.3,1.3c-0.3,0.1-0.7,0.2-1,0.3c0,0-0.1,0-0.1,0c0,0,0,0,0.1,0
	C80.9,23.8,81.2,24,81.5,24.3z M33.8,8h-1.1v1h1.1V8z M38.1,8h-1v1h1V8z M47.6,7.1h-2c0.2,0.3,0.3,0.5,0.5,0.8
	c0,0.1,0.1,0.1,0.1,0.2c0.2,0.2,0.3,0.4,0.5,0.6c0.1-0.2,0.2-0.4,0.4-0.6c0.1-0.1,0.1-0.2,0.1-0.3C47.4,7.6,47.5,7.4,47.6,7.1z
	 M74,9.8h-2.1c0.1,0.3,0.1,0.7,0.2,1c0.1,0.6,0.3,1.2,0.4,1.8c0.2,0.6,0.3,1.3,0.6,1.9c0.2-0.6,0.3-1.2,0.5-1.9
	c0.1-0.6,0.2-1.2,0.3-1.8C73.9,10.5,74,10.2,74,9.8z M97.8,5.8h-9.4v0.9h9.4V5.8z M97.8,12.9h-9.4v0.9h9.4V12.9z M88.4,10.2h9.4V9.3
	h-9.4V10.2z M114.6,18.7v1.9c0,1.5,0.4,1.7,3,1.7h7.4c1.8,0,2.3-0.3,2.6-1.7c0-0.1,0-0.1,0-0.2c0-0.2,0.1-0.5,0.1-0.8
	c0.2,0.1,0.4,0.2,0.6,0.3c0.1,0.1,0.2,0.1,0.4,0.2c0.9,0.4,1.9,0.7,2.7,0.8c0,0.1,0,0.3-0.1,0.4c0,0.2-0.1,0.4-0.1,0.6
	c-0.7,3-2.1,3.9-5.9,3.9h-7.8c-5.2,0-6.7-1.1-6.7-5.1v-8.8c-0.2,0.2-0.3,0.3-0.5,0.5c-0.1,0.1-0.1,0.1-0.2,0.2
	c-0.1,0.1-0.2,0.2-0.3,0.3c-0.1,0.1-0.2,0.1-0.2,0.2l0,0c-0.5-0.6-1.4-1.5-2.3-2.2c-0.3-0.3-0.6-0.5-0.8-0.7
	c0.3-0.2,0.6-0.4,0.8-0.6c2.5-2,4.7-5,6-8l3.9,1.2c-0.1,0.3-0.3,0.6-0.4,0.9c-0.1,0.1-0.1,0.2-0.2,0.4c-0.2,0.3-0.3,0.7-0.5,1h13.4
	c0,0,0,0.5,0,1c0,0.2,0,0.4,0,0.5c-0.2,7.9-0.4,11.1-1.2,12.1c0,0,0,0.1-0.1,0.1c-0.3,0.4-0.6,0.7-0.9,0.9c-0.2,0.1-0.3,0.2-0.5,0.2
	c-0.2,0.1-0.4,0.1-0.6,0.2c-0.7,0.2-1.8,0.2-3,0.2c0-0.1,0-0.3,0-0.5c0-0.3-0.1-0.6-0.2-0.9c-0.1-0.4-0.2-0.8-0.3-1.1
	c-0.1-0.4-0.3-0.7-0.5-1c0.3,0,0.7,0.1,0.9,0.1c0.1,0,0.1,0,0.2,0c0.3,0,0.5,0,0.7,0c0.3,0,0.6-0.1,0.8-0.4c0.3-0.5,0.5-2.2,0.6-6.6
	c0-0.3,0-0.7,0-1h-11.8c-0.1,0.1-0.2,0.3-0.3,0.4c-0.2,0.3-0.5,0.6-0.7,0.9l-0.1,0.1h9.5v8.8H114.6z M123.1,15.6V9.5h1.4
	c-0.1,2-0.1,3.5-0.2,4.5c-0.1,0.6-0.1,1-0.2,1.3c0,0.2-0.1,0.3-0.1,0.3l0,0C123.7,15.6,123.5,15.6,123.1,15.6z M122.1,19.7h-6.6v0.9
	c0,0.3,0,0.5,0,0.6c0.1,0,0.2,0.1,0.5,0.1c0.4,0,0.8,0,1.5,0h7.4c1.1,0,1.3-0.1,1.4-0.2c0,0,0.1-0.1,0.1-0.2c0,0-0.1,0-0.1,0l0,0
	c-0.9,0.2-2.1,0.2-3.2,0.2l-0.9,0l0-0.9C122.2,20,122.1,19.8,122.1,19.7z M129,19.1c0.8,0.4,1.8,0.7,2.5,0.8l1,0.2l-0.2,1
	c-0.3,2-0.8,3.5-2,4.5c-1.2,1-2.9,1.2-5.1,1.2h-7.8c-2.6,0-4.6-0.2-5.9-1.2c-1.4-1.1-1.8-2.8-1.8-4.9v-6.5l-0.4,0.3l-0.6-0.7
	c-0.6-0.7-2.1-2.1-2.9-2.7l-1.1-0.8l1.1-0.8c2.6-1.8,5.1-5,6.4-8.2l0.3-0.8l5.8,1.8l-0.4,1c-0.1,0.3-0.3,0.6-0.4,0.9h12.8l0,1v0
	l0,0.2c0,0.1,0,0.3,0,0.4c0,0.3,0,0.7,0,0.9c-0.1,4-0.2,6.7-0.4,8.7c-0.1,1-0.2,1.8-0.3,2.4C129.5,18.2,129.3,18.7,129,19.1z
	 M117.4,14.4v-0.1h-1.9v0.1H117.4z M88.4,16.4v1h9.4v-1H88.4z M118.4,13.2h-3.9v2.1h3.9V13.2z"/>
</svg>
