<svg width="207" height="102" viewBox="0 0 207 102" fill="none" xmlns="http://www.w3.org/2000/svg">
<path opacity="0.8" d="M7.38 48.076V52.852H7.992V48.076H7.38ZM8.916 48.076V52.852H9.54V48.076H8.916ZM4.692 42.652V43.444H11.304V42.652H4.692ZM6.144 49.936V50.62H10.932V49.936H6.144ZM5.16 44.236V46.876C5.16 48.496 5.04 50.704 3.876 52.288C4.056 52.384 4.404 52.636 4.536 52.792C5.772 51.112 5.976 48.616 5.976 46.888V44.236H5.16ZM5.52 44.236V44.98H10.14V46.276H5.52V47.02H11.004V44.236H5.52ZM5.808 47.836V52.972H6.48V48.544H10.98V47.836H5.808ZM10.5 47.836V52.096C10.5 52.204 10.476 52.228 10.392 52.228C10.296 52.228 10.056 52.228 9.756 52.216C9.852 52.432 9.972 52.744 9.996 52.96C10.452 52.96 10.764 52.936 10.98 52.828C11.208 52.684 11.256 52.468 11.256 52.108V47.836H10.5ZM2.352 41.932C2.052 42.724 1.5 43.9 1.08 44.596L1.68 44.86C2.124 44.188 2.688 43.108 3.12 42.22L2.352 41.932ZM3.624 43.3C3 44.56 1.92 46.348 1.068 47.416L1.608 47.704C2.472 46.672 3.576 44.968 4.368 43.636L3.624 43.3ZM0.432 44.416C1.068 45.016 1.788 45.868 2.088 46.444L2.592 45.784C2.28 45.244 1.548 44.428 0.912 43.84L0.432 44.416ZM3.168 46.012C3.612 46.828 4.02 47.908 4.152 48.58L4.824 48.292C4.704 47.62 4.26 46.564 3.804 45.772L3.168 46.012ZM0.336 47.236L0.432 48.04C1.476 47.968 2.844 47.884 4.2 47.8V47.032C2.76 47.116 1.332 47.188 0.336 47.236ZM3.396 48.928C3.672 49.624 3.9 50.536 3.96 51.136L4.632 50.932C4.572 50.344 4.32 49.432 4.032 48.748L3.396 48.928ZM1.056 48.784C0.924 49.828 0.696 50.908 0.312 51.64C0.492 51.712 0.84 51.868 0.984 51.976C1.356 51.208 1.644 50.044 1.8 48.916L1.056 48.784ZM2.268 47.584V52.96H3.048V47.584H2.268ZM13.74 51.316V52.204H22.284V51.316H13.74ZM13.728 47.812V48.664H22.404V47.812H13.728ZM13.176 44.32V52.972H14.028V45.196H21.984V52.912H22.872V44.32H13.176ZM16.056 42.052V51.904H16.932V42.052H16.056ZM18.96 42.052V51.856H19.848V42.052H18.96ZM31.092 46.24V47.104H34.704V46.24H31.092ZM30.684 46.24V51.448C30.684 52.564 31.02 52.84 32.124 52.84C32.364 52.84 33.888 52.84 34.14 52.84C35.244 52.84 35.496 52.288 35.616 50.332C35.364 50.272 34.98 50.116 34.776 49.948C34.716 51.676 34.62 51.988 34.092 51.988C33.744 51.988 32.472 51.988 32.22 51.988C31.668 51.988 31.572 51.904 31.572 51.448V46.24H30.684ZM30.636 42.472V43.336H34.284V47.92H35.16V42.472H30.636ZM24.972 44.596V52.912H25.704V45.364H29.04V52.756H29.784V44.596H24.972ZM25.344 49.432V50.104H29.388V49.432H25.344ZM25.344 51.364V52.096H29.388V51.364H25.344ZM24.684 42.388V43.204H30.048V42.388H24.684ZM26.412 42.616V45.148H27.06V42.616H26.412ZM27.756 42.616V45.148H28.416V42.616H27.756ZM26.532 45.136V46.312C26.532 46.96 26.412 47.752 25.704 48.364C25.824 48.424 26.028 48.604 26.112 48.712C26.856 48.028 27.036 47.068 27.036 46.324V45.136H26.532ZM27.696 45.136V47.632C27.696 48.22 27.84 48.328 28.32 48.328C28.416 48.328 28.824 48.328 28.908 48.328C29.244 48.328 29.412 48.22 29.472 47.968C29.316 47.92 29.112 47.86 28.992 47.764C28.98 47.8 28.944 47.8 28.812 47.8C28.74 47.8 28.428 47.8 28.368 47.8C28.236 47.8 28.212 47.776 28.212 47.632V45.136H27.696ZM36.672 48.784V49.588H47.328V48.784H36.672ZM41.508 47.668V52.936H42.42V47.668H41.508ZM41.1 49.096C40.116 50.368 38.184 51.508 36.432 52.048C36.636 52.228 36.9 52.576 37.044 52.804C38.796 52.168 40.752 50.884 41.844 49.432L41.1 49.096ZM42.84 49.12L42.084 49.48C43.176 50.896 45.132 52.12 46.956 52.72C47.088 52.48 47.364 52.132 47.556 51.952C45.732 51.46 43.812 50.368 42.84 49.12ZM41.04 45.796H42.924V47.116H41.04V45.796ZM41.04 43.816H42.924V45.112H41.04V43.816ZM40.26 43.108V47.824H43.716V43.108H40.26ZM41.664 41.92C41.592 42.352 41.424 42.988 41.28 43.408L41.988 43.564C42.168 43.18 42.372 42.604 42.564 42.064L41.664 41.92ZM36.756 44.26C37.356 44.752 38.064 45.448 38.376 45.928L38.796 45.268C38.484 44.812 37.764 44.14 37.152 43.684L36.756 44.26ZM38.94 46.024C39.288 46.708 39.624 47.632 39.72 48.208L40.356 47.956C40.248 47.404 39.9 46.504 39.54 45.832L38.94 46.024ZM39.24 43.672C38.748 44.764 37.872 46.3 37.176 47.236L37.764 47.512C38.46 46.588 39.312 45.136 39.948 43.948L39.24 43.672ZM38.304 42.004C38.064 42.7 37.608 43.684 37.26 44.296L37.86 44.56C38.232 43.96 38.664 43.048 39.024 42.268L38.304 42.004ZM36.648 47.164L36.744 47.944C37.62 47.8 38.688 47.656 39.792 47.476L39.78 46.828C38.592 46.96 37.464 47.092 36.648 47.164ZM43.644 44.164C44.28 44.716 45 45.496 45.312 46.024L45.78 45.4C45.456 44.896 44.724 44.14 44.1 43.612L43.644 44.164ZM45.876 45.928C46.284 46.684 46.68 47.668 46.8 48.304L47.472 48.028C47.34 47.416 46.92 46.432 46.5 45.7L45.876 45.928ZM46.176 43.66C45.684 44.764 44.772 46.312 44.064 47.26L44.652 47.536C45.372 46.6 46.248 45.136 46.884 43.948L46.176 43.66ZM45.3 41.968C45.06 42.664 44.592 43.648 44.232 44.26L44.832 44.524C45.216 43.924 45.66 43.024 46.032 42.232L45.3 41.968ZM43.692 47.164L43.8 47.944C44.676 47.824 45.768 47.68 46.872 47.536L46.86 46.876C45.672 46.984 44.532 47.092 43.692 47.164ZM54.24 41.44H53.748V53.44H54.24V41.44ZM64.368 43.18V43.972H71.316V43.18H64.368ZM67.356 41.932V52.96H68.232V41.932H67.356ZM68.604 48.604L67.956 48.82C68.604 50.236 69.816 51.64 71.028 52.348C71.16 52.132 71.436 51.808 71.628 51.64C70.44 51.064 69.228 49.84 68.604 48.604ZM65.664 47.332H69.972V48.4H65.664V47.332ZM65.664 45.628H69.972V46.684H65.664V45.628ZM64.86 44.956V49.084H70.812V44.956H64.86ZM66.948 48.616C66.264 49.864 64.92 51.112 63.636 51.7C63.84 51.88 64.116 52.192 64.248 52.408C65.556 51.7 66.924 50.32 67.668 48.868L66.948 48.616ZM60.96 42.448V52.972H61.776V43.264H63.792V42.448H60.96ZM63.516 42.448V42.688C63.264 43.516 62.82 44.944 62.388 46.036C63.252 46.972 63.468 47.788 63.468 48.436C63.468 48.796 63.408 49.12 63.216 49.252C63.12 49.324 62.988 49.36 62.844 49.36C62.652 49.384 62.424 49.372 62.148 49.348C62.28 49.576 62.352 49.924 62.364 50.14C62.64 50.152 62.94 50.152 63.18 50.128C63.42 50.092 63.636 50.02 63.804 49.912C64.14 49.672 64.272 49.168 64.272 48.52C64.272 47.776 64.08 46.936 63.192 45.94C63.6 44.98 64.044 43.744 64.392 42.76L63.816 42.412L63.672 42.448H63.516ZM72.672 46.156V46.924H83.4V46.156H72.672ZM73.272 42.952V43.708H82.968V42.952H73.272ZM77.508 41.932V43.444H78.42V41.932H77.508ZM73.62 46.54V48.148C73.62 49.408 73.464 51.16 72.324 52.444C72.528 52.552 72.9 52.852 73.044 53.02C74.268 51.64 74.52 49.6 74.52 48.16V46.54H73.62ZM74.868 44.224C76.872 44.704 79.332 45.58 80.676 46.204L81.36 45.676C79.956 45.076 77.496 44.224 75.576 43.756L74.868 44.224ZM80.352 43.444C79.116 44.404 76.524 45.244 74.448 45.676C74.568 45.832 74.736 46.12 74.808 46.288C76.98 45.808 79.524 44.908 81.036 43.816L80.352 43.444ZM80.364 46.792C79.248 47.488 77.124 48.004 75.336 48.244C75.516 48.424 75.696 48.7 75.816 48.892C77.688 48.58 79.812 48.004 81.096 47.188L80.364 46.792ZM81.108 48.244C79.92 49.168 77.592 49.828 75.444 50.14C75.624 50.32 75.804 50.608 75.912 50.812C78.168 50.428 80.508 49.708 81.876 48.64L81.108 48.244ZM82.212 49.672C80.796 51.124 77.904 51.928 74.712 52.264C74.88 52.468 75.06 52.804 75.144 53.032C78.48 52.624 81.432 51.736 83.028 50.08L82.212 49.672ZM84.552 49.684V50.428H95.448V49.684H84.552ZM84.792 43.228V43.96H95.16V43.228H84.792ZM86.316 47.164V47.716H93.612V47.164H86.316ZM91.764 48.808V51.964C91.764 52.12 91.716 52.156 91.5 52.18C91.296 52.18 90.648 52.18 89.856 52.156C89.988 52.408 90.12 52.732 90.168 52.972C91.128 52.972 91.752 52.972 92.148 52.84C92.532 52.72 92.64 52.48 92.64 51.976V48.808H91.764ZM86.7 50.932C87.42 51.376 88.272 52.06 88.668 52.54L89.268 51.952C88.848 51.472 87.972 50.824 87.264 50.392L86.7 50.932ZM86.892 42.208C87.252 42.592 87.672 43.132 87.864 43.48L88.632 43.12C88.416 42.772 87.984 42.256 87.624 41.896L86.892 42.208ZM86.58 45.268H93.384V48.34H86.58V45.268ZM85.752 44.68V48.928H94.248V44.68H85.752ZM92.172 41.908C91.98 42.328 91.608 42.952 91.32 43.348L91.992 43.6C92.328 43.24 92.736 42.7 93.096 42.184L92.172 41.908ZM90.564 43.576V45.748C90.564 46.42 90.78 46.564 91.68 46.564C91.86 46.564 93.024 46.564 93.216 46.564C93.756 46.564 93.972 46.456 94.032 46.168C93.828 46.144 93.564 46.072 93.396 45.976C93.372 46.036 93.312 46.048 93.096 46.048C92.88 46.048 91.944 46.048 91.764 46.048C91.416 46.048 91.356 46 91.356 45.76V43.576H90.564ZM88.548 43.564V45.004C88.548 45.568 88.344 46.18 86.796 46.468C86.952 46.6 87.156 46.876 87.24 47.044C88.956 46.6 89.328 45.808 89.328 45.004V43.564H88.548ZM103.301 43.4688H104.396L107.191 50.4238L109.98 43.4688H111.082L107.613 52H106.758L103.301 43.4688ZM102.943 43.4688H103.91L104.068 48.6719V52H102.943V43.4688ZM110.467 43.4688H111.434V52H110.309V48.6719L110.467 43.4688ZM114.434 45.6602V52H113.344V45.6602H114.434ZM113.262 43.9785C113.262 43.8027 113.314 43.6543 113.42 43.5332C113.529 43.4121 113.689 43.3516 113.9 43.3516C114.107 43.3516 114.266 43.4121 114.375 43.5332C114.488 43.6543 114.545 43.8027 114.545 43.9785C114.545 44.1465 114.488 44.291 114.375 44.4121C114.266 44.5293 114.107 44.5879 113.9 44.5879C113.689 44.5879 113.529 44.5293 113.42 44.4121C113.314 44.291 113.262 44.1465 113.262 43.9785ZM117.264 43V52H116.174V43H117.264ZM121.137 45.6602L118.371 48.6191L116.824 50.2246L116.736 49.0703L117.844 47.7461L119.812 45.6602H121.137ZM120.146 52L117.885 48.9766L118.447 48.0098L121.424 52H120.146ZM124.77 52.1172C124.328 52.1172 123.928 52.043 123.568 51.8945C123.213 51.7422 122.906 51.5293 122.648 51.2559C122.395 50.9824 122.199 50.6582 122.062 50.2832C121.926 49.9082 121.857 49.498 121.857 49.0527V48.8066C121.857 48.291 121.934 47.832 122.086 47.4297C122.238 47.0234 122.445 46.6797 122.707 46.3984C122.969 46.1172 123.266 45.9043 123.598 45.7598C123.93 45.6152 124.273 45.543 124.629 45.543C125.082 45.543 125.473 45.6211 125.801 45.7773C126.133 45.9336 126.404 46.1523 126.615 46.4336C126.826 46.7109 126.982 47.0391 127.084 47.418C127.186 47.793 127.236 48.2031 127.236 48.6484V49.1348H122.502V48.25H126.152V48.168C126.137 47.8867 126.078 47.6133 125.977 47.3477C125.879 47.082 125.723 46.8633 125.508 46.6914C125.293 46.5195 125 46.4336 124.629 46.4336C124.383 46.4336 124.156 46.4863 123.949 46.5918C123.742 46.6934 123.564 46.8457 123.416 47.0488C123.268 47.252 123.152 47.5 123.07 47.793C122.988 48.0859 122.947 48.4238 122.947 48.8066V49.0527C122.947 49.3535 122.988 49.6367 123.07 49.9023C123.156 50.1641 123.279 50.3945 123.439 50.5938C123.604 50.793 123.801 50.9492 124.031 51.0625C124.266 51.1758 124.531 51.2324 124.828 51.2324C125.211 51.2324 125.535 51.1543 125.801 50.998C126.066 50.8418 126.299 50.6328 126.498 50.3711L127.154 50.8926C127.018 51.0996 126.844 51.2969 126.633 51.4844C126.422 51.6719 126.162 51.8242 125.854 51.9414C125.549 52.0586 125.188 52.1172 124.77 52.1172Z" fill="white"/>
<path d="M202.929 25.1299L0 25.1299L0 26.0199L202.929 26.0199V25.1299Z" fill="white"/>
<path d="M207 22L190 22V29H207V22Z" fill="#00E0B8"/>
<path d="M10.164 12.906V13.9H3.78V12.906H10.164ZM3.78 15.762V14.628H10.164V15.762H3.78ZM2.716 17.064H3.78V16.574H10.164V17.008H11.27V12.108H2.716V17.064ZM7.994 7.04H5.866V6.228H7.994V7.04ZM11.032 7.81V8.846H9.002V7.81H11.032ZM11.032 10.582H9.002V9.546H11.032V10.582ZM2.856 9.546H4.844V10.582H2.856V9.546ZM7.994 9.546V10.582H5.866V9.546H7.994ZM5.866 8.846V7.81H7.994V8.846H5.866ZM2.856 7.81H4.844V8.846H2.856V7.81ZM12.964 6.228V5.346H9.002V4.31H7.994V5.346H5.866V4.31H4.844V5.346H0.994V6.228H4.844V7.04H1.834V11.352H12.068V7.04H9.002V6.228H12.964ZM25.186 12.878V15.398H21.07V12.878H25.186ZM20.076 17.05H21.07V16.336H25.186V17.022H26.208V11.954H20.076V17.05ZM21.518 6.634H25.228C24.724 7.502 24.038 8.258 23.226 8.916C22.484 8.3 21.868 7.572 21.434 6.774L21.518 6.634ZM25.998 5.654L25.816 5.696H22.022C22.204 5.304 22.386 4.898 22.54 4.492L21.616 4.24C21.07 5.738 20.16 7.194 19.124 8.146C19.334 8.328 19.642 8.762 19.768 8.944C20.16 8.552 20.552 8.104 20.902 7.6C21.336 8.272 21.854 8.902 22.484 9.448C21.406 10.176 20.16 10.722 18.9 11.1L19.376 10.526C19.124 10.162 18.046 8.664 17.696 8.258V7.95H19.222V6.97H17.696V4.282H16.702V6.97H14.742V7.95H16.548C16.142 9.84 15.302 12.038 14.448 13.186C14.63 13.438 14.882 13.886 14.98 14.18C15.624 13.242 16.24 11.702 16.702 10.134V17.064H17.696V9.518C18.046 10.092 18.438 10.764 18.662 11.184L18.592 11.198C18.76 11.394 19.04 11.842 19.138 12.108C20.58 11.646 22.022 10.974 23.268 10.092C24.374 10.904 25.69 11.534 27.104 11.954C27.174 11.674 27.342 11.254 27.496 11.002C26.222 10.694 25.032 10.176 24.024 9.504C25.13 8.566 26.04 7.432 26.642 6.06L25.998 5.654ZM36.274 10.68L39.284 4.408L38.528 4.156L35.42 10.68L38.528 17.204L39.284 16.952L36.274 10.68ZM38.486 10.68L41.496 4.408L40.74 4.156L37.632 10.68L40.74 17.204L41.496 16.952L38.486 10.68ZM45.738 4.338C44.94 6.466 43.652 8.552 42.28 9.896C42.476 10.134 42.756 10.666 42.868 10.918C43.344 10.4 43.834 9.826 44.282 9.182V17.036H45.276V7.628C45.822 6.676 46.312 5.668 46.718 4.632L45.738 4.338ZM48.286 10.246C47.908 11.898 47.25 13.564 46.368 14.628C46.62 14.768 47.068 15.034 47.264 15.202C48.118 14.04 48.86 12.276 49.308 10.442L48.286 10.246ZM54.208 7.936C54.096 8.65 53.97 9.392 53.886 9.896L54.754 10.064C54.936 9.322 55.188 8.118 55.37 7.096L54.656 6.928L54.488 6.97H48.818C49.098 6.2 49.35 5.388 49.56 4.576L48.538 4.352C48.076 6.396 47.264 8.398 46.242 9.686C46.466 9.84 46.9 10.19 47.068 10.344C47.572 9.686 48.034 8.86 48.426 7.936H50.554V15.804C50.554 15.986 50.498 16.042 50.316 16.042C50.134 16.042 49.532 16.056 48.874 16.028C49.014 16.322 49.182 16.784 49.238 17.078C50.12 17.078 50.708 17.05 51.086 16.868C51.45 16.7 51.576 16.392 51.576 15.804V7.936H54.208ZM52.598 10.442C53.34 11.912 54.04 13.872 54.264 15.146L55.258 14.81C55.02 13.536 54.306 11.618 53.508 10.134L52.598 10.442ZM61.152 10.386H58.212V7.46H61.152V10.386ZM58.212 14.67V11.31H61.152V14.67H58.212ZM59.388 4.254C59.29 4.912 59.038 5.85 58.828 6.522H57.26V16.714H58.212V15.608H62.104V6.522H59.78C60.018 5.92 60.27 5.15 60.508 4.464L59.388 4.254ZM68.95 6.48H64.764C65.002 5.822 65.198 5.15 65.366 4.464L64.372 4.226C63.924 6.144 63.168 8.076 62.23 9.308C62.454 9.448 62.902 9.728 63.084 9.896C63.574 9.238 64.008 8.384 64.4 7.446H67.956C67.774 13.018 67.564 15.146 67.102 15.636C66.962 15.818 66.808 15.846 66.528 15.846C66.206 15.846 65.366 15.846 64.456 15.762C64.652 16.056 64.778 16.476 64.806 16.784C65.59 16.826 66.388 16.854 66.878 16.798C67.354 16.756 67.676 16.63 67.984 16.238C68.544 15.552 68.726 13.396 68.95 7.012V6.48ZM66.738 12.78C66.29 11.954 65.324 10.61 64.54 9.616L63.728 10.092C64.498 11.1 65.436 12.486 65.856 13.326L66.738 12.78ZM83.076 10.694V9.644H77.378C77.434 9.112 77.448 8.566 77.448 8.076V6.424H82.474V5.374H71.47V6.424H76.37V8.062C76.37 8.552 76.356 9.098 76.286 9.644H70.98V10.694H76.076C75.586 12.654 74.228 14.712 70.63 16.182C70.854 16.392 71.176 16.784 71.302 17.05C74.858 15.58 76.384 13.522 77.014 11.478C78.12 14.194 79.982 16.112 82.768 17.036C82.922 16.756 83.23 16.322 83.468 16.098C80.64 15.286 78.736 13.34 77.756 10.694H83.076ZM86.016 7.446H95.984V9.574H96.992V6.522H94.388C94.836 6.06 95.354 5.402 95.802 4.772L94.738 4.394C94.43 4.954 93.884 5.766 93.464 6.284L94.066 6.522H91.49V4.282H90.468V6.522H88.018L88.536 6.284C88.298 5.766 87.752 5.01 87.248 4.45L86.338 4.814C86.758 5.332 87.206 6.018 87.472 6.522H85.064V9.574H86.016V7.446ZM88.144 9.392H93.87V10.946H88.144V9.392ZM91.49 15.762V14.082H96.026V13.172H91.49V11.786H94.892V8.552H87.164V11.786H90.468V13.172H86.17V14.082H90.468V15.762H84.952V16.686H97.09V15.762H91.49ZM101.472 17.204L104.58 10.68L101.472 4.156L100.716 4.408L103.726 10.68L100.716 16.952L101.472 17.204ZM99.26 17.204L102.368 10.68L99.26 4.156L98.504 4.408L101.514 10.68L98.504 16.952L99.26 17.204Z" fill="#00E0B8"/>
</svg>
