<svg width="669" height="126" viewBox="0 0 669 126" fill="none" xmlns="http://www.w3.org/2000/svg">
<path d="M335.411 43.7051C290.429 43.7051 253.853 79.5614 252.857 124.165H417.975C416.978 79.5614 380.4 43.7051 335.411 43.7051ZM283.406 104.65C283.406 105.45 283.161 106.231 282.702 106.888C282.244 107.546 281.595 108.047 280.843 108.326V121.149C280.826 121.501 280.674 121.834 280.417 122.077C280.161 122.32 279.821 122.456 279.467 122.456C279.113 122.456 278.773 122.32 278.517 122.077C278.261 121.834 278.108 121.501 278.092 121.149V108.332C277.339 108.054 276.689 107.552 276.231 106.895C275.772 106.238 275.525 105.456 275.525 104.656V99.9519C275.526 99.1509 275.772 98.3694 276.231 97.7118C276.689 97.0542 277.339 96.552 278.092 96.2723V80.2026L278.426 79.7917C278.603 79.5744 278.844 79.4172 279.115 79.3418C279.386 79.2664 279.674 79.2765 279.938 79.3707C280.203 79.4648 280.433 79.6385 280.594 79.8677C280.756 80.097 280.843 80.3705 280.843 80.6509V96.2723C281.595 96.5521 282.244 97.0544 282.702 97.7121C283.16 98.3697 283.406 99.1512 283.406 99.9519V104.65ZM298.967 83.1943C298.966 83.995 298.721 84.7765 298.262 85.4341C297.804 86.0918 297.155 86.5941 296.403 86.8739V121.149C296.386 121.501 296.234 121.834 295.978 122.077C295.722 122.32 295.381 122.456 295.027 122.456C294.673 122.456 294.333 122.32 294.077 122.077C293.821 121.834 293.669 121.501 293.652 121.149V86.8802C292.899 86.6009 292.249 86.0987 291.79 85.4411C291.332 84.7834 291.086 84.0016 291.085 83.2005V78.4998C291.085 77.699 291.331 76.9176 291.79 76.2603C292.249 75.6031 292.899 75.1016 293.652 74.8233V66.474C293.652 66.2504 293.706 66.0302 293.812 65.8326C293.917 65.635 294.069 65.4662 294.254 65.3409H294.273C294.478 65.2023 294.718 65.1221 294.965 65.1089C295.213 65.0957 295.459 65.1499 295.678 65.2657C295.897 65.3816 296.08 65.5547 296.208 65.7665C296.336 65.9783 296.403 66.2207 296.403 66.4678V74.8326C297.155 75.1118 297.804 75.6136 298.262 76.2707C298.72 76.9278 298.966 77.7089 298.967 78.5091V83.1943ZM314.527 106.794C314.527 107.595 314.28 108.377 313.822 109.034C313.363 109.691 312.713 110.193 311.96 110.471V121.149C311.96 121.512 311.815 121.86 311.558 122.117C311.3 122.374 310.95 122.519 310.586 122.519C310.222 122.519 309.872 122.374 309.614 122.117C309.357 121.86 309.212 121.512 309.212 121.149V110.477C308.459 110.199 307.809 109.697 307.35 109.04C306.892 108.383 306.645 107.601 306.645 106.801V102.097C306.647 101.297 306.894 100.516 307.352 99.86C307.811 99.2035 308.46 98.7023 309.212 98.4234V58.5077C309.212 58.2318 309.297 57.9625 309.455 57.736C309.613 57.5095 309.836 57.3367 310.096 57.2407H310.127C310.333 57.1642 310.554 57.1385 310.772 57.166C310.99 57.1935 311.198 57.2733 311.378 57.3984C311.558 57.5236 311.705 57.6905 311.807 57.8848C311.908 58.0791 311.961 58.2949 311.96 58.5139V98.4234C312.713 98.7027 313.363 99.2048 313.821 99.8625C314.28 100.52 314.526 101.302 314.527 102.103V106.794ZM330.103 90.1022C330.102 90.9033 329.856 91.685 329.397 92.3427C328.939 93.0004 328.289 93.5025 327.536 93.7818V121.149C327.536 121.512 327.391 121.86 327.133 122.117C326.876 122.374 326.526 122.519 326.162 122.519C325.797 122.519 325.448 122.374 325.19 122.117C324.933 121.86 324.788 121.512 324.788 121.149V93.7849C324.035 93.5056 323.385 93.0035 322.927 92.3458C322.468 91.6882 322.222 90.9064 322.221 90.1053V85.3983C322.221 84.5976 322.467 83.8161 322.926 83.1589C323.385 82.5017 324.035 82.0002 324.788 81.7218V54.7129C324.788 54.3856 324.907 54.0694 325.124 53.8235C325.34 53.5777 325.64 53.419 325.965 53.3774H326C326.191 53.3526 326.386 53.3689 326.571 53.4251C326.756 53.4814 326.927 53.5762 327.073 53.7035C327.218 53.8307 327.335 53.9874 327.414 54.1631C327.494 54.3387 327.536 54.5294 327.536 54.7222V81.7249C328.289 82.0033 328.939 82.5048 329.398 83.162C329.856 83.8192 330.102 84.6007 330.103 85.4015V90.1022ZM343.583 122.515H335.411V115.486H343.558L343.583 122.515ZM343.583 112.099H335.411V105.07H343.558L343.583 112.099ZM343.583 101.683H335.411V94.6535H343.558L343.583 101.683ZM343.583 91.2665H335.411V84.2372H343.558L343.583 91.2665ZM343.583 80.8502H335.411V73.8302H343.558L343.583 80.8502ZM343.583 70.4339H335.411V63.4046H343.558L343.583 70.4339ZM343.583 60.0175H335.411V52.9882H343.558L343.583 60.0175ZM364.889 122.515H348.595V115.486H364.889V122.515ZM364.889 112.099H348.595V105.07H364.889V112.099ZM364.889 101.683H348.595V94.6535H364.889V101.683ZM364.889 91.2665H348.595V84.2372H364.889V91.2665ZM364.889 80.8502H348.595V73.8302H364.889V80.8502ZM386.198 122.515H369.904V115.486H386.198V122.515ZM386.198 112.099H369.904V105.07H386.198V112.099ZM386.198 101.683H369.904V94.6535H386.198V101.683ZM407.507 122.515H391.21V115.486H407.507V122.515ZM391.21 112.099V105.07H407.507V112.099H391.21Z" fill="url(#paint0_linear_132_270)"/>
<path fill-rule="evenodd" clip-rule="evenodd" d="M406.605 71.4575C407.045 71.2221 407.422 71.0494 407.783 70.8454C411.157 68.9004 413.996 66.15 416.046 62.8402C417.758 60.0773 418.98 57.0399 419.659 53.8618C419.816 53.0927 419.957 52.2922 420.114 51.5544C420.357 51.3291 420.665 51.1863 420.994 51.1463C424.465 49.9691 427.984 48.9645 431.534 48.0071C435.084 47.0496 438.32 46.4374 441.761 45.9194C445.793 45.2448 449.878 44.9296 453.966 44.9776C454.987 44.9776 456.008 45.1032 457.108 45.166C457.246 45.1827 457.382 45.2089 457.516 45.2445C457.642 45.5584 457.799 45.8723 457.94 46.202C459.024 48.9331 459.967 51.7271 460.799 54.5368C462.515 60.2594 463.92 66.0703 465.009 71.9441C465.685 75.5386 466.25 79.1645 466.753 82.7903C466.941 84.2187 467.114 85.6471 467.287 87.0754C467.303 87.2215 467.303 87.3689 467.287 87.5149C467.083 87.5934 467.02 87.5149 466.926 87.3266C466.124 86.322 465.355 85.3018 464.507 84.3129C464.114 83.8263 463.674 83.3711 463.234 82.9002C463.407 82.759 463.533 82.9002 463.658 82.9002C464.082 83.1671 464.507 83.4653 464.931 83.7478L465.323 84.0304C465.543 83.9519 465.48 83.8106 465.48 83.7164C464.198 73.2566 461.974 62.9336 458.836 52.8729C458.239 50.9894 457.532 49.1372 456.888 47.2693C456.888 47.0967 456.747 46.9397 456.684 46.767C456.654 46.6646 456.592 46.5745 456.507 46.5096C456.422 46.4446 456.319 46.4084 456.212 46.406H455.584C452.466 46.2803 449.342 46.3747 446.238 46.6886C440.531 47.3158 434.885 48.397 429.351 49.922C426.775 50.6127 424.23 51.4917 421.669 52.1823C421.327 52.2409 421.004 52.3809 420.727 52.5904C420.727 52.8102 420.853 53.0456 420.947 53.2497C423.923 61.1079 426.327 69.1707 428.141 77.3751C429.052 81.5503 429.712 85.7412 430.325 89.9322C431.052 95.5359 431.294 101.192 431.047 106.837C430.886 111.311 430.232 115.754 429.099 120.085C429.062 120.255 429.014 120.423 428.958 120.587C428.927 120.661 428.884 120.73 428.832 120.791C428.729 120.684 428.634 120.569 428.55 120.446C427.424 118.631 426.037 116.992 424.434 115.58C424.092 115.296 423.872 114.891 423.821 114.45C422.26 103.671 418.707 93.2764 413.344 83.7949C406.712 71.962 397.462 61.8001 386.3 54.085C375.138 46.37 362.359 41.306 348.939 39.2798C343.647 38.4855 338.296 38.1598 332.948 38.3067C312.794 38.8593 293.42 46.2101 277.979 59.163C262.538 72.116 251.937 89.9088 247.901 109.647C247.232 112.971 246.75 116.33 246.456 119.708C246.456 119.708 246.456 119.834 246.456 119.897C246.435 120.616 246.206 121.314 245.797 121.906C245.31 122.691 244.885 123.475 244.43 124.339C244.36 124.501 244.27 124.654 244.163 124.794C244.129 124.834 244.087 124.866 244.039 124.887C243.992 124.909 243.94 124.921 243.888 124.921C243.836 124.921 243.784 124.909 243.737 124.887C243.689 124.866 243.647 124.834 243.613 124.794C243.506 124.58 243.411 124.36 243.33 124.135C242.468 121.699 241.791 119.201 241.304 116.663C240.389 111.826 239.973 106.909 240.063 101.987C240.099 98.2618 240.341 94.5414 240.786 90.8426C241.665 83.6607 243.067 76.5523 244.98 69.5739C246.441 64.2214 248.121 58.9318 250.101 53.7362C250.101 53.5479 250.242 53.3438 250.289 53.1398C250.336 52.9357 250.289 53.0299 250.289 52.92C250.034 52.7952 249.772 52.6851 249.504 52.5904C245.162 51.0878 240.748 49.8043 236.277 48.7448C233.135 48.0228 230.119 47.4263 226.993 47.0025C223.302 46.4641 219.568 46.2697 215.84 46.4217H214.804C214.557 46.7108 214.384 47.0556 214.301 47.4263C212.966 50.8952 211.85 54.4426 210.845 58.0214C209.27 63.7057 207.996 69.4691 207.028 75.2875C206.604 77.8617 206.227 80.4516 205.85 83.0258C205.85 83.324 205.85 83.6222 205.85 84.0147C206.545 83.527 207.269 83.0814 208.017 82.6805C208.031 82.7583 208.031 82.838 208.017 82.9159C206.744 84.2717 205.553 85.7026 204.452 87.201C204.452 87.2952 204.326 87.4208 204.122 87.3894C203.918 87.358 204.122 87.0597 204.122 86.8871C204.263 85.7883 204.373 84.6896 204.53 83.5908C204.923 80.9381 205.3 78.3012 205.708 75.6642C206.431 71.1279 207.374 66.6387 208.473 62.1809C209.64 57.3381 211.077 52.5641 212.777 47.8815C213.044 47.1437 213.343 46.4217 213.625 45.6997C213.625 45.5113 213.814 45.323 213.94 45.0875C214.819 45.0875 215.715 44.9306 216.61 44.8992C219.073 44.8074 221.54 44.8809 223.993 45.1189C227.041 45.3858 230.072 45.8566 233.088 46.4217C238.45 47.4635 243.743 48.8316 248.938 50.5185L251.185 51.2562C251.31 51.9155 251.42 52.5276 251.546 53.1398C252.262 56.8663 253.732 60.4075 255.866 63.5465C257.856 66.4953 260.501 68.9449 263.594 70.7041L264.505 71.175L265.338 70.1861C272.929 60.8801 282.288 53.1664 292.875 47.4891C300.313 43.5385 308.272 40.6585 316.516 38.9345C324.291 37.3153 332.243 36.7085 340.173 37.1294C362.068 38.2343 382.805 47.294 398.484 62.6047C401.146 65.1652 403.643 67.8913 405.961 70.7669L406.605 71.4575ZM421.638 74.2044C421.889 74.3143 421.921 74.5811 421.999 74.7852C422.361 75.8682 422.769 76.9356 423.083 78.0343C423.821 80.6242 424.513 83.2298 425.235 85.8825C425.235 86.1023 425.235 86.3534 425.549 86.5104C425.549 86.322 425.549 86.1494 425.549 85.961C425.416 83.6891 425.165 81.4258 424.795 79.1801C424.24 75.8525 423.549 72.5667 422.722 69.3228C422.031 66.6073 421.277 63.9232 420.554 61.2391C420.479 61.083 420.395 60.9311 420.303 60.7839C419.957 61.5845 419.674 62.3536 419.345 63.0128C419.015 63.6721 418.606 64.4569 418.182 65.1475C417.78 65.8163 417.34 66.461 416.863 67.0782C416.373 67.7133 415.848 68.3212 415.292 68.899C414.75 69.4584 414.173 69.9827 413.564 70.4686C412.931 70.9712 412.27 71.4376 411.584 71.8656C410.925 72.2737 410.249 72.6348 409.527 73.0272C411.021 75.0143 412.36 77.1134 413.532 79.3057C414.333 80.7184 415.103 82.1468 415.873 83.5595C415.951 83.7007 415.999 83.8734 416.281 83.8891C416.03 82.8217 415.81 81.7857 415.559 80.7498C415.307 79.7138 415.056 78.7721 414.789 77.7832C414.522 76.7943 414.176 75.8054 413.956 74.6439C414.143 74.773 414.317 74.9202 414.475 75.0834C414.852 75.5543 415.229 76.0095 415.559 76.5118C416.351 77.7157 417.014 78.9993 417.538 80.3417C418.056 81.6131 418.528 82.9159 419.015 84.203C419.093 84.3757 419.015 84.6425 419.376 84.6739C419.392 84.5278 419.392 84.3805 419.376 84.2344C419.266 83.2612 419.203 82.2723 419.03 81.2992C418.633 79.0529 418.108 76.8309 417.459 74.6439C417.449 74.44 417.449 74.2357 417.459 74.0317C417.997 74.4868 418.468 75.0152 418.858 75.6014C419.654 76.8025 420.327 78.0803 420.868 79.4156C421.582 81.1638 422.181 82.9571 422.659 84.7838C422.722 85.08 422.828 85.3655 422.973 85.6314C422.985 85.4746 422.985 85.3172 422.973 85.1605C422.973 84.1716 422.973 83.1827 422.879 82.1939C422.653 79.8041 422.286 77.4298 421.779 75.0834C421.755 74.7909 421.755 74.4969 421.779 74.2044H421.638ZM245.561 86.3848C245.711 86.1568 245.813 85.9003 245.859 85.6314C246.456 83.4339 247.037 81.2207 247.666 79.0389C248.043 77.6733 248.514 76.3391 248.954 75.0049C249.012 74.6661 249.191 74.3595 249.457 74.1416C249.467 74.2774 249.467 74.4139 249.457 74.5497C248.963 76.7415 248.585 78.9577 248.326 81.1893C248.148 82.4998 248.08 83.8229 248.121 85.1448C248.171 85.2766 248.234 85.4029 248.31 85.5215C248.608 84.4855 248.86 83.5595 249.158 82.6491C249.712 80.8108 250.427 79.0249 251.295 77.3123C251.808 76.2914 252.452 75.3416 253.211 74.4869C253.395 74.2992 253.589 74.1211 253.792 73.9532C253.682 74.4084 253.635 74.691 253.557 74.9578C252.973 76.9148 252.491 78.9004 252.111 80.9067C251.852 82.0775 251.71 83.2711 251.687 84.4699C251.687 84.564 251.687 84.721 251.844 84.7681C252.001 84.8151 251.986 84.4698 252.049 84.2972C252.457 83.2141 252.85 82.0997 253.274 81.0166C253.832 79.5272 254.537 78.097 255.379 76.7472C255.782 76.1485 256.217 75.5721 256.683 75.0206C256.683 74.9107 256.902 74.8636 257.091 74.7067C257.08 74.9228 257.054 75.1379 257.012 75.3502C256.824 76.0095 256.62 76.6687 256.447 77.3437C255.944 79.29 255.457 81.2364 254.97 83.1828C254.925 83.2839 254.901 83.3936 254.901 83.5045C254.901 83.6154 254.925 83.7251 254.97 83.8263C255.084 83.6593 255.189 83.4864 255.285 83.3083C255.662 82.6334 256.023 81.9427 256.415 81.2521C257.903 78.4066 259.588 75.6687 261.458 73.0585C261.458 73.0585 261.458 73.0586 261.458 72.933L261.018 72.6818C258.265 71.3123 255.868 69.3245 254.012 66.8742C252.739 65.1947 251.718 63.3387 250.98 61.3647C250.902 61.1607 250.98 60.8781 250.572 60.7996C250.493 61.0822 250.399 61.3647 250.321 61.6473C248.954 66.3562 247.76 71.0651 246.818 75.774C246.215 78.6813 245.785 81.6217 245.529 84.5797C245.514 85.1762 245.561 85.7413 245.561 86.3848Z" fill="#00E0B8"/>
<path fill-rule="evenodd" clip-rule="evenodd" d="M201.169 103.619C201.171 99.4945 202.032 95.4158 203.698 91.6423C205.014 88.5744 206.871 85.7673 209.18 83.3546C210.523 81.9306 212.088 80.7327 213.814 79.8073C215.078 79.1121 216.465 78.6695 217.898 78.5044C219.352 78.3506 220.822 78.488 222.221 78.9084C223.621 79.3289 224.923 80.024 226.051 80.9531C227.355 82.0254 228.456 83.3225 229.303 84.783C230.459 86.7826 231.302 88.9477 231.8 91.2028C232.681 95.0718 232.946 99.0552 232.586 103.007C232.376 105.735 231.745 108.414 230.716 110.949C229.705 113.495 228.169 115.8 226.208 117.714C224.268 119.626 221.811 120.93 219.139 121.466C217.392 121.785 215.598 121.758 213.861 121.387C211.311 120.938 208.913 119.859 206.887 118.248C204.655 116.414 203.015 113.962 202.174 111.2C201.655 109.598 201.339 107.937 201.231 106.256L201.169 103.619ZM226.679 98.9098C226.679 98.1093 226.538 96.6181 226.365 95.127C226.159 93.3965 225.737 91.6985 225.108 90.0727C224.688 88.9447 224.101 87.8864 223.365 86.9334C222.817 86.2149 222.127 85.6165 221.338 85.1754C220.706 84.7924 219.985 84.5771 219.246 84.5496C218.507 84.5221 217.772 84.6835 217.113 85.0184C216.646 85.2293 216.199 85.4814 215.778 85.7719C215.183 86.1772 214.621 86.6286 214.097 87.1218C211.706 89.4189 209.874 92.2325 208.74 95.3467C207.537 98.622 207.055 102.118 207.326 105.596C207.406 107.211 207.751 108.802 208.347 110.305C208.808 111.468 209.526 112.512 210.449 113.357C211.371 114.203 212.473 114.829 213.673 115.187L214.709 115.485C215.934 115.817 217.223 115.825 218.451 115.508C219.679 115.192 220.804 114.562 221.715 113.68C222.41 113.055 223.027 112.349 223.553 111.577C224.594 110.032 225.369 108.323 225.847 106.523C226.463 104.012 226.743 101.431 226.679 98.847V98.9098Z" fill="url(#paint1_linear_132_270)"/>
<path fill-rule="evenodd" clip-rule="evenodd" d="M438.289 99.6642C438.244 95.8628 438.833 92.0805 440.033 88.4726C440.713 86.3646 441.778 84.4008 443.174 82.6807C444.889 80.5566 447.307 79.1147 449.992 78.6153C451.922 78.2532 453.915 78.4436 455.741 79.1647C457.834 80.0117 459.732 81.2776 461.318 82.8847C464.475 86.0437 466.848 89.8982 468.245 94.139C469.417 97.5547 469.95 101.157 469.816 104.766C469.784 106.988 469.425 109.194 468.748 111.311C468.011 113.772 466.624 115.988 464.733 117.728C462.843 119.468 460.518 120.668 458.003 121.2C456.372 121.639 454.674 121.783 452.992 121.623C450.893 121.405 448.878 120.683 447.117 119.52C445.131 118.213 443.449 116.495 442.185 114.482C440.655 112.04 439.589 109.337 439.043 106.508C438.585 104.254 438.333 101.963 438.289 99.6642ZM463.784 103.541C463.784 102.599 463.784 101.673 463.595 100.747C463.163 96.8199 461.717 93.0719 459.401 89.8696C458.425 88.4962 457.262 87.2654 455.945 86.2124C455.312 85.7087 454.621 85.2819 453.888 84.941C453.222 84.6201 452.487 84.4707 451.749 84.5063C451.011 84.542 450.293 84.7616 449.662 85.145C449.077 85.4931 448.547 85.9269 448.091 86.4321C447.564 87.0129 447.111 87.656 446.74 88.3471C446.109 89.5404 445.624 90.8052 445.295 92.1142C444.533 95.1917 444.257 98.3694 444.478 101.532C444.541 103.063 444.763 104.583 445.138 106.068C445.714 108.365 446.786 110.508 448.28 112.347C449 113.24 449.872 114 450.856 114.591C452.108 115.384 453.593 115.727 455.066 115.565C455.782 115.485 456.491 115.348 457.186 115.157C458.532 114.807 459.768 114.125 460.781 113.173C461.794 112.221 462.551 111.03 462.983 109.71C463.077 109.459 463.156 109.208 463.234 108.941C463.657 107.173 463.842 105.358 463.784 103.541Z" fill="url(#paint2_linear_132_270)"/>
<path fill-rule="evenodd" clip-rule="evenodd" d="M216.594 66.1514C216.569 63.2411 217.576 60.4159 219.438 58.1776C220.567 56.7499 222.144 55.7436 223.915 55.3208C224.925 55.062 225.984 55.0584 226.996 55.3105C228.008 55.5626 228.941 56.0624 229.711 56.7649C231.016 57.8955 231.924 59.4136 232.303 61.0971C232.823 62.9893 232.871 64.9799 232.444 66.8951C232.017 68.8104 231.127 70.592 229.852 72.0846C228.815 73.4253 227.371 74.3945 225.737 74.8472C224.627 75.1961 223.443 75.2343 222.313 74.9576C221.183 74.6808 220.15 74.0997 219.328 73.2775C218.046 72.0362 217.18 70.4302 216.846 68.6785C216.766 68.3265 216.709 67.9701 216.673 67.6111C216.626 66.999 216.61 66.4967 216.594 66.1514ZM229.318 64.0323C229.318 63.7969 229.318 63.4673 229.318 63.1377C229.221 61.9046 228.756 60.7291 227.983 59.7629C227.537 59.1637 226.892 58.7428 226.164 58.576C225.435 58.4091 224.671 58.5072 224.009 58.8525C223.317 59.1531 222.704 59.6098 222.218 60.1867C221.244 61.2989 220.562 62.6364 220.236 64.0781C219.91 65.5198 219.948 67.0201 220.349 68.4431C220.468 68.8766 220.643 69.2933 220.867 69.6831C221.072 70.0464 221.32 70.3837 221.605 70.6876C222.058 71.1986 222.664 71.5485 223.333 71.6844C224.002 71.8204 224.697 71.7349 225.313 71.4411C226.306 70.9981 227.152 70.2789 227.747 69.3691C228.83 67.7752 229.38 65.8794 229.318 63.9539V64.0323Z" fill="url(#paint3_linear_132_270)"/>
<path fill-rule="evenodd" clip-rule="evenodd" d="M438.321 64.2211C438.284 62.4479 438.677 60.6922 439.467 59.104C439.8 58.4288 440.229 57.8051 440.74 57.2518C441.644 56.2314 442.845 55.5193 444.175 55.2153C445.504 54.9113 446.896 55.0306 448.154 55.5566C449.351 56.0484 450.424 56.7989 451.296 57.7541C452.862 59.4736 453.894 61.6116 454.265 63.9071C454.617 65.8071 454.493 67.7647 453.903 69.6049C453.575 70.6901 453.042 71.7024 452.333 72.5873C451.414 73.7215 450.145 74.5199 448.724 74.8578C447.303 75.1957 445.81 75.0541 444.478 74.4551C443.176 73.8791 442.033 72.9957 441.148 71.8809C439.625 70.0017 438.696 67.7125 438.478 65.3041C438.352 64.896 438.336 64.4722 438.321 64.2211ZM451.107 66.0732C451.013 65.3983 450.966 64.6919 450.824 64.0327C450.52 62.5536 449.826 61.1826 448.814 60.0615C448.337 59.5203 447.754 59.0823 447.102 58.7744C446.436 58.4388 445.674 58.3445 444.946 58.5077C444.219 58.6709 443.57 59.0814 443.112 59.6691C442.605 60.2678 442.235 60.9694 442.028 61.7253C441.652 62.9941 441.587 64.3347 441.839 65.6337C442.11 67.2422 442.816 68.7459 443.881 69.9817C444.504 70.7222 445.328 71.2672 446.253 71.5513C446.731 71.6912 447.235 71.7158 447.724 71.623C448.212 71.5302 448.672 71.3227 449.065 71.0176C449.594 70.5971 450.019 70.0599 450.306 69.448C450.81 68.4207 451.084 67.2957 451.107 66.1517V66.0732Z" fill="url(#paint4_linear_132_270)"/>
<path fill-rule="evenodd" clip-rule="evenodd" d="M468.339 124.966H467.24C467.004 124.731 467.114 124.495 467.114 124.26C467.208 122.549 467.318 120.854 467.413 119.143C467.413 118.876 467.413 118.625 467.413 118.248C466.957 118.531 466.596 118.782 466.203 118.986C465.81 119.19 465.402 119.362 464.868 119.598C465.041 119.205 465.323 119.143 465.496 118.986L466.109 118.468C466.314 118.286 466.508 118.092 466.69 117.887C466.901 117.673 467.1 117.448 467.287 117.212C467.46 117.008 467.632 116.804 467.79 116.584C467.947 116.364 468.104 116.145 468.245 115.909C468.387 115.674 468.544 115.485 468.701 115.25C468.779 115.25 468.842 115.344 468.858 115.376C468.891 118.58 468.717 121.784 468.339 124.966Z" fill="#00E0B8"/>
<path fill-rule="evenodd" clip-rule="evenodd" d="M206.023 119.394C205.441 119.394 205.033 119.064 204.562 118.813C204.09 118.562 204.012 118.483 203.666 118.264C203.612 118.733 203.612 119.207 203.666 119.676C203.666 120.085 203.666 120.508 203.666 120.932C203.666 121.356 203.666 121.827 203.666 122.266L203.761 123.522C203.761 123.977 203.761 124.417 203.761 124.872C203.361 124.99 202.935 124.99 202.535 124.872C202.308 123.275 202.182 121.666 202.158 120.053C202.048 118.483 202.048 116.835 202.064 115.25C202.284 115.25 202.331 115.25 202.378 115.407C203.251 116.882 204.41 118.168 205.787 119.19C205.828 119.227 205.856 119.277 205.865 119.331L206.023 119.394Z" fill="#00E0B8"/>
<path fill-rule="evenodd" clip-rule="evenodd" d="M206.007 119.41H206.164C206.161 119.368 206.161 119.326 206.164 119.284L206.007 119.41Z" fill="#00E0B8"/>
<path fill-rule="evenodd" clip-rule="evenodd" d="M421.685 74.1878L421.559 74.1094C421.585 74.116 421.612 74.116 421.638 74.1094C421.638 74.1094 421.638 74.2192 421.638 74.2663L421.685 74.1878Z" fill="#00E0B8"/>
<path fill-rule="evenodd" clip-rule="evenodd" d="M213.06 112.739C212.777 112.739 212.714 112.44 212.589 112.252C211.436 110.422 210.617 108.403 210.17 106.287C209.408 102.492 209.847 98.5527 211.426 95.0174C212.782 91.8624 214.808 89.0398 217.364 86.7454C217.571 86.5082 217.845 86.3386 218.15 86.2588C217.867 86.6355 217.694 86.8866 217.49 87.1378C215.844 89.2409 214.437 91.5204 213.296 93.9344C211.937 96.7896 211.183 99.8942 211.081 103.054C211.045 105.731 211.503 108.391 212.432 110.902C212.604 111.389 212.809 111.86 212.982 112.331C212.997 112.477 212.997 112.624 212.982 112.77L213.06 112.739Z" fill="#00E0B8"/>
<path fill-rule="evenodd" clip-rule="evenodd" d="M213.044 112.755L213.186 112.896C213.193 112.829 213.193 112.76 213.186 112.692L213.044 112.755Z" fill="#00E0B8"/>
<path fill-rule="evenodd" clip-rule="evenodd" d="M457.815 112.865C458.449 111.404 458.974 109.898 459.386 108.36C460.362 104.341 460.122 100.124 458.694 96.242C457.459 92.8915 455.687 89.7637 453.448 86.9811C453.275 86.7614 453.134 86.5416 452.961 86.3376C452.788 86.1335 452.961 86.3376 452.961 86.1963C453.089 86.2618 453.21 86.3408 453.322 86.4318C457.207 89.6938 459.893 94.1564 460.956 99.1145C461.899 103.636 461.03 108.347 458.537 112.237C458.416 112.44 458.279 112.634 458.129 112.817C458.129 112.817 457.972 112.817 457.893 112.817L457.815 112.865Z" fill="#00E0B8"/>
<path fill-rule="evenodd" clip-rule="evenodd" d="M457.815 112.849C457.807 112.901 457.807 112.954 457.815 113.006C457.673 113.006 457.815 112.911 457.815 112.864V112.849Z" fill="#00E0B8"/>
<path fill-rule="evenodd" clip-rule="evenodd" d="M222.721 69.9347C222.642 69.9347 222.532 69.9347 222.469 69.9347C222.406 69.8695 222.363 69.7879 222.344 69.6993C221.838 68.4584 221.619 67.1195 221.703 65.7823C221.788 64.4451 222.173 63.1442 222.831 61.9766C223.241 61.2534 223.772 60.6057 224.402 60.0617C224.522 59.9708 224.648 59.8869 224.779 59.8105C224.873 60.0774 224.684 60.1716 224.59 60.2971C224.496 60.4227 224.339 60.6267 224.213 60.7994L223.899 61.2389C223.805 61.3959 223.71 61.5528 223.632 61.7098C223.518 61.8875 223.413 62.0709 223.318 62.2592C223.318 62.4162 223.176 62.5731 223.098 62.7458C223.02 62.9092 222.952 63.0769 222.894 63.248L222.705 63.8445C222.705 64.0172 222.611 64.1898 222.564 64.3625C222.518 64.5384 222.481 64.7165 222.454 64.8962C222.454 65.0688 222.454 65.2415 222.375 65.4298V66.0577C222.375 66.2304 222.375 66.4187 222.375 66.5914C222.375 66.7641 222.375 66.9524 222.375 67.1251C222.375 67.2977 222.375 67.5489 222.375 67.7529V68.3023C222.375 68.475 222.375 68.6633 222.375 68.836C222.375 69.0087 222.375 69.2441 222.469 69.4638L222.611 69.9661L222.721 69.9347Z" fill="#00E0B8"/>
<path fill-rule="evenodd" clip-rule="evenodd" d="M222.721 69.9346C222.73 70.0023 222.73 70.0709 222.721 70.1386C222.74 70.0681 222.766 69.9998 222.799 69.9346H222.721Z" fill="#00E0B8"/>
<path fill-rule="evenodd" clip-rule="evenodd" d="M445.986 59.7158C447.428 60.5936 448.483 61.9846 448.939 63.6086C449.61 65.7697 449.43 68.1051 448.437 70.1382C448.458 69.5395 448.51 68.9422 448.594 68.3489C448.78 67.0153 448.722 65.6589 448.421 64.3463C448.102 62.9408 447.468 61.6259 446.567 60.5006L445.986 59.7158Z" fill="#00E0B8"/>
<g clip-path="url(#clip0_132_270)">
<path d="M526.006 12.4618L494.033 41.9896L503.652 45.8101L480.97 67.268L528.983 42.3638L518.672 38.9994L549.171 21.5411L526.006 12.4618Z" fill="url(#paint5_linear_132_270)"/>
<path d="M479.463 64.6857C479.331 64.6341 479.215 64.5499 479.125 64.441C479.034 64.3321 478.973 64.202 478.946 64.0628C478.919 63.9236 478.928 63.7797 478.972 63.6447C479.015 63.5096 479.092 63.3876 479.195 63.2901L500.917 42.7394L492.523 39.4061C492.391 39.3538 492.274 39.2687 492.184 39.1588C492.094 39.0488 492.033 38.9176 492.007 38.7774C491.981 38.6372 491.991 38.4926 492.036 38.3573C492.082 38.2219 492.16 38.1002 492.265 38.0035L524.233 8.4723C524.349 8.36514 524.493 8.29282 524.648 8.26361C524.803 8.2344 524.963 8.24946 525.11 8.30709L548.275 17.3864C548.422 17.4442 548.55 17.5428 548.644 17.6706C548.738 17.7985 548.794 17.9505 548.805 18.109C548.816 18.2675 548.782 18.426 548.707 18.5664C548.633 18.7067 548.52 18.823 548.382 18.9019L519.534 35.4108L528.043 38.1882C528.199 38.2408 528.336 38.3385 528.437 38.4689C528.538 38.5992 528.598 38.7567 528.611 38.9215C528.623 39.0863 528.587 39.2512 528.506 39.3957C528.426 39.5402 528.305 39.6578 528.158 39.734L480.15 64.6475C480.045 64.7023 479.929 64.7339 479.811 64.7405C479.692 64.7471 479.574 64.7284 479.463 64.6857ZM494.387 38.3319L502.763 41.6584C502.895 41.7105 503.011 41.795 503.101 41.9041C503.191 42.0132 503.252 42.1434 503.278 42.2827C503.304 42.4219 503.295 42.5656 503.252 42.7005C503.208 42.8354 503.131 42.9571 503.028 43.0544L484.688 60.3986L525.61 39.1732L517.209 36.4237C517.054 36.3734 516.918 36.279 516.816 36.152C516.713 36.0249 516.65 35.8708 516.634 35.7083C516.618 35.5458 516.649 35.3819 516.724 35.2367C516.799 35.0915 516.915 34.9712 517.056 34.8904L546.025 18.3077L524.986 10.0616L494.387 38.3319Z" fill="white"/>
</g>
<g clip-path="url(#clip1_132_270)">
<path d="M537.464 69.1241L505.286 78.7991L510.668 84.7046L487.667 91.9224L529.414 90.8831L523.396 85.0598L550.469 83.2623L537.464 69.1241Z" fill="url(#paint6_linear_132_270)"/>
<path d="M487.495 89.6206C487.421 89.5402 487.369 89.4425 487.343 89.3363C487.317 89.2302 487.319 89.1191 487.347 89.0135C487.376 88.9078 487.43 88.811 487.506 88.732C487.582 88.6529 487.677 88.5942 487.781 88.5614L509.809 81.6485L505.111 76.4954C505.037 76.4144 504.985 76.3159 504.96 76.209C504.934 76.1021 504.936 75.9905 504.966 75.8844C504.995 75.7784 505.051 75.6815 505.129 75.6029C505.206 75.5242 505.301 75.4663 505.407 75.4347L537.584 65.7559C537.701 65.7209 537.825 65.7193 537.942 65.7514C538.06 65.7836 538.165 65.8482 538.248 65.9377L551.252 80.076C551.335 80.166 551.391 80.2777 551.412 80.3982C551.434 80.5187 551.422 80.643 551.376 80.7568C551.33 80.8706 551.253 80.9693 551.153 81.0413C551.054 81.1134 550.936 81.156 550.814 81.1641L525.209 82.8611L530.174 87.6674C530.264 87.7567 530.327 87.8709 530.353 87.9955C530.378 88.1202 530.367 88.2499 530.32 88.3684C530.273 88.487 530.192 88.5891 530.087 88.6622C529.982 88.7352 529.858 88.7759 529.731 88.7792L487.985 89.8268C487.893 89.829 487.802 89.8118 487.718 89.7763C487.633 89.7408 487.557 89.6877 487.495 89.6206ZM506.768 76.3804L511.456 81.523C511.53 81.6036 511.582 81.7015 511.607 81.8077C511.633 81.9138 511.631 82.0248 511.602 82.1304C511.573 82.2359 511.518 82.3325 511.442 82.4114C511.366 82.4902 511.272 82.5486 511.167 82.5812L492.572 88.4133L528.152 87.5279L523.252 82.7776C523.162 82.6903 523.099 82.5785 523.071 82.4558C523.043 82.3331 523.052 82.2048 523.095 82.0865C523.139 81.9683 523.216 81.8651 523.317 81.7897C523.419 81.7143 523.539 81.6699 523.665 81.6618L549.38 79.9544L537.569 67.1137L506.768 76.3804Z" fill="white"/>
</g>
<path d="M143.473 12.4618L175.445 41.9896L165.827 45.8101L188.509 67.268L140.496 42.3638L150.807 38.9994L120.308 21.5411L143.473 12.4618Z" fill="url(#paint7_linear_132_270)"/>
<path d="M190.016 64.6857C190.148 64.6341 190.264 64.5499 190.354 64.441C190.445 64.3321 190.506 64.202 190.533 64.0628C190.56 63.9236 190.551 63.7797 190.507 63.6447C190.464 63.5096 190.387 63.3876 190.284 63.2901L168.562 42.7394L176.956 39.4061C177.088 39.3538 177.205 39.2687 177.295 39.1588C177.385 39.0488 177.446 38.9176 177.472 38.7774C177.498 38.6372 177.488 38.4926 177.442 38.3573C177.397 38.2219 177.319 38.1002 177.214 38.0035L145.246 8.4723C145.129 8.36514 144.986 8.29282 144.831 8.26361C144.676 8.2344 144.516 8.24946 144.369 8.30709L121.204 17.3864C121.057 17.4442 120.929 17.5428 120.835 17.6706C120.741 17.7985 120.685 17.9505 120.674 18.109C120.663 18.2675 120.697 18.426 120.771 18.5664C120.846 18.7067 120.959 18.823 121.097 18.9019L149.945 35.4108L141.436 38.1882C141.28 38.2408 141.143 38.3385 141.042 38.4689C140.941 38.5992 140.88 38.7567 140.868 38.9215C140.856 39.0863 140.892 39.2512 140.973 39.3957C141.053 39.5402 141.174 39.6578 141.321 39.734L189.328 64.6475C189.434 64.7023 189.55 64.7339 189.668 64.7405C189.787 64.7471 189.905 64.7284 190.016 64.6857ZM175.092 38.3319L166.716 41.6584C166.584 41.7105 166.468 41.795 166.378 41.9041C166.288 42.0132 166.227 42.1434 166.201 42.2827C166.174 42.4219 166.184 42.5656 166.227 42.7005C166.271 42.8354 166.348 42.9571 166.451 43.0544L184.79 60.3986L143.869 39.1732L152.27 36.4237C152.424 36.3734 152.561 36.279 152.663 36.152C152.765 36.0249 152.828 35.8708 152.845 35.7083C152.861 35.5458 152.83 35.3819 152.755 35.2367C152.68 35.0915 152.564 34.9712 152.422 34.8904L123.453 18.3077L144.493 10.0616L175.092 38.3319Z" fill="white"/>
<path d="M132.015 69.1241L164.193 78.7991L158.811 84.7046L181.812 91.9224L140.065 90.8831L146.083 85.0598L119.01 83.2623L132.015 69.1241Z" fill="url(#paint8_linear_132_270)"/>
<path d="M181.984 89.6206C182.058 89.5402 182.11 89.4425 182.136 89.3363C182.162 89.2302 182.16 89.1191 182.132 89.0135C182.103 88.9078 182.048 88.811 181.973 88.732C181.897 88.6529 181.802 88.5942 181.698 88.5614L159.67 81.6485L164.367 76.4954C164.442 76.4144 164.494 76.3159 164.519 76.209C164.545 76.1021 164.542 75.9905 164.513 75.8844C164.483 75.7784 164.427 75.6815 164.35 75.6029C164.273 75.5242 164.177 75.4663 164.072 75.4347L131.895 65.7559C131.778 65.7209 131.654 65.7193 131.537 65.7514C131.419 65.7836 131.313 65.8482 131.231 65.9377L118.227 80.076C118.144 80.166 118.088 80.2777 118.066 80.3982C118.045 80.5187 118.057 80.643 118.103 80.7568C118.149 80.8706 118.226 80.9693 118.325 81.0413C118.425 81.1134 118.542 81.156 118.665 81.1641L144.27 82.8611L139.305 87.6674C139.214 87.7567 139.152 87.8709 139.126 87.9955C139.1 88.1202 139.112 88.2499 139.159 88.3684C139.206 88.487 139.287 88.5891 139.392 88.6622C139.497 88.7352 139.62 88.7759 139.748 88.7792L181.494 89.8268C181.586 89.829 181.677 89.8118 181.761 89.7763C181.846 89.7408 181.922 89.6877 181.984 89.6206ZM162.711 76.3804L158.023 81.523C157.949 81.6036 157.897 81.7015 157.872 81.8077C157.846 81.9138 157.848 82.0248 157.877 82.1304C157.906 82.2359 157.961 82.3325 158.037 82.4114C158.113 82.4902 158.207 82.5486 158.312 82.5812L176.907 88.4133L141.327 87.5279L146.226 82.7776C146.317 82.6903 146.38 82.5785 146.408 82.4558C146.436 82.3331 146.427 82.2048 146.383 82.0865C146.34 81.9683 146.263 81.8651 146.161 81.7897C146.06 81.7143 145.939 81.6699 145.814 81.6618L120.099 79.9544L131.91 67.1137L162.711 76.3804Z" fill="white"/>
<line x1="0.998503" y1="125" x2="668.998" y2="124" stroke="#00E0B8" stroke-width="2"/>
<defs>
<linearGradient id="paint0_linear_132_270" x1="279.251" y1="54.3614" x2="320.539" y2="145.532" gradientUnits="userSpaceOnUse">
<stop stop-color="#FFF176"/>
<stop offset="1" stop-color="#00E0B8"/>
</linearGradient>
<linearGradient id="paint1_linear_132_270" x1="206.215" y1="84.1706" x2="234.901" y2="106.706" gradientUnits="userSpaceOnUse">
<stop stop-color="#FFF176"/>
<stop offset="1" stop-color="#00E0B8"/>
</linearGradient>
<linearGradient id="paint2_linear_132_270" x1="443.33" y1="84.1646" x2="472.013" y2="106.679" gradientUnits="userSpaceOnUse">
<stop stop-color="#FFF176"/>
<stop offset="1" stop-color="#00E0B8"/>
</linearGradient>
<linearGradient id="paint3_linear_132_270" x1="219.174" y1="57.775" x2="232.703" y2="69.5123" gradientUnits="userSpaceOnUse">
<stop stop-color="#FFF176"/>
<stop offset="1" stop-color="#00E0B8"/>
</linearGradient>
<linearGradient id="paint4_linear_132_270" x1="440.899" y1="57.6978" x2="454.411" y2="69.4412" gradientUnits="userSpaceOnUse">
<stop stop-color="#FFF176"/>
<stop offset="1" stop-color="#00E0B8"/>
</linearGradient>
<linearGradient id="paint5_linear_132_270" x1="509.294" y1="15.508" x2="538.377" y2="62.3222" gradientUnits="userSpaceOnUse">
<stop stop-color="#FFF176"/>
<stop offset="1" stop-color="#00E0B8"/>
</linearGradient>
<linearGradient id="paint6_linear_132_270" x1="524.835" y1="65.584" x2="529.181" y2="107.912" gradientUnits="userSpaceOnUse">
<stop stop-color="#FFF176"/>
<stop offset="1" stop-color="#00E0B8"/>
</linearGradient>
<linearGradient id="paint7_linear_132_270" x1="160.185" y1="15.508" x2="131.102" y2="62.3222" gradientUnits="userSpaceOnUse">
<stop stop-color="#FFF176"/>
<stop offset="1" stop-color="#00E0B8"/>
</linearGradient>
<linearGradient id="paint8_linear_132_270" x1="144.644" y1="65.584" x2="140.298" y2="107.912" gradientUnits="userSpaceOnUse">
<stop stop-color="#FFF176"/>
<stop offset="1" stop-color="#00E0B8"/>
</linearGradient>
<clipPath id="clip0_132_270">
<rect width="50" height="71" fill="white" transform="translate(503.909) rotate(21.4021)"/>
</clipPath>
<clipPath id="clip1_132_270">
<rect width="38.6033" height="54.8167" fill="white" transform="translate(526.345 53) rotate(47.3916)"/>
</clipPath>
</defs>
</svg>
