<?xml version="1.0" encoding="utf-8"?>
<!-- Generator: Adobe Illustrator 26.0.3, SVG Export Plug-In . SVG Version: 6.00 Build 0)  -->
<svg version="1.1" id="圖層_1" xmlns="http://www.w3.org/2000/svg" xmlns:xlink="http://www.w3.org/1999/xlink" x="0px" y="0px"
	 viewBox="0 0 539 79" style="enable-background:new 0 0 539 79;" xml:space="preserve">
<style type="text/css">
	.st0{fill:#FFFFFF;filter:url(#Adobe_OpacityMaskFilter);}
	
		.st1{mask:url(#path-1-outside-1_324_620_00000015354023124838180140000006125762200070560135_);fill:none;stroke:url(#SVGID_1_);stroke-width:4;stroke-linejoin:round;}
	.st2{fill:#FFFFFF;filter:url(#Adobe_OpacityMaskFilter_00000116947187457477433270000008540404631050107036_);}
	
		.st3{mask:url(#path-1-outside-1_324_620_00000088092995237540988230000008314998304508020373_);fill:none;stroke:url(#SVGID_00000016759978402039109850000003230637118326374538_);stroke-width:4;stroke-linejoin:round;}
	.st4{fill:#FFFFFF;filter:url(#Adobe_OpacityMaskFilter_00000175300439771639234730000009861206659042333616_);}
	
		.st5{mask:url(#path-1-outside-1_324_620_00000049181220647869567510000009055208144227626414_);fill:none;stroke:url(#SVGID_00000060003360233655471660000012551912177611804575_);stroke-width:4;stroke-linejoin:round;}
	.st6{fill:#FFFFFF;filter:url(#Adobe_OpacityMaskFilter_00000134251611163133399790000004677013645322016138_);}
	
		.st7{mask:url(#path-1-outside-1_324_620_00000130622512204718627710000000715115810804092851_);fill:none;stroke:url(#SVGID_00000048479115685456726100000002879751689507825852_);stroke-width:4;stroke-linejoin:round;}
	.st8{fill:#FFFFFF;filter:url(#Adobe_OpacityMaskFilter_00000183227870324614717980000010006298394347121303_);}
	
		.st9{mask:url(#path-1-outside-1_324_620_00000126283711973602936210000007601305904704407181_);fill:none;stroke:url(#SVGID_00000029027495221297039660000011525577578755583107_);stroke-width:4;stroke-linejoin:round;}
	.st10{fill:#FFFFFF;filter:url(#Adobe_OpacityMaskFilter_00000021809641567302242690000002422238606481600675_);}
	
		.st11{mask:url(#path-1-outside-1_324_620_00000016074273967252773830000003750003256686509731_);fill:none;stroke:url(#SVGID_00000160191819623848595310000009875387951622622594_);stroke-width:4;stroke-linejoin:round;}
	.st12{fill:#FFFFFF;filter:url(#Adobe_OpacityMaskFilter_00000134228623729501850950000009037401582621798561_);}
	
		.st13{mask:url(#path-1-outside-1_324_620_00000036960144118892412750000000265412462084166289_);fill:none;stroke:url(#SVGID_00000126284480416411217490000011831506945197094057_);stroke-width:4;stroke-linejoin:round;}
</style>
<path d="M68.2,39.6c0,5.3-0.9,10.1-2.7,14.6c-1.8,4.4-4.4,8.3-7.7,11.6c-3.3,3.2-7.3,5.8-12,7.6C41.2,75.1,36,76,30.4,76H2.1V3.2
	h28.3c5.7,0,10.8,0.9,15.4,2.8c4.7,1.8,8.7,4.4,12,7.6s5.9,7.1,7.7,11.6C67.2,29.5,68.2,34.3,68.2,39.6z M50.9,39.6
	c0-3.6-0.5-6.8-1.4-9.7c-0.9-2.9-2.3-5.4-4-7.4c-1.7-2-3.9-3.6-6.4-4.6c-2.5-1.1-5.4-1.6-8.6-1.6H19V63h11.3c3.2,0,6.1-0.5,8.6-1.6
	c2.5-1.1,4.7-2.7,6.4-4.7c1.8-2,3.1-4.5,4-7.4C50.4,46.5,50.9,43.2,50.9,39.6z"/>
<path d="M101.8,37.4c2.3,0,4.2-0.3,5.9-0.9c1.6-0.6,3-1.4,4-2.4c1-1,1.8-2.2,2.2-3.6c0.5-1.4,0.7-2.9,0.7-4.5c0-3.2-1.1-5.7-3.2-7.5
	c-2.1-1.8-5.3-2.7-9.7-2.7H95v21.6H101.8z M137.7,76h-15.3c-2.8,0-4.9-1.1-6.1-3.2l-12.1-21.2c-0.6-0.9-1.2-1.5-1.9-2
	c-0.7-0.4-1.7-0.7-3-0.7H95v27H78.1V3.2h23.7c5.3,0,9.8,0.5,13.5,1.6c3.7,1.1,6.8,2.6,9.1,4.5c2.4,1.9,4.1,4.2,5.2,6.9
	c1.1,2.6,1.6,5.5,1.6,8.6c0,2.4-0.3,4.6-0.9,6.7c-0.6,2.1-1.6,4-2.8,5.8c-1.2,1.8-2.8,3.4-4.6,4.8c-1.8,1.4-3.9,2.6-6.2,3.5
	c1.1,0.6,2.1,1.3,3.1,2.2c1,0.8,1.8,1.8,2.6,3L137.7,76z"/>
<path d="M160.8,16.2v17h22.9v12.5h-22.9V63h29.9v13h-46.9V3.2h46.9v13H160.8z"/>
<path d="M239.7,48.2l-6.8-20c-0.5-1.3-1-2.8-1.6-4.5c-0.6-1.7-1.1-3.6-1.7-5.6c-0.5,2-1,3.9-1.6,5.6c-0.6,1.7-1.1,3.2-1.6,4.5
	l-6.7,19.9H239.7z M266.5,76h-13.1c-1.5,0-2.7-0.3-3.6-1c-0.9-0.7-1.6-1.6-2.1-2.7l-4.3-12.7h-27.7l-4.3,12.7c-0.4,0.9-1,1.8-2,2.6
	c-0.9,0.7-2.1,1.1-3.5,1.1h-13.2L221,3.2h17.3L266.5,76z"/>
<path d="M354.2,3.2V76h-14.9V34.1c0-1,0-2,0-3.2c0.1-1.1,0.2-2.3,0.3-3.5L320.3,65c-0.6,1.2-1.4,2-2.5,2.6c-1,0.6-2.1,0.9-3.5,0.9
	h-2.3c-1.3,0-2.5-0.3-3.5-0.9c-1-0.6-1.8-1.5-2.4-2.6l-19.4-37.6c0.1,1.2,0.2,2.4,0.2,3.5c0.1,1.1,0.1,2.2,0.1,3.2V76h-14.9V3.2
	h12.9c0.7,0,1.4,0,1.9,0c0.6,0,1.1,0.1,1.5,0.3c0.4,0.2,0.8,0.4,1.1,0.8c0.4,0.3,0.7,0.8,1.1,1.5l18.8,37c0.7,1.3,1.3,2.6,1.9,4
	c0.6,1.4,1.2,2.8,1.8,4.2c0.6-1.5,1.1-2.9,1.8-4.3c0.6-1.4,1.3-2.7,2-4l18.7-36.8c0.3-0.6,0.7-1.1,1-1.5c0.4-0.4,0.8-0.6,1.2-0.8
	c0.4-0.2,0.9-0.3,1.5-0.3c0.6,0,1.2,0,2,0H354.2z"/>
<path d="M462.9,39.6c0,5.3-0.9,10.2-2.8,14.7c-1.8,4.5-4.4,8.5-7.6,11.8c-3.3,3.3-7.3,6-12,7.9c-4.6,1.9-9.8,2.8-15.5,2.8
	c-5.7,0-10.8-1-15.5-2.8c-4.7-1.9-8.7-4.5-12-7.9c-3.3-3.4-5.9-7.3-7.7-11.8c-1.8-4.5-2.7-9.4-2.7-14.7s0.9-10.2,2.7-14.7
	c1.8-4.5,4.4-8.5,7.7-11.8c3.3-3.3,7.3-6,12-7.9c4.7-1.9,9.8-2.8,15.5-2.8c5.7,0,10.8,1,15.5,2.9c4.7,1.9,8.6,4.5,12,7.8
	c3.3,3.3,5.8,7.3,7.6,11.8C462,29.4,462.9,34.3,462.9,39.6z M445.6,39.6c0-3.6-0.5-6.8-1.4-9.7c-0.9-2.9-2.3-5.4-4-7.4
	c-1.7-2-3.9-3.5-6.4-4.6c-2.5-1.1-5.4-1.6-8.7-1.6c-3.3,0-6.2,0.5-8.8,1.6c-2.5,1.1-4.7,2.6-6.4,4.6c-1.7,2-3.1,4.5-4,7.4
	c-0.9,2.9-1.4,6.1-1.4,9.7c0,3.6,0.5,6.9,1.4,9.8c0.9,2.9,2.3,5.3,4,7.3c1.8,2,3.9,3.5,6.4,4.6c2.6,1,5.5,1.5,8.8,1.5
	c3.2,0,6.1-0.5,8.7-1.5c2.5-1.1,4.7-2.6,6.4-4.6c1.8-2,3.1-4.4,4-7.3C445.1,46.5,445.6,43.2,445.6,39.6z"/>
<path d="M536.5,3.2V76h-8.8c-1.3,0-2.4-0.2-3.3-0.6c-0.9-0.4-1.7-1.2-2.6-2.2l-34.3-43.5c0.1,1.3,0.2,2.6,0.2,3.8
	c0.1,1.2,0.1,2.3,0.1,3.4v39h-14.9V3.2h8.9c0.7,0,1.4,0,1.9,0.1c0.5,0.1,0.9,0.2,1.3,0.4c0.4,0.2,0.8,0.4,1.2,0.8
	c0.4,0.3,0.8,0.8,1.2,1.3L522,49.5c-0.2-1.4-0.3-2.8-0.3-4c-0.1-1.3-0.1-2.6-0.1-3.8V3.2H536.5z"/>
<defs>
	<filter id="Adobe_OpacityMaskFilter" filterUnits="userSpaceOnUse" x="0.1" y="1.2" width="70.1" height="76.8">
		<feColorMatrix  type="matrix" values="1 0 0 0 0  0 1 0 0 0  0 0 1 0 0  0 0 0 1 0"/>
	</filter>
</defs>
<mask maskUnits="userSpaceOnUse" x="0.1" y="1.2" width="70.1" height="76.8" id="path-1-outside-1_324_620_00000015354023124838180140000006125762200070560135_">
	<rect x="0.1" y="0.4" class="st0" width="539" height="79"/>
	<path d="M68.2,39.6c0,5.3-0.9,10.1-2.7,14.6c-1.8,4.4-4.4,8.3-7.7,11.6c-3.3,3.2-7.3,5.8-12,7.6C41.2,75.1,36,76,30.4,76H2.1V3.2
		h28.3c5.7,0,10.8,0.9,15.4,2.8c4.7,1.8,8.7,4.4,12,7.6s5.9,7.1,7.7,11.6C67.2,29.5,68.2,34.3,68.2,39.6z M50.9,39.6
		c0-3.6-0.5-6.8-1.4-9.7c-0.9-2.9-2.3-5.4-4-7.4c-1.7-2-3.9-3.6-6.4-4.6c-2.5-1.1-5.4-1.6-8.6-1.6H19V63h11.3c3.2,0,6.1-0.5,8.6-1.6
		c2.5-1.1,4.7-2.7,6.4-4.7c1.8-2,3.1-4.5,4-7.4C50.4,46.5,50.9,43.2,50.9,39.6z"/>
	<path d="M101.8,37.4c2.3,0,4.2-0.3,5.9-0.9c1.6-0.6,3-1.4,4-2.4c1-1,1.8-2.2,2.2-3.6c0.5-1.4,0.7-2.9,0.7-4.5
		c0-3.2-1.1-5.7-3.2-7.5c-2.1-1.8-5.3-2.7-9.7-2.7H95v21.6H101.8z M137.7,76h-15.3c-2.8,0-4.9-1.1-6.1-3.2l-12.1-21.2
		c-0.6-0.9-1.2-1.5-1.9-2c-0.7-0.4-1.7-0.7-3-0.7H95v27H78.1V3.2h23.7c5.3,0,9.8,0.5,13.5,1.6c3.7,1.1,6.8,2.6,9.1,4.5
		c2.4,1.9,4.1,4.2,5.2,6.9c1.1,2.6,1.6,5.5,1.6,8.6c0,2.4-0.3,4.6-0.9,6.7c-0.6,2.1-1.6,4-2.8,5.8c-1.2,1.8-2.8,3.4-4.6,4.8
		c-1.8,1.4-3.9,2.6-6.2,3.5c1.1,0.6,2.1,1.3,3.1,2.2c1,0.8,1.8,1.8,2.6,3L137.7,76z"/>
	<path d="M160.8,16.2v17h22.9v12.5h-22.9V63h29.9v13h-46.9V3.2h46.9v13H160.8z"/>
	<path d="M239.7,48.2l-6.8-20c-0.5-1.3-1-2.8-1.6-4.5c-0.6-1.7-1.1-3.6-1.7-5.6c-0.5,2-1,3.9-1.6,5.6c-0.6,1.7-1.1,3.2-1.6,4.5
		l-6.7,19.9H239.7z M266.5,76h-13.1c-1.5,0-2.7-0.3-3.6-1c-0.9-0.7-1.6-1.6-2.1-2.7l-4.3-12.7h-27.7l-4.3,12.7c-0.4,0.9-1,1.8-2,2.6
		c-0.9,0.7-2.1,1.1-3.5,1.1h-13.2L221,3.2h17.3L266.5,76z"/>
	<path d="M354.2,3.2V76h-14.9V34.1c0-1,0-2,0-3.2c0.1-1.1,0.2-2.3,0.3-3.5L320.3,65c-0.6,1.2-1.4,2-2.5,2.6c-1,0.6-2.1,0.9-3.5,0.9
		h-2.3c-1.3,0-2.5-0.3-3.5-0.9c-1-0.6-1.8-1.5-2.4-2.6l-19.4-37.6c0.1,1.2,0.2,2.4,0.2,3.5c0.1,1.1,0.1,2.2,0.1,3.2V76h-14.9V3.2
		h12.9c0.7,0,1.4,0,1.9,0c0.6,0,1.1,0.1,1.5,0.3c0.4,0.2,0.8,0.4,1.1,0.8c0.4,0.3,0.7,0.8,1.1,1.5l18.8,37c0.7,1.3,1.3,2.6,1.9,4
		c0.6,1.4,1.2,2.8,1.8,4.2c0.6-1.5,1.1-2.9,1.8-4.3c0.6-1.4,1.3-2.7,2-4l18.7-36.8c0.3-0.6,0.7-1.1,1-1.5c0.4-0.4,0.8-0.6,1.2-0.8
		c0.4-0.2,0.9-0.3,1.5-0.3c0.6,0,1.2,0,2,0H354.2z"/>
	<path d="M462.9,39.6c0,5.3-0.9,10.2-2.8,14.7c-1.8,4.5-4.4,8.5-7.6,11.8c-3.3,3.3-7.3,6-12,7.9c-4.6,1.9-9.8,2.8-15.5,2.8
		c-5.7,0-10.8-1-15.5-2.8c-4.7-1.9-8.7-4.5-12-7.9c-3.3-3.4-5.9-7.3-7.7-11.8c-1.8-4.5-2.7-9.4-2.7-14.7s0.9-10.2,2.7-14.7
		c1.8-4.5,4.4-8.5,7.7-11.8c3.3-3.3,7.3-6,12-7.9c4.7-1.9,9.8-2.8,15.5-2.8c5.7,0,10.8,1,15.5,2.9c4.7,1.9,8.6,4.5,12,7.8
		c3.3,3.3,5.8,7.3,7.6,11.8C462,29.4,462.9,34.3,462.9,39.6z M445.6,39.6c0-3.6-0.5-6.8-1.4-9.7c-0.9-2.9-2.3-5.4-4-7.4
		c-1.7-2-3.9-3.5-6.4-4.6c-2.5-1.1-5.4-1.6-8.7-1.6c-3.3,0-6.2,0.5-8.8,1.6c-2.5,1.1-4.7,2.6-6.4,4.6c-1.7,2-3.1,4.5-4,7.4
		c-0.9,2.9-1.4,6.1-1.4,9.7c0,3.6,0.5,6.9,1.4,9.8c0.9,2.9,2.3,5.3,4,7.3c1.8,2,3.9,3.5,6.4,4.6c2.6,1,5.5,1.5,8.8,1.5
		c3.2,0,6.1-0.5,8.7-1.5c2.5-1.1,4.7-2.6,6.4-4.6c1.8-2,3.1-4.4,4-7.3C445.1,46.5,445.6,43.2,445.6,39.6z"/>
	<path d="M536.5,3.2V76h-8.8c-1.3,0-2.4-0.2-3.3-0.6c-0.9-0.4-1.7-1.2-2.6-2.2l-34.3-43.5c0.1,1.3,0.2,2.6,0.2,3.8
		c0.1,1.2,0.1,2.3,0.1,3.4v39h-14.9V3.2h8.9c0.7,0,1.4,0,1.9,0.1c0.5,0.1,0.9,0.2,1.3,0.4c0.4,0.2,0.8,0.4,1.2,0.8
		c0.4,0.3,0.8,0.8,1.2,1.3L522,49.5c-0.2-1.4-0.3-2.8-0.3-4c-0.1-1.3-0.1-2.6-0.1-3.8V3.2H536.5z"/>
</mask>
<linearGradient id="SVGID_1_" gradientUnits="userSpaceOnUse" x1="30.3362" y1="60.3919" x2="43.2818" y2="-39.5937" gradientTransform="matrix(1 0 0 -1 0 80)">
	<stop  offset="0" style="stop-color:#FFF176"/>
	<stop  offset="1" style="stop-color:#00E0B8"/>
</linearGradient>
<path class="st1" d="M68.2,39.6c0,5.3-0.9,10.1-2.7,14.6c-1.8,4.4-4.4,8.3-7.7,11.6c-3.3,3.2-7.3,5.8-12,7.6
	C41.2,75.1,36,76,30.4,76H2.1V3.2h28.3c5.7,0,10.8,0.9,15.4,2.8c4.7,1.8,8.7,4.4,12,7.6s5.9,7.1,7.7,11.6
	C67.2,29.5,68.2,34.3,68.2,39.6z M50.9,39.6c0-3.6-0.5-6.8-1.4-9.7c-0.9-2.9-2.3-5.4-4-7.4c-1.7-2-3.9-3.6-6.4-4.6
	c-2.5-1.1-5.4-1.6-8.6-1.6H19V63h11.3c3.2,0,6.1-0.5,8.6-1.6c2.5-1.1,4.7-2.7,6.4-4.7c1.8-2,3.1-4.5,4-7.4
	C50.4,46.5,50.9,43.2,50.9,39.6z"/>
<defs>
	
		<filter id="Adobe_OpacityMaskFilter_00000129205455258569090320000014143628550858005434_" filterUnits="userSpaceOnUse" x="76.1" y="1.2" width="63.6" height="76.8">
		<feColorMatrix  type="matrix" values="1 0 0 0 0  0 1 0 0 0  0 0 1 0 0  0 0 0 1 0"/>
	</filter>
</defs>
<mask maskUnits="userSpaceOnUse" x="76.1" y="1.2" width="63.6" height="76.8" id="path-1-outside-1_324_620_00000088092995237540988230000008314998304508020373_">
	
		<rect x="0.1" y="0.4" style="fill:#FFFFFF;filter:url(#Adobe_OpacityMaskFilter_00000129205455258569090320000014143628550858005434_);" width="539" height="79"/>
	<path d="M68.2,39.6c0,5.3-0.9,10.1-2.7,14.6c-1.8,4.4-4.4,8.3-7.7,11.6c-3.3,3.2-7.3,5.8-12,7.6C41.2,75.1,36,76,30.4,76H2.1V3.2
		h28.3c5.7,0,10.8,0.9,15.4,2.8c4.7,1.8,8.7,4.4,12,7.6s5.9,7.1,7.7,11.6C67.2,29.5,68.2,34.3,68.2,39.6z M50.9,39.6
		c0-3.6-0.5-6.8-1.4-9.7c-0.9-2.9-2.3-5.4-4-7.4c-1.7-2-3.9-3.6-6.4-4.6c-2.5-1.1-5.4-1.6-8.6-1.6H19V63h11.3c3.2,0,6.1-0.5,8.6-1.6
		c2.5-1.1,4.7-2.7,6.4-4.7c1.8-2,3.1-4.5,4-7.4C50.4,46.5,50.9,43.2,50.9,39.6z"/>
	<path d="M101.8,37.4c2.3,0,4.2-0.3,5.9-0.9c1.6-0.6,3-1.4,4-2.4c1-1,1.8-2.2,2.2-3.6c0.5-1.4,0.7-2.9,0.7-4.5
		c0-3.2-1.1-5.7-3.2-7.5c-2.1-1.8-5.3-2.7-9.7-2.7H95v21.6H101.8z M137.7,76h-15.3c-2.8,0-4.9-1.1-6.1-3.2l-12.1-21.2
		c-0.6-0.9-1.2-1.5-1.9-2c-0.7-0.4-1.7-0.7-3-0.7H95v27H78.1V3.2h23.7c5.3,0,9.8,0.5,13.5,1.6c3.7,1.1,6.8,2.6,9.1,4.5
		c2.4,1.9,4.1,4.2,5.2,6.9c1.1,2.6,1.6,5.5,1.6,8.6c0,2.4-0.3,4.6-0.9,6.7c-0.6,2.1-1.6,4-2.8,5.8c-1.2,1.8-2.8,3.4-4.6,4.8
		c-1.8,1.4-3.9,2.6-6.2,3.5c1.1,0.6,2.1,1.3,3.1,2.2c1,0.8,1.8,1.8,2.6,3L137.7,76z"/>
	<path d="M160.8,16.2v17h22.9v12.5h-22.9V63h29.9v13h-46.9V3.2h46.9v13H160.8z"/>
	<path d="M239.7,48.2l-6.8-20c-0.5-1.3-1-2.8-1.6-4.5c-0.6-1.7-1.1-3.6-1.7-5.6c-0.5,2-1,3.9-1.6,5.6c-0.6,1.7-1.1,3.2-1.6,4.5
		l-6.7,19.9H239.7z M266.5,76h-13.1c-1.5,0-2.7-0.3-3.6-1c-0.9-0.7-1.6-1.6-2.1-2.7l-4.3-12.7h-27.7l-4.3,12.7c-0.4,0.9-1,1.8-2,2.6
		c-0.9,0.7-2.1,1.1-3.5,1.1h-13.2L221,3.2h17.3L266.5,76z"/>
	<path d="M354.2,3.2V76h-14.9V34.1c0-1,0-2,0-3.2c0.1-1.1,0.2-2.3,0.3-3.5L320.3,65c-0.6,1.2-1.4,2-2.5,2.6c-1,0.6-2.1,0.9-3.5,0.9
		h-2.3c-1.3,0-2.5-0.3-3.5-0.9c-1-0.6-1.8-1.5-2.4-2.6l-19.4-37.6c0.1,1.2,0.2,2.4,0.2,3.5c0.1,1.1,0.1,2.2,0.1,3.2V76h-14.9V3.2
		h12.9c0.7,0,1.4,0,1.9,0c0.6,0,1.1,0.1,1.5,0.3c0.4,0.2,0.8,0.4,1.1,0.8c0.4,0.3,0.7,0.8,1.1,1.5l18.8,37c0.7,1.3,1.3,2.6,1.9,4
		c0.6,1.4,1.2,2.8,1.8,4.2c0.6-1.5,1.1-2.9,1.8-4.3c0.6-1.4,1.3-2.7,2-4l18.7-36.8c0.3-0.6,0.7-1.1,1-1.5c0.4-0.4,0.8-0.6,1.2-0.8
		c0.4-0.2,0.9-0.3,1.5-0.3c0.6,0,1.2,0,2,0H354.2z"/>
	<path d="M462.9,39.6c0,5.3-0.9,10.2-2.8,14.7c-1.8,4.5-4.4,8.5-7.6,11.8c-3.3,3.3-7.3,6-12,7.9c-4.6,1.9-9.8,2.8-15.5,2.8
		c-5.7,0-10.8-1-15.5-2.8c-4.7-1.9-8.7-4.5-12-7.9c-3.3-3.4-5.9-7.3-7.7-11.8c-1.8-4.5-2.7-9.4-2.7-14.7s0.9-10.2,2.7-14.7
		c1.8-4.5,4.4-8.5,7.7-11.8c3.3-3.3,7.3-6,12-7.9c4.7-1.9,9.8-2.8,15.5-2.8c5.7,0,10.8,1,15.5,2.9c4.7,1.9,8.6,4.5,12,7.8
		c3.3,3.3,5.8,7.3,7.6,11.8C462,29.4,462.9,34.3,462.9,39.6z M445.6,39.6c0-3.6-0.5-6.8-1.4-9.7c-0.9-2.9-2.3-5.4-4-7.4
		c-1.7-2-3.9-3.5-6.4-4.6c-2.5-1.1-5.4-1.6-8.7-1.6c-3.3,0-6.2,0.5-8.8,1.6c-2.5,1.1-4.7,2.6-6.4,4.6c-1.7,2-3.1,4.5-4,7.4
		c-0.9,2.9-1.4,6.1-1.4,9.7c0,3.6,0.5,6.9,1.4,9.8c0.9,2.9,2.3,5.3,4,7.3c1.8,2,3.9,3.5,6.4,4.6c2.6,1,5.5,1.5,8.8,1.5
		c3.2,0,6.1-0.5,8.7-1.5c2.5-1.1,4.7-2.6,6.4-4.6c1.8-2,3.1-4.4,4-7.3C445.1,46.5,445.6,43.2,445.6,39.6z"/>
	<path d="M536.5,3.2V76h-8.8c-1.3,0-2.4-0.2-3.3-0.6c-0.9-0.4-1.7-1.2-2.6-2.2l-34.3-43.5c0.1,1.3,0.2,2.6,0.2,3.8
		c0.1,1.2,0.1,2.3,0.1,3.4v39h-14.9V3.2h8.9c0.7,0,1.4,0,1.9,0.1c0.5,0.1,0.9,0.2,1.3,0.4c0.4,0.2,0.8,0.4,1.2,0.8
		c0.4,0.3,0.8,0.8,1.2,1.3L522,49.5c-0.2-1.4-0.3-2.8-0.3-4c-0.1-1.3-0.1-2.6-0.1-3.8V3.2H536.5z"/>
</mask>
<linearGradient id="SVGID_00000146488429525101853910000010607432719907057343_" gradientUnits="userSpaceOnUse" x1="99.5869" y1="69.3581" x2="112.5325" y2="-30.6275" gradientTransform="matrix(1 0 0 -1 0 80)">
	<stop  offset="0" style="stop-color:#FFF176"/>
	<stop  offset="1" style="stop-color:#00E0B8"/>
</linearGradient>
<path style="mask:url(#path-1-outside-1_324_620_00000088092995237540988230000008314998304508020373_);fill:none;stroke:url(#SVGID_00000146488429525101853910000010607432719907057343_);stroke-width:4;stroke-linejoin:round;" d="
	M101.8,37.4c2.3,0,4.2-0.3,5.9-0.9c1.6-0.6,3-1.4,4-2.4c1-1,1.8-2.2,2.2-3.6c0.5-1.4,0.7-2.9,0.7-4.5c0-3.2-1.1-5.7-3.2-7.5
	c-2.1-1.8-5.3-2.7-9.7-2.7H95v21.6H101.8z M137.7,76h-15.3c-2.8,0-4.9-1.1-6.1-3.2l-12.1-21.2c-0.6-0.9-1.2-1.5-1.9-2
	c-0.7-0.4-1.7-0.7-3-0.7H95v27H78.1V3.2h23.7c5.3,0,9.8,0.5,13.5,1.6c3.7,1.1,6.8,2.6,9.1,4.5c2.4,1.9,4.1,4.2,5.2,6.9
	c1.1,2.6,1.6,5.5,1.6,8.6c0,2.4-0.3,4.6-0.9,6.7c-0.6,2.1-1.6,4-2.8,5.8c-1.2,1.8-2.8,3.4-4.6,4.8c-1.8,1.4-3.9,2.6-6.2,3.5
	c1.1,0.6,2.1,1.3,3.1,2.2c1,0.8,1.8,1.8,2.6,3L137.7,76z"/>
<defs>
	
		<filter id="Adobe_OpacityMaskFilter_00000067231441006823975790000004512673676080947640_" filterUnits="userSpaceOnUse" x="141.8" y="1.2" width="50.9" height="76.8">
		<feColorMatrix  type="matrix" values="1 0 0 0 0  0 1 0 0 0  0 0 1 0 0  0 0 0 1 0"/>
	</filter>
</defs>
<mask maskUnits="userSpaceOnUse" x="141.8" y="1.2" width="50.9" height="76.8" id="path-1-outside-1_324_620_00000049181220647869567510000009055208144227626414_">
	
		<rect x="0.1" y="0.4" style="fill:#FFFFFF;filter:url(#Adobe_OpacityMaskFilter_00000067231441006823975790000004512673676080947640_);" width="539" height="79"/>
	<path d="M68.2,39.6c0,5.3-0.9,10.1-2.7,14.6c-1.8,4.4-4.4,8.3-7.7,11.6c-3.3,3.2-7.3,5.8-12,7.6C41.2,75.1,36,76,30.4,76H2.1V3.2
		h28.3c5.7,0,10.8,0.9,15.4,2.8c4.7,1.8,8.7,4.4,12,7.6s5.9,7.1,7.7,11.6C67.2,29.5,68.2,34.3,68.2,39.6z M50.9,39.6
		c0-3.6-0.5-6.8-1.4-9.7c-0.9-2.9-2.3-5.4-4-7.4c-1.7-2-3.9-3.6-6.4-4.6c-2.5-1.1-5.4-1.6-8.6-1.6H19V63h11.3c3.2,0,6.1-0.5,8.6-1.6
		c2.5-1.1,4.7-2.7,6.4-4.7c1.8-2,3.1-4.5,4-7.4C50.4,46.5,50.9,43.2,50.9,39.6z"/>
	<path d="M101.8,37.4c2.3,0,4.2-0.3,5.9-0.9c1.6-0.6,3-1.4,4-2.4c1-1,1.8-2.2,2.2-3.6c0.5-1.4,0.7-2.9,0.7-4.5
		c0-3.2-1.1-5.7-3.2-7.5c-2.1-1.8-5.3-2.7-9.7-2.7H95v21.6H101.8z M137.7,76h-15.3c-2.8,0-4.9-1.1-6.1-3.2l-12.1-21.2
		c-0.6-0.9-1.2-1.5-1.9-2c-0.7-0.4-1.7-0.7-3-0.7H95v27H78.1V3.2h23.7c5.3,0,9.8,0.5,13.5,1.6c3.7,1.1,6.8,2.6,9.1,4.5
		c2.4,1.9,4.1,4.2,5.2,6.9c1.1,2.6,1.6,5.5,1.6,8.6c0,2.4-0.3,4.6-0.9,6.7c-0.6,2.1-1.6,4-2.8,5.8c-1.2,1.8-2.8,3.4-4.6,4.8
		c-1.8,1.4-3.9,2.6-6.2,3.5c1.1,0.6,2.1,1.3,3.1,2.2c1,0.8,1.8,1.8,2.6,3L137.7,76z"/>
	<path d="M160.8,16.2v17h22.9v12.5h-22.9V63h29.9v13h-46.9V3.2h46.9v13H160.8z"/>
	<path d="M239.7,48.2l-6.8-20c-0.5-1.3-1-2.8-1.6-4.5c-0.6-1.7-1.1-3.6-1.7-5.6c-0.5,2-1,3.9-1.6,5.6c-0.6,1.7-1.1,3.2-1.6,4.5
		l-6.7,19.9H239.7z M266.5,76h-13.1c-1.5,0-2.7-0.3-3.6-1c-0.9-0.7-1.6-1.6-2.1-2.7l-4.3-12.7h-27.7l-4.3,12.7c-0.4,0.9-1,1.8-2,2.6
		c-0.9,0.7-2.1,1.1-3.5,1.1h-13.2L221,3.2h17.3L266.5,76z"/>
	<path d="M354.2,3.2V76h-14.9V34.1c0-1,0-2,0-3.2c0.1-1.1,0.2-2.3,0.3-3.5L320.3,65c-0.6,1.2-1.4,2-2.5,2.6c-1,0.6-2.1,0.9-3.5,0.9
		h-2.3c-1.3,0-2.5-0.3-3.5-0.9c-1-0.6-1.8-1.5-2.4-2.6l-19.4-37.6c0.1,1.2,0.2,2.4,0.2,3.5c0.1,1.1,0.1,2.2,0.1,3.2V76h-14.9V3.2
		h12.9c0.7,0,1.4,0,1.9,0c0.6,0,1.1,0.1,1.5,0.3c0.4,0.2,0.8,0.4,1.1,0.8c0.4,0.3,0.7,0.8,1.1,1.5l18.8,37c0.7,1.3,1.3,2.6,1.9,4
		c0.6,1.4,1.2,2.8,1.8,4.2c0.6-1.5,1.1-2.9,1.8-4.3c0.6-1.4,1.3-2.7,2-4l18.7-36.8c0.3-0.6,0.7-1.1,1-1.5c0.4-0.4,0.8-0.6,1.2-0.8
		c0.4-0.2,0.9-0.3,1.5-0.3c0.6,0,1.2,0,2,0H354.2z"/>
	<path d="M462.9,39.6c0,5.3-0.9,10.2-2.8,14.7c-1.8,4.5-4.4,8.5-7.6,11.8c-3.3,3.3-7.3,6-12,7.9c-4.6,1.9-9.8,2.8-15.5,2.8
		c-5.7,0-10.8-1-15.5-2.8c-4.7-1.9-8.7-4.5-12-7.9c-3.3-3.4-5.9-7.3-7.7-11.8c-1.8-4.5-2.7-9.4-2.7-14.7s0.9-10.2,2.7-14.7
		c1.8-4.5,4.4-8.5,7.7-11.8c3.3-3.3,7.3-6,12-7.9c4.7-1.9,9.8-2.8,15.5-2.8c5.7,0,10.8,1,15.5,2.9c4.7,1.9,8.6,4.5,12,7.8
		c3.3,3.3,5.8,7.3,7.6,11.8C462,29.4,462.9,34.3,462.9,39.6z M445.6,39.6c0-3.6-0.5-6.8-1.4-9.7c-0.9-2.9-2.3-5.4-4-7.4
		c-1.7-2-3.9-3.5-6.4-4.6c-2.5-1.1-5.4-1.6-8.7-1.6c-3.3,0-6.2,0.5-8.8,1.6c-2.5,1.1-4.7,2.6-6.4,4.6c-1.7,2-3.1,4.5-4,7.4
		c-0.9,2.9-1.4,6.1-1.4,9.7c0,3.6,0.5,6.9,1.4,9.8c0.9,2.9,2.3,5.3,4,7.3c1.8,2,3.9,3.5,6.4,4.6c2.6,1,5.5,1.5,8.8,1.5
		c3.2,0,6.1-0.5,8.7-1.5c2.5-1.1,4.7-2.6,6.4-4.6c1.8-2,3.1-4.4,4-7.3C445.1,46.5,445.6,43.2,445.6,39.6z"/>
	<path d="M536.5,3.2V76h-8.8c-1.3,0-2.4-0.2-3.3-0.6c-0.9-0.4-1.7-1.2-2.6-2.2l-34.3-43.5c0.1,1.3,0.2,2.6,0.2,3.8
		c0.1,1.2,0.1,2.3,0.1,3.4v39h-14.9V3.2h8.9c0.7,0,1.4,0,1.9,0.1c0.5,0.1,0.9,0.2,1.3,0.4c0.4,0.2,0.8,0.4,1.2,0.8
		c0.4,0.3,0.8,0.8,1.2,1.3L522,49.5c-0.2-1.4-0.3-2.8-0.3-4c-0.1-1.3-0.1-2.6-0.1-3.8V3.2H536.5z"/>
</mask>
<linearGradient id="SVGID_00000014623674052472743820000015983457707204687801_" gradientUnits="userSpaceOnUse" x1="162.4963" y1="77.5033" x2="175.4419" y2="-22.4823" gradientTransform="matrix(1 0 0 -1 0 80)">
	<stop  offset="0" style="stop-color:#FFF176"/>
	<stop  offset="1" style="stop-color:#00E0B8"/>
</linearGradient>
<path style="mask:url(#path-1-outside-1_324_620_00000049181220647869567510000009055208144227626414_);fill:none;stroke:url(#SVGID_00000014623674052472743820000015983457707204687801_);stroke-width:4;stroke-linejoin:round;" d="
	M160.8,16.2v17h22.9v12.5h-22.9V63h29.9v13h-46.9V3.2h46.9v13H160.8z"/>
<defs>
	
		<filter id="Adobe_OpacityMaskFilter_00000070090539901451905710000008872931482421828541_" filterUnits="userSpaceOnUse" x="190.8" y="1.2" width="77.7" height="76.8">
		<feColorMatrix  type="matrix" values="1 0 0 0 0  0 1 0 0 0  0 0 1 0 0  0 0 0 1 0"/>
	</filter>
</defs>
<mask maskUnits="userSpaceOnUse" x="190.8" y="1.2" width="77.7" height="76.8" id="path-1-outside-1_324_620_00000130622512204718627710000000715115810804092851_">
	
		<rect x="0.1" y="0.4" style="fill:#FFFFFF;filter:url(#Adobe_OpacityMaskFilter_00000070090539901451905710000008872931482421828541_);" width="539" height="79"/>
	<path d="M68.2,39.6c0,5.3-0.9,10.1-2.7,14.6c-1.8,4.4-4.4,8.3-7.7,11.6c-3.3,3.2-7.3,5.8-12,7.6C41.2,75.1,36,76,30.4,76H2.1V3.2
		h28.3c5.7,0,10.8,0.9,15.4,2.8c4.7,1.8,8.7,4.4,12,7.6s5.9,7.1,7.7,11.6C67.2,29.5,68.2,34.3,68.2,39.6z M50.9,39.6
		c0-3.6-0.5-6.8-1.4-9.7c-0.9-2.9-2.3-5.4-4-7.4c-1.7-2-3.9-3.6-6.4-4.6c-2.5-1.1-5.4-1.6-8.6-1.6H19V63h11.3c3.2,0,6.1-0.5,8.6-1.6
		c2.5-1.1,4.7-2.7,6.4-4.7c1.8-2,3.1-4.5,4-7.4C50.4,46.5,50.9,43.2,50.9,39.6z"/>
	<path d="M101.8,37.4c2.3,0,4.2-0.3,5.9-0.9c1.6-0.6,3-1.4,4-2.4c1-1,1.8-2.2,2.2-3.6c0.5-1.4,0.7-2.9,0.7-4.5
		c0-3.2-1.1-5.7-3.2-7.5c-2.1-1.8-5.3-2.7-9.7-2.7H95v21.6H101.8z M137.7,76h-15.3c-2.8,0-4.9-1.1-6.1-3.2l-12.1-21.2
		c-0.6-0.9-1.2-1.5-1.9-2c-0.7-0.4-1.7-0.7-3-0.7H95v27H78.1V3.2h23.7c5.3,0,9.8,0.5,13.5,1.6c3.7,1.1,6.8,2.6,9.1,4.5
		c2.4,1.9,4.1,4.2,5.2,6.9c1.1,2.6,1.6,5.5,1.6,8.6c0,2.4-0.3,4.6-0.9,6.7c-0.6,2.1-1.6,4-2.8,5.8c-1.2,1.8-2.8,3.4-4.6,4.8
		c-1.8,1.4-3.9,2.6-6.2,3.5c1.1,0.6,2.1,1.3,3.1,2.2c1,0.8,1.8,1.8,2.6,3L137.7,76z"/>
	<path d="M160.8,16.2v17h22.9v12.5h-22.9V63h29.9v13h-46.9V3.2h46.9v13H160.8z"/>
	<path d="M239.7,48.2l-6.8-20c-0.5-1.3-1-2.8-1.6-4.5c-0.6-1.7-1.1-3.6-1.7-5.6c-0.5,2-1,3.9-1.6,5.6c-0.6,1.7-1.1,3.2-1.6,4.5
		l-6.7,19.9H239.7z M266.5,76h-13.1c-1.5,0-2.7-0.3-3.6-1c-0.9-0.7-1.6-1.6-2.1-2.7l-4.3-12.7h-27.7l-4.3,12.7c-0.4,0.9-1,1.8-2,2.6
		c-0.9,0.7-2.1,1.1-3.5,1.1h-13.2L221,3.2h17.3L266.5,76z"/>
	<path d="M354.2,3.2V76h-14.9V34.1c0-1,0-2,0-3.2c0.1-1.1,0.2-2.3,0.3-3.5L320.3,65c-0.6,1.2-1.4,2-2.5,2.6c-1,0.6-2.1,0.9-3.5,0.9
		h-2.3c-1.3,0-2.5-0.3-3.5-0.9c-1-0.6-1.8-1.5-2.4-2.6l-19.4-37.6c0.1,1.2,0.2,2.4,0.2,3.5c0.1,1.1,0.1,2.2,0.1,3.2V76h-14.9V3.2
		h12.9c0.7,0,1.4,0,1.9,0c0.6,0,1.1,0.1,1.5,0.3c0.4,0.2,0.8,0.4,1.1,0.8c0.4,0.3,0.7,0.8,1.1,1.5l18.8,37c0.7,1.3,1.3,2.6,1.9,4
		c0.6,1.4,1.2,2.8,1.8,4.2c0.6-1.5,1.1-2.9,1.8-4.3c0.6-1.4,1.3-2.7,2-4l18.7-36.8c0.3-0.6,0.7-1.1,1-1.5c0.4-0.4,0.8-0.6,1.2-0.8
		c0.4-0.2,0.9-0.3,1.5-0.3c0.6,0,1.2,0,2,0H354.2z"/>
	<path d="M462.9,39.6c0,5.3-0.9,10.2-2.8,14.7c-1.8,4.5-4.4,8.5-7.6,11.8c-3.3,3.3-7.3,6-12,7.9c-4.6,1.9-9.8,2.8-15.5,2.8
		c-5.7,0-10.8-1-15.5-2.8c-4.7-1.9-8.7-4.5-12-7.9c-3.3-3.4-5.9-7.3-7.7-11.8c-1.8-4.5-2.7-9.4-2.7-14.7s0.9-10.2,2.7-14.7
		c1.8-4.5,4.4-8.5,7.7-11.8c3.3-3.3,7.3-6,12-7.9c4.7-1.9,9.8-2.8,15.5-2.8c5.7,0,10.8,1,15.5,2.9c4.7,1.9,8.6,4.5,12,7.8
		c3.3,3.3,5.8,7.3,7.6,11.8C462,29.4,462.9,34.3,462.9,39.6z M445.6,39.6c0-3.6-0.5-6.8-1.4-9.7c-0.9-2.9-2.3-5.4-4-7.4
		c-1.7-2-3.9-3.5-6.4-4.6c-2.5-1.1-5.4-1.6-8.7-1.6c-3.3,0-6.2,0.5-8.8,1.6c-2.5,1.1-4.7,2.6-6.4,4.6c-1.7,2-3.1,4.5-4,7.4
		c-0.9,2.9-1.4,6.1-1.4,9.7c0,3.6,0.5,6.9,1.4,9.8c0.9,2.9,2.3,5.3,4,7.3c1.8,2,3.9,3.5,6.4,4.6c2.6,1,5.5,1.5,8.8,1.5
		c3.2,0,6.1-0.5,8.7-1.5c2.5-1.1,4.7-2.6,6.4-4.6c1.8-2,3.1-4.4,4-7.3C445.1,46.5,445.6,43.2,445.6,39.6z"/>
	<path d="M536.5,3.2V76h-8.8c-1.3,0-2.4-0.2-3.3-0.6c-0.9-0.4-1.7-1.2-2.6-2.2l-34.3-43.5c0.1,1.3,0.2,2.6,0.2,3.8
		c0.1,1.2,0.1,2.3,0.1,3.4v39h-14.9V3.2h8.9c0.7,0,1.4,0,1.9,0.1c0.5,0.1,0.9,0.2,1.3,0.4c0.4,0.2,0.8,0.4,1.2,0.8
		c0.4,0.3,0.8,0.8,1.2,1.3L522,49.5c-0.2-1.4-0.3-2.8-0.3-4c-0.1-1.3-0.1-2.6-0.1-3.8V3.2H536.5z"/>
</mask>
<linearGradient id="SVGID_00000027570535096548880450000008153666188963140993_" gradientUnits="userSpaceOnUse" x1="219.2036" y1="84.8455" x2="232.1492" y2="-15.1401" gradientTransform="matrix(1 0 0 -1 0 80)">
	<stop  offset="0" style="stop-color:#FFF176"/>
	<stop  offset="1" style="stop-color:#00E0B8"/>
</linearGradient>
<path style="mask:url(#path-1-outside-1_324_620_00000130622512204718627710000000715115810804092851_);fill:none;stroke:url(#SVGID_00000027570535096548880450000008153666188963140993_);stroke-width:4;stroke-linejoin:round;" d="
	M239.7,48.2l-6.8-20c-0.5-1.3-1-2.8-1.6-4.5c-0.6-1.7-1.1-3.6-1.7-5.6c-0.5,2-1,3.9-1.6,5.6c-0.6,1.7-1.1,3.2-1.6,4.5l-6.7,19.9
	H239.7z M266.5,76h-13.1c-1.5,0-2.7-0.3-3.6-1c-0.9-0.7-1.6-1.6-2.1-2.7l-4.3-12.7h-27.7l-4.3,12.7c-0.4,0.9-1,1.8-2,2.6
	c-0.9,0.7-2.1,1.1-3.5,1.1h-13.2L221,3.2h17.3L266.5,76z"/>
<defs>
	
		<filter id="Adobe_OpacityMaskFilter_00000027578503721481083100000013596483099670861702_" filterUnits="userSpaceOnUse" x="270.3" y="1.2" width="85.9" height="76.8">
		<feColorMatrix  type="matrix" values="1 0 0 0 0  0 1 0 0 0  0 0 1 0 0  0 0 0 1 0"/>
	</filter>
</defs>
<mask maskUnits="userSpaceOnUse" x="270.3" y="1.2" width="85.9" height="76.8" id="path-1-outside-1_324_620_00000126283711973602936210000007601305904704407181_">
	
		<rect x="0.1" y="0.4" style="fill:#FFFFFF;filter:url(#Adobe_OpacityMaskFilter_00000027578503721481083100000013596483099670861702_);" width="539" height="79"/>
	<path d="M68.2,39.6c0,5.3-0.9,10.1-2.7,14.6c-1.8,4.4-4.4,8.3-7.7,11.6c-3.3,3.2-7.3,5.8-12,7.6C41.2,75.1,36,76,30.4,76H2.1V3.2
		h28.3c5.7,0,10.8,0.9,15.4,2.8c4.7,1.8,8.7,4.4,12,7.6s5.9,7.1,7.7,11.6C67.2,29.5,68.2,34.3,68.2,39.6z M50.9,39.6
		c0-3.6-0.5-6.8-1.4-9.7c-0.9-2.9-2.3-5.4-4-7.4c-1.7-2-3.9-3.6-6.4-4.6c-2.5-1.1-5.4-1.6-8.6-1.6H19V63h11.3c3.2,0,6.1-0.5,8.6-1.6
		c2.5-1.1,4.7-2.7,6.4-4.7c1.8-2,3.1-4.5,4-7.4C50.4,46.5,50.9,43.2,50.9,39.6z"/>
	<path d="M101.8,37.4c2.3,0,4.2-0.3,5.9-0.9c1.6-0.6,3-1.4,4-2.4c1-1,1.8-2.2,2.2-3.6c0.5-1.4,0.7-2.9,0.7-4.5
		c0-3.2-1.1-5.7-3.2-7.5c-2.1-1.8-5.3-2.7-9.7-2.7H95v21.6H101.8z M137.7,76h-15.3c-2.8,0-4.9-1.1-6.1-3.2l-12.1-21.2
		c-0.6-0.9-1.2-1.5-1.9-2c-0.7-0.4-1.7-0.7-3-0.7H95v27H78.1V3.2h23.7c5.3,0,9.8,0.5,13.5,1.6c3.7,1.1,6.8,2.6,9.1,4.5
		c2.4,1.9,4.1,4.2,5.2,6.9c1.1,2.6,1.6,5.5,1.6,8.6c0,2.4-0.3,4.6-0.9,6.7c-0.6,2.1-1.6,4-2.8,5.8c-1.2,1.8-2.8,3.4-4.6,4.8
		c-1.8,1.4-3.9,2.6-6.2,3.5c1.1,0.6,2.1,1.3,3.1,2.2c1,0.8,1.8,1.8,2.6,3L137.7,76z"/>
	<path d="M160.8,16.2v17h22.9v12.5h-22.9V63h29.9v13h-46.9V3.2h46.9v13H160.8z"/>
	<path d="M239.7,48.2l-6.8-20c-0.5-1.3-1-2.8-1.6-4.5c-0.6-1.7-1.1-3.6-1.7-5.6c-0.5,2-1,3.9-1.6,5.6c-0.6,1.7-1.1,3.2-1.6,4.5
		l-6.7,19.9H239.7z M266.5,76h-13.1c-1.5,0-2.7-0.3-3.6-1c-0.9-0.7-1.6-1.6-2.1-2.7l-4.3-12.7h-27.7l-4.3,12.7c-0.4,0.9-1,1.8-2,2.6
		c-0.9,0.7-2.1,1.1-3.5,1.1h-13.2L221,3.2h17.3L266.5,76z"/>
	<path d="M354.2,3.2V76h-14.9V34.1c0-1,0-2,0-3.2c0.1-1.1,0.2-2.3,0.3-3.5L320.3,65c-0.6,1.2-1.4,2-2.5,2.6c-1,0.6-2.1,0.9-3.5,0.9
		h-2.3c-1.3,0-2.5-0.3-3.5-0.9c-1-0.6-1.8-1.5-2.4-2.6l-19.4-37.6c0.1,1.2,0.2,2.4,0.2,3.5c0.1,1.1,0.1,2.2,0.1,3.2V76h-14.9V3.2
		h12.9c0.7,0,1.4,0,1.9,0c0.6,0,1.1,0.1,1.5,0.3c0.4,0.2,0.8,0.4,1.1,0.8c0.4,0.3,0.7,0.8,1.1,1.5l18.8,37c0.7,1.3,1.3,2.6,1.9,4
		c0.6,1.4,1.2,2.8,1.8,4.2c0.6-1.5,1.1-2.9,1.8-4.3c0.6-1.4,1.3-2.7,2-4l18.7-36.8c0.3-0.6,0.7-1.1,1-1.5c0.4-0.4,0.8-0.6,1.2-0.8
		c0.4-0.2,0.9-0.3,1.5-0.3c0.6,0,1.2,0,2,0H354.2z"/>
	<path d="M462.9,39.6c0,5.3-0.9,10.2-2.8,14.7c-1.8,4.5-4.4,8.5-7.6,11.8c-3.3,3.3-7.3,6-12,7.9c-4.6,1.9-9.8,2.8-15.5,2.8
		c-5.7,0-10.8-1-15.5-2.8c-4.7-1.9-8.7-4.5-12-7.9c-3.3-3.4-5.9-7.3-7.7-11.8c-1.8-4.5-2.7-9.4-2.7-14.7s0.9-10.2,2.7-14.7
		c1.8-4.5,4.4-8.5,7.7-11.8c3.3-3.3,7.3-6,12-7.9c4.7-1.9,9.8-2.8,15.5-2.8c5.7,0,10.8,1,15.5,2.9c4.7,1.9,8.6,4.5,12,7.8
		c3.3,3.3,5.8,7.3,7.6,11.8C462,29.4,462.9,34.3,462.9,39.6z M445.6,39.6c0-3.6-0.5-6.8-1.4-9.7c-0.9-2.9-2.3-5.4-4-7.4
		c-1.7-2-3.9-3.5-6.4-4.6c-2.5-1.1-5.4-1.6-8.7-1.6c-3.3,0-6.2,0.5-8.8,1.6c-2.5,1.1-4.7,2.6-6.4,4.6c-1.7,2-3.1,4.5-4,7.4
		c-0.9,2.9-1.4,6.1-1.4,9.7c0,3.6,0.5,6.9,1.4,9.8c0.9,2.9,2.3,5.3,4,7.3c1.8,2,3.9,3.5,6.4,4.6c2.6,1,5.5,1.5,8.8,1.5
		c3.2,0,6.1-0.5,8.7-1.5c2.5-1.1,4.7-2.6,6.4-4.6c1.8-2,3.1-4.4,4-7.3C445.1,46.5,445.6,43.2,445.6,39.6z"/>
	<path d="M536.5,3.2V76h-8.8c-1.3,0-2.4-0.2-3.3-0.6c-0.9-0.4-1.7-1.2-2.6-2.2l-34.3-43.5c0.1,1.3,0.2,2.6,0.2,3.8
		c0.1,1.2,0.1,2.3,0.1,3.4v39h-14.9V3.2h8.9c0.7,0,1.4,0,1.9,0.1c0.5,0.1,0.9,0.2,1.3,0.4c0.4,0.2,0.8,0.4,1.2,0.8
		c0.4,0.3,0.8,0.8,1.2,1.3L522,49.5c-0.2-1.4-0.3-2.8-0.3-4c-0.1-1.3-0.1-2.6-0.1-3.8V3.2H536.5z"/>
</mask>
<linearGradient id="SVGID_00000064324331962074274390000000346837981311361431_" gradientUnits="userSpaceOnUse" x1="306.0085" y1="96.0845" x2="318.9541" y2="-3.9011" gradientTransform="matrix(1 0 0 -1 0 80)">
	<stop  offset="0" style="stop-color:#FFF176"/>
	<stop  offset="1" style="stop-color:#00E0B8"/>
</linearGradient>
<path style="mask:url(#path-1-outside-1_324_620_00000126283711973602936210000007601305904704407181_);fill:none;stroke:url(#SVGID_00000064324331962074274390000000346837981311361431_);stroke-width:4;stroke-linejoin:round;" d="
	M354.2,3.2V76h-14.9V34.1c0-1,0-2,0-3.2c0.1-1.1,0.2-2.3,0.3-3.5L320.3,65c-0.6,1.2-1.4,2-2.5,2.6c-1,0.6-2.1,0.9-3.5,0.9h-2.3
	c-1.3,0-2.5-0.3-3.5-0.9c-1-0.6-1.8-1.5-2.4-2.6l-19.4-37.6c0.1,1.2,0.2,2.4,0.2,3.5c0.1,1.1,0.1,2.2,0.1,3.2V76h-14.9V3.2h12.9
	c0.7,0,1.4,0,1.9,0c0.6,0,1.1,0.1,1.5,0.3c0.4,0.2,0.8,0.4,1.1,0.8c0.4,0.3,0.7,0.8,1.1,1.5l18.8,37c0.7,1.3,1.3,2.6,1.9,4
	c0.6,1.4,1.2,2.8,1.8,4.2c0.6-1.5,1.1-2.9,1.8-4.3c0.6-1.4,1.3-2.7,2-4l18.7-36.8c0.3-0.6,0.7-1.1,1-1.5c0.4-0.4,0.8-0.6,1.2-0.8
	c0.4-0.2,0.9-0.3,1.5-0.3c0.6,0,1.2,0,2,0H354.2z"/>
<defs>
	
		<filter id="Adobe_OpacityMaskFilter_00000039836710275096332690000004674879831772783521_" filterUnits="userSpaceOnUse" x="385.2" y="0.4" width="79.7" height="78.5">
		<feColorMatrix  type="matrix" values="1 0 0 0 0  0 1 0 0 0  0 0 1 0 0  0 0 0 1 0"/>
	</filter>
</defs>
<mask maskUnits="userSpaceOnUse" x="385.2" y="0.4" width="79.7" height="78.5" id="path-1-outside-1_324_620_00000016074273967252773830000003750003256686509731_">
	
		<rect x="0.1" y="0.4" style="fill:#FFFFFF;filter:url(#Adobe_OpacityMaskFilter_00000039836710275096332690000004674879831772783521_);" width="539" height="79"/>
	<path d="M68.2,39.6c0,5.3-0.9,10.1-2.7,14.6c-1.8,4.4-4.4,8.3-7.7,11.6c-3.3,3.2-7.3,5.8-12,7.6C41.2,75.1,36,76,30.4,76H2.1V3.2
		h28.3c5.7,0,10.8,0.9,15.4,2.8c4.7,1.8,8.7,4.4,12,7.6s5.9,7.1,7.7,11.6C67.2,29.5,68.2,34.3,68.2,39.6z M50.9,39.6
		c0-3.6-0.5-6.8-1.4-9.7c-0.9-2.9-2.3-5.4-4-7.4c-1.7-2-3.9-3.6-6.4-4.6c-2.5-1.1-5.4-1.6-8.6-1.6H19V63h11.3c3.2,0,6.1-0.5,8.6-1.6
		c2.5-1.1,4.7-2.7,6.4-4.7c1.8-2,3.1-4.5,4-7.4C50.4,46.5,50.9,43.2,50.9,39.6z"/>
	<path d="M101.8,37.4c2.3,0,4.2-0.3,5.9-0.9c1.6-0.6,3-1.4,4-2.4c1-1,1.8-2.2,2.2-3.6c0.5-1.4,0.7-2.9,0.7-4.5
		c0-3.2-1.1-5.7-3.2-7.5c-2.1-1.8-5.3-2.7-9.7-2.7H95v21.6H101.8z M137.7,76h-15.3c-2.8,0-4.9-1.1-6.1-3.2l-12.1-21.2
		c-0.6-0.9-1.2-1.5-1.9-2c-0.7-0.4-1.7-0.7-3-0.7H95v27H78.1V3.2h23.7c5.3,0,9.8,0.5,13.5,1.6c3.7,1.1,6.8,2.6,9.1,4.5
		c2.4,1.9,4.1,4.2,5.2,6.9c1.1,2.6,1.6,5.5,1.6,8.6c0,2.4-0.3,4.6-0.9,6.7c-0.6,2.1-1.6,4-2.8,5.8c-1.2,1.8-2.8,3.4-4.6,4.8
		c-1.8,1.4-3.9,2.6-6.2,3.5c1.1,0.6,2.1,1.3,3.1,2.2c1,0.8,1.8,1.8,2.6,3L137.7,76z"/>
	<path d="M160.8,16.2v17h22.9v12.5h-22.9V63h29.9v13h-46.9V3.2h46.9v13H160.8z"/>
	<path d="M239.7,48.2l-6.8-20c-0.5-1.3-1-2.8-1.6-4.5c-0.6-1.7-1.1-3.6-1.7-5.6c-0.5,2-1,3.9-1.6,5.6c-0.6,1.7-1.1,3.2-1.6,4.5
		l-6.7,19.9H239.7z M266.5,76h-13.1c-1.5,0-2.7-0.3-3.6-1c-0.9-0.7-1.6-1.6-2.1-2.7l-4.3-12.7h-27.7l-4.3,12.7c-0.4,0.9-1,1.8-2,2.6
		c-0.9,0.7-2.1,1.1-3.5,1.1h-13.2L221,3.2h17.3L266.5,76z"/>
	<path d="M354.2,3.2V76h-14.9V34.1c0-1,0-2,0-3.2c0.1-1.1,0.2-2.3,0.3-3.5L320.3,65c-0.6,1.2-1.4,2-2.5,2.6c-1,0.6-2.1,0.9-3.5,0.9
		h-2.3c-1.3,0-2.5-0.3-3.5-0.9c-1-0.6-1.8-1.5-2.4-2.6l-19.4-37.6c0.1,1.2,0.2,2.4,0.2,3.5c0.1,1.1,0.1,2.2,0.1,3.2V76h-14.9V3.2
		h12.9c0.7,0,1.4,0,1.9,0c0.6,0,1.1,0.1,1.5,0.3c0.4,0.2,0.8,0.4,1.1,0.8c0.4,0.3,0.7,0.8,1.1,1.5l18.8,37c0.7,1.3,1.3,2.6,1.9,4
		c0.6,1.4,1.2,2.8,1.8,4.2c0.6-1.5,1.1-2.9,1.8-4.3c0.6-1.4,1.3-2.7,2-4l18.7-36.8c0.3-0.6,0.7-1.1,1-1.5c0.4-0.4,0.8-0.6,1.2-0.8
		c0.4-0.2,0.9-0.3,1.5-0.3c0.6,0,1.2,0,2,0H354.2z"/>
	<path d="M462.9,39.6c0,5.3-0.9,10.2-2.8,14.7c-1.8,4.5-4.4,8.5-7.6,11.8c-3.3,3.3-7.3,6-12,7.9c-4.6,1.9-9.8,2.8-15.5,2.8
		c-5.7,0-10.8-1-15.5-2.8c-4.7-1.9-8.7-4.5-12-7.9c-3.3-3.4-5.9-7.3-7.7-11.8c-1.8-4.5-2.7-9.4-2.7-14.7s0.9-10.2,2.7-14.7
		c1.8-4.5,4.4-8.5,7.7-11.8c3.3-3.3,7.3-6,12-7.9c4.7-1.9,9.8-2.8,15.5-2.8c5.7,0,10.8,1,15.5,2.9c4.7,1.9,8.6,4.5,12,7.8
		c3.3,3.3,5.8,7.3,7.6,11.8C462,29.4,462.9,34.3,462.9,39.6z M445.6,39.6c0-3.6-0.5-6.8-1.4-9.7c-0.9-2.9-2.3-5.4-4-7.4
		c-1.7-2-3.9-3.5-6.4-4.6c-2.5-1.1-5.4-1.6-8.7-1.6c-3.3,0-6.2,0.5-8.8,1.6c-2.5,1.1-4.7,2.6-6.4,4.6c-1.7,2-3.1,4.5-4,7.4
		c-0.9,2.9-1.4,6.1-1.4,9.7c0,3.6,0.5,6.9,1.4,9.8c0.9,2.9,2.3,5.3,4,7.3c1.8,2,3.9,3.5,6.4,4.6c2.6,1,5.5,1.5,8.8,1.5
		c3.2,0,6.1-0.5,8.7-1.5c2.5-1.1,4.7-2.6,6.4-4.6c1.8-2,3.1-4.4,4-7.3C445.1,46.5,445.6,43.2,445.6,39.6z"/>
	<path d="M536.5,3.2V76h-8.8c-1.3,0-2.4-0.2-3.3-0.6c-0.9-0.4-1.7-1.2-2.6-2.2l-34.3-43.5c0.1,1.3,0.2,2.6,0.2,3.8
		c0.1,1.2,0.1,2.3,0.1,3.4v39h-14.9V3.2h8.9c0.7,0,1.4,0,1.9,0.1c0.5,0.1,0.9,0.2,1.3,0.4c0.4,0.2,0.8,0.4,1.2,0.8
		c0.4,0.3,0.8,0.8,1.2,1.3L522,49.5c-0.2-1.4-0.3-2.8-0.3-4c-0.1-1.3-0.1-2.6-0.1-3.8V3.2H536.5z"/>
</mask>
<linearGradient id="SVGID_00000072997529943115845200000016310648806268547994_" gradientUnits="userSpaceOnUse" x1="416.0037" y1="110.3261" x2="428.9493" y2="10.3405" gradientTransform="matrix(1 0 0 -1 0 80)">
	<stop  offset="0" style="stop-color:#FFF176"/>
	<stop  offset="1" style="stop-color:#00E0B8"/>
</linearGradient>
<path style="mask:url(#path-1-outside-1_324_620_00000016074273967252773830000003750003256686509731_);fill:none;stroke:url(#SVGID_00000072997529943115845200000016310648806268547994_);stroke-width:4;stroke-linejoin:round;" d="
	M462.9,39.6c0,5.3-0.9,10.2-2.8,14.7c-1.8,4.5-4.4,8.5-7.6,11.8c-3.3,3.3-7.3,6-12,7.9c-4.6,1.9-9.8,2.8-15.5,2.8
	c-5.7,0-10.8-1-15.5-2.8c-4.7-1.9-8.7-4.5-12-7.9c-3.3-3.4-5.9-7.3-7.7-11.8c-1.8-4.5-2.7-9.4-2.7-14.7s0.9-10.2,2.7-14.7
	c1.8-4.5,4.4-8.5,7.7-11.8c3.3-3.3,7.3-6,12-7.9c4.7-1.9,9.8-2.8,15.5-2.8c5.7,0,10.8,1,15.5,2.9c4.7,1.9,8.6,4.5,12,7.8
	c3.3,3.3,5.8,7.3,7.6,11.8C462,29.4,462.9,34.3,462.9,39.6z M445.6,39.6c0-3.6-0.5-6.8-1.4-9.7c-0.9-2.9-2.3-5.4-4-7.4
	c-1.7-2-3.9-3.5-6.4-4.6c-2.5-1.1-5.4-1.6-8.7-1.6c-3.3,0-6.2,0.5-8.8,1.6c-2.5,1.1-4.7,2.6-6.4,4.6c-1.7,2-3.1,4.5-4,7.4
	c-0.9,2.9-1.4,6.1-1.4,9.7c0,3.6,0.5,6.9,1.4,9.8c0.9,2.9,2.3,5.3,4,7.3c1.8,2,3.9,3.5,6.4,4.6c2.6,1,5.5,1.5,8.8,1.5
	c3.2,0,6.1-0.5,8.7-1.5c2.5-1.1,4.7-2.6,6.4-4.6c1.8-2,3.1-4.4,4-7.3C445.1,46.5,445.6,43.2,445.6,39.6z"/>
<defs>
	
		<filter id="Adobe_OpacityMaskFilter_00000036230675079797777700000009066187244852426147_" filterUnits="userSpaceOnUse" x="470.9" y="1.2" width="67.6" height="76.8">
		<feColorMatrix  type="matrix" values="1 0 0 0 0  0 1 0 0 0  0 0 1 0 0  0 0 0 1 0"/>
	</filter>
</defs>
<mask maskUnits="userSpaceOnUse" x="470.9" y="1.2" width="67.6" height="76.8" id="path-1-outside-1_324_620_00000036960144118892412750000000265412462084166289_">
	
		<rect x="0.1" y="0.4" style="fill:#FFFFFF;filter:url(#Adobe_OpacityMaskFilter_00000036230675079797777700000009066187244852426147_);" width="539" height="79"/>
	<path d="M68.2,39.6c0,5.3-0.9,10.1-2.7,14.6c-1.8,4.4-4.4,8.3-7.7,11.6c-3.3,3.2-7.3,5.8-12,7.6C41.2,75.1,36,76,30.4,76H2.1V3.2
		h28.3c5.7,0,10.8,0.9,15.4,2.8c4.7,1.8,8.7,4.4,12,7.6s5.9,7.1,7.7,11.6C67.2,29.5,68.2,34.3,68.2,39.6z M50.9,39.6
		c0-3.6-0.5-6.8-1.4-9.7c-0.9-2.9-2.3-5.4-4-7.4c-1.7-2-3.9-3.6-6.4-4.6c-2.5-1.1-5.4-1.6-8.6-1.6H19V63h11.3c3.2,0,6.1-0.5,8.6-1.6
		c2.5-1.1,4.7-2.7,6.4-4.7c1.8-2,3.1-4.5,4-7.4C50.4,46.5,50.9,43.2,50.9,39.6z"/>
	<path d="M101.8,37.4c2.3,0,4.2-0.3,5.9-0.9c1.6-0.6,3-1.4,4-2.4c1-1,1.8-2.2,2.2-3.6c0.5-1.4,0.7-2.9,0.7-4.5
		c0-3.2-1.1-5.7-3.2-7.5c-2.1-1.8-5.3-2.7-9.7-2.7H95v21.6H101.8z M137.7,76h-15.3c-2.8,0-4.9-1.1-6.1-3.2l-12.1-21.2
		c-0.6-0.9-1.2-1.5-1.9-2c-0.7-0.4-1.7-0.7-3-0.7H95v27H78.1V3.2h23.7c5.3,0,9.8,0.5,13.5,1.6c3.7,1.1,6.8,2.6,9.1,4.5
		c2.4,1.9,4.1,4.2,5.2,6.9c1.1,2.6,1.6,5.5,1.6,8.6c0,2.4-0.3,4.6-0.9,6.7c-0.6,2.1-1.6,4-2.8,5.8c-1.2,1.8-2.8,3.4-4.6,4.8
		c-1.8,1.4-3.9,2.6-6.2,3.5c1.1,0.6,2.1,1.3,3.1,2.2c1,0.8,1.8,1.8,2.6,3L137.7,76z"/>
	<path d="M160.8,16.2v17h22.9v12.5h-22.9V63h29.9v13h-46.9V3.2h46.9v13H160.8z"/>
	<path d="M239.7,48.2l-6.8-20c-0.5-1.3-1-2.8-1.6-4.5c-0.6-1.7-1.1-3.6-1.7-5.6c-0.5,2-1,3.9-1.6,5.6c-0.6,1.7-1.1,3.2-1.6,4.5
		l-6.7,19.9H239.7z M266.5,76h-13.1c-1.5,0-2.7-0.3-3.6-1c-0.9-0.7-1.6-1.6-2.1-2.7l-4.3-12.7h-27.7l-4.3,12.7c-0.4,0.9-1,1.8-2,2.6
		c-0.9,0.7-2.1,1.1-3.5,1.1h-13.2L221,3.2h17.3L266.5,76z"/>
	<path d="M354.2,3.2V76h-14.9V34.1c0-1,0-2,0-3.2c0.1-1.1,0.2-2.3,0.3-3.5L320.3,65c-0.6,1.2-1.4,2-2.5,2.6c-1,0.6-2.1,0.9-3.5,0.9
		h-2.3c-1.3,0-2.5-0.3-3.5-0.9c-1-0.6-1.8-1.5-2.4-2.6l-19.4-37.6c0.1,1.2,0.2,2.4,0.2,3.5c0.1,1.1,0.1,2.2,0.1,3.2V76h-14.9V3.2
		h12.9c0.7,0,1.4,0,1.9,0c0.6,0,1.1,0.1,1.5,0.3c0.4,0.2,0.8,0.4,1.1,0.8c0.4,0.3,0.7,0.8,1.1,1.5l18.8,37c0.7,1.3,1.3,2.6,1.9,4
		c0.6,1.4,1.2,2.8,1.8,4.2c0.6-1.5,1.1-2.9,1.8-4.3c0.6-1.4,1.3-2.7,2-4l18.7-36.8c0.3-0.6,0.7-1.1,1-1.5c0.4-0.4,0.8-0.6,1.2-0.8
		c0.4-0.2,0.9-0.3,1.5-0.3c0.6,0,1.2,0,2,0H354.2z"/>
	<path d="M462.9,39.6c0,5.3-0.9,10.2-2.8,14.7c-1.8,4.5-4.4,8.5-7.6,11.8c-3.3,3.3-7.3,6-12,7.9c-4.6,1.9-9.8,2.8-15.5,2.8
		c-5.7,0-10.8-1-15.5-2.8c-4.7-1.9-8.7-4.5-12-7.9c-3.3-3.4-5.9-7.3-7.7-11.8c-1.8-4.5-2.7-9.4-2.7-14.7s0.9-10.2,2.7-14.7
		c1.8-4.5,4.4-8.5,7.7-11.8c3.3-3.3,7.3-6,12-7.9c4.7-1.9,9.8-2.8,15.5-2.8c5.7,0,10.8,1,15.5,2.9c4.7,1.9,8.6,4.5,12,7.8
		c3.3,3.3,5.8,7.3,7.6,11.8C462,29.4,462.9,34.3,462.9,39.6z M445.6,39.6c0-3.6-0.5-6.8-1.4-9.7c-0.9-2.9-2.3-5.4-4-7.4
		c-1.7-2-3.9-3.5-6.4-4.6c-2.5-1.1-5.4-1.6-8.7-1.6c-3.3,0-6.2,0.5-8.8,1.6c-2.5,1.1-4.7,2.6-6.4,4.6c-1.7,2-3.1,4.5-4,7.4
		c-0.9,2.9-1.4,6.1-1.4,9.7c0,3.6,0.5,6.9,1.4,9.8c0.9,2.9,2.3,5.3,4,7.3c1.8,2,3.9,3.5,6.4,4.6c2.6,1,5.5,1.5,8.8,1.5
		c3.2,0,6.1-0.5,8.7-1.5c2.5-1.1,4.7-2.6,6.4-4.6c1.8-2,3.1-4.4,4-7.3C445.1,46.5,445.6,43.2,445.6,39.6z"/>
	<path d="M536.5,3.2V76h-8.8c-1.3,0-2.4-0.2-3.3-0.6c-0.9-0.4-1.7-1.2-2.6-2.2l-34.3-43.5c0.1,1.3,0.2,2.6,0.2,3.8
		c0.1,1.2,0.1,2.3,0.1,3.4v39h-14.9V3.2h8.9c0.7,0,1.4,0,1.9,0.1c0.5,0.1,0.9,0.2,1.3,0.4c0.4,0.2,0.8,0.4,1.2,0.8
		c0.4,0.3,0.8,0.8,1.2,1.3L522,49.5c-0.2-1.4-0.3-2.8-0.3-4c-0.1-1.3-0.1-2.6-0.1-3.8V3.2H536.5z"/>
</mask>
<linearGradient id="SVGID_00000053511413143328521670000003534330805835586470_" gradientUnits="userSpaceOnUse" x1="494.2882" y1="120.462" x2="507.2338" y2="20.4764" gradientTransform="matrix(1 0 0 -1 0 80)">
	<stop  offset="0" style="stop-color:#FFF176"/>
	<stop  offset="1" style="stop-color:#00E0B8"/>
</linearGradient>
<path style="mask:url(#path-1-outside-1_324_620_00000036960144118892412750000000265412462084166289_);fill:none;stroke:url(#SVGID_00000053511413143328521670000003534330805835586470_);stroke-width:4;stroke-linejoin:round;" d="
	M536.5,3.2V76h-8.8c-1.3,0-2.4-0.2-3.3-0.6c-0.9-0.4-1.7-1.2-2.6-2.2l-34.3-43.5c0.1,1.3,0.2,2.6,0.2,3.8c0.1,1.2,0.1,2.3,0.1,3.4
	v39h-14.9V3.2h8.9c0.7,0,1.4,0,1.9,0.1c0.5,0.1,0.9,0.2,1.3,0.4c0.4,0.2,0.8,0.4,1.2,0.8c0.4,0.3,0.8,0.8,1.2,1.3L522,49.5
	c-0.2-1.4-0.3-2.8-0.3-4c-0.1-1.3-0.1-2.6-0.1-3.8V3.2H536.5z"/>
</svg>
