<svg width="207" height="102" viewBox="0 0 207 102" fill="none" xmlns="http://www.w3.org/2000/svg">
<path opacity="0.8" d="M5.208 42.52V43.36H10.692V42.52H5.208ZM5.22 44.536V45.328H9.384V44.536H5.22ZM5.508 46.396V51.004H6.3V46.396H5.508ZM5.964 46.396V47.176H8.124V49.396H5.964V50.176H8.94V46.396H5.964ZM10.248 42.52V51.748C10.248 51.964 10.176 52.036 9.948 52.036C9.72 52.048 8.916 52.06 8.1 52.024C8.232 52.288 8.364 52.708 8.412 52.96C9.492 52.96 10.188 52.948 10.596 52.792C10.992 52.636 11.124 52.348 11.124 51.76V42.52H10.248ZM1.02 45.556V46.276H4.536V45.556H1.02ZM1.056 42.352V43.072H4.488V42.352H1.056ZM1.02 47.164V47.884H4.536V47.164H1.02ZM0.456 43.924V44.668H4.872V43.924H0.456ZM1.416 48.784V49.528H3.744V51.532H1.416V52.288H4.536V48.784H1.416ZM1.008 48.784V52.84H1.788V48.784H1.008ZM13.74 51.316V52.204H22.284V51.316H13.74ZM13.728 47.812V48.664H22.404V47.812H13.728ZM13.176 44.32V52.972H14.028V45.196H21.984V52.912H22.872V44.32H13.176ZM16.056 42.052V51.904H16.932V42.052H16.056ZM18.96 42.052V51.856H19.848V42.052H18.96ZM30.24 41.44H29.748V53.44H30.24V41.44ZM37.848 45.7V46.54H42.336V45.7H37.848ZM37.416 43.144V51.424H38.256V43.444L37.416 43.144ZM36.42 51.208L36.588 52.132C38.148 51.868 40.416 51.496 42.528 51.124L42.48 50.26C40.26 50.62 37.92 51.004 36.42 51.208ZM41.292 41.932C40.44 42.448 38.94 43.012 37.62 43.396C37.74 43.576 37.884 43.888 37.932 44.092C39.336 43.708 40.944 43.168 42.06 42.58L41.292 41.932ZM40.2 46.06V51.1L41.016 50.992V46.06H40.2ZM42.84 42.688V53.008H43.716V43.54H46.68V42.688H42.84ZM46.452 42.688V42.988C46.032 43.948 45.324 45.592 44.652 46.804C45.984 47.848 46.392 48.736 46.392 49.492C46.392 49.924 46.296 50.26 46.02 50.416C45.852 50.512 45.648 50.548 45.444 50.56C45.168 50.572 44.796 50.572 44.412 50.536C44.568 50.8 44.664 51.196 44.676 51.448C45.048 51.472 45.48 51.472 45.816 51.436C46.152 51.4 46.428 51.304 46.656 51.172C47.112 50.872 47.304 50.32 47.292 49.576C47.292 48.724 46.968 47.776 45.636 46.672C46.236 45.592 46.92 44.236 47.448 43.084L46.776 42.652L46.632 42.688H46.452ZM51.132 43.216H56.988V44.104H51.132V43.216ZM50.268 42.616V44.704H57.888V42.616H50.268ZM53.544 41.92V45.652H54.432V41.92H53.544ZM48.648 45.352V46.06H59.352V45.352H48.648ZM51.048 48.532H57.084V49.276H51.048V48.532ZM51.048 49.84H57.084V50.596H51.048V49.84ZM51.048 47.236H57.084V47.968H51.048V47.236ZM50.172 46.648V51.172H57.984V46.648H50.172ZM54.972 51.772C56.28 52.156 57.576 52.624 58.332 52.972L59.364 52.516C58.488 52.156 57.036 51.676 55.716 51.316L54.972 51.772ZM52.2 51.292C51.336 51.724 49.884 52.096 48.636 52.336C48.84 52.492 49.152 52.828 49.296 53.008C50.496 52.708 52.032 52.192 53.004 51.652L52.2 51.292ZM64.44 46.912V47.68H71.532V46.912H64.44ZM65.616 48.532V49.252H70.692V48.532H65.616ZM66.24 47.128C65.724 48.268 64.788 49.3 63.78 49.972C63.96 50.092 64.248 50.368 64.38 50.512C65.376 49.756 66.396 48.604 66.984 47.332L66.24 47.128ZM67.068 48.652C66.432 50.056 65.292 51.292 64.02 52.072C64.2 52.192 64.488 52.48 64.608 52.612C65.868 51.76 67.08 50.416 67.8 48.856L67.068 48.652ZM68.832 48.7C68.376 50.248 67.5 51.616 66.396 52.48C66.588 52.6 66.9 52.84 67.032 52.972C68.124 52.024 69.06 50.56 69.588 48.868L68.832 48.7ZM70.308 48.532V48.664C70.176 50.992 70.032 51.868 69.804 52.096C69.708 52.204 69.6 52.216 69.432 52.216C69.24 52.216 68.784 52.216 68.28 52.168C68.4 52.372 68.484 52.708 68.496 52.936C69.012 52.96 69.516 52.96 69.792 52.936C70.092 52.924 70.296 52.84 70.488 52.636C70.788 52.288 70.956 51.352 71.1 48.892C71.112 48.772 71.124 48.532 71.124 48.532H70.308ZM66.06 44.536H69.816V45.484H66.06V44.536ZM66.06 42.964H69.816V43.9H66.06V42.964ZM65.232 42.304V46.144H70.656V42.304H65.232ZM60.324 48.304L60.528 49.192C61.596 48.868 62.976 48.436 64.284 48.028L64.176 47.224C62.76 47.632 61.296 48.064 60.324 48.304ZM60.528 44.344V45.184H64.224V44.344H60.528ZM62.16 41.932V51.868C62.16 52.048 62.088 52.096 61.932 52.096C61.788 52.108 61.284 52.108 60.744 52.084C60.864 52.336 60.984 52.732 61.02 52.96C61.8 52.96 62.292 52.936 62.604 52.78C62.916 52.636 63.024 52.384 63.024 51.868V41.932H62.16ZM82.5131 42.748V43.588H89.5091V42.748H82.5131ZM87.6131 43.168V51.832C87.6131 52.072 87.5171 52.144 87.2651 52.156C87.0011 52.168 86.1131 52.168 85.1651 52.144C85.2851 52.384 85.4291 52.732 85.4771 52.96C86.7131 52.972 87.4451 52.96 87.8771 52.828C88.2971 52.696 88.4771 52.456 88.4771 51.832V43.168H87.6131ZM83.3291 45.292V46.072H85.5251V48.868H83.3291V49.648H86.3291V45.292H83.3291ZM82.9211 45.292V50.56H83.7131V45.292H82.9211ZM78.9131 42.448V52.972H79.7291V43.264H81.7091V42.448H78.9131ZM81.4931 42.448V42.688C81.2411 43.504 80.7971 44.884 80.3531 45.976C81.2291 46.924 81.4451 47.764 81.4451 48.424C81.4451 48.784 81.3731 49.12 81.1931 49.252C81.0851 49.324 80.9651 49.348 80.8091 49.36C80.6171 49.384 80.3891 49.372 80.1131 49.348C80.2451 49.576 80.3291 49.924 80.3411 50.14C80.6051 50.152 80.9051 50.152 81.1451 50.128C81.3971 50.092 81.6011 50.02 81.7691 49.9C82.1051 49.66 82.2491 49.144 82.2491 48.496C82.2491 47.752 82.0451 46.876 81.1691 45.88C81.5771 44.92 82.0211 43.744 82.3691 42.76L81.7811 42.412L81.6491 42.448H81.4931ZM90.6251 48.784V49.588H101.281V48.784H90.6251ZM95.4611 47.668V52.936H96.3731V47.668H95.4611ZM95.0531 49.096C94.0691 50.368 92.1371 51.508 90.3851 52.048C90.5891 52.228 90.8531 52.576 90.9971 52.804C92.7491 52.168 94.7051 50.884 95.7971 49.432L95.0531 49.096ZM96.7931 49.12L96.0371 49.48C97.1291 50.896 99.0851 52.12 100.909 52.72C101.041 52.48 101.317 52.132 101.509 51.952C99.6851 51.46 97.7651 50.368 96.7931 49.12ZM94.9931 45.796H96.8771V47.116H94.9931V45.796ZM94.9931 43.816H96.8771V45.112H94.9931V43.816ZM94.2131 43.108V47.824H97.6691V43.108H94.2131ZM95.6171 41.92C95.5451 42.352 95.3771 42.988 95.2331 43.408L95.9411 43.564C96.1211 43.18 96.3251 42.604 96.5171 42.064L95.6171 41.92ZM90.7091 44.26C91.3091 44.752 92.0171 45.448 92.3291 45.928L92.7491 45.268C92.4371 44.812 91.7171 44.14 91.1051 43.684L90.7091 44.26ZM92.8931 46.024C93.2411 46.708 93.5771 47.632 93.6731 48.208L94.3091 47.956C94.2011 47.404 93.8531 46.504 93.4931 45.832L92.8931 46.024ZM93.1931 43.672C92.7011 44.764 91.8251 46.3 91.1291 47.236L91.7171 47.512C92.4131 46.588 93.2651 45.136 93.9011 43.948L93.1931 43.672ZM92.2571 42.004C92.0171 42.7 91.5611 43.684 91.2131 44.296L91.8131 44.56C92.1851 43.96 92.6171 43.048 92.9771 42.268L92.2571 42.004ZM90.6011 47.164L90.6971 47.944C91.5731 47.8 92.6411 47.656 93.7451 47.476L93.7331 46.828C92.5451 46.96 91.4171 47.092 90.6011 47.164ZM97.5971 44.164C98.2331 44.716 98.9531 45.496 99.2651 46.024L99.7331 45.4C99.4091 44.896 98.6771 44.14 98.0531 43.612L97.5971 44.164ZM99.8291 45.928C100.237 46.684 100.633 47.668 100.753 48.304L101.425 48.028C101.293 47.416 100.873 46.432 100.453 45.7L99.8291 45.928ZM100.129 43.66C99.6371 44.764 98.7251 46.312 98.0171 47.26L98.6051 47.536C99.3251 46.6 100.201 45.136 100.837 43.948L100.129 43.66ZM99.2531 41.968C99.0131 42.664 98.5451 43.648 98.1851 44.26L98.7851 44.524C99.1691 43.924 99.6131 43.024 99.9851 42.232L99.2531 41.968ZM97.6451 47.164L97.7531 47.944C98.6291 47.824 99.7211 47.68 100.825 47.536L100.813 46.876C99.6251 46.984 98.4851 47.092 97.6451 47.164Z" fill="white"/>
<path d="M202.929 25.1299L0 25.1299L0 26.0199L202.929 26.0199V25.1299Z" fill="white"/>
<path d="M207 22L190 22V29H207V22Z" fill="#00E0B8"/>
<path d="M3.78 9.686C3.192 9.266 2.03 8.65 1.204 8.272L0.63 9.042C1.498 9.462 2.632 10.12 3.192 10.54L3.78 9.686ZM1.96 16.882C2.786 15.594 3.766 13.872 4.508 12.402L3.752 11.716C2.94 13.298 1.848 15.132 1.092 16.182L1.96 16.882ZM1.386 5.22C2.226 5.696 3.332 6.396 3.864 6.872L4.508 6.06C3.948 5.612 2.814 4.94 1.988 4.492L1.386 5.22ZM9.366 15.132V6.634H12.6V5.612H5.236V6.634H8.274V15.132H4.578V16.168H13.37V15.132H9.366ZM22.288 7.012H23.31V6.046H26.502V5.192H23.31V4.296H22.288V5.192H20.636V6.046H22.288V7.012ZM20.86 11.94H23.688L23.086 12.332C23.226 12.43 23.366 12.528 23.52 12.64C22.624 12.668 21.728 12.682 20.86 12.696V11.94ZM16.492 11.324V10.596H19.838V11.324H16.492ZM16.492 9.294H19.838V10.008H16.492V9.294ZM24.304 9.294V10.008H20.86V9.294H24.304ZM24.304 11.324H20.86V10.596H24.304V11.324ZM26.124 13.732C25.648 13.256 24.696 12.486 23.884 11.94H25.312V8.678H20.86V8.006H26.068V7.264H20.86V6.536H19.838V7.264H14.602V8.006H19.838V8.678H15.512V11.94H19.838V12.724C17.808 12.766 15.932 12.78 14.518 12.794L14.574 13.62C17.066 13.564 20.804 13.452 24.36 13.326C24.766 13.662 25.13 13.998 25.396 14.278L26.124 13.732ZM22.036 14.866C21.574 14.46 20.664 13.928 19.936 13.62L19.306 14.166C20.034 14.516 20.93 15.062 21.378 15.468L22.036 14.866ZM17.374 7.026H18.382V6.046H20.188V5.192H18.382V4.296H17.374V5.192H14.294V6.046H17.374V7.026ZM14.77 16.882C15.736 16.308 16.38 15.37 16.814 14.474L15.96 14.11C15.582 14.936 14.896 15.818 13.972 16.308L14.77 16.882ZM19.474 16C18.76 16 18.634 15.944 18.634 15.636V14.054H17.64V15.636C17.64 16.588 18.004 16.826 19.404 16.826H22.064C23.1 16.826 23.408 16.504 23.534 15.16C23.254 15.104 22.876 14.978 22.652 14.838C22.596 15.86 22.498 16 21.952 16H19.474ZM23.324 14.53C24.332 15.188 25.48 16.182 25.998 16.868L26.81 16.294C26.236 15.594 25.06 14.642 24.08 14.012L23.324 14.53ZM35.014 10.68L38.024 4.408L37.268 4.156L34.16 10.68L37.268 17.204L38.024 16.952L35.014 10.68ZM37.226 10.68L40.236 4.408L39.48 4.156L36.372 10.68L39.48 17.204L40.236 16.952L37.226 10.68ZM51.212 10.26H47.908V9.574C48.888 9.042 49.896 8.286 50.61 7.558L49.994 7.082L49.77 7.138H44.156V8.006H48.832C48.258 8.468 47.558 8.944 46.914 9.266V10.26H43.274V11.156H46.914V13.648C46.914 13.816 46.858 13.872 46.634 13.886C46.424 13.9 45.724 13.9 44.898 13.872C45.038 14.138 45.22 14.502 45.29 14.782C46.298 14.782 46.928 14.768 47.362 14.614C47.782 14.46 47.908 14.208 47.908 13.662V11.156H51.212V10.26ZM42.378 15.356V5.948H51.8V15.356H42.378ZM41.356 4.94V16.994H42.378V16.364H51.8V16.868H52.864V4.94H41.356ZM57.246 4.296C56.504 6.424 55.286 8.496 53.998 9.854C54.166 10.078 54.474 10.624 54.586 10.862C54.978 10.428 55.384 9.924 55.762 9.392V17.078H56.756V7.796C57.316 6.788 57.82 5.696 58.226 4.604L57.246 4.296ZM66.864 10.316H62.916V8.748C64.176 7.964 65.59 6.83 66.528 5.738L65.814 5.22L65.604 5.276H58.744V6.256H64.666C63.896 7.012 62.818 7.796 61.88 8.3V10.316H57.876V11.324H61.88V15.678C61.88 15.93 61.81 15.986 61.558 16C61.278 16.014 60.34 16 59.36 15.972C59.514 16.266 59.668 16.728 59.724 17.022C60.97 17.022 61.796 17.008 62.272 16.84C62.748 16.686 62.916 16.364 62.916 15.692V11.324H66.864V10.316ZM70.322 17.204L73.43 10.68L70.322 4.156L69.566 4.408L72.576 10.68L69.566 16.952L70.322 17.204ZM68.11 17.204L71.218 10.68L68.11 4.156L67.354 4.408L70.364 10.68L67.354 16.952L68.11 17.204Z" fill="#00E0B8"/>
</svg>
