<?xml version="1.0" encoding="utf-8"?>
<!-- Generator: Adobe Illustrator 26.0.3, SVG Export Plug-In . SVG Version: 6.00 Build 0)  -->
<svg version="1.1" id="圖層_1" xmlns="http://www.w3.org/2000/svg" xmlns:xlink="http://www.w3.org/1999/xlink" x="0px" y="0px"
	 viewBox="0 0 1053 204" style="enable-background:new 0 0 1053 204;" xml:space="preserve">
<style type="text/css">
	.st0{stroke:#00E0B8;}
	.st1{fill:url(#SVGID_1_);stroke:url(#SVGID_00000079487719425053785700000002158604436951640993_);}
	
		.st2{fill:url(#SVGID_00000075137403682351431460000006515142005280639927_);stroke:url(#SVGID_00000084515345496014637230000001632252811211866767_);}
	.st3{fill:url(#SVGID_00000036949812381093137640000007333978808758644874_);}
	.st4{stroke:url(#SVGID_00000122722661484279331790000016968004502904223679_);stroke-width:4;}
	.st5{stroke:url(#SVGID_00000150077771082846537020000017967239911085758911_);stroke-width:4;}
	.st6{stroke:url(#SVGID_00000025433422847489948250000003035096248745805230_);stroke-width:4;}
	.st7{stroke:url(#SVGID_00000094586954144904667180000008512899562843561369_);stroke-width:4;}
	.st8{fill:url(#SVGID_00000169527642265618353520000008774921791286755754_);}
	.st9{fill:#FFFFFF;}
	.st10{fill:#00E0B8;}
	.st11{fill:none;stroke:#FFFFFF;stroke-width:1.85;stroke-linecap:round;stroke-miterlimit:10;}
	.st12{fill:url(#SVGID_00000094583101675759177120000011171090333724419712_);}
	.st13{fill:url(#SVGID_00000147924989717810150530000011496821866414758072_);}
</style>
<rect x="125.5" y="100.5" class="st0" width="801" height="103"/>
<linearGradient id="SVGID_1_" gradientUnits="userSpaceOnUse" x1="121.3696" y1="56.1333" x2="145.5986" y2="51.8723" gradientTransform="matrix(1 0 0 -1 0 206)">
	<stop  offset="0" style="stop-color:#FFF176"/>
	<stop  offset="1" style="stop-color:#00E0B8"/>
</linearGradient>
<linearGradient id="SVGID_00000030465500392044634020000015126599869694684093_" gradientUnits="userSpaceOnUse" x1="121.3696" y1="56.1333" x2="145.5986" y2="51.8723" gradientTransform="matrix(1 0 0 -1 0 206)">
	<stop  offset="0" style="stop-color:#FFF176"/>
	<stop  offset="1" style="stop-color:#00E0B8"/>
</linearGradient>
<rect x="125.5" y="100.5" style="fill:url(#SVGID_1_);stroke:url(#SVGID_00000030465500392044634020000015126599869694684093_);" width="16" height="103"/>
<linearGradient id="SVGID_00000090974283824413151920000000606322069603721915_" gradientUnits="userSpaceOnUse" x1="906.3696" y1="56.1333" x2="930.5986" y2="51.8723" gradientTransform="matrix(1 0 0 -1 0 206)">
	<stop  offset="0" style="stop-color:#FFF176"/>
	<stop  offset="1" style="stop-color:#00E0B8"/>
</linearGradient>
<linearGradient id="SVGID_00000067231950124978914850000018371510707541139606_" gradientUnits="userSpaceOnUse" x1="906.3696" y1="56.1333" x2="930.5986" y2="51.8723" gradientTransform="matrix(1 0 0 -1 0 206)">
	<stop  offset="0" style="stop-color:#FFF176"/>
	<stop  offset="1" style="stop-color:#00E0B8"/>
</linearGradient>
<rect x="910.5" y="100.5" style="fill:url(#SVGID_00000090974283824413151920000000606322069603721915_);stroke:url(#SVGID_00000067231950124978914850000018371510707541139606_);" width="16" height="103"/>
<linearGradient id="SVGID_00000065758279226600526110000013778888885107598228_" gradientUnits="userSpaceOnUse" x1="518.6882" y1="101.1878" x2="526.5312" y2="7.6248" gradientTransform="matrix(1 0 0 -1 0 206)">
	<stop  offset="0" style="stop-color:#FFF176"/>
	<stop  offset="1" style="stop-color:#00E0B8"/>
</linearGradient>
<path style="fill:url(#SVGID_00000065758279226600526110000013778888885107598228_);" d="M159.6,164.3v6.3h50.3v-6.3H159.6z
	 M170.6,155v5.5h23V155H170.6z M181.5,163.2v9.6c0,0.7-0.3,0.8-1.2,0.8c-0.8,0-4.2,0-6.5-0.1c1,1.9,2.1,4.6,2.5,6.7
	c4,0,7.1-0.1,9.7-1c2.6-1,3.3-2.8,3.3-6.2v-9.8H181.5z M191.6,155v1.3c-2,2-6.4,5.1-10.1,6.9c0.9,0.9,2.7,2.8,3.5,4
	c5.1-2.3,10.4-5.5,14.6-8.5l-4.5-4.1l-1.7,0.4H191.6z M160.4,147.8v12h7.5v-6.4h33.6v6.4h7.9v-12H160.4z M199,129.6
	c-0.2,6.9-0.8,15.3-1.6,20.9h7.7c0.6-5.4,1.2-13.9,1.5-20.9H199z M192.1,129.6v4.8h10v-4.8H192.1z M174.9,128.1
	c-3.1,1.1-8.1,2.6-11.4,3.2l2.7,4.3c3.5-0.6,8.4-1.7,11.9-3L174.9,128.1z M167.2,135.7v4.8h10.5v-4.8H167.2z M167.2,141.8v4.8h10.4
	v-4.8H167.2z M192.5,135.7v4.8h9v-4.8H192.5z M192.2,141.8v4.8h9v-4.8H192.2z M186.6,128.2c-2,2.6-5.6,4.9-9.4,6.5
	c1.2,0.8,3.2,2.5,4.1,3.5c3.7-1.9,7.9-5.1,10.3-8.5L186.6,128.2z M178.4,131.4c3.2,1.8,7.3,4.5,9.2,6.3l3.7-3.2
	c-2.1-1.9-6.2-4.5-9.5-6L178.4,131.4z M186.6,137.5c-2.1,2.8-6,5.3-9.9,6.9c1.1,0.9,3,2.9,3.8,3.9c4.1-2.1,8.5-5.5,11.1-9.2
	L186.6,137.5z M178,140.9c3.5,1.9,7.9,4.9,10,6.9l3.9-3.3c-2.3-2.1-6.8-4.8-10.2-6.6L178,140.9z M163.4,131.4l1,18.8h7.4l-0.9-16.9
	L163.4,131.4z M224,132.1v7h44.3v-7H224z M221,144.5v7.1h49.8v-7.1H221z M232.7,163.3v5.9h26.5v-5.9H232.7z M232.7,172v6.5h26.5V172
	H232.7z M227.4,154.2v26.1h8v-19.5h21.2v19.5h8.4v-26.1H227.4z M253.4,138.3c-0.4,2.1-1.3,4.9-2,6.9l7.8,1.8c0.9-1.7,2-4.1,3.3-6.8
	L253.4,138.3z M230.4,140.1c1,2.1,2,5.1,2.2,6.9l8.4-1.8c-0.3-1.9-1.4-4.6-2.6-6.6L230.4,140.1z M240.4,128.5c1,2.1,2,5.1,2.3,6.9
	l8.7-1.5c-0.3-1.9-1.4-4.6-2.6-6.6L240.4,128.5z M281.8,158.1v6.5H332v-6.5H281.8z M303.2,155.8V180h8v-24.3H303.2z M305.6,146.2
	h2.4v2.7h-2.4V146.2z M305.6,138.2h2.4v2.6h-2.4V138.2z M298.9,132.5v22.1H315v-22.1H298.9z M304.2,127.5c-0.2,2-0.7,4.8-1.3,6.8
	l5.2,1.2c0.8-1.7,2-4.3,3.1-6.9L304.2,127.5z M325.8,146.9c0.8,3.2,1.6,7.5,1.8,10.3l5.2-1.3c-0.4-2.8-1.2-6.9-2.1-10.1L325.8,146.9
	z M292.2,146.5c0.7,3.2,1.4,7.5,1.6,10.3l5.2-1.3c-0.3-2.8-1.1-6.9-1.9-10.1L292.2,146.5z M283.5,145.8c0-1.1,3.4-3,3.4-3v-0.2
	c2.5-2.9,5.5-7.6,7.4-11.8l-6.1-2.1c-1.2,4.1-3.5,8.2-4.2,9.3c-0.8,1.2-1.5,1.9-2.4,2.1C282.2,141.7,283.1,144.6,283.5,145.8z
	 M283.5,145.8c0.9-0.5,2.6-0.9,9.5-1.6c0.1-1.2,0.3-3.4,0.6-4.9l-7.8,0.5l-2.5,1.7L283.5,145.8z M283.3,156.6c0-1,3-2.9,3-2.9v-0.2
	c4.6-4.1,9.4-9.9,12.8-15.5l-5.6-3.1c-2.6,5.7-7.1,11.5-8.5,13c-1.4,1.5-2.4,2.5-3.6,2.8C282,152.4,283,155.4,283.3,156.6z
	 M283.3,156.6c1.2-0.6,3-1,13.2-2.4c0-1.2,0.2-3.4,0.4-4.9l-11.3,1.2l-2.5,1.7L283.3,156.6z M316.6,146c0-1.2,3.5-3.1,3.5-3.1v-0.1
	c2.5-3,5.7-7.8,7.5-12.3l-6.4-1.8c-1.2,4.1-3.5,8.2-4.3,9.3c-0.8,1.2-1.5,1.9-2.4,2.1C315.3,141.8,316.3,144.7,316.6,146z
	 M316.6,146c1-0.5,2.8-0.9,10.7-1.8c0.1-1.3,0.3-3.6,0.6-5.3l-8.9,0.7l-2.6,1.7L316.6,146z M316.9,156.8c0-1.1,3.1-2.9,3.1-2.9v-0.2
	c4.7-4,9.6-9.7,13.1-15.2l-5.7-3.2c-2.7,5.6-7.4,11.4-8.9,12.9c-1.4,1.5-2.5,2.5-3.7,2.8C315.6,152.5,316.6,155.6,316.9,156.8z
	 M316.9,156.8c1.2-0.6,3.1-0.9,13.8-1.9c0-1.2,0.3-3.5,0.6-5l-11.8,0.8l-2.7,1.7L316.9,156.8z M295.1,166c-3.1,2.9-9,5.1-15.1,6.2
	c1.7,1.5,4.1,4.6,5.2,6.6c6.7-1.8,12.6-5.6,16.4-10.3L295.1,166z M313.6,170.2c4.5,2.5,10.7,6.4,13.5,9l5.2-5.6
	c-3.2-2.5-9.6-6.1-13.9-8.4L313.6,170.2z M363.7,160c-4.3,3.6-12.9,6.1-21.7,7c1.4,1.4,3.3,4,4.2,5.7c9.5-1.5,18.2-4.9,23.6-10.1
	L363.7,160z M372.8,159.2l-6.5,1.3c4.1,10.7,10.7,16.7,23.5,19.1c0.9-1.9,2.8-4.8,4.3-6.3C382.5,171.8,375.9,167.1,372.8,159.2z
	 M386,162.5c-2.5,2-6.8,4.6-9.9,6l4.7,3.9c3.2-1.3,7.3-3.5,10.8-5.8L386,162.5z M342.9,157.6v6.2h50v-6.2H342.9z M373,130.7V149h7.1
	v-18.3H373z M383.9,128.4v21.4c0,0.7-0.3,0.9-1,0.9c-0.8,0.1-3.5,0.1-5.6-0.1c0.9,1.7,1.9,4.3,2.3,6.2c3.8,0,6.6-0.1,8.8-1
	c2.2-1,2.8-2.6,2.8-5.8v-21.6H383.9z M353.7,128v28.7h6.8V128H353.7z M363.6,144.4v6c0,0.4-0.2,0.6-0.6,0.6c-0.4,0-1.6,0-2.5-0.1
	c0.6,1.2,1.5,3,1.8,4.5c2.3,0,4.2,0,5.7-0.7c1.5-0.8,2-1.9,2-4.3v-6H363.6z M344.7,144.4v11.2h5.9V149H366v-4.7H344.7z M342.9,137.8
	v5.2h27.5v-5.2H342.9z M349.1,131.3l-2,4.9h22.1v-4.9H349.1z M346.6,128c-0.9,2.8-2.4,5.7-4.2,7.6c1.4,0.7,3.9,2.1,5.1,3
	c1.9-2.3,3.8-5.9,5-9.2L346.6,128z M353.8,180.7c1.2-0.8,3.2-1.3,15.6-4.1c0-1.4,0.3-4.2,0.5-6l-14,2.9l-2.5,2L353.8,180.7z
	 M353.9,180.6c0-2.7,7.3-7.3,7.3-7.3v-7.1l-7.1,0.1v3.6c0,3.1-1.4,4.6-2.5,5.4C352.3,176.4,353.5,179.1,353.9,180.6z M363.7,155.1
	c0.9,2.1,1.9,4.9,2.1,6.6l7.9-2.3c-0.3-1.8-1.5-4.5-2.6-6.4L363.7,155.1z M428.8,136.8l-3.8,7.6h30.3v-7.6H428.8z M436.2,149v7.3
	h17.6V149H436.2z M436.2,161.2v7.4h18.4v-7.4H436.2z M432.1,139.4v40.9h8.2v-40.9H432.1z M429.6,128.4c-2.4,7.9-6.7,15.8-11.5,20.6
	c1.7,1.3,4.8,4.1,6,5.6c5.1-5.8,10.1-15.2,13.1-24.2L429.6,128.4z M414.3,128.2c-2.6,7.6-7.2,15.2-12,20c1.4,2,3.6,6.7,4.3,8.6
	c6.1-6.3,11.9-16.7,15.5-26.1L414.3,128.2z M408.9,144v36.2h8.1v-44.2v-0.1L408.9,144z M484,135.4v7.3h31v-7.3H484z M484.9,148.4
	v7.2H508v-7.2H484.9z M495.2,128v24.3h7.9V128H495.2z M493.1,154.3l-7.2,2c5.2,12.1,13.1,20.2,26.3,24c1.1-2,3.4-5.3,5.1-6.9
	C505,170.5,496.9,163.7,493.1,154.3z M507.1,148.4v1.2c-3,12.4-12.6,20.2-26.3,23.3c1.5,1.7,3.4,5.1,4.2,7.2
	c15.3-4.5,25.8-13.3,30-29.9l-5.2-2l-1.3,0.3H507.1z M463.8,155.3l2,7.6c5.3-1.3,11.9-2.9,18-4.5l-1-7.3
	C476,152.7,468.7,154.4,463.8,155.3z M464.5,138.1v7.4h18.9v-7.4H464.5z M470.4,128v43.6c0,0.8-0.3,1-1,1c-0.7,0-3,0-4.9-0.1
	c0.9,2,1.9,5.2,2.1,7.3c4,0,6.9-0.2,9-1.4c2.1-1.2,2.7-3.1,2.7-6.8V128H470.4z M542.6,147.9v25.2c0,0.7-0.2,0.9-0.9,0.9
	c-0.6,0-2.7,0-4.3-0.1c0.9,1.6,2,4.3,2.4,6.1c3.3,0,5.8-0.1,7.8-1.1c2-1,2.6-2.6,2.6-5.7v-25.3H542.6z M532,147.9v6.6h14.9v-6.6H532
	z M553.6,154v16.7c0,6.9,1.7,9.2,8.9,9.2c1.4,0,5.2,0,6.8,0c5.6,0,7.6-2.2,8.4-9.6c-2.1-0.4-5.3-1.6-6.9-2.9
	c-0.3,4.6-0.7,5.5-2.3,5.5c-1,0-4,0-4.7,0c-1.9,0-2.2-0.2-2.2-2.3V154H553.6z M540.8,134.4c2,4.3,4.6,10.1,5.7,13.5l7-2.8
	c-1.3-3.4-4.1-8.9-6.2-13L540.8,134.4z M558.8,134.1v6.8h15.6v-6.8H558.8z M558.8,158.9v7h15.9v-7H558.8z M527.7,147.1
	c0-1.3,4.2-3.6,4.2-3.6v-0.1c3.5-3.1,7.9-8.2,10.8-13.1l-8.1-2.3c-1.9,4.3-5.2,8.5-6.2,9.7c-1.1,1.2-2.1,2-3.1,2.3
	C526,142,527.3,145.6,527.7,147.1z M527.7,147.1c1.9-0.8,4.7-1.3,21.7-3c-0.5-1.6-1.2-4.3-1.5-6.3l-17,1.4l-3.5,2.2L527.7,147.1z
	 M528.2,147.9v11.7c0,4.9-0.2,11.1-3.1,15.5c1.5,0.9,4.5,3.9,5.6,5.3c4-5.4,4.8-14.4,4.8-20.7v-11.8H528.2z M533.9,167.6l2.1,6.8
	c3.2-2.4,6.7-5,10.1-7.7l-1.5-4.6C540.6,164.2,536.6,166.4,533.9,167.6z M534.3,158.6c1.8,1.8,4.2,4.2,5.4,5.7l4.3-3.9
	c-1.3-1.4-3.8-3.7-5.6-5.3L534.3,158.6z M553.6,128.2v14.7c0,7,2,9.8,9.6,9.8c1.4,0,5.9,0,7.4,0c2.1,0,4.7-0.1,5.9-0.6
	c-0.3-1.8-0.6-4.7-0.7-6.8c-1.3,0.3-3.8,0.5-5.4,0.5c-1.4,0-5.7,0-6.9,0c-1.7,0-1.9-0.8-1.9-2.8v-14.8H553.6z M598.1,167
	c7.4-2,11.7-7.4,11.7-13.8c0-5.1-2.3-8.2-6.7-8.2c-3.4,0-6.1,2.1-6.1,5.5c0,3.5,2.9,5.5,5.9,5.5c1.3,0,2.5-0.4,3.5-1.2l-3.1-5.3
	l0.1,5.8c0,2.6-2.6,5.2-7.3,6.5L598.1,167z M639.5,154.1v6h27v-6H639.5z M639.5,162.5v6h27v-6H639.5z M639.5,171.1v6.9h27v-6.9
	H639.5z M628.1,135.2v7.4h50.3v-7.4H628.1z M633.1,145v35.2h8v-28.3h23.4v28.3h8.4V145H633.1z M649,139.8c-0.4,2.6-1.4,5.9-2.4,8.5
	l7.8,0.8c1.4-2.3,3.4-5.6,4.8-9.2L649,139.8z M661.7,127.8c-1,2.5-2.8,5.9-4.3,8.2l7.2,1.9c1.8-2,4.2-5,6.5-8.3L661.7,127.8z
	 M636.2,130.7c2,2.1,4.2,5.2,5.2,7.2l7.4-3.9c-1.2-1.9-3.4-4.6-5.5-6.5L636.2,130.7z M705.7,150.6v5.7h31.5v-5.7H705.7z
	 M703.8,158.7v5.7h35.4v-5.7H703.8z M711.9,148.3V162h7.3v-13.6H711.9z M723.8,148.3V162h7.4v-13.6H723.8z M723.1,166.6
	c2.9,1.5,6.1,3.8,7.8,5.2l7.2-3.1c-2.3-1.5-6.4-3.8-9.8-5.5L723.1,166.6z M713.8,163.5c-2.1,1.5-5.8,3-9.5,4c1.7,1,4.5,3.4,5.8,4.7
	c3.6-1.4,8-3.8,10.7-6.3L713.8,163.5z M707.9,129.6v4.7h6.2v1.8h-6.2v4.7h12.8v-11.2H707.9z M725.2,129.7v4.7h6.5v1.8h-6.5v4.7h13.2
	v-11.2H725.2z M722.3,129.7v10.5c0,5.4,1.3,7.5,7,7.5c1,0,4.3,0,5.3,0c1.5,0,3.3-0.1,4.3-0.4c-0.2-1.4-0.4-3.7-0.5-5.3
	c-1,0.3-2.8,0.4-4,0.4c-0.9,0-3.8,0-4.7,0c-1.1,0-1.3-0.6-1.3-2.1v-10.6H722.3z M705.4,149.4c1.2-0.5,3.1-0.9,13.8-2.5
	c0.2-1.3,0.7-3.8,1.3-5.4l-12.7,1.6l-2.6,1.8L705.4,149.4z M705.4,149.4c0-2,5.6-4.9,5.6-4.9v-14.8h-6.1v10.2c0,2.2-1,3.3-2,3.8
	C703.9,145,705.1,147.8,705.4,149.4z M689.1,131.6c2.6,2.8,5.8,6.6,7.4,9l6-4.5c-1.7-2.2-4.8-5.6-7.5-8.2L689.1,131.6z M688.9,141
	v6.3h10.2V141H688.9z M700.8,164.1l-5.3,2c4,11.4,10.6,13.2,23.3,13.2c6.7,0,13.8-0.2,19.8-0.5c0.4-2.1,1.4-5.7,2.5-7.3
	c-6.6,0.7-16.2,1-22.2,1C709.6,172.4,703.5,171.6,700.8,164.1z M697.2,154v1.2c-1.1,9.3-4.4,16.1-9.8,19.7c1.5,1,4.1,3.7,5.1,5.3
	c5.9-4.4,10-12.8,11.5-25l-3.7-1.3l-1.2,0.2H697.2z M690.3,161c0.5-0.5,2.2-0.9,3.3-0.9h5.8V154h-6.6l-2.5,1.4V161z M690.3,161
	c0-1.6,5.1-4.2,5.1-4.2c2.8-3.6,6.7-10.6,8.9-14.4l-4.7-1.8l-1.9,0.7v0.2c-1.6,3-5.7,9.9-7,11.4c-0.9,1.2-1.8,1.6-2.8,1.9
	C688.6,156.2,689.9,159.4,690.3,161z M784.3,128V149h7.3V128H784.3z M774.9,144.3v7.3h26v-7.3H774.9z M776.2,133.5v7H799v-7H776.2z
	 M781.8,149.3c-0.2,12.8-0.6,20.5-7.4,25.4c1.5,1.3,3.5,3.8,4.3,5.6c8-6.2,8.9-16.2,9-31H781.8z M793.4,154.6
	c1.6,4.5,2.8,10.4,2.9,14.2l5.7-1.4c-0.2-3.8-1.5-9.6-3.2-14.1L793.4,154.6z M776.4,153.3c-0.6,4.8-1.8,9.8-3.7,13.1
	c1.3,0.7,3.7,2,4.7,2.9c2-3.7,3.6-9.4,4.4-15L776.4,153.3z M788.7,149.4v24c0,0.6-0.2,0.7-0.7,0.7c-0.6,0-2.4,0-4-0.1
	c0.8,1.9,1.5,4.6,1.7,6.4c3.1,0.1,5.4-0.1,7.1-1.2c1.8-1,2.1-2.9,2.1-5.8v-24H788.7z M759,128V149h7.3V128H759z M749.7,144.3v7.3h24
	v-7.3H749.7z M751.8,133.5v7h21.1v-7H751.8z M756.7,149.3c-0.2,12.7-0.6,20.5-7,25.4c1.6,1.3,3.6,3.9,4.5,5.7
	c7.6-6.3,8.5-16.3,8.6-31.1H756.7z M768,155.5c1.5,2.9,2.8,6.7,3.2,9.2l4.8-1.9c-0.5-2.5-1.9-6.2-3.5-9L768,155.5z M751.2,154
	c-0.5,4.2-1.4,8.7-2.8,11.8c1.3,0.6,3.6,1.9,4.7,2.7c1.5-3.3,2.8-8.6,3.5-13.4L751.2,154z M763.7,149.4v23.8c0,0.5-0.2,0.7-0.7,0.7
	c-0.5,0.1-2.1,0.1-3.6,0c0.8,1.8,1.5,4.5,1.7,6.3c3,0,5.2-0.1,6.9-1.2c1.7-1,2.1-2.9,2.1-5.8v-23.8H763.7z M841.5,147.9v32.2h7.8
	v-32.2H841.5z M858,128.6c-7.8,1.5-18.6,2.7-28.4,3.2c0.7,1.7,1.6,4.5,1.8,6.3c9.7-0.3,21.2-1.3,30-2.9L858,128.6z M854.5,136.4
	c-1.4,3.9-3.7,8.5-5.8,11.5c1.8,0.7,4.7,2.1,6.2,3.1c1.9-3.2,4.5-8.4,6.3-12.6L854.5,136.4z M839.9,138.9c1.1,2.9,2.5,6.8,3,9.2
	l6.8-2.3c-0.7-2.4-2-6.1-3.3-8.9L839.9,138.9z M830,141.2c1.5,3.1,3.3,7.2,4.1,9.8l6.3-2.8c-0.9-2.5-2.7-6.4-4.3-9.4L830,141.2z
	 M831.4,152.6v7.1h29.5v-7.1H831.4z M840.6,156.1c-2.5,5.8-7.3,12-11.8,15.7c1.7,1.4,4.2,4.1,5.4,5.9c4.3-4.6,8.4-12.7,10.8-20.1
	L840.6,156.1z M850,156l-4.3,1.5c2.6,7.4,7.1,15.3,11.8,19.8c1.3-1.9,3.6-4.6,5.3-5.9C857.9,167.9,852.8,161.7,850,156z
	 M823.6,151.1c1.1,3.8,2.1,8.8,2.4,11.8l5.4-1.7c-0.3-3-1.5-7.8-2.8-11.6L823.6,151.1z M818.1,165.8c0.5,4,0.9,9.1,0.9,12.6l5.7-1.1
	c-0.2-3.4-0.7-8.5-1.3-12.5L818.1,165.8z M812.1,164.8c-0.2,4.7-0.8,9.8-2,13.1c1.5,0.4,4.3,1.3,5.7,2c1.2-3.5,1.9-9,2.2-14.2
	L812.1,164.8z M812,150.5c0-1.3,4.2-3.6,4.2-3.6v-0.2c3.2-4.3,6.9-10.7,9.1-16.4l-7.1-2.8c-1.5,5.8-4.5,11.8-5.5,13.4
	c-1,1.6-1.9,2.6-3,3C810.5,145.7,811.6,149.1,812,150.5z M812,150.5c1.2-0.5,3.1-1,11.6-1.8c0.1-1.5,0.4-4.2,0.8-6.1l-9.5,0.6l-3,2
	L812,150.5z M812.5,163.5c0-1.3,4.2-3.5,4.2-3.5v-0.2c5.4-5.5,10.9-13.2,14.7-20.5l-6.4-4c-3.2,7.7-8.7,15.7-10.5,17.7
	c-1.7,2.1-2.9,3.3-4.4,3.7C810.9,158.6,812.1,162.1,812.5,163.5z M812.5,163.5c1.4-0.7,3.6-1.3,15.3-2.9c0-1.5,0.2-4.2,0.5-6.1
	l-13.1,1.5l-3,2.1L812.5,163.5z M823.8,164.7c0.9,2.9,1.9,6.8,2.3,9.2l5.2-1.8c-0.4-2.5-1.5-6.2-2.5-9L823.8,164.7z M877.6,160.1
	h6.3l1.4-18.6l0.3-8.7h-9.8l0.3,8.7L877.6,160.1z M880.7,175.8c3.4,0,5.8-2.7,5.8-6.1c0-3.4-2.4-6-5.8-6c-3.4,0-5.8,2.6-5.8,6
	C874.9,173.1,877.4,175.8,880.7,175.8z"/>
<linearGradient id="SVGID_00000173870893878692448190000003354485770152814474_" gradientUnits="userSpaceOnUse" x1="36.9875" y1="66.7207" x2="-2.4817" y2="42.2667" gradientTransform="matrix(1 0 0 -1 0 206)">
	<stop  offset="0" style="stop-color:#FFF176"/>
	<stop  offset="1" style="stop-color:#00E0B8"/>
</linearGradient>
<path style="stroke:url(#SVGID_00000173870893878692448190000003354485770152814474_);stroke-width:4;" d="M12,134.4L36.9,156
	L12,177.6V134.4z"/>
<linearGradient id="SVGID_00000179648311575956270750000015111142952905889920_" gradientUnits="userSpaceOnUse" x1="88.9875" y1="66.7207" x2="49.5183" y2="42.2667" gradientTransform="matrix(1 0 0 -1 0 206)">
	<stop  offset="0" style="stop-color:#FFF176"/>
	<stop  offset="1" style="stop-color:#00E0B8"/>
</linearGradient>
<path style="stroke:url(#SVGID_00000179648311575956270750000015111142952905889920_);stroke-width:4;" d="M64,134.4L88.9,156
	L64,177.6V134.4z"/>
<linearGradient id="SVGID_00000070102456434524308310000014512744342622057615_" gradientUnits="userSpaceOnUse" x1="1016.014" y1="33.2806" x2="1055.4841" y2="57.7346" gradientTransform="matrix(1 0 0 -1 0 206)">
	<stop  offset="0" style="stop-color:#FFF176"/>
	<stop  offset="1" style="stop-color:#00E0B8"/>
</linearGradient>
<path style="stroke:url(#SVGID_00000070102456434524308310000014512744342622057615_);stroke-width:4;" d="M1041,177.6l-24.9-21.6
	l24.9-21.6V177.6z"/>
<linearGradient id="SVGID_00000034083229097709008090000015711612922957795713_" gradientUnits="userSpaceOnUse" x1="964.0123" y1="33.2804" x2="1003.4844" y2="57.7344" gradientTransform="matrix(1 0 0 -1 0 206)">
	<stop  offset="0" style="stop-color:#FFF176"/>
	<stop  offset="1" style="stop-color:#00E0B8"/>
</linearGradient>
<path style="stroke:url(#SVGID_00000034083229097709008090000015711612922957795713_);stroke-width:4;" d="M989,177.6L964.1,156
	l24.9-21.6V177.6z"/>
<linearGradient id="SVGID_00000126297207816887034380000018334047902091166857_" gradientUnits="userSpaceOnUse" x1="485.683" y1="205.2387" x2="537.9531" y2="93.0389" gradientTransform="matrix(1 0 0 -1 0 206)">
	<stop  offset="0" style="stop-color:#FFF176"/>
	<stop  offset="1" style="stop-color:#00E0B8"/>
</linearGradient>
<path style="fill:url(#SVGID_00000126297207816887034380000018334047902091166857_);" d="M526.7,0c-26.5,0-51.8,10.5-70.5,29.3
	C437.5,48.1,427,73.5,427,100h90.9c-0.1-1.2,0.1-2.4,0.5-3.6s1.1-2.2,1.9-3.1c0.8-0.9,1.8-1.6,2.9-2.1s2.3-0.7,3.5-0.7
	c1.2,0,2.4,0.2,3.5,0.7c1.1,0.5,2.1,1.2,2.9,2.1c0.8,0.9,1.5,1.9,1.9,3.1s0.6,2.4,0.5,3.6h90.9c0-26.5-10.5-51.9-29.2-70.7
	C578.6,10.5,553.2,0,526.7,0z"/>
<path class="st9" d="M526.7,53.8c-12.2,0-23.9,4.9-32.6,13.6s-13.5,20.4-13.5,32.7H518c-0.1-1.2,0.1-2.4,0.5-3.6
	c0.4-1.1,1.1-2.2,1.9-3.1c0.8-0.9,1.8-1.6,2.9-2.1c1.1-0.5,2.3-0.7,3.5-0.7c1.2,0,2.4,0.2,3.5,0.7c1.1,0.5,2.1,1.2,2.9,2.1
	c0.8,0.9,1.5,1.9,1.9,3.1c0.4,1.1,0.6,2.4,0.5,3.6H573c0-6.1-1.2-12.1-3.5-17.7c-2.3-5.6-5.7-10.7-10-15c-4.3-4.3-9.4-7.7-15-10
	C538.8,54.9,532.8,53.8,526.7,53.8z"/>
<path class="st10" d="M526.7,67.1c-4.3,0-8.6,0.9-12.5,2.5c-4,1.7-7.6,4.1-10.6,7.1c-3,3.1-5.4,6.7-7.1,10.7
	c-1.6,4-2.5,8.3-2.4,12.6H518c-0.1-1.2,0.1-2.4,0.5-3.6c0.4-1.1,1.1-2.2,1.9-3.1c0.8-0.9,1.8-1.6,2.9-2.1c1.1-0.5,2.3-0.7,3.5-0.7
	c1.2,0,2.4,0.2,3.5,0.7c1.1,0.5,2.1,1.2,2.9,2.1c0.8,0.9,1.5,1.9,1.9,3.1c0.4,1.1,0.6,2.4,0.5,3.6h23.9c0-4.3-0.8-8.6-2.5-12.6
	c-1.6-4-4.1-7.6-7.1-10.7c-3.1-3.1-6.7-5.5-10.7-7.1C535.3,67.9,531.1,67.1,526.7,67.1z"/>
<path class="st11" d="M605.5,78c-14-62.1-95.3-82.8-137-34.6"/>
<path class="st11" d="M583.2,77.1c-4-11.5-11.4-21.5-21.3-28.6c-9.9-7.1-21.7-11-33.8-11"/>
<path class="st9" d="M468.3,75l1.3,4.3c0.4,1.3,1.1,2.4,2,3.4c0.9,0.9,2.1,1.6,3.4,2l4.3,1.3l-4.3,1.3c-1.3,0.4-2.4,1.1-3.4,2
	c-0.9,0.9-1.6,2.1-2,3.4l-1.3,4.3l-1.3-4.3c-0.4-1.3-1.1-2.4-2-3.4c-0.9-0.9-2.1-1.6-3.4-2l-4.3-1.3l4.3-1.3c1.3-0.4,2.4-1.1,3.4-2
	c0.9-0.9,1.6-2.1,2-3.4L468.3,75z"/>
<linearGradient id="SVGID_00000070118809398884107210000012355273364602132926_" gradientUnits="userSpaceOnUse" x1="413.3562" y1="186.2652" x2="428.4732" y2="170.0355" gradientTransform="matrix(1 0 0 -1 0 206)">
	<stop  offset="0" style="stop-color:#FFF176"/>
	<stop  offset="1" style="stop-color:#00E0B8"/>
</linearGradient>
<path style="fill:url(#SVGID_00000070118809398884107210000012355273364602132926_);" d="M420.9,16.8l1.3,4.4c0.4,1.3,1.1,2.4,2,3.3
	c0.9,0.9,2.1,1.6,3.3,2l4.4,1.3l-4.4,1.4c-1.3,0.4-2.4,1.1-3.4,2c-0.9,0.9-1.6,2.1-2,3.3l-1.3,4.4l-1.3-4.4c-0.4-1.3-1.1-2.4-2-3.4
	c-0.9-0.9-2.1-1.6-3.4-2l-4.3-1.4l4.3-1.3c1.3-0.4,2.4-1.1,3.4-2c0.9-0.9,1.6-2.1,2-3.3L420.9,16.8z"/>
<path class="st9" d="M455.7,52.5l1.8,5.8c0.5,1.7,1.4,3.2,2.7,4.4c1.2,1.2,2.8,2.2,4.4,2.7l5.8,1.8l-5.8,1.8
	c-1.7,0.5-3.2,1.4-4.4,2.7c-1.2,1.2-2.1,2.8-2.7,4.4l-1.8,5.8l-1.8-5.8c-0.5-1.7-1.4-3.2-2.7-4.5c-1.2-1.2-2.8-2.2-4.4-2.7l-5.7-1.8
	l5.7-1.8c1.7-0.5,3.2-1.4,4.4-2.7c1.2-1.2,2.2-2.8,2.7-4.5L455.7,52.5z"/>
<linearGradient id="SVGID_00000038385844900100879660000011433742077636293033_" gradientUnits="userSpaceOnUse" x1="394.0294" y1="136.8043" x2="414.0014" y2="115.3861" gradientTransform="matrix(1 0 0 -1 0 206)">
	<stop  offset="0" style="stop-color:#FFF176"/>
	<stop  offset="1" style="stop-color:#00E0B8"/>
</linearGradient>
<path style="fill:url(#SVGID_00000038385844900100879660000011433742077636293033_);" d="M404.1,65.2l1.8,5.8
	c0.5,1.7,1.4,3.2,2.7,4.4c1.2,1.2,2.8,2.2,4.4,2.7l5.7,1.8l-5.7,1.8c-1.7,0.5-3.2,1.4-4.4,2.7c-1.2,1.2-2.2,2.8-2.7,4.4l-1.8,5.8
	l-1.8-5.8c-0.5-1.7-1.4-3.2-2.7-4.4c-1.2-1.2-2.8-2.2-4.4-2.7l-5.7-1.8l5.7-1.8c1.7-0.5,3.2-1.4,4.4-2.7c1.2-1.2,2.2-2.8,2.7-4.4
	L404.1,65.2z"/>
</svg>
