<svg width="712" height="163" viewBox="0 0 712 163" fill="none" xmlns="http://www.w3.org/2000/svg">
<path d="M648 39.0001H118V79.0001H648V39.0001Z" fill="#00E0B8"/>
<path d="M91 126V75.0001H711V126H91Z" fill="white" stroke="#00E0B8" stroke-width="2"/>
<path d="M710 76.0001H696V125H710V76.0001Z" fill="#00E0B8"/>
<path d="M81.3327 146.969C117.539 146.969 146.89 117.618 146.89 81.4121C146.89 45.2058 117.539 15.8547 81.3327 15.8547C45.1263 15.8547 15.7753 45.2058 15.7753 81.4121C15.7753 117.618 45.1263 146.969 81.3327 146.969Z" fill="white"/>
<path d="M81.3008 79.27C81.8171 79.2653 82.3173 79.449 82.7078 79.7868C83.0982 80.1245 83.3521 80.5931 83.4218 81.1046H94.1111C94.0012 77.7691 92.595 74.608 90.1914 72.2928C87.7877 69.9777 84.5761 68.691 81.2388 68.7062C77.9016 68.7214 74.7018 70.0372 72.3193 72.3742C69.9369 74.7111 68.5595 77.8849 68.4799 81.2212H79.1693C79.2122 80.6868 79.4559 80.1885 79.8513 79.8264C80.2468 79.4644 80.7647 79.2656 81.3008 79.27Z" fill="url(#paint0_linear_47_1370)"/>
<path d="M81.3008 83.5754C80.7862 83.5805 80.2873 83.3982 79.897 83.0626C79.5068 82.727 79.252 82.261 79.1799 81.7514H68.4905C68.6005 85.0869 70.0067 88.248 72.4103 90.5632C74.8139 92.8783 78.0256 94.165 81.3628 94.1498C84.7001 94.1346 87.8999 92.8188 90.2823 90.4818C92.6648 88.1449 94.0422 84.9711 94.1217 81.6348L83.443 81.6878C83.3849 82.2126 83.1332 82.6969 82.7371 83.046C82.3409 83.3951 81.8288 83.5839 81.3008 83.5754Z" fill="url(#paint1_linear_47_1370)"/>
<path d="M81.11 35.2717C71.9818 35.3137 63.0712 38.0617 55.5049 43.1682C47.9387 48.2747 42.0567 55.5102 38.6028 63.9598C35.1489 72.4093 34.2783 81.6934 36.101 90.6378C37.9238 99.5822 42.358 107.785 48.843 114.209C55.3279 120.633 63.5723 124.99 72.5335 126.729C81.4946 128.467 90.7701 127.509 99.1867 123.976C107.603 120.442 114.783 114.492 119.818 106.878C124.853 99.2642 127.517 90.3281 127.473 81.2C127.445 75.1398 126.224 69.1445 123.879 63.5564C121.534 57.9683 118.111 52.897 113.805 48.632C109.5 44.367 104.397 40.9919 98.7866 38.6995C93.1767 36.4071 87.1701 35.2423 81.11 35.2717ZM52.4777 109.673C52.1701 109.376 51.6929 108.963 51.1415 108.379C49.5501 106.742 48.1058 104.968 46.8254 103.077C44.916 100.254 43.3964 97.1867 42.3079 93.9573C39.562 85.9601 39.521 77.282 42.1912 69.2592C43.2505 66.0147 44.7453 62.9289 46.6345 60.0863C47.8882 58.1964 49.3077 56.422 50.8764 54.784C51.4172 54.2008 51.9368 53.7872 52.1913 53.4797L52.6579 53.0343L52.2337 53.5327C51.9686 53.8614 51.5445 54.3068 51.046 54.9431C49.6414 56.7075 48.3723 58.5757 47.2496 60.5317C45.5962 63.4105 44.3 66.4803 43.3896 69.6728C41.1194 77.4948 41.1563 85.8058 43.4956 93.6073C44.4418 96.7955 45.77 99.8577 47.4511 102.727C48.5896 104.672 49.8766 106.526 51.3006 108.273C51.799 108.899 52.2231 109.334 52.4989 109.673L52.923 110.161L52.4777 109.673ZM55.1182 104.827L54.291 104C53.9835 103.713 53.7184 103.321 53.3897 102.939L52.3292 101.688L51.7884 101.009L51.2793 100.235C50.4882 99.1033 49.7795 97.9161 49.1584 96.6826C48.8403 96.0146 48.4373 95.3465 48.1616 94.5617L47.3663 92.3242C44.9281 85.3603 44.8759 77.7831 47.2178 70.7863C47.5041 70.0016 47.7904 69.238 48.0662 68.4957C48.3419 67.7534 48.7342 67.0747 49.0524 66.3748C49.6671 65.1312 50.3761 63.9364 51.1733 62.8011C51.343 62.536 51.502 62.2708 51.6717 62.0269L52.2125 61.327L53.2094 60.0757C53.4849 59.7078 53.7787 59.3538 54.0895 59.0152L54.9167 58.1775L56.4438 56.6504C56.4438 56.6504 55.9666 57.2549 55.0864 58.3366L54.3653 59.2379C54.0896 59.5561 53.8669 59.959 53.5805 60.3726L52.6685 61.7406L52.2019 62.4617L51.7778 63.2571C51.1021 64.4204 50.5068 65.6286 49.9962 66.8732C49.7311 67.5413 49.3917 68.2094 49.1584 68.9411L48.4267 71.1999C46.4571 77.9749 46.4902 85.1752 48.5222 91.9318L49.2539 94.18C49.4978 94.9223 49.8477 95.5798 50.1128 96.2479C50.6314 97.4876 51.2374 98.6889 51.9262 99.8428L52.361 100.638L52.8382 101.349L53.7184 102.653C54.0047 103.056 54.2274 103.459 54.5031 103.777L55.2454 104.668L56.6134 106.354L55.1182 104.827ZM59.0313 101.306L58.3208 100.617C58.0557 100.362 57.833 100.044 57.5572 99.7261L56.6877 98.6657L56.2211 98.093L55.7863 97.4356C55.1128 96.4769 54.5102 95.4704 53.9835 94.4239C53.7078 93.8512 53.3578 93.2892 53.1139 92.6529C52.87 92.0166 52.6261 91.3698 52.361 90.7123C51.3589 87.7631 50.8257 84.675 50.7809 81.5605C50.8043 78.4442 51.3086 75.3501 52.2762 72.3876L53.0185 70.4364C53.2518 69.8001 53.5911 69.238 53.8563 68.6654C54.3779 67.6137 54.9732 66.6002 55.6378 65.6325L56.062 64.975L56.5286 64.3918C56.8255 64.01 57.1118 63.66 57.3876 63.3313C57.6267 63.0181 57.8815 62.7173 58.1511 62.4299L58.851 61.73L60.166 60.4362L59.0313 61.8891L58.4162 62.6526C58.1829 62.9283 58.0026 63.2783 57.7693 63.6176C57.536 63.957 57.2921 64.3387 57.0376 64.7417L56.6346 65.3462L56.2847 66.0249C55.7209 67.0153 55.2249 68.0427 54.8001 69.1002C54.5774 69.6728 54.291 70.2349 54.1002 70.8499C53.9093 71.465 53.6972 72.1119 53.4957 72.7693C51.8552 78.5087 51.8846 84.5967 53.5805 90.3199C53.7926 90.9668 53.9941 91.603 54.1956 92.2287C54.3971 92.8544 54.6834 93.4058 54.9167 93.9785C55.3527 95.0277 55.8557 96.0479 56.4226 97.0326L56.7937 97.7113L57.1861 98.3157L57.9708 99.4186C58.2147 99.7579 58.4056 100.108 58.6389 100.384L59.254 101.137L60.3568 102.6L59.0313 101.306ZM62.9868 97.7855C62.5374 97.39 62.1224 96.9572 61.746 96.4917L61.0249 95.6328L60.622 95.1768L60.2614 94.6359C59.6901 93.8546 59.183 93.0283 58.745 92.1651C58.5117 91.6879 58.2253 91.2213 58.0238 90.7123L57.3982 89.1004C56.5506 86.6679 56.0994 84.115 56.062 81.5393C56.0823 78.9648 56.5082 76.4096 57.3239 73.9677L57.939 72.3558C58.1405 71.8362 58.4162 71.3695 58.6495 70.9029C59.0813 70.0363 59.5776 69.2033 60.1341 68.4109L60.4947 67.8701L60.8765 67.3928L61.5976 66.5233C61.9702 66.058 62.3779 65.6219 62.8171 65.2189L63.8776 64.1585L62.955 65.3674C62.5629 65.8185 62.2082 66.3009 61.8945 66.8096L61.3006 67.7322L60.9825 68.2306L60.6962 68.7926C60.2406 69.6098 59.8403 70.4565 59.4979 71.3271C59.3176 71.7937 59.0843 72.2603 58.9358 72.7693C58.7874 73.2784 58.6177 73.8298 58.4586 74.3388C57.1504 79.0386 57.1724 84.0094 58.5223 88.6974L59.0207 90.2669C59.1797 90.7759 59.413 91.2425 59.5933 91.7091C59.9468 92.5716 60.3541 93.411 60.8128 94.2224L61.1098 94.7844L61.4279 95.2828L62.0324 96.2054C62.3493 96.7053 62.7038 97.1804 63.0928 97.6264C63.6867 98.4006 64.026 98.8247 64.026 98.8247L62.9868 97.7855ZM66.9317 94.2648C66.5732 93.9598 66.2399 93.6264 65.9348 93.268L65.3516 92.5999L65.0441 92.2287L64.7471 91.8151C64.2915 91.2005 63.8838 90.5517 63.5276 89.8745C63.3121 89.5075 63.1174 89.1286 62.9444 88.7398L62.4353 87.4779C61.7602 85.5585 61.4021 83.542 61.3749 81.5075C61.4085 79.4702 61.7665 77.4512 62.4353 75.5265L62.9338 74.2646C63.1034 73.851 63.3261 73.4799 63.5064 73.1193C63.8573 72.4403 64.2578 71.7881 64.7047 71.1681L64.991 70.7439L65.3092 70.3727L65.8818 69.7047C66.1751 69.3231 66.5016 68.9682 66.8574 68.6442L67.7376 67.8382L67.0377 68.7926C66.7574 69.1589 66.4989 69.5413 66.2636 69.938L65.8076 70.6697L65.5637 71.0726L65.3516 71.5074C65.0059 72.1506 64.7048 72.8167 64.4502 73.5011C64.3123 73.8616 64.1321 74.2328 64.0154 74.6251L63.6549 75.8553C62.6581 79.5143 62.6581 83.3734 63.6549 87.0325L64.026 88.252C64.1533 88.655 64.3335 89.0155 64.4714 89.3867C64.7302 90.0659 65.0386 90.7251 65.394 91.3591L65.6167 91.8045L65.8606 92.1969L66.3166 92.9286C66.5457 93.3427 66.8044 93.7396 67.0907 94.1163L67.8012 95.0707L66.9317 94.2648ZM82.9233 96.11C79.888 96.4371 76.8258 95.8164 74.1573 94.3331C71.4889 92.8498 69.3452 90.5768 68.0206 87.8261C66.696 85.0755 66.2556 81.9822 66.7597 78.9711C67.2639 75.9601 68.6879 73.179 70.8362 71.0099C72.9846 68.8407 75.7518 67.3899 78.7578 66.8567C81.7639 66.3236 84.8612 66.7342 87.6245 68.0322C90.3878 69.3302 92.6815 71.4519 94.1904 74.1059C95.6993 76.7598 96.3496 79.8159 96.0518 82.8543C95.7084 86.2334 94.2168 89.3927 91.8257 91.805C89.4346 94.2173 86.2887 95.7368 82.9127 96.11H82.9233ZM97.7697 92.0802L97.4622 92.4514L96.8895 93.1301C96.5849 93.4887 96.2553 93.8253 95.9033 94.1375L95.0231 94.9435L95.723 93.9785C96.0132 93.6171 96.2755 93.2342 96.5078 92.8332L96.9532 92.1015L97.1971 91.7091L97.4198 91.2637C97.7592 90.6211 98.0602 89.9589 98.3212 89.2807C98.459 88.9095 98.6287 88.5489 98.7453 88.146C98.862 87.743 98.9892 87.34 99.1059 86.9158C99.5782 85.09 99.8239 83.2131 99.8376 81.3272C99.802 79.4396 99.5385 77.5631 99.0529 75.7386L98.6817 74.5191C98.5651 74.1161 98.3848 73.7556 98.2469 73.395C97.9792 72.7162 97.6711 72.054 97.3243 71.412L97.1016 70.9772C97.0168 70.8393 96.9319 70.7121 96.8577 70.5742C96.7835 70.4363 96.5396 70.0758 96.4017 69.8531C96.1654 69.4555 95.8995 69.0762 95.6064 68.7184L94.8959 67.764L95.7867 68.5593C96.144 68.8621 96.474 69.1956 96.7729 69.5562L97.3561 70.2243L97.6743 70.5954L97.9606 71.009C98.4162 71.6237 98.8239 72.2725 99.1801 72.9496C99.3604 73.3102 99.5937 73.6813 99.7634 74.0843C99.933 74.4873 100.092 74.9221 100.272 75.3569C101.682 79.209 101.701 83.433 100.325 87.2976L99.827 88.5701C99.6679 88.9731 99.4452 89.3443 99.2543 89.7154C98.9089 90.3942 98.5082 91.0432 98.056 91.6561L97.7697 92.0802ZM101.821 95.4419L101.11 96.3115C100.737 96.7798 100.326 97.2161 99.88 97.6158L98.8196 98.6763L99.7422 97.4674C100.128 97.0153 100.483 96.537 100.803 96.0357L101.386 95.1025L101.715 94.6041C101.799 94.4238 101.895 94.233 102.001 94.0421C102.449 93.2262 102.845 92.3832 103.189 91.5182C103.369 91.041 103.602 90.585 103.751 90.0654L104.238 88.4959C105.551 83.7961 105.525 78.8233 104.164 74.1373L103.676 72.5679C103.517 72.0588 103.284 71.6028 103.093 71.1362C102.746 70.2675 102.339 69.4242 101.874 68.6124L101.587 68.0609L101.259 67.5519L100.665 66.6399C100.349 66.136 99.9943 65.6574 99.6043 65.2083L98.6817 64.01L99.7422 65.0704C100.189 65.4685 100.604 65.9011 100.983 66.3642L101.704 67.2232L102.096 67.7004L102.457 68.2306C103.021 69.0186 103.524 69.8481 103.963 70.7121C104.196 71.1787 104.482 71.6453 104.684 72.1649C104.885 72.6845 105.108 73.2253 105.32 73.7662C107.062 78.6558 107.088 83.9924 105.394 88.8989C105.182 89.4503 104.97 89.9593 104.779 90.5108C104.588 91.0622 104.292 91.497 104.069 91.9742C103.634 92.8379 103.134 93.6674 102.574 94.4557C102.46 94.6466 102.344 94.8268 102.224 94.9965L101.821 95.4419ZM105.331 99.4928C105.094 99.8082 104.839 100.109 104.567 100.394L103.867 101.094L102.51 102.388L103.655 100.946L104.26 100.172C104.498 99.8636 104.718 99.5413 104.917 99.2065C105.136 98.8601 105.38 98.4889 105.649 98.093L106.041 97.478L106.402 96.7993C106.961 95.8104 107.457 94.7867 107.886 93.7346C108.109 93.1619 108.395 92.5999 108.586 91.9742L109.18 90.0548C109.965 87.1934 110.372 84.2413 110.389 81.2742C110.343 78.3077 109.911 75.3597 109.106 72.5042L108.48 70.606C108.289 69.9803 107.993 69.4183 107.77 68.8457C107.331 67.7961 106.824 66.7759 106.253 65.7916L105.893 65.1129L105.49 64.5084L104.748 63.3949C104.546 63.065 104.326 62.7464 104.09 62.4405L103.475 61.677L102.319 60.2348L103.645 61.5179L104.355 62.2178C104.628 62.5012 104.887 62.7985 105.129 63.1086L105.988 64.1691L106.465 64.7523C106.603 64.9644 106.752 65.1765 106.89 65.3992C107.569 66.3598 108.175 67.37 108.703 68.4215C108.979 68.9835 109.318 69.5562 109.562 70.1818L110.315 72.1331C112.406 78.0537 112.436 84.5074 110.4 90.4472C110.156 91.1152 109.901 91.7727 109.668 92.3984C109.435 93.0241 109.095 93.6073 108.82 94.18C108.304 95.2347 107.708 96.2486 107.038 97.2129L106.614 97.8703L106.158 98.4536L105.331 99.4928ZM108.661 103.735L107.844 104.562L106.306 106.099L107.664 104.403L108.395 103.512C108.671 103.183 108.894 102.78 109.17 102.377L110.039 101.062L110.516 100.352L110.941 99.5459C111.608 98.3837 112.2 97.1793 112.712 95.9403C112.977 95.2616 113.327 94.5935 113.549 93.8194L114.27 91.5606C116.213 84.8035 116.18 77.6313 114.175 70.8924L113.433 68.6442C113.199 67.9125 112.849 67.2444 112.574 66.5233C112.05 65.2878 111.448 64.0871 110.771 62.9283C110.622 62.6632 110.474 62.3981 110.336 62.133C110.198 61.8679 110.007 61.6558 109.859 61.4225L108.968 60.1181C108.727 59.7298 108.465 59.3546 108.183 58.994L107.452 58.1033C106.571 57.0428 106.073 56.4277 106.073 56.4277L107.621 57.9442L108.449 58.7714C108.77 59.1067 109.071 59.4608 109.35 59.8318C109.668 60.2136 110.007 60.6271 110.41 61.0725L110.962 61.7512L111.46 62.5253C112.253 63.6562 112.962 64.8436 113.581 66.0779C113.91 66.7566 114.302 67.4247 114.589 68.1988C114.875 68.9729 115.161 69.7152 115.458 70.4894C117.882 77.4472 117.919 85.014 115.564 91.9954L114.705 94.2966C114.429 95.0389 114.037 95.707 113.73 96.4175C113.123 97.6548 112.432 98.8489 111.662 99.9913L111.163 100.765L110.622 101.455L109.626 102.706C109.191 103.067 108.926 103.448 108.618 103.756L108.661 103.735ZM116.084 102.727C114.832 104.619 113.412 106.393 111.842 108.03C111.291 108.623 110.782 109.037 110.527 109.334L110.06 109.779L110.474 109.291C110.75 108.963 111.174 108.507 111.662 107.87C113.074 106.115 114.343 104.25 115.458 102.292C117.113 99.4094 118.413 96.3364 119.329 93.1407C121.603 85.3188 121.562 77.0056 119.212 69.2062C118.25 66.0506 116.915 63.021 115.235 60.1817C114.099 58.232 112.812 56.374 111.386 54.625C110.888 53.9993 110.453 53.5645 110.188 53.2252L109.763 52.7374L110.23 53.1827C110.527 53.4797 111.004 53.8826 111.556 54.4765C115.54 58.5657 118.562 63.493 120.4 68.8987C123.131 76.8984 123.172 85.5716 120.516 93.5967C119.453 96.833 117.959 99.9113 116.073 102.748L116.084 102.727Z" fill="url(#paint2_linear_47_1370)"/>
<mask id="path-8-outside-1_47_1370" maskUnits="userSpaceOnUse" x="0" y="0" width="163" height="163" fill="black">
<rect fill="white" width="163" height="163"/>
<path d="M153.741 70.7864C152.147 70.1515 150.724 69.1553 149.581 67.8763C148.439 66.5972 147.61 65.0703 147.158 63.4159C146.707 61.7615 146.646 60.0248 146.98 58.3428C147.315 56.6608 148.035 55.0796 149.085 53.7236C150.435 51.9787 151.233 49.8702 151.377 47.6686C151.52 45.467 151.003 43.2728 149.89 41.3674C148.778 39.462 147.122 37.9324 145.134 36.9747C143.147 36.0171 140.918 35.6752 138.735 35.9928C137.039 36.2425 135.308 36.094 133.678 35.559C132.049 35.0241 130.567 34.1173 129.349 32.9105C128.131 31.7037 127.21 30.2301 126.66 28.6061C126.11 26.9821 125.945 25.2523 126.179 23.5537C126.476 21.3679 126.112 19.1435 125.136 17.1656C124.159 15.1877 122.614 13.5466 120.699 12.4527C118.783 11.3589 116.585 10.8621 114.385 11.0261C112.186 11.1901 110.085 12.0074 108.353 13.3733C107.008 14.4358 105.434 15.1711 103.756 15.5211C102.078 15.8712 100.342 15.8264 98.6839 15.3904C97.0261 14.9543 95.4924 14.139 94.2038 13.0086C92.9151 11.8782 91.9068 10.4638 91.2585 8.87696C90.4227 6.83514 88.9959 5.08962 87.1611 3.86433C85.3264 2.63904 83.1674 1.98986 80.9611 2.00012C78.7549 2.01038 76.602 2.67961 74.7787 3.9219C72.9554 5.1642 71.5449 6.9229 70.7281 8.9724C70.0957 10.5592 69.1044 11.9781 67.8319 13.1176C66.5593 14.2572 65.0401 15.0865 63.3934 15.5405C61.7466 15.9946 60.0171 16.061 58.3404 15.7347C56.6636 15.4084 55.0853 14.6981 53.729 13.6596C51.9841 12.3095 49.8756 11.5115 47.674 11.368C45.4724 11.2246 43.2781 11.7421 41.3727 12.8544C39.4673 13.9666 37.9377 15.6228 36.9801 17.6104C36.0225 19.598 35.6805 21.8264 35.9982 24.0097C36.2437 25.7062 36.0919 27.4366 35.5548 29.0645C35.0176 30.6924 34.1098 32.1733 32.9028 33.3906C31.6958 34.6079 30.2226 35.5283 28.5993 36.0792C26.9761 36.6301 25.247 36.7966 23.5484 36.5655C21.3619 36.2662 19.1358 36.6279 17.1565 37.6041C15.1772 38.5802 13.5351 40.1261 12.4415 42.0431C11.3479 43.96 10.8528 46.1602 11.0198 48.3608C11.1868 50.5615 12.0083 52.6618 13.3787 54.3917C14.4409 55.7376 15.1756 57.312 15.525 58.9905C15.8743 60.6691 15.8286 62.4059 15.3915 64.0638C14.9544 65.7217 14.1379 67.2553 13.0064 68.5434C11.8749 69.8316 10.4594 70.839 8.87173 71.4863C6.83032 72.3231 5.08551 73.7509 3.86116 75.5863C2.6368 77.4216 1.98875 79.581 2.00015 81.7872C2.01154 83.9935 2.68186 86.146 3.92511 87.9687C5.16836 89.7913 6.92783 91.2009 8.97777 92.0167C10.5706 92.6502 11.9944 93.6452 13.1367 94.9233C14.2791 96.2014 15.1087 97.7275 15.5602 99.3812C16.0117 101.035 16.0726 102.771 15.7382 104.452C15.4037 106.133 14.6831 107.714 13.6332 109.069C12.2785 110.812 11.4764 112.92 11.33 115.123C11.1835 117.325 11.6995 119.521 12.8115 121.428C13.9234 123.335 15.5805 124.865 17.5696 125.823C19.5586 126.78 21.7886 127.12 23.9726 126.8C25.67 126.552 27.4016 126.703 29.0309 127.239C30.6602 127.775 32.1425 128.683 33.3611 129.89C34.5796 131.097 35.501 132.571 36.0525 134.195C36.604 135.82 36.7705 137.55 36.539 139.249C36.2419 141.434 36.6045 143.658 37.5803 145.635C38.5562 147.612 40.1006 149.252 42.0154 150.346C43.9302 151.439 46.1281 151.934 48.3267 151.769C50.5254 151.604 52.6245 150.786 54.3547 149.419C55.7008 148.357 57.2752 147.621 58.954 147.271C60.6328 146.921 62.3699 146.966 64.0284 147.402C65.6869 147.838 67.2215 148.653 68.5111 149.784C69.8008 150.914 70.8102 152.328 71.4598 153.915C72.3051 155.935 73.7308 157.659 75.5563 158.867C77.3818 160.076 79.5251 160.716 81.7145 160.706C83.904 160.696 86.0411 160.036 87.8553 158.81C89.6695 157.584 91.079 155.848 91.9054 153.82C92.5402 152.227 93.5364 150.803 94.8155 149.661C96.0946 148.519 97.6215 147.689 99.2759 147.238C100.93 146.786 102.667 146.725 104.349 147.06C106.031 147.394 107.612 148.115 108.968 149.165C110.712 150.514 112.82 151.311 115.02 151.455C117.22 151.598 119.414 151.082 121.318 149.971C123.223 148.86 124.753 147.206 125.712 145.22C126.67 143.234 127.014 141.008 126.699 138.825C126.45 137.128 126.598 135.397 127.133 133.768C127.668 132.138 128.575 130.655 129.781 129.437C130.988 128.218 132.461 127.296 134.085 126.745C135.709 126.193 137.439 126.027 139.138 126.259C141.324 126.558 143.549 126.198 145.528 125.223C147.507 124.248 149.149 122.704 150.244 120.788C151.338 118.873 151.835 116.674 151.67 114.474C151.505 112.274 150.686 110.174 149.318 108.443C148.256 107.097 147.521 105.523 147.171 103.844C146.821 102.165 146.865 100.428 147.301 98.7694C147.737 97.1109 148.553 95.5763 149.683 94.2867C150.813 92.9971 152.228 91.9876 153.815 91.338C155.868 90.5117 157.627 89.0883 158.862 87.2519C160.098 85.4154 160.754 83.2505 160.746 81.037C160.738 78.8235 160.067 76.6633 158.818 74.8359C157.569 73.0084 155.8 71.5978 153.741 70.7864ZM146.879 81.0728C146.94 94.0365 143.155 106.727 136.003 117.54C128.852 128.352 118.654 136.802 106.701 141.819C94.7469 146.836 81.5739 148.196 68.8474 145.726C56.1209 143.257 44.4125 137.069 35.2028 127.945C25.993 118.821 19.6956 107.172 17.1068 94.4688C14.518 81.766 15.7542 68.5809 20.6589 56.5807C25.5636 44.5805 33.9167 34.3041 44.6618 27.0512C55.4069 19.7983 68.0614 15.8945 81.0251 15.8335C98.408 15.7743 115.104 22.6135 127.45 34.8503C139.797 47.0871 146.784 63.7219 146.879 81.1046V81.0728Z"/>
</mask>
<path d="M153.741 70.7864C152.147 70.1515 150.724 69.1553 149.581 67.8763C148.439 66.5972 147.61 65.0703 147.158 63.4159C146.707 61.7615 146.646 60.0248 146.98 58.3428C147.315 56.6608 148.035 55.0796 149.085 53.7236C150.435 51.9787 151.233 49.8702 151.377 47.6686C151.52 45.467 151.003 43.2728 149.89 41.3674C148.778 39.462 147.122 37.9324 145.134 36.9747C143.147 36.0171 140.918 35.6752 138.735 35.9928C137.039 36.2425 135.308 36.094 133.678 35.559C132.049 35.0241 130.567 34.1173 129.349 32.9105C128.131 31.7037 127.21 30.2301 126.66 28.6061C126.11 26.9821 125.945 25.2523 126.179 23.5537C126.476 21.3679 126.112 19.1435 125.136 17.1656C124.159 15.1877 122.614 13.5466 120.699 12.4527C118.783 11.3589 116.585 10.8621 114.385 11.0261C112.186 11.1901 110.085 12.0074 108.353 13.3733C107.008 14.4358 105.434 15.1711 103.756 15.5211C102.078 15.8712 100.342 15.8264 98.6839 15.3904C97.0261 14.9543 95.4924 14.139 94.2038 13.0086C92.9151 11.8782 91.9068 10.4638 91.2585 8.87696C90.4227 6.83514 88.9959 5.08962 87.1611 3.86433C85.3264 2.63904 83.1674 1.98986 80.9611 2.00012C78.7549 2.01038 76.602 2.67961 74.7787 3.9219C72.9554 5.1642 71.5449 6.9229 70.7281 8.9724C70.0957 10.5592 69.1044 11.9781 67.8319 13.1176C66.5593 14.2572 65.0401 15.0865 63.3934 15.5405C61.7466 15.9946 60.0171 16.061 58.3404 15.7347C56.6636 15.4084 55.0853 14.6981 53.729 13.6596C51.9841 12.3095 49.8756 11.5115 47.674 11.368C45.4724 11.2246 43.2781 11.7421 41.3727 12.8544C39.4673 13.9666 37.9377 15.6228 36.9801 17.6104C36.0225 19.598 35.6805 21.8264 35.9982 24.0097C36.2437 25.7062 36.0919 27.4366 35.5548 29.0645C35.0176 30.6924 34.1098 32.1733 32.9028 33.3906C31.6958 34.6079 30.2226 35.5283 28.5993 36.0792C26.9761 36.6301 25.247 36.7966 23.5484 36.5655C21.3619 36.2662 19.1358 36.6279 17.1565 37.6041C15.1772 38.5802 13.5351 40.1261 12.4415 42.0431C11.3479 43.96 10.8528 46.1602 11.0198 48.3608C11.1868 50.5615 12.0083 52.6618 13.3787 54.3917C14.4409 55.7376 15.1756 57.312 15.525 58.9905C15.8743 60.6691 15.8286 62.4059 15.3915 64.0638C14.9544 65.7217 14.1379 67.2553 13.0064 68.5434C11.8749 69.8316 10.4594 70.839 8.87173 71.4863C6.83032 72.3231 5.08551 73.7509 3.86116 75.5863C2.6368 77.4216 1.98875 79.581 2.00015 81.7872C2.01154 83.9935 2.68186 86.146 3.92511 87.9687C5.16836 89.7913 6.92783 91.2009 8.97777 92.0167C10.5706 92.6502 11.9944 93.6452 13.1367 94.9233C14.2791 96.2014 15.1087 97.7275 15.5602 99.3812C16.0117 101.035 16.0726 102.771 15.7382 104.452C15.4037 106.133 14.6831 107.714 13.6332 109.069C12.2785 110.812 11.4764 112.92 11.33 115.123C11.1835 117.325 11.6995 119.521 12.8115 121.428C13.9234 123.335 15.5805 124.865 17.5696 125.823C19.5586 126.78 21.7886 127.12 23.9726 126.8C25.67 126.552 27.4016 126.703 29.0309 127.239C30.6602 127.775 32.1425 128.683 33.3611 129.89C34.5796 131.097 35.501 132.571 36.0525 134.195C36.604 135.82 36.7705 137.55 36.539 139.249C36.2419 141.434 36.6045 143.658 37.5803 145.635C38.5562 147.612 40.1006 149.252 42.0154 150.346C43.9302 151.439 46.1281 151.934 48.3267 151.769C50.5254 151.604 52.6245 150.786 54.3547 149.419C55.7008 148.357 57.2752 147.621 58.954 147.271C60.6328 146.921 62.3699 146.966 64.0284 147.402C65.6869 147.838 67.2215 148.653 68.5111 149.784C69.8008 150.914 70.8102 152.328 71.4598 153.915C72.3051 155.935 73.7308 157.659 75.5563 158.867C77.3818 160.076 79.5251 160.716 81.7145 160.706C83.904 160.696 86.0411 160.036 87.8553 158.81C89.6695 157.584 91.079 155.848 91.9054 153.82C92.5402 152.227 93.5364 150.803 94.8155 149.661C96.0946 148.519 97.6215 147.689 99.2759 147.238C100.93 146.786 102.667 146.725 104.349 147.06C106.031 147.394 107.612 148.115 108.968 149.165C110.712 150.514 112.82 151.311 115.02 151.455C117.22 151.598 119.414 151.082 121.318 149.971C123.223 148.86 124.753 147.206 125.712 145.22C126.67 143.234 127.014 141.008 126.699 138.825C126.45 137.128 126.598 135.397 127.133 133.768C127.668 132.138 128.575 130.655 129.781 129.437C130.988 128.218 132.461 127.296 134.085 126.745C135.709 126.193 137.439 126.027 139.138 126.259C141.324 126.558 143.549 126.198 145.528 125.223C147.507 124.248 149.149 122.704 150.244 120.788C151.338 118.873 151.835 116.674 151.67 114.474C151.505 112.274 150.686 110.174 149.318 108.443C148.256 107.097 147.521 105.523 147.171 103.844C146.821 102.165 146.865 100.428 147.301 98.7694C147.737 97.1109 148.553 95.5763 149.683 94.2867C150.813 92.9971 152.228 91.9876 153.815 91.338C155.868 90.5117 157.627 89.0883 158.862 87.2519C160.098 85.4154 160.754 83.2505 160.746 81.037C160.738 78.8235 160.067 76.6633 158.818 74.8359C157.569 73.0084 155.8 71.5978 153.741 70.7864ZM146.879 81.0728C146.94 94.0365 143.155 106.727 136.003 117.54C128.852 128.352 118.654 136.802 106.701 141.819C94.7469 146.836 81.5739 148.196 68.8474 145.726C56.1209 143.257 44.4125 137.069 35.2028 127.945C25.993 118.821 19.6956 107.172 17.1068 94.4688C14.518 81.766 15.7542 68.5809 20.6589 56.5807C25.5636 44.5805 33.9167 34.3041 44.6618 27.0512C55.4069 19.7983 68.0614 15.8945 81.0251 15.8335C98.408 15.7743 115.104 22.6135 127.45 34.8503C139.797 47.0871 146.784 63.7219 146.879 81.1046V81.0728Z" fill="url(#paint3_linear_47_1370)"/>
<path d="M153.741 70.7864C152.147 70.1515 150.724 69.1553 149.581 67.8763C148.439 66.5972 147.61 65.0703 147.158 63.4159C146.707 61.7615 146.646 60.0248 146.98 58.3428C147.315 56.6608 148.035 55.0796 149.085 53.7236C150.435 51.9787 151.233 49.8702 151.377 47.6686C151.52 45.467 151.003 43.2728 149.89 41.3674C148.778 39.462 147.122 37.9324 145.134 36.9747C143.147 36.0171 140.918 35.6752 138.735 35.9928C137.039 36.2425 135.308 36.094 133.678 35.559C132.049 35.0241 130.567 34.1173 129.349 32.9105C128.131 31.7037 127.21 30.2301 126.66 28.6061C126.11 26.9821 125.945 25.2523 126.179 23.5537C126.476 21.3679 126.112 19.1435 125.136 17.1656C124.159 15.1877 122.614 13.5466 120.699 12.4527C118.783 11.3589 116.585 10.8621 114.385 11.0261C112.186 11.1901 110.085 12.0074 108.353 13.3733C107.008 14.4358 105.434 15.1711 103.756 15.5211C102.078 15.8712 100.342 15.8264 98.6839 15.3904C97.0261 14.9543 95.4924 14.139 94.2038 13.0086C92.9151 11.8782 91.9068 10.4638 91.2585 8.87696C90.4227 6.83514 88.9959 5.08962 87.1611 3.86433C85.3264 2.63904 83.1674 1.98986 80.9611 2.00012C78.7549 2.01038 76.602 2.67961 74.7787 3.9219C72.9554 5.1642 71.5449 6.9229 70.7281 8.9724C70.0957 10.5592 69.1044 11.9781 67.8319 13.1176C66.5593 14.2572 65.0401 15.0865 63.3934 15.5405C61.7466 15.9946 60.0171 16.061 58.3404 15.7347C56.6636 15.4084 55.0853 14.6981 53.729 13.6596C51.9841 12.3095 49.8756 11.5115 47.674 11.368C45.4724 11.2246 43.2781 11.7421 41.3727 12.8544C39.4673 13.9666 37.9377 15.6228 36.9801 17.6104C36.0225 19.598 35.6805 21.8264 35.9982 24.0097C36.2437 25.7062 36.0919 27.4366 35.5548 29.0645C35.0176 30.6924 34.1098 32.1733 32.9028 33.3906C31.6958 34.6079 30.2226 35.5283 28.5993 36.0792C26.9761 36.6301 25.247 36.7966 23.5484 36.5655C21.3619 36.2662 19.1358 36.6279 17.1565 37.6041C15.1772 38.5802 13.5351 40.1261 12.4415 42.0431C11.3479 43.96 10.8528 46.1602 11.0198 48.3608C11.1868 50.5615 12.0083 52.6618 13.3787 54.3917C14.4409 55.7376 15.1756 57.312 15.525 58.9905C15.8743 60.6691 15.8286 62.4059 15.3915 64.0638C14.9544 65.7217 14.1379 67.2553 13.0064 68.5434C11.8749 69.8316 10.4594 70.839 8.87173 71.4863C6.83032 72.3231 5.08551 73.7509 3.86116 75.5863C2.6368 77.4216 1.98875 79.581 2.00015 81.7872C2.01154 83.9935 2.68186 86.146 3.92511 87.9687C5.16836 89.7913 6.92783 91.2009 8.97777 92.0167C10.5706 92.6502 11.9944 93.6452 13.1367 94.9233C14.2791 96.2014 15.1087 97.7275 15.5602 99.3812C16.0117 101.035 16.0726 102.771 15.7382 104.452C15.4037 106.133 14.6831 107.714 13.6332 109.069C12.2785 110.812 11.4764 112.92 11.33 115.123C11.1835 117.325 11.6995 119.521 12.8115 121.428C13.9234 123.335 15.5805 124.865 17.5696 125.823C19.5586 126.78 21.7886 127.12 23.9726 126.8C25.67 126.552 27.4016 126.703 29.0309 127.239C30.6602 127.775 32.1425 128.683 33.3611 129.89C34.5796 131.097 35.501 132.571 36.0525 134.195C36.604 135.82 36.7705 137.55 36.539 139.249C36.2419 141.434 36.6045 143.658 37.5803 145.635C38.5562 147.612 40.1006 149.252 42.0154 150.346C43.9302 151.439 46.1281 151.934 48.3267 151.769C50.5254 151.604 52.6245 150.786 54.3547 149.419C55.7008 148.357 57.2752 147.621 58.954 147.271C60.6328 146.921 62.3699 146.966 64.0284 147.402C65.6869 147.838 67.2215 148.653 68.5111 149.784C69.8008 150.914 70.8102 152.328 71.4598 153.915C72.3051 155.935 73.7308 157.659 75.5563 158.867C77.3818 160.076 79.5251 160.716 81.7145 160.706C83.904 160.696 86.0411 160.036 87.8553 158.81C89.6695 157.584 91.079 155.848 91.9054 153.82C92.5402 152.227 93.5364 150.803 94.8155 149.661C96.0946 148.519 97.6215 147.689 99.2759 147.238C100.93 146.786 102.667 146.725 104.349 147.06C106.031 147.394 107.612 148.115 108.968 149.165C110.712 150.514 112.82 151.311 115.02 151.455C117.22 151.598 119.414 151.082 121.318 149.971C123.223 148.86 124.753 147.206 125.712 145.22C126.67 143.234 127.014 141.008 126.699 138.825C126.45 137.128 126.598 135.397 127.133 133.768C127.668 132.138 128.575 130.655 129.781 129.437C130.988 128.218 132.461 127.296 134.085 126.745C135.709 126.193 137.439 126.027 139.138 126.259C141.324 126.558 143.549 126.198 145.528 125.223C147.507 124.248 149.149 122.704 150.244 120.788C151.338 118.873 151.835 116.674 151.67 114.474C151.505 112.274 150.686 110.174 149.318 108.443C148.256 107.097 147.521 105.523 147.171 103.844C146.821 102.165 146.865 100.428 147.301 98.7694C147.737 97.1109 148.553 95.5763 149.683 94.2867C150.813 92.9971 152.228 91.9876 153.815 91.338C155.868 90.5117 157.627 89.0883 158.862 87.2519C160.098 85.4154 160.754 83.2505 160.746 81.037C160.738 78.8235 160.067 76.6633 158.818 74.8359C157.569 73.0084 155.8 71.5978 153.741 70.7864ZM146.879 81.0728C146.94 94.0365 143.155 106.727 136.003 117.54C128.852 128.352 118.654 136.802 106.701 141.819C94.7469 146.836 81.5739 148.196 68.8474 145.726C56.1209 143.257 44.4125 137.069 35.2028 127.945C25.993 118.821 19.6956 107.172 17.1068 94.4688C14.518 81.766 15.7542 68.5809 20.6589 56.5807C25.5636 44.5805 33.9167 34.3041 44.6618 27.0512C55.4069 19.7983 68.0614 15.8945 81.0251 15.8335C98.408 15.7743 115.104 22.6135 127.45 34.8503C139.797 47.0871 146.784 63.7219 146.879 81.1046V81.0728Z" stroke="white" stroke-width="3" mask="url(#path-8-outside-1_47_1370)"/>
<path d="M39.2114 38.3787L41.0035 36.8516L46.73 41.8888L42.5942 35.5261L44.3864 33.9884L51.2793 41.9842L50.0916 43.0447L44.906 36.8516L49.1478 43.6916L48.0874 44.6036L41.9579 39.3013L47.1754 45.3565L46.1149 46.3003L39.2114 38.3787Z" fill="url(#paint4_linear_47_1370)"/>
<path d="M53.1564 37.647L49.169 30.6586L50.6113 29.8315L54.6622 36.9259C55.0334 37.5834 55.4469 37.6576 55.9029 37.4031C56.3589 37.1486 56.4968 36.7456 56.1256 36.0882L52.0747 28.9937L53.4639 28.1984L57.4512 35.1974C58.289 36.6608 58.0345 37.9122 56.624 38.7181C55.2136 39.524 53.9941 39.1105 53.1564 37.647Z" fill="url(#paint5_linear_47_1370)"/>
<path d="M61.0143 33.5431L60.8022 32.9705L62.2763 32.4296L62.5308 33.119C62.7853 33.8295 63.1883 33.9673 63.6867 33.787C64.1851 33.6067 64.4078 33.2356 64.1321 32.5039C63.8563 31.7722 63.3367 31.2631 62.0112 30.7435C60.2826 30.0754 59.5615 29.418 59.1585 28.2833C58.9948 27.9784 58.9019 27.6405 58.8869 27.2948C58.8718 26.949 58.9349 26.6044 59.0714 26.2864C59.208 25.9684 59.4145 25.6853 59.6756 25.4582C59.9367 25.2311 60.2457 25.0658 60.5795 24.9746C62.096 24.4232 63.1777 25.0489 63.7609 26.6396L63.9094 27.0532L62.4353 27.5834L62.2445 27.0744C61.9899 26.3638 61.6082 26.2048 61.1098 26.3851C60.6114 26.5653 60.4311 26.9365 60.675 27.6152C60.9189 28.2939 61.4597 28.7499 62.7959 29.2695C64.5138 29.9376 65.2137 30.5845 65.6591 31.8146C66.253 33.4371 65.7652 34.6354 64.2275 35.1974C62.6899 35.7595 61.587 35.1232 61.0143 33.5431Z" fill="url(#paint6_linear_47_1370)"/>
<path d="M67.8012 22.9915L69.4237 22.6521L71.6401 32.9703L70.0176 33.3097L67.8012 22.9915Z" fill="url(#paint7_linear_47_1370)"/>
<path d="M75.1926 29.8951L74.7896 24.2322C74.746 23.9011 74.7705 23.5646 74.8616 23.2433C74.9528 22.922 75.1087 22.6228 75.3197 22.3639C75.5307 22.1051 75.7925 21.8922 76.0888 21.7382C76.3852 21.5842 76.7099 21.4925 77.043 21.4686C77.3761 21.4447 77.7106 21.4891 78.0259 21.5992C78.3412 21.7093 78.6306 21.8827 78.8764 22.1088C79.1223 22.3348 79.3193 22.6088 79.4553 22.9138C79.5914 23.2188 79.6637 23.5483 79.6677 23.8823L79.7526 24.9958L78.1831 25.1124L78.0983 23.8929C78.0983 23.2036 77.6953 22.9385 77.1969 22.9703C76.6985 23.0021 76.3909 23.3202 76.444 24.0307L76.8575 29.9163C76.8575 30.6055 77.2605 30.8601 77.7589 30.8176C78.2573 30.7752 78.5649 30.4889 78.5118 29.7572L78.4058 28.1453L79.9647 28.0393L80.0707 29.5239C80.1144 29.855 80.0899 30.1915 79.9987 30.5128C79.9076 30.8341 79.7517 31.1333 79.5407 31.3922C79.3296 31.651 79.0679 31.864 78.7715 32.0179C78.4752 32.1719 78.1505 32.2637 77.8174 32.2876C77.4843 32.3114 77.1498 32.267 76.8345 32.1569C76.5192 32.0468 76.2298 31.8734 75.9839 31.6473C75.7381 31.4213 75.5411 31.1473 75.405 30.8423C75.2689 30.5374 75.1967 30.2078 75.1926 29.8739V29.8951Z" fill="url(#paint8_linear_47_1370)"/>
<path d="M91.0464 22.2068L93.443 22.6946C95.0761 23.0127 95.6912 24.0732 95.3625 25.7381L95.161 26.7985C94.8216 28.4529 93.846 29.1952 92.2235 28.8664L91.4494 28.718L90.601 32.9598L88.9785 32.6417L91.0464 22.2068ZM92.5098 27.35C93.0295 27.456 93.3582 27.2758 93.5067 26.5334L93.7506 25.3033C93.899 24.561 93.6657 24.2429 93.1567 24.1686L92.3826 24.0096L91.7463 27.1909L92.5098 27.35Z" fill="url(#paint9_linear_47_1370)"/>
<path d="M100.962 24.6776L103.252 25.5684C103.588 25.6334 103.903 25.7785 104.17 25.9914C104.437 26.2043 104.649 26.4786 104.788 26.791C104.926 27.1034 104.987 27.4447 104.965 27.7857C104.944 28.1268 104.84 28.4575 104.663 28.7498L104.429 29.3542C104.037 30.4147 103.464 30.8919 102.669 30.9025C103.348 31.4433 103.316 32.2705 102.881 33.384L102.213 35.1125C102.028 35.5083 101.927 35.9379 101.916 36.3744L100.389 35.7912C100.41 35.3524 100.522 34.9227 100.718 34.5293L101.418 32.7265C101.768 31.8145 101.619 31.4115 100.909 31.1464L100.378 30.9343L98.7453 35.1761L97.1971 34.5717L100.962 24.6776ZM101.428 29.7148C102.012 29.9375 102.489 29.8208 102.764 29.0361L103.061 28.2726C103.327 27.5727 103.21 27.2121 102.669 26.9576L101.959 26.6819L100.898 29.4921L101.428 29.7148Z" fill="url(#paint10_linear_47_1370)"/>
<path d="M106.296 35.7913L109.159 31.0405C109.318 30.7344 109.538 30.4641 109.805 30.2463C110.072 30.0285 110.382 29.8678 110.714 29.7741C111.045 29.6804 111.393 29.6558 111.735 29.7016C112.077 29.7475 112.405 29.8629 112.701 30.0407C112.996 30.2186 113.252 30.4551 113.453 30.7357C113.653 31.0163 113.794 31.335 113.867 31.6721C113.939 32.0092 113.942 32.3577 113.874 32.6959C113.807 33.0341 113.671 33.3549 113.475 33.6386L110.612 38.3894C110.453 38.6955 110.233 38.9658 109.966 39.1836C109.698 39.4014 109.389 39.5621 109.057 39.6558C108.725 39.7495 108.378 39.7741 108.036 39.7283C107.694 39.6824 107.365 39.567 107.07 39.3891C106.775 39.2113 106.519 38.9748 106.318 38.6942C106.118 38.4136 105.977 38.0949 105.904 37.7578C105.832 37.4206 105.829 37.0722 105.896 36.734C105.964 36.3958 106.1 36.0749 106.296 35.7913ZM109.127 37.6259L112.107 32.6948C112.499 32.0479 112.362 31.6343 111.916 31.3586C111.471 31.0829 111.025 31.1571 110.644 31.804L107.664 36.7351C107.271 37.382 107.409 37.7956 107.855 38.0713C108.3 38.347 108.745 38.241 109.127 37.5941V37.6259Z" fill="url(#paint11_linear_47_1370)"/>
<path d="M119.223 34.7308L121.132 36.3958C122.383 37.4562 122.393 38.7076 121.28 39.9801L117.781 44.0098C117.596 44.3035 117.347 44.551 117.052 44.7334C116.757 44.9158 116.425 45.0282 116.08 45.062C115.734 45.0957 115.386 45.05 115.062 44.9283C114.737 44.8066 114.445 44.6121 114.207 44.3598L112.298 42.6949L119.223 34.7308ZM115.172 43.2145C115.575 43.5538 115.988 43.5644 116.487 42.9918L120.082 38.856C120.58 38.2834 120.516 37.8698 120.082 37.5198L119.445 36.9684L114.504 42.6631L115.172 43.2145Z" fill="url(#paint12_linear_47_1370)"/>
<path d="M46.783 119.058L48.6494 120.511L44.8636 127.128L50.3249 121.826L52.2019 123.268L45.7332 131.625L44.4924 130.66L49.3917 124.297L43.5486 129.886L42.4882 129.027L46.4331 121.975L41.5338 128.337L40.3885 127.447L46.783 119.058Z" fill="url(#paint13_linear_47_1370)"/>
<path d="M51.4702 132.219L55.1924 125.071L56.6665 125.835L52.8912 133.088C52.5413 133.756 52.7004 134.149 53.167 134.393C53.6336 134.636 54.0365 134.541 54.3865 133.873L58.1617 126.619L59.5827 127.351L55.8499 134.499C55.7168 134.814 55.5199 135.099 55.2713 135.335C55.0228 135.571 54.7281 135.753 54.4059 135.869C54.0836 135.985 53.7408 136.034 53.3989 136.011C53.0571 135.988 52.7236 135.895 52.4196 135.737C52.1155 135.579 51.8475 135.36 51.6323 135.093C51.4171 134.827 51.2594 134.519 51.1693 134.188C51.0791 133.857 51.0583 133.512 51.1083 133.173C51.1583 132.834 51.2779 132.509 51.4596 132.219H51.4702Z" fill="url(#paint14_linear_47_1370)"/>
<path d="M60.0917 136.259L60.2826 135.686L61.7672 136.185L61.5339 136.874C61.3006 137.584 61.5339 137.934 62.0324 138.115C62.5308 138.295 62.9338 138.115 63.1777 137.383C63.4216 136.651 63.3155 135.919 62.5838 134.679C61.6612 133.077 61.5233 132.123 61.8839 130.978C61.9448 130.636 62.0824 130.312 62.2863 130.031C62.4902 129.75 62.7551 129.518 63.0612 129.354C63.3673 129.19 63.7066 129.097 64.0537 129.082C64.4007 129.068 64.7466 129.132 65.0653 129.27C66.5923 129.779 67.0483 130.946 66.5181 132.547L66.3802 132.961L64.885 132.473L65.0547 131.953C65.2986 131.243 65.0547 130.893 64.5987 130.702C64.1427 130.511 63.7291 130.702 63.5382 131.402C63.3473 132.102 63.4534 132.77 64.1745 134.011C65.1077 135.612 65.2349 136.545 64.8426 137.797C64.7815 138.139 64.6445 138.464 64.4416 138.747C64.2387 139.03 63.9751 139.264 63.67 139.432C63.365 139.599 63.0262 139.697 62.6786 139.717C62.331 139.736 61.9834 139.678 61.6612 139.546C59.9751 139.037 59.5085 137.86 60.0917 136.259Z" fill="url(#paint15_linear_47_1370)"/>
<path d="M70.6327 130.946L72.2658 131.254L70.2721 141.625L68.639 141.307L70.6327 130.946Z" fill="url(#paint16_linear_47_1370)"/>
<path d="M75.3623 139.907L75.691 134.244C75.6864 133.908 75.7512 133.574 75.8814 133.263C76.0116 132.953 76.2043 132.673 76.4476 132.44C76.6909 132.207 76.9796 132.027 77.2955 131.911C77.6115 131.795 77.948 131.745 78.284 131.765C78.62 131.785 78.9484 131.874 79.2486 132.026C79.5488 132.178 79.8144 132.391 80.0288 132.65C80.2432 132.91 80.4019 133.21 80.4948 133.534C80.5878 133.857 80.6131 134.197 80.5691 134.53L80.5055 135.591L78.936 135.506L79.0102 134.287C79.0102 133.587 78.7345 133.279 78.2361 133.226C77.7377 133.173 77.3984 133.459 77.3559 134.149L77.006 140.034C77.006 140.723 77.2817 141.02 77.7801 141.095C78.2785 141.169 78.6179 140.872 78.6603 140.172L78.7557 138.571L80.3252 138.656L80.2298 140.151C80.2204 140.477 80.1456 140.798 80.0098 141.095C79.874 141.392 79.68 141.659 79.4393 141.879C79.1986 142.1 78.916 142.27 78.6084 142.379C78.3008 142.488 77.9744 142.535 77.6485 142.515C77.3226 142.496 77.0039 142.412 76.7112 142.267C76.4186 142.123 76.1579 141.921 75.9447 141.674C75.7315 141.426 75.5701 141.139 75.47 140.828C75.37 140.517 75.3334 140.19 75.3623 139.865V139.907Z" fill="url(#paint17_linear_47_1370)"/>
<path d="M89.1058 131.508L91.5024 131.041C91.8374 130.938 92.192 130.913 92.5381 130.97C92.8842 131.027 93.2122 131.164 93.4962 131.37C93.7802 131.576 94.0124 131.845 94.1743 132.156C94.3363 132.467 94.4236 132.812 94.4293 133.162L94.6308 134.223C94.9595 135.888 94.3338 136.948 92.7007 137.256L91.9266 137.404L92.7538 141.646L91.1207 141.964L89.1058 131.508ZM92.4144 135.75C92.934 135.644 93.1673 135.357 93.0189 134.615L92.7856 133.385C92.6371 132.643 92.3084 132.462 91.7993 132.569L91.0252 132.717L91.6403 135.898L92.4144 135.75Z" fill="url(#paint18_linear_47_1370)"/>
<path d="M97.0698 129.684L99.3816 128.836C99.6746 128.659 100.006 128.555 100.348 128.534C100.69 128.513 101.031 128.575 101.344 128.714C101.657 128.854 101.931 129.067 102.143 129.336C102.355 129.604 102.499 129.92 102.563 130.257L102.786 130.872C102.994 131.239 103.078 131.664 103.024 132.082C102.971 132.501 102.783 132.891 102.489 133.194C103.358 133.194 103.878 133.788 104.292 134.902L104.938 136.641C105.059 137.06 105.265 137.45 105.543 137.786L103.963 138.369C103.686 138.026 103.484 137.629 103.369 137.203L102.711 135.389C102.372 134.467 101.99 134.276 101.28 134.53L100.75 134.732L102.308 138.974L100.75 139.546L97.0698 129.684ZM100.76 133.141C101.343 132.929 101.598 132.547 101.301 131.752L101.025 130.988C100.76 130.278 100.41 130.055 99.8588 130.257L99.1483 130.522L100.209 133.353L100.76 133.141Z" fill="url(#paint19_linear_47_1370)"/>
<path d="M108.735 133.544L105.999 128.719C105.811 128.431 105.685 128.107 105.627 127.768C105.57 127.429 105.582 127.082 105.663 126.747C105.744 126.413 105.893 126.099 106.1 125.825C106.307 125.55 106.568 125.321 106.867 125.151C107.166 124.98 107.497 124.873 107.838 124.836C108.18 124.798 108.526 124.83 108.855 124.931C109.184 125.032 109.489 125.199 109.751 125.422C110.013 125.645 110.226 125.919 110.379 126.227L113.125 131.063C113.305 131.352 113.425 131.674 113.478 132.011C113.53 132.347 113.514 132.691 113.43 133.021C113.345 133.351 113.195 133.661 112.989 133.932C112.782 134.202 112.522 134.428 112.226 134.596C111.929 134.763 111.602 134.869 111.263 134.907C110.925 134.945 110.582 134.913 110.256 134.815C109.93 134.717 109.627 134.554 109.365 134.335C109.104 134.117 108.889 133.848 108.735 133.544ZM111.736 131.975L108.873 126.991C108.502 126.333 108.077 126.248 107.611 126.513C107.144 126.778 107.006 127.181 107.377 127.839L110.219 132.855C110.601 133.512 111.025 133.597 111.481 133.332C111.937 133.067 112.107 132.632 111.736 131.975Z" fill="url(#paint20_linear_47_1370)"/>
<path d="M112.054 122.091L114.026 120.501C114.274 120.257 114.574 120.073 114.904 119.963C115.233 119.853 115.584 119.821 115.928 119.868C116.272 119.915 116.601 120.04 116.889 120.235C117.177 120.429 117.417 120.687 117.59 120.988L120.941 125.145C122.001 126.46 121.938 127.69 120.644 128.73L118.671 130.32L112.054 122.091ZM119.679 127.574C120.092 127.245 120.167 126.831 119.679 126.248L116.243 122.006C115.766 121.423 115.352 121.413 114.938 121.741L114.281 122.271L119.011 128.146L119.679 127.574Z" fill="url(#paint21_linear_47_1370)"/>
<path d="M136.423 69.1744L129.827 88.0081L136.328 83.7345L131.238 103.926L143.062 77.902L135.426 81.2424L136.423 69.1744Z" fill="#00E0B8"/>
<path d="M26.242 69.1744L32.838 88.0081L26.3374 83.7345L31.417 103.926L19.6035 77.902L27.2282 81.2424L26.242 69.1744Z" fill="#00E0B8"/>
<path d="M171.344 106.312V108.664H192.752V106.312H171.344ZM171.392 95.536V97.816H192.656V95.536H171.392ZM172.376 99.904V102.112H191.744V99.904H172.376ZM173.576 103.168V105.256H190.616V103.168H173.576ZM180.536 100.984V114.16H183.392V100.984H180.536ZM178.496 91.6V96.664H181.16V91.6H178.496ZM182.936 91.6V96.496H185.648V91.6H182.936ZM188.456 91.792C188.12 92.848 187.496 94.312 186.92 95.296L189.272 96.016C189.896 95.128 190.688 93.832 191.48 92.512L188.456 91.792ZM185.504 97.624C185.216 98.2 184.64 99.04 184.184 99.664L186.632 100.384C187.16 99.88 187.856 99.208 188.552 98.392L185.504 97.624ZM173.144 92.56C173.816 93.664 174.56 95.128 174.848 96.064L177.44 95.128C177.128 94.192 176.336 92.752 175.616 91.72L173.144 92.56ZM175.928 98.152C176.336 98.824 176.792 99.736 176.96 100.288L179.792 99.616C179.552 99.04 179.072 98.176 178.664 97.552L175.928 98.152ZM177.896 109.456C176.456 110.368 173.648 111.184 171.248 111.52C171.8 112.048 172.568 112.984 172.952 113.608C175.424 113.032 178.304 111.76 179.96 110.392L177.896 109.456ZM184.4 110.68C186.44 111.52 189.248 112.816 190.64 113.584L192.68 112.024C191.144 111.256 188.288 110.056 186.344 109.312L184.4 110.68ZM200.336 98.632H211.664V100.384H200.336V98.632ZM200.336 94.768H211.664V96.472H200.336V94.768ZM197.456 92.44V102.688H214.664V92.44H197.456ZM209.288 101.176L206.864 102.064C208.784 104.944 211.904 107.248 215.432 108.4C215.84 107.656 216.704 106.528 217.352 105.952C213.992 105.112 210.872 103.336 209.288 101.176ZM202.736 101.152C201.152 103.312 198.008 105.208 194.768 106.12C195.392 106.696 196.256 107.776 196.688 108.496C200.096 107.272 203.336 104.92 205.28 102.136L202.736 101.152ZM201.032 105.544V107.104C201.032 108.64 200.552 110.68 196.544 111.976C197.168 112.528 198.128 113.608 198.512 114.328C203.312 112.576 204.008 109.504 204.008 107.2V105.544H201.032ZM204.536 93.616V101.536H207.44V93.616H204.536ZM208.352 105.592V114.088H211.352V105.592H208.352ZM223.76 97.576C225.224 98.344 227.096 99.544 227.96 100.384L230 98.608C229.064 97.768 227.144 96.664 225.704 95.968L223.76 97.576ZM234.584 93.424V93.832C232.208 98.32 225.728 101.2 219.248 102.232C219.752 102.856 220.328 103.984 220.568 104.704C227.552 103.288 234.344 100.168 237.464 94.384L235.592 93.304L235.136 93.424H234.584ZM227 93.424V95.776H235.232V93.424H227ZM228.32 91.552C226.688 93.52 223.712 95.536 219.44 96.928C220.064 97.384 220.952 98.368 221.36 99.04C225.848 97.264 229.016 95.008 231.464 92.224L228.32 91.552ZM227.024 106.672C228.512 107.536 230.384 108.88 231.224 109.792L233.456 108.016C232.496 107.08 230.576 105.856 229.112 105.064L227.024 106.672ZM237.608 102.184V102.592C235.376 108.256 228.872 110.776 221.264 111.568C221.744 112.216 222.272 113.392 222.488 114.184C230.744 113.032 237.68 110.2 240.608 103.048L238.688 102.064L238.184 102.184H237.608ZM230.552 102.184V104.584H238.376V102.184H230.552ZM232.232 99.856C230.384 102.136 226.952 104.44 221.936 105.952C222.536 106.456 223.352 107.512 223.688 108.184C228.992 106.264 232.688 103.72 235.376 100.576L232.232 99.856ZM250.688 95.656V98.464H264.128V95.656H250.688ZM252.104 99.808C252.728 103.048 253.352 107.272 253.52 109.768L256.352 108.952C256.112 106.528 255.416 102.4 254.696 99.208L252.104 99.808ZM260.168 99.136C259.808 102.832 258.92 107.8 258.056 110.92L260.552 111.448C261.464 108.4 262.496 103.648 263.192 99.592L260.168 99.136ZM249.824 110.44V113.2H264.944V110.44H249.824ZM255.248 91.96C255.68 93.136 256.184 94.744 256.352 95.752L259.232 94.96C258.968 93.928 258.464 92.44 258.008 91.264L255.248 91.96ZM248.192 91.72C246.968 95.152 244.88 98.56 242.72 100.744C243.2 101.44 243.992 103.024 244.256 103.72C246.872 100.984 249.368 96.664 250.904 92.56L248.192 91.72ZM245.768 98.344V114.136H248.672V95.464V95.44L245.768 98.344ZM267.344 98.08V101.056H288.704V98.08H267.344ZM279.656 99.28L276.752 99.952C278.576 106.552 281.576 111.52 287.072 114.088C287.552 113.248 288.512 112 289.232 111.352C284.144 109.336 281.096 104.776 279.656 99.28ZM276.344 91.624C276.272 98.128 276.704 107.248 266.864 111.64C267.704 112.264 268.592 113.296 269.048 114.088C279.344 109.12 279.392 98.944 279.512 91.624H276.344ZM292.784 95.176V97.6H296.816V100.048H292.784V102.472H299.36V95.176H292.784ZM292.856 104.032V106.456H297.056V109.384H292.856V111.784H299.6V104.032H292.856ZM291.728 95.176V113.32H294.272V95.176H291.728ZM300.008 92.728V95.344H313.088V92.728H300.008ZM294.416 91.6C294.296 92.848 293.912 94.552 293.576 95.776L295.832 96.208C296.384 95.104 297.056 93.448 297.608 91.912L294.416 91.6ZM305.192 93.976V114.136H307.904V93.976H305.192ZM300.824 97.504V110.44H303.44V100.072H311.192V97.504H300.824ZM309.8 97.504V107.848C309.8 108.088 309.728 108.16 309.512 108.16C309.32 108.16 308.72 108.16 308.12 108.136C308.456 108.832 308.792 109.888 308.864 110.608C310.064 110.608 310.928 110.584 311.6 110.152C312.296 109.72 312.464 109.024 312.464 107.896V97.504H309.8ZM317.912 104.176V106.264H334.16V104.176H317.912ZM315.08 107.248V109.432H336.92V107.248H315.08ZM328.52 109.84C330.224 111.16 332.432 113.056 333.416 114.256L336.032 113.08C334.856 111.856 332.6 110.032 330.944 108.808L328.52 109.84ZM318.152 113.992C318.152 113.488 319.712 112.696 319.712 112.696V112.648C321.44 111.76 323.48 110.152 325.112 108.592L322.136 107.632C320.96 109.024 319.256 110.248 318.704 110.608C318.152 110.992 317.696 111.256 317.24 111.328C317.552 112.072 317.984 113.416 318.152 113.992ZM318.152 113.992C319.184 113.632 320.672 113.608 333.344 113.152C333.2 112.648 333.008 111.712 332.96 111.016L319.712 111.352L318.128 112.168L318.152 113.992ZM317.048 92.296V94.336H334.856V92.296H317.048ZM324.536 93.16V103.312H327.344V93.16H324.536ZM315.416 95.152V100.264H317.96V96.952H333.944V100.264H336.608V95.152H315.416ZM317.336 101.824L318.248 104.08C320 103.456 322.064 102.64 324.08 101.872L323.768 100C321.392 100.696 318.968 101.416 317.336 101.824ZM318.344 98.512C319.856 98.992 321.92 99.76 322.952 100.288L323.984 98.536C322.88 98.056 320.816 97.36 319.352 96.952L318.344 98.512ZM332.552 97C331.28 97.576 329.144 98.416 327.728 98.752L328.736 100.336C330.224 100 332.288 99.424 333.8 98.776L332.552 97ZM327.8 101.752C329.72 102.352 332.384 103.336 333.704 103.984L334.568 102.016C333.176 101.416 330.512 100.528 328.664 100.024L327.8 101.752ZM339.152 106.552V108.856H360.848V106.552H339.152ZM344.024 97.144V99.016H358.568V97.144H344.024ZM344.024 100V101.872H358.592V100H344.024ZM349.544 95.392V103.816H352.28V95.392H349.544ZM348.488 105.304V114.112H351.368V105.304H348.488ZM344.216 91.576C343.112 93.664 341.168 96.136 338.504 98.032C339.128 98.44 340.064 99.328 340.52 99.952C343.424 97.624 345.536 94.888 347.144 92.152L344.216 91.576ZM348.92 92.224C349.4 93.208 349.904 94.528 350.096 95.344L352.952 94.48C352.736 93.664 352.16 92.416 351.632 91.456L348.92 92.224ZM342.776 102.904V105.088H360.224V102.904H342.776ZM344.672 93.928H343.304L341.816 95.416V105.736H344.672V96.16H359.648V93.928H344.672ZM345.56 109.288C344.096 110.2 341.216 110.992 338.744 111.328C339.344 111.856 340.136 112.864 340.52 113.512C343.064 112.96 346.016 111.664 347.72 110.296L345.56 109.288ZM352.208 110.752C354.416 111.568 357.56 112.816 359.072 113.584L360.872 111.664C359.192 110.92 356.024 109.768 353.888 109.072L352.208 110.752ZM371.96 108.16C374.936 107.272 376.712 105.064 376.712 102.352C376.712 100.336 375.8 99.04 374.12 99.04C372.824 99.04 371.744 99.856 371.744 101.2C371.744 102.568 372.848 103.36 374.048 103.36C374.576 103.36 375.08 103.192 375.464 102.832L374.144 100.672L374.312 103.024C374.312 104.416 373.208 105.592 371.192 106.216L371.96 108.16ZM388.856 93.928V96.856H407.144V93.928H388.856ZM390.512 101.656V104.56H405.224V101.656H390.512ZM387.488 109.768V112.72H408.416V109.768H387.488ZM411.56 92.56V114.088H414.08V95.128H417.104V92.56H411.56ZM416.408 92.56V93.352C416 94.864 415.184 98.032 414.416 100.096C415.928 101.8 416.312 103.36 416.312 104.536C416.312 105.232 416.168 105.76 415.88 105.976C415.688 106.096 415.472 106.144 415.208 106.168C414.944 106.192 414.584 106.168 414.2 106.12C414.584 106.84 414.776 107.92 414.8 108.616C415.352 108.616 415.904 108.592 416.336 108.544C416.888 108.472 417.32 108.304 417.728 108.016C418.496 107.464 418.832 106.432 418.832 104.872C418.832 103.432 418.496 101.704 416.912 99.808C417.656 98.008 418.496 95.584 419.168 93.544L417.296 92.464L416.888 92.56H416.408ZM420.92 94.504V96.904H425.168V94.504H420.92ZM425.864 91.696V99.208C425.864 101.704 426.392 102.496 428.648 102.496C429.08 102.496 430.16 102.496 430.616 102.496C432.368 102.496 433.064 101.656 433.304 98.776C432.56 98.608 431.456 98.152 430.904 97.744C430.832 99.688 430.736 100.048 430.328 100.048C430.112 100.048 429.344 100.048 429.176 100.048C428.744 100.048 428.696 99.952 428.696 99.208V91.696H425.864ZM424.016 101.896C423.8 102.76 423.344 103.912 422.984 104.752L425.168 105.424C425.72 104.704 426.464 103.624 427.184 102.544L424.016 101.896ZM419.864 103.864V114.184H422.744V106.096H428.864V114.088H431.864V103.864H419.864ZM421.376 107.56V109.648H430.304V107.56H421.376ZM421.376 111.184V113.416H430.28V111.184H421.376ZM419.36 103.024C419.912 102.664 420.752 102.376 425.456 101.224C425.288 100.672 425.12 99.688 425.096 98.968L420.2 100L419.144 100.816L419.36 103.024ZM419.36 103.024C419.36 102.16 422.192 101.248 422.192 101.248V91.72H419.36V99.136C419.36 100 418.976 100.216 418.52 100.36C418.904 100.984 419.264 102.28 419.36 103.024ZM426.992 94.528V96.928H432.608V94.528H426.992ZM448.208 92.56V94.984H452.264V92.56H448.208ZM444.968 102.4V104.824H453.824V102.4H444.968ZM437.552 97.24V99.736H444.104V97.24H437.552ZM437.552 102.136V104.656H444.032V102.136H437.552ZM448.136 104.632L445.832 105.208C447.608 109.768 450.656 112.816 455.576 114.16C455.96 113.416 456.752 112.264 457.352 111.688C452.744 110.728 449.624 108.184 448.136 104.632ZM434.528 107.704L434.96 110.416C437.624 109.984 441.2 109.432 444.536 108.856L444.392 106.408C440.792 106.912 437.048 107.44 434.528 107.704ZM442.928 91.336C441.344 92.2 438.824 93.28 436.544 93.952C436.856 94.552 437.312 95.536 437.48 96.136C439.928 95.464 442.856 94.552 445.184 93.544L442.928 91.336ZM446.528 92.536V95.512C446.528 97.216 446.24 99.232 443.912 100.696C444.464 101.056 445.544 102.04 445.928 102.544C448.616 100.792 449.168 97.912 449.168 95.584V92.536H446.528ZM453.2 102.4V102.832C452.072 107.8 448.448 110.68 443.408 111.808C443.96 112.384 444.584 113.536 444.872 114.28C450.56 112.672 454.496 109.456 456.008 102.904L454.232 102.328L453.752 102.4H453.2ZM436.472 93.952V113.68H439.232V94.912L436.472 93.952ZM451.52 92.536V98.152C451.52 100.408 451.976 101.344 454.256 101.344C454.592 101.344 455.312 101.344 455.624 101.344C456.128 101.344 456.68 101.32 457.016 101.176C456.92 100.576 456.872 99.64 456.824 98.968C456.512 99.064 455.96 99.112 455.6 99.112C455.36 99.112 454.76 99.112 454.52 99.112C454.232 99.112 454.16 98.872 454.16 98.2V92.536H451.52ZM463.808 107.176C462.68 108.712 460.736 110.344 458.912 111.328C459.632 111.76 460.832 112.696 461.432 113.248C463.184 112.048 465.32 110.08 466.736 108.232L463.808 107.176ZM472.856 108.376C474.704 109.744 477.008 111.712 478.064 112.984L480.608 111.28C479.408 109.96 477.032 108.112 475.208 106.864L472.856 108.376ZM468.632 105.04V111.016C468.632 111.28 468.536 111.352 468.128 111.376C467.696 111.4 466.232 111.4 464.984 111.328C465.416 112.096 465.92 113.32 466.064 114.16C467.816 114.16 469.184 114.112 470.216 113.68C471.296 113.248 471.56 112.504 471.56 111.088V105.04H468.632ZM475.016 91.48C471.32 93.016 465.248 94.288 459.68 95.032C459.992 95.656 460.4 96.736 460.496 97.456C466.184 96.736 472.568 95.56 477.152 93.76L475.016 91.48ZM461.264 107.464C461.264 106.984 463.112 106.36 463.112 106.36V106.264C467.504 104.536 472.184 102.16 476.264 99.064L474.128 97.144C470.432 100.24 465.416 102.904 463.76 103.624C462.272 104.344 461.36 104.704 460.424 104.824C460.712 105.568 461.144 106.936 461.264 107.464ZM461.264 107.464C462.416 107.032 464.048 106.888 477.368 105.832C477.344 105.256 477.344 104.152 477.416 103.408L462.896 104.392L461.168 105.328L461.264 107.464ZM462.296 102.232C462.296 101.752 464 101.032 464 101.032V100.96C466.544 99.928 469.232 98.344 471.536 96.592L469.04 94.984C467.096 96.784 464.408 98.368 463.52 98.8C462.68 99.232 462.104 99.496 461.48 99.592C461.768 100.336 462.176 101.704 462.296 102.232ZM462.296 102.232C463.088 101.944 464.264 101.824 472.304 101.32C472.328 100.768 472.496 99.736 472.664 99.04L463.688 99.448L462.272 100.264L462.296 102.232ZM473.384 101.848C475.04 103.624 477.056 106.096 478.016 107.584L480.488 106.072C479.456 104.608 477.464 102.352 475.76 100.648L473.384 101.848ZM499.496 98.512C500.72 100.456 502.064 103.048 502.568 104.656L505.112 103.456C504.536 101.8 503.072 99.352 501.824 97.48L499.496 98.512ZM491.768 94.408V97.096H504.872V94.408H491.768ZM498.2 102.256V110.368C498.2 112.888 498.704 113.728 500.888 113.728C501.272 113.728 502.208 113.728 502.64 113.728C504.464 113.728 505.112 112.696 505.352 109C504.608 108.808 503.48 108.352 502.904 107.896C502.856 110.752 502.784 111.208 502.328 111.208C502.136 111.208 501.512 111.208 501.344 111.208C500.96 111.208 500.912 111.112 500.912 110.344V102.256H498.2ZM494.144 102.808C494.024 107.344 493.736 110.248 490.304 112C490.952 112.528 491.744 113.56 492.056 114.28C496.136 112.024 496.688 108.256 496.856 102.808H494.144ZM492.488 104.104C493.304 103.72 494.552 103.552 502.952 102.616C502.832 102.04 502.712 100.96 502.664 100.216L493.832 101.032L492.392 101.92L492.488 104.104ZM492.488 104.104C492.488 103.552 494.408 102.568 494.408 102.568V102.496C496.352 99.904 498.56 96.112 500.096 92.32L496.928 91.528C495.824 95.008 493.88 98.656 493.208 99.592C492.56 100.576 492.104 101.152 491.528 101.32C491.864 102.088 492.344 103.504 492.488 104.104ZM488.36 101.488C489.08 103.048 489.728 105.136 489.92 106.432L491.984 105.568C491.768 104.272 491.048 102.28 490.304 100.744L488.36 101.488ZM486.152 107.776C486.392 109.36 486.608 111.424 486.656 112.792L488.792 112.24C488.72 110.872 488.456 108.856 488.168 107.272L486.152 107.776ZM483.416 107.464C483.296 109.408 483.032 111.568 482.48 112.96C483.032 113.128 484.112 113.464 484.616 113.728C485.072 112.288 485.48 109.984 485.648 107.848L483.416 107.464ZM483.368 101.152C483.368 100.648 484.952 99.808 484.952 99.808V99.736C486.464 97.84 488.096 95.104 489.224 92.512L486.632 91.432C485.792 93.976 484.328 96.64 483.824 97.312C483.344 98.032 482.96 98.488 482.504 98.608C482.792 99.328 483.224 100.6 483.368 101.152ZM483.368 101.152C483.8 100.936 484.544 100.768 488.24 100.408C488.24 99.88 488.36 98.968 488.504 98.32L484.376 98.608L483.32 99.328L483.368 101.152ZM483.536 106.72C483.536 106.216 485.144 105.376 485.144 105.376V105.328C487.52 102.904 489.92 99.544 491.648 96.256L489.296 94.792C487.832 98.152 485.36 101.656 484.544 102.544C483.8 103.456 483.296 103.984 482.672 104.152C482.984 104.872 483.416 106.192 483.536 106.72ZM483.536 106.72C484.112 106.432 484.976 106.168 490.472 105.184C490.424 104.656 490.448 103.696 490.544 103.048L484.472 104.008L483.416 104.776L483.536 106.72ZM488.768 107.224C489.224 108.496 489.704 110.152 489.872 111.232L491.912 110.488C491.672 109.432 491.168 107.824 490.688 106.552L488.768 107.224ZM517.28 92.056V109.336C517.28 112.648 518.12 113.608 521.096 113.608C521.696 113.608 524.48 113.608 525.128 113.608C528.08 113.608 528.776 111.904 529.112 107.272C528.368 107.104 527.216 106.576 526.544 106.072C526.352 110.056 526.136 111.04 524.912 111.04C524.312 111.04 521.936 111.04 521.408 111.04C520.232 111.04 520.064 110.8 520.064 109.384V92.056H517.28ZM512.72 91.72C511.328 95.176 508.952 98.584 506.504 100.72C506.984 101.44 507.752 103.024 508.016 103.72C510.872 101.008 513.68 96.712 515.408 92.632L512.72 91.72ZM510.32 98.224V114.136H513.08V95.536L513.056 95.512L510.32 98.224ZM518.96 98.224V100.96H528.464V98.224H518.96ZM533.84 101.536V103.768H539.768V101.536H533.84ZM531.656 93.808V96.232H539.192V93.808H531.656ZM530.72 97.84V100.312H542.456V97.84H530.72ZM534.368 91.624V99.088H537.032V91.624H534.368ZM540.728 92.2C538.784 97.168 535.088 101.08 530.408 103.312C530.984 103.816 531.968 104.944 532.352 105.496C537.104 102.88 541.064 98.56 543.368 92.992L540.728 92.2ZM535.52 105.448V111.352C535.52 111.616 535.424 111.688 535.112 111.688C534.8 111.688 533.768 111.712 532.832 111.664C533.192 112.36 533.552 113.368 533.648 114.112C535.184 114.112 536.312 114.088 537.152 113.704C538.016 113.32 538.232 112.648 538.232 111.424V105.448H535.52ZM539.048 101.536V101.992C538.352 103.024 536.816 104.56 535.52 105.448C535.928 105.784 536.576 106.48 536.888 106.912C538.544 105.856 540.416 104.152 541.736 102.616L540.152 101.392L539.624 101.536H539.048ZM530.672 107.176L530.96 109.744C534.032 109.456 538.4 109.024 542.456 108.616L542.432 106.168C538.208 106.552 533.672 106.96 530.672 107.176ZM544.448 96.016V98.68H553.256V96.016H544.448ZM544.784 91.6C544.136 95.8 542.888 99.832 540.848 102.256C541.496 102.712 542.672 103.768 543.152 104.296C545.36 101.44 546.872 96.856 547.688 92.056L544.784 91.6ZM548.984 97.624C548.264 104.728 546.176 109.24 540.704 111.64C541.232 112.264 542.072 113.584 542.36 114.256C548.432 111.232 550.904 106.096 551.936 97.888L548.984 97.624ZM546.032 98.08L543.416 98.488C544.592 105.688 546.68 111.28 551.504 114.16C551.936 113.368 552.848 112.24 553.52 111.664C549.08 109.36 546.992 104.176 546.032 98.08ZM555.08 107.464V109.768H576.848V107.464H555.08ZM559.76 103.36V105.4H570.272V103.36H559.76ZM564.824 106.792V111.376C564.824 111.688 564.728 111.76 564.344 111.76C563.96 111.76 562.52 111.76 561.368 111.712C561.728 112.408 562.136 113.392 562.28 114.136C564.08 114.136 565.4 114.136 566.384 113.776C567.392 113.392 567.656 112.768 567.656 111.472V106.792H564.824ZM569.552 103.36V103.84C568.592 104.752 566.528 106.072 564.824 106.792C565.184 107.128 565.832 107.824 566.12 108.256C568.328 107.344 570.68 106 572.48 104.704L570.848 103.216L570.248 103.36H569.552ZM555.488 100.264V105.208H558.224V102.352H573.704V105.208H576.56V100.264H555.488ZM572.552 92.416C572.456 95.296 572.192 98.944 571.88 101.296H574.64C574.904 99.016 575.144 95.368 575.288 92.416H572.552ZM569.24 92.416V94.216H573.68V92.416H569.24ZM561.728 91.744C560.432 92.176 558.296 92.824 556.856 93.064L557.864 94.648C559.328 94.408 561.416 93.976 562.928 93.4L561.728 91.744ZM558.248 95.032V96.808H562.736V95.032H558.248ZM558.32 97.648V99.424H562.808V97.648H558.32ZM569.384 95.032V96.808H573.44V95.032H569.384ZM569.264 97.648V99.424H573.296V97.648H569.264ZM566.888 91.768C566 92.944 564.392 94.024 562.736 94.744C563.192 95.032 563.912 95.68 564.248 96.016C565.88 95.176 567.68 93.784 568.76 92.296L566.888 91.768ZM563.24 93.04C564.728 93.808 566.576 94.984 567.44 95.824L568.832 94.6C567.872 93.76 566.024 92.632 564.56 91.936L563.24 93.04ZM566.912 95.824C565.976 97.072 564.248 98.224 562.544 98.968C562.952 99.28 563.672 100.024 563.984 100.384C565.736 99.472 567.632 97.984 568.784 96.376L566.912 95.824ZM563.12 97.144C564.704 97.984 566.648 99.28 567.56 100.192L568.976 98.944C567.992 98.032 566 96.808 564.464 96.04L563.12 97.144ZM556.856 93.064L557.336 101.176H560.024L559.592 93.76L556.856 93.064ZM580.472 104.368V106.696H599.48V104.368H580.472ZM579.224 92.752V94.768H590.312V92.752H579.224ZM590.048 107.872V109.984H597.56V107.872H590.048ZM579.032 111.184V113.584H600.992V111.184H579.032ZM588.512 105.28V112.192H591.344V105.28H588.512ZM583.616 91.624V103.84H586.112V91.624H583.616ZM582.584 107.56V112.48H585.32V107.56H582.584ZM582.008 97.288H587.576V98.488H582.008V97.288ZM579.776 95.584V100.168H589.952V95.584H579.776ZM592.928 91.648C592.304 93.904 591.128 96.04 589.568 97.384C590.096 97.84 591.032 98.848 591.416 99.376C593.192 97.72 594.68 95.032 595.496 92.224L592.928 91.648ZM593 94.072L591.872 96.376H600.896V94.072H593ZM596.912 95.08C596.192 98.944 593.768 101.152 589.76 102.28C590.264 102.76 591.08 103.816 591.368 104.344C595.736 102.784 598.472 100.12 599.552 95.32L596.912 95.08ZM593.456 95.392L591.608 96.424C592.76 99.472 595.352 102.928 599.792 104.392C600.104 103.72 600.848 102.664 601.376 102.16C597.008 101.032 594.488 98.104 593.456 95.392ZM583.304 99.4C582.32 100.6 580.448 101.872 578.744 102.496C579.272 102.904 579.992 103.744 580.352 104.32C582.128 103.456 584.048 101.728 585.128 100.12L583.304 99.4ZM585.872 101.248C586.88 101.8 588.08 102.64 588.704 103.24L589.904 101.68C589.28 101.08 588.008 100.312 587.024 99.832L585.872 101.248ZM608 99.376V102.016H620.048V99.376H608ZM607.712 110.416V113.08H620.096V110.416H607.712ZM606.44 104.08V114.112H609.368V106.624H618.92V114.016H621.992V104.08H606.44ZM614.192 91.504C611.648 95.248 607.112 98.2 602.672 99.952C603.488 100.672 604.304 101.776 604.784 102.592C609.344 100.432 613.832 97.072 616.76 92.824L614.192 91.504ZM615.176 93.16L612.728 94.432C616.496 98.488 619.904 100.552 623.528 102.232C623.936 101.32 624.776 100.264 625.496 99.592C621.968 98.32 618.512 96.496 615.176 93.16Z" fill="#252525"/>
<path d="M171.98 58.7C172.48 57.24 172.84 54.92 172.94 53.28L171.58 53.08C171.44 54.68 171.08 56.88 170.58 58.22L171.98 58.7ZM177.78 56.12C177.56 55.16 176.88 53.6 176.26 52.44L175.16 52.9V49.22H173.34V67.56H175.16V53.4C175.7 54.54 176.22 55.9 176.42 56.78L177.78 56.12ZM183.36 61.06C184.74 63.12 186.56 65.88 187.4 67.5L189.1 66.54C188.16 64.94 186.3 62.26 184.92 60.3L183.36 61.06ZM183.3 54.04H185.84V58.2H183.2C183.28 57.44 183.3 56.7 183.3 55.98V54.04ZM187.66 58.2V52.32H183.3V49.22H181.42V52.32H177.74V54.04H181.42V55.98C181.42 56.68 181.4 57.44 181.34 58.2H176.72V59.96H181.08C180.58 62.3 179.28 64.58 175.98 66.22C176.42 66.56 177.04 67.28 177.3 67.66C180.92 65.62 182.4 62.8 182.96 59.96H189.16V58.2H187.66ZM206.22 55.58V57.74H203.36V55.58H206.22ZM198.82 55.58H201.56V57.74H198.82V55.58ZM201.56 54.12H197.12V59.2H200.78C199.66 60.74 197.8 62.14 196.08 62.88C196.48 63.22 197 63.88 197.28 64.3C198.82 63.5 200.4 62.12 201.56 60.58V64.78H203.36V60.64C204.96 61.74 206.6 63.04 207.46 63.98L208.6 62.72C207.58 61.7 205.66 60.3 203.96 59.2H208.02V54.12H203.36V52.72H208.82V51.16H203.36V49.26H201.56V51.16H196.44V52.72H201.56V54.12ZM195.1 52.42C194.72 51.58 194.02 50.26 193.52 49.22L191.9 49.78C192.4 50.84 193.1 52.28 193.44 53.12L195.1 52.42ZM195.22 58.34L194.94 58.4H193.94C194.54 57.02 195.16 55.38 195.68 53.96H190.96V55.64H193.28C192.7 57.18 192.02 58.82 191.48 60H194.3C193.88 61.46 193.22 62.98 192.36 64.02L192.38 64.04C191.8 64.46 191.18 65.1 190.62 65.86L191.84 67.62C192.42 66.46 193.12 65.2 193.58 65.2C194 65.2 194.72 65.84 195.54 66.28C197 67.12 198.72 67.32 201.3 67.32C203.66 67.32 207.36 67.2 208.88 67.1C208.9 66.58 209.22 65.64 209.46 65.14C207.2 65.42 203.78 65.6 201.38 65.6C199.1 65.6 197.24 65.48 195.84 64.68C195.24 64.34 194.82 64.02 194.5 63.84C195.34 62.4 195.98 60.58 196.32 58.8L195.22 58.34ZM218.72 57.64C217.88 57.88 217 58.1 216.16 58.3V54.86H218.82V53.14H216.16V49.26H214.36V53.14H211.34V54.86H214.36V58.78C213.16 59.08 212.08 59.32 211.18 59.52L211.7 61.3L214.36 60.6V65.5C214.36 65.8 214.24 65.88 213.96 65.9C213.72 65.9 212.88 65.9 212 65.88C212.24 66.34 212.48 67.1 212.54 67.56C213.92 67.58 214.8 67.5 215.38 67.24C215.96 66.96 216.16 66.46 216.16 65.5V60.12C217.08 59.86 218.04 59.6 218.96 59.36L218.72 57.64ZM223.48 65.38C222.62 65.38 222.44 65.18 222.44 64.08V49.44H220.6V64.04C220.6 66.4 221.16 67.04 223.28 67.04H226.44C228.48 67.04 228.94 65.86 229.16 62.54C228.66 62.4 227.9 62.04 227.48 61.72C227.36 64.66 227.2 65.38 226.32 65.38H223.48ZM237.96 59.1C237.64 58.54 236.16 56.24 235.62 55.54V54.72H237.86V53H235.62V49.24H233.94V53H231V54.72H233.78C233.2 57.3 232 60.3 230.72 61.88C231.04 62.36 231.48 63.2 231.66 63.72C232.5 62.52 233.32 60.66 233.94 58.66V67.56H235.62V57.84C236.1 58.76 236.58 59.76 236.84 60.38L237.96 59.1ZM240.42 55.24H245.76V57.32H240.42V55.24ZM245.76 51.7V53.72H240.42V51.7H245.76ZM247.48 59.4C246.8 60.06 245.68 60.92 244.74 61.56C244.32 60.76 243.96 59.88 243.68 58.94H247.56V50.08H238.62V64.7C238.62 65.52 238.24 65.88 237.9 66.08C238.18 66.4 238.58 67.18 238.7 67.6C239.1 67.32 239.78 67.08 243.78 66.04C243.72 65.64 243.68 64.9 243.7 64.4L240.42 65.18V58.94H242.06C243.08 62.88 244.88 65.92 248.04 67.44C248.3 66.96 248.88 66.22 249.28 65.86C247.76 65.24 246.52 64.2 245.56 62.88C246.56 62.28 247.76 61.44 248.72 60.68L247.48 59.4ZM262.3 51.8C261.98 51.52 261.56 51.22 261.08 50.92C261.48 50.54 261.82 50.14 262.12 49.74L260.86 49.4C260.64 49.68 260.36 50 260.02 50.28C259.58 50.02 259.1 49.78 258.68 49.58L257.78 50.36C258.2 50.54 258.64 50.78 259.04 51.02C258.54 51.38 257.96 51.7 257.4 51.94C257.72 52.14 258.2 52.6 258.42 52.8C258.98 52.52 259.58 52.12 260.14 51.7C260.64 52.02 261.08 52.34 261.38 52.64L262.3 51.8ZM254.72 55.4H257.24C257.52 55.6 257.98 56.06 258.18 56.32H254.76L254.72 55.4ZM253.26 57.72H266.72V60.14H268.56V56.32H267.04C267.2 54.52 267.38 51.96 267.48 49.94H262.72V51.16H265.66L265.62 52.06H262.82V53.26H265.54L265.46 54.18H262.72V55.4H265.38C265.34 55.72 265.3 56.02 265.28 56.32H258.3C258.88 55.98 259.52 55.6 260.1 55.14C260.66 55.52 261.12 55.88 261.44 56.2L262.38 55.34C262.04 55.02 261.6 54.68 261.06 54.32C261.48 53.92 261.84 53.52 262.16 53.1L260.9 52.7C260.66 53.04 260.36 53.36 260 53.68C259.54 53.4 259.04 53.14 258.6 52.92L257.7 53.7C258.12 53.9 258.58 54.16 259 54.42C258.48 54.78 257.88 55.1 257.32 55.36V54.18H254.62L254.56 53.26H257.24V52.06H254.5L254.44 51.26C255.44 51.08 256.52 50.8 257.38 50.48L256.58 49.38C255.54 49.7 253.82 50.2 252.66 50.4L253.02 56.32H251.5V60.14H253.26V57.72ZM268.9 62.28H261.12V62.12C262.64 61.46 264.2 60.6 265.36 59.7L264.3 58.74L263.9 58.84H254.84V60.2H262C261.16 60.72 260.18 61.2 259.3 61.56V62.28H251.1V63.8H259.3V65.66C259.3 65.92 259.2 66 258.88 66C258.58 66 257.42 66 256.32 65.96C256.56 66.4 256.82 67.06 256.92 67.54C258.48 67.54 259.5 67.54 260.22 67.28C260.92 67.04 261.12 66.6 261.12 65.72V63.8H268.9V62.28ZM277.14 61.74C276.46 61.98 275.74 62.2 275.06 62.42V57.9H276.96V56.18H275.06V52.2H277.28V50.48H270.92V52.2H273.28V56.18H271.12V57.9H273.28V62.98C272.32 63.28 271.44 63.52 270.72 63.72L271.16 65.62C272.96 65.04 275.28 64.26 277.46 63.5L277.14 61.74ZM279.84 55.34H282.46V57.54H279.84V55.34ZM279.84 51.7H282.46V53.86H279.84V51.7ZM286.6 53.86H284.04V51.7H286.6V53.86ZM286.6 57.54H284.04V55.34H286.6V57.54ZM284.2 65.24V62.86H288.64V61.18H284.2V59.12H288.38V50.12H278.14V59.12H282.3V61.18H277.96V62.86H282.3V65.24H276.5V66.94H289.28V65.24H284.2ZM297.06 52.56H293.98L295.46 51.74C295.14 51.02 294.52 49.96 293.94 49.12L292.5 49.86C293.04 50.68 293.64 51.82 293.94 52.56H290.86V54.04H297.06V52.56ZM296.52 55.22H291.56V56.68H296.52V55.22ZM291.56 59.3H296.52V57.88H291.56V59.3ZM295.1 62.06V64.92H292.96V62.06H295.1ZM296.62 60.56H291.44V67.32H292.96V66.42H296.62V60.56ZM304.96 61.68V59.3H306.48V61.68H304.96ZM302.2 61.68V59.3H303.64V61.68H302.2ZM299.46 61.68V59.3H300.88V61.68H299.46ZM308 57.76H297.94V67.64H299.46V63.22H300.88V67.08H302.2V63.22H303.64V67.08H304.96V63.22H306.48V65.72C306.48 65.88 306.44 65.94 306.28 65.94C306.14 65.94 305.74 65.94 305.32 65.92C305.52 66.34 305.68 67.02 305.72 67.46C306.5 67.46 307.06 67.44 307.5 67.16C307.9 66.92 308 66.46 308 65.74V57.76ZM300.42 54.72C301.34 53.94 302.18 53.04 302.9 52.12C303.56 53.08 304.36 53.96 305.24 54.72H300.42ZM302.84 49.14C301.54 51.5 298.92 53.94 296.46 55.08C296.86 55.5 297.32 56.26 297.56 56.8C298.24 56.42 298.9 55.94 299.56 55.44V56.3H306.26V55.52C306.86 55.92 307.46 56.28 308.08 56.56C308.38 56.02 308.96 55.26 309.38 54.88C307.24 54.12 305.12 52.44 303.9 50.72C304.04 50.5 304.16 50.32 304.28 50.1L302.84 49.14ZM318.34 62.48C320.62 61.74 322.02 60.02 322.02 57.8C322.02 56.28 321.36 55.3 320.1 55.3C319.18 55.3 318.4 55.88 318.4 56.9C318.4 57.94 319.18 58.5 320.08 58.5C320.18 58.5 320.28 58.5 320.36 58.48C320.26 59.68 319.36 60.6 317.82 61.18L318.34 62.48ZM344.46 51.7H346.04V54.82C346.04 56.2 346.32 56.76 347.66 56.76H348.72C349.06 56.76 349.44 56.74 349.68 56.66C349.62 56.32 349.6 55.78 349.56 55.4C349.34 55.48 348.94 55.5 348.7 55.5H347.82C347.56 55.5 347.54 55.36 347.54 54.86V50.16H343V52.9C343 54.14 342.86 55.64 341.64 56.78C341.98 56.94 342.6 57.38 342.86 57.64C344.2 56.4 344.46 54.46 344.46 52.94V51.7ZM335.18 64.4V59.28H337.52V57.7H335.18V55.8H336.92V54.24H332.72C333.3 53.52 333.88 52.72 334.4 51.86C335.5 52.68 336.62 53.7 337.3 54.48L338.04 52.92C337.38 52.2 336.26 51.28 335.14 50.52C335.26 50.24 335.38 49.98 335.5 49.74L334.22 49.1C333.38 50.98 331.96 52.76 330.58 53.9C330.8 54.36 331.16 55.4 331.26 55.78C331.54 55.5 331.86 55.22 332.16 54.9V55.8H333.72V57.7H331.18V59.28H333.72V64.7C332.66 64.92 331.7 65.14 330.94 65.28L331.26 66.94C332.98 66.54 335.28 65.96 337.44 65.42L337.36 63.92L335.18 64.4ZM331.4 60.48C331.68 61.62 331.96 63.12 332.04 64.1L333.22 63.7C333.12 62.76 332.82 61.28 332.52 60.18L331.4 60.48ZM336.46 63.86C336.76 62.98 337.1 61.58 337.44 60.38L336.16 59.98C336.02 61.02 335.68 62.52 335.42 63.48L336.46 63.86ZM342.48 61.76C341.6 61.94 340.74 62.12 339.92 62.26V59.74H342.18V58.12H339.92V55.82H342.18V54.18H339.92V52.1C340.84 51.6 341.78 51.02 342.54 50.42L341.1 49.2C340.44 49.92 339.34 50.76 338.3 51.34V62.56L337.24 62.76L337.58 64.42L338.3 64.24V67.52H339.92V63.9C340.8 63.68 341.72 63.48 342.64 63.26L342.48 61.76ZM346.88 59.52C346.54 60.66 346.12 61.66 345.56 62.5C345.04 61.6 344.62 60.6 344.34 59.52H346.88ZM347.82 57.94L347.5 57.98H342.68V59.52H343.7L342.78 59.74C343.2 61.28 343.76 62.68 344.48 63.88C343.5 64.9 342.3 65.68 340.96 66.2C341.28 66.5 341.82 67.18 342.04 67.6C343.32 67.02 344.46 66.26 345.46 65.24C346.28 66.2 347.26 66.98 348.4 67.56C348.66 67.12 349.18 66.48 349.54 66.16C348.36 65.66 347.36 64.9 346.56 63.92C347.6 62.46 348.38 60.6 348.84 58.32L347.82 57.94ZM365.38 59.1C365.74 58.4 366.16 57.36 366.52 56.42L365.44 56.08C365.24 56.86 364.84 58.08 364.52 58.8L365.38 59.1ZM360.82 56.42C361.18 57.22 361.54 58.32 361.64 59.04L362.62 58.74C362.5 58.04 362.14 56.98 361.72 56.18L360.82 56.42ZM360.32 55.72H362.82V59.42H360.32V55.72ZM366.92 59.42H364.26V55.72H366.92V59.42ZM368.44 60.9V54.24H364.36V52.84H368.82V51.24H364.36V49.26H362.68V51.24H358.56V52.84H362.68V54.24H358.86V60.9H361.72C360.8 62.44 359.38 63.94 357.98 64.86L357.92 63.92L355.42 64.42V59.28H357.9V57.7H355.42V55.8H357.3V54.24H352.94C353.58 53.52 354.22 52.72 354.76 51.86C355.9 52.66 357.04 53.64 357.76 54.4L358.54 52.86C357.86 52.18 356.72 51.28 355.54 50.54C355.7 50.26 355.84 50 355.94 49.74L354.6 49.1C353.7 50.98 352.14 52.76 350.64 53.9C350.88 54.36 351.24 55.36 351.36 55.78C351.66 55.52 351.98 55.24 352.3 54.92V55.8H353.94V57.7H351.22V59.28H353.94V64.72C352.8 64.94 351.78 65.14 350.98 65.28L351.36 66.94C353.12 66.56 355.48 66 357.74 65.48C358.04 65.84 358.38 66.3 358.56 66.64C360.04 65.66 361.58 64 362.68 62.3V67.6H364.36V61.98C365.46 63.74 366.94 65.52 368.24 66.6C368.52 66.16 369.06 65.54 369.46 65.2C368.1 64.24 366.5 62.54 365.42 60.9H368.44ZM351.5 60.5C351.8 61.64 352.1 63.12 352.18 64.1L353.4 63.72C353.3 62.78 352.98 61.32 352.64 60.18L351.5 60.5ZM356.82 63.84C357.14 62.96 357.52 61.56 357.88 60.36L356.58 59.98C356.4 61.02 356.04 62.52 355.78 63.48L356.82 63.84ZM373.34 52.38H386.62V54.2H388.38V50.9H381.08C380.82 50.32 380.42 49.6 380 49.08L378.4 49.54C378.64 49.94 378.92 50.42 379.14 50.9H371.66V54.2H373.34V52.38ZM375.48 63.04H384.56V63.84H375.48V63.04ZM375.48 61.28H384.56V62.06H375.48V61.28ZM375.48 59.56H384.56V60.32H375.48V59.56ZM386.44 64.86V58.54H373.68V64.86H377.1C375.72 65.46 373.32 66.1 371.38 66.36C371.7 66.72 372.16 67.3 372.38 67.64C374.62 67.3 377.34 66.54 378.98 65.66L377.8 64.86H381.86L381.08 65.72C383.36 66.34 385.72 67.12 387.12 67.66L388.38 66.48C387.02 66.02 384.94 65.38 382.9 64.86H386.44ZM380.58 56.82C380.6 56.54 380.64 56.26 380.68 55.96H383.9L383.82 56.82H380.58ZM375.86 55.96H379.12C379.1 56.26 379.06 56.54 379.02 56.82H375.76L375.86 55.96ZM379.3 54.2L379.24 54.96H376L376.1 54.2H379.3ZM383.98 54.96H380.78L380.86 54.2H384.04L383.98 54.96ZM385.7 54.78L385.86 53.18H374.58L374.38 54.78H371.04V56.14H374.2L373.98 57.82H385.42L385.58 56.14H389.02V54.78H385.7ZM408.96 52.84C408.56 51.92 407.62 50.56 406.74 49.54L405.34 50.28C406.2 51.32 407.1 52.76 407.44 53.7L408.96 52.84ZM399.42 52.64H397.86V51.02H399.42V52.64ZM400.82 49.78H396.52V53.88H400.82V49.78ZM394.26 52.64H392.76V51.02H394.26V52.64ZM395.66 49.78H391.42V53.88H395.66V49.78ZM393.14 58.94H395.26V60.34H393.14V58.94ZM393.14 56.22H395.26V57.58H393.14V56.22ZM399.02 57.58H396.84V56.22H399.02V57.58ZM399.02 60.34H396.84V58.94H399.02V60.34ZM401.24 64.62V62.98H396.94V61.74H400.64V54.8H391.6V61.74H395.16V62.98H390.78V64.62H395.16V67.58H396.94V64.62H401.24ZM407.24 56.68C406.78 58.1 406.14 59.48 405.34 60.76C405.1 59.5 404.9 58.02 404.74 56.38L409.3 55.82L409.08 54.1L404.6 54.64C404.48 52.98 404.4 51.18 404.38 49.34H402.6C402.66 51.28 402.74 53.14 402.86 54.86L400.86 55.1L401.08 56.84L403 56.6C403.22 58.96 403.52 61.02 403.92 62.7C402.7 64.14 401.26 65.32 399.66 66.08C400.16 66.4 400.7 66.96 401.02 67.38C402.26 66.7 403.44 65.74 404.48 64.6C405.18 66.48 406.12 67.56 407.38 67.62C408.22 67.64 409.08 66.8 409.52 63.52C409.22 63.38 408.46 62.9 408.16 62.5C408.02 64.38 407.76 65.42 407.4 65.4C406.8 65.36 406.28 64.46 405.84 62.96C407.04 61.28 408 59.4 408.64 57.48L407.24 56.68ZM428.88 50.16H418.3V51.82H428.88V50.16ZM428.84 59.18C428.38 58.32 427.44 57 426.52 55.92C427.18 54.96 427.94 53.76 428.54 52.74L426.92 52.32C426.44 53.3 425.56 54.76 424.72 55.96C425.86 57.3 426.88 58.84 427.36 59.88L428.84 59.18ZM423.52 52.34C423.06 53.3 422.2 54.76 421.38 55.94C422.46 57.28 423.4 58.78 423.86 59.82L425.34 59.16C424.92 58.3 424.02 56.98 423.16 55.9C423.82 54.96 424.56 53.76 425.12 52.74L423.52 52.34ZM421.94 59.24C421.5 58.38 420.66 57.02 419.8 55.92C420.44 54.96 421.2 53.74 421.74 52.72L420.14 52.32C419.68 53.3 418.86 54.76 418.06 55.96C419.08 57.32 420 58.84 420.42 59.88L421.94 59.24ZM418.28 60.84C418.06 59.82 417.52 58.08 417 56.78L415.62 57.16C415.84 57.72 416.04 58.34 416.22 58.94L413.54 59.28C415.08 57.5 416.6 55.28 417.8 53.1L416.24 52.18C415.84 53.06 415.34 53.96 414.84 54.78L413.08 54.92C414.14 53.44 415.2 51.62 416 49.86L414.34 49.18C413.6 51.32 412.26 53.56 411.84 54.14C411.42 54.74 411.1 55.14 410.74 55.22C410.94 55.68 411.18 56.48 411.28 56.82C411.56 56.7 412.02 56.58 413.8 56.36C413.18 57.32 412.62 58.04 412.34 58.36C411.74 59.08 411.3 59.56 410.86 59.66C411.06 60.12 411.32 60.98 411.42 61.34C411.82 61.12 412.48 60.96 416.6 60.36C416.68 60.74 416.76 61.06 416.8 61.36L418.28 60.84ZM411.66 62.08C411.5 63.74 411.22 65.58 410.76 66.78C411.16 66.9 411.9 67.14 412.22 67.34C412.66 66.08 413 64.14 413.2 62.34L411.66 62.08ZM413.78 62.32C414 63.64 414.22 65.36 414.26 66.5L415.72 66.2C415.66 65.08 415.42 63.38 415.18 62.06L413.78 62.32ZM415.78 61.9C416.14 62.94 416.54 64.3 416.7 65.18L418.04 64.72C417.86 63.84 417.44 62.52 417.06 61.5L415.78 61.9ZM424.42 65.42V62.06H428.3V60.4H418.76V62.06H422.56V65.42H417.76V67.12H429.1V65.42H424.42ZM431.76 66.26C432.1 65.1 432.38 63.18 432.54 61.86L431.54 61.54C431.4 62.84 431.08 64.72 430.68 65.86L431.76 66.26ZM432.84 61.94C432.94 63.06 433.02 64.56 433.02 65.54L433.92 65.44C433.9 64.46 433.82 63 433.68 61.84L432.84 61.94ZM434.02 61.74C434.28 62.78 434.56 64.1 434.68 65L435.52 64.82C435.4 63.96 435.1 62.62 434.84 61.6L434.02 61.74ZM433.2 57.56H434.72V59.14H433.2V57.56ZM434.72 51.6V53.2H433.2V51.6H434.72ZM434.72 56.12H433.2V54.62H434.72V56.12ZM441.44 53.64C442.26 52.96 443.04 52.2 443.72 51.38C444.48 52.16 445.38 52.96 446.32 53.64H441.44ZM438.54 59.14H436.18V57.56H438.16V56.12H436.18V54.62H438.12V54.04C438.46 54.34 438.98 54.86 439.22 55.18C439.76 54.86 440.28 54.5 440.8 54.14V55.08H446.7V53.92C447.3 54.36 447.94 54.74 448.52 55.06C448.66 54.6 449 53.82 449.26 53.4C447.68 52.7 445.82 51.42 444.6 50.2C444.76 50 444.88 49.78 445 49.56L443.3 49.02C442.28 50.82 440.3 52.72 438.12 53.96V53.2H436.18V51.6H438.46V50.08H431.74V60.68H437.04C437 61.94 436.96 62.94 436.92 63.68C436.72 63.02 436.3 62 435.92 61.22L435.2 61.46C435.56 62.28 435.98 63.38 436.18 64.08L436.92 63.78C436.82 65.12 436.72 65.72 436.58 65.94C436.46 66.12 436.32 66.16 436.08 66.16C435.86 66.16 435.38 66.16 434.82 66.08C435.04 66.48 435.18 67.08 435.22 67.52C435.82 67.54 436.44 67.54 436.8 67.48C437.28 67.42 437.56 67.28 437.84 66.9C438.26 66.34 438.4 64.6 438.54 59.78V59.14ZM445.4 57.66H447.02V59.88H445.4V57.66ZM444.12 61.12H448.36V56.42H444.12V61.12ZM440.5 57.66H442V59.88H440.5V57.66ZM439.24 61.12H443.32V56.42H439.24V61.12ZM440.64 61.62C440.22 63.62 439.38 65.42 438.1 66.52C438.46 66.78 439.08 67.32 439.34 67.58C440.06 66.88 440.72 65.94 441.22 64.88C441.86 65.36 442.54 65.9 442.88 66.32L443.84 65.1C443.4 64.6 442.56 63.98 441.78 63.5C441.94 62.98 442.1 62.48 442.22 61.92L440.64 61.62ZM445.54 61.54C445.18 63.58 444.4 65.4 443.14 66.52C443.54 66.78 444.22 67.3 444.5 67.58C445.06 67.02 445.58 66.32 445.98 65.52C446.76 66.12 447.56 66.78 447.98 67.3L449.1 66.02C448.56 65.46 447.54 64.66 446.62 64.02C446.86 63.34 447.06 62.6 447.2 61.8L445.54 61.54ZM458.34 62.48C460.62 61.74 462.02 60.02 462.02 57.8C462.02 56.28 461.36 55.3 460.1 55.3C459.18 55.3 458.4 55.88 458.4 56.9C458.4 57.94 459.18 58.5 460.08 58.5C460.18 58.5 460.28 58.5 460.36 58.48C460.26 59.68 459.36 60.6 457.82 61.18L458.34 62.48ZM480.26 58.9V57.14H476.72C476.72 56.94 476.72 56.74 476.72 56.56V53.56H479.7V51.82H474.24C474.44 51.1 474.62 50.34 474.78 49.58L473 49.24C472.54 51.58 471.76 53.92 470.62 55.38C471.06 55.64 471.8 56.14 472.14 56.46C472.68 55.66 473.2 54.66 473.62 53.56H474.84V56.54V57.14H470.92V58.9H474.72C474.42 61.4 473.5 64.12 470.68 66.12C471.06 66.4 471.74 67.14 472 67.54C474.12 66 475.3 64 475.96 61.94C477.02 63.16 478.36 64.88 479.02 65.88L480.3 64.28C479.72 63.62 477.42 61.02 476.42 60.04C476.5 59.66 476.54 59.28 476.6 58.9H480.26ZM482.64 63.76V52.7H486.28V63.76H482.64ZM480.84 50.94V67H482.64V65.5H486.28V66.78H488.16V50.94H480.84ZM496.84 64.9V60.7H505.08V64.9H496.84ZM504.12 52.88C503.04 54.4 501.56 55.7 499.86 56.8C498.92 55.9 497.38 54.7 496.12 53.8C496.48 53.5 496.84 53.2 497.2 52.88H504.12ZM507 59.02H499.74C502.8 57.26 505.4 54.88 506.92 51.84L505.64 51.08L505.34 51.18H498.84C499.28 50.66 499.68 50.12 500.06 49.58L497.94 49.14C496.76 51.02 494.52 53.14 491.3 54.6C491.72 54.92 492.32 55.62 492.58 56.08C493.32 55.7 494 55.3 494.64 54.88C495.84 55.78 497.24 56.92 498.14 57.82C495.88 59 493.36 59.86 490.88 60.36C491.22 60.78 491.64 61.56 491.84 62.08C492.88 61.82 493.94 61.52 494.98 61.18V67.56H496.84V66.6H505.08V67.56H507V59.02ZM516.94 63.78C515.66 64.6 513.24 65.34 511.22 65.64C511.6 65.98 512.08 66.6 512.34 67C514.4 66.54 516.9 65.5 518.3 64.42L516.94 63.78ZM521.98 64.6C523.8 65.3 526.24 66.36 527.48 66.98L528.72 65.9C527.38 65.26 524.94 64.3 523.18 63.66L521.98 64.6ZM523.04 54.12C522.76 54.64 522.3 55.4 521.92 55.9L522.64 56.12H517.18L518.08 55.88C517.92 55.42 517.54 54.68 517.14 54.12H523.04ZM520.88 61.38V60.18H527.02V58.78H520.88V57.58H527.96V56.12H523.72C524.12 55.66 524.58 55.12 525.02 54.52L523.46 54.12H528.7V52.64H525.84C526.36 51.9 526.96 50.9 527.5 49.92L525.58 49.42C525.28 50.32 524.66 51.58 524.18 52.38L524.96 52.64H522.78V49.2H521.02V52.64H519.04V49.2H517.3V52.64H515.06L516.12 52.24C515.84 51.46 515.14 50.24 514.52 49.38L512.9 49.94C513.46 50.76 514.06 51.86 514.36 52.64H511.38V54.12H516.48L515.32 54.4C515.66 54.92 516 55.62 516.2 56.12H512.18V57.58H519.06V58.78H513.16V60.18H519.06V61.38H511.3V62.94H519.06V67.58H520.88V62.94H528.76V61.38H520.88ZM536.26 61.08V64.04H533.3V61.08H536.26ZM536.08 56.3H533.3V53.76H536.08V56.3ZM533.3 57.88H537.74V52.18H534.96C535.34 51.36 535.72 50.36 536.06 49.44L534.02 49.2C533.88 50.08 533.6 51.24 533.3 52.18H531.64V66.94H533.3V65.62H537.92V59.48H533.3V57.88ZM549.06 51.9V50.2H538.42V51.9H542.84V54.06H539.12V64.56H540.82V55.72H542.84V67.54H544.58V55.72H546.78V62.74C546.78 62.94 546.72 63 546.52 63C546.34 63.02 545.78 63.02 545.16 63C545.38 63.44 545.58 64.14 545.64 64.6C546.68 64.6 547.36 64.58 547.88 64.32C548.38 64.04 548.5 63.54 548.5 62.76V54.06H544.58V51.9H549.06ZM554.02 59C554.18 58.16 554.34 57.2 554.5 56.28H560.94V50.04H552.24V51.76H559.1V54.54H552.84C552.6 56.54 552.14 59.1 551.76 60.74L553.68 60.72H559.06C558.8 63.7 558.52 65.02 558.08 65.4C557.84 65.58 557.6 65.62 557.18 65.62C556.68 65.62 555.4 65.6 554.12 65.48C554.5 66.04 554.76 66.82 554.8 67.4C556.06 67.48 557.28 67.48 557.92 67.42C558.7 67.36 559.2 67.22 559.68 66.7C560.36 66 560.7 64.16 561.04 59.82C561.08 59.56 561.1 59 561.1 59H554.02ZM565.34 49.48V67.58H567.2V49.48H565.34ZM575.12 52.96H576.9V51.8H579.42V50.38H576.9V49.22H575.12V50.38H571.12V51.8H575.12V52.96ZM575.02 67.46C575.58 66.7 576.1 65.5 576.42 64.58L575.1 64C574.8 64.88 574.26 66.04 573.66 66.72L575.02 67.46ZM577.2 64.5C577.42 65.4 577.58 66.56 577.58 67.3L579.04 67.1C579.02 66.34 578.84 65.2 578.6 64.32L577.2 64.5ZM579.74 64.38C580.18 65.18 580.62 66.24 580.76 66.94L582.14 66.46C581.96 65.78 581.54 64.76 581.06 64L579.74 64.38ZM582.36 64.16C582.86 64.72 583.44 65.5 583.7 66.04L584.94 65.42C584.68 64.9 584.1 64.16 583.54 63.62L582.36 64.16ZM581.34 55.88H578.48V54.86H581.34V55.88ZM585.9 56.98V58.04H582.94V56.98H585.9ZM578.48 56.98H581.34V58.04H578.48V56.98ZM576.9 58.04H574.06V56.98H576.9V58.04ZM576.9 54.86V55.88H574.06V54.86H576.9ZM578.6 52.58C578.8 52.88 579.02 53.2 579.2 53.54H572.34V58.04C572.34 60.56 572.18 64.04 570.64 66.52C571.04 66.7 571.82 67.18 572.14 67.48C573.58 65.14 573.96 61.8 574.04 59.16H575.3V63.58H586.58C586.44 65.16 586.26 65.84 586.06 66.06C585.92 66.22 585.78 66.24 585.5 66.24C585.24 66.24 584.66 66.24 584 66.16C584.2 66.56 584.36 67.14 584.38 67.56C585.18 67.6 585.94 67.6 586.32 67.54C586.82 67.5 587.18 67.38 587.5 67.06C587.92 66.6 588.16 65.52 588.36 62.96C588.38 62.74 588.4 62.32 588.4 62.32H576.94V61.36H588V60.1H576.94V59.16H587.72V55.88H582.94V54.86H588.54V53.54H580.94C580.74 53.06 580.38 52.54 580.02 52.1L578.6 52.58ZM584.92 50.36V49.22H583.12V50.36H580.44V51.8H583.12V52.96H584.92V51.8H588.8V50.36H584.92ZM605.88 59.12V64.6H600.98V57.96H607.16V50.96H605.1V56.16H600.98V49.24H598.92V56.16H594.92V50.96H592.96V57.96H598.92V64.6H594.08V59.12H592V66.46H605.88V67.56H607.94V59.12H605.88ZM616.14 55.16H613.72V49.34H612.06V57.32C612.06 60.3 611.92 64.04 610.78 66.6C611.18 66.84 611.78 67.36 612.08 67.72C613.1 65.74 613.5 63.1 613.64 60.5H616.04V67.56H617.72V58.84H613.7C613.72 58.32 613.72 57.82 613.72 57.32V56.8H617.82V49.78H616.14V55.16ZM626.64 56.9C626.24 58.7 625.62 60.3 624.82 61.7C624 60.28 623.4 58.66 622.96 56.9H626.64ZM627.52 55.14L627.2 55.2H621.36V52.06H628.5V50.38H619.62V57.48C619.62 60.3 619.46 64.1 618.04 66.68C618.5 66.9 619.18 67.38 619.52 67.7C621.14 64.88 621.36 60.76 621.36 57.5V56.9C621.9 59.32 622.7 61.48 623.76 63.26C622.78 64.5 621.62 65.48 620.34 66.12C620.74 66.46 621.24 67.16 621.5 67.64C622.76 66.92 623.86 66 624.84 64.84C625.76 65.94 626.82 66.86 628.08 67.52C628.38 67.04 628.94 66.34 629.36 66C628.02 65.38 626.88 64.46 625.94 63.32C627.26 61.26 628.2 58.68 628.68 55.5L627.52 55.14Z" fill="white"/>
<defs>
<linearGradient id="paint0_linear_47_1370" x1="72.577" y1="70.3636" x2="79.0077" y2="84.5349" gradientUnits="userSpaceOnUse">
<stop stop-color="#FFF176"/>
<stop offset="1" stop-color="#00E0B8"/>
</linearGradient>
<linearGradient id="paint1_linear_47_1370" x1="72.5876" y1="83.2923" x2="79.0183" y2="97.4636" gradientUnits="userSpaceOnUse">
<stop stop-color="#FFF176"/>
<stop offset="1" stop-color="#00E0B8"/>
</linearGradient>
<linearGradient id="paint2_linear_47_1370" x1="49.9257" y1="47.4958" x2="112.776" y2="115.124" gradientUnits="userSpaceOnUse">
<stop stop-color="#FFF176"/>
<stop offset="1" stop-color="#00E0B8"/>
</linearGradient>
<linearGradient id="paint3_linear_47_1370" x1="27.3752" y1="23.0193" x2="135.44" y2="139.328" gradientUnits="userSpaceOnUse">
<stop stop-color="#FFF176"/>
<stop offset="1" stop-color="#00E0B8"/>
</linearGradient>
<linearGradient id="paint4_linear_47_1370" x1="41.1404" y1="35.619" x2="49.5344" y2="44.4722" gradientUnits="userSpaceOnUse">
<stop stop-color="#FFF176"/>
<stop offset="1" stop-color="#00E0B8"/>
</linearGradient>
<linearGradient id="paint5_linear_47_1370" x1="50.5694" y1="29.6454" x2="57.9483" y2="36.0119" gradientUnits="userSpaceOnUse">
<stop stop-color="#FFF176"/>
<stop offset="1" stop-color="#00E0B8"/>
</linearGradient>
<linearGradient id="paint6_linear_47_1370" x1="60.0067" y1="26.1847" x2="66.8562" y2="31.056" gradientUnits="userSpaceOnUse">
<stop stop-color="#FFF176"/>
<stop offset="1" stop-color="#00E0B8"/>
</linearGradient>
<linearGradient id="paint7_linear_47_1370" x1="68.4149" y1="24.0636" x2="73.3187" y2="25.9642" gradientUnits="userSpaceOnUse">
<stop stop-color="#FFF176"/>
<stop offset="1" stop-color="#00E0B8"/>
</linearGradient>
<linearGradient id="paint8_linear_47_1370" x1="75.6195" y1="22.8968" x2="81.7316" y2="26.1289" gradientUnits="userSpaceOnUse">
<stop stop-color="#FFF176"/>
<stop offset="1" stop-color="#00E0B8"/>
</linearGradient>
<linearGradient id="paint9_linear_47_1370" x1="90.0127" y1="23.6309" x2="96.711" y2="27.9673" gradientUnits="userSpaceOnUse">
<stop stop-color="#FFF176"/>
<stop offset="1" stop-color="#00E0B8"/>
</linearGradient>
<linearGradient id="paint10_linear_47_1370" x1="98.4395" y1="26.2268" x2="105.996" y2="31.6301" gradientUnits="userSpaceOnUse">
<stop stop-color="#FFF176"/>
<stop offset="1" stop-color="#00E0B8"/>
</linearGradient>
<linearGradient id="paint11_linear_47_1370" x1="107.139" y1="31.0131" x2="113.941" y2="36.8815" gradientUnits="userSpaceOnUse">
<stop stop-color="#FFF176"/>
<stop offset="1" stop-color="#00E0B8"/>
</linearGradient>
<linearGradient id="paint12_linear_47_1370" x1="113.864" y1="36.1005" x2="120.923" y2="43.2956" gradientUnits="userSpaceOnUse">
<stop stop-color="#FFF176"/>
<stop offset="1" stop-color="#00E0B8"/>
</linearGradient>
<linearGradient id="paint13_linear_47_1370" x1="42.2768" y1="120.723" x2="50.8559" y2="129.401" gradientUnits="userSpaceOnUse">
<stop stop-color="#FFF176"/>
<stop offset="1" stop-color="#00E0B8"/>
</linearGradient>
<linearGradient id="paint14_linear_47_1370" x1="52.4406" y1="126.521" x2="59.7947" y2="132.667" gradientUnits="userSpaceOnUse">
<stop stop-color="#FFF176"/>
<stop offset="1" stop-color="#00E0B8"/>
</linearGradient>
<linearGradient id="paint15_linear_47_1370" x1="60.9517" y1="130.49" x2="67.7625" y2="135.227" gradientUnits="userSpaceOnUse">
<stop stop-color="#FFF176"/>
<stop offset="1" stop-color="#00E0B8"/>
</linearGradient>
<linearGradient id="paint16_linear_47_1370" x1="69.2187" y1="132.36" x2="73.9197" y2="134.078" gradientUnits="userSpaceOnUse">
<stop stop-color="#FFF176"/>
<stop offset="1" stop-color="#00E0B8"/>
</linearGradient>
<linearGradient id="paint17_linear_47_1370" x1="76.1899" y1="133.186" x2="82.2284" y2="136.349" gradientUnits="userSpaceOnUse">
<stop stop-color="#FFF176"/>
<stop offset="1" stop-color="#00E0B8"/>
</linearGradient>
<linearGradient id="paint18_linear_47_1370" x1="90.0025" y1="132.4" x2="96.3436" y2="135.872" gradientUnits="userSpaceOnUse">
<stop stop-color="#FFF176"/>
<stop offset="1" stop-color="#00E0B8"/>
</linearGradient>
<linearGradient id="paint19_linear_47_1370" x1="98.4242" y1="129.989" x2="105.813" y2="136.104" gradientUnits="userSpaceOnUse">
<stop stop-color="#FFF176"/>
<stop offset="1" stop-color="#00E0B8"/>
</linearGradient>
<linearGradient id="paint20_linear_47_1370" x1="106.857" y1="126.158" x2="113.655" y2="131.89" gradientUnits="userSpaceOnUse">
<stop stop-color="#FFF176"/>
<stop offset="1" stop-color="#00E0B8"/>
</linearGradient>
<linearGradient id="paint21_linear_47_1370" x1="113.593" y1="121.234" x2="120.743" y2="128.305" gradientUnits="userSpaceOnUse">
<stop stop-color="#FFF176"/>
<stop offset="1" stop-color="#00E0B8"/>
</linearGradient>
</defs>
</svg>
