<svg width="207" height="102" viewBox="0 0 207 102" fill="none" xmlns="http://www.w3.org/2000/svg">
<path opacity="0.8" d="M5.208 42.52V43.36H10.692V42.52H5.208ZM5.22 44.536V45.328H9.384V44.536H5.22ZM5.508 46.396V51.004H6.3V46.396H5.508ZM5.964 46.396V47.176H8.124V49.396H5.964V50.176H8.94V46.396H5.964ZM10.248 42.52V51.748C10.248 51.964 10.176 52.036 9.948 52.036C9.72 52.048 8.916 52.06 8.1 52.024C8.232 52.288 8.364 52.708 8.412 52.96C9.492 52.96 10.188 52.948 10.596 52.792C10.992 52.636 11.124 52.348 11.124 51.76V42.52H10.248ZM1.02 45.556V46.276H4.536V45.556H1.02ZM1.056 42.352V43.072H4.488V42.352H1.056ZM1.02 47.164V47.884H4.536V47.164H1.02ZM0.456 43.924V44.668H4.872V43.924H0.456ZM1.416 48.784V49.528H3.744V51.532H1.416V52.288H4.536V48.784H1.416ZM1.008 48.784V52.84H1.788V48.784H1.008ZM13.74 51.316V52.204H22.284V51.316H13.74ZM13.728 47.812V48.664H22.404V47.812H13.728ZM13.176 44.32V52.972H14.028V45.196H21.984V52.912H22.872V44.32H13.176ZM16.056 42.052V51.904H16.932V42.052H16.056ZM18.96 42.052V51.856H19.848V42.052H18.96ZM30.24 41.44H29.748V53.44H30.24V41.44ZM40.8246 45.7V46.54H45.3126V45.7H40.8246ZM40.3926 43.144V51.424H41.2326V43.444L40.3926 43.144ZM39.3966 51.208L39.5646 52.132C41.1246 51.868 43.3926 51.496 45.5046 51.124L45.4566 50.26C43.2366 50.62 40.8966 51.004 39.3966 51.208ZM44.2686 41.932C43.4166 42.448 41.9166 43.012 40.5966 43.396C40.7166 43.576 40.8606 43.888 40.9086 44.092C42.3126 43.708 43.9206 43.168 45.0366 42.58L44.2686 41.932ZM43.1766 46.06V51.1L43.9926 50.992V46.06H43.1766ZM45.8166 42.688V53.008H46.6926V43.54H49.6566V42.688H45.8166ZM49.4286 42.688V42.988C49.0086 43.948 48.3006 45.592 47.6286 46.804C48.9606 47.848 49.3686 48.736 49.3686 49.492C49.3686 49.924 49.2726 50.26 48.9966 50.416C48.8286 50.512 48.6246 50.548 48.4206 50.56C48.1446 50.572 47.7726 50.572 47.3886 50.536C47.5446 50.8 47.6406 51.196 47.6526 51.448C48.0246 51.472 48.4566 51.472 48.7926 51.436C49.1286 51.4 49.4046 51.304 49.6326 51.172C50.0886 50.872 50.2806 50.32 50.2686 49.576C50.2686 48.724 49.9446 47.776 48.6126 46.672C49.2126 45.592 49.8966 44.236 50.4246 43.084L49.7526 42.652L49.6086 42.688H49.4286ZM54.1086 43.216H59.9646V44.104H54.1086V43.216ZM53.2446 42.616V44.704H60.8646V42.616H53.2446ZM56.5206 41.92V45.652H57.4086V41.92H56.5206ZM51.6246 45.352V46.06H62.3286V45.352H51.6246ZM54.0246 48.532H60.0606V49.276H54.0246V48.532ZM54.0246 49.84H60.0606V50.596H54.0246V49.84ZM54.0246 47.236H60.0606V47.968H54.0246V47.236ZM53.1486 46.648V51.172H60.9606V46.648H53.1486ZM57.9486 51.772C59.2566 52.156 60.5526 52.624 61.3086 52.972L62.3406 52.516C61.4646 52.156 60.0126 51.676 58.6926 51.316L57.9486 51.772ZM55.1766 51.292C54.3126 51.724 52.8606 52.096 51.6126 52.336C51.8166 52.492 52.1286 52.828 52.2726 53.008C53.4726 52.708 55.0086 52.192 55.9806 51.652L55.1766 51.292ZM67.4166 46.912V47.68H74.5086V46.912H67.4166ZM68.5926 48.532V49.252H73.6686V48.532H68.5926ZM69.2166 47.128C68.7006 48.268 67.7646 49.3 66.7566 49.972C66.9366 50.092 67.2246 50.368 67.3566 50.512C68.3526 49.756 69.3726 48.604 69.9606 47.332L69.2166 47.128ZM70.0446 48.652C69.4086 50.056 68.2686 51.292 66.9966 52.072C67.1766 52.192 67.4646 52.48 67.5846 52.612C68.8446 51.76 70.0566 50.416 70.7766 48.856L70.0446 48.652ZM71.8086 48.7C71.3526 50.248 70.4766 51.616 69.3726 52.48C69.5646 52.6 69.8766 52.84 70.0086 52.972C71.1006 52.024 72.0366 50.56 72.5646 48.868L71.8086 48.7ZM73.2846 48.532V48.664C73.1526 50.992 73.0086 51.868 72.7806 52.096C72.6846 52.204 72.5766 52.216 72.4086 52.216C72.2166 52.216 71.7606 52.216 71.2566 52.168C71.3766 52.372 71.4606 52.708 71.4726 52.936C71.9886 52.96 72.4926 52.96 72.7686 52.936C73.0686 52.924 73.2726 52.84 73.4646 52.636C73.7646 52.288 73.9326 51.352 74.0766 48.892C74.0886 48.772 74.1006 48.532 74.1006 48.532H73.2846ZM69.0366 44.536H72.7926V45.484H69.0366V44.536ZM69.0366 42.964H72.7926V43.9H69.0366V42.964ZM68.2086 42.304V46.144H73.6326V42.304H68.2086ZM63.3006 48.304L63.5046 49.192C64.5726 48.868 65.9526 48.436 67.2606 48.028L67.1526 47.224C65.7366 47.632 64.2726 48.064 63.3006 48.304ZM63.5046 44.344V45.184H67.2006V44.344H63.5046ZM65.1366 41.932V51.868C65.1366 52.048 65.0646 52.096 64.9086 52.096C64.7646 52.108 64.2606 52.108 63.7206 52.084C63.8406 52.336 63.9606 52.732 63.9966 52.96C64.7766 52.96 65.2686 52.936 65.5806 52.78C65.8926 52.636 66.0006 52.384 66.0006 51.868V41.932H65.1366ZM85.4897 42.748V43.588H92.4857V42.748H85.4897ZM90.5897 43.168V51.832C90.5897 52.072 90.4937 52.144 90.2417 52.156C89.9777 52.168 89.0897 52.168 88.1417 52.144C88.2617 52.384 88.4057 52.732 88.4537 52.96C89.6897 52.972 90.4217 52.96 90.8537 52.828C91.2737 52.696 91.4537 52.456 91.4537 51.832V43.168H90.5897ZM86.3057 45.292V46.072H88.5017V48.868H86.3057V49.648H89.3057V45.292H86.3057ZM85.8977 45.292V50.56H86.6897V45.292H85.8977ZM81.8897 42.448V52.972H82.7057V43.264H84.6857V42.448H81.8897ZM84.4697 42.448V42.688C84.2177 43.504 83.7737 44.884 83.3297 45.976C84.2057 46.924 84.4217 47.764 84.4217 48.424C84.4217 48.784 84.3497 49.12 84.1697 49.252C84.0617 49.324 83.9417 49.348 83.7857 49.36C83.5937 49.384 83.3657 49.372 83.0897 49.348C83.2217 49.576 83.3057 49.924 83.3177 50.14C83.5817 50.152 83.8817 50.152 84.1217 50.128C84.3737 50.092 84.5777 50.02 84.7457 49.9C85.0817 49.66 85.2257 49.144 85.2257 48.496C85.2257 47.752 85.0217 46.876 84.1457 45.88C84.5537 44.92 84.9977 43.744 85.3457 42.76L84.7577 42.412L84.6257 42.448H84.4697ZM93.6017 48.784V49.588H104.258V48.784H93.6017ZM98.4377 47.668V52.936H99.3497V47.668H98.4377ZM98.0297 49.096C97.0457 50.368 95.1137 51.508 93.3617 52.048C93.5657 52.228 93.8297 52.576 93.9737 52.804C95.7257 52.168 97.6817 50.884 98.7737 49.432L98.0297 49.096ZM99.7697 49.12L99.0137 49.48C100.106 50.896 102.062 52.12 103.886 52.72C104.018 52.48 104.294 52.132 104.486 51.952C102.662 51.46 100.742 50.368 99.7697 49.12ZM97.9697 45.796H99.8537V47.116H97.9697V45.796ZM97.9697 43.816H99.8537V45.112H97.9697V43.816ZM97.1897 43.108V47.824H100.646V43.108H97.1897ZM98.5937 41.92C98.5217 42.352 98.3537 42.988 98.2097 43.408L98.9177 43.564C99.0977 43.18 99.3017 42.604 99.4937 42.064L98.5937 41.92ZM93.6857 44.26C94.2857 44.752 94.9937 45.448 95.3057 45.928L95.7257 45.268C95.4137 44.812 94.6937 44.14 94.0817 43.684L93.6857 44.26ZM95.8697 46.024C96.2177 46.708 96.5537 47.632 96.6497 48.208L97.2857 47.956C97.1777 47.404 96.8297 46.504 96.4697 45.832L95.8697 46.024ZM96.1697 43.672C95.6777 44.764 94.8017 46.3 94.1057 47.236L94.6937 47.512C95.3897 46.588 96.2417 45.136 96.8777 43.948L96.1697 43.672ZM95.2337 42.004C94.9937 42.7 94.5377 43.684 94.1897 44.296L94.7897 44.56C95.1617 43.96 95.5937 43.048 95.9537 42.268L95.2337 42.004ZM93.5777 47.164L93.6737 47.944C94.5497 47.8 95.6177 47.656 96.7217 47.476L96.7097 46.828C95.5217 46.96 94.3937 47.092 93.5777 47.164ZM100.574 44.164C101.21 44.716 101.93 45.496 102.242 46.024L102.71 45.4C102.386 44.896 101.654 44.14 101.03 43.612L100.574 44.164ZM102.806 45.928C103.214 46.684 103.61 47.668 103.73 48.304L104.402 48.028C104.27 47.416 103.85 46.432 103.43 45.7L102.806 45.928ZM103.106 43.66C102.614 44.764 101.702 46.312 100.994 47.26L101.582 47.536C102.302 46.6 103.178 45.136 103.814 43.948L103.106 43.66ZM102.23 41.968C101.99 42.664 101.522 43.648 101.162 44.26L101.762 44.524C102.146 43.924 102.59 43.024 102.962 42.232L102.23 41.968ZM100.622 47.164L100.73 47.944C101.606 47.824 102.698 47.68 103.802 47.536L103.79 46.876C102.602 46.984 101.462 47.092 100.622 47.164Z" fill="white"/>
<path d="M202.929 25.1299L0 25.1299L0 26.0199L202.929 26.0199V25.1299Z" fill="white"/>
<path d="M207 22L190 22V29H207V22Z" fill="#00E0B8"/>
<path d="M6.832 5.066L6.622 5.136H0.84V6.102H5.824C5.208 6.83 4.382 7.614 3.64 8.118V10.806C2.45 11.114 1.358 11.394 0.532 11.604L0.756 12.64L3.64 11.842V15.762C3.64 15.972 3.57 16.028 3.346 16.042C3.15 16.042 2.436 16.042 1.652 16.014C1.82 16.322 1.946 16.77 1.988 17.064C3.01 17.078 3.696 17.05 4.116 16.882C4.522 16.7 4.648 16.406 4.648 15.776V11.576L7.49 10.792L7.35 9.812C6.454 10.064 5.544 10.316 4.648 10.54V8.538C5.67 7.754 6.804 6.62 7.532 5.584L6.832 5.066ZM10.108 16C9.576 16 9.464 15.874 9.464 15.16V4.618H8.442V15.132C8.442 16.546 8.764 16.938 9.982 16.938H11.942C13.146 16.938 13.412 16.154 13.524 13.844C13.244 13.774 12.838 13.592 12.586 13.382C12.516 15.482 12.432 16 11.872 16H10.108ZM24.766 6.466H17.36V5.598H24.766V6.466ZM24.766 8.062H17.36V7.18H24.766V8.062ZM25.788 4.856H16.352V8.818H25.788V4.856ZM25.732 13.48C25.186 13.844 24.304 14.334 23.562 14.67C22.974 14.306 22.484 13.858 22.106 13.368H27.174V12.57H16.8C16.814 12.304 16.828 12.066 16.828 11.828H25.942V11.114H16.828V10.4H26.95V9.602H15.792V11.506C15.792 12.976 15.666 15.034 14.63 16.546C14.868 16.658 15.33 16.952 15.512 17.134C16.254 16.056 16.576 14.656 16.73 13.368H18.214V15.146C18.214 15.748 17.78 16.042 17.514 16.196C17.668 16.406 17.892 16.826 17.962 17.078C18.2 16.91 18.634 16.798 21.924 15.972C21.91 15.776 21.924 15.384 21.966 15.132L19.194 15.762V13.368H21.098C22.232 15.202 24.262 16.392 26.852 16.854C26.992 16.574 27.244 16.196 27.468 15.986C26.278 15.818 25.228 15.524 24.332 15.09C25.018 14.782 25.816 14.39 26.432 13.97L25.732 13.48ZM34.342 5.01H28.938V6.018H33.32V11.156C31.57 12.108 29.722 13.088 28.546 13.676L28.966 14.6C30.212 13.956 31.78 13.046 33.32 12.15V15.58C33.32 15.846 33.236 15.916 32.97 15.93C32.718 15.944 31.794 15.944 30.884 15.902C31.038 16.182 31.206 16.686 31.262 16.966C32.424 16.966 33.25 16.952 33.726 16.77C34.188 16.602 34.342 16.28 34.342 15.58V5.01ZM29.148 7.852C29.876 8.65 30.786 9.77 31.22 10.442L32.074 9.868C31.612 9.21 30.73 8.16 29.974 7.376L29.148 7.852ZM40.67 5.01H35.168V6.018H39.634V10.834C37.87 11.814 36.008 12.822 34.832 13.41L35.35 14.334C36.568 13.662 38.122 12.752 39.634 11.87V15.552C39.634 15.832 39.536 15.916 39.27 15.93C38.976 15.944 37.982 15.958 36.988 15.902C37.156 16.196 37.324 16.7 37.366 16.98C38.626 16.98 39.522 16.966 40.012 16.784C40.502 16.63 40.67 16.28 40.67 15.566V5.01ZM35.322 7.782C36.064 8.552 36.988 9.672 37.436 10.344L38.276 9.728C37.828 9.098 36.89 8.048 36.12 7.264L35.322 7.782ZM50.274 10.68L53.284 4.408L52.528 4.156L49.42 10.68L52.528 17.204L53.284 16.952L50.274 10.68ZM52.486 10.68L55.496 4.408L54.74 4.156L51.632 10.68L54.74 17.204L55.496 16.952L52.486 10.68ZM59.29 4.66V5.64H61.782C60.396 7.18 58.31 8.762 56.574 9.574C56.812 9.798 57.092 10.148 57.218 10.414C59.178 9.364 61.558 7.418 62.986 5.64C64.442 7.516 66.654 9.322 68.768 10.316C68.908 10.05 69.258 9.616 69.468 9.406C67.256 8.482 64.848 6.606 63.546 4.66H59.29ZM63.49 13.41H67.466V12.486H63.49V10.344H66.92V9.406H59.108V10.344H62.426V12.486H58.506V13.41H62.426V15.734H57.12V16.686H68.95V15.734H63.49V13.41ZM77.042 5.752H74.83C74.648 5.29 74.34 4.688 74.046 4.212L73.038 4.478C73.234 4.856 73.472 5.332 73.654 5.752H70.91V6.62H77.042V5.752ZM73.22 8.622C73.164 8.104 72.926 7.32 72.646 6.718L71.82 6.914C72.058 7.53 72.282 8.342 72.352 8.86L73.22 8.622ZM71.988 12.906C71.708 13.816 71.218 14.768 70.672 15.426C70.882 15.538 71.232 15.804 71.4 15.93C71.918 15.23 72.506 14.138 72.842 13.144L71.988 12.906ZM77.098 12.164V11.268H74.564V9.798H77.252V8.916H75.474C75.74 8.328 76.006 7.572 76.258 6.9L75.306 6.704C75.138 7.348 74.816 8.272 74.55 8.916H70.686V9.798H73.542V11.268H70.756V12.164H73.542V17.022H74.564V12.164H77.098ZM75.194 13.2C75.614 13.872 76.118 14.838 76.342 15.44L77.084 15.02C76.846 14.418 76.356 13.508 75.908 12.822L75.194 13.2ZM83.37 8.972H78.904V6.312C80.374 6.088 81.984 5.738 83.132 5.304L82.292 4.534C81.298 4.954 79.506 5.374 77.938 5.626V10.442C77.938 12.304 77.826 14.698 76.65 16.378C76.874 16.49 77.28 16.812 77.448 17.008C78.722 15.188 78.904 12.444 78.904 10.442V9.952H80.822V17.008H81.83V9.952H83.37V8.972ZM89.152 10.386H86.212V7.46H89.152V10.386ZM86.212 14.67V11.31H89.152V14.67H86.212ZM87.388 4.254C87.29 4.912 87.038 5.85 86.828 6.522H85.26V16.714H86.212V15.608H90.104V6.522H87.78C88.018 5.92 88.27 5.15 88.508 4.464L87.388 4.254ZM96.95 6.48H92.764C93.002 5.822 93.198 5.15 93.366 4.464L92.372 4.226C91.924 6.144 91.168 8.076 90.23 9.308C90.454 9.448 90.902 9.728 91.084 9.896C91.574 9.238 92.008 8.384 92.4 7.446H95.956C95.774 13.018 95.564 15.146 95.102 15.636C94.962 15.818 94.808 15.846 94.528 15.846C94.206 15.846 93.366 15.846 92.456 15.762C92.652 16.056 92.778 16.476 92.806 16.784C93.59 16.826 94.388 16.854 94.878 16.798C95.354 16.756 95.676 16.63 95.984 16.238C96.544 15.552 96.726 13.396 96.95 7.012V6.48ZM94.738 12.78C94.29 11.954 93.324 10.61 92.54 9.616L91.728 10.092C92.498 11.1 93.436 12.486 93.856 13.326L94.738 12.78ZM110.866 6.984C110.404 6.326 109.438 5.346 108.626 4.66L107.828 5.206C108.654 5.92 109.592 6.928 110.026 7.586L110.866 6.984ZM109.606 10.036C109.13 10.932 108.514 11.786 107.772 12.584C107.534 11.66 107.338 10.582 107.198 9.392H111.202V8.398H107.086C106.974 7.152 106.918 5.808 106.918 4.408H105.854C105.868 5.78 105.924 7.124 106.05 8.398H102.844V5.962C103.698 5.78 104.51 5.556 105.182 5.318L104.44 4.464C103.124 4.954 100.87 5.43 98.91 5.724C99.05 5.976 99.19 6.34 99.246 6.592C100.072 6.48 100.954 6.34 101.822 6.172V8.398H98.826V9.392H101.822V11.842C100.604 12.094 99.47 12.332 98.63 12.472L98.924 13.522C99.764 13.34 100.772 13.102 101.822 12.878V15.72C101.822 15.972 101.738 16.042 101.486 16.042C101.248 16.056 100.422 16.07 99.526 16.028C99.68 16.322 99.862 16.798 99.918 17.078C101.052 17.078 101.808 17.05 102.242 16.882C102.676 16.714 102.844 16.406 102.844 15.734V12.626C103.698 12.43 104.566 12.234 105.42 12.024L105.35 11.086C104.524 11.268 103.67 11.45 102.844 11.632V9.392H106.134C106.316 10.904 106.582 12.29 106.918 13.452C105.924 14.376 104.776 15.146 103.6 15.72C103.866 15.944 104.16 16.294 104.314 16.546C105.364 16 106.358 15.3 107.268 14.488C107.912 16.126 108.752 17.106 109.858 17.106C110.908 17.106 111.272 16.434 111.468 14.124C111.174 14.026 110.81 13.788 110.586 13.564C110.502 15.356 110.334 16.07 109.956 16.07C109.256 16.07 108.626 15.174 108.094 13.704C109.074 12.71 109.9 11.604 110.53 10.414L109.606 10.036ZM115.472 17.204L118.58 10.68L115.472 4.156L114.716 4.408L117.726 10.68L114.716 16.952L115.472 17.204ZM113.26 17.204L116.368 10.68L113.26 4.156L112.504 4.408L115.514 10.68L112.504 16.952L113.26 17.204Z" fill="#00E0B8"/>
</svg>
