<svg width="643" height="163" viewBox="0 0 643 163" fill="none" xmlns="http://www.w3.org/2000/svg">
<path d="M570 39H118V79H570V39Z" fill="#00E0B8"/>
<path d="M91 75H607V126H91V75Z" fill="white" stroke="#00E0B8" stroke-width="2"/>
<path d="M606 76H595V125H606V76Z" fill="#00E0B8"/>
<path d="M81.3327 146.969C117.539 146.969 146.89 117.618 146.89 81.4119C146.89 45.2055 117.539 15.8545 81.3327 15.8545C45.1263 15.8545 15.7753 45.2055 15.7753 81.4119C15.7753 117.618 45.1263 146.969 81.3327 146.969Z" fill="white"/>
<path d="M81.3008 79.27C81.8171 79.2653 82.3173 79.449 82.7078 79.7868C83.0982 80.1245 83.3521 80.5931 83.4217 81.1046H94.1111C94.0012 77.7691 92.595 74.608 90.1914 72.2928C87.7877 69.9777 84.5761 68.691 81.2388 68.7062C77.9016 68.7214 74.7018 70.0372 72.3193 72.3742C69.9369 74.7111 68.5595 77.8849 68.4799 81.2212H79.1693C79.2122 80.6868 79.4559 80.1885 79.8513 79.8264C80.2468 79.4644 80.7647 79.2656 81.3008 79.27V79.27Z" fill="url(#paint0_linear_110_1349)"/>
<path d="M81.3008 83.5754C80.7862 83.5805 80.2873 83.3982 79.8971 83.0626C79.5068 82.727 79.252 82.261 79.1799 81.7514H68.4905C68.6005 85.0869 70.0067 88.248 72.4103 90.5632C74.8139 92.8783 78.0256 94.165 81.3628 94.1498C84.7001 94.1346 87.8999 92.8188 90.2824 90.4818C92.6648 88.1449 94.0422 84.9711 94.1217 81.6348L83.443 81.6878C83.3849 82.2126 83.1333 82.6969 82.7371 83.046C82.3409 83.3951 81.8288 83.5839 81.3008 83.5754V83.5754Z" fill="url(#paint1_linear_110_1349)"/>
<path d="M81.11 35.2715C71.9818 35.3136 63.0712 38.0616 55.5049 43.1681C47.9387 48.2746 42.0567 55.5101 38.6028 63.9597C35.1489 72.4092 34.2783 81.6933 36.101 90.6377C37.9238 99.582 42.358 107.785 48.843 114.209C55.3279 120.633 63.5723 124.99 72.5335 126.728C81.4946 128.467 90.7701 127.509 99.1867 123.975C107.603 120.442 114.783 114.492 119.818 106.878C124.853 99.2641 127.517 90.328 127.473 81.1999C127.445 75.1397 126.224 69.1444 123.879 63.5563C121.534 57.9682 118.111 52.8969 113.805 48.6319C109.5 44.3669 104.397 40.9918 98.7866 38.6994C93.1767 36.407 87.1701 35.2422 81.11 35.2715V35.2715ZM52.4777 109.673C52.1701 109.376 51.6929 108.963 51.1415 108.379C49.5501 106.742 48.1058 104.968 46.8254 103.077C44.916 100.254 43.3964 97.1866 42.3079 93.9571C39.562 85.96 39.521 77.2819 42.1912 69.2591C43.2505 66.0145 44.7453 62.9287 46.6345 60.0862C47.8882 58.1963 49.3077 56.4218 50.8764 54.7839C51.4172 54.2007 51.9368 53.7871 52.1913 53.4795L52.6579 53.0342L52.2337 53.5326C51.9686 53.8613 51.5445 54.3067 51.046 54.943C49.6414 56.7074 48.3723 58.5756 47.2496 60.5316C45.5962 63.4104 44.3 66.4801 43.3896 69.6727C41.1194 77.4946 41.1563 85.8057 43.4956 93.6072C44.4418 96.7954 45.77 99.8576 47.4511 102.727C48.5896 104.672 49.8766 106.526 51.3006 108.273C51.799 108.899 52.2231 109.334 52.4989 109.673L52.923 110.161L52.4777 109.673ZM55.1182 104.827L54.291 104C53.9835 103.713 53.7184 103.321 53.3897 102.939L52.3292 101.688L51.7884 101.009L51.2793 100.235C50.4882 99.1031 49.7795 97.9159 49.1584 96.6825C48.8403 96.0144 48.4373 95.3463 48.1616 94.5616L47.3663 92.324C44.9281 85.3601 44.8759 77.783 47.2178 70.7862C47.5041 70.0014 47.7904 69.2379 48.0662 68.4956C48.3419 67.7533 48.7342 67.0746 49.0524 66.3747C49.6671 65.131 50.3761 63.9363 51.1733 62.801C51.343 62.5358 51.502 62.2707 51.6717 62.0268L52.2125 61.3269L53.2094 60.0756C53.4849 59.7076 53.7787 59.3537 54.0895 59.0151L54.9167 58.1774L56.4438 56.6503C56.4438 56.6503 55.9666 57.2548 55.0864 58.3364L54.3653 59.2378C54.0895 59.5559 53.8669 59.9589 53.5805 60.3725L52.6685 61.7405L52.2019 62.4616L51.7778 63.2569C51.1021 64.4202 50.5068 65.6285 49.9962 66.8731C49.7311 67.5412 49.3917 68.2093 49.1584 68.941L48.4267 71.1998C46.4571 77.9748 46.4902 85.1751 48.5222 91.9317L49.2539 94.1798C49.4978 94.9221 49.8477 95.5796 50.1128 96.2477C50.6314 97.4875 51.2374 98.6888 51.9262 99.8427L52.361 100.638L52.8382 101.349L53.7184 102.653C54.0047 103.056 54.2274 103.459 54.5031 103.777L55.2454 104.668L56.6134 106.354L55.1182 104.827ZM59.0313 101.306L58.3208 100.617C58.0557 100.362 57.833 100.044 57.5572 99.726L56.6877 98.6656L56.2211 98.0929L55.7863 97.4354C55.1128 96.4768 54.5102 95.4702 53.9835 94.4237C53.7078 93.8511 53.3578 93.289 53.1139 92.6528C52.87 92.0165 52.6261 91.3696 52.361 90.7121C51.3589 87.763 50.8257 84.6749 50.7809 81.5604C50.8043 78.444 51.3086 75.3499 52.2762 72.3875L53.0185 70.4362C53.2518 69.8 53.5911 69.2379 53.8563 68.6653C54.3779 67.6136 54.9732 66.6001 55.6378 65.6324L56.062 64.9749L56.5286 64.3916C56.8255 64.0099 57.1118 63.6599 57.3876 63.3312C57.6267 63.018 57.8815 62.7172 58.1511 62.4298L58.851 61.7299L60.166 60.4361L59.0313 61.8889L58.4162 62.6525C58.1829 62.9282 58.0026 63.2781 57.7693 63.6175C57.536 63.9568 57.2921 64.3386 57.0376 64.7416L56.6346 65.346L56.2847 66.0247C55.7209 67.0151 55.2249 68.0426 54.8001 69.1001C54.5774 69.6727 54.291 70.2347 54.1002 70.8498C53.9093 71.4649 53.6972 72.1117 53.4957 72.7692C51.8552 78.5085 51.8846 84.5966 53.5805 90.3198C53.7926 90.9667 53.9941 91.6029 54.1956 92.2286C54.3971 92.8543 54.6834 93.4057 54.9167 93.9783C55.3527 95.0276 55.8557 96.0477 56.4226 97.0325L56.7937 97.7112L57.1861 98.3156L57.9708 99.4185C58.2147 99.7578 58.4056 100.108 58.6389 100.383L59.254 101.136L60.3568 102.6L59.0313 101.306ZM62.9868 97.7854C62.5374 97.3899 62.1224 96.9571 61.746 96.4916L61.0249 95.6326L60.622 95.1767L60.2614 94.6358C59.6901 93.8544 59.183 93.0281 58.745 92.165C58.5117 91.6878 58.2253 91.2212 58.0238 90.7121L57.3982 89.1002C56.5506 86.6677 56.0994 84.1149 56.062 81.5392C56.0823 78.9647 56.5082 76.4095 57.3239 73.9675L57.939 72.3557C58.1405 71.836 58.4162 71.3694 58.6495 70.9028C59.0813 70.0361 59.5776 69.2031 60.1341 68.4108L60.4947 67.8699L60.8765 67.3927L61.5976 66.5232C61.9702 66.0579 62.3779 65.6218 62.8171 65.2188L63.8776 64.1583L62.955 65.3673C62.5629 65.8184 62.2082 66.3007 61.8945 66.8095L61.3006 67.7321L60.9825 68.2305L60.6962 68.7925C60.2406 69.6097 59.8403 70.4564 59.4979 71.327C59.3176 71.7936 59.0843 72.2602 58.9358 72.7692C58.7874 73.2782 58.6177 73.8297 58.4586 74.3387C57.1504 79.0385 57.1724 84.0093 58.5223 88.6973L59.0207 90.2667C59.1797 90.7758 59.413 91.2424 59.5933 91.709C59.9468 92.5714 60.3541 93.4108 60.8128 94.2223L61.1098 94.7843L61.4279 95.2827L62.0324 96.2053C62.3493 96.7052 62.7038 97.1802 63.0928 97.6263C63.6867 98.4004 64.026 98.8246 64.026 98.8246L62.9868 97.7854ZM66.9317 94.2647C66.5732 93.9597 66.2399 93.6263 65.9348 93.2679L65.3516 92.5998L65.0441 92.2286L64.7471 91.815C64.2915 91.2003 63.8838 90.5516 63.5276 89.8744C63.3121 89.5073 63.1174 89.1285 62.9444 88.7397L62.4353 87.4777C61.7602 85.5583 61.4021 83.5418 61.3749 81.5074C61.4085 79.47 61.7665 77.4511 62.4353 75.5264L62.9338 74.2645C63.1034 73.8509 63.3261 73.4798 63.5064 73.1192C63.8573 72.4402 64.2578 71.788 64.7047 71.1679L64.991 70.7438L65.3092 70.3726L65.8818 69.7045C66.1751 69.323 66.5016 68.9681 66.8574 68.6441L67.7376 67.8381L67.0377 68.7925C66.7574 69.1587 66.4989 69.5412 66.2636 69.9378L65.8076 70.6695L65.5637 71.0725L65.3516 71.5073C65.0059 72.1505 64.7048 72.8166 64.4502 73.5009C64.3123 73.8615 64.1321 74.2327 64.0154 74.625L63.6549 75.8552C62.6581 79.5142 62.6581 83.3733 63.6549 87.0324L64.026 88.2519C64.1533 88.6549 64.3335 89.0154 64.4714 89.3866C64.7302 90.0658 65.0386 90.725 65.394 91.359L65.6167 91.8044L65.8606 92.1968L66.3166 92.9285C66.5457 93.3426 66.8044 93.7395 67.0907 94.1162L67.8012 95.0706L66.9317 94.2647ZM82.9233 96.1099C79.888 96.437 76.8258 95.8162 74.1573 94.333C71.4889 92.8497 69.3452 90.5766 68.0206 87.826C66.696 85.0754 66.2556 81.9821 66.7597 78.971C67.2639 75.96 68.6879 73.1789 70.8362 71.0097C72.9846 68.8406 75.7518 67.3898 78.7578 66.8566C81.7639 66.3235 84.8612 66.7341 87.6245 68.0321C90.3878 69.3301 92.6815 71.4518 94.1904 74.1057C95.6993 76.7597 96.3496 79.8158 96.0518 82.8542C95.7084 86.2333 94.2168 89.3925 91.8257 91.8048C89.4346 94.2171 86.2887 95.7367 82.9127 96.1099H82.9233ZM97.7697 92.0801L97.4622 92.4513L96.8895 93.13C96.5849 93.4886 96.2553 93.8252 95.9033 94.1374L95.0231 94.9434L95.723 93.9783C96.0132 93.6169 96.2755 93.2341 96.5078 92.8331L96.9532 92.1013L97.1971 91.709L97.4198 91.2636C97.7592 90.621 98.0602 89.9588 98.3212 89.2805C98.459 88.9094 98.6287 88.5488 98.7453 88.1458C98.862 87.7429 98.9892 87.3399 99.1059 86.9157C99.5782 85.0899 99.8239 83.2129 99.8376 81.3271C99.802 79.4394 99.5385 77.563 99.0529 75.7385L98.6817 74.519C98.5651 74.116 98.3848 73.7554 98.2469 73.3949C97.9792 72.7161 97.6711 72.0539 97.3243 71.4118L97.1016 70.9771C97.0168 70.8392 96.932 70.7119 96.8577 70.5741C96.7835 70.4362 96.5396 70.0757 96.4017 69.853C96.1654 69.4554 95.8995 69.0761 95.6064 68.7183L94.8959 67.7639L95.7867 68.5592C96.144 68.8619 96.474 69.1955 96.7729 69.556L97.3561 70.2241L97.6743 70.5953L97.9606 71.0089C98.4162 71.6235 98.8239 72.2724 99.1801 72.9495C99.3604 73.3101 99.5937 73.6812 99.7634 74.0842C99.933 74.4872 100.092 74.922 100.272 75.3567C101.682 79.2089 101.701 83.4329 100.325 87.2975L99.827 88.57C99.6679 88.973 99.4452 89.3442 99.2544 89.7153C98.9089 90.394 98.5082 91.0431 98.056 91.6559L97.7697 92.0801ZM101.821 95.4418L101.11 96.3114C100.737 96.7797 100.326 97.2159 99.88 97.6157L98.8196 98.6761L99.7422 97.4672C100.128 97.0152 100.483 96.5368 100.803 96.0356L101.386 95.1024L101.715 94.604C101.799 94.4237 101.895 94.2328 102.001 94.042C102.449 93.226 102.845 92.3831 103.189 91.5181C103.369 91.0409 103.602 90.5849 103.751 90.0653L104.238 88.4958C105.551 83.796 105.525 78.8232 104.164 74.1372L103.676 72.5677C103.517 72.0587 103.284 71.6027 103.093 71.1361C102.746 70.2674 102.339 69.424 101.874 68.6123L101.587 68.0608L101.259 67.5518L100.665 66.6398C100.349 66.1359 99.9943 65.6572 99.6043 65.2082L98.6817 64.0099L99.7422 65.0703C100.189 65.4684 100.604 65.901 100.983 66.3641L101.704 67.2231L102.096 67.7003L102.457 68.2305C103.021 69.0184 103.524 69.848 103.963 70.7119C104.196 71.1785 104.482 71.6451 104.684 72.1648C104.885 72.6844 105.108 73.2252 105.32 73.7661C107.062 78.6556 107.088 83.9923 105.394 88.8987C105.182 89.4502 104.97 89.9592 104.779 90.5107C104.588 91.0621 104.292 91.4969 104.069 91.9741C103.634 92.8378 103.134 93.6673 102.574 94.4556C102.46 94.6464 102.344 94.8267 102.224 94.9964L101.821 95.4418ZM105.331 99.4927C105.094 99.8081 104.839 100.109 104.567 100.394L103.867 101.094L102.51 102.388L103.655 100.946L104.26 100.171C104.498 99.8634 104.718 99.5412 104.917 99.2064C105.136 98.86 105.38 98.4888 105.649 98.0929L106.041 97.4779L106.402 96.7992C106.961 95.8102 107.457 94.7866 107.886 93.7345C108.109 93.1618 108.395 92.5998 108.586 91.9741L109.18 90.0547C109.965 87.1933 110.372 84.2412 110.389 81.2741C110.343 78.3076 109.911 75.3596 109.106 72.5041L108.48 70.6059C108.289 69.9802 107.993 69.4182 107.77 68.8456C107.331 67.796 106.824 66.7758 106.253 65.7914L105.893 65.1127L105.49 64.5083L104.748 63.3948C104.546 63.0649 104.326 62.7463 104.09 62.4404L103.475 61.6769L102.319 60.2346L103.645 61.5178L104.355 62.2177C104.628 62.5011 104.887 62.7984 105.129 63.1085L105.988 64.169L106.465 64.7522C106.603 64.9643 106.752 65.1764 106.89 65.3991C107.569 66.3596 108.175 67.3699 108.703 68.4214C108.979 68.9834 109.318 69.556 109.562 70.1817L110.315 72.1329C112.406 78.0536 112.436 84.5072 110.4 90.447C110.156 91.1151 109.901 91.7726 109.668 92.3983C109.435 93.0239 109.095 93.6072 108.82 94.1798C108.304 95.2346 107.708 96.2485 107.038 97.2127L106.614 97.8702L106.158 98.4535L105.331 99.4927ZM108.661 103.735L107.844 104.562L106.306 106.099L107.664 104.403L108.395 103.512C108.671 103.183 108.894 102.78 109.17 102.377L110.039 101.062L110.516 100.352L110.941 99.5457C111.608 98.3836 112.2 97.1792 112.712 95.9402C112.977 95.2615 113.327 94.5934 113.549 93.8193L114.27 91.5605C116.213 84.8034 116.18 77.6311 114.175 70.8922L113.433 68.6441C113.199 67.9124 112.849 67.2443 112.574 66.5232C112.05 65.2877 111.448 64.0869 110.771 62.9282C110.622 62.6631 110.474 62.398 110.336 62.1329C110.198 61.8677 110.007 61.6557 109.859 61.4224L108.968 60.118C108.727 59.7297 108.465 59.3544 108.183 58.9939L107.452 58.1031C106.571 57.0427 106.073 56.4276 106.073 56.4276L107.621 57.9441L108.449 58.7712C108.77 59.1066 109.071 59.4607 109.35 59.8317C109.668 60.2135 110.007 60.627 110.41 61.0724L110.962 61.7511L111.46 62.5252C112.253 63.6561 112.962 64.8434 113.581 66.0778C113.91 66.7564 114.302 67.4245 114.589 68.1987C114.875 68.9728 115.161 69.7151 115.458 70.4893C117.882 77.4471 117.919 85.0139 115.564 91.9953L114.705 94.2965C114.429 95.0388 114.037 95.7069 113.73 96.4174C113.123 97.6547 112.432 98.8488 111.662 99.9911L111.163 100.765L110.622 101.455L109.626 102.706C109.191 103.066 108.926 103.448 108.618 103.756L108.661 103.735ZM116.084 102.727C114.832 104.618 113.412 106.393 111.842 108.029C111.291 108.623 110.782 109.037 110.527 109.334L110.06 109.779L110.474 109.291C110.75 108.963 111.174 108.507 111.662 107.87C113.074 106.115 114.343 104.25 115.458 102.292C117.113 99.4093 118.413 96.3363 119.329 93.1406C121.603 85.3186 121.562 77.0055 119.212 69.2061C118.25 66.0505 116.915 63.0209 115.235 60.1816C114.099 58.2318 112.812 56.3739 111.386 54.6249C110.888 53.9992 110.453 53.5644 110.188 53.225L109.763 52.7372L110.23 53.1826C110.527 53.4795 111.004 53.8825 111.556 54.4764C115.54 58.5656 118.562 63.4928 120.4 68.8986C123.131 76.8983 123.172 85.5715 120.516 93.5966C119.453 96.8329 117.959 99.9112 116.073 102.748L116.084 102.727Z" fill="url(#paint2_linear_110_1349)"/>
<mask id="path-8-outside-1_110_1349" maskUnits="userSpaceOnUse" x="0" y="0" width="163" height="163" fill="black">
<rect fill="white" width="163" height="163"/>
<path d="M153.741 70.7864C152.147 70.1515 150.724 69.1553 149.581 67.8763C148.439 66.5972 147.61 65.0703 147.158 63.4159C146.707 61.7615 146.646 60.0248 146.98 58.3428C147.315 56.6608 148.035 55.0796 149.085 53.7236V53.7236C150.435 51.9787 151.233 49.8702 151.377 47.6686C151.52 45.467 151.003 43.2728 149.89 41.3674C148.778 39.462 147.122 37.9323 145.134 36.9747C143.147 36.0171 140.918 35.6752 138.735 35.9928V35.9928C137.039 36.2425 135.308 36.094 133.678 35.559C132.049 35.0241 130.567 34.1173 129.349 32.9105C128.131 31.7037 127.21 30.2301 126.66 28.6061C126.11 26.9821 125.945 25.2523 126.179 23.5537C126.476 21.3679 126.112 19.1435 125.136 17.1656C124.159 15.1877 122.614 13.5466 120.699 12.4527C118.783 11.3589 116.585 10.8621 114.385 11.0261C112.186 11.1901 110.085 12.0074 108.353 13.3733V13.3733C107.008 14.4358 105.434 15.1711 103.756 15.5211C102.078 15.8712 100.342 15.8264 98.6839 15.3904C97.0261 14.9543 95.4924 14.139 94.2038 13.0086C92.9151 11.8782 91.9068 10.4638 91.2585 8.87696V8.87696C90.4227 6.83514 88.9959 5.08962 87.1611 3.86433C85.3264 2.63904 83.1674 1.98986 80.9611 2.00012C78.7549 2.01038 76.602 2.67961 74.7787 3.9219C72.9554 5.1642 71.5449 6.9229 70.7281 8.9724V8.9724C70.0957 10.5592 69.1044 11.9781 67.8319 13.1176C66.5593 14.2572 65.0401 15.0865 63.3934 15.5405C61.7466 15.9946 60.0171 16.061 58.3404 15.7347C56.6636 15.4084 55.0853 14.6981 53.729 13.6596C51.9841 12.3095 49.8756 11.5115 47.674 11.368C45.4724 11.2246 43.2781 11.7421 41.3727 12.8544C39.4673 13.9666 37.9377 15.6228 36.9801 17.6104C36.0225 19.598 35.6805 21.8264 35.9982 24.0097C36.2437 25.7062 36.0919 27.4366 35.5548 29.0645C35.0176 30.6924 34.1098 32.1733 32.9028 33.3906C31.6958 34.6079 30.2226 35.5283 28.5993 36.0792C26.9761 36.6301 25.247 36.7966 23.5484 36.5655V36.5655C21.3619 36.2662 19.1358 36.6279 17.1565 37.6041C15.1772 38.5802 13.5351 40.1261 12.4415 42.0431C11.3479 43.96 10.8528 46.1602 11.0198 48.3608C11.1868 50.5615 12.0083 52.6618 13.3787 54.3917V54.3917C14.4409 55.7376 15.1756 57.312 15.525 58.9905C15.8743 60.6691 15.8286 62.4059 15.3915 64.0638C14.9544 65.7217 14.1379 67.2553 13.0064 68.5434C11.8749 69.8316 10.4594 70.839 8.87173 71.4863V71.4863C6.83032 72.3231 5.08551 73.7509 3.86116 75.5862C2.6368 77.4216 1.98875 79.581 2.00015 81.7872C2.01154 83.9935 2.68186 86.146 3.92511 87.9687C5.16836 89.7913 6.92783 91.2009 8.97777 92.0167V92.0167C10.5706 92.6502 11.9944 93.6452 13.1367 94.9233C14.2791 96.2014 15.1087 97.7275 15.5602 99.3812C16.0117 101.035 16.0726 102.771 15.7382 104.452C15.4037 106.133 14.6831 107.714 13.6332 109.069C12.2785 110.812 11.4764 112.92 11.33 115.123C11.1835 117.325 11.6995 119.521 12.8115 121.428C13.9234 123.335 15.5805 124.865 17.5696 125.823C19.5586 126.78 21.7886 127.12 23.9726 126.8V126.8C25.67 126.552 27.4016 126.703 29.0309 127.239C30.6602 127.775 32.1425 128.683 33.3611 129.89C34.5796 131.097 35.501 132.571 36.0525 134.195C36.604 135.82 36.7705 137.55 36.539 139.249V139.249C36.2419 141.434 36.6045 143.658 37.5804 145.635C38.5562 147.612 40.1006 149.252 42.0154 150.346C43.9302 151.439 46.1281 151.934 48.3267 151.769C50.5254 151.604 52.6245 150.786 54.3547 149.419V149.419C55.7008 148.357 57.2753 147.621 58.954 147.271C60.6328 146.921 62.3699 146.966 64.0284 147.402C65.6869 147.838 67.2215 148.653 68.5111 149.784C69.8008 150.914 70.8102 152.328 71.4598 153.915C72.3051 155.935 73.7308 157.659 75.5563 158.867C77.3818 160.076 79.5251 160.716 81.7145 160.706C83.904 160.696 86.0411 160.036 87.8553 158.81C89.6695 157.584 91.079 155.848 91.9054 153.82C92.5402 152.227 93.5364 150.803 94.8155 149.661C96.0946 148.519 97.6215 147.689 99.2759 147.238C100.93 146.786 102.667 146.725 104.349 147.06C106.031 147.394 107.612 148.115 108.968 149.165V149.165C110.712 150.514 112.82 151.311 115.02 151.455C117.22 151.598 119.414 151.082 121.318 149.971C123.223 148.86 124.753 147.206 125.712 145.22C126.67 143.234 127.014 141.008 126.699 138.825V138.825C126.45 137.128 126.598 135.397 127.133 133.768C127.668 132.138 128.575 130.655 129.781 129.437C130.988 128.218 132.461 127.296 134.085 126.745C135.709 126.193 137.439 126.027 139.138 126.259V126.259C141.324 126.558 143.549 126.198 145.528 125.223C147.507 124.248 149.149 122.704 150.244 120.788C151.338 118.873 151.835 116.674 151.67 114.474C151.505 112.274 150.686 110.174 149.318 108.443V108.443C148.256 107.097 147.521 105.523 147.171 103.844C146.821 102.165 146.865 100.428 147.301 98.7694C147.737 97.1109 148.553 95.5763 149.683 94.2867C150.813 92.9971 152.228 91.9876 153.815 91.338C155.868 90.5117 157.627 89.0883 158.862 87.2519C160.098 85.4154 160.754 83.2505 160.746 81.037C160.738 78.8235 160.067 76.6633 158.818 74.8359C157.569 73.0084 155.8 71.5978 153.741 70.7864ZM146.879 81.0728C146.94 94.0365 143.155 106.727 136.003 117.54C128.852 128.352 118.654 136.802 106.701 141.819C94.7469 146.836 81.5739 148.196 68.8474 145.726C56.1209 143.257 44.4125 137.069 35.2028 127.945C25.993 118.821 19.6956 107.172 17.1068 94.4688C14.518 81.766 15.7542 68.5809 20.6589 56.5807C25.5636 44.5805 33.9167 34.3041 44.6618 27.0512C55.4069 19.7983 68.0614 15.8945 81.0251 15.8335C98.408 15.7743 115.104 22.6135 127.45 34.8503C139.797 47.0871 146.784 63.7219 146.879 81.1046V81.0728Z"/>
</mask>
<path d="M153.741 70.7864C152.147 70.1515 150.724 69.1553 149.581 67.8763C148.439 66.5972 147.61 65.0703 147.158 63.4159C146.707 61.7615 146.646 60.0248 146.98 58.3428C147.315 56.6608 148.035 55.0796 149.085 53.7236V53.7236C150.435 51.9787 151.233 49.8702 151.377 47.6686C151.52 45.467 151.003 43.2728 149.89 41.3674C148.778 39.462 147.122 37.9323 145.134 36.9747C143.147 36.0171 140.918 35.6752 138.735 35.9928V35.9928C137.039 36.2425 135.308 36.094 133.678 35.559C132.049 35.0241 130.567 34.1173 129.349 32.9105C128.131 31.7037 127.21 30.2301 126.66 28.6061C126.11 26.9821 125.945 25.2523 126.179 23.5537C126.476 21.3679 126.112 19.1435 125.136 17.1656C124.159 15.1877 122.614 13.5466 120.699 12.4527C118.783 11.3589 116.585 10.8621 114.385 11.0261C112.186 11.1901 110.085 12.0074 108.353 13.3733V13.3733C107.008 14.4358 105.434 15.1711 103.756 15.5211C102.078 15.8712 100.342 15.8264 98.6839 15.3904C97.0261 14.9543 95.4924 14.139 94.2038 13.0086C92.9151 11.8782 91.9068 10.4638 91.2585 8.87696V8.87696C90.4227 6.83514 88.9959 5.08962 87.1611 3.86433C85.3264 2.63904 83.1674 1.98986 80.9611 2.00012C78.7549 2.01038 76.602 2.67961 74.7787 3.9219C72.9554 5.1642 71.5449 6.9229 70.7281 8.9724V8.9724C70.0957 10.5592 69.1044 11.9781 67.8319 13.1176C66.5593 14.2572 65.0401 15.0865 63.3934 15.5405C61.7466 15.9946 60.0171 16.061 58.3404 15.7347C56.6636 15.4084 55.0853 14.6981 53.729 13.6596C51.9841 12.3095 49.8756 11.5115 47.674 11.368C45.4724 11.2246 43.2781 11.7421 41.3727 12.8544C39.4673 13.9666 37.9377 15.6228 36.9801 17.6104C36.0225 19.598 35.6805 21.8264 35.9982 24.0097C36.2437 25.7062 36.0919 27.4366 35.5548 29.0645C35.0176 30.6924 34.1098 32.1733 32.9028 33.3906C31.6958 34.6079 30.2226 35.5283 28.5993 36.0792C26.9761 36.6301 25.247 36.7966 23.5484 36.5655V36.5655C21.3619 36.2662 19.1358 36.6279 17.1565 37.6041C15.1772 38.5802 13.5351 40.1261 12.4415 42.0431C11.3479 43.96 10.8528 46.1602 11.0198 48.3608C11.1868 50.5615 12.0083 52.6618 13.3787 54.3917V54.3917C14.4409 55.7376 15.1756 57.312 15.525 58.9905C15.8743 60.6691 15.8286 62.4059 15.3915 64.0638C14.9544 65.7217 14.1379 67.2553 13.0064 68.5434C11.8749 69.8316 10.4594 70.839 8.87173 71.4863V71.4863C6.83032 72.3231 5.08551 73.7509 3.86116 75.5862C2.6368 77.4216 1.98875 79.581 2.00015 81.7872C2.01154 83.9935 2.68186 86.146 3.92511 87.9687C5.16836 89.7913 6.92783 91.2009 8.97777 92.0167V92.0167C10.5706 92.6502 11.9944 93.6452 13.1367 94.9233C14.2791 96.2014 15.1087 97.7275 15.5602 99.3812C16.0117 101.035 16.0726 102.771 15.7382 104.452C15.4037 106.133 14.6831 107.714 13.6332 109.069C12.2785 110.812 11.4764 112.92 11.33 115.123C11.1835 117.325 11.6995 119.521 12.8115 121.428C13.9234 123.335 15.5805 124.865 17.5696 125.823C19.5586 126.78 21.7886 127.12 23.9726 126.8V126.8C25.67 126.552 27.4016 126.703 29.0309 127.239C30.6602 127.775 32.1425 128.683 33.3611 129.89C34.5796 131.097 35.501 132.571 36.0525 134.195C36.604 135.82 36.7705 137.55 36.539 139.249V139.249C36.2419 141.434 36.6045 143.658 37.5804 145.635C38.5562 147.612 40.1006 149.252 42.0154 150.346C43.9302 151.439 46.1281 151.934 48.3267 151.769C50.5254 151.604 52.6245 150.786 54.3547 149.419V149.419C55.7008 148.357 57.2753 147.621 58.954 147.271C60.6328 146.921 62.3699 146.966 64.0284 147.402C65.6869 147.838 67.2215 148.653 68.5111 149.784C69.8008 150.914 70.8102 152.328 71.4598 153.915C72.3051 155.935 73.7308 157.659 75.5563 158.867C77.3818 160.076 79.5251 160.716 81.7145 160.706C83.904 160.696 86.0411 160.036 87.8553 158.81C89.6695 157.584 91.079 155.848 91.9054 153.82C92.5402 152.227 93.5364 150.803 94.8155 149.661C96.0946 148.519 97.6215 147.689 99.2759 147.238C100.93 146.786 102.667 146.725 104.349 147.06C106.031 147.394 107.612 148.115 108.968 149.165V149.165C110.712 150.514 112.82 151.311 115.02 151.455C117.22 151.598 119.414 151.082 121.318 149.971C123.223 148.86 124.753 147.206 125.712 145.22C126.67 143.234 127.014 141.008 126.699 138.825V138.825C126.45 137.128 126.598 135.397 127.133 133.768C127.668 132.138 128.575 130.655 129.781 129.437C130.988 128.218 132.461 127.296 134.085 126.745C135.709 126.193 137.439 126.027 139.138 126.259V126.259C141.324 126.558 143.549 126.198 145.528 125.223C147.507 124.248 149.149 122.704 150.244 120.788C151.338 118.873 151.835 116.674 151.67 114.474C151.505 112.274 150.686 110.174 149.318 108.443V108.443C148.256 107.097 147.521 105.523 147.171 103.844C146.821 102.165 146.865 100.428 147.301 98.7694C147.737 97.1109 148.553 95.5763 149.683 94.2867C150.813 92.9971 152.228 91.9876 153.815 91.338C155.868 90.5117 157.627 89.0883 158.862 87.2519C160.098 85.4154 160.754 83.2505 160.746 81.037C160.738 78.8235 160.067 76.6633 158.818 74.8359C157.569 73.0084 155.8 71.5978 153.741 70.7864ZM146.879 81.0728C146.94 94.0365 143.155 106.727 136.003 117.54C128.852 128.352 118.654 136.802 106.701 141.819C94.7469 146.836 81.5739 148.196 68.8474 145.726C56.1209 143.257 44.4125 137.069 35.2028 127.945C25.993 118.821 19.6956 107.172 17.1068 94.4688C14.518 81.766 15.7542 68.5809 20.6589 56.5807C25.5636 44.5805 33.9167 34.3041 44.6618 27.0512C55.4069 19.7983 68.0614 15.8945 81.0251 15.8335C98.408 15.7743 115.104 22.6135 127.45 34.8503C139.797 47.0871 146.784 63.7219 146.879 81.1046V81.0728Z" fill="url(#paint3_linear_110_1349)"/>
<path d="M153.741 70.7864C152.147 70.1515 150.724 69.1553 149.581 67.8763C148.439 66.5972 147.61 65.0703 147.158 63.4159C146.707 61.7615 146.646 60.0248 146.98 58.3428C147.315 56.6608 148.035 55.0796 149.085 53.7236V53.7236C150.435 51.9787 151.233 49.8702 151.377 47.6686C151.52 45.467 151.003 43.2728 149.89 41.3674C148.778 39.462 147.122 37.9323 145.134 36.9747C143.147 36.0171 140.918 35.6752 138.735 35.9928V35.9928C137.039 36.2425 135.308 36.094 133.678 35.559C132.049 35.0241 130.567 34.1173 129.349 32.9105C128.131 31.7037 127.21 30.2301 126.66 28.6061C126.11 26.9821 125.945 25.2523 126.179 23.5537C126.476 21.3679 126.112 19.1435 125.136 17.1656C124.159 15.1877 122.614 13.5466 120.699 12.4527C118.783 11.3589 116.585 10.8621 114.385 11.0261C112.186 11.1901 110.085 12.0074 108.353 13.3733V13.3733C107.008 14.4358 105.434 15.1711 103.756 15.5211C102.078 15.8712 100.342 15.8264 98.6839 15.3904C97.0261 14.9543 95.4924 14.139 94.2038 13.0086C92.9151 11.8782 91.9068 10.4638 91.2585 8.87696V8.87696C90.4227 6.83514 88.9959 5.08962 87.1611 3.86433C85.3264 2.63904 83.1674 1.98986 80.9611 2.00012C78.7549 2.01038 76.602 2.67961 74.7787 3.9219C72.9554 5.1642 71.5449 6.9229 70.7281 8.9724V8.9724C70.0957 10.5592 69.1044 11.9781 67.8319 13.1176C66.5593 14.2572 65.0401 15.0865 63.3934 15.5405C61.7466 15.9946 60.0171 16.061 58.3404 15.7347C56.6636 15.4084 55.0853 14.6981 53.729 13.6596C51.9841 12.3095 49.8756 11.5115 47.674 11.368C45.4724 11.2246 43.2781 11.7421 41.3727 12.8544C39.4673 13.9666 37.9377 15.6228 36.9801 17.6104C36.0225 19.598 35.6805 21.8264 35.9982 24.0097C36.2437 25.7062 36.0919 27.4366 35.5548 29.0645C35.0176 30.6924 34.1098 32.1733 32.9028 33.3906C31.6958 34.6079 30.2226 35.5283 28.5993 36.0792C26.9761 36.6301 25.247 36.7966 23.5484 36.5655V36.5655C21.3619 36.2662 19.1358 36.6279 17.1565 37.6041C15.1772 38.5802 13.5351 40.1261 12.4415 42.0431C11.3479 43.96 10.8528 46.1602 11.0198 48.3608C11.1868 50.5615 12.0083 52.6618 13.3787 54.3917V54.3917C14.4409 55.7376 15.1756 57.312 15.525 58.9905C15.8743 60.6691 15.8286 62.4059 15.3915 64.0638C14.9544 65.7217 14.1379 67.2553 13.0064 68.5434C11.8749 69.8316 10.4594 70.839 8.87173 71.4863V71.4863C6.83032 72.3231 5.08551 73.7509 3.86116 75.5862C2.6368 77.4216 1.98875 79.581 2.00015 81.7872C2.01154 83.9935 2.68186 86.146 3.92511 87.9687C5.16836 89.7913 6.92783 91.2009 8.97777 92.0167V92.0167C10.5706 92.6502 11.9944 93.6452 13.1367 94.9233C14.2791 96.2014 15.1087 97.7275 15.5602 99.3812C16.0117 101.035 16.0726 102.771 15.7382 104.452C15.4037 106.133 14.6831 107.714 13.6332 109.069C12.2785 110.812 11.4764 112.92 11.33 115.123C11.1835 117.325 11.6995 119.521 12.8115 121.428C13.9234 123.335 15.5805 124.865 17.5696 125.823C19.5586 126.78 21.7886 127.12 23.9726 126.8V126.8C25.67 126.552 27.4016 126.703 29.0309 127.239C30.6602 127.775 32.1425 128.683 33.3611 129.89C34.5796 131.097 35.501 132.571 36.0525 134.195C36.604 135.82 36.7705 137.55 36.539 139.249V139.249C36.2419 141.434 36.6045 143.658 37.5804 145.635C38.5562 147.612 40.1006 149.252 42.0154 150.346C43.9302 151.439 46.1281 151.934 48.3267 151.769C50.5254 151.604 52.6245 150.786 54.3547 149.419V149.419C55.7008 148.357 57.2753 147.621 58.954 147.271C60.6328 146.921 62.3699 146.966 64.0284 147.402C65.6869 147.838 67.2215 148.653 68.5111 149.784C69.8008 150.914 70.8102 152.328 71.4598 153.915C72.3051 155.935 73.7308 157.659 75.5563 158.867C77.3818 160.076 79.5251 160.716 81.7145 160.706C83.904 160.696 86.0411 160.036 87.8553 158.81C89.6695 157.584 91.079 155.848 91.9054 153.82C92.5402 152.227 93.5364 150.803 94.8155 149.661C96.0946 148.519 97.6215 147.689 99.2759 147.238C100.93 146.786 102.667 146.725 104.349 147.06C106.031 147.394 107.612 148.115 108.968 149.165V149.165C110.712 150.514 112.82 151.311 115.02 151.455C117.22 151.598 119.414 151.082 121.318 149.971C123.223 148.86 124.753 147.206 125.712 145.22C126.67 143.234 127.014 141.008 126.699 138.825V138.825C126.45 137.128 126.598 135.397 127.133 133.768C127.668 132.138 128.575 130.655 129.781 129.437C130.988 128.218 132.461 127.296 134.085 126.745C135.709 126.193 137.439 126.027 139.138 126.259V126.259C141.324 126.558 143.549 126.198 145.528 125.223C147.507 124.248 149.149 122.704 150.244 120.788C151.338 118.873 151.835 116.674 151.67 114.474C151.505 112.274 150.686 110.174 149.318 108.443V108.443C148.256 107.097 147.521 105.523 147.171 103.844C146.821 102.165 146.865 100.428 147.301 98.7694C147.737 97.1109 148.553 95.5763 149.683 94.2867C150.813 92.9971 152.228 91.9876 153.815 91.338C155.868 90.5117 157.627 89.0883 158.862 87.2519C160.098 85.4154 160.754 83.2505 160.746 81.037C160.738 78.8235 160.067 76.6633 158.818 74.8359C157.569 73.0084 155.8 71.5978 153.741 70.7864ZM146.879 81.0728C146.94 94.0365 143.155 106.727 136.003 117.54C128.852 128.352 118.654 136.802 106.701 141.819C94.7469 146.836 81.5739 148.196 68.8474 145.726C56.1209 143.257 44.4125 137.069 35.2028 127.945C25.993 118.821 19.6956 107.172 17.1068 94.4688C14.518 81.766 15.7542 68.5809 20.6589 56.5807C25.5636 44.5805 33.9167 34.3041 44.6618 27.0512C55.4069 19.7983 68.0614 15.8945 81.0251 15.8335C98.408 15.7743 115.104 22.6135 127.45 34.8503C139.797 47.0871 146.784 63.7219 146.879 81.1046V81.0728Z" stroke="white" stroke-width="3" mask="url(#path-8-outside-1_110_1349)"/>
<path d="M39.2114 38.3786L41.0035 36.8515L46.73 41.8887L42.5942 35.526L44.3864 33.9883L51.2794 41.9841L50.0916 43.0446L44.906 36.8515L49.1478 43.6915L48.0874 44.6035L41.9579 39.3012L47.1754 45.3564L46.1149 46.3002L39.2114 38.3786Z" fill="url(#paint4_linear_110_1349)"/>
<path d="M53.1564 37.6469L49.169 30.6585L50.6113 29.8314L54.6622 36.9258C55.0334 37.5833 55.4469 37.6575 55.9029 37.403C56.3589 37.1485 56.4968 36.7455 56.1256 36.088L52.0747 28.9936L53.4639 28.1982L57.4512 35.1973C58.289 36.6607 58.0345 37.912 56.624 38.718C55.2136 39.5239 53.9941 39.1103 53.1564 37.6469Z" fill="url(#paint5_linear_110_1349)"/>
<path d="M61.0143 33.5429L60.8022 32.9702L62.2763 32.4294L62.5308 33.1187C62.7853 33.8292 63.1883 33.9671 63.6867 33.7868C64.1851 33.6065 64.4078 33.2354 64.1321 32.5036C63.8564 31.7719 63.3367 31.2629 62.0112 30.7433C60.2826 30.0752 59.5615 29.4177 59.1585 28.283C58.9948 27.9782 58.902 27.6403 58.8869 27.2945C58.8718 26.9488 58.9349 26.6042 59.0715 26.2862C59.208 25.9682 59.4145 25.6851 59.6756 25.458C59.9368 25.2309 60.2457 25.0656 60.5795 24.9744C62.096 24.423 63.1777 25.0486 63.7609 26.6393L63.9094 27.0529L62.4353 27.5831L62.2445 27.0741C61.99 26.3636 61.6082 26.2045 61.1098 26.3848C60.6114 26.5651 60.4311 26.9363 60.675 27.615C60.9189 28.2936 61.4597 28.7496 62.7959 29.2693C64.5138 29.9373 65.2137 30.5842 65.6591 31.8143C66.253 33.4368 65.7652 34.6352 64.2275 35.1972C62.6899 35.7592 61.587 35.123 61.0143 33.5429Z" fill="url(#paint6_linear_110_1349)"/>
<path d="M67.8012 22.9917L69.4237 22.6523L71.6401 32.9706L70.0176 33.3099L67.8012 22.9917Z" fill="url(#paint7_linear_110_1349)"/>
<path d="M75.1926 29.8952L74.7897 24.2323C74.746 23.9013 74.7705 23.5647 74.8616 23.2434C74.9528 22.9222 75.1087 22.6229 75.3197 22.3641C75.5308 22.1052 75.7925 21.8923 76.0888 21.7383C76.3852 21.5843 76.7099 21.4926 77.043 21.4687C77.3761 21.4448 77.7106 21.4892 78.0259 21.5993C78.3412 21.7094 78.6306 21.8829 78.8764 22.1089C79.1223 22.335 79.3193 22.6089 79.4554 22.9139C79.5914 23.2189 79.6637 23.5484 79.6678 23.8824L79.7526 24.9959L78.1831 25.1125L78.0983 23.893C78.0983 23.2037 77.6953 22.9386 77.1969 22.9704C76.6985 23.0022 76.3909 23.3204 76.444 24.0309L76.8575 29.9164C76.8575 30.6057 77.2605 30.8602 77.7589 30.8178C78.2574 30.7753 78.5649 30.489 78.5119 29.7573L78.4058 28.1454L79.9647 28.0394L80.0707 29.524C80.1144 29.8551 80.0899 30.1916 79.9987 30.5129C79.9076 30.8342 79.7517 31.1335 79.5407 31.3923C79.3296 31.6511 79.0679 31.8641 78.7715 32.0181C78.4752 32.172 78.1505 32.2638 77.8174 32.2877C77.4843 32.3116 77.1498 32.2671 76.8345 32.157C76.5192 32.0469 76.2298 31.8735 75.984 31.6474C75.7381 31.4214 75.5411 31.1474 75.405 30.8425C75.269 30.5375 75.1967 30.2079 75.1926 29.874V29.8952Z" fill="url(#paint8_linear_110_1349)"/>
<path d="M91.0464 22.207L93.4431 22.6948C95.0762 23.013 95.6912 24.0734 95.3625 25.7383L95.161 26.7988C94.8217 28.4531 93.846 29.1954 92.2235 28.8667L91.4494 28.7182L90.601 32.96L88.9785 32.6419L91.0464 22.207ZM92.5099 27.3502C93.0295 27.4563 93.3582 27.276 93.5067 26.5337L93.7506 25.3035C93.8991 24.5612 93.6658 24.2431 93.1567 24.1689L92.3826 24.0098L91.7463 27.1912L92.5099 27.3502Z" fill="url(#paint9_linear_110_1349)"/>
<path d="M100.962 24.6777L103.252 25.5685C103.588 25.6335 103.903 25.7787 104.17 25.9915C104.437 26.2044 104.649 26.4787 104.788 26.7911C104.926 27.1036 104.987 27.4448 104.965 27.7859C104.944 28.1269 104.84 28.4576 104.663 28.7499L104.429 29.3543C104.037 30.4148 103.464 30.892 102.669 30.9026C103.348 31.4435 103.316 32.2706 102.881 33.3841L102.213 35.1126C102.028 35.5084 101.927 35.938 101.916 36.3746L100.389 35.7913C100.41 35.3525 100.522 34.9228 100.718 34.5294L101.418 32.7266C101.768 31.8146 101.619 31.4116 100.909 31.1465L100.378 30.9344L98.7453 35.1763L97.1971 34.5718L100.962 24.6777ZM101.428 29.7149C102.012 29.9376 102.489 29.821 102.764 29.0362L103.061 28.2727C103.327 27.5728 103.21 27.2122 102.669 26.9577L101.959 26.682L100.898 29.4922L101.428 29.7149Z" fill="url(#paint10_linear_110_1349)"/>
<path d="M106.296 35.7913L109.159 31.0405C109.318 30.7344 109.538 30.4641 109.805 30.2463C110.073 30.0285 110.382 29.8678 110.714 29.7741C111.045 29.6804 111.393 29.6558 111.735 29.7016C112.077 29.7475 112.405 29.8629 112.701 30.0407C112.996 30.2186 113.252 30.4551 113.453 30.7357C113.653 31.0163 113.794 31.335 113.867 31.6721C113.939 32.0092 113.942 32.3577 113.874 32.6959C113.807 33.0341 113.671 33.3549 113.475 33.6386L110.612 38.3894C110.453 38.6955 110.233 38.9658 109.966 39.1836C109.698 39.4014 109.389 39.5621 109.057 39.6558C108.725 39.7495 108.378 39.7741 108.036 39.7283C107.694 39.6824 107.365 39.567 107.07 39.3891C106.775 39.2113 106.519 38.9748 106.318 38.6942C106.118 38.4136 105.977 38.0949 105.904 37.7578C105.832 37.4206 105.829 37.0722 105.896 36.734C105.964 36.3958 106.1 36.0749 106.296 35.7913V35.7913ZM109.127 37.6259L112.107 32.6948C112.499 32.0479 112.362 31.6343 111.916 31.3586C111.471 31.0829 111.025 31.1571 110.644 31.804L107.664 36.7351C107.271 37.382 107.409 37.7956 107.855 38.0713C108.3 38.347 108.745 38.241 109.127 37.5941V37.6259Z" fill="url(#paint11_linear_110_1349)"/>
<path d="M119.223 34.731L121.132 36.3959C122.383 37.4563 122.393 38.7077 121.28 39.9802L117.781 44.0099C117.596 44.3036 117.347 44.5511 117.052 44.7335C116.757 44.9159 116.425 45.0283 116.08 45.0621C115.734 45.0959 115.386 45.0501 115.062 44.9284C114.737 44.8067 114.445 44.6122 114.207 44.3599L112.298 42.695L119.223 34.731ZM115.172 43.2146C115.575 43.5539 115.988 43.5646 116.487 42.9919L120.082 38.8561C120.58 38.2835 120.517 37.8699 120.082 37.52L119.445 36.9685L114.504 42.6632L115.172 43.2146Z" fill="url(#paint12_linear_110_1349)"/>
<path d="M46.783 119.058L48.6494 120.511L44.8636 127.128L50.3249 121.826L52.2019 123.268L45.7332 131.624L44.4924 130.659L49.3917 124.297L43.5486 129.885L42.4882 129.026L46.4331 121.974L41.5338 128.337L40.3885 127.446L46.783 119.058Z" fill="url(#paint13_linear_110_1349)"/>
<path d="M51.4702 132.218L55.1924 125.071L56.6664 125.834L52.8912 133.088C52.5413 133.756 52.7003 134.148 53.1669 134.392C53.6335 134.636 54.0365 134.541 54.3865 133.873L58.1617 126.619L59.5827 127.351L55.8499 134.498C55.7168 134.814 55.5198 135.099 55.2713 135.335C55.0228 135.57 54.7281 135.752 54.4059 135.868C54.0836 135.985 53.7408 136.033 53.3989 136.011C53.0571 135.988 52.7236 135.895 52.4196 135.737C52.1155 135.579 51.8475 135.36 51.6323 135.093C51.4171 134.826 51.2594 134.518 51.1693 134.188C51.0791 133.857 51.0583 133.512 51.1083 133.173C51.1583 132.834 51.2779 132.509 51.4596 132.218H51.4702Z" fill="url(#paint14_linear_110_1349)"/>
<path d="M60.0917 136.259L60.2826 135.686L61.7673 136.184L61.534 136.874C61.3007 137.584 61.534 137.934 62.0324 138.114C62.5308 138.295 62.9338 138.114 63.1777 137.383C63.4216 136.651 63.3155 135.919 62.5838 134.679C61.6612 133.077 61.5234 132.123 61.8839 130.978C61.9449 130.636 62.0824 130.312 62.2863 130.031C62.4902 129.749 62.7551 129.518 63.0612 129.354C63.3673 129.189 63.7066 129.097 64.0537 129.082C64.4008 129.068 64.7466 129.132 65.0653 129.27C66.5923 129.779 67.0483 130.946 66.5181 132.547L66.3802 132.961L64.885 132.473L65.0547 131.953C65.2986 131.243 65.0547 130.893 64.5987 130.702C64.1427 130.511 63.7291 130.702 63.5382 131.402C63.3473 132.102 63.4534 132.77 64.1745 134.01C65.1077 135.612 65.2349 136.545 64.8426 137.796C64.7815 138.139 64.6445 138.464 64.4416 138.747C64.2387 139.03 63.9751 139.264 63.67 139.431C63.365 139.599 63.0262 139.697 62.6786 139.716C62.331 139.736 61.9834 139.678 61.6612 139.546C59.9751 139.037 59.5085 137.86 60.0917 136.259Z" fill="url(#paint15_linear_110_1349)"/>
<path d="M70.6327 130.946L72.2658 131.253L70.2721 141.625L68.639 141.306L70.6327 130.946Z" fill="url(#paint16_linear_110_1349)"/>
<path d="M75.3623 139.907L75.691 134.244C75.6864 133.907 75.7512 133.573 75.8814 133.263C76.0116 132.953 76.2043 132.672 76.4476 132.44C76.6909 132.207 76.9796 132.027 77.2955 131.911C77.6115 131.795 77.948 131.745 78.284 131.765C78.62 131.785 78.9484 131.873 79.2486 132.026C79.5488 132.178 79.8144 132.39 80.0288 132.65C80.2432 132.909 80.4019 133.21 80.4948 133.534C80.5878 133.857 80.6131 134.197 80.5691 134.53L80.5055 135.591L78.936 135.506L79.0102 134.286C79.0102 133.586 78.7345 133.279 78.2361 133.226C77.7377 133.173 77.3984 133.459 77.3559 134.149L77.006 140.034C77.006 140.723 77.2817 141.02 77.7801 141.094C78.2785 141.169 78.6179 140.872 78.6603 140.172L78.7557 138.571L80.3252 138.655L80.2298 140.151C80.2204 140.477 80.1456 140.798 80.0098 141.095C79.874 141.392 79.68 141.658 79.4393 141.879C79.1986 142.099 78.916 142.269 78.6084 142.379C78.3008 142.488 77.9744 142.535 77.6485 142.515C77.3226 142.496 77.0039 142.412 76.7112 142.267C76.4186 142.123 76.1579 141.921 75.9447 141.673C75.7315 141.426 75.5701 141.139 75.47 140.828C75.37 140.517 75.3334 140.19 75.3623 139.864V139.907Z" fill="url(#paint17_linear_110_1349)"/>
<path d="M89.1058 131.508L91.5024 131.041C91.8374 130.937 92.192 130.913 92.5381 130.97C92.8842 131.027 93.2122 131.164 93.4962 131.37C93.7802 131.575 94.0124 131.845 94.1743 132.156C94.3363 132.467 94.4236 132.811 94.4293 133.162L94.6308 134.222C94.9595 135.887 94.3338 136.948 92.7007 137.255L91.9266 137.404L92.7538 141.646L91.1207 141.964L89.1058 131.508ZM92.4144 135.75C92.934 135.643 93.1673 135.357 93.0189 134.615L92.7856 133.385C92.6371 132.642 92.3084 132.462 91.7993 132.568L91.0252 132.717L91.6403 135.898L92.4144 135.75Z" fill="url(#paint18_linear_110_1349)"/>
<path d="M97.0698 129.684L99.3816 128.836C99.6746 128.659 100.006 128.555 100.348 128.534C100.69 128.513 101.031 128.575 101.344 128.714C101.657 128.854 101.931 129.067 102.143 129.336C102.355 129.604 102.499 129.92 102.563 130.257L102.786 130.872C102.994 131.239 103.078 131.664 103.024 132.082C102.971 132.501 102.783 132.891 102.489 133.194V133.194C103.358 133.194 103.878 133.788 104.292 134.902L104.938 136.641C105.059 137.06 105.265 137.45 105.543 137.786L103.963 138.369C103.686 138.026 103.484 137.629 103.369 137.203L102.711 135.389C102.372 134.467 101.99 134.276 101.28 134.53L100.75 134.732L102.308 138.974L100.75 139.546L97.0698 129.684ZM100.76 133.141C101.343 132.929 101.598 132.547 101.301 131.752L101.025 130.988C100.76 130.278 100.41 130.055 99.8588 130.257L99.1483 130.522L100.209 133.353L100.76 133.141Z" fill="url(#paint19_linear_110_1349)"/>
<path d="M108.735 133.544L105.999 128.719C105.811 128.43 105.685 128.107 105.627 127.767C105.57 127.428 105.582 127.081 105.663 126.747C105.744 126.413 105.893 126.099 106.1 125.824C106.307 125.55 106.568 125.32 106.867 125.15C107.166 124.98 107.497 124.873 107.838 124.835C108.18 124.797 108.526 124.83 108.855 124.931C109.184 125.031 109.489 125.198 109.751 125.421C110.013 125.644 110.226 125.918 110.379 126.227L113.125 131.062C113.305 131.351 113.425 131.674 113.478 132.01C113.53 132.347 113.514 132.691 113.43 133.021C113.345 133.351 113.195 133.661 112.989 133.931C112.782 134.202 112.522 134.428 112.226 134.595C111.929 134.763 111.602 134.869 111.263 134.906C110.925 134.944 110.582 134.913 110.256 134.815C109.93 134.716 109.627 134.553 109.365 134.335C109.104 134.116 108.889 133.847 108.735 133.544V133.544ZM111.736 131.974L108.873 126.99C108.502 126.333 108.077 126.248 107.611 126.513C107.144 126.778 107.006 127.181 107.377 127.838L110.219 132.854C110.601 133.512 111.025 133.597 111.481 133.332C111.937 133.066 112.107 132.632 111.736 131.974V131.974Z" fill="url(#paint20_linear_110_1349)"/>
<path d="M112.054 122.091L114.026 120.5C114.274 120.256 114.574 120.072 114.904 119.962C115.233 119.853 115.584 119.82 115.928 119.867C116.272 119.914 116.601 120.04 116.889 120.234C117.177 120.428 117.417 120.686 117.59 120.988L120.941 125.145C122.001 126.46 121.938 127.69 120.644 128.729L118.671 130.32L112.054 122.091ZM119.679 127.573C120.092 127.245 120.167 126.831 119.679 126.248L116.243 122.006C115.766 121.423 115.352 121.412 114.938 121.741L114.281 122.271L119.011 128.146L119.679 127.573Z" fill="url(#paint21_linear_110_1349)"/>
<path d="M136.423 69.1743L129.827 88.008L136.328 83.7344L131.238 103.925L143.062 77.9019L135.426 81.2423L136.423 69.1743Z" fill="#00E0B8"/>
<path d="M26.242 69.1743L32.838 88.008L26.3374 83.7344L31.417 103.925L19.6035 77.9019L27.2282 81.2423L26.242 69.1743Z" fill="#00E0B8"/>
<path d="M174.368 95.824H189.56V97.792H192.224V93.616H183.464C183.2 92.92 182.768 92.128 182.36 91.48L179.864 92.176C180.104 92.608 180.368 93.112 180.56 93.616H171.8V97.792H174.368V95.824ZM177.008 108.616H186.992V109.384H177.008V108.616ZM177.008 106.528H186.992V107.272H177.008V106.528ZM177.008 104.464H186.992V105.16H177.008V104.464ZM189.896 110.8V103.024H174.248V110.8H177.68C175.952 111.448 173.48 112 171.368 112.288C171.872 112.816 172.544 113.68 172.88 114.232C175.664 113.824 179.024 112.888 181.04 111.856L179.6 110.8H183.992L183.008 111.88C185.768 112.6 188.576 113.56 190.304 114.208L192.248 112.456C190.832 112 188.72 111.376 186.608 110.8H189.896ZM182.888 100.912L182.984 100.144H186.056L185.984 100.912H182.888ZM177.488 100.144H180.656L180.56 100.912H177.392L177.488 100.144ZM180.872 98.032L180.8 98.728H177.656L177.752 98.032H180.872ZM186.176 98.728H183.152L183.2 98.032H186.224L186.176 98.728ZM188.84 98.416L189.008 96.592H175.424L175.184 98.416H171.128V100.456H174.896L174.656 102.328H188.456L188.648 100.456H192.992V98.416H188.84ZM217.016 96.04C216.656 94.912 215.576 93.256 214.64 92.008L212.48 93.136C213.392 94.408 214.352 96.184 214.736 97.288L217.016 96.04ZM204.992 95.632H203.72V94.072H204.992V95.632ZM207.128 92.296H201.704V97.432H207.128V92.296ZM198.728 95.632H197.48V94.072H198.728V95.632ZM200.816 92.296H195.44V97.432H200.816V92.296ZM198.032 103.648H200.024V104.944H198.032V103.648ZM198.032 100.432H200.024V101.68H198.032V100.432ZM204.464 101.68H202.424V100.432H204.464V101.68ZM204.464 104.944H202.424V103.648H204.464V104.944ZM207.536 110.728V108.232H202.568V107.032H206.936V98.344H195.68V107.032H199.856V108.232H194.744V110.728H199.856V114.088H202.568V110.728H207.536ZM214.544 100.792C214.088 102.256 213.44 103.72 212.648 105.088C212.456 103.792 212.288 102.328 212.144 100.744L217.328 100.096L217.04 97.48L211.928 98.104C211.808 96.136 211.736 94 211.712 91.816H209C209.048 94.168 209.144 96.376 209.264 98.416L207.176 98.68L207.464 101.32L209.456 101.08C209.696 103.792 210.032 106.168 210.488 108.112C209.096 109.696 207.464 111.016 205.664 111.856C206.408 112.384 207.248 113.2 207.728 113.848C209.048 113.104 210.272 112.144 211.376 110.992C212.192 112.936 213.296 114.04 214.736 114.112C215.768 114.136 216.992 113.2 217.592 109.024C217.136 108.76 215.984 108.04 215.528 107.416C215.408 109.576 215.144 110.704 214.76 110.704C214.256 110.656 213.8 109.888 213.392 108.544C214.808 106.552 215.96 104.296 216.704 101.992L214.544 100.792ZM225.488 94.576C224.528 93.784 222.584 92.68 221.264 91.984L219.896 94.072C221.24 94.864 223.136 96.088 224.048 96.904L225.488 94.576ZM224.216 100.792C223.256 100.048 221.336 98.992 220.04 98.392L218.72 100.528C220.088 101.248 221.96 102.4 222.872 103.192L224.216 100.792ZM223.064 104.272C221.84 107.032 220.304 110.008 219.176 111.784L221.312 113.752C222.56 111.424 223.856 108.712 224.936 106.216L223.064 104.272ZM238.016 91.696C235.208 92.704 230.648 93.568 226.544 94.096V100.168C226.544 103.864 226.352 109.168 223.952 112.84C224.6 113.056 225.728 113.752 226.232 114.208C228.728 110.272 229.136 104.2 229.136 100.168V96.256C232.976 95.776 237.104 95.032 240.296 94.024L238.016 91.696ZM239.384 101.488C238.904 102.112 238.136 102.904 237.392 103.6C237.08 102.328 236.84 100.936 236.696 99.52C237.848 99.28 239 98.968 240.008 98.608L237.8 96.376C236.072 97.072 233.288 97.72 230.744 98.08L230.768 98.104H230.744V109.816C230.744 110.776 230.264 111.28 229.808 111.52C230.216 112.072 230.696 113.2 230.864 113.848C231.344 113.416 232.112 112.96 236.504 111.112C236.288 110.584 236.048 109.6 235.928 108.88L233.24 109.936V100.168C233.6 100.096 233.984 100.048 234.344 99.976C235.064 105.88 236.336 110.872 239.528 113.608C239.96 112.84 240.92 111.712 241.544 111.184C239.96 110.056 238.88 108.208 238.088 106C239.096 105.328 240.224 104.416 241.4 103.6L239.384 101.488ZM250.976 95.632H247.688L249.272 94.624C248.816 93.76 247.928 92.44 247.136 91.48L245 92.656C245.648 93.568 246.416 94.744 246.872 95.632H242.816V97.888H250.976V95.632ZM250.208 98.968H243.728V101.128H250.208V98.968ZM243.728 104.344H250.208V102.184H243.728V104.344ZM248.216 107.776V110.464H245.792V107.776H248.216ZM250.376 105.496H243.68V113.776H245.792V112.768H250.376V105.496ZM256.76 98.224H259.304V99.28H256.76V98.224ZM256.76 95.392H259.304V96.328H256.76V95.392ZM261.272 104.176V105.28H259.352V104.176H261.272ZM259.352 108.232V107.032H261.272V108.232H259.352ZM254.912 107.032H256.736V108.232H254.912V107.032ZM256.736 104.176V105.28H254.912V104.176H256.736ZM265.16 101.296V99.28H261.968V98.224H264.248V96.328H261.968V95.392H264.632V93.376H261.968V91.696H259.304V93.376H256.76V91.696H254.168V93.376H251.456V95.392H254.168V96.328H252.032V98.224H254.168V99.28H251.048V101.296H256.736V102.184H252.272V108.232H251V110.224H252.272V114.112H254.912V110.224H261.272V111.472C261.272 111.736 261.176 111.832 260.84 111.832C260.528 111.832 259.496 111.832 258.512 111.808C258.848 112.432 259.184 113.416 259.28 114.088C260.936 114.088 262.112 114.064 262.928 113.68C263.768 113.296 263.984 112.696 263.984 111.496V110.224H265.136V108.232H263.984V102.184H259.352V101.296H265.16ZM273.104 106.408V109.336H270.32V106.408H273.104ZM272.864 100.048H270.32V97.6H272.864V100.048ZM270.32 102.448H275.384V95.2H272.36C272.792 94.24 273.248 93.064 273.632 91.936L270.464 91.672C270.368 92.704 270.08 94.048 269.792 95.2H267.8V113.224H270.32V111.736H275.624V104.008H270.32V102.448ZM289.016 95.368V92.776H276.032V95.368H281.216V97.504H276.848V110.392H279.44V100.072H281.216V114.064H283.88V100.072H285.776V107.824C285.776 108.064 285.704 108.136 285.488 108.136C285.296 108.136 284.696 108.136 284.096 108.112C284.432 108.76 284.768 109.816 284.816 110.56C286.04 110.56 286.88 110.536 287.552 110.104C288.248 109.672 288.416 108.976 288.416 107.872V97.504H283.88V95.368H289.016ZM300.392 100.552C299.696 99.52 298.28 98.032 297.032 96.856C297.44 95.68 297.776 94.408 298.04 93.112L295.16 92.656C294.536 96.4 293.072 99.688 290.744 101.608C291.392 102.064 292.496 103.072 292.976 103.576C294.152 102.496 295.136 101.104 295.952 99.496C296.936 100.6 297.944 101.776 298.472 102.64L300.392 100.552ZM303.44 107.152H311.144V104.44H303.44V101.776C303.992 102.256 304.616 102.808 304.904 103.168C305.936 102.232 306.824 101.056 307.568 99.712C308.936 101.056 310.304 102.544 311.048 103.576L313.04 101.488C312.104 100.36 310.28 98.608 308.744 97.216C309.224 95.992 309.608 94.648 309.896 93.256L307.04 92.776C306.464 95.896 305.288 98.656 303.44 100.504V91.912H300.488V104.44H292.928V107.152H300.488V110.512H291.2V113.248H312.944V110.512H303.44V107.152ZM327.536 106.288H333.392V107.32H327.536V106.288ZM333.392 98.824V99.832H327.536V98.824H333.392ZM333.392 102.256H327.536V101.296H333.392V102.256ZM327.536 103.768H333.392V104.752H327.536V103.768ZM317.84 97.72C318.416 97 319.016 96.232 319.568 95.392C320.624 96.112 321.728 96.952 322.544 97.72H317.84ZM337.208 109.744V107.32H335.84V97.024H331.016L331.232 95.992H336.752V93.712H331.712C331.808 93.088 331.928 92.464 332.024 91.84L329.24 91.744C329.192 92.344 329.12 93.016 329.048 93.712H324.512V95.992H328.736C328.688 96.352 328.616 96.688 328.568 97.024H325.232V107.32H323.744V109.744H326.888C325.976 110.344 324.776 110.944 323.672 111.424L323.528 109.312L320.72 109.84V104.272H323.432V101.848H320.72V100.096H322.664V97.84C322.856 98.008 323.024 98.176 323.168 98.344L324.296 96.04C323.456 95.248 322.112 94.24 320.744 93.4C320.912 93.088 321.056 92.8 321.2 92.488L319.184 91.528C318.128 93.736 316.28 95.848 314.552 97.144C314.864 97.84 315.392 99.424 315.536 100.048C315.92 99.712 316.304 99.352 316.688 98.968V100.096H318.44V101.848H315.368V104.272H318.44V110.272C317.168 110.488 315.992 110.704 315.056 110.848L315.584 113.392C317.672 112.936 320.336 112.336 322.928 111.712L322.76 111.784C323.312 112.36 324.2 113.584 324.56 114.16C326.24 113.272 328.496 111.784 329.96 110.536L328.28 109.744H332.192L331.04 111.136C332.624 112.072 334.616 113.44 335.624 114.28L337.28 111.904C336.488 111.28 335.096 110.488 333.776 109.744H337.208ZM315.56 105.616C315.896 106.912 316.208 108.616 316.304 109.768L318.08 109.216C317.96 108.136 317.6 106.408 317.24 105.112L315.56 105.616ZM322.448 109.456C322.808 108.448 323.192 106.84 323.624 105.448L321.68 104.896C321.536 106.12 321.2 107.848 320.888 108.928L322.448 109.456ZM347.984 108.136C350.96 107.272 352.712 105.04 352.712 102.328C352.712 100.312 351.824 99.04 350.12 99.04C348.848 99.04 347.768 99.856 347.768 101.2C347.768 102.568 348.848 103.336 350.048 103.336C350.144 103.336 350.24 103.336 350.312 103.312C350.168 104.584 349.088 105.616 347.216 106.216L347.984 108.136ZM378.8 102.88H380.456L380.264 102.976C380.528 103.216 380.816 103.48 381.104 103.768L378.8 103.792V102.88ZM373.352 101.296V100.312H376.04V101.296H373.352ZM373.352 97.84H376.04V98.824H373.352V97.84ZM381.536 97.84V98.824H378.8V97.84H381.536ZM381.536 101.296H378.8V100.312H381.536V101.296ZM382.16 105.736L382.88 105.712C383.096 106 383.312 106.264 383.456 106.504L385.496 105.376C384.992 104.656 384.104 103.72 383.216 102.88H384.272V96.28H378.8V95.368H384.968V93.304H378.8V91.84H376.04V93.304H370.184L370.448 92.608L367.736 91.744C366.512 95.176 364.448 98.584 362.288 100.744C362.768 101.416 363.536 103 363.8 103.696C364.352 103.12 364.904 102.472 365.432 101.776V114.04H368.144V97.552C368.744 96.472 369.296 95.344 369.776 94.24V95.368H376.04V96.28H370.736V102.88H376.04V103.84C373.664 103.864 371.48 103.888 369.776 103.888L370.016 106.024C372.56 105.976 375.944 105.904 379.424 105.808V106.84H369.272V109H372.608L371.384 109.768C372.44 110.752 373.64 112.144 374.192 113.056L376.448 111.616C375.944 110.872 374.984 109.864 374.072 109H379.424V111.4C379.424 111.664 379.304 111.76 378.944 111.784C378.608 111.784 377.384 111.784 376.28 111.736C376.616 112.432 376.952 113.392 377.072 114.112C378.8 114.112 380.072 114.112 380.984 113.752C381.92 113.392 382.16 112.744 382.16 111.472V109H385.208V106.84H382.16V105.736ZM406.64 91.816C403.688 92.488 398.84 93.016 394.64 93.232C394.904 93.808 395.24 94.744 395.288 95.368C399.584 95.176 404.696 94.72 408.32 93.904L406.64 91.816ZM403.184 98.224C403.016 97.408 402.608 96.112 402.2 95.104L399.992 95.608C400.352 96.64 400.712 98.008 400.856 98.848L403.184 98.224ZM396.92 101.416H406.28V103H408.92V99.088H406.424C407.072 98.032 407.72 96.784 408.368 95.56L405.728 94.792C405.32 96.088 404.552 97.84 403.856 99.088H397.136L398.936 98.44C398.696 97.624 398.096 96.376 397.568 95.416L395.408 96.136C395.888 97.048 396.392 98.248 396.608 99.088H394.4V102.976H396.92V101.416ZM393.992 101.776L392.072 102.328V98.848H394.136V96.208H392.072V91.696H389.432V96.208H386.864V98.848H389.432V103.024C388.352 103.312 387.392 103.552 386.576 103.744L387.2 106.456L389.432 105.832V111.064C389.432 111.376 389.336 111.472 389.048 111.472C388.76 111.496 387.944 111.496 387.056 111.448C387.416 112.216 387.728 113.392 387.8 114.088C389.336 114.112 390.392 114.016 391.088 113.56C391.832 113.104 392.072 112.384 392.072 111.064V105.04C392.816 104.824 393.608 104.608 394.352 104.368L393.992 101.776ZM404.024 105.784C403.352 106.936 402.44 107.872 401.312 108.688C400.28 107.872 399.416 106.912 398.792 105.784H404.024ZM405.896 103.36L405.44 103.456H395.648V105.784H397.568L396.224 106.168C396.968 107.656 397.88 108.952 398.984 110.008C397.352 110.752 395.504 111.256 393.464 111.568C393.92 112.144 394.496 113.344 394.712 114.064C397.112 113.584 399.32 112.84 401.216 111.76C402.92 112.864 404.96 113.632 407.36 114.112C407.696 113.344 408.464 112.192 409.064 111.64C407 111.352 405.2 110.824 403.64 110.08C405.392 108.568 406.76 106.576 407.576 104.008L405.896 103.36ZM427.04 105.472V107.056H417.08V105.472H427.04ZM417.08 110.944V109.216H427.04V110.944H417.08ZM414.224 114.136H417.08V113.296H427.04V114.112H430.04V103.096H414.224V114.136ZM425.648 96.136C425.384 97.072 424.952 98.2 424.568 99.088H419.624C419.456 98.224 418.976 97.048 418.4 96.136H425.648ZM427.688 99.088C428.072 98.344 428.48 97.504 428.888 96.616L426.68 96.136H431.648V93.616H423.92C423.68 92.896 423.32 92.08 422.912 91.408L419.936 91.888C420.2 92.392 420.488 93.016 420.68 93.616H412.592V96.136H417.872L415.544 96.592C415.928 97.336 416.288 98.272 416.504 99.088H411.248V101.632H432.776V99.088H427.688ZM442.52 103.528C442.376 102.352 442.04 100.624 441.656 99.256L439.856 99.664C439.976 100.144 440.096 100.672 440.192 101.224L438.296 101.416C439.808 99.736 441.32 97.744 442.448 95.776L440.432 94.672C440.12 95.368 439.712 96.064 439.328 96.736L438.08 96.832C438.92 95.608 439.736 94.12 440.336 92.728L438.128 91.96C437.6 93.784 436.544 95.656 436.208 96.16C435.872 96.664 435.56 97.024 435.2 97.096C435.464 97.672 435.824 98.704 435.944 99.16C436.208 99.016 436.64 98.896 438.056 98.704C437.456 99.544 436.928 100.192 436.688 100.48C436.088 101.176 435.632 101.632 435.128 101.752C435.392 102.304 435.752 103.408 435.872 103.816C436.28 103.624 436.952 103.456 440.504 102.976C440.552 103.336 440.6 103.672 440.624 103.96L442.52 103.528ZM441.44 107.92C439.976 109.312 437.192 110.512 434.528 111.04C435.128 111.592 435.968 112.696 436.4 113.392C439.256 112.6 442.064 110.848 443.744 108.784L441.44 107.92ZM456.8 107.2V104.848H447.512V103.696H444.656V104.848H435.152V107.2H444.656V114.016H447.512V107.2H456.8ZM448.736 109.408C450.872 110.584 453.704 112.384 455.024 113.56L456.848 111.52C455.408 110.368 452.504 108.688 450.416 107.632L448.736 109.408ZM446.888 97.456H445.088V95.848H446.888V97.456ZM446.888 101.08H445.088V99.4H446.888V101.08ZM446.816 93.76L447.584 91.936L444.992 91.504C444.944 92.152 444.776 92.992 444.584 93.76H442.664V103.168H449.408V93.76H446.816ZM454.256 99.976C454.376 100.432 454.496 100.936 454.616 101.464L452.744 101.632C454.304 99.976 455.84 97.936 457.04 95.968L454.976 94.792C454.664 95.44 454.304 96.088 453.968 96.688L452.36 96.832C453.2 95.584 454.064 94.072 454.64 92.584L452.336 91.936C451.808 93.784 450.728 95.704 450.392 96.208C450.08 96.712 449.744 97.072 449.408 97.168C449.672 97.744 450.032 98.8 450.152 99.28C450.44 99.112 450.92 98.992 452.576 98.752C451.952 99.64 451.4 100.312 451.136 100.6C450.536 101.272 450.08 101.728 449.576 101.848C449.84 102.424 450.2 103.552 450.32 104.008C450.728 103.792 451.424 103.648 455 103.264C455.048 103.6 455.096 103.912 455.12 104.2L457.04 103.696C456.848 102.568 456.44 100.84 456.032 99.52L454.256 99.976ZM468.128 91.696C468.032 95.752 468.488 106.504 458.744 111.712C459.704 112.36 460.616 113.272 461.12 114.04C466.112 111.112 468.632 106.768 469.952 102.544C471.344 106.672 474.008 111.352 479.336 113.896C479.72 113.08 480.536 112.12 481.424 111.424C473.048 107.728 471.584 98.68 471.248 95.44C471.344 94 471.392 92.704 471.416 91.696H468.128ZM489.968 109.432C488.504 110.32 485.72 111.136 483.32 111.472C483.896 112 484.64 112.936 485 113.536C487.472 112.96 490.352 111.712 491.984 110.344L489.968 109.432ZM496.424 110.632C498.44 111.472 501.248 112.744 502.64 113.536L504.656 111.976C503.12 111.208 500.288 110.008 498.344 109.288L496.424 110.632ZM497.432 97.816C497.096 98.392 496.592 99.112 496.208 99.664L497.072 99.928H490.52L491.816 99.616C491.624 99.112 491.24 98.416 490.856 97.816H497.432ZM495.392 106.288V105.232H502.592V103.168H495.392V102.088H503.72V99.928H499.088C499.52 99.496 500.024 98.968 500.552 98.392L498.296 97.816H504.632V95.584H501.536C502.136 94.744 502.784 93.664 503.456 92.56L500.456 91.864C500.12 92.896 499.472 94.36 498.92 95.32L499.784 95.584H497.648V91.672H494.96V95.584H493.16V91.672H490.52V95.584H488.312L489.464 95.152C489.152 94.24 488.36 92.8 487.64 91.792L485.192 92.608C485.744 93.52 486.368 94.672 486.728 95.584H483.464V97.816H489.584L487.976 98.176C488.288 98.704 488.648 99.376 488.864 99.928H484.448V102.088H492.56V103.168H485.648V105.232H492.56V106.288H483.416V108.64H492.56V114.112H495.392V108.64H504.704V106.288H495.392ZM512.36 98.656H516.56V100.384H512.36V98.656ZM512.36 94.792H516.56V96.52H512.36V94.792ZM523.64 96.52H519.44V94.792H523.64V96.52ZM523.64 100.384H519.44V98.656H523.64V100.384ZM526.616 102.688V92.488H509.504V102.688H513.32C511.616 104.152 509.24 105.4 506.84 106.096C507.464 106.696 508.304 107.752 508.712 108.448C510.248 107.896 511.712 107.152 513.08 106.216V107.08C513.08 108.616 512.6 110.632 508.592 111.952C509.216 112.48 510.176 113.56 510.56 114.256C515.336 112.504 516.032 109.48 516.032 107.2V105.544H513.992C515.072 104.68 516.08 103.744 516.872 102.688H519.344C520.112 103.768 521.072 104.704 522.152 105.568H520.352V114.016H523.328V106.432C524.576 107.248 525.944 107.896 527.384 108.376C527.816 107.608 528.68 106.504 529.28 105.928C526.808 105.304 524.432 104.128 522.704 102.688H526.616ZM548.768 103.6C548.264 102.616 547.232 101.152 546.248 99.88C546.992 98.776 547.832 97.432 548.552 96.208L546.152 95.656C545.6 96.784 544.568 98.512 543.608 99.904C544.856 101.536 545.984 103.312 546.512 104.536L548.768 103.6ZM542.12 95.608C541.568 96.76 540.584 98.512 539.6 99.952C540.848 101.608 541.904 103.384 542.432 104.632L544.712 103.744C544.208 102.712 543.248 101.224 542.24 99.904C543.008 98.776 543.824 97.432 544.544 96.184L542.12 95.608ZM552.992 103.648C552.44 102.64 551.336 101.176 550.256 99.904C551.048 98.776 551.912 97.456 552.656 96.184L550.208 95.608C549.632 96.76 548.576 98.536 547.568 99.952C548.936 101.584 550.16 103.384 550.736 104.632L552.992 103.648ZM552.92 92.68H539.984V95.224H552.92V92.68ZM540.224 105.808C539.984 104.536 539.336 102.448 538.736 100.864L536.696 101.512C536.888 102.088 537.104 102.736 537.272 103.384L534.752 103.696C536.552 101.584 538.304 99.016 539.648 96.544L537.296 95.104C536.84 96.16 536.264 97.216 535.688 98.224L534.104 98.344C535.304 96.64 536.456 94.576 537.32 92.608L534.848 91.576C534.008 94.12 532.496 96.784 531.992 97.48C531.512 98.2 531.104 98.656 530.624 98.8C530.912 99.448 531.32 100.648 531.464 101.152C531.824 100.984 532.352 100.84 534.152 100.624C533.48 101.584 532.928 102.28 532.64 102.616C531.896 103.504 531.368 104.032 530.768 104.176C531.08 104.896 531.512 106.168 531.656 106.672C532.184 106.408 533.048 106.24 537.848 105.52C537.92 105.904 537.992 106.264 538.04 106.552L540.224 105.808ZM531.704 107.44C531.56 109.456 531.272 111.688 530.696 113.128C531.296 113.32 532.424 113.656 532.928 113.944C533.432 112.408 533.864 110.032 534.032 107.8L531.704 107.44ZM534.44 107.8C534.68 109.36 534.92 111.448 534.944 112.768L537.128 112.336C537.056 110.992 536.768 109 536.48 107.392L534.44 107.8ZM536.912 107.272C537.32 108.472 537.776 110.008 537.944 111.016L539.96 110.296C539.744 109.312 539.288 107.824 538.856 106.648L536.912 107.272ZM547.76 110.92V107.608H552.2V105.064H540.56V107.608H544.88V110.92H539.456V113.536H553.184V110.92H547.76ZM556.184 112.456C556.592 111.112 556.904 108.832 557.048 107.248L555.632 106.744C555.464 108.328 555.104 110.536 554.648 111.928L556.184 112.456ZM557.312 107.248C557.408 108.64 557.48 110.464 557.432 111.664L558.68 111.52C558.68 110.32 558.608 108.52 558.488 107.152L557.312 107.248ZM558.728 107.08C559.016 108.304 559.304 109.936 559.376 110.992L560.576 110.752C560.48 109.72 560.168 108.136 559.88 106.888L558.728 107.08ZM558.08 102.112H559.568V103.624H558.08V102.112ZM559.568 94.912V96.496H558.08V94.912H559.568ZM559.568 100.024H558.08V98.608H559.568V100.024ZM568.28 96.952C569.12 96.28 569.912 95.56 570.584 94.792C571.4 95.536 572.312 96.256 573.248 96.952H568.28ZM566.6 106.696C566.168 108.976 565.256 111.064 563.84 112.408C564.128 111.304 564.248 109 564.368 104.536C564.392 104.248 564.392 103.624 564.392 103.624H561.728V102.112H563.864V100.024H561.728V98.608H563.792V97.288C564.32 97.72 565.04 98.488 565.376 98.944C565.928 98.608 566.48 98.272 567.032 97.912V99.112H574.088V97.528C574.832 98.032 575.576 98.464 576.32 98.848C576.488 98.128 576.968 96.88 577.376 96.232C575.528 95.536 573.44 94.264 572 92.992C572.168 92.752 572.336 92.512 572.48 92.248L569.936 91.36C568.664 93.448 566.336 95.632 563.792 97.048V96.496H561.728V94.912H564.176V92.584H555.872V105.952H562.136C562.088 107.104 562.064 108.064 562.016 108.832C561.8 108.088 561.488 107.2 561.176 106.504L560.168 106.84C560.552 107.8 560.96 109.096 561.128 109.936L561.968 109.624C561.872 110.872 561.776 111.448 561.632 111.688C561.464 111.928 561.296 111.952 561.032 111.952C560.792 111.952 560.288 111.952 559.688 111.88C559.976 112.456 560.216 113.344 560.24 113.992C561.008 114.016 561.752 113.992 562.232 113.896C562.784 113.824 563.192 113.632 563.552 113.104C563.648 112.984 563.72 112.816 563.792 112.576C564.344 112.984 565.232 113.704 565.592 114.112C566.384 113.296 567.08 112.264 567.656 111.064C568.328 111.568 568.976 112.144 569.36 112.552L570.752 110.704C570.272 110.176 569.36 109.48 568.496 108.952C568.688 108.352 568.856 107.728 569 107.104L566.6 106.696ZM572.768 102.16H574.28V104.416H572.768V102.16ZM570.92 106.216H576.248V100.384H570.92V106.216ZM566.864 102.16H568.184V104.416H566.864V102.16ZM565.016 106.216H570.152V100.384H565.016V106.216ZM572.456 106.576C572.096 108.976 571.28 111.16 569.888 112.528C570.488 112.888 571.544 113.68 571.952 114.112C572.48 113.536 572.96 112.816 573.368 112.048C574.184 112.672 575 113.344 575.456 113.848L577.112 111.904C576.488 111.304 575.336 110.464 574.328 109.792C574.616 108.904 574.832 107.968 575 107.008L572.456 106.576Z" fill="#252525"/>
<path d="M176.94 63.78C175.66 64.6 173.24 65.34 171.22 65.64C171.6 65.98 172.08 66.6 172.34 67C174.4 66.54 176.9 65.5 178.3 64.42L176.94 63.78ZM181.98 64.6C183.8 65.3 186.24 66.36 187.48 66.98L188.72 65.9C187.38 65.26 184.94 64.3 183.18 63.66L181.98 64.6ZM183.04 54.12C182.76 54.64 182.3 55.4 181.92 55.9L182.64 56.12H177.18L178.08 55.88C177.92 55.42 177.54 54.68 177.14 54.12H183.04ZM180.88 61.38V60.18H187.02V58.78H180.88V57.58H187.96V56.12H183.72C184.12 55.66 184.58 55.12 185.02 54.52L183.46 54.12H188.7V52.64H185.84C186.36 51.9 186.96 50.9 187.5 49.92L185.58 49.42C185.28 50.32 184.66 51.58 184.18 52.38L184.96 52.64H182.78V49.2H181.02V52.64H179.04V49.2H177.3V52.64H175.06L176.12 52.24C175.84 51.46 175.14 50.24 174.52 49.38L172.9 49.94C173.46 50.76 174.06 51.86 174.36 52.64H171.38V54.12H176.48L175.32 54.4C175.66 54.92 176 55.62 176.2 56.12H172.18V57.58H179.06V58.78H173.16V60.18H179.06V61.38H171.3V62.94H179.06V67.58H180.88V62.94H188.76V61.38H180.88ZM196.26 61.08V64.04H193.3V61.08H196.26ZM196.08 56.3H193.3V53.76H196.08V56.3ZM193.3 57.88H197.74V52.18H194.96C195.34 51.36 195.72 50.36 196.06 49.44L194.02 49.2C193.88 50.08 193.6 51.24 193.3 52.18H191.64V66.94H193.3V65.62H197.92V59.48H193.3V57.88ZM209.06 51.9V50.2H198.42V51.9H202.84V54.06H199.12V64.56H200.82V55.72H202.84V67.54H204.58V55.72H206.78V62.74C206.78 62.94 206.72 63 206.52 63C206.34 63.02 205.78 63.02 205.16 63C205.38 63.44 205.58 64.14 205.64 64.6C206.68 64.6 207.36 64.58 207.88 64.32C208.38 64.04 208.5 63.54 208.5 62.76V54.06H204.58V51.9H209.06ZM223.2 52.56C222.24 53.64 220.96 54.6 219.52 55.38C218.86 54.72 217.86 53.9 216.9 53.22C217.22 53.02 217.54 52.8 217.84 52.56H223.2ZM224.86 50.82L224.54 50.92H219.76C220.22 50.5 220.64 50.08 221 49.64L218.98 49.18C217.7 50.8 215.3 52.6 212.12 53.88C212.54 54.18 213.1 54.78 213.38 55.22C214.12 54.88 214.82 54.5 215.48 54.14C216.34 54.76 217.24 55.54 217.86 56.22C215.86 57.08 213.68 57.7 211.54 58.06C211.86 58.46 212.24 59.24 212.42 59.7C217.8 58.62 223.54 56.06 226.08 51.56L224.86 50.82ZM226.1 59.7C225.14 61.1 223.78 62.2 222.2 63.08C221.52 62.38 220.46 61.5 219.52 60.8C220.06 60.44 220.6 60.08 221.08 59.7H226.1ZM227.6 57.96L227.28 58.04H223C223.46 57.58 223.86 57.12 224.26 56.62L222.22 56.16C220.74 58.12 217.94 60.2 213.9 61.58C214.3 61.9 214.82 62.56 215.06 63.02C216.1 62.6 217.06 62.16 217.94 61.7C218.82 62.4 219.78 63.22 220.44 63.92C217.78 64.98 214.68 65.56 211.42 65.84C211.72 66.28 212.04 67.1 212.16 67.64C219.44 66.86 226.1 64.64 228.88 58.7L227.6 57.96ZM236.06 61.36V57.82H240.08V61.36H236.06ZM249.02 61.36H242V57.82H247.58V56.08H242V53.32H248.04V51.52H236.46C236.72 50.92 237 50.26 237.24 49.64L235.36 49.14C234.44 51.8 232.84 54.34 231 55.92C231.46 56.2 232.26 56.8 232.62 57.12C233.64 56.12 234.64 54.8 235.5 53.32H240.08V56.08H234.2V61.36H230.98V63.16H240.08V67.58H242V63.16H249.02V61.36ZM266.02 54.62C265.74 56.76 265.28 58.6 264.6 60.2C263.92 58.52 263.42 56.64 263.08 54.62H266.02ZM258.66 57.24L258.32 57.34H255.98C256.38 56.94 256.78 56.52 257.16 56.08H260.4C260.1 56.7 259.74 57.28 259.36 57.78L258.66 57.24ZM255.8 52.78H257.5C257.12 53.36 256.72 53.94 256.26 54.46H255.8V52.78ZM269.18 54.62V52.88H263.58C263.9 51.8 264.14 50.66 264.34 49.52L262.46 49.22C262.08 51.7 261.4 54.1 260.44 56.02V54.46H258.44C259.38 53.18 260.18 51.76 260.82 50.22L259.1 49.72C258.72 50.66 258.24 51.56 257.74 52.4V51.2H255.8V49.24H254.08V51.2H251.62V52.78H254.08V54.46H250.82V56.08H254.74C253.54 57.22 252.14 58.2 250.64 58.94C251.02 59.28 251.66 60 251.92 60.36C252.72 59.9 253.5 59.38 254.24 58.82H256.9C256.26 59.4 255.56 60 254.9 60.4V61.68C253.36 61.86 251.94 62 250.82 62.12L251.02 63.78L254.9 63.32V65.68C254.9 65.9 254.84 65.96 254.56 65.96C254.32 65.98 253.46 65.98 252.56 65.96C252.8 66.4 253.04 67.06 253.12 67.54C254.38 67.54 255.28 67.54 255.88 67.26C256.48 67.02 256.64 66.56 256.64 65.72V63.1L260.38 62.64L260.36 61.06C259.12 61.2 257.86 61.36 256.64 61.48V60.82C257.68 60.08 258.74 59.12 259.56 58.2C259.98 58.52 260.48 59 260.72 59.26C261.14 58.68 261.54 58.06 261.9 57.36C262.3 59.14 262.84 60.76 263.5 62.22C262.42 63.82 260.94 65.06 258.96 65.96C259.3 66.36 259.86 67.2 260.06 67.64C261.92 66.7 263.36 65.5 264.5 64.06C265.44 65.5 266.6 66.7 268.04 67.56C268.34 67.04 268.92 66.32 269.36 65.96C267.82 65.16 266.6 63.88 265.64 62.3C266.78 60.22 267.5 57.7 267.94 54.62H269.18ZM282.3 51.8C281.98 51.52 281.56 51.22 281.08 50.92C281.48 50.54 281.82 50.14 282.12 49.74L280.86 49.4C280.64 49.68 280.36 50 280.02 50.28C279.58 50.02 279.1 49.78 278.68 49.58L277.78 50.36C278.2 50.54 278.64 50.78 279.04 51.02C278.54 51.38 277.96 51.7 277.4 51.94C277.72 52.14 278.2 52.6 278.42 52.8C278.98 52.52 279.58 52.12 280.14 51.7C280.64 52.02 281.08 52.34 281.38 52.64L282.3 51.8ZM274.72 55.4H277.24C277.52 55.6 277.98 56.06 278.18 56.32H274.76L274.72 55.4ZM273.26 57.72H286.72V60.14H288.56V56.32H287.04C287.2 54.52 287.38 51.96 287.48 49.94H282.72V51.16H285.66L285.62 52.06H282.82V53.26H285.54L285.46 54.18H282.72V55.4H285.38C285.34 55.72 285.3 56.02 285.28 56.32H278.3C278.88 55.98 279.52 55.6 280.1 55.14C280.66 55.52 281.12 55.88 281.44 56.2L282.38 55.34C282.04 55.02 281.6 54.68 281.06 54.32C281.48 53.92 281.84 53.52 282.16 53.1L280.9 52.7C280.66 53.04 280.36 53.36 280 53.68C279.54 53.4 279.04 53.14 278.6 52.92L277.7 53.7C278.12 53.9 278.58 54.16 279 54.42C278.48 54.78 277.88 55.1 277.32 55.36V54.18H274.62L274.56 53.26H277.24V52.06H274.5L274.44 51.26C275.44 51.08 276.52 50.8 277.38 50.48L276.58 49.38C275.54 49.7 273.82 50.2 272.66 50.4L273.02 56.32H271.5V60.14H273.26V57.72ZM288.9 62.28H281.12V62.12C282.64 61.46 284.2 60.6 285.36 59.7L284.3 58.74L283.9 58.84H274.84V60.2H282C281.16 60.72 280.18 61.2 279.3 61.56V62.28H271.1V63.8H279.3V65.66C279.3 65.92 279.2 66 278.88 66C278.58 66 277.42 66 276.32 65.96C276.56 66.4 276.82 67.06 276.92 67.54C278.48 67.54 279.5 67.54 280.22 67.28C280.92 67.04 281.12 66.6 281.12 65.72V63.8H288.9V62.28ZM308.88 50.16H298.3V51.82H308.88V50.16ZM308.84 59.18C308.38 58.32 307.44 57 306.52 55.92C307.18 54.96 307.94 53.76 308.54 52.74L306.92 52.32C306.44 53.3 305.56 54.76 304.72 55.96C305.86 57.3 306.88 58.84 307.36 59.88L308.84 59.18ZM303.52 52.34C303.06 53.3 302.2 54.76 301.38 55.94C302.46 57.28 303.4 58.78 303.86 59.82L305.34 59.16C304.92 58.3 304.02 56.98 303.16 55.9C303.82 54.96 304.56 53.76 305.12 52.74L303.52 52.34ZM301.94 59.24C301.5 58.38 300.66 57.02 299.8 55.92C300.44 54.96 301.2 53.74 301.74 52.72L300.14 52.32C299.68 53.3 298.86 54.76 298.06 55.96C299.08 57.32 300 58.84 300.42 59.88L301.94 59.24ZM298.28 60.84C298.06 59.82 297.52 58.08 297 56.78L295.62 57.16C295.84 57.72 296.04 58.34 296.22 58.94L293.54 59.28C295.08 57.5 296.6 55.28 297.8 53.1L296.24 52.18C295.84 53.06 295.34 53.96 294.84 54.78L293.08 54.92C294.14 53.44 295.2 51.62 296 49.86L294.34 49.18C293.6 51.32 292.26 53.56 291.84 54.14C291.42 54.74 291.1 55.14 290.74 55.22C290.94 55.68 291.18 56.48 291.28 56.82C291.56 56.7 292.02 56.58 293.8 56.36C293.18 57.32 292.62 58.04 292.34 58.36C291.74 59.08 291.3 59.56 290.86 59.66C291.06 60.12 291.32 60.98 291.42 61.34C291.82 61.12 292.48 60.96 296.6 60.36C296.68 60.74 296.76 61.06 296.8 61.36L298.28 60.84ZM291.66 62.08C291.5 63.74 291.22 65.58 290.76 66.78C291.16 66.9 291.9 67.14 292.22 67.34C292.66 66.08 293 64.14 293.2 62.34L291.66 62.08ZM293.78 62.32C294 63.64 294.22 65.36 294.26 66.5L295.72 66.2C295.66 65.08 295.42 63.38 295.18 62.06L293.78 62.32ZM295.78 61.9C296.14 62.94 296.54 64.3 296.7 65.18L298.04 64.72C297.86 63.84 297.44 62.52 297.06 61.5L295.78 61.9ZM304.42 65.42V62.06H308.3V60.4H298.76V62.06H302.56V65.42H297.76V67.12H309.1V65.42H304.42ZM311.76 66.26C312.1 65.1 312.38 63.18 312.54 61.86L311.54 61.54C311.4 62.84 311.08 64.72 310.68 65.86L311.76 66.26ZM312.84 61.94C312.94 63.06 313.02 64.56 313.02 65.54L313.92 65.44C313.9 64.46 313.82 63 313.68 61.84L312.84 61.94ZM314.02 61.74C314.28 62.78 314.56 64.1 314.68 65L315.52 64.82C315.4 63.96 315.1 62.62 314.84 61.6L314.02 61.74ZM313.2 57.56H314.72V59.14H313.2V57.56ZM314.72 51.6V53.2H313.2V51.6H314.72ZM314.72 56.12H313.2V54.62H314.72V56.12ZM321.44 53.64C322.26 52.96 323.04 52.2 323.72 51.38C324.48 52.16 325.38 52.96 326.32 53.64H321.44ZM318.54 59.14H316.18V57.56H318.16V56.12H316.18V54.62H318.12V54.04C318.46 54.34 318.98 54.86 319.22 55.18C319.76 54.86 320.28 54.5 320.8 54.14V55.08H326.7V53.92C327.3 54.36 327.94 54.74 328.52 55.06C328.66 54.6 329 53.82 329.26 53.4C327.68 52.7 325.82 51.42 324.6 50.2C324.76 50 324.88 49.78 325 49.56L323.3 49.02C322.28 50.82 320.3 52.72 318.12 53.96V53.2H316.18V51.6H318.46V50.08H311.74V60.68H317.04C317 61.94 316.96 62.94 316.92 63.68C316.72 63.02 316.3 62 315.92 61.22L315.2 61.46C315.56 62.28 315.98 63.38 316.18 64.08L316.92 63.78C316.82 65.12 316.72 65.72 316.58 65.94C316.46 66.12 316.32 66.16 316.08 66.16C315.86 66.16 315.38 66.16 314.82 66.08C315.04 66.48 315.18 67.08 315.22 67.52C315.82 67.54 316.44 67.54 316.8 67.48C317.28 67.42 317.56 67.28 317.84 66.9C318.26 66.34 318.4 64.6 318.54 59.78V59.14ZM325.4 57.66H327.02V59.88H325.4V57.66ZM324.12 61.12H328.36V56.42H324.12V61.12ZM320.5 57.66H322V59.88H320.5V57.66ZM319.24 61.12H323.32V56.42H319.24V61.12ZM320.64 61.62C320.22 63.62 319.38 65.42 318.1 66.52C318.46 66.78 319.08 67.32 319.34 67.58C320.06 66.88 320.72 65.94 321.22 64.88C321.86 65.36 322.54 65.9 322.88 66.32L323.84 65.1C323.4 64.6 322.56 63.98 321.78 63.5C321.94 62.98 322.1 62.48 322.22 61.92L320.64 61.62ZM325.54 61.54C325.18 63.58 324.4 65.4 323.14 66.52C323.54 66.78 324.22 67.3 324.5 67.58C325.06 67.02 325.58 66.32 325.98 65.52C326.76 66.12 327.56 66.78 327.98 67.3L329.1 66.02C328.56 65.46 327.54 64.66 326.62 64.02C326.86 63.34 327.06 62.6 327.2 61.8L325.54 61.54ZM338.34 62.48C340.62 61.74 342.02 60.02 342.02 57.8C342.02 56.28 341.36 55.3 340.1 55.3C339.18 55.3 338.4 55.88 338.4 56.9C338.4 57.94 339.18 58.5 340.08 58.5C340.18 58.5 340.28 58.5 340.36 58.48C340.26 59.68 339.36 60.6 337.82 61.18L338.34 62.48ZM368.94 50.62H364.24C364.04 50.12 363.74 49.48 363.42 49L361.88 49.46C362.06 49.82 362.26 50.22 362.42 50.62H357.5V52H368.94V50.62ZM355.18 51.98C355 51.28 354.52 50.16 354.04 49.34L352.7 49.82C353.16 50.66 353.62 51.82 353.78 52.52L355.18 51.98ZM357.18 52.56H350.82V54.06H357.18V52.56ZM356.6 55.24H351.62V56.7H356.6V55.24ZM351.62 59.36H356.6V57.9H351.62V59.36ZM355.28 62.08V65H352.84V62.08H355.28ZM356.66 60.62H351.5V67.34H352.84V66.46H356.66V60.62ZM361.86 60.32H364.48V61.2H361.86V60.32ZM361.86 58.26H364.48V59.12H361.86V58.26ZM359.6 53.74H361.32V55.04H359.6V53.74ZM365.08 53.74H366.88V55.04H365.08V53.74ZM367.88 62.68C367.34 63.04 366.46 63.58 365.72 64C365.34 63.54 365 63.04 364.74 62.52H369.16V61.2H366.14V60.32H368.4V59.12H366.14V58.26H368.72V57.08H366.14V56.08H368.34V52.68H363.7V56.08H364.48V57.08H361.86V56.08H362.78V52.68H358.22V56.08H360.2V57.08H357.86V58.26H360.2V59.12H358.18V60.32H360.2V61.2H357.26V62.52H360.84C359.72 63.2 358.28 63.74 356.88 64.1C357.16 64.38 357.62 65 357.78 65.3C358.46 65.06 359.2 64.8 359.88 64.48V64.7C359.88 65.64 359.36 66.2 359.02 66.44C359.28 66.7 359.66 67.24 359.8 67.56C360.16 67.36 360.72 67.16 364.06 66.46C364.02 66.1 363.98 65.5 364 65.06L361.32 65.56V63.72C361.9 63.34 362.46 62.96 362.9 62.52H363.18C364.14 64.94 365.84 66.7 368.46 67.52C368.66 67.1 369.1 66.5 369.44 66.18C368.36 65.92 367.42 65.46 366.66 64.86C367.38 64.52 368.2 64.08 368.86 63.62L367.88 62.68ZM375.12 49.32C374.04 52.24 372.26 55.16 370.38 57.02C370.68 57.44 371.22 58.44 371.4 58.9C371.98 58.28 372.56 57.58 373.12 56.8V67.56H374.88V54.04C375.64 52.68 376.32 51.26 376.86 49.84L375.12 49.32ZM378.76 57.88C378.26 60.18 377.36 62.48 376.18 63.96C376.6 64.18 377.42 64.66 377.76 64.96C378.94 63.32 379.98 60.8 380.58 58.22L378.76 57.88ZM387.12 54.66C387 55.62 386.86 56.56 386.72 57.24L388.3 57.54C388.56 56.42 388.92 54.66 389.18 53.14L387.88 52.88L387.58 52.94H380.02C380.42 51.9 380.76 50.82 381.04 49.72L379.2 49.32C378.52 52.14 377.38 54.96 375.88 56.72C376.32 57 377.06 57.6 377.4 57.94C378.08 57.04 378.72 55.92 379.32 54.66H382.02V65.42C382.02 65.68 381.92 65.74 381.66 65.74C381.4 65.76 380.54 65.76 379.64 65.74C379.92 66.24 380.22 67.08 380.3 67.6C381.56 67.6 382.46 67.54 383.06 67.24C383.66 66.92 383.86 66.38 383.86 65.42V54.66H387.12ZM384.98 58.24C386.02 60.32 386.94 63.1 387.22 64.9L389 64.26C388.68 62.46 387.74 59.78 386.64 57.7L384.98 58.24ZM400.84 59.58C400.84 59.74 400.78 59.8 400.58 59.8C400.4 59.82 399.82 59.82 399.18 59.8C399.36 60.14 399.56 60.62 399.62 61C400.6 61 401.3 61 401.8 60.78C402.26 60.58 402.4 60.26 402.4 59.56V54.42H401.78V54.4H399.34V52.56H402.54V51.02H399.34V49.38H397.74V55.86H400.84V59.58ZM398.22 56.58C398.1 57.72 397.86 58.82 397.3 59.64C397.64 59.8 398.24 60.2 398.52 60.4C399.08 59.5 399.46 58.16 399.66 56.8L398.22 56.58ZM396.7 63.06C395.46 64.1 393.04 65.42 391.16 66.14C391.5 66.52 392 67.16 392.22 67.54C394.16 66.72 396.58 65.42 398.24 64.24L396.7 63.06ZM408.54 66.08C407.16 65.18 404.88 63.94 402.8 62.96L401.76 64.28C403.82 65.26 406.02 66.56 407.32 67.48L408.54 66.08ZM409.04 61.24H407.2C407.38 58.28 407.48 53.7 407.5 50.18H403.16V51.8H405.8C405.8 52.5 405.78 53.24 405.76 53.96H403.36V55.5H405.72C405.7 56.22 405.68 56.94 405.66 57.64H403.22V59.18H405.58C405.54 59.92 405.5 60.62 405.46 61.24H394.58L394.5 59.12H396.88V57.56H394.46L394.38 55.46H396.8V53.92H394.32L394.26 51.78C395.22 51.5 396.24 51.2 397.12 50.84L396.26 49.34C395.28 49.82 393.8 50.42 392.54 50.82L392.9 61.24H391V62.96H409.04V61.24ZM416.94 63.78C415.66 64.6 413.24 65.34 411.22 65.64C411.6 65.98 412.08 66.6 412.34 67C414.4 66.54 416.9 65.5 418.3 64.42L416.94 63.78ZM421.98 64.6C423.8 65.3 426.24 66.36 427.48 66.98L428.72 65.9C427.38 65.26 424.94 64.3 423.18 63.66L421.98 64.6ZM423.04 54.12C422.76 54.64 422.3 55.4 421.92 55.9L422.64 56.12H417.18L418.08 55.88C417.92 55.42 417.54 54.68 417.14 54.12H423.04ZM420.88 61.38V60.18H427.02V58.78H420.88V57.58H427.96V56.12H423.72C424.12 55.66 424.58 55.12 425.02 54.52L423.46 54.12H428.7V52.64H425.84C426.36 51.9 426.96 50.9 427.5 49.92L425.58 49.42C425.28 50.32 424.66 51.58 424.18 52.38L424.96 52.64H422.78V49.2H421.02V52.64H419.04V49.2H417.3V52.64H415.06L416.12 52.24C415.84 51.46 415.14 50.24 414.52 49.38L412.9 49.94C413.46 50.76 414.06 51.86 414.36 52.64H411.38V54.12H416.48L415.32 54.4C415.66 54.92 416 55.62 416.2 56.12H412.18V57.58H419.06V58.78H413.16V60.18H419.06V61.38H411.3V62.94H419.06V67.58H420.88V62.94H428.76V61.38H420.88ZM434.96 54.66H439.04V56.52H434.96V54.66ZM434.96 51.4H439.04V53.22H434.96V51.4ZM445.04 53.22H440.92V51.4H445.04V53.22ZM445.04 56.52H440.92V54.66H445.04V56.52ZM446.96 58.04V49.88H433.12V58.04H436.74C435.26 59.46 433.04 60.66 430.9 61.28C431.32 61.66 431.86 62.34 432.14 62.82C433.52 62.32 434.88 61.62 436.12 60.76V61.8C436.12 63.2 435.74 65.02 432.34 66.2C432.76 66.56 433.38 67.24 433.6 67.72C437.54 66.2 438.02 63.76 438.02 61.86V60.58H436.36C437.38 59.84 438.3 58.96 439.02 58.04H441.16C441.86 58.98 442.78 59.86 443.78 60.6H442.3V67.54H444.22V60.92C445.38 61.68 446.66 62.32 447.98 62.74C448.26 62.26 448.82 61.54 449.24 61.16C446.98 60.58 444.78 59.44 443.32 58.04H446.96ZM453.24 54.08H459.02V58.22H460.84V54.08H466.7V57.04H468.56V52.66H460.84V51.44H467.6V50.04H452.34V51.44H459.02V52.66H451.48V57.04H453.24V54.08ZM466.46 57.38C465.38 57 463.34 56.58 461.86 56.4L461.46 57.5C463 57.72 465.02 58.2 466.1 58.58L466.46 57.38ZM465.32 54.14C464.4 54.5 462.8 55.06 461.72 55.3L462.34 56.22C463.44 56 465 55.62 466.1 55.16L465.32 54.14ZM453.86 58.58C455.16 58.3 456.66 57.98 458.16 57.66L458.1 56.54C456.34 56.82 454.64 57.08 453.38 57.2L453.86 58.58ZM453.94 55.24C455.18 55.46 456.78 55.94 457.62 56.3L458.12 55.24C457.26 54.88 455.66 54.5 454.46 54.28L453.94 55.24ZM468.74 60.26V58.8H451.32V60.26H458.9C458.8 60.68 458.68 61.08 458.54 61.5H452.82V67.52H454.58V62.96H457.12V67.4H458.82V62.96H461.46V67.4H463.16V62.96H465.86V65.78C465.86 65.96 465.8 66.02 465.58 66.04C465.38 66.04 464.72 66.04 464 66.02C464.24 66.44 464.48 67.1 464.56 67.56C465.62 67.56 466.4 67.54 466.96 67.28C467.52 67.02 467.64 66.6 467.64 65.8V61.5H460.34C460.48 61.1 460.64 60.7 460.8 60.26H468.74ZM486.38 54.96C485.56 56.14 484.22 57.62 483.04 58.72C482.16 57.38 481.44 55.92 480.9 54.4V54.2H488.74V52.4H486.42L487.26 51.44C486.44 50.8 484.82 49.88 483.6 49.28L482.5 50.46C483.52 50.98 484.8 51.76 485.64 52.4H480.9V49.26H479V52.4H471.34V54.2H479V59.42C476.04 61.12 472.78 62.96 470.82 63.94L472.02 65.62C474 64.46 476.56 62.92 479 61.36V65.18C479 65.56 478.86 65.68 478.5 65.68C478.1 65.7 476.82 65.7 475.54 65.66C475.8 66.2 476.1 67.08 476.2 67.62C477.94 67.62 479.18 67.56 479.9 67.24C480.62 66.94 480.9 66.38 480.9 65.18V58.34C482.58 61.66 484.92 64.38 487.94 65.9C488.24 65.38 488.84 64.64 489.28 64.24C487.26 63.38 485.48 61.92 484.04 60.08C485.3 58.98 486.84 57.46 488.02 56.1L486.38 54.96ZM476.96 58.86C476.32 57.78 474.86 56.24 473.62 55.18L472.22 56.18C473.46 57.3 474.84 58.9 475.44 59.96L476.96 58.86ZM508.56 52.48V50.58H491.44V52.48H499.88C497.96 55.74 494.68 58.94 490.88 60.8C491.28 61.2 491.86 61.96 492.16 62.46C494.74 61.1 497.06 59.2 498.98 57.06V67.56H501V54.54C501.48 53.86 501.9 53.16 502.32 52.48H508.56ZM501.08 56.72C503.36 58.34 506.32 60.72 507.66 62.26L509.22 60.82C507.76 59.28 504.72 57.02 502.48 55.52L501.08 56.72ZM520.76 56.34H525.9V59.14H520.76V56.34ZM513.52 55.16C514.08 55.72 514.6 56.36 514.92 56.8L515.62 56.24V58.5C514.82 59.04 514.08 59.54 513.46 59.9C513.5 58.9 513.52 57.92 513.52 57.06V55.16ZM515.62 51.64V55.3C515.2 54.86 514.66 54.32 514.18 53.9L513.52 54.36V51.64H515.62ZM526.08 65.68C525.68 65.68 525.62 65.6 525.62 65.06V60.7H527.66V55.62L527.78 55.86L529.24 54.9C528.5 53.38 526.74 51.08 525.24 49.38L523.9 50.2C525.08 51.56 526.36 53.34 527.22 54.78H519.56C520.72 53.44 521.76 51.74 522.44 49.98L520.72 49.52C519.98 51.44 518.72 53.26 517.26 54.48V49.94H511.94V57.06C511.94 59.98 511.84 63.96 510.66 66.76C511.08 66.9 511.78 67.28 512.1 67.56C512.92 65.62 513.26 63.02 513.42 60.58L514 61.6C514.54 61.16 515.06 60.66 515.62 60.2V65.34C515.62 65.6 515.54 65.7 515.3 65.7C515.06 65.7 514.36 65.7 513.6 65.68C513.82 66.14 514.04 66.92 514.08 67.38C515.32 67.38 516.06 67.34 516.6 67.04C517.1 66.76 517.26 66.22 517.26 65.38V54.76C517.64 55.1 518.14 55.66 518.38 55.96C518.62 55.76 518.84 55.54 519.08 55.3V60.7H520.52C520.36 63.32 519.86 65.1 517.32 66.12C517.7 66.46 518.22 67.16 518.44 67.62C521.46 66.3 522.16 64 522.4 60.7H523.82V65.06C523.82 66.8 524.18 67.34 525.78 67.34H527.42C528.74 67.34 529.18 66.66 529.34 63.84C528.88 63.72 528.1 63.44 527.76 63.12C527.7 65.36 527.62 65.68 527.22 65.68H526.08ZM533.02 58.34H534.7V59.86H533.02V58.34ZM533.02 55.54H534.7V57.06H533.02V55.54ZM537.86 57.06H536.1V55.54H537.86V57.06ZM537.86 59.86H536.1V58.34H537.86V59.86ZM539.84 64.26V62.6H536.28V61.22H539.38V54.2H536.3V52.86H539.64V51.24H536.3V49.22H534.54V51.24H531.12V52.86H534.54V54.2H531.58V61.22H534.54V62.6H530.82V64.26H534.54V67.56H536.28V64.26H539.84ZM547.3 65.62C547.18 65.62 547.06 65.56 547 65.5C546.94 65.42 546.9 65.3 546.9 65.16V53.48H543.42V49.26H541.72V53.48H539.84V55.12H541.72V55.82C541.72 59.56 541.44 63.5 538.24 66.52C538.68 66.78 539.36 67.32 539.66 67.68C543.1 64.38 543.42 59.96 543.42 55.82V55.12H545.2V65.14C545.2 66.32 545.28 66.66 545.56 66.98C545.88 67.3 546.34 67.42 546.78 67.42H547.72C548.1 67.42 548.48 67.32 548.76 67.14C549.04 66.92 549.22 66.58 549.32 66.06C549.42 65.58 549.48 64.3 549.52 63.24C549.08 63.08 548.54 62.8 548.22 62.5C548.24 63.6 548.2 64.54 548.16 64.94C548.14 65.2 548.06 65.4 548 65.5C547.92 65.6 547.78 65.62 547.66 65.62H547.3ZM552.66 61.3H554.2L554.52 53.3L554.6 50.94H552.28L552.34 53.3L552.66 61.3ZM553.42 66.26C554.3 66.26 554.98 65.6 554.98 64.66C554.98 63.72 554.3 63.02 553.42 63.02C552.56 63.02 551.9 63.72 551.9 64.66C551.9 65.6 552.56 66.26 553.42 66.26Z" fill="white"/>
<defs>
<linearGradient id="paint0_linear_110_1349" x1="72.577" y1="70.3636" x2="79.0077" y2="84.5349" gradientUnits="userSpaceOnUse">
<stop stop-color="#FFF176"/>
<stop offset="1" stop-color="#00E0B8"/>
</linearGradient>
<linearGradient id="paint1_linear_110_1349" x1="72.5876" y1="83.2923" x2="79.0183" y2="97.4636" gradientUnits="userSpaceOnUse">
<stop stop-color="#FFF176"/>
<stop offset="1" stop-color="#00E0B8"/>
</linearGradient>
<linearGradient id="paint2_linear_110_1349" x1="49.9257" y1="47.4957" x2="112.776" y2="115.124" gradientUnits="userSpaceOnUse">
<stop stop-color="#FFF176"/>
<stop offset="1" stop-color="#00E0B8"/>
</linearGradient>
<linearGradient id="paint3_linear_110_1349" x1="27.3752" y1="23.0193" x2="135.44" y2="139.328" gradientUnits="userSpaceOnUse">
<stop stop-color="#FFF176"/>
<stop offset="1" stop-color="#00E0B8"/>
</linearGradient>
<linearGradient id="paint4_linear_110_1349" x1="41.1404" y1="35.6189" x2="49.5345" y2="44.4721" gradientUnits="userSpaceOnUse">
<stop stop-color="#FFF176"/>
<stop offset="1" stop-color="#00E0B8"/>
</linearGradient>
<linearGradient id="paint5_linear_110_1349" x1="50.5694" y1="29.6452" x2="57.9483" y2="36.0117" gradientUnits="userSpaceOnUse">
<stop stop-color="#FFF176"/>
<stop offset="1" stop-color="#00E0B8"/>
</linearGradient>
<linearGradient id="paint6_linear_110_1349" x1="60.0068" y1="26.1844" x2="66.8563" y2="31.0558" gradientUnits="userSpaceOnUse">
<stop stop-color="#FFF176"/>
<stop offset="1" stop-color="#00E0B8"/>
</linearGradient>
<linearGradient id="paint7_linear_110_1349" x1="68.4149" y1="24.0639" x2="73.3187" y2="25.9645" gradientUnits="userSpaceOnUse">
<stop stop-color="#FFF176"/>
<stop offset="1" stop-color="#00E0B8"/>
</linearGradient>
<linearGradient id="paint8_linear_110_1349" x1="75.6195" y1="22.897" x2="81.7316" y2="26.1291" gradientUnits="userSpaceOnUse">
<stop stop-color="#FFF176"/>
<stop offset="1" stop-color="#00E0B8"/>
</linearGradient>
<linearGradient id="paint9_linear_110_1349" x1="90.0127" y1="23.6312" x2="96.711" y2="27.9675" gradientUnits="userSpaceOnUse">
<stop stop-color="#FFF176"/>
<stop offset="1" stop-color="#00E0B8"/>
</linearGradient>
<linearGradient id="paint10_linear_110_1349" x1="98.4395" y1="26.2269" x2="105.996" y2="31.6302" gradientUnits="userSpaceOnUse">
<stop stop-color="#FFF176"/>
<stop offset="1" stop-color="#00E0B8"/>
</linearGradient>
<linearGradient id="paint11_linear_110_1349" x1="107.139" y1="31.0131" x2="113.941" y2="36.8815" gradientUnits="userSpaceOnUse">
<stop stop-color="#FFF176"/>
<stop offset="1" stop-color="#00E0B8"/>
</linearGradient>
<linearGradient id="paint12_linear_110_1349" x1="113.864" y1="36.1007" x2="120.923" y2="43.2957" gradientUnits="userSpaceOnUse">
<stop stop-color="#FFF176"/>
<stop offset="1" stop-color="#00E0B8"/>
</linearGradient>
<linearGradient id="paint13_linear_110_1349" x1="42.2768" y1="120.722" x2="50.8559" y2="129.401" gradientUnits="userSpaceOnUse">
<stop stop-color="#FFF176"/>
<stop offset="1" stop-color="#00E0B8"/>
</linearGradient>
<linearGradient id="paint14_linear_110_1349" x1="52.4406" y1="126.52" x2="59.7947" y2="132.666" gradientUnits="userSpaceOnUse">
<stop stop-color="#FFF176"/>
<stop offset="1" stop-color="#00E0B8"/>
</linearGradient>
<linearGradient id="paint15_linear_110_1349" x1="60.9517" y1="130.489" x2="67.7625" y2="135.227" gradientUnits="userSpaceOnUse">
<stop stop-color="#FFF176"/>
<stop offset="1" stop-color="#00E0B8"/>
</linearGradient>
<linearGradient id="paint16_linear_110_1349" x1="69.2187" y1="132.36" x2="73.9197" y2="134.078" gradientUnits="userSpaceOnUse">
<stop stop-color="#FFF176"/>
<stop offset="1" stop-color="#00E0B8"/>
</linearGradient>
<linearGradient id="paint17_linear_110_1349" x1="76.1899" y1="133.186" x2="82.2284" y2="136.349" gradientUnits="userSpaceOnUse">
<stop stop-color="#FFF176"/>
<stop offset="1" stop-color="#00E0B8"/>
</linearGradient>
<linearGradient id="paint18_linear_110_1349" x1="90.0025" y1="132.4" x2="96.3436" y2="135.872" gradientUnits="userSpaceOnUse">
<stop stop-color="#FFF176"/>
<stop offset="1" stop-color="#00E0B8"/>
</linearGradient>
<linearGradient id="paint19_linear_110_1349" x1="98.4242" y1="129.989" x2="105.813" y2="136.104" gradientUnits="userSpaceOnUse">
<stop stop-color="#FFF176"/>
<stop offset="1" stop-color="#00E0B8"/>
</linearGradient>
<linearGradient id="paint20_linear_110_1349" x1="106.857" y1="126.158" x2="113.655" y2="131.89" gradientUnits="userSpaceOnUse">
<stop stop-color="#FFF176"/>
<stop offset="1" stop-color="#00E0B8"/>
</linearGradient>
<linearGradient id="paint21_linear_110_1349" x1="113.593" y1="121.233" x2="120.743" y2="128.305" gradientUnits="userSpaceOnUse">
<stop stop-color="#FFF176"/>
<stop offset="1" stop-color="#00E0B8"/>
</linearGradient>
</defs>
</svg>
