<svg width="207" height="102" viewBox="0 0 207 102" fill="none" xmlns="http://www.w3.org/2000/svg">
<path opacity="0.8" d="M4.896 42.952V43.636H11.364V42.952H4.896ZM4.572 45.88V46.588H11.544V45.88H4.572ZM4.56 50.332V51.076H11.556V50.332H4.56ZM5.7 48.844V49.468H10.56V48.844H5.7ZM5.136 44.392V45.064H11.124V44.392H5.136ZM6.324 41.932V46.192H7.14V41.932H6.324ZM9.048 41.932V46.192H9.876V41.932H9.048ZM7.644 46.204V50.752H8.412V46.204H7.644ZM10.056 47.284V52.048C10.056 52.192 10.02 52.228 9.852 52.24C9.696 52.252 9.156 52.252 8.58 52.228C8.676 52.444 8.784 52.744 8.82 52.96C9.612 52.96 10.152 52.96 10.476 52.84C10.8 52.708 10.896 52.492 10.896 52.06V47.284H10.056ZM5.28 47.284V52.972H6.06V47.956H10.38V47.284H5.28ZM0.972 45.628V46.336H4.164V45.628H0.972ZM1.044 42.352V43.072H4.128V42.352H1.044ZM0.972 47.26V47.98H4.164V47.26H0.972ZM0.456 43.96V44.704H4.488V43.96H0.456ZM1.404 48.904V49.66H3.444V51.664H1.404V52.408H4.212V48.904H1.404ZM0.96 48.904V52.96H1.728V48.904H0.96ZM13.32 43.732V44.512H15.756V46.276H13.32V47.068H16.572V43.732H13.32ZM13.332 48.172V48.952H15.876V51.016H13.332V51.784H16.68V48.172H13.332ZM12.96 43.732V52.6H13.776V43.732H12.96ZM17.04 42.556V43.384H23.46V42.556H17.04ZM14.484 41.92C14.364 42.52 14.1 43.396 13.884 43.972L14.592 44.128C14.88 43.6 15.204 42.772 15.468 42.064L14.484 41.92ZM19.812 42.904V52.948H20.664V42.904H19.812ZM17.496 44.86V51.16H18.324V45.676H22.692V44.86H17.496ZM22.26 44.86V50.2C22.26 50.32 22.224 50.368 22.092 50.368C21.984 50.368 21.6 50.368 21.144 50.356C21.264 50.584 21.384 50.92 21.408 51.148C22.056 51.148 22.476 51.148 22.752 51.004C23.04 50.86 23.112 50.62 23.112 50.212V44.86H22.26ZM28.5996 43.4688L25.043 52.7324H24.1113L27.6738 43.4688H28.5996ZM33.517 42.748V43.588H40.513V42.748H33.517ZM38.617 43.168V51.832C38.617 52.072 38.521 52.144 38.269 52.156C38.005 52.168 37.117 52.168 36.169 52.144C36.289 52.384 36.433 52.732 36.481 52.96C37.717 52.972 38.449 52.96 38.881 52.828C39.301 52.696 39.481 52.456 39.481 51.832V43.168H38.617ZM34.333 45.292V46.072H36.529V48.868H34.333V49.648H37.333V45.292H34.333ZM33.925 45.292V50.56H34.717V45.292H33.925ZM29.917 42.448V52.972H30.733V43.264H32.713V42.448H29.917ZM32.497 42.448V42.688C32.245 43.504 31.801 44.884 31.357 45.976C32.233 46.924 32.449 47.764 32.449 48.424C32.449 48.784 32.377 49.12 32.197 49.252C32.089 49.324 31.969 49.348 31.813 49.36C31.621 49.384 31.393 49.372 31.117 49.348C31.249 49.576 31.333 49.924 31.345 50.14C31.609 50.152 31.909 50.152 32.149 50.128C32.401 50.092 32.605 50.02 32.773 49.9C33.109 49.66 33.253 49.144 33.253 48.496C33.253 47.752 33.049 46.876 32.173 45.88C32.581 44.92 33.025 43.744 33.373 42.76L32.785 42.412L32.653 42.448H32.497ZM41.629 48.784V49.588H52.285V48.784H41.629ZM46.465 47.668V52.936H47.377V47.668H46.465ZM46.057 49.096C45.073 50.368 43.141 51.508 41.389 52.048C41.593 52.228 41.857 52.576 42.001 52.804C43.753 52.168 45.709 50.884 46.801 49.432L46.057 49.096ZM47.797 49.12L47.041 49.48C48.133 50.896 50.089 52.12 51.913 52.72C52.045 52.48 52.321 52.132 52.513 51.952C50.689 51.46 48.769 50.368 47.797 49.12ZM45.997 45.796H47.881V47.116H45.997V45.796ZM45.997 43.816H47.881V45.112H45.997V43.816ZM45.217 43.108V47.824H48.673V43.108H45.217ZM46.621 41.92C46.549 42.352 46.381 42.988 46.237 43.408L46.945 43.564C47.125 43.18 47.329 42.604 47.521 42.064L46.621 41.92ZM41.713 44.26C42.313 44.752 43.021 45.448 43.333 45.928L43.753 45.268C43.441 44.812 42.721 44.14 42.109 43.684L41.713 44.26ZM43.897 46.024C44.245 46.708 44.581 47.632 44.677 48.208L45.313 47.956C45.205 47.404 44.857 46.504 44.497 45.832L43.897 46.024ZM44.197 43.672C43.705 44.764 42.829 46.3 42.133 47.236L42.721 47.512C43.417 46.588 44.269 45.136 44.905 43.948L44.197 43.672ZM43.261 42.004C43.021 42.7 42.565 43.684 42.217 44.296L42.817 44.56C43.189 43.96 43.621 43.048 43.981 42.268L43.261 42.004ZM41.605 47.164L41.701 47.944C42.577 47.8 43.645 47.656 44.749 47.476L44.737 46.828C43.549 46.96 42.421 47.092 41.605 47.164ZM48.601 44.164C49.237 44.716 49.957 45.496 50.269 46.024L50.737 45.4C50.413 44.896 49.681 44.14 49.057 43.612L48.601 44.164ZM50.833 45.928C51.241 46.684 51.637 47.668 51.757 48.304L52.429 48.028C52.297 47.416 51.877 46.432 51.457 45.7L50.833 45.928ZM51.133 43.66C50.641 44.764 49.729 46.312 49.021 47.26L49.609 47.536C50.329 46.6 51.205 45.136 51.841 43.948L51.133 43.66ZM50.257 41.968C50.017 42.664 49.549 43.648 49.189 44.26L49.789 44.524C50.173 43.924 50.617 43.024 50.989 42.232L50.257 41.968ZM48.649 47.164L48.757 47.944C49.633 47.824 50.725 47.68 51.829 47.536L51.817 46.876C50.629 46.984 49.489 47.092 48.649 47.164ZM74.5233 52.828L71.9433 47.44L74.5233 42.064L73.8753 41.86L71.2113 47.44L73.8753 53.032L74.5233 52.828ZM76.4193 52.828L73.8393 47.44L76.4193 42.064L75.7713 41.86L73.0953 47.44L75.7713 53.032L76.4193 52.828ZM82.7073 43.936L82.2873 44.8H88.3953V43.936H82.7073ZM84.2073 46.54V47.368H88.1193V46.54H84.2073ZM84.1953 49.18V50.032H88.2873V49.18H84.1953ZM83.7513 44.212V52.96H84.6753V44.212H83.7513ZM83.1633 42.064C82.5753 43.828 81.6033 45.58 80.5113 46.696C80.7153 46.84 81.0753 47.164 81.2073 47.32C82.3113 46.084 83.3553 44.2 84.0393 42.292L83.1633 42.064ZM80.2833 41.968C79.5993 43.792 78.4833 45.592 77.2833 46.756C77.4513 46.972 77.7273 47.452 77.8113 47.668C79.1193 46.324 80.3553 44.272 81.1473 42.244L80.2833 41.968ZM78.9993 45.064V52.948H79.9113V44.176L79.8873 44.164L78.9993 45.064ZM92.4753 43.3H97.2753V45.58H92.4753V43.3ZM91.5993 42.436V46.444H98.1873V42.436H91.5993ZM89.8593 47.716V52.96H90.7113V48.58H93.2313V52.864H94.1313V47.716H89.8593ZM95.4393 47.716V52.96H96.3033V48.58H99.0513V52.888H99.9513V47.716H95.4393ZM90.2433 51.448V52.312H93.5913V51.448H90.2433ZM95.8833 51.448V52.312H99.4473V51.448H95.8833ZM105.231 51.652V52.48H111.027V51.652H105.231ZM104.823 43.132V43.936H109.227V43.132H104.823ZM105.363 41.884C104.667 43.192 103.287 44.74 101.307 45.82C101.511 45.976 101.811 46.288 101.943 46.516C104.031 45.28 105.471 43.648 106.371 42.088L105.363 41.884ZM108.927 43.132V43.288C107.679 46.444 104.355 48.796 101.247 49.696C101.439 49.888 101.667 50.26 101.775 50.5C105.039 49.444 108.423 47.032 109.863 43.408L109.263 43.084L109.095 43.132H108.927ZM103.323 45.268C104.271 45.94 105.411 46.948 105.915 47.632L106.647 46.984C106.095 46.3 104.943 45.34 103.995 44.692L103.323 45.268ZM110.583 47.86V52.984H111.507V47.86H110.583ZM105.639 47.86H105.459L104.739 48.568V52.96H105.639V48.688H111.039V47.86H105.639ZM120.471 45.364V50.248H121.287V45.364H120.471ZM118.587 48.004V48.7H123.363V48.004H118.587ZM117.207 49.852V50.608H124.503V49.852H117.207ZM118.059 46.144V52.948H118.887V46.876H123.375V46.144H118.059ZM122.979 46.144V51.988C122.979 52.132 122.931 52.168 122.775 52.18C122.619 52.18 122.103 52.192 121.551 52.168C121.671 52.384 121.815 52.732 121.851 52.96C122.607 52.96 123.099 52.948 123.411 52.804C123.735 52.684 123.831 52.432 123.831 51.988V46.144H122.979ZM122.895 42.1C121.887 42.364 120.123 42.628 118.611 42.748C118.695 42.94 118.815 43.24 118.851 43.42C120.423 43.3 122.283 43.072 123.579 42.748L122.895 42.1ZM118.515 42.556C118.263 43.612 117.831 44.68 117.267 45.4C117.483 45.496 117.879 45.712 118.059 45.844C118.599 45.088 119.091 43.9 119.403 42.736L118.515 42.556ZM120.135 43.66C120.387 44.176 120.603 44.884 120.663 45.34L121.455 45.112C121.383 44.656 121.167 43.972 120.891 43.468L120.135 43.66ZM122.403 43.42C122.895 44.128 123.411 45.1 123.615 45.724L124.395 45.376C124.167 44.752 123.651 43.816 123.135 43.12L122.403 43.42ZM115.155 42.964V52.984H116.007V42.964H115.155ZM113.391 45.4V46.228H117.471V45.4H113.391ZM115.143 45.724C114.795 47.188 113.991 49.06 113.247 50.044C113.403 50.248 113.619 50.608 113.715 50.86C114.507 49.732 115.311 47.596 115.695 45.928L115.143 45.724ZM116.811 42.184C116.019 42.568 114.591 42.916 113.331 43.132C113.439 43.312 113.559 43.6 113.595 43.792C114.915 43.6 116.463 43.264 117.495 42.82L116.811 42.184ZM115.971 46.78L115.563 47.14C115.899 47.536 116.763 48.664 117.027 49.12L117.555 48.448C117.315 48.16 116.259 47.032 115.971 46.78ZM127.179 52.828L127.839 53.032L130.503 47.44L127.839 41.86L127.179 42.064L129.771 47.44L127.179 52.828ZM125.295 52.828L125.943 53.032L128.607 47.44L125.943 41.86L125.295 42.064L127.875 47.44L125.295 52.828ZM5.208 64.52V65.36H10.692V64.52H5.208ZM5.22 66.536V67.328H9.384V66.536H5.22ZM5.508 68.396V73.004H6.3V68.396H5.508ZM5.964 68.396V69.176H8.124V71.396H5.964V72.176H8.94V68.396H5.964ZM10.248 64.52V73.748C10.248 73.964 10.176 74.036 9.948 74.036C9.72 74.048 8.916 74.06 8.1 74.024C8.232 74.288 8.364 74.708 8.412 74.96C9.492 74.96 10.188 74.948 10.596 74.792C10.992 74.636 11.124 74.348 11.124 73.76V64.52H10.248ZM1.02 67.556V68.276H4.536V67.556H1.02ZM1.056 64.352V65.072H4.488V64.352H1.056ZM1.02 69.164V69.884H4.536V69.164H1.02ZM0.456 65.924V66.668H4.872V65.924H0.456ZM1.416 70.784V71.528H3.744V73.532H1.416V74.288H4.536V70.784H1.416ZM1.008 70.784V74.84H1.788V70.784H1.008ZM13.74 73.316V74.204H22.284V73.316H13.74ZM13.728 69.812V70.664H22.404V69.812H13.728ZM13.176 66.32V74.972H14.028V67.196H21.984V74.912H22.872V66.32H13.176ZM16.056 64.052V73.904H16.932V64.052H16.056ZM18.96 64.052V73.856H19.848V64.052H18.96ZM26.712 66.224V66.884H29.64V66.224H26.712ZM26.592 73.76V74.444H30.336V73.76H26.592ZM26.052 68.912V69.512H30.06V68.912H26.052ZM25.668 67.544V69.5C25.668 70.88 25.512 72.764 24.396 74.132C24.564 74.24 24.888 74.528 25.008 74.696C26.232 73.208 26.46 71.036 26.46 69.524V67.544H25.668ZM26.112 67.544V68.216H29.628V70.22H26.088V70.892H30.444V67.544H26.112ZM26.268 71.636V74.948H27.048V72.32H29.82V74.864H30.624V71.636H26.268ZM31.428 65.372V72.02H32.292V65.372H31.428ZM34.128 64.148V73.784C34.128 74 34.044 74.072 33.816 74.072C33.6 74.084 32.88 74.096 32.064 74.06C32.196 74.324 32.34 74.732 32.376 74.96C33.456 74.972 34.104 74.948 34.476 74.792C34.848 74.648 35.004 74.384 35.004 73.772V64.148H34.128ZM27.564 64.04C26.976 65.024 25.884 66.248 24.396 67.136C24.576 67.268 24.852 67.556 24.972 67.76C26.556 66.728 27.66 65.468 28.344 64.496V64.232H28.056V64.04H27.564ZM27.732 64.04V64.676H27.912C28.788 65.312 29.88 66.368 30.444 66.992L31.044 66.32C30.432 65.684 29.292 64.712 28.38 64.04H27.732ZM41.844 65.936L41.424 66.8H47.532V65.936H41.844ZM43.344 68.54V69.368H47.256V68.54H43.344ZM43.332 71.18V72.032H47.424V71.18H43.332ZM42.888 66.212V74.96H43.812V66.212H42.888ZM42.3 64.064C41.712 65.828 40.74 67.58 39.648 68.696C39.852 68.84 40.212 69.164 40.344 69.32C41.448 68.084 42.492 66.2 43.176 64.292L42.3 64.064ZM39.42 63.968C38.736 65.792 37.62 67.592 36.42 68.756C36.588 68.972 36.864 69.452 36.948 69.668C38.256 68.324 39.492 66.272 40.284 64.244L39.42 63.968ZM38.136 67.064V74.948H39.048V66.176L39.024 66.164L38.136 67.064Z" fill="white"/>
<path d="M202.929 25.1299L0 25.1299L0 26.0199L202.929 26.0199V25.1299Z" fill="white"/>
<path d="M207 22L190 22V29H207V22Z" fill="#00E0B8"/>
<path d="M7.504 11.506V7.796H11.522V11.506H7.504ZM2.422 11.506V7.796H6.426V11.506H2.422ZM7.504 6.774V4.282H6.426V6.774H1.4V13.396H2.422V12.528H6.426V17.064H7.504V12.528H11.522V13.326H12.586V6.774H7.504ZM24.738 7.012C24.416 6.69 23.772 6.312 23.226 6.06L22.736 6.578C23.282 6.816 23.926 7.25 24.234 7.558L24.738 7.012ZM21 12.668C19.432 12.948 17.878 13.228 16.814 13.396L16.954 14.18C18.102 13.97 19.586 13.676 21.042 13.396L21 12.668ZM19.782 11.436H18.172V10.036H19.782V11.436ZM17.444 9.378V12.094H20.538V9.378H17.444ZM23.66 9.14C23.422 10.092 23.072 10.96 22.624 11.716C22.386 10.82 22.218 9.7 22.106 8.496H25.088V7.712H22.036C22.008 7.222 21.98 6.732 21.952 6.228H21.056C21.084 6.732 21.126 7.222 21.168 7.712H16.954V8.496H21.238C21.406 10.078 21.63 11.52 22.008 12.626C21.42 13.368 20.72 13.984 19.894 14.46C20.076 14.614 20.384 14.95 20.51 15.118C21.196 14.67 21.812 14.138 22.358 13.508C22.736 14.25 23.198 14.74 23.814 14.866C24.542 15.146 25.018 14.586 25.2 13.06C25.004 12.976 24.696 12.766 24.528 12.598C24.43 13.494 24.29 14.096 24.094 14.04C23.632 13.97 23.254 13.494 22.96 12.752C23.632 11.786 24.164 10.638 24.514 9.322L23.66 9.14ZM16.184 15.524V5.878H25.788V15.524H16.184ZM15.19 4.926V17.106H16.184V16.462H25.788V17.106H26.81V4.926H15.19ZM32.676 8.272C32.648 9.63 32.466 11.254 31.696 12.85C31.164 12.388 30.604 11.954 30.072 11.548C30.31 10.638 30.576 9.518 30.8 8.384L32.676 8.272ZM34.468 8.16L34.482 7.208L33.67 7.25V6.284H32.69V7.306L30.982 7.404C31.164 6.368 31.332 5.318 31.444 4.38L30.422 4.324C30.324 5.276 30.17 6.382 29.974 7.446C29.456 7.46 28.98 7.488 28.574 7.502L28.686 8.496L29.792 8.44C29.512 9.742 29.218 10.988 28.938 11.898C29.652 12.444 30.45 13.088 31.192 13.746C30.604 14.67 29.778 15.58 28.63 16.392C28.84 16.546 29.204 16.882 29.358 17.106C30.492 16.28 31.346 15.37 31.962 14.432C32.606 15.034 33.18 15.608 33.572 16.084L34.244 15.216C33.824 14.726 33.194 14.138 32.494 13.522C33.418 11.674 33.628 9.784 33.67 8.216L34.468 8.16ZM41.384 10.19H38.304V8.846C39.284 7.992 40.278 6.816 40.964 5.78L40.25 5.262L40.012 5.318H34.636V6.284H39.298C38.724 7.096 37.968 8.006 37.254 8.594V10.19H34.02V11.184H37.254V15.832C37.254 16.028 37.17 16.098 36.946 16.098C36.736 16.112 35.966 16.112 35.14 16.084C35.294 16.378 35.462 16.784 35.518 17.078C36.61 17.092 37.282 17.064 37.716 16.91C38.15 16.742 38.304 16.448 38.304 15.832V11.184H41.384V10.19ZM45.472 6.214H43.316V6.83H48.608V6.214H46.424V5.584H48.986V4.968H46.424V4.282H45.472V4.968H42.868V5.584H45.472V6.214ZM45.948 15.104V14.39H52.052V15.104H45.948ZM52.052 11.478V12.206H45.948V11.478H52.052ZM45.57 7.908V8.916H44.282C44.324 8.622 44.338 8.356 44.338 8.104V7.908H45.57ZM47.712 8.916H46.354V7.908H47.712V8.916ZM45.948 12.892H52.052V13.69H45.948V12.892ZM53.074 11.478H54.824V10.694H43.554C43.848 10.344 44.03 9.924 44.142 9.518H48.566V7.306H43.512V8.09C43.512 8.748 43.386 9.644 42.686 10.358C42.84 10.442 43.106 10.61 43.288 10.764V11.478H44.94V15.104H42.84V15.888H52.052V17.106H53.074V15.888H55.104V15.104H53.074V11.478ZM53.186 7.824C52.864 8.244 52.43 8.594 51.926 8.888C51.394 8.594 50.96 8.23 50.638 7.824H53.186ZM53.844 7.152L53.676 7.18H49.784C50.624 6.69 50.848 6.046 50.862 5.444H52.668V6.004C52.668 6.704 52.808 7.026 53.55 7.026H54.516C54.74 7.026 55.034 7.012 55.174 6.97C55.16 6.76 55.132 6.522 55.118 6.298C54.95 6.354 54.642 6.368 54.488 6.368H53.746C53.564 6.368 53.536 6.284 53.536 6.018V4.702H50.022V5.388C50.022 5.864 49.84 6.326 48.818 6.732C48.972 6.83 49.21 7.082 49.35 7.292V7.824H49.742C50.092 8.384 50.554 8.86 51.128 9.266C50.4 9.546 49.574 9.742 48.748 9.854C48.902 10.036 49.084 10.358 49.168 10.582C50.148 10.414 51.114 10.162 51.954 9.756C52.724 10.148 53.606 10.4 54.6 10.568C54.726 10.33 54.95 10.008 55.146 9.826C54.264 9.728 53.48 9.532 52.78 9.28C53.494 8.804 54.054 8.16 54.39 7.376L53.844 7.152ZM68.502 5.556H63.798C63.672 5.122 63.406 4.576 63.112 4.184L62.09 4.38C62.3 4.73 62.496 5.164 62.636 5.556H57.61V6.494H68.502V5.556ZM66.332 11.87V13.326H59.752V11.87H66.332ZM59.752 15.678V14.152H66.332V15.678H59.752ZM58.73 17.092H59.752V16.574H66.332V17.064H67.396V10.974H58.73V17.092ZM65.674 8.818C65.996 8.23 66.374 7.474 66.682 6.802L65.562 6.536C65.338 7.194 64.918 8.174 64.568 8.818H60.942L61.39 8.706C61.278 8.118 60.9 7.236 60.48 6.592L59.5 6.816C59.85 7.418 60.172 8.23 60.298 8.818H56.812V9.77H69.188V8.818H65.674ZM76.2669 11.198C76.8409 10.848 77.3589 10.428 77.8349 10.008C78.5489 10.344 79.3329 10.792 79.9909 11.198H76.2669ZM78.0029 4.87V5.71H78.8849V5.752C78.8849 6.424 78.8009 7.334 78.0729 8.09C77.8489 7.502 77.3589 6.746 76.8689 6.158L76.2109 6.494C76.4209 6.76 76.6309 7.096 76.8269 7.418L75.2169 8.062V5.892C76.0989 5.626 77.0509 5.29 77.7789 4.912L77.0369 4.282C76.4069 4.674 75.3009 5.108 74.3209 5.388V7.866C74.3209 8.342 74.0689 8.538 73.9009 8.622C74.0269 8.846 74.2089 9.238 74.2929 9.448V9.476C74.5169 9.28 74.8809 9.084 77.2049 8.104C77.2889 8.286 77.3729 8.468 77.4289 8.622L77.6669 8.496C77.8629 8.622 78.1009 8.818 78.2409 8.972L77.9329 8.846C76.9809 9.952 75.2589 10.988 73.7049 11.576C73.9149 11.772 74.1389 12.066 74.2789 12.29C74.8249 12.052 75.3849 11.744 75.9309 11.422V11.926H77.4569V12.822H74.5589V13.578H77.4569V15.706C76.1269 15.79 74.9369 15.874 74.0129 15.916L74.1669 16.756C76.0989 16.63 78.9969 16.448 81.7269 16.224L81.7409 15.426L80.0469 15.538C80.2569 15.076 80.4809 14.53 80.6769 14.012L79.8369 13.774C79.6829 14.292 79.4169 15.048 79.1929 15.594L78.3809 15.65V13.578H81.2229V12.822H78.3809V11.926H80.0609V11.24C80.4809 11.506 80.8449 11.744 81.1109 11.968L81.6849 11.324C80.9569 10.722 79.5709 9.966 78.3949 9.448C78.4789 9.35 78.5629 9.252 78.6329 9.154L78.2969 9C79.5289 8.062 79.6689 6.774 79.6689 5.794V5.71H80.9569C80.8589 7.502 80.7609 8.174 80.6349 8.37C80.5509 8.482 80.4669 8.496 80.3129 8.496C80.1869 8.496 79.8929 8.496 79.5429 8.454C79.6549 8.678 79.7389 9.028 79.7529 9.294C80.1169 9.322 80.4949 9.308 80.7049 9.28C80.9849 9.252 81.1669 9.168 81.3349 8.958C81.6009 8.636 81.7129 7.712 81.8249 5.262C81.8389 5.122 81.8389 4.87 81.8389 4.87H78.0029ZM75.1609 14.054C75.4549 14.572 75.7209 15.258 75.8189 15.706L76.6309 15.44C76.5189 15.02 76.2249 14.348 75.9169 13.844L75.1609 14.054ZM83.4489 5.864H82.4829V13.466H83.4489V5.864ZM84.9609 4.548V15.762C84.9609 15.986 84.8629 16.056 84.6389 16.07C84.4289 16.07 83.7009 16.07 82.8889 16.056C83.0289 16.35 83.1689 16.784 83.2109 17.078C84.3309 17.078 84.9889 17.05 85.3949 16.882C85.7869 16.7 85.9549 16.406 85.9549 15.762V4.548H84.9609ZM90.6729 14.04V10.316H92.3529V9.35H90.6729V6.214H92.4789V5.234H87.9149V6.214H89.6229V9.35H88.0689V10.316H89.6229V14.334C88.9229 14.53 88.2789 14.698 87.7469 14.838L87.9709 15.818C89.3009 15.426 91.0649 14.894 92.7589 14.39L92.6189 13.48L90.6729 14.04ZM96.1049 8.916V12.276H94.0609V8.916H96.1049ZM97.0149 13.2V7.992H93.1649V14.11H94.0609V13.2H97.0149ZM100.487 5.192H92.6889V6.2H98.4009V15.678C98.4009 15.93 98.3169 16 98.0509 16.014C97.7569 16.028 96.8049 16.028 95.7829 16C95.9509 16.294 96.1049 16.77 96.1749 17.05C97.4489 17.064 98.3029 17.036 98.7789 16.868C99.2549 16.7 99.4369 16.378 99.4369 15.678V6.2H100.487V5.192ZM109.405 10.68L112.415 4.408L111.659 4.156L108.551 10.68L111.659 17.204L112.415 16.952L109.405 10.68ZM111.617 10.68L114.627 4.408L113.871 4.156L110.763 10.68L113.871 17.204L114.627 16.952L111.617 10.68ZM127.857 6.83V5.892H118.813C119.121 5.444 119.401 4.968 119.639 4.492L118.715 4.198C118.043 5.57 116.923 6.9 115.747 7.74C115.957 7.936 116.279 8.356 116.391 8.552C116.993 8.076 117.581 7.488 118.113 6.83H127.857ZM117.175 17.078C117.693 16.336 118.239 15.174 118.589 14.264L117.609 14.012C117.259 14.922 116.685 16.014 116.195 16.686L117.175 17.078ZM119.947 14.404C120.115 15.244 120.241 16.322 120.241 16.966L121.263 16.812C121.249 16.182 121.095 15.132 120.913 14.32L119.947 14.404ZM122.831 14.376C123.181 15.202 123.545 16.28 123.671 16.938L124.693 16.728C124.553 16.07 124.175 15.006 123.783 14.208L122.831 14.376ZM125.715 14.32C126.219 15.188 126.849 16.35 127.115 17.05L128.123 16.616C127.815 15.93 127.171 14.782 126.653 13.942L125.715 14.32ZM119.051 10.12H120.507V12.5H119.051V10.12ZM123.027 10.12V12.5H121.403V10.12H123.027ZM125.463 10.12V12.5H123.923V10.12H125.463ZM126.429 12.5V10.12H128.011V9.182H126.429V7.628H125.463V9.182H123.923V7.628H123.027V9.182H121.403V7.628H120.507V9.182H119.051V7.628H118.113V9.182H116.433V10.12H118.113V12.5H115.971V13.438H128.291V12.5H126.429ZM136.719 11.814V9.49H140.485V11.814H136.719ZM132.281 11.814C132.323 11.296 132.337 10.778 132.337 10.316V9.49H135.683V11.814H132.281ZM135.683 6.27V8.51H132.337V6.27H135.683ZM140.485 8.51H136.719V6.27H140.485V8.51ZM141.507 5.276H131.315V10.316C131.315 12.262 131.175 14.726 129.635 16.462C129.859 16.588 130.279 16.938 130.433 17.148C131.497 15.958 131.973 14.362 132.183 12.808H135.683V16.938H136.719V12.808H140.485V15.65C140.485 15.916 140.387 16 140.107 16.014C139.855 16.014 138.903 16.028 137.923 15.986C138.063 16.266 138.231 16.714 138.273 16.994C139.589 17.008 140.401 16.994 140.877 16.826C141.325 16.644 141.507 16.336 141.507 15.664V5.276ZM149.734 17.204L152.842 10.68L149.734 4.156L148.978 4.408L151.988 10.68L148.978 16.952L149.734 17.204ZM147.522 17.204L150.63 10.68L147.522 4.156L146.766 4.408L149.776 10.68L146.766 16.952L147.522 17.204Z" fill="#00E0B8"/>
</svg>
