<?xml version="1.0" encoding="utf-8"?>
<!-- Generator: Adobe Illustrator 26.0.3, SVG Export Plug-In . SVG Version: 6.00 Build 0)  -->
<svg version="1.1" id="圖層_1" xmlns="http://www.w3.org/2000/svg" xmlns:xlink="http://www.w3.org/1999/xlink" x="0px" y="0px"
	 viewBox="0 0 346 59" style="enable-background:new 0 0 346 59;" xml:space="preserve">
<style type="text/css">
	.st0{fill:#FFFFFF;filter:url(#Adobe_OpacityMaskFilter);}
	.st1{fill:#FFFFFF;}
	
		.st2{mask:url(#path-1-inside-1_324_635_00000099627641996612162330000013982594947463604397_);fill:none;stroke:url(#SVGID_1_);stroke-width:2.6;}
	.st3{fill:#FFFFFF;filter:url(#Adobe_OpacityMaskFilter_00000096051961480158887450000006554564172501042327_);}
	
		.st4{mask:url(#path-1-inside-1_324_635_00000111880787882181927070000011841084428479811513_);fill:none;stroke:url(#SVGID_00000178916545467402811960000013557443940900352398_);stroke-width:2.6;}
	.st5{fill:#FFFFFF;filter:url(#Adobe_OpacityMaskFilter_00000134243187563474728460000017984488987280012463_);}
	
		.st6{mask:url(#path-1-inside-1_324_635_00000019665169260559076420000010492065835926751655_);fill:none;stroke:url(#SVGID_00000151536100413378898190000006630015066705650864_);stroke-width:2.6;}
	.st7{fill:#FFFFFF;filter:url(#Adobe_OpacityMaskFilter_00000091016550212809632120000008342434815333308859_);}
	
		.st8{mask:url(#path-1-inside-1_324_635_00000034057787919934238770000005260975749327499680_);fill:none;stroke:url(#SVGID_00000158750236857519471400000007119536491424345766_);stroke-width:2.6;}
	.st9{fill:#FFFFFF;filter:url(#Adobe_OpacityMaskFilter_00000139291677838231542380000002502203162217855152_);}
	
		.st10{mask:url(#path-1-inside-1_324_635_00000010309006325445239890000002630896988311867029_);fill:none;stroke:url(#SVGID_00000026153604201410446790000007086382568201903520_);stroke-width:2.6;}
	.st11{fill:#FFFFFF;filter:url(#Adobe_OpacityMaskFilter_00000056400035741961047450000016000751648462672570_);}
	
		.st12{mask:url(#path-1-inside-1_324_635_00000022540118929372549520000000242360682035845806_);fill:none;stroke:url(#SVGID_00000048494423620320883800000011732273854204566964_);stroke-width:2.6;}
	.st13{fill:#FFFFFF;filter:url(#Adobe_OpacityMaskFilter_00000098178990782679226290000015604312840447812025_);}
	
		.st14{mask:url(#path-1-inside-1_324_635_00000150797390001897026760000017528049548099085490_);fill:none;stroke:url(#SVGID_00000037692530670204084390000013305167897627443618_);stroke-width:2.6;}
</style>
<path d="M83.2,1L65.6,58h-12L42.9,22.7c-0.2-0.5-0.4-1.1-0.6-1.8c-0.2-0.7-0.4-1.4-0.5-2.1c-0.2,0.7-0.4,1.4-0.5,2.1
	c-0.2,0.7-0.4,1.3-0.6,1.8L29.7,58h-12L0.2,1h11.1c1.1,0,2.1,0.3,2.9,0.8c0.8,0.5,1.3,1.2,1.5,2.1l7.8,29.7c0.2,0.9,0.5,2,0.7,3.1
	c0.2,1.1,0.5,2.2,0.7,3.4c0.5-2.5,1-4.6,1.7-6.5l9.2-29.7c0.2-0.7,0.7-1.4,1.5-2C38.1,1.3,39.1,1,40.1,1h3.9c1.1,0,2.1,0.3,2.8,0.8
	c0.7,0.5,1.2,1.2,1.6,2l9.2,29.7c0.7,1.8,1.3,3.9,1.7,6.2c0.2-1.2,0.4-2.3,0.6-3.3c0.2-1,0.5-2,0.7-2.9l7.8-29.7
	c0.2-0.8,0.7-1.4,1.5-2C70.7,1.3,71.7,1,72.8,1H83.2z"/>
<path d="M102.2,58H88.9V1h13.3V58z"/>
<path d="M154.2,11.5h-16V58h-13.2V11.5h-16V1h45.3V11.5z"/>
<path d="M210.7,1v57h-6.9c-1,0-1.9-0.2-2.6-0.5c-0.7-0.3-1.4-0.9-2-1.7l-26.9-34c0.1,1,0.2,2,0.2,3c0.1,0.9,0.1,1.8,0.1,2.7V58
	h-11.7V1h7c0.6,0,1.1,0,1.4,0.1c0.4,0.1,0.7,0.2,1.1,0.3c0.3,0.1,0.6,0.3,0.9,0.6c0.3,0.3,0.6,0.6,1,1.1l27.1,34.2
	c-0.1-1.1-0.2-2.2-0.3-3.2c-0.1-1-0.1-2-0.1-2.9V1H210.7z"/>
<path d="M235,11.2v13.3H253v9.8H235v13.6h23.4V58h-36.7V1h36.7v10.2H235z"/>
<path d="M298.1,12.6c-0.4,0.6-0.8,1.1-1.3,1.4c-0.4,0.3-1,0.5-1.6,0.5c-0.6,0-1.3-0.2-2-0.5c-0.7-0.4-1.5-0.8-2.3-1.3
	c-0.9-0.5-1.9-0.9-3-1.3c-1.1-0.4-2.4-0.6-3.8-0.6c-2.5,0-4.3,0.5-5.6,1.6c-1.2,1-1.8,2.5-1.8,4.3c0,1.1,0.4,2.1,1.1,2.9
	c0.7,0.8,1.7,1.4,2.9,2c1.2,0.5,2.6,1.1,4.1,1.5c1.5,0.4,3.1,1,4.7,1.5c1.6,0.5,3.1,1.2,4.7,2c1.5,0.8,2.9,1.7,4.1,2.9
	c1.2,1.2,2.2,2.6,2.9,4.3c0.7,1.7,1.1,3.7,1.1,6.1c0,2.6-0.5,5.1-1.4,7.4c-0.9,2.3-2.2,4.3-4,6c-1.7,1.7-3.9,3-6.4,4
	c-2.5,1-5.4,1.4-8.6,1.4c-1.8,0-3.6-0.2-5.4-0.5c-1.8-0.4-3.6-0.9-5.3-1.5c-1.7-0.7-3.3-1.5-4.9-2.4c-1.5-0.9-2.8-1.9-4-3.1l3.9-6.2
	c0.3-0.4,0.7-0.8,1.2-1.1c0.5-0.3,1.1-0.5,1.7-0.5c0.8,0,1.6,0.2,2.3,0.7c0.8,0.5,1.7,1,2.7,1.6c1,0.6,2.2,1.1,3.5,1.6
	c1.3,0.5,2.8,0.7,4.6,0.7c2.4,0,4.3-0.5,5.6-1.6c1.3-1.1,2-2.8,2-5c0-1.3-0.4-2.4-1.1-3.2c-0.7-0.8-1.7-1.5-2.9-2.1
	c-1.2-0.5-2.5-1-4-1.4c-1.5-0.4-3.1-0.9-4.7-1.4c-1.6-0.5-3.1-1.1-4.7-1.9c-1.5-0.8-2.9-1.7-4.1-2.9c-1.2-1.2-2.1-2.7-2.9-4.5
	c-0.7-1.8-1.1-4.1-1.1-6.7c0-2.1,0.4-4.2,1.3-6.3c0.9-2,2.1-3.8,3.8-5.4c1.7-1.6,3.7-2.9,6.1-3.8c2.4-1,5.2-1.4,8.3-1.4
	c1.7,0,3.4,0.1,5.1,0.4c1.7,0.3,3.2,0.7,4.7,1.2c1.5,0.5,2.9,1.2,4.1,1.9c1.3,0.7,2.5,1.6,3.5,2.5L298.1,12.6z"/>
<path d="M341.4,12.6c-0.4,0.6-0.8,1.1-1.3,1.4c-0.4,0.3-1,0.5-1.6,0.5c-0.6,0-1.3-0.2-2-0.5c-0.7-0.4-1.5-0.8-2.3-1.3
	c-0.9-0.5-1.9-0.9-3-1.3c-1.1-0.4-2.4-0.6-3.8-0.6c-2.5,0-4.3,0.5-5.6,1.6c-1.2,1-1.8,2.5-1.8,4.3c0,1.1,0.4,2.1,1.1,2.9
	c0.7,0.8,1.7,1.4,2.9,2c1.2,0.5,2.6,1.1,4.1,1.5c1.5,0.4,3.1,1,4.7,1.5c1.6,0.5,3.1,1.2,4.7,2c1.5,0.8,2.9,1.7,4.1,2.9
	c1.2,1.2,2.2,2.6,2.9,4.3c0.7,1.7,1.1,3.7,1.1,6.1c0,2.6-0.5,5.1-1.4,7.4c-0.9,2.3-2.2,4.3-4,6c-1.7,1.7-3.9,3-6.4,4
	c-2.5,1-5.4,1.4-8.6,1.4c-1.8,0-3.6-0.2-5.4-0.5c-1.8-0.4-3.6-0.9-5.3-1.5c-1.7-0.7-3.3-1.5-4.9-2.4c-1.5-0.9-2.8-1.9-4-3.1l3.9-6.2
	c0.3-0.4,0.7-0.8,1.2-1.1c0.5-0.3,1.1-0.5,1.7-0.5c0.8,0,1.6,0.2,2.3,0.7c0.8,0.5,1.7,1,2.7,1.6c1,0.6,2.2,1.1,3.5,1.6
	c1.3,0.5,2.8,0.7,4.6,0.7c2.4,0,4.3-0.5,5.6-1.6c1.3-1.1,2-2.8,2-5c0-1.3-0.4-2.4-1.1-3.2c-0.7-0.8-1.7-1.5-2.9-2.1
	c-1.2-0.5-2.5-1-4-1.4c-1.5-0.4-3.1-0.9-4.7-1.4c-1.6-0.5-3.1-1.1-4.7-1.9c-1.5-0.8-2.9-1.7-4.1-2.9c-1.2-1.2-2.1-2.7-2.9-4.5
	c-0.7-1.8-1.1-4.1-1.1-6.7c0-2.1,0.4-4.2,1.3-6.3c0.9-2,2.1-3.8,3.8-5.4c1.7-1.6,3.7-2.9,6.1-3.8c2.4-1,5.2-1.4,8.3-1.4
	c1.7,0,3.4,0.1,5.1,0.4c1.7,0.3,3.2,0.7,4.7,1.2c1.5,0.5,2.9,1.2,4.1,1.9c1.3,0.7,2.5,1.6,3.5,2.5L341.4,12.6z"/>
<defs>
	<filter id="Adobe_OpacityMaskFilter" filterUnits="userSpaceOnUse" x="-1.6" y="-0.3" width="86.6" height="59.6">
		<feColorMatrix  type="matrix" values="1 0 0 0 0  0 1 0 0 0  0 0 1 0 0  0 0 0 1 0"/>
	</filter>
</defs>
<mask maskUnits="userSpaceOnUse" x="-1.6" y="-0.3" width="86.6" height="59.6" id="path-1-inside-1_324_635_00000099627641996612162330000013982594947463604397_">
	<path class="st0" d="M83.2,1L65.6,58h-12L42.9,22.7c-0.2-0.5-0.4-1.1-0.6-1.8c-0.2-0.7-0.4-1.4-0.5-2.1c-0.2,0.7-0.4,1.4-0.5,2.1
		c-0.2,0.7-0.4,1.3-0.6,1.8L29.7,58h-12L0.2,1h11.1c1.1,0,2.1,0.3,2.9,0.8c0.8,0.5,1.3,1.2,1.5,2.1l7.8,29.7c0.2,0.9,0.5,2,0.7,3.1
		c0.2,1.1,0.5,2.2,0.7,3.4c0.5-2.5,1-4.6,1.7-6.5l9.2-29.7c0.2-0.7,0.7-1.4,1.5-2C38.1,1.3,39.1,1,40.1,1h3.9c1.1,0,2.1,0.3,2.8,0.8
		c0.7,0.5,1.2,1.2,1.6,2l9.2,29.7c0.7,1.8,1.3,3.9,1.7,6.2c0.2-1.2,0.4-2.3,0.6-3.3c0.2-1,0.5-2,0.7-2.9l7.8-29.7
		c0.2-0.8,0.7-1.4,1.5-2C70.7,1.3,71.7,1,72.8,1H83.2z"/>
	<path class="st1" d="M102.2,58H88.9V1h13.3V58z"/>
	<path class="st1" d="M154.2,11.5h-16V58h-13.2V11.5h-16V1h45.3V11.5z"/>
	<path class="st1" d="M210.7,1v57h-6.9c-1,0-1.9-0.2-2.6-0.5c-0.7-0.3-1.4-0.9-2-1.7l-26.9-34c0.1,1,0.2,2,0.2,3
		c0.1,0.9,0.1,1.8,0.1,2.7V58h-11.7V1h7c0.6,0,1.1,0,1.4,0.1c0.4,0.1,0.7,0.2,1.1,0.3c0.3,0.1,0.6,0.3,0.9,0.6
		c0.3,0.3,0.6,0.6,1,1.1l27.1,34.2c-0.1-1.1-0.2-2.2-0.3-3.2c-0.1-1-0.1-2-0.1-2.9V1H210.7z"/>
	<path class="st1" d="M235,11.2v13.3H253v9.8H235v13.6h23.4V58h-36.7V1h36.7v10.2H235z"/>
	<path class="st1" d="M298.1,12.6c-0.4,0.6-0.8,1.1-1.3,1.4c-0.4,0.3-1,0.5-1.6,0.5c-0.6,0-1.3-0.2-2-0.5c-0.7-0.4-1.5-0.8-2.3-1.3
		c-0.9-0.5-1.9-0.9-3-1.3c-1.1-0.4-2.4-0.6-3.8-0.6c-2.5,0-4.3,0.5-5.6,1.6c-1.2,1-1.8,2.5-1.8,4.3c0,1.1,0.4,2.1,1.1,2.9
		c0.7,0.8,1.7,1.4,2.9,2c1.2,0.5,2.6,1.1,4.1,1.5c1.5,0.4,3.1,1,4.7,1.5c1.6,0.5,3.1,1.2,4.7,2c1.5,0.8,2.9,1.7,4.1,2.9
		c1.2,1.2,2.2,2.6,2.9,4.3c0.7,1.7,1.1,3.7,1.1,6.1c0,2.6-0.5,5.1-1.4,7.4c-0.9,2.3-2.2,4.3-4,6c-1.7,1.7-3.9,3-6.4,4
		c-2.5,1-5.4,1.4-8.6,1.4c-1.8,0-3.6-0.2-5.4-0.5c-1.8-0.4-3.6-0.9-5.3-1.5c-1.7-0.7-3.3-1.5-4.9-2.4c-1.5-0.9-2.8-1.9-4-3.1
		l3.9-6.2c0.3-0.4,0.7-0.8,1.2-1.1c0.5-0.3,1.1-0.5,1.7-0.5c0.8,0,1.6,0.2,2.3,0.7c0.8,0.5,1.7,1,2.7,1.6c1,0.6,2.2,1.1,3.5,1.6
		c1.3,0.5,2.8,0.7,4.6,0.7c2.4,0,4.3-0.5,5.6-1.6c1.3-1.1,2-2.8,2-5c0-1.3-0.4-2.4-1.1-3.2c-0.7-0.8-1.7-1.5-2.9-2.1
		c-1.2-0.5-2.5-1-4-1.4c-1.5-0.4-3.1-0.9-4.7-1.4c-1.6-0.5-3.1-1.1-4.7-1.9c-1.5-0.8-2.9-1.7-4.1-2.9c-1.2-1.2-2.1-2.7-2.9-4.5
		c-0.7-1.8-1.1-4.1-1.1-6.7c0-2.1,0.4-4.2,1.3-6.3c0.9-2,2.1-3.8,3.8-5.4c1.7-1.6,3.7-2.9,6.1-3.8c2.4-1,5.2-1.4,8.3-1.4
		c1.7,0,3.4,0.1,5.1,0.4c1.7,0.3,3.2,0.7,4.7,1.2c1.5,0.5,2.9,1.2,4.1,1.9c1.3,0.7,2.5,1.6,3.5,2.5L298.1,12.6z"/>
	<path class="st1" d="M341.4,12.6c-0.4,0.6-0.8,1.1-1.3,1.4c-0.4,0.3-1,0.5-1.6,0.5c-0.6,0-1.3-0.2-2-0.5c-0.7-0.4-1.5-0.8-2.3-1.3
		c-0.9-0.5-1.9-0.9-3-1.3c-1.1-0.4-2.4-0.6-3.8-0.6c-2.5,0-4.3,0.5-5.6,1.6c-1.2,1-1.8,2.5-1.8,4.3c0,1.1,0.4,2.1,1.1,2.9
		c0.7,0.8,1.7,1.4,2.9,2c1.2,0.5,2.6,1.1,4.1,1.5c1.5,0.4,3.1,1,4.7,1.5c1.6,0.5,3.1,1.2,4.7,2c1.5,0.8,2.9,1.7,4.1,2.9
		c1.2,1.2,2.2,2.6,2.9,4.3c0.7,1.7,1.1,3.7,1.1,6.1c0,2.6-0.5,5.1-1.4,7.4c-0.9,2.3-2.2,4.3-4,6c-1.7,1.7-3.9,3-6.4,4
		c-2.5,1-5.4,1.4-8.6,1.4c-1.8,0-3.6-0.2-5.4-0.5c-1.8-0.4-3.6-0.9-5.3-1.5c-1.7-0.7-3.3-1.5-4.9-2.4c-1.5-0.9-2.8-1.9-4-3.1
		l3.9-6.2c0.3-0.4,0.7-0.8,1.2-1.1c0.5-0.3,1.1-0.5,1.7-0.5c0.8,0,1.6,0.2,2.3,0.7c0.8,0.5,1.7,1,2.7,1.6c1,0.6,2.2,1.1,3.5,1.6
		c1.3,0.5,2.8,0.7,4.6,0.7c2.4,0,4.3-0.5,5.6-1.6c1.3-1.1,2-2.8,2-5c0-1.3-0.4-2.4-1.1-3.2c-0.7-0.8-1.7-1.5-2.9-2.1
		c-1.2-0.5-2.5-1-4-1.4c-1.5-0.4-3.1-0.9-4.7-1.4c-1.6-0.5-3.1-1.1-4.7-1.9c-1.5-0.8-2.9-1.7-4.1-2.9c-1.2-1.2-2.1-2.7-2.9-4.5
		c-0.7-1.8-1.1-4.1-1.1-6.7c0-2.1,0.4-4.2,1.3-6.3c0.9-2,2.1-3.8,3.8-5.4c1.7-1.6,3.7-2.9,6.1-3.8c2.4-1,5.2-1.4,8.3-1.4
		c1.7,0,3.4,0.1,5.1,0.4c1.7,0.3,3.2,0.7,4.7,1.2c1.5,0.5,2.9,1.2,4.1,1.9c1.3,0.7,2.5,1.6,3.5,2.5L341.4,12.6z"/>
</mask>
<linearGradient id="SVGID_1_" gradientUnits="userSpaceOnUse" x1="43.2866" y1="50.03" x2="55.4625" y2="-27.6226" gradientTransform="matrix(1 0 0 -1 0 60)">
	<stop  offset="0" style="stop-color:#FFF176"/>
	<stop  offset="1" style="stop-color:#00E0B8"/>
</linearGradient>
<path class="st2" d="M83.2,1L65.6,58h-12L42.9,22.7c-0.2-0.5-0.4-1.1-0.6-1.8c-0.2-0.7-0.4-1.4-0.5-2.1c-0.2,0.7-0.4,1.4-0.5,2.1
	c-0.2,0.7-0.4,1.3-0.6,1.8L29.7,58h-12L0.2,1h11.1c1.1,0,2.1,0.3,2.9,0.8c0.8,0.5,1.3,1.2,1.5,2.1l7.8,29.7c0.2,0.9,0.5,2,0.7,3.1
	c0.2,1.1,0.5,2.2,0.7,3.4c0.5-2.5,1-4.6,1.7-6.5l9.2-29.7c0.2-0.7,0.7-1.4,1.5-2C38.1,1.3,39.1,1,40.1,1h3.9c1.1,0,2.1,0.3,2.8,0.8
	c0.7,0.5,1.2,1.2,1.6,2l9.2,29.7c0.7,1.8,1.3,3.9,1.7,6.2c0.2-1.2,0.4-2.3,0.6-3.3c0.2-1,0.5-2,0.7-2.9l7.8-29.7
	c0.2-0.8,0.7-1.4,1.5-2C70.7,1.3,71.7,1,72.8,1H83.2z"/>
<defs>
	
		<filter id="Adobe_OpacityMaskFilter_00000177455206356903462120000007804113585832573576_" filterUnits="userSpaceOnUse" x="87.6" y="-0.3" width="15.9" height="59.6">
		<feColorMatrix  type="matrix" values="1 0 0 0 0  0 1 0 0 0  0 0 1 0 0  0 0 0 1 0"/>
	</filter>
</defs>
<mask maskUnits="userSpaceOnUse" x="87.6" y="-0.3" width="15.9" height="59.6" id="path-1-inside-1_324_635_00000111880787882181927070000011841084428479811513_">
	<path style="fill:#FFFFFF;filter:url(#Adobe_OpacityMaskFilter_00000177455206356903462120000007804113585832573576_);" d="M83.2,1
		L65.6,58h-12L42.9,22.7c-0.2-0.5-0.4-1.1-0.6-1.8c-0.2-0.7-0.4-1.4-0.5-2.1c-0.2,0.7-0.4,1.4-0.5,2.1c-0.2,0.7-0.4,1.3-0.6,1.8
		L29.7,58h-12L0.2,1h11.1c1.1,0,2.1,0.3,2.9,0.8c0.8,0.5,1.3,1.2,1.5,2.1l7.8,29.7c0.2,0.9,0.5,2,0.7,3.1c0.2,1.1,0.5,2.2,0.7,3.4
		c0.5-2.5,1-4.6,1.7-6.5l9.2-29.7c0.2-0.7,0.7-1.4,1.5-2C38.1,1.3,39.1,1,40.1,1h3.9c1.1,0,2.1,0.3,2.8,0.8c0.7,0.5,1.2,1.2,1.6,2
		l9.2,29.7c0.7,1.8,1.3,3.9,1.7,6.2c0.2-1.2,0.4-2.3,0.6-3.3c0.2-1,0.5-2,0.7-2.9l7.8-29.7c0.2-0.8,0.7-1.4,1.5-2
		C70.7,1.3,71.7,1,72.8,1H83.2z"/>
	<path class="st1" d="M102.2,58H88.9V1h13.3V58z"/>
	<path class="st1" d="M154.2,11.5h-16V58h-13.2V11.5h-16V1h45.3V11.5z"/>
	<path class="st1" d="M210.7,1v57h-6.9c-1,0-1.9-0.2-2.6-0.5c-0.7-0.3-1.4-0.9-2-1.7l-26.9-34c0.1,1,0.2,2,0.2,3
		c0.1,0.9,0.1,1.8,0.1,2.7V58h-11.7V1h7c0.6,0,1.1,0,1.4,0.1c0.4,0.1,0.7,0.2,1.1,0.3c0.3,0.1,0.6,0.3,0.9,0.6
		c0.3,0.3,0.6,0.6,1,1.1l27.1,34.2c-0.1-1.1-0.2-2.2-0.3-3.2c-0.1-1-0.1-2-0.1-2.9V1H210.7z"/>
	<path class="st1" d="M235,11.2v13.3H253v9.8H235v13.6h23.4V58h-36.7V1h36.7v10.2H235z"/>
	<path class="st1" d="M298.1,12.6c-0.4,0.6-0.8,1.1-1.3,1.4c-0.4,0.3-1,0.5-1.6,0.5c-0.6,0-1.3-0.2-2-0.5c-0.7-0.4-1.5-0.8-2.3-1.3
		c-0.9-0.5-1.9-0.9-3-1.3c-1.1-0.4-2.4-0.6-3.8-0.6c-2.5,0-4.3,0.5-5.6,1.6c-1.2,1-1.8,2.5-1.8,4.3c0,1.1,0.4,2.1,1.1,2.9
		c0.7,0.8,1.7,1.4,2.9,2c1.2,0.5,2.6,1.1,4.1,1.5c1.5,0.4,3.1,1,4.7,1.5c1.6,0.5,3.1,1.2,4.7,2c1.5,0.8,2.9,1.7,4.1,2.9
		c1.2,1.2,2.2,2.6,2.9,4.3c0.7,1.7,1.1,3.7,1.1,6.1c0,2.6-0.5,5.1-1.4,7.4c-0.9,2.3-2.2,4.3-4,6c-1.7,1.7-3.9,3-6.4,4
		c-2.5,1-5.4,1.4-8.6,1.4c-1.8,0-3.6-0.2-5.4-0.5c-1.8-0.4-3.6-0.9-5.3-1.5c-1.7-0.7-3.3-1.5-4.9-2.4c-1.5-0.9-2.8-1.9-4-3.1
		l3.9-6.2c0.3-0.4,0.7-0.8,1.2-1.1c0.5-0.3,1.1-0.5,1.7-0.5c0.8,0,1.6,0.2,2.3,0.7c0.8,0.5,1.7,1,2.7,1.6c1,0.6,2.2,1.1,3.5,1.6
		c1.3,0.5,2.8,0.7,4.6,0.7c2.4,0,4.3-0.5,5.6-1.6c1.3-1.1,2-2.8,2-5c0-1.3-0.4-2.4-1.1-3.2c-0.7-0.8-1.7-1.5-2.9-2.1
		c-1.2-0.5-2.5-1-4-1.4c-1.5-0.4-3.1-0.9-4.7-1.4c-1.6-0.5-3.1-1.1-4.7-1.9c-1.5-0.8-2.9-1.7-4.1-2.9c-1.2-1.2-2.1-2.7-2.9-4.5
		c-0.7-1.8-1.1-4.1-1.1-6.7c0-2.1,0.4-4.2,1.3-6.3c0.9-2,2.1-3.8,3.8-5.4c1.7-1.6,3.7-2.9,6.1-3.8c2.4-1,5.2-1.4,8.3-1.4
		c1.7,0,3.4,0.1,5.1,0.4c1.7,0.3,3.2,0.7,4.7,1.2c1.5,0.5,2.9,1.2,4.1,1.9c1.3,0.7,2.5,1.6,3.5,2.5L298.1,12.6z"/>
	<path class="st1" d="M341.4,12.6c-0.4,0.6-0.8,1.1-1.3,1.4c-0.4,0.3-1,0.5-1.6,0.5c-0.6,0-1.3-0.2-2-0.5c-0.7-0.4-1.5-0.8-2.3-1.3
		c-0.9-0.5-1.9-0.9-3-1.3c-1.1-0.4-2.4-0.6-3.8-0.6c-2.5,0-4.3,0.5-5.6,1.6c-1.2,1-1.8,2.5-1.8,4.3c0,1.1,0.4,2.1,1.1,2.9
		c0.7,0.8,1.7,1.4,2.9,2c1.2,0.5,2.6,1.1,4.1,1.5c1.5,0.4,3.1,1,4.7,1.5c1.6,0.5,3.1,1.2,4.7,2c1.5,0.8,2.9,1.7,4.1,2.9
		c1.2,1.2,2.2,2.6,2.9,4.3c0.7,1.7,1.1,3.7,1.1,6.1c0,2.6-0.5,5.1-1.4,7.4c-0.9,2.3-2.2,4.3-4,6c-1.7,1.7-3.9,3-6.4,4
		c-2.5,1-5.4,1.4-8.6,1.4c-1.8,0-3.6-0.2-5.4-0.5c-1.8-0.4-3.6-0.9-5.3-1.5c-1.7-0.7-3.3-1.5-4.9-2.4c-1.5-0.9-2.8-1.9-4-3.1
		l3.9-6.2c0.3-0.4,0.7-0.8,1.2-1.1c0.5-0.3,1.1-0.5,1.7-0.5c0.8,0,1.6,0.2,2.3,0.7c0.8,0.5,1.7,1,2.7,1.6c1,0.6,2.2,1.1,3.5,1.6
		c1.3,0.5,2.8,0.7,4.6,0.7c2.4,0,4.3-0.5,5.6-1.6c1.3-1.1,2-2.8,2-5c0-1.3-0.4-2.4-1.1-3.2c-0.7-0.8-1.7-1.5-2.9-2.1
		c-1.2-0.5-2.5-1-4-1.4c-1.5-0.4-3.1-0.9-4.7-1.4c-1.6-0.5-3.1-1.1-4.7-1.9c-1.5-0.8-2.9-1.7-4.1-2.9c-1.2-1.2-2.1-2.7-2.9-4.5
		c-0.7-1.8-1.1-4.1-1.1-6.7c0-2.1,0.4-4.2,1.3-6.3c0.9-2,2.1-3.8,3.8-5.4c1.7-1.6,3.7-2.9,6.1-3.8c2.4-1,5.2-1.4,8.3-1.4
		c1.7,0,3.4,0.1,5.1,0.4c1.7,0.3,3.2,0.7,4.7,1.2c1.5,0.5,2.9,1.2,4.1,1.9c1.3,0.7,2.5,1.6,3.5,2.5L341.4,12.6z"/>
</mask>
<linearGradient id="SVGID_00000072996048248417416730000007464604541248048272_" gradientUnits="userSpaceOnUse" x1="91.3098" y1="57.5601" x2="103.4857" y2="-20.0926" gradientTransform="matrix(1 0 0 -1 0 60)">
	<stop  offset="0" style="stop-color:#FFF176"/>
	<stop  offset="1" style="stop-color:#00E0B8"/>
</linearGradient>
<path style="mask:url(#path-1-inside-1_324_635_00000111880787882181927070000011841084428479811513_);fill:none;stroke:url(#SVGID_00000072996048248417416730000007464604541248048272_);stroke-width:2.6;" d="
	M102.2,58H88.9V1h13.3V58z"/>
<defs>
	
		<filter id="Adobe_OpacityMaskFilter_00000132049482593387992050000007249713022653551508_" filterUnits="userSpaceOnUse" x="107.6" y="-0.3" width="47.9" height="59.6">
		<feColorMatrix  type="matrix" values="1 0 0 0 0  0 1 0 0 0  0 0 1 0 0  0 0 0 1 0"/>
	</filter>
</defs>
<mask maskUnits="userSpaceOnUse" x="107.6" y="-0.3" width="47.9" height="59.6" id="path-1-inside-1_324_635_00000019665169260559076420000010492065835926751655_">
	<path style="fill:#FFFFFF;filter:url(#Adobe_OpacityMaskFilter_00000132049482593387992050000007249713022653551508_);" d="M83.2,1
		L65.6,58h-12L42.9,22.7c-0.2-0.5-0.4-1.1-0.6-1.8c-0.2-0.7-0.4-1.4-0.5-2.1c-0.2,0.7-0.4,1.4-0.5,2.1c-0.2,0.7-0.4,1.3-0.6,1.8
		L29.7,58h-12L0.2,1h11.1c1.1,0,2.1,0.3,2.9,0.8c0.8,0.5,1.3,1.2,1.5,2.1l7.8,29.7c0.2,0.9,0.5,2,0.7,3.1c0.2,1.1,0.5,2.2,0.7,3.4
		c0.5-2.5,1-4.6,1.7-6.5l9.2-29.7c0.2-0.7,0.7-1.4,1.5-2C38.1,1.3,39.1,1,40.1,1h3.9c1.1,0,2.1,0.3,2.8,0.8c0.7,0.5,1.2,1.2,1.6,2
		l9.2,29.7c0.7,1.8,1.3,3.9,1.7,6.2c0.2-1.2,0.4-2.3,0.6-3.3c0.2-1,0.5-2,0.7-2.9l7.8-29.7c0.2-0.8,0.7-1.4,1.5-2
		C70.7,1.3,71.7,1,72.8,1H83.2z"/>
	<path class="st1" d="M102.2,58H88.9V1h13.3V58z"/>
	<path class="st1" d="M154.2,11.5h-16V58h-13.2V11.5h-16V1h45.3V11.5z"/>
	<path class="st1" d="M210.7,1v57h-6.9c-1,0-1.9-0.2-2.6-0.5c-0.7-0.3-1.4-0.9-2-1.7l-26.9-34c0.1,1,0.2,2,0.2,3
		c0.1,0.9,0.1,1.8,0.1,2.7V58h-11.7V1h7c0.6,0,1.1,0,1.4,0.1c0.4,0.1,0.7,0.2,1.1,0.3c0.3,0.1,0.6,0.3,0.9,0.6
		c0.3,0.3,0.6,0.6,1,1.1l27.1,34.2c-0.1-1.1-0.2-2.2-0.3-3.2c-0.1-1-0.1-2-0.1-2.9V1H210.7z"/>
	<path class="st1" d="M235,11.2v13.3H253v9.8H235v13.6h23.4V58h-36.7V1h36.7v10.2H235z"/>
	<path class="st1" d="M298.1,12.6c-0.4,0.6-0.8,1.1-1.3,1.4c-0.4,0.3-1,0.5-1.6,0.5c-0.6,0-1.3-0.2-2-0.5c-0.7-0.4-1.5-0.8-2.3-1.3
		c-0.9-0.5-1.9-0.9-3-1.3c-1.1-0.4-2.4-0.6-3.8-0.6c-2.5,0-4.3,0.5-5.6,1.6c-1.2,1-1.8,2.5-1.8,4.3c0,1.1,0.4,2.1,1.1,2.9
		c0.7,0.8,1.7,1.4,2.9,2c1.2,0.5,2.6,1.1,4.1,1.5c1.5,0.4,3.1,1,4.7,1.5c1.6,0.5,3.1,1.2,4.7,2c1.5,0.8,2.9,1.7,4.1,2.9
		c1.2,1.2,2.2,2.6,2.9,4.3c0.7,1.7,1.1,3.7,1.1,6.1c0,2.6-0.5,5.1-1.4,7.4c-0.9,2.3-2.2,4.3-4,6c-1.7,1.7-3.9,3-6.4,4
		c-2.5,1-5.4,1.4-8.6,1.4c-1.8,0-3.6-0.2-5.4-0.5c-1.8-0.4-3.6-0.9-5.3-1.5c-1.7-0.7-3.3-1.5-4.9-2.4c-1.5-0.9-2.8-1.9-4-3.1
		l3.9-6.2c0.3-0.4,0.7-0.8,1.2-1.1c0.5-0.3,1.1-0.5,1.7-0.5c0.8,0,1.6,0.2,2.3,0.7c0.8,0.5,1.7,1,2.7,1.6c1,0.6,2.2,1.1,3.5,1.6
		c1.3,0.5,2.8,0.7,4.6,0.7c2.4,0,4.3-0.5,5.6-1.6c1.3-1.1,2-2.8,2-5c0-1.3-0.4-2.4-1.1-3.2c-0.7-0.8-1.7-1.5-2.9-2.1
		c-1.2-0.5-2.5-1-4-1.4c-1.5-0.4-3.1-0.9-4.7-1.4c-1.6-0.5-3.1-1.1-4.7-1.9c-1.5-0.8-2.9-1.7-4.1-2.9c-1.2-1.2-2.1-2.7-2.9-4.5
		c-0.7-1.8-1.1-4.1-1.1-6.7c0-2.1,0.4-4.2,1.3-6.3c0.9-2,2.1-3.8,3.8-5.4c1.7-1.6,3.7-2.9,6.1-3.8c2.4-1,5.2-1.4,8.3-1.4
		c1.7,0,3.4,0.1,5.1,0.4c1.7,0.3,3.2,0.7,4.7,1.2c1.5,0.5,2.9,1.2,4.1,1.9c1.3,0.7,2.5,1.6,3.5,2.5L298.1,12.6z"/>
	<path class="st1" d="M341.4,12.6c-0.4,0.6-0.8,1.1-1.3,1.4c-0.4,0.3-1,0.5-1.6,0.5c-0.6,0-1.3-0.2-2-0.5c-0.7-0.4-1.5-0.8-2.3-1.3
		c-0.9-0.5-1.9-0.9-3-1.3c-1.1-0.4-2.4-0.6-3.8-0.6c-2.5,0-4.3,0.5-5.6,1.6c-1.2,1-1.8,2.5-1.8,4.3c0,1.1,0.4,2.1,1.1,2.9
		c0.7,0.8,1.7,1.4,2.9,2c1.2,0.5,2.6,1.1,4.1,1.5c1.5,0.4,3.1,1,4.7,1.5c1.6,0.5,3.1,1.2,4.7,2c1.5,0.8,2.9,1.7,4.1,2.9
		c1.2,1.2,2.2,2.6,2.9,4.3c0.7,1.7,1.1,3.7,1.1,6.1c0,2.6-0.5,5.1-1.4,7.4c-0.9,2.3-2.2,4.3-4,6c-1.7,1.7-3.9,3-6.4,4
		c-2.5,1-5.4,1.4-8.6,1.4c-1.8,0-3.6-0.2-5.4-0.5c-1.8-0.4-3.6-0.9-5.3-1.5c-1.7-0.7-3.3-1.5-4.9-2.4c-1.5-0.9-2.8-1.9-4-3.1
		l3.9-6.2c0.3-0.4,0.7-0.8,1.2-1.1c0.5-0.3,1.1-0.5,1.7-0.5c0.8,0,1.6,0.2,2.3,0.7c0.8,0.5,1.7,1,2.7,1.6c1,0.6,2.2,1.1,3.5,1.6
		c1.3,0.5,2.8,0.7,4.6,0.7c2.4,0,4.3-0.5,5.6-1.6c1.3-1.1,2-2.8,2-5c0-1.3-0.4-2.4-1.1-3.2c-0.7-0.8-1.7-1.5-2.9-2.1
		c-1.2-0.5-2.5-1-4-1.4c-1.5-0.4-3.1-0.9-4.7-1.4c-1.6-0.5-3.1-1.1-4.7-1.9c-1.5-0.8-2.9-1.7-4.1-2.9c-1.2-1.2-2.1-2.7-2.9-4.5
		c-0.7-1.8-1.1-4.1-1.1-6.7c0-2.1,0.4-4.2,1.3-6.3c0.9-2,2.1-3.8,3.8-5.4c1.7-1.6,3.7-2.9,6.1-3.8c2.4-1,5.2-1.4,8.3-1.4
		c1.7,0,3.4,0.1,5.1,0.4c1.7,0.3,3.2,0.7,4.7,1.2c1.5,0.5,2.9,1.2,4.1,1.9c1.3,0.7,2.5,1.6,3.5,2.5L341.4,12.6z"/>
</mask>
<linearGradient id="SVGID_00000064326628879682111420000008621381629499968693_" gradientUnits="userSpaceOnUse" x1="129.9717" y1="63.6222" x2="142.1476" y2="-14.0304" gradientTransform="matrix(1 0 0 -1 0 60)">
	<stop  offset="0" style="stop-color:#FFF176"/>
	<stop  offset="1" style="stop-color:#00E0B8"/>
</linearGradient>
<path style="mask:url(#path-1-inside-1_324_635_00000019665169260559076420000010492065835926751655_);fill:none;stroke:url(#SVGID_00000064326628879682111420000008621381629499968693_);stroke-width:2.6;" d="
	M154.2,11.5h-16V58h-13.2V11.5h-16V1h45.3V11.5z"/>
<defs>
	
		<filter id="Adobe_OpacityMaskFilter_00000033339098200072878440000010251762712306768309_" filterUnits="userSpaceOnUse" x="159.6" y="-0.3" width="52.4" height="59.6">
		<feColorMatrix  type="matrix" values="1 0 0 0 0  0 1 0 0 0  0 0 1 0 0  0 0 0 1 0"/>
	</filter>
</defs>
<mask maskUnits="userSpaceOnUse" x="159.6" y="-0.3" width="52.4" height="59.6" id="path-1-inside-1_324_635_00000034057787919934238770000005260975749327499680_">
	<path style="fill:#FFFFFF;filter:url(#Adobe_OpacityMaskFilter_00000033339098200072878440000010251762712306768309_);" d="M83.2,1
		L65.6,58h-12L42.9,22.7c-0.2-0.5-0.4-1.1-0.6-1.8c-0.2-0.7-0.4-1.4-0.5-2.1c-0.2,0.7-0.4,1.4-0.5,2.1c-0.2,0.7-0.4,1.3-0.6,1.8
		L29.7,58h-12L0.2,1h11.1c1.1,0,2.1,0.3,2.9,0.8c0.8,0.5,1.3,1.2,1.5,2.1l7.8,29.7c0.2,0.9,0.5,2,0.7,3.1c0.2,1.1,0.5,2.2,0.7,3.4
		c0.5-2.5,1-4.6,1.7-6.5l9.2-29.7c0.2-0.7,0.7-1.4,1.5-2C38.1,1.3,39.1,1,40.1,1h3.9c1.1,0,2.1,0.3,2.8,0.8c0.7,0.5,1.2,1.2,1.6,2
		l9.2,29.7c0.7,1.8,1.3,3.9,1.7,6.2c0.2-1.2,0.4-2.3,0.6-3.3c0.2-1,0.5-2,0.7-2.9l7.8-29.7c0.2-0.8,0.7-1.4,1.5-2
		C70.7,1.3,71.7,1,72.8,1H83.2z"/>
	<path class="st1" d="M102.2,58H88.9V1h13.3V58z"/>
	<path class="st1" d="M154.2,11.5h-16V58h-13.2V11.5h-16V1h45.3V11.5z"/>
	<path class="st1" d="M210.7,1v57h-6.9c-1,0-1.9-0.2-2.6-0.5c-0.7-0.3-1.4-0.9-2-1.7l-26.9-34c0.1,1,0.2,2,0.2,3
		c0.1,0.9,0.1,1.8,0.1,2.7V58h-11.7V1h7c0.6,0,1.1,0,1.4,0.1c0.4,0.1,0.7,0.2,1.1,0.3c0.3,0.1,0.6,0.3,0.9,0.6
		c0.3,0.3,0.6,0.6,1,1.1l27.1,34.2c-0.1-1.1-0.2-2.2-0.3-3.2c-0.1-1-0.1-2-0.1-2.9V1H210.7z"/>
	<path class="st1" d="M235,11.2v13.3H253v9.8H235v13.6h23.4V58h-36.7V1h36.7v10.2H235z"/>
	<path class="st1" d="M298.1,12.6c-0.4,0.6-0.8,1.1-1.3,1.4c-0.4,0.3-1,0.5-1.6,0.5c-0.6,0-1.3-0.2-2-0.5c-0.7-0.4-1.5-0.8-2.3-1.3
		c-0.9-0.5-1.9-0.9-3-1.3c-1.1-0.4-2.4-0.6-3.8-0.6c-2.5,0-4.3,0.5-5.6,1.6c-1.2,1-1.8,2.5-1.8,4.3c0,1.1,0.4,2.1,1.1,2.9
		c0.7,0.8,1.7,1.4,2.9,2c1.2,0.5,2.6,1.1,4.1,1.5c1.5,0.4,3.1,1,4.7,1.5c1.6,0.5,3.1,1.2,4.7,2c1.5,0.8,2.9,1.7,4.1,2.9
		c1.2,1.2,2.2,2.6,2.9,4.3c0.7,1.7,1.1,3.7,1.1,6.1c0,2.6-0.5,5.1-1.4,7.4c-0.9,2.3-2.2,4.3-4,6c-1.7,1.7-3.9,3-6.4,4
		c-2.5,1-5.4,1.4-8.6,1.4c-1.8,0-3.6-0.2-5.4-0.5c-1.8-0.4-3.6-0.9-5.3-1.5c-1.7-0.7-3.3-1.5-4.9-2.4c-1.5-0.9-2.8-1.9-4-3.1
		l3.9-6.2c0.3-0.4,0.7-0.8,1.2-1.1c0.5-0.3,1.1-0.5,1.7-0.5c0.8,0,1.6,0.2,2.3,0.7c0.8,0.5,1.7,1,2.7,1.6c1,0.6,2.2,1.1,3.5,1.6
		c1.3,0.5,2.8,0.7,4.6,0.7c2.4,0,4.3-0.5,5.6-1.6c1.3-1.1,2-2.8,2-5c0-1.3-0.4-2.4-1.1-3.2c-0.7-0.8-1.7-1.5-2.9-2.1
		c-1.2-0.5-2.5-1-4-1.4c-1.5-0.4-3.1-0.9-4.7-1.4c-1.6-0.5-3.1-1.1-4.7-1.9c-1.5-0.8-2.9-1.7-4.1-2.9c-1.2-1.2-2.1-2.7-2.9-4.5
		c-0.7-1.8-1.1-4.1-1.1-6.7c0-2.1,0.4-4.2,1.3-6.3c0.9-2,2.1-3.8,3.8-5.4c1.7-1.6,3.7-2.9,6.1-3.8c2.4-1,5.2-1.4,8.3-1.4
		c1.7,0,3.4,0.1,5.1,0.4c1.7,0.3,3.2,0.7,4.7,1.2c1.5,0.5,2.9,1.2,4.1,1.9c1.3,0.7,2.5,1.6,3.5,2.5L298.1,12.6z"/>
	<path class="st1" d="M341.4,12.6c-0.4,0.6-0.8,1.1-1.3,1.4c-0.4,0.3-1,0.5-1.6,0.5c-0.6,0-1.3-0.2-2-0.5c-0.7-0.4-1.5-0.8-2.3-1.3
		c-0.9-0.5-1.9-0.9-3-1.3c-1.1-0.4-2.4-0.6-3.8-0.6c-2.5,0-4.3,0.5-5.6,1.6c-1.2,1-1.8,2.5-1.8,4.3c0,1.1,0.4,2.1,1.1,2.9
		c0.7,0.8,1.7,1.4,2.9,2c1.2,0.5,2.6,1.1,4.1,1.5c1.5,0.4,3.1,1,4.7,1.5c1.6,0.5,3.1,1.2,4.7,2c1.5,0.8,2.9,1.7,4.1,2.9
		c1.2,1.2,2.2,2.6,2.9,4.3c0.7,1.7,1.1,3.7,1.1,6.1c0,2.6-0.5,5.1-1.4,7.4c-0.9,2.3-2.2,4.3-4,6c-1.7,1.7-3.9,3-6.4,4
		c-2.5,1-5.4,1.4-8.6,1.4c-1.8,0-3.6-0.2-5.4-0.5c-1.8-0.4-3.6-0.9-5.3-1.5c-1.7-0.7-3.3-1.5-4.9-2.4c-1.5-0.9-2.8-1.9-4-3.1
		l3.9-6.2c0.3-0.4,0.7-0.8,1.2-1.1c0.5-0.3,1.1-0.5,1.7-0.5c0.8,0,1.6,0.2,2.3,0.7c0.8,0.5,1.7,1,2.7,1.6c1,0.6,2.2,1.1,3.5,1.6
		c1.3,0.5,2.8,0.7,4.6,0.7c2.4,0,4.3-0.5,5.6-1.6c1.3-1.1,2-2.8,2-5c0-1.3-0.4-2.4-1.1-3.2c-0.7-0.8-1.7-1.5-2.9-2.1
		c-1.2-0.5-2.5-1-4-1.4c-1.5-0.4-3.1-0.9-4.7-1.4c-1.6-0.5-3.1-1.1-4.7-1.9c-1.5-0.8-2.9-1.7-4.1-2.9c-1.2-1.2-2.1-2.7-2.9-4.5
		c-0.7-1.8-1.1-4.1-1.1-6.7c0-2.1,0.4-4.2,1.3-6.3c0.9-2,2.1-3.8,3.8-5.4c1.7-1.6,3.7-2.9,6.1-3.8c2.4-1,5.2-1.4,8.3-1.4
		c1.7,0,3.4,0.1,5.1,0.4c1.7,0.3,3.2,0.7,4.7,1.2c1.5,0.5,2.9,1.2,4.1,1.9c1.3,0.7,2.5,1.6,3.5,2.5L341.4,12.6z"/>
</mask>
<linearGradient id="SVGID_00000099644670302945377130000006962713946928385428_" gradientUnits="userSpaceOnUse" x1="179.3739" y1="71.3685" x2="191.5498" y2="-6.2842" gradientTransform="matrix(1 0 0 -1 0 60)">
	<stop  offset="0" style="stop-color:#FFF176"/>
	<stop  offset="1" style="stop-color:#00E0B8"/>
</linearGradient>
<path style="mask:url(#path-1-inside-1_324_635_00000034057787919934238770000005260975749327499680_);fill:none;stroke:url(#SVGID_00000099644670302945377130000006962713946928385428_);stroke-width:2.6;" d="
	M210.7,1v57h-6.9c-1,0-1.9-0.2-2.6-0.5c-0.7-0.3-1.4-0.9-2-1.7l-26.9-34c0.1,1,0.2,2,0.2,3c0.1,0.9,0.1,1.8,0.1,2.7V58h-11.7V1h7
	c0.6,0,1.1,0,1.4,0.1c0.4,0.1,0.7,0.2,1.1,0.3c0.3,0.1,0.6,0.3,0.9,0.6c0.3,0.3,0.6,0.6,1,1.1l27.1,34.2c-0.1-1.1-0.2-2.2-0.3-3.2
	c-0.1-1-0.1-2-0.1-2.9V1H210.7z"/>
<defs>
	
		<filter id="Adobe_OpacityMaskFilter_00000159455767472792531420000009633511051108761998_" filterUnits="userSpaceOnUse" x="220.4" y="-0.3" width="39.3" height="59.6">
		<feColorMatrix  type="matrix" values="1 0 0 0 0  0 1 0 0 0  0 0 1 0 0  0 0 0 1 0"/>
	</filter>
</defs>
<mask maskUnits="userSpaceOnUse" x="220.4" y="-0.3" width="39.3" height="59.6" id="path-1-inside-1_324_635_00000010309006325445239890000002630896988311867029_">
	<path style="fill:#FFFFFF;filter:url(#Adobe_OpacityMaskFilter_00000159455767472792531420000009633511051108761998_);" d="M83.2,1
		L65.6,58h-12L42.9,22.7c-0.2-0.5-0.4-1.1-0.6-1.8c-0.2-0.7-0.4-1.4-0.5-2.1c-0.2,0.7-0.4,1.4-0.5,2.1c-0.2,0.7-0.4,1.3-0.6,1.8
		L29.7,58h-12L0.2,1h11.1c1.1,0,2.1,0.3,2.9,0.8c0.8,0.5,1.3,1.2,1.5,2.1l7.8,29.7c0.2,0.9,0.5,2,0.7,3.1c0.2,1.1,0.5,2.2,0.7,3.4
		c0.5-2.5,1-4.6,1.7-6.5l9.2-29.7c0.2-0.7,0.7-1.4,1.5-2C38.1,1.3,39.1,1,40.1,1h3.9c1.1,0,2.1,0.3,2.8,0.8c0.7,0.5,1.2,1.2,1.6,2
		l9.2,29.7c0.7,1.8,1.3,3.9,1.7,6.2c0.2-1.2,0.4-2.3,0.6-3.3c0.2-1,0.5-2,0.7-2.9l7.8-29.7c0.2-0.8,0.7-1.4,1.5-2
		C70.7,1.3,71.7,1,72.8,1H83.2z"/>
	<path class="st1" d="M102.2,58H88.9V1h13.3V58z"/>
	<path class="st1" d="M154.2,11.5h-16V58h-13.2V11.5h-16V1h45.3V11.5z"/>
	<path class="st1" d="M210.7,1v57h-6.9c-1,0-1.9-0.2-2.6-0.5c-0.7-0.3-1.4-0.9-2-1.7l-26.9-34c0.1,1,0.2,2,0.2,3
		c0.1,0.9,0.1,1.8,0.1,2.7V58h-11.7V1h7c0.6,0,1.1,0,1.4,0.1c0.4,0.1,0.7,0.2,1.1,0.3c0.3,0.1,0.6,0.3,0.9,0.6
		c0.3,0.3,0.6,0.6,1,1.1l27.1,34.2c-0.1-1.1-0.2-2.2-0.3-3.2c-0.1-1-0.1-2-0.1-2.9V1H210.7z"/>
	<path class="st1" d="M235,11.2v13.3H253v9.8H235v13.6h23.4V58h-36.7V1h36.7v10.2H235z"/>
	<path class="st1" d="M298.1,12.6c-0.4,0.6-0.8,1.1-1.3,1.4c-0.4,0.3-1,0.5-1.6,0.5c-0.6,0-1.3-0.2-2-0.5c-0.7-0.4-1.5-0.8-2.3-1.3
		c-0.9-0.5-1.9-0.9-3-1.3c-1.1-0.4-2.4-0.6-3.8-0.6c-2.5,0-4.3,0.5-5.6,1.6c-1.2,1-1.8,2.5-1.8,4.3c0,1.1,0.4,2.1,1.1,2.9
		c0.7,0.8,1.7,1.4,2.9,2c1.2,0.5,2.6,1.1,4.1,1.5c1.5,0.4,3.1,1,4.7,1.5c1.6,0.5,3.1,1.2,4.7,2c1.5,0.8,2.9,1.7,4.1,2.9
		c1.2,1.2,2.2,2.6,2.9,4.3c0.7,1.7,1.1,3.7,1.1,6.1c0,2.6-0.5,5.1-1.4,7.4c-0.9,2.3-2.2,4.3-4,6c-1.7,1.7-3.9,3-6.4,4
		c-2.5,1-5.4,1.4-8.6,1.4c-1.8,0-3.6-0.2-5.4-0.5c-1.8-0.4-3.6-0.9-5.3-1.5c-1.7-0.7-3.3-1.5-4.9-2.4c-1.5-0.9-2.8-1.9-4-3.1
		l3.9-6.2c0.3-0.4,0.7-0.8,1.2-1.1c0.5-0.3,1.1-0.5,1.7-0.5c0.8,0,1.6,0.2,2.3,0.7c0.8,0.5,1.7,1,2.7,1.6c1,0.6,2.2,1.1,3.5,1.6
		c1.3,0.5,2.8,0.7,4.6,0.7c2.4,0,4.3-0.5,5.6-1.6c1.3-1.1,2-2.8,2-5c0-1.3-0.4-2.4-1.1-3.2c-0.7-0.8-1.7-1.5-2.9-2.1
		c-1.2-0.5-2.5-1-4-1.4c-1.5-0.4-3.1-0.9-4.7-1.4c-1.6-0.5-3.1-1.1-4.7-1.9c-1.5-0.8-2.9-1.7-4.1-2.9c-1.2-1.2-2.1-2.7-2.9-4.5
		c-0.7-1.8-1.1-4.1-1.1-6.7c0-2.1,0.4-4.2,1.3-6.3c0.9-2,2.1-3.8,3.8-5.4c1.7-1.6,3.7-2.9,6.1-3.8c2.4-1,5.2-1.4,8.3-1.4
		c1.7,0,3.4,0.1,5.1,0.4c1.7,0.3,3.2,0.7,4.7,1.2c1.5,0.5,2.9,1.2,4.1,1.9c1.3,0.7,2.5,1.6,3.5,2.5L298.1,12.6z"/>
	<path class="st1" d="M341.4,12.6c-0.4,0.6-0.8,1.1-1.3,1.4c-0.4,0.3-1,0.5-1.6,0.5c-0.6,0-1.3-0.2-2-0.5c-0.7-0.4-1.5-0.8-2.3-1.3
		c-0.9-0.5-1.9-0.9-3-1.3c-1.1-0.4-2.4-0.6-3.8-0.6c-2.5,0-4.3,0.5-5.6,1.6c-1.2,1-1.8,2.5-1.8,4.3c0,1.1,0.4,2.1,1.1,2.9
		c0.7,0.8,1.7,1.4,2.9,2c1.2,0.5,2.6,1.1,4.1,1.5c1.5,0.4,3.1,1,4.7,1.5c1.6,0.5,3.1,1.2,4.7,2c1.5,0.8,2.9,1.7,4.1,2.9
		c1.2,1.2,2.2,2.6,2.9,4.3c0.7,1.7,1.1,3.7,1.1,6.1c0,2.6-0.5,5.1-1.4,7.4c-0.9,2.3-2.2,4.3-4,6c-1.7,1.7-3.9,3-6.4,4
		c-2.5,1-5.4,1.4-8.6,1.4c-1.8,0-3.6-0.2-5.4-0.5c-1.8-0.4-3.6-0.9-5.3-1.5c-1.7-0.7-3.3-1.5-4.9-2.4c-1.5-0.9-2.8-1.9-4-3.1
		l3.9-6.2c0.3-0.4,0.7-0.8,1.2-1.1c0.5-0.3,1.1-0.5,1.7-0.5c0.8,0,1.6,0.2,2.3,0.7c0.8,0.5,1.7,1,2.7,1.6c1,0.6,2.2,1.1,3.5,1.6
		c1.3,0.5,2.8,0.7,4.6,0.7c2.4,0,4.3-0.5,5.6-1.6c1.3-1.1,2-2.8,2-5c0-1.3-0.4-2.4-1.1-3.2c-0.7-0.8-1.7-1.5-2.9-2.1
		c-1.2-0.5-2.5-1-4-1.4c-1.5-0.4-3.1-0.9-4.7-1.4c-1.6-0.5-3.1-1.1-4.7-1.9c-1.5-0.8-2.9-1.7-4.1-2.9c-1.2-1.2-2.1-2.7-2.9-4.5
		c-0.7-1.8-1.1-4.1-1.1-6.7c0-2.1,0.4-4.2,1.3-6.3c0.9-2,2.1-3.8,3.8-5.4c1.7-1.6,3.7-2.9,6.1-3.8c2.4-1,5.2-1.4,8.3-1.4
		c1.7,0,3.4,0.1,5.1,0.4c1.7,0.3,3.2,0.7,4.7,1.2c1.5,0.5,2.9,1.2,4.1,1.9c1.3,0.7,2.5,1.6,3.5,2.5L341.4,12.6z"/>
</mask>
<linearGradient id="SVGID_00000095299832245086615130000010043801850416069270_" gradientUnits="userSpaceOnUse" x1="232.3724" y1="79.6786" x2="244.5483" y2="2.026" gradientTransform="matrix(1 0 0 -1 0 60)">
	<stop  offset="0" style="stop-color:#FFF176"/>
	<stop  offset="1" style="stop-color:#00E0B8"/>
</linearGradient>
<path style="mask:url(#path-1-inside-1_324_635_00000010309006325445239890000002630896988311867029_);fill:none;stroke:url(#SVGID_00000095299832245086615130000010043801850416069270_);stroke-width:2.6;" d="
	M235,11.2v13.3H253v9.8H235v13.6h23.4V58h-36.7V1h36.7v10.2H235z"/>
<defs>
	
		<filter id="Adobe_OpacityMaskFilter_00000121256649757820967370000002683362969868961702_" filterUnits="userSpaceOnUse" x="260.5" y="-0.9" width="42.9" height="60.9">
		<feColorMatrix  type="matrix" values="1 0 0 0 0  0 1 0 0 0  0 0 1 0 0  0 0 0 1 0"/>
	</filter>
</defs>
<mask maskUnits="userSpaceOnUse" x="260.5" y="-0.9" width="42.9" height="60.9" id="path-1-inside-1_324_635_00000022540118929372549520000000242360682035845806_">
	<path style="fill:#FFFFFF;filter:url(#Adobe_OpacityMaskFilter_00000121256649757820967370000002683362969868961702_);" d="M83.2,1
		L65.6,58h-12L42.9,22.7c-0.2-0.5-0.4-1.1-0.6-1.8c-0.2-0.7-0.4-1.4-0.5-2.1c-0.2,0.7-0.4,1.4-0.5,2.1c-0.2,0.7-0.4,1.3-0.6,1.8
		L29.7,58h-12L0.2,1h11.1c1.1,0,2.1,0.3,2.9,0.8c0.8,0.5,1.3,1.2,1.5,2.1l7.8,29.7c0.2,0.9,0.5,2,0.7,3.1c0.2,1.1,0.5,2.2,0.7,3.4
		c0.5-2.5,1-4.6,1.7-6.5l9.2-29.7c0.2-0.7,0.7-1.4,1.5-2C38.1,1.3,39.1,1,40.1,1h3.9c1.1,0,2.1,0.3,2.8,0.8c0.7,0.5,1.2,1.2,1.6,2
		l9.2,29.7c0.7,1.8,1.3,3.9,1.7,6.2c0.2-1.2,0.4-2.3,0.6-3.3c0.2-1,0.5-2,0.7-2.9l7.8-29.7c0.2-0.8,0.7-1.4,1.5-2
		C70.7,1.3,71.7,1,72.8,1H83.2z"/>
	<path class="st1" d="M102.2,58H88.9V1h13.3V58z"/>
	<path class="st1" d="M154.2,11.5h-16V58h-13.2V11.5h-16V1h45.3V11.5z"/>
	<path class="st1" d="M210.7,1v57h-6.9c-1,0-1.9-0.2-2.6-0.5c-0.7-0.3-1.4-0.9-2-1.7l-26.9-34c0.1,1,0.2,2,0.2,3
		c0.1,0.9,0.1,1.8,0.1,2.7V58h-11.7V1h7c0.6,0,1.1,0,1.4,0.1c0.4,0.1,0.7,0.2,1.1,0.3c0.3,0.1,0.6,0.3,0.9,0.6
		c0.3,0.3,0.6,0.6,1,1.1l27.1,34.2c-0.1-1.1-0.2-2.2-0.3-3.2c-0.1-1-0.1-2-0.1-2.9V1H210.7z"/>
	<path class="st1" d="M235,11.2v13.3H253v9.8H235v13.6h23.4V58h-36.7V1h36.7v10.2H235z"/>
	<path class="st1" d="M298.1,12.6c-0.4,0.6-0.8,1.1-1.3,1.4c-0.4,0.3-1,0.5-1.6,0.5c-0.6,0-1.3-0.2-2-0.5c-0.7-0.4-1.5-0.8-2.3-1.3
		c-0.9-0.5-1.9-0.9-3-1.3c-1.1-0.4-2.4-0.6-3.8-0.6c-2.5,0-4.3,0.5-5.6,1.6c-1.2,1-1.8,2.5-1.8,4.3c0,1.1,0.4,2.1,1.1,2.9
		c0.7,0.8,1.7,1.4,2.9,2c1.2,0.5,2.6,1.1,4.1,1.5c1.5,0.4,3.1,1,4.7,1.5c1.6,0.5,3.1,1.2,4.7,2c1.5,0.8,2.9,1.7,4.1,2.9
		c1.2,1.2,2.2,2.6,2.9,4.3c0.7,1.7,1.1,3.7,1.1,6.1c0,2.6-0.5,5.1-1.4,7.4c-0.9,2.3-2.2,4.3-4,6c-1.7,1.7-3.9,3-6.4,4
		c-2.5,1-5.4,1.4-8.6,1.4c-1.8,0-3.6-0.2-5.4-0.5c-1.8-0.4-3.6-0.9-5.3-1.5c-1.7-0.7-3.3-1.5-4.9-2.4c-1.5-0.9-2.8-1.9-4-3.1
		l3.9-6.2c0.3-0.4,0.7-0.8,1.2-1.1c0.5-0.3,1.1-0.5,1.7-0.5c0.8,0,1.6,0.2,2.3,0.7c0.8,0.5,1.7,1,2.7,1.6c1,0.6,2.2,1.1,3.5,1.6
		c1.3,0.5,2.8,0.7,4.6,0.7c2.4,0,4.3-0.5,5.6-1.6c1.3-1.1,2-2.8,2-5c0-1.3-0.4-2.4-1.1-3.2c-0.7-0.8-1.7-1.5-2.9-2.1
		c-1.2-0.5-2.5-1-4-1.4c-1.5-0.4-3.1-0.9-4.7-1.4c-1.6-0.5-3.1-1.1-4.7-1.9c-1.5-0.8-2.9-1.7-4.1-2.9c-1.2-1.2-2.1-2.7-2.9-4.5
		c-0.7-1.8-1.1-4.1-1.1-6.7c0-2.1,0.4-4.2,1.3-6.3c0.9-2,2.1-3.8,3.8-5.4c1.7-1.6,3.7-2.9,6.1-3.8c2.4-1,5.2-1.4,8.3-1.4
		c1.7,0,3.4,0.1,5.1,0.4c1.7,0.3,3.2,0.7,4.7,1.2c1.5,0.5,2.9,1.2,4.1,1.9c1.3,0.7,2.5,1.6,3.5,2.5L298.1,12.6z"/>
	<path class="st1" d="M341.4,12.6c-0.4,0.6-0.8,1.1-1.3,1.4c-0.4,0.3-1,0.5-1.6,0.5c-0.6,0-1.3-0.2-2-0.5c-0.7-0.4-1.5-0.8-2.3-1.3
		c-0.9-0.5-1.9-0.9-3-1.3c-1.1-0.4-2.4-0.6-3.8-0.6c-2.5,0-4.3,0.5-5.6,1.6c-1.2,1-1.8,2.5-1.8,4.3c0,1.1,0.4,2.1,1.1,2.9
		c0.7,0.8,1.7,1.4,2.9,2c1.2,0.5,2.6,1.1,4.1,1.5c1.5,0.4,3.1,1,4.7,1.5c1.6,0.5,3.1,1.2,4.7,2c1.5,0.8,2.9,1.7,4.1,2.9
		c1.2,1.2,2.2,2.6,2.9,4.3c0.7,1.7,1.1,3.7,1.1,6.1c0,2.6-0.5,5.1-1.4,7.4c-0.9,2.3-2.2,4.3-4,6c-1.7,1.7-3.9,3-6.4,4
		c-2.5,1-5.4,1.4-8.6,1.4c-1.8,0-3.6-0.2-5.4-0.5c-1.8-0.4-3.6-0.9-5.3-1.5c-1.7-0.7-3.3-1.5-4.9-2.4c-1.5-0.9-2.8-1.9-4-3.1
		l3.9-6.2c0.3-0.4,0.7-0.8,1.2-1.1c0.5-0.3,1.1-0.5,1.7-0.5c0.8,0,1.6,0.2,2.3,0.7c0.8,0.5,1.7,1,2.7,1.6c1,0.6,2.2,1.1,3.5,1.6
		c1.3,0.5,2.8,0.7,4.6,0.7c2.4,0,4.3-0.5,5.6-1.6c1.3-1.1,2-2.8,2-5c0-1.3-0.4-2.4-1.1-3.2c-0.7-0.8-1.7-1.5-2.9-2.1
		c-1.2-0.5-2.5-1-4-1.4c-1.5-0.4-3.1-0.9-4.7-1.4c-1.6-0.5-3.1-1.1-4.7-1.9c-1.5-0.8-2.9-1.7-4.1-2.9c-1.2-1.2-2.1-2.7-2.9-4.5
		c-0.7-1.8-1.1-4.1-1.1-6.7c0-2.1,0.4-4.2,1.3-6.3c0.9-2,2.1-3.8,3.8-5.4c1.7-1.6,3.7-2.9,6.1-3.8c2.4-1,5.2-1.4,8.3-1.4
		c1.7,0,3.4,0.1,5.1,0.4c1.7,0.3,3.2,0.7,4.7,1.2c1.5,0.5,2.9,1.2,4.1,1.9c1.3,0.7,2.5,1.6,3.5,2.5L341.4,12.6z"/>
</mask>
<linearGradient id="SVGID_00000065755072847416718440000009775931967231046329_" gradientUnits="userSpaceOnUse" x1="273.1658" y1="86.075" x2="285.3417" y2="8.4223" gradientTransform="matrix(1 0 0 -1 0 60)">
	<stop  offset="0" style="stop-color:#FFF176"/>
	<stop  offset="1" style="stop-color:#00E0B8"/>
</linearGradient>
<path style="mask:url(#path-1-inside-1_324_635_00000022540118929372549520000000242360682035845806_);fill:none;stroke:url(#SVGID_00000065755072847416718440000009775931967231046329_);stroke-width:2.6;" d="
	M298.1,12.6c-0.4,0.6-0.8,1.1-1.3,1.4c-0.4,0.3-1,0.5-1.6,0.5c-0.6,0-1.3-0.2-2-0.5c-0.7-0.4-1.5-0.8-2.3-1.3
	c-0.9-0.5-1.9-0.9-3-1.3c-1.1-0.4-2.4-0.6-3.8-0.6c-2.5,0-4.3,0.5-5.6,1.6c-1.2,1-1.8,2.5-1.8,4.3c0,1.1,0.4,2.1,1.1,2.9
	c0.7,0.8,1.7,1.4,2.9,2c1.2,0.5,2.6,1.1,4.1,1.5c1.5,0.4,3.1,1,4.7,1.5c1.6,0.5,3.1,1.2,4.7,2c1.5,0.8,2.9,1.7,4.1,2.9
	c1.2,1.2,2.2,2.6,2.9,4.3c0.7,1.7,1.1,3.7,1.1,6.1c0,2.6-0.5,5.1-1.4,7.4c-0.9,2.3-2.2,4.3-4,6c-1.7,1.7-3.9,3-6.4,4
	c-2.5,1-5.4,1.4-8.6,1.4c-1.8,0-3.6-0.2-5.4-0.5c-1.8-0.4-3.6-0.9-5.3-1.5c-1.7-0.7-3.3-1.5-4.9-2.4c-1.5-0.9-2.8-1.9-4-3.1l3.9-6.2
	c0.3-0.4,0.7-0.8,1.2-1.1c0.5-0.3,1.1-0.5,1.7-0.5c0.8,0,1.6,0.2,2.3,0.7c0.8,0.5,1.7,1,2.7,1.6c1,0.6,2.2,1.1,3.5,1.6
	c1.3,0.5,2.8,0.7,4.6,0.7c2.4,0,4.3-0.5,5.6-1.6c1.3-1.1,2-2.8,2-5c0-1.3-0.4-2.4-1.1-3.2c-0.7-0.8-1.7-1.5-2.9-2.1
	c-1.2-0.5-2.5-1-4-1.4c-1.5-0.4-3.1-0.9-4.7-1.4c-1.6-0.5-3.1-1.1-4.7-1.9c-1.5-0.8-2.9-1.7-4.1-2.9c-1.2-1.2-2.1-2.7-2.9-4.5
	c-0.7-1.8-1.1-4.1-1.1-6.7c0-2.1,0.4-4.2,1.3-6.3c0.9-2,2.1-3.8,3.8-5.4c1.7-1.6,3.7-2.9,6.1-3.8c2.4-1,5.2-1.4,8.3-1.4
	c1.7,0,3.4,0.1,5.1,0.4c1.7,0.3,3.2,0.7,4.7,1.2c1.5,0.5,2.9,1.2,4.1,1.9c1.3,0.7,2.5,1.6,3.5,2.5L298.1,12.6z"/>
<defs>
	
		<filter id="Adobe_OpacityMaskFilter_00000049939973785945814990000012166881179573205942_" filterUnits="userSpaceOnUse" x="303.9" y="-0.9" width="42.9" height="60.9">
		<feColorMatrix  type="matrix" values="1 0 0 0 0  0 1 0 0 0  0 0 1 0 0  0 0 0 1 0"/>
	</filter>
</defs>
<mask maskUnits="userSpaceOnUse" x="303.9" y="-0.9" width="42.9" height="60.9" id="path-1-inside-1_324_635_00000150797390001897026760000017528049548099085490_">
	<path style="fill:#FFFFFF;filter:url(#Adobe_OpacityMaskFilter_00000049939973785945814990000012166881179573205942_);" d="M83.2,1
		L65.6,58h-12L42.9,22.7c-0.2-0.5-0.4-1.1-0.6-1.8c-0.2-0.7-0.4-1.4-0.5-2.1c-0.2,0.7-0.4,1.4-0.5,2.1c-0.2,0.7-0.4,1.3-0.6,1.8
		L29.7,58h-12L0.2,1h11.1c1.1,0,2.1,0.3,2.9,0.8c0.8,0.5,1.3,1.2,1.5,2.1l7.8,29.7c0.2,0.9,0.5,2,0.7,3.1c0.2,1.1,0.5,2.2,0.7,3.4
		c0.5-2.5,1-4.6,1.7-6.5l9.2-29.7c0.2-0.7,0.7-1.4,1.5-2C38.1,1.3,39.1,1,40.1,1h3.9c1.1,0,2.1,0.3,2.8,0.8c0.7,0.5,1.2,1.2,1.6,2
		l9.2,29.7c0.7,1.8,1.3,3.9,1.7,6.2c0.2-1.2,0.4-2.3,0.6-3.3c0.2-1,0.5-2,0.7-2.9l7.8-29.7c0.2-0.8,0.7-1.4,1.5-2
		C70.7,1.3,71.7,1,72.8,1H83.2z"/>
	<path class="st1" d="M102.2,58H88.9V1h13.3V58z"/>
	<path class="st1" d="M154.2,11.5h-16V58h-13.2V11.5h-16V1h45.3V11.5z"/>
	<path class="st1" d="M210.7,1v57h-6.9c-1,0-1.9-0.2-2.6-0.5c-0.7-0.3-1.4-0.9-2-1.7l-26.9-34c0.1,1,0.2,2,0.2,3
		c0.1,0.9,0.1,1.8,0.1,2.7V58h-11.7V1h7c0.6,0,1.1,0,1.4,0.1c0.4,0.1,0.7,0.2,1.1,0.3c0.3,0.1,0.6,0.3,0.9,0.6
		c0.3,0.3,0.6,0.6,1,1.1l27.1,34.2c-0.1-1.1-0.2-2.2-0.3-3.2c-0.1-1-0.1-2-0.1-2.9V1H210.7z"/>
	<path class="st1" d="M235,11.2v13.3H253v9.8H235v13.6h23.4V58h-36.7V1h36.7v10.2H235z"/>
	<path class="st1" d="M298.1,12.6c-0.4,0.6-0.8,1.1-1.3,1.4c-0.4,0.3-1,0.5-1.6,0.5c-0.6,0-1.3-0.2-2-0.5c-0.7-0.4-1.5-0.8-2.3-1.3
		c-0.9-0.5-1.9-0.9-3-1.3c-1.1-0.4-2.4-0.6-3.8-0.6c-2.5,0-4.3,0.5-5.6,1.6c-1.2,1-1.8,2.5-1.8,4.3c0,1.1,0.4,2.1,1.1,2.9
		c0.7,0.8,1.7,1.4,2.9,2c1.2,0.5,2.6,1.1,4.1,1.5c1.5,0.4,3.1,1,4.7,1.5c1.6,0.5,3.1,1.2,4.7,2c1.5,0.8,2.9,1.7,4.1,2.9
		c1.2,1.2,2.2,2.6,2.9,4.3c0.7,1.7,1.1,3.7,1.1,6.1c0,2.6-0.5,5.1-1.4,7.4c-0.9,2.3-2.2,4.3-4,6c-1.7,1.7-3.9,3-6.4,4
		c-2.5,1-5.4,1.4-8.6,1.4c-1.8,0-3.6-0.2-5.4-0.5c-1.8-0.4-3.6-0.9-5.3-1.5c-1.7-0.7-3.3-1.5-4.9-2.4c-1.5-0.9-2.8-1.9-4-3.1
		l3.9-6.2c0.3-0.4,0.7-0.8,1.2-1.1c0.5-0.3,1.1-0.5,1.7-0.5c0.8,0,1.6,0.2,2.3,0.7c0.8,0.5,1.7,1,2.7,1.6c1,0.6,2.2,1.1,3.5,1.6
		c1.3,0.5,2.8,0.7,4.6,0.7c2.4,0,4.3-0.5,5.6-1.6c1.3-1.1,2-2.8,2-5c0-1.3-0.4-2.4-1.1-3.2c-0.7-0.8-1.7-1.5-2.9-2.1
		c-1.2-0.5-2.5-1-4-1.4c-1.5-0.4-3.1-0.9-4.7-1.4c-1.6-0.5-3.1-1.1-4.7-1.9c-1.5-0.8-2.9-1.7-4.1-2.9c-1.2-1.2-2.1-2.7-2.9-4.5
		c-0.7-1.8-1.1-4.1-1.1-6.7c0-2.1,0.4-4.2,1.3-6.3c0.9-2,2.1-3.8,3.8-5.4c1.7-1.6,3.7-2.9,6.1-3.8c2.4-1,5.2-1.4,8.3-1.4
		c1.7,0,3.4,0.1,5.1,0.4c1.7,0.3,3.2,0.7,4.7,1.2c1.5,0.5,2.9,1.2,4.1,1.9c1.3,0.7,2.5,1.6,3.5,2.5L298.1,12.6z"/>
	<path class="st1" d="M341.4,12.6c-0.4,0.6-0.8,1.1-1.3,1.4c-0.4,0.3-1,0.5-1.6,0.5c-0.6,0-1.3-0.2-2-0.5c-0.7-0.4-1.5-0.8-2.3-1.3
		c-0.9-0.5-1.9-0.9-3-1.3c-1.1-0.4-2.4-0.6-3.8-0.6c-2.5,0-4.3,0.5-5.6,1.6c-1.2,1-1.8,2.5-1.8,4.3c0,1.1,0.4,2.1,1.1,2.9
		c0.7,0.8,1.7,1.4,2.9,2c1.2,0.5,2.6,1.1,4.1,1.5c1.5,0.4,3.1,1,4.7,1.5c1.6,0.5,3.1,1.2,4.7,2c1.5,0.8,2.9,1.7,4.1,2.9
		c1.2,1.2,2.2,2.6,2.9,4.3c0.7,1.7,1.1,3.7,1.1,6.1c0,2.6-0.5,5.1-1.4,7.4c-0.9,2.3-2.2,4.3-4,6c-1.7,1.7-3.9,3-6.4,4
		c-2.5,1-5.4,1.4-8.6,1.4c-1.8,0-3.6-0.2-5.4-0.5c-1.8-0.4-3.6-0.9-5.3-1.5c-1.7-0.7-3.3-1.5-4.9-2.4c-1.5-0.9-2.8-1.9-4-3.1
		l3.9-6.2c0.3-0.4,0.7-0.8,1.2-1.1c0.5-0.3,1.1-0.5,1.7-0.5c0.8,0,1.6,0.2,2.3,0.7c0.8,0.5,1.7,1,2.7,1.6c1,0.6,2.2,1.1,3.5,1.6
		c1.3,0.5,2.8,0.7,4.6,0.7c2.4,0,4.3-0.5,5.6-1.6c1.3-1.1,2-2.8,2-5c0-1.3-0.4-2.4-1.1-3.2c-0.7-0.8-1.7-1.5-2.9-2.1
		c-1.2-0.5-2.5-1-4-1.4c-1.5-0.4-3.1-0.9-4.7-1.4c-1.6-0.5-3.1-1.1-4.7-1.9c-1.5-0.8-2.9-1.7-4.1-2.9c-1.2-1.2-2.1-2.7-2.9-4.5
		c-0.7-1.8-1.1-4.1-1.1-6.7c0-2.1,0.4-4.2,1.3-6.3c0.9-2,2.1-3.8,3.8-5.4c1.7-1.6,3.7-2.9,6.1-3.8c2.4-1,5.2-1.4,8.3-1.4
		c1.7,0,3.4,0.1,5.1,0.4c1.7,0.3,3.2,0.7,4.7,1.2c1.5,0.5,2.9,1.2,4.1,1.9c1.3,0.7,2.5,1.6,3.5,2.5L341.4,12.6z"/>
</mask>
<linearGradient id="SVGID_00000038393077546958789430000015887122228204994438_" gradientUnits="userSpaceOnUse" x1="315.4599" y1="92.7067" x2="327.6358" y2="15.0541" gradientTransform="matrix(1 0 0 -1 0 60)">
	<stop  offset="0" style="stop-color:#FFF176"/>
	<stop  offset="1" style="stop-color:#00E0B8"/>
</linearGradient>
<path style="mask:url(#path-1-inside-1_324_635_00000150797390001897026760000017528049548099085490_);fill:none;stroke:url(#SVGID_00000038393077546958789430000015887122228204994438_);stroke-width:2.6;" d="
	M341.4,12.6c-0.4,0.6-0.8,1.1-1.3,1.4c-0.4,0.3-1,0.5-1.6,0.5c-0.6,0-1.3-0.2-2-0.5c-0.7-0.4-1.5-0.8-2.3-1.3
	c-0.9-0.5-1.9-0.9-3-1.3c-1.1-0.4-2.4-0.6-3.8-0.6c-2.5,0-4.3,0.5-5.6,1.6c-1.2,1-1.8,2.5-1.8,4.3c0,1.1,0.4,2.1,1.1,2.9
	c0.7,0.8,1.7,1.4,2.9,2c1.2,0.5,2.6,1.1,4.1,1.5c1.5,0.4,3.1,1,4.7,1.5c1.6,0.5,3.1,1.2,4.7,2c1.5,0.8,2.9,1.7,4.1,2.9
	c1.2,1.2,2.2,2.6,2.9,4.3c0.7,1.7,1.1,3.7,1.1,6.1c0,2.6-0.5,5.1-1.4,7.4c-0.9,2.3-2.2,4.3-4,6c-1.7,1.7-3.9,3-6.4,4
	c-2.5,1-5.4,1.4-8.6,1.4c-1.8,0-3.6-0.2-5.4-0.5c-1.8-0.4-3.6-0.9-5.3-1.5c-1.7-0.7-3.3-1.5-4.9-2.4c-1.5-0.9-2.8-1.9-4-3.1l3.9-6.2
	c0.3-0.4,0.7-0.8,1.2-1.1c0.5-0.3,1.1-0.5,1.7-0.5c0.8,0,1.6,0.2,2.3,0.7c0.8,0.5,1.7,1,2.7,1.6c1,0.6,2.2,1.1,3.5,1.6
	c1.3,0.5,2.8,0.7,4.6,0.7c2.4,0,4.3-0.5,5.6-1.6c1.3-1.1,2-2.8,2-5c0-1.3-0.4-2.4-1.1-3.2c-0.7-0.8-1.7-1.5-2.9-2.1
	c-1.2-0.5-2.5-1-4-1.4c-1.5-0.4-3.1-0.9-4.7-1.4c-1.6-0.5-3.1-1.1-4.7-1.9c-1.5-0.8-2.9-1.7-4.1-2.9c-1.2-1.2-2.1-2.7-2.9-4.5
	c-0.7-1.8-1.1-4.1-1.1-6.7c0-2.1,0.4-4.2,1.3-6.3c0.9-2,2.1-3.8,3.8-5.4c1.7-1.6,3.7-2.9,6.1-3.8c2.4-1,5.2-1.4,8.3-1.4
	c1.7,0,3.4,0.1,5.1,0.4c1.7,0.3,3.2,0.7,4.7,1.2c1.5,0.5,2.9,1.2,4.1,1.9c1.3,0.7,2.5,1.6,3.5,2.5L341.4,12.6z"/>
</svg>
