<?xml version="1.0" encoding="utf-8"?>
<!-- Generator: Adobe Illustrator 26.0.3, SVG Export Plug-In . SVG Version: 6.00 Build 0)  -->
<svg version="1.1" id="圖層_1" xmlns="http://www.w3.org/2000/svg" xmlns:xlink="http://www.w3.org/1999/xlink" x="0px" y="0px"
	 viewBox="0 0 1053 204" style="enable-background:new 0 0 1053 204;" xml:space="preserve">
<style type="text/css">
	.st0{stroke:#00E0B8;}
	.st1{fill:url(#SVGID_1_);stroke:url(#SVGID_00000137094095362954809550000004413564445902486968_);}
	
		.st2{fill:url(#SVGID_00000003798599465612056940000001433857694482191036_);stroke:url(#SVGID_00000139972571287990980740000009830882250557738420_);}
	.st3{fill:url(#SVGID_00000041981835879456813820000005371321204152185235_);}
	.st4{stroke:url(#SVGID_00000094601007443254406160000015197512406305661073_);stroke-width:4;}
	.st5{stroke:url(#SVGID_00000050653503439342150280000004426234416525816252_);stroke-width:4;}
	.st6{stroke:url(#SVGID_00000003805609861339059450000013990317523788854667_);stroke-width:4;}
	.st7{stroke:url(#SVGID_00000181791043851875680320000006709639594739415680_);stroke-width:4;}
	.st8{fill:url(#SVGID_00000015348764205354631670000004800107922832868749_);}
	.st9{fill:#FFFFFF;}
	.st10{fill:#00E0B8;}
	.st11{fill:none;stroke:#FFFFFF;stroke-width:1.85;stroke-linecap:round;stroke-miterlimit:10;}
	.st12{fill:url(#SVGID_00000143582581454354420170000004385093280037288091_);}
	.st13{fill:url(#SVGID_00000129191096560039496330000003462684816360194746_);}
</style>
<rect x="125.5" y="100.5" class="st0" width="801" height="103"/>
<linearGradient id="SVGID_1_" gradientUnits="userSpaceOnUse" x1="121.3696" y1="56.1333" x2="145.5986" y2="51.8723" gradientTransform="matrix(1 0 0 -1 0 206)">
	<stop  offset="0" style="stop-color:#FFF176"/>
	<stop  offset="1" style="stop-color:#00E0B8"/>
</linearGradient>
<linearGradient id="SVGID_00000032618948518574368690000011063832733826549666_" gradientUnits="userSpaceOnUse" x1="121.3696" y1="56.1333" x2="145.5986" y2="51.8723" gradientTransform="matrix(1 0 0 -1 0 206)">
	<stop  offset="0" style="stop-color:#FFF176"/>
	<stop  offset="1" style="stop-color:#00E0B8"/>
</linearGradient>
<rect x="125.5" y="100.5" style="fill:url(#SVGID_1_);stroke:url(#SVGID_00000032618948518574368690000011063832733826549666_);" width="16" height="103"/>
<linearGradient id="SVGID_00000113350722691523974820000004314692007953404565_" gradientUnits="userSpaceOnUse" x1="906.3696" y1="56.1333" x2="930.5986" y2="51.8723" gradientTransform="matrix(1 0 0 -1 0 206)">
	<stop  offset="0" style="stop-color:#FFF176"/>
	<stop  offset="1" style="stop-color:#00E0B8"/>
</linearGradient>
<linearGradient id="SVGID_00000052824768607098106880000003358424175490421142_" gradientUnits="userSpaceOnUse" x1="906.3696" y1="56.1333" x2="930.5986" y2="51.8723" gradientTransform="matrix(1 0 0 -1 0 206)">
	<stop  offset="0" style="stop-color:#FFF176"/>
	<stop  offset="1" style="stop-color:#00E0B8"/>
</linearGradient>
<rect x="910.5" y="100.5" style="fill:url(#SVGID_00000113350722691523974820000004314692007953404565_);stroke:url(#SVGID_00000052824768607098106880000003358424175490421142_);" width="16" height="103"/>
<linearGradient id="SVGID_00000165924710753490670050000000450729072789350544_" gradientUnits="userSpaceOnUse" x1="519.1371" y1="113.9782" x2="529.6541" y2="5.7602" gradientTransform="matrix(1 0 0 -1 0 206)">
	<stop  offset="0" style="stop-color:#FFF176"/>
	<stop  offset="1" style="stop-color:#00E0B8"/>
</linearGradient>
<path style="fill:url(#SVGID_00000165924710753490670050000000450729072789350544_);" d="M157.1,135.9v9.7h57.3v-9.7H157.1z
	 M190.9,139.8l-9.4,2.2c4.9,17.8,12.5,30.9,27.6,37.9c1.5-2.7,4.6-6.8,6.9-8.8C202.3,165.7,194.5,154,190.9,139.8z M180.3,119.3
	c-0.3,18.4,1.2,41-24.4,52.6c2.8,2,5.6,5.4,7,7.9c27.2-13.5,27.3-39.5,27.6-60.5H180.3z M229.5,128.7v7.7h9.5v4.9h-9.5v7.7h17.7
	v-20.4H229.5z M229.8,152.2v7.7h9.9v6h-9.9v7.7h18v-21.5H229.8z M226.2,128.7v49h8.2v-49H226.2z M248.5,122v8.4h35.2V122H248.5z
	 M232.9,119.2c-0.2,3.4-1,7.9-1.7,11.3l7.3,1.3c1.4-2.9,3.3-7.4,4.7-11.7L232.9,119.2z M261.8,126.1V180h8.7v-53.9H261.8z
	 M250.5,135v35h8.4v-26.8h19.2V135H250.5z M273.6,135v27.1c0,0.6-0.2,0.8-0.7,0.8c-0.4,0-1.8,0-2.9-0.1c1,2.2,2,5.6,2.2,7.9
	c3.1,0,5.4-0.1,7.4-1.5c2-1.3,2.5-3.6,2.5-7V135H273.6z M296.6,124.1v8.2h51.6v-8.2H296.6z M293.1,138.5v8.3H351v-8.3H293.1z
	 M306.7,160.4v6.9h30.8v-6.9H306.7z M306.7,170.5v7.6h30.8v-7.6H306.7z M300.5,149.8v30.3h9.3v-22.7h24.6v22.7h9.8v-30.3H300.5z
	 M330.8,131.3c-0.4,2.4-1.5,5.7-2.4,8l9,2c1-2,2.3-4.7,3.8-7.9L330.8,131.3z M304,133.4c1.2,2.4,2.3,5.9,2.6,8.1l9.7-2.1
	c-0.4-2.2-1.6-5.4-3-7.7L304,133.4z M315.7,119.9c1.2,2.4,2.4,5.9,2.6,8.1l10.2-1.8c-0.4-2.2-1.6-5.4-3-7.7L315.7,119.9z
	 M360.9,154.3v7.6h58.5v-7.6H360.9z M385.9,151.6v28.2h9.3v-28.2H385.9z M388.7,140.5h2.8v3.1h-2.8V140.5z M388.7,131.2h2.8v3.1
	h-2.8V131.2z M380.9,124.5v25.7h18.8v-25.7H380.9z M387,118.7c-0.2,2.3-0.8,5.6-1.5,7.9l6.1,1.4c1-2,2.3-5,3.6-8L387,118.7z
	 M412.2,141.4c0.9,3.8,1.9,8.7,2.1,12l6.1-1.5c-0.4-3.2-1.4-8.1-2.4-11.8L412.2,141.4z M373,140.8c0.8,3.8,1.7,8.7,1.9,12l6.1-1.5
	c-0.4-3.3-1.3-8.1-2.2-11.8L373,140.8z M362.9,140c0-1.3,3.9-3.5,3.9-3.5v-0.2c2.9-3.4,6.4-8.8,8.6-13.8l-7.1-2.4
	c-1.3,4.7-4,9.5-4.9,10.8c-0.9,1.3-1.8,2.2-2.8,2.5C361.4,135.3,362.5,138.6,362.9,140z M362.9,140c1.1-0.6,3-1,11.1-1.9
	c0.1-1.4,0.3-4,0.7-5.8l-9.1,0.6l-2.9,1.9L362.9,140z M362.7,152.6c0-1.2,3.5-3.3,3.5-3.3V149c5.3-4.7,10.9-11.5,14.8-18l-6.5-3.6
	c-3,6.6-8.3,13.4-9.9,15.2c-1.6,1.8-2.8,2.9-4.2,3.3C361.2,147.7,362.3,151.2,362.7,152.6z M362.7,152.6c1.3-0.7,3.5-1.2,15.4-2.8
	c0-1.4,0.2-4,0.5-5.7l-13.2,1.3l-2.9,2L362.7,152.6z M401.5,140.2c0-1.3,4-3.6,4-3.6v-0.1c2.9-3.5,6.6-9.1,8.8-14.3l-7.4-2
	c-1.4,4.7-4.1,9.5-5,10.8c-0.9,1.3-1.8,2.2-2.8,2.5C400,135.3,401.1,138.7,401.5,140.2z M401.5,140.2c1.2-0.6,3.3-1.1,12.5-2
	c0.1-1.5,0.3-4.2,0.7-6.1l-10.4,0.8l-3.1,2L401.5,140.2z M401.8,152.8c0-1.3,3.6-3.4,3.6-3.4v-0.3c5.4-4.6,11.2-11.3,15.3-17.7
	l-6.7-3.8c-3.1,6.5-8.6,13.3-10.3,15c-1.7,1.7-2.9,2.9-4.4,3.2C400.3,147.8,401.4,151.4,401.8,152.8z M401.8,152.8
	c1.4-0.6,3.6-1.1,16-2.2c0-1.4,0.3-4,0.7-5.8l-13.8,1l-3.1,2L401.8,152.8z M376.5,163.6c-3.6,3.3-10.5,6-17.6,7.2
	c2,1.8,4.7,5.4,6.1,7.7c7.7-2,14.7-6.5,19.1-12L376.5,163.6z M397.9,168.4c5.2,2.9,12.4,7.5,15.7,10.5l6-6.5
	c-3.7-2.9-11.1-7.1-16.2-9.7L397.9,168.4z M436.4,137.8c-1.7,3.7-4.6,7.7-7.8,10.3l7.5,4.5c3.3-2.9,5.9-7.4,7.9-11.5L436.4,137.8z
	 M444.4,137.6v10.1c0,7,2.2,9.2,11.3,9.2c1.9,0,9.1,0,11,0c6.8,0,9.2-1.9,10.1-9.7c-2.2-0.4-5.6-1.6-7.4-2.8
	c-0.3,4.6-0.8,5.4-3.5,5.4c-1.9,0-7.9,0-9.4,0c-3.3,0-4-0.3-4-2.2v-10H444.4z M447,135.5c3.9,1.3,8.8,3.8,11.1,5.7l4.5-5.9
	c-2.6-1.9-7.6-4-11.4-5.2L447,135.5z M472,142.8c3.6,3.5,7.9,8.4,9.8,11.6l7-4.9c-2.1-3.3-6.7-7.9-10.2-11.1L472,142.8z
	 M468.6,132.3c-8.4,10.5-24.3,17.9-40.8,21.7c1.5,1.8,4,5.6,5.1,7.6c16.4-4.8,33.3-13.2,43.4-25.4L468.6,132.3z M453.5,158.1v15.6
	h9.5v-15.6H453.5z M472.2,159.7v19.9h9.3v-19.9H472.2z M430.5,123.6v14h9.1v-5.8h37.1v5.8h9.5v-14H430.5z M452.3,119.8
	c1,2.6,1.9,6,2,8.1l9.5-1.7c-0.4-2.1-1.5-5.4-2.6-7.9L452.3,119.8z M435.5,161v16.9H477v-8.7h-32.4V161H435.5z M519.5,127.9v8.5
	h36.1v-8.5H519.5z M520.5,143v8.4h26.9V143H520.5z M532.5,119.3v28.2h9.2v-28.2H532.5z M530,149.9l-8.4,2.4
	c6,14.1,15.2,23.5,30.6,27.9c1.3-2.4,3.9-6.1,5.9-8C543.9,168.8,534.5,160.8,530,149.9z M546.3,143v1.4
	c-3.5,14.4-14.7,23.6-30.6,27.1c1.8,2,4,6,4.9,8.4c17.8-5.2,30-15.4,34.9-34.8l-6-2.4l-1.5,0.3H546.3z M495.9,151l2.3,8.9
	c6.1-1.5,13.9-3.3,21-5.2l-1.2-8.5C510.2,148.1,501.7,150,495.9,151z M496.7,131.1v8.6h22v-8.6H496.7z M503.7,119.3V170
	c0,0.9-0.3,1.2-1.2,1.2c-0.8,0-3.5,0-5.7-0.1c1.1,2.4,2.2,6.1,2.5,8.4c4.7,0,8-0.3,10.4-1.7c2.4-1.4,3.1-3.6,3.1-7.9v-50.8H503.7z
	 M589.2,164.7c8.6-2.4,13.6-8.6,13.6-16.1c0-5.9-2.7-9.6-7.7-9.6c-3.9,0-7.1,2.5-7.1,6.4c0,4,3.3,6.4,6.8,6.4c1.5,0,2.9-0.5,4-1.4
	l-3.6-6.2l0.1,6.8c0,3.1-3,6.1-8.4,7.6L589.2,164.7z M648.6,146.5c1.3,4.2,2.5,9.7,2.9,13l5.6-1.9c-0.5-3.2-1.9-8.5-3.3-12.6
	L648.6,146.5z M642,163.1c0.6,4.2,1.3,9.7,1.3,13.4l5.8-1.4c-0.2-3.6-0.8-9-1.6-13.3L642,163.1z M635.3,162.2
	c-0.4,5.2-1.1,10.8-2.8,14.5c1.5,0.4,4.4,1.2,5.6,1.9c1.4-3.8,2.4-9.7,2.9-15.4L635.3,162.2z M634.6,145.5c0-1.4,4.5-3.8,4.5-3.8
	v-0.2c4-4.9,8.4-12.1,11.3-18.8l-7.4-3.1c-2.1,6.7-6,13.6-7.2,15.4c-1.3,1.9-2.4,3.1-3.6,3.4C633,140.4,634.2,144,634.6,145.5z
	 M634.6,145.5c1.3-0.6,3.5-1.2,13.4-2c0.1-1.7,0.4-4.6,0.9-6.7l-11.1,0.6l-3.3,2.2L634.6,145.5z M635.1,160.6c0-1.3,4-3.5,4-3.5
	v-0.2c6.3-6.4,12.8-15.4,17.4-24.2l-6.5-3.6c-3.8,8.8-10.3,18.2-12.4,20.5c-2,2.4-3.3,3.9-4.9,4.3
	C633.6,155.7,634.8,159.2,635.1,160.6z M635.1,160.6c1.5-0.9,4.1-1.7,18.2-4.6c-0.1-1.6-0.1-4.5,0.2-6.5l-15.7,2.8l-3.1,2.2
	L635.1,160.6z M648.9,162c1.3,3.8,2.8,8.9,3.3,12.2l5.4-2c-0.7-3.3-2.2-8.1-3.6-12L648.9,162z M671.7,142.8v14.7h7.6v-14.7H671.7z
	 M659.9,139.8v28.7c0,8.8,2.6,11.2,11.3,11.2c1.9,0,9.3,0,11.3,0c7.4,0,9.8-2.8,10.9-11.9c-2.4-0.5-5.9-1.9-7.7-3.2
	c-0.4,6.1-1,7.2-3.9,7.2c-1.7,0-8,0-9.5,0c-3.5,0-4-0.4-4-3.4v-28.6H659.9z M664.7,152.9v8h22v-8H664.7z M657.6,122.3v7.9h27.1v-7.9
	H657.6z M665.1,139.8v8h17.9v14.9h8.4v-22.9H665.1z M682.4,122.3v1c-0.4,6.3-1.1,9-1.9,9.8c-0.6,0.5-1.1,0.6-1.9,0.6
	c-1,0-2.7,0-4.6-0.3c1.2,2,2,5.2,2.1,7.5c2.8,0.1,5.3,0,6.8-0.3c1.8-0.2,3.3-0.7,4.6-2.2c1.6-1.7,2.4-5.6,3.1-13.1
	c0.1-1,0.3-3,0.3-3H682.4z M667.3,124.8c-1.3,6.2-5.4,12.2-12.3,15.1c1.5,1.5,4,4.5,5.1,6.4c8.4-3.8,13.5-11.6,16.1-20.2
	L667.3,124.8z M702.9,123.4v9.5h56.2v-9.5H702.9z M733.6,146.5c6.8,5.6,16.2,13.6,20.3,18.8l8-7.2c-4.6-5.2-14.5-12.7-21-17.7
	L733.6,146.5z M730.3,127c-5,11.1-16,23.5-29.6,29.7c2,2.1,4.9,6,6.4,8.5c14.8-7.7,26.3-20.9,33.6-34.6L730.3,127z M725.9,144V180
	h10.2v-46.1L725.9,144z M784.2,135v7.7h44.4V135H784.2z M768.7,155.3v7.4h13.9v-7.4H768.7z M792.1,167.9v5.6H808v-5.6H792.1z
	 M798.1,147.7v6.9h5.9v-6.9H798.1z M798.1,163v6.9h5.9V163H798.1z M792.9,152.2v5.2h8.7v2.7h-8.7v5.2h14.9v-13.2H792.9z
	 M789.2,144.3v29.3h6.3v-23.7h12v-5.6H789.2z M780.1,135v20.1c0,6.8-0.2,15.6-3.3,21.5c1.9,0.7,5.4,2.6,6.9,3.7
	c3.5-6.6,4-17.2,4-25.2V135H780.1z M807.2,131.6c0.7,28.4,5.2,48.6,14.6,48.6c5.2,0,7.6-1.9,8.5-12.2c-1.9-0.6-4.4-2.4-6-4
	c-0.3,6-0.9,8.1-1.9,8.1c-2.6,0-7.3-15.1-7.1-40.5H807.2z M817.7,133.1c1.8,1.3,3.8,3.4,4.7,4.8l5.8-4.3c-1-1.4-3.3-3.3-5.1-4.5
	L817.7,133.1z M819.2,144.1c-2.4,13.5-7.9,24.4-17.2,30.7c1.9,1.2,5.3,4.1,6.7,5.6c9.4-7.4,15.6-19.6,18.8-34.9L819.2,144.1z
	 M771.5,158.2v5.2c0,3.4-0.4,9.3-3.5,13.1c1.5,0.8,4,2.5,5.1,3.6c4.1-4.5,4.7-12.2,4.7-16.5v-5.4H771.5z M770.2,122.7v7.6h28v-7.6
	H770.2z M781.2,119.2v13.6h9.2v-13.6H781.2z M808.5,119.2v12.7h9.2v-12.7H808.5z M800.2,122.7v7.6h27.7v-7.6H800.2z M771.2,135.9
	v16.4h11.6V145h-5.1v-9.1H771.2z M880.3,149c3.6,9.9,7.4,22.5,8.4,30.5l9.6-3.9c-1.4-7.9-5.6-20.2-9.4-29.7L880.3,149z M863.1,177.1
	c0-1.6,8.4-5.4,8.4-5.4v-0.1c4.7-13.3,9.8-30.8,12.7-48.4l-10-1.9c-2.4,16.2-7.3,34-9.2,38.8c-1.8,4.9-2.8,7.2-5.1,8
	C861,170.7,862.6,175.3,863.1,177.1z M863.1,177.1c2.7-1.3,6.6-2,29.4-5.7c-0.6-2-1.4-5.8-1.7-8.5l-23.6,3.2l-4.5,2.9L863.1,177.1z
	 M848,125.6v54.5h9v-54.5H848z M838.3,137.3v8.6H866v-8.6H838.3z M848.5,140.8c-2.3,6.7-7.2,15.6-12.2,20.7c1.5,2.5,3.6,6.5,4.5,9.2
	c5.6-6.5,10.4-17.9,13.3-27.3L848.5,140.8z M861.9,119.7c-6.5,2.4-15.6,4.4-24,5.4c1,2,2.1,5.1,2.4,7.2c8.6-0.8,18.6-2.4,26.4-4.9
	L861.9,119.7z M857,146.1l-4.1,3.8c2.3,3,6.1,8.8,7.8,12.2l5.3-7.7C864.7,153,858.8,147.4,857,146.1z"/>
<linearGradient id="SVGID_00000070834978553157053840000011317656521693294254_" gradientUnits="userSpaceOnUse" x1="36.9875" y1="66.7207" x2="-2.4817" y2="42.2667" gradientTransform="matrix(1 0 0 -1 0 206)">
	<stop  offset="0" style="stop-color:#FFF176"/>
	<stop  offset="1" style="stop-color:#00E0B8"/>
</linearGradient>
<path style="stroke:url(#SVGID_00000070834978553157053840000011317656521693294254_);stroke-width:4;" d="M12,134.4L36.9,156
	L12,177.6V134.4z"/>
<linearGradient id="SVGID_00000030460717034625824920000005981788075000327809_" gradientUnits="userSpaceOnUse" x1="88.9875" y1="66.7207" x2="49.5183" y2="42.2667" gradientTransform="matrix(1 0 0 -1 0 206)">
	<stop  offset="0" style="stop-color:#FFF176"/>
	<stop  offset="1" style="stop-color:#00E0B8"/>
</linearGradient>
<path style="stroke:url(#SVGID_00000030460717034625824920000005981788075000327809_);stroke-width:4;" d="M64,134.4L88.9,156
	L64,177.6V134.4z"/>
<linearGradient id="SVGID_00000085956844566288330330000000799913618605986962_" gradientUnits="userSpaceOnUse" x1="1016.014" y1="33.2806" x2="1055.4841" y2="57.7346" gradientTransform="matrix(1 0 0 -1 0 206)">
	<stop  offset="0" style="stop-color:#FFF176"/>
	<stop  offset="1" style="stop-color:#00E0B8"/>
</linearGradient>
<path style="stroke:url(#SVGID_00000085956844566288330330000000799913618605986962_);stroke-width:4;" d="M1041,177.6l-24.9-21.6
	l24.9-21.6V177.6z"/>
<linearGradient id="SVGID_00000104708570763041600640000015246801061440018358_" gradientUnits="userSpaceOnUse" x1="964.0123" y1="33.2804" x2="1003.4844" y2="57.7344" gradientTransform="matrix(1 0 0 -1 0 206)">
	<stop  offset="0" style="stop-color:#FFF176"/>
	<stop  offset="1" style="stop-color:#00E0B8"/>
</linearGradient>
<path style="stroke:url(#SVGID_00000104708570763041600640000015246801061440018358_);stroke-width:4;" d="M989,177.6L964.1,156
	l24.9-21.6V177.6z"/>
<linearGradient id="SVGID_00000095311976596138446900000009797312492010842527_" gradientUnits="userSpaceOnUse" x1="485.683" y1="205.2387" x2="537.9531" y2="93.0389" gradientTransform="matrix(1 0 0 -1 0 206)">
	<stop  offset="0" style="stop-color:#FFF176"/>
	<stop  offset="1" style="stop-color:#00E0B8"/>
</linearGradient>
<path style="fill:url(#SVGID_00000095311976596138446900000009797312492010842527_);" d="M526.7,0c-26.5,0-51.8,10.5-70.5,29.3
	C437.5,48.1,427,73.5,427,100h90.9c-0.1-1.2,0.1-2.4,0.5-3.6s1.1-2.2,1.9-3.1c0.8-0.9,1.8-1.6,2.9-2.1s2.3-0.7,3.5-0.7
	c1.2,0,2.4,0.2,3.5,0.7c1.1,0.5,2.1,1.2,2.9,2.1c0.8,0.9,1.5,1.9,1.9,3.1s0.6,2.4,0.5,3.6h90.9c0-26.5-10.5-51.9-29.2-70.7
	C578.6,10.5,553.2,0,526.7,0L526.7,0z"/>
<path class="st9" d="M526.7,53.8c-12.2,0-23.9,4.9-32.6,13.6s-13.5,20.4-13.5,32.7H518c-0.1-1.2,0.1-2.4,0.5-3.6
	c0.4-1.1,1.1-2.2,1.9-3.1c0.8-0.9,1.8-1.6,2.9-2.1c1.1-0.5,2.3-0.7,3.5-0.7c1.2,0,2.4,0.2,3.5,0.7c1.1,0.5,2.1,1.2,2.9,2.1
	c0.8,0.9,1.5,1.9,1.9,3.1c0.4,1.1,0.6,2.4,0.5,3.6H573c0-6.1-1.2-12.1-3.5-17.7c-2.3-5.6-5.7-10.7-10-15c-4.3-4.3-9.4-7.7-15-10
	C538.8,54.9,532.8,53.8,526.7,53.8z"/>
<path class="st10" d="M526.7,67.1c-4.3,0-8.6,0.9-12.5,2.5c-4,1.7-7.6,4.1-10.6,7.1c-3,3.1-5.4,6.7-7.1,10.7
	c-1.6,4-2.5,8.3-2.4,12.6H518c-0.1-1.2,0.1-2.4,0.5-3.6c0.4-1.1,1.1-2.2,1.9-3.1c0.8-0.9,1.8-1.6,2.9-2.1c1.1-0.5,2.3-0.7,3.5-0.7
	c1.2,0,2.4,0.2,3.5,0.7c1.1,0.5,2.1,1.2,2.9,2.1c0.8,0.9,1.5,1.9,1.9,3.1c0.4,1.1,0.6,2.4,0.5,3.6h23.9c0-4.3-0.8-8.6-2.5-12.6
	c-1.6-4-4.1-7.6-7.1-10.7c-3.1-3.1-6.7-5.5-10.7-7.1C535.3,67.9,531.1,67.1,526.7,67.1L526.7,67.1z"/>
<path class="st11" d="M605.5,78c-14-62.1-95.3-82.8-137-34.6"/>
<path class="st11" d="M583.2,77.1c-4-11.5-11.4-21.5-21.3-28.6c-9.9-7.1-21.7-11-33.8-11"/>
<path class="st9" d="M468.3,75l1.3,4.3c0.4,1.3,1.1,2.4,2,3.4c0.9,0.9,2.1,1.6,3.4,2l4.3,1.3l-4.3,1.3c-1.3,0.4-2.4,1.1-3.4,2
	c-0.9,0.9-1.6,2.1-2,3.4l-1.3,4.3l-1.3-4.3c-0.4-1.3-1.1-2.4-2-3.4c-0.9-0.9-2.1-1.6-3.4-2l-4.3-1.3l4.3-1.3c1.3-0.4,2.4-1.1,3.4-2
	c0.9-0.9,1.6-2.1,2-3.4L468.3,75z"/>
<linearGradient id="SVGID_00000027592947406109190620000016897417757704736683_" gradientUnits="userSpaceOnUse" x1="413.3562" y1="186.2652" x2="428.4732" y2="170.0355" gradientTransform="matrix(1 0 0 -1 0 206)">
	<stop  offset="0" style="stop-color:#FFF176"/>
	<stop  offset="1" style="stop-color:#00E0B8"/>
</linearGradient>
<path style="fill:url(#SVGID_00000027592947406109190620000016897417757704736683_);" d="M420.9,16.8l1.3,4.4c0.4,1.3,1.1,2.4,2,3.3
	c0.9,0.9,2.1,1.6,3.3,2l4.4,1.3l-4.4,1.4c-1.3,0.4-2.4,1.1-3.4,2c-0.9,0.9-1.6,2.1-2,3.3l-1.3,4.4l-1.3-4.4c-0.4-1.3-1.1-2.4-2-3.4
	c-0.9-0.9-2.1-1.6-3.4-2l-4.3-1.4l4.3-1.3c1.3-0.4,2.4-1.1,3.4-2c0.9-0.9,1.6-2.1,2-3.3L420.9,16.8z"/>
<path class="st9" d="M455.7,52.5l1.8,5.8c0.5,1.7,1.4,3.2,2.7,4.4c1.2,1.2,2.8,2.2,4.4,2.7l5.8,1.8l-5.8,1.8
	c-1.7,0.5-3.2,1.4-4.4,2.7c-1.2,1.2-2.1,2.8-2.7,4.4l-1.8,5.8l-1.8-5.8c-0.5-1.7-1.4-3.2-2.7-4.5c-1.2-1.2-2.8-2.2-4.4-2.7l-5.7-1.8
	l5.7-1.8c1.7-0.5,3.2-1.4,4.4-2.7c1.2-1.2,2.2-2.8,2.7-4.5L455.7,52.5z"/>
<linearGradient id="SVGID_00000000934783026622641260000016767330091571567251_" gradientUnits="userSpaceOnUse" x1="394.0294" y1="136.8043" x2="414.0014" y2="115.3861" gradientTransform="matrix(1 0 0 -1 0 206)">
	<stop  offset="0" style="stop-color:#FFF176"/>
	<stop  offset="1" style="stop-color:#00E0B8"/>
</linearGradient>
<path style="fill:url(#SVGID_00000000934783026622641260000016767330091571567251_);" d="M404.1,65.2l1.8,5.8
	c0.5,1.7,1.4,3.2,2.7,4.4c1.2,1.2,2.8,2.2,4.4,2.7l5.7,1.8l-5.7,1.8c-1.7,0.5-3.2,1.4-4.4,2.7c-1.2,1.2-2.2,2.8-2.7,4.4l-1.8,5.8
	l-1.8-5.8c-0.5-1.7-1.4-3.2-2.7-4.4c-1.2-1.2-2.8-2.2-4.4-2.7l-5.7-1.8l5.7-1.8c1.7-0.5,3.2-1.4,4.4-2.7c1.2-1.2,2.2-2.8,2.7-4.4
	L404.1,65.2z"/>
</svg>
