<?xml version="1.0" encoding="utf-8"?>
<!-- Generator: Adobe Illustrator 26.0.3, SVG Export Plug-In . SVG Version: 6.00 Build 0)  -->
<svg version="1.1" id="圖層_1" xmlns="http://www.w3.org/2000/svg" xmlns:xlink="http://www.w3.org/1999/xlink" x="0px" y="0px"
	 viewBox="0 0 296 53" style="enable-background:new 0 0 296 53;" xml:space="preserve">
<style type="text/css">
	.st0{fill-rule:evenodd;clip-rule:evenodd;fill:#00E0B8;}
	.st1{fill:#00E0B8;}
</style>
<path d="M38.4,5.3c0.4,0.6,0.8,1.3,1,1.9h-3.5l1-0.4c-0.2-0.5-0.6-1.2-1.1-1.8c1.4,0,2.7-0.1,4.1-0.2L38.4,5.3z M40.4,7.2l1.4-0.5
	c-0.1-0.6-0.6-1.4-1-2c1.7-0.1,3.4-0.3,4.9-0.5c-0.4,1-1.1,2.2-1.7,3H40.4z M33,9.4h5.8L38.2,10c1.2,0.5,2.7,1.4,3.4,2.1l1.4-1.6
	c-0.4-0.3-1-0.7-1.6-1.1h6.5v2c-0.6-0.5-1.2-1-1.7-1.4l-1.9,1.4c1.4,1.1,3,2.7,3.7,3.8l2-1.5c-0.3-0.5-0.9-1.1-1.5-1.7h2.3V7.2h-3.9
	c0.6-0.7,1.2-1.6,1.8-2.5L46.6,4c1.1-0.1,2.1-0.3,3-0.5l-1.9-1.9C43.8,2.4,36.8,2.9,30.9,3c0.2,0.5,0.5,1.5,0.6,2.1c1,0,2,0,3-0.1
	l-1.2,0.5c0.4,0.5,0.8,1.1,1,1.7h-4v4.4H33V9.4z M33.8,10.2c-0.5,1.2-1.3,2.5-2.4,3.2l2,1.5c1.3-1,2-2.4,2.6-3.8L33.8,10.2z
	 M37.1,17.8h6.8c-0.8,0.7-1.8,1.3-3,1.8C39.4,19.1,38.1,18.6,37.1,17.8L37.1,17.8z M46.4,15.7l-0.5,0.1h-6.3
	c0.3-0.3,0.6-0.7,0.9-1.1l-0.1,0h2.2c1.8,0,2.4-0.5,2.7-2.4c-0.7-0.1-1.7-0.4-2.2-0.7c-0.1,1-0.2,1.1-0.8,1.1h-2.5c-0.8,0-1,0-1-0.6
	v-1.7h-2.6v1.7c0,1.4,0.3,2.1,1.3,2.4c-0.7,0.7-1.5,1.3-2.5,1.9c-0.5-0.5-1-1-1.4-1.6l-2.3,0.9c0.5,0.6,1,1.2,1.5,1.8
	c-0.8,0.4-1.7,0.7-2.6,1c0.6,0.4,1.5,1.4,2,1.9c0.8-0.3,1.7-0.7,2.5-1.2c0.7,0.6,1.6,1.1,2.4,1.6c-2.3,0.5-4.9,0.9-7.6,1
	c0.5,0.6,1.2,1.7,1.4,2.4c3.4-0.3,6.6-0.9,9.5-1.9c2.8,0.9,5.9,1.5,9.5,1.8c0.3-0.8,1-2,1.6-2.6c-2.7-0.1-5.1-0.5-7.4-0.9
	c1.6-1,2.9-2.2,3.9-3.7L46.4,15.7z"/>
<path d="M71.1,6.1h-5.7V4.7h5.7V6.1z M71.1,9.6h-5.7V8.1h5.7V9.6z M74,2.5H62.7v9.3H74V2.5z M58.4,6.4v8.8h-1.7V6.4H58.4z M61,3.8
	h-6.9V20h2.6v-2.1H61V3.8z M64.8,20.8v-1.6h7v1.6H64.8z M71.8,15.4v1.5h-7v-1.5H71.8z M62,13v11h2.8v-0.9h7V24h3V13H62z"/>
<path d="M82.5,17.5v1.6h-1.9v-1.6H82.5z M84.8,21v-5.5h-6.5v6.3h2.3V21H84.8z M88.4,10.8c0.7,0.4,1.7,0.9,2.1,1.3h-2.1V10.8z
	 M95.2,8.8h-2.5v1.8c0,2.9-0.4,7.6-4.2,11v-0.1v-7h2.2v-2.4h-0.2c0.8-1.2,1.4-2.7,2-4.5h4.4c-0.2,1.5-0.5,3-0.7,4.1l2.2,0.6
	c0.5-1.7,1.1-4.5,1.5-6.8L98,5l-0.4,0.1h-4.4c0.2-1,0.4-2,0.6-3l-2.7-0.5c-0.5,3.3-1.4,6.6-2.7,8.8V5h1.4V2.6H77.5V5h8.3v7.2h-8.6
	v2.4H86v6.9c0,0.3-0.1,0.3-0.4,0.4c-0.3,0-1.3,0-2.2,0c0.3,0.6,0.6,1.4,0.8,2c1.5,0,2.6,0,3.4-0.3c0.5-0.2,0.8-0.5,0.9-1
	c0.5,0.5,1.1,1.2,1.3,1.7c2.3-1.9,3.6-4.2,4.4-6.5c1,2.6,2.3,4.6,4.4,6.4c0.3-0.8,1.1-1.6,1.8-2.1c-2.8-2.3-4.2-5-5.2-9.6
	c0-0.6,0-1.2,0-1.7V8.8z M82.3,9.3h-1.8V7.7h1.8V9.3z M78.4,5.9v5.3h6V5.9H78.4z"/>
<path d="M115.3,12.1h4.4v1.4h-4.4V12.1z M115.3,8.6h4.4V10h-4.4V8.6z M115.3,5.1h4.4v1.4h-4.4V5.1z M110.2,16.7
	c1.1,1,2.5,2.5,3.2,3.3l2.1-1.7c-0.6-0.7-1.6-1.7-2.5-2.5h9.5V2.9h-9.7v12.7l-0.5-0.4L110.2,16.7z M105.7,16.1h2.7v-5
	c0.9,0.8,1.8,1.7,2.3,2.3l1.5-2.3c-0.6-0.5-2.8-2.1-3.8-2.6V7.5h3.4V5.1h-3.4V1.7h-2.7v3.4h-3.9v2.4h3.5c-0.9,2.1-2.5,4.2-4.1,5.4
	c0.6,0.5,1.4,1.3,1.8,2c1-0.9,1.9-2.1,2.7-3.5V16.1z M103.9,22.8c0.8-1.4,1.5-3.5,2-5.2l-2.5-1c-0.4,1.7-1.2,3.7-2.1,4.9L103.9,22.8
	z M111.2,21.1c-1.3,0-1.5-0.1-1.5-0.8V17h-2.8v3.3c0,2.5,0.8,3.3,4.1,3.3h4.3c2.6,0,3.4-0.8,3.8-4.3c-0.8-0.1-2-0.6-2.6-1
	c-0.1,2.4-0.3,2.8-1.4,2.8H111.2z M118.3,17.4c0.9,1.6,2.3,3.7,2.8,5l2.7-1.4c-0.6-1.2-2-3.3-3-4.8L118.3,17.4z"/>
<path d="M143.3,9.3c-0.6,1.9-1.4,3.7-2.3,5.3c-0.4-1.9-0.7-4.2-1-6.6h7.4V5.2H145l1.2-1.2c-0.8-0.8-2.6-1.9-3.9-2.6l-1.7,1.7
	c1,0.6,2.2,1.4,3.1,2.1h-3.7c0-1.2-0.1-2.4,0-3.6h-3c0,1.2,0,2.4,0.1,3.6h-9.8v7c0,3.1-0.2,7.3-2,10.2c0.6,0.3,1.9,1.4,2.4,1.9
	c2-2.9,2.5-7.6,2.6-11.1h3.1c-0.1,3-0.2,4.2-0.4,4.5c-0.2,0.2-0.4,0.3-0.7,0.3c-0.4,0-1.2,0-2.1-0.1c0.4,0.7,0.7,1.8,0.8,2.7
	c1.1,0,2.1,0,2.8-0.1c0.7-0.1,1.2-0.3,1.7-1c0.6-0.7,0.7-2.8,0.8-7.9c0-0.3,0-1.1,0-1.1h-5.9V8.1h7c0.3,3.6,0.8,7,1.7,9.7
	c-1.4,1.6-3,2.9-4.9,3.9c0.6,0.6,1.6,1.7,2.1,2.4c1.5-0.9,2.8-2,4.1-3.3c1.1,2,2.4,3.2,4.1,3.2c2.2,0,3.2-1.1,3.6-5.5
	c-0.8-0.3-1.8-0.9-2.4-1.6c-0.1,3-0.4,4.2-1,4.2c-0.8,0-1.5-1-2.2-2.7c1.7-2.3,3.1-5.1,4.1-8.2L143.3,9.3z"/>
<path d="M155.7,18.8c0.4,1.4,0.6,3.3,0.5,4.4l2.5-0.3c0-1.2-0.2-3-0.6-4.4L155.7,18.8z M159.3,18.6c0.5,1.3,1,2.9,1.1,4l2.3-0.6
	c-0.2-1.1-0.6-2.7-1.2-3.9L159.3,18.6z M166.4,12.6c-0.1,0.7-0.3,1.4-0.4,1.9h-9.2c0.6-0.6,1.2-1.3,1.8-1.9H166.4z M164.5,8.3
	c-0.1,0.7-0.3,1.3-0.4,1.9h-3.7c0.4-0.6,0.8-1.2,1.2-1.9H164.5z M171.1,14.6h-2.6c0.3-1.3,0.6-3,0.9-4.4h-2.7c0.3-1.3,0.7-3,0.9-4.4
	h-4.7c0.5-1.1,1-2.2,1.4-3.3l-2.9-0.8c-0.4,1.4-1,2.8-1.7,4.1h-3.5l1.2-0.5c-0.3-1-1.1-2.4-1.8-3.5l-2.5,1c0.6,0.9,1.2,2.1,1.5,3h-4
	v2.5h7.7c-2.2,3.4-5.2,6.4-9.2,8.2c0.5,0.6,1.2,1.8,1.5,2.5c0.6-0.3,1.2-0.6,1.8-1c-0.4,1.8-1.3,3.5-2.6,4.5l2.2,1.4
	c1.5-1.3,2.3-3.4,2.8-5.4l-2.2-0.7c0.4-0.3,0.8-0.5,1.2-0.8h14.3c-0.3,2.7-0.6,3.9-1,4.3c-0.2,0.2-0.5,0.3-0.8,0.3
	c-0.5,0-1.4,0-2.3-0.1c0.4,0.7,0.7,1.8,0.8,2.5c1.2,0,2.2,0,2.9,0c0.7-0.1,1.3-0.3,1.8-0.9c0.7-0.8,1.2-2.8,1.6-7.4L171.1,14.6z
	 M166.4,20.6c-0.2-0.9-0.9-2.2-1.6-3.2l-2,0.7c0.6,1,1.2,2.4,1.4,3.2L166.4,20.6z"/>
<path d="M185.8,13.1h2.5l-0.5,0.4c0.3,0.1,0.6,0.3,1,0.4l-3,0V13.1z M178.8,11.4v-0.9h4.2v0.9H178.8z M178.8,8h4.2v0.9h-4.2V8z
	 M190.3,8v0.9h-4.5V8H190.3z M185.8,11.4v-0.9h4.5v0.9H185.8z M195.4,16.7h-5.4v-1l1.8,0c0.4,0.3,0.7,0.6,1,0.8l1.8-1.5
	c-0.8-0.6-1.9-1.3-3.1-1.9h1.6V6.2h-7.2V5.4h8.8V3.2h-8.8V1.7h-2.8v1.5h-8.8v2.2h8.8v0.9h-6.9v6.9h6.9V14c-3.2,0-6.2,0-8.4,0l0.1,2
	c3.4,0,7.9-0.1,12.6-0.2v0.9h-13.7V19h4.8l-1,0.8c1.3,0.9,2.9,2.3,3.6,3.2l2.1-1.8c-0.6-0.6-1.6-1.5-2.6-2.2h6.8v2.2
	c0,0.3-0.1,0.4-0.5,0.4c-0.4,0-1.8,0-2.9,0c0.3,0.7,0.7,1.7,0.8,2.5c1.8,0,3.2,0,4.1-0.4c1-0.4,1.2-1.1,1.2-2.4V19h5.4V16.7z"/>
<path d="M204.5,19.4c-1.5,0.9-4.2,1.7-6.6,2c0.6,0.5,1.3,1.5,1.7,2.1c2.5-0.6,5.4-1.8,7-3.2L204.5,19.4z M210.9,20.6
	c2,0.8,4.8,2.1,6.2,2.9l2-1.6c-1.5-0.8-4.4-2-6.3-2.7L210.9,20.6z M211.9,7.8c-0.3,0.6-0.8,1.3-1.2,1.8l0.9,0.3H205l1.3-0.3
	c-0.2-0.5-0.6-1.2-1-1.8H211.9z M209.9,16.3v-1.1h7.2v-2.1h-7.2v-1.1h8.3V9.9h-4.6c0.4-0.4,0.9-1,1.5-1.5l-2.3-0.6h6.3V5.6H216
	c0.6-0.8,1.2-1.9,1.9-3l-3-0.7c-0.3,1-1,2.5-1.5,3.5l0.9,0.3h-2.1V1.7h-2.7v3.9h-1.8V1.7H205v3.9h-2.2l1.2-0.4
	c-0.3-0.9-1.1-2.4-1.8-3.4l-2.4,0.8c0.6,0.9,1.2,2.1,1.5,3H198v2.2h6.1l-1.6,0.4c0.3,0.5,0.7,1.2,0.9,1.8h-4.4v2.2h8.1v1.1h-6.9v2.1
	h6.9v1.1h-9.1v2.4h9.1v5.5h2.8v-5.5h9.3v-2.4H209.9z"/>
<path d="M226.5,17.5v1.6h-1.9v-1.6H226.5z M228.8,21v-5.5h-6.5v6.3h2.3V21H228.8z M232.4,10.8c0.7,0.4,1.7,0.9,2.1,1.3h-2.1V10.8z
	 M239.2,8.8h-2.5v1.8c0,2.9-0.4,7.6-4.2,11v-0.1v-7h2.2v-2.4h-0.2c0.8-1.2,1.4-2.7,2-4.5h4.4c-0.2,1.5-0.5,3-0.7,4.1l2.2,0.6
	c0.5-1.7,1.1-4.5,1.5-6.8L242,5l-0.4,0.1h-4.4c0.2-1,0.4-2,0.6-3l-2.7-0.5c-0.5,3.3-1.4,6.6-2.7,8.8V5h1.4V2.6h-12.2V5h8.3v7.2h-8.6
	v2.4h8.7v6.9c0,0.3-0.1,0.3-0.4,0.4c-0.3,0-1.3,0-2.2,0c0.3,0.6,0.6,1.4,0.8,2c1.5,0,2.6,0,3.4-0.3c0.5-0.2,0.8-0.5,0.9-1
	c0.5,0.5,1.1,1.2,1.3,1.7c2.3-1.9,3.6-4.2,4.4-6.5c1,2.6,2.3,4.6,4.4,6.4c0.3-0.8,1.1-1.6,1.8-2.1c-2.8-2.3-4.2-5-5.2-9.6
	c0-0.6,0-1.2,0-1.7V8.8z M226.3,9.3h-1.8V7.7h1.8V9.3z M222.4,5.9v5.3h6V5.9H222.4z"/>
<path d="M267.5,14H258v-2.8h8.1V8.4H258V5.3c2.6-0.3,5.2-0.7,7.3-1.3l-2.1-2.4c-3.9,1-10.5,1.7-16.3,1.9c0.3,0.6,0.6,1.8,0.7,2.5
	c2.4-0.1,4.9-0.2,7.4-0.5v2.8h-7.8v2.7h7.8V14h-9.5v2.8h9.5v3.9c0,0.5-0.2,0.6-0.8,0.7c-0.5,0-2.5,0-4.3-0.1c0.5,0.8,1,2,1.2,2.8
	c2.4,0,4.2,0,5.3-0.5c1.1-0.5,1.6-1.2,1.6-2.9v-3.9h9.5V14z"/>
<path class="st0" d="M39.9,4.7c-0.5,0-0.9,0.1-1.4,0.1c-0.1,0-0.2,0-0.2,0c-0.2,0-0.3,0-0.5,0c-0.4,0-0.7,0-1.1,0.1
	c-0.3,0-0.6,0-0.9,0c0.2,0.2,0.4,0.5,0.5,0.7c0.1,0.1,0.2,0.3,0.2,0.4c0,0,0,0.1,0.1,0.1c0,0.1,0.1,0.2,0.1,0.2
	c0,0.1,0.1,0.2,0.1,0.3l-1,0.4h3.5C39.3,7,39.2,6.7,39,6.5c-0.1-0.2-0.2-0.4-0.3-0.5c-0.1-0.1-0.1-0.2-0.2-0.4
	c-0.1-0.1-0.1-0.2-0.2-0.3L39.9,4.7z M40.4,7.2l1.4-0.5c0-0.1,0-0.1-0.1-0.2c-0.1-0.3-0.3-0.7-0.5-1.1c-0.1-0.2-0.3-0.5-0.5-0.7
	c0.3,0,0.6,0,0.9-0.1c1.1-0.1,2.2-0.2,3.2-0.3c0.3,0,0.6-0.1,0.9-0.1c-0.1,0.3-0.2,0.5-0.4,0.8c-0.4,0.8-0.9,1.6-1.3,2.2H40.4z
	 M42.6,6.5h1.1c0.3-0.4,0.5-0.9,0.8-1.4c-0.8,0.1-1.6,0.2-2.4,0.2C42.3,5.7,42.5,6.1,42.6,6.5z M48.7,3.7c-0.2,0-0.3,0.1-0.5,0.1
	C47.7,3.9,47.1,4,46.6,4l2.1,0.7c-0.1,0.2-0.3,0.4-0.5,0.6c-0.3,0.4-0.5,0.7-0.8,1.1c-0.2,0.3-0.4,0.5-0.6,0.8h3.9v4.7h-2.3
	c0.3,0.3,0.5,0.5,0.7,0.8c0.3,0.3,0.6,0.7,0.8,1l-2,1.5c-0.1-0.2-0.3-0.4-0.4-0.6c-0.4-0.6-1-1.2-1.6-1.8c-0.2-0.2-0.3-0.3-0.5-0.5
	c0,0-0.1-0.1-0.1-0.1c-0.1-0.1-0.3-0.2-0.4-0.4c-0.2-0.2-0.4-0.3-0.6-0.5l1.9-1.4c0.1,0,0.1,0.1,0.2,0.2c0.3,0.2,0.5,0.4,0.8,0.6
	c0.3,0.2,0.5,0.4,0.8,0.6v-2h-6.5c0.4,0.2,0.7,0.4,1,0.6c0.1,0,0.1,0.1,0.2,0.1c0.1,0.1,0.3,0.2,0.4,0.3L41.6,12c0,0,0,0,0,0
	c0,0-0.1-0.1-0.1-0.1c-0.5-0.4-1.2-0.9-2-1.3c-0.1-0.1-0.2-0.1-0.3-0.2c-0.1-0.1-0.2-0.1-0.3-0.1c0,0-0.1,0-0.1-0.1
	c-0.1,0-0.1-0.1-0.2-0.1c-0.1-0.1-0.3-0.1-0.4-0.2l0.5-0.6H33v2.2h-2.7V7.2h4C34.1,7,34,6.7,33.8,6.5c-0.1-0.1-0.1-0.2-0.2-0.3
	c-0.1-0.1-0.2-0.3-0.3-0.4c-0.1-0.1-0.1-0.2-0.2-0.2L34.4,5c-0.3,0-0.7,0-1,0c-0.1,0-0.3,0-0.4,0c-0.1,0-0.2,0-0.4,0
	c-0.4,0-0.8,0-1.2,0c0-0.4-0.1-0.9-0.3-1.3C31.1,3.5,31,3.2,30.9,3c0.3,0,0.5,0,0.8,0c5.7-0.1,12.2-0.6,16-1.3l1.9,1.9
	C49.3,3.6,49,3.7,48.7,3.7z M32.5,5.8c-0.3,0-0.7,0-1,0c-0.4,0-0.7-0.3-0.8-0.7c0-0.5-0.3-1.4-0.5-1.8c-0.1-0.2-0.1-0.5,0-0.7
	c0.1-0.2,0.4-0.3,0.6-0.4c5.9-0.1,12.8-0.6,16.7-1.4c0.2,0,0.5,0,0.7,0.2L50.2,3c0.2,0.2,0.3,0.5,0.2,0.7S50,4.2,49.8,4.3
	c-0.1,0-0.3,0.1-0.4,0.1c0,0,0,0.1,0.1,0.1c0.1,0.2,0,0.5-0.1,0.7C49,5.6,48.7,6,48.4,6.5h2.4c0.4,0,0.8,0.3,0.8,0.8v4.7
	c0,0.4-0.3,0.8-0.8,0.8h-0.5c0.2,0.2,0.3,0.4,0.4,0.6c0.2,0.3,0.1,0.8-0.2,1l-2,1.5c-0.1,0.1-0.2,0.1-0.3,0.1l0.5,0.3
	c0.2,0.1,0.3,0.3,0.3,0.5c0,0.2,0,0.4-0.1,0.6c-0.7,1.1-1.6,2-2.6,2.8c1.7,0.3,3.5,0.5,5.5,0.6c0.3,0,0.5,0.2,0.7,0.5
	s0.1,0.6-0.1,0.8c-0.5,0.6-1.2,1.7-1.5,2.4c-0.1,0.3-0.4,0.5-0.8,0.5c-3.5-0.3-6.6-0.9-9.4-1.8c-2.9,1-6.1,1.5-9.4,1.9
	c-0.3,0-0.7-0.2-0.8-0.5c-0.1-0.3-0.3-0.7-0.6-1.1c-0.3-0.4-0.5-0.8-0.7-1c-0.2-0.2-0.3-0.5-0.1-0.8c0.1-0.3,0.4-0.4,0.7-0.5
	c0.7,0,1.4-0.1,2.1-0.2c-0.5-0.5-1.3-1.4-1.8-1.7c-0.2-0.2-0.4-0.5-0.3-0.7c0-0.3,0.3-0.5,0.5-0.6c0.5-0.2,1.1-0.3,1.6-0.5
	c-0.3-0.3-0.6-0.7-0.8-1.1c-0.1-0.2-0.2-0.4-0.1-0.6c0.1-0.2,0.2-0.4,0.4-0.5l0.8-0.3L30.9,14c-0.2-0.1-0.3-0.4-0.3-0.6
	c0-0.2,0.1-0.5,0.3-0.6c0.2-0.1,0.4-0.3,0.6-0.4h-1.3c-0.4,0-0.8-0.3-0.8-0.8V7.2c0-0.4,0.3-0.8,0.8-0.8h2.7
	c-0.1-0.2-0.2-0.3-0.3-0.5C32.6,5.9,32.5,5.9,32.5,5.8z M32.5,12.4c-0.2,0.2-0.4,0.4-0.6,0.6c-0.2,0.2-0.4,0.3-0.6,0.5l2,1.5l-2,0.8
	c0.2,0.2,0.3,0.4,0.5,0.6c0.2,0.2,0.3,0.4,0.5,0.6c0.2,0.2,0.3,0.4,0.5,0.6c-0.2,0.1-0.5,0.2-0.7,0.3c-0.3,0.1-0.7,0.3-1,0.4
	c-0.3,0.1-0.6,0.2-0.9,0.3c0.2,0.1,0.4,0.3,0.7,0.6c0.5,0.4,1,1,1.3,1.3c0.8-0.3,1.7-0.7,2.5-1.2c0.5,0.4,0.9,0.7,1.4,1
	c0.3,0.2,0.6,0.4,1,0.6c-0.4,0.1-0.7,0.2-1.1,0.2c-1.7,0.3-3.6,0.6-5.6,0.7c-0.3,0-0.6,0-0.9,0.1c0.2,0.2,0.4,0.4,0.5,0.7
	c0.4,0.6,0.7,1.2,0.9,1.7c3.4-0.3,6.6-0.9,9.5-1.9c2.8,0.9,5.9,1.5,9.5,1.8c0.2-0.6,0.6-1.3,1.1-1.9c0.2-0.3,0.4-0.5,0.5-0.7
	c-0.3,0-0.6,0-0.9-0.1c-1.9-0.1-3.7-0.4-5.4-0.6c-0.4-0.1-0.7-0.1-1.1-0.2c0.3-0.2,0.6-0.4,0.9-0.6c1-0.7,1.9-1.5,2.6-2.5
	c0.2-0.2,0.3-0.4,0.4-0.6l-1.8-1.2l-0.5,0.1h-6.3c0.1-0.1,0.3-0.3,0.4-0.4c0.1-0.1,0.2-0.2,0.2-0.3c0,0,0,0,0,0c0,0,0.1-0.1,0.1-0.1
	c0-0.1,0.1-0.1,0.1-0.2l-0.1,0h2.2c1.5,0,2.2-0.4,2.6-1.6c0,0,0,0,0,0c0-0.1,0-0.1,0.1-0.2c0-0.2,0.1-0.3,0.1-0.5
	c-0.4-0.1-1-0.2-1.4-0.4c0,0,0,0,0,0c0,0,0,0,0,0c-0.3-0.1-0.5-0.2-0.7-0.3c0,0.4-0.1,0.6-0.1,0.8c-0.1,0.3-0.3,0.3-0.7,0.3h-2.5
	c-0.8,0-1,0-1-0.6v-1.7h-2.6v1.7c0,0.1,0,0.3,0,0.4c0,0.8,0.2,1.3,0.6,1.6c0.2,0.1,0.4,0.3,0.7,0.3c-0.2,0.2-0.4,0.4-0.6,0.6
	c-0.6,0.5-1.2,0.9-1.9,1.3c-0.4-0.3-0.7-0.7-1-1c-0.2-0.2-0.3-0.4-0.4-0.5l-0.2,0.1c0.1,0,0.1-0.1,0.2-0.1c0.2-0.2,0.4-0.3,0.5-0.5
	c0.5-0.6,1-1.2,1.3-1.9c0-0.1,0.1-0.2,0.1-0.2c0.2-0.3,0.3-0.6,0.4-1l-2.2-0.9c0,0.1,0,0.1-0.1,0.2c-0.1,0.2-0.1,0.3-0.2,0.5
	c-0.1,0.2-0.2,0.5-0.4,0.7c0,0.1-0.1,0.1-0.1,0.2C32.8,12,32.7,12.2,32.5,12.4z M35.6,13.6c-0.3,0.5-0.6,0.9-1,1.3
	c0.2,0.2,0.3,0.4,0.5,0.6c0.4-0.3,0.8-0.5,1.1-0.8c-0.2-0.2-0.3-0.4-0.5-0.6C35.7,13.9,35.6,13.8,35.6,13.6z M39.5,11.5V12
	c0.1,0,0.1,0,0.2,0h0.5C40,11.8,39.8,11.7,39.5,11.5z M43.6,11C43.6,11,43.6,11,43.6,11c0.1-0.1,0.2-0.2,0.3-0.3l0.9-0.6h-1
	c0,0.1,0.1,0.2,0.1,0.2C43.8,10.6,43.7,10.8,43.6,11L43.6,11z M45.7,13.7c-0.2,0.4-0.4,0.8-0.7,1.1c-0.1,0.1-0.3,0.2-0.4,0.3h1.2
	l0.4-0.1c0.2,0,0.4,0,0.5,0.1l0.3,0.2C46.8,14.8,46.3,14.2,45.7,13.7z M35.1,20.4c-0.2-0.1-0.3-0.2-0.5-0.3
	c-0.4,0.2-0.8,0.4-1.2,0.6C34,20.6,34.6,20.5,35.1,20.4z M37.7,5.6c-0.2,0-0.4,0-0.6,0c0.2,0.3,0.3,0.6,0.4,0.8h0.7
	C38.1,6.2,37.9,5.9,37.7,5.6C37.7,5.7,37.7,5.6,37.7,5.6z M37.1,17.9c0.4,0.2,0.8,0.5,1.2,0.7c0.8,0.4,1.6,0.7,2.5,1
	c0.7-0.3,1.4-0.6,2-1c0.4-0.2,0.7-0.5,1-0.8L37.1,17.9L37.1,17.9C37,17.9,37.1,17.9,37.1,17.9C37.1,17.9,37.1,17.9,37.1,17.9z
	 M40.2,18.6c0.2,0.1,0.4,0.1,0.6,0.2c0.2-0.1,0.3-0.1,0.5-0.2H40.2z M74,1.7c0.4,0,0.8,0.3,0.8,0.8v9.3c0,0.2-0.1,0.4-0.2,0.5h0.3
	c0.4,0,0.8,0.3,0.8,0.8V24c0,0.4-0.3,0.8-0.8,0.8h-3c-0.4,0-0.7-0.3-0.8-0.7h-5.5v0.1c0,0.4-0.3,0.8-0.8,0.8H62
	c-0.4,0-0.8-0.3-0.8-0.8v-5.5c-0.1,0-0.1,0-0.2,0h-3.6V20c0,0.4-0.3,0.8-0.8,0.8h-2.6c-0.4,0-0.8-0.3-0.8-0.8V3.8
	c0-0.4,0.3-0.8,0.8-0.8H61c0.4,0,0.8,0.3,0.8,0.8v8.6c0.1,0,0.1,0,0.2,0h0.2c-0.1-0.1-0.2-0.3-0.2-0.5V2.5c0-0.4,0.3-0.8,0.8-0.8H74
	z M56.7,20h-2.6V3.8H61v14.1h-4.3V20z M62,24.1V13h12.8V24h-3v-0.7h-7v0.9H62z M62.7,11.8H74V2.5H62.7V11.8z M57.7,14.5V7.1h-0.2
	v7.3H57.7z M65.5,20L65.5,20l5.5,0.1V20H65.5z M84.8,21v-5.5h-6.5v6.3h2.3V21H84.8z M81.4,21.8h1.3c0,0.1,0,0.2,0.1,0.3
	c0.3,0.6,0.6,1.3,0.7,1.8c0.1,0.4,0.4,0.6,0.7,0.6c1.5,0,2.7,0,3.6-0.4l0,0c0.3-0.1,0.5-0.3,0.8-0.5c0.2,0.3,0.4,0.6,0.6,0.8
	c0.1,0.2,0.3,0.3,0.5,0.4c0.2,0,0.5,0,0.6-0.2c1.8-1.6,3.1-3.3,4-5.2c0.9,1.9,2.2,3.5,3.8,5c0.2,0.2,0.4,0.2,0.7,0.2
	c0.2-0.1,0.4-0.2,0.5-0.4c0.3-0.6,0.9-1.4,1.6-1.8c0.1-0.1,0.2-0.2,0.3-0.3l2.5,1.2c0.4,0.2,0.8,0,1-0.3c0.6-1,1.1-2.3,1.5-3.5v0.7
	c0,1.3,0.2,2.4,1.1,3.2c0.8,0.7,2.1,0.9,3.7,0.9h4.3c1.4,0,2.5-0.2,3.3-1.1c0.5-0.6,0.8-1.4,1-2.4c0.4,0.7,0.7,1.3,0.9,1.8
	c0.1,0.2,0.2,0.3,0.4,0.4s0.4,0.1,0.6,0l2.7-1.4c0.2-0.1,0.3-0.2,0.4-0.4c0.1-0.2,0-0.4,0-0.6c-0.5-1-1.5-2.5-2.3-3.7
	c-0.1-0.1-0.2-0.3-0.2-0.4h0.5c0.4,0,0.8-0.3,0.8-0.8V2.9c0-0.4-0.3-0.8-0.8-0.8h-9.7c-0.4,0-0.8,0.3-0.8,0.8v1.5
	c-0.1,0-0.1,0-0.2,0h-2.6V1.7c0-0.4-0.3-0.7-0.8-0.7h-2.7c-0.4,0-0.8,0.3-0.8,0.7v2.6h-3.2c-0.4,0-0.8,0.3-0.8,0.8v2.4
	c0,0.4,0.3,0.8,0.8,0.8h2.3c-0.9,1.6-2.1,3.1-3.3,4c-0.2,0.1-0.3,0.4-0.3,0.6c0,0.2,0.1,0.5,0.3,0.6c0.5,0.4,1.3,1.2,1.7,1.8
	c0.1,0.2,0.3,0.3,0.5,0.3c0.2,0,0.4,0,0.6-0.2c0.5-0.5,1-1,1.5-1.6v2.3c0,0.1,0,0.2,0.1,0.3l-1.3-0.5c-0.2-0.1-0.4-0.1-0.6,0
	c-0.2,0.1-0.3,0.3-0.4,0.5c-0.4,1.6-1.2,3.5-2,4.7c0,0,0,0.1-0.1,0.1c-2.5-2.1-3.7-4.6-4.6-8.7c0,0,0,0,0,0l2.2,0.6
	c0.4,0.1,0.8-0.1,0.9-0.5c0.5-1.8,1.1-4.5,1.5-6.9c0.1-0.4-0.2-0.7-0.5-0.8l-1.9-0.5c-0.1,0-0.3,0-0.4,0l-0.3,0.1h-3.3
	c0.2-0.7,0.3-1.4,0.4-2.2c0.1-0.4-0.2-0.8-0.6-0.9l-2.7-0.5c-0.2,0-0.4,0-0.6,0.1c-0.2,0.1-0.3,0.3-0.3,0.5c0,0.2,0,0.3-0.1,0.5
	c-0.1-0.1-0.3-0.2-0.5-0.2H77.5c-0.4,0-0.8,0.3-0.8,0.8V5c0,0.4,0.3,0.8,0.8,0.8h0.2c0,0.1,0,0.1,0,0.2v5.3c0,0.1,0,0.1,0,0.2h-0.4
	c-0.4,0-0.8,0.3-0.8,0.8v2.4c0,0.4,0.3,0.8,0.8,0.8h0.3c0,0.1,0,0.2,0,0.2v6.3c0,0.4,0.3,0.8,0.8,0.8h2.3
	C81,22.6,81.4,22.3,81.4,21.8L81.4,21.8z M90.5,4.9c0,0,0,0.1,0,0.1c0,0.1-0.1,0.3-0.1,0.4C90.1,6.7,89.6,8,89.1,9
	c-0.2,0.4-0.4,0.7-0.5,1c-0.1,0.1-0.1,0.2-0.2,0.3V5h1.4V2.6H77.5V5h8.3v7.2h-8.6v2.4H86v6.9c0,0.3-0.1,0.3-0.4,0.4
	c-0.2,0-0.7,0-1.4,0c-0.2,0-0.5,0-0.7,0c0,0-0.1,0-0.1,0c0,0,0,0,0,0c0.1,0.2,0.2,0.5,0.4,0.8c0.2,0.4,0.3,0.9,0.4,1.2
	c1.5,0,2.6,0,3.4-0.3c0.2-0.1,0.4-0.2,0.5-0.3c0.2-0.2,0.3-0.4,0.4-0.7c0.2,0.2,0.4,0.4,0.6,0.6c0.1,0.1,0.2,0.3,0.4,0.4
	c0.2,0.2,0.3,0.4,0.4,0.6c0.2-0.2,0.4-0.3,0.6-0.5c1.6-1.5,2.7-3.2,3.5-5c0.1-0.3,0.3-0.7,0.4-1c0.1,0.4,0.3,0.7,0.4,1
	c0.8,1.9,1.9,3.4,3.4,4.8c0.2,0.2,0.4,0.4,0.6,0.5c0.1-0.2,0.2-0.4,0.4-0.7c0.2-0.3,0.5-0.7,0.8-1c0.2-0.2,0.4-0.3,0.6-0.5
	c-0.2-0.2-0.4-0.3-0.6-0.5c-2.4-2.2-3.7-4.9-4.6-9.1c0-0.1,0-0.1,0-0.2c0-0.5,0-1,0-1.5V8.8h-2.5v1.8c0,2.7-0.4,6.9-3.4,10.3
	c-0.2,0.2-0.4,0.4-0.6,0.7c0,0-0.1,0.1-0.1,0.1v-7.1h2.2v-2.4h-0.2c0.1-0.1,0.1-0.2,0.2-0.3c0,0,0,0,0,0c0.1-0.1,0.1-0.2,0.2-0.3
	c0,0,0-0.1,0.1-0.1c0.3-0.6,0.6-1.3,0.9-2C92,9.2,92.1,9,92.1,8.8c0.1-0.2,0.2-0.5,0.2-0.7c0-0.1,0.1-0.3,0.1-0.4h4.4
	c0,0.3-0.1,0.5-0.1,0.8c-0.2,1.3-0.4,2.5-0.6,3.4l2.2,0.6c0.1-0.2,0.1-0.4,0.2-0.7c0,0,0,0,0,0c0.5-1.7,1-4.1,1.3-6.1L98,5l-0.4,0.1
	h-4.4c0.1-0.2,0.1-0.5,0.2-0.8c0.1-0.5,0.2-1,0.3-1.6c0-0.1,0-0.1,0-0.2c0-0.2,0.1-0.4,0.1-0.6l-2.7-0.5c0,0,0,0,0,0
	c0,0.2-0.1,0.5-0.1,0.7C90.9,3.2,90.7,4.1,90.5,4.9z M89.4,11.4c-0.1-0.1-0.2-0.1-0.3-0.2c-0.1-0.1-0.2-0.1-0.3-0.2
	c-0.1-0.1-0.3-0.2-0.4-0.2v1.3h2.1c-0.2-0.1-0.4-0.3-0.6-0.4C89.8,11.6,89.6,11.5,89.4,11.4z M96.1,8.4h-0.2C95.9,8.5,96,8.6,96,8.8
	v0.1C96,8.7,96,8.6,96.1,8.4z M91.9,11.2c-0.1,0.3-0.3,0.5-0.4,0.8c0,0,0,0.1,0,0.1v2.4c0,0.4-0.3,0.8-0.8,0.8h-1.5v4.4
	C91.4,16.9,91.9,13.7,91.9,11.2z M89.5,5.7h-0.4V7C89.3,6.6,89.4,6.2,89.5,5.7z M109.1,16.3c0-0.1,0-0.1,0-0.2v-3.3
	c0.4,0.4,0.7,0.7,1,1c0.2,0.2,0.4,0.3,0.6,0.2c0.2,0,0.4-0.1,0.6-0.3l0.6-1v1.7c-0.1,0-0.1,0.1-0.2,0.1l-2,1.6
	c-0.1,0-0.1,0.1-0.1,0.1c0,0,0,0,0,0H109.1z M109.6,17h-2.8v3.3c0,2.5,0.8,3.3,4.1,3.3h4.3c2.5,0,3.3-0.8,3.7-3.7
	c0-0.2,0-0.3,0.1-0.5c-0.1,0-0.3-0.1-0.4-0.1c-0.5-0.1-1-0.3-1.4-0.5c-0.3-0.1-0.5-0.3-0.7-0.4c0,0.3,0,0.6-0.1,0.9
	c-0.1,1.6-0.4,1.9-1.4,1.9h-3.8c-1.3,0-1.5-0.1-1.5-0.8V17z M119,18.6C119.1,18.6,119.1,18.6,119,18.6c0.1,0.1,0.1,0.1,0.1,0.1
	c0.1,0.2,0.3,0.5,0.4,0.7c0.1,0.1,0.1,0.2,0.2,0.3c0.4,0.7,0.8,1.4,1.1,2c0.1,0.2,0.2,0.5,0.3,0.7l2.7-1.4c-0.1-0.2-0.2-0.4-0.4-0.7
	c-0.5-0.9-1.2-2-1.9-3c-0.2-0.3-0.4-0.6-0.5-0.8c-0.1-0.1-0.1-0.2-0.2-0.3l-2.5,1.2c0.1,0.2,0.2,0.4,0.4,0.6
	C118.8,18.2,118.9,18.4,119,18.6z M118.3,16.5l-0.3,0.2c-0.2,0.1-0.3,0.3-0.4,0.5c-0.1,0.2,0,0.4,0.1,0.6c0.1,0.2,0.2,0.4,0.3,0.5
	c0,0-0.1,0-0.1,0c-0.4-0.2-0.8-0.4-1-0.5c-0.2-0.2-0.5-0.2-0.8-0.1c-0.1,0-0.1,0.1-0.2,0.1c-0.3-0.4-0.7-0.8-1.2-1.2H118.3z
	 M122.4,15.8V2.9h-9.7v12.7l-0.5-0.4l-2,1.6c0,0,0.1,0.1,0.1,0.1c0.1,0.1,0.3,0.3,0.5,0.4c0.7,0.7,1.6,1.6,2.1,2.2
	c0.2,0.2,0.3,0.4,0.5,0.6l2.1-1.7c-0.1-0.2-0.3-0.4-0.5-0.6c-0.4-0.4-0.8-0.8-1.2-1.2c-0.2-0.2-0.3-0.3-0.5-0.5
	c-0.1-0.1-0.2-0.2-0.3-0.3H122.4z M111.9,9.9V8.2c-0.1,0-0.1,0-0.2,0h-2.2C110.3,8.8,111.3,9.4,111.9,9.9z M115.6,19.2l-1.4,1.2h0.8
	c0.3,0,0.4,0,0.4,0c0,0,0,0,0,0c0,0,0,0,0,0c0-0.1,0.1-0.2,0.1-0.6C115.6,19.5,115.6,19.4,115.6,19.2z M112.7,20.3
	c-0.5-0.7-1.5-1.6-2.3-2.5v2.4c0,0,0,0,0,0c0,0,0,0,0.1,0c0.2,0,0.4,0,0.7,0H112.7z M112.2,11c-0.1,0-0.1-0.1-0.2-0.2
	c-0.8-0.6-2.7-2-3.6-2.5V7.5h3.4V5.1h-3.4V1.7h-2.7v3.4h-3.9v2.4h3.5c-0.1,0.3-0.2,0.5-0.4,0.8c-0.8,1.6-1.9,3.1-3.1,4.1
	c-0.2,0.2-0.4,0.3-0.6,0.5c0.2,0.1,0.4,0.3,0.6,0.5c0.3,0.3,0.6,0.6,0.8,0.9c0.2,0.2,0.3,0.4,0.5,0.6c0.2-0.2,0.4-0.3,0.6-0.5
	c0.5-0.5,1-1.1,1.4-1.8c0.3-0.4,0.5-0.8,0.8-1.2v4.7h2.7v-5c0.3,0.2,0.5,0.5,0.8,0.7c0.4,0.3,0.7,0.7,1,1c0.2,0.2,0.4,0.4,0.5,0.6
	L112.2,11z M81.8,18.3L81.8,18.3l-0.4-0.1v0.1H81.8z M81.2,8.6h0.3V8.5L81.2,8.6L81.2,8.6z M78.4,11.2V5.9h6v5.3H78.4z M105.9,17.5
	c-0.5,1.7-1.2,3.8-2,5.2l-2.6-1.3c0.1-0.2,0.3-0.4,0.4-0.6c0.6-1,1.1-2.3,1.5-3.6c0.1-0.2,0.1-0.5,0.2-0.7L105.9,17.5z M142.8,8.8
	h-1.9c0.1,1.2,0.3,2.4,0.5,3.6c0.5-1,0.9-2.1,1.2-3.3C142.7,9,142.7,8.9,142.8,8.8z M141.6,13.6c-0.2,0.3-0.4,0.7-0.6,1
	c-0.1-0.4-0.2-0.7-0.2-1.1c-0.3-1.4-0.5-3-0.7-4.7c0-0.2,0-0.5-0.1-0.8h7.4V5.2H145l1.2-1.2c-0.2-0.2-0.4-0.3-0.6-0.5
	c-0.9-0.7-2.3-1.5-3.3-2.1l-1.7,1.7c0,0,0.1,0,0.1,0.1c0.2,0.1,0.4,0.2,0.6,0.3c0.5,0.3,1,0.6,1.4,0.9c0.4,0.2,0.7,0.5,1,0.8h-3.7
	c0-0.6,0-1.1-0.1-1.7c0-0.2,0-0.5,0-0.7c0-0.1,0-0.2,0-0.4c0-0.2,0-0.5,0-0.8h-3c0,0.3,0,0.5,0,0.8c0,0.7,0,1.4,0.1,2.1
	c0,0.2,0,0.5,0,0.7v0h-9.8v7c0,2.9-0.1,6.7-1.6,9.5c-0.1,0.2-0.2,0.4-0.4,0.7c0.2,0.1,0.4,0.2,0.6,0.4c0.4,0.3,0.9,0.7,1.3,1
	c0.2,0.2,0.4,0.4,0.5,0.5c0.1-0.2,0.3-0.4,0.4-0.7c0.8-1.4,1.3-3.2,1.6-5c0-0.2,0.1-0.4,0.1-0.5c0.1-0.3,0.1-0.6,0.1-0.9
	c0.2-1.4,0.3-2.8,0.3-4h3.1c0,0.3,0,0.5,0,0.8c-0.1,2.5-0.2,3.5-0.4,3.8c-0.2,0.2-0.4,0.3-0.7,0.3c-0.2,0-0.7,0-1.2,0
	c-0.1,0-0.3,0-0.4,0c-0.1,0-0.3,0-0.4,0c0.1,0.2,0.2,0.4,0.3,0.7c0,0,0,0.1,0,0.1c0.2,0.6,0.4,1.3,0.4,1.9c1.1,0,2.1,0,2.8-0.1
	c0.7-0.1,1.2-0.3,1.7-1c0.6-0.7,0.7-2.8,0.8-7.9c0-0.1,0-0.2,0-0.3c0-0.3,0-0.8,0-0.8h-5.9V8.1h7c0.3,3.6,0.8,7,1.7,9.7
	c-1.2,1.4-2.6,2.5-4.2,3.5c-0.2,0.1-0.4,0.3-0.7,0.4c0.2,0.1,0.3,0.3,0.6,0.6c0.6,0.6,1.2,1.3,1.5,1.8c0,0,0,0,0,0
	c1.3-0.8,2.4-1.7,3.5-2.7c0.2-0.2,0.4-0.4,0.6-0.6c0.1,0.2,0.3,0.5,0.4,0.7c1,1.6,2.2,2.5,3.7,2.5c2.2,0,3.2-1.1,3.6-5.5
	c-0.5-0.2-1.1-0.6-1.7-1c-0.3-0.2-0.5-0.4-0.7-0.6c0,0.3,0,0.7,0,1c-0.1,2.3-0.4,3.2-0.9,3.2c-0.8,0-1.5-1-2.2-2.7
	c1.6-2.1,2.9-4.7,3.9-7.5c0.1-0.2,0.2-0.5,0.2-0.7l-2.9-0.7C142.9,10.9,142.3,12.3,141.6,13.6z M142.9,18.4c1.7-2.3,3-5.1,4-8.1
	c0.1-0.2,0-0.4-0.1-0.6c-0.1-0.2-0.3-0.3-0.5-0.4l-1.9-0.5h3c0.4,0,0.8-0.3,0.8-0.8V5.2c0-0.4-0.3-0.8-0.8-0.8h-0.8
	c0.2-0.3,0.2-0.7-0.1-1c-0.9-0.9-2.7-2-4.1-2.7c-0.3-0.1-0.6-0.1-0.9,0.1L140.6,2c0-0.1,0-0.2,0-0.3c0-0.2-0.1-0.4-0.2-0.5
	c-0.1-0.1-0.3-0.2-0.5-0.2h-3c-0.4,0-0.8,0.3-0.8,0.7c0,0.9,0,1.9,0.1,2.8h-9c-0.4,0-0.8,0.3-0.8,0.8v7c0,1.6,0,3.3-0.3,5.1
	c-0.3,1.7-0.7,3.4-1.6,4.7c-0.1,0.2-0.1,0.4-0.1,0.6c0.1,0.2,0.2,0.4,0.4,0.5c0.3,0.1,0.7,0.4,1.1,0.8c0.5,0.4,0.9,0.7,1.1,1
	c0.2,0.2,0.4,0.3,0.6,0.2c0.2,0,0.4-0.1,0.6-0.3c0.9-1.3,1.5-2.9,1.9-4.6c0,0.2,0,0.3,0,0.4c0,0.4,0.3,0.7,0.7,0.7
	c0.8,0,1.7,0,2.3,0c0,0.1,0,0.1,0,0.2c0,0.2,0.1,0.5,0.2,0.6c0.6,0.5,1.6,1.7,2,2.2c0.2,0.3,0.7,0.4,1,0.2c1.3-0.8,2.4-1.7,3.5-2.7
	c1,1.6,2.4,2.7,4.2,2.7c0.6,0,1.2-0.1,1.7-0.3c0.5-0.2,1-0.6,1.4-1.1c0.7-1,1.1-2.5,1.3-4.8c0-0.3-0.2-0.6-0.5-0.8
	c-0.7-0.3-1.6-0.8-2.2-1.4c-0.2-0.2-0.5-0.3-0.8-0.2s-0.5,0.4-0.5,0.7c-0.1,1.5-0.2,2.5-0.3,3.1c0,0.1-0.1,0.3-0.1,0.3
	c-0.1-0.1-0.2-0.2-0.4-0.4C143.5,19.5,143.2,19,142.9,18.4z M136.3,19.1c0.6-0.5,1.1-1,1.6-1.5c-0.5-1.7-0.8-3.5-1.1-5.5
	c0,2.4-0.1,4.1-0.2,5.3c-0.1,0.6-0.1,1.2-0.2,1.6C136.4,19,136.4,19,136.3,19.1z M136.6,10.1c0-0.4-0.1-0.8-0.1-1.2h-5.5v1.1h5.2
	C136.3,9.9,136.4,10,136.6,10.1z M130.6,17.3c0.7,0,1.2,0.1,1.5,0.1c0,0,0.1,0,0.1,0c0,0,0-0.1,0-0.1c0-0.2,0.1-0.4,0.1-0.7
	c0.1-0.6,0.1-1.3,0.1-2.4h-1.6C130.8,15,130.8,16.1,130.6,17.3z M140.6,4.1c0,0.1,0,0.3,0,0.4h0.6C141,4.4,140.8,4.2,140.6,4.1z
	 M155.5,18.1c0,0,0.1,0,0.1,0l2.3-0.3h-2.9l0.1,0C155.2,17.9,155.4,18,155.5,18.1z M155.2,20.1c-0.5,1.7-1.3,3.3-2.7,4.4
	c-0.2,0.2-0.6,0.2-0.9,0.1l-2.2-1.4c-0.2-0.1-0.3-0.3-0.3-0.6c0-0.2,0.1-0.5,0.3-0.6c0.7-0.6,1.3-1.4,1.7-2.4c0,0,0,0-0.1,0l0,0
	c-0.2,0.1-0.4,0.1-0.6,0c-0.2-0.1-0.4-0.2-0.4-0.4c-0.3-0.7-1-1.8-1.4-2.4c-0.1-0.2-0.2-0.4-0.1-0.6c0.1-0.2,0.2-0.4,0.4-0.5
	c3.4-1.5,6-4,8.1-6.8h-6.3c-0.4,0-0.8-0.3-0.8-0.8V5.8c0-0.4,0.3-0.8,0.8-0.8h2.9c-0.3-0.6-0.7-1.3-1-1.9c-0.1-0.2-0.1-0.4-0.1-0.6
	c0.1-0.2,0.2-0.4,0.4-0.5l2.5-1c0.3-0.1,0.7,0,0.9,0.3c0.8,1.1,1.6,2.6,1.9,3.7h1.1c0.6-1.2,1-2.4,1.4-3.6c0.1-0.4,0.5-0.6,0.9-0.5
	l2.9,0.8c0.2,0.1,0.4,0.2,0.5,0.4c0.1,0.2,0.1,0.4,0,0.6c-0.3,0.8-0.6,1.5-0.9,2.3h3.5c0.2,0,0.4,0.1,0.6,0.3
	c0.1,0.2,0.2,0.4,0.2,0.6c-0.2,1.1-0.5,2.4-0.7,3.5h1.8c0.2,0,0.4,0.1,0.6,0.3c0.1,0.2,0.2,0.4,0.2,0.6c-0.2,1.1-0.4,2.4-0.7,3.5
	h1.6c0.2,0,0.4,0.1,0.5,0.2c0.1,0.2,0.2,0.4,0.2,0.6l-0.1,1.1l0,0c-0.2,2.3-0.4,4-0.7,5.3c-0.2,1.2-0.6,2.1-1.1,2.6
	c-0.3,0.4-0.7,0.6-1.1,0.8c-0.4,0.2-0.8,0.3-1.2,0.3l0,0c-0.7,0.1-1.8,0.1-3,0.1c-0.4,0-0.7-0.3-0.7-0.7c0-0.7-0.3-1.6-0.6-2.2
	c0,0.4-0.2,0.7-0.6,0.8l-2.3,0.6c-0.2,0.1-0.4,0-0.6-0.1c-0.2-0.1-0.3-0.3-0.3-0.5c-0.1-0.5-0.2-1.3-0.5-2c0.1,0.8,0.2,1.7,0.2,2.3
	c0,0.4-0.3,0.7-0.7,0.7l-2.5,0.3c-0.2,0-0.4,0-0.6-0.2c-0.2-0.2-0.2-0.4-0.2-0.6C155.5,22.4,155.4,21.2,155.2,20.1z M158.7,18.2
	c0.1-0.2,0.3-0.3,0.5-0.4l0.2-0.1h-1.3C158.4,17.8,158.6,18,158.7,18.2z M163,20.1c0.1,0.4,0.2,0.8,0.3,1.2c0-0.1,0-0.1,0.1-0.2
	C163.3,20.8,163.2,20.4,163,20.1z M164.5,22.3c0.2,0.6,0.4,1.2,0.4,1.7c1.2,0,2.2,0,2.9,0c0.7-0.1,1.3-0.3,1.8-0.9
	c0.7-0.8,1.2-2.8,1.6-7.4l0.1-1.1h-2.6c0.1-0.2,0.1-0.5,0.2-0.8c0.2-0.9,0.4-1.9,0.6-2.9c0-0.3,0.1-0.5,0.1-0.8h-2.7
	c0.1-0.2,0.1-0.5,0.2-0.8c0.2-0.9,0.4-1.9,0.6-2.9c0-0.3,0.1-0.5,0.1-0.8h-4.7c0.1-0.2,0.2-0.5,0.3-0.8c0.3-0.6,0.5-1.2,0.8-1.9
	c0.1-0.2,0.2-0.5,0.3-0.7l-2.9-0.8c-0.4,1.4-1,2.8-1.7,4.1h-3.5l1.2-0.5c0-0.1-0.1-0.2-0.1-0.2c-0.4-1-1.1-2.3-1.8-3.3l-2.5,1
	c0.1,0.2,0.3,0.4,0.4,0.7c0.3,0.5,0.6,1.1,0.8,1.6c0.1,0.3,0.2,0.5,0.3,0.8h-4v2.5h7.7c-0.2,0.3-0.3,0.5-0.5,0.8
	c-2,2.9-4.7,5.5-8,7.1c-0.2,0.1-0.5,0.2-0.7,0.3c0.1,0.2,0.3,0.4,0.4,0.6c0.2,0.4,0.5,0.8,0.7,1.2c0.1,0.2,0.2,0.5,0.3,0.7
	c0.2-0.1,0.4-0.2,0.7-0.3c0.1,0,0.1-0.1,0.2-0.1c0.2-0.1,0.4-0.2,0.6-0.3c0.1-0.1,0.2-0.1,0.4-0.2c0,0.2-0.1,0.3-0.1,0.5
	c-0.1,0.2-0.1,0.4-0.2,0.6c-0.4,1.1-1,2.1-1.7,2.9c-0.2,0.2-0.4,0.4-0.6,0.5l2.2,1.4c1.5-1.3,2.3-3.4,2.8-5.4l-2.2-0.7
	c0.1-0.1,0.2-0.2,0.4-0.2c0.2-0.1,0.3-0.2,0.4-0.3c0.1-0.1,0.3-0.2,0.4-0.3h14.3c0,0.3-0.1,0.5-0.1,0.8c-0.3,2.2-0.6,3.2-0.9,3.6
	c-0.2,0.2-0.5,0.3-0.8,0.3c-0.2,0-0.4,0-0.7,0c-0.2,0-0.4,0-0.7,0c-0.2,0-0.4,0-0.6-0.1c-0.1,0-0.2,0-0.3,0c0.1,0.2,0.2,0.4,0.3,0.6
	C164.4,22.1,164.4,22.2,164.5,22.3z M166.4,20.6c-0.2-0.8-0.7-1.9-1.3-2.8c-0.1-0.1-0.2-0.3-0.3-0.4l-2,0.7c0.1,0.2,0.2,0.4,0.4,0.7
	c0.3,0.6,0.6,1.3,0.8,1.9c0,0.1,0,0.1,0.1,0.2c0,0,0,0.1,0,0.1c0,0.1,0.1,0.3,0.1,0.4L166.4,20.6z M165.9,17.8
	c0.4,0.7,0.8,1.5,1,2.2c0,0,0,0,0-0.1c0.1-0.5,0.2-1.2,0.3-2.1H165.9z M156.2,23.2l2.5-0.3c0-1.2-0.2-3-0.6-4.4l-2.3,0.3
	c0.1,0.2,0.1,0.5,0.2,0.7c0.2,1,0.3,2.1,0.3,2.9C156.2,22.8,156.2,23,156.2,23.2z M160.4,22.6l2.3-0.6c-0.2-1.1-0.6-2.7-1.2-3.9
	l-2.2,0.5c0.1,0.2,0.2,0.5,0.3,0.7c0.3,0.8,0.6,1.8,0.7,2.5C160.4,22.1,160.4,22.3,160.4,22.6z M166.4,12.6h-7.8
	c-0.3,0.4-0.7,0.8-1.1,1.2c-0.2,0.3-0.5,0.5-0.7,0.8h9.2c0.1-0.4,0.2-0.8,0.3-1.2C166.3,13.1,166.4,12.9,166.4,12.6z M165.5,13.4
	H159c-0.1,0.1-0.3,0.3-0.4,0.4h6.8C165.4,13.7,165.4,13.5,165.5,13.4z M164.5,8.3h-2.9c-0.2,0.4-0.4,0.8-0.7,1.1
	c-0.2,0.3-0.3,0.5-0.5,0.8h3.7c0.1-0.4,0.2-0.7,0.3-1.1C164.4,8.8,164.5,8.5,164.5,8.3z M163.6,9H162c-0.1,0.1-0.2,0.3-0.2,0.4h1.7
	C163.6,9.3,163.6,9.2,163.6,9z M185.8,13.1V14l3,0c-0.1,0-0.1-0.1-0.2-0.1c-0.1,0-0.1-0.1-0.2-0.1c0,0-0.1,0-0.1,0
	c-0.2-0.1-0.3-0.1-0.5-0.2l0.5-0.4H185.8z M195.4,16c0.4,0,0.8,0.3,0.8,0.7V19c0,0.4-0.3,0.8-0.8,0.8h-4.6v1.6
	c0,0.7-0.1,1.3-0.3,1.9c-0.3,0.6-0.8,1-1.4,1.2l0,0c-1.1,0.4-2.6,0.4-4.4,0.4c-0.4,0-0.7-0.3-0.7-0.6c-0.1-0.6-0.4-1.5-0.7-2.2
	l-1.8,1.6c-0.2,0.1-0.4,0.2-0.6,0.2c-0.2,0-0.4-0.1-0.5-0.3c-0.6-0.8-2.1-2.1-3.4-3c-0.2-0.1-0.3-0.3-0.3-0.6c0,0,0-0.1,0-0.1h-3
	c-0.4,0-0.8-0.3-0.8-0.8v-2.3c0-0.4,0.3-0.7,0.8-0.7h0.3l-0.1-2c0-0.2,0.1-0.4,0.2-0.6c0.1-0.1,0.3-0.2,0.5-0.2c0.3,0,0.5,0,0.8,0
	c0,0,0-0.1,0-0.1V6.2c0,0,0-0.1,0-0.1h-1.2c-0.4,0-0.8-0.3-0.8-0.8V3.2c0-0.4,0.3-0.8,0.8-0.8h8.1V1.7c0-0.4,0.3-0.7,0.8-0.7h2.8
	c0.4,0,0.8,0.3,0.8,0.7v0.8h8c0.4,0,0.8,0.3,0.8,0.8v2.2c0,0.4-0.3,0.8-0.8,0.8h-0.8c0,0,0,0.1,0,0.1v6.9c0,0.2,0,0.3-0.1,0.4
	c0.5,0.3,0.9,0.6,1.3,0.9c0.2,0.1,0.3,0.4,0.3,0.6c0,0.2-0.1,0.4-0.3,0.6l-0.4,0.4H195.4z M192.8,16.5
	C192.8,16.5,192.8,16.5,192.8,16.5c-0.3-0.2-0.5-0.4-0.7-0.5c-0.1-0.1-0.2-0.2-0.4-0.3l-1.8,0v1h5.4V19h-5.4v2.3
	c0,1.3-0.2,2-1.2,2.4c-1,0.4-2.3,0.4-4.1,0.4c-0.1-0.5-0.3-1.2-0.5-1.7c-0.1-0.3-0.2-0.5-0.3-0.8c0.3,0,0.6,0,0.8,0
	c0.9,0,1.8,0,2.1,0c0.4,0,0.5-0.1,0.5-0.4V19h-6.8c0.3,0.2,0.7,0.5,1,0.8c0.4,0.3,0.7,0.6,1.1,0.9c0.2,0.2,0.3,0.3,0.5,0.5
	c0,0,0,0,0,0.1L181,23c-0.1-0.2-0.3-0.4-0.5-0.6c-0.7-0.7-1.6-1.5-2.5-2.2c-0.2-0.2-0.4-0.3-0.6-0.5l1-0.8h-4.8v-2.3h13.7v-0.9
	c-0.3,0-0.5,0-0.8,0c-2.5,0-4.9,0.1-7.1,0.1c-1.8,0-3.4,0-4.8,0.1l-0.1-2c0.2,0,0.5,0,0.8,0c1.3,0,2.8,0,4.4,0c1,0,2.1,0,3.3,0v-0.9
	h-6.9V6.2h6.9V5.4h-8.8V3.2h8.8V1.7h2.8v1.5h8.8v2.2h-8.8v0.9h7.2v6.9h-1.6c0.5,0.2,0.9,0.5,1.3,0.8c0.4,0.2,0.8,0.5,1.1,0.7
	c0.2,0.2,0.4,0.3,0.6,0.4L192.8,16.5z M182.7,19.8c0.4,0.3,0.7,0.7,1,1c0,0,0.1,0.1,0.1,0.1c0.1,0,0.1,0,0.2,0c1,0,2.1,0,2.6,0v-1.1
	H182.7z M202.9,19.4h-4.9c-0.4,0-0.8-0.3-0.8-0.8v-2.4c0-0.4,0.3-0.8,0.8-0.8h1.5c0-0.1-0.1-0.2-0.1-0.3v-2.1c0-0.1,0-0.2,0.1-0.3
	h-0.5c-0.4,0-0.8-0.3-0.8-0.8V9.9c0-0.4,0.3-0.8,0.8-0.8h3.2c-0.1-0.2-0.2-0.4-0.3-0.6H198c-0.4,0-0.8-0.3-0.8-0.8V5.6
	c0-0.4,0.3-0.8,0.8-0.8h2.1c-0.3-0.6-0.7-1.3-1-1.8c-0.1-0.2-0.1-0.4-0.1-0.6c0.1-0.2,0.2-0.4,0.5-0.5l2.4-0.8
	c0.3-0.1,0.7,0,0.8,0.3c0.5,0.7,1.1,1.7,1.5,2.6V1.7c0-0.4,0.3-0.7,0.8-0.7h2.6c0.4,0,0.8,0.3,0.8,0.7v3.2h0.3V1.7
	c0-0.4,0.3-0.7,0.8-0.7h2.7c0.4,0,0.8,0.3,0.8,0.7v3c0.5-0.9,1.1-2.2,1.3-3.1c0.1-0.4,0.5-0.6,0.9-0.5l3,0.7
	c0.2,0.1,0.4,0.2,0.5,0.4c0.1,0.2,0.1,0.5-0.1,0.7c-0.1,0.1-0.1,0.2-0.2,0.3c-0.3,0.5-0.7,1.1-1,1.6h1.7c0.4,0,0.8,0.3,0.8,0.8v2.2
	c0,0.4-0.3,0.8-0.8,0.8h-3.4c0,0.1-0.1,0.2-0.2,0.3c-0.1,0.1-0.2,0.2-0.3,0.3h2.9c0.4,0,0.8,0.3,0.8,0.8v2.2c0,0.4-0.3,0.8-0.8,0.8
	h-0.5c0,0.1,0.1,0.2,0.1,0.3v2.1c0,0.1,0,0.2-0.1,0.3h1.4c0.4,0,0.8,0.3,0.8,0.8v2.4c0,0.4-0.3,0.8-0.8,0.8h-4
	c1.6,0.6,3.3,1.4,4.3,1.9c0.2,0.1,0.4,0.3,0.4,0.6c0,0.3-0.1,0.5-0.3,0.7l-2,1.6c-0.2,0.2-0.6,0.2-0.8,0.1c-1.3-0.8-4.1-2-6.1-2.9
	v2.8c0,0.4-0.3,0.8-0.8,0.8h-2.8c-0.4,0-0.8-0.3-0.8-0.8v-2.7c-1.8,1.3-4.4,2.3-6.6,2.8c-0.3,0.1-0.6-0.1-0.8-0.3
	c-0.3-0.5-1-1.4-1.5-1.9c-0.2-0.2-0.3-0.5-0.2-0.8c0.1-0.3,0.3-0.5,0.6-0.5C199.5,20.5,201.4,20,202.9,19.4z M206.3,19.4l-0.1-0.1
	L206.3,19.4L206.3,19.4z M207.1,24.1h2.8v-5.5h9.3v-2.4h-9.3v-1.1h7.2v-2.1h-7.2v-1.1h8.3V9.9h-4.6c0.2-0.2,0.5-0.5,0.7-0.8
	c0.1-0.1,0.1-0.1,0.2-0.2c0.1-0.1,0.3-0.3,0.4-0.5c0.1-0.1,0.1-0.1,0.2-0.2l-2.3-0.6h6.3V5.6H216c0.2-0.2,0.3-0.5,0.5-0.8
	c0.3-0.5,0.7-1,1-1.6c0.1-0.1,0.2-0.3,0.2-0.4c0.1-0.1,0.1-0.2,0.2-0.3l-3-0.7c-0.3,0.8-0.7,1.9-1.2,2.8c0,0.1-0.1,0.1-0.1,0.2
	c-0.1,0.2-0.2,0.3-0.3,0.5l0.9,0.3h-2.1V1.7h-2.7v3.9h-1.8V1.7H205v3.9h-2.2l1.2-0.4c0-0.1-0.1-0.2-0.1-0.3c0,0,0,0,0,0
	c0-0.1-0.1-0.2-0.2-0.4c-0.4-0.9-1-1.9-1.5-2.7l-2.4,0.8c0.1,0.2,0.3,0.4,0.4,0.7c0.3,0.5,0.6,1.1,0.8,1.6c0.1,0.3,0.2,0.5,0.3,0.8
	H198v2.2h6.1l-1.6,0.4c0.1,0.1,0.1,0.3,0.2,0.4c0.1,0.1,0.1,0.2,0.2,0.3c0.1,0.1,0.1,0.2,0.2,0.3c0.1,0.3,0.2,0.5,0.3,0.8h-4.4v2.2
	h8.1v1.1h-6.9v2.1h6.9v1.1h-9.1v2.4h9.1V24.1z M211,9.2c0-0.1,0.1-0.1,0.1-0.2c0.1-0.1,0.2-0.3,0.3-0.5c0.2-0.3,0.3-0.5,0.5-0.8
	h-6.6c0.2,0.2,0.3,0.5,0.4,0.8c0.1,0.1,0.1,0.2,0.2,0.4c0,0.1,0.1,0.2,0.1,0.3c0.1,0.2,0.1,0.3,0.2,0.4L205,9.9h6.6l-0.9-0.3
	l0.1-0.1C210.9,9.5,210.9,9.3,211,9.2z M210.1,9.2h-3.2c-0.1-0.2-0.2-0.4-0.3-0.6h3.9C210.4,8.8,210.3,9,210.1,9.2L210.1,9.2z
	 M211.4,19.4h-0.7v0.5L211.4,19.4z M206.5,20.3c-0.1,0-0.1,0.1-0.2,0.1c-0.2,0.1-0.3,0.3-0.5,0.4c-1.7,1.2-4.1,2.2-6.3,2.7
	c-0.2-0.4-0.6-0.9-1-1.4c-0.2-0.2-0.4-0.5-0.6-0.7c0.3,0,0.6-0.1,0.9-0.1c2.2-0.4,4.5-1.1,5.7-1.9L206.5,20.3z M213.1,19.4
	c-0.1,0-0.2-0.1-0.3-0.1l-1.9,1.3c0.3,0.1,0.5,0.2,0.8,0.3c1.9,0.8,4.2,1.9,5.4,2.6l2-1.6c-0.2-0.1-0.5-0.2-0.8-0.4
	C216.9,20.9,214.7,20,213.1,19.4z M228.8,21v-5.5h-6.5v6.3h2.3V21H228.8z M225.4,21.8h1.3c0,0.1,0,0.2,0.1,0.3
	c0.3,0.6,0.6,1.3,0.7,1.8c0.1,0.4,0.4,0.6,0.7,0.6c1.5,0,2.7,0,3.6-0.4l0,0c0.3-0.1,0.5-0.3,0.8-0.5c0.2,0.3,0.4,0.6,0.6,0.8
	c0.1,0.2,0.3,0.3,0.5,0.4c0.2,0,0.5,0,0.6-0.2c1.8-1.6,3.1-3.3,4-5.2c0.9,1.9,2.2,3.5,3.8,5c0.2,0.2,0.4,0.2,0.7,0.2
	c0.2-0.1,0.4-0.2,0.5-0.4c0.3-0.6,0.9-1.4,1.6-1.8c0.2-0.1,0.3-0.4,0.3-0.6c0-0.2-0.1-0.5-0.3-0.6c-2.6-2.1-3.9-4.6-4.9-8.9
	c0,0,0,0,0,0l2.2,0.6c0.4,0.1,0.8-0.1,0.9-0.5c0.5-1.8,1.1-4.5,1.5-6.9c0.1-0.4-0.2-0.7-0.5-0.8l-1.9-0.5c-0.1,0-0.3,0-0.4,0
	l-0.3,0.1h-3.3c0.2-0.7,0.3-1.4,0.4-2.2c0.1-0.4-0.2-0.8-0.6-0.9l-2.7-0.5c-0.2,0-0.4,0-0.6,0.1c-0.2,0.1-0.3,0.3-0.3,0.5
	c0,0.2,0,0.3-0.1,0.5c-0.1-0.1-0.3-0.2-0.5-0.2h-12.2c-0.4,0-0.8,0.3-0.8,0.8V5c0,0.4,0.3,0.8,0.8,0.8h0.2c0,0.1,0,0.1,0,0.2v5.3
	c0,0.1,0,0.1,0,0.2h-0.4c-0.4,0-0.8,0.3-0.8,0.8v2.4c0,0.4,0.3,0.8,0.8,0.8h0.3c0,0.1,0,0.2,0,0.2v6.3c0,0.4,0.3,0.8,0.8,0.8h2.3
	C225,22.6,225.4,22.3,225.4,21.8L225.4,21.8z M234.5,4.9c0,0,0,0.1,0,0.1c0,0.1-0.1,0.3-0.1,0.4c-0.3,1.3-0.8,2.6-1.3,3.6
	c-0.2,0.4-0.4,0.7-0.5,1c-0.1,0.1-0.1,0.2-0.2,0.3V5h1.4V2.6h-12.2V5h8.3v7.2h-8.6v2.4h8.7v6.9c0,0.3-0.1,0.3-0.4,0.4
	c-0.2,0-0.7,0-1.4,0c-0.2,0-0.5,0-0.7,0c0,0-0.1,0-0.1,0c0,0,0,0,0,0c0.1,0.2,0.2,0.5,0.4,0.8c0.2,0.4,0.3,0.9,0.4,1.2
	c1.5,0,2.6,0,3.4-0.3c0.2-0.1,0.4-0.2,0.5-0.3c0.2-0.2,0.3-0.4,0.4-0.7c0.2,0.2,0.4,0.4,0.6,0.6c0.1,0.1,0.2,0.3,0.4,0.4
	c0.2,0.2,0.3,0.4,0.4,0.6c0.2-0.2,0.4-0.3,0.6-0.5c1.6-1.5,2.7-3.2,3.5-5c0.1-0.3,0.3-0.7,0.4-1c0.1,0.4,0.3,0.7,0.4,1
	c0.8,1.9,1.9,3.4,3.4,4.8c0.2,0.2,0.4,0.4,0.6,0.5c0.1-0.2,0.2-0.4,0.4-0.7c0.2-0.3,0.5-0.7,0.8-1c0.2-0.2,0.4-0.3,0.6-0.5
	c-0.2-0.2-0.4-0.3-0.6-0.5c-2.4-2.2-3.7-4.9-4.6-9.1l0-0.2c0-0.5,0-1,0-1.5V8.8h-2.5v1.8c0,2.7-0.4,6.9-3.4,10.3
	c-0.2,0.2-0.4,0.4-0.6,0.7c0,0-0.1,0.1-0.1,0.1v-7.1h2.2v-2.4h-0.2c0.1-0.1,0.1-0.2,0.2-0.3c0,0,0,0,0,0c0.1-0.1,0.1-0.2,0.2-0.3
	c0,0,0-0.1,0.1-0.1c0.3-0.6,0.6-1.3,0.9-2c0.1-0.2,0.2-0.4,0.2-0.6c0.1-0.2,0.2-0.5,0.2-0.7c0-0.1,0.1-0.3,0.1-0.4h4.4
	c0,0.3-0.1,0.5-0.1,0.8c-0.2,1.3-0.4,2.5-0.6,3.4c0,0,0,0,0,0l2.2,0.6c0.1-0.2,0.1-0.4,0.2-0.7c0,0,0,0,0,0c0.5-1.7,1-4.1,1.3-6.1
	L242,5l-0.4,0.1h-4.4c0.1-0.2,0.1-0.5,0.2-0.8c0.1-0.5,0.2-1,0.3-1.6c0-0.1,0-0.1,0-0.2c0-0.2,0.1-0.4,0.1-0.6l-2.7-0.5
	c0,0.2-0.1,0.5-0.1,0.7C234.9,3.2,234.7,4.1,234.5,4.9z M233.4,11.4c-0.1-0.1-0.2-0.1-0.3-0.2c-0.1-0.1-0.2-0.1-0.3-0.2
	c-0.1-0.1-0.3-0.2-0.4-0.2v1.3h2.1c-0.2-0.1-0.4-0.3-0.6-0.4C233.8,11.6,233.6,11.5,233.4,11.4z M240.1,8.4h-0.2
	c0.1,0.1,0.1,0.2,0.1,0.4v0.1C240,8.7,240,8.6,240.1,8.4z M235.9,11.2c-0.1,0.3-0.3,0.5-0.4,0.8c0,0,0,0.1,0,0.1v2.4
	c0,0.4-0.3,0.8-0.8,0.8h-1.5v4.4C235.4,16.9,235.9,13.7,235.9,11.2z M233.5,5.7h-0.4V7C233.3,6.6,233.4,6.2,233.5,5.7z M225.8,18.3
	L225.8,18.3l-0.4-0.1v0.1H225.8z M225.2,8.6h0.3V8.5L225.2,8.6L225.2,8.6z M222.4,11.2V5.9h6v5.3H222.4z M267.5,13.2
	c0.4,0,0.8,0.3,0.8,0.8v2.8c0,0.4-0.3,0.8-0.8,0.8 M264.5,4.2c-2,0.5-4.2,0.8-6.5,1.1v3.1h8.1v2.7H258V14h0.8 M267.5,14.7V14V14.7z
	 M267.5,13.2h-8.7H267.5z M258.8,13.2v-1.3h7.3c0.4,0,0.8-0.3,0.8-0.8V8.4c0-0.4-0.3-0.8-0.8-0.8h-7.3V5.9c2.4-0.3,4.7-0.7,6.7-1.2
	c0.3-0.1,0.5-0.3,0.5-0.5c0.1-0.2,0-0.5-0.1-0.7l-2.1-2.4c-0.2-0.2-0.5-0.3-0.8-0.2c-3.9,1-10.4,1.7-16.1,1.9
	c-0.2,0-0.5,0.1-0.6,0.4c-0.1,0.2-0.1,0.5,0,0.7c0.3,0.6,0.6,1.6,0.7,2.3c0,0.4,0.4,0.7,0.8,0.7c2.1-0.1,4.3-0.2,6.6-0.4v1.2h-7.1
	c-0.4,0-0.8,0.3-0.8,0.8v2.7c0,0.4,0.3,0.8,0.8,0.8h7.1v1.3h-8.7c-0.4,0-0.8,0.3-0.8,0.8v2.8c0,0.4,0.3,0.8,0.8,0.8h8.7v3
	c0,0,0,0,0,0c-0.6,0-2.5,0-4.3-0.1c-0.3,0-0.5,0.1-0.7,0.4c-0.1,0.2-0.1,0.5,0,0.8c0.4,0.7,0.9,1.9,1.1,2.6c0.1,0.3,0.4,0.6,0.7,0.6
	c2.4,0,4.3,0,5.6-0.5l0,0 M254.3,21.3c-0.5,0-2.5,0-4.3-0.1L254.3,21.3z M249.9,21.2c0.5,0.8,1,2,1.2,2.8L249.9,21.2z M251.1,24
	c2.4,0,4.2,0,5.3-0.5c1.1-0.5,1.6-1.2,1.6-2.9 M254.3,21.3c0.6,0,0.8-0.2,0.8-0.7v-3.9h-9.5V14h9.5v-2.8h-7.8V8.4h7.8V5.6
	c-0.2,0-0.5,0-0.8,0.1c-2.2,0.2-4.5,0.3-6.6,0.4c0-0.5-0.2-1.2-0.4-1.8c-0.1-0.3-0.2-0.5-0.3-0.7c0.3,0,0.5,0,0.8,0
	c5.6-0.3,11.7-0.9,15.5-1.9l2.1,2.4c-0.3,0.1-0.5,0.1-0.8,0.2 M71.1,6.1V4.7h-5.7v1.4H71.1z M71.1,9.6V8.1h-5.7v1.5H71.1z M58.4,6.4
	h-1.7v8.8h1.7V6.4z M64.8,20.8h7v-1.6h-7V20.8z M71.8,15.4h-7v1.5h7V15.4z M82.5,17.5h-1.9v1.6h1.9V17.5z M82.3,9.3V7.7h-1.8v1.6
	H82.3z M115.3,12.1v1.4h4.4v-1.4H115.3z M115.3,8.6V10h4.4V8.6H115.3z M115.3,5.1v1.4h4.4V5.1H115.3z M178.8,11.4h4.2v-0.9h-4.2
	V11.4z M178.8,8v0.9h4.2V8H178.8z M190.3,8h-4.5v0.9h4.5V8z M185.8,11.4h4.5v-0.9h-4.5V11.4z M226.5,17.5h-1.9v1.6h1.9V17.5z
	 M226.3,9.3V7.7h-1.8v1.6H226.3z"/>
<path class="st1" d="M18,47.5v5H0l0-5H18z"/>
<path class="st1" d="M296,47.5v5h-18v-5H296z"/>
<path class="st0" d="M296,50H0v-1h296V50z"/>
</svg>
