<svg width="153" height="153" viewBox="0 0 153 153" fill="none" xmlns="http://www.w3.org/2000/svg">
<path d="M76.5 152C118.198 152 152 118.198 152 76.5C152 34.8025 118.198 1 76.5 1C34.8025 1 1 34.8025 1 76.5C1 118.198 34.8025 152 76.5 152Z" fill="#00E0B8" stroke="#00E0B8" stroke-width="2" stroke-miterlimit="10"/>
<path d="M76.5 147C115.436 147 147 115.436 147 76.5C147 37.5639 115.436 6 76.5 6C37.5639 6 6 37.5639 6 76.5C6 115.436 37.5639 147 76.5 147Z" stroke="white" stroke-miterlimit="10"/>
<path d="M16.876 89.7025C16.2934 89.8514 15.6862 89.8778 15.0928 89.7803C14.4994 89.6827 13.9328 89.4633 13.4285 89.1357C12.9243 88.8081 12.4934 88.3796 12.163 87.8771C11.8327 87.3746 11.6101 86.809 11.5093 86.2162C11.4277 85.7072 11.4501 85.1869 11.5751 84.6868C11.7001 84.1867 11.9252 83.7171 12.2368 83.3063L13.7878 84.2123C13.4227 84.684 13.2599 85.2813 13.3349 85.873C13.527 87.026 14.7073 87.8084 16.4505 87.5202C18.1936 87.232 19.1956 86.2436 18.9211 84.9946C18.8599 84.6689 18.7304 84.3599 18.5411 84.0878C18.3519 83.8157 18.1071 83.5869 17.823 83.4163L18.9898 82.0437C19.4769 82.3348 19.8909 82.7335 20.2002 83.2093C20.5095 83.6851 20.7057 84.2255 20.7741 84.7888C20.8897 85.374 20.8768 85.9772 20.7364 86.557C20.5959 87.1367 20.3312 87.679 19.9604 88.1463C19.5897 88.6137 19.122 88.9949 18.5894 89.2635C18.0568 89.5322 17.4722 89.682 16.876 89.7025Z" fill="white"/>
<path d="M20.1015 72.8338L16.8623 74.3848V75.4279L20.0328 75.5377L19.9643 77.7201L10.9192 77.377L11.0427 74.0691C11.1113 72.1338 11.8251 70.5553 14.0212 70.6377C14.5616 70.6304 15.0921 70.7828 15.5462 71.0758C16.0004 71.3688 16.358 71.7893 16.5741 72.2847L20.225 70.4043L20.1015 72.8338ZM15.1191 75.3592V74.3848C15.1191 73.3553 14.7348 72.7927 13.8838 72.7652C13.0328 72.7378 12.7309 73.2731 12.6897 74.3025V75.277L15.1191 75.3592Z" fill="white"/>
<path d="M12.0583 64.2277L13.3622 58.6415L15.1191 59.0533L14.3094 62.5258L15.9426 62.8964L16.6289 59.9591L18.3996 60.3709L17.7133 63.322L19.58 63.7611L20.4309 60.165L22.2016 60.5768L20.829 66.2866L12.0583 64.2277Z" fill="white"/>
<path d="M23.5467 51.4218L22.4486 53.8513L24.137 55.2239L23.231 57.2415L16.1211 50.9827L17.1917 48.6218L26.58 49.7474L25.6467 51.8337L23.5467 51.4218ZM21.8447 51.1062L21.0623 50.969C20.1427 50.8317 19.0585 50.5984 18.1251 50.4474C18.9075 51.0376 19.7722 51.6826 20.4996 52.2591L21.1172 52.7532L21.8447 51.1062Z" fill="white"/>
<path d="M23.0114 41.8139L21.6389 43.8315L20.1428 42.8296L24.0958 36.9688L25.5918 37.9707L24.2193 40.0022L30.2311 44.0512L29.0095 45.8629L23.0114 41.8139Z" fill="white"/>
<path d="M27.9388 32.4531L31.933 28.3354L33.2233 29.5844L30.7389 32.1373L31.9468 33.3041L34.0468 31.1354L35.4194 32.3982L33.3056 34.5668L34.6782 35.9393L37.2448 33.2904L38.6174 34.553L34.4997 38.7669L27.9388 32.4531Z" fill="white"/>
<path d="M44.3547 24.3962C42.9821 21.7746 43.6684 19.5099 45.8507 18.3569C48.0331 17.204 50.2978 17.9176 51.6841 20.5255C53.0704 23.1334 52.4115 25.5078 50.2291 26.6471C48.0468 27.7863 45.741 27.0178 44.3547 24.3962ZM49.7213 21.5686C48.9115 20.0177 47.7723 19.4549 46.7155 20.0039C45.6586 20.5529 45.5076 21.8158 46.3174 23.3668C47.1272 24.9178 48.3077 25.5491 49.3508 25C50.394 24.451 50.5448 23.1196 49.7213 21.5686V21.5686Z" fill="white"/>
<path d="M54.8959 14.3627L57.0509 13.8137L58.6294 17.6569L59.6861 20.402C59.6037 19.4412 59.5488 18.453 59.4939 17.4922L59.3704 13.2783L61.1273 12.8255L63.0627 16.5863C63.4745 17.4373 63.8725 18.3295 64.2843 19.2354C64.147 18.2609 64.0372 17.2999 63.9137 16.3666L63.4606 12.2489L65.4509 11.7411L66.1784 20.8824L63.5293 21.5549L61.7587 17.9451C61.443 17.3137 61.1548 16.5725 60.9077 15.996C60.9077 16.6823 61.045 17.3686 61.0861 18.1235L61.292 22.1315L58.6979 22.7903L54.8959 14.3627Z" fill="white"/>
<path d="M71.6276 11.041H73.8374L76.1706 15.3234L77.0903 17.3137C76.9038 16.2148 76.7846 15.1055 76.7334 13.9921V11H78.7923L78.9707 20.0314H76.7609L74.4412 15.7215L73.508 13.7589C73.6815 14.8637 73.796 15.977 73.8511 17.0941V20.1001H71.7923L71.6276 11.041Z" fill="white"/>
<path d="M92.4081 12.7568L94.6454 13.4705L94.8238 17.5882C94.8238 18.1372 94.8238 18.7275 94.8238 19.3177C95.1669 18.8373 95.4826 18.3431 95.7983 17.9451L98.31 14.6509L100.561 15.3784L97.8159 23.9844L95.9217 23.3804L96.8689 20.4295C97.1434 19.5785 97.7199 18.3432 98.0905 17.5334L96.7179 19.3589L94.5629 22.104L93.4238 21.7334L93.2591 18.2197V15.9275C93.0842 16.9636 92.8551 17.9899 92.5728 19.002L91.6256 21.953L89.7727 21.3628L92.4081 12.7568Z" fill="white"/>
<path d="M104.363 22.3784L106.806 18.2607L108.673 19.3589L106.106 23.6825C105.228 25.1511 105.365 25.9335 106.216 26.4276C107.067 26.9217 107.836 26.6884 108.714 25.2197L111.281 20.8961L113.079 21.9668L110.636 26.0844C109.071 28.706 107.328 29.2687 105.255 28.0334C103.183 26.7981 102.812 25 104.363 22.3784Z" fill="white"/>
<path d="M112.571 31.4238L114.479 31.1354C114.57 31.9462 114.927 32.7041 115.494 33.2904C116.085 33.8257 116.579 33.853 116.867 33.4962C117.155 33.1393 116.963 32.659 116.606 31.8904L116.085 30.751C115.808 30.2735 115.689 29.7212 115.743 29.1721C115.797 28.6229 116.022 28.1046 116.387 27.6903C116.674 27.4159 117.013 27.2022 117.385 27.0616C117.756 26.921 118.152 26.8564 118.549 26.8718C118.946 26.8871 119.336 26.9822 119.695 27.1511C120.055 27.32 120.376 27.5593 120.642 27.855C121.048 28.2167 121.378 28.6553 121.613 29.1453C121.849 29.6353 121.985 30.1671 122.014 30.71L120.298 30.9982C120.211 30.3248 119.89 29.7032 119.393 29.2413C118.885 28.7883 118.404 28.706 118.02 29.0766C117.636 29.4472 118.02 29.9688 118.363 30.7375L118.898 31.8354C119.189 32.3057 119.314 32.8593 119.254 33.4087C119.195 33.9581 118.953 34.4718 118.569 34.8687C118.268 35.1597 117.911 35.3859 117.519 35.5332C117.127 35.6806 116.709 35.746 116.291 35.7254C115.873 35.7048 115.463 35.5987 115.088 35.4136C114.713 35.2285 114.379 34.9683 114.108 34.6492C113.218 33.7988 112.671 32.651 112.571 31.4238V31.4238Z" fill="white"/>
<path d="M126.845 34.512L128.218 36.2139L121.191 41.8963L119.818 40.208L126.845 34.512Z" fill="white"/>
<path d="M127.806 43.3512C128.299 43.0052 128.859 42.7654 129.45 42.6469C130.04 42.5285 130.649 42.534 131.237 42.663C131.826 42.7921 132.381 43.0418 132.867 43.3966C133.354 43.7513 133.762 44.2032 134.065 44.7237C134.317 45.1703 134.476 45.6625 134.535 46.1715C134.594 46.6805 134.551 47.1963 134.408 47.6885L132.638 47.3866C132.811 46.8153 132.752 46.1987 132.473 45.6709C131.897 44.6552 130.51 44.2982 128.973 45.2178C127.436 46.1374 126.914 47.3453 127.601 48.457C127.773 48.7386 128.002 48.9808 128.274 49.1676C128.546 49.3544 128.854 49.4818 129.179 49.5414L128.561 51.2159C128.008 51.1127 127.485 50.888 127.029 50.5581C126.574 50.2282 126.197 49.8012 125.926 49.308C125.627 48.8005 125.438 48.2358 125.371 47.6505C125.304 47.0651 125.361 46.4724 125.539 45.9106C125.716 45.3488 126.01 44.8306 126.4 44.3896C126.791 43.9487 127.27 43.5949 127.806 43.3512V43.3512Z" fill="white"/>
<path d="M133.502 54.51C133.744 54.4329 134.003 54.4287 134.246 54.4978C134.49 54.5668 134.708 54.7062 134.873 54.8984C135.039 55.0906 135.143 55.3272 135.175 55.5786C135.206 55.8301 135.163 56.0853 135.05 56.3123C134.938 56.5394 134.761 56.7282 134.542 56.8553C134.323 56.9825 134.071 57.0422 133.818 57.0271C133.565 57.012 133.322 56.9227 133.119 56.7704C132.917 56.6181 132.764 56.4095 132.679 56.1707C132.621 56.0078 132.596 55.8349 132.607 55.6622C132.617 55.4896 132.662 55.3209 132.739 55.166C132.816 55.011 132.923 54.8732 133.054 54.7605C133.185 54.6478 133.338 54.5626 133.502 54.51V54.51Z" fill="white"/>
<path d="M136.165 63.4592C136.751 63.3127 137.36 63.2892 137.955 63.3902C138.55 63.4912 139.118 63.7145 139.622 64.046C140.126 64.3775 140.557 64.81 140.885 65.3162C141.214 65.8223 141.434 66.3911 141.532 66.9867C141.61 67.4935 141.586 68.0109 141.461 68.5083C141.336 69.0057 141.113 69.473 140.805 69.8827L139.254 68.9632C139.612 68.4937 139.775 67.903 139.706 67.3161C139.514 66.1631 138.334 65.3671 136.591 65.6553C134.848 65.9435 133.914 66.918 134.106 68.167C134.17 68.4919 134.3 68.7999 134.489 69.0716C134.678 69.3434 134.922 69.5729 135.204 69.7455L134.038 71.1181C133.551 70.8269 133.137 70.4282 132.827 69.9524C132.518 69.4766 132.322 68.9363 132.253 68.373C132.149 67.788 132.171 67.1877 132.317 66.6118C132.463 66.036 132.73 65.4977 133.1 65.0329C133.47 64.5681 133.935 64.1875 134.463 63.9162C134.992 63.6448 135.572 63.489 136.165 63.4592Z" fill="white"/>
<path d="M132.885 80.328L136.138 78.7906V77.7338L132.953 77.6102L133.036 75.4416L142.081 75.7985L141.944 79.1064C141.944 81.0417 141.148 82.6201 138.965 82.524C138.425 82.5313 137.894 82.3789 137.44 82.0859C136.986 81.7929 136.628 81.3722 136.412 80.8769L132.761 82.7573L132.885 80.328ZM137.895 77.8024V78.777C137.895 79.8064 138.279 80.3691 139.13 80.4102C139.981 80.4514 140.283 79.9024 140.324 78.873V77.8985L137.895 77.8024Z" fill="white"/>
<path d="M140.914 88.9476L139.542 94.534L137.785 94.1222L138.608 90.6495L136.975 90.2654L136.275 93.2025L134.504 92.7908L135.204 89.8398L133.338 89.4006L132.487 92.9967L130.702 92.5849L132.075 86.8613L140.914 88.9476Z" fill="white"/>
<path d="M129.398 101.74L130.497 99.2967L128.808 97.9242L129.714 95.9066L136.81 102.179L135.753 104.554L126.338 103.401L127.285 101.314L129.398 101.74ZM131.1 102.042L131.869 102.179C132.789 102.33 133.873 102.563 134.82 102.728C134.051 102.138 133.187 101.493 132.459 100.903L131.842 100.422L131.1 102.042Z" fill="white"/>
<path d="M129.879 111.362L131.251 109.344L132.748 110.359L128.767 116.207L127.285 115.191L128.657 113.16L122.673 109.042L123.894 107.244L129.879 111.362Z" fill="white"/>
<path d="M124.979 120.64L120.985 124.758L119.695 123.509L122.165 120.956L120.971 119.789L118.857 121.958L117.485 120.695L119.585 118.526L118.212 117.154L115.645 119.803L114.273 118.54L118.391 114.326L124.979 120.64Z" fill="white"/>
<path d="M108.494 128.683C109.867 131.319 109.167 133.583 106.971 134.722C104.775 135.862 102.524 135.148 101.151 132.54C99.7788 129.932 100.438 127.558 102.62 126.419C104.802 125.279 107.122 126.062 108.494 128.683ZM103.114 131.511C103.924 133.062 105.063 133.638 106.106 133.075C107.149 132.513 107.341 131.277 106.518 129.726C105.694 128.175 104.541 127.517 103.485 128.079C102.428 128.642 102.29 129.946 103.114 131.511Z" fill="white"/>
<path d="M97.912 138.689L95.757 139.238L94.1923 135.368L93.1491 132.622C93.1491 133.597 93.2864 134.585 93.3413 135.532L93.4374 139.76L91.6805 140.199L89.7452 136.438C89.3471 135.587 88.9628 134.681 88.5511 133.789C88.6883 134.75 88.7981 135.711 88.9217 136.644L89.3608 140.762L87.3569 141.27L86.6707 132.115L89.3335 131.442L91.0765 135.066C91.3922 135.697 91.6804 136.438 91.9275 137.015C91.9275 136.328 91.7902 135.642 91.7491 134.887L91.557 130.879L94.1648 130.234L97.912 138.689Z" fill="white"/>
<path d="M81.1804 142.011H78.9569L76.6509 137.715L75.7314 135.724C75.9131 136.833 76.0277 137.951 76.0745 139.073V142.052H74.002L73.8647 133.007H76.0745L78.3804 137.344L79.3 139.307C79.1902 138.305 78.9844 137.056 78.9706 135.971V132.966H81.0295L81.1804 142.011Z" fill="white"/>
<path d="M60.4273 140.172L58.19 139.458L58.0253 135.34C58.0253 134.777 58.0253 134.187 58.0253 133.611C57.6822 134.077 57.3665 134.585 57.0371 134.983L54.5252 138.277L52.288 137.55L55.0331 128.944L56.9272 129.548L55.9802 132.499C55.6252 133.487 55.2127 134.455 54.7449 135.395L56.1175 133.556L58.2862 130.811L59.4254 131.181L59.5763 134.695V136.973C59.7497 135.937 59.9788 134.911 60.2626 133.899L61.2096 130.948L63.0627 131.538L60.4273 140.172Z" fill="white"/>
<path d="M48.4724 130.536L46.0155 134.654L44.1626 133.556L46.7293 129.232C47.6077 127.763 47.4841 126.981 46.6331 126.487C45.7821 125.993 44.9998 126.226 44.1214 127.695L41.5547 132.005L39.7567 130.934L42.2135 126.817C43.7782 124.195 45.5214 123.646 47.594 124.881C49.6665 126.117 50.0372 127.915 48.4724 130.536Z" fill="white"/>
<path d="M40.2919 121.422L38.3842 121.711C38.299 120.894 37.9411 120.13 37.3683 119.542C36.7781 119.007 36.2977 118.979 35.9958 119.336C35.6938 119.693 35.8998 120.187 36.2566 120.956L36.7782 122.081C37.0558 122.561 37.176 123.115 37.1218 123.667C37.0677 124.219 36.8419 124.739 36.4763 125.156C36.187 125.43 35.8456 125.643 35.4725 125.782C35.0994 125.922 34.7022 125.985 34.3042 125.969C33.9062 125.952 33.5156 125.856 33.1555 125.685C32.7953 125.515 32.4731 125.274 32.2076 124.977C31.8017 124.616 31.4713 124.177 31.2357 123.687C31.0001 123.197 30.8641 122.665 30.8351 122.122L32.5508 121.834C32.6436 122.513 32.9684 123.138 33.4703 123.605C33.9644 124.044 34.4448 124.126 34.8429 123.769C35.2409 123.413 34.8429 122.877 34.4997 122.095L33.9644 121.011C33.6794 120.535 33.5586 119.98 33.6206 119.429C33.6826 118.878 33.924 118.363 34.3075 117.963C34.6085 117.673 34.9659 117.446 35.3577 117.299C35.7495 117.152 36.1674 117.086 36.5855 117.107C37.0036 117.128 37.4131 117.234 37.7885 117.419C38.164 117.604 38.4974 117.864 38.7684 118.183C39.6536 119.041 40.1952 120.193 40.2919 121.422V121.422Z" fill="white"/>
<path d="M26.0173 118.307L24.6448 116.605L31.6996 110.95L33.0721 112.652L26.0173 118.307Z" fill="white"/>
<path d="M25.0976 109.467C24.6049 109.811 24.0464 110.049 23.4573 110.166C22.8681 110.283 22.2612 110.277 21.6745 110.148C21.0879 110.019 20.5342 109.77 20.0485 109.417C19.5628 109.063 19.1555 108.613 18.8523 108.095C18.6029 107.645 18.4455 107.15 18.3889 106.639C18.3324 106.127 18.3779 105.61 18.5229 105.116L20.2936 105.432C20.2047 105.714 20.1735 106.012 20.2018 106.307C20.2301 106.601 20.3173 106.887 20.4583 107.148C21.021 108.163 22.4074 108.52 23.9447 107.614C25.4819 106.708 26.0035 105.501 25.3172 104.389C25.1479 104.104 24.9193 103.858 24.647 103.669C24.3747 103.479 24.065 103.35 23.7387 103.291L24.3701 101.63C24.9202 101.731 25.4406 101.956 25.8921 102.286C26.3436 102.616 26.7147 103.044 26.978 103.538C27.2858 104.041 27.482 104.604 27.5532 105.19C27.6243 105.775 27.5689 106.37 27.3906 106.932C27.2123 107.494 26.9153 108.011 26.5197 108.449C26.1241 108.886 25.6391 109.234 25.0976 109.467V109.467Z" fill="white"/>
<path d="M19.5824 97.1098C19.4304 97.1721 19.2672 97.2029 19.1029 97.2005C18.9385 97.1982 18.7764 97.1625 18.6261 97.0959C18.4759 97.0293 18.3408 96.933 18.2287 96.8128C18.1167 96.6926 18.0301 96.5509 17.9741 96.3964C17.8813 96.0815 17.9112 95.7431 18.0581 95.4494C18.2049 95.1558 18.4576 94.9287 18.7653 94.8141C18.9176 94.7536 19.0805 94.7244 19.2443 94.7282C19.408 94.7321 19.5692 94.7691 19.7185 94.8367C19.8677 94.9043 20.0018 95.0011 20.1127 95.1217C20.2236 95.2423 20.309 95.3839 20.364 95.5383C20.4189 95.6926 20.4421 95.8565 20.4324 96.02C20.4226 96.1836 20.3799 96.3435 20.307 96.4901C20.234 96.6368 20.1322 96.7671 20.0077 96.8736C19.8832 96.9801 19.7387 97.0605 19.5824 97.1098V97.1098Z" fill="white"/>
<path d="M68.0001 66.3881C67.5951 66.3881 67.2066 66.5489 66.9202 66.8353C66.6338 67.1217 66.473 67.5102 66.473 67.9152C66.4712 68.1222 66.514 68.327 66.5985 68.516C66.683 68.7049 66.8072 68.8734 66.9627 69.01H69.0518C69.2763 68.8019 69.4323 68.5308 69.4994 68.2321C69.5664 67.9335 69.5414 67.6214 69.4274 67.3374C69.3135 67.0533 69.116 66.8105 68.8612 66.6409C68.6063 66.4714 68.3062 66.3833 68.0001 66.3881V66.3881Z" fill="white"/>
<path d="M65.8247 68.9957L65.7382 66.9932L65.5797 63.1465C65.3519 63.4081 65.0708 63.618 64.7553 63.7621C64.4397 63.9062 64.0969 63.9812 63.7501 63.9821C63.2963 63.9777 62.8526 63.848 62.4678 63.6075L62.2517 69.0676V69.9176H65.911V69.0676L65.8247 68.9957Z" fill="white"/>
<path d="M68.0001 53.6382C67.698 53.6382 67.4027 53.7277 67.1515 53.8955C66.9004 54.0633 66.7047 54.3018 66.5891 54.5808C66.4735 54.8598 66.4433 55.1669 66.5023 55.4631C66.5612 55.7593 66.7065 56.0314 66.9201 56.245C67.1337 56.4586 67.4058 56.6041 67.702 56.663C67.9982 56.7219 68.3054 56.6917 68.5845 56.5761C68.8635 56.4605 69.102 56.2649 69.2698 56.0137C69.4376 55.7626 69.5271 55.4672 69.5271 55.1652C69.5271 54.7602 69.3662 54.3718 69.0799 54.0854C68.7935 53.799 68.4051 53.6382 68.0001 53.6382V53.6382Z" fill="white"/>
<path d="M68.0001 40.874C67.698 40.874 67.4027 40.9635 67.1515 41.1313C66.9004 41.2991 66.7047 41.5376 66.5891 41.8166C66.4735 42.0957 66.4433 42.4027 66.5023 42.6989C66.5612 42.9952 66.7065 43.2673 66.9201 43.4808C67.1337 43.6944 67.4058 43.8399 67.702 43.8988C67.9982 43.9578 68.3054 43.9276 68.5845 43.812C68.8635 43.6964 69.102 43.5007 69.2698 43.2496C69.4376 42.9984 69.5271 42.7031 69.5271 42.401C69.5233 41.9972 69.3612 41.611 69.0756 41.3255C68.7901 41.0399 68.4039 40.8778 68.0001 40.874V40.874Z" fill="white"/>
<path d="M66.6603 37.3587C65.4222 38.8164 64.4868 40.5061 63.9086 42.3291C63.7789 42.7901 63.6348 43.2511 63.534 43.7697C63.4331 44.2884 63.3468 44.7205 63.2892 45.2104C63.2316 45.7002 63.217 46.0604 63.1882 46.4782C63.3701 46.4561 63.5539 46.4561 63.7357 46.4782C64.1379 46.4764 64.5342 46.5753 64.8883 46.7662V45.4119C64.8883 44.9653 64.8882 44.5477 64.9891 44.1155C65.0899 43.6833 65.1476 43.251 65.234 42.8188C65.6243 41.102 66.3541 39.4806 67.3806 38.0502C68.0851 37.0503 68.9405 36.1659 69.9162 35.4282C70.059 34.9807 70.3234 34.5817 70.6798 34.2756C69.157 35.0399 67.7931 36.0861 66.6603 37.3587V37.3587Z" fill="white"/>
<path d="M63.779 63.0601C64.184 63.0601 64.5724 62.8992 64.8588 62.6129C65.1452 62.3265 65.3062 61.9381 65.3062 61.5331C65.3062 61.1281 65.1452 60.7397 64.8588 60.4533C64.5724 60.1669 64.184 60.0059 63.779 60.0059C63.5589 60.0008 63.3406 60.0463 63.1408 60.1387C62.941 60.2311 62.765 60.3679 62.6264 60.5389C62.3795 60.8105 62.2455 61.1661 62.2518 61.5331C62.2556 61.9369 62.4177 62.3232 62.7032 62.6088C62.9888 62.8944 63.3751 63.0563 63.779 63.0601V63.0601Z" fill="white"/>
<path d="M103.973 74.6718H103.051V71.0269C103.051 70.5417 102.859 70.0764 102.515 69.7333C102.172 69.3901 101.707 69.1972 101.222 69.1972C100.736 69.1972 100.271 69.3901 99.9278 69.7333C99.5847 70.0764 99.392 70.5417 99.392 71.0269V73.3608H97.5768V72.4243C97.5768 71.7593 97.3158 71.1208 96.8496 70.6465C96.3834 70.1722 95.7494 69.9002 95.0844 69.8889V47.5587C95.0844 42.6298 93.1264 37.9027 89.6412 34.4174C86.1559 30.9321 81.4288 28.9741 76.4999 28.9741C71.571 28.9741 66.8441 30.9321 63.3588 34.4174C59.8735 37.9027 57.9155 42.6298 57.9155 47.5587V69.8889C57.248 69.8965 56.6104 70.1669 56.1411 70.6416C55.6718 71.1163 55.4086 71.7568 55.4086 72.4243V73.3608H53.6078V71.0269C53.6078 70.5417 53.415 70.0764 53.0719 69.7333C52.7288 69.3901 52.2635 69.1972 51.7783 69.1972C51.293 69.1972 50.8276 69.3901 50.4845 69.7333C50.1413 70.0764 49.9486 70.5417 49.9486 71.0269V74.6718H49.0266C48.377 74.6718 47.754 74.9299 47.2947 75.3892C46.8354 75.8485 46.5775 76.4713 46.5775 77.1209C46.5775 77.7704 46.8354 78.3935 47.2947 78.8528C47.754 79.3121 48.377 79.5701 49.0266 79.5701H49.9486V103.485C49.9562 107.898 51.7138 112.128 54.8358 115.248C57.9578 118.367 62.1893 120.121 66.6026 120.125H71.6018V124H81.3982V120.125H86.3972C90.8105 120.121 95.0421 118.367 98.1641 115.248C101.286 112.128 103.044 107.898 103.051 103.485V79.6276H103.973C104.623 79.6276 105.246 79.3697 105.705 78.9104C106.164 78.4511 106.422 77.8281 106.422 77.1786C106.422 76.529 106.164 75.9061 105.705 75.4468C105.246 74.9875 104.623 74.7295 103.973 74.7295V74.6718ZM49.9486 77.2795H49.0266C49.0046 77.2815 48.9824 77.2788 48.9615 77.2718C48.9406 77.2647 48.9213 77.2533 48.905 77.2384C48.8888 77.2234 48.8757 77.2053 48.8669 77.1851C48.858 77.1648 48.8536 77.143 48.8537 77.1209C48.8537 77.075 48.8719 77.0311 48.9043 76.9987C48.9368 76.9662 48.9807 76.948 49.0266 76.948H49.9486V77.2795ZM97.5768 75.6516H99.392V78.5329H97.5768V75.6516ZM60.1196 47.5587C60.0547 45.3772 60.4285 43.2049 61.2185 41.1705C62.0086 39.1361 63.1988 37.2809 64.7189 35.7149C66.239 34.1489 68.058 32.904 70.0681 32.0538C72.0781 31.2037 74.2383 30.7656 76.4207 30.7656C78.6032 30.7656 80.7634 31.2037 82.7734 32.0538C84.7834 32.904 86.6023 34.1489 88.1224 35.7149C89.6425 37.2809 90.8329 39.1361 91.6229 41.1705C92.413 43.2049 92.7866 45.3772 92.7217 47.5587V69.8889H60.1196V47.5587ZM53.5358 75.6516H55.3367V78.5329H53.5358V75.6516ZM59.7163 116.854C57.0217 115.563 54.7741 113.496 53.262 110.919C53.1002 110.667 52.9605 110.402 52.8444 110.126C52.7147 109.867 52.5706 109.594 52.4409 109.32C51.9815 108.218 51.6479 107.068 51.4468 105.891L51.3027 104.998V104.105C51.3027 103.5 51.3027 102.923 51.3027 102.347V98.8606C51.3027 94.2216 51.3029 89.5827 51.4181 84.9437C51.4181 83.5895 51.4181 82.2354 51.4181 80.8667C51.4181 80.4345 51.4181 80.0023 51.4181 79.5701C51.4181 77.9278 51.5045 76.2998 51.5621 74.6718C51.5621 74.2396 51.5621 73.793 51.5621 73.3608L51.6485 71.0269L51.735 73.3608C51.735 73.793 51.735 74.2396 51.735 74.6718C51.735 76.2998 51.8358 77.9278 51.879 79.5701C51.879 80.0023 51.879 80.4345 51.879 80.8667C51.879 82.3074 51.879 83.5895 51.879 84.9437C51.9655 89.5827 51.9798 94.2216 51.9942 98.8606V102.347C51.9942 102.923 51.9942 103.514 51.9942 104.061V104.897L52.1096 105.733C52.2803 106.847 52.575 107.939 52.9884 108.988C53.431 110.005 53.9817 110.971 54.6308 111.87C55.958 113.741 57.6956 115.283 59.7107 116.379C61.7258 117.476 63.9649 118.096 66.2568 118.194C64.0298 118.245 61.8196 117.797 59.7883 116.883L59.7163 116.854ZM66.5306 116.422C63.0918 116.422 59.7938 115.056 57.3622 112.625C54.9307 110.193 53.5647 106.895 53.5647 103.456V80.8954H55.3655V81.8463C55.3692 82.5113 55.634 83.1483 56.1029 83.6199C56.5718 84.0914 57.2073 84.3599 57.8722 84.3674H62.1942V72.4101C60.7536 72.4101 59.3129 72.2804 57.8722 72.1939C63.851 71.8626 69.8441 71.7761 75.8228 71.7472C78.8002 71.7472 81.7919 71.7761 84.7981 71.8338C87.7803 71.8338 90.777 72.0066 93.7591 72.1939C90.777 72.3812 87.7803 72.5109 84.7981 72.5685C81.8159 72.6261 78.805 72.6549 75.8228 72.6549H74.3822V84.3819H82.8388L74.3822 84.7132L71.1262 84.843L68.7635 84.9293L62.2806 85.1743L57.9586 85.3472V99.1631C57.9624 103.049 59.5069 106.775 62.2533 109.524C64.9998 112.273 68.7242 113.821 72.6102 113.829H80.4761C84.3621 113.821 88.0865 112.273 90.833 109.524C93.5794 106.775 95.1239 103.049 95.1277 99.1631V84.3242C95.7913 84.3166 96.4252 84.0477 96.8918 83.5757C97.3584 83.1037 97.6201 82.4667 97.62 81.803V80.8523H99.4353V103.485C99.4353 106.924 98.0693 110.222 95.6377 112.653C93.2061 115.085 89.9081 116.451 86.4693 116.451L66.5306 116.422ZM73.2297 106.237V105.949V105.387L73.0999 103.096L72.5813 93.9623L72.0771 103.096L71.9906 104.537V105.358V105.92V106.539C71.9686 106.822 71.9686 107.106 71.9906 107.389C71.9906 107.533 71.9906 107.677 71.9906 107.821C71.9906 107.966 71.9907 108.124 72.106 108.282C72.2054 108.639 72.3356 108.986 72.495 109.32C72.5989 109.542 72.7143 109.758 72.8407 109.968C72.5739 109.743 72.341 109.481 72.1492 109.19C71.8718 108.784 71.6488 108.343 71.4864 107.879C71.3119 107.366 71.1959 106.834 71.1407 106.294C71.1407 105.992 71.1407 105.675 71.1407 105.358V88.4158H74.3966V105.358C74.3966 106.194 74.3966 106.899 74.3966 107.505C74.4355 108.151 74.5077 108.796 74.6127 109.435C74.1086 108.846 73.7222 108.167 73.4745 107.432C73.3752 107.122 73.3029 106.804 73.2584 106.482V106.208L73.2297 106.237ZM67.5679 106.064L67.784 106.453C66.7459 105.439 66.1111 104.082 65.9976 102.635L65.3061 90.3174L64.6144 102.65C64.6118 103.806 64.9098 104.942 65.479 105.949C65.5798 106.136 65.6806 106.309 65.7959 106.482C64.7311 105.47 64.0792 104.099 63.9662 102.635L63.2747 90.3174L62.5832 102.65C62.5806 103.806 62.8784 104.942 63.4476 105.949C63.6572 106.337 63.8981 106.708 64.1679 107.058C62.9731 105.86 62.278 104.254 62.2231 102.563V88.4446H68.706V102.563C68.706 103.499 68.706 104.306 68.706 105.012C68.3129 104.315 68.0906 103.535 68.0576 102.736L67.3661 90.4183L66.6747 102.765C66.7017 103.939 67.0344 105.086 67.64 106.093L67.5679 106.064ZM101.64 102.347C101.64 102.923 101.64 103.5 101.64 104.105V104.998L101.495 105.891C101.296 107.07 100.958 108.221 100.487 109.32C100.372 109.594 100.228 109.867 100.098 110.126C99.976 110.399 99.8366 110.664 99.6802 110.919C99.3727 111.419 99.0358 111.9 98.6717 112.36C97.2465 114.265 95.3769 115.793 93.2259 116.811C91.0995 117.821 88.7648 118.315 86.4116 118.252C88.7033 118.153 90.9421 117.532 92.957 116.436C94.972 115.34 96.7098 113.797 98.0379 111.927C98.3793 111.473 98.6828 110.991 98.9455 110.487C99.2192 109.997 99.4353 109.478 99.6802 108.974C100.094 107.925 100.388 106.833 100.559 105.718L100.674 104.882V104.047C100.674 103.499 100.674 102.909 100.674 102.332V98.8461C100.674 94.2072 100.708 89.5682 100.775 84.9293L100.861 80.8523C100.861 80.4201 100.861 79.9879 100.861 79.5557C100.861 77.9133 100.948 76.2854 101.006 74.6574V73.3464C101.006 72.5684 101.006 71.7904 101.106 71.0125L101.193 73.3464C101.193 73.7786 101.193 74.2252 101.193 74.6574C101.193 76.2854 101.294 77.9133 101.337 79.5557C101.337 79.9879 101.337 80.4201 101.337 80.8523C101.337 82.293 101.337 83.5751 101.337 84.9293C101.423 89.5682 101.438 94.2072 101.452 98.8461L101.64 102.347ZM103.901 77.2795H102.979V76.948H103.901C103.947 76.948 103.991 76.9662 104.023 76.9987C104.056 77.0311 104.074 77.075 104.074 77.1209C104.084 77.159 104.079 77.1993 104.06 77.234C104.041 77.2686 104.01 77.295 103.973 77.3082L103.901 77.2795Z" fill="white"/>
<path d="M72.7687 33.6562C73.9561 33.1726 75.2188 32.8995 76.5 32.8494C74.9212 32.7849 73.3463 33.0499 71.8755 33.6274C71.9999 33.6126 72.1257 33.6126 72.2501 33.6274C72.4235 33.6141 72.5978 33.6238 72.7687 33.6562V33.6562Z" fill="white"/>
<path d="M63.0297 50.1806C63.1921 50.2799 63.3726 50.3461 63.5608 50.3753C63.7489 50.4044 63.9411 50.3959 64.126 50.3503C64.3109 50.3048 64.4848 50.2231 64.6379 50.1099C64.791 49.9967 64.9201 49.8542 65.0178 49.6908C65.1828 49.4377 65.2728 49.1428 65.2772 48.8407C65.2773 48.4393 65.1208 48.0537 64.841 47.7658C64.5612 47.478 64.1801 47.3105 63.7788 47.2993C63.5701 47.2982 63.3636 47.3423 63.1737 47.4289C62.9084 47.5398 62.6803 47.7241 62.516 47.96C62.3516 48.1959 62.2579 48.4736 62.2458 48.7609C62.2338 49.0481 62.3038 49.3329 62.4477 49.5818C62.5917 49.8307 62.8035 50.0334 63.0585 50.1662L63.0297 50.1806Z" fill="white"/>
<path d="M71.1552 82.0913V72.626H68.7925V84.4251H71.1552V82.0913Z" fill="white"/>
<path d="M63.0009 51.1026L62.6552 59.3576C62.9939 59.1842 63.3695 59.0952 63.7501 59.0982C64.3855 59.0966 64.9962 59.3451 65.4501 59.7898L65.0755 50.8288C64.6799 51.0822 64.2199 51.2172 63.7501 51.2178C63.496 51.2169 63.2435 51.1781 63.0009 51.1026V51.1026Z" fill="white"/>
<path d="M72.25 60.0058C71.845 60.0058 71.4566 60.1668 71.1702 60.4532C70.8838 60.7396 70.7228 61.128 70.7228 61.533C70.7228 61.938 70.8838 62.3264 71.1702 62.6128C71.4566 62.8992 71.845 63.06 72.25 63.06C72.655 63.06 73.0434 62.8992 73.3298 62.6128C73.6161 62.3264 73.777 61.938 73.777 61.533C73.777 61.128 73.6161 60.7396 73.3298 60.4532C73.0434 60.1668 72.655 60.0058 72.25 60.0058V60.0058Z" fill="white"/>
<path d="M84.9999 66.3881C84.5949 66.3881 84.2065 66.5489 83.9201 66.8353C83.6337 67.1217 83.4729 67.5102 83.4729 67.9152C83.4772 68.1212 83.5228 68.3241 83.6069 68.5121C83.691 68.7002 83.812 68.8695 83.9627 69.01H86.0516C86.2761 68.8019 86.4322 68.5308 86.4993 68.2321C86.5664 67.9335 86.5413 67.6214 86.4274 67.3374C86.3134 67.0533 86.116 66.8105 85.8611 66.6409C85.6062 66.4714 85.3059 66.3833 84.9999 66.3881Z" fill="white"/>
<path d="M80.7499 34.5062C80.4479 34.5062 80.1525 34.5957 79.9014 34.7635C79.6503 34.9313 79.4546 35.17 79.339 35.449C79.2234 35.7281 79.1932 36.0351 79.2521 36.3313C79.3111 36.6275 79.4566 36.8996 79.6702 37.1132C79.8837 37.3268 80.1558 37.4721 80.452 37.531C80.7483 37.59 81.0553 37.5598 81.3343 37.4442C81.6134 37.3286 81.8519 37.1329 82.0197 36.8818C82.1875 36.6306 82.277 36.3354 82.277 36.0334C82.277 35.6284 82.1161 35.2398 81.8297 34.9534C81.5433 34.6671 81.155 34.5062 80.7499 34.5062V34.5062Z" fill="white"/>
<path d="M89.25 60.0058C88.845 60.0058 88.4564 60.1668 88.17 60.4532C87.8836 60.7396 87.7228 61.128 87.7228 61.533C87.7228 61.938 87.8836 62.3264 88.17 62.6128C88.4564 62.8992 88.845 63.06 89.25 63.06C89.655 63.06 90.0434 62.8992 90.3298 62.6128C90.6161 62.3264 90.777 61.938 90.777 61.533C90.777 61.128 90.6161 60.7396 90.3298 60.4532C90.0434 60.1668 89.655 60.0058 89.25 60.0058V60.0058Z" fill="white"/>
<path d="M89.2499 47.2993C88.9479 47.2993 88.6525 47.3887 88.4014 47.5565C88.1503 47.7243 87.9546 47.9628 87.839 48.2419C87.7234 48.5209 87.6932 48.8281 87.7521 49.1243C87.8111 49.4206 87.9564 49.6927 88.17 49.9062C88.3835 50.1198 88.6556 50.2652 88.9519 50.3241C89.2481 50.383 89.5553 50.3528 89.8343 50.2372C90.1134 50.1216 90.3519 49.9259 90.5197 49.6748C90.6875 49.4237 90.777 49.1285 90.777 48.8264C90.7732 48.4226 90.6111 48.0363 90.3255 47.7507C90.0399 47.4651 89.6538 47.303 89.2499 47.2993V47.2993Z" fill="white"/>
<path d="M80.7499 47.2993C80.4479 47.2993 80.1525 47.3887 79.9014 47.5565C79.6503 47.7243 79.4546 47.9628 79.339 48.2419C79.2234 48.5209 79.1932 48.8281 79.2521 49.1243C79.3111 49.4206 79.4566 49.6927 79.6702 49.9062C79.8837 50.1198 80.1558 50.2652 80.452 50.3241C80.7483 50.383 81.0553 50.3528 81.3343 50.2372C81.6134 50.1216 81.8519 49.9259 82.0197 49.6748C82.1875 49.4237 82.277 49.1285 82.277 48.8264C82.2732 48.4226 82.1111 48.0363 81.8255 47.7507C81.5399 47.4651 81.1538 47.303 80.7499 47.2993V47.2993Z" fill="white"/>
<path d="M84.9999 40.874C84.7994 40.874 84.6008 40.9135 84.4155 40.9903C84.2302 41.067 84.0619 41.1794 83.9201 41.3212C83.7783 41.463 83.6659 41.6314 83.5891 41.8166C83.5124 42.0019 83.4729 42.2005 83.4729 42.401C83.4729 42.6016 83.5124 42.8001 83.5891 42.9854C83.6659 43.1707 83.7783 43.339 83.9201 43.4808C84.0619 43.6226 84.2302 43.7352 84.4155 43.812C84.6008 43.8887 84.7994 43.9282 84.9999 43.9282C85.2005 43.9282 85.399 43.8887 85.5843 43.812C85.7696 43.7352 85.9379 43.6226 86.0797 43.4808C86.2215 43.339 86.3341 43.1707 86.4108 42.9854C86.4876 42.8001 86.5271 42.6016 86.5271 42.401C86.5271 42.2005 86.4876 42.0019 86.4108 41.8166C86.3341 41.6314 86.2215 41.463 86.0797 41.3212C85.9379 41.1794 85.7696 41.067 85.5843 40.9903C85.399 40.9135 85.2005 40.874 84.9999 40.874V40.874Z" fill="white"/>
<path d="M84.9998 53.6382C84.6977 53.6382 84.4025 53.7277 84.1514 53.8955C83.9003 54.0633 83.7046 54.3018 83.589 54.5808C83.4734 54.8598 83.443 55.1669 83.502 55.4631C83.5609 55.7593 83.7064 56.0314 83.92 56.245C84.1336 56.4586 84.4056 56.6041 84.7019 56.663C84.9981 56.7219 85.3051 56.6917 85.5842 56.5761C85.8632 56.4605 86.1017 56.2649 86.2695 56.0137C86.4373 55.7626 86.527 55.4672 86.527 55.1652C86.527 54.7602 86.366 54.3718 86.0796 54.0854C85.7932 53.799 85.4048 53.6382 84.9998 53.6382V53.6382Z" fill="white"/>
<path d="M72.2499 34.5062C71.9479 34.5062 71.6527 34.5957 71.4016 34.7635C71.1505 34.9313 70.9546 35.17 70.839 35.449C70.7234 35.7281 70.6932 36.0351 70.7521 36.3313C70.8111 36.6275 70.9566 36.8996 71.1702 37.1132C71.3837 37.3268 71.6558 37.4721 71.952 37.531C72.2483 37.59 72.5553 37.5598 72.8343 37.4442C73.1134 37.3286 73.3519 37.1329 73.5197 36.8818C73.6875 36.6306 73.777 36.3354 73.777 36.0334C73.777 35.6284 73.6161 35.2398 73.3297 34.9534C73.0433 34.6671 72.655 34.5062 72.2499 34.5062V34.5062Z" fill="white"/>
<path d="M76.5 66.3881C76.095 66.3881 75.7066 66.5489 75.4202 66.8353C75.1338 67.1217 74.973 67.5102 74.973 67.9152C74.9712 68.1222 75.014 68.327 75.0985 68.516C75.183 68.7049 75.3072 68.8734 75.4627 69.01H77.5518C77.7763 68.8019 77.9323 68.5308 77.9994 68.2321C78.0664 67.9335 78.0414 67.6214 77.9274 67.3374C77.8135 67.0533 77.616 66.8105 77.3612 66.6409C77.1063 66.4714 76.806 66.3833 76.5 66.3881Z" fill="white"/>
<path d="M72.2499 47.2993C71.9479 47.2993 71.6527 47.3887 71.4016 47.5565C71.1505 47.7243 70.9546 47.9628 70.839 48.2419C70.7234 48.5209 70.6932 48.8281 70.7521 49.1243C70.8111 49.4206 70.9566 49.6927 71.1702 49.9062C71.3837 50.1198 71.6558 50.2652 71.952 50.3241C72.2483 50.383 72.5553 50.3528 72.8343 50.2372C73.1134 50.1216 73.3519 49.9259 73.5197 49.6748C73.6875 49.4237 73.777 49.1285 73.777 48.8264C73.7732 48.4226 73.6113 48.0363 73.3257 47.7507C73.0401 47.4651 72.6538 47.303 72.2499 47.2993V47.2993Z" fill="white"/>
<path d="M76.4999 53.6382C76.1979 53.6382 75.9027 53.7277 75.6515 53.8955C75.4004 54.0633 75.2047 54.3018 75.0891 54.5808C74.9735 54.8598 74.9433 55.1669 75.0023 55.4631C75.0612 55.7593 75.2065 56.0314 75.4201 56.245C75.6337 56.4586 75.9058 56.6041 76.202 56.663C76.4982 56.7219 76.8052 56.6917 77.0843 56.5761C77.3633 56.4605 77.6018 56.2649 77.7696 56.0137C77.9374 55.7626 78.0271 55.4672 78.0271 55.1652C78.0271 54.7602 77.8662 54.3718 77.5799 54.0854C77.2935 53.799 76.9049 53.6382 76.4999 53.6382V53.6382Z" fill="white"/>
<path d="M76.4999 40.874C76.2994 40.874 76.1008 40.9135 75.9155 40.9903C75.7302 41.067 75.5619 41.1794 75.4201 41.3212C75.2783 41.463 75.1659 41.6314 75.0891 41.8166C75.0124 42.0019 74.9729 42.2005 74.9729 42.401C74.9729 42.6016 75.0124 42.8001 75.0891 42.9854C75.1659 43.1707 75.2783 43.339 75.4201 43.4808C75.5619 43.6226 75.7302 43.7352 75.9155 43.812C76.1008 43.8887 76.2994 43.9282 76.4999 43.9282C76.7005 43.9282 76.899 43.8887 77.0843 43.812C77.2696 43.7352 77.4381 43.6226 77.5799 43.4808C77.7217 43.339 77.8341 43.1707 77.9108 42.9854C77.9876 42.8001 78.0271 42.6016 78.0271 42.401C78.0271 42.2005 77.9876 42.0019 77.9108 41.8166C77.8341 41.6314 77.7217 41.463 77.5799 41.3212C77.4381 41.1794 77.2696 41.067 77.0843 40.9903C76.899 40.9135 76.7005 40.874 76.4999 40.874V40.874Z" fill="white"/>
<path d="M80.75 60.0058C80.345 60.0058 79.9566 60.1668 79.6702 60.4532C79.3838 60.7396 79.2228 61.128 79.2228 61.533C79.2228 61.938 79.3838 62.3264 79.6702 62.6128C79.9566 62.8992 80.345 63.06 80.75 63.06C81.155 63.06 81.5434 62.8992 81.8298 62.6128C82.1161 62.3264 82.277 61.938 82.277 61.533C82.277 61.128 82.1161 60.7396 81.8298 60.4532C81.5434 60.1668 81.155 60.0058 80.75 60.0058V60.0058Z" fill="white"/>
</svg>
