<svg width="103" height="38" viewBox="0 0 103 38" fill="none" xmlns="http://www.w3.org/2000/svg">
<rect width="102.105" height="37.1291" rx="18.5646" fill="white"/>
<path d="M44.144 25.208C45.664 25.208 46.864 24.6 47.808 23.512L46.816 22.344C46.112 23.112 45.28 23.592 44.208 23.592C42.128 23.592 40.816 21.88 40.816 19.08C40.816 16.312 42.224 14.616 44.256 14.616C45.216 14.616 45.952 15.048 46.56 15.672L47.568 14.488C46.848 13.704 45.696 13 44.224 13C41.248 13 38.912 15.304 38.912 19.144C38.912 23 41.184 25.208 44.144 25.208ZM49.8958 25H56.7278V23.432H51.7518V13.224H49.8958V25ZM62.7508 25.208C65.7748 25.208 67.8868 22.856 67.8868 19.064C67.8868 15.272 65.7748 13 62.7508 13C59.7268 13 57.6308 15.272 57.6308 19.064C57.6308 22.856 59.7268 25.208 62.7508 25.208ZM62.7508 23.592C60.7988 23.592 59.5348 21.832 59.5348 19.064C59.5348 16.296 60.7988 14.616 62.7508 14.616C64.7028 14.616 65.9828 16.296 65.9828 19.064C65.9828 21.832 64.7028 23.592 62.7508 23.592ZM73.6933 25.208C76.2693 25.208 77.8373 23.672 77.8373 21.784C77.8373 20.056 76.8293 19.192 75.4373 18.6L73.8213 17.912C72.8613 17.528 71.9173 17.144 71.9173 16.136C71.9173 15.192 72.7013 14.616 73.9013 14.616C74.9413 14.616 75.7573 15.016 76.4933 15.672L77.4693 14.488C76.5733 13.576 75.2773 13 73.9013 13C71.6613 13 70.0293 14.392 70.0293 16.248C70.0293 17.96 71.2933 18.856 72.4293 19.336L74.0613 20.04C75.1493 20.52 75.9493 20.856 75.9493 21.928C75.9493 22.92 75.1493 23.592 73.7253 23.592C72.5893 23.592 71.4373 23.048 70.5893 22.2L69.5013 23.48C70.5733 24.568 72.0773 25.208 73.6933 25.208ZM80.0676 25H87.2036V23.432H81.9236V19.624H86.2436V18.056H81.9236V14.776H87.0276V13.224H80.0676V25Z" fill="#00E0B8"/>
<path d="M30 13L18 25" stroke="#00E0B8" stroke-width="2" stroke-linecap="round" stroke-linejoin="round"/>
<path d="M18 13L30 25" stroke="#00E0B8" stroke-width="2" stroke-linecap="round" stroke-linejoin="round"/>
</svg>
