<svg width="445" height="109" viewBox="0 0 445 109" fill="none" xmlns="http://www.w3.org/2000/svg">
<path d="M398.15 20.6537L361.139 88.2758H377.838L414.849 20.6537H398.15Z" fill="#00E0B8" stroke="white" stroke-width="2.78517" stroke-linecap="round" stroke-linejoin="round"/>
<path d="M428.703 20.6537L391.692 88.2758H408.392L445.403 20.6537H428.703Z" fill="#00E0B8" stroke="white" stroke-width="2.78517" stroke-linecap="round" stroke-linejoin="round"/>
<path d="M379.322 22.4382C378.989 21.8963 378.52 21.4478 377.962 21.1354C377.403 20.823 376.773 20.6571 376.131 20.6535H96.8166C96.5075 20.6564 96.2 20.6975 95.9012 20.7758C88.8891 12.5142 79.4744 6.58482 68.9349 3.79237C58.3954 0.999925 47.2417 1.47966 36.9877 5.1665C26.7336 8.85334 17.8758 15.5687 11.6166 24.4011C5.35746 33.2335 2 43.7552 2 54.5379C2 65.3207 5.35746 75.8423 11.6166 84.6747C17.8758 93.5071 26.7336 100.222 36.9877 103.909C47.2417 107.596 58.3954 108.076 68.9349 105.283C79.4744 102.491 88.8891 96.5616 95.9012 88.3H343.301C343.971 88.2968 344.627 88.1159 345.201 87.7761C345.776 87.4364 346.248 86.9502 346.567 86.3686L379.57 26.0565C379.849 25.4839 379.974 24.8493 379.93 24.215C379.887 23.5807 379.678 22.9684 379.322 22.4382V22.4382Z" fill="#00E0B8" stroke="white" stroke-width="2.78517" stroke-linejoin="round"/>
<path d="M98.6863 54.0488C98.6863 78.0456 78.9972 97.519 54.6843 97.519C30.3714 97.519 10.6823 78.0456 10.6823 54.0488C10.6823 30.0521 30.3714 10.5787 54.6843 10.5787C78.9972 10.5787 98.6863 30.0521 98.6863 54.0488Z" fill="url(#paint0_linear_317_723)" stroke="white" stroke-width="2" stroke-miterlimit="10"/>
<path d="M129.031 58.6847V60.6622H138.695V58.6847H129.031ZM129.031 61.7205V63.698H138.695V61.7205H129.031ZM128.892 64.7564V67.0124H139.252V64.7564H128.892ZM125.939 43.8676V46.1793H139.392V43.8676H125.939ZM132.178 56.6794V66.1211H134.907V56.6794H132.178ZM128.446 42.3358V47.6554H131.259V42.3358H128.446ZM134.211 42.3358V47.6554H137.024V42.3358H134.211ZM128.585 50.1064H129.978V51.6382H128.585V50.1064ZM126.441 48.1568V53.5878H132.234V48.1568H126.441ZM135.297 50.1064H136.829V51.6382H135.297V50.1064ZM133.181 48.1568V53.5878H139.085V48.1568H133.181ZM130.201 55.4261H129.198L127.527 57.2643V68.1821H130.201V57.6542H139.197V55.4261H130.201ZM133.32 53.3372C133.097 54.2563 132.679 55.5932 132.262 56.5123L134.35 57.0972C134.824 56.2895 135.409 55.0918 136.022 53.9221L133.32 53.3372ZM128.669 53.1144C127.945 55.5375 126.636 57.9049 125.159 59.4646C125.633 59.9937 126.413 61.1914 126.719 61.7205C128.502 59.7709 130.117 56.7351 131.092 53.7828L128.669 53.1144ZM143.068 50.3292H147.664V52.1117H143.068V50.3292ZM143.068 54.6462H147.664V56.4287H143.068V54.6462ZM143.068 46.04H147.664V47.7947H143.068V46.04ZM140.227 43.1713V59.2696H150.672V43.1713H140.227ZM145.435 58.824V64.45C145.435 66.9845 145.881 67.8479 148.081 67.8479C148.471 67.8479 149.112 67.8479 149.53 67.8479C151.284 67.8479 151.981 66.8731 152.203 63.0574C151.451 62.8346 150.254 62.389 149.725 61.9155C149.669 64.8399 149.557 65.202 149.195 65.202C149.056 65.202 148.694 65.202 148.583 65.202C148.304 65.202 148.248 65.1184 148.248 64.4222V58.824H145.435ZM141.675 58.9354C141.48 62.2776 141.007 64.5336 137.86 65.8983C138.5 66.4275 139.308 67.5694 139.642 68.2935C143.458 66.4275 144.238 63.2802 144.488 58.9354H141.675ZM159.695 54.507V68.4328H162.898V57.0415H172.981V68.4328H176.351V54.507H159.695ZM154.153 50.7191V53.3372H178.969V50.7191H154.153ZM156.103 46.987V49.5215H177.437V46.987H156.103ZM161.868 58.2112V60.328H174.345V58.2112H161.868ZM161.868 61.5256V63.6145H174.345V61.5256H161.868ZM161.478 64.8956V67.4301H174.345V64.8956H161.478ZM175.404 42.2801C170.697 43.0599 162.62 43.3941 155.796 43.3941C156.075 44.0626 156.381 45.1766 156.437 45.9008C163.344 45.9565 171.644 45.6223 177.353 44.6753L175.404 42.2801ZM163.539 44.5918C162.23 50.6077 159.166 56.7351 153.262 59.9102C153.93 60.5508 154.905 61.8041 155.351 62.5561C161.784 58.8518 165.127 52.2231 167.02 45.288L163.539 44.5918ZM187.129 50.1064V53.1144H201.584V50.1064H187.129ZM181.949 55.1197V58.2669H206.904V55.1197H181.949ZM188.689 57.6263C188.271 61.442 187.519 64.0322 181.141 65.4527C181.893 66.149 182.757 67.5415 183.091 68.4328C190.444 66.4832 191.781 62.8068 192.31 57.6263H188.689ZM195.875 57.0972V63.9487C195.875 66.9567 196.655 67.9315 199.913 67.9315C200.554 67.9315 202.838 67.9315 203.478 67.9315C206.124 67.9315 207.015 66.8731 207.35 62.8068C206.486 62.5839 205.038 62.0548 204.37 61.5256C204.258 64.45 204.091 64.9235 203.172 64.9235C202.643 64.9235 200.832 64.9235 200.387 64.9235C199.412 64.9235 199.245 64.7842 199.245 63.893V57.0972H195.875ZM192.56 42.2244V47.2655H196.125V42.2244H192.56ZM182.45 44.8981V51.5268H185.848V48.0454H202.782V51.5268H206.375V44.8981H182.45ZM211.221 57.4592V60.0773H233.307V57.4592H211.221ZM209.773 43.6169V45.8451H222.668V43.6169H209.773ZM222.362 61.3863V63.8373H231.051V61.3863H222.362ZM209.55 65.2299V67.9315H235.062V65.2299H209.55ZM220.551 58.5176V66.5389H223.866V58.5176H220.551ZM214.786 42.1965V56.8743H217.711V42.1965H214.786ZM213.672 61.0242V66.7895H216.847V61.0242H213.672ZM213.004 48.7695H219.549V50.2456H213.004V48.7695ZM210.413 46.792V52.2231H222.306V46.792H210.413ZM217.822 51.7496L216.234 53.0308C217.376 53.7271 219.688 55.2868 220.691 56.1224L222.306 54.0613C221.554 53.6157 218.713 52.1396 217.822 51.7496ZM225.704 42.2244C224.98 44.8424 223.587 47.3212 221.721 48.8809C222.362 49.4101 223.448 50.5799 223.866 51.1926C225.982 49.2708 227.709 46.1514 228.684 42.8928L225.704 42.2244ZM225.76 45.0374L224.478 47.6276H234.923V45.0374H225.76ZM230.244 46.235C229.38 50.8027 226.512 53.3929 221.749 54.7019C222.362 55.2311 223.309 56.4566 223.643 57.0972C228.796 55.2589 232.054 52.1674 233.335 46.5135L230.244 46.235ZM226.289 46.5692L224.144 47.7668C225.453 51.304 228.433 55.3704 233.53 57.0972C233.948 56.3173 234.784 55.0918 235.396 54.507C230.383 53.1979 227.486 49.7443 226.289 46.5692ZM214.508 51.3597C213.338 52.7244 211.11 54.2006 209.216 54.9526C209.829 55.4261 210.692 56.373 211.11 57.0136C213.004 55.9831 215.315 54.0056 216.596 52.2231L214.508 51.3597ZM247.512 56.2895V59.2417H262.719V56.2895H247.512ZM257.371 58.0441L255.004 58.9075C256.452 62.0269 258.931 65.3134 261.298 67.1795C261.8 66.3718 262.858 65.2299 263.582 64.645C261.243 63.2245 258.708 60.5229 257.371 58.0441ZM251.272 50.2178H258.959V52.0282H251.272V50.2178ZM251.272 45.9008H258.959V47.6554H251.272V45.9008ZM248.32 43.2549V54.6462H262.05V43.2549H248.32ZM252.887 57.8213C251.578 60.5508 248.988 63.3081 246.342 64.7285C247.038 65.3134 248.069 66.511 248.57 67.2909C251.355 65.4805 253.918 62.1383 255.394 58.6847L252.887 57.8213ZM253.639 44.5639V53.3929H253.472V68.3214H256.703V53.3929H256.508V44.5639H253.639ZM238.293 50.747V53.2536H246.453V50.747H238.293ZM238.376 43.0599V45.5944H246.37V43.0599H238.376ZM238.293 54.5348V57.0693H246.453V54.5348H238.293ZM237.012 46.8199V49.4658H247.178V46.8199H237.012ZM239.741 58.4062V61.0521H243.696V64.2272H239.741V66.8731H246.481V58.4062H239.741ZM238.237 58.4062V67.9872H240.967V58.4062H238.237ZM281.937 53.365V61.5256H283.747V53.365H281.937ZM279.235 55.0361V65.0906H280.934V55.0361H279.235ZM284.861 55.0083V64.3107H286.532V55.0083H284.861ZM284.471 46.8756C284.248 48.1289 283.747 49.9671 283.357 51.109L285.251 51.6104C285.724 50.552 286.281 48.9088 286.838 47.4048L284.471 46.8756ZM279.04 47.6276C279.597 48.9366 280.07 50.6356 280.154 51.7218L282.187 51.0255C282.076 49.9671 281.547 48.296 280.962 47.0148L279.04 47.6276ZM275.419 43.3941V68.3214H278.232V46.3743H288.955V43.3941H275.419ZM287.646 43.3941V65.0349C287.646 65.4527 287.507 65.5919 287.089 65.6198C286.727 65.6198 285.446 65.6198 284.276 65.5641C284.638 66.3161 285.028 67.5694 285.139 68.3492C287.145 68.3492 288.454 68.2935 289.345 67.8201C290.264 67.3466 290.543 66.5667 290.543 65.0627V43.3941H287.646ZM278.789 51.1648V53.6714H287.006V51.1648H278.789ZM280.015 60.7736V63.3081H285.502V60.7736H280.015ZM269.041 42.2244C268.428 44.1461 267.231 46.8477 266.256 48.5188L268.428 49.4101C269.459 47.8504 270.74 45.3716 271.854 43.1992L269.041 42.2244ZM272.021 45.5109C270.657 48.491 268.261 52.5573 266.284 55.064L268.15 56.0945C270.183 53.7271 272.718 49.8557 274.667 46.7085L272.021 45.5109ZM264.724 48.6302C266.117 50.0228 267.76 52.0003 268.373 53.365L270.127 50.8584C269.459 49.6051 267.788 47.7668 266.367 46.43L264.724 48.6302ZM271.186 52.056C272.161 54.0335 273.052 56.6515 273.275 58.2669L275.614 57.2643C275.364 55.621 274.389 53.0865 273.386 51.1648L271.186 52.056ZM264.641 54.4234L265.003 57.2921C267.481 57.0972 270.712 56.8743 273.804 56.6237L273.776 53.8664C270.434 54.0892 267.036 54.312 264.641 54.4234ZM271.631 59.1303C272.272 60.7457 272.801 62.8625 272.913 64.255L275.252 63.503C275.085 62.1383 274.528 60.0494 273.86 58.4619L271.631 59.1303ZM265.838 58.5733C265.615 60.9128 265.198 63.4195 264.418 65.0627C265.058 65.3134 266.228 65.8426 266.757 66.2047C267.537 64.4222 268.15 61.6648 268.428 59.0189L265.838 58.5733ZM268.707 55.8995V68.3492H271.52V55.8995H268.707Z" fill="white"/>
<path d="M304.441 64.7119L312.254 55.5089L304.441 46.306" stroke="white" stroke-width="2.78517" stroke-linecap="round" stroke-linejoin="round"/>
<path d="M319.466 64.7119L327.279 55.5089L319.466 46.306" stroke="white" stroke-width="2.78517" stroke-linecap="round" stroke-linejoin="round"/>
<path d="M43.5632 68.6226V36.4385L73.2717 31.4871V63.6712" stroke="white" stroke-width="2.78517" stroke-linecap="round" stroke-linejoin="round"/>
<path d="M36.1361 76.0497C40.238 76.0497 43.5632 72.7244 43.5632 68.6226C43.5632 64.5207 40.238 61.1954 36.1361 61.1954C32.0342 61.1954 28.709 64.5207 28.709 68.6226C28.709 72.7244 32.0342 76.0497 36.1361 76.0497Z" stroke="white" stroke-width="2.78517" stroke-linecap="round" stroke-linejoin="round"/>
<path d="M65.8445 71.0984C69.9464 71.0984 73.2717 67.7732 73.2717 63.6713C73.2717 59.5694 69.9464 56.2442 65.8445 56.2442C61.7427 56.2442 58.4174 59.5694 58.4174 63.6713C58.4174 67.7732 61.7427 71.0984 65.8445 71.0984Z" stroke="white" stroke-width="2.78517" stroke-linecap="round" stroke-linejoin="round"/>
<defs>
<linearGradient id="paint0_linear_317_723" x1="24.0692" y1="21.3581" x2="84.5738" y2="87.2407" gradientUnits="userSpaceOnUse">
<stop stop-color="#FFF176"/>
<stop offset="1" stop-color="#00E0B8"/>
</linearGradient>
</defs>
</svg>
