<?xml version="1.0" encoding="utf-8"?>
<!-- Generator: Adobe Illustrator 26.0.3, SVG Export Plug-In . SVG Version: 6.00 Build 0)  -->
<svg version="1.1" id="圖層_1" xmlns="http://www.w3.org/2000/svg" xmlns:xlink="http://www.w3.org/1999/xlink" x="0px" y="0px"
	 viewBox="0 0 447 109" style="enable-background:new 0 0 447 109;" xml:space="preserve">
<style type="text/css">
	.st0{stroke:#00E0B8;stroke-width:2.7852;stroke-linecap:round;stroke-linejoin:round;}
	.st1{stroke:#00E0B8;stroke-width:2.7852;stroke-linejoin:round;}
	.st2{fill:#00E0B8;}
	.st3{fill:#FFFFFF;}
	.st4{fill:none;stroke:#FFFFFF;stroke-width:2.7852;stroke-linecap:round;stroke-linejoin:round;}
</style>
<path class="st0" d="M398.1,20.7l-37,67.6h16.7l37-67.6H398.1z"/>
<path class="st0" d="M428.7,20.7l-37,67.6h16.7l37-67.6H428.7z"/>
<path class="st1" d="M379.3,22.4c-0.3-0.5-0.8-1-1.4-1.3c-0.6-0.3-1.2-0.5-1.8-0.5H96.8c-0.3,0-0.6,0-0.9,0.1
	c-7-8.3-16.4-14.2-27-17C58.4,1,47.2,1.5,37,5.2C26.7,8.9,17.9,15.6,11.6,24.4C5.4,33.2,2,43.8,2,54.5c0,10.8,3.4,21.3,9.6,30.1
	c6.3,8.8,15.1,15.5,25.4,19.2c10.3,3.7,21.4,4.2,31.9,1.4c10.5-2.8,20-8.7,27-17h247.4c0.7,0,1.3-0.2,1.9-0.5c0.6-0.3,1-0.8,1.4-1.4
	l33-60.3c0.3-0.6,0.4-1.2,0.4-1.8C379.9,23.6,379.7,23,379.3,22.4L379.3,22.4z"/>
<path class="st2" d="M54.7,98.5c24.9,0,45-19.9,45-44.5S79.5,9.6,54.7,9.6S9.7,29.5,9.7,54S29.8,98.5,54.7,98.5z"/>
<path class="st3" d="M129,58.7v2h9.7v-2H129z M129,61.7v2h9.7v-2H129z M128.9,64.8V67h10.4v-2.3H128.9z M125.9,43.9v2.3h13.5v-2.3
	H125.9z M132.2,56.7v9.4h2.7v-9.4H132.2z M128.4,42.3v5.3h2.8v-5.3H128.4z M134.2,42.3v5.3h2.8v-5.3H134.2z M128.6,50.1h1.4v1.5
	h-1.4V50.1z M126.4,48.2v5.4h5.8v-5.4H126.4z M135.3,50.1h1.5v1.5h-1.5V50.1z M133.2,48.2v5.4h5.9v-5.4H133.2z M130.2,55.4h-1
	l-1.7,1.8v10.9h2.7V57.7h9v-2.2H130.2z M133.3,53.3c-0.2,0.9-0.6,2.3-1.1,3.2l2.1,0.6c0.5-0.8,1.1-2,1.7-3.2L133.3,53.3z
	 M128.7,53.1c-0.7,2.4-2,4.8-3.5,6.4c0.5,0.5,1.3,1.7,1.6,2.3c1.8-1.9,3.4-5,4.4-7.9L128.7,53.1z M143.1,50.3h4.6v1.8h-4.6V50.3z
	 M143.1,54.6h4.6v1.8h-4.6V54.6z M143.1,46h4.6v1.8h-4.6V46z M140.2,43.2v16.1h10.4V43.2H140.2z M145.4,58.8v5.6
	c0,2.5,0.4,3.4,2.6,3.4c0.4,0,1,0,1.4,0c1.8,0,2.5-1,2.7-4.8c-0.8-0.2-1.9-0.7-2.5-1.1c-0.1,2.9-0.2,3.3-0.5,3.3c-0.1,0-0.5,0-0.6,0
	c-0.3,0-0.3-0.1-0.3-0.8v-5.6H145.4z M141.7,58.9c-0.2,3.3-0.7,5.6-3.8,7c0.6,0.5,1.4,1.7,1.8,2.4c3.8-1.9,4.6-5,4.8-9.4H141.7z
	 M159.7,54.5v13.9h3.2V57H173v11.4h3.4V54.5H159.7z M154.2,50.7v2.6H179v-2.6H154.2z M156.1,47v2.5h21.3V47H156.1z M161.9,58.2v2.1
	h12.5v-2.1H161.9z M161.9,61.5v2.1h12.5v-2.1H161.9z M161.5,64.9v2.5h12.9v-2.5H161.5z M175.4,42.3c-4.7,0.8-12.8,1.1-19.6,1.1
	c0.3,0.7,0.6,1.8,0.6,2.5c6.9,0.1,15.2-0.3,20.9-1.2L175.4,42.3z M163.5,44.6c-1.3,6-4.4,12.1-10.3,15.3c0.7,0.6,1.6,1.9,2.1,2.6
	c6.4-3.7,9.8-10.3,11.7-17.3L163.5,44.6z M187.1,50.1v3h14.5v-3H187.1z M181.9,55.1v3.1h25v-3.1H181.9z M188.7,57.6
	c-0.4,3.8-1.2,6.4-7.5,7.8c0.8,0.7,1.6,2.1,1.9,3c7.4-1.9,8.7-5.6,9.2-10.8H188.7z M195.9,57.1v6.9c0,3,0.8,4,4,4c0.6,0,2.9,0,3.6,0
	c2.6,0,3.5-1.1,3.9-5.1c-0.9-0.2-2.3-0.8-3-1.3c-0.1,2.9-0.3,3.4-1.2,3.4c-0.5,0-2.3,0-2.8,0c-1,0-1.1-0.1-1.1-1v-6.8H195.9z
	 M192.6,42.2v5h3.6v-5H192.6z M182.4,44.9v6.6h3.4V48h16.9v3.5h3.6v-6.6H182.4z M211.2,57.5v2.6h22.1v-2.6H211.2z M209.8,43.6v2.2
	h12.9v-2.2H209.8z M222.4,61.4v2.5h8.7v-2.5H222.4z M209.6,65.2v2.7h25.5v-2.7H209.6z M220.6,58.5v8h3.3v-8H220.6z M214.8,42.2v14.7
	h2.9V42.2H214.8z M213.7,61v5.8h3.2V61H213.7z M213,48.8h6.5v1.5H213V48.8z M210.4,46.8v5.4h11.9v-5.4H210.4z M217.8,51.7l-1.6,1.3
	c1.1,0.7,3.5,2.3,4.5,3.1l1.6-2.1C221.6,53.6,218.7,52.1,217.8,51.7z M225.7,42.2c-0.7,2.6-2.1,5.1-4,6.7c0.6,0.5,1.7,1.7,2.1,2.3
	c2.1-1.9,3.8-5,4.8-8.3L225.7,42.2z M225.8,45l-1.3,2.6h10.4V45H225.8z M230.2,46.2c-0.9,4.6-3.7,7.2-8.5,8.5
	c0.6,0.5,1.6,1.8,1.9,2.4c5.2-1.8,8.4-4.9,9.7-10.6L230.2,46.2z M226.3,46.6l-2.1,1.2c1.3,3.5,4.3,7.6,9.4,9.3
	c0.4-0.8,1.3-2,1.9-2.6C230.4,53.2,227.5,49.7,226.3,46.6z M214.5,51.4c-1.2,1.4-3.4,2.8-5.3,3.6c0.6,0.5,1.5,1.4,1.9,2.1
	c1.9-1,4.2-3,5.5-4.8L214.5,51.4z M247.5,56.3v3h15.2v-3H247.5z M257.4,58l-2.4,0.9c1.4,3.1,3.9,6.4,6.3,8.3
	c0.5-0.8,1.6-1.9,2.3-2.5C261.2,63.2,258.7,60.5,257.4,58z M251.3,50.2h7.7V52h-7.7V50.2z M251.3,45.9h7.7v1.8h-7.7V45.9z
	 M248.3,43.3v11.4H262V43.3H248.3z M252.9,57.8c-1.3,2.7-3.9,5.5-6.5,6.9c0.7,0.6,1.7,1.8,2.2,2.6c2.8-1.8,5.3-5.2,6.8-8.6
	L252.9,57.8z M253.6,44.6v8.8h-0.2v14.9h3.2V53.4h-0.2v-8.8H253.6z M238.3,50.7v2.5h8.2v-2.5H238.3z M238.4,43.1v2.5h8v-2.5H238.4z
	 M238.3,54.5v2.5h8.2v-2.5H238.3z M237,46.8v2.6h10.2v-2.6H237z M239.7,58.4v2.6h4v3.2h-4v2.6h6.7v-8.5H239.7z M238.2,58.4V68h2.7
	v-9.6H238.2z M281.9,53.4v8.2h1.8v-8.2H281.9z M279.2,55v10.1h1.7V55H279.2z M284.9,55v9.3h1.7V55H284.9z M284.5,46.9
	c-0.2,1.3-0.7,3.1-1.1,4.2l1.9,0.5c0.5-1.1,1-2.7,1.6-4.2L284.5,46.9z M279,47.6c0.6,1.3,1,3,1.1,4.1l2-0.7c-0.1-1.1-0.6-2.7-1.2-4
	L279,47.6z M275.4,43.4v24.9h2.8V46.4H289v-3H275.4z M287.6,43.4V65c0,0.4-0.1,0.6-0.6,0.6c-0.4,0-1.6,0-2.8-0.1
	c0.4,0.8,0.8,2,0.9,2.8c2,0,3.3-0.1,4.2-0.5c0.9-0.5,1.2-1.3,1.2-2.8V43.4H287.6z M278.8,51.2v2.5h8.2v-2.5H278.8z M280,60.8v2.5
	h5.5v-2.5H280z M269,42.2c-0.6,1.9-1.8,4.6-2.8,6.3l2.2,0.9c1-1.6,2.3-4,3.4-6.2L269,42.2z M272,45.5c-1.4,3-3.8,7-5.7,9.6l1.9,1
	c2-2.4,4.6-6.2,6.5-9.4L272,45.5z M264.7,48.6c1.4,1.4,3,3.4,3.6,4.7l1.8-2.5c-0.7-1.3-2.3-3.1-3.8-4.4L264.7,48.6z M271.2,52.1
	c1,2,1.9,4.6,2.1,6.2l2.3-1c-0.2-1.6-1.2-4.2-2.2-6.1L271.2,52.1z M264.6,54.4l0.4,2.9c2.5-0.2,5.7-0.4,8.8-0.7l0-2.8
	C270.4,54.1,267,54.3,264.6,54.4z M271.6,59.1c0.6,1.6,1.2,3.7,1.3,5.1l2.3-0.8c-0.2-1.4-0.7-3.5-1.4-5L271.6,59.1z M265.8,58.6
	c-0.2,2.3-0.6,4.8-1.4,6.5c0.6,0.3,1.8,0.8,2.3,1.1c0.8-1.8,1.4-4.5,1.7-7.2L265.8,58.6z M268.7,55.9v12.4h2.8V55.9H268.7z"/>
<path class="st4" d="M304.4,64.7l7.8-9.2l-7.8-9.2"/>
<path class="st4" d="M319.5,64.7l7.8-9.2l-7.8-9.2"/>
<path class="st4" d="M43.6,68.6V36.4l29.7-5v32.2"/>
<path class="st4" d="M36.1,76c4.1,0,7.4-3.3,7.4-7.4c0-4.1-3.3-7.4-7.4-7.4s-7.4,3.3-7.4,7.4C28.7,72.7,32,76,36.1,76z"/>
<path class="st4" d="M65.8,71.1c4.1,0,7.4-3.3,7.4-7.4s-3.3-7.4-7.4-7.4c-4.1,0-7.4,3.3-7.4,7.4S61.7,71.1,65.8,71.1z"/>
</svg>
