<svg width="167" height="38" viewBox="0 0 167 38" fill="none" xmlns="http://www.w3.org/2000/svg">
<rect x="0.5" y="0.5" width="165.237" height="36.1291" rx="18.0646" fill="#00E0B8" stroke="#00E0B8"/>
<path d="M56.0312 21.5751C55.8872 20.8391 55.4872 19.7351 55.0392 18.8871L54.2072 19.1591V17.8471H55.6472V16.4871H53.2152V14.8551H55.2952V13.5271H53.2152V11.6391H51.8392V13.5271H49.5992V14.8551H51.8392V16.4871H49.0072V17.8471H51.0872C51.0232 21.4471 50.7672 23.8951 48.9432 25.3351C49.2312 25.5751 49.6312 26.0391 49.8072 26.3751C51.8712 24.6791 52.1912 21.8471 52.2552 17.8471H53.0072V24.8231C53.0072 24.9991 52.9592 25.0311 52.7832 25.0471C52.6232 25.0631 52.0792 25.0631 51.5032 25.0471C51.6632 25.3831 51.8232 25.8951 51.8552 26.2311C52.7352 26.2311 53.3112 26.2151 53.7112 26.0071C54.0952 25.8151 54.2072 25.4471 54.2072 24.8231V19.3671C54.5912 20.1991 54.9432 21.2391 55.0552 21.9431L56.0312 21.5751ZM49.6792 18.8871C49.4872 20.1671 49.1832 21.4791 48.7032 22.3911C48.9592 22.5191 49.4392 22.7751 49.6472 22.9191C50.1112 21.9751 50.5272 20.5031 50.7352 19.0951L49.6792 18.8871ZM56.7512 18.8711C56.5592 20.2471 56.1912 21.6391 55.5992 22.5831C55.8552 22.7111 56.3352 22.9991 56.5432 23.1431C57.1352 22.1511 57.5672 20.6151 57.8232 19.0471L56.7512 18.8711ZM63.3272 17.8471V16.4871H60.3512V14.8551H62.7672V13.5271H60.3512V11.6391H58.9912V13.5271H56.5592V14.8551H58.9912V16.4871H56.0952V17.8471H58.1432C58.0792 21.4631 57.8232 23.8791 55.9032 25.3031C56.2072 25.5271 56.5912 26.0071 56.7672 26.3111C58.9112 24.6471 59.2472 21.8631 59.3112 17.8471H60.1432V24.9191C60.1432 25.0951 60.0952 25.1431 59.9032 25.1431C59.7272 25.1431 59.1672 25.1431 58.5752 25.1271C58.7352 25.4791 58.8792 26.0071 58.9112 26.3431C59.8232 26.3431 60.4472 26.3271 60.8472 26.1191C61.2472 25.9271 61.3432 25.5591 61.3432 24.9191V17.8471H63.3272ZM61.3592 19.1111C61.9032 20.3751 62.3672 22.0231 62.5112 23.1111L63.6152 22.8071C63.4712 21.7351 62.9752 20.1031 62.3992 18.8711L61.3592 19.1111ZM77.4552 11.9111C76.5752 13.1431 74.9112 14.3911 73.5192 15.1111C73.9032 15.3991 74.3672 15.8791 74.6232 16.2151C76.1432 15.3351 77.8232 13.9591 78.9432 12.5191L77.4552 11.9111ZM77.8392 16.2471C76.8792 17.5271 75.1032 18.8231 73.6152 19.5751C73.9992 19.8791 74.4472 20.3431 74.7192 20.6791C76.3352 19.7671 78.1112 18.3591 79.2952 16.8711L77.8392 16.2471ZM72.4632 11.8151C70.6232 12.3591 67.5352 12.7591 64.9272 12.9831C65.0872 13.3031 65.2632 13.8631 65.3112 14.1991C67.9832 14.0231 71.1832 13.6551 73.3752 13.0631L72.4632 11.8151ZM71.7272 17.7031C72.2072 16.9351 72.8472 15.7191 73.3752 14.6471L71.9192 14.2631C71.6312 15.1911 71.0552 16.5031 70.5752 17.3351L71.7272 17.7031ZM70.3992 16.7111C70.2232 16.0391 69.7592 15.0311 69.2952 14.2951L68.1432 14.6471C68.5912 15.4151 69.0072 16.4551 69.1512 17.1271L70.3992 16.7111ZM67.8552 17.1751C67.6152 16.4871 67.0232 15.4631 66.4312 14.7271L65.3112 15.2231C65.9032 15.9911 66.4792 17.0311 66.6872 17.7351L67.8552 17.1751ZM73.2312 20.2471V18.9031H70.0952V17.3351H68.6552V18.9031H65.1352V20.2471H68.2072C67.2952 21.7031 65.9032 23.1591 64.6232 23.9591C64.9432 24.2951 65.3112 24.8711 65.5192 25.2871C66.5912 24.4871 67.7272 23.2551 68.6552 21.9751V26.2791H70.0952V21.5111C70.9432 22.2791 71.7432 23.2071 72.1592 23.8631L73.1672 22.8871C72.6712 22.1191 71.6152 21.0631 70.5752 20.2471H73.2312ZM78.2232 20.6631C77.0872 22.5671 74.9432 24.1671 72.7192 25.0471C73.1192 25.3831 73.5672 25.9271 73.7912 26.3111C76.1752 25.2071 78.3512 23.4631 79.6952 21.2711L78.2232 20.6631ZM86.3672 16.4391H81.6152V17.6071H86.3832V17.2231C86.6552 17.4791 87.1032 17.9911 87.2792 18.2791C89.2152 17.1591 89.6472 15.4311 89.6472 13.9591V13.5751H91.9672V15.7511C91.9672 17.1271 92.2232 17.6551 93.4552 17.6551H94.3992C94.7032 17.6551 95.0392 17.6391 95.2312 17.5591C95.1832 17.2231 95.1512 16.6951 95.1192 16.3111C94.9272 16.3751 94.5912 16.4071 94.3992 16.4071H93.5832C93.3752 16.4071 93.3432 16.2471 93.3432 15.7991V12.1991H88.2872V13.9271C88.2872 14.9991 88.0312 16.2151 86.3672 17.1431V16.4391ZM81.6152 19.7191H86.3992V18.5671H81.6152V19.7191ZM87.0392 14.3111H83.7912L84.9592 13.6551C84.7352 13.0791 84.2072 12.2311 83.7752 11.5591L82.6072 12.1511C83.0392 12.8071 83.5192 13.7191 83.7592 14.3111H80.9272V15.4951H87.0392V14.3111ZM92.8472 19.9751C92.3512 21.0311 91.6632 21.9271 90.8312 22.6791C89.9352 21.9111 89.2312 21.0151 88.7352 19.9751H92.8472ZM85.0872 24.1991H82.8952V21.9111H85.0872V24.1991ZM93.8072 18.5351L93.5512 18.5831H86.8312V19.9751H88.2712L87.4072 20.2791C87.9832 21.5431 88.7512 22.6471 89.6792 23.5591C88.6872 24.1991 87.5672 24.6631 86.3832 24.9671V20.7111H81.6152V26.1191H82.8952V25.3991H86.3832V25.1751C86.6232 25.5271 86.8632 25.9911 86.9912 26.3271C88.3832 25.9111 89.6952 25.3351 90.8312 24.5351C91.9352 25.3191 93.1992 25.9111 94.6552 26.2791C94.8632 25.8631 95.2792 25.2391 95.5832 24.9351C94.2552 24.6471 93.0552 24.1831 92.0312 23.5591C93.2312 22.3751 94.1752 20.8711 94.7192 18.9351L93.8072 18.5351ZM103.823 14.3111H100.207L101.391 13.6551C101.151 13.0791 100.639 12.2311 100.191 11.5591L99.0232 12.1511C99.4552 12.8071 99.9352 13.7191 100.175 14.3111H97.2152V15.4951H103.823V14.3111ZM103.151 17.6071V16.4391H97.9032V17.6071H103.151ZM103.103 18.5511H97.9032V19.7031H103.103V18.5511ZM101.871 21.9111V24.1991H99.2792V21.9111H101.871ZM103.167 20.7111H97.9992V26.1191H99.2792V25.3991H103.167V20.7111ZM111.423 17.0471H108.287V11.9431H106.751V17.0471H103.791V18.5031H106.751V26.3271H108.287V18.5031H111.423V17.0471ZM121.999 13.7031C121.743 13.4791 121.407 13.2391 121.023 12.9991C121.343 12.6951 121.615 12.3751 121.855 12.0551L120.847 11.7831C120.671 12.0071 120.447 12.2631 120.175 12.4871C119.823 12.2791 119.439 12.0871 119.103 11.9271L118.383 12.5511C118.719 12.6951 119.071 12.8871 119.391 13.0791C118.991 13.3671 118.527 13.6231 118.079 13.8151C118.335 13.9751 118.719 14.3431 118.895 14.5031C119.343 14.2791 119.823 13.9591 120.271 13.6231C120.671 13.8791 121.023 14.1351 121.263 14.3751L121.999 13.7031ZM115.935 16.5831H117.951C118.175 16.7431 118.543 17.1111 118.703 17.3191H115.967L115.935 16.5831ZM114.767 18.4391H125.535V20.3751H127.007V17.3191H125.791C125.919 15.8791 126.063 13.8311 126.143 12.2151H122.335V13.1911H124.687L124.655 13.9111H122.415V14.8711H124.591L124.527 15.6071H122.335V16.5831H124.463C124.431 16.8391 124.399 17.0791 124.383 17.3191H118.799C119.263 17.0471 119.775 16.7431 120.239 16.3751C120.687 16.6791 121.055 16.9671 121.311 17.2231L122.063 16.5351C121.791 16.2791 121.439 16.0071 121.007 15.7191C121.343 15.3991 121.631 15.0791 121.887 14.7431L120.879 14.4231C120.687 14.6951 120.447 14.9511 120.159 15.2071C119.791 14.9831 119.391 14.7751 119.039 14.5991L118.319 15.2231C118.655 15.3831 119.023 15.5911 119.359 15.7991C118.943 16.0871 118.463 16.3431 118.015 16.5511V15.6071H115.855L115.807 14.8711H117.951V13.9111H115.759L115.711 13.2711C116.511 13.1271 117.375 12.9031 118.063 12.6471L117.423 11.7671C116.591 12.0231 115.215 12.4231 114.287 12.5831L114.575 17.3191H113.359V20.3751H114.767V18.4391ZM127.279 22.0871H121.055V21.9591C122.271 21.4311 123.519 20.7431 124.447 20.0231L123.599 19.2551L123.279 19.3351H116.031V20.4231H121.759C121.087 20.8391 120.303 21.2231 119.599 21.5111V22.0871H113.039V23.3031H119.599V24.7911C119.599 24.9991 119.519 25.0631 119.263 25.0631C119.023 25.0631 118.095 25.0631 117.215 25.0311C117.407 25.3831 117.615 25.9111 117.695 26.2951C118.943 26.2951 119.759 26.2951 120.335 26.0871C120.895 25.8951 121.055 25.5431 121.055 24.8391V23.3031H127.279V22.0871ZM141.903 14.8551V16.4231H135.727V14.8551H141.903ZM135.615 17.7191H142.063V16.5031H143.327V13.5591H139.839C139.663 12.9991 139.247 12.1511 138.863 11.5111L137.487 11.9111C137.759 12.3911 138.047 13.0471 138.239 13.5591H134.351V16.5031H135.615V17.7191ZM133.215 12.2311L133.007 12.2951H129.439V26.2951H130.751V13.6231H132.495C132.207 14.6791 131.775 16.0231 131.375 17.0791C132.431 18.2791 132.687 19.3511 132.687 20.1671C132.687 20.6311 132.591 21.0311 132.367 21.2071C132.239 21.2871 132.095 21.3351 131.903 21.3351C131.679 21.3511 131.391 21.3351 131.087 21.3191C131.295 21.6871 131.407 22.2471 131.423 22.6151C131.791 22.6151 132.191 22.6151 132.479 22.5831C132.815 22.5351 133.103 22.4391 133.343 22.2631C133.807 21.9111 133.999 21.2391 133.999 20.3111C133.999 19.3511 133.759 18.2151 132.703 16.9031C133.183 15.6711 133.743 14.1031 134.191 12.7911L133.215 12.2311ZM141.071 24.8551C140.767 24.8551 140.719 24.7911 140.719 24.3591V20.5991H143.407V19.2711H134.399V20.5991H136.479C136.271 22.8551 135.679 24.2951 133.023 25.1431C133.327 25.4151 133.711 25.9591 133.871 26.3271C136.895 25.2711 137.663 23.3991 137.919 20.5991H139.311V24.3751C139.311 25.7191 139.599 26.1191 140.831 26.1191H142.127C143.151 26.1191 143.487 25.5751 143.615 23.4311C143.247 23.3511 142.671 23.1431 142.367 22.8871C142.335 24.5991 142.271 24.8551 141.967 24.8551H141.071Z" fill="white"/>
<path d="M28.4478 20.032C28.1912 19.1894 27.7033 18.4383 27.0412 17.8666C26.8471 17.7182 26.6361 17.5642 26.4111 17.4016L26.1298 17.199L25.8991 17.0307L25.8259 16.9793L25.5446 16.7853L25.404 16.6798L25.2127 16.54C24.1549 15.7554 23.3672 15.0821 22.9874 14.5429L22.2335 16.8481L22.1378 17.1591V17.1762L22.0056 17.5813C22.0038 17.6313 22.0095 17.6813 22.0225 17.7296C22.18 18.2546 23.1 19.0819 25.0945 20.4998L25.2042 20.5797L25.4096 20.7281L25.6178 20.8764C26.9287 21.8321 27.8261 22.5682 28.2537 23.1844L28.2819 23.2187C28.7054 22.2094 28.7641 21.0809 28.4478 20.032V20.032Z" fill="white"/>
<path d="M28.0427 23.8149C27.919 23.3185 27.0722 22.5026 25.5109 21.3757L25.4771 21.4841C24.6528 24.0061 24.4194 25.2985 24.7119 25.6836C24.7585 25.7092 24.8109 25.722 24.8638 25.7207C25.4799 25.7178 26.7712 24.8049 28.0427 23.8149Z" fill="white"/>
<path d="M25.9807 16.4943C26.5011 16.2804 27.0919 14.4973 27.4745 13.2021H27.1059C24.5741 13.2021 23.3306 13.3875 23.1084 13.8012C22.9987 14.3689 24.9117 15.7526 25.9807 16.4943Z" fill="white"/>
<path d="M32.181 12.195C32.484 12.6266 32.8863 12.9767 33.3531 13.2148C33.8198 13.453 34.3368 13.572 34.8591 13.5615C35.2402 13.5598 35.6191 13.5031 35.9844 13.3932C35.9197 13.1964 35.855 12.991 35.7847 12.7713L35.6862 12.4546C35.0926 10.5974 34.4175 8.71728 33.8211 8.60031C33.2528 8.69446 32.5692 10.8627 32.181 12.195Z" fill="white"/>
<path d="M35.6159 23.9661C35.599 23.9646 35.5821 23.9646 35.5652 23.9661C34.9688 23.9661 33.7873 24.7764 32.5157 25.7549L32.6367 25.8434C34.5244 27.2441 35.6525 27.8975 36.187 27.8975C36.2533 27.8969 36.3186 27.8813 36.3783 27.8518C36.7862 27.4296 36.0519 25.2015 35.6159 23.9661Z" fill="white"/>
<path d="M38.6456 21.2644C37.9789 19.4014 37.8186 18.8537 37.5513 17.9436L37.4219 17.5071C36.7484 18.0847 36.2313 18.8271 35.9197 19.6639C35.6917 20.2307 35.5769 20.8377 35.5821 21.4498C35.5821 21.4755 35.5821 21.5012 35.5821 21.5269C35.5821 21.5526 35.5821 21.5839 35.5821 21.6125C35.5821 21.641 35.5821 21.6353 35.5821 21.6467C35.5981 22.3835 35.7668 23.1086 36.0772 23.775C36.1053 23.8549 36.1363 23.9347 36.1616 24.0118C36.2066 24.1487 36.2516 24.2799 36.2966 24.4112C36.7299 25.7121 36.9915 26.7106 36.983 27.3839L38.474 26.2427L38.9016 25.9289L39.1604 25.7321L39.5093 25.4696C39.9116 25.0388 39.3011 23.1045 38.6456 21.2644Z" fill="white"/>
<path opacity="0.3" d="M29.0555 23.6495C29.275 23.4783 29.4831 23.3185 29.6773 23.173C29.4576 23.3145 29.2497 23.4738 29.0555 23.6495V23.6495Z" fill="white"/>
<path d="M32.1275 22.4512C31.259 22.4518 30.4084 22.7021 29.6744 23.173C29.4803 23.3185 29.2721 23.4783 29.0527 23.6495L28.7714 23.8663L28.5463 24.0432L28.4788 24.0974C28.3916 24.1658 28.2988 24.2343 28.2144 24.3028L28.0737 24.4083L27.888 24.551C26.8359 25.3469 25.9723 25.9147 25.3393 26.1172L27.3085 27.5437L27.5645 27.7263H27.5786L27.9218 27.9716C27.972 27.9911 28.0256 27.9998 28.0793 27.9973C28.6195 27.9973 29.6716 27.3497 31.5902 25.8319L31.6971 25.7492L31.8996 25.5923L32.0994 25.4354C33.385 24.4426 34.3499 23.7893 35.0476 23.5553L35.0898 23.5382C34.2594 22.8333 33.2104 22.4484 32.1275 22.4512V22.4512Z" fill="white"/>
<path opacity="0.3" d="M28.5238 22.4598C28.5632 22.3485 28.5969 22.2315 28.6279 22.1174L28.5238 22.4598Z" fill="white"/>
<path opacity="0.3" d="M31.4411 12.9909L31.3314 13.3647C31.3736 13.242 31.4101 13.1165 31.4411 12.9909Z" fill="white"/>
<path d="M30.6618 8.63454H30.3411L29.8994 8.64595C29.4578 8.72298 28.912 9.92976 28.1637 12.563C28.1637 12.6115 28.1356 12.6572 28.1243 12.7057C28.1131 12.7542 28.0765 12.8711 28.0512 12.9539L27.9808 13.1992C27.5167 14.7826 27.1144 15.8952 26.6812 16.4943C26.7571 16.4943 26.8303 16.4943 26.9062 16.4943H27.1031C28.0372 16.4665 28.9409 16.1515 29.6945 15.5911C30.4481 15.0307 31.016 14.2512 31.3229 13.3561L31.4326 12.9824C31.4776 12.8312 31.5226 12.6971 31.5648 12.5345C31.5651 12.5297 31.5651 12.525 31.5648 12.5202C31.5958 12.4175 31.6239 12.3234 31.6521 12.2349L31.6858 12.1208C31.7139 12.021 31.7421 11.9182 31.773 11.8355C31.804 11.7528 31.8321 11.6387 31.863 11.5502C31.863 11.516 31.8827 11.4817 31.894 11.4475C32.3047 10.1152 32.6704 9.16518 33.0643 8.62598L30.6618 8.63454Z" fill="white"/>
<path d="M32.4792 13.2334V13.2653C32.4804 13.2557 32.4804 13.2459 32.4792 13.2363V13.2334Z" fill="white"/>
<path opacity="0.5" d="M37.5963 16.4088C37.4528 16.4401 37.2981 16.4801 37.1349 16.5229C37.2925 16.4915 37.45 16.4544 37.6048 16.4088H37.5963Z" fill="white"/>
<path d="M40.3335 13.2391C40.0747 13.2163 39.8215 13.2021 39.5712 13.2021C38.6637 13.2074 37.762 13.3497 36.8958 13.6243C36.7917 13.6528 36.682 13.6842 36.5892 13.7156L36.3669 13.7898L36.3163 13.8069L36.1334 13.8611C35.7233 13.9846 35.2981 14.049 34.8703 14.0522C34.3405 14.0548 33.8158 13.947 33.3287 13.7356C33.0879 13.6294 32.8579 13.4995 32.6423 13.3476L32.4847 13.2306C32.486 13.2401 32.486 13.2496 32.4847 13.2591C32.6372 14.1238 33.0631 14.9148 33.698 15.5123C34.3329 16.1099 35.1424 16.4816 36.004 16.5714C36.1386 16.5853 36.2739 16.5919 36.4091 16.5913C36.6526 16.5903 36.8955 16.5674 37.1349 16.5229C37.2981 16.4801 37.4528 16.4401 37.5963 16.4087C38.0332 16.3008 38.4836 16.2594 38.9326 16.2861C39.6096 16.3489 40.2798 16.472 40.9356 16.6541L43.0876 13.8383C42.196 13.5294 41.2716 13.3283 40.3335 13.2391V13.2391Z" fill="white"/>
</svg>
