<svg width="121" height="139" viewBox="0 0 121 139" fill="none" xmlns="http://www.w3.org/2000/svg">
<circle cx="60.5" cy="60.5" r="58.8379" fill="url(#paint0_linear_315_1197)" stroke="white" stroke-width="3.32418"/>
<circle cx="60.5" cy="60.5" r="53.5192" stroke="white" stroke-width="0.664835"/>
<path d="M40.7315 66.8834C43.5059 66.9151 46.2187 66.0588 48.4796 64.4379C48.6026 64.3285 48.6806 64.177 48.6984 64.0126C48.7162 63.8483 48.6724 63.6832 48.5757 63.5497C48.479 63.4161 48.3366 63.3236 48.1759 63.2906C48.0152 63.2575 47.8479 63.2861 47.707 63.3708C42.1392 67.4426 34.2481 65.4067 29.8476 61.0639C26.1452 57.2574 19.9937 53.6586 11.6906 58.1802C11.6083 58.2169 11.5343 58.2705 11.4735 58.3374C11.4127 58.4042 11.3665 58.483 11.3374 58.5688C11.3083 58.6546 11.297 58.7457 11.3044 58.8361C11.3119 58.9265 11.3377 59.0142 11.3804 59.094C11.4232 59.1738 11.4819 59.2438 11.5528 59.2996C11.6237 59.3555 11.7054 59.3959 11.7925 59.4185C11.8797 59.441 11.9706 59.4451 12.0594 59.4306C12.1482 59.416 12.233 59.3829 12.3086 59.3337C18.3972 56.0348 23.9879 56.9345 28.9034 62.0098C32.0953 65.068 36.3108 66.8054 40.7142 66.8774L40.7315 66.8834ZM13.0982 54.3394C19.1868 51.0347 24.7776 51.9342 29.6931 57.0152C32.8862 60.0714 37.1012 61.8088 41.5041 61.8831C44.2794 61.9156 46.9931 61.0571 49.2522 59.432C49.3919 59.3283 49.4852 59.1731 49.512 59.0003C49.5388 58.8274 49.4969 58.6509 49.3952 58.5091C49.3453 58.4397 49.2821 58.3811 49.2094 58.3365C49.1367 58.292 49.0558 58.2623 48.9716 58.2495C48.8861 58.2348 48.7985 58.2376 48.714 58.2574C48.6295 58.2772 48.5499 58.3137 48.4796 58.365C42.906 62.4425 35.0206 60.4008 30.6202 56.058C26.9178 52.2458 20.7663 48.6527 12.4631 53.1743C12.3869 53.2145 12.3194 53.2699 12.2653 53.3374C12.2112 53.4048 12.1713 53.4827 12.1482 53.5663C12.0974 53.7331 12.1139 53.9135 12.1941 54.0682C12.2354 54.1461 12.2918 54.215 12.3597 54.2709C12.4277 54.3268 12.5059 54.3685 12.59 54.3937C12.6741 54.4189 12.7623 54.4273 12.8496 54.4179C12.9368 54.4086 13.0213 54.3818 13.0982 54.3394V54.3394ZM13.8879 49.3332C19.9764 46.0343 25.5672 46.934 30.4827 52.0093C33.6739 55.0684 37.8901 56.806 42.2937 56.8769C45.0691 56.9094 47.7827 56.0509 50.0418 54.4258C50.1812 54.3231 50.2746 54.1691 50.3014 53.9972C50.3282 53.8253 50.2863 53.6497 50.1849 53.5089C50.0828 53.3671 49.9292 53.2717 49.7576 53.2436C49.5861 53.2155 49.4106 53.2569 49.2692 53.3588C43.7014 57.4363 35.8101 55.4004 31.4039 51.0518C27.7073 47.2454 21.5559 43.6466 13.2527 48.1682C13.1633 48.2002 13.0818 48.2515 13.0139 48.3183C12.9459 48.3851 12.8931 48.4658 12.8591 48.5551C12.825 48.6444 12.8105 48.7401 12.8166 48.8356C12.8227 48.9311 12.8492 49.024 12.8943 49.1082C12.9394 49.1924 13.002 49.2658 13.0778 49.3233C13.1537 49.3808 13.241 49.421 13.3338 49.4413C13.4265 49.4616 13.5225 49.4614 13.6151 49.4408C13.7078 49.4201 13.7952 49.3794 13.8708 49.3216L13.8879 49.3332ZM81.6578 88.1246C81.4853 88.1276 81.3208 88.1988 81.1999 88.3228C81.0789 88.4469 81.0112 88.6138 81.0113 88.7878L81.0453 91.5965C81.048 91.7839 80.9987 91.968 80.9028 92.1285C80.8069 92.289 80.6683 92.4195 80.5027 92.5047C80.3372 92.59 80.1512 92.6267 79.966 92.6109C79.7807 92.5951 79.6037 92.5275 79.4546 92.4155L72.4618 87.0978C72.3229 86.9931 72.1487 86.9482 71.977 86.9731C71.8053 86.998 71.6504 87.0905 71.5465 87.2305C71.4425 87.3704 71.398 87.5463 71.4227 87.7193C71.4474 87.8924 71.5392 88.0485 71.6781 88.1533L78.6706 93.4709C79.0677 93.7737 79.5519 93.9374 80.0498 93.9378C80.4139 93.9384 80.773 93.8514 81.097 93.6841C81.4815 93.4889 81.8037 93.1884 82.0264 92.817C82.249 92.4457 82.3631 92.0188 82.3558 91.585L82.3217 88.7762C82.3187 88.6013 82.2471 88.4348 82.1228 88.3127C81.9984 88.1906 81.8314 88.123 81.6578 88.1246V88.1246ZM34.9748 52.4072C35.0364 52.4893 35.116 52.5558 35.2073 52.6018C35.2986 52.6478 35.3991 52.6721 35.5012 52.6725C35.6409 52.6722 35.777 52.6277 35.8904 52.5455C35.9606 52.4938 36.0197 52.4285 36.0639 52.3532C36.1082 52.2778 36.1366 52.1942 36.1478 52.1073C36.1613 52.0226 36.1578 51.936 36.1371 51.8527C36.1165 51.7695 36.0791 51.6913 36.0276 51.6229L27.2038 39.6903C27.0927 39.5401 27.0255 39.3614 27.0099 39.1747C26.9942 38.988 27.0306 38.8006 27.1152 38.6337C27.1998 38.4669 27.329 38.3274 27.4882 38.2307C27.6475 38.1341 27.8304 38.0841 28.0163 38.0868L43.707 38.2944C43.879 38.2944 44.0441 38.2261 44.1663 38.104C44.2885 37.982 44.3579 37.8161 44.3594 37.6427C44.3609 37.5562 44.3454 37.4703 44.3136 37.3899C44.2818 37.3094 44.2343 37.2362 44.1741 37.1744C44.1139 37.1127 44.0421 37.0637 43.9629 37.0302C43.8837 36.9968 43.7987 36.9795 43.7128 36.9795L28.0336 36.7661C27.6017 36.7562 27.1757 36.8696 26.8051 37.0933C26.4344 37.3171 26.1343 37.642 25.9392 38.0305C25.744 38.419 25.662 38.8552 25.7025 39.2887C25.743 39.7222 25.9044 40.1353 26.168 40.4802L34.9748 52.4072ZM103.019 50.3827C102.954 49.9537 102.77 49.5521 102.489 49.2236C102.208 48.8951 101.84 48.6532 101.428 48.5258L78.539 41.3397C78.3848 41.2912 78.2448 41.2052 78.1311 41.0896C78.0174 40.974 77.9337 40.8323 77.8869 40.6765L70.7795 17.6071C70.6566 17.1895 70.419 16.8156 70.0941 16.5285C69.7691 16.2414 69.3702 16.0526 68.9435 15.9844C68.5167 15.9163 68.0793 15.9715 67.6822 16.1433C67.2851 16.3151 66.9445 16.5964 66.6995 16.9552L52.8401 36.6796C52.7457 36.8106 52.6215 36.917 52.4783 36.9902C52.335 37.0635 52.1765 37.1013 52.0158 37.1006L49.5324 37.066C49.3692 37.0814 49.2175 37.1576 49.1072 37.2797C48.9968 37.4019 48.9356 37.5612 48.9356 37.7264C48.9356 37.8916 48.9968 38.0509 49.1072 38.173C49.2175 38.2951 49.3692 38.3714 49.5324 38.3867L52.0103 38.4214C52.3825 38.4187 52.7489 38.3288 53.0807 38.1586C53.4124 37.9885 53.7002 37.7426 53.9214 37.4408L67.7752 17.7166C67.8822 17.5624 68.0305 17.4419 68.2027 17.3694C68.375 17.2969 68.5642 17.2754 68.7481 17.3072C68.9328 17.333 69.1061 17.4119 69.2472 17.5347C69.3883 17.6575 69.4913 17.8187 69.5436 17.9991L76.6449 41.0685C76.7569 41.4281 76.9532 41.7553 77.2171 42.0223C77.4811 42.2894 77.8051 42.4885 78.1615 42.6027L101.051 49.7888C101.23 49.8422 101.389 49.9461 101.511 50.0882C101.633 50.2303 101.711 50.4047 101.737 50.5906C101.769 50.7758 101.747 50.9662 101.674 51.1391C101.601 51.3121 101.48 51.4601 101.326 51.5652L81.7436 65.5108C81.4366 65.7267 81.1869 66.0153 81.0163 66.3511C80.8457 66.6869 80.7595 67.0597 80.7651 67.437L80.9023 78.4468C80.9038 78.6202 80.9735 78.786 81.0956 78.9081C81.2178 79.0301 81.3827 79.0984 81.5547 79.0984V79.0984C81.7282 79.0954 81.8935 79.0235 82.0146 78.8982C82.1357 78.7729 82.2028 78.6045 82.2013 78.4296L82.0697 67.4195C82.0677 67.256 82.1054 67.0946 82.1792 66.949C82.253 66.8033 82.3607 66.6778 82.4933 66.5834L102.075 52.6438C102.427 52.3946 102.703 52.0502 102.87 51.6503C103.037 51.2504 103.089 50.8109 103.019 50.3827V50.3827ZM55.9187 78.591C55.8635 78.7088 55.8437 78.8403 55.8622 78.9692C55.8807 79.0981 55.9366 79.2187 56.0226 79.3158C56.1087 79.413 56.2212 79.4826 56.3462 79.5158C56.4712 79.5489 56.603 79.5442 56.7253 79.5023L58.5451 78.8622C58.6978 78.8091 58.8611 78.7945 59.0207 78.8196C59.1803 78.8448 59.3314 78.9089 59.4608 79.0064L64.1015 82.4668C64.2133 82.5528 64.3501 82.5994 64.4907 82.5994C64.5848 82.5996 64.6776 82.5793 64.7632 82.54C64.8487 82.5006 64.9247 82.4431 64.9861 82.3713C65.0476 82.2995 65.0931 82.2154 65.1191 82.1243C65.1452 82.0333 65.1513 81.9376 65.1373 81.8438C65.1261 81.7585 65.0981 81.6762 65.0549 81.6019C65.0116 81.5277 64.954 81.4628 64.8856 81.4113L60.2448 77.9509C59.9456 77.7233 59.5954 77.5732 59.2252 77.5138C58.8551 77.4545 58.4763 77.4879 58.1218 77.6107L56.2906 78.2564C56.2095 78.2843 56.1348 78.3285 56.0709 78.386C56.0071 78.4434 55.9554 78.513 55.9187 78.591V78.591ZM48.6512 82.0514C48.6907 81.9735 48.7143 81.8886 48.7202 81.8013C48.7261 81.7141 48.7142 81.6265 48.6855 81.5439C48.6579 81.4615 48.6145 81.3854 48.5576 81.3201C48.5006 81.2547 48.4311 81.2014 48.3536 81.1632C48.198 81.0886 48.02 81.0762 47.8557 81.1286L35.4154 85.3735C35.2392 85.4344 35.0496 85.4441 34.8681 85.4017C34.6865 85.3593 34.5203 85.2664 34.3886 85.1336C34.2568 85.0008 34.1649 84.8336 34.1229 84.6506C34.0808 84.4677 34.0904 84.2766 34.1508 84.099L39.4152 68.4866C39.443 68.4048 39.4547 68.3183 39.4493 68.232C39.4439 68.1457 39.4216 68.0613 39.3839 67.9836C39.3462 67.9059 39.2937 67.8366 39.2294 67.7794C39.1651 67.7222 39.0901 67.6785 39.0089 67.6505C38.9278 67.6224 38.842 67.6107 38.7563 67.6161C38.6707 67.6215 38.587 67.644 38.5099 67.682C38.4329 67.72 38.3641 67.7729 38.3073 67.8377C38.2506 67.9026 38.2072 67.9781 38.1794 68.0599L32.9147 83.678C32.7925 84.0271 32.7555 84.4006 32.8068 84.7672C32.8582 85.1338 32.9965 85.4827 33.2097 85.7841C33.423 86.0856 33.7049 86.331 34.0321 86.4994C34.3592 86.6678 34.722 86.7543 35.0893 86.7517C35.3425 86.7499 35.5935 86.7072 35.8331 86.625L48.2737 82.3803C48.3566 82.3515 48.4328 82.3058 48.4978 82.2463C48.5627 82.1868 48.6148 82.1147 48.6512 82.0342V82.0514ZM100.919 75.3958L88.9024 72.3854C88.7491 72.346 88.5866 72.364 88.4456 72.4361C88.3045 72.5083 88.1943 72.6295 88.1354 72.7774L83.2773 84.7275C82.8252 85.8522 81.2172 86.2558 79.7008 85.6329C78.9843 85.3452 78.3813 84.8286 77.9841 84.1623C77.826 83.912 77.7272 83.6283 77.6955 83.3333C77.6637 83.0382 77.6996 82.7396 77.8008 82.4609C78.2529 81.342 79.861 80.9325 81.3717 81.5611C81.7938 81.726 82.1819 81.9687 82.5162 82.2764C82.5781 82.3432 82.6531 82.3962 82.7363 82.4324C82.8196 82.4686 82.9094 82.4872 83.0001 82.4868C83.0908 82.4863 83.1804 82.4671 83.2633 82.4302C83.3462 82.3932 83.4205 82.3393 83.4818 82.2719C83.5431 82.2045 83.5902 82.1252 83.6196 82.0387C83.649 81.9523 83.6602 81.8606 83.6528 81.7695C83.6454 81.6784 83.6195 81.5898 83.5765 81.5093C83.5336 81.4288 83.4744 81.3582 83.403 81.3017C82.9556 80.8933 82.4405 80.5673 81.8811 80.3386C79.7008 79.4389 77.3318 80.1654 76.5993 81.959C76.4158 82.4265 76.3434 82.9311 76.3881 83.4318C76.4328 83.9326 76.5932 84.4157 76.8567 84.8427C77.4033 85.7694 78.2411 86.486 79.2373 86.8787C81.4175 87.7784 83.7865 87.0517 84.519 85.2581L89.1597 73.8329L99.8777 76.5206L95.2998 87.7669C95.1769 88.0362 94.9943 88.2733 94.7661 88.4603C94.538 88.6472 94.2704 88.7791 93.9838 88.8455C93.232 89.0456 92.435 88.9825 91.7233 88.6667C91.0062 88.38 90.4029 87.863 90.0066 87.1958C89.8498 86.946 89.7517 86.6635 89.72 86.3696C89.6882 86.0757 89.7238 85.7782 89.8236 85.5003C90.2814 84.3756 91.8837 83.9719 93.4001 84.6005C93.8225 84.7648 94.2107 85.0075 94.5446 85.3158C94.6768 85.4298 94.8456 85.4912 95.0196 85.4887C95.1929 85.4781 95.3552 85.3995 95.4717 85.2696C95.5305 85.2066 95.576 85.1321 95.6055 85.0508C95.635 84.9695 95.6478 84.8832 95.6432 84.7968C95.6348 84.6228 95.5586 84.4591 95.4314 84.3412C94.9857 83.9332 94.4725 83.6073 93.9151 83.3781C91.7291 82.4783 89.337 83.2048 88.6275 84.9984C88.4507 85.4627 88.3826 85.9618 88.4282 86.4569C88.4739 86.952 88.6324 87.4299 88.891 87.8534C89.4371 88.7782 90.2723 89.4941 91.2657 89.8891C91.8757 90.1428 92.5284 90.2761 93.1883 90.2814C93.5909 90.2821 93.9916 90.2257 94.3786 90.1142C94.8577 89.998 95.3033 89.7705 95.6798 89.4501C96.0563 89.1297 96.3534 88.7253 96.5474 88.2688L101.406 76.313C101.441 76.2257 101.458 76.1315 101.454 76.0371C101.45 75.9427 101.427 75.8502 101.384 75.7659C101.342 75.6816 101.282 75.6073 101.209 75.5485C101.135 75.4896 101.05 75.4476 100.959 75.4248L100.919 75.3958ZM89.4746 77.455L97.0624 79.3524C97.1154 79.3609 97.1694 79.3609 97.2225 79.3524C97.3688 79.3528 97.5113 79.3032 97.6265 79.2122C97.7417 79.1212 97.8232 78.994 97.8578 78.8506C97.8786 78.7671 97.8826 78.6801 97.8699 78.5949C97.8571 78.5098 97.8275 78.428 97.7832 78.3544C97.74 78.2798 97.6825 78.2148 97.6136 78.1632C97.5448 78.1117 97.4662 78.0749 97.3828 78.0548L89.7948 76.1514C89.7114 76.129 89.6244 76.1238 89.5389 76.1359C89.4534 76.148 89.3711 76.1769 89.2969 76.2215C89.2228 76.2661 89.1583 76.3254 89.1072 76.3956C89.0561 76.4657 89.0197 76.5455 88.9996 76.6301C88.9775 76.7145 88.9726 76.8024 88.9854 76.8886C88.9982 76.9749 89.0283 77.0578 89.074 77.132C89.1675 77.2856 89.3178 77.3954 89.4917 77.4375L89.4746 77.455ZM45.5611 40.4284C44.2532 39.6238 42.7239 39.2629 41.1976 39.3989C39.6712 39.5348 38.2283 40.1606 37.0807 41.184C36.5732 41.6361 36.1745 42.1989 35.9147 42.8294C35.655 43.4599 35.5409 44.1417 35.5814 44.8232C35.7931 47.3551 38.2995 49.2583 41.4124 49.2583C41.6184 49.2583 41.8358 49.2581 42.0475 49.2293C43.5678 49.1273 45.0111 48.5186 46.1504 47.4991C46.6716 47.046 47.0818 46.4777 47.3488 45.8384C47.6159 45.1991 47.7327 44.5062 47.69 43.8139L45.9733 22.8898C47.5862 23.2195 49.0278 24.1222 50.0359 25.4333C51.2205 27.1174 51.438 29.4703 50.6884 32.3828C50.6451 32.5519 50.6702 32.7315 50.7582 32.8819C50.8462 33.0322 50.9898 33.141 51.1575 33.1846C51.3252 33.2282 51.5034 33.2029 51.6526 33.1142C51.8018 33.0255 51.9097 32.8808 51.953 32.7118C52.8056 29.3898 52.5254 26.6849 51.1005 24.6721C49.0576 21.7884 45.4523 21.4479 45.3035 21.4364C45.2078 21.4288 45.1116 21.4425 45.0216 21.4764C44.9316 21.5103 44.8503 21.5637 44.783 21.6327C44.7167 21.7005 44.666 21.7821 44.6343 21.8718C44.6027 21.9614 44.5908 22.0569 44.5997 22.1517L46.1563 40.8781C45.9696 40.7131 45.7707 40.5628 45.5611 40.4284V40.4284ZM45.2636 46.5188C44.3327 47.3153 43.18 47.8016 41.9637 47.9111C40.7475 48.0205 39.5273 47.7478 38.4711 47.1302C38.0375 46.8806 37.6684 46.5319 37.3931 46.1121C37.1178 45.6924 36.9439 45.2134 36.886 44.7137C36.72 42.7297 38.7173 40.9303 41.3381 40.7112C41.5098 40.7112 41.6927 40.7112 41.8701 40.7112C42.9219 40.6958 43.9557 40.9882 44.8459 41.5532C45.2781 41.7906 45.6451 42.1323 45.914 42.5478C46.183 42.9634 46.3454 43.4398 46.3868 43.9342C46.4282 44.4286 46.3473 44.9254 46.1513 45.3805C45.9552 45.8356 45.6502 46.2348 45.2636 46.5419V46.5188ZM63.9872 50.2157C63.9872 50.2157 63.6837 51.2711 63.4491 52.1304C63.4066 52.2772 63.4239 52.435 63.4969 52.5692C63.5698 52.7033 63.6926 52.8026 63.8383 52.8454H63.8956C65.475 53.3356 70.7224 54.9794 71.9069 55.3889C72.1129 55.4639 72.296 55.5332 72.4791 55.6024C72.7931 55.7487 73.13 55.8384 73.4747 55.8676C73.7063 55.8565 73.9311 55.7847 74.1268 55.6593C74.3225 55.5338 74.4824 55.3591 74.5906 55.1524C74.7011 54.9844 74.7741 54.7944 74.8047 54.5953C74.8353 54.3962 74.8229 54.1927 74.7681 53.9989C74.6164 53.6581 74.3984 53.3515 74.1271 53.0969C73.8558 52.8423 73.5367 52.645 73.1886 52.5168C73.1084 52.5168 65.3948 49.9734 64.7081 49.8119C64.6316 49.7847 64.5501 49.774 64.4692 49.7809C64.3884 49.7878 64.3099 49.8121 64.239 49.8519C64.1681 49.8917 64.1066 49.9465 64.0582 50.0121C64.0098 50.0778 63.9757 50.153 63.9585 50.2329L63.9872 50.2157ZM64.9428 51.1037C66.5279 51.5939 70.9053 53.0128 72.7479 53.6069C73.1139 53.7436 73.4229 54.002 73.6236 54.3394C73.6335 54.3702 73.6361 54.403 73.6311 54.4351C73.6262 54.4671 73.6138 54.4974 73.5951 54.5238C73.4406 54.7487 73.4405 54.7487 72.8739 54.5238C72.708 54.4604 72.5134 54.3797 72.3017 54.3047C71.1572 53.901 66.419 52.4187 64.7366 51.8939C64.771 51.6286 64.8511 51.3518 64.9141 51.1211L64.9428 51.1037ZM50.0647 79.2601C50.6083 83.7298 53.6583 86.9017 58.6482 88.1936C60.3748 88.7574 62.1729 89.0682 63.9872 89.1164C67.8098 89.1164 69.3775 87.2477 70.5277 85.8866C70.6479 85.7424 70.7681 85.5984 70.8826 85.4715C72.1815 84.0009 72.7308 81.4343 73.057 79.9233C73.1142 79.6522 73.1716 79.4042 73.2173 79.2024C74.4587 78.815 75.5142 77.9791 76.1813 76.8551C76.3739 76.6425 76.5199 76.3912 76.6097 76.1179C76.6994 75.8446 76.7309 75.5555 76.7022 75.2691C76.6713 75.0246 76.589 74.7893 76.4607 74.5795C76.3325 74.3696 76.1612 74.1897 75.9584 74.052C75.9144 74.0203 75.8663 73.9952 75.8153 73.9771C75.8153 73.9771 74.8311 73.6368 73.5607 73.2793C73.4702 73.2181 73.4039 73.1268 73.3735 73.0213C73.3432 72.9158 73.3508 72.803 73.3948 72.7025C73.452 72.5872 73.4804 72.5988 73.5205 72.6161C74.3565 72.9384 75.2207 73.1816 76.1014 73.3426C76.3873 73.4011 76.6844 73.3564 76.9408 73.2162C77.1971 73.0759 77.3962 72.8493 77.5032 72.5758C77.6269 72.2569 77.6466 71.9064 77.5591 71.5755C77.4716 71.2446 77.2818 70.9504 77.0171 70.7358C76.9535 70.6858 76.8787 70.6522 76.7994 70.6378C75.8757 70.4446 74.973 70.1608 74.1042 69.7901C73.841 69.6286 73.8697 69.4729 73.9212 69.3576C73.9727 69.2422 74.2245 69.0229 74.3618 69.0633C75.2152 69.4133 76.0883 69.7119 76.9768 69.9574C77.2749 70.0559 77.5988 70.0373 77.8841 69.9059C78.1693 69.7744 78.395 69.5397 78.5161 69.248C78.6407 68.9114 78.6475 68.542 78.5351 68.201C78.4227 67.86 78.1978 67.5681 77.898 67.3736C77.8481 67.3445 77.7942 67.3229 77.7379 67.31C77.4003 67.2119 76.2216 66.8718 75.1229 66.5257C74.9398 66.4161 74.9627 66.3584 74.9913 66.2892C75.0481 66.1728 75.1283 66.0698 75.2269 65.9864C75.3254 65.903 75.44 65.8411 75.5636 65.8048V65.8048C76.0011 65.9268 76.4279 66.0849 76.8396 66.2776L77.4119 66.5201C77.9035 66.6941 78.4429 66.6692 78.9168 66.4508C79.0777 66.3808 79.2228 66.2787 79.3437 66.1509C79.4646 66.0231 79.5589 65.8721 79.6206 65.7068C79.8209 65.1301 79.878 64.4495 78.8022 63.9766H78.7679C78.3787 63.8382 77.0513 63.3595 75.9698 62.9557C75.8831 62.8914 75.8209 62.7989 75.7938 62.6939C75.7667 62.5888 75.7763 62.4778 75.8209 62.379C75.8209 62.379 75.9298 62.1828 76.1014 62.2289C77.0033 62.492 77.8834 62.8256 78.7338 63.2267C78.7933 63.2548 78.8569 63.2725 78.9224 63.2788C80.0668 63.4056 80.6393 62.7999 80.748 62.2405C80.8064 61.8928 80.7352 61.5357 80.5483 61.2377C80.3613 60.9396 80.0718 60.7217 79.7352 60.6257C78.7073 60.2939 77.7017 59.8952 76.7251 59.432C76.6526 59.3768 76.6043 59.2952 76.5904 59.2047C76.5765 59.1143 76.5982 59.022 76.6507 58.9473C76.7023 58.8608 76.8337 58.7166 76.9539 58.7685C77.0741 58.8204 77.7608 59.2068 78.6706 59.6221C79.7121 60.095 80.5592 60.0201 81.2745 59.3914C81.4107 59.2853 81.5193 59.1476 81.591 58.9898C81.6628 58.8321 81.6954 58.6593 81.6863 58.486C81.6419 58.2406 81.5419 58.0088 81.394 57.8088C81.2462 57.6087 81.0544 57.4457 80.8338 57.3326C80.7814 57.2962 80.7233 57.2689 80.662 57.2518C79.6947 56.9753 78.7558 56.6063 77.8581 56.1501C77.7093 55.954 77.5836 55.6947 77.7209 55.5044C77.78 55.4318 77.8599 55.3793 77.9497 55.3543C78.3846 55.5619 80.8452 56.7156 81.4346 56.7156C82.4016 56.7156 82.4818 55.487 82.579 54.1836C82.9109 49.2237 77.8122 46.9687 75.0483 45.746C74.7565 45.6134 74.4762 45.498 74.2587 45.3884C72.027 44.333 63.6266 41.5647 60.4164 42.8393C59.5963 43.1639 58.852 43.6562 58.2305 44.2856C57.609 44.915 57.1237 45.6676 56.8055 46.4957C56.6567 46.8763 56.3534 47.822 56.6281 48.3757C56.665 48.4514 56.7182 48.5181 56.7834 48.5709C56.8487 48.6237 56.9246 48.6615 57.0059 48.6815L60.5653 49.5638L60.3535 50.3137C59.4128 50.0253 58.4577 49.7865 57.4923 49.5985C57.1053 49.4571 56.6783 49.476 56.3051 49.6511C55.9319 49.8262 55.6428 50.1433 55.5009 50.5328C55.3878 50.8992 55.4229 51.2958 55.5987 51.6362C55.7745 51.9765 56.0765 52.2329 56.4392 52.3495L56.5596 52.3841C56.5596 52.3841 57.8528 52.6148 59.5695 53.0935L59.3577 53.8547C58.4198 53.5605 57.4641 53.3274 56.4965 53.1569C56.0927 53.0346 55.6583 53.0664 55.2763 53.2461C54.8943 53.4259 54.5915 53.741 54.4252 54.1315C54.2535 54.6564 54.4252 55.435 55.4037 55.8964L55.5065 55.931L58.551 56.675L58.3392 57.4306C57.6411 57.2345 56.2564 56.8539 55.4266 56.6578C55.0659 56.5504 54.6788 56.5782 54.3369 56.7361C53.995 56.8941 53.7215 57.1715 53.5669 57.517C53.4369 57.8744 53.4433 58.2679 53.585 58.6207C53.7267 58.9734 53.9936 59.2604 54.3336 59.4261C55.3767 59.7982 56.4511 60.0743 57.5437 60.2509L57.3378 60.9718C56.4562 60.6993 55.5522 60.5063 54.6367 60.3951C53.538 60.1644 52.5881 60.5103 52.3478 61.2427C52.2619 61.4907 52.0846 62.3385 53.395 62.9729C53.4621 63.0088 53.5365 63.0286 53.6124 63.0307C53.8012 63.0595 55.0032 63.3538 56.5596 63.7459L56.342 64.5071C55.3264 64.2062 54.2948 63.9637 53.252 63.7806C52.9384 63.661 52.5919 63.6631 52.2799 63.7868C51.9679 63.9104 51.7128 64.1466 51.564 64.4494C51.4391 64.8261 51.4464 65.2345 51.585 65.6063C51.7236 65.978 51.9848 66.2905 52.3249 66.4911C52.3762 66.5242 52.4322 66.5494 52.4908 66.566C52.6396 66.6064 67.1687 70.7129 67.9985 70.9205C68.1256 70.9493 68.2458 71.0034 68.3519 71.0796C68.4581 71.1559 68.5481 71.2528 68.6165 71.3646C68.6609 71.4293 68.6866 71.5051 68.6909 71.5837C68.6775 71.653 68.6481 71.7183 68.6051 71.7741C68.6051 71.7741 68.4106 71.872 67.8155 71.7048L67.6037 71.6471C62.9342 70.3609 52.0218 67.362 51.5526 67.2466C51.4179 67.2125 51.2754 67.229 51.1519 67.2928C50.3679 67.685 50.5281 70.0494 50.8085 71.001C50.2943 73.729 50.0415 76.5005 50.0533 79.2773L50.0647 79.2601ZM51.953 71.0647C51.9824 70.961 51.9824 70.851 51.953 70.7473C51.7465 70.0226 51.69 69.2632 51.787 68.5156C54.322 69.2019 65.2402 72.2065 67.4547 72.8121H67.512C68.0526 73.0203 68.6528 73.0059 69.1829 72.7718C69.3437 72.673 69.4831 72.5423 69.5922 72.3877C69.7014 72.233 69.7784 72.0576 69.8183 71.8721C69.9037 71.486 69.8336 71.0814 69.6235 70.7473C69.4762 70.5018 69.282 70.2883 69.0521 70.119C68.8223 69.9498 68.5614 69.828 68.2846 69.7611C67.535 69.5708 54.551 65.9087 52.9144 65.4415C52.6226 65.2166 52.6053 64.9629 52.6339 64.8994C52.6625 64.836 52.6855 64.8302 53.0346 64.8994C54.2329 65.1244 55.419 65.411 56.5881 65.7586C56.738 65.7995 56.8977 65.781 57.0344 65.7068C57.1011 65.6696 57.1599 65.6191 57.207 65.5587C57.2542 65.4982 57.2888 65.4292 57.309 65.3551L57.8472 63.4517C57.8691 63.3758 57.8752 63.2963 57.8653 63.2179C57.8555 63.1396 57.8299 63.064 57.7899 62.996C57.7511 62.9286 57.699 62.87 57.637 62.8234C57.5751 62.7768 57.5046 62.7434 57.4294 62.7251C54.8029 62.0503 54.1162 61.9002 53.8415 61.8541C53.6997 61.7867 53.5745 61.6881 53.4752 61.5657C53.775 61.4193 54.119 61.3944 54.4364 61.4965H54.5051C55.5455 61.6232 56.571 61.8533 57.5666 62.183C57.6413 62.2095 57.7205 62.2199 57.7994 62.214C57.8783 62.2081 57.9552 62.1858 58.0252 62.1484C58.0951 62.111 58.1565 62.0594 58.2057 61.9969C58.2548 61.9343 58.2904 61.862 58.3104 61.7848L58.8486 59.8817C58.8716 59.8044 58.8783 59.723 58.8681 59.6429C58.858 59.5628 58.8312 59.4858 58.7896 59.4168C58.7481 59.3477 58.6928 59.2882 58.627 59.2422C58.5612 59.1961 58.4866 59.1644 58.4079 59.1492C56.7199 58.8032 55.1348 58.4341 54.9745 58.3419C54.8143 58.2496 54.6083 58.0477 54.677 57.8747C54.7456 57.7017 54.9114 57.6497 55.1975 57.7189C56.342 57.9842 58.5966 58.6301 58.6309 58.6359C58.7042 58.6577 58.781 58.6647 58.857 58.6561C58.9329 58.6476 59.0066 58.6239 59.0732 58.5863C59.1399 58.5487 59.1984 58.4978 59.2453 58.437C59.2923 58.3763 59.3264 58.3067 59.3462 58.2323L59.8785 56.3233C59.8996 56.2483 59.9054 56.1697 59.8955 56.0924C59.8857 56.015 59.8604 55.9405 59.8212 55.8733C59.7824 55.8042 59.7297 55.7441 59.6667 55.6964C59.6037 55.6488 59.5316 55.6147 59.4549 55.5965L55.8843 54.7257C55.6554 54.6104 55.5524 54.4778 55.5753 54.4086C55.5982 54.3394 55.8328 54.1318 56.3478 54.2298C57.4498 54.4405 58.5373 54.7218 59.6038 55.0718C59.6788 55.0973 59.7581 55.1069 59.8369 55.1C59.9157 55.093 59.9921 55.0695 60.0615 55.0313C60.131 54.9946 60.1922 54.9441 60.2414 54.8826C60.2907 54.8211 60.3268 54.7501 60.3476 54.6739L60.8799 52.7705C60.9017 52.697 60.9087 52.62 60.9006 52.5438C60.8925 52.4676 60.8694 52.3938 60.8327 52.3267C60.7959 52.2596 60.7462 52.2005 60.6865 52.1529C60.6269 52.1054 60.5584 52.0701 60.4851 52.0496C58.6482 51.5075 57.189 51.2191 56.8628 51.1614C56.6511 51.0576 56.6052 50.9133 56.6395 50.8153C56.6739 50.7172 56.9029 50.5674 57.292 50.6655C58.4765 50.8616 60.5995 51.5133 60.6167 51.519C60.6912 51.5429 60.7697 51.5512 60.8475 51.5433C60.9252 51.5353 61.0006 51.5112 61.0688 51.4728C61.203 51.3955 61.303 51.2699 61.349 51.1211L61.8813 49.2236C61.9046 49.1479 61.9121 49.0681 61.9034 48.9893C61.8947 48.9105 61.8699 48.8345 61.8307 48.7657C61.7915 48.697 61.7388 48.637 61.6757 48.5897C61.6125 48.5425 61.5402 48.509 61.4636 48.4912L57.7212 47.5627C57.9042 46.7296 58.2881 45.9549 58.8391 45.307C59.39 44.6592 60.0911 44.1583 60.8799 43.8486C61.7128 43.5911 62.59 43.5123 63.455 43.6176H63.3862C61.9642 44.1248 60.7703 45.1297 60.0215 46.4495C59.9727 46.5257 59.9402 46.6112 59.9257 46.7007C59.9113 46.7902 59.9151 46.8818 59.9374 46.9696C59.9598 47.0575 60 47.1398 60.0554 47.2113C60.1108 47.2827 60.1804 47.3419 60.2596 47.385C60.3388 47.4281 60.4259 47.4541 60.5155 47.4616C60.6052 47.4691 60.6953 47.4577 60.7804 47.4284C60.8656 47.399 60.9438 47.3522 61.0101 47.291C61.0764 47.2297 61.1296 47.1554 61.166 47.0724C61.7612 46.0356 62.7051 45.2478 63.8269 44.8519C63.907 44.8229 63.9807 44.7782 64.0437 44.7204C64.1067 44.6626 64.1576 44.5931 64.1937 44.5154C64.2299 44.4377 64.2506 44.3536 64.2544 44.2679C64.2582 44.1821 64.2452 44.0965 64.2161 44.0158C64.1881 43.9335 64.1436 43.8575 64.0856 43.7931C64.0275 43.7286 63.9569 43.6768 63.8783 43.6407C67.0144 44.0627 70.0885 44.8644 73.034 46.0285H73C71.578 46.5356 70.3837 47.5406 69.635 48.8604C69.5812 48.9599 69.5542 49.0717 69.5565 49.1851C69.5588 49.2984 69.5906 49.4094 69.6484 49.5067C69.7062 49.6039 69.7882 49.6843 69.8862 49.7398C69.9842 49.7954 70.0948 49.8242 70.2072 49.8235C70.3246 49.8224 70.4397 49.7897 70.5403 49.7288C70.6409 49.668 70.7234 49.5812 70.7795 49.4774C71.3739 48.4434 72.3158 47.658 73.4347 47.2628C73.5164 47.2345 73.5915 47.1898 73.6555 47.1313C73.7194 47.0728 73.7708 47.0016 73.8066 46.9223C73.8724 46.7616 73.8724 46.5815 73.8066 46.4208L73.7722 46.3515L74.6021 46.7263C74.9969 46.8993 75.432 47.0897 75.884 47.3031C74.4906 47.8144 73.3225 48.8076 72.5878 50.1059C72.539 50.1821 72.5064 50.2676 72.492 50.3571C72.4775 50.4466 72.4814 50.5382 72.5037 50.6261C72.5261 50.7139 72.5662 50.7962 72.6216 50.8677C72.677 50.9391 72.7467 50.9983 72.8259 51.0414C72.9051 51.0845 72.9921 51.1105 73.0818 51.118C73.1715 51.1255 73.2618 51.1144 73.347 51.0851C73.4321 51.0557 73.51 51.0089 73.5764 50.9476C73.6427 50.8864 73.6959 50.8118 73.7323 50.7288C74.3275 49.692 75.2714 48.9042 76.3931 48.5083C76.4736 48.4791 76.5476 48.4342 76.6105 48.3757C76.6734 48.3173 76.724 48.2466 76.7594 48.1682C76.8199 48.0407 76.8361 47.8965 76.8053 47.7587C79.1686 48.9987 81.6292 50.8847 81.4175 54.0048C81.3994 54.465 81.3516 54.9234 81.2745 55.3774C80.5706 55.1467 78.7164 54.3277 78.4817 54.2239C78.1974 54.1039 77.8815 54.083 77.584 54.1645C77.2865 54.246 77.0246 54.4254 76.8396 54.6739C76.6508 54.9104 76.1071 55.7696 77.0456 56.9C77.0917 56.9563 77.148 57.0032 77.2115 57.0383C78.1912 57.5503 79.2185 57.9638 80.2786 58.2726C80.3543 58.3215 80.4252 58.3775 80.4904 58.4399C80.2558 58.6417 79.9183 58.8032 79.1629 58.4399C78.5907 58.1861 78.0583 57.9149 77.5261 57.6266L77.4689 57.5979C77.143 57.4547 76.7755 57.4411 76.4401 57.5598C76.1046 57.6786 75.8263 57.9208 75.6608 58.2379C75.46 58.562 75.388 58.9505 75.4591 59.3258C75.5301 59.7011 75.739 60.0357 76.0441 60.2624L76.1129 60.3027C77.1708 60.8283 78.2669 61.2716 79.3918 61.6291C79.5806 61.6925 79.6321 61.8254 79.6206 61.8831C79.6092 61.9408 79.449 62.0215 79.1515 62.0042C78.2728 61.5908 77.3616 61.2511 76.4275 60.989C76.1159 60.9001 75.7831 60.9244 75.4873 61.0571C75.1914 61.1899 74.951 61.423 74.808 61.7158C74.6273 62.0668 74.5783 62.4715 74.6697 62.8561C74.7612 63.2406 74.987 63.5791 75.3059 63.8093C75.3558 63.8491 75.4119 63.8804 75.4719 63.9017C75.5005 63.9017 77.8868 64.8069 78.3675 64.9569L78.5907 65.0492C78.5751 65.1137 78.556 65.1773 78.5334 65.2396C78.5042 65.271 78.4691 65.2964 78.4303 65.3145C78.2369 65.3891 78.023 65.3891 77.8296 65.3145C77.6694 65.2568 77.4862 65.176 77.2574 65.0895C76.7913 64.8697 76.3067 64.6922 75.8094 64.559C75.4037 64.5247 74.9979 64.6236 74.6524 64.8408C74.3069 65.0581 74.0403 65.3822 73.8924 65.7645C73.7623 66.0884 73.7634 66.4508 73.8949 66.7741C74.0264 67.0974 74.2783 67.3561 74.5965 67.4947L74.6993 67.5406C75.7408 67.8694 76.8624 68.1925 77.3317 68.3252C77.3802 68.3765 77.4147 68.4395 77.4317 68.5082C77.4488 68.577 77.4477 68.6489 77.4289 68.7172C77.4289 68.7172 77.4289 68.7691 77.24 68.7172C76.4049 68.4914 75.5849 68.2122 74.7851 67.8811H74.7396C74.368 67.7799 73.9726 67.8166 73.6258 67.985C73.2791 68.1534 73.004 68.4421 72.851 68.798C72.6935 69.1464 72.6757 69.5427 72.8016 69.9039C72.9274 70.2651 73.1873 70.5632 73.5264 70.7358C74.4454 71.1462 75.4043 71.4594 76.3875 71.6701C76.4519 71.7925 76.4662 71.9352 76.4275 72.0681C76.4275 72.0969 76.4276 72.1259 76.2674 72.1086C75.4707 71.96 74.6891 71.7377 73.9326 71.4451C73.6311 71.3269 73.2957 71.3326 72.9983 71.4609C72.7008 71.5892 72.4649 71.8302 72.3417 72.1317C72.1661 72.5101 72.1406 72.9415 72.2704 73.3381C72.4002 73.7348 72.6755 74.0665 73.0399 74.2655L73.1715 74.3232C74.2359 74.6231 75.1114 74.9 75.3403 74.9923C75.4538 75.0822 75.5295 75.2119 75.5521 75.3556C75.5529 75.4892 75.5276 75.6216 75.4775 75.7453C75.4274 75.869 75.3534 75.9816 75.2601 76.0765C75.2322 76.1053 75.209 76.1384 75.1914 76.1745C74.9123 76.6492 74.5417 77.0626 74.1014 77.3905C73.6611 77.7184 73.16 77.9541 72.6278 78.0835C72.5288 78.104 72.4369 78.1505 72.3615 78.2184C72.2861 78.2863 72.2299 78.373 72.1986 78.4699C72.1128 78.7294 72.0271 79.1158 71.9183 79.6234C71.6151 81.0364 71.1057 83.3953 70.0128 84.6411L69.6694 85.039L69.6409 85.0793C68.1759 86.8095 66.1617 89.203 58.9573 87.0114C54.4595 85.8579 51.7128 83.0376 51.2321 79.11C51.2268 76.4178 51.4642 73.7307 51.9415 71.0819L51.953 71.0647ZM58.7684 89.8027C58.7769 89.7116 58.7664 89.6197 58.7377 89.5329C58.7089 89.4461 58.6624 89.3663 58.6013 89.2986C58.5402 89.2309 58.4656 89.1768 58.3825 89.1398C58.2995 89.1028 58.2096 89.0837 58.1188 89.0837C58.0279 89.0837 57.9383 89.1028 57.8553 89.1398C57.7722 89.1768 57.6976 89.2309 57.6365 89.2986C57.5754 89.3663 57.5289 89.4461 57.5001 89.5329C57.4714 89.6197 57.4609 89.7116 57.4694 89.8027L57.3892 93.9322C57.3876 94.2198 57.3016 94.5006 57.1417 94.7387C56.9817 94.9769 56.7552 95.1617 56.4909 95.2701C56.3333 95.336 56.2028 95.4546 56.1215 95.6058C56.0403 95.757 56.013 95.9316 56.0444 96.1006C56.0808 96.2644 56.1717 96.4109 56.3017 96.5157C56.4318 96.6205 56.5932 96.6775 56.7597 96.6773L63.8154 96.7235C63.9822 96.7247 64.1442 96.668 64.2745 96.563C64.4047 96.458 64.4952 96.311 64.5307 96.1468C64.564 95.9791 64.5389 95.805 64.4597 95.6537C64.3805 95.5024 64.2521 95.3833 64.0959 95.3163C63.8311 95.205 63.6051 95.0165 63.4471 94.7751C63.2891 94.5336 63.2061 94.2502 63.2088 93.9609L63.289 90.9215C63.2738 90.7585 63.1987 90.6071 63.0786 90.4969C62.9585 90.3866 62.8021 90.3256 62.6396 90.3256C62.4772 90.3256 62.3205 90.3866 62.2004 90.4969C62.0803 90.6071 62.0052 90.7585 61.99 90.9215L61.9098 93.9609C61.9055 94.4773 62.0443 94.9847 62.3105 95.4259L58.2649 95.3971C58.5369 94.9598 58.6817 94.454 58.6826 93.9378L58.7684 89.8027ZM70.6537 68.8788C70.7823 68.6941 70.8684 68.4829 70.906 68.2604C70.9436 68.038 70.9317 67.8099 70.8711 67.5927C70.765 67.3152 70.6013 67.0635 70.3911 66.8546C70.1809 66.6458 69.9292 66.4845 69.6523 66.3815L69.5721 66.3528H69.5263C68.1816 65.9779 61.4465 64.0861 60.8399 63.9419C60.6951 63.9047 60.5413 63.9262 60.4119 64.0016C60.2825 64.0771 60.1878 64.2007 60.1476 64.3458C60.1476 64.3458 59.844 65.4011 59.6094 66.2604C59.5682 66.405 59.5847 66.5599 59.6552 66.6924C59.7258 66.8249 59.8449 66.9245 59.9872 66.9698C60.691 67.2005 66.8826 69.2248 68.1186 69.3632C68.3825 69.3932 68.6444 69.4396 68.9027 69.5018C69.1061 69.5578 69.3155 69.5886 69.5263 69.5938C69.7561 69.5839 69.9797 69.5147 70.1751 69.3925C70.3705 69.2703 70.5314 69.0991 70.6423 68.896L70.6537 68.8788ZM69.6867 68.2328C69.5436 68.4347 69.5437 68.4348 69.1603 68.3483C68.8606 68.2753 68.5566 68.2212 68.2502 68.1866C67.409 68.0944 63.2947 66.8026 60.8799 66.0183C60.96 65.7299 61.0401 65.4416 61.1087 65.2109C63.0486 65.7415 69.1659 67.4542 69.2002 67.4657C69.5607 67.6272 69.7267 67.8176 69.7725 67.9329C69.782 67.9898 69.7782 68.0482 69.7613 68.1033C69.7444 68.1584 69.7149 68.2087 69.6752 68.2503L69.6867 68.2328ZM73.1545 97.2138L47.4039 97.035C46.6335 97.0348 45.8938 97.3393 45.3438 97.8829C45.0683 98.1542 44.8489 98.4779 44.6986 98.8353C44.5483 99.1927 44.4699 99.5767 44.4681 99.9648V100.184C44.4661 100.27 44.4813 100.356 44.5128 100.436C44.5442 100.516 44.5915 100.59 44.6514 100.651C44.7761 100.773 44.9415 100.843 45.1149 100.847L75.4434 101.055C75.6145 101.055 75.7785 100.987 75.9005 100.866C76.0225 100.745 76.0926 100.581 76.0956 100.409V100.19C76.0956 99.7999 76.0192 99.4136 75.8706 99.0536C75.722 98.6935 75.5041 98.3665 75.2297 98.0916C74.9552 97.8166 74.6297 97.5991 74.2716 97.4515C73.9134 97.3038 73.53 97.229 73.143 97.2313L73.1545 97.2138ZM45.8129 99.5207C45.8933 99.2491 46.0389 99.0015 46.2365 98.7998C46.3855 98.6469 46.5636 98.526 46.7604 98.4447C46.9571 98.3634 47.1683 98.3235 47.381 98.327L73.1316 98.5058C73.4874 98.5115 73.8318 98.6329 74.1134 98.8522C74.395 99.0716 74.5986 99.377 74.6937 99.7227L45.8129 99.5207ZM60.7424 63.3768C61.4406 63.6074 67.6095 65.6317 68.8742 65.7702C69.138 65.8007 69.3995 65.847 69.6579 65.9087C69.8593 65.9661 70.0668 65.999 70.276 66.0067C70.5116 65.9994 70.7413 65.9301 70.9421 65.8056C71.1429 65.6812 71.3077 65.506 71.4204 65.2973C71.5484 65.1123 71.6339 64.9008 71.6705 64.6784C71.7071 64.4559 71.694 64.228 71.6322 64.0112C71.5261 63.7337 71.3624 63.482 71.1522 63.2731C70.942 63.0643 70.6903 62.903 70.4134 62.8L70.3332 62.7713L70.0471 62.6905C64.897 61.2544 61.9899 60.4412 61.6008 60.3489C61.4559 60.3117 61.3024 60.3331 61.173 60.4086C61.0436 60.484 60.9486 60.6076 60.9084 60.7527C60.9084 60.7527 60.6052 61.808 60.3705 62.6674C60.3445 62.74 60.3334 62.8173 60.3376 62.8944C60.3417 62.9715 60.3609 63.0469 60.3946 63.1163C60.4282 63.1857 60.4754 63.2475 60.5332 63.2982C60.5909 63.3489 60.6582 63.3874 60.731 63.4114L60.7424 63.3768ZM61.8584 61.6465C63.4549 62.0791 67.947 63.3421 69.8697 63.8727H69.9669C70.2108 63.9473 70.4161 64.115 70.5392 64.3399C70.549 64.3923 70.5475 64.4463 70.5347 64.4981C70.5219 64.5499 70.498 64.5982 70.4648 64.6398C70.3275 64.8416 70.3276 64.8417 69.9384 64.7552C69.6387 64.6828 69.3347 64.6287 69.0284 64.5936C68.1872 64.5013 64.0729 63.2096 61.6581 62.4252C61.6981 62.183 61.7783 61.8944 61.8469 61.6637L61.8584 61.6465ZM62.7969 56.1329C62.8599 56.1329 69.5206 58.2266 70.8597 58.6995L71.4319 58.9071C71.7451 59.0555 72.0826 59.1453 72.4277 59.1723C72.6594 59.1612 72.8839 59.0894 73.0796 58.9639C73.2753 58.8385 73.4352 58.6638 73.5434 58.457C73.6538 58.2891 73.7268 58.0991 73.7574 57.9C73.7881 57.7009 73.7756 57.4973 73.7208 57.3036C73.568 56.9634 73.3499 56.6574 73.0787 56.403C72.8076 56.1485 72.4891 55.9509 72.1416 55.8215C72.0615 55.8215 64.3477 53.2839 63.6668 53.1166C63.5211 53.0777 63.3661 53.0982 63.2353 53.1738C63.1046 53.2494 63.0087 53.374 62.9685 53.5204C62.9685 53.5204 62.6653 54.5758 62.4306 55.4351C62.3866 55.5774 62.3989 55.7312 62.465 55.8645C62.5312 55.9979 62.6461 56.1002 62.7855 56.1501L62.7969 56.1329ZM63.9012 54.4027C65.492 54.8929 69.864 56.3059 71.7066 56.9057C72.074 57.0367 72.3841 57.2941 72.5822 57.6325C72.5921 57.6634 72.5945 57.6962 72.5895 57.7282C72.5845 57.7603 72.5722 57.7906 72.5535 57.8169C72.3989 58.0419 72.3991 58.0419 71.8326 57.8169L71.2603 57.5919C70.1159 57.1882 65.3776 55.7062 63.6953 55.1814L63.9012 54.4027ZM61.7668 60.0431C62.4649 60.2738 68.6337 62.2983 69.8926 62.4367C70.1566 62.4657 70.4186 62.5118 70.6766 62.575C70.8805 62.6288 71.0896 62.6599 71.3003 62.6674C71.5362 62.6612 71.7663 62.5923 71.9672 62.4677C72.1682 62.3431 72.3329 62.1674 72.4448 61.958C72.5727 61.773 72.6582 61.5615 72.6948 61.339C72.7315 61.1165 72.7184 60.8887 72.6566 60.6719C72.5501 60.3952 72.3861 60.1445 72.176 59.9366C71.9658 59.7288 71.7143 59.5684 71.4378 59.4663L71.3576 59.4376H71.3173C69.9726 59.0627 63.2375 57.1709 62.631 57.0267C62.4853 56.9878 62.3303 57.0086 62.1996 57.0842C62.0689 57.1598 61.9729 57.2842 61.9327 57.4306C61.9327 57.4306 61.6295 58.4859 61.3949 59.3452C61.3578 59.4851 61.3742 59.6341 61.441 59.7623C61.5078 59.8905 61.62 59.9888 61.7553 60.0374L61.7668 60.0431ZM62.8827 58.3129C64.0272 58.6185 66.8254 59.4029 70.8482 60.5333L70.9798 60.568C71.2236 60.6427 71.4289 60.8103 71.552 61.0352C71.5622 61.0867 71.5607 61.1397 71.5478 61.1906C71.535 61.2415 71.5111 61.2891 71.4777 61.3295C71.3404 61.5371 71.3403 61.5371 70.9454 61.4505C70.6484 61.3746 70.3461 61.3205 70.0413 61.2889C69.2001 61.1909 65.0858 59.9049 62.6709 59.1205C62.7282 58.8206 62.8026 58.5379 62.8713 58.3072L62.8827 58.3129ZM53.7728 72.9968C53.7842 73.0173 53.7975 73.0364 53.8127 73.0543C53.9888 73.2896 54.1799 73.5132 54.385 73.7234C54.4457 73.7871 54.5187 73.8377 54.5993 73.8723C54.6799 73.907 54.7667 73.9251 54.8544 73.9253C55.0226 73.9227 55.1836 73.8567 55.3062 73.7405C55.368 73.6807 55.4177 73.6093 55.452 73.5302C55.4864 73.451 55.5049 73.3657 55.5065 73.2793C55.5074 73.1056 55.4419 72.9382 55.3235 72.8121C55.1729 72.6547 55.0334 72.487 54.9058 72.3102L54.4708 71.5665C54.1856 71.0025 54.0055 70.3905 53.9388 69.7611C53.9309 69.6764 53.9062 69.594 53.8664 69.5189C53.8266 69.4438 53.7724 69.3775 53.7068 69.3238C53.6413 69.2701 53.5658 69.2303 53.4847 69.2063C53.4036 69.1824 53.3188 69.1748 53.2349 69.1844C53.1493 69.1911 53.066 69.2155 52.9901 69.2562C52.9143 69.2969 52.8476 69.3531 52.7943 69.4209C52.7379 69.486 52.6956 69.5621 52.6699 69.6445C52.6443 69.7269 52.6359 69.8138 52.6454 69.8997C52.7289 70.7045 52.9598 71.4867 53.3263 72.2066L53.7728 72.9968ZM57.0573 74.0579C57.2315 74.2947 57.4228 74.5184 57.6295 74.727V74.727C57.1774 74.6059 56.8284 74.5134 56.6395 74.473C56.2937 74.3243 55.9204 74.2516 55.5445 74.2595C55.1686 74.2675 54.7986 74.356 54.4593 74.5192C54.2319 74.6656 54.0398 74.8611 53.8963 75.0914C53.7528 75.3218 53.6617 75.5814 53.6297 75.8515C52.9488 81.5554 54.923 85.2869 59.1861 86.3538C59.9879 86.5638 60.8126 86.6723 61.641 86.6768C66.6939 86.6768 68.6739 82.1323 69.2804 80.1945C69.3571 79.9734 69.3869 79.7385 69.3682 79.5051C69.3494 79.2717 69.2824 79.0448 69.1715 78.8391C68.9839 78.4181 68.6725 78.0657 68.279 77.8298C68.3915 77.8039 68.4951 77.7484 68.5794 77.669C68.6637 77.5896 68.7256 77.4889 68.7588 77.3775C68.7919 77.2661 68.7953 77.1479 68.7683 77.0348C68.7413 76.9217 68.6849 76.818 68.6051 76.734C68.4545 76.5767 68.3149 76.409 68.1874 76.2322L67.7523 75.4882C67.4672 74.9242 67.287 74.3125 67.2203 73.6831C67.2094 73.5539 67.1604 73.431 67.0798 73.33C66.9991 73.2289 66.8903 73.1543 66.7674 73.1159C66.6445 73.0775 66.5131 73.0769 66.3899 73.1142C66.2667 73.1516 66.1574 73.2251 66.0758 73.3254C66.0195 73.3905 65.9771 73.4666 65.9515 73.549C65.9259 73.6315 65.9174 73.7184 65.9269 73.8042C66.0097 74.6091 66.2406 75.3915 66.6078 76.1111L67.0773 76.9126L67.1116 76.9703C67.2684 77.1831 67.4364 77.3873 67.6151 77.5817L65.0172 76.8261C65.1089 76.7945 65.1929 76.7435 65.2633 76.6763C65.3853 76.5531 65.4536 76.386 65.4536 76.2119C65.4536 76.0379 65.3853 75.8711 65.2633 75.7479C65.111 75.5905 64.9693 75.4228 64.8397 75.246L64.4106 74.502C64.1245 73.9384 63.9439 73.3265 63.8783 72.6969C63.8697 72.6124 63.8448 72.5303 63.8048 72.4556C63.7648 72.3808 63.7106 72.3148 63.6452 72.2612C63.5799 72.2077 63.5044 72.1678 63.4237 72.1435C63.3429 72.1193 63.2582 72.1114 63.1744 72.1202C63.0882 72.1278 63.0043 72.1525 62.9277 72.1931C62.8511 72.2337 62.7833 72.2891 62.7282 72.3564C62.674 72.4226 62.6335 72.4992 62.6089 72.5814C62.5843 72.6636 62.5762 72.7498 62.5852 72.8352C62.6679 73.6401 62.8988 74.4225 63.2661 75.1421L63.7296 75.9439C63.741 75.9644 63.7543 75.9838 63.7696 76.0016C63.9301 76.2218 64.1041 76.4317 64.2904 76.6301L61.5782 75.8515C61.6862 75.8208 61.7845 75.7627 61.8637 75.6825C61.9429 75.6024 62 75.5029 62.03 75.3939C62.0599 75.2848 62.0615 75.1699 62.0344 75.0602C62.0074 74.9504 61.9525 74.8495 61.8754 74.7673C61.7215 74.6115 61.58 74.4436 61.4521 74.2655L61.0171 73.5214C60.7302 72.9586 60.5517 72.3461 60.4907 71.7163C60.473 71.5415 60.3892 71.3804 60.2563 71.2666C60.1904 71.2122 60.1145 71.1714 60.033 71.1466C59.9515 71.1219 59.8659 71.1138 59.7813 71.1224C59.61 71.1378 59.4516 71.2206 59.3406 71.3531C59.2299 71.4886 59.1763 71.6625 59.1917 71.8374C59.2745 72.6424 59.5054 73.4247 59.8726 74.1444L60.342 74.9517L60.3764 75.0038C60.5414 75.2343 60.723 75.452 60.9199 75.6555L58.2476 74.8999C58.353 74.8737 58.4498 74.82 58.5281 74.7442C58.5883 74.6837 58.636 74.6119 58.6686 74.5327C58.7012 74.4535 58.7178 74.3686 58.7178 74.2829C58.7178 74.1972 58.7012 74.1123 58.6686 74.0331C58.636 73.954 58.5883 73.8819 58.5281 73.8214C58.3836 73.6678 58.248 73.5061 58.1218 73.337L57.6753 72.5758C57.3895 72.01 57.2093 71.3961 57.1433 70.7648C57.1246 70.5948 57.04 70.439 56.9083 70.3311C56.7767 70.2232 56.6082 70.1719 56.4392 70.188C56.3537 70.1954 56.2707 70.2201 56.195 70.2607C56.1193 70.3013 56.0526 70.3569 55.9989 70.4243C55.9428 70.4895 55.9004 70.5658 55.8748 70.6482C55.8492 70.7305 55.8408 70.8172 55.8499 70.903C55.9327 71.708 56.1636 72.4903 56.5309 73.21L57.0573 74.0579ZM67.6093 78.8101C67.8332 78.916 68.0093 79.1036 68.1016 79.335C68.1808 79.4705 68.2073 79.6309 68.1759 79.785C67.5064 81.9074 65.3147 86.7058 59.4493 85.2178C54.8142 84.0643 54.345 79.5716 54.7627 75.99C54.772 75.8951 54.8014 75.8031 54.8488 75.7205C54.8962 75.638 54.9604 75.5667 55.0374 75.5113C55.4438 75.3695 55.889 75.3921 56.2791 75.5747H56.3708C56.8514 75.6842 66.6193 78.493 67.5978 78.8044L67.6093 78.8101ZM63.6036 48.053C63.6963 48.1053 63.8008 48.1328 63.9071 48.1335C64.0244 48.1325 64.1392 48.1 64.2398 48.0392C64.3404 47.9783 64.4232 47.8913 64.4793 47.7874C65.0719 46.7506 66.0142 45.9629 67.1345 45.5672C67.2154 45.539 67.2897 45.4948 67.3536 45.4374C67.4174 45.38 67.4695 45.3105 67.5064 45.2327C67.5619 45.1148 67.5814 44.9829 67.5623 44.8539C67.5433 44.7249 67.4865 44.6045 67.3994 44.5081C67.3123 44.4116 67.1987 44.3436 67.0731 44.3124C66.9474 44.2812 66.8155 44.2883 66.6939 44.3329C65.2719 44.84 64.0777 45.845 63.3289 47.1648C63.2488 47.3195 63.2326 47.4995 63.2834 47.6663C63.3053 47.7466 63.3427 47.8217 63.3938 47.8871C63.4449 47.9525 63.5087 48.0069 63.581 48.0471L63.6036 48.053ZM66.3561 48.1335C66.2759 48.2882 66.2594 48.4685 66.3103 48.6354C66.3334 48.7182 66.3735 48.7953 66.4276 48.8618C66.4818 48.9283 66.5491 48.9827 66.6252 49.0217C66.7197 49.0747 66.8261 49.1026 66.9342 49.1025C67.0515 49.1015 67.1664 49.0688 67.267 49.0079C67.3676 48.9471 67.4503 48.8603 67.5064 48.7564C68.1006 47.721 69.0423 46.9335 70.1617 46.536C70.2426 46.5078 70.3169 46.4638 70.3807 46.4064C70.4446 46.349 70.4966 46.2792 70.5336 46.2014C70.5994 46.0407 70.5994 45.8605 70.5336 45.6999C70.5056 45.6175 70.4611 45.5418 70.4031 45.4774C70.345 45.4129 70.2744 45.3611 70.1958 45.325C70.0364 45.2587 69.8576 45.2587 69.6981 45.325C68.2807 45.8249 67.0871 46.819 66.3332 48.1279L66.3561 48.1335Z" fill="white"/>
<rect x="4.5" y="111.5" width="113" height="27" rx="13.5" fill="white"/>
<path d="M16.93 123.7V125.26H21.805V123.7H16.93ZM18.07 121.21V122.71H21.88V121.21H18.07ZM18.16 124.615V131.32H19.75V124.615H18.16ZM21.01 123.7V127.84C21.01 127.96 20.98 128.005 20.845 128.005C20.71 128.02 20.335 128.02 19.93 128.005C20.125 128.425 20.29 129.055 20.32 129.52C21.07 129.52 21.61 129.505 22.045 129.25C22.48 128.995 22.57 128.545 22.57 127.87V123.7H21.01ZM22.705 117.85V119.365H30.37V117.85H22.705ZM24.865 123.865H28.21V124.825H24.865V123.865ZM24.865 126.055H28.21V127.015H24.865V126.055ZM24.865 121.69H28.21V122.635H24.865V121.69ZM23.215 120.37V128.335H29.935V120.37H23.215ZM25.63 118.675C25.585 119.41 25.42 120.43 25.27 121.15L26.83 121.435C27.085 120.79 27.4 119.845 27.685 118.9L25.63 118.675ZM24.685 128.35C24.025 128.995 22.705 129.805 21.535 130.225C21.925 130.525 22.45 131.065 22.735 131.395C23.905 130.945 25.33 130.105 26.155 129.31L24.685 128.35ZM26.86 129.355C27.715 129.955 28.825 130.84 29.35 131.395L30.76 130.39C30.175 129.82 29.035 128.995 28.195 128.455L26.86 129.355ZM19.015 117.265C18.505 118.6 17.56 120.235 16.15 121.465C16.48 121.735 16.945 122.425 17.14 122.83C18.88 121.225 19.9 119.41 20.53 118.09V117.61H20.005V117.265H19.015ZM19.15 117.265V118.63H19.48C20.44 119.38 21.67 120.835 22.225 121.705L23.335 120.115C22.735 119.26 21.43 118.06 20.44 117.265H19.15ZM38.785 119.185V120.94H43.9V119.185H38.785ZM31.63 118.105V119.77H39.205V118.105H31.63ZM33.61 121.21V122.815H37.225V121.21H33.61ZM33.61 124.33V125.935H37.225V124.33H33.61ZM43.405 119.185V119.575C42.91 124.525 41.065 128.215 38.08 129.775C38.485 130.12 38.995 130.795 39.265 131.26C42.655 129.19 44.62 125.5 45.205 119.425L44.035 119.14L43.72 119.185H43.405ZM40.54 120.985L38.815 121.315C39.76 125.845 41.365 129.355 44.515 131.26C44.8 130.795 45.355 130.105 45.76 129.76C42.88 128.2 41.275 124.885 40.54 120.985ZM32.665 118.795V128.605H34.375V118.795H32.665ZM36.52 118.795V131.35H38.26V118.795H36.52ZM31.285 127.945L31.615 129.73C33.19 129.49 35.275 129.16 37.225 128.815L37.12 127.18C35.005 127.48 32.77 127.78 31.285 127.945ZM54.25 125.65V129.085C54.25 130.75 54.685 131.29 56.455 131.29C56.8 131.29 58 131.29 58.36 131.29C59.815 131.29 60.295 130.69 60.49 128.395C59.995 128.275 59.2 127.99 58.825 127.69C58.765 129.355 58.675 129.61 58.195 129.61C57.895 129.61 56.965 129.61 56.725 129.61C56.2 129.61 56.125 129.55 56.125 129.07V125.65H54.25ZM50.65 125.905C50.38 127.795 49.9 129.07 46.3 129.775C46.675 130.135 47.14 130.9 47.32 131.365C51.43 130.375 52.255 128.545 52.57 125.905H50.65ZM52.585 121.555V125.185H54.325V121.555H52.585ZM50.56 117.19C49.81 118.57 48.415 120.115 46.39 121.255C46.78 121.54 47.35 122.215 47.605 122.65C49.885 121.225 51.415 119.47 52.525 117.58L50.56 117.19ZM49.81 122.515H57.385V124.48H49.81V122.515ZM48.01 120.91V126.085H59.29V120.91H48.01ZM54.655 118.255V118.6C54.34 119.335 53.545 120.565 52.825 121.33C53.245 121.54 53.86 121.945 54.205 122.215C55.03 121.36 56.05 120.025 56.635 118.99L55.36 118.18L55.075 118.255H54.655ZM50.74 118.255L49.855 119.71H55.195V118.255H50.74ZM63.655 119.575V120.64H74.215V117.925H62.575V118.99H72.58V119.575H63.655ZM63.13 119.575C62.875 120.475 62.515 121.555 62.185 122.305L63.82 122.41C64.12 121.66 64.495 120.55 64.81 119.575H63.13ZM63.295 121.21L62.965 122.275H74.08V121.21H63.295ZM73.495 121.21V121.405C73.435 122.23 73.39 122.575 73.285 122.71C73.195 122.8 73.105 122.815 72.97 122.815C72.805 122.815 72.505 122.8 72.13 122.755C72.28 123.055 72.43 123.535 72.445 123.835C73.03 123.865 73.57 123.865 73.87 123.85C74.185 123.82 74.515 123.715 74.74 123.475C74.995 123.19 75.085 122.665 75.16 121.69C75.16 121.51 75.175 121.21 75.175 121.21H73.495ZM65.995 117.265V120.325C65.995 121.81 65.455 122.89 61.6 123.4C61.9 123.715 62.305 124.39 62.455 124.78C66.91 124.12 67.63 122.5 67.63 120.37V117.265H65.995ZM69.31 117.265V123.31H71.02V117.265H69.31ZM65.32 125.845H71.8V126.46H65.32V125.845ZM65.32 127.42H71.8V128.035H65.32V127.42ZM65.32 124.285H71.8V124.885H65.32V124.285ZM63.58 123.265V129.055H73.63V123.265H63.58ZM69.325 129.775C70.885 130.285 72.46 130.915 73.33 131.38L75.34 130.51C74.26 130.045 72.385 129.37 70.78 128.875L69.325 129.775ZM66.025 128.875C65.005 129.4 63.22 129.85 61.63 130.105C62.02 130.405 62.635 131.05 62.935 131.41C64.465 131.02 66.4 130.345 67.63 129.61L66.025 128.875ZM82.09 124.855V126.445H90.28V124.855H82.09ZM87.4 125.8L86.125 126.265C86.905 127.945 88.24 129.715 89.515 130.72C89.785 130.285 90.355 129.67 90.745 129.355C89.485 128.59 88.12 127.135 87.4 125.8ZM84.115 121.585H88.255V122.56H84.115V121.585ZM84.115 119.26H88.255V120.205H84.115V119.26ZM82.525 117.835V123.97H89.92V117.835H82.525ZM84.985 125.68C84.28 127.15 82.885 128.635 81.46 129.4C81.835 129.715 82.39 130.36 82.66 130.78C84.16 129.805 85.54 128.005 86.335 126.145L84.985 125.68ZM85.39 118.54V123.295H85.3V131.335H87.04V123.295H86.935V118.54H85.39ZM77.125 121.87V123.22H81.52V121.87H77.125ZM77.17 117.73V119.095H81.475V117.73H77.17ZM77.125 123.91V125.275H81.52V123.91H77.125ZM76.435 119.755V121.18H81.91V119.755H76.435ZM77.905 125.995V127.42H80.035V129.13H77.905V130.555H81.535V125.995H77.905ZM77.095 125.995V131.155H78.565V125.995H77.095ZM100.39 124.48V130.54H102.175V124.48H100.39ZM97.39 123.835V125.38H105.205V123.835H97.39ZM96.82 129.46V131.02H105.535V129.46H96.82ZM97.75 126.625V128.14H104.83V126.625H97.75ZM99.535 119.335H103.045V121.405H99.535V119.335ZM97.87 117.82V122.92H104.8V117.82H97.87ZM93.76 118.66V131.335H95.515V118.66H93.76ZM91.6 121.48V123.16H97.105V121.48H91.6ZM93.865 122.155C93.385 123.82 92.335 125.995 91.285 127.195C91.57 127.645 91.96 128.395 92.125 128.92C93.28 127.435 94.345 124.765 94.915 122.62L93.865 122.155ZM96.1 117.415C94.945 117.94 93.085 118.375 91.42 118.66C91.63 119.035 91.855 119.635 91.93 120.025C93.685 119.8 95.77 119.395 97.3 118.81L96.1 117.415ZM95.47 123.565L94.69 124.27C95.155 124.9 96.055 126.265 96.415 126.985L97.435 125.575C97.15 125.23 95.845 123.88 95.47 123.565Z" fill="#00E0B8"/>
<rect x="4.5" y="111.5" width="113" height="27" rx="13.5" stroke="#00E0B8"/>
<defs>
<linearGradient id="paint0_linear_315_1197" x1="19.3415" y1="16.0255" x2="101.733" y2="104.68" gradientUnits="userSpaceOnUse">
<stop stop-color="#FFF176"/>
<stop offset="1" stop-color="#00E0B8"/>
</linearGradient>
</defs>
</svg>
