<?xml version="1.0" encoding="utf-8"?>
<!-- Generator: Adobe Illustrator 26.0.3, SVG Export Plug-In . SVG Version: 6.00 Build 0)  -->
<svg version="1.1" id="圖層_1" xmlns="http://www.w3.org/2000/svg" xmlns:xlink="http://www.w3.org/1999/xlink" x="0px" y="0px"
	 viewBox="0 0 121 139" style="enable-background:new 0 0 121 139;" xml:space="preserve">
<style type="text/css">
	.st0{stroke:url(#SVGID_1_);stroke-width:3.3242;}
	.st1{fill:none;stroke:url(#SVGID_00000040535577550973045080000014683805519341626293_);stroke-width:0.6648;}
	.st2{fill:url(#SVGID_00000181790194123094138570000016444386813059739265_);}
	.st3{fill:url(#SVGID_00000013889469603491982420000016340972484704464779_);}
	.st4{fill:none;stroke:url(#SVGID_00000149345054041661592570000000859138577739467393_);}
</style>
<linearGradient id="SVGID_1_" gradientUnits="userSpaceOnUse" x1="19.3139" y1="123.8169" x2="101.6861" y2="35.1831" gradientTransform="matrix(1 0 0 -1 0 140)">
	<stop  offset="0" style="stop-color:#FFF176"/>
	<stop  offset="1" style="stop-color:#00E0B8"/>
</linearGradient>
<circle class="st0" cx="60.5" cy="60.5" r="58.8"/>
<linearGradient id="SVGID_00000020379580019260961410000012890937584006761140_" gradientUnits="userSpaceOnUse" x1="23.8399" y1="118.9469" x2="97.1601" y2="40.0531" gradientTransform="matrix(1 0 0 -1 0 140)">
	<stop  offset="0" style="stop-color:#FFF176"/>
	<stop  offset="1" style="stop-color:#00E0B8"/>
</linearGradient>
<circle style="fill:none;stroke:url(#SVGID_00000020379580019260961410000012890937584006761140_);stroke-width:0.6648;" cx="60.5" cy="60.5" r="53.5"/>
<linearGradient id="SVGID_00000151522941334700715760000005593676547261069205_" gradientUnits="userSpaceOnUse" x1="29.6823" y1="115.9752" x2="87.1489" y2="49.3093" gradientTransform="matrix(1 0 0 -1 0 140)">
	<stop  offset="0" style="stop-color:#FFF176"/>
	<stop  offset="1" style="stop-color:#00E0B8"/>
</linearGradient>
<path style="fill:url(#SVGID_00000151522941334700715760000005593676547261069205_);" d="M40.7,66.9c2.8,0,5.5-0.8,7.7-2.4
	c0.1-0.1,0.2-0.3,0.2-0.4c0-0.2,0-0.3-0.1-0.5c-0.1-0.1-0.2-0.2-0.4-0.3c-0.2,0-0.3,0-0.5,0.1c-5.6,4.1-13.5,2-17.9-2.3
	c-3.7-3.8-9.9-7.4-18.2-2.9c-0.1,0-0.2,0.1-0.2,0.2c-0.1,0.1-0.1,0.1-0.1,0.2c0,0.1,0,0.2,0,0.3c0,0.1,0,0.2,0.1,0.3
	c0,0.1,0.1,0.1,0.2,0.2c0.1,0.1,0.2,0.1,0.2,0.1c0.1,0,0.2,0,0.3,0c0.1,0,0.2,0,0.2-0.1C18.4,56,24,56.9,28.9,62
	C32.1,65.1,36.3,66.8,40.7,66.9L40.7,66.9z M13.1,54.3c6.1-3.3,11.7-2.4,16.6,2.7c3.2,3.1,7.4,4.8,11.8,4.9c2.8,0,5.5-0.8,7.7-2.5
	c0.1-0.1,0.2-0.3,0.3-0.4c0-0.2,0-0.3-0.1-0.5c-0.1-0.1-0.1-0.1-0.2-0.2c-0.1,0-0.2-0.1-0.2-0.1c-0.1,0-0.2,0-0.3,0
	c-0.1,0-0.2,0.1-0.2,0.1c-5.6,4.1-13.5,2-17.9-2.3c-3.7-3.8-9.9-7.4-18.2-2.9c-0.1,0-0.1,0.1-0.2,0.2c-0.1,0.1-0.1,0.1-0.1,0.2
	c-0.1,0.2,0,0.3,0,0.5c0,0.1,0.1,0.1,0.2,0.2c0.1,0.1,0.1,0.1,0.2,0.1c0.1,0,0.2,0,0.3,0C12.9,54.4,13,54.4,13.1,54.3z M13.9,49.3
	C20,46,25.6,46.9,30.5,52c3.2,3.1,7.4,4.8,11.8,4.9c2.8,0,5.5-0.8,7.7-2.5c0.1-0.1,0.2-0.3,0.3-0.4c0-0.2,0-0.3-0.1-0.5
	c-0.1-0.1-0.3-0.2-0.4-0.3c-0.2,0-0.3,0-0.5,0.1c-5.6,4.1-13.5,2-17.9-2.3c-3.7-3.8-9.8-7.4-18.2-2.9c-0.1,0-0.2,0.1-0.2,0.2
	c-0.1,0.1-0.1,0.1-0.2,0.2c0,0.1,0,0.2,0,0.3c0,0.1,0,0.2,0.1,0.3c0,0.1,0.1,0.2,0.2,0.2s0.2,0.1,0.3,0.1c0.1,0,0.2,0,0.3,0
	C13.7,49.4,13.8,49.4,13.9,49.3L13.9,49.3z M81.7,88.1c-0.2,0-0.3,0.1-0.5,0.2c-0.1,0.1-0.2,0.3-0.2,0.5l0,2.8c0,0.2,0,0.4-0.1,0.5
	s-0.2,0.3-0.4,0.4c-0.2,0.1-0.4,0.1-0.5,0.1c-0.2,0-0.4-0.1-0.5-0.2l-7-5.3C72.3,87,72.1,86.9,72,87c-0.2,0-0.3,0.1-0.4,0.3
	c-0.1,0.1-0.1,0.3-0.1,0.5c0,0.2,0.1,0.3,0.3,0.4l7,5.3c0.4,0.3,0.9,0.5,1.4,0.5c0.4,0,0.7-0.1,1-0.3c0.4-0.2,0.7-0.5,0.9-0.9
	c0.2-0.4,0.3-0.8,0.3-1.2l0-2.8c0-0.2-0.1-0.3-0.2-0.5C82,88.2,81.8,88.1,81.7,88.1z M35,52.4c0.1,0.1,0.1,0.1,0.2,0.2
	c0.1,0,0.2,0.1,0.3,0.1c0.1,0,0.3,0,0.4-0.1c0.1-0.1,0.1-0.1,0.2-0.2c0-0.1,0.1-0.2,0.1-0.2c0-0.1,0-0.2,0-0.3
	c0-0.1-0.1-0.2-0.1-0.2l-8.8-11.9c-0.1-0.2-0.2-0.3-0.2-0.5c0-0.2,0-0.4,0.1-0.5c0.1-0.2,0.2-0.3,0.4-0.4c0.2-0.1,0.3-0.1,0.5-0.1
	l15.7,0.2c0.2,0,0.3-0.1,0.5-0.2c0.1-0.1,0.2-0.3,0.2-0.5c0-0.1,0-0.2,0-0.3c0-0.1-0.1-0.2-0.1-0.2C44.1,37.1,44,37.1,44,37
	c-0.1,0-0.2-0.1-0.3-0.1L28,36.8c-0.4,0-0.9,0.1-1.2,0.3c-0.4,0.2-0.7,0.5-0.9,0.9c-0.2,0.4-0.3,0.8-0.2,1.3c0,0.4,0.2,0.8,0.5,1.2
	L35,52.4z M103,50.4c-0.1-0.4-0.2-0.8-0.5-1.2c-0.3-0.3-0.6-0.6-1.1-0.7l-22.9-7.2c-0.2,0-0.3-0.1-0.4-0.3c-0.1-0.1-0.2-0.3-0.2-0.4
	l-7.1-23.1c-0.1-0.4-0.4-0.8-0.7-1.1c-0.3-0.3-0.7-0.5-1.2-0.5c-0.4-0.1-0.9,0-1.3,0.2c-0.4,0.2-0.7,0.5-1,0.8L52.8,36.7
	c-0.1,0.1-0.2,0.2-0.4,0.3c-0.1,0.1-0.3,0.1-0.5,0.1l-2.5,0c-0.2,0-0.3,0.1-0.4,0.2c-0.1,0.1-0.2,0.3-0.2,0.4c0,0.2,0.1,0.3,0.2,0.4
	s0.3,0.2,0.4,0.2l2.5,0c0.4,0,0.7-0.1,1.1-0.3c0.3-0.2,0.6-0.4,0.8-0.7l13.9-19.7c0.1-0.2,0.3-0.3,0.4-0.3c0.2-0.1,0.4-0.1,0.5-0.1
	c0.2,0,0.4,0.1,0.5,0.2c0.1,0.1,0.2,0.3,0.3,0.5l7.1,23.1c0.1,0.4,0.3,0.7,0.6,1c0.3,0.3,0.6,0.5,0.9,0.6l22.9,7.2
	c0.2,0.1,0.3,0.2,0.5,0.3s0.2,0.3,0.2,0.5c0,0.2,0,0.4-0.1,0.5c-0.1,0.2-0.2,0.3-0.3,0.4L81.7,65.5c-0.3,0.2-0.6,0.5-0.7,0.8
	c-0.2,0.3-0.3,0.7-0.3,1.1l0.1,11c0,0.2,0.1,0.3,0.2,0.5c0.1,0.1,0.3,0.2,0.5,0.2c0.2,0,0.3-0.1,0.5-0.2s0.2-0.3,0.2-0.5l-0.1-11
	c0-0.2,0-0.3,0.1-0.5c0.1-0.1,0.2-0.3,0.3-0.4l19.6-13.9c0.4-0.2,0.6-0.6,0.8-1C103,51.3,103.1,50.8,103,50.4z M55.9,78.6
	c-0.1,0.1-0.1,0.2-0.1,0.4c0,0.1,0.1,0.2,0.2,0.3c0.1,0.1,0.2,0.2,0.3,0.2c0.1,0,0.3,0,0.4,0l1.8-0.6c0.2-0.1,0.3-0.1,0.5,0
	c0.2,0,0.3,0.1,0.4,0.2l4.6,3.5c0.1,0.1,0.2,0.1,0.4,0.1c0.1,0,0.2,0,0.3-0.1c0.1,0,0.2-0.1,0.2-0.2s0.1-0.2,0.1-0.2
	c0-0.1,0-0.2,0-0.3c0-0.1,0-0.2-0.1-0.2c0-0.1-0.1-0.1-0.2-0.2L60.2,78c-0.3-0.2-0.6-0.4-1-0.4c-0.4-0.1-0.7,0-1.1,0.1l-1.8,0.6
	c-0.1,0-0.2,0.1-0.2,0.1C56,78.4,56,78.5,55.9,78.6z M48.7,82.1c0-0.1,0.1-0.2,0.1-0.3c0-0.1,0-0.2,0-0.3c0-0.1-0.1-0.2-0.1-0.2
	c-0.1-0.1-0.1-0.1-0.2-0.2c-0.2-0.1-0.3-0.1-0.5,0l-12.4,4.2c-0.2,0.1-0.4,0.1-0.5,0c-0.2,0-0.3-0.1-0.5-0.3
	c-0.1-0.1-0.2-0.3-0.3-0.5c0-0.2,0-0.4,0-0.6l5.3-15.6c0-0.1,0-0.2,0-0.3c0-0.1,0-0.2-0.1-0.2c0-0.1-0.1-0.1-0.2-0.2
	c-0.1-0.1-0.1-0.1-0.2-0.1c-0.1,0-0.2,0-0.3,0c-0.1,0-0.2,0-0.2,0.1c-0.1,0-0.1,0.1-0.2,0.2c-0.1,0.1-0.1,0.1-0.1,0.2l-5.3,15.6
	c-0.1,0.3-0.2,0.7-0.1,1.1s0.2,0.7,0.4,1c0.2,0.3,0.5,0.5,0.8,0.7c0.3,0.2,0.7,0.3,1.1,0.3c0.3,0,0.5,0,0.7-0.1l12.4-4.2
	c0.1,0,0.2-0.1,0.2-0.1C48.6,82.2,48.6,82.1,48.7,82.1L48.7,82.1z M100.9,75.4l-12-3c-0.2,0-0.3,0-0.5,0.1c-0.1,0.1-0.3,0.2-0.3,0.3
	l-4.9,12c-0.5,1.1-2.1,1.5-3.6,0.9c-0.7-0.3-1.3-0.8-1.7-1.5c-0.2-0.3-0.3-0.5-0.3-0.8c0-0.3,0-0.6,0.1-0.9c0.5-1.1,2.1-1.5,3.6-0.9
	c0.4,0.2,0.8,0.4,1.1,0.7c0.1,0.1,0.1,0.1,0.2,0.2c0.1,0,0.2,0.1,0.3,0.1c0.1,0,0.2,0,0.3-0.1c0.1,0,0.2-0.1,0.2-0.2
	c0.1-0.1,0.1-0.1,0.1-0.2c0-0.1,0-0.2,0-0.3s0-0.2-0.1-0.3s-0.1-0.2-0.2-0.2c-0.4-0.4-1-0.7-1.5-1c-2.2-0.9-4.5-0.2-5.3,1.6
	c-0.2,0.5-0.3,1-0.2,1.5c0,0.5,0.2,1,0.5,1.4c0.5,0.9,1.4,1.6,2.4,2c2.2,0.9,4.5,0.2,5.3-1.6l4.6-11.4l10.7,2.7l-4.6,11.2
	c-0.1,0.3-0.3,0.5-0.5,0.7c-0.2,0.2-0.5,0.3-0.8,0.4c-0.8,0.2-1.5,0.1-2.3-0.2c-0.7-0.3-1.3-0.8-1.7-1.5c-0.2-0.2-0.3-0.5-0.3-0.8
	c0-0.3,0-0.6,0.1-0.9c0.5-1.1,2.1-1.5,3.6-0.9c0.4,0.2,0.8,0.4,1.1,0.7c0.1,0.1,0.3,0.2,0.5,0.2c0.2,0,0.3-0.1,0.5-0.2
	c0.1-0.1,0.1-0.1,0.1-0.2c0-0.1,0-0.2,0-0.3c0-0.2-0.1-0.3-0.2-0.5c-0.4-0.4-1-0.7-1.5-1c-2.2-0.9-4.6-0.2-5.3,1.6
	c-0.2,0.5-0.2,1-0.2,1.5c0,0.5,0.2,1,0.5,1.4c0.5,0.9,1.4,1.6,2.4,2c0.6,0.3,1.3,0.4,1.9,0.4c0.4,0,0.8-0.1,1.2-0.2
	c0.5-0.1,0.9-0.3,1.3-0.7c0.4-0.3,0.7-0.7,0.9-1.2l4.9-12c0-0.1,0.1-0.2,0-0.3c0-0.1,0-0.2-0.1-0.3c0-0.1-0.1-0.2-0.2-0.2
	C101.1,75.5,101.1,75.4,100.9,75.4L100.9,75.4z M89.5,77.5l7.6,1.9c0.1,0,0.1,0,0.2,0c0.1,0,0.3,0,0.4-0.1c0.1-0.1,0.2-0.2,0.2-0.4
	c0-0.1,0-0.2,0-0.3c0-0.1,0-0.2-0.1-0.2c0-0.1-0.1-0.1-0.2-0.2c-0.1-0.1-0.1-0.1-0.2-0.1l-7.6-1.9c-0.1,0-0.2,0-0.3,0
	c-0.1,0-0.2,0-0.2,0.1c-0.1,0-0.1,0.1-0.2,0.2c-0.1,0.1-0.1,0.1-0.1,0.2c0,0.1,0,0.2,0,0.3c0,0.1,0,0.2,0.1,0.2
	C89.2,77.3,89.3,77.4,89.5,77.5L89.5,77.5z M45.6,40.4c-1.3-0.8-2.8-1.2-4.4-1c-1.5,0.1-3,0.8-4.1,1.8c-0.5,0.5-0.9,1-1.2,1.6
	c-0.3,0.6-0.4,1.3-0.3,2c0.2,2.5,2.7,4.4,5.8,4.4c0.2,0,0.4,0,0.6,0c1.5-0.1,3-0.7,4.1-1.7c0.5-0.5,0.9-1,1.2-1.7
	c0.3-0.6,0.4-1.3,0.3-2L46,22.9c1.6,0.3,3.1,1.2,4.1,2.5c1.2,1.7,1.4,4,0.7,6.9c0,0.2,0,0.3,0.1,0.5c0.1,0.2,0.2,0.3,0.4,0.3
	c0.2,0,0.3,0,0.5-0.1c0.1-0.1,0.3-0.2,0.3-0.4c0.9-3.3,0.6-6-0.9-8c-2-2.9-5.6-3.2-5.8-3.2c-0.1,0-0.2,0-0.3,0
	c-0.1,0-0.2,0.1-0.2,0.2c-0.1,0.1-0.1,0.1-0.1,0.2c0,0.1,0,0.2,0,0.3l1.6,18.7C46,40.7,45.8,40.6,45.6,40.4z M45.3,46.5
	c-0.9,0.8-2.1,1.3-3.3,1.4c-1.2,0.1-2.4-0.2-3.5-0.8c-0.4-0.2-0.8-0.6-1.1-1c-0.3-0.4-0.4-0.9-0.5-1.4c-0.2-2,1.8-3.8,4.5-4
	c0.2,0,0.4,0,0.5,0c1.1,0,2.1,0.3,3,0.8c0.4,0.2,0.8,0.6,1.1,1c0.3,0.4,0.4,0.9,0.5,1.4c0,0.5,0,1-0.2,1.4
	C46,45.8,45.7,46.2,45.3,46.5L45.3,46.5z M64,50.2c0,0-0.3,1.1-0.5,1.9c0,0.1,0,0.3,0,0.4c0.1,0.1,0.2,0.2,0.3,0.3h0.1
	c1.6,0.5,6.8,2.1,8,2.5c0.2,0.1,0.4,0.1,0.6,0.2c0.3,0.1,0.7,0.2,1,0.3c0.2,0,0.5-0.1,0.7-0.2c0.2-0.1,0.4-0.3,0.5-0.5
	c0.1-0.2,0.2-0.4,0.2-0.6c0-0.2,0-0.4,0-0.6c-0.2-0.3-0.4-0.6-0.6-0.9c-0.3-0.3-0.6-0.5-0.9-0.6c-0.1,0-7.8-2.5-8.5-2.7
	c-0.1,0-0.2,0-0.2,0s-0.2,0-0.2,0.1c-0.1,0-0.1,0.1-0.2,0.2C64,50.1,64,50.2,64,50.2L64,50.2z M64.9,51.1c1.6,0.5,6,1.9,7.8,2.5
	c0.4,0.1,0.7,0.4,0.9,0.7c0,0,0,0.1,0,0.1c0,0,0,0.1,0,0.1c-0.2,0.2-0.2,0.2-0.7,0c-0.2-0.1-0.4-0.1-0.6-0.2
	c-1.1-0.4-5.9-1.9-7.6-2.4C64.8,51.6,64.9,51.4,64.9,51.1L64.9,51.1z M50.1,79.3c0.5,4.5,3.6,7.6,8.6,8.9c1.7,0.6,3.5,0.9,5.3,0.9
	c3.8,0,5.4-1.9,6.5-3.2c0.1-0.1,0.2-0.3,0.4-0.4c1.3-1.5,1.8-4,2.2-5.5c0.1-0.3,0.1-0.5,0.2-0.7c1.2-0.4,2.3-1.2,3-2.3
	c0.2-0.2,0.3-0.5,0.4-0.7c0.1-0.3,0.1-0.6,0.1-0.8c0-0.2-0.1-0.5-0.2-0.7c-0.1-0.2-0.3-0.4-0.5-0.5c0,0-0.1-0.1-0.1-0.1
	c0,0-1-0.3-2.3-0.7c-0.1-0.1-0.2-0.2-0.2-0.3c0-0.1,0-0.2,0-0.3c0.1-0.1,0.1-0.1,0.1-0.1c0.8,0.3,1.7,0.6,2.6,0.7
	c0.3,0.1,0.6,0,0.8-0.1c0.3-0.1,0.5-0.4,0.6-0.6c0.1-0.3,0.1-0.7,0.1-1c-0.1-0.3-0.3-0.6-0.5-0.8c-0.1-0.1-0.1-0.1-0.2-0.1
	c-0.9-0.2-1.8-0.5-2.7-0.8c-0.3-0.2-0.2-0.3-0.2-0.4c0.1-0.1,0.3-0.3,0.4-0.3c0.9,0.3,1.7,0.6,2.6,0.9c0.3,0.1,0.6,0.1,0.9-0.1
	c0.3-0.1,0.5-0.4,0.6-0.7c0.1-0.3,0.1-0.7,0-1c-0.1-0.3-0.3-0.6-0.6-0.8c0,0-0.1-0.1-0.2-0.1c-0.3-0.1-1.5-0.4-2.6-0.8
	c-0.2-0.1-0.2-0.2-0.1-0.2c0.1-0.1,0.1-0.2,0.2-0.3c0.1-0.1,0.2-0.1,0.3-0.2c0.4,0.1,0.9,0.3,1.3,0.5l0.6,0.2c0.5,0.2,1,0.1,1.5-0.1
	c0.2-0.1,0.3-0.2,0.4-0.3c0.1-0.1,0.2-0.3,0.3-0.4c0.2-0.6,0.3-1.3-0.8-1.7h0c-0.4-0.1-1.7-0.6-2.8-1c-0.1-0.1-0.1-0.2-0.2-0.3
	c0-0.1,0-0.2,0-0.3c0,0,0.1-0.2,0.3-0.2c0.9,0.3,1.8,0.6,2.6,1c0.1,0,0.1,0,0.2,0.1c1.1,0.1,1.7-0.5,1.8-1c0.1-0.3,0-0.7-0.2-1
	c-0.2-0.3-0.5-0.5-0.8-0.6c-1-0.3-2-0.7-3-1.2c-0.1-0.1-0.1-0.1-0.1-0.2c0-0.1,0-0.2,0.1-0.3c0.1-0.1,0.2-0.2,0.3-0.2
	c0.1,0.1,0.8,0.4,1.7,0.9c1,0.5,1.9,0.4,2.6-0.2c0.1-0.1,0.2-0.2,0.3-0.4c0.1-0.2,0.1-0.3,0.1-0.5c0-0.2-0.1-0.5-0.3-0.7
	c-0.1-0.2-0.3-0.4-0.6-0.5c-0.1,0-0.1-0.1-0.2-0.1c-1-0.3-1.9-0.6-2.8-1.1c-0.1-0.2-0.3-0.5-0.1-0.6c0.1-0.1,0.1-0.1,0.2-0.2
	c0.4,0.2,2.9,1.4,3.5,1.4c1,0,1-1.2,1.1-2.5c0.3-5-4.8-7.2-7.5-8.4c-0.3-0.1-0.6-0.2-0.8-0.4c-2.2-1.1-10.6-3.8-13.8-2.5
	c-0.8,0.3-1.6,0.8-2.2,1.4c-0.6,0.6-1.1,1.4-1.4,2.2c-0.1,0.4-0.5,1.3-0.2,1.9c0,0.1,0.1,0.1,0.2,0.2c0.1,0.1,0.1,0.1,0.2,0.1
	l3.6,0.9l-0.2,0.7c-0.9-0.3-1.9-0.5-2.9-0.7c-0.4-0.1-0.8-0.1-1.2,0.1c-0.4,0.2-0.7,0.5-0.8,0.9c-0.1,0.4-0.1,0.8,0.1,1.1
	c0.2,0.3,0.5,0.6,0.8,0.7l0.1,0c0,0,1.3,0.2,3,0.7l-0.2,0.8c-0.9-0.3-1.9-0.5-2.9-0.7c-0.4-0.1-0.8-0.1-1.2,0.1
	c-0.4,0.2-0.7,0.5-0.9,0.9c-0.2,0.5,0,1.3,1,1.8l0.1,0l3,0.7l-0.2,0.8c-0.7-0.2-2.1-0.6-2.9-0.8c-0.4-0.1-0.7-0.1-1.1,0.1
	c-0.3,0.2-0.6,0.4-0.8,0.8c-0.1,0.4-0.1,0.8,0,1.1c0.1,0.4,0.4,0.6,0.7,0.8c1,0.4,2.1,0.6,3.2,0.8L57.3,61c-0.9-0.3-1.8-0.5-2.7-0.6
	c-1.1-0.2-2,0.1-2.3,0.8c-0.1,0.2-0.3,1.1,1,1.7c0.1,0,0.1,0.1,0.2,0.1c0.2,0,1.4,0.3,2.9,0.7l-0.2,0.8c-1-0.3-2-0.5-3.1-0.7
	c-0.3-0.1-0.7-0.1-1,0c-0.3,0.1-0.6,0.4-0.7,0.7c-0.1,0.4-0.1,0.8,0,1.2c0.1,0.4,0.4,0.7,0.7,0.9c0.1,0,0.1,0.1,0.2,0.1
	c0.1,0,14.7,4.1,15.5,4.4c0.1,0,0.2,0.1,0.4,0.2c0.1,0.1,0.2,0.2,0.3,0.3c0,0.1,0.1,0.1,0.1,0.2c0,0.1,0,0.1-0.1,0.2
	c0,0-0.2,0.1-0.8-0.1l-0.2-0.1c-4.7-1.3-15.6-4.3-16.1-4.4c-0.1,0-0.3,0-0.4,0c-0.8,0.4-0.6,2.8-0.3,3.7
	C50.3,73.7,50,76.5,50.1,79.3L50.1,79.3z M52,71.1c0-0.1,0-0.2,0-0.3c-0.2-0.7-0.3-1.5-0.2-2.2c2.5,0.7,13.5,3.7,15.7,4.3h0.1
	c0.5,0.2,1.1,0.2,1.7,0c0.2-0.1,0.3-0.2,0.4-0.4c0.1-0.2,0.2-0.3,0.2-0.5c0.1-0.4,0-0.8-0.2-1.1c-0.1-0.2-0.3-0.5-0.6-0.6
	c-0.2-0.2-0.5-0.3-0.8-0.4c-0.7-0.2-13.7-3.9-15.4-4.3c-0.3-0.2-0.3-0.5-0.3-0.5c0-0.1,0.1-0.1,0.4,0c1.2,0.2,2.4,0.5,3.6,0.9
	c0.1,0,0.3,0,0.4-0.1c0.1,0,0.1-0.1,0.2-0.1c0-0.1,0.1-0.1,0.1-0.2l0.5-1.9c0-0.1,0-0.2,0-0.2c0-0.1,0-0.2-0.1-0.2
	c0-0.1-0.1-0.1-0.2-0.2s-0.1-0.1-0.2-0.1c-2.6-0.7-3.3-0.8-3.6-0.9c-0.1-0.1-0.3-0.2-0.4-0.3c0.3-0.1,0.6-0.2,1-0.1h0.1
	c1,0.1,2.1,0.4,3.1,0.7c0.1,0,0.2,0,0.2,0c0.1,0,0.2,0,0.2-0.1s0.1-0.1,0.2-0.2c0-0.1,0.1-0.1,0.1-0.2l0.5-1.9c0-0.1,0-0.2,0-0.2
	c0-0.1,0-0.2-0.1-0.2c0-0.1-0.1-0.1-0.2-0.2c-0.1,0-0.1-0.1-0.2-0.1c-1.7-0.3-3.3-0.7-3.4-0.8c-0.2-0.1-0.4-0.3-0.3-0.5
	c0.1-0.2,0.2-0.2,0.5-0.2c1.1,0.3,3.4,0.9,3.4,0.9c0.1,0,0.2,0,0.2,0c0.1,0,0.1,0,0.2-0.1s0.1-0.1,0.2-0.1c0-0.1,0.1-0.1,0.1-0.2
	l0.5-1.9c0-0.1,0-0.2,0-0.2c0-0.1,0-0.2-0.1-0.2c0-0.1-0.1-0.1-0.2-0.2c-0.1,0-0.1-0.1-0.2-0.1l-3.6-0.9c-0.2-0.1-0.3-0.2-0.3-0.3
	c0-0.1,0.3-0.3,0.8-0.2c1.1,0.2,2.2,0.5,3.3,0.8c0.1,0,0.2,0,0.2,0c0.1,0,0.2,0,0.2-0.1c0.1,0,0.1-0.1,0.2-0.1
	c0-0.1,0.1-0.1,0.1-0.2l0.5-1.9c0-0.1,0-0.2,0-0.2c0-0.1,0-0.2-0.1-0.2c0-0.1-0.1-0.1-0.1-0.2c-0.1,0-0.1-0.1-0.2-0.1
	c-1.8-0.5-3.3-0.8-3.6-0.9c-0.2-0.1-0.3-0.2-0.2-0.3c0-0.1,0.3-0.2,0.7-0.1c1.2,0.2,3.3,0.8,3.3,0.9c0.1,0,0.2,0,0.2,0
	c0.1,0,0.2,0,0.2-0.1c0.1-0.1,0.2-0.2,0.3-0.4l0.5-1.9c0-0.1,0-0.2,0-0.2c0-0.1,0-0.2-0.1-0.2c0-0.1-0.1-0.1-0.2-0.2
	c-0.1,0-0.1-0.1-0.2-0.1l-3.7-0.9c0.2-0.8,0.6-1.6,1.1-2.3c0.6-0.6,1.3-1.1,2-1.5c0.8-0.3,1.7-0.3,2.6-0.2h-0.1
	c-1.4,0.5-2.6,1.5-3.4,2.8c0,0.1-0.1,0.2-0.1,0.3c0,0.1,0,0.2,0,0.3c0,0.1,0.1,0.2,0.1,0.2c0.1,0.1,0.1,0.1,0.2,0.2
	c0.1,0,0.2,0.1,0.3,0.1c0.1,0,0.2,0,0.3,0c0.1,0,0.2-0.1,0.2-0.1c0.1-0.1,0.1-0.1,0.2-0.2c0.6-1,1.5-1.8,2.7-2.2
	c0.1,0,0.2-0.1,0.2-0.1c0.1-0.1,0.1-0.1,0.2-0.2c0-0.1,0.1-0.2,0.1-0.2c0-0.1,0-0.2,0-0.3c0-0.1-0.1-0.2-0.1-0.2
	c-0.1-0.1-0.1-0.1-0.2-0.2c3.1,0.4,6.2,1.2,9.2,2.4h0c-1.4,0.5-2.6,1.5-3.4,2.8c-0.1,0.1-0.1,0.2-0.1,0.3c0,0.1,0,0.2,0.1,0.3
	c0.1,0.1,0.1,0.2,0.2,0.2c0.1,0.1,0.2,0.1,0.3,0.1c0.1,0,0.2,0,0.3-0.1c0.1-0.1,0.2-0.1,0.2-0.3c0.6-1,1.5-1.8,2.7-2.2
	c0.1,0,0.2-0.1,0.2-0.1c0.1-0.1,0.1-0.1,0.2-0.2c0.1-0.2,0.1-0.3,0-0.5l0-0.1l0.8,0.4c0.4,0.2,0.8,0.4,1.3,0.6
	c-1.4,0.5-2.6,1.5-3.3,2.8c0,0.1-0.1,0.2-0.1,0.3c0,0.1,0,0.2,0,0.3c0,0.1,0.1,0.2,0.1,0.2c0.1,0.1,0.1,0.1,0.2,0.2
	c0.1,0,0.2,0.1,0.3,0.1s0.2,0,0.3,0c0.1,0,0.2-0.1,0.2-0.1c0.1-0.1,0.1-0.1,0.2-0.2c0.6-1,1.5-1.8,2.7-2.2c0.1,0,0.2-0.1,0.2-0.1
	c0.1-0.1,0.1-0.1,0.1-0.2c0.1-0.1,0.1-0.3,0-0.4c2.4,1.2,4.8,3.1,4.6,6.2c0,0.5-0.1,0.9-0.1,1.4c-0.7-0.2-2.6-1-2.8-1.2
	c-0.3-0.1-0.6-0.1-0.9-0.1c-0.3,0.1-0.6,0.3-0.7,0.5c-0.2,0.2-0.7,1.1,0.2,2.2c0,0.1,0.1,0.1,0.2,0.1c1,0.5,2,0.9,3.1,1.2
	c0.1,0,0.1,0.1,0.2,0.2c-0.2,0.2-0.6,0.4-1.3,0c-0.6-0.3-1.1-0.5-1.6-0.8l-0.1,0c-0.3-0.1-0.7-0.2-1,0c-0.3,0.1-0.6,0.4-0.8,0.7
	c-0.2,0.3-0.3,0.7-0.2,1.1c0.1,0.4,0.3,0.7,0.6,0.9l0.1,0c1.1,0.5,2.2,1,3.3,1.3c0.2,0.1,0.2,0.2,0.2,0.3c0,0.1-0.2,0.1-0.5,0.1
	c-0.9-0.4-1.8-0.8-2.7-1c-0.3-0.1-0.6-0.1-0.9,0.1c-0.3,0.1-0.5,0.4-0.7,0.7c-0.2,0.4-0.2,0.8-0.1,1.1c0.1,0.4,0.3,0.7,0.6,1
	c0,0,0.1,0.1,0.2,0.1c0,0,2.4,0.9,2.9,1.1l0.2,0.1c0,0.1,0,0.1-0.1,0.2c0,0-0.1,0.1-0.1,0.1c-0.2,0.1-0.4,0.1-0.6,0
	c-0.2-0.1-0.3-0.1-0.6-0.2c-0.5-0.2-1-0.4-1.4-0.5c-0.4,0-0.8,0.1-1.2,0.3c-0.3,0.2-0.6,0.5-0.8,0.9c-0.1,0.3-0.1,0.7,0,1
	c0.1,0.3,0.4,0.6,0.7,0.7l0.1,0c1,0.3,2.2,0.7,2.6,0.8c0,0.1,0.1,0.1,0.1,0.2c0,0.1,0,0.1,0,0.2c0,0,0,0.1-0.2,0
	c-0.8-0.2-1.7-0.5-2.5-0.8h0c-0.4-0.1-0.8-0.1-1.1,0.1c-0.3,0.2-0.6,0.5-0.8,0.8c-0.2,0.3-0.2,0.7,0,1.1c0.1,0.4,0.4,0.7,0.7,0.8
	c0.9,0.4,1.9,0.7,2.9,0.9c0.1,0.1,0.1,0.3,0,0.4c0,0,0,0.1-0.2,0c-0.8-0.1-1.6-0.4-2.3-0.7c-0.3-0.1-0.6-0.1-0.9,0
	c-0.3,0.1-0.5,0.4-0.7,0.7c-0.2,0.4-0.2,0.8-0.1,1.2c0.1,0.4,0.4,0.7,0.8,0.9l0.1,0.1c1.1,0.3,1.9,0.6,2.2,0.7
	c0.1,0.1,0.2,0.2,0.2,0.4c0,0.1,0,0.3-0.1,0.4c-0.1,0.1-0.1,0.2-0.2,0.3c0,0-0.1,0.1-0.1,0.1c-0.3,0.5-0.6,0.9-1.1,1.2
	c-0.4,0.3-0.9,0.6-1.5,0.7c-0.1,0-0.2,0.1-0.3,0.1c-0.1,0.1-0.1,0.2-0.2,0.3c-0.1,0.3-0.2,0.6-0.3,1.2c-0.3,1.4-0.8,3.8-1.9,5
	L69.7,85l0,0c-1.5,1.7-3.5,4.1-10.7,1.9c-4.5-1.2-7.2-4-7.7-7.9C51.2,76.4,51.5,73.7,52,71.1L52,71.1z M58.8,89.8c0-0.1,0-0.2,0-0.3
	c0-0.1-0.1-0.2-0.1-0.2c-0.1-0.1-0.1-0.1-0.2-0.2c-0.1,0-0.2-0.1-0.3-0.1c-0.1,0-0.2,0-0.3,0.1c-0.1,0-0.2,0.1-0.2,0.2
	c-0.1,0.1-0.1,0.1-0.1,0.2c0,0.1,0,0.2,0,0.3l-0.1,4.1c0,0.3-0.1,0.6-0.2,0.8c-0.2,0.2-0.4,0.4-0.7,0.5c-0.2,0.1-0.3,0.2-0.4,0.3
	C56,95.8,56,95.9,56,96.1c0,0.2,0.1,0.3,0.3,0.4c0.1,0.1,0.3,0.2,0.5,0.2l7.1,0c0.2,0,0.3-0.1,0.5-0.2c0.1-0.1,0.2-0.3,0.3-0.4
	c0-0.2,0-0.3-0.1-0.5s-0.2-0.3-0.4-0.3c-0.3-0.1-0.5-0.3-0.6-0.5c-0.2-0.2-0.2-0.5-0.2-0.8l0.1-3c0-0.2-0.1-0.3-0.2-0.4
	c-0.1-0.1-0.3-0.2-0.4-0.2c-0.2,0-0.3,0.1-0.4,0.2c-0.1,0.1-0.2,0.3-0.2,0.4l-0.1,3c0,0.5,0.1,1,0.4,1.5l-4,0
	c0.3-0.4,0.4-0.9,0.4-1.5L58.8,89.8z M70.7,68.9c0.1-0.2,0.2-0.4,0.3-0.6c0-0.2,0-0.5,0-0.7c-0.1-0.3-0.3-0.5-0.5-0.7
	c-0.2-0.2-0.5-0.4-0.7-0.5l-0.1,0h0c-1.3-0.4-8.1-2.3-8.7-2.4c-0.1,0-0.3,0-0.4,0.1c-0.1,0.1-0.2,0.2-0.3,0.3c0,0-0.3,1.1-0.5,1.9
	c0,0.1,0,0.3,0,0.4c0.1,0.1,0.2,0.2,0.3,0.3c0.7,0.2,6.9,2.3,8.1,2.4c0.3,0,0.5,0.1,0.8,0.1c0.2,0.1,0.4,0.1,0.6,0.1
	c0.2,0,0.5-0.1,0.6-0.2C70.4,69.3,70.5,69.1,70.7,68.9L70.7,68.9z M69.7,68.2c-0.1,0.2-0.1,0.2-0.5,0.1c-0.3-0.1-0.6-0.1-0.9-0.2
	c-0.8-0.1-5-1.4-7.4-2.2c0.1-0.3,0.2-0.6,0.2-0.8c1.9,0.5,8.1,2.2,8.1,2.3c0.4,0.2,0.5,0.4,0.6,0.5c0,0.1,0,0.1,0,0.2
	C69.7,68.2,69.7,68.2,69.7,68.2L69.7,68.2z M73.2,97.2L47.4,97c-0.8,0-1.5,0.3-2.1,0.8c-0.3,0.3-0.5,0.6-0.6,1
	c-0.2,0.4-0.2,0.7-0.2,1.1v0.2c0,0.1,0,0.2,0,0.3c0,0.1,0.1,0.2,0.1,0.2c0.1,0.1,0.3,0.2,0.5,0.2l30.3,0.2c0.2,0,0.3-0.1,0.5-0.2
	c0.1-0.1,0.2-0.3,0.2-0.5v-0.2c0-0.4-0.1-0.8-0.2-1.1c-0.1-0.4-0.4-0.7-0.6-1c-0.3-0.3-0.6-0.5-1-0.6C73.9,97.3,73.5,97.2,73.2,97.2
	L73.2,97.2z M45.8,99.5c0.1-0.3,0.2-0.5,0.4-0.7c0.1-0.2,0.3-0.3,0.5-0.4c0.2-0.1,0.4-0.1,0.6-0.1l25.8,0.2c0.4,0,0.7,0.1,1,0.3
	c0.3,0.2,0.5,0.5,0.6,0.9L45.8,99.5z M60.7,63.4c0.7,0.2,6.9,2.3,8.1,2.4c0.3,0,0.5,0.1,0.8,0.1c0.2,0.1,0.4,0.1,0.6,0.1
	c0.2,0,0.5-0.1,0.7-0.2c0.2-0.1,0.4-0.3,0.5-0.5c0.1-0.2,0.2-0.4,0.3-0.6c0-0.2,0-0.5,0-0.7c-0.1-0.3-0.3-0.5-0.5-0.7
	c-0.2-0.2-0.5-0.4-0.7-0.5l-0.1,0L70,62.7c-5.2-1.4-8.1-2.2-8.4-2.3c-0.1,0-0.3,0-0.4,0.1c-0.1,0.1-0.2,0.2-0.3,0.3
	c0,0-0.3,1.1-0.5,1.9c0,0.1,0,0.1,0,0.2c0,0.1,0,0.2,0.1,0.2c0,0.1,0.1,0.1,0.1,0.2C60.6,63.3,60.7,63.4,60.7,63.4L60.7,63.4z
	 M61.9,61.6c1.6,0.4,6.1,1.7,8,2.2H70c0.2,0.1,0.4,0.2,0.6,0.5c0,0.1,0,0.1,0,0.2c0,0.1,0,0.1-0.1,0.1c-0.1,0.2-0.1,0.2-0.5,0.1
	c-0.3-0.1-0.6-0.1-0.9-0.2c-0.8-0.1-5-1.4-7.4-2.2C61.7,62.2,61.8,61.9,61.9,61.6L61.9,61.6z M62.8,56.1c0.1,0,6.7,2.1,8.1,2.6
	l0.6,0.2c0.3,0.1,0.7,0.2,1,0.3c0.2,0,0.5-0.1,0.7-0.2c0.2-0.1,0.4-0.3,0.5-0.5c0.1-0.2,0.2-0.4,0.2-0.6c0-0.2,0-0.4,0-0.6
	c-0.2-0.3-0.4-0.6-0.6-0.9c-0.3-0.3-0.6-0.5-0.9-0.6c-0.1,0-7.8-2.5-8.5-2.7c-0.1,0-0.3,0-0.4,0.1c-0.1,0.1-0.2,0.2-0.3,0.3
	c0,0-0.3,1.1-0.5,1.9c0,0.1,0,0.3,0,0.4C62.5,56,62.6,56.1,62.8,56.1L62.8,56.1z M63.9,54.4c1.6,0.5,6,1.9,7.8,2.5
	c0.4,0.1,0.7,0.4,0.9,0.7c0,0,0,0.1,0,0.1c0,0,0,0.1,0,0.1c-0.2,0.2-0.2,0.2-0.7,0l-0.6-0.2c-1.1-0.4-5.9-1.9-7.6-2.4L63.9,54.4z
	 M61.8,60c0.7,0.2,6.9,2.3,8.1,2.4c0.3,0,0.5,0.1,0.8,0.1c0.2,0.1,0.4,0.1,0.6,0.1c0.2,0,0.5-0.1,0.7-0.2c0.2-0.1,0.4-0.3,0.5-0.5
	c0.1-0.2,0.2-0.4,0.3-0.6s0-0.5,0-0.7c-0.1-0.3-0.3-0.5-0.5-0.7c-0.2-0.2-0.5-0.4-0.7-0.5l-0.1,0h0c-1.3-0.4-8.1-2.3-8.7-2.4
	c-0.1,0-0.3,0-0.4,0.1c-0.1,0.1-0.2,0.2-0.3,0.3c0,0-0.3,1.1-0.5,1.9c0,0.1,0,0.3,0,0.4C61.5,59.9,61.6,60,61.8,60L61.8,60z
	 M62.9,58.3c1.1,0.3,3.9,1.1,8,2.2l0.1,0c0.2,0.1,0.4,0.2,0.6,0.5c0,0.1,0,0.1,0,0.2c0,0.1,0,0.1-0.1,0.1c-0.1,0.2-0.1,0.2-0.5,0.1
	c-0.3-0.1-0.6-0.1-0.9-0.2c-0.8-0.1-5-1.4-7.4-2.2C62.7,58.8,62.8,58.5,62.9,58.3L62.9,58.3z M53.8,73C53.8,73,53.8,73,53.8,73
	c0.2,0.3,0.4,0.5,0.6,0.7c0.1,0.1,0.1,0.1,0.2,0.1c0.1,0,0.2,0.1,0.3,0.1c0.2,0,0.3-0.1,0.5-0.2c0.1-0.1,0.1-0.1,0.1-0.2
	c0-0.1,0.1-0.2,0.1-0.3c0-0.2-0.1-0.3-0.2-0.5c-0.2-0.2-0.3-0.3-0.4-0.5l-0.4-0.7c-0.3-0.6-0.5-1.2-0.5-1.8c0-0.1,0-0.2-0.1-0.2
	c0-0.1-0.1-0.1-0.2-0.2c-0.1-0.1-0.1-0.1-0.2-0.1c-0.1,0-0.2,0-0.2,0c-0.1,0-0.2,0-0.2,0.1c-0.1,0-0.1,0.1-0.2,0.2
	c-0.1,0.1-0.1,0.1-0.1,0.2c0,0.1,0,0.2,0,0.3c0.1,0.8,0.3,1.6,0.7,2.3L53.8,73z M57.1,74.1c0.2,0.2,0.4,0.5,0.6,0.7
	c-0.5-0.1-0.8-0.2-1-0.3c-0.3-0.1-0.7-0.2-1.1-0.2c-0.4,0-0.7,0.1-1.1,0.3c-0.2,0.1-0.4,0.3-0.6,0.6c-0.1,0.2-0.2,0.5-0.3,0.8
	c-0.7,5.7,1.3,9.4,5.6,10.5c0.8,0.2,1.6,0.3,2.5,0.3c5.1,0,7-4.5,7.6-6.5c0.1-0.2,0.1-0.5,0.1-0.7c0-0.2-0.1-0.5-0.2-0.7
	c-0.2-0.4-0.5-0.8-0.9-1c0.1,0,0.2-0.1,0.3-0.2s0.1-0.2,0.2-0.3c0-0.1,0-0.2,0-0.3c0-0.1-0.1-0.2-0.2-0.3c-0.2-0.2-0.3-0.3-0.4-0.5
	l-0.4-0.7c-0.3-0.6-0.5-1.2-0.5-1.8c0-0.1-0.1-0.3-0.1-0.4c-0.1-0.1-0.2-0.2-0.3-0.2c-0.1,0-0.3,0-0.4,0c-0.1,0-0.2,0.1-0.3,0.2
	C66,73.4,66,73.5,66,73.5c0,0.1,0,0.2,0,0.3c0.1,0.8,0.3,1.6,0.7,2.3l0.5,0.8l0,0.1c0.2,0.2,0.3,0.4,0.5,0.6L65,76.8
	c0.1,0,0.2-0.1,0.2-0.1c0.1-0.1,0.2-0.3,0.2-0.5c0-0.2-0.1-0.3-0.2-0.5c-0.2-0.2-0.3-0.3-0.4-0.5l-0.4-0.7c-0.3-0.6-0.5-1.2-0.5-1.8
	c0-0.1,0-0.2-0.1-0.2c0-0.1-0.1-0.1-0.2-0.2c-0.1-0.1-0.1-0.1-0.2-0.1c-0.1,0-0.2,0-0.2,0c-0.1,0-0.2,0-0.2,0.1
	c-0.1,0-0.1,0.1-0.2,0.2c-0.1,0.1-0.1,0.1-0.1,0.2c0,0.1,0,0.2,0,0.3c0.1,0.8,0.3,1.6,0.7,2.3l0.5,0.8c0,0,0,0,0,0.1
	c0.2,0.2,0.3,0.4,0.5,0.6l-2.7-0.8c0.1,0,0.2-0.1,0.3-0.2c0.1-0.1,0.1-0.2,0.2-0.3s0-0.2,0-0.3c0-0.1-0.1-0.2-0.2-0.3
	c-0.2-0.2-0.3-0.3-0.4-0.5L61,73.5c-0.3-0.6-0.5-1.2-0.5-1.8c0-0.2-0.1-0.3-0.2-0.4c-0.1-0.1-0.1-0.1-0.2-0.1c-0.1,0-0.2,0-0.3,0
	c-0.2,0-0.3,0.1-0.4,0.2c-0.1,0.1-0.2,0.3-0.1,0.5c0.1,0.8,0.3,1.6,0.7,2.3l0.5,0.8l0,0.1c0.2,0.2,0.3,0.4,0.5,0.7l-2.7-0.8
	c0.1,0,0.2-0.1,0.3-0.2c0.1-0.1,0.1-0.1,0.1-0.2s0-0.2,0-0.2s0-0.2,0-0.2c0-0.1-0.1-0.2-0.1-0.2c-0.1-0.2-0.3-0.3-0.4-0.5l-0.4-0.8
	c-0.3-0.6-0.5-1.2-0.5-1.8c0-0.2-0.1-0.3-0.2-0.4c-0.1-0.1-0.3-0.2-0.5-0.1c-0.1,0-0.2,0-0.2,0.1c-0.1,0-0.1,0.1-0.2,0.2
	c-0.1,0.1-0.1,0.1-0.1,0.2c0,0.1,0,0.2,0,0.3c0.1,0.8,0.3,1.6,0.7,2.3L57.1,74.1z M67.6,78.8c0.2,0.1,0.4,0.3,0.5,0.5
	c0.1,0.1,0.1,0.3,0.1,0.5c-0.7,2.1-2.9,6.9-8.7,5.4c-4.6-1.2-5.1-5.6-4.7-9.2c0-0.1,0-0.2,0.1-0.3c0-0.1,0.1-0.2,0.2-0.2
	c0.4-0.1,0.9-0.1,1.2,0.1h0.1C56.9,75.7,66.6,78.5,67.6,78.8L67.6,78.8z M63.6,48.1c0.1,0.1,0.2,0.1,0.3,0.1c0.1,0,0.2,0,0.3-0.1
	c0.1-0.1,0.2-0.1,0.2-0.3c0.6-1,1.5-1.8,2.7-2.2c0.1,0,0.2-0.1,0.2-0.1c0.1-0.1,0.1-0.1,0.2-0.2c0.1-0.1,0.1-0.2,0.1-0.4
	c0-0.1-0.1-0.2-0.2-0.3c-0.1-0.1-0.2-0.2-0.3-0.2c-0.1,0-0.3,0-0.4,0c-1.4,0.5-2.6,1.5-3.4,2.8c-0.1,0.2-0.1,0.3,0,0.5
	c0,0.1,0.1,0.2,0.1,0.2C63.4,48,63.5,48,63.6,48.1L63.6,48.1z M66.4,48.1c-0.1,0.2-0.1,0.3,0,0.5c0,0.1,0.1,0.2,0.1,0.2
	c0.1,0.1,0.1,0.1,0.2,0.2c0.1,0.1,0.2,0.1,0.3,0.1c0.1,0,0.2,0,0.3-0.1c0.1-0.1,0.2-0.1,0.2-0.3c0.6-1,1.5-1.8,2.7-2.2
	c0.1,0,0.2-0.1,0.2-0.1c0.1-0.1,0.1-0.1,0.2-0.2c0.1-0.2,0.1-0.3,0-0.5c0-0.1-0.1-0.2-0.1-0.2c-0.1-0.1-0.1-0.1-0.2-0.2
	c-0.2-0.1-0.3-0.1-0.5,0C68.3,45.8,67.1,46.8,66.4,48.1L66.4,48.1z"/>
<path d="M18,111.5h86c7.5,0,13.5,6,13.5,13.5l0,0c0,7.5-6,13.5-13.5,13.5H18c-7.5,0-13.5-6-13.5-13.5l0,0
	C4.5,117.5,10.5,111.5,18,111.5z"/>
<linearGradient id="SVGID_00000029742167223917246360000017943411914276730279_" gradientUnits="userSpaceOnUse" x1="59.2441" y1="26.9799" x2="63.6601" y2="3.2219" gradientTransform="matrix(1 0 0 -1 0 140)">
	<stop  offset="0" style="stop-color:#FFF176"/>
	<stop  offset="1" style="stop-color:#00E0B8"/>
</linearGradient>
<path style="fill:url(#SVGID_00000029742167223917246360000017943411914276730279_);" d="M16.9,123.7v1.6h4.9v-1.6H16.9z
	 M18.1,121.2v1.5h3.8v-1.5H18.1z M18.2,124.6v6.7h1.6v-6.7H18.2z M21,123.7v4.1c0,0.1,0,0.2-0.2,0.2c-0.1,0-0.5,0-0.9,0
	c0.2,0.4,0.4,1,0.4,1.5c0.8,0,1.3,0,1.7-0.3s0.5-0.7,0.5-1.4v-4.2H21z M22.7,117.8v1.5h7.7v-1.5H22.7z M24.9,123.9h3.3v1h-3.3V123.9
	z M24.9,126.1h3.3v1h-3.3V126.1z M24.9,121.7h3.3v0.9h-3.3V121.7z M23.2,120.4v8h6.7v-8H23.2z M25.6,118.7c0,0.7-0.2,1.8-0.4,2.5
	l1.6,0.3c0.3-0.6,0.6-1.6,0.9-2.5L25.6,118.7z M24.7,128.4c-0.7,0.6-2,1.5-3.1,1.9c0.4,0.3,0.9,0.8,1.2,1.2c1.2-0.4,2.6-1.3,3.4-2.1
	L24.7,128.4z M26.9,129.4c0.9,0.6,2,1.5,2.5,2l1.4-1c-0.6-0.6-1.7-1.4-2.6-1.9L26.9,129.4z M19,117.3c-0.5,1.3-1.5,3-2.9,4.2
	c0.3,0.3,0.8,1,1,1.4c1.7-1.6,2.8-3.4,3.4-4.7v-0.5H20v-0.3H19z M19.1,117.3v1.4h0.3c1,0.8,2.2,2.2,2.7,3.1l1.1-1.6
	c-0.6-0.9-1.9-2.1-2.9-2.8H19.1z M38.8,119.2v1.8h5.1v-1.8H38.8z M31.6,118.1v1.7h7.6v-1.7H31.6z M33.6,121.2v1.6h3.6v-1.6H33.6z
	 M33.6,124.3v1.6h3.6v-1.6H33.6z M43.4,119.2v0.4c-0.5,5-2.3,8.6-5.3,10.2c0.4,0.3,0.9,1,1.2,1.5c3.4-2.1,5.4-5.8,5.9-11.8l-1.2-0.3
	l-0.3,0H43.4z M40.5,121l-1.7,0.3c0.9,4.5,2.6,8,5.7,9.9c0.3-0.5,0.8-1.2,1.2-1.5C42.9,128.2,41.3,124.9,40.5,121z M32.7,118.8v9.8
	h1.7v-9.8H32.7z M36.5,118.8v12.6h1.7v-12.6H36.5z M31.3,127.9l0.3,1.8c1.6-0.2,3.7-0.6,5.6-0.9l-0.1-1.6
	C35,127.5,32.8,127.8,31.3,127.9z M54.2,125.7v3.4c0,1.7,0.4,2.2,2.2,2.2c0.3,0,1.5,0,1.9,0c1.5,0,1.9-0.6,2.1-2.9
	c-0.5-0.1-1.3-0.4-1.7-0.7c-0.1,1.7-0.2,1.9-0.6,1.9c-0.3,0-1.2,0-1.5,0c-0.5,0-0.6-0.1-0.6-0.5v-3.4H54.2z M50.7,125.9
	c-0.3,1.9-0.8,3.2-4.4,3.9c0.4,0.4,0.8,1.1,1,1.6c4.1-1,4.9-2.8,5.2-5.5H50.7z M52.6,121.6v3.6h1.7v-3.6H52.6z M50.6,117.2
	c-0.8,1.4-2.1,2.9-4.2,4.1c0.4,0.3,1,1,1.2,1.4c2.3-1.4,3.8-3.2,4.9-5.1L50.6,117.2z M49.8,122.5h7.6v2h-7.6V122.5z M48,120.9v5.2
	h11.3v-5.2H48z M54.7,118.3v0.3c-0.3,0.7-1.1,2-1.8,2.7c0.4,0.2,1,0.6,1.4,0.9c0.8-0.9,1.8-2.2,2.4-3.2l-1.3-0.8l-0.3,0.1H54.7z
	 M50.7,118.3l-0.9,1.5h5.3v-1.5H50.7z M63.7,119.6v1.1h10.6v-2.7H62.6v1.1h10v0.6H63.7z M63.1,119.6c-0.3,0.9-0.6,2-0.9,2.7l1.6,0.1
	c0.3-0.8,0.7-1.9,1-2.8H63.1z M63.3,121.2l-0.3,1.1h11.1v-1.1H63.3z M73.5,121.2v0.2c-0.1,0.8-0.1,1.2-0.2,1.3
	c-0.1,0.1-0.2,0.1-0.3,0.1c-0.2,0-0.5,0-0.8-0.1c0.2,0.3,0.3,0.8,0.3,1.1c0.6,0,1.1,0,1.4,0c0.3,0,0.6-0.1,0.9-0.4
	c0.3-0.3,0.3-0.8,0.4-1.8c0-0.2,0-0.5,0-0.5H73.5z M66,117.3v3.1c0,1.5-0.5,2.6-4.4,3.1c0.3,0.3,0.7,1,0.9,1.4
	c4.5-0.7,5.2-2.3,5.2-4.4v-3.1H66z M69.3,117.3v6H71v-6H69.3z M65.3,125.8h6.5v0.6h-6.5V125.8z M65.3,127.4h6.5v0.6h-6.5V127.4z
	 M65.3,124.3h6.5v0.6h-6.5V124.3z M63.6,123.3v5.8h10v-5.8H63.6z M69.3,129.8c1.6,0.5,3.1,1.1,4,1.6l2-0.9c-1.1-0.5-3-1.1-4.6-1.6
	L69.3,129.8z M66,128.9c-1,0.5-2.8,1-4.4,1.2c0.4,0.3,1,0.9,1.3,1.3c1.5-0.4,3.5-1.1,4.7-1.8L66,128.9z M82.1,124.9v1.6h8.2v-1.6
	H82.1z M87.4,125.8l-1.3,0.5c0.8,1.7,2.1,3.4,3.4,4.5c0.3-0.4,0.8-1.1,1.2-1.4C89.5,128.6,88.1,127.1,87.4,125.8z M84.1,121.6h4.1v1
	h-4.1V121.6z M84.1,119.3h4.1v0.9h-4.1V119.3z M82.5,117.8v6.1h7.4v-6.1H82.5z M85,125.7c-0.7,1.5-2.1,3-3.5,3.7
	c0.4,0.3,0.9,1,1.2,1.4c1.5-1,2.9-2.8,3.7-4.6L85,125.7z M85.4,118.5v4.8h-0.1v8H87v-8h-0.1v-4.8H85.4z M77.1,121.9v1.3h4.4v-1.3
	H77.1z M77.2,117.7v1.4h4.3v-1.4H77.2z M77.1,123.9v1.4h4.4v-1.4H77.1z M76.4,119.8v1.4h5.5v-1.4H76.4z M77.9,126v1.4H80v1.7h-2.1
	v1.4h3.6V126H77.9z M77.1,126v5.2h1.5V126H77.1z M100.4,124.5v6.1h1.8v-6.1H100.4z M97.4,123.8v1.5h7.8v-1.5H97.4z M96.8,129.5v1.6
	h8.7v-1.6H96.8z M97.8,126.6v1.5h7.1v-1.5H97.8z M99.5,119.3h3.5v2.1h-3.5V119.3z M97.9,117.8v5.1h6.9v-5.1H97.9z M93.8,118.7v12.7
	h1.8v-12.7H93.8z M91.6,121.5v1.7h5.5v-1.7H91.6z M93.9,122.2c-0.5,1.7-1.5,3.8-2.6,5c0.3,0.4,0.7,1.2,0.8,1.7
	c1.2-1.5,2.2-4.2,2.8-6.3L93.9,122.2z M96.1,117.4c-1.2,0.5-3,1-4.7,1.2c0.2,0.4,0.4,1,0.5,1.4c1.8-0.2,3.8-0.6,5.4-1.2L96.1,117.4z
	 M95.5,123.6l-0.8,0.7c0.5,0.6,1.4,2,1.7,2.7l1-1.4C97.2,125.2,95.8,123.9,95.5,123.6z"/>
<linearGradient id="SVGID_00000092416804382402542060000007722265654314138549_" gradientUnits="userSpaceOnUse" x1="56.8468" y1="33.1952" x2="65.1419" y2="-3.1458" gradientTransform="matrix(1 0 0 -1 0 140)">
	<stop  offset="0" style="stop-color:#FFF176"/>
	<stop  offset="1" style="stop-color:#00E0B8"/>
</linearGradient>
<path style="fill:none;stroke:url(#SVGID_00000092416804382402542060000007722265654314138549_);" d="M18,111.5h86
	c7.5,0,13.5,6,13.5,13.5l0,0c0,7.5-6,13.5-13.5,13.5H18c-7.5,0-13.5-6-13.5-13.5l0,0C4.5,117.5,10.5,111.5,18,111.5z"/>
</svg>
