<svg width="103" height="38" viewBox="0 0 103 38" fill="none" xmlns="http://www.w3.org/2000/svg">
<rect width="102.105" height="37.1291" rx="18.5646" fill="#00E0B8"/>
<path d="M39.525 24.9069H41.189V19.0829C41.189 18.0269 41.045 16.5069 40.965 15.4349H41.029L41.957 18.1549L44.021 23.7709H45.173L47.221 18.1549L48.165 15.4349H48.229C48.133 16.5069 47.989 18.0269 47.989 19.0829V24.9069H49.717V13.1309H47.573L45.445 19.0829C45.173 19.8669 44.949 20.6669 44.677 21.4669H44.597C44.325 20.6669 44.085 19.8669 43.813 19.0829L41.653 13.1309H39.525V24.9069ZM52.8063 24.9069H59.9423V23.3389H54.6623V19.5309H58.9823V17.9629H54.6623V14.6829H59.7663V13.1309H52.8063V24.9069ZM62.4 24.9069H64.16V19.3549C64.16 18.0749 64.016 16.7149 63.92 15.4989H64L65.232 17.9629L69.136 24.9069H71.04V13.1309H69.28V18.6189C69.28 19.8989 69.424 21.3229 69.52 22.5389H69.44L68.208 20.0429L64.304 13.1309H62.4V24.9069ZM78.47 25.1149C81.078 25.1149 82.838 23.6909 82.838 19.8509V13.1309H81.046V19.9789C81.046 22.6349 79.958 23.4989 78.47 23.4989C76.998 23.4989 75.942 22.6349 75.942 19.9789V13.1309H74.086V19.8509C74.086 23.6909 75.862 25.1149 78.47 25.1149Z" fill="white"/>
<rect x="15.1892" y="13.5015" width="15.1892" height="2.53153" fill="white"/>
<rect x="15.1892" y="17.7207" width="15.1892" height="2.53153" fill="white"/>
<rect x="15.1892" y="21.9399" width="15.1892" height="2.53153" fill="white"/>
</svg>
